####
#
# OBJ File Generated by Meshlab
#
####
# Object 1016_C167_M_4.obj
#
# Vertices: 157
# Faces: 271
#
####
vn -5.706970 -2.626082 -0.109135
v 95.052117 70.588290 39.707886
vn -5.703621 -2.634263 -0.087464
v 95.142475 70.336378 41.496121
vn -5.700171 -2.641312 -0.093976
v 95.429525 69.773596 39.580983
vn -5.710864 -2.617218 -0.119033
v 94.881424 70.827597 43.705891
vn -5.693309 -2.654783 -0.121963
v 95.776125 68.890720 43.200778
vn -5.649855 -2.746663 -0.110062
v 96.627274 67.122014 42.911873
vn -5.591831 -2.863204 -0.106511
v 97.781191 64.621694 47.353662
vn -2.809587 -1.402924 -0.059538
v 97.229600 65.592100 50.000000
vn -5.685409 -2.673506 -0.080166
v 96.141635 67.987045 46.756703
vn -5.680180 -2.684566 -0.083180
v 96.246550 68.034050 39.585651
vn -2.844265 -1.331447 -0.053268
v 96.201700 67.718400 50.000000
vn -2.854218 -1.312187 -0.044271
v 95.777400 68.657000 50.000000
vn -5.703780 -2.633245 -0.098995
v 95.892276 68.451265 48.521831
vn -2.850844 -1.295004 -0.037028
v 94.424100 71.701200 47.946000
vn -2.851241 -1.318577 -0.045922
v 95.589600 69.484300 38.000000
vn -2.864086 -1.313663 -0.044842
v 94.433700 71.717900 45.411000
vn -2.782649 -1.462884 -0.041076
v 98.667300 63.050700 43.114000
vn -2.776030 -1.454406 -0.057092
v 98.686600 63.084300 40.524000
vn -2.855531 -1.290771 -0.056828
v 94.509500 71.849100 38.386300
vn -2.859760 -1.299141 -0.056628
v 94.715800 71.409100 38.000000
vn -2.816916 -1.389216 0.002037
v 97.503800 65.452400 38.000000
vn -2.860077 -1.317822 -0.045978
v 94.477700 71.794100 40.768100
vn -2.790791 -1.441469 -0.052884
v 98.186400 63.729200 50.000000
vn -1.420719 -0.650458 -0.017844
v 94.512200 71.853800 38.000000
vn -1.445380 -0.650669 -0.032182
v 94.398400 71.656700 50.000000
vn -5.618037 -2.810324 -0.075031
v 97.680128 65.000265 41.014095
vn -5.661841 -2.723183 -0.073999
v 96.853798 66.707459 41.194792
vn -5.629526 -2.786344 -0.115693
v 97.043037 66.109618 46.151896
vn -5.712824 -2.615118 -0.053869
v 95.189214 70.027035 47.298169
vn -2.839408 -1.343999 -0.040249
v 96.384600 67.785900 38.000000
vn -2.826718 -1.370567 -0.018770
v 97.410300 65.649700 38.000000
vn -2.848289 -1.308683 -0.048407
v 94.463000 71.768700 43.017700
vn -2.788526 -1.440611 -0.059205
v 98.615800 62.961400 48.359600
vn -1.402099 -0.739988 -0.037254
v 98.722500 63.146200 38.000000
vn -1.384620 -0.718221 -0.026277
v 98.599400 62.933000 50.000000
vn -2.784382 -1.449989 -0.045469
v 98.656800 63.032475 44.190250
vn -2.793042 -1.448903 -0.050020
v 98.640200 63.003800 46.347500
vn -5.682300 -2.679508 -0.098251
v 96.034530 68.426225 41.268412
vn -5.581552 -2.881855 -0.126678
v 97.928111 64.595400 39.122209
vn -5.627375 -2.791950 -0.120973
v 97.296381 65.725555 44.162867
vn -5.646661 -2.752873 -0.106810
v 96.849997 66.436434 48.261537
vn -5.654362 -2.738077 -0.087225
v 97.083967 66.275480 39.512491
vn -5.660133 -2.723871 -0.117642
v 96.371746 67.547474 44.777404
vn -5.703733 -2.633138 -0.093489
v 95.461841 69.470306 45.321909
vn -5.718033 -2.600865 -0.132326
v 94.761031 71.255634 39.056183
vn -5.714452 -2.609377 -0.119601
v 95.101679 70.525671 38.813643
vn -5.691159 -2.661191 -0.083754
v 95.736357 69.091215 40.412646
vn -5.696772 -2.648546 -0.099179
v 95.607919 69.340513 41.344652
vn -5.700043 -2.642287 -0.078256
v 95.327444 69.967576 40.477657
vn -5.643983 -2.756710 -0.143598
v 96.504874 67.325140 43.819580
vn -5.626470 -2.794447 -0.108032
v 96.942471 66.461307 43.571971
vn -5.621244 -2.802832 -0.152748
v 96.829317 66.645056 44.518925
vn -5.712832 -2.613893 -0.094504
v 95.750543 68.739129 49.277970
vn -5.699087 -2.642410 -0.114070
v 96.085447 68.002980 49.215123
vn -5.703602 -2.633725 -0.096179
v 95.506969 69.635427 38.771958
vn -5.688284 -2.667357 -0.083657
v 95.920125 68.755083 38.784544
vn -5.686491 -2.670962 -0.090531
v 95.839454 68.900345 39.571720
vn -2.853476 -1.312705 -0.063913
v 94.448350 71.743300 44.214350
vn -5.711535 -2.615458 -0.126806
v 94.780977 70.992386 44.769071
vn -5.702341 -2.637174 -0.083727
v 95.007784 70.657901 40.550815
vn -2.777164 -1.468107 -0.040326
v 98.676950 63.067500 41.819000
vn -5.564366 -2.916709 -0.092408
v 98.354270 63.687017 41.498447
vn -2.860076 -1.298753 -0.052978
v 95.152700 70.446700 38.000000
vn -5.670102 -2.705171 -0.101814
v 96.333834 67.766807 42.113920
vn -5.672695 -2.700116 -0.091060
v 96.448368 67.557867 41.233735
vn -5.653627 -2.739651 -0.084901
v 96.737587 66.921233 42.046063
vn -2.861960 -1.293999 -0.065996
v 94.493600 71.821600 39.577200
vn -5.710368 -2.618571 -0.109788
v 94.747334 71.234110 40.114377
vn -2.794661 -1.434151 -0.051803
v 97.708000 64.660650 50.000000
vn -5.602159 -2.842137 -0.124353
v 97.482032 65.128824 49.248188
vn -2.854288 -1.309500 -0.077549
v 94.860850 70.629425 50.000000
vn -2.859657 -1.298812 -0.070825
v 94.411250 71.678950 48.973000
vn -5.713945 -2.608355 -0.154082
v 94.706565 71.008970 49.255544
vn -5.719301 -2.600383 -0.073398
v 95.130283 70.138687 48.201497
vn -5.721001 -2.597332 -0.048603
v 94.785856 70.908526 47.550422
vn -5.712841 -2.613993 -0.088708
v 95.557834 69.201139 47.927784
vn -5.647099 -2.750960 -0.119989
v 96.703528 66.835712 45.481855
vn -5.615887 -2.812394 -0.174524
v 97.160699 65.937904 45.164242
vn -5.619345 -2.808903 -0.103841
v 97.760259 64.771177 44.520078
vn -5.600429 -2.844766 -0.137854
v 97.487452 65.251662 45.771747
vn -5.712248 -2.615389 -0.091412
v 94.999834 70.607189 42.679502
vn -5.705922 -2.628450 -0.107450
v 95.467759 69.595002 42.363855
vn -5.714790 -2.608843 -0.113649
v 95.344505 69.827553 43.431266
vn -5.679442 -2.685917 -0.089164
v 96.147855 68.215503 40.403739
vn -5.673204 -2.699271 -0.084289
v 96.557470 67.355148 40.392403
vn -5.640473 -2.765672 -0.087660
v 96.949475 66.267892 47.167184
vn -5.676863 -2.690987 -0.101118
v 96.492828 67.219386 47.464194
vn -5.673871 -2.697886 -0.081212
v 96.602452 67.025568 46.473173
vn -2.845074 -1.331775 -0.039178
v 95.987100 68.635100 38.000000
vn -5.681525 -2.681905 -0.075259
v 96.325924 67.888146 38.786991
vn -5.717029 -2.605437 -0.069726
v 94.713820 71.096700 45.767880
vn -5.705624 -2.630895 -0.044499
v 95.306810 69.786450 46.328914
vn -5.718431 -2.603036 -0.045233
v 94.876734 70.724349 46.528794
vn -5.701909 -2.638328 -0.076090
v 94.775924 71.139234 41.140140
vn -5.700385 -2.641350 -0.074351
v 95.660005 69.018610 47.033611
vn -5.691565 -2.661054 -0.052682
v 95.786029 68.760016 46.070365
vn -2.831713 -1.359652 -0.048513
v 96.897450 66.717800 38.000000
vn -5.646583 -2.754340 -0.079315
v 97.219296 66.022095 38.711978
vn -5.668153 -2.709786 -0.085278
v 96.760949 66.974763 38.765811
vn -5.600229 -2.847493 -0.085941
v 97.406694 65.375586 46.767992
vn -5.584168 -2.878201 -0.103120
v 97.838091 64.545320 46.331933
vn -5.678836 -2.687912 -0.063862
v 96.255520 67.769335 45.772887
vn -5.580379 -2.885315 -0.112737
v 98.306450 63.538432 48.917155
vn -5.564513 -2.914945 -0.130540
v 98.263961 63.924525 39.778617
vn -5.555747 -2.930917 -0.147640
v 98.335823 63.838086 38.809901
vn -2.778361 -1.464453 -0.075433
v 98.704550 63.115250 39.262000
vn -2.788998 -1.445070 -0.053528
v 98.607600 62.947200 49.179800
vn -5.704428 -2.630754 -0.126294
v 95.627978 69.161133 44.261669
vn -5.715643 -2.606006 -0.136163
v 95.195085 70.100491 44.491357
vn -5.668896 -2.706261 -0.132394
v 96.209928 67.989446 43.041716
vn -5.682860 -2.677454 -0.115872
v 95.907503 68.655074 42.204361
vn -5.590385 -2.866635 -0.078473
v 98.186922 63.944973 43.851652
vn -5.599210 -2.849110 -0.074279
v 97.621594 65.214365 38.556524
vn -5.595682 -2.856183 -0.053663
v 97.983948 64.386652 41.817637
vn -5.572557 -2.900611 -0.107165
v 98.137027 64.129887 40.797999
vn -5.691641 -2.659194 -0.105890
v 96.021098 68.207690 47.673935
vn -5.678600 -2.686623 -0.117277
v 96.332181 67.523889 48.379206
vn -2.852033 -1.315450 -0.066664
v 95.396200 69.472000 50.000000
vn -5.708707 -2.620688 -0.139515
v 95.069662 70.237373 49.084524
vn -5.577040 -2.891777 -0.110918
v 98.223115 63.788294 46.857365
vn -2.828127 -1.367179 -0.046102
v 96.715650 66.655250 50.000000
vn -5.666135 -2.712888 -0.112266
v 96.535990 67.054800 49.172381
vn -5.636729 -2.773074 -0.115405
v 97.017782 66.056781 49.213642
vn -5.645854 -2.756573 -0.053677
v 97.138827 66.108987 42.006979
vn -5.634630 -2.779024 -0.079770
v 96.987320 66.396096 42.746548
vn -2.790541 -1.441657 -0.064097
v 98.628000 62.982600 47.353550
vn -5.582775 -2.880252 -0.123106
v 98.177012 63.826283 48.014101
vn -5.599891 -2.846657 -0.123751
v 97.681053 64.775072 48.372659
vn -5.625570 -2.797750 -0.058151
v 97.810889 64.724783 42.728760
vn -5.642486 -2.763934 -0.028983
v 97.543116 65.274586 41.953702
vn -5.657167 -2.733462 -0.049981
v 97.263398 65.860494 41.125646
vn -5.614983 -2.816530 -0.132309
v 97.281024 65.561802 48.595686
vn -5.609423 -2.828807 -0.099443
v 97.331349 65.498169 47.772795
vn -2.787375 -1.446951 -0.039657
v 98.646750 63.015100 45.448250
vn -2.851697 -1.317690 -0.033512
v 94.470350 71.781400 41.892900
vn -5.706940 -2.627430 -0.075599
v 94.777725 71.111559 42.075030
vn -5.665908 -2.714676 -0.078187
v 96.968755 66.491946 40.347794
vn -5.642748 -2.761336 -0.103548
v 97.383079 65.635907 40.253655
vn -5.624313 -2.799056 -0.098858
v 97.508882 65.423362 39.385478
vn -5.673489 -2.698851 -0.078186
v 96.661501 67.161899 39.568197
vn -2.779447 -1.462747 -0.068003
v 98.113150 64.299300 38.000000
vn -5.598429 -2.849039 -0.122779
v 97.807909 64.788741 40.076548
vn -5.629334 -2.789561 -0.084344
v 97.712282 64.899320 43.610437
vn -5.637276 -2.773794 -0.071860
v 97.355211 65.643222 43.004509
vn -5.680912 -2.680629 -0.137373
v 96.068359 68.229397 44.017356
vn -2.860951 -1.297746 -0.020457
v 94.428900 71.709550 46.678500
vn -5.688699 -2.666067 -0.092713
v 95.922806 68.495588 45.053175
vn -5.578405 -2.889948 -0.088797
v 98.244250 63.780855 45.827034
vn -5.716716 -2.605236 -0.097696
v 95.489117 69.329570 48.806787
vn -5.714839 -2.608407 -0.114191
v 94.757007 70.949836 48.485320
vn -5.595967 -2.854842 -0.080958
v 98.133200 64.066962 43.040242
vn -5.586389 -2.873642 -0.112122
v 97.942127 64.236936 49.079108
vn -5.716566 -2.605503 -0.093291
v 95.031006 70.406542 45.509849
vn -5.587107 -2.873146 -0.082799
v 98.216070 63.862494 44.801355
vn -5.572524 -2.901377 -0.072352
v 98.293621 63.778273 42.327016
vn -5.599843 -2.846858 -0.121137
v 97.777578 64.704813 45.311743
vn -5.616929 -2.811628 -0.148377
v 97.471234 65.339633 44.877893
# 157 vertices, 0 vertices normals

f 45//45 46//46 1//1
f 47//47 48//48 49//49
f 50//50 51//51 52//52
f 13//13 54//54 53//53
f 55//55 56//56 57//57
f 58//58 4//4 59//59
f 60//60 1//1 49//49
f 63//63 55//55 46//46
f 64//64 65//65 66//66
f 67//67 45//45 68//68
f 69//69 70//70 152//152
f 24//24 20//20 19//19
f 71//71 25//25 73//73
f 74//74 75//75 29//29
f 77//77 52//52 78//78
f 81//81 82//82 83//83
f 84//84 85//85 65//65
f 86//86 87//87 88//88
f 89//89 90//90 56//56
f 91//91 153//153 93//93
f 68//68 60//60 94//94
f 95//95 92//92 96//96
f 97//97 98//98 99//99
f 100//100 80//80 101//101
f 77//77 88//88 102//102
f 104//104 105//105 106//106
f 33//33 107//107 103//103
f 83//83 108//108 109//109
f 64//64 110//110 111//111
f 62//62 114//114 115//115
f 116//116 87//87 117//117
f 118//118 71//71 119//119
f 95//95 116//116 76//76
f 101//101 148//148 120//120
f 121//121 122//122 123//123
f 54//54 117//117 122//122
f 124//124 125//125 66//66
f 126//126 127//127 120//120
f 114//114 129//129 130//130
f 124//124 131//131 130//130
f 70//70 123//123 132//132
f 132//132 133//133 128//128
f 135//135 94//94 136//136
f 84//84 47//47 57//57
f 137//137 138//138 131//131
f 82//82 48//48 111//111
f 139//139 98//98 113//113
f 99//99 140//140 90//90
f 39//39 141//141 105//105
f 142//142 138//138 139//139
f 142//142 104//104 115//115
f 125//125 144//144 51//51
f 140//140 137//137 85//85
f 86//86 100//100 133//133
f 50//50 145//145 110//110
f 93//93 75//75 146//146
f 145//145 147//147 108//108
f 147//147 102//102 96//96
f 45//45 20//20 46//46
f 1//1 46//46 3//3
f 3//3 47//47 49//49
f 47//47 38//38 48//48
f 49//49 48//48 2//2
f 43//43 50//50 52//52
f 50//50 6//6 51//51
f 52//52 51//51 40//40
f 11//11 12//12 54//54
f 53//53 54//54 12//12
f 3//3 55//55 57//57
f 55//55 15//15 56//56
f 57//57 56//56 10//10
f 16//16 58//58 59//59
f 58//58 32//32 4//4
f 2//2 60//60 49//49
f 49//49 1//1 3//3
f 18//18 61//61 62//62
f 61//61 17//17 155//155
f 45//45 19//19 20//20
f 20//20 63//63 46//46
f 63//63 15//15 55//55
f 46//46 55//55 3//3
f 6//6 64//64 66//66
f 64//64 38//38 65//65
f 66//66 65//65 27//27
f 22//22 67//67 68//68
f 67//67 19//19 45//45
f 68//68 45//45 1//1
f 23//23 69//69 152//152
f 69//69 8//8 70//70
f 152//152 70//70 128//128
f 73//73 25//25 72//72
f 150//150 72//72 14//14
f 13//13 53//53 149//149
f 76//76 74//74 29//29
f 28//28 77//77 78//78
f 77//77 43//43 52//52
f 78//78 52//52 40//40
f 78//78 80//80 28//28
f 4//4 81//81 83//83
f 81//81 2//2 82//82
f 83//83 82//82 5//5
f 38//38 84//84 65//65
f 84//84 10//10 85//85
f 65//65 85//85 27//27
f 28//28 86//86 88//88
f 86//86 41//41 87//87
f 88//88 87//87 9//9
f 15//15 89//89 56//56
f 89//89 30//30 90//90
f 56//56 90//90 10//10
f 93//93 92//92 29//29
f 22//22 68//68 94//94
f 68//68 1//1 60//60
f 94//94 60//60 2//2
f 9//9 95//95 96//96
f 95//95 29//29 92//92
f 96//96 92//92 44//44
f 30//30 97//97 99//99
f 97//97 31//31 98//98
f 99//99 98//98 42//42
f 7//7 100//100 101//101
f 100//100 28//28 80//80
f 101//101 80//80 156//156
f 43//43 77//77 102//102
f 77//77 28//28 88//88
f 102//102 88//88 9//9
f 23//23 152//152 103//103
f 18//18 104//104 106//106
f 104//104 39//39 105//105
f 106//106 105//105 34//34
f 35//35 23//23 107//107
f 103//103 107//107 23//23
f 4//4 83//83 109//109
f 83//83 5//5 108//108
f 109//109 108//108 44//44
f 38//38 64//64 111//111
f 64//64 6//6 110//110
f 111//111 110//110 5//5
f 151//151 17//17 112//112
f 17//17 36//36 112//112
f 98//98 31//31 113//113
f 18//18 62//62 115//115
f 115//115 114//114 26//26
f 13//13 116//116 117//117
f 116//116 9//9 87//87
f 117//117 87//87 41//41
f 53//53 118//118 149//149
f 119//119 71//71 73//73
f 119//119 73//73 150//150
f 119//119 150//150 74//74
f 118//118 53//53 12//12
f 29//29 95//95 76//76
f 95//95 9//9 116//116
f 76//76 116//116 13//13
f 7//7 101//101 120//120
f 101//101 156//156 148//148
f 120//120 148//148 37//37
f 8//8 121//121 123//123
f 121//121 11//11 122//122
f 123//123 122//122 41//41
f 11//11 54//54 122//122
f 54//54 13//13 117//117
f 122//122 117//117 41//41
f 91//91 16//16 59//59
f 109//109 59//59 4//4
f 27//27 124//124 66//66
f 124//124 144//144 125//125
f 66//66 125//125 6//6
f 37//37 126//126 120//120
f 126//126 33//33 127//127
f 120//120 127//127 7//7
f 33//33 103//103 127//127
f 127//127 128//128 7//7
f 26//26 114//114 130//130
f 130//130 129//129 144//144
f 144//144 124//124 130//130
f 124//124 27//27 131//131
f 130//130 131//131 26//26
f 128//128 70//70 132//132
f 70//70 8//8 123//123
f 132//132 123//123 41//41
f 132//132 41//41 133//133
f 128//128 133//133 7//7
f 134//134 37//37 148//148
f 32//32 135//135 136//136
f 135//135 22//22 94//94
f 136//136 94//94 2//2
f 2//2 81//81 136//136
f 10//10 84//84 57//57
f 84//84 38//38 47//47
f 57//57 47//47 3//3
f 27//27 137//137 131//131
f 137//137 42//42 138//138
f 131//131 138//138 26//26
f 5//5 82//82 111//111
f 82//82 2//2 48//48
f 111//111 48//48 38//38
f 39//39 139//139 113//113
f 139//139 42//42 98//98
f 21//21 113//113 31//31
f 30//30 99//99 90//90
f 99//99 42//42 140//140
f 90//90 140//140 10//10
f 39//39 113//113 141//141
f 113//113 21//21 141//141
f 105//105 141//141 34//34
f 39//39 142//142 139//139
f 142//142 26//26 138//138
f 139//139 138//138 42//42
f 26//26 142//142 115//115
f 142//142 39//39 104//104
f 115//115 104//104 18//18
f 40//40 143//143 79//79
f 6//6 125//125 51//51
f 51//51 144//144 40//40
f 40//40 144//144 143//143
f 10//10 140//140 85//85
f 140//140 42//42 137//137
f 85//85 137//137 27//27
f 41//41 86//86 133//133
f 86//86 28//28 100//100
f 133//133 100//100 7//7
f 6//6 50//50 110//110
f 50//50 43//43 145//145
f 110//110 145//145 5//5
f 93//93 29//29 75//75
f 146//146 75//75 14//14
f 5//5 145//145 108//108
f 145//145 43//43 147//147
f 108//108 147//147 44//44
f 44//44 147//147 96//96
f 147//147 43//43 102//102
f 96//96 102//102 9//9
f 74//74 149//149 119//119
f 13//13 149//149 76//76
f 149//149 118//118 119//119
f 150//150 73//73 72//72
f 14//14 75//75 150//150
f 74//74 150//150 75//75
f 74//74 76//76 149//149
f 154//154 148//148 156//156
f 103//103 152//152 127//127
f 152//152 128//128 127//127
f 154//154 156//156 79//79
f 153//153 92//92 93//93
f 81//81 4//4 32//32
f 92//92 153//153 44//44
f 44//44 153//153 109//109
f 91//91 59//59 153//153
f 136//136 81//81 32//32
f 16//16 91//91 146//146
f 91//91 93//93 146//146
f 143//143 129//129 151//151
f 129//129 114//114 155//155
f 114//114 62//62 155//155
f 153//153 59//59 109//109
f 154//154 36//36 134//134
f 154//154 134//134 148//148
f 154//154 112//112 36//36
f 143//143 151//151 112//112
f 155//155 17//17 151//151
f 143//143 144//144 129//129
f 61//61 155//155 62//62
f 129//129 155//155 151//151
f 79//79 156//156 157//157
f 40//40 79//79 157//157
f 79//79 143//143 112//112
f 154//154 79//79 112//112
f 156//156 80//80 157//157
f 78//78 157//157 80//80
f 40//40 157//157 78//78
# 271 faces, 0 coords texture

# End of File
