####
#
# OBJ File Generated by Meshlab
#
####
# Object 1020_C168_M_0.obj
#
# Vertices: 138
# Faces: 233
#
####
vn -5.913996 -2.120236 -0.081931
v 81.083621 96.845677 46.174316
vn -2.968664 -1.028438 -0.065231
v 82.739300 92.000000 49.173800
vn -1.490256 -0.516650 -0.030844
v 82.722200 92.000000 50.000000
vn -1.452195 -0.586524 0.016933
v 79.990100 100.000000 38.000000
vn -2.934610 -1.119779 -0.010099
v 80.823300 97.939500 38.000000
vn -5.904573 -2.144338 -0.111101
v 81.210798 96.772719 41.751177
vn -5.930533 -2.072828 -0.097441
v 81.830800 95.001066 42.183102
vn -5.920856 -2.098995 -0.124651
v 82.240988 93.684640 44.689801
vn -2.968901 -1.026986 -0.011127
v 81.466200 95.688300 50.000000
vn -2.968545 -1.026580 -0.047032
v 82.132800 93.700100 50.000000
vn -2.971683 -1.024018 -0.042529
v 82.866800 92.000000 41.911900
vn -2.943853 -1.093481 -0.051897
v 79.981700 99.999700 43.005300
vn -5.894516 -2.173768 -0.063763
v 80.949410 97.566577 39.784038
vn -2.959025 -1.053526 -0.043379
v 82.174300 94.175400 38.000000
vn -2.968186 -1.029282 -0.050415
v 82.899000 92.000000 40.038800
vn -2.964722 -1.032696 -0.047125
v 82.913900 92.000000 39.229100
vn -5.939357 -2.048151 -0.086566
v 82.326274 93.603552 41.155062
vn -2.955272 -1.070929 -0.046075
v 79.950400 100.000000 45.439700
vn -2.964938 -1.034960 -0.043152
v 82.841900 92.000000 44.089400
vn -2.956501 -1.062138 -0.016704
v 81.206400 96.885000 38.000000
vn -5.915882 -2.112049 -0.130123
v 81.639606 95.295811 45.550145
vn -2.939699 -1.093243 -0.025320
v 79.910200 100.000000 47.519900
vn -2.938552 -1.126414 -0.023780
v 79.902000 100.000000 49.180800
vn -5.893956 -2.176289 -0.033619
v 80.347892 98.825362 48.695640
vn -2.939688 -1.107533 -0.025348
v 80.163500 99.302700 50.000000
vn -2.957495 -1.059273 -0.032561
v 82.074800 94.447900 38.000000
vn -1.451454 -0.579499 -0.029943
v 79.885100 100.000000 50.000000
vn -2.956677 -1.061777 -0.021172
v 80.949400 97.135200 50.000000
vn -2.943039 -1.126106 -0.022530
v 80.020700 100.000000 40.528100
vn -2.962263 -1.042962 -0.061972
v 82.778300 92.000000 47.498600
vn -1.479738 -0.513902 -0.019142
v 82.929800 92.000000 38.000000
vn -2.958942 -1.046463 -0.055019
v 82.821700 92.000000 45.512600
vn -5.880779 -2.210276 -0.097598
v 80.529993 98.618436 41.189124
vn -5.901423 -2.155630 -0.061260
v 80.477197 98.486755 46.743787
vn -5.918135 -2.107515 -0.110803
v 82.221751 93.622452 46.666161
vn -5.886460 -2.193938 -0.118092
v 80.661817 98.215321 42.365177
vn -5.925454 -2.086485 -0.115526
v 82.206119 93.566042 48.703162
vn -5.928341 -2.080198 -0.067293
v 81.664911 95.128491 47.907117
vn -5.899972 -2.157738 -0.109227
v 80.554195 98.362013 44.625616
vn -5.909567 -2.127035 -0.163114
v 81.561442 95.670482 43.823753
vn -5.918355 -2.109355 -0.036108
v 81.006162 97.008463 48.262454
vn -5.926793 -2.084437 -0.066485
v 81.696727 95.473158 40.109536
vn -5.900304 -2.154029 -0.156077
v 81.213278 96.601582 43.989304
vn -5.935644 -2.058311 -0.097124
v 82.273283 93.679555 43.118661
vn -5.934830 -2.059131 -0.127196
v 82.399818 92.975399 49.259568
vn -2.967830 -1.028423 -0.062724
v 82.427500 92.850050 50.000000
vn -5.920757 -2.099284 -0.126687
v 82.516551 92.824805 46.106343
vn -5.913658 -2.119231 -0.124671
v 82.226322 93.668746 45.663318
vn -5.923163 -2.093522 -0.106517
v 82.529843 92.841776 45.184029
vn -5.933232 -2.065923 -0.083976
v 82.656949 92.760428 38.677155
vn -5.933839 -2.063756 -0.094130
v 82.620587 92.822823 39.595947
vn -2.969256 -1.024956 -0.050853
v 82.882900 92.000000 40.975350
vn -5.940166 -2.045587 -0.091148
v 82.594381 92.807112 41.558229
vn -5.937014 -2.054538 -0.095436
v 82.611472 92.805261 40.590042
vn -2.969498 -1.024956 -0.033957
v 82.854350 92.000000 43.000650
vn -5.935084 -2.060284 -0.088683
v 82.555361 92.849052 43.519109
vn -5.940308 -2.045866 -0.074384
v 82.568212 92.844206 42.541532
vn -5.880551 -2.210770 -0.099986
v 80.746813 98.074450 40.475400
vn -5.899208 -2.160366 -0.088615
v 81.094294 97.135232 40.748497
vn -5.883975 -2.201413 -0.104880
v 80.867470 97.707303 41.452721
vn -5.932745 -2.067594 -0.076561
v 82.128249 94.259081 39.082762
vn -5.936736 -2.055759 -0.086002
v 82.316192 93.678409 40.077487
vn -5.939731 -2.047178 -0.084041
v 82.032811 94.475101 40.668013
vn -2.959288 -1.054469 -0.017822
v 81.640600 95.666450 38.000000
vn -5.925984 -2.087630 -0.047625
v 81.835990 95.100956 39.014520
vn -5.917893 -2.110836 -0.036384
v 81.461590 96.151656 39.016058
vn -5.906215 -2.143081 -0.036232
v 81.064568 97.263889 38.956191
vn -5.941042 -2.043487 -0.081239
v 82.305836 93.623482 42.141811
vn -5.934965 -2.059961 -0.102300
v 82.026235 94.413919 42.689410
vn -5.940200 -2.045925 -0.081454
v 82.057178 94.362845 41.714772
vn -2.938926 -1.110012 -0.013898
v 79.906100 100.000000 48.350350
vn -5.881426 -2.210589 -0.019362
v 80.124585 99.425132 48.050116
vn -5.887464 -2.194084 -0.033891
v 80.211909 99.180979 49.185748
vn -5.911299 -2.126779 -0.105890
v 81.926280 94.468324 46.163172
vn -5.912279 -2.121274 -0.150810
v 81.931715 94.516240 45.103364
vn -5.908091 -2.137872 -0.046518
v 80.651240 97.976767 49.279253
vn -2.952405 -1.073420 -0.025967
v 80.556450 98.218950 50.000000
vn -2.913355 -1.175045 0.035124
v 80.005400 100.000000 39.264050
vn -5.836462 -2.325992 0.054500
v 80.325373 99.194652 38.857840
vn -2.966996 -1.031927 -0.040820
v 82.552050 93.087700 38.000000
vn -5.908103 -2.136783 -0.082698
v 80.248916 99.192001 44.987655
vn -5.905865 -2.142703 -0.088856
v 80.516266 98.421534 45.699194
vn -5.905700 -2.142580 -0.101324
v 80.218945 99.229293 46.072062
vn -5.872812 -2.232213 -0.065746
v 80.375682 99.070805 40.218436
vn -5.866541 -2.248406 -0.038661
v 80.590716 98.527708 39.583423
vn -2.963181 -1.042757 -0.042661
v 82.831800 92.000000 44.801000
vn -5.928535 -2.078627 -0.100075
v 82.542834 92.839336 44.372038
vn -5.911385 -2.125955 -0.113160
v 81.117858 96.805072 45.074489
vn -5.912741 -2.118834 -0.158167
v 81.404846 96.004744 44.807245
vn -5.925676 -2.086886 -0.097441
v 81.365365 96.058779 45.884972
vn -5.930416 -2.072559 -0.114351
v 82.296401 93.569669 43.918084
vn -5.925859 -2.083887 -0.139548
v 81.955547 94.546795 43.867368
vn -2.960663 -1.048757 -0.064693
v 82.800000 92.000000 46.505600
vn -5.923965 -2.090645 -0.118678
v 82.507219 92.790158 47.095290
vn -5.916657 -2.113264 -0.054775
v 81.053673 96.901954 47.248756
vn -5.904939 -2.146732 -0.032804
v 80.739994 97.752488 47.476360
vn -5.900997 -2.156712 -0.069480
v 80.781576 97.662917 46.447259
vn -5.929255 -2.077742 -0.071130
v 81.354932 96.043156 47.016950
vn -5.932005 -2.070700 -0.034520
v 81.315346 96.125044 48.105821
vn -2.953516 -1.070006 -0.037843
v 79.966050 99.999850 44.222500
vn -5.895758 -2.168970 -0.109239
v 80.283876 99.134993 43.871023
vn -5.924090 -2.091039 -0.104365
v 82.232104 93.545072 47.662255
vn -5.918883 -2.105641 -0.107042
v 81.985193 94.217377 48.125976
vn -5.917201 -2.111033 -0.092818
v 81.941901 94.381378 47.231229
vn -5.937926 -2.051555 -0.071590
v 81.887138 94.446533 48.974669
vn -2.958633 -1.056300 -0.018076
v 81.207800 96.411750 50.000000
vn -5.914866 -2.119257 -0.038255
v 80.962009 97.114840 49.177794
vn -5.925046 -2.090740 -0.020678
v 81.254124 96.297014 49.101283
vn -5.892025 -2.177574 -0.141751
v 80.618406 98.259776 43.556869
vn -5.884233 -2.199656 -0.123695
v 80.372069 98.961279 42.912225
vn -5.899775 -2.158967 -0.098861
v 80.817455 97.608677 45.379231
vn -5.898359 -2.161099 -0.130796
v 80.869875 97.521618 44.295186
vn -2.978607 -0.998662 -0.013366
v 81.799500 94.694200 50.000000
vn -5.944545 -2.034445 -0.018958
v 81.566248 95.403013 49.020077
vn -5.931312 -2.071107 -0.087996
v 81.770946 95.210474 41.291367
vn -5.915166 -2.117936 -0.055292
v 81.299981 96.588477 39.950059
vn -5.931966 -2.067464 -0.124757
v 82.534662 92.642271 48.394567
vn -2.967393 -1.029276 -0.069083
v 82.758800 92.000000 48.336200
vn -5.910154 -2.132490 -0.027964
v 80.690070 97.884104 48.436277
vn -2.940076 -1.106073 -0.046504
v 80.001200 99.999850 41.766700
vn -5.879956 -2.212614 -0.094224
v 80.248021 99.374349 41.041331
vn -5.881243 -2.209079 -0.096659
v 80.291378 99.218651 42.000075
vn -5.920434 -2.102237 -0.085233
v 81.643120 95.239878 46.659732
vn -5.897783 -2.166309 -0.014192
v 80.429624 98.611333 47.740283
vn -5.893838 -2.175718 -0.063117
v 80.179640 99.282660 47.101774
vn -2.951316 -1.075215 -0.056996
v 79.930300 100.000000 46.479800
vn -5.890554 -2.181577 -0.139477
v 81.000666 97.305994 42.336732
vn -5.895828 -2.166485 -0.154532
v 80.955749 97.360944 43.226121
vn -5.920602 -2.100773 -0.107031
v 81.546186 95.812269 42.030956
vn -5.923035 -2.093194 -0.119019
v 81.713637 95.292219 42.943846
vn -5.904927 -2.142033 -0.143320
v 81.326913 96.378721 42.876670
vn -2.915276 -1.170555 0.022921
v 80.406700 98.969750 38.000000
vn -5.864355 -2.254168 -0.012554
v 80.712652 98.216563 38.914758
vn -5.919327 -2.105351 -0.085405
v 81.437311 96.167049 40.987777
vn -5.912449 -2.117908 -0.186290
v 81.676434 95.277428 44.620824
vn -5.938182 -2.052041 -0.072850
v 82.007174 94.584820 39.832297
vn -5.933011 -2.066369 -0.088899
v 82.375263 93.554920 38.996993
vn -5.845305 -2.303409 0.033031
v 80.253216 99.395218 39.589793
# 138 vertices, 0 vertices normals

f 10//10 45//45 46//46
f 47//47 48//48 49//49
f 137//137 50//50 51//51
f 52//52 53//53 54//54
f 55//55 56//56 57//57
f 58//58 59//59 60//60
f 64//64 65//65 66//66
f 68//68 69//69 70//70
f 23//23 71//71 73//73
f 27//27 23//23 25//25
f 48//48 74//74 75//75
f 73//73 24//24 77//77
f 81//81 82//82 83//83
f 84//84 85//85 58//58
f 86//86 49//49 87//87
f 88//88 89//89 90//90
f 87//87 91//91 56//56
f 93//93 94//94 47//47
f 95//95 96//96 97//97
f 98//98 99//99 95//95
f 100//100 101//101 81//81
f 102//102 103//103 104//104
f 37//37 105//105 103//103
f 106//106 107//107 108//108
f 109//109 101//101 110//110
f 111//111 112//112 88//88
f 113//113 114//114 105//105
f 70//70 115//115 63//63
f 66//66 116//116 67//67
f 76//76 119//119 107//107
f 111//111 97//97 82//82
f 120//120 121//121 122//122
f 104//104 123//123 74//74
f 124//124 96//96 119//119
f 124//124 72//72 125//125
f 126//126 83//83 125//125
f 117//117 102//102 94//94
f 90//90 123//123 98//98
f 114//114 108//108 99//99
f 129//129 130//130 131//131
f 36//36 110//110 122//122
f 62//62 51//51 54//54
f 132//132 133//133 79//79
f 53//53 57//57 68//68
f 116//116 134//134 59//59
f 129//129 134//134 115//115
f 75//75 135//135 92//92
f 127//127 36//36 60//60
f 89//89 43//43 40//40
f 112//112 109//109 128//128
f 92//92 130//130 69//69
f 45//45 2//2 46//46
f 3//3 46//46 2//2
f 32//32 47//47 49//49
f 47//47 35//35 48//48
f 49//49 48//48 8//8
f 51//51 50//50 16//16
f 51//51 16//16 15//15
f 15//15 52//52 54//54
f 52//52 11//11 53//53
f 54//54 53//53 17//17
f 11//11 55//55 57//57
f 55//55 19//19 56//56
f 57//57 56//56 44//44
f 33//33 58//58 60//60
f 58//58 13//13 59//59
f 60//60 59//59 6//6
f 63//63 62//62 17//17
f 20//20 64//64 66//66
f 64//64 26//26 65//65
f 66//66 65//65 42//42
f 5//5 20//20 67//67
f 17//17 68//68 70//70
f 68//68 44//44 69//69
f 70//70 69//69 7//7
f 24//24 71//71 72//72
f 71//71 22//22 72//72
f 23//23 73//73 25//25
f 61//61 14//14 137//137
f 80//80 50//50 137//137
f 8//8 48//48 75//75
f 48//48 35//35 74//74
f 75//75 74//74 21//21
f 25//25 73//73 77//77
f 77//77 24//24 76//76
f 77//77 76//76 28//28
f 29//29 78//78 138//138
f 78//78 4//4 79//79
f 10//10 37//37 45//45
f 80//80 31//31 50//50
f 18//18 81//81 83//83
f 81//81 39//39 82//82
f 83//83 82//82 34//34
f 33//33 84//84 58//58
f 58//58 85//85 13//13
f 19//19 86//86 87//87
f 86//86 32//32 49//49
f 87//87 49//49 8//8
f 1//1 88//88 90//90
f 88//88 43//43 89//89
f 90//90 89//89 21//21
f 19//19 87//87 56//56
f 87//87 8//8 91//91
f 56//56 91//91 44//44
f 8//8 92//92 91//91
f 91//91 92//92 44//44
f 32//32 93//93 47//47
f 93//93 30//30 94//94
f 47//47 94//94 35//35
f 1//1 95//95 97//97
f 95//95 41//41 96//96
f 97//97 96//96 34//34
f 1//1 98//98 95//95
f 98//98 38//38 99//99
f 95//95 99//99 41//41
f 18//18 100//100 81//81
f 100//100 12//12 101//101
f 81//81 101//101 39//39
f 35//35 102//102 104//104
f 102//102 37//37 103//103
f 104//104 103//103 38//38
f 37//37 10//10 105//105
f 103//103 105//105 38//38
f 9//9 106//106 108//108
f 106//106 28//28 107//107
f 108//108 107//107 41//41
f 36//36 109//109 110//110
f 109//109 39//39 101//101
f 110//110 101//101 12//12
f 1//1 111//111 88//88
f 111//111 39//39 112//112
f 88//88 112//112 43//43
f 10//10 113//113 105//105
f 113//113 9//9 114//114
f 105//105 114//114 38//38
f 17//17 70//70 63//63
f 70//70 7//7 115//115
f 63//63 115//115 42//42
f 20//20 66//66 67//67
f 66//66 42//42 116//116
f 67//67 116//116 13//13
f 37//37 117//117 45//45
f 117//117 30//30 118//118
f 45//45 117//117 2//2
f 28//28 76//76 107//107
f 76//76 24//24 119//119
f 107//107 119//119 41//41
f 39//39 111//111 82//82
f 111//111 1//1 97//97
f 82//82 97//97 34//34
f 12//12 120//120 122//122
f 120//120 29//29 121//121
f 122//122 121//121 33//33
f 35//35 104//104 74//74
f 104//104 38//38 123//123
f 74//74 123//123 21//21
f 24//24 124//124 119//119
f 124//124 34//34 96//96
f 119//119 96//96 41//41
f 34//34 124//124 125//125
f 124//124 24//24 72//72
f 125//125 72//72 22//22
f 22//22 126//126 125//125
f 126//126 18//18 83//83
f 125//125 83//83 34//34
f 30//30 117//117 94//94
f 117//117 37//37 102//102
f 94//94 102//102 35//35
f 1//1 90//90 98//98
f 90//90 21//21 123//123
f 98//98 123//123 38//38
f 38//38 114//114 99//99
f 114//114 9//9 108//108
f 99//99 108//108 41//41
f 36//36 127//127 128//128
f 6//6 129//129 131//131
f 129//129 7//7 130//130
f 131//131 130//130 40//40
f 33//33 36//36 122//122
f 122//122 110//110 12//12
f 17//17 62//62 54//54
f 62//62 61//61 137//137
f 54//54 51//51 15//15
f 4//4 132//132 79//79
f 132//132 5//5 133//133
f 79//79 133//133 85//85
f 17//17 53//53 68//68
f 53//53 11//11 57//57
f 68//68 57//57 44//44
f 29//29 84//84 121//121
f 121//121 84//84 33//33
f 133//133 5//5 67//67
f 13//13 116//116 59//59
f 116//116 42//42 134//134
f 59//59 134//134 6//6
f 7//7 129//129 115//115
f 129//129 6//6 134//134
f 115//115 134//134 42//42
f 8//8 75//75 92//92
f 75//75 21//21 135//135
f 92//92 135//135 40//40
f 6//6 127//127 60//60
f 60//60 36//36 33//33
f 21//21 89//89 135//135
f 135//135 89//89 40//40
f 43//43 112//112 128//128
f 112//112 39//39 109//109
f 128//128 109//109 36//36
f 43//43 128//128 131//131
f 43//43 131//131 40//40
f 44//44 92//92 69//69
f 92//92 40//40 130//130
f 69//69 130//130 7//7
f 127//127 6//6 131//131
f 128//128 127//127 131//131
f 16//16 50//50 31//31
f 61//61 62//62 136//136
f 42//42 65//65 136//136
f 80//80 137//137 14//14
f 133//133 67//67 13//13
f 62//62 137//137 51//51
f 85//85 133//133 13//13
f 61//61 65//65 26//26
f 14//14 61//61 26//26
f 85//85 138//138 79//79
f 61//61 136//136 65//65
f 136//136 62//62 63//63
f 42//42 136//136 63//63
f 73//73 71//71 24//24
f 29//29 138//138 84//84
f 117//117 118//118 2//2
f 84//84 138//138 85//85
f 138//138 78//78 79//79
# 233 faces, 0 coords texture

# End of File
