####
#
# OBJ File Generated by Meshlab
#
####
# Object 1037_C170_M_1.obj
#
# Vertices: 136
# Faces: 230
#
####
vn 2.905714 -1.194248 -0.006846
v -81.834800 98.348200 -50.000000
vn 1.454703 -0.598949 -0.009216
v -81.154700 100.000000 -50.000000
vn 2.886345 -1.239772 0.022732
v -82.257200 97.226700 -38.000000
vn 2.844191 -1.293793 -0.033793
v -81.006800 100.000000 -40.122900
vn 5.803527 -2.407737 -0.015621
v -81.734469 98.574988 -47.971970
vn 2.914048 -1.173788 -0.000807
v -83.641500 93.863800 -50.000000
vn 5.818328 -2.371616 -0.025842
v -82.556188 96.545153 -44.808765
vn 5.826444 -2.351290 -0.017661
v -82.896447 95.744584 -46.575216
vn 2.902061 -1.201562 -0.013797
v -81.145200 100.000000 -48.500400
vn 5.796089 -2.425151 -0.031924
v -81.795523 98.400530 -44.512085
vn 2.930737 -1.131538 0.000377
v -83.706800 93.698900 -38.000000
vn 2.867818 -1.281712 0.031372
v -81.457300 99.055600 -38.000000
vn 2.888443 -1.247738 -0.041172
v -81.105300 100.000000 -43.670800
vn 1.432729 -0.653254 0.013430
v -81.026700 100.000000 -38.000000
vn 1.451820 -0.590434 -0.009504
v -84.404700 92.000000 -50.000000
vn 2.923250 -1.166212 -0.001843
v -84.381800 92.000000 -47.507200
vn 1.470674 -0.565191 -0.019966
v -84.359700 92.000000 -38.000000
vn 2.925126 -1.131419 -0.015763
v -84.365300 92.000000 -38.412500
vn 2.929812 -1.142317 -0.005701
v -84.363800 92.000000 -40.377600
vn 5.795227 -2.427554 -0.006143
v -82.644360 96.298521 -39.463635
vn 5.807962 -2.396779 -0.022814
v -82.097420 97.695989 -46.464233
vn 2.915034 -1.170469 0.008633
v -83.418100 94.447100 -38.000000
vn 2.897179 -1.214857 0.006205
v -82.409700 96.863800 -38.000000
vn 2.867451 -1.287156 -0.070917
v -81.069800 100.000000 -42.217100
vn 5.754833 -2.519869 -0.090588
v -81.474891 99.113655 -42.654208
vn 2.899572 -1.215615 -0.017923
v -81.134200 100.000000 -46.206600
vn 5.833655 -2.333652 -0.008411
v -83.667032 93.794294 -41.936519
vn 2.914172 -1.173532 0.006490
v -82.764700 96.054200 -50.000000
vn 5.822536 -2.361419 -0.012793
v -83.047174 95.326993 -43.297638
vn 5.827632 -2.348768 -0.013225
v -83.740093 93.624515 -44.157929
vn 2.918940 -1.160493 -0.016064
v -84.383900 92.000000 -42.999000
vn 2.910230 -1.170196 -0.001104
v -84.397500 92.000000 -45.045800
vn 5.762037 -2.501940 -0.080571
v -81.916359 98.057735 -41.053840
vn 5.813910 -2.382527 -0.009221
v -82.828049 95.859506 -41.367234
vn 5.809211 -2.393473 -0.024772
v -82.279972 97.221416 -42.935730
vn 5.832382 -2.336094 0.009267
v -83.472847 94.295029 -40.015100
vn 5.834834 -2.330867 0.005711
v -83.711021 93.694778 -46.417855
vn 5.835628 -2.328872 0.008907
v -83.241593 94.873557 -48.228356
vn 5.818861 -2.370307 0.003040
v -82.442004 96.863551 -48.255156
vn 5.806260 -2.401123 -0.018489
v -81.789050 98.449511 -48.831006
vn 5.806761 -2.399812 -0.026977
v -81.478411 99.201352 -49.157889
vn 5.803294 -2.408249 -0.022657
v -81.458477 99.241939 -48.201210
vn 2.916593 -1.167490 0.007421
v -83.203100 94.959000 -50.000000
vn 5.833218 -2.334904 0.014423
v -83.208583 94.947707 -49.621636
vn 5.772959 -2.479706 -0.001398
v -82.231301 97.261748 -39.065753
vn 2.900980 -1.205718 -0.012921
v -81.139700 100.000000 -47.353500
vn 5.799975 -2.416238 -0.020354
v -81.511817 99.103127 -47.249221
vn 5.754912 -2.521495 0.025522
v -81.883064 98.073151 -38.648948
vn 2.878290 -1.258868 0.017416
v -81.857250 98.141150 -38.000000
vn 2.861662 -1.295924 0.032475
v -81.016750 100.000000 -39.061450
vn 5.725863 -2.585875 0.072024
v -81.260764 99.469359 -38.840923
vn 2.913496 -1.174929 -0.026259
v -84.393250 92.000000 -48.753600
vn 5.819763 -2.367862 -0.039125
v -84.129059 92.665416 -49.232300
vn 5.831262 -2.339576 -0.025632
v -84.029297 92.894175 -48.360890
vn 2.907268 -1.190485 -0.011975
v -84.023100 92.931900 -50.000000
vn 5.826605 -2.351158 -0.012226
v -83.799618 93.469149 -49.153604
vn 2.904883 -1.196220 -0.017817
v -81.494750 99.174100 -50.000000
vn 2.904754 -1.196527 -0.018205
v -81.149950 100.000000 -49.250200
vn 2.930491 -1.132073 -0.014856
v -84.033250 92.849450 -38.000000
vn 5.858877 -2.269764 -0.004793
v -83.982244 92.987082 -38.590019
vn 5.857567 -2.273169 0.005414
v -84.124742 92.618123 -39.361136
vn 2.928853 -1.136407 0.002236
v -84.364550 92.000000 -39.395050
vn 5.815487 -2.378405 -0.041484
v -82.327930 97.117701 -45.629932
vn 5.806338 -2.400673 -0.031565
v -81.928670 98.091770 -45.506258
vn 5.814621 -2.380713 -0.018803
v -82.176224 97.472562 -44.678671
vn 2.899369 -1.209651 0.002713
v -82.913900 95.655450 -38.000000
vn 5.789494 -2.441104 0.018601
v -82.567463 96.484599 -38.581233
vn 2.891141 -1.228763 -0.032374
v -81.119750 100.000000 -44.938700
vn 5.778254 -2.467299 -0.048119
v -81.426884 99.258889 -44.219372
vn 5.790103 -2.439379 -0.042498
v -81.495785 99.126795 -45.394172
vn 5.763962 -2.499322 -0.075096
v -81.355758 99.414069 -43.390695
vn 5.781609 -2.459322 -0.045907
v -81.671378 98.680710 -43.567848
vn 2.911591 -1.179899 0.009008
v -82.299750 97.201200 -50.000000
vn 5.815138 -2.379417 -0.027153
v -82.499417 96.714611 -46.542507
vn 5.818187 -2.371705 -0.045428
v -82.716295 96.169777 -45.714926
vn 5.834951 -2.330442 -0.025456
v -84.062588 92.811247 -43.543238
vn 5.829725 -2.343516 -0.012762
v -83.719216 93.670762 -43.038228
vn 5.841177 -2.314685 -0.030998
v -84.041540 92.856586 -42.391690
vn 5.838960 -2.320497 -0.008790
v -83.284648 94.768239 -46.546715
vn 5.839799 -2.318437 0.004397
v -83.472051 94.294729 -47.386412
vn 5.834803 -2.330917 0.010174
v -83.072358 95.301284 -47.403336
vn 2.872044 -1.271469 -0.065720
v -81.087550 100.000000 -42.943950
vn 2.922587 -1.152209 -0.022409
v -84.373850 92.000000 -41.688300
vn 5.850666 -2.290614 -0.024022
v -84.066343 92.767864 -41.064555
vn 5.797474 -2.422256 -0.019329
v -81.683847 98.685998 -46.370036
vn 2.858875 -1.299631 -0.086004
v -81.038300 100.000000 -41.170000
vn 5.712855 -2.612143 -0.128075
v -81.442957 99.070988 -40.582709
vn 5.728189 -2.577799 -0.139856
v -81.460490 99.100382 -41.609724
vn 5.766790 -2.492697 -0.061645
v -81.774478 98.410652 -42.013700
vn 5.823076 -2.359443 0.018950
v -83.372020 94.547640 -39.112077
vn 5.836245 -2.327184 0.027004
v -84.082633 92.760666 -46.728298
vn 5.829177 -2.344834 0.019998
v -84.065251 92.819912 -45.739569
vn 5.826679 -2.351209 0.001644
v -83.737543 93.630203 -45.254222
vn 5.827768 -2.348354 -0.017173
v -84.072837 92.802350 -44.627692
vn 5.822585 -2.361206 0.002313
v -82.675286 96.289373 -47.412492
vn 5.810833 -2.390068 -0.007069
v -82.277234 97.261854 -47.373114
vn 5.826462 -2.351668 -0.015073
v -83.350561 94.591941 -44.836946
vn 5.834955 -2.330515 -0.009552
v -83.435591 94.380743 -45.739570
vn 5.821355 -2.364291 -0.018813
v -83.117307 95.161584 -44.182436
vn 5.822302 -2.361980 -0.015587
v -83.399710 94.460383 -43.677411
vn 5.829648 -2.343476 -0.032899
v -83.094376 95.239389 -45.751106
vn 5.820403 -2.366436 -0.033124
v -82.926401 95.636335 -44.914722
vn 5.803357 -2.407894 -0.017523
v -82.041815 97.801708 -43.735864
vn 5.819211 -2.369595 -0.002576
v -82.417361 96.885014 -43.873067
vn 5.786982 -2.446871 -0.041351
v -81.895952 98.134744 -42.825571
vn 2.916009 -1.168821 -0.018878
v -84.390700 92.000000 -44.022400
vn 5.815235 -2.378918 -0.033345
v -82.536604 96.583365 -42.129493
vn 5.823241 -2.359696 -0.009977
v -82.942812 95.580242 -42.321749
vn 5.824393 -2.356856 -0.009398
v -82.665994 96.267943 -43.083198
vn 5.729177 -2.578993 0.042500
v -81.531976 98.853733 -39.085156
vn 5.738309 -2.558068 -0.058573
v -81.832644 98.198096 -39.822178
vn 5.787188 -2.445787 -0.043273
v -82.293874 97.145019 -40.178844
vn 5.805436 -2.403178 -0.006236
v -82.724576 96.107492 -40.425902
vn 5.805083 -2.403735 -0.030318
v -82.393607 96.907437 -41.177601
vn 5.816103 -2.377111 0.001098
v -82.174454 97.517251 -49.132075
vn 5.826488 -2.351639 0.013562
v -82.593118 96.483931 -49.081777
vn 5.830055 -2.342793 0.013440
v -82.841899 95.868890 -48.230054
vn 5.831540 -2.339102 0.011386
v -83.014150 95.437180 -49.008192
vn 5.822050 -2.362609 -0.012948
v -82.789147 95.966740 -44.025756
vn 5.799728 -2.416408 -0.047018
v -82.125712 97.573990 -42.007112
vn 5.807276 -2.398709 -0.009771
v -82.055146 97.799634 -48.173791
vn 5.801881 -2.411702 -0.008983
v -81.887960 98.203411 -47.273597
vn 5.821769 -2.363329 -0.009834
v -83.344393 94.591810 -42.615179
vn 5.813009 -2.384653 0.012572
v -83.152391 95.072613 -40.690329
vn 5.838253 -2.321667 0.014554
v -83.581888 94.014592 -40.946792
vn 5.820263 -2.366942 0.011095
v -83.250929 94.818410 -41.620528
vn 2.917018 -1.166305 0.018606
v -84.389650 92.000000 -46.276500
vn 5.838321 -2.322155 0.001616
v -83.630051 93.895126 -48.276125
vn 5.835824 -2.328396 0.008719
v -83.421536 94.419038 -49.057666
vn 5.857140 -2.274269 0.001816
v -83.886523 93.229243 -40.199918
vn 5.805457 -2.403077 0.008146
v -83.063809 95.284433 -39.754051
vn 5.855134 -2.279394 0.008573
v -83.709727 93.688572 -39.053839
vn 5.839397 -2.319440 0.002709
v -83.893281 93.233194 -47.452341
vn 5.716977 -2.605341 0.001464
v -81.344002 99.257501 -39.663006
vn 5.798732 -2.419222 -0.021760
v -81.369517 99.438853 -46.496652
vn 5.801168 -2.413412 0.014200
v -83.079395 95.257249 -38.656871
# 136 vertices, 0 vertices normals

f 40//40 41//41 42//42
f 6//6 43//43 44//44
f 46//46 47//47 42//42
f 3//3 48//48 49//49
f 134//134 50//50 51//51
f 52//52 53//53 54//54
f 55//55 56//56 53//53
f 41//41 57//57 58//58
f 11//11 59//59 60//60
f 63//63 64//64 65//65
f 68//68 69//69 70//70
f 71//71 72//72 69//69
f 1//1 115//115 73//73
f 74//74 63//63 75//75
f 76//76 77//77 78//78
f 79//79 80//80 81//81
f 82//82 25//25 71//71
f 83//83 78//78 84//84
f 70//70 64//64 85//85
f 86//86 87//87 88//88
f 89//89 25//25 88//88
f 91//91 16//16 133//133
f 92//92 93//93 94//94
f 95//95 96//96 74//74
f 97//97 93//93 98//98
f 97//97 99//99 100//100
f 101//101 75//75 102//102
f 103//103 104//104 65//65
f 22//22 11//11 132//132
f 105//105 103//103 72//72
f 106//106 94//94 76//76
f 107//107 108//108 109//109
f 110//110 111//111 134//134
f 45//45 112//112 111//111
f 113//113 114//114 112//112
f 116//116 117//117 118//118
f 102//102 119//119 99//99
f 107//107 120//120 114//114
f 121//121 122//122 96//96
f 98//98 79//79 101//101
f 100//100 123//123 77//77
f 109//109 119//119 104//104
f 124//124 125//125 126//126
f 47//47 85//85 122//122
f 89//89 120//120 105//105
f 91//91 92//92 127//127
f 81//81 117//117 95//95
f 128//128 80//80 133//133
f 56//56 129//129 128//128
f 118//118 129//129 44//44
f 115//115 40//40 121//121
f 61//61 130//130 132//132
f 131//131 124//124 113//113
f 90//90 131//131 136//136
f 123//123 108//108 126//126
f 125//125 130//130 84//84
f 5//5 40//40 42//42
f 40//40 1//1 41//41
f 42//42 41//41 9//9
f 43//43 28//28 44//44
f 3//3 67//67 45//45
f 9//9 46//46 42//42
f 46//46 26//26 135//135
f 42//42 47//47 5//5
f 3//3 45//45 48//48
f 49//49 48//48 12//12
f 50//50 14//14 51//51
f 12//12 51//51 14//14
f 16//16 52//52 54//54
f 52//52 15//15 53//53
f 15//15 55//55 53//53
f 55//55 6//6 56//56
f 53//53 56//56 54//54
f 9//9 41//41 58//58
f 41//41 1//1 57//57
f 58//58 57//57 2//2
f 59//59 17//17 18//18
f 18//18 60//60 59//59
f 19//19 61//61 62//62
f 61//61 132//132 60//60
f 60//60 132//132 11//11
f 7//7 63//63 65//65
f 63//63 21//21 64//64
f 65//65 64//64 10//10
f 23//23 66//66 67//67
f 66//66 22//22 136//136
f 26//26 68//68 70//70
f 68//68 13//13 69//69
f 70//70 69//69 10//10
f 13//13 71//71 69//69
f 71//71 25//25 72//72
f 69//69 72//72 10//10
f 115//115 116//116 73//73
f 8//8 74//74 75//75
f 74//74 21//21 63//63
f 75//75 63//63 7//7
f 31//31 76//76 78//78
f 76//76 30//30 77//77
f 78//78 77//77 27//27
f 8//8 79//79 81//81
f 79//79 37//37 80//80
f 81//81 80//80 38//38
f 13//13 82//82 71//71
f 82//82 24//24 25//25
f 19//19 83//83 84//84
f 83//83 31//31 78//78
f 84//84 78//78 27//27
f 70//70 10//10 64//64
f 85//85 64//64 21//21
f 24//24 86//86 88//88
f 86//86 4//4 87//87
f 88//88 87//87 33//33
f 33//33 89//89 88//88
f 88//88 25//25 24//24
f 22//22 132//132 90//90
f 37//37 91//91 133//133
f 32//32 92//92 94//94
f 92//92 37//37 93//93
f 94//94 93//93 30//30
f 8//8 95//95 74//74
f 95//95 39//39 96//96
f 74//74 96//96 21//21
f 97//97 30//30 93//93
f 98//98 93//93 37//37
f 30//30 97//97 100//100
f 100//100 99//99 29//29
f 97//97 101//101 102//102
f 101//101 8//8 75//75
f 102//102 75//75 7//7
f 10//10 103//103 65//65
f 103//103 35//35 104//104
f 65//65 104//104 7//7
f 20//20 45//45 67//67
f 23//23 67//67 3//3
f 25//25 105//105 72//72
f 105//105 35//35 103//103
f 72//72 103//103 10//10
f 31//31 106//106 76//76
f 106//106 32//32 94//94
f 76//76 94//94 30//30
f 35//35 107//107 109//109
f 107//107 34//34 108//108
f 109//109 108//108 29//29
f 110//110 48//48 111//111
f 87//87 111//111 33//33
f 48//48 45//45 111//111
f 45//45 20//20 112//112
f 111//111 112//112 33//33
f 20//20 113//113 112//112
f 113//113 34//34 114//114
f 112//112 114//114 33//33
f 115//115 39//39 116//116
f 73//73 116//116 28//28
f 28//28 116//116 118//118
f 116//116 39//39 117//117
f 118//118 117//117 38//38
f 97//97 102//102 99//99
f 102//102 7//7 119//119
f 99//99 119//119 29//29
f 34//34 107//107 114//114
f 107//107 35//35 120//120
f 114//114 120//120 33//33
f 39//39 121//121 96//96
f 121//121 5//5 122//122
f 96//96 122//122 21//21
f 97//97 98//98 101//101
f 98//98 37//37 79//79
f 101//101 79//79 8//8
f 30//30 100//100 77//77
f 100//100 29//29 123//123
f 77//77 123//123 27//27
f 35//35 109//109 104//104
f 109//109 29//29 119//119
f 104//104 119//119 7//7
f 34//34 124//124 126//126
f 124//124 36//36 125//125
f 126//126 125//125 27//27
f 5//5 47//47 122//122
f 122//122 85//85 21//21
f 25//25 89//89 105//105
f 89//89 33//33 120//120
f 105//105 120//120 35//35
f 110//110 134//134 51//51
f 16//16 91//91 127//127
f 91//91 37//37 92//92
f 127//127 92//92 32//32
f 8//8 81//81 95//95
f 81//81 38//38 117//117
f 95//95 117//117 39//39
f 54//54 128//128 133//133
f 128//128 38//38 80//80
f 133//133 80//80 37//37
f 54//54 56//56 128//128
f 56//56 6//6 129//129
f 128//128 129//129 38//38
f 28//28 118//118 44//44
f 118//118 38//38 129//129
f 44//44 129//129 6//6
f 39//39 115//115 121//121
f 115//115 1//1 40//40
f 121//121 40//40 5//5
f 61//61 19//19 130//130
f 20//20 131//131 113//113
f 131//131 36//36 124//124
f 113//113 124//124 34//34
f 22//22 90//90 136//136
f 90//90 36//36 131//131
f 27//27 123//123 126//126
f 123//123 29//29 108//108
f 126//126 108//108 34//34
f 27//27 125//125 84//84
f 125//125 36//36 130//130
f 61//61 60//60 18//18
f 62//62 61//61 18//18
f 90//90 132//132 36//36
f 36//36 132//132 130//130
f 133//133 16//16 54//54
f 110//110 51//51 12//12
f 48//48 110//110 12//12
f 134//134 111//111 87//87
f 4//4 134//134 87//87
f 134//134 4//4 50//50
f 26//26 70//70 135//135
f 46//46 135//135 47//47
f 135//135 70//70 85//85
f 47//47 135//135 85//85
f 67//67 136//136 20//20
f 136//136 67//67 66//66
f 136//136 131//131 20//20
f 84//84 130//130 19//19
# 230 faces, 0 coords texture

# End of File
