####
#
# OBJ File Generated by Meshlab
#
####
# Object 1042_C170_M_6.obj
#
# Vertices: 152
# Faces: 259
#
####
vn 2.881463 -1.247967 -0.039973
v -95.730500 72.333500 -38.000000
vn 2.846690 -1.328299 -0.035322
v -98.360800 66.566900 -38.000000
vn 5.692126 -2.659894 -0.054690
v -98.831014 65.597778 -39.511082
vn 5.696679 -2.650359 -0.040535
v -98.645979 66.031206 -41.573232
vn 5.723894 -2.590697 -0.031545
v -96.798046 70.098978 -45.027484
vn 5.698648 -2.644923 -0.090251
v -98.189552 67.124389 -46.219193
vn 2.838801 -1.331558 -0.041887
v -99.444000 64.395900 -45.297000
vn 2.869880 -1.277960 -0.012333
v -95.969100 72.025000 -50.000000
vn 2.855554 -1.309621 -0.023329
v -96.806200 70.181400 -50.000000
vn 2.845466 -1.333855 -0.024608
v -99.421500 64.357000 -40.459600
vn 5.751667 -2.528670 -0.041203
v -96.125823 71.609192 -43.622900
vn 2.872060 -1.237709 -0.002376
v -95.380400 73.357700 -44.958000
vn 2.847209 -1.334617 -0.043054
v -99.467200 64.436300 -47.619600
vn 2.841425 -1.339857 -0.031370
v -99.196500 65.070900 -50.000000
vn 2.831996 -1.337500 -0.014932
v -99.411900 64.340400 -38.608200
vn 1.416999 -0.686120 0.008495
v -99.413900 64.343800 -38.000000
vn 2.839816 -1.343210 -0.014671
v -99.148700 64.891500 -38.000000
vn 2.884734 -1.274302 -0.008959
v -95.368200 73.336600 -47.394600
vn 5.725266 -2.588117 -0.028726
v -97.002334 69.633670 -43.150602
vn 5.698743 -2.645691 -0.044312
v -98.531732 66.301817 -43.714734
vn 5.690447 -2.663356 -0.059444
v -97.900743 67.800728 -48.122312
vn 5.722323 -2.594633 -0.035795
v -97.035476 69.543537 -41.491156
vn 2.892310 -1.216675 -0.025164
v -95.363000 73.327500 -41.869700
vn 2.892621 -1.223809 -0.036820
v -95.349500 73.304100 -39.507200
vn 2.844318 -1.333696 -0.025440
v -98.367100 66.841000 -50.000000
vn 2.890013 -1.243818 -0.032886
v -95.365200 73.331400 -42.719100
vn 2.859023 -1.300639 -0.042490
v -97.488900 68.441100 -38.000000
vn 2.860253 -1.299320 -0.023717
v -96.524200 70.612800 -38.000000
vn 1.425694 -0.678530 -0.018034
v -99.484600 64.466300 -50.000000
vn 2.842105 -1.336240 -0.021239
v -99.431600 64.374700 -42.891400
vn 1.431078 -0.632142 -0.010464
v -95.382100 73.360600 -50.000000
vn 1.460362 -0.598442 -0.016796
v -95.340300 73.288100 -38.000000
vn 2.845167 -1.331991 -0.024313
v -97.675100 68.313100 -50.000000
vn 5.708900 -2.623449 -0.063308
v -97.884673 67.650934 -40.076941
vn 5.735909 -2.564207 -0.049149
v -96.127029 71.651070 -48.381976
vn 5.752377 -2.527267 -0.007995
v -96.060798 71.764777 -46.074106
vn 5.692635 -2.658273 -0.073799
v -98.668427 66.158216 -48.032559
vn 5.722827 -2.592990 -0.058795
v -96.944073 69.718183 -39.821529
vn 5.697090 -2.648981 -0.065443
v -97.380627 68.873469 -46.413063
vn 5.711483 -2.618398 -0.035967
v -97.811298 67.854129 -42.475569
vn 5.708052 -2.625289 -0.057677
v -97.608885 68.320424 -44.500117
vn 5.726682 -2.584647 -0.053930
v -96.510028 70.706423 -41.598323
vn 5.735260 -2.564567 -0.060136
v -96.107899 71.543908 -39.776818
vn 5.709657 -2.622352 -0.037191
v -96.321582 71.066398 -38.898560
vn 5.739881 -2.552661 -0.083751
v -95.919541 71.937634 -38.866213
vn 2.852698 -1.315779 -0.021095
v -96.127350 71.473150 -38.000000
vn 5.739659 -2.555871 -0.046528
v -95.717607 72.561103 -47.912327
vn 5.752185 -2.527378 0.007000
v -95.704477 72.573165 -46.718069
vn 5.741189 -2.552566 -0.039162
v -96.066506 71.768323 -47.214429
vn 5.715702 -2.608514 -0.041843
v -96.741137 70.235884 -45.898357
vn 5.701323 -2.639865 -0.062238
v -97.101486 69.459327 -45.675848
vn 5.699084 -2.645004 -0.050567
v -96.975071 69.745814 -46.577594
vn 2.844857 -1.331819 -0.051492
v -99.455600 64.416100 -46.458300
vn 5.690757 -2.661446 -0.101946
v -99.104110 65.181318 -46.832533
vn 5.691720 -2.659449 -0.100183
v -99.091654 65.168249 -45.802925
vn 5.719603 -2.600695 -0.028200
v -97.118015 69.369539 -42.288659
vn 5.731928 -2.573204 -0.039722
v -96.740623 70.205201 -42.421079
vn 5.719745 -2.600188 -0.044094
v -97.482402 68.548708 -40.875741
vn 5.710636 -2.620025 -0.047135
v -97.859067 67.729796 -41.342095
vn 5.717542 -2.605112 -0.038501
v -97.474208 68.584433 -41.888074
vn 2.844689 -1.332901 -0.026908
v -98.781800 65.955950 -50.000000
vn 5.690109 -2.664253 -0.053144
v -98.524328 66.485526 -49.012651
vn 5.691692 -2.660780 -0.057181
v -98.924254 65.631093 -48.968510
vn 2.883320 -1.247176 0.024970
v -95.374300 73.347150 -46.176300
vn 5.772292 -2.481474 0.024153
v -95.719373 72.562261 -45.522581
vn 2.896593 -1.216008 -0.025950
v -95.356250 73.315800 -40.688450
vn 5.781002 -2.460977 -0.037884
v -95.590748 72.752720 -40.412934
vn 5.773876 -2.476501 -0.074419
v -95.736761 72.404798 -39.678449
vn 5.793522 -2.429259 -0.097051
v -95.561914 72.769662 -38.796739
vn 2.838459 -1.345858 -0.037710
v -99.475900 64.451300 -48.809800
vn 5.685441 -2.673804 -0.067119
v -99.278987 64.868422 -48.874943
vn 2.843088 -1.336302 -0.027442
v -98.754750 65.729200 -38.000000
vn 2.844553 -1.333202 -0.026375
v -99.416700 64.348700 -39.533900
vn 5.722328 -2.594533 -0.042128
v -97.101709 69.383650 -40.650177
vn 5.721997 -2.594364 -0.073921
v -97.388142 68.740490 -39.897006
vn 5.746598 -2.539228 -0.073319
v -95.975372 71.919716 -42.631485
vn 5.737574 -2.559993 -0.069426
v -96.060212 71.707490 -41.654648
vn 5.734405 -2.567423 -0.056808
v -96.328149 71.133580 -42.560681
vn 5.692259 -2.659215 -0.070980
v -99.175140 65.072985 -48.081145
vn 5.694036 -2.654636 -0.096037
v -98.807308 65.830296 -47.213523
vn 5.728593 -2.580715 -0.016359
v -96.892128 69.884031 -44.080097
vn 5.743172 -2.548396 -0.008169
v -96.478599 70.816328 -44.393833
vn 5.740634 -2.553851 -0.029362
v -96.589013 70.564937 -43.379493
vn 5.690397 -2.663276 -0.067415
v -98.280499 66.988152 -48.075169
vn 5.688605 -2.667528 -0.049409
v -98.144145 67.298696 -49.044545
vn 5.734343 -2.567789 -0.034693
v -96.045482 71.847760 -49.408166
vn 2.875389 -1.265517 -0.014389
v -95.675600 72.692800 -50.000000
vn 5.744541 -2.544917 -0.043736
v -95.716263 72.588762 -49.073238
vn 2.870908 -1.275444 -0.027065
v -95.375150 73.348600 -48.697300
vn 2.905226 -1.195132 -0.030421
v -95.344900 73.296100 -38.753600
vn 5.699215 -2.644010 -0.080846
v -97.776002 68.018055 -46.289061
vn 5.703949 -2.633743 -0.081649
v -97.500309 68.585698 -45.467675
vn 5.702305 -2.637072 -0.089161
v -97.935445 67.639136 -45.233124
vn 5.705197 -2.631223 -0.070595
v -98.255355 66.914292 -44.364304
vn 5.701128 -2.639304 -0.097913
v -98.388328 66.659292 -45.267050
vn 2.844992 -1.332356 -0.021258
v -99.426550 64.365850 -41.675500
vn 5.688312 -2.668358 -0.036800
v -99.023494 65.236544 -42.319022
vn 5.689534 -2.665626 -0.045166
v -99.047361 65.168044 -41.194309
vn 5.711104 -2.618829 -0.052267
v -97.202480 69.211880 -44.746507
vn 2.843087 -1.336387 -0.023110
v -98.021100 67.577050 -50.000000
vn 5.687779 -2.669367 -0.045336
v -97.776503 68.081397 -49.069515
vn 5.695657 -2.652449 -0.046748
v -98.704192 65.886553 -40.453739
vn 5.694629 -2.653258 -0.098753
v -98.758594 65.861764 -45.271457
vn 5.686767 -2.670820 -0.072329
v -99.048467 65.222074 -44.716381
vn 5.696354 -2.649514 -0.100057
v -98.676752 66.074799 -46.239994
vn 5.712582 -2.616063 -0.031235
v -97.718310 68.069467 -43.514895
vn 5.708334 -2.625312 -0.032357
v -98.167418 67.088701 -43.266089
vn 2.840698 -1.341393 -0.026464
v -99.437800 64.385300 -44.094200
vn 5.697269 -2.649149 -0.030486
v -98.600950 66.141131 -42.741750
vn 5.691302 -2.661655 -0.055171
v -97.245938 69.180475 -47.341892
vn 5.706202 -2.629408 -0.053327
v -96.815235 70.106233 -47.468743
vn 5.741640 -2.551803 -0.014779
v -96.426610 70.937385 -45.481157
vn 5.729782 -2.577703 -0.040072
v -96.491441 70.799962 -46.629041
vn 5.770142 -2.486165 -0.033858
v -95.737490 72.520210 -44.331240
vn 5.761692 -2.505857 -0.005340
v -96.080508 71.716032 -44.892885
vn 5.702714 -2.637288 -0.046691
v -98.279092 66.811699 -40.835488
vn 5.699741 -2.643411 -0.059452
v -98.392541 66.547653 -39.735039
vn 5.722388 -2.594147 -0.053943
v -96.475359 70.896846 -49.194198
vn 2.860604 -1.298504 -0.020870
v -96.387650 71.103200 -50.000000
vn 5.762286 -2.503501 -0.082069
v -95.715126 72.541089 -43.208030
vn 2.880301 -1.253915 -0.034196
v -95.372800 73.344550 -43.838550
vn 5.705544 -2.631277 -0.037979
v -98.228704 66.942334 -42.019170
vn 5.694839 -2.653470 -0.078672
v -98.031082 67.493001 -47.171592
vn 5.694101 -2.654690 -0.089913
v -98.428305 66.643448 -47.136633
vn 5.697259 -2.648371 -0.076089
v -98.135613 67.078421 -38.937542
vn 2.870871 -1.275329 -0.035235
v -97.006550 69.526950 -38.000000
vn 5.732408 -2.570879 -0.087788
v -97.206481 69.102737 -38.934347
vn 5.728100 -2.581296 -0.052599
v -96.752234 70.124542 -38.910061
vn 5.710000 -2.620072 -0.091349
v -97.670003 68.080930 -38.983535
vn 2.848275 -1.324920 -0.039012
v -97.924850 67.504000 -38.000000
vn 5.732197 -2.572303 -0.051741
v -96.408571 71.003150 -47.593194
vn 5.718400 -2.602476 -0.065539
v -96.621072 70.549771 -48.342982
vn 5.693960 -2.655686 -0.065593
v -97.645638 68.325976 -47.240184
vn 5.713007 -2.614885 -0.046786
v -96.517855 70.648967 -39.806243
vn 5.718170 -2.603478 -0.051011
v -96.715141 70.238190 -40.693720
vn 5.705109 -2.631832 -0.056320
v -96.935362 69.885001 -49.141090
vn 5.693321 -2.657402 -0.051156
v -97.377802 68.932916 -49.102288
vn 5.689211 -2.666211 -0.050933
v -97.511505 68.631621 -48.178007
vn 2.848459 -1.324787 -0.028725
v -97.240650 69.247250 -50.000000
vn 5.715411 -2.609888 -0.031207
v -97.405719 68.746761 -42.856987
vn 5.715003 -2.610818 -0.027983
v -97.308085 68.971358 -43.812245
vn 5.722334 -2.593809 -0.069190
v -96.299117 71.146948 -40.701906
vn 5.754023 -2.522557 -0.056531
v -95.905742 72.021978 -40.619133
vn 5.696389 -2.650710 -0.056233
v -97.075154 69.565270 -48.259591
vn 5.688220 -2.668300 -0.052315
v -99.035389 65.148123 -38.804235
vn 5.766777 -2.493038 -0.069955
v -95.692447 72.552924 -42.196639
vn 5.685341 -2.674537 -0.044393
v -98.965194 65.375306 -43.544604
vn 5.692240 -2.659387 -0.065140
v -98.596535 66.082629 -38.799015
vn 5.773671 -2.476938 -0.061467
v -95.663945 72.593285 -41.280372
vn 5.693757 -2.655710 -0.075791
v -98.662930 66.036843 -44.452641
vn 5.707144 -2.627402 -0.055412
v -97.942669 67.589414 -44.185968
vn 5.688712 -2.667277 -0.051082
v -99.076943 65.086991 -40.218096
# 152 vertices, 0 vertices normals

f 44//44 45//45 46//46
f 47//47 48//48 49//49
f 50//50 51//51 52//52
f 53//53 54//54 55//55
f 22//22 56//56 57//57
f 58//58 59//59 60//60
f 61//61 62//62 63//63
f 16//16 15//15 17//17
f 64//64 65//65 48//48
f 24//24 67//67 66//66
f 45//45 68//68 69//69
f 13//13 70//70 71//71
f 26//26 23//23 146//146
f 74//74 75//75 58//58
f 76//76 77//77 78//78
f 13//13 80//80 54//54
f 81//81 82//82 83//83
f 84//84 62//62 85//85
f 86//86 87//87 88//88
f 89//89 47//47 88//88
f 69//69 24//24 90//90
f 91//91 92//92 93//93
f 94//94 95//95 93//93
f 99//99 92//92 51//51
f 100//100 101//101 85//85
f 55//55 103//103 104//104
f 105//105 95//95 103//103
f 94//94 151//151 107//107
f 108//108 104//104 147//147
f 110//110 111//111 52//52
f 112//112 50//50 113//113
f 65//65 114//114 115//115
f 116//116 117//117 102//102
f 86//86 118//118 119//119
f 146//146 76//76 120//120
f 83//83 78//78 57//57
f 121//121 120//120 114//114
f 116//116 122//122 59//59
f 84//84 123//123 124//124
f 148//148 117//117 125//125
f 126//126 127//127 128//128
f 129//129 75//75 127//127
f 129//129 130//130 125//125
f 123//123 133//133 91//91
f 124//124 105//105 80//80
f 79//79 71//71 63//63
f 107//107 122//122 109//109
f 128//128 134//134 44//44
f 22//22 135//135 74//74
f 132//132 111//111 144//144
f 137//137 138//138 101//101
f 137//137 139//139 136//136
f 131//131 49//49 113//113
f 115//115 82//82 112//112
f 133//133 138//138 110//110
f 60//60 140//140 56//56
f 106//106 141//141 140//140
f 99//99 81//81 141//141
f 142//142 134//134 135//135
f 143//143 67//67 68//68
f 142//142 77//77 143//143
f 28//28 44//44 46//46
f 44//44 43//43 45//45
f 46//46 45//45 1//1
f 35//35 47//47 49//49
f 47//47 18//18 48//48
f 49//49 48//48 36//36
f 113//113 50//50 52//52
f 50//50 5//5 51//51
f 52//52 51//51 39//39
f 7//7 53//53 55//55
f 53//53 13//13 54//54
f 55//55 54//54 105//105
f 42//42 22//22 57//57
f 57//57 56//56 19//19
f 22//22 58//58 60//60
f 58//58 34//34 59//59
f 60//60 59//59 40//40
f 14//14 61//61 63//63
f 61//61 25//25 62//62
f 63//63 62//62 37//37
f 18//18 64//64 48//48
f 64//64 12//12 65//65
f 48//48 65//65 36//36
f 1//1 45//45 69//69
f 45//45 43//43 68//68
f 69//69 68//68 24//24
f 70//70 29//29 71//71
f 14//14 71//71 29//29
f 148//148 2//2 72//72
f 145//145 72//72 17//17
f 146//146 23//23 149//149
f 10//10 152//152 73//73
f 73//73 145//145 15//15
f 15//15 145//145 17//17
f 22//22 74//74 58//58
f 74//74 38//38 75//75
f 58//58 75//75 34//34
f 11//11 76//76 78//78
f 78//78 77//77 42//42
f 13//13 79//79 80//80
f 79//79 37//37 80//80
f 54//54 80//80 105//105
f 19//19 81//81 83//83
f 81//81 5//5 82//82
f 83//83 82//82 11//11
f 21//21 84//84 85//85
f 84//84 37//37 62//62
f 85//85 62//62 25//25
f 35//35 86//86 88//88
f 86//86 8//8 87//87
f 88//88 87//87 31//31
f 31//31 89//89 88//88
f 89//89 18//18 47//47
f 88//88 47//47 35//35
f 1//1 69//69 32//32
f 90//90 32//32 69//69
f 6//6 91//91 93//93
f 91//91 39//39 92//92
f 93//93 92//92 41//41
f 41//41 151//151 93//93
f 93//93 95//95 6//6
f 10//10 96//96 98//98
f 96//96 30//30 97//97
f 5//5 99//99 51//51
f 99//99 41//41 92//92
f 51//51 92//92 39//39
f 25//25 100//100 85//85
f 100//100 33//33 101//101
f 85//85 101//101 21//21
f 3//3 152//152 102//102
f 102//102 98//98 4//4
f 7//7 55//55 104//104
f 55//55 105//105 103//103
f 105//105 6//6 95//95
f 20//20 150//150 94//94
f 20//20 94//94 107//107
f 107//107 106//106 40//40
f 108//108 7//7 104//104
f 147//147 104//104 150//150
f 30//30 147//147 97//97
f 97//97 109//109 4//4
f 39//39 110//110 52//52
f 110//110 144//144 111//111
f 52//52 111//111 113//113
f 36//36 112//112 113//113
f 112//112 5//5 50//50
f 36//36 65//65 115//115
f 65//65 12//12 114//114
f 115//115 114//114 11//11
f 4//4 116//116 102//102
f 116//116 34//34 117//117
f 102//102 117//117 3//3
f 8//8 86//86 119//119
f 86//86 35//35 118//118
f 119//119 118//118 9//9
f 26//26 146//146 120//120
f 120//120 76//76 11//11
f 19//19 83//83 57//57
f 83//83 11//11 78//78
f 57//57 78//78 42//42
f 12//12 121//121 114//114
f 121//121 26//26 120//120
f 114//114 120//120 11//11
f 34//34 116//116 59//59
f 116//116 4//4 122//122
f 59//59 122//122 40//40
f 37//37 84//84 124//124
f 84//84 21//21 123//123
f 124//124 123//123 6//6
f 2//2 148//148 125//125
f 148//148 3//3 117//117
f 125//125 117//117 34//34
f 28//28 126//126 128//128
f 126//126 27//27 127//127
f 128//128 127//127 38//38
f 27//27 129//129 127//127
f 129//129 34//34 75//75
f 127//127 75//75 38//38
f 34//34 129//129 125//125
f 129//129 27//27 130//130
f 125//125 130//130 2//2
f 136//136 118//118 132//132
f 118//118 35//35 132//132
f 111//111 131//131 113//113
f 6//6 123//123 91//91
f 123//123 21//21 133//133
f 91//91 133//133 39//39
f 37//37 124//124 80//80
f 124//124 6//6 105//105
f 37//37 79//79 63//63
f 63//63 71//71 14//14
f 107//107 40//40 122//122
f 109//109 122//122 4//4
f 28//28 128//128 44//44
f 128//128 38//38 134//134
f 44//44 134//134 43//43
f 22//22 42//42 135//135
f 74//74 135//135 38//38
f 9//9 118//118 136//136
f 132//132 131//131 111//111
f 136//136 132//132 144//144
f 33//33 137//137 101//101
f 137//137 144//144 138//138
f 101//101 138//138 21//21
f 144//144 137//137 136//136
f 137//137 33//33 139//139
f 136//136 139//139 9//9
f 131//131 35//35 49//49
f 113//113 49//49 36//36
f 36//36 115//115 112//112
f 115//115 11//11 82//82
f 112//112 82//82 5//5
f 39//39 133//133 110//110
f 133//133 21//21 138//138
f 110//110 138//138 144//144
f 22//22 60//60 56//56
f 60//60 40//40 140//140
f 56//56 140//140 19//19
f 40//40 106//106 140//140
f 106//106 41//41 141//141
f 140//140 141//141 19//19
f 41//41 99//99 141//141
f 99//99 5//5 81//81
f 141//141 81//81 19//19
f 42//42 142//142 135//135
f 142//142 43//43 134//134
f 135//135 134//134 38//38
f 43//43 143//143 68//68
f 143//143 149//149 67//67
f 68//68 67//67 24//24
f 43//43 142//142 143//143
f 142//142 42//42 77//77
f 143//143 77//77 149//149
f 66//66 67//67 149//149
f 145//145 3//3 148//148
f 132//132 35//35 131//131
f 76//76 146//146 77//77
f 147//147 20//20 109//109
f 66//66 149//149 23//23
f 30//30 108//108 147//147
f 109//109 97//97 147//147
f 145//145 148//148 72//72
f 146//146 149//149 77//77
f 20//20 107//107 109//109
f 150//150 104//104 103//103
f 103//103 95//95 150//150
f 94//94 150//150 95//95
f 147//147 150//150 20//20
f 151//151 106//106 107//107
f 151//151 94//94 93//93
f 98//98 96//96 97//97
f 106//106 151//151 41//41
f 98//98 97//97 4//4
f 152//152 98//98 102//102
f 152//152 10//10 98//98
f 79//79 13//13 71//71
f 73//73 152//152 3//3
f 145//145 73//73 3//3
# 259 faces, 0 coords texture

# End of File
