####
#
# OBJ File Generated by Meshlab
#
####
# Object 1063_C173_M_3.obj
#
# Vertices: 155
# Faces: 265
#
####
vn -2.826841 -1.370507 0.014556
v 100.861000 67.623400 -50.000000
vn -5.747966 -2.537216 0.024757
v 98.179967 73.423256 -46.414475
vn -5.736883 -2.562441 0.000948
v 98.470587 72.791885 -44.366021
vn -5.723182 -2.592597 -0.006257
v 98.688782 72.283606 -42.392156
vn -2.836949 -1.346435 -0.011659
v 101.059000 67.192500 -44.913400
vn -2.881970 -1.258637 -0.004799
v 96.989700 76.145100 -43.869200
vn -2.843002 -1.330085 -0.011791
v 101.050000 67.176800 -42.538100
vn -2.845068 -1.313431 0.015236
v 101.046000 67.171000 -40.274100
vn -2.851734 -1.317609 0.029090
v 100.271000 68.907900 -38.000000
vn -5.683827 -2.677870 0.001293
v 100.324912 68.748141 -44.341994
vn -5.694407 -2.655392 -0.029037
v 100.207584 68.984631 -43.274994
vn -2.830535 -1.378566 -0.009732
v 101.069000 67.210900 -47.093300
vn -2.843933 -1.332488 0.057802
v 99.419300 70.613300 -50.000000
vn -2.882443 -1.237317 0.001821
v 96.996500 76.156600 -40.064200
vn -2.867680 -1.282230 -0.010577
v 98.038700 73.730800 -38.000000
vn -5.698164 -2.645120 0.014767
v 99.697115 70.035976 -45.874593
vn -5.725190 -2.588256 0.023376
v 99.030881 71.526620 -47.152921
vn -2.884368 -1.248508 0.006726
v 96.991900 76.148800 -42.001700
vn -1.433086 -0.658304 0.014400
v 101.059000 67.192800 -38.000000
vn -2.881400 -1.244333 0.006621
v 96.993900 76.152100 -48.314800
vn -1.410221 -0.685454 0.007228
v 101.065000 67.203700 -50.000000
vn -2.827907 -1.371875 0.010805
v 101.067000 67.206800 -49.315800
vn -5.712661 -2.615863 0.017176
v 99.431085 70.662999 -43.904964
vn -1.444369 -0.622531 -0.002824
v 96.992900 76.150500 -38.000000
vn -1.447344 -0.617766 0.010736
v 96.989700 76.145000 -50.000000
vn -2.886249 -1.239850 0.032983
v 97.842100 74.132300 -50.000000
vn -5.707340 -2.627396 0.036927
v 99.512313 70.515261 -39.668004
vn -5.754807 -2.521980 -0.002281
v 97.658534 74.625560 -44.959659
vn -5.744196 -2.545233 0.011552
v 98.087732 73.615874 -40.904054
vn -2.866921 -1.283205 0.037594
v 98.525700 72.561200 -50.000000
vn -5.770710 -2.485048 0.035787
v 97.588735 74.774229 -48.205088
vn -2.878515 -1.253948 -0.001532
v 96.993700 76.151800 -46.258800
vn -2.850666 -1.320162 0.022760
v 99.595400 70.362700 -38.000000
vn -2.833051 -1.357550 0.017260
v 99.939600 69.529700 -50.000000
vn -5.753370 -2.525038 -0.015921
v 97.760362 74.374276 -42.844409
vn -5.705658 -2.630703 0.056636
v 100.292008 68.838708 -39.070452
vn -5.734128 -2.568635 0.011594
v 98.987374 71.622813 -46.035799
vn -5.704807 -2.632781 0.021449
v 100.226113 68.936411 -41.082253
vn -5.711760 -2.617986 0.017852
v 99.474769 70.576199 -41.660297
vn -5.706797 -2.628136 0.050359
v 99.160107 71.199058 -48.984266
vn -2.852783 -1.315729 0.010958
v 98.695200 72.306000 -38.000000
vn -5.711288 -2.618996 0.021326
v 98.775713 72.113171 -40.278700
vn -5.769350 -2.488571 0.004299
v 97.678098 74.564727 -41.144555
vn -5.745144 -2.542752 0.060892
v 98.380447 72.931554 -48.488468
vn -5.684387 -2.676536 0.002744
v 99.800774 69.835522 -47.793524
vn -5.658306 -2.731594 0.008576
v 100.563704 68.253363 -48.429029
vn -5.688809 -2.667306 -0.036605
v 100.659408 68.021967 -43.419799
vn -5.691532 -2.661625 -0.018805
v 100.535395 68.277021 -42.667890
vn -5.710153 -2.621538 0.009901
v 99.451581 70.622456 -42.719415
vn -5.704285 -2.634144 -0.010628
v 99.815075 69.828040 -43.158971
vn -5.712188 -2.617106 0.008831
v 99.767947 69.934473 -42.245328
vn -5.692726 -2.658124 -0.029792
v 99.756881 69.918984 -46.818989
vn -5.729354 -2.579137 -0.018535
v 99.367600 70.773217 -46.522204
vn -5.716475 -2.607204 0.013937
v 99.419273 70.672623 -47.476359
vn -2.881857 -1.250788 0.005838
v 96.990800 76.146950 -42.935450
vn -5.759587 -2.510991 -0.007099
v 97.357240 75.300567 -43.390523
vn -5.764355 -2.500110 0.008142
v 97.339161 75.346585 -42.442782
vn -2.854738 -1.311199 0.028889
v 101.052500 67.181900 -39.137050
vn -5.709208 -2.622987 0.057414
v 100.671320 68.022727 -38.641266
vn -5.708953 -2.623531 0.057904
v 100.666876 68.009976 -39.659125
vn -2.849210 -1.323155 0.029409
v 99.933200 69.635300 -38.000000
vn -5.700793 -2.641345 0.050781
v 99.927021 69.636361 -38.550908
vn -2.827601 -1.369034 0.003609
v 101.068000 67.208850 -48.204550
vn -5.655024 -2.738402 -0.013323
v 100.620952 68.131055 -47.572297
vn -5.656319 -2.735671 0.023454
v 100.706563 67.951234 -49.162772
vn -5.693484 -2.657544 -0.009329
v 100.582982 68.174099 -41.878877
vn -5.668610 -2.709685 -0.027335
v 100.794870 67.748941 -45.610701
vn -5.684039 -2.677550 -0.015443
v 100.715468 67.919340 -44.581752
vn -5.668143 -2.711101 0.008839
v 100.438947 68.500695 -45.393042
vn -2.886093 -1.240967 -0.008701
v 96.994700 76.153550 -39.032100
vn -5.772729 -2.480703 -0.006760
v 97.360863 75.305879 -39.589432
vn -5.769650 -2.487838 -0.011591
v 97.322869 75.388263 -38.736904
vn -2.892726 -1.225100 0.029504
v 97.415900 75.138650 -50.000000
vn -5.777167 -2.469347 0.067587
v 97.704456 74.478563 -49.117386
vn -5.778242 -2.467354 0.043999
v 97.316185 75.395617 -49.106499
vn -5.768544 -2.490363 0.014553
v 97.227748 75.611097 -48.221105
vn -2.885328 -1.242705 0.012933
v 96.991800 76.148550 -49.157400
vn -5.710309 -2.620766 0.044055
v 99.876060 69.710933 -40.357675
vn -5.712882 -2.615450 0.027652
v 99.496857 70.538640 -40.648160
vn -5.714379 -2.612253 0.017249
v 99.838755 69.782038 -41.351150
vn -5.735669 -2.565004 0.027545
v 99.361037 70.788958 -45.680695
vn -5.708024 -2.624693 0.064598
v 99.596375 70.277748 -44.945663
vn -5.732273 -2.572546 0.037794
v 99.188067 71.188289 -44.950660
vn -5.727131 -2.584007 0.000877
v 98.930770 71.771528 -44.142917
vn -5.732591 -2.571939 0.028173
v 98.752073 72.154836 -45.115510
vn -5.765225 -2.497131 0.069338
v 98.092490 73.577047 -49.189078
vn -5.769740 -2.487015 0.051890
v 97.988423 73.845832 -48.284659
vn -2.847436 -1.327271 -0.008090
v 101.048000 67.173900 -41.406100
vn -5.701741 -2.639442 0.020193
v 100.640370 68.044546 -40.720831
vn -5.728315 -2.581222 0.030992
v 98.625030 72.431692 -46.816829
vn -5.747325 -2.537892 0.045936
v 98.283530 73.169468 -47.498470
vn -5.723140 -2.592306 0.063464
v 98.701034 72.239291 -47.833070
vn -5.671872 -2.702567 0.051672
v 100.017258 69.377960 -45.141400
vn -5.690929 -2.662260 0.024897
v 99.906583 69.643365 -44.152343
vn -5.660404 -2.727218 -0.021795
v 100.184244 69.031928 -47.141016
vn -2.854372 -1.311847 0.034403
v 98.972500 71.587250 -50.000000
vn -5.715790 -2.608425 0.064777
v 99.096669 71.360320 -48.131574
vn -5.720771 -2.597322 0.071011
v 98.766157 72.065635 -48.967692
vn -5.734681 -2.567396 0.013511
v 98.578537 72.535553 -45.954478
vn -5.742207 -2.550391 0.028325
v 98.325107 73.108755 -45.335883
vn -2.882640 -1.248995 0.000894
v 96.993800 76.151950 -47.286800
vn -5.764604 -2.499532 0.008264
v 97.454740 75.087578 -47.300810
vn -5.706433 -2.628982 0.059033
v 100.272611 68.858336 -40.055241
vn -5.704080 -2.634218 0.051953
v 99.905425 69.668992 -39.413971
vn -2.843831 -1.334859 -0.019494
v 101.054500 67.184650 -43.725750
vn -5.741631 -2.551754 -0.025222
v 98.137038 73.534813 -43.624982
vn -5.749267 -2.534471 -0.024717
v 97.716205 74.486627 -43.938548
vn -5.745396 -2.543233 0.002983
v 98.044774 73.752568 -44.612047
vn -5.702314 -2.638225 0.042438
v 99.539762 70.470629 -38.765813
vn -5.732387 -2.572330 -0.028836
v 98.589858 72.514847 -43.393667
vn -5.716672 -2.607120 -0.012288
v 99.043163 71.509510 -43.122773
vn -5.656511 -2.735267 0.024676
v 100.268053 68.858760 -49.106271
vn -5.658537 -2.731101 0.001557
v 100.200045 69.007392 -48.135853
vn -5.672358 -2.702051 0.018923
v 99.849750 69.726142 -48.826586
vn -5.700242 -2.642464 0.042327
v 99.466178 70.546660 -48.429244
vn -2.825971 -1.372185 -0.024546
v 101.064000 67.201700 -46.003350
vn -5.655625 -2.737008 -0.029109
v 100.729267 67.899531 -46.476274
vn -2.885664 -1.241948 0.010651
v 96.994200 76.152700 -41.032950
vn -5.767949 -2.491784 0.010984
v 97.316754 75.400003 -41.520738
vn -2.876950 -1.262019 -0.008354
v 96.991700 76.148450 -45.064000
vn -5.758126 -2.514385 -0.006179
v 97.330501 75.378797 -45.470674
vn -5.755354 -2.520694 -0.019618
v 97.342169 75.345232 -44.418184
vn -2.880684 -1.253119 0.030882
v 98.183900 73.346750 -50.000000
vn -5.746165 -2.540336 0.071300
v 98.406080 72.852815 -49.309001
vn -2.828441 -1.367242 0.013317
v 100.400300 68.576550 -50.000000
vn -5.739886 -2.555607 -0.030662
v 98.248449 73.275489 -42.651548
vn -2.854588 -1.311536 0.028362
v 100.665000 68.050350 -38.000000
vn -5.763713 -2.501540 -0.006473
v 97.695436 74.526242 -38.934523
vn -2.883824 -1.246258 -0.001829
v 97.515800 74.940650 -38.000000
vn -5.755079 -2.521224 0.020107
v 97.915020 74.034272 -45.577891
vn -5.712752 -2.615778 0.023944
v 98.767073 72.122336 -41.331985
vn -5.710148 -2.621507 0.016651
v 99.099239 71.391611 -42.044711
vn -5.710614 -2.620430 0.025513
v 99.133764 71.325878 -40.977650
vn -5.727892 -2.582178 -0.004608
v 98.372185 72.983081 -41.664171
vn -5.766405 -2.495271 0.020422
v 97.865048 74.143309 -47.335305
vn -2.851240 -1.318969 0.018850
v 99.145300 71.334350 -38.000000
vn -5.705702 -2.631001 0.032267
v 99.159009 71.289218 -39.009264
vn -5.736396 -2.563442 -0.003789
v 98.097927 73.610322 -38.980903
vn -5.709445 -2.622987 0.024059
v 99.135360 71.332886 -39.973968
vn -5.753840 -2.523794 -0.017223
v 97.950817 73.932157 -41.896866
vn -5.767083 -2.493820 0.001352
v 97.605309 74.733372 -41.976345
vn -5.761262 -2.507053 0.010216
v 97.799257 74.285170 -39.980565
vn -2.855517 -1.309812 0.000105
v 98.366950 73.018400 -38.000000
vn -5.714603 -2.611757 0.016925
v 98.480593 72.766946 -38.818981
vn -5.707202 -2.627838 0.025755
v 98.851338 71.959932 -38.808971
vn -5.762075 -2.505361 0.008246
v 97.719755 74.481194 -46.468017
vn -5.688112 -2.668269 0.053914
v 99.461742 70.548511 -49.405356
vn -5.762064 -2.505395 0.005878
v 97.592780 74.775000 -45.769076
vn -5.724974 -2.588721 0.018553
v 98.328141 73.092360 -39.823284
vn -5.762851 -2.503582 0.005665
v 97.347867 75.336680 -46.415658
vn -5.659286 -2.729515 -0.003347
v 100.155750 69.083013 -46.153397
vn -5.772612 -2.480970 0.010870
v 97.380466 75.258603 -40.513129
vn -5.715053 -2.610790 0.018256
v 98.475498 72.766688 -40.619985
vn -5.702209 -2.638654 -0.003676
v 100.119335 69.167030 -42.273240
vn -5.709869 -2.622101 0.019843
v 98.743904 72.188117 -39.505736
# 155 vertices, 0 vertices normals

f 49//49 50//50 51//51
f 13//13 34//34 147//147
f 52//52 53//53 54//54
f 55//55 56//56 57//57
f 58//58 59//59 60//60
f 33//33 62//62 61//61
f 21//21 22//22 1//1
f 63//63 64//64 46//46
f 67//67 68//68 69//69
f 70//70 71//71 72//72
f 73//73 74//74 75//75
f 76//76 77//77 75//75
f 78//78 79//79 80//80
f 81//81 82//82 83//83
f 84//84 85//85 83//83
f 74//74 86//86 87//87
f 88//88 89//89 66//66
f 90//90 91//91 92//92
f 151//151 69//69 93//93
f 11//11 50//50 94//94
f 52//52 95//95 151//151
f 30//30 96//96 98//98
f 97//97 92//92 98//98
f 99//99 90//90 37//37
f 85//85 100//100 99//99
f 101//101 76//76 102//102
f 60//60 103//103 89//89
f 104//104 78//78 103//103
f 105//105 47//47 68//68
f 106//106 107//107 108//108
f 62//62 109//109 104//104
f 110//110 84//84 111//111
f 112//112 113//113 114//114
f 114//114 115//115 147//147
f 118//118 119//119 152//152
f 120//120 121//121 122//122
f 107//107 56//56 122//122
f 123//123 124//124 86//86
f 125//125 65//65 112//112
f 126//126 106//106 110//110
f 53//53 81//81 37//37
f 59//59 19//19 127//127
f 80//80 51//51 154//154
f 72//72 128//128 129//129
f 108//108 130//130 100//100
f 131//131 132//132 133//133
f 131//131 153//153 134//134
f 115//115 54//54 97//97
f 87//87 91//91 135//135
f 136//136 137//137 109//109
f 140//140 126//126 134//134
f 119//119 57//57 141//141
f 141//141 140//140 43//43
f 132//132 111//111 49//49
f 64//64 95//95 113//113
f 94//94 82//82 93//93
f 137//137 145//145 155//155
f 121//121 148//148 28//28
f 10//10 47//47 11//11
f 39//39 49//49 51//51
f 49//49 23//23 50//50
f 96//96 147//147 40//40
f 45//45 52//52 54//54
f 52//52 16//16 53//53
f 54//54 53//53 17//17
f 18//18 55//55 57//57
f 55//55 6//6 56//56
f 57//57 56//56 35//35
f 8//8 58//58 60//60
f 58//58 19//19 59//59
f 60//60 59//59 36//36
f 36//36 9//9 62//62
f 61//61 62//62 9//9
f 22//22 63//63 65//65
f 63//63 12//12 64//64
f 65//65 63//63 46//46
f 7//7 66//66 48//48
f 66//66 38//38 154//154
f 117//117 67//67 69//69
f 67//67 5//5 68//68
f 69//69 68//68 10//10
f 24//24 70//70 72//72
f 70//70 14//14 71//71
f 72//72 71//71 128//128
f 25//25 73//73 75//75
f 73//73 26//26 74//74
f 75//75 74//74 31//31
f 31//31 76//76 75//75
f 76//76 20//20 77//77
f 75//75 77//77 25//25
f 38//38 78//78 80//80
f 78//78 27//27 79//79
f 80//80 79//79 39//39
f 37//37 81//81 83//83
f 81//81 16//16 82//82
f 83//83 82//82 23//23
f 23//23 84//84 83//83
f 84//84 3//3 85//85
f 83//83 85//85 37//37
f 31//31 74//74 87//87
f 74//74 26//26 86//86
f 87//87 86//86 44//44
f 7//7 88//88 66//66
f 88//88 8//8 89//89
f 66//66 89//89 38//38
f 17//17 90//90 92//92
f 90//90 2//2 91//91
f 92//92 91//91 44//44
f 16//16 151//151 93//93
f 93//93 69//69 10//10
f 10//10 11//11 94//94
f 94//94 50//50 23//23
f 16//16 52//52 151//151
f 52//52 45//45 95//95
f 96//96 40//40 98//98
f 40//40 97//97 98//98
f 97//97 17//17 92//92
f 98//98 92//92 44//44
f 99//99 2//2 90//90
f 37//37 90//90 17//17
f 37//37 85//85 99//99
f 85//85 3//3 100//100
f 99//99 100//100 2//2
f 150//150 101//101 102//102
f 101//101 20//20 76//76
f 102//102 76//76 31//31
f 8//8 60//60 89//89
f 60//60 36//36 103//103
f 89//89 103//103 38//38
f 36//36 104//104 103//103
f 104//104 27//27 78//78
f 103//103 78//78 38//38
f 5//5 105//105 68//68
f 105//105 7//7 47//47
f 68//68 47//47 10//10
f 3//3 106//106 108//108
f 106//106 35//35 107//107
f 108//108 107//107 28//28
f 36//36 62//62 104//104
f 62//62 33//33 109//109
f 104//104 109//109 27//27
f 4//4 110//110 111//111
f 110//110 3//3 84//84
f 111//111 84//84 23//23
f 34//34 112//112 114//114
f 112//112 46//46 113//113
f 114//114 113//113 45//45
f 34//34 114//114 147//147
f 114//114 45//45 115//115
f 147//147 115//115 40//40
f 12//12 116//116 117//117
f 116//116 5//5 67//67
f 14//14 118//118 152//152
f 118//118 18//18 119//119
f 152//152 119//119 43//43
f 6//6 120//120 122//122
f 120//120 32//32 121//121
f 122//122 121//121 28//28
f 28//28 107//107 122//122
f 107//107 35//35 56//56
f 122//122 56//56 6//6
f 26//26 123//123 86//86
f 123//123 30//30 124//124
f 86//86 124//124 44//44
f 34//34 125//125 112//112
f 125//125 1//1 65//65
f 112//112 65//65 46//46
f 4//4 126//126 110//110
f 126//126 35//35 106//106
f 110//110 106//106 3//3
f 17//17 53//53 37//37
f 53//53 16//16 81//81
f 36//36 59//59 9//9
f 127//127 9//9 59//59
f 38//38 80//80 154//154
f 80//80 39//39 51//51
f 24//24 72//72 129//129
f 129//129 128//128 15//15
f 3//3 108//108 100//100
f 108//108 28//28 130//130
f 100//100 130//130 2//2
f 42//42 131//131 133//133
f 131//131 4//4 132//132
f 133//133 132//132 39//39
f 4//4 131//131 134//134
f 131//131 42//42 153//153
f 134//134 153//153 29//29
f 40//40 115//115 97//97
f 115//115 45//45 54//54
f 97//97 54//54 17//17
f 31//31 87//87 135//135
f 87//87 44//44 91//91
f 135//135 91//91 2//2
f 33//33 136//136 109//109
f 109//109 137//137 27//27
f 142//142 29//29 149//149
f 139//139 42//42 133//133
f 79//79 133//133 39//39
f 29//29 140//140 134//134
f 140//140 35//35 126//126
f 134//134 126//126 4//4
f 43//43 119//119 141//141
f 119//119 18//18 57//57
f 141//141 57//57 35//35
f 141//141 35//35 140//140
f 43//43 140//140 29//29
f 39//39 132//132 49//49
f 132//132 4//4 111//111
f 49//49 111//111 23//23
f 128//128 71//71 142//142
f 71//71 14//14 152//152
f 142//142 152//152 43//43
f 142//142 43//43 29//29
f 64//64 12//12 117//117
f 98//98 44//44 124//124
f 98//98 124//124 30//30
f 143//143 15//15 138//138
f 46//46 64//64 113//113
f 113//113 95//95 45//45
f 22//22 65//65 1//1
f 10//10 94//94 93//93
f 94//94 23//23 82//82
f 93//93 82//82 16//16
f 27//27 137//137 139//139
f 149//149 29//29 153//153
f 41//41 143//143 144//144
f 147//147 96//96 13//13
f 32//32 101//101 150//150
f 146//146 135//135 2//2
f 150//150 146//146 148//148
f 146//146 2//2 130//130
f 144//144 149//149 155//155
f 148//148 130//130 28//28
f 144//144 138//138 149//149
f 41//41 144//144 145//145
f 102//102 31//31 135//135
f 146//146 130//130 148//148
f 150//150 102//102 146//146
f 146//146 102//102 135//135
f 32//32 150//150 121//121
f 148//148 121//121 150//150
f 138//138 144//144 143//143
f 138//138 15//15 128//128
f 142//142 149//149 138//138
f 151//151 117//117 69//69
f 136//136 41//41 145//145
f 128//128 142//142 138//138
f 47//47 48//48 11//11
f 71//71 152//152 142//142
f 139//139 137//137 155//155
f 139//139 133//133 79//79
f 154//154 50//50 11//11
f 48//48 66//66 154//154
f 154//154 51//51 50//50
f 27//27 139//139 79//79
f 149//149 153//153 42//42
f 48//48 154//154 11//11
f 47//47 7//7 48//48
f 136//136 145//145 137//137
f 155//155 149//149 42//42
f 139//139 155//155 42//42
f 117//117 151//151 95//95
f 64//64 117//117 95//95
f 155//155 145//145 144//144
f 117//117 116//116 67//67
# 265 faces, 0 coords texture

# End of File
