####
#
# OBJ File Generated by Meshlab
#
####
# Object 1065_C173_M_5.obj
#
# Vertices: 129
# Faces: 219
#
####
vn 3.020815 -0.879509 0.016829
v -83.428700 100.000000 42.822400
vn 3.003267 -0.898397 0.018407
v -85.835000 92.000000 44.730400
vn 6.014030 -1.817579 0.077978
v -85.361426 93.515586 43.538747
vn 6.021383 -1.794048 0.051366
v -84.403812 96.664021 42.834650
vn 3.015014 -0.881750 0.035317
v -84.852000 95.413700 50.000000
vn 6.035097 -1.747868 0.023037
v -85.353679 93.616304 47.950228
vn 6.024844 -1.782347 0.011361
v -84.469913 96.386344 41.010177
vn 3.017902 -0.877903 -0.008525
v -85.821400 92.000000 46.647400
vn 6.016780 -1.809058 0.062672
v -84.928376 94.893487 42.307168
vn 3.021951 -0.858252 0.020954
v -85.365100 93.628000 50.000000
vn 3.008173 -0.895119 0.013154
v -83.422700 100.000000 45.300400
vn 3.005530 -0.912224 0.045951
v -84.108900 97.936700 50.000000
vn 6.013458 -1.820094 0.062324
v -84.774819 95.472780 44.274178
vn 3.014718 -0.886034 0.027893
v -85.769000 92.000000 39.887500
vn 3.011610 -0.897854 0.040645
v -85.798000 92.000000 42.412000
vn 6.021540 -1.794185 -0.007316
v -84.022762 97.923017 39.663884
vn 3.007862 -0.905488 -0.016124
v -83.948100 98.202200 38.000000
vn 1.495869 -0.470296 0.011802
v -83.380900 100.000000 38.000000
vn 3.014469 -0.884211 0.004761
v -85.080200 94.363600 38.000000
vn 3.005733 -0.912222 0.032395
v -83.440700 99.999800 47.599100
vn 1.502499 -0.467157 0.017075
v -83.463400 100.000000 50.000000
vn 1.511880 -0.434877 0.008793
v -85.752400 92.000000 38.000000
vn 3.004567 -0.903971 0.016306
v -83.394100 100.000000 40.470000
vn 3.025088 -0.854904 0.010968
v -85.816500 92.000000 49.134800
vn 1.511060 -0.423587 0.008423
v -85.821200 92.000000 50.000000
vn 3.005718 -0.911568 0.049955
v -84.879700 95.011600 38.000000
vn 6.023855 -1.785934 0.000926
v -84.591992 96.017552 39.097944
vn 6.027012 -1.775312 0.037146
v -83.927334 98.249535 41.739169
vn 6.019193 -1.801321 0.026892
v -85.244852 93.982543 45.798519
vn 6.024820 -1.782704 0.004745
v -85.017224 94.540306 40.262411
vn 6.014791 -1.815750 0.059830
v -84.566195 96.224428 46.174733
vn 6.019424 -1.799298 0.084249
v -84.371093 96.957844 48.075073
vn 6.030481 -1.763618 0.030752
v -85.512608 92.861955 39.415867
vn 6.024566 -1.783125 0.055149
v -84.947522 94.995111 47.787364
vn 6.014412 -1.816536 0.070846
v -83.963018 98.232494 46.602885
vn 6.019094 -1.802025 0.038151
v -84.025324 97.975912 44.797643
vn 3.009426 -0.901330 0.023797
v -83.431700 99.999900 46.449750
vn 6.014438 -1.816511 0.068206
v -83.693477 99.143177 47.090668
vn 6.018634 -1.803359 0.048426
v -83.713408 99.047272 46.007429
vn 3.013343 -0.887521 0.040914
v -84.480450 96.675200 50.000000
vn 6.025854 -1.777980 0.079197
v -84.591913 96.250764 49.002310
vn 6.019689 -1.797898 0.092895
v -84.259437 97.381846 49.051041
vn 6.010560 -1.829522 0.066408
v -84.998824 94.763540 44.980030
vn 6.012136 -1.824488 0.061458
v -84.672155 95.843437 45.236510
vn 6.011210 -1.827916 0.045208
v -84.889278 95.157835 45.972439
vn 3.011273 -0.894856 0.032684
v -85.783500 92.000000 41.149750
vn 6.019603 -1.799458 0.068463
v -85.518023 92.910591 41.680496
vn 2.998458 -0.937391 0.010036
v -83.664500 99.101100 38.000000
vn 3.021760 -0.859378 0.006427
v -85.416300 93.181800 38.000000
vn 6.036770 -1.742114 -0.005734
v -85.304826 93.579884 38.818227
vn 6.039205 -1.733508 0.028928
v -85.549250 92.719046 38.632158
vn 2.998057 -0.937937 0.039151
v -83.786150 98.968350 50.000000
vn 6.003799 -1.850349 0.090850
v -83.925095 98.487050 49.109505
vn 6.006351 -1.842791 0.077768
v -83.714694 99.131336 48.311978
vn 3.002131 -0.925179 0.029312
v -83.452050 99.999900 48.799550
vn 6.003298 -1.853911 0.020895
v -83.610273 99.290452 38.797751
vn 6.013802 -1.819696 -0.015444
v -83.857342 98.482184 38.886731
vn 3.005165 -0.923387 0.007746
v -83.392675 100.000000 39.314325
vn 6.012008 -1.825949 -0.000823
v -83.693951 99.010608 39.885118
vn 6.010881 -1.828309 0.070802
v -85.079867 94.457435 43.960348
vn 6.012404 -1.823113 0.075047
v -85.145581 94.201998 42.935580
vn 6.015012 -1.814824 0.065109
v -84.861862 95.149010 43.299352
vn 6.019328 -1.800753 0.058178
v -84.653013 95.824162 42.624885
vn 6.017894 -1.805635 0.054781
v -84.565289 96.148129 43.545104
vn 3.016070 -0.878819 0.024477
v -85.760700 92.000000 38.943750
vn 6.049145 -1.698476 0.037694
v -85.587092 92.823837 49.431963
vn 3.025068 -0.847502 0.017585
v -85.593150 92.814000 50.000000
vn 6.017386 -1.806319 0.080411
v -85.400524 93.340078 42.500059
vn 6.016069 -1.811198 0.068516
v -85.196943 93.985986 41.897430
vn 6.022173 -1.791300 0.054654
v -85.513443 92.886536 40.476143
vn 6.032132 -1.758091 -0.030027
v -85.050060 94.446356 39.194175
vn 6.030366 -1.763928 -0.038268
v -84.804910 95.280992 39.674375
vn 6.025885 -1.779072 -0.043243
v -84.533752 96.194588 40.053564
vn 6.023668 -1.786278 0.002566
v -84.751736 95.434391 40.670699
vn 6.025068 -1.781906 0.008400
v -85.261804 93.711566 39.827297
vn 6.018610 -1.803359 0.051032
v -85.240602 93.808642 40.870068
vn 6.025498 -1.779847 0.019975
v -84.835324 95.194135 38.660821
vn 6.020029 -1.798303 0.012891
v -85.560352 92.922242 45.201413
vn 6.014940 -1.814403 0.081213
v -85.585573 92.799175 44.121738
vn 6.011646 -1.825895 0.067869
v -85.307907 93.733661 44.616541
vn 3.019347 -0.867574 0.021495
v -85.108550 94.520850 50.000000
vn 3.014905 -0.883109 -0.002308
v -84.226350 97.236650 38.000000
vn 6.025302 -1.781346 -0.008064
v -84.135362 97.540637 38.792232
vn 6.029746 -1.766120 0.025096
v -84.193246 97.335282 41.338426
vn 6.027470 -1.773917 -0.022410
v -84.239697 97.176524 40.353414
vn 6.022265 -1.791528 0.004301
v -83.953535 98.157984 40.674376
vn 3.009125 -0.901406 0.047308
v -85.816500 92.000000 43.571200
vn 6.020219 -1.796694 0.084741
v -85.596455 92.694444 42.793310
vn 3.012028 -0.892496 0.025294
v -84.599400 95.963200 38.000000
vn 6.023134 -1.788749 0.022319
v -84.390376 96.685235 38.662958
vn 6.021350 -1.794608 -0.013350
v -84.321090 96.924958 39.436212
vn 6.019367 -1.800722 0.055074
v -84.704975 95.620494 41.660689
vn 6.018477 -1.803784 0.051862
v -84.978373 94.695750 41.290003
vn 3.013481 -0.886889 0.044323
v -83.411400 100.000000 41.646200
vn 6.032123 -1.757032 0.059833
v -83.674507 99.135822 42.242748
vn 6.019792 -1.798868 0.048047
v -83.667129 99.104050 41.105273
vn 3.015506 -0.881066 -0.007301
v -83.425700 100.000000 44.061400
vn 6.033178 -1.754609 0.007598
v -83.670760 99.166903 43.381426
vn 6.015626 -1.813280 0.051317
v -84.449729 96.556737 44.491590
vn 6.014664 -1.816377 0.054764
v -84.339782 96.950793 45.439797
vn 6.036118 -1.744577 -0.002490
v -85.577513 92.842951 47.341801
vn 6.042785 -1.721076 0.012961
v -85.581728 92.820699 48.451778
vn 3.019120 -0.868609 -0.005947
v -85.818950 92.000000 47.891100
vn 6.031099 -1.761607 -0.017262
v -85.551645 92.927577 46.247145
vn 3.013934 -0.886204 -0.021126
v -85.828200 92.000000 45.688900
vn 6.023309 -1.787486 0.053737
v -84.430698 96.547367 41.973108
vn 6.025403 -1.780722 0.043152
v -84.178049 97.416520 42.363638
vn 6.018686 -1.802912 0.047857
v -84.763649 95.585128 46.945075
vn 6.018968 -1.802669 0.015939
v -85.060493 94.605116 46.817191
vn 6.027385 -1.774104 0.026969
v -85.160464 94.267819 47.626928
vn 6.027729 -1.771847 0.073148
v -84.879560 95.267479 48.765526
vn 6.020874 -1.796058 0.039252
v -84.223013 97.287785 43.540755
vn 6.011694 -1.824495 0.095625
v -84.064643 97.976524 48.180801
vn 6.029606 -1.766914 0.004160
v -85.322994 93.718049 46.938185
vn 6.025273 -1.780218 0.072870
v -84.668976 95.944180 47.935138
vn 6.018663 -1.802054 0.077991
v -84.466758 96.596823 47.109194
vn 6.012465 -1.822274 0.089410
v -84.172121 97.575648 47.267590
vn 6.010960 -1.827204 0.089787
v -83.918682 98.421513 47.452149
vn 6.019770 -1.799871 0.032326
v -83.750927 98.898794 45.105080
vn 6.012877 -1.821626 0.071505
v -84.257721 97.249760 46.364167
vn 6.016218 -1.811327 0.049839
v -84.021980 98.008680 45.695745
vn 6.041877 -1.723849 0.045312
v -85.347207 93.663288 48.910926
vn 6.031344 -1.759980 0.060248
v -85.129231 94.402159 48.430820
vn 5.999462 -1.865467 0.068322
v -83.645085 99.390290 49.306044
vn 6.035742 -1.744998 0.054483
v -85.103335 94.523360 49.368798
vn 6.025951 -1.779256 0.000512
v -83.648072 99.236249 44.383268
vn 6.025370 -1.781185 0.023104
v -83.908398 98.356290 43.989147
vn 6.029975 -1.765309 0.032542
v -83.920307 98.293780 42.766833
vn 6.018531 -1.803735 0.043620
v -84.185924 97.429703 44.419860
# 129 vertices, 0 vertices normals

f 37//37 38//38 39//39
f 43//43 44//44 45//45
f 46//46 70//70 47//47
f 57//57 17//17 48//48
f 49//49 50//50 51//51
f 52//52 53//53 124//124
f 58//58 59//59 56//56
f 60//60 61//61 62//62
f 63//63 64//64 62//62
f 22//22 51//51 65//65
f 66//66 10//10 67//67
f 68//68 69//69 61//61
f 71//71 77//77 72//72
f 73//73 74//74 72//72
f 70//70 75//75 76//76
f 78//78 79//79 80//80
f 80//80 60//60 43//43
f 82//82 17//17 83//83
f 84//84 85//85 86//86
f 87//87 88//88 79//79
f 89//89 90//90 27//27
f 83//83 91//91 90//90
f 92//92 93//93 74//74
f 94//94 95//95 96//96
f 44//44 99//99 100//100
f 64//64 112//112 99//99
f 101//101 102//102 103//103
f 122//122 66//66 102//102
f 78//78 104//104 105//105
f 63//63 92//92 106//106
f 84//84 107//107 106//106
f 45//45 108//108 109//109
f 76//76 93//93 69//69
f 112//112 107//107 128//128
f 91//91 85//85 73//73
f 42//42 113//113 53//53
f 59//59 96//96 86//86
f 50//50 71//71 75//75
f 109//109 110//110 114//114
f 108//108 116//116 115//115
f 117//117 118//118 113//113
f 126//126 119//119 36//36
f 120//120 100//100 121//121
f 117//117 116//116 120//120
f 119//119 39//39 121//121
f 114//114 101//101 104//104
f 11//11 37//37 39//39
f 37//37 20//20 38//38
f 39//39 38//38 35//35
f 12//12 40//40 42//42
f 42//42 41//41 32//32
f 29//29 43//43 45//45
f 43//43 13//13 44//44
f 45//45 44//44 31//31
f 15//15 46//46 47//47
f 46//46 14//14 70//70
f 18//18 56//56 48//48
f 22//22 49//49 51//51
f 49//49 19//19 50//50
f 51//51 50//50 33//33
f 52//52 12//12 53//53
f 54//54 55//55 124//124
f 57//57 48//48 56//56
f 58//58 23//23 59//59
f 56//56 59//59 57//57
f 13//13 60//60 62//62
f 60//60 3//3 61//61
f 62//62 61//61 9//9
f 9//9 63//63 62//62
f 63//63 4//4 64//64
f 62//62 64//64 13//13
f 33//33 65//65 51//51
f 65//65 33//33 14//14
f 24//24 66//66 25//25
f 67//67 25//25 66//66
f 3//3 68//68 61//61
f 68//68 47//47 69//69
f 61//61 69//69 9//9
f 70//70 14//14 33//33
f 30//30 71//71 72//72
f 77//77 19//19 26//26
f 72//72 77//77 27//27
f 27//27 73//73 72//72
f 73//73 7//7 74//74
f 72//72 74//74 30//30
f 47//47 70//70 76//76
f 70//70 33//33 75//75
f 76//76 75//75 30//30
f 71//71 19//19 77//77
f 29//29 78//78 80//80
f 78//78 2//2 79//79
f 80//80 79//79 3//3
f 29//29 80//80 43//43
f 80//80 3//3 60//60
f 43//43 60//60 13//13
f 5//5 81//81 125//125
f 81//81 10//10 125//125
f 83//83 17//17 57//57
f 83//83 57//57 16//16
f 28//28 84//84 86//86
f 84//84 7//7 85//85
f 86//86 85//85 16//16
f 2//2 87//87 79//79
f 87//87 15//15 88//88
f 79//79 88//88 3//3
f 26//26 89//89 77//77
f 89//89 82//82 90//90
f 77//77 89//89 27//27
f 82//82 83//83 90//90
f 83//83 16//16 91//91
f 90//90 91//91 27//27
f 7//7 92//92 74//74
f 92//92 9//9 93//93
f 74//74 93//93 30//30
f 23//23 94//94 96//96
f 94//94 1//1 95//95
f 96//96 95//95 28//28
f 1//1 97//97 98//98
f 97//97 11//11 126//126
f 98//98 126//126 127//127
f 31//31 44//44 100//100
f 44//44 13//13 99//99
f 100//100 99//99 129//129
f 13//13 64//64 99//99
f 64//64 4//4 112//112
f 8//8 101//101 103//103
f 101//101 6//6 102//102
f 103//103 102//102 24//24
f 6//6 122//122 102//102
f 122//122 10//10 66//66
f 102//102 66//66 24//24
f 2//2 78//78 105//105
f 78//78 29//29 104//104
f 105//105 104//104 8//8
f 4//4 63//63 106//106
f 63//63 9//9 92//92
f 106//106 92//92 7//7
f 7//7 84//84 106//106
f 84//84 28//28 107//107
f 106//106 107//107 4//4
f 1//1 98//98 95//95
f 29//29 45//45 109//109
f 45//45 31//31 108//108
f 109//109 108//108 34//34
f 47//47 76//76 69//69
f 76//76 30//30 93//93
f 69//69 93//93 9//9
f 125//125 122//122 123//123
f 112//112 4//4 107//107
f 27//27 91//91 73//73
f 91//91 16//16 85//85
f 73//73 85//85 7//7
f 12//12 42//42 53//53
f 42//42 32//32 113//113
f 53//53 113//113 54//54
f 16//16 59//59 86//86
f 59//59 23//23 96//96
f 86//86 96//96 28//28
f 33//33 50//50 75//75
f 50//50 19//19 71//71
f 75//75 71//71 30//30
f 29//29 109//109 114//114
f 109//109 34//34 110//110
f 114//114 110//110 6//6
f 5//5 111//111 41//41
f 41//41 115//115 32//32
f 34//34 108//108 115//115
f 108//108 31//31 116//116
f 115//115 116//116 32//32
f 32//32 117//117 113//113
f 117//117 35//35 118//118
f 113//113 118//118 54//54
f 3//3 88//88 68//68
f 68//68 88//88 47//47
f 35//35 38//38 118//118
f 118//118 38//38 54//54
f 35//35 120//120 121//121
f 120//120 31//31 100//100
f 121//121 100//100 36//36
f 35//35 117//117 120//120
f 117//117 32//32 116//116
f 120//120 116//116 31//31
f 121//121 39//39 35//35
f 29//29 114//114 104//104
f 114//114 6//6 101//101
f 104//104 101//101 8//8
f 125//125 123//123 111//111
f 111//111 5//5 125//125
f 125//125 10//10 122//122
f 123//123 6//6 110//110
f 34//34 123//123 110//110
f 56//56 18//18 58//58
f 123//123 122//122 6//6
f 123//123 34//34 111//111
f 40//40 41//41 42//42
f 40//40 5//5 41//41
f 57//57 59//59 16//16
f 111//111 34//34 115//115
f 38//38 20//20 54//54
f 54//54 20//20 55//55
f 41//41 111//111 115//115
f 124//124 53//53 54//54
f 124//124 21//21 52//52
f 124//124 55//55 21//21
f 97//97 126//126 98//98
f 119//119 126//126 11//11
f 119//119 11//11 39//39
f 98//98 127//127 128//128
f 112//112 127//127 129//129
f 128//128 127//127 112//112
f 36//36 127//127 126//126
f 36//36 119//119 121//121
f 98//98 128//128 95//95
f 100//100 129//129 36//36
f 99//99 112//112 129//129
f 95//95 128//128 28//28
f 128//128 107//107 28//28
f 88//88 15//15 47//47
f 129//129 127//127 36//36
# 219 faces, 0 coords texture

# End of File
