####
#
# OBJ File Generated by Meshlab
#
####
# Object 1069_C174_M_1.obj
#
# Vertices: 161
# Faces: 273
#
####
vn -5.707443 -2.626918 -0.045077
v 99.817682 69.618782 49.153825
vn -5.756658 -2.515930 -0.089487
v 97.913586 73.985187 44.368114
vn -5.751170 -2.527837 -0.102924
v 97.496414 74.869000 46.114835
vn -5.708617 -2.619636 -0.111944
v 100.476063 68.245020 44.513967
vn -2.902530 -1.221503 -0.043197
v 97.025200 76.206400 40.444900
vn -2.891861 -1.207613 -0.046202
v 97.013700 76.186500 42.415000
vn -5.771068 -2.482479 -0.085749
v 97.640522 74.734782 40.870194
vn -5.730547 -2.575786 -0.065268
v 99.122403 71.238947 45.870959
vn -5.735105 -2.564581 -0.079900
v 98.742414 72.106874 44.290934
vn -5.725407 -2.585990 -0.098245
v 99.639765 70.147280 44.057451
vn -5.723147 -2.591128 -0.089477
v 99.229418 71.094717 42.361076
vn -2.855306 -1.310158 -0.018399
v 99.653500 69.966000 50.000000
vn -2.866574 -1.283642 -0.046748
v 98.542000 72.382900 50.000000
vn -5.678063 -2.688928 -0.086386
v 100.373517 68.740535 38.949508
vn -2.842919 -1.336597 -0.036360
v 99.820300 69.938700 38.000000
vn -5.707765 -2.625453 -0.070751
v 99.573914 70.444983 38.790228
vn -2.848825 -1.301991 -0.012679
v 100.997000 67.085800 46.233600
vn -2.840481 -1.343568 -0.050002
v 101.075000 67.221300 40.129500
vn -2.889115 -1.233686 -0.023397
v 97.908200 74.197800 38.000000
vn -2.835154 -1.352708 -0.046021
v 100.877000 67.712800 38.000000
vn -2.896128 -1.215333 -0.058023
v 97.106800 76.136000 38.000000
vn -2.893770 -1.213835 -0.061489
v 97.052900 76.254400 38.193100
vn -2.847621 -1.324535 -0.056348
v 100.754000 67.550500 50.000000
vn -2.861722 -1.315012 -0.021751
v 100.996000 67.084400 48.584600
vn -2.854711 -1.311456 -0.020443
v 99.710400 69.842100 50.000000
vn -1.408864 -0.675882 -0.018310
v 100.986000 67.066900 50.000000
vn -2.870357 -1.276757 -0.030175
v 98.653400 72.505100 38.000000
vn -5.731430 -2.573597 -0.068311
v 99.040829 71.584895 40.176204
vn -5.762566 -2.502118 -0.082260
v 97.767208 74.374145 42.724914
vn -2.855008 -1.310613 -0.036901
v 99.581500 70.450700 38.000000
vn -2.874281 -1.267450 -0.044087
v 98.302100 72.930600 50.000000
vn -2.882080 -1.273256 -0.052360
v 96.949000 76.074500 47.005100
vn -2.828588 -1.335527 -0.066411
v 101.010000 67.108800 44.622900
vn -1.425229 -0.686140 -0.025848
v 101.096000 67.257900 38.000000
vn -2.843697 -1.336305 -0.056972
v 101.071000 67.214200 40.511000
vn -2.846495 -1.347252 -0.086379
v 101.042000 67.164100 42.986300
vn -2.885659 -1.228539 -0.060196
v 96.989800 76.145100 44.425800
vn -5.700590 -2.638732 -0.132878
v 100.250104 68.875444 42.495156
vn -1.433392 -0.612460 -0.024570
v 97.054800 76.257700 38.000000
vn -2.880900 -1.251958 -0.028224
v 97.480500 74.789500 50.000000
vn -2.882279 -1.273214 -0.023617
v 96.942800 76.063800 47.820000
vn -1.447444 -0.608602 0.001261
v 96.943900 76.065700 50.000000
vn -5.720851 -2.597245 -0.066081
v 99.508758 70.338946 47.524049
vn -5.738918 -2.556954 -0.069769
v 98.295615 73.082114 46.033359
vn -5.713886 -2.613099 -0.032462
v 100.340932 68.527629 47.114826
vn -5.752537 -2.526396 -0.062174
v 98.212900 73.473523 39.521798
vn -5.695155 -2.652596 -0.082188
v 99.946587 69.595254 40.723439
vn -5.731015 -2.574072 -0.087999
v 98.682624 72.154530 47.765771
vn -5.744345 -2.544437 -0.081049
v 98.404126 72.992083 41.372996
vn -5.740666 -2.552726 -0.082071
v 97.875359 73.961561 47.937289
vn -5.726255 -2.585383 -0.054431
v 99.877953 69.554701 45.604994
vn -2.895380 -1.218815 -0.029453
v 97.019450 76.196450 41.429950
vn -5.788723 -2.441972 -0.074995
v 97.313758 75.515635 40.681071
vn -5.795192 -2.426603 -0.073733
v 97.343437 75.421630 41.637195
vn -5.748575 -2.534628 -0.084610
v 98.322547 73.057393 44.347714
vn -5.741846 -2.550864 -0.043672
v 98.514925 72.601346 45.175416
vn -5.743677 -2.546387 -0.064070
v 98.107737 73.526734 45.197245
vn -5.682533 -2.679735 -0.078582
v 100.017334 69.497923 38.858934
vn -5.770083 -2.484189 -0.092556
v 97.689587 74.585745 41.808034
vn -5.674155 -2.697051 -0.090921
v 100.681217 68.103072 38.691868
vn -2.838119 -1.346382 -0.044022
v 100.348650 68.825750 38.000000
vn -5.793831 -2.428388 -0.112339
v 97.364425 75.472521 38.867685
vn -5.790840 -2.435604 -0.109034
v 97.269662 75.651072 39.842506
vn -2.899119 -1.208713 -0.061053
v 97.039050 76.230400 39.319000
vn -2.856745 -1.306232 -0.048516
v 100.232200 68.696300 50.000000
vn -2.848275 -1.324559 -0.048749
v 100.991000 67.075650 49.292300
vn -5.705270 -2.630665 -0.080048
v 100.584314 67.967123 49.045920
vn -2.875141 -1.265870 -0.027206
v 98.280800 73.351450 38.000000
vn -5.748923 -2.534883 -0.051450
v 98.454575 72.938574 38.849508
vn -5.759043 -2.511848 -0.042667
v 98.089080 73.771827 38.698225
vn -2.862797 -1.293303 -0.036918
v 99.117450 71.477900 38.000000
vn -5.725393 -2.587006 -0.075404
v 99.153345 71.382908 38.544243
vn -5.719919 -2.599352 -0.062314
v 99.315780 70.994496 39.516018
vn -5.736224 -2.563062 -0.063060
v 98.870258 71.991814 39.135082
vn -2.844057 -1.333859 -0.042001
v 101.003500 67.097300 45.428250
vn -5.704531 -2.632879 -0.046462
v 100.714086 67.714467 45.425753
vn -5.678695 -2.687533 -0.088774
v 100.677807 68.075394 39.680045
vn -2.836485 -1.349679 -0.048156
v 101.085500 67.239600 39.064750
vn -5.740488 -2.552637 -0.095434
v 99.740761 69.885957 44.859694
vn -5.737677 -2.559533 -0.074366
v 99.506704 70.379698 45.728446
vn -5.727162 -2.582661 -0.078550
v 99.365689 70.728303 44.928004
vn -5.734307 -2.567380 -0.060546
v 98.709949 72.157746 45.974390
vn -5.728764 -2.579226 -0.083422
v 98.900021 71.702720 46.808696
vn -5.737169 -2.560328 -0.089400
v 98.487075 72.623066 46.889175
vn -2.898328 -1.210716 -0.058874
v 97.001750 76.165800 43.420400
vn -5.785652 -2.448402 -0.092774
v 97.317408 75.397999 43.678146
vn -5.777053 -2.468332 -0.100655
v 97.492503 74.969373 44.400753
vn -5.778050 -2.466127 -0.099648
v 97.565260 74.948322 39.934547
vn -5.747207 -2.537424 -0.096783
v 98.048672 73.715618 43.449573
vn -5.744916 -2.542000 -0.111697
v 98.520070 72.656499 43.340353
vn -5.744954 -2.542242 -0.103237
v 98.811276 72.028595 42.654087
vn -5.731076 -2.573290 -0.096648
v 98.992525 71.584479 43.373005
vn -2.834989 -1.349900 -0.101044
v 101.026000 67.136450 43.804600
vn -5.674552 -2.690372 -0.199102
v 100.764811 67.694931 43.671729
vn -5.743942 -2.545480 -0.077703
v 97.680184 74.370515 48.957133
vn -5.762876 -2.502351 -0.049711
v 97.311743 75.199305 48.979363
vn -5.751027 -2.529815 -0.054122
v 97.212549 75.447474 48.130935
vn -5.746640 -2.539711 -0.066432
v 98.325705 73.193864 40.446323
vn -5.745414 -2.541875 -0.084449
v 98.013677 73.884007 41.088087
vn -5.754792 -2.520665 -0.080496
v 97.933966 74.088450 40.168906
vn -5.743915 -2.545301 -0.085115
v 98.089276 73.446651 48.909017
vn -2.873181 -1.269972 -0.040078
v 97.891300 73.860050 50.000000
vn -5.735797 -2.563180 -0.093697
v 98.495557 72.532730 48.865168
vn -5.719042 -2.600781 -0.081489
v 98.876194 71.680661 49.119013
vn -5.721208 -2.597316 -0.011536
v 100.523752 68.129019 46.297862
vn -5.715628 -2.609440 -0.022289
v 100.095227 69.073115 46.359233
vn -5.698370 -2.645991 -0.063160
v 99.764786 70.007493 39.773958
vn -5.710039 -2.620714 -0.071925
v 99.488403 70.597762 40.539599
vn -5.745791 -2.541208 -0.080632
v 98.805004 72.072386 41.795110
vn -5.741762 -2.549837 -0.093982
v 98.459372 72.835187 42.297516
vn -2.883370 -1.244768 -0.079569
v 96.969400 76.109800 45.715450
vn -5.770977 -2.480522 -0.144968
v 97.298940 75.371133 45.328323
vn -5.758829 -2.508964 -0.135423
v 97.194202 75.554492 46.257522
vn -5.778470 -2.466080 -0.072352
v 97.782625 74.478864 38.972454
vn -2.899882 -1.207582 -0.044643
v 97.507500 75.166900 38.000000
vn -2.894577 -1.221061 -0.005151
v 97.212200 75.427600 50.000000
vn -2.888601 -1.235106 -0.007584
v 96.943350 76.064750 48.910000
vn -5.757034 -2.514065 -0.104050
v 97.694787 74.450750 45.217395
vn -5.738962 -2.556625 -0.079696
v 97.676118 74.438116 46.992110
vn -5.742975 -2.547433 -0.084452
v 97.273576 75.340604 47.110924
vn -5.712834 -2.615173 -0.050121
v 99.920909 69.440656 47.317410
vn -5.723357 -2.592039 -0.041582
v 99.691991 69.948868 46.538173
vn -5.714056 -2.612104 -0.069874
v 99.693933 69.910999 48.307642
vn -5.705802 -2.630335 -0.055516
v 100.147594 68.923123 48.163721
vn -5.736505 -2.562185 -0.078220
v 97.889353 73.990840 46.058936
vn -5.723424 -2.591885 -0.045782
v 98.937654 71.659889 45.084473
vn -5.718256 -2.602603 -0.078420
v 99.259709 70.857168 48.438790
vn -5.713320 -2.613994 -0.056950
v 99.344011 70.652797 49.207847
vn -5.709108 -2.623530 -0.030012
v 100.614291 67.922703 47.858053
vn -5.746708 -2.539757 -0.057803
v 98.618771 72.547821 39.813524
vn -5.746328 -2.540321 -0.069804
v 98.733094 72.264241 40.794977
vn -5.726069 -2.584674 -0.084960
v 99.154117 71.298018 41.231932
vn -5.681848 -2.681288 -0.075582
v 100.211824 69.058994 39.809962
vn -5.737903 -2.558849 -0.084616
v 98.078655 73.538034 46.959931
vn -5.739834 -2.554324 -0.090194
v 98.280790 73.053111 47.869495
vn -5.684301 -2.675315 -0.096502
v 100.412566 68.610312 40.635648
vn -5.695305 -2.651537 -0.103350
v 100.103698 69.225426 41.601293
vn -5.740541 -2.552553 -0.095129
v 98.146542 73.519154 42.817166
vn -2.843399 -1.334564 -0.060233
v 101.056500 67.189150 41.748650
vn -5.682594 -2.675733 -0.159475
v 100.680296 67.949567 42.660004
vn -5.736760 -2.560322 -0.104254
v 100.066509 69.165161 44.518396
vn -5.729955 -2.577125 -0.063331
v 99.309167 70.802933 46.705256
vn -5.722567 -2.593013 -0.082819
v 99.094718 71.248782 47.655250
vn -5.741175 -2.551046 -0.097049
v 98.068614 73.723483 41.991465
vn -2.859568 -1.300947 -0.003586
v 100.996500 67.085100 47.409100
vn -5.714911 -2.610298 -0.066795
v 99.192634 71.123354 44.160281
vn -2.855673 -1.309132 -0.030010
v 99.097750 71.174450 50.000000
vn -5.710722 -2.618997 -0.082257
v 99.462949 70.557509 43.255920
vn -5.705843 -2.629265 -0.093483
v 99.771812 69.915295 42.435437
vn -5.721248 -2.593995 -0.121831
v 99.940414 69.519282 43.282226
vn -5.707909 -2.619346 -0.177494
v 100.362714 68.561980 43.457915
vn -5.705749 -2.629499 -0.092598
v 99.619152 70.278719 41.542325
vn -5.685040 -2.673386 -0.107459
v 100.802241 67.777357 40.716722
vn -5.724262 -2.590399 -0.026821
v 100.281367 68.666716 45.509800
vn -5.720196 -2.599550 -0.009355
v 100.703095 67.732237 46.991803
vn -5.741520 -2.551002 -0.075828
v 97.504190 74.796355 47.947892
vn -5.704310 -2.633442 -0.060990
v 100.169371 68.859147 49.239519
vn -5.686884 -2.669030 -0.118512
v 100.561808 68.249107 41.617101
vn -5.793005 -2.431016 -0.097263
v 97.409731 75.219097 42.792226
vn -5.724093 -2.589474 -0.088178
v 98.871736 71.714763 48.399424
vn -5.772089 -2.480703 -0.080171
v 97.656106 74.611349 43.456776
# 161 vertices, 0 vertices normals

f 52//52 53//53 54//54
f 55//55 56//56 57//57
f 54//54 59//59 159//159
f 14//14 61//61 60//60
f 63//63 64//64 62//62
f 12//12 128//128 1//1
f 67//67 24//24 66//66
f 68//68 69//69 70//70
f 27//27 71//71 72//72
f 73//73 74//74 72//72
f 13//13 31//31 103//103
f 75//75 17//17 76//76
f 77//77 60//60 78//78
f 79//79 80//80 81//81
f 82//82 83//83 84//84
f 85//85 159//159 86//86
f 161//161 87//87 86//86
f 63//63 88//88 53//53
f 89//89 90//90 55//55
f 91//91 92//92 90//90
f 21//21 22//22 39//39
f 36//36 93//93 94//94
f 156//156 96//96 97//97
f 98//98 99//99 100//100
f 95//95 101//101 102//102
f 30//30 15//15 16//16
f 107//107 108//108 73//73
f 109//109 91//91 110//110
f 111//111 112//112 113//113
f 114//114 62//62 115//115
f 96//96 116//116 117//117
f 87//87 118//118 112//112
f 119//119 156//156 120//120
f 121//121 122//122 106//106
f 123//123 121//121 124//124
f 118//118 57//57 125//125
f 82//82 56//56 126//126
f 128//128 127//127 123//123
f 157//157 129//129 67//67
f 69//69 74//74 130//130
f 131//131 132//132 109//109
f 107//107 58//58 133//133
f 125//125 134//134 119//119
f 135//135 134//134 84//84
f 130//130 131//131 98//98
f 114//114 100//100 88//88
f 83//83 142//142 143//143
f 127//127 104//104 160//160
f 99//99 144//144 59//59
f 138//138 144//144 110//110
f 3//3 120//120 113//113
f 135//135 103//103 101//101
f 45//45 155//155 129//129
f 146//146 81//81 126//126
f 122//122 142//142 80//80
f 148//148 149//149 150//150
f 151//151 140//140 94//94
f 150//150 151//151 141//141
f 148//148 146//146 92//92
f 137//137 149//149 152//152
f 108//108 152//152 132//132
f 6//6 52//52 54//54
f 52//52 5//5 53//53
f 54//54 53//53 7//7
f 2//2 55//55 57//57
f 55//55 9//9 56//56
f 57//57 56//56 44//44
f 15//15 58//58 16//16
f 6//6 54//54 159//159
f 54//54 7//7 59//59
f 159//159 59//59 29//29
f 78//78 20//20 34//34
f 14//14 58//58 61//61
f 60//60 61//61 20//20
f 21//21 62//62 22//22
f 63//63 5//5 64//64
f 62//62 64//64 22//22
f 157//157 67//67 65//65
f 23//23 67//67 66//66
f 66//66 26//26 23//23
f 25//25 157//157 65//65
f 19//19 68//68 70//70
f 68//68 27//27 69//69
f 70//70 69//69 46//46
f 71//71 30//30 72//72
f 73//73 28//28 74//74
f 33//33 76//76 4//4
f 76//76 33//33 75//75
f 18//18 77//77 78//78
f 77//77 14//14 60//60
f 78//78 60//60 20//20
f 10//10 79//79 81//81
f 79//79 51//51 80//80
f 81//81 80//80 8//8
f 44//44 82//82 84//84
f 82//82 8//8 83//83
f 84//84 83//83 48//48
f 37//37 85//85 86//86
f 85//85 6//6 159//159
f 161//161 2//2 87//87
f 5//5 63//63 53//53
f 63//63 62//62 88//88
f 53//53 88//88 7//7
f 2//2 89//89 55//55
f 55//55 90//90 9//9
f 91//91 11//11 92//92
f 90//90 92//92 9//9
f 93//93 33//33 94//94
f 4//4 94//94 33//33
f 50//50 95//95 156//156
f 95//95 40//40 96//96
f 46//46 98//98 100//100
f 98//98 49//49 99//99
f 100//100 99//99 7//7
f 40//40 95//95 102//102
f 95//95 50//50 101//101
f 102//102 101//101 31//31
f 103//103 48//48 160//160
f 76//76 105//105 154//154
f 154//154 105//105 106//106
f 16//16 107//107 73//73
f 107//107 47//47 108//108
f 73//73 108//108 28//28
f 49//49 109//109 110//110
f 109//109 11//11 91//91
f 110//110 91//91 90//90
f 32//32 111//111 113//113
f 111//111 37//37 112//112
f 113//113 112//112 3//3
f 19//19 114//114 115//115
f 115//115 62//62 21//21
f 41//41 97//97 117//117
f 96//96 40//40 116//116
f 117//117 116//116 42//42
f 37//37 87//87 112//112
f 87//87 2//2 118//118
f 112//112 118//118 3//3
f 3//3 119//119 120//120
f 120//120 97//97 41//41
f 31//31 101//101 103//103
f 45//45 121//121 106//106
f 121//121 43//43 122//122
f 106//106 122//122 51//51
f 1//1 123//123 124//124
f 123//123 43//43 121//121
f 124//124 121//121 45//45
f 3//3 118//118 125//125
f 118//118 2//2 57//57
f 125//125 57//57 44//44
f 8//8 82//82 126//126
f 82//82 44//44 56//56
f 126//126 56//56 9//9
f 123//123 127//127 43//43
f 25//25 12//12 1//1
f 1//1 124//124 157//157
f 124//124 45//45 129//129
f 67//67 129//129 24//24
f 46//46 69//69 130//130
f 69//69 27//27 74//74
f 130//130 74//74 28//28
f 19//19 70//70 114//114
f 70//70 46//46 114//114
f 49//49 131//131 109//109
f 131//131 28//28 132//132
f 109//109 132//132 11//11
f 47//47 133//133 136//136
f 133//133 14//14 77//77
f 153//153 77//77 18//18
f 47//47 107//107 133//133
f 107//107 16//16 58//58
f 133//133 58//58 14//14
f 3//3 125//125 119//119
f 125//125 44//44 134//134
f 119//119 134//134 50//50
f 48//48 135//135 84//84
f 135//135 50//50 134//134
f 84//84 134//134 44//44
f 18//18 35//35 153//153
f 38//38 137//137 158//158
f 137//137 47//47 136//136
f 90//90 89//89 138//138
f 89//89 2//2 161//161
f 35//35 139//139 153//153
f 139//139 36//36 140//140
f 51//51 79//79 141//141
f 79//79 10//10 141//141
f 46//46 130//130 98//98
f 130//130 28//28 131//131
f 98//98 131//131 49//49
f 62//62 114//114 88//88
f 114//114 46//46 100//100
f 88//88 100//100 7//7
f 48//48 83//83 143//143
f 83//83 8//8 142//142
f 143//143 142//142 43//43
f 43//43 127//127 143//143
f 7//7 99//99 59//59
f 99//99 49//49 144//144
f 59//59 144//144 29//29
f 90//90 138//138 110//110
f 138//138 29//29 144//144
f 110//110 144//144 49//49
f 41//41 32//32 120//120
f 113//113 120//120 32//32
f 50//50 135//135 101//101
f 135//135 48//48 103//103
f 105//105 17//17 155//155
f 129//129 145//145 24//24
f 9//9 146//146 126//126
f 146//146 10//10 81//81
f 126//126 81//81 8//8
f 51//51 122//122 80//80
f 122//122 43//43 142//142
f 80//80 142//142 8//8
f 106//106 51//51 154//154
f 141//141 4//4 154//154
f 105//105 76//76 17//17
f 128//128 12//12 147//147
f 10//10 148//148 150//150
f 148//148 11//11 149//149
f 150//150 149//149 38//38
f 4//4 151//151 94//94
f 151//151 38//38 140//140
f 94//94 140//140 36//36
f 10//10 150//150 141//141
f 150//150 38//38 151//151
f 141//141 151//151 4//4
f 11//11 148//148 92//92
f 148//148 10//10 146//146
f 92//92 146//146 9//9
f 47//47 137//137 152//152
f 137//137 38//38 149//149
f 152//152 149//149 11//11
f 28//28 108//108 132//132
f 108//108 47//47 152//152
f 132//132 152//152 11//11
f 158//158 136//136 153//153
f 154//154 4//4 76//76
f 72//72 74//74 27//27
f 105//105 45//45 106//106
f 1//1 128//128 123//123
f 155//155 145//145 129//129
f 58//58 15//15 61//61
f 16//16 72//72 30//30
f 16//16 73//73 72//72
f 141//141 154//154 51//51
f 97//97 96//96 117//117
f 157//157 124//124 129//129
f 45//45 105//105 155//155
f 155//155 17//17 145//145
f 156//156 97//97 120//120
f 67//67 23//23 65//65
f 156//156 95//95 96//96
f 119//119 50//50 156//156
f 153//153 139//139 158//158
f 136//136 133//133 77//77
f 153//153 136//136 77//77
f 1//1 157//157 25//25
f 158//158 137//137 136//136
f 104//104 127//127 128//128
f 139//139 140//140 158//158
f 86//86 87//87 37//37
f 158//158 140//140 38//38
f 104//104 147//147 13//13
f 103//103 104//104 13//13
f 159//159 29//29 161//161
f 89//89 161//161 29//29
f 127//127 160//160 143//143
f 103//103 160//160 104//104
f 138//138 89//89 29//29
f 143//143 160//160 48//48
f 104//104 128//128 147//147
f 159//159 161//161 86//86
# 273 faces, 0 coords texture

# End of File
