####
#
# OBJ File Generated by Meshlab
#
####
# Object 106_C49_M_7.obj
#
# Vertices: 204
# Faces: 357
#
####
vn -3.413910 -5.274583 -0.033342
v 27.598919 37.839951 44.124626
vn -3.507628 -5.212372 -0.036116
v 29.189041 36.792006 44.931936
vn -4.046230 -4.805554 -0.080942
v 35.826115 31.756117 42.708486
vn -2.112655 -2.334737 -0.011477
v 36.908800 30.718000 46.876000
vn -4.128196 -4.735286 -0.055927
v 35.857447 31.667726 46.899659
vn -4.087277 -4.771408 -0.024888
v 35.545379 31.914641 49.087766
vn -3.863218 -4.952528 -0.125968
v 32.965113 34.019568 48.468424
vn -3.747565 -5.042781 -0.047630
v 32.092926 34.741950 44.058049
vn -2.095897 -2.363667 -0.083879
v 36.991600 30.718000 43.183900
vn -1.998994 -2.393126 -0.062158
v 37.106400 30.718000 41.179200
vn -1.669276 -2.639875 -0.041969
v 26.265800 38.718000 40.494000
vn -1.677722 -2.663266 -0.048460
v 26.315500 38.718000 38.953600
vn -3.410639 -5.275581 -0.093352
v 27.719850 37.811699 40.015684
vn -3.547077 -5.184097 -0.084735
v 29.475760 36.582803 47.141448
vn -3.531547 -5.195377 -0.080231
v 29.161903 36.873601 39.135108
vn -3.515845 -5.206930 -0.060364
v 29.424111 36.653033 41.423042
vn -1.709181 -2.652368 -0.022815
v 26.236700 38.718000 43.745600
vn -3.395379 -5.285559 -0.060984
v 27.705640 37.762673 46.231291
vn -3.698719 -5.076937 -0.026854
v 31.361810 35.316959 41.920186
vn -2.116849 -2.343407 -0.040801
v 36.924300 30.718000 45.274400
vn -4.010262 -4.835105 -0.067841
v 34.471970 32.868316 45.708832
vn -3.924640 -4.904431 -0.121826
v 34.385493 32.995675 39.950828
vn -1.691529 -2.640401 -0.014177
v 26.240900 38.718000 42.742700
vn -1.042347 -1.159349 -0.020333
v 37.167000 30.718000 38.000000
vn -2.040175 -2.385480 -0.073096
v 36.417900 31.394500 38.000000
vn -1.682789 -2.665953 -0.035275
v 26.202500 38.718000 45.396500
vn -1.649007 -2.665054 -0.047643
v 26.111700 38.717900 48.061100
vn -3.827660 -4.978560 -0.080959
v 32.828299 34.187425 46.255878
vn -3.651292 -5.112560 -0.059739
v 30.924695 35.580696 45.608465
vn -3.589891 -5.155460 -0.052164
v 30.391958 35.985432 43.486126
vn -1.851480 -2.537596 -0.009830
v 31.112200 35.502700 38.000000
vn -2.070474 -2.351930 -0.016411
v 36.908700 30.718000 49.214700
vn -1.793450 -2.579073 -0.052962
v 29.920700 36.207500 50.000000
vn -3.419632 -5.270690 -0.053377
v 27.690876 37.794569 42.016256
vn -1.759207 -2.600789 -0.051088
v 28.966000 37.029200 38.000000
vn -1.947256 -2.464723 -0.053241
v 34.213900 32.989900 50.000000
vn -3.474880 -5.234652 -0.030277
v 28.888390 36.999954 43.202360
vn -1.876017 -2.519420 -0.067656
v 31.927600 34.772000 50.000000
vn -1.747760 -2.610294 -0.047896
v 28.949900 36.869400 50.000000
vn -1.693670 -2.645060 -0.047948
v 27.296900 38.117000 38.000000
vn -1.685536 -2.650870 -0.050604
v 27.412500 37.877700 50.000000
vn -1.951995 -2.457847 -0.083403
v 34.804600 32.724600 38.000000
vn -2.009140 -2.402196 -0.066614
v 37.131200 30.718000 40.283300
vn -0.846655 -1.347628 -0.021822
v 26.339000 38.718000 38.000000
vn -0.818465 -1.315115 -0.020785
v 26.062300 38.718000 50.000000
vn -2.000239 -2.421084 0.000480
v 35.079900 32.314000 50.000000
vn -1.040947 -1.187155 -0.011318
v 36.900200 30.718000 50.000000
vn -1.895496 -2.505191 -0.022629
v 33.001200 34.085800 38.000000
vn -1.932757 -2.474843 -0.093797
v 32.472700 34.345700 50.000000
vn -3.984593 -4.857228 -0.082921
v 34.305684 32.952027 47.616921
vn -3.483821 -5.227418 -0.121743
v 28.717197 37.041154 49.057471
vn -3.988175 -4.854838 -0.054561
v 34.534225 32.824459 42.025780
vn -3.996790 -4.844793 -0.179025
v 35.872806 31.803252 39.087602
vn -3.998465 -4.845083 -0.119480
v 35.704775 31.879599 40.889110
vn -3.688195 -5.085417 -0.101136
v 31.388405 35.213886 47.721587
vn -3.640734 -5.119826 -0.027511
v 30.722644 35.777725 40.158482
vn -3.779253 -5.019470 -0.012103
v 32.199021 34.681499 40.012308
vn -4.002227 -4.843549 -0.014899
v 34.420906 32.907749 43.839777
vn -4.122784 -4.739918 -0.069313
v 35.748728 31.792034 44.657918
vn -3.623275 -5.131545 -0.122082
v 30.384637 35.900967 49.093122
vn -4.143930 -4.719943 -0.157924
v 36.423551 31.227929 42.959869
vn -4.183537 -4.686388 -0.115857
v 36.373523 31.251003 43.955339
vn -4.087503 -4.770140 -0.077189
v 35.787158 31.776334 43.665046
vn -2.065955 -2.363903 -0.115736
v 37.049000 30.718000 42.181550
vn -4.059795 -4.791811 -0.141601
v 36.458154 31.243464 41.979220
vn -3.410927 -5.275787 -0.082540
v 27.590333 37.910069 39.047660
vn -3.353507 -5.312431 -0.102116
v 26.970319 38.295485 39.445037
vn -3.351223 -5.313973 -0.096285
v 26.888626 38.362034 38.658356
vn -3.347867 -5.316024 -0.100262
v 26.997181 38.260994 40.317710
vn -1.674128 -2.657818 -0.053862
v 26.290650 38.718000 39.723800
vn -3.464342 -5.240864 -0.095964
v 28.605455 37.152500 47.516611
vn -3.463302 -5.242178 -0.057200
v 28.549296 37.201542 46.618010
vn -3.474460 -5.234141 -0.101382
v 28.527768 37.263156 40.678056
vn -3.463585 -5.241549 -0.087773
v 28.441250 37.341831 39.626818
vn -3.524712 -5.200120 -0.095526
v 29.303033 36.758390 40.227767
vn -3.373413 -5.300589 -0.042705
v 26.895212 38.283016 44.779559
vn -3.405664 -5.279792 -0.021714
v 27.643630 37.807429 45.166309
vn -3.340472 -5.320918 -0.072029
v 26.923113 38.259485 45.859594
vn -4.212750 -4.661597 -0.018500
v 36.531880 31.058607 46.969674
vn -4.216773 -4.657805 -0.045403
v 36.390267 31.194750 46.014332
vn -2.108053 -2.329231 -0.020074
v 36.916550 30.718000 46.075200
vn -1.694231 -2.645531 -0.018760
v 26.253350 38.718000 41.618350
vn -3.369199 -5.302982 -0.063922
v 26.982079 38.253592 41.296971
vn -3.387602 -5.291639 -0.033359
v 26.942869 38.270938 42.391857
vn -3.801982 -5.002223 -0.024911
v 32.218505 34.664812 42.209842
vn -3.820592 -4.987757 -0.048097
v 32.602572 34.364407 43.240303
vn -3.743702 -5.045027 -0.075696
v 31.739831 35.020729 42.974556
vn -3.693437 -5.082373 -0.075241
v 31.241297 35.366571 43.762740
vn -3.624974 -5.130846 -0.054434
v 30.869020 35.658757 42.692371
vn -3.480601 -5.230821 -0.024550
v 29.038472 36.896598 43.985954
vn -3.449158 -5.251769 -0.024038
v 28.366570 37.333919 44.555565
vn -3.447066 -5.253087 -0.034940
v 28.299525 37.383639 43.605685
vn -2.089686 -2.345580 -0.032764
v 37.149100 30.718000 39.141650
vn -4.090937 -4.765456 -0.129340
v 36.687692 31.129685 39.097669
vn -1.659461 -2.666965 -0.055612
v 26.157100 38.717950 46.728800
vn -3.317964 -5.334682 -0.103043
v 27.033087 38.167618 46.966858
vn -3.438777 -5.257018 -0.120295
v 28.217056 37.393645 48.243971
vn -3.509462 -5.209711 -0.137089
v 29.124758 36.792916 48.156421
vn -3.310178 -5.339576 -0.099951
v 26.608793 38.413429 47.887343
vn -3.698202 -5.079200 -0.056335
v 31.832063 34.916748 45.933449
vn -3.702575 -5.076161 -0.043959
v 31.545988 35.134018 44.849248
vn -3.754125 -5.037840 -0.018499
v 32.419148 34.495129 45.129752
vn -4.180302 -4.690325 -0.033008
v 36.308502 31.260433 47.829844
vn -2.099610 -2.336909 -0.007533
v 36.908750 30.718000 48.045350
vn -4.062051 -4.792162 -0.106071
v 35.131516 32.297511 46.273467
vn -4.028863 -4.820356 -0.084596
v 35.065816 32.322751 47.281030
vn -4.000750 -4.842582 -0.137346
v 34.395783 32.905027 46.642857
vn -3.637995 -5.121745 -0.065421
v 30.683870 35.765940 44.534525
vn -3.626541 -5.130732 -0.041473
v 29.764342 36.454223 38.644970
vn -1.818742 -2.561482 -0.024284
v 30.039100 36.265950 38.000000
vn -2.099138 -2.336377 -0.067578
v 36.957950 30.718000 44.229150
vn -4.210059 -4.662954 -0.093190
v 36.350561 31.241757 44.988251
vn -3.392302 -5.288570 -0.039499
v 26.830029 38.336633 43.632457
vn -3.418212 -5.271792 -0.034536
v 27.618904 37.834306 43.068158
vn -4.016177 -4.831917 0.004962
v 34.467739 32.870520 44.787632
vn -4.029460 -4.820725 -0.032390
v 35.113305 32.327461 44.259079
vn -4.064617 -4.791048 -0.033152
v 35.119434 32.322827 45.246405
vn -3.535953 -5.193632 -0.021938
v 29.972817 36.275203 42.483733
vn -3.511503 -5.210257 -0.029702
v 29.569936 36.540466 43.302876
vn -3.486420 -5.226975 -0.031212
v 29.126311 36.846103 42.442533
vn -3.544728 -5.187272 -0.055239
v 29.837876 36.356042 44.243991
vn -3.718466 -5.063426 -0.105238
v 32.047186 34.745097 47.013689
vn -3.666528 -5.101684 -0.080844
v 31.150965 35.401427 46.674362
vn -3.414905 -5.272793 -0.094129
v 27.740124 37.780649 41.002875
vn -4.078387 -4.778762 -0.041879
v 35.697225 31.793918 48.021051
vn -3.399993 -5.282144 -0.109873
v 27.744899 37.682938 49.081634
vn -1.725720 -2.624474 -0.060190
v 28.181200 37.373550 50.000000
vn -3.443845 -5.254311 -0.097254
v 28.267010 37.469536 38.631627
vn -1.714979 -2.631432 -0.063390
v 28.131450 37.573100 38.000000
vn -1.657809 -2.668210 -0.043906
v 26.087000 38.717950 49.030550
vn -3.320917 -5.333036 -0.092708
v 26.895265 38.215851 49.005086
vn -1.659473 -2.667189 -0.043085
v 26.737400 38.297850 50.000000
vn -4.157073 -4.711142 -0.040078
v 36.390596 31.177766 48.746008
vn -2.071079 -2.362144 -0.022688
v 35.990050 31.516000 50.000000
vn -1.997629 -2.422989 -0.090602
v 35.611250 32.059550 38.000000
vn -3.982619 -4.856099 -0.187427
v 35.222108 32.352886 38.734986
vn -3.967489 -4.871677 -0.022293
v 34.777007 32.554011 49.210784
vn -3.544685 -5.186465 -0.116860
v 29.532903 36.489641 49.052611
vn -4.003920 -4.839396 -0.164664
v 36.227662 31.472862 40.105309
vn -3.996978 -4.845109 -0.165658
v 35.635404 31.964190 40.075992
vn -1.885079 -2.513172 -0.006874
v 32.056700 34.794250 38.000000
vn -3.789754 -5.011482 -0.022354
v 32.533642 34.433746 39.008827
vn -3.760968 -5.033179 -0.021261
v 31.692106 35.064835 39.056418
vn -1.897486 -2.503384 -0.046893
v 33.902900 33.405200 38.000000
vn -3.881176 -4.938086 -0.141043
v 34.504381 32.929518 38.916924
vn -1.695661 -2.644484 -0.032235
v 26.219600 38.718000 44.571050
vn -1.929501 -2.477637 -0.089144
v 33.343300 33.667800 50.000000
vn -3.862287 -4.952509 -0.183805
v 33.093802 33.883792 49.399031
vn -3.950049 -4.885329 -0.059832
v 34.223774 33.011654 48.692555
vn -4.011959 -4.835490 -0.024430
v 34.933875 32.426888 48.289766
vn -3.812495 -4.991735 -0.135041
v 32.433403 34.409911 49.126981
vn -3.711749 -5.068265 -0.105158
v 31.656580 34.995260 48.777144
vn -3.755114 -5.036232 -0.115862
v 32.206898 34.597764 48.077492
vn -3.581900 -5.161796 -0.055171
v 30.039924 36.198521 45.273385
vn -3.748397 -5.042564 -0.001912
v 31.409786 35.269573 40.105289
vn -3.682441 -5.090277 -0.014294
v 30.909494 35.645859 39.248716
vn -3.943198 -4.890775 -0.087454
v 33.584581 33.527162 48.000001
vn -3.852112 -4.960135 -0.136069
v 32.865176 34.126202 47.430078
vn -3.958361 -4.877746 -0.131796
v 33.609769 33.533748 46.971229
vn -3.596343 -5.150446 -0.120316
v 29.969754 36.214086 48.147682
vn -3.991674 -4.852115 -0.041365
v 35.154648 32.311152 42.381358
vn -3.991721 -4.851476 -0.084150
v 35.085162 32.378905 41.480929
vn -3.992293 -4.851416 -0.060985
v 35.793161 31.793195 41.780447
vn -3.614808 -5.138717 -0.056533
v 30.231446 36.060453 46.344616
vn -3.637892 -5.122098 -0.090919
v 30.490066 35.858505 47.389913
vn -3.529750 -5.197319 -0.033500
v 29.329251 36.690770 45.977050
vn -3.999037 -4.845048 -0.099702
v 36.403570 31.299849 41.017896
vn -3.993418 -4.848749 -0.142697
v 35.048591 32.432337 40.521944
vn -3.653315 -5.110190 -0.014235
v 31.006198 35.574337 40.968673
vn -3.784829 -5.015215 0.009414
v 31.922713 34.891074 41.114830
vn -3.963147 -4.874639 -0.093372
v 34.245029 33.076772 41.137175
vn -3.876947 -4.944010 -0.050314
v 33.568708 33.630314 40.402533
vn -3.987268 -4.855861 -0.024989
v 34.447604 32.890911 42.871818
vn -3.932626 -4.899834 -0.023955
v 33.568272 33.608869 43.351772
vn -3.967818 -4.871654 -0.038386
v 33.842421 33.388846 42.234445
vn -3.661629 -5.104319 -0.129182
v 31.142893 35.353350 49.260978
vn -3.650432 -5.112747 -0.108884
v 30.833334 35.597128 48.375978
vn -3.597296 -5.151153 -0.039505
v 30.065295 36.240165 39.578914
vn -3.562000 -5.175447 -0.071046
v 30.148681 36.165250 40.713812
vn -3.459197 -5.245113 -0.030239
v 28.455930 37.271908 45.567118
vn -3.453544 -5.248848 -0.030646
v 28.349208 37.357832 42.663632
vn -3.469688 -5.237816 -0.060494
v 28.484193 37.273300 41.702681
vn -3.952243 -4.883291 -0.101250
v 33.730744 33.462392 46.014882
vn -3.840662 -4.972487 -0.008166
v 32.921162 34.113453 44.272588
vn -3.887994 -4.934858 -0.016218
v 33.238478 33.869682 45.252866
vn -3.816281 -4.991038 -0.056414
v 33.361224 33.801288 38.895722
vn -3.826572 -4.983360 -0.027164
v 33.029377 34.052522 39.821286
vn -4.150407 -4.715997 -0.060053
v 35.774380 31.756022 45.715702
vn -4.004041 -4.841850 -0.045596
v 35.145589 32.313488 43.302685
vn -3.896897 -4.928179 -0.027332
v 33.336162 33.807169 41.443248
vn -1.827694 -2.554255 -0.070123
v 30.924150 35.489750 50.000000
vn -3.946543 -4.888691 -0.000928
v 33.740989 33.468129 44.451507
vn -3.961212 -4.876935 -0.030911
v 33.923765 33.317042 45.235320
vn -3.821680 -4.987239 -0.013978
v 32.759178 34.254392 40.783259
vn -3.559515 -5.177513 -0.031557
v 30.443529 35.952307 41.686680
vn -3.627057 -5.130498 -0.017043
v 30.398368 36.005379 38.662542
vn -3.819090 -4.989260 -0.001838
v 32.651041 34.335789 41.605633
vn -3.874091 -4.945442 -0.032016
v 33.051538 34.030062 42.392251
vn -3.387808 -5.289892 -0.097600
v 27.818187 37.673851 47.325022
vn -3.837085 -4.974863 -0.066580
v 33.775566 33.475837 39.418943
vn -3.983930 -4.855781 -0.167360
v 35.171366 32.363763 39.545184
vn -3.336414 -5.322964 -0.106323
v 27.366422 37.941859 48.035574
vn -3.893775 -4.929177 -0.125066
v 33.619131 33.487412 49.040738
vn -4.142217 -4.724213 -0.047577
v 36.330090 31.222831 49.482320
# 204 vertices, 0 vertices normals

f 61//61 62//62 63//63
f 64//64 61//61 65//65
f 66//66 67//67 68//68
f 69//69 70//70 67//67
f 71//71 199//199 72//72
f 73//73 74//74 75//75
f 76//76 77//77 78//78
f 79//79 80//80 81//81
f 82//82 83//83 84//84
f 85//85 86//86 87//87
f 87//87 88//88 89//89
f 90//90 91//91 92//92
f 43//43 94//94 93//93
f 95//95 78//78 96//96
f 97//97 71//71 98//98
f 100//100 101//101 102//102
f 103//103 79//79 104//104
f 105//105 106//106 107//107
f 101//101 108//108 88//88
f 31//31 196//196 110//110
f 111//111 112//112 62//62
f 113//113 84//84 114//114
f 115//115 116//116 117//117
f 118//118 119//119 120//120
f 121//121 90//90 119//119
f 122//122 123//123 100//100
f 69//69 124//124 83//83
f 103//103 133//133 125//125
f 41//41 126//126 127//127
f 128//128 40//40 129//129
f 44//44 40//40 68//68
f 130//130 131//131 132//132
f 134//134 6//6 204//204
f 135//135 53//53 136//136
f 36//36 149//149 137//137
f 33//33 39//39 138//138
f 141//141 142//142 143//143
f 74//74 66//66 128//128
f 146//146 113//113 76//76
f 147//147 49//49 148//148
f 137//137 149//149 150//150
f 151//151 152//152 153//153
f 108//108 154//154 121//121
f 143//143 155//155 156//156
f 125//125 150//150 106//106
f 157//157 158//158 159//159
f 98//98 160//160 138//138
f 161//161 162//162 163//163
f 164//164 123//123 165//165
f 164//164 166//166 154//154
f 136//136 201//201 145//145
f 53//53 94//94 139//139
f 168//168 201//201 140//140
f 169//169 155//155 170//170
f 65//65 163//163 167//167
f 173//173 174//174 175//175
f 176//176 177//177 152//152
f 148//148 151//151 7//7
f 177//177 160//160 165//165
f 158//158 153//153 122//122
f 156//156 178//178 196//196
f 75//75 178//178 179//179
f 72//72 180//180 166//166
f 114//114 181//181 92//92
f 73//73 182//182 124//124
f 120//120 181//181 182//182
f 107//107 159//159 183//183
f 86//86 174//174 184//184
f 184//184 185//185 102//102
f 91//91 180//180 77//77
f 186//186 187//187 142//142
f 105//105 117//117 188//188
f 63//63 116//116 189//189
f 176//176 38//38 191//191
f 188//188 112//112 80//80
f 189//189 173//173 161//161
f 192//192 115//115 193//193
f 85//85 170//170 197//197
f 193//193 183//183 185//185
f 179//179 169//169 195//195
f 195//195 89//89 118//118
f 3//3 61//61 63//63
f 61//61 9//9 62//62
f 63//63 62//62 59//59
f 10//10 64//64 65//65
f 64//64 9//9 61//61
f 65//65 61//61 3//3
f 40//40 66//66 68//68
f 66//66 13//13 67//67
f 68//68 67//67 12//12
f 13//13 69//69 67//67
f 69//69 11//11 70//70
f 67//67 70//70 12//12
f 14//14 71//71 72//72
f 72//72 199//199 18//18
f 16//16 73//73 75//75
f 73//73 13//13 74//74
f 75//75 74//74 15//15
f 26//26 76//76 78//78
f 76//76 1//1 77//77
f 78//78 77//77 18//18
f 4//4 79//79 81//81
f 79//79 5//5 80//80
f 81//81 80//80 20//20
f 23//23 82//82 84//84
f 82//82 11//11 83//83
f 84//84 83//83 34//34
f 19//19 85//85 87//87
f 85//85 198//198 86//86
f 87//87 86//86 8//8
f 19//19 87//87 89//89
f 87//87 8//8 88//88
f 89//89 88//88 30//30
f 37//37 90//90 92//92
f 90//90 2//2 91//91
f 92//92 91//91 1//1
f 25//25 24//24 94//94
f 93//93 94//94 24//24
f 27//27 95//95 99//99
f 95//95 26//26 78//78
f 51//51 97//97 98//98
f 98//98 71//71 14//14
f 99//99 96//96 202//202
f 28//28 100//100 102//102
f 100//100 29//29 101//101
f 102//102 101//101 8//8
f 103//103 5//5 79//79
f 104//104 79//79 4//4
f 21//21 105//105 107//107
f 105//105 5//5 106//106
f 107//107 106//106 50//50
f 8//8 101//101 88//88
f 101//101 29//29 108//108
f 88//88 108//108 30//30
f 35//35 110//110 109//109
f 9//9 111//111 62//62
f 111//111 20//20 112//112
f 62//62 112//112 59//59
f 1//1 113//113 114//114
f 113//113 23//23 84//84
f 114//114 84//84 34//34
f 113//113 17//17 23//23
f 21//21 115//115 117//117
f 115//115 58//58 116//116
f 117//117 116//116 59//59
f 16//16 118//118 120//120
f 118//118 30//30 119//119
f 120//120 119//119 37//37
f 30//30 121//121 119//119
f 121//121 2//2 90//90
f 119//119 90//90 37//37
f 28//28 122//122 100//100
f 122//122 55//55 123//123
f 100//100 123//123 29//29
f 11//11 69//69 83//83
f 69//69 13//13 124//124
f 83//83 124//124 34//34
f 5//5 103//103 125//125
f 125//125 133//133 6//6
f 126//126 202//202 97//97
f 126//126 97//97 51//51
f 51//51 39//39 127//127
f 127//127 126//126 51//51
f 15//15 128//128 35//35
f 129//129 35//35 128//128
f 44//44 68//68 12//12
f 45//45 130//130 132//132
f 131//131 130//130 99//99
f 132//132 131//131 41//41
f 47//47 134//134 204//204
f 134//134 46//46 6//6
f 42//42 135//135 136//136
f 135//135 25//25 53//53
f 36//36 137//137 46//46
f 137//137 6//6 46//46
f 33//33 138//138 60//60
f 138//138 39//39 51//51
f 53//53 139//139 140//140
f 139//139 43//43 167//167
f 31//31 141//141 143//143
f 141//141 48//48 142//142
f 143//143 142//142 57//57
f 48//48 144//144 186//186
f 144//144 42//42 145//145
f 15//15 74//74 128//128
f 74//74 13//13 66//66
f 128//128 66//66 40//40
f 26//26 146//146 76//76
f 146//146 17//17 113//113
f 76//76 113//113 1//1
f 148//148 203//203 147//147
f 6//6 137//137 150//150
f 150//150 149//149 50//50
f 7//7 151//151 153//153
f 151//151 38//38 152//152
f 153//153 152//152 55//55
f 30//30 108//108 121//121
f 108//108 29//29 154//154
f 121//121 154//154 2//2
f 31//31 143//143 156//156
f 143//143 57//57 155//155
f 156//156 155//155 56//56
f 5//5 125//125 106//106
f 125//125 6//6 150//150
f 106//106 150//150 50//50
f 50//50 157//157 159//159
f 157//157 7//7 158//158
f 159//159 158//158 28//28
f 51//51 98//98 138//138
f 98//98 14//14 160//160
f 138//138 160//160 60//60
f 3//3 161//161 163//163
f 161//161 52//52 162//162
f 163//163 162//162 54//54
f 14//14 164//164 165//165
f 164//164 29//29 123//123
f 165//165 123//123 55//55
f 29//29 164//164 154//154
f 164//164 14//14 166//166
f 154//154 166//166 2//2
f 42//42 136//136 145//145
f 136//136 53//53 201//201
f 145//145 201//201 22//22
f 10//10 167//167 43//43
f 53//53 25//25 94//94
f 139//139 94//94 43//43
f 54//54 168//168 140//140
f 168//168 22//22 201//201
f 19//19 169//169 170//170
f 169//169 56//56 155//155
f 170//170 155//155 57//57
f 10//10 65//65 167//167
f 65//65 3//3 163//163
f 167//167 163//163 54//54
f 162//162 168//168 54//54
f 22//22 171//171 172//172
f 52//52 173//173 175//175
f 173//173 58//58 174//174
f 175//175 174//174 198//198
f 38//38 176//176 152//152
f 176//176 60//60 177//177
f 152//152 177//177 55//55
f 151//151 49//49 38//38
f 148//148 49//49 151//151
f 203//203 148//148 7//7
f 50//50 149//149 157//157
f 157//157 203//203 7//7
f 55//55 177//177 165//165
f 177//177 60//60 160//160
f 165//165 160//160 14//14
f 28//28 158//158 122//122
f 158//158 7//7 153//153
f 122//122 153//153 55//55
f 156//156 56//56 178//178
f 109//109 178//178 15//15
f 16//16 75//75 179//179
f 75//75 15//15 178//178
f 179//179 178//178 56//56
f 14//14 72//72 166//166
f 72//72 18//18 180//180
f 166//166 180//180 2//2
f 1//1 114//114 92//92
f 114//114 34//34 181//181
f 92//92 181//181 37//37
f 13//13 73//73 124//124
f 73//73 16//16 182//182
f 124//124 182//182 34//34
f 16//16 120//120 182//182
f 120//120 37//37 181//181
f 182//182 181//181 34//34
f 21//21 107//107 183//183
f 107//107 50//50 159//159
f 183//183 159//159 28//28
f 8//8 86//86 184//184
f 184//184 174//174 192//192
f 8//8 184//184 102//102
f 184//184 192//192 185//185
f 102//102 185//185 28//28
f 1//1 91//91 77//77
f 91//91 2//2 180//180
f 77//77 180//180 18//18
f 48//48 186//186 142//142
f 186//186 200//200 187//187
f 142//142 187//187 57//57
f 5//5 105//105 188//188
f 105//105 21//21 117//117
f 188//188 117//117 59//59
f 3//3 63//63 189//189
f 63//63 59//59 116//116
f 189//189 116//116 58//58
f 172//172 171//171 190//190
f 190//190 171//171 175//175
f 190//190 175//175 198//198
f 60//60 191//191 33//33
f 191//191 60//60 176//176
f 5//5 188//188 80//80
f 188//188 59//59 112//112
f 80//80 112//112 20//20
f 3//3 189//189 161//161
f 189//189 58//58 173//173
f 161//161 173//173 52//52
f 192//192 58//58 115//115
f 193//193 115//115 21//21
f 85//85 19//19 170//170
f 192//192 174//174 58//58
f 192//192 193//193 185//185
f 193//193 21//21 183//183
f 185//185 183//183 28//28
f 22//22 172//172 200//200
f 16//16 179//179 195//195
f 179//179 56//56 169//169
f 195//195 169//169 19//19
f 190//190 194//194 172//172
f 16//16 195//195 118//118
f 195//195 19//19 89//89
f 118//118 89//89 30//30
f 32//32 133//133 104//104
f 109//109 15//15 35//35
f 194//194 170//170 57//57
f 198//198 197//197 190//190
f 194//194 57//57 187//187
f 194//194 187//187 172//172
f 196//196 109//109 110//110
f 196//196 178//178 109//109
f 197//197 170//170 194//194
f 31//31 156//156 196//196
f 86//86 198//198 174//174
f 171//171 52//52 175//175
f 197//197 198//198 85//85
f 197//197 194//194 190//190
f 202//202 131//131 99//99
f 162//162 171//171 168//168
f 200//200 145//145 22//22
f 52//52 171//171 162//162
f 168//168 171//171 22//22
f 149//149 36//36 203//203
f 200//200 172//172 187//187
f 139//139 167//167 54//54
f 140//140 139//139 54//54
f 96//96 78//78 18//18
f 96//96 18//18 199//199
f 97//97 199//199 71//71
f 27//27 99//99 130//130
f 201//201 53//53 140//140
f 126//126 41//41 131//131
f 99//99 95//95 96//96
f 202//202 96//96 199//199
f 202//202 199//199 97//97
f 203//203 36//36 147//147
f 131//131 202//202 126//126
f 149//149 203//203 157//157
f 133//133 103//103 104//104
f 204//204 6//6 133//133
f 144//144 145//145 200//200
f 47//47 204//204 32//32
f 32//32 204//204 133//133
f 186//186 144//144 200//200
# 357 faces, 0 coords texture

# End of File
