####
#
# OBJ File Generated by Meshlab
#
####
# Object 1102_C178_M_2.obj
#
# Vertices: 141
# Faces: 240
#
####
vn -5.863038 -2.255933 0.116116
v 88.685705 98.530478 -47.363350
vn -2.927182 -1.139020 0.059533
v 88.090400 100.000000 -48.534100
vn -2.952625 -1.075927 0.037245
v 91.241500 92.000000 -38.640600
vn -2.957580 -1.062941 0.028859
v 91.213900 92.000000 -40.881100
vn -5.893806 -2.176566 0.048602
v 90.901824 92.926025 -38.920556
vn -5.874545 -2.228032 0.034192
v 90.249674 94.521572 -46.141553
vn -2.947118 -1.096689 0.018359
v 91.191400 92.000000 -43.484000
vn -2.944545 -1.093311 0.002862
v 91.191000 92.000000 -45.777100
vn -5.889170 -2.188782 0.025025
v 90.447887 93.971625 -44.329066
vn -2.927309 -1.143983 0.010859
v 88.210600 100.000000 -39.631800
vn -2.946446 -1.089397 0.032098
v 91.143700 92.290200 -38.000000
vn -2.932537 -1.130006 0.051310
v 88.160500 100.000000 -45.075300
vn -5.866528 -2.248028 0.090772
v 88.703517 98.577106 -45.386786
vn -2.950505 -1.077946 0.031771
v 91.203400 92.000000 -42.134800
vn -5.891944 -2.180981 0.081461
v 90.564410 93.726133 -42.498478
vn -2.940601 -1.102722 0.013012
v 91.186700 92.000000 -47.965400
vn -5.887111 -2.194556 0.060574
v 89.911297 95.470430 -43.131907
vn -2.936176 -1.121295 0.021827
v 88.201400 100.000000 -42.134400
vn -2.939629 -1.116213 0.034160
v 88.194700 100.000000 -42.988300
vn -5.870289 -2.238738 0.078166
v 88.516423 99.134553 -43.497209
vn -2.924792 -1.145169 0.047013
v 89.022900 97.518500 -50.000000
vn -5.885803 -2.198927 0.002193
v 90.857647 92.897600 -45.884275
vn -1.471577 -0.554207 0.007583
v 91.176900 92.000000 -50.000000
vn -5.871154 -2.236549 0.075679
v 89.275639 97.118293 -44.180308
vn -2.927484 -1.137844 0.058451
v 88.142300 100.000000 -45.954300
vn -2.943980 -1.095639 0.026332
v 89.990700 95.392700 -38.000000
vn -2.932748 -1.125866 0.017927
v 89.072800 97.807200 -38.000000
vn -1.461773 -0.574995 -0.000207
v 88.210600 100.000000 -38.000000
vn -1.457411 -0.565537 0.029769
v 88.061100 100.000000 -50.000000
vn -2.947753 -1.086355 0.011521
v 90.253900 94.664300 -38.000000
vn -2.921677 -1.154619 0.020359
v 89.833300 95.502300 -50.000000
vn -1.467010 -0.545453 0.023130
v 91.251600 92.000000 -38.000000
vn -5.851745 -2.285876 0.085821
v 89.278642 96.924358 -48.370066
vn -5.876014 -2.224531 0.047885
v 89.427719 96.830302 -39.828998
vn -5.868856 -2.243470 0.031566
v 90.546239 93.687291 -48.962817
vn -2.930927 -1.130937 0.009024
v 90.432100 93.975500 -50.000000
vn -5.873322 -2.231685 0.037302
v 90.588768 93.593334 -47.850980
vn -5.866117 -2.250537 0.043443
v 88.756829 98.571316 -41.047060
vn -5.882765 -2.206382 0.056792
v 90.018963 95.232894 -41.200452
vn -5.875459 -2.225508 0.058686
v 89.323013 97.068321 -42.096510
vn -5.853356 -2.283116 0.059502
v 90.018940 95.069079 -47.923702
vn -5.861970 -2.259795 0.093231
v 89.446132 96.591076 -46.306175
vn -5.856510 -2.272693 0.120713
v 88.373177 99.244261 -49.078680
vn -5.862946 -2.256040 0.119524
v 88.689082 98.465541 -48.405449
vn -5.855097 -2.276375 0.119745
v 88.383744 99.279425 -47.910793
vn -2.953870 -1.069127 0.034984
v 91.227700 92.000000 -39.760850
vn -5.904837 -2.146573 0.057240
v 90.902993 92.887438 -40.094768
vn -5.905523 -2.144177 0.069640
v 90.918413 92.815420 -41.225291
vn -5.883648 -2.204646 -0.011122
v 90.964247 92.610714 -45.001175
vn -5.880109 -2.214087 -0.020629
v 90.670672 93.387123 -45.067124
vn -5.859995 -2.264462 0.104371
v 88.426215 99.288306 -45.576031
vn -5.891022 -2.183082 0.087238
v 90.618004 93.622603 -41.544390
vn -5.897086 -2.167116 0.078454
v 90.887629 92.855687 -42.252996
vn -5.882593 -2.207047 0.048624
v 89.668853 96.157871 -41.589719
vn -5.881383 -2.209718 0.068862
v 89.617443 96.268586 -42.599472
vn -5.887271 -2.194291 0.058706
v 89.956946 95.373763 -42.155225
vn -5.889751 -2.186998 0.078064
v 90.514411 93.825027 -43.422038
vn -2.933709 -1.122869 0.046025
v 88.177600 100.000000 -44.031800
vn -5.870389 -2.238435 0.079757
v 88.913393 98.085664 -43.723199
vn -5.874924 -2.226460 0.080125
v 89.281191 97.140956 -43.150544
vn -5.868253 -2.244343 0.068999
v 88.987251 97.929742 -42.662525
vn -2.947164 -1.087675 0.028056
v 91.197400 92.000000 -42.809400
vn -5.879423 -2.215819 0.030592
v 90.843016 92.894469 -49.421721
vn -2.939566 -1.108271 0.017015
v 90.804500 92.987750 -50.000000
vn -5.862523 -2.259688 0.053339
v 90.301124 94.342854 -47.659787
vn -5.859183 -2.268577 0.043254
v 90.275904 94.394377 -48.478386
vn -5.886390 -2.196100 0.075103
v 90.291776 94.480151 -41.831356
vn -5.881228 -2.210106 0.067359
v 90.354760 94.349218 -40.907993
vn -5.878921 -2.216810 0.049608
v 90.101732 95.034914 -40.226212
vn -5.881435 -2.210263 0.042464
v 90.406651 94.231179 -39.996061
vn -2.926668 -1.140506 0.058878
v 88.116350 100.000000 -47.244200
vn -5.855769 -2.274901 0.114675
v 88.398212 99.303623 -46.722896
vn -5.864002 -2.253916 0.107496
v 88.692930 98.562570 -46.308028
vn -2.936556 -1.116033 0.026754
v 89.531750 96.599950 -38.000000
vn -5.873450 -2.231214 0.051783
v 89.246213 97.330680 -38.858485
vn -5.875046 -2.226848 0.057690
v 89.584412 96.439397 -38.927150
vn -5.878910 -2.216617 0.057934
v 89.834179 95.760174 -39.520974
vn -5.886054 -2.197822 0.044394
v 90.174631 94.869578 -39.024208
vn -5.850568 -2.290833 0.024833
v 88.497528 99.270806 -39.409879
vn -5.847143 -2.299854 -0.000818
v 88.477632 99.321368 -38.629150
vn -2.923416 -1.150324 0.000000
v 88.210600 100.000000 -38.815900
vn -5.859676 -2.267101 0.027033
v 88.828748 98.428662 -38.925692
vn -2.923700 -1.149601 -0.000940
v 88.641700 98.903600 -38.000000
vn -2.927780 -1.137666 0.058520
v 88.075750 100.000000 -49.267050
vn -2.928737 -1.135080 0.060822
v 88.542000 98.759250 -50.000000
vn -5.861404 -2.260386 0.113264
v 88.798132 98.137297 -49.272809
vn -5.845985 -2.300972 0.077809
v 89.170072 97.172409 -49.223724
vn -5.867031 -2.246058 0.106224
v 88.978588 97.694195 -48.636241
vn -2.914818 -1.171550 0.030180
v 89.428100 96.510400 -50.000000
vn -5.834926 -2.330115 0.047642
v 89.551569 96.226244 -49.104629
vn -5.871105 -2.236510 0.080943
v 88.963935 97.914269 -44.808914
vn -5.886463 -2.196868 0.037117
v 90.600435 93.722823 -39.488309
vn -5.868147 -2.244531 0.067562
v 89.578618 96.317444 -44.545709
vn -5.884066 -2.202640 0.043392
v 89.882285 95.524954 -44.368151
vn -5.874753 -2.227433 0.060758
v 89.587255 96.311812 -43.619003
vn -2.942388 -1.100878 -0.003481
v 91.191200 92.000000 -44.630550
vn -5.903043 -2.152058 0.009944
v 90.160028 94.757896 -44.580345
vn -5.878757 -2.216296 0.035212
v 90.047914 95.069573 -45.386441
vn -5.890688 -2.185717 -0.020038
v 90.357619 94.224608 -45.243383
vn -5.856312 -2.273460 0.108509
v 89.359950 96.758547 -47.418178
vn -5.841120 -2.313859 0.068592
v 89.651647 95.988833 -48.144207
vn -5.850523 -2.289606 0.081862
v 89.756881 95.764978 -47.175023
vn -2.945273 -1.093133 0.005787
v 91.188850 92.000000 -46.871250
vn -5.887328 -2.194866 0.015823
v 91.008619 92.485830 -46.828594
vn -5.884176 -2.203208 -0.000473
v 90.556799 93.702404 -45.996572
vn -5.874389 -2.228632 0.045337
v 90.436068 94.013924 -46.903883
vn -5.884002 -2.203711 0.024117
v 90.726307 93.239780 -46.821843
vn -5.871879 -2.235167 0.058594
v 88.485188 99.242123 -42.620667
vn -5.867806 -2.245856 0.057986
v 88.724145 98.628763 -42.135017
vn -5.865966 -2.250961 0.039490
v 88.472098 99.304175 -41.560450
vn -5.892285 -2.180368 0.072389
v 90.239218 94.596018 -42.754309
vn -2.941766 -1.102493 0.011314
v 90.698800 93.477250 -38.000000
vn -5.884506 -2.202359 0.024594
v 90.502349 93.994266 -38.703246
vn -5.876235 -2.224106 0.037742
v 89.378794 96.939911 -41.005904
vn -5.872718 -2.233326 0.042278
v 89.077949 97.737398 -40.497457
vn -5.868653 -2.243866 0.046886
v 89.034352 97.834802 -41.581772
vn -5.869347 -2.239482 0.117892
v 88.994935 97.693906 -47.841488
vn -5.874199 -2.229292 0.049590
v 89.075321 97.764265 -39.597101
vn -5.880654 -2.212529 0.032155
v 90.876349 92.818047 -48.478424
vn -2.940203 -1.106622 0.014187
v 91.181800 92.000000 -48.982700
vn -5.898912 -2.162525 0.063336
v 90.188205 94.697334 -43.701459
vn -5.880045 -2.213937 0.044081
v 89.740439 95.986209 -40.548238
vn -5.882410 -2.207906 0.027142
v 90.883456 92.812969 -47.605107
vn -5.861158 -2.262989 0.063633
v 90.122319 94.826380 -47.024426
vn -5.857766 -2.272350 0.034048
v 88.482691 99.287575 -40.422054
vn -2.930813 -1.131294 0.010774
v 88.206000 100.000000 -40.883100
vn -5.867839 -2.244843 0.086226
v 89.333939 96.927576 -45.197673
vn -5.870144 -2.238457 0.094788
v 89.025297 97.715130 -45.829414
vn -5.858631 -2.269298 0.071096
v 89.889473 95.447980 -46.252277
vn -5.862386 -2.259260 0.080651
v 89.695682 95.978757 -45.405028
vn -5.869354 -2.239730 0.112568
v 89.033283 97.645573 -46.848682
vn -5.848074 -2.296979 0.043043
v 89.929233 95.277775 -48.878106
vn -5.853398 -2.283613 0.028938
v 90.195137 94.582442 -49.413856
vn -2.924699 -1.147046 0.005368
v 90.132700 94.738900 -50.000000
vn -5.864315 -2.255029 0.047738
v 88.783759 98.523737 -39.998996
vn -5.867113 -2.246793 0.085123
v 88.559550 98.984379 -44.518587
vn -5.891710 -2.182254 0.062281
v 90.831380 92.978673 -43.240606
vn -5.877084 -2.221248 0.064514
v 89.826146 95.809275 -38.650029
vn -5.892446 -2.180052 0.053607
v 90.639091 93.603449 -40.486306
vn -5.882926 -2.206368 0.019297
v 90.820694 92.984435 -44.161474
vn -5.868627 -2.243403 0.068627
v 88.730719 98.589027 -43.010404
# 141 vertices, 0 vertices normals

f 43//43 44//44 45//45
f 4//4 46//46 47//47
f 49//49 140//140 50//50
f 3//3 11//11 5//5
f 48//48 52//52 53//53
f 54//54 55//55 56//56
f 58//58 12//12 136//136
f 59//59 60//60 61//61
f 62//62 53//53 137//137
f 23//23 63//63 64//64
f 37//37 65//65 66//66
f 67//67 52//52 68//68
f 69//69 68//68 70//70
f 71//71 45//45 72//72
f 73//73 51//51 72//72
f 77//77 78//78 138//138
f 79//79 80//80 81//81
f 82//82 83//83 80//80
f 85//85 86//86 43//43
f 86//86 87//87 88//88
f 89//89 90//90 87//87
f 93//93 94//94 95//95
f 3//3 32//32 11//11
f 97//97 98//98 99//99
f 100//100 101//101 102//102
f 16//16 103//103 104//104
f 105//105 106//106 107//107
f 108//108 109//109 110//110
f 67//67 56//56 111//111
f 112//112 113//113 5//5
f 78//78 70//70 113//113
f 114//114 115//115 116//116
f 44//44 88//88 117//117
f 119//119 63//63 120//120
f 94//94 97//97 121//121
f 111//111 121//121 57//57
f 114//114 54//54 122//122
f 119//119 123//123 37//37
f 65//65 106//106 124//124
f 125//125 126//126 110//110
f 127//127 91//91 128//128
f 129//129 98//98 130//130
f 73//73 131//131 128//128
f 100//100 131//131 117//117
f 69//69 77//77 122//122
f 60//60 95//95 55//55
f 61//61 116//116 109//109
f 99//99 105//105 50//50
f 132//132 133//133 66//66
f 102//102 124//124 129//129
f 31//31 134//134 133//133
f 90//90 132//132 101//101
f 107//107 123//123 104//104
f 20//20 108//108 19//19
f 135//135 115//115 118//118
f 135//135 79//79 125//125
f 127//127 130//130 93//93
f 2//2 43//43 45//45
f 45//45 44//44 1//1
f 46//46 5//5 47//47
f 5//5 46//46 3//3
f 47//47 139//139 48//48
f 47//47 48//48 4//4
f 22//22 49//49 50//50
f 51//51 12//12 25//25
f 14//14 4//4 48//48
f 14//14 48//48 53//53
f 48//48 139//139 52//52
f 53//53 52//52 15//15
f 39//39 54//54 56//56
f 54//54 40//40 55//55
f 56//56 55//55 17//17
f 140//140 7//7 137//137
f 57//57 137//137 15//15
f 19//19 58//58 20//20
f 59//59 24//24 60//60
f 61//61 60//60 40//40
f 7//7 62//62 137//137
f 62//62 14//14 53//53
f 137//137 53//53 15//15
f 63//63 35//35 36//36
f 36//36 64//64 63//63
f 35//35 37//37 66//66
f 66//66 65//65 41//41
f 39//39 67//67 68//68
f 67//67 15//15 52//52
f 68//68 52//52 139//139
f 78//78 69//69 70//70
f 69//69 39//39 68//68
f 70//70 68//68 139//139
f 25//25 71//71 72//72
f 71//71 2//2 45//45
f 72//72 45//45 1//1
f 1//1 73//73 72//72
f 73//73 13//13 51//51
f 72//72 51//51 25//25
f 26//26 74//74 138//138
f 74//74 27//27 75//75
f 34//34 77//77 76//76
f 10//10 79//79 81//81
f 79//79 82//82 80//80
f 81//81 80//80 28//28
f 82//82 27//27 83//83
f 80//80 83//83 28//28
f 43//43 2//2 84//84
f 43//43 84//84 29//29
f 29//29 85//85 43//43
f 85//85 21//21 86//86
f 43//43 86//86 44//44
f 78//78 30//30 26//26
f 44//44 86//86 88//88
f 86//86 21//21 87//87
f 88//88 87//87 33//33
f 21//21 89//89 87//87
f 89//89 31//31 90//90
f 87//87 90//90 33//33
f 59//59 91//91 24//24
f 47//47 5//5 92//92
f 70//70 92//92 113//113
f 24//24 93//93 95//95
f 95//95 94//94 17//17
f 22//22 8//8 49//49
f 96//96 49//49 8//8
f 9//9 97//97 99//99
f 97//97 94//94 98//98
f 99//99 98//98 6//6
f 42//42 100//100 102//102
f 100//100 33//33 101//101
f 102//102 101//101 41//41
f 103//103 8//8 104//104
f 22//22 104//104 8//8
f 22//22 105//105 107//107
f 105//105 6//6 106//106
f 107//107 106//106 37//37
f 18//18 108//108 110//110
f 110//110 109//109 38//38
f 15//15 67//67 111//111
f 67//67 39//39 56//56
f 111//111 56//56 17//17
f 11//11 112//112 5//5
f 112//112 30//30 113//113
f 30//30 78//78 113//113
f 113//113 92//92 5//5
f 40//40 114//114 116//116
f 114//114 34//34 115//115
f 116//116 115//115 38//38
f 1//1 44//44 117//117
f 117//117 88//88 33//33
f 27//27 82//82 75//75
f 75//75 118//118 34//34
f 16//16 119//119 120//120
f 119//119 35//35 63//63
f 120//120 63//63 23//23
f 17//17 94//94 121//121
f 121//121 97//97 9//9
f 15//15 111//111 57//57
f 111//111 17//17 121//121
f 57//57 121//121 9//9
f 34//34 114//114 122//122
f 114//114 40//40 54//54
f 122//122 54//54 39//39
f 35//35 119//119 37//37
f 119//119 16//16 123//123
f 41//41 65//65 124//124
f 65//65 37//37 106//106
f 124//124 106//106 6//6
f 38//38 125//125 110//110
f 125//125 10//10 126//126
f 110//110 126//126 18//18
f 42//42 127//127 128//128
f 127//127 24//24 91//91
f 128//128 91//91 13//13
f 42//42 129//129 130//130
f 129//129 6//6 98//98
f 130//130 98//98 94//94
f 13//13 73//73 128//128
f 73//73 1//1 131//131
f 128//128 131//131 42//42
f 33//33 100//100 117//117
f 100//100 42//42 131//131
f 117//117 131//131 1//1
f 39//39 69//69 122//122
f 69//69 78//78 77//77
f 122//122 77//77 34//34
f 40//40 60//60 55//55
f 60//60 24//24 95//95
f 55//55 95//95 17//17
f 61//61 40//40 116//116
f 109//109 116//116 38//38
f 9//9 99//99 50//50
f 99//99 6//6 105//105
f 50//50 105//105 22//22
f 41//41 132//132 66//66
f 132//132 31//31 133//133
f 66//66 133//133 35//35
f 42//42 102//102 129//129
f 102//102 41//41 124//124
f 129//129 124//124 6//6
f 36//36 133//133 134//134
f 133//133 36//36 35//35
f 33//33 90//90 101//101
f 90//90 31//31 132//132
f 101//101 132//132 41//41
f 22//22 107//107 104//104
f 107//107 37//37 123//123
f 104//104 123//123 16//16
f 108//108 18//18 19//19
f 82//82 135//135 118//118
f 135//135 38//38 115//115
f 118//118 115//115 34//34
f 38//38 135//135 125//125
f 135//135 82//82 79//79
f 125//125 79//79 10//10
f 24//24 127//127 93//93
f 127//127 42//42 130//130
f 93//93 130//130 94//94
f 75//75 82//82 118//118
f 59//59 136//136 91//91
f 7//7 140//140 96//96
f 136//136 12//12 51//51
f 20//20 136//136 59//59
f 91//91 136//136 13//13
f 20//20 59//59 141//141
f 76//76 74//74 75//75
f 20//20 141//141 108//108
f 76//76 75//75 34//34
f 77//77 138//138 76//76
f 138//138 74//74 76//76
f 26//26 138//138 78//78
f 140//140 49//49 96//96
f 20//20 58//58 136//136
f 139//139 92//92 70//70
f 139//139 47//47 92//92
f 136//136 51//51 13//13
f 50//50 140//140 9//9
f 9//9 140//140 57//57
f 137//137 57//57 140//140
f 141//141 59//59 61//61
f 141//141 109//109 108//108
f 109//109 141//141 61//61
# 240 faces, 0 coords texture

# End of File
