####
#
# OBJ File Generated by Meshlab
#
####
# Object 1104_C178_M_4.obj
#
# Vertices: 155
# Faces: 265
#
####
vn -2.856192 -1.300336 -0.037409
v 102.398000 69.512400 47.651300
vn -5.802831 -2.406107 -0.117381
v 99.616182 75.853608 46.635398
vn -2.851426 -1.318316 -0.033234
v 101.974000 70.382200 50.000000
vn -5.734671 -2.565351 -0.100783
v 101.066316 72.421577 48.272563
vn -2.866320 -1.282541 -0.063593
v 101.144000 72.170500 50.000000
vn -2.902859 -1.167955 -0.033134
v 98.466700 78.703200 46.307300
vn -2.918503 -1.172493 -0.050974
v 98.447400 78.669800 48.052000
vn -5.814964 -2.378732 -0.072226
v 98.810639 77.860483 45.610897
vn -5.736905 -2.560464 -0.098020
v 101.608933 71.410606 43.666753
vn -5.747433 -2.537143 -0.082765
v 100.964798 72.899300 42.506862
vn -2.916873 -1.192588 -0.029083
v 98.467700 78.704900 45.385600
vn -5.741325 -2.548454 -0.136371
v 100.939524 72.794849 46.114170
vn -5.753252 -2.522887 -0.110793
v 100.856859 73.101017 44.222995
vn -5.733641 -2.568865 -0.064468
v 101.540825 71.723417 39.439276
vn -5.729045 -2.578191 -0.096413
v 101.646912 71.421462 41.442017
vn -2.861632 -1.297323 -0.037062
v 102.472000 69.641200 39.977700
vn -5.749962 -2.530755 -0.097635
v 100.862477 73.202996 40.391290
vn -2.887897 -1.236447 -0.040062
v 100.662000 73.742300 38.000000
vn -2.892261 -1.224337 -0.060605
v 99.763900 75.902900 38.000000
vn -2.877940 -1.258541 -0.057839
v 101.062000 72.359700 50.000000
vn -2.894877 -1.217394 -0.056830
v 100.034000 74.717500 50.000000
vn -2.874371 -1.267852 -0.015499
v 101.322000 72.238000 38.000000
vn -1.429070 -0.676045 -0.021089
v 102.490000 69.672200 38.000000
vn -2.857330 -1.305547 -0.022663
v 102.049000 70.600900 38.000000
vn -5.724680 -2.587606 -0.101843
v 101.676807 71.130007 46.732542
vn -2.906089 -1.192983 -0.039423
v 99.754400 75.405300 50.000000
vn -2.910842 -1.179431 -0.052367
v 98.929100 77.385400 50.000000
vn -2.853454 -1.313263 -0.026149
v 102.387000 69.493700 49.640100
vn -1.420459 -0.656602 -0.009055
v 102.386000 69.490900 50.000000
vn -2.904072 -1.198383 -0.034640
v 98.521000 78.797300 39.030600
vn -2.902789 -1.203923 -0.043147
v 98.510000 78.778200 40.319800
vn -5.788093 -2.442146 -0.107955
v 99.313266 76.874023 39.647337
vn -2.900926 -1.205585 -0.036355
v 98.774500 78.204400 38.000000
vn -5.777474 -2.467881 -0.087577
v 100.211914 74.614257 43.186467
vn -2.865701 -1.291570 -0.054020
v 102.447000 69.597300 42.642600
vn -5.772028 -2.478904 -0.099459
v 100.288775 74.212350 47.358596
vn -2.860252 -1.288805 -0.052851
v 102.418000 69.546600 45.212500
vn -5.794442 -2.428029 -0.085911
v 99.400730 76.546978 43.023768
vn -1.447390 -0.581573 -0.021443
v 98.530000 78.812900 38.000000
vn -1.469906 -0.580392 -0.019200
v 98.432300 78.643600 50.000000
vn -2.901394 -1.199009 -0.041681
v 98.492200 78.746800 42.741400
vn -5.775365 -2.470111 -0.141558
v 100.243241 74.432201 45.412066
vn -5.800502 -2.413585 -0.084187
v 99.641351 75.729732 48.587038
vn -5.799085 -2.416919 -0.080921
v 99.120679 77.264098 41.372435
vn -5.789391 -2.439822 -0.092207
v 99.800721 75.653640 41.297487
vn -5.785732 -2.447696 -0.110688
v 100.162569 74.871068 39.658149
vn -5.715767 -2.608253 -0.072319
v 102.044369 70.273708 48.184294
vn -5.720147 -2.598319 -0.084078
v 102.041243 70.314975 47.123238
vn -5.714483 -2.610251 -0.097990
v 101.439751 71.581844 48.709218
vn -5.790725 -2.437126 -0.079582
v 99.997376 75.157137 42.185151
vn -5.788945 -2.440571 -0.097346
v 100.155309 74.811877 41.225708
vn -5.773550 -2.477357 -0.073402
v 100.375765 74.263791 42.017476
vn -2.914080 -1.172554 -0.053433
v 98.457050 78.686500 47.179650
vn -5.822726 -2.359056 -0.094224
v 98.896536 77.616570 46.660869
vn -5.821335 -2.362081 -0.104135
v 98.847402 77.685959 47.879212
vn -5.804998 -2.401609 -0.110992
v 99.192395 76.933486 45.734743
vn -5.814349 -2.379811 -0.089624
v 99.262794 76.693119 47.223954
vn -2.905794 -1.193259 -0.045832
v 98.479950 78.725850 44.063500
vn -5.806423 -2.398595 -0.101674
v 98.730997 78.132684 43.590222
vn -5.801449 -2.410738 -0.095783
v 98.995489 77.443915 44.747959
vn -5.755133 -2.516491 -0.154953
v 100.595376 73.602882 45.765541
vn -5.750431 -2.527959 -0.141854
v 100.574830 73.711483 44.794181
vn -5.749592 -2.530715 -0.123812
v 100.615601 73.498824 46.764304
vn -5.736513 -2.561122 -0.105829
v 100.989732 72.638570 47.170457
vn -5.746289 -2.539623 -0.093637
v 100.671315 73.330931 47.816046
vn -5.728202 -2.580461 -0.085635
v 101.602918 71.554971 40.361975
vn -5.730391 -2.576228 -0.055439
v 101.939169 70.831942 39.691520
vn -5.728416 -2.579787 -0.091281
v 102.035944 70.580580 40.794923
vn -2.864989 -1.288072 -0.048096
v 102.459500 69.619250 41.310150
vn -5.728056 -2.580125 -0.103310
v 102.047981 70.509187 41.989925
vn -5.754922 -2.519630 -0.097375
v 100.563617 73.787861 43.786107
vn -5.761390 -2.506103 -0.065089
v 100.626140 73.671176 42.748460
vn -5.754896 -2.520913 -0.065288
v 100.906066 73.011090 43.359084
vn -2.900452 -1.205936 -0.051968
v 100.212950 74.822600 38.000000
vn -5.789122 -2.440504 -0.084860
v 100.398949 74.336752 38.898348
vn -5.791927 -2.432437 -0.120482
v 99.974882 75.360000 38.811437
vn -5.757075 -2.515270 -0.077565
v 100.835455 73.310650 39.122592
vn -5.775218 -2.472356 -0.107213
v 100.522445 74.018932 39.906881
vn -5.724189 -2.588003 -0.110094
v 101.192131 72.097031 49.312310
vn -5.795647 -2.424461 -0.098100
v 100.012550 74.832159 48.936497
vn -5.801000 -2.411839 -0.098222
v 99.684727 75.593350 49.445397
vn -2.842429 -1.337164 -0.046830
v 102.481000 69.656700 38.988850
vn -5.709502 -2.621581 -0.053000
v 102.197946 70.261360 38.904090
vn -5.731168 -2.573836 -0.086554
v 101.243690 72.334526 40.937208
vn -5.732846 -2.570043 -0.087734
v 101.217958 72.428071 39.835518
vn -5.734683 -2.563666 -0.138298
v 101.264797 72.105429 45.477229
vn -5.728180 -2.579235 -0.117600
v 101.304418 71.969753 46.438584
vn -5.808296 -2.394301 -0.096510
v 99.252827 76.679746 48.295790
vn -5.801768 -2.409961 -0.099447
v 99.294061 76.538845 49.236600
vn -5.818129 -2.369717 -0.104578
v 98.933252 77.419114 49.047460
vn -5.707336 -2.626797 -0.066977
v 102.009218 70.327198 49.205631
vn -2.851741 -1.317226 -0.045574
v 101.559000 71.276350 50.000000
vn -2.856166 -1.308089 -0.028664
v 102.392500 69.503050 48.645700
vn -5.801032 -2.412251 -0.085461
v 98.888448 77.886999 39.828720
vn -5.790705 -2.436958 -0.078559
v 98.962133 77.735398 38.906459
vn -2.863669 -1.290648 -0.056848
v 102.432500 69.571950 43.927550
vn -5.726606 -2.582943 -0.113123
v 102.033867 70.490499 43.154136
vn -5.747522 -2.534127 -0.149830
v 100.981638 72.772265 45.001441
vn -5.731305 -2.572645 -0.109674
v 102.086735 70.299891 44.855065
vn -5.744079 -2.543292 -0.122939
v 101.384063 71.883541 44.652686
vn -5.787682 -2.443063 -0.111616
v 99.966855 75.298913 40.433205
vn -5.786016 -2.447472 -0.101247
v 99.578394 76.213875 40.454829
vn -5.783268 -2.453021 -0.121214
v 99.752260 75.840592 39.609396
vn -5.789151 -2.440604 -0.086473
v 99.438113 76.511931 41.326405
vn -5.795394 -2.425254 -0.098299
v 99.197142 77.113998 40.553419
vn -5.805395 -2.401689 -0.086400
v 98.841585 77.955618 40.906291
vn -5.724354 -2.588415 -0.100215
v 101.360672 71.798744 47.522279
vn -5.732387 -2.570561 -0.101452
v 101.268832 72.242137 41.985926
vn -5.769703 -2.485699 -0.090811
v 100.339276 74.039214 49.241310
vn -5.773955 -2.473237 -0.144352
v 100.265654 74.321319 46.391985
vn -5.796437 -2.422069 -0.109321
v 99.946416 75.046157 46.993403
vn -5.793375 -2.427627 -0.147721
v 99.930167 75.142124 46.025149
vn -2.873883 -1.268609 -0.031541
v 100.992000 72.990150 38.000000
vn -5.741397 -2.551587 -0.057609
v 101.267757 72.351950 38.807790
vn -5.726950 -2.582615 -0.100046
v 102.032267 70.371120 45.989350
vn -5.782261 -2.454963 -0.127722
v 100.277208 74.560613 40.425202
vn -2.860228 -1.298832 -0.041670
v 102.408000 69.529500 46.431900
vn -5.779115 -2.462597 -0.125113
v 99.515087 76.444145 38.806522
vn -2.887201 -1.237357 -0.051163
v 99.269200 77.053650 38.000000
vn -5.832783 -2.334098 -0.091869
v 98.673404 78.075084 48.795025
vn -2.920174 -1.157686 -0.043982
v 98.680700 78.014500 50.000000
vn -2.920735 -1.156450 -0.039144
v 98.439850 78.656700 49.026000
vn -2.904364 -1.197043 -0.036870
v 98.501100 78.762500 41.530600
vn -5.806600 -2.399429 -0.066899
v 98.859120 77.880984 41.948032
vn -5.748628 -2.534275 -0.091209
v 101.193778 72.343798 43.979692
vn -5.794295 -2.427621 -0.104117
v 99.922061 75.273465 43.972817
vn -5.790695 -2.436635 -0.095105
v 99.568100 76.114598 43.956426
vn -5.790408 -2.437672 -0.085576
v 99.791433 75.616043 43.096806
vn -5.729583 -2.576432 -0.110610
v 101.645146 71.378938 42.527622
vn -5.740375 -2.553009 -0.088215
v 101.264146 72.209588 42.979013
vn -5.795941 -2.423794 -0.101734
v 99.175875 77.049132 43.862142
vn -5.802929 -2.407552 -0.086170
v 98.987628 77.546974 42.903445
vn -5.772926 -2.478621 -0.074192
v 100.335673 74.076735 48.345252
vn -5.798556 -2.418724 -0.068892
v 99.972525 74.952294 47.962710
vn -5.805660 -2.401354 -0.078532
v 99.618247 75.817089 47.614083
vn -5.797158 -2.422037 -0.068400
v 99.244031 76.947098 42.138725
vn -2.871157 -1.275018 -0.019734
v 101.685500 71.419450 38.000000
vn -5.793213 -2.429940 -0.109775
v 99.378359 76.530331 44.867636
vn -5.798569 -2.415322 -0.145426
v 99.587214 75.982234 45.712934
vn -5.751311 -2.528326 -0.091097
v 100.745183 73.121038 49.004616
vn -2.878679 -1.257445 -0.040484
v 100.548000 73.538600 50.000000
vn -2.899531 -1.208395 -0.045914
v 99.341750 76.395350 50.000000
vn -5.746960 -2.538323 -0.081949
v 100.827631 73.239096 41.634278
vn -5.768853 -2.486890 -0.106564
v 100.508170 73.991615 40.941572
vn -5.789904 -2.439091 -0.079095
v 99.620296 76.052999 42.180590
vn -5.795562 -2.423503 -0.126113
v 99.830480 75.449305 44.914635
vn -5.774132 -2.473589 -0.121097
v 100.226436 74.522779 44.369982
vn -5.711125 -2.618146 -0.081714
v 101.732952 70.937606 48.803635
vn -5.739974 -2.555375 -0.031609
v 101.712179 71.348725 38.687882
vn -5.811777 -2.386036 -0.092167
v 98.695927 78.174428 44.726919
vn -5.731236 -2.572486 -0.116292
v 101.655948 71.229833 45.604660
vn -5.729010 -2.577873 -0.106224
v 102.031175 70.448786 44.219630
vn -5.812635 -2.382489 -0.120065
v 99.322781 76.580341 46.381490
vn -5.718149 -2.602582 -0.087967
v 101.707826 71.026752 47.790208
vn -5.735926 -2.562548 -0.103965
v 101.678595 71.219634 44.646993
# 155 vertices, 0 vertices normals

f 50//50 51//51 52//52
f 53//53 54//54 55//55
f 54//54 56//56 153//153
f 61//61 62//62 98//98
f 63//63 64//64 65//65
f 66//66 67//67 68//68
f 69//69 70//70 68//68
f 71//71 72//72 73//73
f 74//74 75//75 76//76
f 77//77 78//78 75//75
f 82//82 16//16 83//83
f 66//66 84//84 85//85
f 86//86 151//151 87//87
f 67//67 149//149 83//83
f 47//47 93//93 91//91
f 3//3 28//28 29//29
f 32//32 94//94 95//95
f 101//101 102//102 103//103
f 104//104 105//105 102//102
f 106//106 94//94 105//105
f 64//64 87//87 107//107
f 108//108 143//143 84//84
f 110//110 111//111 112//112
f 113//113 22//22 114//114
f 51//51 101//101 116//116
f 117//117 48//48 115//115
f 76//76 103//103 118//118
f 30//30 39//39 33//33
f 120//120 121//121 122//122
f 123//123 106//106 124//124
f 126//126 127//127 128//128
f 97//97 129//129 70//70
f 130//130 108//108 129//129
f 131//131 59//59 132//132
f 133//133 80//80 134//134
f 135//135 111//111 134//134
f 136//136 132//132 124//124
f 56//56 138//138 139//139
f 110//110 61//61 63//63
f 133//133 65//65 140//140
f 141//141 109//109 140//140
f 125//125 73//73 130//130
f 135//135 88//88 57//57
f 81//81 142//142 89//89
f 143//143 72//72 52//52
f 104//104 145//145 136//136
f 145//145 50//50 128//128
f 138//138 131//131 127//127
f 146//146 112//112 139//139
f 78//78 144//144 116//116
f 85//85 77//77 114//114
f 147//147 71//71 62//62
f 146//146 126//126 147//147
f 1//1 47//47 48//48
f 47//47 148//148 154//154
f 48//48 154//154 25//25
f 4//4 49//49 79//79
f 34//34 50//50 52//52
f 50//50 45//45 51//51
f 52//52 51//51 144//144
f 7//7 53//53 55//55
f 53//53 6//6 54//54
f 6//6 8//8 54//54
f 55//55 54//54 57//57
f 54//54 8//8 56//56
f 11//11 58//58 150//150
f 58//58 41//41 59//59
f 12//12 61//61 98//98
f 61//61 42//42 62//62
f 98//98 62//62 13//13
f 36//36 63//63 65//65
f 63//63 12//12 64//64
f 65//65 64//64 4//4
f 15//15 66//66 68//68
f 66//66 14//14 67//67
f 68//68 67//67 16//16
f 16//16 69//69 68//68
f 69//69 35//35 70//70
f 68//68 70//70 15//15
f 13//13 71//71 73//73
f 71//71 34//34 72//72
f 73//73 72//72 10//10
f 19//19 74//74 76//76
f 74//74 18//18 75//75
f 76//76 75//75 46//46
f 18//18 77//77 75//75
f 77//77 17//17 78//78
f 75//75 78//78 46//46
f 5//5 20//20 79//79
f 43//43 80//80 81//81
f 81//81 80//80 21//21
f 23//23 83//83 24//24
f 83//83 23//23 82//82
f 14//14 66//66 85//85
f 66//66 15//15 84//84
f 85//85 84//84 17//17
f 12//12 86//86 87//87
f 151//151 86//86 155//155
f 87//87 151//151 25//25
f 88//88 43//43 89//89
f 90//90 89//89 27//27
f 16//16 67//67 83//83
f 67//67 14//14 149//149
f 83//83 149//149 24//24
f 5//5 79//79 92//92
f 92//92 148//148 91//91
f 92//92 91//91 3//3
f 148//148 47//47 91//91
f 47//47 1//1 93//93
f 91//91 93//93 28//28
f 28//28 3//3 91//91
f 31//31 30//30 94//94
f 35//35 96//96 97//97
f 96//96 37//37 99//99
f 12//12 98//98 86//86
f 86//86 98//98 100//100
f 46//46 101//101 103//103
f 101//101 45//45 102//102
f 103//103 102//102 32//32
f 45//45 104//104 102//102
f 104//104 44//44 105//105
f 102//102 105//105 32//32
f 44//44 106//106 105//105
f 106//106 31//31 94//94
f 105//105 94//94 32//32
f 4//4 64//64 107//107
f 64//64 12//12 87//87
f 107//107 87//87 25//25
f 15//15 108//108 84//84
f 108//108 10//10 143//143
f 84//84 143//143 17//17
f 109//109 21//21 80//80
f 26//26 81//81 21//21
f 42//42 110//110 112//112
f 110//110 36//36 111//111
f 112//112 111//111 2//2
f 77//77 113//113 114//114
f 25//25 151//151 115//115
f 115//115 99//99 37//37
f 144//144 51//51 116//116
f 51//51 45//45 101//101
f 116//116 101//101 46//46
f 37//37 117//117 115//115
f 117//117 1//1 48//48
f 115//115 48//48 25//25
f 19//19 76//76 118//118
f 76//76 46//46 103//103
f 118//118 103//103 32//32
f 95//95 33//33 119//119
f 118//118 119//119 19//19
f 7//7 120//120 122//122
f 120//120 90//90 121//121
f 122//122 121//121 40//40
f 8//8 6//6 11//11
f 41//41 123//123 124//124
f 123//123 31//31 106//106
f 124//124 106//106 44//44
f 98//98 13//13 125//125
f 100//100 125//125 9//9
f 34//34 126//126 128//128
f 126//126 146//146 127//127
f 128//128 127//127 38//38
f 35//35 97//97 70//70
f 97//97 9//9 129//129
f 70//70 129//129 15//15
f 9//9 130//130 129//129
f 130//130 10//10 108//108
f 129//129 108//108 15//15
f 38//38 131//131 132//132
f 131//131 60//60 59//59
f 36//36 133//133 134//134
f 133//133 109//109 80//80
f 134//134 80//80 43//43
f 43//43 135//135 134//134
f 135//135 2//2 111//111
f 134//134 111//111 36//36
f 44//44 136//136 124//124
f 136//136 38//38 132//132
f 124//124 132//132 41//41
f 22//22 137//137 149//149
f 137//137 24//24 149//149
f 114//114 22//22 149//149
f 8//8 11//11 150//150
f 90//90 120//120 55//55
f 2//2 153//153 139//139
f 139//139 138//138 146//146
f 36//36 110//110 63//63
f 110//110 42//42 61//61
f 63//63 61//61 12//12
f 109//109 133//133 140//140
f 133//133 36//36 65//65
f 140//140 65//65 4//4
f 20//20 141//141 140//140
f 141//141 21//21 109//109
f 140//140 4//4 79//79
f 140//140 79//79 20//20
f 9//9 125//125 130//130
f 125//125 13//13 73//73
f 130//130 73//73 10//10
f 2//2 135//135 57//57
f 135//135 43//43 88//88
f 57//57 88//88 55//55
f 43//43 81//81 89//89
f 81//81 26//26 142//142
f 89//89 142//142 27//27
f 144//144 143//143 52//52
f 143//143 10//10 72//72
f 52//52 72//72 34//34
f 143//143 144//144 17//17
f 44//44 104//104 136//136
f 104//104 45//45 145//145
f 136//136 145//145 38//38
f 38//38 145//145 128//128
f 145//145 45//45 50//50
f 128//128 50//50 34//34
f 146//146 138//138 127//127
f 127//127 131//131 38//38
f 146//146 42//42 112//112
f 139//139 112//112 2//2
f 25//25 154//154 107//107
f 154//154 148//148 49//49
f 107//107 154//154 49//49
f 46//46 78//78 116//116
f 78//78 17//17 144//144
f 14//14 85//85 114//114
f 85//85 17//17 77//77
f 113//113 77//77 18//18
f 42//42 147//147 62//62
f 147//147 34//34 71//71
f 62//62 71//71 13//13
f 42//42 146//146 147//147
f 147//147 126//126 34//34
f 120//120 7//7 55//55
f 90//90 27//27 121//121
f 88//88 89//89 90//90
f 96//96 152//152 97//97
f 55//55 88//88 90//90
f 97//97 152//152 9//9
f 114//114 149//149 14//14
f 138//138 60//60 131//131
f 60//60 150//150 59//59
f 151//151 99//99 115//115
f 150//150 58//58 59//59
f 155//155 86//86 100//100
f 8//8 150//150 60//60
f 49//49 148//148 92//92
f 56//56 8//8 60//60
f 138//138 56//56 60//60
f 79//79 49//49 92//92
f 152//152 155//155 9//9
f 54//54 153//153 57//57
f 57//57 153//153 2//2
f 100//100 98//98 125//125
f 153//153 56//56 139//139
f 107//107 49//49 4//4
f 47//47 154//154 48//48
f 151//151 155//155 99//99
f 155//155 100//100 9//9
f 99//99 155//155 152//152
f 95//95 119//119 118//118
f 32//32 95//95 118//118
f 96//96 99//99 152//152
f 132//132 59//59 41//41
f 95//95 94//94 30//30
f 95//95 30//30 33//33
# 265 faces, 0 coords texture

# End of File
