####
#
# OBJ File Generated by Meshlab
#
####
# Object 1107_C178_M_7.obj
#
# Vertices: 157
# Faces: 268
#
####
vn -5.768282 -2.490889 0.015148
v 100.975422 74.355527 -45.912169
vn -5.783135 -2.456093 0.018536
v 100.261082 76.016582 -46.536278
vn -2.897609 -1.213732 -0.001500
v 100.037000 76.543000 -50.000000
vn -5.784852 -2.451953 -0.002917
v 100.228507 76.084429 -48.472755
vn -5.788010 -2.444541 0.033551
v 100.319408 75.904236 -44.498290
vn -5.771135 -2.484082 0.012429
v 101.076389 74.127458 -43.873760
vn -2.872442 -1.272252 -0.007643
v 102.116000 71.717100 -50.000000
vn -1.425976 -0.644983 0.005295
v 102.794000 70.199000 -50.000000
vn -5.811599 -2.387402 -0.002954
v 99.250496 78.461547 -39.568194
vn -5.763020 -2.502362 0.034094
v 101.258712 73.717820 -41.907570
vn -5.746573 -2.540577 0.016130
v 101.696973 72.714541 -45.365357
vn -5.772924 -2.480244 0.008091
v 100.899851 74.529370 -48.001880
vn -5.777542 -2.469048 -0.024843
v 100.617393 75.223114 -40.631973
vn -2.902160 -1.201309 -0.030881
v 100.003000 76.609600 -38.000000
vn -2.884292 -1.245007 0.005309
v 101.426000 73.287500 -50.000000
vn -5.759606 -2.510619 0.026992
v 101.559261 72.993965 -47.398541
vn -5.789633 -2.440622 0.038256
v 99.628640 77.576152 -43.272840
vn -5.794250 -2.429535 -0.025045
v 99.708624 77.402361 -41.078497
vn -5.791606 -2.436196 0.020450
v 100.436337 75.658955 -42.553673
vn -2.872376 -1.303141 -0.004178
v 102.828000 70.257100 -40.427600
vn -2.852277 -1.284966 -0.016817
v 102.822000 70.246000 -39.611200
vn -2.861528 -1.295913 -0.018859
v 102.242000 71.509800 -38.000000
vn -2.856883 -1.337433 0.033394
v 102.815000 70.234400 -47.793700
vn -1.426999 -0.665175 0.008061
v 102.827000 70.254800 -38.000000
vn -5.730928 -2.574300 0.028266
v 102.144393 71.644584 -48.641709
vn -2.850861 -1.321536 0.009102
v 102.818000 70.240000 -45.635800
vn -5.791704 -2.435976 -0.007691
v 99.561070 77.678155 -47.395715
vn -2.888505 -1.235368 0.000879
v 100.864000 74.606500 -50.000000
vn -2.911427 -1.180152 -0.017250
v 99.846100 77.000700 -38.000000
vn -2.900297 -1.207284 -0.009711
v 99.331200 78.257000 -50.000000
vn -2.907066 -1.208386 0.000869
v 98.866300 79.395400 -40.163100
vn -2.892307 -1.210982 -0.013664
v 98.857600 79.380200 -48.809300
vn -1.447731 -0.607356 -0.002949
v 98.858400 79.381600 -50.000000
vn -2.889892 -1.231229 0.026931
v 98.856100 79.377700 -44.026700
vn -5.785096 -2.451380 0.038636
v 99.546169 77.733764 -45.288309
vn -1.450433 -0.584006 0.011269
v 98.878800 79.417100 -38.000000
vn -2.887015 -1.221930 0.014451
v 98.865600 79.394200 -42.373200
vn -2.899734 -1.240853 0.003749
v 98.843100 79.355300 -46.247100
vn -2.875837 -1.264188 -0.013735
v 100.842000 74.660700 -38.000000
vn -2.853638 -1.308460 0.011781
v 102.819000 70.243600 -42.991400
vn -2.888378 -1.238615 0.026975
v 98.844600 79.357900 -45.940400
vn -5.744033 -2.546088 -0.007648
v 101.503281 73.206529 -39.754321
vn -2.869633 -1.278476 -0.019716
v 101.177000 73.910400 -38.000000
vn -5.734314 -2.567160 0.012777
v 101.866526 72.316293 -43.364992
vn -5.755864 -2.518802 -0.036377
v 100.782008 74.804757 -38.698155
vn -5.726809 -2.584375 0.047078
v 102.077461 71.887206 -41.424731
vn -5.805792 -2.402292 -0.011255
v 99.672387 77.425985 -49.332455
vn -5.785992 -2.449518 -0.009391
v 100.221192 76.106907 -49.278763
vn -5.801136 -2.413521 -0.008720
v 99.941482 76.776121 -48.850738
vn -5.750398 -2.531565 0.035686
v 101.566591 73.007385 -42.618906
vn -5.774799 -2.475527 0.020050
v 101.160367 73.938705 -42.886502
vn -5.758924 -2.512579 -0.001304
v 101.468948 73.227385 -43.602006
vn -5.786692 -2.447870 0.010729
v 100.849524 74.683827 -42.227390
vn -5.787306 -2.446298 0.033356
v 100.762845 74.877176 -43.196916
vn -2.868250 -1.281685 -0.005450
v 102.455000 70.958050 -50.000000
vn -5.772980 -2.480142 0.002403
v 100.936902 74.444229 -46.954929
vn -5.774185 -2.477242 0.015875
v 100.620596 75.180339 -46.209636
vn -5.770980 -2.484784 0.005898
v 100.592393 75.245056 -47.236013
vn -5.722796 -2.593027 0.035676
v 102.464813 70.933136 -49.226819
vn -5.744847 -2.544495 -0.013803
v 102.121528 71.701506 -49.481829
vn -5.750261 -2.531982 0.041642
v 101.629310 72.851528 -46.381808
vn -5.741330 -2.552078 0.048385
v 101.923117 72.177780 -47.084140
vn -5.735336 -2.565535 0.043358
v 102.000015 72.019576 -46.110690
vn -5.729374 -2.579085 0.012269
v 102.072652 71.876324 -45.132000
vn -5.774717 -2.476068 0.009635
v 101.224393 73.773538 -47.715091
vn -5.777279 -2.470076 0.013009
v 101.171154 73.890818 -48.777832
vn -5.771556 -2.483359 0.014243
v 101.396404 73.361643 -49.250391
vn -5.791533 -2.436421 0.018974
v 99.665251 77.498594 -42.267147
vn -5.794616 -2.428923 0.032161
v 100.030019 76.624133 -42.888221
vn -5.796048 -2.425686 0.008534
v 100.088267 76.494018 -41.886276
vn -5.795235 -2.427267 0.045119
v 99.978444 76.729914 -43.868725
vn -5.791145 -2.437056 0.040768
v 100.370891 75.798447 -43.518443
vn -5.727729 -2.582442 -0.013362
v 102.433150 71.126295 -40.050506
vn -5.740599 -2.553679 -0.051317
v 102.082222 71.883166 -38.691428
vn -2.847434 -1.303889 0.044339
v 102.799250 70.207925 -48.952900
vn -5.695604 -2.651532 0.080431
v 102.493831 70.904445 -48.272428
vn -2.855260 -1.310335 0.009351
v 102.824500 70.250400 -38.805600
vn -2.850180 -1.321380 0.000466
v 102.534500 70.882300 -38.000000
vn -5.758557 -2.513408 0.002641
v 101.755181 72.535635 -49.138452
vn -2.876476 -1.263118 -0.004528
v 101.771000 72.502300 -50.000000
vn -5.779256 -2.465377 0.019437
v 100.655686 75.110645 -45.181286
vn -5.784410 -2.453093 0.030453
v 100.283909 75.975363 -45.513410
vn -5.781050 -2.461076 0.011103
v 100.244800 76.050094 -47.531079
vn -5.793549 -2.431632 0.018252
v 99.909161 76.852004 -46.923759
vn -5.796581 -2.424391 -0.003037
v 99.913096 76.837369 -47.900342
vn -2.889774 -1.232388 0.005451
v 101.145000 73.947000 -50.000000
vn -5.774096 -2.477501 0.008373
v 100.868739 74.598393 -49.036543
vn -2.915765 -1.169526 0.011166
v 99.362450 78.208900 -38.000000
vn -5.827495 -2.348774 0.042131
v 99.204094 78.595502 -38.709876
vn -2.854475 -1.312085 0.002906
v 102.818500 70.241800 -44.313600
vn -5.709274 -2.623464 0.006322
v 102.520142 70.891807 -43.908518
vn -5.713311 -2.614585 0.011909
v 102.462892 71.014162 -44.874383
vn -2.889130 -1.233884 -0.008076
v 100.450500 75.574750 -50.000000
vn -5.773698 -2.478416 -0.004198
v 100.531269 75.380229 -49.169459
vn -5.797684 -2.421736 -0.019904
v 99.130195 78.729507 -49.130071
vn -2.904938 -1.196211 -0.004408
v 99.684100 77.400000 -50.000000
vn -2.911964 -1.178677 0.028078
v 98.872550 79.406250 -39.081550
vn -2.891722 -1.227492 0.028515
v 98.860850 79.385950 -43.199950
vn -5.782119 -2.458258 0.049337
v 99.231884 78.500962 -43.684032
vn -5.786622 -2.447786 0.037635
v 99.256755 78.463227 -42.757196
vn -2.892850 -1.225162 0.001581
v 98.865950 79.394800 -41.268150
vn -5.788219 -2.444323 0.010615
v 99.273314 78.432317 -41.744835
vn -5.792273 -2.434298 -0.028556
v 99.264760 78.453934 -40.646197
vn -5.799819 -2.415936 -0.061250
v 99.574500 77.692750 -39.944680
vn -5.793331 -2.432065 0.027807
v 99.909490 76.861186 -45.901526
vn -5.783150 -2.456059 0.023670
v 99.547053 77.721235 -46.342313
vn -2.857345 -1.305717 0.016906
v 102.823500 70.250350 -41.709500
vn -5.715909 -2.608743 0.035316
v 102.454338 71.066826 -41.043348
vn -5.713238 -2.614540 0.038430
v 102.417503 71.133332 -42.132433
vn -5.793525 -2.431427 0.039732
v 99.931868 76.821446 -44.873894
vn -2.894916 -1.219947 -0.028239
v 98.850350 79.367750 -47.528200
vn -5.780743 -2.461516 -0.017898
v 99.189084 78.548790 -46.873744
vn -5.769471 -2.488282 0.008369
v 100.564316 75.306427 -48.232467
vn -5.739312 -2.556694 0.044835
v 101.788259 72.550850 -40.681145
vn -5.751483 -2.528849 0.053987
v 101.367713 73.490859 -40.906111
vn -5.740434 -2.553992 0.054197
v 101.675456 72.785310 -41.649533
vn -5.753916 -2.523707 0.031415
v 101.842134 72.340870 -48.068692
vn -5.715112 -2.609124 0.052256
v 102.203393 71.531899 -47.703897
vn -5.727384 -2.583267 0.042487
v 102.144215 71.754471 -40.598111
vn -5.685173 -2.675033 0.033651
v 102.531471 70.840825 -47.428107
vn -5.742070 -2.550434 -0.048148
v 101.776656 72.575921 -38.954856
vn -5.737423 -2.560980 -0.011285
v 101.998995 72.091471 -39.726395
vn -5.778846 -2.465887 0.051310
v 99.199836 78.559381 -44.657918
vn -5.788009 -2.444380 0.045479
v 99.583950 77.663545 -44.262397
vn -2.871483 -1.274225 -0.023187
v 101.709500 72.710100 -38.000000
vn -5.765265 -2.497736 0.023317
v 101.276626 73.652906 -46.670148
vn -5.754417 -2.522721 0.023052
v 101.334727 73.538173 -45.631403
vn -5.751780 -2.527978 0.000493
v 101.048223 74.242821 -40.255547
vn -5.772928 -2.479731 0.025648
v 100.942607 74.460716 -41.258206
vn -5.800999 -2.413793 -0.020097
v 99.610045 77.570067 -48.372750
vn -5.759708 -2.509614 -0.054736
v 100.703705 75.001698 -39.663491
vn -5.788504 -2.442793 -0.063390
v 100.302977 75.948990 -39.907941
vn -5.754907 -2.521768 -0.005534
v 101.392552 73.407649 -44.607482
vn -5.767267 -2.493093 0.006545
v 101.018887 74.257454 -44.882686
vn -5.783808 -2.454616 0.024656
v 100.698252 75.014614 -44.173419
vn -5.739208 -2.556828 -0.049509
v 101.126611 74.040546 -39.157821
vn -2.886271 -1.240497 -0.014464
v 100.422500 75.635150 -38.000000
vn -5.779258 -2.464992 -0.045904
v 100.376670 75.753702 -38.915862
vn -2.887786 -1.236691 0.029853
v 98.850350 79.367800 -44.983550
vn -5.796036 -2.424934 -0.059599
v 100.019153 76.601397 -39.044784
vn -5.710811 -2.619597 0.035995
v 102.409000 71.117331 -45.902482
vn -2.845902 -1.330543 0.009913
v 102.816500 70.237200 -46.714750
vn -5.773197 -2.479226 0.041874
v 99.147161 78.656535 -45.748070
vn -5.796177 -2.424832 -0.039211
v 100.187024 76.256015 -40.881284
vn -5.791874 -2.435615 -0.006450
v 100.519148 75.460392 -41.589935
vn -5.725774 -2.586514 0.050654
v 101.983204 72.076521 -42.392143
vn -5.743619 -2.547085 -0.019016
v 101.769360 72.543691 -44.358293
vn -5.717899 -2.604473 -0.009051
v 102.156551 71.682616 -44.135111
vn -5.710736 -2.620107 0.024832
v 102.300271 71.372413 -43.156891
vn -5.797298 -2.421773 -0.067766
v 99.890209 76.934599 -39.958775
vn -5.726861 -2.584362 -0.032938
v 102.418236 71.138080 -39.094627
vn -5.801637 -2.412232 -0.023353
v 99.392811 78.097091 -48.957592
vn -5.709482 -2.622234 0.040940
v 102.319836 71.297593 -46.812248
vn -5.741656 -2.551437 -0.044141
v 101.480708 73.238778 -38.719770
vn -5.769044 -2.489189 0.013583
v 101.479812 73.172804 -48.365968
vn -5.794786 -2.428339 -0.040403
v 99.196089 78.560896 -48.114880
vn -5.813570 -2.382830 -0.017877
v 99.611877 77.579930 -38.964337
# 157 vertices, 0 vertices normals

f 47//47 3//3 49//49
f 50//50 51//51 52//52
f 53//53 54//54 51//51
f 60//60 55//55 59//59
f 56//56 57//57 58//58
f 61//61 62//62 63//63
f 141//141 64//64 63//63
f 65//65 66//66 155//155
f 68//68 69//69 70//70
f 71//71 72//72 69//69
f 21//21 151//151 73//73
f 75//75 76//76 59//59
f 77//77 78//78 151//151
f 79//79 80//80 60//60
f 57//57 81//81 82//82
f 83//83 84//84 85//85
f 86//86 66//66 87//87
f 90//90 91//91 92//92
f 30//30 95//95 33//33
f 93//93 94//94 48//48
f 3//3 47//47 96//96
f 97//97 9//9 89//89
f 98//98 99//99 100//100
f 101//101 102//102 103//103
f 104//104 9//9 103//103
f 84//84 105//105 106//106
f 107//107 108//108 109//109
f 110//110 105//105 82//82
f 87//87 113//113 94//94
f 58//58 83//83 113//113
f 114//114 115//115 116//116
f 79//79 117//117 155//155
f 117//117 118//118 62//62
f 102//102 100//100 68//68
f 108//108 73//73 119//119
f 76//76 120//120 118//118
f 74//74 121//121 122//122
f 99//99 123//123 124//124
f 56//56 65//65 126//126
f 127//127 126//126 61//61
f 115//115 128//128 129//129
f 95//95 152//152 156//156
f 119//119 122//122 114//114
f 131//131 138//138 132//132
f 127//127 133//133 134//134
f 135//135 81//81 134//134
f 14//14 138//138 137//137
f 139//139 143//143 123//123
f 85//85 130//130 49//49
f 136//136 43//43 45//45
f 135//135 54//54 72//72
f 144//144 70//70 145//145
f 53//53 129//129 145//145
f 146//146 116//116 50//50
f 124//124 110//110 71//71
f 147//147 64//64 148//148
f 106//106 143//143 112//112
f 149//149 148//148 91//91
f 147//147 52//52 133//133
f 132//132 150//150 144//144
f 131//131 128//128 136//136
f 146//146 149//149 109//109
f 49//49 3//3 48//48
f 49//49 48//48 4//4
f 44//44 50//50 52//52
f 50//50 10//10 51//51
f 52//52 51//51 6//6
f 10//10 53//53 51//51
f 53//53 19//19 54//54
f 51//51 54//54 6//6
f 55//55 8//8 59//59
f 75//75 59//59 8//8
f 12//12 56//56 58//58
f 56//56 1//1 57//57
f 58//58 57//57 2//2
f 7//7 55//55 60//60
f 60//60 59//59 25//25
f 11//11 61//61 63//63
f 61//61 16//16 62//62
f 63//63 62//62 153//153
f 153//153 141//141 63//63
f 141//141 92//92 64//64
f 63//63 64//64 11//11
f 65//65 12//12 66//66
f 18//18 68//68 70//70
f 68//68 17//17 69//69
f 70//70 69//69 19//19
f 17//17 71//71 69//69
f 71//71 5//5 72//72
f 69//69 72//72 19//19
f 20//20 21//21 73//73
f 22//22 151//151 78//78
f 75//75 23//23 76//76
f 59//59 76//76 25//25
f 21//21 77//77 151//151
f 77//77 24//24 78//78
f 22//22 74//74 151//151
f 25//25 79//79 60//60
f 79//79 15//15 80//80
f 60//60 80//80 7//7
f 2//2 57//57 82//82
f 57//57 1//1 81//81
f 82//82 81//81 5//5
f 4//4 83//83 85//85
f 83//83 2//2 84//84
f 85//85 84//84 27//27
f 28//28 86//86 87//87
f 86//86 15//15 67//67
f 87//87 66//66 12//12
f 29//29 88//88 157//157
f 88//88 36//36 89//89
f 26//26 90//90 92//92
f 90//90 40//40 91//91
f 95//95 32//32 33//33
f 3//3 93//93 48//48
f 93//93 28//28 94//94
f 48//48 94//94 4//4
f 47//47 152//152 30//30
f 30//30 96//96 47//47
f 36//36 97//97 89//89
f 97//97 31//31 9//9
f 37//37 98//98 100//100
f 98//98 34//34 99//99
f 100//100 99//99 17//17
f 31//31 101//101 103//103
f 101//101 37//37 102//102
f 103//103 102//102 18//18
f 18//18 104//104 103//103
f 103//103 9//9 31//31
f 27//27 84//84 106//106
f 84//84 2//2 105//105
f 106//106 105//105 35//35
f 40//40 107//107 109//109
f 107//107 20//20 108//108
f 109//109 108//108 46//46
f 5//5 110//110 82//82
f 110//110 35//35 105//105
f 82//82 105//105 2//2
f 38//38 111//111 112//112
f 111//111 32//32 156//156
f 28//28 87//87 94//94
f 87//87 12//12 113//113
f 94//94 113//113 4//4
f 12//12 58//58 113//113
f 58//58 2//2 83//83
f 113//113 83//83 4//4
f 46//46 114//114 116//116
f 114//114 42//42 115//115
f 116//116 115//115 10//10
f 15//15 79//79 67//67
f 79//79 25//25 117//117
f 67//67 79//79 155//155
f 16//16 117//117 62//62
f 117//117 25//25 118//118
f 62//62 118//118 153//153
f 18//18 102//102 68//68
f 102//102 37//37 100//100
f 68//68 100//100 17//17
f 46//46 108//108 119//119
f 108//108 20//20 73//73
f 25//25 76//76 118//118
f 76//76 23//23 120//120
f 118//118 120//120 153//153
f 73//73 151//151 122//122
f 122//122 121//121 42//42
f 17//17 99//99 124//124
f 99//99 34//34 123//123
f 124//124 123//123 35//35
f 22//22 125//125 74//74
f 125//125 43//43 154//154
f 121//121 154//154 42//42
f 1//1 56//56 126//126
f 56//56 12//12 65//65
f 126//126 65//65 16//16
f 11//11 127//127 61//61
f 127//127 1//1 126//126
f 61//61 126//126 16//16
f 10//10 115//115 129//129
f 115//115 42//42 128//128
f 129//129 128//128 13//13
f 46//46 119//119 114//114
f 119//119 73//73 122//122
f 114//114 122//122 42//42
f 13//13 131//131 132//132
f 131//131 45//45 138//138
f 132//132 138//138 140//140
f 1//1 127//127 134//134
f 127//127 11//11 133//133
f 134//134 133//133 6//6
f 6//6 135//135 134//134
f 135//135 5//5 81//81
f 134//134 81//81 1//1
f 43//43 39//39 45//45
f 45//45 137//137 138//138
f 137//137 45//45 39//39
f 34//34 139//139 123//123
f 139//139 41//41 143//143
f 123//123 143//143 35//35
f 14//14 29//29 140//140
f 157//157 140//140 29//29
f 141//141 26//26 92//92
f 26//26 141//141 142//142
f 142//142 153//153 120//120
f 142//142 120//120 23//23
f 4//4 85//85 49//49
f 85//85 27//27 130//130
f 49//49 130//130 47//47
f 138//138 14//14 140//140
f 143//143 41//41 38//38
f 5//5 135//135 72//72
f 135//135 6//6 54//54
f 72//72 54//54 19//19
f 13//13 144//144 145//145
f 144//144 18//18 70//70
f 145//145 70//70 19//19
f 19//19 53//53 145//145
f 53//53 10//10 129//129
f 145//145 129//129 13//13
f 44//44 146//146 50//50
f 146//146 46//46 116//116
f 50//50 116//116 10//10
f 17//17 124//124 71//71
f 124//124 35//35 110//110
f 71//71 110//110 5//5
f 44//44 147//147 148//148
f 147//147 11//11 64//64
f 148//148 64//64 92//92
f 27//27 106//106 112//112
f 106//106 35//35 143//143
f 112//112 143//143 38//38
f 40//40 149//149 91//91
f 149//149 44//44 148//148
f 91//91 148//148 92//92
f 11//11 147//147 133//133
f 147//147 44//44 52//52
f 133//133 52//52 6//6
f 18//18 150//150 104//104
f 13//13 132//132 144//144
f 132//132 140//140 150//150
f 144//144 150//150 18//18
f 45//45 131//131 136//136
f 131//131 13//13 128//128
f 136//136 128//128 42//42
f 46//46 146//146 109//109
f 146//146 44//44 149//149
f 109//109 149//149 40//40
f 152//152 130//130 156//156
f 141//141 153//153 142//142
f 152//152 95//95 30//30
f 130//130 152//152 47//47
f 125//125 154//154 121//121
f 154//154 43//43 136//136
f 154//154 136//136 42//42
f 155//155 66//66 67//67
f 16//16 65//65 155//155
f 155//155 117//117 16//16
f 74//74 125//125 121//121
f 111//111 156//156 112//112
f 112//112 156//156 27//27
f 151//151 74//74 122//122
f 156//156 130//130 27//27
f 67//67 66//66 86//86
f 157//157 88//88 89//89
f 9//9 157//157 89//89
f 156//156 32//32 95//95
f 150//150 157//157 104//104
f 157//157 150//150 140//140
f 104//104 157//157 9//9
# 268 faces, 0 coords texture

# End of File
