####
#
# OBJ File Generated by Meshlab
#
####
# Object 1150_C184_M_2.obj
#
# Vertices: 160
# Faces: 275
#
####
vn 2.952040 -1.046524 0.007986
v -100.162000 81.639700 42.907900
vn 5.895899 -2.171032 0.023399
v -100.711189 80.090586 42.573852
vn 5.812922 -2.384614 0.040800
v -103.030757 74.195210 41.920046
vn 2.898566 -1.224881 0.023705
v -103.913000 72.136300 44.536700
vn 2.899011 -1.222742 0.008257
v -103.915000 72.140900 45.382400
vn 5.814422 -2.380746 0.037374
v -102.725952 74.973314 45.361529
vn 5.799894 -2.416440 0.010355
v -103.301601 73.602411 46.471499
vn 5.898892 -2.163447 -0.007902
v -100.474755 80.744960 46.708964
vn 5.864991 -2.253711 0.005572
v -101.125064 79.013368 47.093975
vn 5.835097 -2.329932 0.012576
v -101.816902 77.249549 47.600921
vn 5.846567 -2.300874 0.019874
v -101.619034 77.733872 45.606516
vn 2.915162 -1.171045 0.004728
v -102.587000 75.355500 50.000000
vn 2.914984 -1.171514 0.004585
v -102.151000 76.434200 50.000000
vn 5.882731 -2.207091 0.003303
v -100.837394 79.773085 45.067032
vn 5.905790 -2.144620 -0.002657
v -100.471926 80.762012 44.595288
vn 2.897468 -1.190538 0.034423
v -103.876000 72.071900 39.917500
vn 2.907449 -1.188470 0.020461
v -103.496000 72.947500 38.000000
vn 2.927939 -1.138482 -0.000756
v -101.235000 78.732600 50.000000
vn 2.960933 -1.048504 0.013249
v -100.403000 80.877600 38.000000
vn 2.961568 -1.073732 0.013287
v -100.147000 81.613800 39.857900
vn 2.931506 -1.127445 0.033506
v -101.301000 78.442500 38.000000
vn 2.948652 -1.074274 -0.008376
v -100.154000 81.626000 47.597900
vn 2.957040 -1.063784 -0.006715
v -100.158000 81.631400 45.352700
vn 5.803076 -2.408658 -0.007610
v -103.281992 73.639600 48.623628
vn 2.907966 -1.188388 -0.008897
v -103.090000 74.098100 50.000000
vn 1.447612 -0.608312 -0.000395
v -103.913000 72.137000 50.000000
vn 2.896514 -1.216224 -0.003390
v -103.914000 72.138900 47.587000
vn 1.484203 -0.502234 -0.002297
v -100.153000 81.623500 38.000000
vn 1.476146 -0.551216 -0.003888
v -100.145000 81.610000 50.000000
vn 5.864758 -2.252386 0.015801
v -101.343412 78.352240 39.398055
vn 2.916569 -1.167505 0.006791
v -102.765000 74.812300 38.000000
vn 2.904898 -1.198002 0.035709
v -103.894000 72.102200 41.969500
vn 1.442667 -0.617704 0.004098
v -103.873000 72.067600 38.000000
vn 2.954324 -1.073930 0.015914
v -100.150000 81.618800 40.613800
vn 5.834165 -2.331966 0.033259
v -102.145634 76.387035 44.262688
vn 5.859578 -2.267739 0.023378
v -101.470701 78.103503 43.414838
vn 5.895552 -2.172605 0.023402
v -100.738532 80.008345 40.446818
vn 2.937641 -1.113488 0.004668
v -100.653000 80.264200 50.000000
vn 2.913883 -1.174243 0.004337
v -102.141000 76.354900 38.000000
vn 5.824195 -2.356584 0.051975
v -103.273673 73.550534 39.973269
vn 5.832393 -2.336641 0.024807
v -102.172322 76.299563 42.000877
vn 5.857283 -2.273617 0.004667
v -101.227768 78.752759 49.166275
vn 5.822126 -2.362420 0.009573
v -102.593910 75.333101 47.728820
vn 5.794813 -2.428357 0.039221
v -103.378854 73.397021 44.227081
vn 5.826260 -2.352117 0.018330
v -102.547402 75.352210 39.988173
vn 5.865574 -2.251378 0.034706
v -101.360710 78.343417 41.263798
vn 2.958490 -1.056835 -0.005957
v -100.160000 81.635550 44.130300
vn 5.914549 -2.120414 0.004259
v -100.465596 80.781210 43.459420
vn 5.919885 -2.105243 0.032791
v -100.398691 80.965457 42.533468
vn 5.792580 -2.433287 0.058548
v -103.677528 72.681837 44.041164
vn 5.787565 -2.445709 0.031044
v -103.645661 72.772436 44.880013
vn 5.891819 -2.182605 -0.009361
v -100.572600 80.476012 47.594871
vn 5.874623 -2.228667 0.000174
v -100.878777 79.661919 47.816354
vn 5.881152 -2.211423 -0.000765
v -100.808248 79.852158 46.864603
vn 5.822365 -2.361877 0.003455
v -102.019909 76.748221 46.942584
vn 5.826879 -2.350272 0.032957
v -102.031173 76.718697 45.990294
vn 5.836926 -2.325243 0.014860
v -101.713075 77.503755 46.633156
vn 5.822839 -2.360705 0.005500
v -102.187741 76.335063 47.723491
vn 5.828919 -2.345495 0.016118
v -102.335841 75.969093 46.815195
vn 5.857689 -2.272708 0.010924
v -101.365761 78.388434 46.344159
vn 5.850390 -2.291505 0.014168
v -101.466570 78.142559 47.362923
vn 5.826359 -2.351973 0.010610
v -102.200375 76.308705 49.006497
vn 5.826038 -2.352796 0.003919
v -102.497745 75.574632 49.243334
vn 5.887055 -2.195181 0.012730
v -100.794527 79.877545 43.830288
vn 5.887014 -2.195617 -0.003164
v -100.723931 80.073321 46.023152
vn 5.798332 -2.419123 0.043021
v -103.678993 72.527126 38.967171
vn 5.834897 -2.329735 0.054969
v -103.367803 73.292603 38.980055
vn 5.817611 -2.372327 0.076241
v -103.604060 72.739943 39.957652
vn 5.919545 -2.105231 0.014444
v -100.333856 81.084937 38.895862
vn 5.898240 -2.165151 0.035813
v -100.551323 80.508671 39.720594
vn 5.896151 -2.170755 0.040476
v -100.687571 80.121784 38.836283
vn 5.847528 -2.298603 0.031238
v -101.799686 77.257425 42.708652
vn 5.849866 -2.292876 0.013388
v -101.821436 77.210346 43.812784
vn 5.837623 -2.323524 0.020625
v -102.145582 76.377131 43.197330
vn 2.954871 -1.066908 -0.007112
v -100.156000 81.628700 46.475300
vn 5.902705 -2.153097 -0.011605
v -100.461061 80.788082 45.695250
vn 2.947353 -1.087401 -0.016588
v -100.149500 81.618000 48.798950
vn 5.885063 -2.200794 -0.010210
v -100.408579 80.908524 49.378544
vn 2.897231 -1.214767 0.000260
v -103.501500 73.117550 50.000000
vn 5.793633 -2.431501 -0.000169
v -103.511621 73.092669 49.228904
vn 5.792414 -2.434397 -0.007294
v -103.582640 72.925687 48.144495
vn 2.895860 -1.218029 -0.002138
v -103.913500 72.137950 48.793500
vn 2.970542 -1.022382 -0.014931
v -100.150000 81.618650 38.928950
vn 5.871011 -2.238208 0.008525
v -100.893276 79.629258 48.942633
vn 2.912467 -1.177768 0.001520
v -102.453000 75.583600 38.000000
vn 5.826465 -2.351747 0.001257
v -102.668125 75.052548 39.000534
vn 2.897382 -1.214404 -0.002440
v -103.914500 72.139900 46.484700
vn 5.791035 -2.437607 0.009733
v -103.621130 72.840986 45.920473
vn 5.794017 -2.430579 -0.007822
v -103.601334 72.885959 47.027239
vn 5.793068 -2.432698 0.023387
v -103.339192 73.502175 45.339727
vn 5.805041 -2.403402 0.058878
v -103.586516 72.857610 42.436538
vn 5.803978 -2.406294 0.042337
v -103.244552 73.694778 42.816242
vn 2.915192 -1.170999 -0.003734
v -102.838500 74.726800 50.000000
vn 5.812004 -2.386900 -0.007717
v -103.138556 73.984271 49.333813
vn 2.888691 -1.234914 0.007289
v -103.874500 72.069750 38.958750
vn 5.838665 -2.320908 0.021198
v -103.024965 74.167315 38.986773
vn 2.924829 -1.146531 0.021138
v -103.130500 73.879900 38.000000
vn 2.959482 -1.053781 0.024766
v -100.156000 81.629250 41.760850
vn 5.909688 -2.133558 0.028139
v -100.431764 80.851365 41.605634
vn 5.839598 -2.318898 0.013306
v -101.545344 77.951753 49.393520
vn 5.843601 -2.308736 0.014154
v -101.574322 77.869418 48.441469
vn 5.859196 -2.268755 0.005686
v -101.193775 78.837889 48.122294
vn 5.881551 -2.210000 0.030874
v -101.054493 79.167384 41.925694
vn 5.873348 -2.231772 0.029040
v -101.103880 79.063069 43.043557
vn 5.859927 -2.266154 0.047418
v -101.419064 78.214072 42.328892
vn 5.812240 -2.385454 0.075616
v -103.553483 72.899901 40.976072
vn 5.817378 -2.373249 0.059600
v -103.171280 73.826198 40.960499
vn 5.893905 -2.177122 0.008313
v -100.731382 80.031570 41.369909
vn 5.900468 -2.159249 0.019682
v -100.455749 80.782363 40.602535
vn 5.869967 -2.240899 0.011812
v -101.169321 78.893947 44.187462
vn 5.806633 -2.400003 -0.012297
v -103.271170 73.669758 47.593646
vn 5.872328 -2.234650 -0.001615
v -101.023867 79.278012 46.091868
vn 5.821217 -2.364665 -0.009050
v -102.964120 74.420070 48.226595
vn 5.889897 -2.187817 0.025375
v -101.025114 79.241756 40.837683
vn 5.866714 -2.249436 0.005474
v -101.259549 78.665695 45.295760
vn 5.827265 -2.349495 0.025437
v -102.915491 74.439050 39.976920
vn 5.812273 -2.386301 0.013177
v -102.964204 74.427825 47.080976
vn 5.802039 -2.411134 0.031978
v -103.011899 74.292074 45.920903
vn 5.820019 -2.367021 0.035295
v -102.674636 75.115955 46.478885
vn 5.832268 -2.336808 0.044713
v -102.414460 75.759658 45.787585
vn 5.825186 -2.354359 0.047583
v -102.444584 75.657942 44.789900
vn 5.829478 -2.343413 0.063442
v -102.177520 76.332292 45.169892
vn 5.839584 -2.318390 0.035446
v -101.875369 77.076620 44.891833
vn 5.857762 -2.272509 0.012353
v -101.530724 77.953931 44.521110
vn 2.918858 -1.161820 0.006598
v -101.693000 77.583400 50.000000
vn 5.888022 -2.192589 0.037490
v -101.083090 79.046702 38.720103
vn 2.947542 -1.086822 0.020380
v -100.852000 79.660050 38.000000
vn 2.936316 -1.116983 0.001524
v -100.944000 79.498400 50.000000
vn 5.894931 -2.174119 0.037329
v -100.950888 79.421426 39.712312
vn 2.915080 -1.171251 0.009051
v -101.721000 77.398700 38.000000
vn 5.841914 -2.312769 0.019532
v -101.531086 77.878222 38.743918
vn 5.844794 -2.305482 0.037120
v -101.569327 77.800332 40.365463
vn 5.834946 -2.330479 0.020850
v -101.759168 77.313607 39.790123
vn 5.797375 -2.422398 0.028438
v -103.046839 74.197887 44.801395
vn 5.797204 -2.422692 0.036897
v -103.054429 74.164978 43.726195
vn 5.808204 -2.396030 0.032439
v -102.744815 74.912336 44.312915
vn 5.819951 -2.367662 0.024821
v -102.558874 75.360838 43.655581
vn 5.820155 -2.367237 0.016019
v -102.487243 75.529573 42.802853
vn 2.908190 -1.187521 0.042759
v -103.885000 72.087050 40.943500
vn 5.821944 -2.362497 0.042041
v -102.789161 74.773215 40.958397
vn 5.830280 -2.342228 0.013557
v -102.183171 76.257881 39.957515
vn 5.835610 -2.328786 0.023518
v -102.001238 76.717597 40.859363
vn 5.823239 -2.359513 0.025735
v -102.392594 75.744713 40.955861
vn 2.939166 -1.109449 0.005711
v -100.399000 80.937100 50.000000
vn 2.899004 -1.210036 0.034459
v -103.903500 72.119250 43.253100
vn 5.817363 -2.374045 0.021191
v -102.625920 75.186843 41.908738
vn 5.808222 -2.396153 0.023022
v -102.854237 74.630411 42.833584
vn 5.843580 -2.308566 0.038036
v -101.741552 77.383578 41.627212
vn 5.830681 -2.341249 0.011132
v -101.960585 76.808063 38.907367
vn 5.894986 -2.174190 -0.017660
v -100.444817 80.821348 48.460650
vn 5.875716 -2.224811 0.044528
v -101.290585 78.512521 40.259293
vn 5.829631 -2.343720 0.018362
v -101.978857 76.852912 48.435479
vn 5.835934 -2.328069 0.018377
v -101.855357 77.169869 49.190177
vn 5.827899 -2.348175 0.006447
v -102.300454 75.962493 39.034629
vn 5.881374 -2.210598 0.000467
v -100.682335 80.179398 48.311522
vn 5.878617 -2.218031 0.001583
v -100.633335 80.311194 49.008770
vn 5.826290 -2.352169 -0.001443
v -102.742794 74.967969 48.883776
vn 5.823764 -2.358415 0.007208
v -102.419676 75.765760 48.454204
vn 5.799978 -2.415740 0.052479
v -103.449678 73.208902 43.360160
vn 5.808516 -2.394966 0.060383
v -103.464160 73.141515 41.865592
# 160 vertices, 0 vertices normals

f 1//1 47//47 48//48
f 44//44 51//51 50//50
f 55//55 56//56 57//57
f 58//58 59//59 55//55
f 57//57 60//60 61//61
f 158//158 152//152 62//62
f 15//15 64//64 48//48
f 76//76 65//65 14//14
f 66//66 67//67 68//68
f 69//69 70//70 71//71
f 72//72 73//73 74//74
f 77//77 78//78 150//150
f 24//24 94//94 80//80
f 81//81 80//80 82//82
f 20//20 69//69 83//83
f 85//85 154//154 86//86
f 87//87 88//88 89//89
f 51//51 90//90 88//88
f 159//159 91//91 92//92
f 93//93 25//25 94//94
f 66//66 16//16 95//95
f 96//96 67//67 97//97
f 98//98 49//49 99//99
f 84//84 102//102 53//53
f 22//22 52//52 8//8
f 103//103 104//104 105//105
f 106//106 107//107 160//160
f 99//99 108//108 109//109
f 64//64 110//110 104//104
f 81//81 89//89 111//111
f 65//65 54//54 112//112
f 108//108 103//103 114//114
f 112//112 60//60 115//115
f 96//96 86//86 116//116
f 111//111 117//117 113//113
f 118//118 119//119 117//117
f 120//120 121//121 122//122
f 123//123 56//56 122//122
f 123//123 73//73 124//124
f 115//115 124//124 110//110
f 13//13 153//153 125//125
f 71//71 126//126 127//127
f 38//38 128//128 84//84
f 109//109 37//37 70//70
f 30//30 126//126 129//129
f 134//134 135//135 136//136
f 136//136 137//137 121//121
f 74//74 137//137 138//138
f 101//101 61//61 102//102
f 106//106 139//139 68//68
f 107//107 116//116 140//140
f 141//141 142//142 143//143
f 129//129 114//114 151//151
f 119//119 120//120 59//59
f 90//90 134//134 118//118
f 50//50 145//145 159//159
f 140//140 143//143 146//146
f 147//147 146//146 138//138
f 142//142 132//132 148//148
f 133//133 149//149 131//131
f 92//92 147//147 135//135
f 148//148 105//105 72//72
f 47//47 15//15 48//48
f 15//15 47//47 23//23
f 48//48 49//49 1//1
f 5//5 4//4 51//51
f 50//50 51//51 4//4
f 52//52 150//150 155//155
f 54//54 53//53 9//9
f 10//10 55//55 57//57
f 57//57 56//56 11//11
f 10//10 58//58 55//55
f 58//58 43//43 59//59
f 55//55 59//59 56//56
f 10//10 57//57 61//61
f 57//57 11//11 60//60
f 61//61 60//60 9//9
f 43//43 58//58 158//158
f 13//13 12//12 63//63
f 15//15 14//14 64//64
f 49//49 48//48 2//2
f 15//15 76//76 14//14
f 76//76 8//8 65//65
f 16//16 66//66 68//68
f 66//66 17//17 67//67
f 68//68 67//67 40//40
f 19//19 69//69 71//71
f 69//69 20//20 70//70
f 41//41 72//72 74//74
f 72//72 36//36 73//73
f 74//74 73//73 35//35
f 23//23 75//75 76//76
f 75//75 22//22 8//8
f 76//76 75//75 8//8
f 23//23 76//76 15//15
f 22//22 77//77 150//150
f 77//77 29//29 78//78
f 80//80 79//79 26//26
f 27//27 81//81 82//82
f 81//81 24//24 80//80
f 82//82 80//80 26//26
f 69//69 28//28 83//83
f 28//28 69//69 19//19
f 31//31 85//85 86//86
f 85//85 39//39 154//154
f 86//86 154//154 45//45
f 27//27 87//87 89//89
f 87//87 5//5 88//88
f 89//89 88//88 7//7
f 5//5 51//51 88//88
f 51//51 44//44 90//90
f 88//88 90//90 7//7
f 135//135 159//159 92//92
f 92//92 91//91 160//160
f 63//63 93//93 157//157
f 17//17 66//66 33//33
f 95//95 33//33 66//66
f 31//31 96//96 97//97
f 96//96 40//40 67//67
f 97//97 67//67 17//17
f 34//34 98//98 99//99
f 98//98 1//1 49//49
f 99//99 49//49 2//2
f 42//42 100//100 101//101
f 101//101 100//100 153//153
f 150//150 156//156 155//155
f 84//84 42//42 102//102
f 53//53 102//102 9//9
f 46//46 103//103 105//105
f 103//103 2//2 104//104
f 105//105 104//104 36//36
f 32//32 106//106 160//160
f 106//106 40//40 107//107
f 34//34 99//99 109//109
f 99//99 2//2 108//108
f 109//109 108//108 37//37
f 2//2 64//64 104//104
f 64//64 14//14 110//110
f 104//104 110//110 36//36
f 24//24 81//81 111//111
f 81//81 27//27 89//89
f 111//111 89//89 7//7
f 14//14 65//65 112//112
f 65//65 8//8 54//54
f 112//112 54//54 9//9
f 12//12 93//93 63//63
f 94//94 24//24 113//113
f 63//63 157//157 158//158
f 37//37 108//108 114//114
f 108//108 2//2 103//103
f 114//114 103//103 46//46
f 14//14 112//112 115//115
f 112//112 9//9 60//60
f 115//115 60//60 11//11
f 40//40 96//96 116//116
f 96//96 31//31 86//86
f 116//116 86//86 45//45
f 24//24 111//111 113//113
f 111//111 7//7 117//117
f 113//113 117//117 43//43
f 7//7 118//118 117//117
f 118//118 6//6 119//119
f 117//117 119//119 43//43
f 56//56 120//120 122//122
f 120//120 6//6 121//121
f 122//122 121//121 35//35
f 35//35 123//123 122//122
f 123//123 11//11 56//56
f 11//11 123//123 124//124
f 123//123 35//35 73//73
f 124//124 73//73 36//36
f 14//14 115//115 110//110
f 115//115 11//11 124//124
f 110//110 124//124 36//36
f 42//42 18//18 100//100
f 19//19 71//71 127//127
f 127//127 126//126 21//21
f 128//128 18//18 42//42
f 34//34 109//109 20//20
f 70//70 20//20 109//109
f 30//30 131//131 126//126
f 131//131 21//21 126//126
f 129//129 126//126 71//71
f 39//39 130//130 149//149
f 130//130 21//21 131//131
f 46//46 132//132 151//151
f 6//6 134//134 136//136
f 134//134 44//44 135//135
f 136//136 135//135 147//147
f 6//6 136//136 121//121
f 121//121 137//137 35//35
f 41//41 74//74 138//138
f 74//74 35//35 137//137
f 42//42 101//101 102//102
f 101//101 10//10 61//61
f 102//102 61//61 9//9
f 40//40 106//106 68//68
f 106//106 32//32 139//139
f 68//68 139//139 16//16
f 3//3 107//107 140//140
f 107//107 40//40 116//116
f 140//140 116//116 45//45
f 45//45 141//141 143//143
f 141//141 133//133 142//142
f 143//143 142//142 41//41
f 30//30 129//129 151//151
f 129//129 37//37 114//114
f 151//151 114//114 46//46
f 37//37 129//129 70//70
f 43//43 119//119 59//59
f 119//119 6//6 120//120
f 59//59 120//120 56//56
f 78//78 144//144 38//38
f 7//7 90//90 118//118
f 90//90 44//44 134//134
f 118//118 134//134 6//6
f 44//44 50//50 159//159
f 50//50 4//4 145//145
f 159//159 145//145 91//91
f 3//3 140//140 146//146
f 140//140 45//45 143//143
f 146//146 143//143 41//41
f 137//137 147//147 138//138
f 147//147 3//3 146//146
f 138//138 146//146 41//41
f 41//41 142//142 148//148
f 142//142 133//133 132//132
f 148//148 132//132 46//46
f 133//133 131//131 30//30
f 92//92 3//3 147//147
f 136//136 147//147 137//137
f 149//149 141//141 154//154
f 141//141 45//45 154//154
f 149//149 154//154 39//39
f 41//41 148//148 72//72
f 148//148 46//46 105//105
f 72//72 105//105 36//36
f 78//78 29//29 144//144
f 125//125 100//100 18//18
f 42//42 84//84 128//128
f 70//70 129//129 71//71
f 153//153 100//100 125//125
f 48//48 64//64 2//2
f 38//38 84//84 156//156
f 52//52 53//53 54//54
f 152//152 153//153 62//62
f 8//8 52//52 54//54
f 58//58 10//10 152//152
f 22//22 150//150 52//52
f 94//94 25//25 79//79
f 101//101 152//152 10//10
f 149//149 130//130 131//131
f 52//52 155//155 53//53
f 78//78 156//156 150//150
f 101//101 153//153 152//152
f 156//156 84//84 155//155
f 53//53 155//155 84//84
f 133//133 141//141 149//149
f 38//38 156//156 78//78
f 91//91 145//145 32//32
f 62//62 153//153 13//13
f 32//32 160//160 91//91
f 13//13 63//63 62//62
f 92//92 160//160 3//3
f 3//3 160//160 107//107
f 157//157 94//94 113//113
f 158//158 58//58 152//152
f 157//157 93//93 94//94
f 157//157 43//43 158//158
f 43//43 157//157 113//113
f 63//63 158//158 62//62
f 80//80 94//94 79//79
f 44//44 159//159 135//135
f 132//132 133//133 30//30
f 151//151 132//132 30//30
# 275 faces, 0 coords texture

# End of File
