####
#
# OBJ File Generated by Meshlab
#
####
# Object 1209_C191_M_5.obj
#
# Vertices: 163
# Faces: 282
#
####
vn 5.873062 -2.231176 -0.078067
v -103.664512 85.889106 -48.306112
vn 2.902768 -1.162208 -0.014585
v -103.200000 86.982600 -42.432000
vn 2.932549 -1.128019 0.013756
v -106.916000 77.338700 -45.898800
vn 5.869764 -2.241373 0.022395
v -106.161455 79.309698 -45.669588
vn 5.866050 -2.251159 0.004804
v -105.778153 80.325107 -43.933913
vn 5.870455 -2.239275 -0.034038
v -104.704298 83.140655 -46.592254
vn 5.878635 -2.217924 0.002593
v -106.007818 79.681815 -49.050585
vn 2.946768 -1.088805 -0.019497
v -105.561000 80.902100 -50.000000
vn 2.932406 -1.108310 -0.044650
v -103.241000 87.008100 -48.042400
vn 2.933147 -1.124786 0.024801
v -104.487000 83.734200 -38.000000
vn 2.915139 -1.170168 0.018243
v -103.762000 85.600300 -38.000000
vn 5.868002 -2.245977 -0.003034
v -104.431571 83.812244 -43.495319
vn 2.933111 -1.142406 -0.027673
v -103.201000 86.975500 -45.483300
vn 2.929675 -1.134266 0.000788
v -105.733000 80.484200 -38.000000
vn 2.936071 -1.116720 -0.040285
v -104.071000 84.897900 -50.000000
vn 2.907872 -1.184727 0.001845
v -103.190000 86.951100 -40.314900
vn 2.920190 -1.198210 0.017905
v -103.206000 86.938400 -38.999400
vn 2.927325 -1.147141 0.007999
v -103.201000 86.975600 -44.996500
vn 5.859376 -2.267192 0.022437
v -103.823391 85.420192 -43.115296
vn 1.469501 -0.554462 -0.025152
v -103.267000 87.017900 -50.000000
vn 1.449973 -0.600549 0.002593
v -103.207000 86.940300 -38.000000
vn 5.865901 -2.251516 0.010101
v -106.582978 78.179004 -48.238097
vn 2.931874 -1.128557 0.009698
v -104.824000 82.846900 -38.000000
vn 2.928495 -1.129192 0.006997
v -106.911000 77.328900 -47.977900
vn 2.918806 -1.171176 0.019736
v -106.951000 77.397600 -39.927800
vn 2.944313 -1.095316 -0.026147
v -104.949000 82.554500 -50.000000
vn 2.925136 -1.124958 0.028399
v -106.923000 77.348800 -43.654800
vn 5.865063 -2.253657 0.020415
v -106.417056 78.654755 -44.075303
vn 2.921298 -1.163483 0.032962
v -106.943000 77.384900 -41.135000
vn 2.913141 -1.175994 0.008338
v -106.753000 77.900900 -38.000000
vn 1.456569 -0.598008 0.005384
v -106.956000 77.407500 -38.000000
vn 2.924267 -1.148143 0.004400
v -105.971000 79.874500 -38.000000
vn 2.942147 -1.101184 0.002784
v -105.986000 79.735100 -50.000000
vn 1.465706 -0.563204 0.000496
v -106.910000 77.327200 -50.000000
vn 5.863265 -2.258379 -0.013301
v -104.969167 82.426611 -44.664909
vn 5.884223 -2.202863 -0.023133
v -105.291644 81.586209 -48.220402
vn 5.872261 -2.234911 0.006185
v -105.463523 81.139355 -46.061381
vn 5.856927 -2.274049 0.000852
v -103.829706 85.357013 -44.712505
vn 5.874217 -2.228666 -0.059880
v -104.429293 83.909042 -48.365387
vn 5.874925 -2.227838 0.018296
v -105.934401 79.888137 -47.337058
vn 5.846047 -2.302123 -0.007429
v -103.842863 85.353436 -41.262404
vn 5.863970 -2.256274 0.016471
v -104.420735 83.841752 -41.702788
vn 5.860465 -2.264514 -0.071264
v -103.868830 85.309886 -46.738527
vn 5.860864 -2.264414 0.020321
v -105.191329 81.891820 -39.795661
vn 5.861994 -2.261358 0.036538
v -105.716701 80.516896 -40.858726
vn 5.858379 -2.270882 0.028143
v -104.462337 83.758200 -40.075567
vn 5.845286 -2.304224 0.034094
v -106.335111 78.941510 -39.903888
vn 2.930712 -1.131535 0.012696
v -106.913500 77.333800 -46.938350
vn 5.865494 -2.252487 0.022533
v -106.610319 78.115369 -47.244536
vn 5.864428 -2.255175 0.031564
v -106.668556 77.974078 -46.438926
vn 5.869770 -2.241422 0.014729
v -105.962623 79.836290 -44.813000
vn 5.867391 -2.247648 0.014135
v -106.133411 79.396834 -43.905163
vn 5.867615 -2.247047 0.017280
v -106.296003 78.965243 -44.811644
vn 5.857052 -2.274217 0.034909
v -105.169349 81.922912 -41.477584
vn 2.928315 -1.137682 0.015918
v -104.124500 84.667250 -38.000000
vn 5.859550 -2.267669 0.040375
v -104.149901 84.592698 -38.655447
vn 5.838090 -2.321726 0.037986
v -103.831216 85.405669 -39.177452
vn 5.860149 -2.266480 0.002790
v -104.374057 83.964239 -44.298421
vn 5.855546 -2.278136 -0.019576
v -104.166376 84.497723 -44.837517
vn 5.867569 -2.247190 0.007424
v -105.602955 80.779108 -44.997167
vn 5.868225 -2.245453 -0.007640
v -105.218979 81.776561 -45.330639
vn 5.863078 -2.258913 -0.002930
v -105.351517 81.433396 -44.145805
vn 2.917185 -1.166027 0.004200
v -103.200500 86.979100 -43.714250
vn 5.836441 -2.326706 -0.006791
v -103.508857 86.212910 -42.879157
vn 5.850666 -2.290165 0.035195
v -103.548859 86.104712 -44.052776
vn 2.937051 -1.113713 -0.054558
v -103.669000 85.957900 -50.000000
vn 5.878522 -2.216196 -0.098007
v -103.492217 86.380667 -49.110829
vn 5.868131 -2.243593 -0.096059
v -103.867861 85.393129 -49.179123
vn 2.941676 -1.101890 -0.044586
v -103.254000 87.013000 -49.021200
vn 2.903636 -1.199312 0.011978
v -103.484500 86.270300 -38.000000
vn 5.813759 -2.382598 0.041650
v -103.554749 86.089997 -38.806175
vn 5.860823 -2.264412 0.035022
v -104.544419 83.559685 -39.010346
vn 5.859557 -2.267966 0.008396
v -105.006653 82.372594 -38.903929
vn 5.854285 -2.281435 0.027732
v -104.795348 82.906819 -39.889299
vn 5.890422 -2.185926 -0.055320
v -105.084796 82.166769 -49.148422
vn 5.886341 -2.196981 -0.050498
v -104.685669 83.241304 -49.173567
vn 5.889303 -2.189115 -0.046940
v -104.843778 82.793226 -48.304683
vn 2.930974 -1.130838 0.014165
v -106.919500 77.343750 -44.776800
vn 5.864690 -2.254604 0.022447
v -106.623774 78.109351 -44.850526
vn 5.860293 -2.265640 0.043523
v -106.662114 78.022209 -43.863648
vn 5.869301 -2.242480 0.029182
v -106.368156 78.756673 -46.480337
vn 5.866866 -2.248881 0.027063
v -106.509111 78.402384 -45.690738
vn 5.861475 -2.262378 0.046358
v -103.982615 84.974966 -43.963330
vn 5.872291 -2.234636 0.021197
v -104.135804 84.593475 -43.250335
vn 5.826719 -2.350922 0.017026
v -106.808161 77.759100 -38.943265
vn 2.908878 -1.186527 0.013638
v -106.953500 77.402550 -38.963900
vn 5.838911 -2.320620 0.013648
v -106.522671 78.474759 -38.929268
vn 2.933239 -1.125038 0.000347
v -106.448000 78.531150 -50.000000
vn 2.931772 -1.128856 0.001751
v -106.910500 77.328050 -48.988950
vn 5.867654 -2.246866 0.004027
v -104.447615 83.770367 -42.596272
vn 2.927869 -1.138501 0.030944
v -106.933000 77.366850 -42.394900
vn 5.849886 -2.291647 0.055654
v -106.673784 78.027363 -42.806735
vn 5.893690 -2.177478 -0.025727
v -105.746048 80.392087 -49.396253
vn 5.865835 -2.251456 0.032439
v -105.699659 80.535174 -42.021702
vn 5.862192 -2.260984 0.031582
v -105.377581 81.373157 -42.206001
vn 5.862376 -2.260104 0.044844
v -106.019549 79.707769 -41.608517
vn 5.813307 -2.383758 0.038048
v -103.520164 86.155006 -39.760521
vn 5.838262 -2.321076 0.025663
v -103.847291 85.353017 -40.266570
vn 5.820378 -2.366137 -0.018930
v -103.515383 86.154565 -40.822792
vn 2.915064 -1.170912 -0.031191
v -103.195000 86.966850 -41.373450
vn 5.832989 -2.334984 -0.047396
v -103.516203 86.179598 -41.839102
vn 5.854224 -2.281104 -0.022591
v -103.822185 85.417076 -42.189765
vn 5.872582 -2.233967 0.024282
v -106.041648 79.614331 -46.565730
vn 2.932082 -1.128052 -0.000553
v -105.278500 81.665550 -38.000000
vn 5.864749 -2.254570 0.003858
v -105.433653 81.262698 -38.880352
vn 5.882585 -2.207378 -0.014927
v -104.975199 82.423842 -47.366725
vn 5.875450 -2.225495 -0.053474
v -104.566172 83.526678 -47.499570
vn 5.861370 -2.263334 -0.008538
v -105.021903 82.286238 -43.763082
vn 5.860455 -2.265700 -0.009189
v -104.706641 83.102973 -44.028988
vn 5.863034 -2.258985 0.007740
v -105.580135 80.837227 -43.068208
vn 5.860092 -2.266249 -0.042577
v -104.469152 83.735145 -45.840373
vn 5.858513 -2.270577 -0.023776
v -104.610365 83.356175 -44.941126
vn 5.865698 -2.251843 -0.027759
v -104.847176 82.756302 -45.643550
vn 5.875116 -2.227344 0.015959
v -105.711925 80.479009 -46.758670
vn 5.871856 -2.235925 0.018005
v -105.819972 80.205343 -45.800223
vn 5.876508 -2.223736 0.007451
v -105.364296 81.397827 -47.097400
vn 5.874100 -2.230062 -0.005627
v -105.090868 82.121587 -46.362436
vn 5.889636 -2.188159 -0.050242
v -105.438397 81.214142 -49.222054
vn 5.883188 -2.205708 -0.014709
v -105.685030 80.539740 -48.633516
vn 5.851377 -2.288218 -0.060649
v -103.806361 85.442345 -45.662664
vn 5.854973 -2.277689 -0.092290
v -103.510600 86.208315 -46.178583
vn 5.859211 -2.268311 -0.052174
v -104.107998 84.673711 -45.948915
vn 5.834356 -2.331363 0.058609
v -106.660990 78.106771 -40.529845
vn 5.852015 -2.286776 -0.012319
v -103.501592 86.202785 -45.146294
vn 5.872745 -2.232477 -0.063125
v -104.269667 84.351967 -49.190568
vn 5.861412 -2.261908 -0.077281
v -104.034311 84.932087 -48.389342
vn 2.941819 -1.102203 -0.021372
v -104.510000 83.726200 -50.000000
vn 5.858153 -2.271037 0.049318
v -106.052038 79.655128 -40.579459
vn 5.846230 -2.302104 0.010528
v -106.156711 79.398718 -38.918300
vn 2.920701 -1.157165 0.009111
v -106.362000 78.887700 -38.000000
vn 5.864026 -2.256417 0.012610
v -105.996106 79.758908 -42.849078
vn 5.871335 -2.237276 0.020043
v -106.255256 79.042925 -47.505106
vn 5.875682 -2.225848 0.016551
v -105.979109 79.763461 -48.154963
vn 2.945880 -1.091182 -0.026835
v -105.255000 81.728300 -50.000000
vn 5.878373 -2.218777 0.012244
v -105.659684 80.613912 -47.715906
vn 5.869145 -2.243029 -0.000213
v -104.112934 84.648820 -41.613210
vn 5.874355 -2.229388 -0.006967
v -104.125188 84.622943 -42.412034
vn 5.862617 -2.259869 0.032165
v -104.159863 84.546857 -39.659361
vn 5.863650 -2.257268 0.027220
v -104.231636 84.347583 -40.815214
vn 5.855320 -2.278549 0.029241
v -106.379469 78.760066 -43.215970
vn 5.837744 -2.322888 0.056065
v -106.667089 78.063614 -41.658007
vn 5.861093 -2.262966 -0.070629
v -104.153475 84.598429 -47.572131
vn 5.861760 -2.261536 -0.059074
v -104.295865 84.202408 -46.717192
vn 2.931331 -1.128397 -0.060193
v -103.221000 86.991800 -46.762850
vn 5.868786 -2.241941 -0.091681
v -103.545024 86.178939 -47.304287
vn 5.866283 -2.249561 -0.065821
v -103.829523 85.439953 -47.667883
vn 5.860821 -2.264573 0.028137
v -105.360936 81.439940 -40.680988
vn 5.845806 -2.302085 0.060859
v -106.356941 78.852814 -41.031885
vn 5.856515 -2.275617 0.034212
v -104.619172 83.342820 -40.938176
vn 5.857722 -2.272608 0.026250
v -105.046950 82.225000 -42.253730
vn 5.862158 -2.261239 0.012488
v -105.581390 80.872920 -39.810605
vn 5.867329 -2.247857 0.001176
v -106.291744 78.939070 -49.400095
vn 5.856917 -2.274793 0.003746
v -105.803874 80.300581 -38.870310
vn 5.865520 -2.252572 0.000288
v -106.602433 78.128359 -49.168275
vn 5.856165 -2.276616 0.025024
v -104.784622 82.905012 -41.805326
vn 5.862795 -2.259276 0.040069
v -105.472595 81.139722 -41.443850
vn 5.869401 -2.242384 0.007828
v -106.303317 78.907903 -48.617512
vn 5.860857 -2.264616 0.007329
v -105.192081 81.842878 -43.059598
vn 5.855110 -2.279234 0.034513
v -104.980407 82.418538 -40.775493
vn 5.835636 -2.328703 0.025588
v -106.665640 78.113106 -39.673539
vn 5.860265 -2.266177 0.004296
v -104.791727 82.879147 -42.932577
vn 5.853711 -2.283039 0.012385
v -105.925446 79.988095 -39.833607
vn 5.847111 -2.299169 0.033836
v -106.358026 78.824510 -42.185873
# 163 vertices, 0 vertices normals

f 48//48 49//49 50//50
f 51//51 52//52 53//53
f 11//11 56//56 57//57
f 60//60 61//61 62//62
f 63//63 64//64 65//65
f 66//66 67//67 68//68
f 20//20 69//69 67//67
f 11//11 57//57 71//71
f 72//72 73//73 74//74
f 75//75 76//76 77//77
f 78//78 79//79 80//80
f 81//81 82//82 50//50
f 25//25 85//85 86//86
f 34//34 88//88 154//154
f 34//34 154//154 89//89
f 7//7 33//33 93//93
f 97//97 98//98 99//99
f 100//100 99//99 101//101
f 102//102 64//64 101//101
f 81//81 132//132 103//103
f 104//104 105//105 73//73
f 106//106 77//77 107//107
f 161//161 108//108 109//109
f 108//108 158//158 62//62
f 111//111 112//112 113//113
f 103//103 114//114 115//115
f 116//116 106//106 117//117
f 93//93 118//118 119//119
f 124//124 120//120 121//121
f 122//122 120//120 38//38
f 60//60 51//51 115//115
f 113//113 61//61 117//117
f 83//83 38//38 65//65
f 125//125 68//68 126//126
f 127//127 125//125 76//76
f 87//87 129//129 130//130
f 58//58 109//109 112//112
f 132//132 157//157 133//133
f 118//118 134//134 75//75
f 135//135 116//116 114//114
f 102//102 136//136 137//137
f 98//98 138//138 139//139
f 133//133 119//119 135//135
f 79//79 82//82 53//53
f 131//131 140//140 52//52
f 107//107 142//142 143//143
f 111//111 143//143 122//122
f 144//144 121//121 145//145
f 142//142 126//126 146//146
f 71//71 57//57 97//97
f 145//145 43//43 146//146
f 72//72 138//138 56//56
f 90//90 84//84 137//137
f 3//3 48//48 50//50
f 48//48 24//24 49//49
f 4//4 51//51 53//53
f 51//51 5//5 52//52
f 53//53 52//52 28//28
f 11//11 55//55 56//56
f 55//55 10//10 56//56
f 38//38 83//83 59//59
f 83//83 84//84 58//58
f 5//5 60//60 62//62
f 60//60 37//37 61//61
f 62//62 61//61 35//35
f 18//18 63//63 65//65
f 63//63 2//2 64//64
f 65//65 64//64 19//19
f 15//15 66//66 68//68
f 66//66 20//20 67//67
f 68//68 67//67 1//1
f 69//69 9//9 67//67
f 1//1 67//67 9//9
f 17//17 21//21 70//70
f 70//70 71//71 17//17
f 46//46 72//72 74//74
f 72//72 23//23 73//73
f 74//74 73//73 44//44
f 36//36 75//75 77//77
f 75//75 26//26 76//76
f 77//77 76//76 39//39
f 27//27 78//78 80//80
f 78//78 3//3 79//79
f 80//80 79//79 28//28
f 49//49 81//81 50//50
f 81//81 4//4 82//82
f 50//50 82//82 3//3
f 12//12 58//58 84//84
f 84//84 83//83 19//19
f 85//85 31//31 86//86
f 31//31 85//85 30//30
f 22//22 49//49 24//24
f 30//30 85//85 87//87
f 85//85 25//25 160//160
f 87//87 160//160 47//47
f 88//88 33//33 152//152
f 22//22 24//24 89//89
f 152//152 7//7 157//157
f 154//154 152//152 157//157
f 90//90 161//161 12//12
f 29//29 91//91 141//141
f 91//91 27//27 92//92
f 92//92 80//80 140//140
f 93//93 33//33 8//8
f 96//96 94//94 45//45
f 16//16 97//97 99//99
f 97//97 57//57 98//98
f 99//99 98//98 41//41
f 2//2 100//100 101//101
f 100//100 16//16 99//99
f 101//101 99//99 41//41
f 41//41 102//102 101//101
f 102//102 19//19 64//64
f 101//101 64//64 2//2
f 4//4 81//81 103//103
f 81//81 49//49 132//132
f 103//103 132//132 40//40
f 23//23 104//104 73//73
f 104//104 14//14 105//105
f 73//73 105//105 44//44
f 6//6 106//106 107//107
f 106//106 36//36 77//77
f 107//107 77//77 39//39
f 12//12 161//161 109//109
f 161//161 150//150 158//158
f 109//109 108//108 35//35
f 35//35 108//108 62//62
f 62//62 110//110 5//5
f 6//6 111//111 113//113
f 111//111 59//59 112//112
f 113//113 112//112 35//35
f 4//4 103//103 115//115
f 103//103 40//40 114//114
f 115//115 114//114 37//37
f 37//37 116//116 117//117
f 116//116 36//36 106//106
f 117//117 106//106 6//6
f 7//7 93//93 119//119
f 93//93 8//8 118//118
f 119//119 118//118 36//36
f 13//13 124//124 121//121
f 124//124 38//38 120//120
f 121//121 120//120 43//43
f 122//122 43//43 120//120
f 59//59 122//122 38//38
f 37//37 60//60 115//115
f 60//60 5//5 51//51
f 115//115 51//51 4//4
f 6//6 113//113 117//117
f 113//113 35//35 61//61
f 117//117 61//61 37//37
f 29//29 123//123 25//25
f 13//13 18//18 124//124
f 19//19 83//83 65//65
f 65//65 38//38 124//124
f 65//65 124//124 18//18
f 39//39 125//125 126//126
f 125//125 15//15 68//68
f 126//126 68//68 1//1
f 26//26 127//127 76//76
f 127//127 15//15 125//125
f 76//76 125//125 39//39
f 47//47 128//128 162//162
f 129//129 162//162 153//153
f 30//30 87//87 130//130
f 87//87 47//47 129//129
f 130//130 129//129 32//32
f 72//72 10//10 23//23
f 110//110 158//158 95//95
f 131//131 94//94 96//96
f 59//59 58//58 112//112
f 58//58 12//12 109//109
f 112//112 109//109 35//35
f 40//40 132//132 133//133
f 132//132 22//22 157//157
f 133//133 157//157 7//7
f 22//22 132//132 49//49
f 36//36 118//118 75//75
f 118//118 8//8 134//134
f 75//75 134//134 26//26
f 40//40 135//135 114//114
f 135//135 36//36 116//116
f 114//114 116//116 37//37
f 19//19 102//102 137//137
f 102//102 41//41 136//136
f 137//137 136//136 42//42
f 41//41 98//98 139//139
f 98//98 57//57 138//138
f 139//139 138//138 46//46
f 40//40 133//133 135//135
f 133//133 7//7 119//119
f 135//135 119//119 36//36
f 28//28 79//79 53//53
f 79//79 3//3 82//82
f 53//53 82//82 4//4
f 5//5 131//131 52//52
f 131//131 96//96 163//163
f 52//52 140//140 28//28
f 6//6 107//107 143//143
f 107//107 39//39 142//142
f 143//143 142//142 43//43
f 59//59 111//111 122//122
f 111//111 6//6 143//143
f 122//122 143//143 43//43
f 71//71 70//70 11//11
f 9//9 144//144 145//145
f 144//144 13//13 121//121
f 145//145 121//121 43//43
f 43//43 142//142 146//146
f 142//142 39//39 126//126
f 146//146 126//126 1//1
f 158//158 150//150 95//95
f 54//54 159//159 147//147
f 96//96 45//45 128//128
f 148//148 128//128 47//47
f 17//17 97//97 16//16
f 97//97 17//17 71//71
f 9//9 145//145 1//1
f 146//146 1//1 145//145
f 44//44 159//159 74//74
f 10//10 72//72 56//56
f 72//72 46//46 138//138
f 56//56 138//138 57//57
f 41//41 139//139 136//136
f 42//42 90//90 137//137
f 90//90 12//12 84//84
f 137//137 84//84 19//19
f 47//47 123//123 148//148
f 148//148 141//141 163//163
f 44//44 105//105 151//151
f 105//105 14//14 153//153
f 154//154 88//88 152//152
f 110//110 94//94 131//131
f 54//54 147//147 156//156
f 149//149 46//46 74//74
f 155//155 159//159 54//54
f 7//7 152//152 33//33
f 141//141 91//91 92//92
f 92//92 27//27 80//80
f 140//140 80//80 28//28
f 94//94 95//95 156//156
f 47//47 162//162 129//129
f 128//128 45//45 162//162
f 129//129 153//153 32//32
f 5//5 110//110 131//131
f 110//110 95//95 94//94
f 150//150 54//54 95//95
f 159//159 44//44 147//147
f 159//159 149//149 74//74
f 151//151 153//153 162//162
f 32//32 153//153 14//14
f 44//44 151//151 147//147
f 105//105 153//153 151//151
f 147//147 151//151 45//45
f 155//155 150//150 161//161
f 158//158 110//110 62//62
f 154//154 22//22 89//89
f 42//42 155//155 90//90
f 45//45 156//156 147//147
f 148//148 163//163 96//96
f 54//54 150//150 155//155
f 54//54 156//156 95//95
f 94//94 156//156 45//45
f 154//154 157//157 22//22
f 161//161 158//158 108//108
f 123//123 29//29 141//141
f 159//159 155//155 149//149
f 148//148 96//96 128//128
f 148//148 123//123 141//141
f 85//85 160//160 87//87
f 160//160 25//25 123//123
f 160//160 123//123 47//47
f 162//162 45//45 151//151
f 131//131 163//163 140//140
f 155//155 161//161 90//90
f 163//163 92//92 140//140
f 163//163 141//141 92//92
f 149//149 155//155 42//42
f 42//42 139//139 149//149
f 139//139 46//46 149//149
f 136//136 139//139 42//42
f 59//59 83//83 58//58
# 282 faces, 0 coords texture

# End of File
