####
#
# OBJ File Generated by Meshlab
#
####
# Object 130_C52_M_7.obj
#
# Vertices: 132
# Faces: 224
#
####
vn -0.434791 -1.509844 0.000139
v 15.393900 49.381000 38.000000
vn -0.826390 -3.030375 -0.019133
v 13.710800 49.868700 38.000000
vn -0.502184 -3.098349 -0.090056
v 7.118030 51.046800 49.244200
vn -0.245313 -1.539941 -0.041982
v 7.106570 51.026900 50.000000
vn -0.557303 -3.091435 -0.048745
v 9.130870 50.707900 50.000000
vn -0.821558 -3.030118 -0.050506
v 15.339800 49.287300 47.412100
vn -0.405362 -1.521324 -0.018260
v 15.321200 49.255100 50.000000
vn -1.650596 -6.062146 -0.038824
v 13.851772 49.820324 39.156682
vn -0.750311 -3.050239 -0.026131
v 11.208600 50.512800 38.000000
vn -0.285713 -1.550032 -0.024621
v 7.295250 51.353700 38.000000
vn -0.613307 -3.076184 -0.063224
v 7.279850 51.327000 39.859600
vn -0.634993 -3.074834 -0.044538
v 8.864740 51.064400 38.000000
vn -0.760958 -3.042827 -0.025982
v 15.356800 49.316700 43.977300
vn -1.623358 -6.067542 -0.060471
v 14.463363 49.534136 44.224459
vn -0.777242 -3.043743 -0.037482
v 13.287100 49.801900 50.000000
vn -1.507256 -6.098981 -0.069796
v 12.675984 49.970832 48.530428
vn -0.527994 -3.094813 -0.094937
v 7.136450 51.078700 48.178200
vn -1.123297 -6.180425 -0.110676
v 9.002386 50.747580 48.825014
vn -0.811055 -3.036825 -0.005444
v 15.349600 49.304200 44.950300
vn -1.612903 -6.070413 -0.043723
v 13.954000 49.693879 46.012749
vn -1.612618 -6.070597 -0.119747
v 12.660281 50.022008 44.590086
vn -1.314499 -6.140632 -0.186659
v 10.604706 50.456498 47.400079
vn -1.487062 -6.102862 -0.129844
v 12.316339 50.093032 46.490719
vn -1.354781 -6.134496 -0.082797
v 10.990242 50.516864 42.423127
vn -1.094278 -6.175283 -0.266696
v 8.181794 51.117429 44.094433
vn -0.658621 -3.071507 -0.048617
v 11.062400 50.325000 50.000000
vn -0.866087 -3.028245 -0.071398
v 15.354900 49.313400 42.655900
vn -1.298386 -6.144268 -0.075533
v 9.092026 50.914091 41.281735
vn -0.507532 -3.112923 -0.103237
v 7.259170 51.291200 43.344600
vn -1.173537 -6.158908 -0.301643
v 9.157399 50.870245 45.576856
vn -0.489156 -3.088746 -0.168852
v 7.176880 51.148700 45.952900
vn -0.631835 -3.082836 0.013530
v 7.276180 51.320700 41.780700
vn -0.852323 -3.013435 -0.049001
v 15.395900 49.384500 40.348000
vn -1.692867 -6.046333 -0.193237
v 13.277569 49.929697 42.770738
vn -1.407416 -6.122007 -0.080741
v 10.979566 50.548501 40.462402
vn -1.500731 -6.098327 -0.169823
v 10.941363 50.470025 45.044120
vn -1.317115 -6.138908 -0.155662
v 9.405095 50.926412 39.584325
vn -1.592469 -6.077224 -0.093664
v 13.641897 49.723856 48.151371
vn -1.581339 -6.080807 -0.033520
v 12.910926 50.064783 39.567293
vn -1.695667 -6.048535 -0.104491
v 13.695487 49.846976 41.118008
vn -0.864962 -3.020169 0.005015
v 15.394900 49.382750 39.174000
vn -1.693892 -6.050269 -0.025071
v 14.651310 49.596548 39.717702
vn -1.730005 -6.040301 -0.006153
v 14.626526 49.602043 38.674405
vn -0.999626 -6.201358 -0.148196
v 8.094159 50.885671 49.409663
vn -0.488892 -3.102396 -0.075677
v 8.118720 50.867400 50.000000
vn -1.597751 -6.076295 -0.053888
v 13.523981 49.746707 49.149927
vn -0.815521 -3.033746 -0.030279
v 14.304150 49.528500 50.000000
vn -0.874349 -3.017463 -0.005876
v 14.552350 49.624850 38.000000
vn -0.570306 -3.089000 -0.049342
v 7.287550 51.340350 38.929800
vn -0.569721 -3.089099 -0.049876
v 8.079995 51.209050 38.000000
vn -1.159561 -6.174196 -0.112436
v 8.170510 51.177805 38.895595
vn -1.314081 -6.142164 -0.084533
v 9.165080 50.987879 38.856159
vn -1.187812 -6.166073 -0.198894
v 8.515636 51.096402 39.700550
vn -1.038597 -6.194675 -0.159161
v 8.028063 50.920322 48.479113
vn -1.072366 -6.188031 -0.187326
v 7.869895 50.968505 47.599318
vn -1.123530 -6.178138 -0.200062
v 8.778790 50.812733 47.608942
vn -0.862625 -3.020741 -0.024675
v 15.344700 49.295750 46.181200
vn -1.673344 -6.054999 -0.100429
v 14.618750 49.498790 46.686371
vn -1.697235 -6.049371 -0.008969
v 14.684417 49.488102 45.731932
vn -1.562826 -6.084868 0.018776
v 13.312036 49.857671 45.326445
vn -1.516609 -6.096565 -0.090613
v 13.104347 49.900261 46.328462
vn -1.550549 -6.088349 -0.055417
v 12.478512 50.059754 45.590294
vn -1.406310 -6.121073 -0.172168
v 11.602472 50.244376 46.944765
vn -1.443301 -6.110314 -0.241275
v 10.805174 50.457586 46.183160
vn -1.507538 -6.096304 -0.153714
v 11.664402 50.271543 45.870978
vn -1.216410 -6.163689 -0.087659
v 10.005830 50.544389 49.295150
vn -0.610833 -3.081331 -0.043445
v 10.096635 50.516450 50.000000
vn -0.718763 -3.057417 -0.072020
v 12.174750 50.063450 50.000000
vn -1.410220 -6.121814 -0.091143
v 11.827897 50.165568 49.124845
vn -1.486775 -6.103553 -0.095032
v 12.708465 49.953270 49.352518
vn -1.503402 -6.099510 -0.029387
v 11.822902 50.346248 40.997581
vn -1.492167 -6.100473 -0.126147
v 11.748359 50.352500 42.061665
vn -1.317379 -6.142454 -0.084220
v 10.963276 50.536752 41.502847
vn -0.953247 -6.197149 -0.406241
v 8.297134 50.984201 45.845886
vn -1.082386 -6.175348 -0.401322
v 8.971426 50.837131 46.489936
vn -1.017724 -6.192238 -0.291630
v 8.031920 50.970984 46.698098
vn -1.320891 -6.129615 -0.351659
v 9.897496 50.669580 46.372929
vn -1.215112 -6.154154 -0.310324
v 9.609145 50.659152 47.222364
vn -0.549083 -3.091378 -0.107220
v 7.156665 51.113700 47.065550
vn -0.691856 -3.064435 -0.013168
v 7.278015 51.323850 40.820150
vn -1.283492 -6.146768 -0.154658
v 8.196820 51.118038 40.576481
vn -1.368692 -6.131452 0.048700
v 8.068289 51.142159 41.418022
vn -1.298066 -6.143176 -0.057513
v 8.449100 51.088577 43.072675
vn -1.394402 -6.125349 -0.106488
v 9.107228 50.923865 43.772320
vn -0.869014 -3.017072 -0.108134
v 15.375400 49.348950 41.501950
vn -1.766117 -6.026865 -0.185538
v 14.491780 49.593314 41.787172
vn -1.706271 -6.044881 -0.141098
v 14.590266 49.601789 40.754260
vn -1.608818 -6.069978 -0.210537
v 12.013332 50.221739 43.783796
vn -1.587341 -6.075727 -0.209487
v 12.334949 50.173939 42.834561
vn -1.643054 -6.059012 -0.249760
v 12.930560 49.987831 43.657790
vn -1.208994 -6.160208 -0.001115
v 7.836723 51.218065 42.352328
vn -1.644509 -6.063910 -0.046358
v 13.798888 49.826773 40.130202
vn -1.597481 -6.076491 -0.016141
v 12.807239 50.090948 40.536069
vn -1.626063 -6.067322 -0.109308
v 12.747932 50.099084 41.744568
vn -1.756387 -6.030854 -0.142715
v 13.646853 49.839618 42.006792
vn -1.372588 -6.129863 -0.075760
v 10.469655 50.628744 43.140373
vn -1.521091 -6.092791 -0.169047
v 11.107435 50.460094 43.966633
vn -1.407579 -6.122117 -0.127314
v 10.077283 50.693254 44.122824
vn -1.616773 -6.069957 -0.128465
v 11.806018 50.246067 44.803087
vn -1.638175 -6.065433 0.070433
v 14.194333 49.617279 45.088112
vn -1.661320 -6.056030 -0.090548
v 13.536671 49.783556 44.401429
vn -0.447707 -3.103695 -0.190286
v 7.218025 51.219950 44.648750
vn -1.287915 -6.144836 -0.185217
v 9.112489 50.906520 44.667583
vn -1.611221 -6.071905 -0.115794
v 14.542634 49.491527 47.821850
vn -1.581419 -6.079126 -0.142527
v 13.785705 49.711789 47.063945
vn -1.214077 -6.163816 -0.107926
v 9.822214 50.597241 48.179960
vn -1.285450 -6.149353 -0.083280
v 10.828872 50.390608 48.690243
vn -0.502484 -3.100488 -0.063950
v 7.267675 51.305950 42.562650
vn -0.800903 -3.037478 -0.043426
v 15.330500 49.271200 48.706050
vn -1.549141 -6.088990 -0.046142
v 11.942812 50.318968 38.924288
vn -0.783013 -3.042408 -0.015691
v 12.459700 50.190750 38.000000
vn -1.578980 -6.081365 -0.043210
v 13.015345 50.043944 38.744949
vn -1.744863 -6.031562 -0.226162
v 13.842457 49.735447 43.537971
vn -1.795945 -6.018331 -0.179250
v 14.225008 49.649050 42.707230
vn -1.687766 -6.049287 -0.114972
v 14.667073 49.492801 43.422896
vn -1.392464 -6.126344 -0.078479
v 11.666214 50.213606 48.035314
vn -1.538224 -6.091853 -0.014901
v 11.889528 50.322827 39.971735
vn -1.471254 -6.108222 -0.048360
v 10.884988 50.583528 38.753502
vn -0.719928 -3.057917 -0.021215
v 10.036670 50.788600 38.000000
vn -1.441355 -6.115472 -0.043655
v 10.125809 50.760334 39.057563
vn -1.379873 -6.126567 -0.153816
v 10.141839 50.749724 39.976239
vn -1.248117 -6.151656 -0.273356
v 9.209076 50.931306 40.373715
vn -1.495348 -6.101344 -0.112938
v 12.688038 49.983613 47.399404
vn -1.437271 -6.113112 -0.190362
v 10.051660 50.674868 45.315547
vn -1.267654 -6.151061 -0.166169
v 10.089294 50.719828 40.965699
vn -1.297032 -6.147301 -0.013948
v 10.028206 50.718178 42.073277
vn -1.518673 -6.094027 -0.165442
v 11.415325 50.405226 43.068586
vn -1.490526 -6.103464 -0.045199
v 11.035555 50.542216 39.521890
vn -1.388194 -6.127166 0.091539
v 8.855849 50.980214 42.125457
vn -1.389188 -6.127441 -0.019833
v 9.540800 50.830426 43.045835
vn -0.984821 -6.193955 -0.369884
v 8.213141 51.043615 45.143948
vn -1.615541 -6.071473 -0.072740
v 14.433799 49.503998 48.962989
# 132 vertices, 0 vertices normals

f 41//41 42//42 43//43
f 5//5 45//45 44//44
f 46//46 132//132 47//47
f 48//48 1//1 43//43
f 49//49 50//50 51//51
f 51//51 52//52 53//53
f 54//54 55//55 56//56
f 57//57 58//58 59//59
f 60//60 61//61 62//62
f 63//63 64//64 65//65
f 26//26 67//67 66//66
f 68//68 69//69 70//70
f 71//71 72//72 73//73
f 74//74 75//75 76//76
f 77//77 78//78 75//75
f 79//79 76//76 55//55
f 18//18 44//44 54//54
f 85//85 86//86 87//87
f 88//88 89//89 90//90
f 13//13 19//19 14//14
f 32//32 82//82 91//91
f 92//92 93//93 39//39
f 96//96 97//97 98//98
f 88//88 99//99 97//97
f 59//59 20//20 100//100
f 60//60 101//101 100//100
f 31//31 102//102 131//131
f 103//103 30//30 131//131
f 58//58 104//104 105//105
f 66//66 106//106 107//107
f 108//108 32//32 91//91
f 110//110 111//111 112//112
f 113//113 114//114 115//115
f 94//94 89//89 72//72
f 63//63 123//123 116//116
f 56//56 78//78 106//106
f 110//110 117//117 128//128
f 117//117 93//93 71//71
f 69//69 107//107 116//116
f 119//119 120//120 52//52
f 128//128 120//120 118//118
f 121//121 125//125 122//122
f 90//90 113//113 101//101
f 130//130 83//83 129//129
f 42//42 87//87 92//92
f 114//114 95//95 86//86
f 14//14 115//115 13//13
f 124//124 64//64 77//77
f 124//124 103//103 98//98
f 99//99 62//62 65//65
f 105//105 123//123 61//61
f 16//16 46//46 70//70
f 81//81 53//53 122//122
f 1//1 41//41 43//43
f 41//41 33//33 42//42
f 43//43 42//42 8//8
f 4//4 44//44 45//45
f 44//44 4//4 3//3
f 15//15 46//46 47//47
f 46//46 38//38 132//132
f 2//2 43//43 8//8
f 43//43 2//2 48//48
f 11//11 49//49 51//51
f 49//49 10//10 50//50
f 51//51 50//50 12//12
f 11//11 51//51 53//53
f 51//51 12//12 52//52
f 53//53 52//52 37//37
f 18//18 54//54 56//56
f 54//54 17//17 55//55
f 19//19 57//57 59//59
f 57//57 6//6 58//58
f 59//59 58//58 20//20
f 21//21 60//60 62//62
f 60//60 20//20 61//61
f 62//62 61//61 23//23
f 23//23 63//63 65//65
f 63//63 22//22 64//64
f 65//65 64//64 36//36
f 5//5 66//66 67//67
f 66//66 5//5 18//18
f 15//15 68//68 70//70
f 68//68 26//26 69//69
f 70//70 69//69 16//16
f 35//35 71//71 73//73
f 71//71 94//94 72//72
f 31//31 74//74 76//76
f 74//74 30//30 75//75
f 76//76 75//75 56//56
f 30//30 77//77 75//75
f 77//77 22//22 78//78
f 75//75 78//78 56//56
f 17//17 79//79 55//55
f 79//79 31//31 76//76
f 55//55 76//76 56//56
f 5//5 44//44 18//18
f 3//3 54//54 44//44
f 54//54 3//3 17//17
f 32//32 80//80 82//82
f 80//80 11//11 81//81
f 25//25 83//83 84//84
f 33//33 85//85 87//87
f 85//85 27//27 86//86
f 87//87 86//86 40//40
f 21//21 88//88 90//90
f 88//88 127//127 89//89
f 90//90 89//89 34//34
f 91//91 82//82 129//129
f 82//82 28//28 129//129
f 91//91 129//129 83//83
f 8//8 92//92 39//39
f 92//92 40//40 93//93
f 94//94 40//40 95//95
f 94//94 95//95 34//34
f 96//96 24//24 127//127
f 98//98 97//97 36//36
f 88//88 21//21 99//99
f 97//97 99//99 36//36
f 19//19 100//100 14//14
f 100//100 19//19 59//59
f 20//20 60//60 100//100
f 60//60 21//21 101//101
f 100//100 101//101 14//14
f 102//102 25//25 131//131
f 25//25 102//102 29//29
f 25//25 103//103 131//131
f 131//131 74//74 31//31
f 29//29 83//83 25//25
f 20//20 58//58 105//105
f 58//58 6//6 104//104
f 105//105 104//104 38//38
f 26//26 66//66 107//107
f 66//66 18//18 106//106
f 107//107 106//106 22//22
f 29//29 108//108 91//91
f 91//91 83//83 29//29
f 104//104 6//6 109//109
f 39//39 110//110 112//112
f 110//110 9//9 111//111
f 112//112 111//111 2//2
f 14//14 113//113 115//115
f 113//113 34//34 114//114
f 115//115 114//114 27//27
f 94//94 34//34 89//89
f 72//72 89//89 127//127
f 22//22 63//63 116//116
f 63//63 23//23 123//123
f 116//116 123//123 16//16
f 18//18 56//56 106//106
f 106//106 78//78 22//22
f 9//9 110//110 118//118
f 110//110 39//39 117//117
f 35//35 117//117 71//71
f 117//117 39//39 93//93
f 71//71 93//93 94//94
f 16//16 69//69 116//116
f 69//69 26//26 107//107
f 116//116 107//107 22//22
f 12//12 119//119 52//52
f 119//119 9//9 118//118
f 52//52 120//120 37//37
f 35//35 121//121 128//128
f 121//121 37//37 120//120
f 37//37 121//121 122//122
f 121//121 35//35 125//125
f 122//122 125//125 28//28
f 123//123 38//38 16//16
f 21//21 90//90 101//101
f 90//90 34//34 113//113
f 101//101 113//113 14//14
f 28//28 126//126 129//129
f 130//130 84//84 83//83
f 2//2 8//8 112//112
f 39//39 112//112 8//8
f 40//40 94//94 93//93
f 8//8 42//42 92//92
f 42//42 33//33 87//87
f 92//92 87//87 40//40
f 27//27 114//114 86//86
f 114//114 34//34 95//95
f 86//86 95//95 40//40
f 115//115 27//27 13//13
f 30//30 124//124 77//77
f 124//124 36//36 64//64
f 77//77 64//64 22//22
f 36//36 124//124 98//98
f 124//124 30//30 103//103
f 36//36 99//99 65//65
f 99//99 21//21 62//62
f 65//65 62//62 23//23
f 25//25 84//84 103//103
f 20//20 105//105 61//61
f 105//105 38//38 123//123
f 61//61 123//123 23//23
f 16//16 38//38 46//46
f 70//70 46//46 15//15
f 28//28 82//82 81//81
f 81//81 11//11 53//53
f 122//122 53//53 37//37
f 125//125 73//73 126//126
f 125//125 35//35 73//73
f 126//126 73//73 24//24
f 28//28 125//125 126//126
f 126//126 24//24 96//96
f 126//126 96//96 130//130
f 98//98 103//103 84//84
f 28//28 81//81 122//122
f 82//82 80//80 81//81
f 119//119 118//118 120//120
f 24//24 73//73 72//72
f 110//110 128//128 118//118
f 127//127 24//24 72//72
f 96//96 127//127 97//97
f 97//97 127//127 88//88
f 35//35 128//128 117//117
f 128//128 121//121 120//120
f 129//129 126//126 130//130
f 130//130 98//98 84//84
f 130//130 96//96 98//98
f 47//47 132//132 7//7
f 131//131 30//30 74//74
f 132//132 109//109 7//7
f 38//38 104//104 132//132
f 109//109 132//132 104//104
# 224 faces, 0 coords texture

# End of File
