####
#
# OBJ File Generated by Meshlab
#
####
# Object 1544_C60_S_12.obj
#
# Vertices: 215
# Faces: 379
#
####
vn 4.159902 -4.707542 -0.096057
v -43.174211 32.008058 -17.926166
vn 4.203865 -4.668175 -0.075491
v -38.883337 35.684633 -10.768940
vn 4.247303 -4.627541 -0.141354
v -38.559390 36.038949 -13.068891
vn 4.205234 -4.666265 -0.135043
v -40.422886 34.426488 -15.931077
vn 4.250691 -4.624706 -0.134256
v -36.185828 38.245512 -12.743663
vn 4.283320 -4.594714 -0.123670
v -37.435960 37.036185 -11.761884
vn 4.252810 -4.624195 -0.087783
v -42.364912 32.828602 -21.659721
vn 4.156707 -4.710585 -0.085588
v -42.713950 32.374107 -15.749561
vn 4.294316 -4.582943 -0.182515
v -39.085925 35.959351 -23.669551
vn 4.274238 -4.602484 -0.158875
v -37.296354 37.243347 -13.670440
vn 4.237248 -4.636503 -0.158384
v -36.159773 38.318200 -14.951194
vn 4.274718 -4.601683 -0.172209
v -38.364545 36.423934 -18.715576
vn 4.184705 -4.685969 -0.086421
v -40.927894 33.924847 -13.759295
vn 4.240050 -4.632296 -0.202058
v -34.643313 39.833086 -17.681987
vn 4.184521 -4.686223 -0.080179
v -43.425883 31.833520 -20.016176
vn 4.261823 -4.613472 -0.173443
v -40.911773 34.148036 -21.124647
vn 4.177849 -4.692589 -0.052973
v -40.191467 34.520687 -10.193447
vn 4.177313 -4.692487 -0.091139
v -40.046939 34.693863 -12.356139
vn 4.279596 -4.596415 -0.188663
v -39.507359 35.415944 -20.303870
vn 4.255974 -4.619836 -0.145848
v -39.987326 34.893811 -18.114252
vn 4.208797 -4.663346 -0.131554
v -42.061497 33.050896 -19.590411
vn 4.287996 -4.588786 -0.179777
v -39.816187 35.236304 -22.580951
vn 4.286602 -4.588666 -0.217183
v -37.037312 37.797581 -22.105297
vn 4.270423 -4.605066 -0.187562
v -36.178960 38.421565 -17.917974
vn 4.283130 -4.593028 -0.191114
v -36.955182 37.780020 -20.015961
vn 4.098056 -4.762377 -0.060462
v -43.578570 31.604308 -14.378967
vn 4.270218 -4.606171 -0.163185
v -37.464232 37.196058 -17.061385
vn 4.269748 -4.606674 -0.159572
v -38.955178 35.793584 -16.578513
vn 4.157732 -4.710194 -0.069505
v -41.552040 33.345414 -11.613193
vn 4.231058 -4.642397 -0.125734
v -39.479482 35.231369 -14.465789
vn 4.203336 -4.668712 -0.114475
v -41.584849 33.422764 -17.424789
vn 4.278581 -4.598590 -0.153954
v -38.043628 36.600718 -15.108084
vn 4.280705 -4.594608 -0.207564
v -35.699704 38.996710 -20.875684
vn 4.256517 -4.620772 -0.092055
v -37.503671 36.941840 -9.731715
vn 4.304435 -4.575104 -0.134466
v -41.256000 33.896054 -23.078518
vn 4.232659 -4.641393 -0.138669
v -34.862258 39.477180 -14.131060
vn 4.258711 -4.614737 -0.213039
v -35.139031 39.481824 -20.098654
vn 4.244545 -4.628423 -0.199403
v -35.393428 39.070893 -16.095154
vn 4.278177 -4.596986 -0.208158
v -38.593453 36.344241 -21.984617
vn 4.246616 -4.627746 -0.168624
v -36.705197 37.848187 -15.678503
vn 1.855830 -2.094434 -0.020737
v -43.878500 31.435100 -20.282200
vn 2.123543 -2.432424 -0.048920
v -44.085100 31.241200 -19.175800
vn 1.974847 -2.221016 -0.008658
v -39.759100 34.902700 -9.151055
vn 2.063401 -2.206008 -0.104305
v -36.270400 38.539500 -22.625800
vn 1.972468 -2.107389 -0.109481
v -36.871000 38.011400 -23.212200
vn 2.086231 -2.256040 -0.099384
v -35.262000 39.418700 -21.267000
vn 2.082212 -2.229084 -0.099293
v -35.706700 39.037200 -21.922400
vn 2.314038 -2.451318 -0.074787
v -40.961400 34.195500 -23.769400
vn 1.744686 -1.837187 -0.050288
v -41.414800 33.762200 -23.697800
vn 2.210553 -2.342567 -0.079388
v -39.373300 35.702800 -24.083500
vn 1.902898 -2.018755 -0.063366
v -40.271400 34.855300 -24.111400
vn 1.925443 -2.114237 -0.066759
v -35.233800 39.071300 -11.472500
vn 2.212881 -2.432374 -0.072880
v -35.637900 38.688000 -11.040500
vn 2.303964 -2.436262 -0.051431
v -41.676100 33.505900 -23.376100
vn 1.950924 -2.077769 -0.081565
v -38.996250 36.060700 -24.113500
vn 1.939973 -2.245276 -0.030648
v -44.310843 31.002417 -16.400125
vn 1.665890 -1.837915 -0.020425
v -38.373700 36.125700 -8.700410
vn 2.385761 -2.612840 -0.096854
v -34.003100 40.305500 -15.300600
vn 1.885593 -2.058998 -0.064123
v -34.113700 40.159200 -14.027200
vn 2.018242 -2.220873 -0.089110
v -34.144400 40.312500 -18.331300
vn 2.040096 -2.241720 -0.095801
v -34.391100 40.126700 -19.317100
vn 2.052243 -2.305679 -0.040513
v -40.888600 33.891500 -9.845040
vn 1.853635 -2.117594 -0.031405
v -42.273600 32.702700 -10.931400
vn 2.021047 -2.303344 -0.050291
v -41.564300 33.306600 -10.329600
vn 1.844671 -2.123337 -0.036786
v -44.309400 31.026300 -18.293900
vn 1.889643 -2.204798 -0.024182
v -43.928300 31.301000 -14.007800
vn 2.117312 -2.454486 -0.032078
v -43.384400 31.753200 -12.935000
vn 2.099243 -2.302945 -0.027342
v -43.492900 31.784500 -21.053000
vn 1.927342 -2.249384 -0.027069
v -44.050000 31.201300 -14.445300
vn 1.902626 -2.182904 -0.020062
v -43.118000 31.974800 -12.273900
vn 1.941252 -2.070863 -0.025664
v -42.477100 32.735200 -22.755500
vn 2.311958 -2.532042 -0.119297
v -33.959300 40.367200 -15.842600
vn 2.061007 -2.203701 -0.103003
v -37.762000 37.197900 -23.694250
vn 2.108722 -2.406907 -0.020118
v -42.772200 32.274000 -11.761350
vn 2.030152 -2.211615 -0.024515
v -43.002800 32.246800 -21.998300
vn 1.957524 -2.124899 -0.100152
v -34.795400 39.816400 -20.480800
vn 2.458280 -2.678225 -0.044856
v -38.162300 36.322600 -8.834460
vn 2.636796 -2.852956 -0.071505
v -36.936000 37.465200 -9.691770
vn 1.894897 -2.054296 -0.047173
v -36.252300 38.108800 -10.158100
vn 1.581260 -1.735156 -0.069074
v -33.896800 40.411200 -15.551200
vn 1.266490 -1.384766 -0.035448
v -37.186000 37.207400 -8.755950
vn 2.007757 -2.213232 -0.056096
v -34.677700 39.607300 -12.532000
vn 2.120861 -2.334198 -0.056079
v -34.491900 39.787200 -13.032400
vn 4.208356 -4.663736 -0.125109
v -38.743229 35.843271 -11.983328
vn 4.169515 -4.698726 -0.123994
v -39.489429 35.169669 -11.642015
vn 4.186035 -4.684476 -0.099977
v -39.298483 35.369862 -12.711238
vn 4.162682 -4.705661 -0.070921
v -39.646638 35.008433 -10.739930
vn 4.160400 -4.707262 -0.104849
v -40.209046 34.524947 -11.315225
vn 4.286792 -4.592521 -0.101498
v -36.714623 37.699563 -11.088063
vn 4.299398 -4.579177 -0.156017
v -36.821665 37.627498 -12.131067
vn 4.273552 -4.602609 -0.176504
v -38.695502 36.074839 -17.625285
vn 4.260931 -4.614826 -0.160118
v -39.457627 35.355825 -17.334898
vn 4.276223 -4.600459 -0.167400
v -39.219346 35.618000 -18.400034
vn 4.271688 -4.605246 -0.142815
v -36.777980 37.712336 -13.264782
vn 4.240988 -4.634054 -0.132998
v -36.865741 37.660598 -14.456407
vn 4.232526 -4.642547 -0.103699
v -36.155428 38.296045 -13.846027
vn 4.167566 -4.702064 -0.018816
v -39.372968 35.247581 -9.899891
vn 4.178073 -4.691555 -0.106316
v -41.123819 33.795867 -15.606526
vn 4.174550 -4.694538 -0.113331
v -40.658374 34.190518 -14.833217
vn 4.181950 -4.687782 -0.118839
v -41.333126 33.584616 -14.555285
vn 4.265091 -4.611149 -0.149292
v -38.021846 36.513672 -12.394969
vn 4.252611 -4.624327 -0.092564
v -38.140818 36.377849 -11.306967
vn 4.226572 -4.647547 -0.119482
v -42.202800 32.950222 -20.619136
vn 4.202528 -4.669486 -0.114301
v -42.779074 32.410195 -19.803732
vn 4.282152 -4.593231 -0.209204
v -38.199534 36.749347 -22.817101
vn 4.190978 -4.680056 -0.104627
v -41.898882 33.099097 -15.389665
vn 4.195937 -4.675781 -0.097906
v -42.197372 32.854708 -16.565886
vn 4.188422 -4.682510 -0.097684
v -41.562456 33.419836 -16.328851
vn 4.290024 -4.586634 -0.191678
v -36.293400 38.381232 -19.574229
vn 4.295407 -4.580881 -0.208367
v -36.312778 38.406968 -20.549383
vn 4.281877 -4.593686 -0.204699
v -35.657204 38.987435 -19.823663
vn 4.207358 -4.663918 -0.146828
v -39.941023 34.837665 -15.185884
vn 4.184759 -4.685915 -0.087869
v -40.219442 34.563705 -14.097202
vn 4.277571 -4.597504 -0.209164
v -37.844041 37.042025 -21.995073
vn 4.299096 -4.579238 -0.161686
v -39.581737 35.484277 -23.408917
vn 4.308018 -4.571514 -0.143666
v -40.200493 34.898577 -23.357518
vn 4.234227 -4.639746 -0.142439
v -35.557992 38.851809 -14.459522
vn 4.221318 -4.652647 -0.108127
v -35.375596 38.992012 -13.273022
vn 4.224614 -4.648806 -0.139301
v -35.597977 38.762418 -12.193774
vn 4.257151 -4.619058 -0.135149
v -36.178871 38.208641 -11.459479
vn 4.147743 -4.718485 -0.087293
v -42.570684 32.480223 -14.648334
vn 4.110788 -4.751249 -0.073950
v -43.227003 31.918805 -15.066254
vn 4.257114 -4.618447 -0.158269
v -37.179881 37.432221 -16.290688
vn 4.273028 -4.603182 -0.174261
v -36.998719 37.664518 -18.019901
vn 4.264912 -4.610595 -0.176795
v -36.648148 37.947720 -16.903546
vn 4.272023 -4.604065 -0.175558
v -37.876819 36.842758 -17.834540
vn 4.277510 -4.599672 -0.154316
v -38.213863 36.492576 -16.860887
vn 4.287929 -4.588340 -0.198003
v -38.543505 36.460661 -23.557527
vn 2.128372 -2.274178 -0.097207
v -38.368200 36.639850 -23.911350
vn 4.152874 -4.713977 -0.084938
v -42.961158 32.175922 -16.848241
vn 4.110486 -4.751559 -0.070735
v -43.478007 31.717262 -16.070219
vn 4.113844 -4.748741 -0.064334
v -43.696000 31.543693 -17.126413
vn 4.206327 -4.666850 -0.040914
v -38.634875 35.898941 -9.597661
vn 2.065333 -2.336156 -0.010040
v -38.990050 35.582000 -8.889540
vn 4.273396 -4.605548 -0.071558
v -37.495092 36.965481 -10.750329
vn 4.257534 -4.620340 -0.065308
v -38.148640 36.353189 -10.124351
vn 4.250458 -4.625276 -0.136170
v -41.627963 33.497737 -21.407016
vn 4.227158 -4.645941 -0.152548
v -41.487211 33.600052 -20.387235
vn 4.182158 -4.687712 -0.114623
v -41.912824 33.060183 -14.358897
vn 4.234849 -4.638299 -0.173859
v -34.517530 39.820464 -14.929370
vn 4.281121 -4.596251 -0.157769
v -39.736415 35.163794 -19.182517
vn 4.281934 -4.595280 -0.163764
v -38.995057 35.862854 -19.447542
vn 4.193075 -4.678929 -0.064485
v -39.779370 34.948732 -13.408895
vn 4.185865 -4.685442 -0.058838
v -40.518591 34.281046 -13.032209
vn 2.084523 -2.318992 -0.013220
v -40.400200 34.329300 -9.534240
vn 4.160334 -4.706989 -0.109231
v -43.377796 31.852653 -18.991087
vn 4.122803 -4.740636 -0.081112
v -43.826426 31.443273 -18.142889
vn 4.242441 -4.631773 -0.162554
v -39.694335 35.105265 -16.264598
vn 4.268748 -4.607216 -0.166578
v -39.209017 35.520004 -15.524967
vn 4.232827 -4.641001 -0.149337
v -40.209440 34.656015 -17.017657
vn 4.198553 -4.672932 -0.119421
v -42.634466 32.514585 -18.759544
vn 4.198058 -4.673316 -0.121818
v -41.885368 33.181647 -18.541558
vn 4.196149 -4.675285 -0.111032
v -42.418740 32.680002 -17.675985
vn 4.208701 -4.662807 -0.149357
v -41.347935 33.686093 -19.366135
vn 4.215141 -4.658092 -0.111770
v -41.229388 33.767845 -18.421741
vn 4.276686 -4.597955 -0.217127
v -39.683016 35.307525 -21.459098
vn 4.274759 -4.600226 -0.206155
v -40.221997 34.772477 -20.771953
vn 4.294506 -4.582211 -0.195110
v -40.364459 34.690170 -21.827160
vn 4.199851 -4.671391 -0.127658
v -40.953245 33.970405 -16.679693
vn 4.225432 -4.648378 -0.125380
v -40.763879 34.178658 -17.772603
vn 4.286787 -4.589858 -0.186161
v -38.800966 36.076045 -20.325881
vn 4.279374 -4.597186 -0.176494
v -38.287736 36.536596 -19.812731
vn 4.279440 -4.596160 -0.200186
v -38.237685 36.629177 -20.952972
vn 4.277458 -4.597737 -0.206361
v -37.544041 37.289627 -21.289813
vn 4.308532 -4.570510 -0.158655
v -40.583291 34.521786 -22.831816
vn 4.122011 -4.741805 -0.046257
v -42.753956 32.298243 -12.962378
vn 4.288370 -4.588544 -0.183165
v -37.871099 36.695610 -13.405641
vn 4.271287 -4.604811 -0.173885
v -37.568227 37.157774 -18.597832
vn 4.276418 -4.599990 -0.175235
v -36.945265 37.753568 -19.069018
vn 4.291782 -4.586776 -0.142484
v -38.485206 36.210131 -15.838265
vn 4.296626 -4.581550 -0.163336
v -38.751958 35.925229 -14.802139
vn 2.056075 -2.373083 -0.028745
v -44.310700 31.013950 -17.350950
vn 4.100354 -4.760335 -0.067568
v -43.836846 31.395018 -15.287524
vn 1.981026 -2.175234 -0.102369
v -33.957800 40.426675 -17.024825
vn 4.286559 -4.588467 -0.222548
v -37.516178 37.383704 -22.786493
vn 4.296042 -4.580424 -0.205272
v -36.322704 38.444580 -21.581292
vn 4.162528 -4.705412 -0.103173
v -40.894837 33.908733 -10.889979
vn 4.169732 -4.699330 -0.082603
v -40.780038 34.036633 -11.975170
vn 4.160408 -4.708124 -0.034793
v -41.941310 33.006574 -12.704285
vn 4.272336 -4.602817 -0.198482
v -39.313661 35.694631 -22.407685
vn 4.247840 -4.627310 -0.136900
v -40.569666 34.380191 -18.987417
vn 4.182377 -4.687940 -0.081633
v -41.594586 33.324231 -13.591418
vn 4.275525 -4.600851 -0.173480
v -40.157525 34.794515 -19.862163
vn 4.239965 -4.633201 -0.179670
v -40.782822 34.224744 -20.110214
vn 4.243977 -4.630886 -0.119059
v -39.029316 35.625878 -13.765717
vn 4.249707 -4.623067 -0.212181
v -35.030842 39.440571 -16.893531
vn 4.260215 -4.614379 -0.190833
v -35.795111 38.737719 -16.993085
vn 4.266061 -4.608583 -0.200244
v -35.402615 39.139097 -17.888181
vn 4.266410 -4.610423 -0.139584
v -37.784764 36.871314 -16.115501
vn 4.291706 -4.585644 -0.177573
v -38.315367 36.307246 -14.095576
vn 4.266263 -4.609810 -0.160069
v -37.632361 36.956639 -14.370677
vn 2.046262 -2.384045 -0.030497
v -44.179850 31.102300 -15.419450
vn 4.284147 -4.593106 -0.162352
v -41.080982 34.025981 -22.144934
vn 4.273575 -4.605047 -0.090003
v -36.951301 37.465750 -10.321066
vn 4.277089 -4.598568 -0.194240
v -35.794446 38.818325 -18.835480
vn 4.251351 -4.622655 -0.188195
v -36.067560 38.448009 -16.014175
vn 4.248377 -4.625168 -0.193693
v -35.676928 38.779621 -15.370765
vn 4.270773 -4.605232 -0.175368
v -37.644415 37.117556 -19.401021
vn 4.278274 -4.596744 -0.211374
v -39.014765 35.914914 -21.177383
vn 4.287700 -4.588124 -0.207295
v -36.966165 37.815137 -21.021479
vn 4.273023 -4.602403 -0.193214
v -37.604335 37.192447 -20.378256
vn 4.247101 -4.628025 -0.148046
v -37.357939 37.239215 -15.362031
vn 4.186537 -4.684992 -0.045958
v -41.232237 33.641411 -12.719641
vn 4.231429 -4.640078 -0.206140
v -34.520538 39.853028 -15.808563
vn 4.235072 -4.637630 -0.186621
v -35.116681 39.285167 -15.167660
vn 4.228906 -4.646083 -0.084739
v -42.915181 32.312515 -20.833941
vn 4.286951 -4.591851 -0.111096
v -41.784935 33.385901 -22.415070
vn 4.233626 -4.637107 -0.228155
v -34.406920 39.998157 -16.640971
vn 4.142408 -4.724168 -0.031827
v -42.329154 32.664275 -12.014612
vn 4.281444 -4.594465 -0.196193
v -38.967090 36.037736 -22.923832
vn 4.281972 -4.594579 -0.181312
v -36.416921 38.231291 -18.711564
vn 4.247718 -4.625561 -0.196901
v -35.012192 39.545285 -18.904745
vn 4.292888 -4.584337 -0.182508
v -37.294481 37.207510 -12.747055
vn 4.140473 -4.725192 -0.069745
v -42.377414 32.632639 -13.662791
vn 4.102334 -4.758694 -0.063001
v -43.270204 31.863208 -13.816918
# 215 vertices, 0 vertices normals

f 84//84 85//85 86//86
f 87//87 88//88 85//85
f 120//120 89//89 90//90
f 91//91 92//92 93//93
f 15//15 146//146 42//42
f 94//94 95//95 96//96
f 98//98 99//99 100//100
f 84//84 101//101 102//102
f 23//23 45//45 44//44
f 33//33 47//47 46//46
f 35//35 49//49 48//48
f 103//103 104//104 206//206
f 128//128 105//105 210//210
f 9//9 50//50 55//55
f 106//106 107//107 108//108
f 109//109 110//110 111//111
f 112//112 113//113 99//99
f 175//175 114//114 105//105
f 9//9 115//115 50//50
f 117//117 118//118 96//96
f 79//79 120//120 53//53
f 35//35 54//54 49//49
f 126//126 127//127 91//91
f 128//128 55//55 129//129
f 130//130 131//131 132//132
f 133//133 134//134 97//97
f 102//102 135//135 136//136
f 103//103 137//137 138//138
f 106//106 139//139 121//121
f 36//36 140//140 59//59
f 93//93 141//141 142//142
f 113//113 143//143 144//144
f 14//14 60//60 174//174
f 17//17 43//43 145//145
f 29//29 64//64 63//63
f 41//41 15//15 42//42
f 112//112 148//148 149//149
f 92//92 148//148 150//150
f 151//151 152//152 153//153
f 152//152 154//154 155//155
f 26//26 66//66 69//69
f 156//156 157//157 158//158
f 151//151 146//146 104//104
f 108//108 159//159 98//98
f 159//159 160//160 150//150
f 142//142 161//161 162//162
f 163//163 114//114 164//164
f 22//22 165//165 116//116
f 35//35 207//207 54//54
f 213//213 101//101 167//167
f 170//170 171//171 149//149
f 132//132 172//172 147//147
f 122//122 173//173 131//131
f 23//23 175//175 45//45
f 33//33 176//176 47//47
f 177//177 178//178 88//88
f 7//7 75//75 71//71
f 181//181 160//160 155//155
f 100//100 182//182 139//139
f 183//183 184//184 157//157
f 185//185 86//86 143//143
f 154//154 138//138 184//184
f 107//107 130//130 153//153
f 186//186 187//187 188//188
f 170//170 127//127 189//189
f 167//167 190//190 191//191
f 171//171 190//190 185//185
f 56//56 173//173 192//192
f 193//193 165//165 158//158
f 194//194 135//135 89//89
f 34//34 194//194 78//78
f 204//204 80//80 58//58
f 207//207 193//193 137//137
f 34//34 78//78 81//81
f 204//204 72//72 80//80
f 181//181 183//183 141//141
f 195//195 211//211 109//109
f 195//195 212//212 188//188
f 38//38 197//197 196//196
f 161//161 199//199 163//163
f 110//110 200//200 176//176
f 162//162 201//201 198//198
f 202//202 189//189 123//123
f 144//144 178//178 203//203
f 182//182 203//203 179//179
f 204//204 186//186 208//208
f 196//196 125//125 187//187
f 199//199 156//156 180//180
f 95//95 191//191 202//202
f 117//117 197//197 205//205
f 205//205 204//204 140//140
f 5//5 118//118 119//119
f 201//201 164//164 200//200
f 3//3 84//84 86//86
f 84//84 2//2 85//85
f 86//86 85//85 18//18
f 2//2 87//87 85//85
f 87//87 17//17 88//88
f 85//85 88//88 18//18
f 5//5 120//120 90//90
f 12//12 91//91 93//93
f 91//91 28//28 92//92
f 93//93 92//92 20//20
f 5//5 94//94 96//96
f 94//94 10//10 95//95
f 96//96 95//95 11//11
f 87//87 2//2 97//97
f 17//17 87//87 97//97
f 106//106 98//98 100//100
f 98//98 4//4 99//99
f 100//100 99//99 13//13
f 2//2 84//84 102//102
f 84//84 3//3 101//101
f 102//102 101//101 6//6
f 7//7 103//103 206//206
f 103//103 21//21 104//104
f 206//206 104//104 15//15
f 9//9 128//128 210//210
f 128//128 73//73 105//105
f 210//210 105//105 39//39
f 106//106 8//8 107//107
f 108//108 107//107 31//31
f 109//109 25//25 110//110
f 111//111 110//110 33//33
f 4//4 112//112 99//99
f 112//112 30//30 113//113
f 99//99 113//113 13//13
f 73//73 175//175 105//105
f 175//175 23//23 114//114
f 105//105 114//114 39//39
f 115//115 22//22 116//116
f 115//115 116//116 51//51
f 115//115 51//51 50//50
f 11//11 117//117 96//96
f 117//117 36//36 118//118
f 96//96 118//118 5//5
f 120//120 5//5 119//119
f 53//53 119//119 52//52
f 120//120 119//119 53//53
f 8//8 121//121 122//122
f 26//26 121//121 215//215
f 94//94 90//90 213//213
f 90//90 6//6 213//213
f 94//94 213//213 10//10
f 40//40 123//123 125//125
f 123//123 27//27 125//125
f 125//125 124//124 24//24
f 12//12 126//126 91//91
f 126//126 27//27 127//127
f 91//91 127//127 28//28
f 55//55 128//128 9//9
f 129//129 73//73 128//128
f 1//1 130//130 132//132
f 130//130 8//8 131//131
f 132//132 131//131 56//56
f 2//2 136//136 133//133
f 133//133 57//57 134//134
f 97//97 134//134 43//43
f 2//2 102//102 136//136
f 102//102 6//6 135//135
f 136//136 135//135 34//34
f 21//21 103//103 138//138
f 103//103 7//7 137//137
f 138//138 137//137 16//16
f 8//8 106//106 121//121
f 121//121 139//139 214//214
f 58//58 140//140 204//204
f 140//140 58//58 59//59
f 12//12 93//93 142//142
f 93//93 20//20 141//141
f 142//142 141//141 19//19
f 13//13 113//113 144//144
f 113//113 30//30 143//143
f 144//144 143//143 18//18
f 212//212 61//61 60//60
f 14//14 212//212 60//60
f 17//17 145//145 62//62
f 146//146 1//1 147//147
f 42//42 147//147 65//65
f 146//146 147//147 42//42
f 30//30 112//112 149//149
f 112//112 4//4 148//148
f 149//149 148//148 28//28
f 20//20 92//92 150//150
f 92//92 28//28 148//148
f 150//150 148//148 4//4
f 1//1 151//151 153//153
f 151//151 21//21 152//152
f 153//153 152//152 31//31
f 31//31 152//152 155//155
f 152//152 21//21 154//154
f 155//155 154//154 181//181
f 22//22 156//156 158//158
f 156//156 19//19 157//157
f 158//158 157//157 16//16
f 21//21 151//151 104//104
f 151//151 1//1 146//146
f 104//104 146//146 15//15
f 106//106 108//108 98//98
f 108//108 31//31 159//159
f 98//98 159//159 4//4
f 4//4 159//159 150//150
f 159//159 31//31 160//160
f 150//150 160//160 20//20
f 12//12 142//142 162//162
f 142//142 19//19 161//161
f 162//162 161//161 163//163
f 163//163 39//39 114//114
f 164//164 114//114 23//23
f 48//48 165//165 35//35
f 165//165 48//48 116//116
f 51//51 116//116 48//48
f 67//67 166//166 70//70
f 67//67 215//215 166//166
f 207//207 71//71 54//54
f 10//10 213//213 167//167
f 213//213 6//6 101//101
f 167//167 101//101 3//3
f 28//28 170//170 149//149
f 170//170 32//32 171//171
f 149//149 171//171 30//30
f 1//1 132//132 147//147
f 132//132 56//56 172//172
f 147//147 172//172 65//65
f 8//8 122//122 131//131
f 122//122 26//26 173//173
f 131//131 173//173 56//56
f 204//204 208//208 72//72
f 174//174 72//72 208//208
f 175//175 73//73 45//45
f 44//44 176//176 23//23
f 176//176 44//44 47//47
f 17//17 177//177 88//88
f 177//177 29//29 178//178
f 88//88 178//178 18//18
f 214//214 179//179 166//166
f 166//166 179//179 209//209
f 74//74 70//70 209//209
f 29//29 63//63 209//209
f 74//74 209//209 63//63
f 177//177 62//62 64//64
f 62//62 177//177 17//17
f 29//29 177//177 64//64
f 115//115 9//9 210//210
f 180//180 210//210 39//39
f 206//206 68//68 75//75
f 41//41 68//68 15//15
f 7//7 206//206 75//75
f 181//181 20//20 160//160
f 155//155 160//160 31//31
f 106//106 100//100 139//139
f 100//100 13//13 182//182
f 139//139 182//182 214//214
f 19//19 183//183 157//157
f 183//183 181//181 184//184
f 157//157 184//184 16//16
f 30//30 185//185 143//143
f 185//185 3//3 86//86
f 143//143 86//86 18//18
f 181//181 154//154 184//184
f 154//154 21//21 138//138
f 184//184 138//138 16//16
f 31//31 107//107 153//153
f 107//107 8//8 130//130
f 153//153 130//130 1//1
f 14//14 186//186 188//188
f 186//186 38//38 187//187
f 188//188 187//187 24//24
f 32//32 170//170 189//189
f 170//170 28//28 127//127
f 189//189 127//127 27//27
f 10//10 167//167 191//191
f 167//167 3//3 190//190
f 191//191 190//190 32//32
f 30//30 171//171 185//185
f 171//171 32//32 190//190
f 185//185 190//190 3//3
f 26//26 69//69 173//173
f 192//192 173//173 69//69
f 46//46 37//37 33//33
f 16//16 193//193 158//158
f 193//193 35//35 165//165
f 158//158 165//165 22//22
f 194//194 34//34 135//135
f 57//57 133//133 77//77
f 79//79 194//194 89//89
f 194//194 79//79 78//78
f 7//7 207//207 137//137
f 207//207 35//35 193//193
f 137//137 193//193 16//16
f 34//34 81//81 77//77
f 20//20 181//181 141//141
f 141//141 183//183 19//19
f 52//52 119//119 82//82
f 109//109 169//169 25//25
f 24//24 195//195 188//188
f 111//111 37//37 212//212
f 188//188 212//212 14//14
f 11//11 196//196 197//197
f 196//196 11//11 40//40
f 25//25 169//169 198//198
f 168//168 124//124 126//126
f 198//198 168//168 12//12
f 161//161 19//19 199//199
f 163//163 199//199 39//39
f 33//33 110//110 176//176
f 110//110 25//25 200//200
f 176//176 200//200 23//23
f 12//12 162//162 198//198
f 162//162 163//163 201//201
f 198//198 201//201 25//25
f 40//40 202//202 123//123
f 202//202 32//32 189//189
f 123//123 189//189 27//27
f 13//13 144//144 203//203
f 144//144 18//18 178//178
f 203//203 178//178 29//29
f 214//214 182//182 179//179
f 182//182 13//13 203//203
f 204//204 38//38 186//186
f 174//174 208//208 14//14
f 38//38 196//196 187//187
f 196//196 40//40 125//125
f 187//187 125//125 24//24
f 39//39 199//199 180//180
f 199//199 19//19 156//156
f 180//180 156//156 22//22
f 40//40 95//95 202//202
f 95//95 10//10 191//191
f 202//202 191//191 32//32
f 36//36 117//117 205//205
f 117//117 11//11 197//197
f 205//205 197//197 38//38
f 40//40 11//11 95//95
f 36//36 205//205 140//140
f 205//205 38//38 204//204
f 36//36 59//59 83//83
f 118//118 36//36 83//83
f 118//118 82//82 119//119
f 82//82 118//118 83//83
f 25//25 201//201 200//200
f 201//201 163//163 164//164
f 200//200 164//164 23//23
f 206//206 15//15 68//68
f 124//124 168//168 169//169
f 37//37 76//76 61//61
f 71//71 207//207 7//7
f 24//24 124//124 211//211
f 169//169 168//168 198//198
f 168//168 126//126 12//12
f 179//179 203//203 29//29
f 29//29 209//209 179//179
f 208//208 186//186 14//14
f 211//211 169//169 109//109
f 17//17 97//97 43//43
f 125//125 27//27 124//124
f 2//2 133//133 97//97
f 70//70 166//166 209//209
f 111//111 195//195 109//109
f 195//195 24//24 211//211
f 126//126 124//124 27//27
f 211//211 124//124 169//169
f 136//136 34//34 77//77
f 79//79 89//89 120//120
f 37//37 46//46 76//76
f 37//37 111//111 33//33
f 133//133 136//136 77//77
f 212//212 37//37 61//61
f 195//195 111//111 212//212
f 121//121 214//214 215//215
f 5//5 90//90 94//94
f 89//89 135//135 6//6
f 90//90 89//89 6//6
f 166//166 215//215 214//214
f 26//26 215//215 66//66
f 122//122 121//121 26//26
f 180//180 22//22 115//115
f 180//180 115//115 210//210
f 215//215 67//67 66//66
# 379 faces, 0 coords texture

# End of File
