####
#
# OBJ File Generated by Meshlab
#
####
# Object 1639_C67_S_13.obj
#
# Vertices: 172
# Faces: 302
#
####
vn 3.487559 -5.220982 0.173115
v -19.231968 58.908627 21.165319
vn 2.548513 -5.734643 0.266115
v -11.379445 63.203814 18.404646
vn 3.335216 -5.317638 0.145750
v -17.475652 59.970786 18.189449
vn 3.130348 -5.444529 0.185466
v -16.073002 60.754479 17.340761
vn 3.197174 -5.401715 0.180523
v -16.272164 60.876729 23.825246
vn 2.852466 -5.592801 0.247499
v -13.516101 62.167791 18.510223
vn 2.711948 -5.662879 0.202695
v -12.464034 62.638154 16.977200
vn 2.802487 -5.620233 0.161127
v -12.793161 62.703760 23.161994
vn 3.433193 -5.259619 0.161933
v -18.165716 59.682044 24.329421
vn 3.364692 -5.303172 0.178465
v -17.816881 59.847629 22.473297
vn 2.927650 -5.556556 0.157081
v -14.925119 61.287596 13.889668
vn 3.111097 -5.453743 0.188339
v -15.792457 60.989446 19.205528
vn 3.039812 -5.493324 0.178915
v -15.414922 61.409409 25.359747
vn 3.430108 -5.262196 0.121546
v -18.480222 59.208572 14.992767
vn 3.205753 -5.398588 0.188069
v -16.051590 60.915921 21.493218
vn 2.764641 -5.633360 0.152208
v -13.111317 62.531741 21.388481
vn 3.564078 -5.172811 0.121797
v -20.248434 58.036855 15.908543
vn 3.293443 -5.347030 0.169031
v -17.211226 60.047768 16.176030
vn 3.491587 -5.221203 0.157394
v -18.882652 58.986377 17.025935
vn 2.973209 -5.527103 0.251158
v -14.341029 61.842778 20.323285
vn 3.040054 -5.493297 0.171723
v -15.495699 61.048213 15.714539
vn 3.602280 -5.145160 0.148964
v -20.554110 57.881075 17.944587
vn 3.340785 -5.318950 0.143755
v -17.545010 59.935140 20.311938
vn 2.577930 -5.725118 0.224221
v -11.420928 63.282833 21.459315
vn 3.487525 -5.223379 0.165912
v -19.043135 58.945886 19.118192
vn 2.833557 -5.604388 0.199613
v -13.673008 61.974850 15.487407
vn 2.973810 -5.533061 0.118672
v -14.528511 61.794318 22.473655
vn 3.221869 -5.390964 0.143556
v -16.750777 60.277693 14.278698
vn 3.630993 -5.124743 0.159429
v -20.506507 57.990056 20.414134
vn 2.915005 -5.561544 0.169496
v -14.534074 61.616734 17.384186
vn 2.662727 -5.683213 0.258109
v -12.386977 62.802964 19.832109
vn 1.225487 -2.839302 0.141921
v -10.665400 63.458900 17.429300
vn 1.106772 -2.643433 0.126744
v -10.366300 63.626700 18.431400
vn 1.250051 -2.463708 0.113638
v -12.027300 63.143900 24.364900
vn 1.456985 -2.524574 0.025438
v -16.276200 60.531300 12.849800
vn 1.766205 -2.444236 0.072697
v -21.390900 57.316300 19.241000
vn 1.690793 -2.333046 0.069337
v -21.253400 57.450500 20.479500
vn 1.776869 -2.462546 0.072676
v -21.396900 57.287600 18.441600
vn 1.619192 -2.310538 0.048851
v -20.707603 57.710260 15.680811
vn 1.738834 -2.568288 0.048415
v -19.999800 58.182100 14.723700
vn 1.268278 -2.635480 0.079448
v -11.909142 62.849484 15.182868
vn 1.747981 -2.476848 0.083338
v -20.536737 58.028878 22.412533
vn 1.641830 -2.369637 0.054632
v -20.072700 58.385400 23.319700
vn 1.709128 -2.557427 0.051720
v -19.416700 58.844800 24.051800
vn 1.339710 -2.413582 0.075856
v -15.353650 61.460600 25.924650
vn 1.161079 -2.678867 0.119967
v -10.879900 63.326900 16.794500
vn 1.323522 -2.534858 0.095309
v -13.429465 62.444995 25.364256
vn 1.726048 -2.591059 0.055391
v -18.998400 59.130400 24.457700
vn 1.580462 -2.401602 0.081300
v -18.339600 59.591300 25.065900
vn 1.643004 -2.284082 0.063520
v -21.315400 57.316500 17.365600
vn 1.599463 -2.681412 0.044236
v -16.312700 60.887200 25.753700
vn 1.565741 -2.473256 0.076645
v -17.354600 60.252900 25.543400
vn 1.160204 -2.623802 0.118990
v -10.464000 63.702000 21.369600
vn 1.261210 -2.678311 0.147891
v -10.874500 63.595000 22.476000
vn 1.422393 -2.821884 0.078733
v -13.758700 61.870450 13.585600
vn 1.296397 -2.573797 0.081635
v -13.187000 62.168200 13.906000
vn 1.276851 -2.485344 0.066986
v -14.593300 61.437400 13.095100
vn 1.568892 -2.478705 0.052139
v -17.965400 59.498500 13.155300
vn 1.499890 -2.742364 0.032966
v -15.599400 60.907400 12.941800
vn 1.531186 -2.301355 0.047926
v -19.332400 58.617500 13.895900
vn 3.390969 -5.286631 0.125645
v -18.293210 59.441058 19.707254
vn 3.335767 -5.320297 0.211581
v -18.374029 59.435570 20.745520
vn 3.449626 -5.244713 0.226202
v -19.096873 58.956158 20.136224
vn 3.432540 -5.259031 0.177873
v -18.039303 59.522145 16.579615
vn 3.314600 -5.329673 0.231624
v -17.381049 59.986165 17.167981
vn 3.485250 -5.223542 0.208052
v -18.178392 59.480252 17.614155
vn 2.637918 -5.695776 0.248294
v -11.914128 62.924866 17.687878
vn 2.712348 -5.661014 0.257551
v -12.183528 62.817379 18.433387
vn 2.726409 -5.653016 0.296309
v -11.889142 63.133067 23.042300
vn 1.328238 -2.748600 0.153249
v -11.424225 63.380900 23.464000
vn 2.816344 -5.609360 0.259553
v -12.322869 62.969445 23.834001
vn 3.401023 -5.280363 0.168612
v -17.965542 59.784735 23.472714
vn 3.360464 -5.305176 0.199098
v -17.057399 60.353253 23.135014
vn 3.386771 -5.288855 0.189342
v -17.268039 60.250883 24.123659
vn 2.629230 -5.699481 0.255849
v -11.852855 63.018053 19.130005
vn 2.479409 -5.768209 0.226648
v -10.900021 63.442726 19.221783
vn 2.542080 -5.743101 0.181687
v -11.394641 63.245783 19.939101
vn 3.317534 -5.334795 0.109379
v -17.386884 59.869962 13.741215
vn 1.591054 -2.578375 0.059211
v -17.291700 59.912100 12.978950
vn 3.209288 -5.399678 0.102801
v -16.674641 60.304572 13.522147
vn 3.161313 -5.425769 0.213379
v -16.705612 60.401613 17.736326
vn 3.109666 -5.454878 0.220691
v -15.965690 60.849768 18.155851
vn 3.207950 -5.400037 0.111873
v -16.704066 60.442657 18.737654
vn 3.326484 -5.326518 0.202610
v -17.660249 59.904568 21.397429
vn 3.337707 -5.319754 0.195614
v -16.798879 60.425800 20.918718
vn 3.338336 -5.318580 0.215551
v -16.922770 60.390879 22.034053
vn 3.199980 -5.400532 0.211854
v -16.163535 60.893707 22.626116
vn 3.370458 -5.299821 0.154501
v -18.523456 59.381625 21.782697
vn 3.192056 -5.410186 0.136358
v -16.357633 60.543624 15.886321
vn 3.269737 -5.362580 0.142971
v -16.982257 60.161194 15.213208
vn 3.133662 -5.442650 0.170382
v -16.098829 60.675891 14.936167
vn 3.611152 -5.138962 0.149827
v -20.599426 57.880109 18.988416
vn 2.945197 -5.545788 0.215230
v -14.956643 61.623651 24.689604
vn 2.992242 -5.521594 0.181212
v -15.382670 61.364787 24.029089
vn 3.057087 -5.486625 0.170729
v -15.293548 61.356168 22.003095
vn 3.017978 -5.508425 0.153543
v -15.366703 61.355004 23.111711
vn 3.295019 -5.348041 0.108735
v -16.711079 60.442298 19.811126
vn 3.357934 -5.309501 0.020411
v -17.504064 59.957314 19.240511
vn 3.028982 -5.497417 0.265143
v -15.068796 61.418961 19.851400
vn 3.074103 -5.477467 0.159416
v -15.188170 61.385116 20.906101
vn 3.208531 -5.396725 0.186154
v -15.944369 60.943389 20.378383
vn 3.521476 -5.201417 0.149675
v -19.725057 58.429201 17.480900
vn 3.589323 -5.154256 0.141835
v -20.447977 57.927419 16.921434
vn 3.515583 -5.206053 0.126871
v -19.597096 58.489240 16.424210
vn 1.796469 -2.512320 0.076559
v -21.000350 57.657600 21.226800
vn 3.478023 -5.231240 0.094506
v -18.257152 59.460626 18.660198
vn 3.519747 -5.202030 0.169045
v -18.984149 58.951810 18.077508
vn 2.816840 -5.613071 0.192686
v -12.762611 62.424950 15.273338
vn 2.815555 -5.612970 0.213483
v -13.052966 62.313908 16.224912
vn 2.689622 -5.669608 0.257243
v -12.809905 62.641936 20.629505
vn 2.541896 -5.743085 0.184807
v -11.894687 63.047244 20.639470
vn 2.545452 -5.742518 0.145244
v -12.347883 62.871468 21.417873
vn 2.766722 -5.632965 0.300106
v -12.752195 62.576199 18.961896
vn 2.669486 -5.683158 0.157028
v -12.139942 62.764658 16.014390
vn 1.241599 -2.845414 0.051712
v -11.317900 63.126500 16.079300
vn 2.525025 -5.748780 0.211038
v -11.612989 63.011317 16.837415
vn 2.945789 -5.548863 0.076899
v -13.751380 62.198640 21.862606
vn 3.022633 -5.506348 0.140598
v -14.464645 61.802914 21.396965
vn 2.914066 -5.560650 0.227371
v -13.661622 62.222873 20.872159
vn 2.895578 -5.575582 0.066626
v -13.690135 62.234042 22.842456
vn 2.892478 -5.575709 0.148013
v -13.623345 62.285897 23.701217
vn 2.929045 -5.556773 0.138453
v -14.512259 61.826433 23.662443
vn 2.727911 -5.656011 0.060585
v -12.952517 62.617290 22.176980
vn 2.908659 -5.565126 0.217616
v -14.567746 61.849990 25.317280
vn 1.429176 -2.731062 0.116820
v -14.372000 61.967550 25.670900
vn 1.192023 -2.847787 0.134366
v -10.343750 63.671050 19.126000
vn 3.177785 -5.417183 0.182303
v -16.589219 60.433343 16.796238
vn 3.462692 -5.241273 0.112588
v -18.717186 59.073336 15.983673
vn 3.378088 -5.295921 0.133718
v -17.850044 59.625155 15.567193
vn 2.961697 -5.534526 0.233492
v -14.884564 61.461953 18.998364
vn 3.130352 -5.445734 0.130298
v -15.796566 60.895826 16.595973
vn 2.960260 -5.537636 0.179931
v -14.965168 61.358829 16.537680
vn 3.064081 -5.482447 0.170909
v -15.381915 61.143637 17.400579
vn 2.986753 -5.524534 0.163281
v -15.136556 61.316418 18.266528
vn 3.534547 -5.192141 0.164223
v -19.788235 58.420670 18.529601
vn 3.561157 -5.172736 0.195446
v -19.833635 58.422601 19.581629
vn 3.463351 -5.240427 0.134179
v -18.787923 59.257947 23.721474
vn 3.341784 -5.319027 0.132210
v -17.604884 59.749527 14.611837
vn 2.962343 -5.536401 0.195168
v -15.197093 61.174499 14.784381
vn 3.070850 -5.479779 0.119659
v -15.883465 60.755644 13.859434
vn 3.510006 -5.208572 0.126240
v -19.347060 58.853459 22.086256
vn 3.622959 -5.131010 0.158120
v -20.045343 58.349745 21.615150
vn 1.823926 -2.554369 0.068955
v -21.054000 57.485150 16.639550
vn 3.510938 -5.209562 0.109223
v -19.364224 58.621976 15.391818
vn 2.493607 -5.758561 0.310348
v -11.123740 63.269110 17.590070
vn 3.440011 -5.256290 0.123720
v -18.943481 59.133558 22.980452
vn 2.848005 -5.591615 0.315466
v -13.409132 62.287007 19.718107
vn 3.305885 -5.339772 0.144924
v -16.768719 60.599188 24.823949
vn 3.409259 -5.273889 0.202759
v -17.570421 60.084821 24.841670
vn 2.899314 -5.571053 0.187081
v -14.016939 62.107796 24.548253
vn 2.909467 -5.565837 0.186306
v -13.110389 62.570649 24.225682
vn 2.638796 -5.697630 0.189909
v -12.031725 63.028223 22.289422
vn 2.537793 -5.744977 0.182161
v -11.064059 63.417062 20.703244
vn 1.220580 -2.789705 0.093623
v -10.358148 63.714346 20.257961
vn 2.849670 -5.597059 0.173963
v -14.301829 61.631899 14.727277
vn 2.834131 -5.605164 0.167381
v -14.059333 61.729235 13.955536
vn 2.825044 -5.609303 0.182182
v -13.433742 62.067242 14.623846
vn 2.864998 -5.588066 0.205391
v -14.592284 61.509255 15.620884
vn 3.103969 -5.458413 0.162004
v -15.875662 61.130836 24.773372
vn 3.599170 -5.146229 0.192775
v -19.871529 58.441813 20.589024
vn 1.405480 -2.802386 0.089610
v -12.610550 62.475750 14.478750
vn 2.896179 -5.573202 0.165429
v -14.278771 61.765120 18.246609
vn 2.817638 -5.612355 0.200318
v -13.499805 62.134060 17.343180
vn 3.392412 -5.286876 0.115369
v -18.195020 59.370484 14.067484
vn 3.483144 -5.228042 0.111419
v -19.024183 58.834096 14.449397
vn 1.726964 -2.623517 0.066024
v -18.648900 59.058000 13.525600
vn 1.450968 -2.771660 0.097911
v -12.622950 62.845550 24.796150
vn 2.836471 -5.601650 0.231243
v -14.038185 61.829065 16.443756
vn 3.546467 -5.183873 0.132053
v -19.722642 58.616969 22.843758
vn 2.766305 -5.637262 0.213075
v -12.766590 62.522324 17.988021
vn 2.943808 -5.542292 0.304694
v -14.248080 61.824148 19.269294
vn 3.636741 -5.120996 0.155522
v -20.732176 57.806959 19.734701
# 172 vertices, 0 vertices normals

f 61//61 62//62 63//63
f 2//2 145//145 33//33
f 64//64 65//65 66//66
f 170//170 67//67 68//68
f 69//69 70//70 71//71
f 72//72 73//73 74//74
f 75//75 76//76 77//77
f 78//78 79//79 80//80
f 81//81 82//82 83//83
f 84//84 85//85 86//86
f 87//87 73//73 86//86
f 84//84 88//88 62//62
f 92//92 172//172 36//36
f 89//89 90//90 91//91
f 93//93 159//159 94//94
f 87//87 95//95 96//96
f 83//83 97//97 98//98
f 99//99 100//100 101//101
f 102//102 103//103 104//104
f 66//66 106//106 107//107
f 169//169 44//44 43//43
f 97//97 101//101 85//85
f 108//108 114//114 109//109
f 110//110 111//111 112//112
f 113//113 68//68 75//75
f 114//114 115//115 116//116
f 117//117 118//118 119//119
f 120//120 121//121 122//122
f 117//117 123//123 120//120
f 124//124 47//47 125//125
f 65//65 127//127 81//81
f 64//64 128//128 129//129
f 131//131 132//132 133//133
f 133//133 134//134 82//82
f 135//135 136//136 92//92
f 138//138 90//90 129//129
f 139//139 91//91 140//140
f 131//131 127//127 89//89
f 137//137 9//9 48//48
f 98//98 61//61 106//106
f 17//17 103//103 143//143
f 128//128 104//104 144//144
f 22//22 38//38 50//50
f 67//67 116//116 145//145
f 33//33 145//145 32//32
f 72//72 137//137 146//146
f 13//13 45//45 51//51
f 119//119 147//147 110//110
f 74//74 148//148 149//149
f 49//49 149//149 52//52
f 111//111 77//77 153//153
f 150//150 124//124 93//93
f 121//121 151//151 150//150
f 123//123 112//112 152//152
f 8//8 152//152 69//69
f 155//155 156//156 157//157
f 139//139 155//155 158//158
f 146//146 141//141 88//88
f 5//5 159//159 148//148
f 107//107 135//135 102//102
f 95//95 100//100 118//118
f 63//63 160//160 136//136
f 108//108 157//157 161//161
f 96//96 122//122 94//94
f 162//162 163//163 6//6
f 24//24 53//53 54//54
f 138//138 164//164 78//78
f 11//11 59//59 57//57
f 11//11 140//140 59//59
f 165//165 166//166 164//164
f 14//14 144//144 165//165
f 151//151 71//71 167//167
f 9//9 149//149 49//49
f 168//168 132//132 158//158
f 168//168 109//109 163//163
f 25//25 61//61 63//63
f 61//61 23//23 62//62
f 63//63 62//62 1//1
f 19//19 64//64 66//66
f 64//64 18//18 65//65
f 66//66 65//65 3//3
f 170//170 7//7 67//67
f 68//68 67//67 2//2
f 8//8 69//69 71//71
f 71//71 70//70 34//34
f 9//9 72//72 74//74
f 72//72 10//10 73//73
f 74//74 73//73 5//5
f 31//31 75//75 77//77
f 75//75 2//2 76//76
f 28//28 78//78 80//80
f 80//80 79//79 35//35
f 3//3 81//81 83//83
f 81//81 4//4 82//82
f 83//83 82//82 12//12
f 10//10 84//84 86//86
f 84//84 23//23 85//85
f 86//86 85//85 15//15
f 15//15 87//87 86//86
f 87//87 5//5 73//73
f 86//86 73//73 10//10
f 23//23 84//84 62//62
f 84//84 10//10 88//88
f 62//62 88//88 1//1
f 21//21 89//89 91//91
f 89//89 18//18 90//90
f 91//91 90//90 28//28
f 92//92 36//36 38//38
f 22//22 92//92 38//38
f 122//122 93//93 94//94
f 93//93 13//13 159//159
f 94//94 159//159 5//5
f 5//5 87//87 96//96
f 87//87 15//15 95//95
f 96//96 95//95 27//27
f 3//3 83//83 98//98
f 83//83 12//12 97//97
f 98//98 97//97 23//23
f 12//12 99//99 101//101
f 99//99 20//20 100//100
f 101//101 100//100 15//15
f 19//19 102//102 104//104
f 104//104 103//103 17//17
f 42//42 105//105 142//142
f 105//105 37//37 29//29
f 19//19 66//66 107//107
f 66//66 3//3 106//106
f 107//107 106//106 25//25
f 23//23 97//97 85//85
f 97//97 12//12 101//101
f 85//85 101//101 15//15
f 26//26 108//108 109//109
f 109//109 114//114 7//7
f 16//16 110//110 112//112
f 110//110 31//31 111//111
f 112//112 111//111 24//24
f 31//31 113//113 75//75
f 113//113 6//6 170//170
f 75//75 68//68 2//2
f 7//7 114//114 116//116
f 114//114 41//41 115//115
f 116//116 115//115 46//46
f 16//16 117//117 119//119
f 117//117 27//27 118//118
f 119//119 118//118 20//20
f 27//27 120//120 122//122
f 120//120 8//8 121//121
f 27//27 117//117 120//120
f 117//117 16//16 123//123
f 120//120 123//123 8//8
f 13//13 124//124 45//45
f 125//125 45//45 124//124
f 76//76 33//33 126//126
f 33//33 76//76 2//2
f 126//126 154//154 76//76
f 3//3 65//65 81//81
f 65//65 18//18 127//127
f 81//81 127//127 4//4
f 18//18 64//64 129//129
f 64//64 19//19 128//128
f 129//129 128//128 14//14
f 4//4 131//131 133//133
f 131//131 21//21 132//132
f 133//133 132//132 30//30
f 4//4 133//133 82//82
f 133//133 30//30 134//134
f 82//82 134//134 12//12
f 22//22 135//135 92//92
f 135//135 25//25 136//136
f 92//92 136//136 172//172
f 137//137 48//48 44//44
f 169//169 146//146 44//44
f 14//14 138//138 129//129
f 138//138 28//28 90//90
f 129//129 90//90 18//18
f 11//11 139//139 140//140
f 139//139 21//21 91//91
f 140//140 91//91 28//28
f 21//21 131//131 89//89
f 131//131 4//4 127//127
f 89//89 127//127 18//18
f 1//1 141//141 142//142
f 3//3 98//98 106//106
f 98//98 23//23 61//61
f 106//106 61//61 25//25
f 103//103 50//50 143//143
f 50//50 103//103 22//22
f 143//143 39//39 17//17
f 14//14 128//128 144//144
f 128//128 19//19 104//104
f 2//2 67//67 145//145
f 67//67 7//7 116//116
f 145//145 116//116 46//46
f 145//145 46//46 32//32
f 10//10 72//72 146//146
f 72//72 9//9 137//137
f 16//16 119//119 110//110
f 119//119 20//20 147//147
f 110//110 147//147 31//31
f 9//9 74//74 149//149
f 74//74 5//5 148//148
f 149//149 148//148 52//52
f 24//24 111//111 153//153
f 111//111 31//31 77//77
f 154//154 77//77 76//76
f 122//122 150//150 93//93
f 150//150 47//47 124//124
f 93//93 124//124 13//13
f 122//122 121//121 150//150
f 121//121 8//8 151//151
f 150//150 151//151 47//47
f 8//8 123//123 152//152
f 123//123 16//16 112//112
f 152//152 112//112 24//24
f 154//154 153//153 77//77
f 24//24 153//153 53//53
f 154//154 53//53 153//153
f 152//152 54//54 69//69
f 54//54 152//152 24//24
f 70//70 69//69 54//54
f 26//26 155//155 157//157
f 155//155 11//11 156//156
f 56//56 157//157 156//156
f 55//55 56//56 156//156
f 21//21 139//139 158//158
f 139//139 11//11 155//155
f 158//158 155//155 26//26
f 11//11 57//57 156//156
f 55//55 156//156 57//57
f 10//10 146//146 88//88
f 146//146 169//169 141//141
f 88//88 141//141 1//1
f 51//51 159//159 13//13
f 159//159 51//51 148//148
f 52//52 148//148 51//51
f 19//19 107//107 102//102
f 107//107 25//25 135//135
f 102//102 135//135 22//22
f 27//27 95//95 118//118
f 95//95 15//15 100//100
f 118//118 100//100 20//20
f 25//25 63//63 136//136
f 63//63 1//1 160//160
f 136//136 160//160 29//29
f 108//108 26//26 157//157
f 161//161 157//157 56//56
f 114//114 108//108 41//41
f 161//161 41//41 108//108
f 5//5 96//96 94//94
f 96//96 27//27 122//122
f 162//162 30//30 163//163
f 170//170 163//163 7//7
f 28//28 138//138 78//78
f 138//138 14//14 164//164
f 78//78 164//164 58//58
f 79//79 78//78 58//58
f 140//140 28//28 80//80
f 140//140 80//80 35//35
f 140//140 35//35 59//59
f 14//14 165//165 164//164
f 165//165 60//60 166//166
f 164//164 166//166 58//58
f 105//105 29//29 160//160
f 160//160 1//1 142//142
f 144//144 40//40 165//165
f 60//60 165//165 40//40
f 167//167 71//71 34//34
f 167//167 47//47 151//151
f 26//26 168//168 158//158
f 168//168 30//30 132//132
f 158//158 132//132 21//21
f 31//31 147//147 113//113
f 147//147 20//20 171//171
f 30//30 168//168 163//163
f 168//168 26//26 109//109
f 163//163 109//109 7//7
f 43//43 42//42 169//169
f 9//9 49//49 48//48
f 162//162 130//130 134//134
f 130//130 99//99 12//12
f 22//22 103//103 102//102
f 151//151 8//8 71//71
f 30//30 162//162 134//134
f 162//162 6//6 171//171
f 134//134 130//130 12//12
f 17//17 39//39 40//40
f 6//6 163//163 170//170
f 113//113 170//170 68//68
f 171//171 20//20 99//99
f 144//144 104//104 17//17
f 40//40 144//144 17//17
f 130//130 171//171 99//99
f 162//162 171//171 130//130
f 147//147 171//171 6//6
f 113//113 147//147 6//6
f 169//169 42//42 141//141
f 105//105 160//160 142//142
f 141//141 42//42 142//142
f 172//172 37//37 36//36
f 37//37 172//172 29//29
f 172//172 136//136 29//29
f 146//146 137//137 44//44
# 302 faces, 0 coords texture

# End of File
