####
#
# OBJ File Generated by Meshlab
#
####
# Object 1656_C69_S_0.obj
#
# Vertices: 166
# Faces: 288
#
####
vn -3.229167 -5.384855 -0.199817
v 18.039614 62.226251 -10.747592
vn -3.335172 -5.323970 -0.094308
v 19.785729 61.112533 -7.482977
vn -3.110950 -5.456822 -0.058735
v 17.269125 62.565554 -2.660247
vn -3.510956 -5.208205 -0.099799
v 21.410731 60.075211 -7.624769
vn -3.446119 -5.252220 -0.087849
v 20.427162 60.619438 -1.965402
vn -2.714561 -5.661284 -0.069471
v 14.422477 64.146805 -6.470105
vn -3.103618 -5.459620 -0.098784
v 17.244534 62.619999 -5.118970
vn -2.993552 -5.524135 -0.019075
v 15.623744 63.444692 -1.700624
vn -2.538411 -5.742510 -0.169841
v 13.336127 64.693706 -9.210401
vn -2.844884 -5.597707 -0.127276
v 15.171557 63.811243 -8.650448
vn -3.018255 -5.508498 -0.098227
v 16.315950 63.167839 -7.071035
vn -2.706517 -5.661859 -0.064608
v 13.925930 64.373699 -4.302603
vn -3.242049 -5.380528 -0.104752
v 18.932089 61.674411 -9.168328
vn -3.411975 -5.273456 -0.098928
v 20.402039 60.668364 -3.871398
vn -3.556063 -5.178724 -0.113902
v 21.764390 59.745835 -4.260869
vn -3.273444 -5.362567 -0.067206
v 18.829397 61.629251 -3.560836
vn -2.399592 -5.804398 -0.104233
v 12.069813 65.195454 -7.798481
vn -2.426105 -5.795546 -0.038813
v 12.576934 64.943057 -3.588629
vn -3.409482 -5.276194 -0.098383
v 20.569415 60.653100 -9.250904
vn -2.949166 -5.546640 -0.116747
v 15.549390 63.522270 -5.356223
vn -2.961330 -5.541190 -0.057831
v 15.640596 63.447875 -3.532640
vn -2.735662 -5.654060 -0.148688
v 14.592006 64.136142 -10.538635
vn -2.395622 -5.808221 0.007483
v 12.513962 64.966132 -5.455376
vn -3.443797 -5.252622 -0.105825
v 20.817920 60.436358 -5.839784
vn -3.292246 -5.350565 -0.098516
v 19.093561 61.508492 -5.536014
vn -3.207463 -5.401563 -0.071169
v 18.082385 62.157450 -7.284033
vn -2.986020 -5.524044 -0.160138
v 16.224894 63.312527 -10.795229
vn -3.148818 -5.435442 -0.116842
v 17.192163 62.684416 -8.951649
vn -2.543907 -5.744449 -0.075422
v 13.695136 64.471361 -7.229463
vn -3.293268 -5.349937 -0.050226
v 18.907579 61.577370 -1.570841
vn -3.116564 -5.454755 -0.021984
v 17.243354 62.559507 -0.623288
vn -2.849201 -5.597612 -0.034310
v 14.641292 63.978110 -1.851398
vn -1.636436 -2.678818 -0.129657
v 17.664700 62.508200 -11.785600
vn -1.425227 -2.382407 -0.113666
v 18.491800 62.001800 -11.671700
vn -1.421224 -2.512886 0.010665
v 16.956400 62.727100 0.465374
vn -1.633088 -2.368230 -0.052240
v 22.330021 59.411544 -6.248523
vn -1.648629 -2.432065 -0.041560
v 21.764100 59.849900 -8.460250
vn -1.613804 -2.731960 -0.105375
v 19.282300 61.510850 -11.187200
vn -1.503883 -2.481687 -0.075978
v 19.777500 61.209400 -10.909200
vn -1.723134 -2.713963 -0.098045
v 20.041900 61.033900 -10.650100
vn -1.186123 -2.651952 -0.082242
v 13.137400 64.815600 -10.275100
vn -1.298256 -2.753337 -0.074391
v 13.975400 64.437800 -10.942400
vn -1.539563 -2.569511 -0.025498
v 17.987900 62.107900 0.347078
vn -1.226872 -2.524263 -0.006020
v 14.029500 64.275500 -0.501119
vn -1.571788 -2.376544 -0.042691
v 20.899100 60.444200 -9.923970
vn -1.695956 -2.554799 -0.032491
v 21.238400 60.211600 -9.404110
vn -1.385883 -2.589620 -0.001385
v 15.610015 63.455602 0.210641
vn -1.488375 -2.549104 -0.095530
v 17.030500 62.904100 -11.873300
vn -1.070511 -2.742388 -0.064958
v 11.528050 65.401800 -7.463790
vn -1.068897 -2.764072 -0.052376
v 11.306500 65.447600 -6.178250
vn -1.129645 -2.831072 -0.026180
v 11.737100 65.330400 -8.035070
vn -1.464231 -2.841397 -0.059009
v 15.532000 63.685500 -11.640200
vn -1.353827 -2.598125 -0.048709
v 16.015800 63.440300 -11.795500
vn -1.608284 -2.458384 -0.048974
v 20.684900 60.434400 -1.140890
vn -1.079048 -2.639162 -0.008091
v 11.733856 65.292226 -3.522694
vn -1.052196 -2.686886 0.006838
v 11.309800 65.441100 -5.203430
vn -1.264101 -2.533539 -0.069077
v 14.745700 64.089100 -11.439300
vn -1.505233 -2.403462 0.011653
v 19.559400 61.169200 -0.184145
vn -1.686058 -2.606538 -0.035696
v 20.367600 60.630600 -0.860386
vn -1.610789 -2.361665 -0.036754
v 21.550100 59.862800 -2.344860
vn -1.212142 -2.885609 -0.039662
v 12.349100 65.023400 -2.429960
vn -1.155446 -2.610736 -0.035071
v 12.754050 64.842200 -1.726325
vn -1.583654 -2.644266 -0.028231
v 18.547500 61.775600 0.185034
vn -1.568028 -2.280105 -0.049231
v 22.227650 59.424700 -4.141660
vn -1.790917 -2.616877 -0.040611
v 21.810600 59.695300 -3.068770
vn -1.495615 -2.743695 0.022408
v 16.344200 63.058700 0.356012
vn -3.357597 -5.309588 -0.108120
v 20.192734 60.874173 -8.406799
vn -3.385145 -5.292432 -0.090266
v 20.624990 60.577944 -7.586201
vn -3.173278 -5.422030 -0.101275
v 18.495042 61.944988 -9.984501
vn -3.187567 -5.411725 -0.162363
v 18.839560 61.757225 -10.794224
vn -3.256597 -5.370349 -0.146082
v 19.413263 61.409427 -10.151644
vn -3.330695 -5.325631 -0.140953
v 19.771101 61.151200 -9.218890
vn -3.388313 -5.288235 -0.166601
v 20.158866 60.931817 -9.878076
vn -2.682160 -5.679912 -0.151753
v 14.033000 64.383811 -9.928169
vn -3.188924 -5.412715 -0.077562
v 17.674881 62.383173 -6.279470
vn -3.271555 -5.363309 -0.096685
v 18.546104 61.859317 -6.401366
vn -3.253097 -5.374357 -0.109619
v 18.223015 62.033859 -5.374491
vn -3.433767 -5.259183 -0.103619
v 20.593060 60.563430 -4.851284
vn -3.549571 -5.182709 -0.135860
v 21.350782 60.049256 -5.016079
vn -3.552428 -5.180635 -0.140266
v 21.971091 59.628594 -5.165021
vn -1.758152 -2.560639 -0.069444
v 22.296850 59.407400 -5.256255
vn -2.743089 -5.650405 -0.009149
v 14.271454 64.159263 -1.071299
vn -1.294022 -2.859318 0.017685
v 13.401150 64.554250 -1.102679
vn -2.612657 -5.713034 -0.073769
v 13.718680 64.406910 -1.889861
vn -3.272925 -5.362201 -0.111614
v 18.911366 61.600261 -4.547574
vn -3.259818 -5.370458 -0.099440
v 18.068888 62.104329 -4.291825
vn -3.581510 -5.161286 -0.093542
v 21.748346 59.825278 -6.850801
vn -1.726868 -2.438992 -0.039620
v 22.099325 59.582450 -7.425092
vn -3.434676 -5.260073 -0.093650
v 21.000061 60.359052 -8.479622
vn -2.925193 -5.558540 -0.155084
v 15.387409 63.650866 -6.829649
vn -2.935492 -5.552863 -0.164275
v 15.917943 63.349868 -6.146756
vn -2.945176 -5.548515 -0.132698
v 15.040987 63.805035 -5.846919
vn -3.242813 -5.376444 -0.229996
v 17.162842 62.761726 -10.643737
vn -3.106809 -5.451224 -0.224187
v 16.802311 63.015073 -11.279703
vn -3.283742 -5.350136 -0.266642
v 17.539419 62.563202 -11.340771
vn -3.311306 -5.338790 -0.101957
v 19.348691 61.400059 -8.322835
vn -1.105050 -2.762821 -0.061928
v 12.504250 65.034600 -9.498040
vn -2.746123 -5.647074 -0.076196
v 14.802716 63.975561 -7.519569
vn -2.632036 -5.703305 -0.102565
v 14.271235 64.215227 -8.108323
vn -2.702771 -5.664908 -0.024228
v 14.133002 64.279782 -5.368913
vn -2.437120 -5.791195 0.008632
v 12.964375 64.781152 -4.463309
vn -2.478719 -5.773206 -0.005720
v 13.441049 64.567189 -6.051723
vn -2.391763 -5.806000 -0.152935
v 12.063789 65.178563 -6.891400
vn -2.592568 -5.720046 -0.180966
v 13.463240 64.600219 -8.250529
vn -2.518525 -5.754210 -0.146621
v 12.742475 64.892019 -7.538569
vn -2.853236 -5.596597 -0.122429
v 15.350297 63.758415 -10.642241
vn -3.274182 -5.362496 -0.011112
v 18.861643 61.607452 -2.568922
vn -3.229297 -5.389674 -0.032300
v 18.091896 62.069232 -2.075455
vn -3.254563 -5.374201 -0.051287
v 18.055208 62.094368 -3.157498
vn -3.110292 -5.455556 -0.088715
v 17.244401 62.599098 -3.815616
vn -3.354197 -5.312264 -0.078486
v 20.274671 60.791851 -6.653835
vn -3.327906 -5.328752 -0.087775
v 19.964236 60.967444 -5.685498
vn -3.310444 -5.339524 -0.091049
v 19.407259 61.331201 -6.520396
vn -1.745788 -2.568685 -0.040104
v 21.280100 60.040200 -1.950935
vn -3.224466 -5.391478 -0.071822
v 18.502348 61.919071 -8.232466
vn -3.142718 -5.440564 -0.040670
v 17.638080 62.420637 -8.130990
vn -3.161149 -5.429487 -0.069104
v 18.070372 62.174805 -9.061406
vn -3.032713 -5.500433 -0.102375
v 16.788308 62.891992 -6.211799
vn -3.125519 -5.450436 -0.047450
v 17.207047 62.659792 -7.188763
vn -3.220652 -5.392455 -0.147805
v 17.633294 62.446121 -9.876550
vn -2.971209 -5.531093 -0.184011
v 15.811724 63.503992 -9.718982
vn -3.155505 -5.427451 -0.214355
v 16.744882 62.984598 -9.801429
vn -3.073824 -5.476453 -0.150869
v 16.244636 63.215396 -8.820184
vn -2.347279 -5.827516 0.036349
v 12.101068 65.140930 -4.501155
vn -1.139204 -2.928424 0.028385
v 11.513350 65.370550 -4.399155
vn -3.002753 -5.519069 -0.024013
v 16.521940 62.954302 -1.137442
vn -2.982022 -5.530219 -0.049538
v 16.494160 62.979719 -2.146100
vn -3.106808 -5.459476 -0.054660
v 17.293870 62.541145 -1.607263
vn -2.427542 -5.792554 -0.126445
v 12.651469 64.964463 -8.474827
vn -1.134039 -2.839647 -0.016584
v 12.015150 65.219000 -8.637045
vn -2.949849 -5.547121 -0.078764
v 15.573413 63.497635 -4.523602
vn -2.940924 -5.551999 -0.060460
v 14.755665 63.923102 -3.776660
vn -2.959587 -5.541774 -0.088691
v 14.817119 63.905242 -4.827159
vn -2.938545 -5.552198 -0.120980
v 16.276356 63.135958 -5.305136
vn -2.977194 -5.532900 -0.039231
v 15.817945 63.345989 -2.647727
vn -2.962100 -5.540687 -0.068858
v 16.447715 63.013193 -3.181745
vn -2.764830 -5.639949 -0.127520
v 14.897377 63.969724 -9.719701
vn -2.677757 -5.681215 -0.176735
v 14.212433 64.272699 -8.953438
vn -3.548235 -5.183657 -0.134424
v 21.574343 59.923144 -6.002927
vn -3.460662 -5.242436 -0.089647
v 21.093002 60.271008 -6.778500
vn -3.009830 -5.515344 0.015358
v 15.905731 63.292526 -0.589251
vn -2.968848 -5.537420 -0.025491
v 15.078821 63.746363 -2.730540
vn -2.992281 -5.523297 -0.082584
v 15.784326 63.468517 -7.831018
vn -3.293087 -5.350177 -0.096851
v 18.932199 61.636637 -7.381550
vn -2.491748 -5.767224 -0.086844
v 12.788930 64.855599 -6.603908
vn -2.947040 -5.548547 -0.083407
v 16.394884 63.058598 -4.281858
vn -3.294231 -5.350206 -0.028818
v 19.454272 61.240875 -3.021612
vn -3.288491 -5.353098 -0.087548
v 19.600186 61.159517 -3.787799
vn -3.374784 -5.298511 -0.070278
v 20.141094 60.819381 -2.993906
vn -3.309176 -5.340226 -0.094910
v 19.750134 61.087320 -4.714839
vn -3.381915 -5.294851 -0.044726
v 19.653198 61.098030 -1.214416
vn -3.519585 -5.204129 -0.083895
v 20.980652 60.259480 -2.877201
vn -3.096094 -5.467159 -0.036398
v 16.739328 62.935407 -8.014758
vn -2.631887 -5.700119 -0.076510
v 13.698253 64.469237 -3.655851
vn -2.519636 -5.753723 -0.120872
v 13.163078 64.684504 -2.733407
vn -2.767636 -5.636412 -0.088199
v 14.130417 64.248922 -2.886449
vn -3.261992 -5.369629 -0.039317
v 18.788369 61.640173 -0.644428
vn -3.544341 -5.187009 -0.103302
v 21.172852 60.145746 -3.963694
vn -3.217237 -5.396757 -0.052669
v 18.066426 62.075387 -1.084854
vn -3.220676 -5.394750 -0.047472
v 17.935044 62.145126 -0.212897
vn -2.935926 -5.554353 -0.031635
v 15.103197 63.728644 -0.864972
vn -1.430565 -2.787616 -0.037263
v 14.712200 63.920350 -0.189393
vn -3.015106 -5.512268 0.036712
v 16.576638 62.925305 -0.276591
vn -3.338699 -5.322125 -0.056142
v 19.641394 61.123997 -2.225275
vn -2.453807 -5.784057 0.038361
v 13.331383 64.623205 -5.087473
vn -2.337964 -5.830958 -0.092087
v 12.036248 65.162542 -6.031260
# 166 vertices, 0 vertices normals

f 1//1 95//95 34//34
f 163//163 35//35 66//66
f 4//4 37//37 88//88
f 67//67 89//89 68//68
f 69//69 70//70 71//71
f 72//72 71//71 73//73
f 31//31 160//160 35//35
f 75//75 76//76 77//77
f 78//78 79//79 158//158
f 80//80 36//36 81//81
f 82//82 83//83 84//84
f 77//77 85//85 86//86
f 19//19 73//73 45//45
f 19//19 45//45 46//46
f 4//4 89//89 37//37
f 90//90 91//91 92//92
f 93//93 94//94 95//95
f 34//34 95//95 33//33
f 67//67 96//96 72//72
f 98//98 29//29 99//99
f 17//17 103//103 49//49
f 17//17 49//49 51//51
f 129//129 104//104 105//105
f 107//107 108//108 109//109
f 109//109 110//110 86//86
f 111//111 112//112 113//113
f 115//115 116//116 117//117
f 118//118 119//119 75//75
f 120//120 69//69 117//117
f 121//121 122//122 123//123
f 124//124 18//18 55//55
f 126//126 127//127 128//128
f 130//130 17//17 51//51
f 131//131 132//132 133//133
f 134//134 91//91 118//118
f 92//92 133//133 100//100
f 127//127 135//135 136//136
f 27//27 53//53 94//94
f 74//74 137//137 138//138
f 22//22 42//42 57//57
f 23//23 56//56 166//166
f 139//139 80//80 79//79
f 139//139 140//140 87//87
f 141//141 126//126 163//163
f 135//135 8//8 142//142
f 143//143 90//90 98//98
f 144//144 115//115 96//96
f 29//29 102//102 145//145
f 137//137 106//106 121//121
f 106//106 57//57 52//52
f 134//134 146//146 131//131
f 136//136 146//146 110//110
f 147//147 148//148 149//149
f 148//148 85//85 150//150
f 107//107 147//147 164//164
f 144//144 113//113 76//76
f 68//68 140//140 111//111
f 112//112 78//78 150//150
f 164//164 5//5 151//151
f 30//30 164//164 151//151
f 153//153 143//143 123//123
f 153//153 116//116 119//119
f 120//120 122//122 93//93
f 18//18 61//61 55//55
f 156//156 84//84 155//155
f 30//30 151//151 157//157
f 145//145 103//103 105//105
f 99//99 104//104 138//138
f 15//15 64//64 65//65
f 14//14 158//158 152//152
f 159//159 128//128 108//108
f 159//159 157//157 160//160
f 35//35 160//160 43//43
f 161//161 162//162 82//82
f 142//142 156//156 132//132
f 141//141 163//163 66//66
f 66//66 47//47 141//141
f 2//2 67//67 68//68
f 67//67 19//19 89//89
f 68//68 89//89 4//4
f 13//13 69//69 71//71
f 69//69 1//1 70//70
f 70//70 38//38 39//39
f 71//71 70//70 39//39
f 19//19 72//72 73//73
f 72//72 13//13 71//71
f 40//40 71//71 39//39
f 40//40 73//73 71//71
f 74//74 41//41 42//42
f 41//41 74//74 9//9
f 22//22 74//74 42//42
f 7//7 75//75 77//77
f 75//75 26//26 76//76
f 77//77 76//76 25//25
f 14//14 78//78 158//158
f 78//78 24//24 79//79
f 158//158 79//79 15//15
f 15//15 80//80 64//64
f 81//81 64//64 80//80
f 32//32 82//82 84//84
f 82//82 44//44 83//83
f 84//84 83//83 62//62
f 7//7 77//77 86//86
f 77//77 25//25 85//85
f 86//86 85//85 16//16
f 73//73 40//40 45//45
f 88//88 87//87 4//4
f 88//88 36//36 87//87
f 46//46 89//89 19//19
f 89//89 46//46 37//37
f 6//6 90//90 92//92
f 90//90 11//11 91//91
f 92//92 91//91 20//20
f 1//1 93//93 95//95
f 95//95 94//94 48//48
f 95//95 48//48 33//33
f 19//19 67//67 72//72
f 67//67 2//2 96//96
f 72//72 96//96 13//13
f 9//9 97//97 41//41
f 10//10 98//98 99//99
f 98//98 6//6 29//29
f 6//6 100//100 102//102
f 100//100 12//12 165//165
f 103//103 50//50 49//49
f 17//17 129//129 105//105
f 129//129 9//9 104//104
f 105//105 104//104 29//29
f 106//106 52//52 27//27
f 57//57 106//106 22//22
f 27//27 52//52 53//53
f 16//16 107//107 109//109
f 107//107 30//30 108//108
f 109//109 108//108 3//3
f 16//16 109//109 86//86
f 109//109 3//3 110//110
f 86//86 110//110 7//7
f 2//2 111//111 113//113
f 111//111 24//24 112//112
f 113//113 112//112 25//25
f 5//5 114//114 54//54
f 13//13 115//115 117//117
f 115//115 26//26 116//116
f 117//117 116//116 28//28
f 7//7 118//118 75//75
f 118//118 11//11 119//119
f 75//75 119//119 26//26
f 28//28 120//120 117//117
f 120//120 1//1 69//69
f 117//117 69//69 13//13
f 10//10 121//121 123//123
f 121//121 27//27 122//122
f 123//123 122//122 28//28
f 55//55 125//125 124//124
f 23//23 124//124 56//56
f 125//125 56//56 124//124
f 31//31 126//126 128//128
f 126//126 8//8 127//127
f 128//128 127//127 3//3
f 17//17 130//130 129//129
f 9//9 129//129 97//97
f 130//130 97//97 129//129
f 20//20 131//131 133//133
f 131//131 21//21 132//132
f 133//133 132//132 12//12
f 1//1 34//34 70//70
f 38//38 70//70 34//34
f 7//7 134//134 118//118
f 134//134 20//20 91//91
f 118//118 91//91 11//11
f 6//6 92//92 100//100
f 92//92 20//20 133//133
f 100//100 133//133 12//12
f 3//3 127//127 136//136
f 127//127 8//8 135//135
f 136//136 135//135 21//21
f 94//94 53//53 48//48
f 9//9 74//74 138//138
f 74//74 22//22 137//137
f 138//138 137//137 10//10
f 24//24 139//139 79//79
f 139//139 36//36 80//80
f 79//79 80//80 15//15
f 36//36 139//139 87//87
f 139//139 24//24 140//140
f 87//87 140//140 4//4
f 35//35 163//163 31//31
f 8//8 161//161 32//32
f 21//21 135//135 142//142
f 142//142 8//8 32//32
f 10//10 143//143 98//98
f 143//143 11//11 90//90
f 98//98 90//90 6//6
f 2//2 144//144 96//96
f 144//144 26//26 115//115
f 96//96 115//115 13//13
f 29//29 6//6 102//102
f 145//145 102//102 23//23
f 10//10 137//137 121//121
f 137//137 22//22 106//106
f 121//121 106//106 27//27
f 20//20 134//134 131//131
f 134//134 7//7 146//146
f 131//131 146//146 21//21
f 3//3 136//136 110//110
f 136//136 21//21 146//146
f 110//110 146//146 7//7
f 147//147 16//16 148//148
f 149//149 148//148 14//14
f 14//14 148//148 150//150
f 148//148 16//16 85//85
f 150//150 85//85 25//25
f 30//30 107//107 164//164
f 107//107 16//16 147//147
f 26//26 144//144 76//76
f 144//144 2//2 113//113
f 76//76 113//113 25//25
f 2//2 68//68 111//111
f 68//68 4//4 140//140
f 111//111 140//140 24//24
f 25//25 112//112 150//150
f 112//112 24//24 78//78
f 150//150 78//78 14//14
f 58//58 151//151 59//59
f 59//59 5//5 54//54
f 59//59 151//151 5//5
f 5//5 149//149 152//152
f 149//149 14//14 152//152
f 152//152 114//114 5//5
f 114//114 152//152 60//60
f 28//28 153//153 123//123
f 153//153 11//11 143//143
f 123//123 143//143 10//10
f 11//11 153//153 119//119
f 153//153 28//28 116//116
f 119//119 116//116 26//26
f 1//1 120//120 93//93
f 120//120 28//28 122//122
f 94//94 93//93 27//27
f 101//101 12//12 154//154
f 61//61 155//155 62//62
f 12//12 132//132 154//154
f 156//156 32//32 84//84
f 155//155 84//84 62//62
f 151//151 58//58 157//157
f 63//63 157//157 58//58
f 29//29 145//145 105//105
f 145//145 23//23 166//166
f 105//105 103//103 17//17
f 10//10 99//99 138//138
f 99//99 29//29 104//104
f 138//138 104//104 9//9
f 65//65 158//158 15//15
f 158//158 65//65 152//152
f 60//60 152//152 65//65
f 30//30 159//159 108//108
f 159//159 31//31 128//128
f 108//108 128//128 3//3
f 31//31 159//159 160//160
f 159//159 30//30 157//157
f 160//160 157//157 63//63
f 160//160 63//63 43//43
f 47//47 161//161 141//141
f 32//32 161//161 82//82
f 161//161 47//47 162//162
f 82//82 162//162 44//44
f 21//21 142//142 132//132
f 142//142 32//32 156//156
f 132//132 156//156 154//154
f 163//163 126//126 31//31
f 5//5 164//164 149//149
f 164//164 147//147 149//149
f 93//93 122//122 27//27
f 18//18 124//124 101//101
f 18//18 154//154 155//155
f 18//18 155//155 61//61
f 154//154 156//156 155//155
f 141//141 161//161 8//8
f 141//141 8//8 126//126
f 18//18 101//101 154//154
f 100//100 165//165 102//102
f 102//102 165//165 23//23
f 165//165 12//12 101//101
f 23//23 165//165 101//101
f 23//23 101//101 124//124
f 166//166 56//56 50//50
f 166//166 50//50 103//103
f 145//145 166//166 103//103
# 288 faces, 0 coords texture

# End of File
