####
#
# OBJ File Generated by Meshlab
#
####
# Object 1735_C73_S_13.obj
#
# Vertices: 188
# Faces: 329
#
####
vn 2.931035 -5.549105 -0.234016
v -13.345162 69.183583 -29.675094
vn 3.442613 -5.249746 -0.233091
v -18.521338 65.815900 -21.934237
vn 3.486733 -5.223169 -0.193104
v -19.490934 65.320342 -26.262639
vn 3.473376 -5.232584 -0.182642
v -19.984353 65.051504 -27.775951
vn 2.838730 -5.598140 -0.281682
v -13.133633 69.172494 -27.675225
vn 3.325943 -5.325052 -0.201436
v -17.467607 66.562349 -23.649366
vn 3.024256 -5.500473 -0.242004
v -14.695648 68.225716 -24.594317
vn 3.077101 -5.472418 -0.235367
v -15.194079 67.873429 -22.791212
vn 3.479423 -5.227572 -0.205384
v -19.255052 65.390225 -24.056747
vn 3.639822 -5.110763 -0.200131
v -20.832883 64.397007 -25.028671
vn 3.330005 -5.325438 -0.088898
v -17.057863 67.017590 -29.334624
vn 3.218712 -5.390806 -0.224893
v -16.270735 67.316032 -25.083768
vn 3.383532 -5.286855 -0.212544
v -17.973796 66.326451 -25.617254
vn 3.476334 -5.232194 -0.124635
v -20.221404 64.963058 -30.425885
vn 3.417118 -5.271055 -0.099847
v -18.530347 66.096521 -31.071830
vn 3.030179 -5.492366 -0.270645
v -14.875057 68.228454 -26.393928
vn 3.242156 -5.381993 -0.011187
v -15.316891 68.083879 -32.658886
vn 3.384774 -5.287108 0.035355
v -18.323859 66.278398 -33.202484
vn 3.090290 -5.466792 -0.088997
v -13.647123 69.080190 -31.811913
vn 2.832339 -5.603901 -0.223583
v -12.956943 69.161291 -25.592033
vn 3.552322 -5.177368 -0.222137
v -19.524172 65.146255 -22.139234
vn 3.432341 -5.259246 -0.150167
v -18.163320 66.262933 -27.513000
vn 3.462213 -5.241870 -0.118349
v -18.984756 65.745355 -29.015247
vn 3.249399 -5.372090 -0.238876
v -16.765351 66.904549 -21.699004
vn 2.843422 -5.595334 -0.264045
v -11.862509 69.992372 -30.856995
vn 3.200425 -5.406144 -0.053752
v -15.208679 68.140028 -30.531326
vn 3.464091 -5.241519 -0.047590
v -19.850215 65.235454 -32.355229
vn 2.770169 -5.629955 -0.325294
v -11.550844 70.029726 -29.079645
vn 2.872990 -5.581037 -0.238047
v -13.421978 68.859640 -23.367067
vn 3.274090 -5.357628 -0.221163
v -16.607251 67.219371 -27.029525
vn 3.170206 -5.420451 -0.198948
v -15.863024 67.513848 -23.390697
vn 3.216908 -5.396315 -0.059854
v -14.059643 68.836332 -33.682367
vn 3.267628 -5.366355 -0.042653
v -16.816152 67.165645 -31.759645
vn 3.569483 -5.165882 -0.158596
v -20.663610 64.625752 -28.480853
vn 3.100328 -5.457543 -0.169462
v -15.081848 68.194423 -28.400658
vn 3.232346 -5.387927 0.023844
v -15.417852 68.018069 -34.393476
vn 1.349130 -2.712834 -0.129831
v -11.008150 70.207150 -26.955300
vn 1.478102 -2.297316 -0.010508
v -20.394300 64.886700 -32.851200
vn 1.766084 -2.761455 -0.050425
v -20.981600 64.499200 -31.838300
vn 1.903485 -2.538941 -0.148493
v -21.616100 63.728200 -23.675300
vn 1.634480 -2.154877 -0.107932
v -21.869900 63.561600 -24.071900
vn 1.636308 -2.287469 -0.098323
v -22.046550 63.669700 -29.536900
vn 1.979877 -2.578598 -0.103550
v -22.025800 63.471300 -24.882800
vn 1.818622 -2.674726 -0.156935
v -21.649900 63.999500 -30.424600
vn 1.541098 -2.364374 -0.079357
v -21.294900 64.291600 -31.429900
vn 1.813753 -2.696565 0.013377
v -19.814600 65.255900 -33.276300
vn 1.618801 -2.395341 0.045814
v -19.161700 65.699400 -33.892200
vn 1.671795 -2.351516 -0.138918
v -20.493100 64.456100 -22.028200
vn 1.432049 -2.747771 -0.138555
v -13.432900 68.794100 -22.178900
vn 1.243922 -2.532051 -0.134635
v -12.738500 69.165200 -22.812000
vn 1.392428 -2.802150 -0.088012
v -12.051050 69.574250 -24.033400
vn 1.273958 -2.325274 -0.039678
v -12.436100 69.765200 -32.999300
vn 1.704589 -2.981666 -0.018582
v -13.193600 69.330600 -33.549000
vn 1.564968 -2.487995 0.092338
v -18.152200 66.342200 -34.415500
vn 1.628132 -2.658179 0.098104
v -17.510200 66.730100 -34.576000
vn 1.309653 -2.577049 -0.120614
v -11.452200 70.214200 -31.154000
vn 1.230138 -2.517214 -0.132857
v -10.842900 70.367050 -28.922450
vn 1.480352 -2.573469 -0.111050
v -15.502800 67.624250 -21.015350
vn 1.787649 -2.408442 -0.104762
v -22.306748 63.375945 -27.471405
vn 1.525639 -2.285029 -0.114122
v -19.003300 65.448100 -20.959400
vn 1.541426 -2.475557 -0.117454
v -17.325400 66.516950 -20.713500
vn 1.353206 -2.539462 -0.128117
v -14.071200 68.425500 -21.634500
vn 1.285366 -2.142103 -0.076470
v -13.717200 69.061200 -34.225400
vn 1.675494 -2.225104 -0.092594
v -22.305900 63.301800 -25.838800
vn 1.322660 -2.179506 0.009355
v -15.460000 67.991300 -34.670900
vn 1.904164 -3.113046 0.032800
v -15.473100 67.983300 -34.664800
vn 3.490506 -5.221012 -0.187942
v -20.229754 64.849314 -26.750502
vn 3.617398 -5.131988 -0.184605
v -20.802669 64.493301 -27.507247
vn 3.476195 -5.228930 -0.226083
v -20.055728 64.842254 -23.654071
vn 3.446200 -5.248391 -0.232300
v -20.071148 64.880488 -24.594878
vn 2.772964 -5.626272 -0.366227
v -11.778227 69.975844 -29.958969
vn 1.367404 -2.776917 -0.182004
v -11.155850 70.294700 -30.147300
vn 3.224823 -5.392458 -0.015773
v -14.517672 68.560946 -32.199133
vn 3.176634 -5.419139 -0.103802
v -14.398242 68.627698 -31.147355
vn 3.248183 -5.378334 -0.023906
v -15.254038 68.117643 -31.604324
vn 3.289873 -5.352903 0.001803
v -16.905779 67.111306 -30.623307
vn 3.263774 -5.368968 -0.012792
v -16.041828 67.635018 -31.095409
vn 3.246070 -5.379568 -0.027712
v -16.073672 67.615576 -29.961062
vn 3.209865 -5.396070 -0.232757
v -17.111259 66.827320 -25.342263
vn 3.213825 -5.396766 -0.154867
v -16.890374 66.927538 -24.401582
vn 3.344678 -5.311321 -0.223749
v -17.742777 66.429882 -24.619676
vn 3.471548 -5.236014 -0.099258
v -19.383225 65.525075 -30.747768
vn 3.453652 -5.247186 -0.132808
v -18.728000 65.940163 -30.035553
vn 3.460929 -5.242561 -0.126232
v -19.589632 65.363997 -29.749582
vn 3.404418 -5.280350 -0.077486
v -20.432326 64.852537 -31.915087
vn 3.802158 -4.995909 -0.240699
v -21.430968 63.916270 -24.505931
vn 3.815830 -4.988444 -0.181271
v -21.558418 63.851241 -25.408067
vn 3.553923 -5.176862 -0.205560
v -21.133223 64.330871 -30.084740
vn 3.495184 -5.220460 -0.090239
v -19.218523 65.648006 -31.764090
vn 3.395289 -5.283453 -0.124147
v -18.402875 66.205492 -32.125196
vn 3.532183 -5.195621 -0.033644
v -19.127313 65.731226 -32.800177
vn 3.193524 -5.406076 -0.230786
v -16.118749 67.323510 -22.522782
vn 3.478460 -5.227934 -0.206089
v -19.391957 65.344844 -25.218065
vn 3.465279 -5.238143 -0.168683
v -20.168024 64.857007 -25.654306
vn 3.674968 -5.091239 -0.161855
v -20.956645 64.332999 -26.062492
vn 2.832002 -5.602136 -0.272443
v -13.041449 69.170169 -26.685974
vn 2.838108 -5.598570 -0.282000
v -13.942901 68.682481 -26.043926
vn 2.855323 -5.591633 -0.238935
v -14.026275 68.689580 -27.038078
vn 3.246667 -5.378080 -0.088707
v -17.568944 66.725960 -32.469114
vn 3.303421 -5.343642 -0.070549
v -17.657505 66.641851 -31.392482
vn 3.519883 -5.203032 -0.109728
v -20.454470 64.786359 -29.457072
vn 3.783853 -5.011490 -0.206529
v -21.671692 63.794570 -26.274434
vn 2.818508 -5.609741 -0.253745
v -12.125275 69.665103 -27.336848
vn 2.788812 -5.622896 -0.283202
v -12.259409 69.638082 -28.325780
vn 2.783639 -5.627783 -0.238857
v -11.381170 70.066746 -28.048629
vn 1.767623 -2.421848 -0.150913
v -21.056750 64.094575 -22.735025
vn 1.772821 -2.538705 -0.117272
v -19.761850 64.949600 -21.475075
vn 3.577107 -5.157152 -0.271299
v -20.233173 64.691814 -22.822011
vn 2.897425 -5.568287 -0.268838
v -14.115528 68.679071 -28.026871
vn 3.048834 -5.486005 -0.218683
v -14.976497 68.212062 -27.382127
vn 3.088956 -5.467248 -0.197498
v -15.112788 67.959226 -23.813473
vn 3.446626 -5.252724 -0.079192
v -20.003156 65.120838 -31.384897
vn 3.530166 -5.193872 -0.199163
v -18.764540 65.802232 -25.936343
vn 3.510558 -5.205203 -0.241988
v -18.589779 65.877338 -24.874896
vn 2.815961 -5.611497 -0.231827
v -12.715469 69.231173 -23.798201
vn 1.398972 -2.813429 -0.155013
v -12.399850 69.367100 -23.416800
vn 3.487106 -5.223119 -0.192824
v -19.495617 65.351327 -27.132116
vn 2.877281 -5.580738 -0.218255
v -13.941219 68.630983 -25.034832
vn 2.882056 -5.580932 -0.153758
v -13.246194 68.980282 -24.449935
vn 2.955886 -5.540792 -0.191679
v -14.111028 68.515476 -24.022284
vn 2.806769 -5.613111 -0.303432
v -12.056072 69.652391 -26.372955
vn 1.362999 -2.728576 -0.152065
v -11.181300 70.071000 -26.100550
vn 2.782991 -5.627036 -0.237462
v -12.039926 69.611392 -25.563968
vn 3.384345 -5.292457 -0.063216
v -17.819583 66.542301 -30.278653
vn 3.448322 -5.251206 -0.107437
v -18.110159 66.324194 -29.211092
vn 3.389173 -5.288324 -0.133347
v -17.680405 66.592769 -28.304744
vn 3.401948 -5.277678 -0.197209
v -18.011001 66.181961 -22.796110
vn 3.492002 -5.220945 -0.158200
v -18.846074 65.632541 -22.986538
vn 3.477302 -5.228831 -0.203302
v -18.324309 66.000595 -23.835733
vn 3.505038 -5.211705 -0.176601
v -19.567001 65.150816 -23.118821
vn 3.253797 -5.373435 -0.113463
v -16.019351 67.637110 -28.830594
vn 3.250772 -5.372952 -0.201641
v -15.875765 67.689334 -27.735508
vn 3.302520 -5.342168 -0.178663
v -16.785837 67.145084 -28.103866
vn 3.017722 -5.498523 -0.308141
v -14.777525 68.227898 -25.433327
vn 2.795078 -5.625234 -0.138425
v -12.421261 69.408455 -24.764584
vn 1.286419 -2.605331 -0.078539
v -11.504725 69.857825 -24.995375
vn 3.166184 -5.426705 0.009716
v -13.863659 68.952478 -32.827295
vn 3.023683 -5.504960 -0.087587
v -13.013674 69.438980 -32.430161
vn 3.230021 -5.389343 0.006139
v -14.663973 68.475131 -33.241048
vn 3.232142 -5.388074 0.017235
v -15.371833 68.047789 -33.697830
vn 3.251965 -5.374184 0.078059
v -17.507492 66.768904 -33.547566
vn 2.767796 -5.630103 -0.345567
v -12.389716 69.632952 -29.317315
vn 2.847196 -5.593756 -0.254944
v -12.522911 69.632442 -30.338033
vn 3.107104 -5.459552 -0.112527
v -14.291347 68.653551 -30.076809
vn 3.001578 -5.513986 -0.190968
v -14.214012 68.687944 -29.031992
vn 3.158247 -5.430834 -0.049633
v -15.158605 68.159619 -29.454613
vn 3.020275 -5.505922 -0.161782
v -13.468128 69.147867 -30.737347
vn 3.267061 -5.366898 -0.032922
v -16.035813 67.643914 -32.179973
vn 3.193625 -5.405941 -0.231905
v -16.017798 67.344367 -21.585177
vn 1.573365 -2.627495 -0.127991
v -16.422900 67.066800 -20.821450
vn 3.458425 -5.243974 -0.134969
v -19.796875 65.204152 -28.754425
vn 2.988158 -5.521430 -0.246704
v -14.278771 68.384717 -23.027325
vn 1.835470 -2.508295 -0.126529
v -22.196600 63.505200 -28.450050
vn 3.717417 -5.060471 -0.221663
v -21.522565 63.984899 -28.188345
vn 3.081253 -5.470049 -0.233491
v -15.305734 67.771729 -21.889448
vn 3.269728 -5.359919 -0.237694
v -17.102980 66.741338 -22.689780
vn 3.338498 -5.316758 -0.251238
v -17.648456 66.362428 -21.782262
vn 3.226460 -5.387925 -0.188307
v -16.616324 67.069304 -23.504850
vn 3.236131 -5.385460 -0.041202
v -16.770423 67.202274 -32.832820
vn 1.695033 -2.638595 -0.140938
v -18.253550 65.927900 -20.848150
vn 2.839869 -5.594126 -0.332385
v -13.237974 69.179078 -28.659578
vn 1.353473 -2.776448 -0.110557
v -10.907400 70.290700 -27.872800
vn 2.979209 -5.525497 -0.265874
v -14.471212 68.238142 -22.145826
vn 1.481855 -2.738461 -0.128345
v -14.689000 68.083300 -21.356200
vn 2.925713 -5.557842 -0.168896
v -12.709397 69.562424 -31.372280
vn 3.233365 -5.380788 -0.262488
v -15.743393 67.725637 -26.713500
vn 3.193186 -5.409301 -0.139811
v -16.067689 67.415127 -24.186197
vn 3.329019 -5.325985 -0.172452
v -17.454388 66.699645 -27.319816
vn 3.276258 -5.356121 -0.219595
v -17.306292 66.763109 -26.322829
vn 3.237406 -5.376960 -0.292679
v -16.445394 67.262956 -26.033653
vn 3.226813 -5.382261 -0.310205
v -15.607087 67.754483 -25.740533
vn 3.187746 -5.408769 -0.234416
v -15.443743 67.795383 -24.800755
vn 1.626054 -2.686755 -0.000558
v -14.776750 68.402550 -34.497700
vn 3.244930 -5.380283 -0.012319
v -16.033009 67.653445 -33.232151
vn 2.924557 -5.557566 -0.196811
v -12.169301 69.862660 -31.833182
vn 1.471157 -2.792894 -0.104293
v -11.973900 69.976100 -32.114700
vn 3.760263 -5.029986 -0.192970
v -21.369421 64.054601 -26.968148
vn 1.878573 -2.514329 -0.117084
v -22.306600 63.337600 -26.630550
vn 3.263023 -5.368010 0.089722
v -15.940958 67.705705 -34.169189
vn 1.478575 -2.404049 0.089305
v -16.439625 67.374450 -34.813525
vn 3.431834 -5.259232 -0.167583
v -18.143525 66.248005 -26.634776
vn 3.480661 -5.229603 -0.109086
v -18.518605 66.040699 -28.186547
vn 3.255970 -5.371618 0.090965
v -16.716126 67.242863 -33.860462
vn 3.483800 -5.226654 -0.152488
v -19.225672 65.560030 -27.980225
vn 3.517400 -5.203465 -0.173502
v -18.827198 65.799064 -27.056949
vn 3.658599 -5.103839 -0.180308
v -21.445152 64.089273 -29.111252
vn 3.622746 -5.122837 -0.282726
v -20.687273 64.422606 -23.638674
vn 3.458811 -5.240888 -0.192916
v -20.941574 64.506684 -30.976614
# 188 vertices, 0 vertices normals

f 4//4 67//67 68//68
f 69//69 187//187 70//70
f 71//71 25//25 72//72
f 73//73 74//74 75//75
f 76//76 77//77 78//78
f 79//79 80//80 81//81
f 82//82 83//83 84//84
f 27//27 85//85 38//38
f 10//10 187//187 86//86
f 64//64 87//87 43//43
f 14//14 88//88 188//188
f 89//89 91//91 90//90
f 18//18 91//91 47//47
f 27//27 38//38 46//46
f 93//93 70//70 94//94
f 95//95 67//67 94//94
f 96//96 97//97 98//98
f 90//90 99//99 100//100
f 101//101 186//186 88//88
f 103//103 104//104 105//105
f 109//109 98//98 110//110
f 29//29 50//50 49//49
f 112//112 89//89 82//82
f 113//113 114//114 93//93
f 115//115 51//51 116//116
f 113//113 3//3 185//185
f 118//118 119//119 120//120
f 121//121 122//122 123//123
f 103//103 121//121 96//96
f 124//124 125//125 83//83
f 126//126 182//182 125//125
f 127//127 128//128 129//129
f 81//81 129//129 114//114
f 131//131 132//132 133//133
f 97//97 118//118 134//134
f 19//19 137//137 138//138
f 139//139 140//140 173//173
f 71//71 142//142 143//143
f 144//144 145//145 146//146
f 144//144 74//74 147//147
f 131//131 78//78 146//146
f 77//77 148//148 75//75
f 149//149 150//150 24//24
f 84//84 151//151 101//101
f 112//112 188//188 85//85
f 120//120 152//152 111//111
f 100//100 76//76 124//124
f 92//92 155//155 149//149
f 127//127 156//156 157//157
f 92//92 156//156 158//158
f 99//99 141//141 159//159
f 104//104 161//161 142//142
f 105//105 57//57 162//162
f 8//8 152//152 163//163
f 163//163 164//164 155//155
f 18//18 47//47 54//54
f 115//115 119//119 135//135
f 143//143 147//147 165//165
f 110//110 166//166 132//132
f 108//108 69//69 130//130
f 80//80 167//167 158//158
f 168//168 126//126 133//133
f 169//169 170//170 79//79
f 137//137 73//73 139//139
f 32//32 63//63 53//53
f 102//102 87//87 64//64
f 166//166 171//171 170//170
f 134//134 172//172 171//171
f 167//167 172//172 111//111
f 168//168 169//169 181//181
f 184//184 4//4 151//151
f 36//36 66//66 65//65
f 174//174 148//148 159//159
f 183//183 55//55 180//180
f 165//165 138//138 175//175
f 175//175 138//138 52//52
f 68//68 177//177 154//154
f 145//145 161//161 109//109
f 59//59 177//177 178//178
f 140//140 174//174 179//179
f 34//34 4//4 68//68
f 68//68 67//67 95//95
f 9//9 69//69 70//70
f 56//56 72//72 25//25
f 28//28 71//71 72//72
f 72//72 57//57 28//28
f 17//17 73//73 75//75
f 73//73 19//19 74//74
f 75//75 74//74 26//26
f 11//11 76//76 78//78
f 76//76 33//33 77//77
f 78//78 77//77 26//26
f 13//13 79//79 81//81
f 79//79 12//12 80//80
f 81//81 80//80 6//6
f 14//14 82//82 84//84
f 82//82 15//15 83//83
f 84//84 83//83 23//23
f 85//85 39//39 38//38
f 187//187 40//40 86//86
f 41//41 86//86 40//40
f 87//87 10//10 86//86
f 43//43 86//86 41//41
f 87//87 86//86 43//43
f 15//15 89//89 90//90
f 89//89 27//27 91//91
f 90//90 91//91 18//18
f 46//46 91//91 27//27
f 91//91 46//46 47//47
f 8//8 92//92 31//31
f 3//3 93//93 94//94
f 93//93 9//9 70//70
f 94//94 70//70 10//10
f 10//10 95//95 94//94
f 95//95 177//177 68//68
f 94//94 67//67 3//3
f 5//5 96//96 98//98
f 96//96 20//20 97//97
f 98//98 97//97 16//16
f 15//15 90//90 100//100
f 90//90 18//18 99//99
f 100//100 99//99 33//33
f 14//14 101//101 88//88
f 101//101 34//34 186//186
f 95//95 10//10 87//87
f 37//37 103//103 105//105
f 103//103 5//5 104//104
f 105//105 104//104 28//28
f 187//187 106//106 40//40
f 108//108 21//21 48//48
f 108//108 48//48 106//106
f 35//35 109//109 110//110
f 109//109 5//5 98//98
f 110//110 98//98 16//16
f 8//8 31//31 111//111
f 14//14 112//112 82//82
f 112//112 27//27 89//89
f 82//82 89//89 15//15
f 3//3 113//113 93//93
f 113//113 13//13 114//114
f 93//93 114//114 9//9
f 29//29 115//115 50//50
f 116//116 50//50 115//115
f 13//13 113//113 181//181
f 185//185 3//3 117//117
f 7//7 118//118 120//120
f 118//118 20//20 119//119
f 120//120 119//119 29//29
f 20//20 121//121 123//123
f 121//121 37//37 122//122
f 123//123 122//122 136//136
f 5//5 103//103 96//96
f 103//103 37//37 121//121
f 96//96 121//121 20//20
f 15//15 124//124 83//83
f 124//124 11//11 125//125
f 83//83 125//125 23//23
f 11//11 126//126 125//125
f 126//126 22//22 182//182
f 125//125 182//182 23//23
f 6//6 127//127 129//129
f 129//129 128//128 9//9
f 128//128 21//21 130//130
f 128//128 130//130 9//9
f 13//13 81//81 114//114
f 81//81 6//6 129//129
f 114//114 129//129 9//9
f 11//11 131//131 133//133
f 131//131 35//35 132//132
f 133//133 132//132 30//30
f 4//4 184//184 117//117
f 184//184 23//23 182//182
f 67//67 4//4 117//117
f 16//16 97//97 134//134
f 97//97 20//20 118//118
f 134//134 118//118 7//7
f 135//135 123//123 136//136
f 136//136 51//51 135//135
f 137//137 53//53 138//138
f 53//53 137//137 32//32
f 52//52 138//138 53//53
f 32//32 139//139 173//173
f 139//139 17//17 140//140
f 173//173 140//140 36//36
f 141//141 54//54 55//55
f 54//54 141//141 18//18
f 183//183 141//141 55//55
f 25//25 71//71 143//143
f 71//71 28//28 142//142
f 143//143 142//142 1//1
f 26//26 144//144 146//146
f 144//144 1//1 145//145
f 146//146 145//145 35//35
f 1//1 144//144 147//147
f 144//144 26//26 74//74
f 147//147 74//74 19//19
f 35//35 131//131 146//146
f 131//131 11//11 78//78
f 146//146 78//78 26//26
f 26//26 77//77 75//75
f 77//77 33//33 148//148
f 75//75 148//148 17//17
f 149//149 58//58 150//150
f 24//24 150//150 61//61
f 14//14 84//84 101//101
f 84//84 23//23 151//151
f 101//101 151//151 34//34
f 27//27 112//112 85//85
f 112//112 14//14 188//188
f 39//39 188//188 45//45
f 39//39 85//85 188//188
f 7//7 120//120 111//111
f 120//120 29//29 152//152
f 111//111 152//152 8//8
f 153//153 42//42 186//186
f 153//153 154//154 59//59
f 15//15 100//100 124//124
f 100//100 33//33 76//76
f 124//124 76//76 11//11
f 24//24 92//92 149//149
f 92//92 8//8 155//155
f 149//149 155//155 58//58
f 2//2 127//127 157//157
f 127//127 6//6 156//156
f 157//157 156//156 24//24
f 31//31 92//92 158//158
f 92//92 24//24 156//156
f 158//158 156//156 6//6
f 33//33 99//99 159//159
f 99//99 18//18 141//141
f 159//159 141//141 183//183
f 2//2 157//157 160//160
f 2//2 160//160 60//60
f 157//157 24//24 61//61
f 157//157 61//61 160//160
f 28//28 104//104 142//142
f 104//104 5//5 161//161
f 142//142 161//161 1//1
f 57//57 105//105 28//28
f 162//162 37//37 105//105
f 152//152 49//49 163//163
f 49//49 152//152 29//29
f 62//62 163//163 49//49
f 8//8 163//163 155//155
f 163//163 62//62 164//164
f 155//155 164//164 58//58
f 51//51 115//115 135//135
f 115//115 29//29 119//119
f 123//123 135//135 20//20
f 25//25 143//143 165//165
f 143//143 1//1 147//147
f 165//165 147//147 19//19
f 35//35 110//110 132//132
f 110//110 16//16 166//166
f 132//132 166//166 30//30
f 130//130 69//69 9//9
f 6//6 80//80 158//158
f 80//80 12//12 167//167
f 158//158 167//167 31//31
f 30//30 168//168 133//133
f 168//168 22//22 126//126
f 133//133 126//126 11//11
f 13//13 169//169 79//79
f 169//169 30//30 170//170
f 79//79 170//170 12//12
f 32//32 137//137 139//139
f 137//137 19//19 73//73
f 139//139 73//73 17//17
f 30//30 166//166 170//170
f 166//166 16//16 171//171
f 170//170 171//171 12//12
f 16//16 134//134 171//171
f 134//134 7//7 172//172
f 171//171 172//172 12//12
f 31//31 167//167 111//111
f 167//167 12//12 172//172
f 111//111 172//172 7//7
f 22//22 168//168 181//181
f 168//168 30//30 169//169
f 181//181 169//169 13//13
f 23//23 184//184 151//151
f 151//151 4//4 34//34
f 65//65 173//173 36//36
f 173//173 63//63 32//32
f 174//174 17//17 148//148
f 159//159 148//148 33//33
f 25//25 165//165 175//175
f 165//165 19//19 138//138
f 176//176 175//175 52//52
f 25//25 175//175 56//56
f 176//176 56//56 175//175
f 102//102 178//178 177//177
f 34//34 68//68 154//154
f 154//154 177//177 59//59
f 35//35 145//145 109//109
f 145//145 1//1 161//161
f 109//109 161//161 5//5
f 178//178 102//102 64//64
f 180//180 179//179 183//183
f 36//36 179//179 66//66
f 180//180 66//66 179//179
f 36//36 140//140 179//179
f 140//140 17//17 174//174
f 179//179 174//174 183//183
f 95//95 87//87 102//102
f 95//95 102//102 177//177
f 181//181 113//113 185//185
f 117//117 184//184 185//185
f 67//67 117//117 3//3
f 135//135 119//119 20//20
f 183//183 174//174 159//159
f 2//2 21//21 128//128
f 181//181 185//185 22//22
f 127//127 2//2 128//128
f 184//184 182//182 185//185
f 22//22 185//185 182//182
f 88//88 42//42 44//44
f 88//88 44//44 188//188
f 186//186 34//34 154//154
f 21//21 2//2 60//60
f 21//21 60//60 107//107
f 21//21 107//107 48//48
f 130//130 21//21 108//108
f 153//153 186//186 154//154
f 108//108 106//106 187//187
f 88//88 186//186 42//42
f 70//70 187//187 10//10
f 188//188 44//44 45//45
f 108//108 187//187 69//69
# 329 faces, 0 coords texture

# End of File
