####
#
# OBJ File Generated by Meshlab
#
####
# Object 1779_C76_S_6.obj
#
# Vertices: 28
# Faces: 34
#
####
vn 2.321791 -2.107892 -0.044161
v -49.469500 38.718000 45.588100
vn 2.340909 -2.094678 -0.041137
v -49.537800 38.718000 40.533600
vn 4.680045 -4.191810 -0.047488
v -48.528749 39.820903 41.407170
vn 2.337679 -2.096091 -0.030041
v -49.506400 38.718000 43.087300
vn 0.663418 -0.582471 -0.008110
v -49.558500 38.718000 38.840200
vn 1.986436 -1.760915 -0.036438
v -48.947300 39.403800 39.582800
vn 3.124457 -2.826073 -0.062104
v -48.522500 39.835800 40.996700
vn 1.134050 -1.002888 -0.008288
v -48.094600 40.312400 41.338400
vn 3.029394 -2.697673 -0.015718
v -48.383000 39.982000 41.852700
vn 1.860357 -1.683316 -0.042683
v -48.299100 40.009700 45.390000
vn 2.128449 -1.903909 -0.022208
v -48.219275 40.159750 42.992850
vn 1.928160 -1.724522 -0.022711
v -48.376200 39.996600 41.017300
vn 0.429641 -0.389952 -0.009768
v -49.426000 38.718000 47.501500
vn 2.498229 -2.267721 -0.056504
v -49.153100 39.035200 46.841800
vn 2.360693 -2.072655 -0.028857
v -49.548150 38.718000 39.686900
vn 4.663698 -4.209788 -0.072151
v -48.965568 39.340714 41.181241
vn 2.336262 -2.099581 -0.056904
v -48.734900 39.619800 40.289750
vn 2.352938 -2.108211 -0.056448
v -48.273750 40.072025 44.312625
vn 2.330902 -2.105988 -0.036247
v -49.487950 38.718000 44.337700
vn 4.680436 -4.190993 -0.083396
v -49.088431 39.165686 44.048989
vn 4.685834 -4.185201 -0.064386
v -48.825628 39.477763 43.312755
vn 4.679478 -4.191705 -0.100027
v -48.600053 39.711645 44.170633
vn 4.676343 -4.196272 -0.034403
v -48.824938 39.485064 42.272943
vn 2.331051 -2.105969 -0.026366
v -49.522100 38.718000 41.810450
vn 4.649126 -4.225513 -0.094432
v -49.015218 39.214810 45.730478
vn 2.325765 -2.111312 -0.052747
v -49.447750 38.718000 46.544800
vn 2.245511 -2.040615 -0.050379
v -48.829200 39.403850 46.363300
vn 4.660956 -4.212627 -0.086083
v -49.032559 39.211636 44.896887
# 28 vertices, 0 vertices normals

f 2//2 15//15 6//6
f 16//16 2//2 17//17
f 3//3 8//8 9//9
f 19//19 4//4 20//20
f 20//20 21//21 22//22
f 3//3 7//7 12//12
f 24//24 16//16 23//23
f 1//1 25//25 26//26
f 14//14 26//26 27//27
f 3//3 12//12 8//8
f 15//15 5//5 6//6
f 6//6 17//17 2//2
f 3//3 16//16 7//7
f 17//17 7//7 16//16
f 22//22 10//10 28//28
f 1//1 28//28 25//25
f 28//28 20//20 22//22
f 20//20 4//4 21//21
f 22//22 21//21 11//11
f 22//22 18//18 10//10
f 18//18 22//22 11//11
f 9//9 23//23 3//3
f 4//4 23//23 21//21
f 21//21 23//23 11//11
f 4//4 24//24 23//23
f 24//24 2//2 16//16
f 23//23 16//16 3//3
f 26//26 25//25 27//27
f 26//26 14//14 13//13
f 28//28 10//10 25//25
f 27//27 25//25 10//10
f 20//20 28//28 19//19
f 23//23 9//9 11//11
f 28//28 1//1 19//19
# 34 faces, 0 coords texture

# End of File
