####
#
# OBJ File Generated by Meshlab
#
####
# Object 1781_C76_S_8.obj
#
# Vertices: 160
# Faces: 279
#
####
vn 4.564113 -4.317989 -0.030754
v -44.844992 44.033169 23.963035
vn 4.551682 -4.331340 -0.003922
v -45.935696 42.911565 14.948651
vn 4.565161 -4.316641 -0.024305
v -46.496221 42.291806 18.678134
vn 4.559905 -4.322342 -0.025037
v -45.158654 43.725972 19.036949
vn 4.574019 -4.307638 -0.022550
v -46.080465 42.734274 20.588667
vn 4.549002 -4.334115 -0.016421
v -44.706789 44.184026 20.764532
vn 4.580870 -4.300311 -0.031639
v -46.484347 42.284782 24.152196
vn 4.577117 -4.304108 -0.014646
v -45.545959 43.302658 22.341464
vn 4.557464 -4.325252 -0.009082
v -42.681030 46.320993 18.805206
vn 4.520161 -4.363880 -0.048400
v -47.993640 40.755631 15.850218
vn 4.557296 -4.325235 -0.010236
v -45.512638 43.359446 17.065685
vn 4.550216 -4.332409 -0.049527
v -48.527847 40.174620 18.989303
vn 4.572176 -4.309672 -0.009780
v -42.619974 46.384276 22.570665
vn 4.553407 -4.329115 -0.037394
v -47.477630 41.268711 20.336850
vn 4.542874 -4.340558 -0.000098
v -44.041736 44.898016 17.406395
vn 4.551349 -4.331132 -0.031987
v -47.067874 41.666130 22.148825
vn 4.531028 -4.351876 -0.063648
v -49.702176 38.914040 19.740824
vn 4.574282 -4.306484 -0.078331
v -48.501349 40.146581 24.596565
vn 4.560444 -4.321626 -0.039615
v -48.815873 39.831755 21.045212
vn 4.553038 -4.329744 -0.035288
v -46.906982 41.887361 16.670402
vn 4.553015 -4.329897 -0.012843
v -44.030774 44.888622 22.371171
vn 4.562971 -4.319233 -0.006809
v -43.444461 45.496700 24.293617
vn 4.536690 -4.347002 0.008045
v -44.622447 44.281328 15.444118
vn 4.563405 -4.318966 -0.004942
v -43.283631 45.679418 20.706192
vn 4.564978 -4.316919 -0.051742
v -49.285978 39.331120 23.005848
vn 4.534577 -4.348648 -0.069972
v -49.378397 39.297592 17.760810
vn 4.556346 -4.326322 -0.025992
v -47.866027 40.833088 22.489740
vn 2.167026 -2.024628 -0.038344
v -49.608900 38.965500 24.073900
vn 2.047789 -1.967769 -0.033953
v -49.705850 38.960950 17.521650
vn 2.238736 -2.104803 -0.046819
v -48.130800 40.492800 26.190400
vn 2.154660 -1.994033 -0.015104
v -47.598400 41.060350 26.621900
vn 2.316283 -2.184563 -0.000127
v -42.008000 47.033800 19.924400
vn 2.061854 -1.942726 -0.001131
v -41.954500 47.090000 20.351100
vn 2.104116 -1.952409 0.002600
v -46.764400 41.972300 27.005000
vn 2.296723 -2.163734 -0.000939
v -42.051300 46.987600 21.439100
vn 2.121171 -2.003534 0.001832
v -45.618100 43.189200 27.024300
vn 2.220595 -2.096819 -0.000514
v -45.853700 42.940100 27.044200
vn 2.073597 -1.959292 -0.010286
v -44.379200 44.504500 26.490900
vn 2.069015 -2.009733 -0.042317
v -50.139800 38.476000 19.142000
vn 2.146305 -2.081539 -0.016104
v -50.232950 38.363300 20.323350
vn 2.267796 -2.208570 -0.030234
v -48.272400 40.476000 15.367800
vn 2.026029 -1.968075 -0.030636
v -48.739200 39.990500 15.796200
vn 2.038626 -1.934045 -0.000018
v -42.127700 46.903600 18.646600
vn 2.019018 -1.949231 -0.016060
v -47.742600 41.026600 14.855500
vn 2.046517 -1.935136 -0.002289
v -42.150526 46.880358 22.704275
vn 2.123236 -2.023201 0.000308
v -42.712400 46.292800 17.028400
vn 1.838120 -1.756740 -0.007065
v -45.391100 43.486500 14.054800
vn 2.232143 -2.130134 -0.003221
v -46.598400 42.213850 14.420950
vn 2.134879 -2.028207 -0.008831
v -43.326100 45.619900 25.434150
vn 2.088422 -1.967943 -0.048955
v -48.779700 39.827100 25.588800
vn 2.416655 -2.304769 0.008556
v -43.894000 45.044800 15.408900
vn 1.936426 -1.857774 0.000256
v -44.311300 44.605200 14.706200
vn 2.256999 -2.170969 -0.009854
v -44.931900 43.963300 14.327700
vn 2.255855 -2.181881 -0.036015
v -49.190800 39.510400 16.598900
vn 2.253671 -2.147584 -0.005216
v -42.448600 46.567500 17.729600
vn 2.066365 -1.926596 -0.002075
v -42.717200 46.276200 24.474200
vn 2.117056 -2.028872 -0.016879
v -50.202208 38.386317 21.635346
vn 2.206426 -2.053234 -0.038659
v -49.274200 39.312600 24.782800
vn 4.597428 -4.282713 -0.018094
v -45.823993 43.012707 18.868848
vn 4.581260 -4.299844 -0.027243
v -45.634058 43.215158 19.812621
vn 4.571505 -4.310231 0.003612
v -46.297350 42.503089 19.659073
vn 4.546101 -4.336928 -0.039174
v -44.966392 43.919804 19.930993
vn 4.562232 -4.320093 -0.019163
v -45.401923 43.450574 20.695235
vn 4.580367 -4.300682 -0.052235
v -45.612851 43.214110 24.052384
vn 4.563141 -4.319075 -0.026637
v -45.211606 43.650904 23.161506
vn 4.537204 -4.346433 -0.024138
v -47.304932 41.475333 15.797382
vn 4.543556 -4.339868 -0.007687
v -44.798062 44.085556 22.335433
vn 4.541948 -4.341546 -0.008866
v -44.445715 44.453289 23.165058
vn 4.551776 -4.331225 0.001437
v -45.126006 43.743727 21.530110
vn 4.547452 -4.335771 -0.011692
v -44.384579 44.519834 21.557480
vn 4.538602 -4.344872 -0.027364
v -47.243268 41.512503 18.439025
vn 4.540668 -4.342879 0.007807
v -46.973415 41.794194 19.494883
vn 4.535313 -4.348488 0.001003
v -47.540740 41.202222 19.338907
vn 4.557381 -4.324871 -0.040102
v -48.053082 40.668062 19.686475
vn 4.528941 -4.355062 -0.015201
v -47.940840 40.785202 18.676642
vn 4.588663 -4.291902 -0.007998
v -45.831165 42.999638 21.475859
vn 4.550425 -4.332210 -0.036488
v -46.753362 42.028042 20.453292
vn 4.550866 -4.332188 -0.002597
v -46.524312 42.291271 15.677111
vn 4.568644 -4.313450 -0.000468
v -42.528598 46.481830 19.569616
vn 4.572544 -4.309319 -0.002610
v -42.619480 46.384186 20.472724
vn 4.607028 -4.271830 -0.041807
v -47.168083 41.529648 25.739671
vn 4.605829 -4.273636 -0.017306
v -46.277864 42.510390 22.310839
vn 4.581840 -4.298747 -0.050716
v -46.505099 42.270365 21.381543
vn 4.566528 -4.315685 -0.007724
v -46.035714 42.747265 26.200301
vn 4.576072 -4.305429 -0.016080
v -45.392012 43.427477 25.941580
vn 4.590164 -4.290451 -0.003137
v -46.522676 42.230643 26.516515
vn 4.585435 -4.295284 -0.049877
v -45.143339 43.702424 24.877785
vn 4.572257 -4.309389 -0.038367
v -45.885541 42.910189 25.042147
vn 4.533439 -4.350169 -0.043416
v -47.828898 40.908301 17.658481
vn 4.548727 -4.333851 -0.056430
v -48.973340 39.716366 18.295135
vn 4.591439 -4.288919 -0.032890
v -46.568569 42.186166 25.323529
vn 4.577365 -4.304042 -0.034463
v -44.635481 44.237336 25.715978
vn 4.557458 -4.325222 -0.020076
v -43.281722 45.686821 19.008693
vn 4.543384 -4.339868 -0.030264
v -43.967191 44.965048 18.932677
vn 4.546043 -4.337173 -0.027315
v -43.750585 45.198665 18.206048
vn 4.551565 -4.331461 -0.008781
v -43.988299 44.938967 20.771329
vn 4.561364 -4.321121 -0.005391
v -43.630204 45.312616 21.569245
vn 4.575156 -4.306248 -0.003334
v -46.740907 42.010023 23.104869
vn 4.568763 -4.313009 -0.031840
v -44.538538 44.352767 24.694756
vn 4.540660 -4.342900 -0.004130
v -44.128136 44.783258 24.069872
vn 4.570025 -4.311755 -0.018972
v -45.323732 43.555192 18.069455
vn 4.540903 -4.342617 0.006453
v -44.794033 44.111211 17.251893
vn 4.536559 -4.347111 -0.021126
v -44.562635 44.351257 18.274824
vn 4.527484 -4.356526 -0.031273
v -44.549853 44.357449 19.190393
vn 4.540338 -4.343144 -0.017052
v -44.297301 44.614671 19.962332
vn 4.584902 -4.295832 -0.047446
v -46.002599 42.827712 17.873800
vn 4.583563 -4.297155 -0.058305
v -48.168809 40.526160 20.714838
vn 4.576883 -4.304014 -0.077481
v -48.657535 40.018226 20.027233
vn 4.541846 -4.340922 -0.076567
v -47.102501 41.645580 21.185073
vn 4.548352 -4.334808 0.018424
v -43.754240 45.195789 16.542901
vn 2.128019 -2.026039 0.008872
v -43.204400 45.771625 16.188325
vn 4.549724 -4.333368 0.001182
v -43.353294 45.620242 17.257885
vn 2.281931 -2.165466 -0.002491
v -45.989200 42.856000 14.238150
vn 2.248241 -2.132605 -0.019022
v -43.873750 45.041050 26.007200
vn 4.581510 -4.299292 -0.055202
v -48.892454 39.740150 23.820758
vn 4.563440 -4.318901 -0.018980
v -48.594414 40.062705 22.793873
vn 4.563714 -4.318568 -0.029748
v -48.093123 40.586854 23.566913
vn 4.529373 -4.354615 -0.021002
v -49.468124 39.152606 21.338271
vn 4.546157 -4.337007 -0.017271
v -49.029813 39.603322 22.046650
vn 4.552029 -4.330481 -0.046484
v -49.266148 39.365645 20.357897
vn 4.572525 -4.308542 -0.083008
v -49.125984 39.533260 19.348120
vn 4.555694 -4.327106 -0.011012
v -43.621989 45.324586 19.919645
vn 4.558256 -4.323951 -0.061107
v -46.669120 42.123798 17.661430
vn 4.565541 -4.316483 -0.031119
v -46.205363 42.628294 16.841598
vn 4.535381 -4.348395 -0.003816
v -45.256834 43.620638 15.258234
vn 4.528560 -4.355484 -0.016936
v -44.913519 43.980498 14.748865
vn 4.542312 -4.340823 -0.045888
v -49.627466 38.981503 22.227036
vn 2.148448 -2.032859 -0.037097
v -49.975725 38.602650 22.924350
vn 4.546720 -4.336231 -0.053352
v -47.245806 41.522551 17.440845
vn 4.523691 -4.360177 -0.053155
v -48.826040 39.876111 17.262365
vn 4.555805 -4.326849 -0.022028
v -43.696368 45.235415 23.276289
vn 4.542635 -4.340791 0.019754
v -44.339923 44.581309 16.389562
vn 4.547275 -4.335938 0.007933
v -45.722198 43.137168 16.039446
vn 4.571884 -4.310021 0.002191
v -42.912927 46.073004 21.558712
vn 4.572387 -4.309487 -0.001076
v -42.338903 46.682291 21.505199
vn 4.536343 -4.347374 0.017630
v -45.034675 43.854675 16.244455
vn 2.281802 -2.144533 -0.003160
v -45.019250 43.824600 26.771550
vn 4.585732 -4.295146 -0.019150
v -42.994153 45.979052 23.460843
vn 2.300568 -2.147998 -0.002867
v -42.499900 46.509550 23.786450
vn 4.571753 -4.310075 -0.017224
v -43.271510 45.693626 22.456415
vn 4.526678 -4.357393 -0.015675
v -47.082285 41.708533 15.036904
vn 2.262206 -2.186058 -0.016020
v -47.181200 41.609050 14.644200
vn 4.525244 -4.358920 -0.018631
v -49.801035 38.808441 20.667534
vn 4.550340 -4.332725 -0.016095
v -42.964856 46.025377 18.061060
vn 4.547786 -4.335358 -0.007269
v -47.390238 41.331958 23.057218
vn 4.576216 -4.305298 -0.023841
v -48.359189 40.313197 21.762460
vn 4.542702 -4.339452 -0.097661
v -49.567513 39.077012 18.741208
vn 2.256434 -2.180402 -0.052149
v -49.959850 38.678400 18.463900
vn 4.548921 -4.334016 -0.022985
v -43.984226 44.934756 25.044181
vn 4.556682 -4.325501 -0.053438
v -47.686612 41.034869 21.446351
vn 4.576469 -4.304409 -0.073719
v -47.176032 41.539949 24.701362
vn 4.557846 -4.323913 -0.075951
v -47.799021 40.891598 24.450597
vn 4.595721 -4.284424 -0.025924
v -45.962198 42.850374 23.240366
vn 4.565871 -4.316371 -0.009957
v -43.028394 45.951509 19.786695
vn 4.539762 -4.343616 -0.043244
v -47.684271 41.070910 16.698652
vn 4.524947 -4.359134 -0.034180
v -48.389090 40.325672 17.843602
vn 4.557480 -4.325055 -0.031265
v -47.308135 41.415222 23.787644
vn 4.555460 -4.325701 -0.120395
v -48.210257 40.434862 25.292785
vn 4.569417 -4.311418 -0.096171
v -47.679020 40.991181 25.386769
vn 4.520174 -4.363809 -0.058259
v -48.513182 40.208296 16.733501
# 160 vertices, 0 vertices normals

f 59//59 60//60 61//61
f 62//62 63//63 60//60
f 25//25 28//28 128//128
f 66//66 155//155 10//10
f 67//67 68//68 65//65
f 67//67 69//69 70//70
f 71//71 72//72 73//73
f 74//74 75//75 73//73
f 63//63 69//69 76//76
f 61//61 77//77 72//72
f 82//82 83//83 76//76
f 13//13 135//135 45//45
f 84//84 85//85 36//36
f 87//87 88//88 64//64
f 75//75 156//156 89//89
f 130//130 156//156 90//90
f 91//91 88//88 84//84
f 85//85 87//87 92//92
f 17//17 40//40 39//39
f 96//96 97//97 70//70
f 153//153 98//98 82//82
f 92//92 87//87 99//99
f 10//10 41//41 44//44
f 101//101 102//102 103//103
f 94//94 104//104 103//103
f 62//62 104//104 105//105
f 106//106 101//101 59//59
f 74//74 107//107 108//108
f 83//83 109//109 77//77
f 110//110 111//111 112//112
f 38//38 92//92 114//114
f 115//115 116//116 117//117
f 127//127 118//118 119//119
f 120//120 121//121 108//108
f 122//122 93//93 154//154
f 123//123 124//124 106//106
f 23//23 52//52 51//51
f 125//125 2//2 47//47
f 52//52 126//126 53//53
f 23//23 126//126 52//52
f 71//71 129//129 123//123
f 155//155 129//129 89//89
f 68//68 131//131 100//100
f 15//15 132//132 110//110
f 124//124 78//78 133//133
f 66//66 141//141 78//78
f 122//122 96//96 105//105
f 134//134 80//80 135//135
f 45//45 135//135 35//35
f 136//136 132//132 102//102
f 136//136 133//133 125//125
f 92//92 137//137 85//85
f 138//138 13//13 139//139
f 140//140 97//97 134//134
f 140//140 138//138 131//131
f 141//141 44//44 142//142
f 143//143 57//57 40//40
f 95//95 112//112 144//144
f 115//115 18//18 58//58
f 145//145 157//157 117//117
f 119//119 146//146 116//116
f 143//143 120//120 118//118
f 147//147 39//39 148//148
f 90//90 121//121 147//147
f 26//26 29//29 54//54
f 100//100 22//22 149//149
f 16//16 150//150 109//109
f 146//146 107//107 150//150
f 3//3 59//59 61//61
f 59//59 4//4 60//60
f 61//61 60//60 5//5
f 4//4 62//62 60//60
f 62//62 6//6 63//63
f 60//60 63//63 5//5
f 1//1 64//64 65//65
f 66//66 20//20 155//155
f 8//8 67//67 65//65
f 67//67 21//21 68//68
f 65//65 68//68 1//1
f 21//21 67//67 70//70
f 67//67 8//8 69//69
f 70//70 69//69 6//6
f 71//71 3//3 72//72
f 73//73 72//72 14//14
f 14//14 74//74 73//73
f 74//74 12//12 75//75
f 73//73 75//75 71//71
f 5//5 63//63 76//76
f 63//63 6//6 69//69
f 76//76 69//69 8//8
f 3//3 61//61 72//72
f 61//61 5//5 77//77
f 72//72 77//77 14//14
f 79//79 32//32 80//80
f 33//33 80//80 32//32
f 8//8 82//82 76//76
f 76//76 83//83 5//5
f 37//37 84//84 36//36
f 1//1 87//87 64//64
f 87//87 85//85 88//88
f 64//64 88//88 7//7
f 71//71 75//75 89//89
f 75//75 12//12 156//156
f 26//26 130//130 90//90
f 89//89 156//156 160//160
f 90//90 156//156 12//12
f 86//86 91//91 84//84
f 91//91 7//7 88//88
f 84//84 88//88 85//85
f 9//9 93//93 144//144
f 41//41 10//10 42//42
f 10//10 160//160 42//42
f 6//6 96//96 70//70
f 96//96 24//24 97//97
f 70//70 97//97 21//21
f 91//91 151//151 7//7
f 153//153 7//7 98//98
f 83//83 82//82 16//16
f 9//9 43//43 79//79
f 149//149 92//92 99//99
f 99//99 87//87 1//1
f 1//1 100//100 99//99
f 99//99 100//100 149//149
f 4//4 101//101 103//103
f 101//101 11//11 102//102
f 103//103 102//102 15//15
f 103//103 104//104 4//4
f 6//6 62//62 105//105
f 62//62 4//4 104//104
f 105//105 104//104 94//94
f 3//3 106//106 59//59
f 106//106 11//11 101//101
f 59//59 101//101 4//4
f 12//12 74//74 108//108
f 74//74 14//14 107//107
f 108//108 107//107 19//19
f 5//5 83//83 77//77
f 83//83 16//16 109//109
f 77//77 109//109 14//14
f 15//15 110//110 112//112
f 112//112 111//111 46//46
f 2//2 48//48 113//113
f 2//2 113//113 47//47
f 149//149 114//114 92//92
f 114//114 149//149 49//49
f 159//159 30//30 158//158
f 18//18 152//152 158//158
f 115//115 25//25 116//116
f 117//117 116//116 27//27
f 127//127 57//57 118//118
f 119//119 118//118 19//19
f 19//19 120//120 108//108
f 120//120 17//17 121//121
f 108//108 121//121 12//12
f 79//79 80//80 154//154
f 122//122 94//94 93//93
f 79//79 154//154 9//9
f 3//3 123//123 106//106
f 123//123 20//20 124//124
f 106//106 124//124 11//11
f 23//23 125//125 126//126
f 126//126 125//125 47//47
f 126//126 47//47 53//53
f 128//128 127//127 25//25
f 128//128 57//57 127//127
f 3//3 71//71 123//123
f 123//123 129//129 20//20
f 155//155 20//20 129//129
f 89//89 129//129 71//71
f 54//54 130//130 26//26
f 1//1 68//68 100//100
f 68//68 21//21 131//131
f 100//100 131//131 22//22
f 132//132 51//51 110//110
f 51//51 132//132 23//23
f 111//111 110//110 51//51
f 11//11 124//124 133//133
f 124//124 20//20 78//78
f 133//133 78//78 2//2
f 20//20 66//66 78//78
f 66//66 10//10 44//44
f 78//78 141//141 48//48
f 94//94 122//122 105//105
f 122//122 24//24 96//96
f 105//105 96//96 6//6
f 13//13 134//134 135//135
f 134//134 24//24 80//80
f 135//135 80//80 33//33
f 135//135 33//33 35//35
f 11//11 136//136 102//102
f 136//136 23//23 132//132
f 102//102 132//132 15//15
f 23//23 136//136 125//125
f 136//136 11//11 133//133
f 125//125 133//133 2//2
f 92//92 38//38 137//137
f 85//85 137//137 36//36
f 45//45 139//139 13//13
f 22//22 138//138 56//56
f 139//139 56//56 138//138
f 22//22 56//56 49//49
f 13//13 140//140 134//134
f 140//140 21//21 97//97
f 134//134 97//97 24//24
f 21//21 140//140 131//131
f 140//140 13//13 138//138
f 131//131 138//138 22//22
f 44//44 141//141 66//66
f 2//2 78//78 48//48
f 142//142 48//48 141//141
f 17//17 143//143 40//40
f 95//95 15//15 112//112
f 144//144 112//112 46//46
f 144//144 46//46 55//55
f 115//115 58//58 28//28
f 25//25 115//115 28//28
f 7//7 151//151 157//157
f 98//98 145//145 16//16
f 27//27 145//145 117//117
f 119//119 19//19 146//146
f 116//116 146//146 27//27
f 57//57 143//143 118//118
f 143//143 17//17 120//120
f 118//118 120//120 19//19
f 39//39 147//147 17//17
f 26//26 147//147 148//148
f 148//148 29//29 26//26
f 26//26 90//90 147//147
f 90//90 12//12 121//121
f 147//147 121//121 17//17
f 149//149 22//22 49//49
f 16//16 27//27 150//150
f 109//109 150//150 14//14
f 27//27 146//146 150//150
f 146//146 19//19 107//107
f 150//150 107//107 14//14
f 18//18 50//50 58//58
f 144//144 93//93 95//95
f 18//18 115//115 117//117
f 25//25 127//127 119//119
f 25//25 119//119 116//116
f 93//93 94//94 95//95
f 152//152 151//151 159//159
f 9//9 144//144 55//55
f 43//43 9//9 55//55
f 153//153 64//64 7//7
f 117//117 152//152 18//18
f 64//64 153//153 65//65
f 65//65 153//153 8//8
f 82//82 8//8 153//153
f 79//79 43//43 32//32
f 81//81 31//31 159//159
f 154//154 93//93 9//9
f 82//82 98//98 16//16
f 24//24 154//154 80//80
f 154//154 24//24 122//122
f 81//81 151//151 91//91
f 86//86 81//81 91//91
f 145//145 27//27 16//16
f 157//157 152//152 117//117
f 10//10 155//155 160//160
f 81//81 86//86 34//34
f 130//130 160//160 156//156
f 89//89 160//160 155//155
f 7//7 157//157 98//98
f 152//152 157//157 151//151
f 157//157 145//145 98//98
f 159//159 31//31 30//30
f 158//158 30//30 50//50
f 18//18 158//158 50//50
f 158//158 152//152 159//159
f 159//159 151//151 81//81
f 42//42 160//160 54//54
f 95//95 94//94 103//103
f 15//15 95//95 103//103
f 81//81 34//34 31//31
f 160//160 130//130 54//54
f 86//86 84//84 37//37
f 86//86 37//37 34//34
# 279 faces, 0 coords texture

# End of File
