####
#
# OBJ File Generated by Meshlab
#
####
# Object 1825_C78_S_13.obj
#
# Vertices: 187
# Faces: 328
#
####
vn -3.450415 -5.248469 -0.130850
v 18.837892 71.253728 -11.168233
vn -3.749236 -5.040763 -0.071521
v 22.897640 68.334777 -6.256220
vn -2.914330 -5.564062 -0.079158
v 14.988949 73.428108 -7.120465
vn -2.786586 -5.625241 -0.023399
v 14.051175 73.914508 -5.432874
vn -2.724262 -5.658137 -0.167358
v 14.175016 73.880821 -8.964252
vn -3.481858 -5.227335 -0.020705
v 19.938686 70.420588 -0.985640
vn -2.697878 -5.671816 -0.050093
v 14.028633 73.888635 -7.253127
vn -3.060551 -5.485599 -0.135942
v 15.896952 72.993139 -10.592971
vn -3.594967 -5.150815 -0.146447
v 20.359637 70.179207 -10.384526
vn -3.564483 -5.170650 -0.146513
v 20.023280 70.497132 -12.455916
vn -3.678439 -5.092114 -0.036583
v 22.377268 68.740697 -8.025227
vn -3.612720 -5.136801 -0.016520
v 20.835905 69.817508 -2.854930
vn -3.186192 -5.412257 -0.072152
v 16.732476 72.457655 -6.576441
vn -3.195233 -5.408510 -0.031858
v 17.045047 72.234112 -2.679272
vn -3.450542 -5.249146 -0.105597
v 19.577390 70.643595 -7.069036
vn -3.584854 -5.159204 -0.065043
v 20.811978 69.819419 -8.473988
vn -3.583850 -5.160319 -0.029372
v 21.270550 69.504325 -6.597091
vn -3.328589 -5.327205 -0.010476
v 17.932289 71.714415 -4.804352
vn -3.240534 -5.379149 -0.145379
v 17.543364 72.045828 -9.936873
vn -3.481768 -5.225162 -0.144470
v 19.152534 71.000976 -8.892466
vn -3.652533 -5.111093 -0.088051
v 21.894741 69.097634 -9.848432
vn -3.759163 -5.034279 -0.047412
v 23.260338 68.082679 -9.469372
vn -3.678031 -5.092484 -0.039295
v 21.803946 69.122196 -4.666724
vn -3.213505 -5.393402 -0.146302
v 17.246600 72.288203 -11.994923
vn -3.321403 -5.333359 -0.008442
v 19.016021 70.994916 -0.939500
vn -3.754699 -5.037383 -0.061108
v 22.432561 68.618434 -2.836222
vn -3.379711 -5.296109 -0.019545
v 19.000633 71.023458 -2.869459
vn -3.479623 -5.231340 0.008903
v 19.911091 70.420974 -5.092817
vn -3.076347 -5.477849 -0.056623
v 16.215918 72.721770 -4.652498
vn -3.100081 -5.463723 -0.104017
v 16.224211 72.776523 -8.614380
vn -3.399450 -5.282769 -0.115125
v 18.502996 71.509814 -13.124877
vn -3.824267 -4.984638 -0.026995
v 23.801242 67.668642 -7.635624
vn -3.006058 -5.517111 -0.035415
v 15.141169 73.303661 -3.549507
vn -3.395710 -5.284206 -0.100159
v 18.564982 71.289128 -6.858084
vn -1.498379 -2.340265 -0.057246
v 18.486900 71.534000 -13.692300
vn -1.571411 -2.320820 -0.062277
v 19.927800 70.590000 -13.461000
vn -1.431777 -2.591878 -0.083311
v 15.634300 73.198300 -12.521150
vn -1.855869 -2.510475 -0.047949
v 22.948600 68.337050 -10.711950
vn -1.696558 -2.219209 -0.043434
v 24.367500 67.210300 -6.176940
vn -2.008510 -2.613997 -0.037317
v 24.266300 67.303200 -7.006630
vn -1.879506 -2.495156 -0.013462
v 23.738100 67.656975 -3.503460
vn -1.804331 -2.454657 -0.003038
v 23.453100 67.869400 -2.898860
vn -1.611418 -2.168550 -0.019682
v 22.826900 68.316100 -1.836340
vn -1.388961 -2.615630 -0.071072
v 14.308450 73.880050 -10.959150
vn -1.698192 -2.179208 -0.004885
v 24.262100 67.308100 -7.772210
vn -1.490770 -2.361407 0.022851
v 18.028900 71.618900 -0.131965
vn -1.635736 -2.616129 0.017158
v 18.594000 71.262200 -0.117971
vn -1.119039 -2.452066 -0.077802
v 13.402700 74.245500 -9.349390
vn -1.347046 -2.510778 0.001896
v 14.441500 73.681000 -2.564000
vn -1.315240 -2.217130 -0.062826
v 16.910000 72.525600 -13.497500
vn -1.765198 -2.462402 -0.053291
v 20.553900 70.131000 -13.114100
vn -1.942393 -2.589420 -0.018614
v 22.047800 68.895775 -1.300082
vn -1.718608 -2.342666 -0.027033
v 21.581000 69.243000 -0.902082
vn -1.851700 -2.513833 -0.055225
v 22.559100 68.634900 -11.259000
vn -1.636182 -2.268759 -0.065390
v 21.857800 69.181300 -12.213600
vn -1.106915 -2.422405 0.013978
v 13.124400 74.332500 -5.378700
vn -1.465243 -2.833907 0.049297
v 13.552500 74.155400 -4.428080
vn -1.581975 -2.608427 0.012316
v 16.984250 72.273550 -0.609876
vn -1.691556 -2.175746 -0.030803
v 24.133500 67.349400 -4.390980
vn -1.695292 -2.636241 -0.000555
v 19.661400 70.599000 -0.162247
vn -1.416945 -2.552235 0.004688
v 15.538300 73.078200 -1.475560
vn -1.858033 -2.598841 -0.056614
v 21.300300 69.586500 -12.570700
vn -1.568761 -2.237059 -0.015419
v 20.269200 70.185400 -0.193050
vn -1.370117 -2.635804 -0.027452
v 13.874100 73.967800 -3.551780
vn -1.703206 -2.277869 -0.030469
v 23.618700 67.818200 -9.729190
vn -1.259877 -2.715439 -0.013170
v 13.134600 74.310700 -7.227985
vn -3.769310 -5.026102 -0.094659
v 22.616245 68.510710 -4.557344
vn -3.717090 -5.064800 -0.048841
v 22.345561 68.732544 -5.484587
vn -3.790646 -5.010005 -0.092579
v 23.130761 68.140957 -5.358361
vn -3.442174 -5.254987 -0.120570
v 19.266868 71.003292 -12.807022
vn -1.786242 -2.741098 -0.069844
v 19.025925 71.179650 -13.551600
vn -3.499750 -5.215031 -0.158526
v 19.433543 70.875277 -11.810589
vn -3.414103 -5.273488 -0.105856
v 18.669006 71.384605 -12.235288
vn -3.058164 -5.485466 -0.188032
v 16.567205 72.642972 -11.307006
vn -3.037272 -5.497637 -0.171260
v 15.746501 73.105521 -11.547378
vn -3.048017 -5.491594 -0.174212
v 16.438899 72.744003 -12.240592
vn -3.584658 -5.155902 -0.208868
v 20.184079 70.343567 -11.415893
vn -3.573813 -5.165170 -0.146696
v 19.597003 70.717868 -10.746638
vn -3.606535 -5.142021 -0.174366
v 20.946709 69.792113 -11.043538
vn -2.836059 -5.601621 -0.149400
v 14.692260 73.605203 -8.060528
vn -3.738057 -5.049780 -0.054287
v 22.616708 68.562738 -9.734150
vn -3.729095 -5.055952 -0.098049
v 22.354888 68.770119 -10.460675
vn -3.509009 -5.211257 0.045123
v 20.383857 70.112932 -3.907298
vn -3.557446 -5.178676 0.018161
v 20.910674 69.735405 -4.829127
vn -3.662448 -5.103422 0.001610
v 21.292025 69.488406 -3.793237
vn -3.793989 -5.007809 -0.067679
v 23.438310 67.935478 -6.988071
vn -3.815969 -4.990839 -0.091139
v 23.719206 67.704459 -6.102643
vn -3.316911 -5.336128 -0.047146
v 18.559415 71.287943 -1.850140
vn -3.384384 -5.293080 -0.008920
v 19.483650 70.712939 -1.885096
vn -2.987735 -5.525382 -0.122005
v 15.173590 73.365893 -8.927036
vn -3.025920 -5.505426 -0.111199
v 15.596052 73.108327 -7.877065
vn -3.767932 -5.027274 -0.087072
v 22.116130 68.871566 -3.718971
vn -3.770844 -5.025457 -0.059621
v 21.667052 69.193386 -2.840257
vn -3.569340 -5.169948 -0.075897
v 20.284524 70.180093 -7.779886
vn -3.554459 -5.181125 -0.003009
v 21.051451 69.655043 -7.541191
vn -3.518072 -5.205792 -0.015579
v 20.492377 70.035280 -6.842624
vn -3.540690 -5.190416 -0.036947
v 20.661964 69.914430 -5.860565
vn -3.605873 -5.144904 -0.021688
v 21.511059 69.331561 -5.637234
vn -3.756337 -5.036136 -0.069213
v 22.894037 68.286402 -3.663569
vn -3.802080 -5.001474 -0.074333
v 23.395602 67.924393 -4.421168
vn -3.726552 -5.058561 -0.041583
v 23.064553 68.155077 -2.955468
vn -2.857702 -5.592520 0.024712
v 14.449808 73.706769 -6.317642
vn -3.049013 -5.493001 -0.094121
v 15.283677 73.321672 -9.888680
vn -2.892049 -5.572838 -0.149823
v 14.610026 73.694084 -9.816833
vn -3.039233 -5.497571 -0.129061
v 15.098645 73.438940 -10.777066
vn -3.660029 -5.106641 -0.047630
v 22.077094 68.924741 -6.406034
vn -3.219834 -5.389835 -0.170059
v 17.395789 72.166560 -10.974122
vn -3.377806 -5.296523 -0.124604
v 18.042516 71.771878 -11.624397
vn -3.368457 -5.302365 -0.129632
v 18.200830 71.643669 -10.543849
vn -3.358684 -5.308332 -0.137605
v 18.330892 71.536399 -9.480700
vn -3.483670 -5.226150 -0.099050
v 18.999728 71.125374 -10.069922
vn -3.613453 -5.139305 -0.091494
v 19.783661 70.571668 -9.682788
vn -3.609329 -5.141747 -0.113357
v 20.573411 70.007062 -9.409736
vn -3.628682 -5.128484 -0.098559
v 20.031478 70.376367 -8.702565
vn -2.657865 -5.690104 -0.186217
v 13.823464 74.015238 -8.024169
vn -1.327927 -2.894694 -0.080496
v 13.317450 74.261050 -8.513810
vn -3.538079 -5.187169 -0.177000
v 19.592582 70.675034 -8.030564
vn -3.661324 -5.104034 -0.121183
v 21.734253 69.232725 -10.718683
vn -3.588230 -5.155997 -0.136039
v 21.133815 69.633050 -10.086937
vn -3.569859 -5.169528 -0.096651
v 21.352436 69.459049 -9.161513
vn -3.382940 -5.292795 -0.065106
v 17.661427 71.865044 -6.696432
vn -3.404215 -5.280748 0.045938
v 18.259880 71.493887 -5.827926
vn -3.292895 -5.349761 -0.013691
v 17.364517 72.065744 -5.698812
vn -1.476076 -2.679989 -0.082592
v 14.930550 73.561200 -11.754800
vn -3.031947 -5.502395 -0.096424
v 15.846294 72.952408 -6.917094
vn -3.027940 -5.504957 -0.071978
v 16.014860 72.846747 -6.119011
vn -3.019878 -5.509214 -0.084555
v 15.283097 73.251755 -6.219884
vn -3.016297 -5.511512 -0.057151
v 14.852476 73.475256 -5.410275
vn -3.023056 -5.507964 -0.043057
v 15.361030 73.190604 -4.570588
vn -2.971683 -5.535119 -0.075901
v 14.594270 73.610321 -4.512728
vn -3.271228 -5.360607 -0.175723
v 17.666513 71.939881 -8.934360
vn -3.216099 -5.396161 -0.116010
v 17.036077 72.292756 -8.318905
vn -3.142654 -5.438999 -0.125576
v 16.879517 72.414258 -9.302433
vn -3.045103 -5.495880 -0.011321
v 15.402550 73.155563 -2.454460
vn -1.523442 -2.775014 -0.005108
v 15.137275 73.300150 -1.886540
vn -3.609399 -5.142237 -0.047720
v 21.831115 69.118163 -7.314823
vn -3.713324 -5.067393 -0.070699
v 22.637971 68.537657 -7.133004
vn -3.795084 -5.007396 -0.027617
v 23.585079 67.834913 -8.448529
vn -1.875151 -2.486277 -0.019166
v 23.869975 67.623375 -9.006303
vn -3.773386 -5.023826 -0.031608
v 23.151629 68.158104 -7.838565
vn -3.762612 -5.031976 -0.010330
v 22.873495 68.370589 -8.754499
vn -3.257851 -5.371917 -0.047102
v 17.531949 71.947788 -3.765984
vn -3.122065 -5.451662 -0.040021
v 16.643744 72.473647 -3.790374
vn -3.190743 -5.412341 -0.054536
v 17.056093 72.232710 -4.709045
vn -3.649274 -5.113204 -0.036484
v 22.131882 68.921830 -8.950468
vn -3.558638 -5.178040 -0.033416
v 21.588440 69.284818 -8.237432
vn -3.372086 -5.300733 -0.095769
v 17.869377 71.906939 -12.762658
vn -3.218530 -5.391837 -0.131273
v 17.112435 72.387959 -12.878048
vn -1.736852 -2.742889 -0.045400
v 17.553700 72.118550 -13.529300
vn -3.088664 -5.469333 -0.144123
v 16.720886 72.519672 -10.304986
vn -1.533205 -2.754074 -0.095613
v 16.348450 72.821350 -13.061650
vn -3.770459 -5.025994 -0.037274
v 22.060045 68.892101 -2.102091
vn -3.725851 -5.058476 -0.064345
v 21.323288 69.443724 -1.843248
vn -3.663229 -5.102551 -0.143689
v 21.550870 69.386017 -11.636440
vn -3.329239 -5.328494 -0.028251
v 17.731753 71.801405 -1.891356
vn -3.311598 -5.339248 -0.062739
v 18.051500 71.611282 -2.799581
vn -3.115164 -5.455064 -0.076686
v 16.451452 72.632742 -7.625535
vn -3.374610 -5.299236 -0.028750
v 18.473943 71.364476 -3.855774
vn -2.632003 -5.703596 0.086964
v 13.624925 74.101722 -6.378079
vn -1.281034 -2.899417 0.027317
v 13.141000 74.316800 -6.243510
vn -3.341317 -5.320841 0.005373
v 17.987152 71.637147 -0.969930
vn -3.228497 -5.388156 0.009593
v 17.055355 72.227908 -1.500888
vn -3.830815 -4.979306 -0.095548
v 23.756655 67.660395 -5.192448
vn -1.948697 -2.534369 -0.051621
v 24.258825 67.279275 -5.489625
vn -1.514370 -2.696430 0.018799
v 16.190750 72.720600 -1.060791
vn -3.072999 -5.480395 0.008980
v 16.219282 72.697374 -2.047631
vn -3.639062 -5.119579 -0.150789
v 20.772615 69.953489 -12.059135
vn -3.557862 -5.176581 -0.033103
v 20.384088 70.121524 -1.898214
vn -3.666658 -5.101908 -0.063290
v 20.742674 69.848710 -1.043396
vn -3.463328 -5.241719 -0.015410
v 19.960811 70.393036 -6.177694
vn -3.410778 -5.276675 0.004753
v 19.186289 70.888243 -5.985842
vn -3.434779 -5.261168 0.027694
v 18.870627 71.101229 -4.925550
vn -3.346695 -5.314303 -0.181583
v 17.898276 71.755182 -7.819555
vn -3.301459 -5.343284 -0.099969
v 17.182352 72.197978 -7.422731
vn -3.442830 -5.255947 0.015073
v 19.432978 70.737933 -3.936888
vn -3.450423 -5.250944 0.022130
v 19.922954 70.418124 -2.889931
vn -1.891030 -2.616776 -0.025481
v 21.004875 69.655225 -0.632242
vn -3.079178 -5.476123 -0.090061
v 16.045999 72.893110 -9.609134
vn -3.020379 -5.509271 -0.058367
v 15.691414 73.015708 -5.400961
vn -3.040194 -5.498319 -0.062486
v 15.865175 72.907607 -3.945669
vn -3.110512 -5.457452 -0.080889
v 16.528550 72.559435 -5.533067
vn -2.915644 -5.565132 -0.052062
v 14.400579 73.695715 -3.704124
vn -2.863070 -5.591545 -0.055241
v 13.931827 73.958250 -4.486887
vn -3.358043 -5.307099 -0.187912
v 18.373763 71.482883 -8.566970
vn -3.396476 -5.280989 -0.229625
v 18.861305 71.142507 -7.850231
vn -3.061944 -5.486352 -0.040752
v 16.045880 72.795915 -3.087282
vn -1.341152 -2.840314 -0.094185
v 13.820100 74.081350 -10.087295
# 187 vertices, 0 vertices normals

f 67//67 68//68 69//69
f 72//72 73//73 70//70
f 74//74 75//75 76//76
f 77//77 78//78 72//72
f 79//79 77//77 167//167
f 80//80 7//7 115//115
f 83//83 84//84 85//85
f 2//2 86//86 87//87
f 25//25 88//88 89//89
f 80//80 90//90 91//91
f 85//85 92//92 93//93
f 94//94 95//95 96//96
f 97//97 98//98 84//84
f 99//99 100//100 41//41
f 43//43 101//101 42//42
f 26//26 101//101 43//43
f 31//31 35//35 71//71
f 7//7 102//102 159//159
f 103//103 104//104 105//105
f 67//67 99//99 92//92
f 161//161 25//25 47//47
f 98//98 106//106 68//68
f 107//107 108//108 109//109
f 110//110 109//109 111//111
f 112//112 113//113 114//114
f 112//112 111//111 78//78
f 117//117 114//114 94//94
f 79//79 118//118 119//119
f 120//120 113//113 119//119
f 121//121 122//122 123//123
f 105//105 124//124 75//75
f 125//125 126//126 127//127
f 128//128 129//129 130//130
f 131//131 132//132 133//133
f 136//136 137//137 106//106
f 140//140 141//141 138//138
f 142//142 143//143 144//144
f 120//120 145//145 146//146
f 81//81 141//141 145//145
f 147//147 148//148 149//149
f 74//74 107//107 150//150
f 76//76 151//151 148//148
f 10//10 36//36 51//51
f 93//93 152//152 153//153
f 118//118 154//154 54//54
f 137//137 140//140 86//86
f 88//88 155//155 156//156
f 91//91 157//157 125//125
f 158//158 156//156 142//142
f 159//159 4//4 56//56
f 4//4 183//183 56//56
f 161//161 47//47 46//46
f 155//155 161//161 162//162
f 69//69 87//87 163//163
f 162//162 165//165 166//166
f 154//154 167//167 62//62
f 168//168 153//153 169//169
f 170//170 171//171 15//15
f 172//172 122//122 171//171
f 154//154 62//62 55//55
f 173//173 121//121 174//174
f 175//175 158//158 172//172
f 89//89 176//176 168//168
f 103//103 178//178 90//90
f 176//176 175//175 83//83
f 179//179 29//29 129//129
f 179//179 126//126 181//181
f 130//130 182//182 183//183
f 56//56 183//183 57//57
f 102//102 127//127 128//128
f 133//133 178//178 150//150
f 174//174 157//157 132//132
f 33//33 49//49 182//182
f 184//184 131//131 110//110
f 184//184 185//185 173//173
f 123//123 144//144 181//181
f 143//143 186//186 180//180
f 73//73 108//108 147//147
f 95//95 146//146 136//136
f 44//44 104//104 187//187
f 6//6 63//63 60//60
f 32//32 45//45 40//40
f 170//170 96//96 97//97
f 185//185 117//117 15//15
f 186//186 166//166 134//134
f 22//22 65//65 139//139
f 100//100 67//67 69//69
f 67//67 23//23 68//68
f 69//69 68//68 2//2
f 71//71 70//70 31//31
f 10//10 70//70 36//36
f 71//71 36//36 70//70
f 10//10 72//72 70//70
f 72//72 1//1 73//73
f 70//70 73//73 31//31
f 24//24 74//74 76//76
f 74//74 8//8 75//75
f 76//76 75//75 37//37
f 10//10 77//77 72//72
f 77//77 9//9 78//78
f 72//72 78//78 1//1
f 154//154 79//79 167//167
f 79//79 9//9 77//77
f 167//167 77//77 10//10
f 5//5 80//80 115//115
f 80//80 3//3 7//7
f 81//81 21//21 82//82
f 81//81 82//82 38//38
f 12//12 83//83 85//85
f 83//83 28//28 84//84
f 85//85 84//84 23//23
f 40//40 86//86 32//32
f 86//86 40//40 87//87
f 39//39 87//87 40//40
f 6//6 25//25 89//89
f 89//89 88//88 27//27
f 3//3 80//80 91//91
f 80//80 5//5 90//90
f 91//91 90//90 30//30
f 12//12 85//85 93//93
f 85//85 23//23 92//92
f 93//93 92//92 26//26
f 15//15 94//94 96//96
f 94//94 16//16 95//95
f 96//96 95//95 17//17
f 28//28 97//97 84//84
f 97//97 17//17 98//98
f 84//84 98//98 23//23
f 26//26 99//99 101//101
f 101//101 99//99 41//41
f 101//101 41//41 42//42
f 7//7 3//3 102//102
f 159//159 102//102 4//4
f 8//8 103//103 105//105
f 105//105 104//104 44//44
f 23//23 67//67 92//92
f 67//67 100//100 99//99
f 92//92 99//99 26//26
f 23//23 98//98 68//68
f 98//98 17//17 106//106
f 68//68 106//106 2//2
f 19//19 107//107 109//109
f 107//107 24//24 108//108
f 109//109 108//108 1//1
f 20//20 110//110 111//111
f 110//110 19//19 109//109
f 111//111 109//109 1//1
f 20//20 112//112 114//114
f 112//112 9//9 113//113
f 114//114 113//113 16//16
f 66//66 116//116 115//115
f 116//116 48//48 5//5
f 9//9 112//112 78//78
f 112//112 20//20 111//111
f 78//78 111//111 1//1
f 15//15 117//117 94//94
f 117//117 20//20 114//114
f 94//94 114//114 16//16
f 9//9 79//79 119//119
f 79//79 154//154 118//118
f 119//119 118//118 21//21
f 21//21 120//120 119//119
f 120//120 16//16 113//113
f 119//119 113//113 9//9
f 13//13 121//121 123//123
f 121//121 34//34 122//122
f 123//123 122//122 18//18
f 8//8 105//105 75//75
f 105//105 44//44 124//124
f 75//75 124//124 37//37
f 3//3 125//125 127//127
f 125//125 13//13 126//126
f 127//127 126//126 179//179
f 4//4 128//128 130//130
f 128//128 179//179 129//129
f 130//130 129//129 33//33
f 19//19 131//131 133//133
f 131//131 173//173 132//132
f 133//133 132//132 30//30
f 33//33 134//134 49//49
f 135//135 49//49 134//134
f 17//17 136//136 106//106
f 136//136 11//11 137//137
f 106//106 137//137 2//2
f 139//139 138//138 22//22
f 32//32 138//138 45//45
f 139//139 45//45 138//138
f 32//32 140//140 138//138
f 140//140 11//11 141//141
f 138//138 141//141 22//22
f 18//18 142//142 144//144
f 142//142 14//14 143//143
f 144//144 143//143 29//29
f 16//16 120//120 146//146
f 120//120 21//21 145//145
f 146//146 145//145 11//11
f 21//21 81//81 145//145
f 81//81 22//22 141//141
f 145//145 141//141 11//11
f 147//147 24//24 148//148
f 149//149 148//148 50//50
f 31//31 147//147 149//149
f 149//149 35//35 31//31
f 8//8 74//74 150//150
f 74//74 24//24 107//107
f 150//150 107//107 19//19
f 24//24 76//76 148//148
f 76//76 37//37 151//151
f 148//148 151//151 50//50
f 12//12 93//93 153//153
f 93//93 26//26 152//152
f 153//153 152//152 52//52
f 53//53 153//153 52//52
f 26//26 43//43 152//152
f 52//52 152//152 43//43
f 21//21 118//118 82//82
f 82//82 118//118 54//54
f 38//38 82//82 54//54
f 154//154 55//55 54//54
f 2//2 137//137 86//86
f 137//137 11//11 140//140
f 86//86 140//140 32//32
f 27//27 88//88 156//156
f 88//88 25//25 161//161
f 156//156 155//155 14//14
f 3//3 91//91 125//125
f 91//91 30//30 157//157
f 125//125 157//157 13//13
f 18//18 158//158 142//142
f 158//158 27//27 156//156
f 142//142 156//156 14//14
f 56//56 160//160 159//159
f 7//7 159//159 66//66
f 160//160 66//66 159//159
f 161//161 46//46 58//58
f 14//14 155//155 162//162
f 100//100 69//69 163//163
f 69//69 2//2 87//87
f 39//39 164//164 87//87
f 87//87 164//164 163//163
f 100//100 163//163 59//59
f 164//164 59//59 163//163
f 60//60 25//25 6//6
f 25//25 60//60 47//47
f 14//14 162//162 166//166
f 162//162 58//58 165//165
f 166//166 165//165 61//61
f 51//51 167//167 10//10
f 167//167 51//51 62//62
f 6//6 168//168 169//169
f 168//168 12//12 153//153
f 169//169 153//153 53//53
f 177//177 169//169 53//53
f 170//170 28//28 171//171
f 15//15 171//171 34//34
f 28//28 172//172 171//171
f 172//172 18//18 122//122
f 171//171 122//122 34//34
f 173//173 34//34 121//121
f 174//174 121//121 13//13
f 28//28 175//175 172//172
f 175//175 27//27 158//158
f 172//172 158//158 18//18
f 6//6 89//89 168//168
f 89//89 27//27 176//176
f 168//168 176//176 12//12
f 6//6 169//169 63//63
f 177//177 63//63 169//169
f 5//5 104//104 90//90
f 103//103 8//8 178//178
f 90//90 178//178 30//30
f 12//12 176//176 83//83
f 176//176 27//27 175//175
f 83//83 175//175 28//28
f 129//129 29//29 180//180
f 129//129 180//180 33//33
f 29//29 179//179 181//181
f 181//181 126//126 13//13
f 4//4 130//130 183//183
f 130//130 33//33 182//182
f 183//183 182//182 64//64
f 183//183 64//64 57//57
f 4//4 102//102 128//128
f 102//102 3//3 127//127
f 128//128 127//127 179//179
f 41//41 100//100 59//59
f 19//19 133//133 150//150
f 133//133 30//30 178//178
f 150//150 178//178 8//8
f 173//173 174//174 132//132
f 174//174 13//13 157//157
f 132//132 157//157 30//30
f 182//182 49//49 64//64
f 20//20 184//184 110//110
f 184//184 173//173 131//131
f 110//110 131//131 19//19
f 184//184 20//20 185//185
f 173//173 185//185 34//34
f 13//13 123//123 181//181
f 123//123 18//18 144//144
f 181//181 144//144 29//29
f 29//29 143//143 180//180
f 143//143 14//14 186//186
f 180//180 186//186 33//33
f 31//31 73//73 147//147
f 73//73 1//1 108//108
f 147//147 108//108 24//24
f 17//17 95//95 136//136
f 95//95 16//16 146//146
f 136//136 146//146 11//11
f 5//5 48//48 187//187
f 187//187 104//104 5//5
f 28//28 170//170 97//97
f 170//170 15//15 96//96
f 97//97 96//96 17//17
f 34//34 185//185 15//15
f 185//185 20//20 117//117
f 33//33 186//186 134//134
f 186//186 14//14 166//166
f 134//134 166//166 61//61
f 135//135 134//134 61//61
f 88//88 161//161 155//155
f 65//65 22//22 38//38
f 162//162 161//161 58//58
f 22//22 81//81 38//38
f 115//115 7//7 66//66
f 5//5 115//115 116//116
f 90//90 104//104 103//103
# 328 faces, 0 coords texture

# End of File
