####
#
# OBJ File Generated by Meshlab
#
####
# Object 1836_C79_S_6.obj
#
# Vertices: 154
# Faces: 267
#
####
vn -4.042050 -4.809186 -0.101009
v 26.816747 66.541069 -23.421213
vn -3.682187 -5.085895 -0.156105
v 21.172903 70.957291 -20.216814
vn -3.627833 -5.128315 -0.042427
v 20.649340 71.399002 -23.956447
vn -3.988184 -4.852458 -0.055136
v 25.937643 67.331333 -25.150912
vn -3.931068 -4.899821 -0.014895
v 24.769599 68.280393 -26.587840
vn -3.517634 -5.205805 -0.063237
v 19.077255 72.461327 -23.668478
vn -3.459835 -5.244050 -0.044281
v 18.127496 73.120267 -25.503607
vn -3.549144 -5.183483 -0.111038
v 20.000550 71.807153 -21.920901
vn -3.902375 -4.923410 -0.095667
v 24.379308 68.496133 -21.571843
vn -3.939660 -4.893268 -0.107088
v 25.171740 67.894591 -23.278484
vn -3.880680 -4.940768 -0.082096
v 23.315448 69.368150 -23.353521
vn -3.555021 -5.180462 -0.029863
v 19.740737 72.031422 -25.729773
vn -3.763682 -5.026919 -0.076318
v 21.642437 70.672808 -22.430303
vn -3.650883 -5.111099 0.159109
v 20.094666 71.742349 -29.537050
vn -3.647851 -5.113511 0.063054
v 20.627555 71.423827 -27.513993
vn -3.736768 -5.049365 -0.020490
v 21.418508 70.853553 -25.821480
vn -3.760665 -5.032959 0.049466
v 21.986809 70.415892 -27.682261
vn -3.870771 -4.948081 -0.082374
v 24.356026 68.582732 -24.780665
vn -4.009715 -4.836440 0.029022
v 26.154952 67.111478 -27.169500
vn -3.820058 -4.986863 0.021687
v 23.621974 69.188065 -28.342298
vn -3.829503 -4.980940 -0.047217
v 23.133237 69.529818 -26.167767
vn -3.696005 -5.078704 0.141306
v 21.608538 70.668126 -29.213577
vn -3.869131 -4.948872 -0.126875
v 22.755887 69.762601 -21.110417
vn -3.832305 -4.977698 -0.113087
v 22.550920 69.864427 -19.161080
vn -3.742494 -5.045860 0.101287
v 22.901831 69.693813 -30.040843
vn -3.974385 -4.865944 -0.049629
v 25.205941 67.916259 -28.410452
vn -4.001213 -4.841739 -0.101608
v 26.110611 67.115678 -21.609085
vn -3.526871 -5.199433 0.008128
v 18.777919 72.697846 -27.590549
vn -1.671061 -2.512855 -0.010746
v 17.962400 73.239600 -27.476100
vn -1.641290 -2.495982 -0.024592
v 17.659800 73.435500 -26.260700
vn -1.634439 -2.384157 -0.069354
v 19.864750 71.843300 -19.858100
vn -1.683093 -2.197111 -0.020930
v 22.496100 69.899800 -18.466000
vn -1.804683 -2.168980 0.003488
v 27.109300 66.354600 -25.858900
vn -2.007659 -2.360050 -0.060835
v 27.224100 66.223700 -24.479100
vn -1.969619 -2.399880 0.034695
v 26.679600 66.683000 -26.996100
vn -1.866008 -2.263420 -0.026230
v 26.407600 66.906950 -27.672400
vn -1.614335 -2.372527 -0.045215
v 18.561243 72.781316 -21.520505
vn -1.562183 -2.316493 -0.026555
v 17.791700 73.325000 -23.384600
vn -1.700417 -2.294259 0.041543
v 23.012408 69.602385 -30.627980
vn -1.891403 -2.510011 0.044781
v 23.307600 69.380900 -30.491600
vn -1.851727 -2.203972 -0.071413
v 26.589100 66.686100 -20.763900
vn -1.866443 -2.182528 -0.046441
v 26.931300 66.412200 -21.532200
vn -1.768645 -2.658462 -0.017523
v 17.693600 73.402000 -24.446100
vn -1.891942 -2.404633 0.003995
v 24.837400 68.219800 -29.636700
vn -1.785300 -2.208324 -0.043634
v 25.575300 67.631100 -29.014600
vn -1.826374 -2.371102 0.038639
v 24.183975 68.727575 -30.089675
vn -1.751343 -2.498103 0.038168
v 18.925100 72.577800 -29.188100
vn -1.554512 -2.269877 0.013364
v 18.331500 72.998000 -28.485200
vn -1.516911 -2.398954 -0.015460
v 17.552500 73.483200 -25.402800
vn -1.743051 -2.143518 -0.052614
v 25.400950 67.626150 -19.311550
vn -1.936546 -2.531482 -0.074816
v 21.828700 70.404000 -18.723900
vn -1.813605 -2.308231 -0.055779
v 23.888200 68.816300 -18.627700
vn -1.709857 -2.319414 -0.077501
v 21.169200 70.918900 -18.939400
vn -1.652383 -2.292500 0.081356
v 21.527300 70.671300 -30.760000
vn -1.965332 -2.374895 -0.081108
v 25.943000 67.191500 -19.936200
vn -1.827023 -2.151723 -0.044521
v 27.281421 66.144377 -23.317836
vn -1.716052 -2.391444 0.086211
v 20.581400 71.358250 -30.476650
vn -3.968449 -4.870244 0.013465
v 25.382319 67.781574 -25.867642
vn -3.914380 -4.913843 -0.096810
v 25.100935 67.992855 -24.905838
vn -3.867311 -4.951236 -0.056423
v 24.548639 68.442949 -25.607470
vn -3.527808 -5.198656 -0.082329
v 19.544173 72.130225 -22.765147
vn -3.541399 -5.188865 -0.107020
v 19.239405 72.323034 -21.734681
vn -3.498893 -5.218661 -0.033603
v 18.445420 72.914228 -26.571571
vn -3.547825 -5.183727 -0.142484
v 19.766692 71.942040 -20.977940
vn -1.746244 -2.552851 -0.070322
v 19.172850 72.340500 -20.700350
vn -3.755111 -5.037231 -0.018085
v 21.454881 70.799801 -24.150077
vn -3.801877 -5.001771 0.010935
v 21.883666 70.487303 -23.439048
vn -3.669988 -5.098479 -0.033621
v 21.126050 71.051624 -23.159800
vn -3.627264 -5.128304 0.140846
v 20.287141 71.636263 -28.506632
vn -3.587660 -5.157452 0.085743
v 19.292750 72.329207 -28.497614
vn -3.847967 -4.965325 -0.130358
v 23.262352 69.322933 -19.442219
vn -1.899931 -2.442623 -0.049237
v 23.392800 69.201550 -18.551125
vn -4.033533 -4.816319 -0.025032
v 26.611300 66.768522 -25.434670
vn -2.036296 -2.391605 -0.057702
v 27.166700 66.289150 -25.169000
vn -3.538888 -5.191629 -0.028782
v 19.283860 72.348974 -26.737276
vn -3.585654 -5.159413 -0.027939
v 20.147406 71.754873 -26.664956
vn -1.683039 -2.358926 0.067866
v 19.716675 71.999775 -29.977000
vn -3.821365 -4.987130 -0.061403
v 23.964450 68.896276 -26.361652
vn -3.828151 -4.982207 -0.032020
v 23.693382 69.094678 -25.306778
vn -3.964831 -4.871244 -0.157425
v 25.590229 67.583835 -24.175569
vn -3.906559 -4.919295 -0.131796
v 24.720343 68.275527 -24.069782
vn -3.788867 -5.011684 0.012810
v 21.794460 70.568130 -26.710378
vn -3.670712 -5.098614 -0.002584
v 20.990432 71.163290 -26.627131
vn -3.736706 -5.050893 0.059820
v 21.350745 70.890456 -27.393645
vn -3.687070 -5.086234 -0.030750
v 21.013212 71.142887 -24.917644
vn -3.563513 -5.174480 -0.016129
v 20.190478 71.719954 -24.808550
vn -3.609279 -5.142989 -0.012648
v 20.570443 71.449963 -25.747840
vn -3.901946 -4.923486 -0.107322
v 24.256469 68.620523 -23.304212
vn -3.864697 -4.952923 -0.084402
v 23.878959 68.945866 -24.273499
vn -3.753404 -5.038055 0.091433
v 22.875151 69.730811 -29.077829
vn -3.771285 -5.024924 0.021150
v 22.771114 69.827787 -27.979544
vn -3.841190 -4.972258 -0.018003
v 22.748214 69.823969 -25.241994
vn -3.806973 -4.998072 -0.045533
v 21.860939 70.508922 -25.077464
vn -3.841040 -4.972317 -0.028259
v 22.271043 70.195462 -25.980421
vn -3.525068 -5.200672 -0.071477
v 18.818310 72.622493 -22.613676
vn -1.752873 -2.598019 -0.033891
v 18.161200 73.064100 -22.481200
vn -3.512844 -5.209098 -0.059924
v 18.355922 72.946179 -23.530771
vn -3.865382 -4.951913 -0.120426
v 23.330892 69.298695 -20.452815
vn -3.844227 -4.967821 -0.145214
v 22.601849 69.852427 -20.095754
vn -3.590332 -5.155240 -0.104199
v 20.847162 71.226697 -22.134634
vn -3.721474 -5.057306 -0.140827
v 21.415051 70.815688 -21.372155
vn -3.550828 -5.181449 -0.150319
v 20.422332 71.475536 -20.359402
vn -3.514745 -5.207915 -0.050948
v 18.512042 72.851649 -24.578098
vn -3.893377 -4.930708 -0.088268
v 23.853769 68.926283 -22.415411
vn -3.910581 -4.917226 -0.081195
v 24.750983 68.214751 -22.439490
vn -4.038375 -4.812899 0.047803
v 25.548985 67.622352 -26.885584
vn -3.932642 -4.900242 0.006940
v 24.445188 68.532366 -28.336823
vn -3.867689 -4.950216 0.054133
v 24.079135 68.826430 -29.083628
vn -3.918896 -4.911167 0.000319
v 24.719075 68.313747 -29.125087
vn -3.915036 -4.913091 -0.111565
v 24.853181 68.099550 -20.735068
vn -3.917616 -4.911340 -0.095909
v 25.237013 67.813194 -21.605228
vn -3.963248 -4.872791 -0.147258
v 25.670075 67.448928 -20.759038
vn -3.955556 -4.881218 -0.049449
v 25.647957 67.499452 -22.458923
vn -1.940772 -2.435637 -0.062372
v 24.596400 68.261100 -18.933000
vn -3.912632 -4.914870 -0.117289
v 24.535053 68.333987 -19.909220
vn -3.523226 -5.201931 -0.066054
v 19.857799 71.936248 -23.803797
vn -3.554816 -5.179838 -0.094385
v 20.331380 71.600946 -22.933895
vn -3.702149 -5.074971 0.117759
v 21.241000 70.956812 -28.332416
vn -3.743361 -5.045531 0.090511
v 22.116536 70.302773 -28.655973
vn -3.891680 -4.931774 -0.103257
v 22.995865 69.595789 -22.189014
vn -3.879373 -4.940490 -0.136532
v 22.188708 70.226355 -21.765235
vn -3.883498 -4.938675 -0.062561
v 22.436090 70.054586 -22.894279
vn -3.858479 -4.958743 -0.035374
v 22.587423 69.941015 -23.876884
vn -3.830246 -4.978093 -0.160254
v 21.858064 70.414282 -19.633869
vn -3.881491 -4.939943 -0.096986
v 23.547787 69.146718 -21.424255
vn -3.886680 -4.935156 -0.123419
v 23.920584 68.817802 -19.699736
vn -3.659119 -5.104940 0.169194
v 20.866167 71.195417 -29.346923
vn -1.766592 -2.574741 -0.080397
v 20.589800 71.329500 -19.338000
vn -3.897250 -4.927267 -0.106363
v 24.079246 68.714695 -20.672284
vn -3.671745 -5.095408 0.182124
v 21.504003 70.715468 -29.985900
vn -3.690857 -5.082067 0.168204
v 22.266940 70.149797 -30.343317
vn -1.845894 -2.550834 0.091300
v 22.188000 70.194250 -30.697350
vn -3.997894 -4.846464 0.009224
v 24.967807 68.115478 -27.572059
vn -3.846163 -4.965723 -0.163830
v 21.985677 70.347289 -20.687131
vn -3.516804 -5.206571 -0.046049
v 19.376759 72.268560 -24.708936
vn -3.518887 -5.205168 -0.045490
v 18.909550 72.592857 -25.631073
vn -4.030047 -4.819728 -0.054146
v 25.709404 67.487430 -27.759470
vn -1.998942 -2.424278 -0.062347
v 25.948900 67.305200 -28.410700
vn -3.812489 -4.993831 -0.068754
v 23.398015 69.343510 -27.183421
vn -3.873482 -4.946259 -0.028751
v 24.197651 68.734657 -27.385238
vn -4.038542 -4.812491 -0.048293
v 26.486619 66.810539 -22.461345
vn -2.033704 -2.378500 -0.040404
v 27.079050 66.299950 -22.261550
vn -3.996972 -4.846011 -0.100237
v 26.055569 67.166252 -23.373691
vn -3.817748 -4.990120 -0.036502
v 22.594381 69.953935 -26.923260
vn -3.844101 -4.969851 -0.039061
v 23.160653 69.502247 -24.443332
vn -3.564869 -5.172332 -0.128257
v 20.613539 71.367608 -21.181888
vn -3.721976 -5.060040 0.134279
v 22.232672 70.198912 -29.632580
vn -4.039316 -4.810134 -0.147746
v 26.480936 66.855144 -24.432272
vn -3.569913 -5.169647 0.053940
v 19.734786 72.041962 -27.635146
vn -4.000149 -4.844391 0.094181
v 26.397026 66.931875 -26.213000
vn -3.775286 -5.021509 0.098822
v 23.497895 69.258074 -29.488504
vn -3.945222 -4.888286 -0.126458
v 25.181664 67.818410 -19.879572
vn -3.815182 -4.992001 -0.022007
v 22.182760 70.257943 -24.324356
vn -3.616799 -5.136448 0.117148
v 19.604636 72.098382 -29.186554
# 154 vertices, 0 vertices normals

f 58//58 59//59 60//60
f 95//95 61//61 62//62
f 66//66 67//67 68//68
f 69//69 149//149 70//70
f 148//148 73//73 74//74
f 78//78 60//60 79//79
f 80//80 81//81 59//59
f 82//82 83//83 84//84
f 85//85 86//86 87//87
f 88//88 89//89 81//81
f 19//19 36//36 35//35
f 92//92 93//93 94//94
f 95//95 96//96 97//97
f 25//25 39//39 40//40
f 27//27 42//42 41//41
f 98//98 71//71 99//99
f 100//100 101//101 146//146
f 49//49 7//7 43//43
f 104//104 88//88 105//105
f 26//26 109//109 45//45
f 4//4 150//150 73//73
f 58//58 106//106 150//150
f 107//107 108//108 109//109
f 45//45 109//109 44//44
f 28//28 29//29 48//48
f 7//7 103//103 43//43
f 110//110 111//111 112//112
f 111//111 105//105 113//113
f 52//52 126//126 114//114
f 116//116 117//117 61//61
f 24//24 32//32 51//51
f 118//118 119//119 17//17
f 120//120 121//121 122//122
f 123//123 122//122 67//67
f 2//2 124//124 53//53
f 125//125 120//120 104//104
f 127//127 118//118 69//69
f 31//31 102//102 128//128
f 87//87 76//76 83//83
f 110//110 115//115 129//129
f 131//131 130//130 54//54
f 106//106 133//133 137//137
f 66//66 85//85 93//93
f 152//152 55//55 50//50
f 121//121 134//134 101//101
f 124//124 134//134 99//99
f 116//116 135//135 86//86
f 137//137 26//26 138//138
f 78//78 139//139 140//140
f 133//133 140//140 107//107
f 141//141 1//1 142//142
f 141//141 113//113 143//143
f 7//7 49//49 30//30
f 68//68 100//100 117//117
f 82//82 144//144 94//94
f 1//1 34//34 56//56
f 63//63 75//75 136//136
f 98//98 125//125 129//129
f 22//22 127//127 130//130
f 144//144 91//91 139//139
f 79//79 145//145 92//92
f 5//5 58//58 60//60
f 58//58 4//4 59//59
f 60//60 59//59 18//18
f 95//95 6//6 61//61
f 62//62 61//61 8//8
f 63//63 30//30 29//29
f 30//30 63//63 7//7
f 65//65 62//62 64//64
f 65//65 64//64 31//31
f 65//65 37//37 62//62
f 3//3 66//66 68//68
f 66//66 153//153 67//67
f 68//68 67//67 13//13
f 14//14 69//69 154//154
f 24//24 71//71 72//72
f 72//72 32//32 24//24
f 148//148 4//4 73//73
f 74//74 73//73 33//33
f 1//1 148//148 34//34
f 74//74 34//34 148//148
f 21//21 78//78 79//79
f 78//78 5//5 60//60
f 79//79 60//60 18//18
f 4//4 80//80 59//59
f 80//80 10//10 81//81
f 59//59 81//81 18//18
f 17//17 82//82 84//84
f 82//82 16//16 83//83
f 84//84 83//83 15//15
f 16//16 85//85 87//87
f 85//85 3//3 86//86
f 87//87 86//86 12//12
f 10//10 88//88 81//81
f 88//88 11//11 89//89
f 81//81 89//89 18//18
f 91//91 90//90 20//20
f 21//21 92//92 94//94
f 92//92 145//145 153//153
f 94//94 93//93 16//16
f 37//37 95//95 62//62
f 6//6 95//95 97//97
f 95//95 37//37 96//96
f 97//97 96//96 38//38
f 23//23 98//98 99//99
f 98//98 126//126 71//71
f 99//99 71//71 24//24
f 102//102 64//64 146//146
f 100//100 13//13 101//101
f 102//102 146//146 2//2
f 102//102 31//31 64//64
f 103//103 6//6 97//97
f 43//43 97//97 38//38
f 103//103 97//97 43//43
f 9//9 104//104 105//105
f 104//104 11//11 88//88
f 105//105 88//88 10//10
f 35//35 150//150 19//19
f 4//4 58//58 150//150
f 58//58 5//5 106//106
f 150//150 106//106 19//19
f 26//26 107//107 109//109
f 107//107 20//20 108//108
f 109//109 108//108 46//46
f 109//109 46//46 44//44
f 152//152 110//110 112//112
f 110//110 9//9 111//111
f 112//112 111//111 27//27
f 27//27 111//111 113//113
f 111//111 9//9 105//105
f 113//113 105//105 10//10
f 114//114 115//115 152//152
f 6//6 116//116 61//61
f 116//116 3//3 117//117
f 61//61 117//117 8//8
f 15//15 118//118 84//84
f 118//118 22//22 119//119
f 120//120 23//23 121//121
f 122//122 121//121 13//13
f 67//67 122//122 13//13
f 72//72 71//71 52//52
f 51//51 124//124 24//24
f 124//124 51//51 53//53
f 9//9 125//125 104//104
f 125//125 23//23 120//120
f 114//114 152//152 50//50
f 126//126 115//115 114//114
f 126//126 52//52 71//71
f 14//14 127//127 69//69
f 127//127 22//22 118//118
f 69//69 118//118 15//15
f 2//2 128//128 102//102
f 128//128 2//2 53//53
f 16//16 87//87 83//83
f 87//87 12//12 76//76
f 83//83 76//76 15//15
f 9//9 110//110 129//129
f 110//110 152//152 115//115
f 129//129 115//115 126//126
f 17//17 119//119 91//91
f 90//90 119//119 147//147
f 25//25 147//147 131//131
f 131//131 147//147 130//130
f 132//132 131//131 54//54
f 25//25 131//131 39//39
f 132//132 39//39 131//131
f 40//40 151//151 25//25
f 20//20 90//90 151//151
f 108//108 151//151 46//46
f 19//19 106//106 137//137
f 106//106 5//5 133//133
f 137//137 133//133 26//26
f 66//66 3//3 85//85
f 93//93 85//85 16//16
f 13//13 121//121 101//101
f 121//121 23//23 134//134
f 101//101 134//134 2//2
f 24//24 124//124 99//99
f 124//124 2//2 134//134
f 99//99 134//134 23//23
f 3//3 116//116 86//86
f 116//116 6//6 135//135
f 86//86 135//135 12//12
f 136//136 12//12 135//135
f 103//103 135//135 6//6
f 45//45 138//138 26//26
f 36//36 137//137 138//138
f 137//137 36//36 19//19
f 5//5 78//78 140//140
f 78//78 21//21 139//139
f 140//140 139//139 20//20
f 26//26 133//133 107//107
f 133//133 5//5 140//140
f 107//107 140//140 20//20
f 112//112 41//41 55//55
f 41//41 112//112 27//27
f 152//152 112//112 55//55
f 56//56 142//142 1//1
f 27//27 141//141 42//42
f 142//142 42//42 141//141
f 1//1 141//141 143//143
f 141//141 27//27 113//113
f 143//143 113//113 10//10
f 1//1 143//143 148//148
f 143//143 10//10 80//80
f 3//3 68//68 117//117
f 68//68 13//13 100//100
f 117//117 100//100 8//8
f 16//16 82//82 94//94
f 82//82 17//17 144//144
f 94//94 144//144 21//21
f 7//7 63//63 136//136
f 75//75 28//28 149//149
f 126//126 98//98 129//129
f 98//98 23//23 125//125
f 129//129 125//125 9//9
f 54//54 130//130 57//57
f 57//57 130//130 127//127
f 21//21 144//144 139//139
f 144//144 17//17 91//91
f 139//139 91//91 20//20
f 21//21 79//79 92//92
f 153//153 145//145 123//123
f 89//89 11//11 145//145
f 18//18 89//89 79//79
f 146//146 101//101 2//2
f 8//8 146//146 64//64
f 146//146 8//8 100//100
f 91//91 119//119 90//90
f 64//64 62//62 8//8
f 148//148 143//143 80//80
f 69//69 15//15 149//149
f 76//76 149//149 15//15
f 119//119 22//22 147//147
f 151//151 40//40 46//46
f 148//148 80//80 4//4
f 11//11 122//122 123//123
f 118//118 17//17 84//84
f 90//90 147//147 25//25
f 11//11 120//120 122//122
f 11//11 104//104 120//120
f 20//20 151//151 108//108
f 90//90 25//25 151//151
f 75//75 63//63 28//28
f 147//147 22//22 130//130
f 33//33 73//73 150//150
f 75//75 149//149 76//76
f 12//12 136//136 75//75
f 75//75 76//76 12//12
f 28//28 63//63 29//29
f 136//136 135//135 103//103
f 70//70 149//149 28//28
f 70//70 48//48 47//47
f 7//7 136//136 103//103
f 48//48 70//70 28//28
f 14//14 154//154 77//77
f 89//89 145//145 79//79
f 14//14 77//77 57//57
f 127//127 14//14 57//57
f 11//11 123//123 145//145
f 153//153 123//123 67//67
f 154//154 69//69 70//70
f 92//92 153//153 93//93
f 93//93 153//153 66//66
f 47//47 154//154 70//70
f 154//154 47//47 77//77
f 33//33 150//150 35//35
# 267 faces, 0 coords texture

# End of File
