####
#
# OBJ File Generated by Meshlab
#
####
# Object 1847_C79_S_17.obj
#
# Vertices: 56
# Faces: 68
#
####
vn 3.394563 -3.191952 0.203282
v -57.839600 30.718000 50.000000
vn 2.082331 -2.334357 0.021395
v -57.823700 30.716000 45.537800
vn 2.042531 -2.381751 -0.022349
v -57.855650 30.718000 40.815250
vn 2.065839 -2.360572 -0.039917
v -57.832800 30.718000 43.177000
vn 2.475883 -1.933552 0.000199
v -54.649200 35.087000 50.000000
vn 2.515706 -1.881574 0.024545
v -55.920900 33.414600 50.000000
vn 2.420578 -2.002019 -0.034317
v -52.143100 38.200000 50.000000
vn 2.566569 -1.810851 0.071419
v -57.230525 31.604275 50.000000
vn 2.446797 -1.970122 -0.019587
v -53.569700 36.449600 50.000000
vn 2.122092 -2.339678 0.000504
v -57.858500 30.718000 47.779000
vn 5.009479 -3.792025 0.057454
v -55.866016 33.499319 51.126654
vn 2.229744 -1.690594 0.086723
v -57.340550 31.515450 51.469300
vn 1.837663 -1.842432 0.159729
v -58.266500 30.338500 50.534000
vn 2.145174 -2.508571 -0.020240
v -58.297500 30.334600 41.455700
vn 2.382467 -1.911053 -0.015663
v -53.664600 36.322800 50.929400
vn 2.307402 -1.726186 0.044713
v -56.289700 32.957600 51.863500
vn 2.265772 -1.739952 0.020918
v -56.003200 33.329300 51.843900
vn 2.604763 -1.985481 0.022962
v -55.335200 34.199600 51.472400
vn 2.414252 -1.863490 0.011300
v -54.932400 34.726850 51.342850
vn 2.231253 -1.819191 -0.022636
v -52.879700 37.287100 50.706500
vn 2.354816 -1.929818 -0.028256
v -52.183400 38.148100 50.185200
vn 0.412174 -0.344135 -0.006749
v -51.985800 38.388400 50.000000
vn 1.865433 -2.100484 0.016665
v -59.266050 29.442600 46.067200
vn 0.226129 -0.261892 -0.003476
v -57.873300 30.718000 39.667200
vn 2.019007 -2.345040 -0.026933
v -58.085988 30.523345 40.496648
vn 1.874418 -2.057994 -0.019096
v -58.937600 29.724900 48.942300
vn 1.975685 -2.181144 -0.009200
v -59.163700 29.533600 47.703900
vn 2.191910 -2.409238 -0.010430
v -58.658900 29.974700 49.498300
vn 1.903389 -2.208105 -0.047165
v -58.715200 29.969400 42.614500
vn 2.089178 -2.330257 0.005786
v -59.057531 29.603792 44.831973
vn 2.161265 -2.397802 0.008543
v -59.182900 29.515100 46.963300
vn 5.020023 -3.762965 0.272830
v -57.394015 31.400528 50.721727
vn 2.401467 -2.010320 0.283382
v -57.837150 30.885800 50.966550
vn 2.112358 -2.325378 -0.012702
v -57.828250 30.717000 44.357400
vn 2.462421 -1.950865 -0.014645
v -54.109450 35.768300 50.000000
vn 4.921529 -3.905954 -0.018871
v -54.280614 35.548474 50.504859
vn 5.081258 -3.693615 0.124441
v -56.884411 32.116456 50.860652
vn 2.531231 -1.859527 0.057038
v -56.803950 32.250700 51.670500
vn 2.500696 -1.901532 0.017417
v -55.285050 34.250800 50.000000
vn 4.960765 -3.855408 0.012527
v -54.791283 34.905720 50.607512
vn 4.999400 -3.805641 0.038524
v -55.360834 34.158003 50.749834
vn 2.435130 -1.984711 -0.025883
v -52.856400 37.324800 50.000000
vn 4.870242 -3.969449 -0.051328
v -52.872896 37.301895 50.204521
vn 2.090137 -2.345201 0.030862
v -57.841100 30.717000 46.658400
vn 4.207594 -4.666070 0.023269
v -58.486940 30.146959 47.193076
vn 4.182210 -4.688697 0.055725
v -58.589847 30.042244 45.955142
vn 4.228213 -4.647500 -0.036186
v -58.462493 30.163453 48.314410
vn 2.116484 -2.321587 -0.018365
v -57.849050 30.718000 48.889500
vn 2.038908 -2.388695 -0.019002
v -57.842150 30.718000 42.132050
vn 4.080147 -4.778006 -0.038315
v -58.192378 30.421937 41.770066
vn 4.196146 -4.676083 -0.015895
v -58.414816 30.181811 44.642058
vn 2.069051 -2.363181 -0.061788
v -58.854250 29.813300 43.537450
vn 2.539743 -1.848718 0.046190
v -56.474200 32.657150 50.000000
vn 2.611640 -2.075522 -0.004312
v -54.226150 35.615925 51.010925
vn 5.055311 -3.730139 0.088160
v -56.343928 32.853876 50.895916
vn 4.159475 -4.707242 -0.091010
v -58.308358 30.285930 43.633095
# 56 vertices, 0 vertices normals

f 32//32 12//12 33//33
f 3//3 14//14 25//25
f 5//5 35//35 36//36
f 11//11 17//17 16//16
f 37//37 55//55 38//38
f 39//39 40//40 41//41
f 9//9 42//42 43//43
f 9//9 43//43 20//20
f 9//9 20//20 15//15
f 7//7 22//22 21//21
f 3//3 25//25 24//24
f 10//10 48//48 47//47
f 1//1 13//13 28//28
f 3//3 49//49 50//50
f 3//3 50//50 14//14
f 36//36 54//54 40//40
f 46//46 45//45 31//31
f 23//23 46//46 31//31
f 51//51 46//46 30//30
f 1//1 33//33 13//13
f 33//33 1//1 32//32
f 4//4 34//34 56//56
f 34//34 2//2 51//51
f 52//52 51//51 30//30
f 35//35 9//9 15//15
f 15//15 36//36 35//35
f 54//54 36//36 15//15
f 11//11 18//18 17//17
f 12//12 37//37 38//38
f 37//37 12//12 32//32
f 6//6 39//39 41//41
f 39//39 5//5 40//40
f 41//41 40//40 19//19
f 32//32 1//1 8//8
f 42//42 21//21 43//43
f 21//21 42//42 7//7
f 43//43 21//21 20//20
f 2//2 44//44 46//46
f 44//44 10//10 45//45
f 27//27 47//47 26//26
f 48//48 28//28 47//47
f 28//28 48//48 1//1
f 26//26 47//47 28//28
f 49//49 29//29 50//50
f 29//29 49//49 4//4
f 50//50 29//29 14//14
f 52//52 29//29 56//56
f 32//32 8//8 37//37
f 16//16 38//38 55//55
f 6//6 11//11 55//55
f 53//53 37//37 8//8
f 5//5 36//36 40//40
f 40//40 54//54 19//19
f 18//18 41//41 19//19
f 18//18 11//11 41//41
f 45//45 47//47 27//27
f 45//45 27//27 31//31
f 51//51 2//2 46//46
f 46//46 44//44 45//45
f 11//11 6//6 41//41
f 55//55 11//11 16//16
f 55//55 37//37 53//53
f 6//6 55//55 53//53
f 46//46 23//23 30//30
f 56//56 34//34 51//51
f 56//56 29//29 4//4
f 52//52 56//56 51//51
f 45//45 10//10 47//47
# 68 faces, 0 coords texture

# End of File
