####
#
# OBJ File Generated by Meshlab
#
####
# Object 1909_C83_S_12.obj
#
# Vertices: 149
# Faces: 256
#
####
vn -4.110861 -4.751154 -0.074082
v 26.506420 70.947373 -21.842537
vn -3.765288 -5.029311 -0.054474
v 20.790997 75.590376 -22.216616
vn -3.813192 -4.993677 -0.018741
v 22.324398 74.425378 -22.477015
vn -3.988817 -4.850288 -0.013519
v 23.967117 73.158151 -22.824101
vn -4.065053 -4.790782 -0.010176
v 26.185683 71.265295 -25.518229
vn -4.186695 -4.684112 -0.058968
v 27.766449 69.895880 -25.737154
vn -3.968158 -4.867245 -0.085733
v 23.496140 73.517115 -20.672934
vn -4.092284 -4.766909 -0.087330
v 25.090463 72.146729 -20.961087
vn -3.931393 -4.895457 0.234170
v 22.389253 74.263865 -30.769227
vn -3.828098 -4.982333 0.005804
v 21.414521 75.123349 -25.939430
vn -4.084801 -4.773847 -0.042471
v 25.507429 71.831671 -23.367130
vn -3.728581 -5.054012 -0.004073
v 19.897285 76.301285 -25.371390
vn -3.873640 -4.945506 0.069429
v 22.331168 74.422373 -27.001165
vn -3.934247 -4.897293 0.128552
v 23.039821 73.810816 -28.577703
vn -3.954424 -4.881187 0.118661
v 24.565263 72.576435 -28.758850
vn -4.017540 -4.830577 0.031135
v 24.600684 72.598276 -25.012409
vn -3.970299 -4.868759 0.071747
v 23.837291 73.216870 -26.730270
vn -4.153048 -4.713330 -0.055171
v 27.015111 70.546722 -23.852129
vn -3.792034 -5.009292 0.032549
v 20.240766 76.018382 -27.219086
vn -3.880796 -4.940784 0.015815
v 22.839859 74.030805 -24.766076
vn -3.809984 -4.996086 -0.025412
v 21.100755 75.363181 -24.075124
vn -3.957871 -4.876401 0.183005
v 25.184434 72.007578 -30.671561
vn -3.847173 -4.966495 0.062223
v 21.685869 74.912480 -27.856356
vn -4.008567 -4.835111 0.117955
v 26.126635 71.303674 -29.303541
vn -4.005920 -4.840354 0.037931
v 25.337149 71.967783 -27.186850
vn -1.726135 -2.384622 0.001278
v 18.824700 77.046000 -26.674500
vn -1.765750 -2.467948 0.030233
v 18.839400 77.045700 -26.163700
vn -1.767178 -2.214557 0.133919
v 21.942900 74.561700 -31.720000
vn -1.710285 -2.272990 -0.022455
v 22.108300 74.568700 -20.405400
vn -1.931489 -2.539197 -0.026217
v 21.407300 75.109000 -21.029400
vn -1.714940 -2.168641 0.005785
v 19.799000 76.337300 -30.069400
vn -1.722996 -2.235314 -0.007609
v 19.117500 76.883900 -28.495900
vn -1.663088 -2.269774 -0.038175
v 20.337950 75.918800 -21.933550
vn -1.848296 -2.328353 0.106197
v 22.866600 73.838500 -31.825000
vn -2.041296 -2.357120 0.053938
v 26.925000 70.607400 -29.554900
vn -1.963879 -2.236770 0.042587
v 27.453200 70.171500 -28.708800
vn -1.738251 -2.367580 -0.037635
v 19.400697 76.632184 -23.641802
vn -1.671834 -2.364490 -0.009635
v 18.960000 76.960700 -25.039700
vn -1.882413 -2.315008 0.025872
v 20.585300 75.714900 -30.889300
vn -1.908062 -2.081705 -0.031151
v 28.216500 69.449200 -24.075700
vn -2.121686 -2.318583 -0.049162
v 28.245500 69.435800 -24.715100
vn -1.954108 -2.173391 0.007600
v 27.885600 69.792300 -27.693700
vn -2.104476 -2.337686 -0.006743
v 28.131500 69.571100 -26.611300
vn -1.873705 -2.069444 -0.030732
v 28.301500 69.413300 -25.862600
vn -1.798129 -2.118704 -0.027586
v 25.345300 71.917100 -19.950600
vn -1.905193 -2.529963 -0.034470
v 22.435800 74.322700 -20.270900
vn -1.870272 -2.114480 -0.029414
v 27.647824 69.957452 -22.236614
vn -1.813479 -2.107709 -0.027882
v 26.625800 70.831200 -20.766700
vn -1.740112 -2.135049 0.042002
v 25.576900 71.680400 -31.043100
vn -2.000462 -2.338993 -0.049223
v 24.719600 72.441200 -19.880100
vn -1.875905 -2.296494 0.105006
v 24.650700 72.407400 -31.505100
vn -1.821418 -2.191472 0.070928
v 26.493600 70.970700 -30.220100
vn -2.097168 -2.579383 0.095301
v 25.757100 71.534700 -30.822400
vn -2.044122 -2.373290 -0.060674
v 23.987100 73.073400 -19.857800
vn -1.752981 -2.162788 -0.052079
v 23.376500 73.595200 -19.846400
vn -3.785736 -5.014560 -0.016826
v 20.889394 75.519639 -23.117420
vn -3.812827 -4.994035 -0.011314
v 21.704385 74.900722 -23.319850
vn -3.804995 -4.999892 -0.036241
v 21.483650 75.064353 -22.365164
vn -3.757212 -5.034224 0.073089
v 20.092848 76.142972 -26.272474
vn -3.650416 -5.113371 0.066186
v 19.361193 76.674043 -26.027232
vn -3.695523 -5.079945 -0.018384
v 19.520227 76.542403 -26.898842
vn -3.839737 -4.973356 -0.006567
v 21.289016 75.219278 -25.022432
vn -3.821199 -4.986818 -0.062587
v 20.499152 75.832889 -24.750438
vn -3.850003 -4.965325 0.017281
v 20.677329 75.696799 -25.655509
vn -3.813739 -4.993355 -0.001086
v 22.018737 74.662573 -26.200962
vn -3.811159 -4.995330 0.012096
v 21.543719 75.023543 -26.854265
vn -3.945160 -4.888441 0.131335
v 23.472333 73.487040 -27.638274
vn -3.939114 -4.894062 0.077749
v 23.115593 73.800506 -26.723128
vn -3.930862 -4.899718 0.137518
v 22.850005 73.991176 -27.598139
vn -3.970543 -4.868192 0.110369
v 24.207795 72.892027 -27.728655
vn -3.941927 -4.891161 0.127163
v 23.827169 73.174996 -28.631811
vn -3.935250 -4.896260 0.136770
v 23.480390 73.429166 -29.605895
vn -3.962047 -4.874369 0.141134
v 24.184593 72.860725 -29.665311
vn -4.105484 -4.755879 -0.031008
v 24.754066 72.479682 -23.063611
vn -4.021214 -4.826451 0.070003
v 24.257995 72.899103 -23.931872
vn -4.067415 -4.788881 0.010705
v 25.047386 72.221286 -24.181876
vn -3.926090 -4.898191 0.256788
v 21.584255 74.919730 -30.719853
vn -1.885650 -2.340044 0.093630
v 21.005639 75.359044 -31.210280
vn -3.963678 -4.870456 0.195633
v 22.015828 74.609494 -29.944129
vn -3.830965 -4.976556 0.125397
v 21.285943 75.195379 -29.803325
vn -3.942999 -4.890477 0.103436
v 22.357820 74.365777 -28.181964
vn -3.792764 -5.009080 -0.046143
v 22.118850 74.572146 -21.529164
vn -3.802713 -5.001488 -0.053535
v 21.300236 75.197045 -21.671054
vn -3.968457 -4.869124 0.140279
v 22.629000 74.120851 -29.368771
vn -3.930960 -4.898421 0.087493
v 21.993263 74.659080 -29.000035
vn -3.894467 -4.930382 0.044496
v 19.816046 76.328233 -28.862282
vn -1.949875 -2.458765 0.009459
v 19.466100 76.604050 -29.304300
vn -3.876486 -4.943488 0.088352
v 20.765241 75.574092 -30.396410
vn -3.800432 -5.003115 0.053185
v 20.962387 75.464153 -27.619036
vn -3.835561 -4.975495 0.078079
v 20.369825 75.900641 -28.237746
vn -3.787867 -5.012578 0.064919
v 21.096805 75.345790 -28.690160
vn -3.830647 -4.979288 0.042585
v 20.492027 75.791152 -29.345919
vn -3.878619 -4.942326 0.010725
v 22.656139 74.174874 -25.908318
vn -3.955597 -4.881720 0.013073
v 23.404315 73.571918 -25.759265
vn -3.771701 -5.024535 -0.062911
v 20.281704 75.976314 -23.838875
vn -3.725196 -5.058916 -0.054366
v 20.200495 76.035981 -22.915593
vn -1.807121 -2.506665 -0.058102
v 19.833350 76.298050 -22.802750
vn -4.027938 -4.822115 0.034015
v 24.965938 72.285368 -26.096577
vn -3.989900 -4.853541 0.023559
v 24.194099 72.929412 -25.863584
vn -4.009074 -4.837449 0.063680
v 24.577904 72.601564 -26.913169
vn -3.828728 -4.981885 -0.002748
v 22.556848 74.247364 -23.555814
vn -3.896982 -4.927535 0.049823
v 23.418245 73.583485 -23.754144
vn -3.841783 -4.971823 -0.000667
v 23.145440 73.793258 -22.652056
vn -3.818123 -4.990011 -0.007992
v 22.051889 74.634628 -25.350504
vn -3.821687 -4.987296 -0.000822
v 21.936645 74.722863 -24.354851
vn -4.091130 -4.768029 -0.082986
v 25.974488 71.418450 -22.573248
vn -4.085796 -4.772919 -0.054610
v 26.252191 71.198282 -23.652525
vn -4.117661 -4.744842 -0.093940
v 26.692121 70.806880 -22.895179
vn -4.194843 -4.676778 -0.062933
v 27.409552 70.181992 -23.100263
vn -4.060148 -4.793713 0.072110
v 26.563698 70.947564 -28.520210
vn -4.022981 -4.826311 0.013480
v 25.753484 71.623285 -26.363991
vn -4.042009 -4.810415 0.010516
v 25.391156 71.933706 -25.269890
vn -3.981090 -4.860409 0.071333
v 24.950634 72.274945 -27.960839
vn -3.708795 -5.069918 -0.092148
v 19.703420 76.428471 -24.509135
vn -1.817750 -2.566104 -0.029622
v 19.169750 76.805000 -24.378650
vn -4.243131 -4.633545 -0.058129
v 27.708304 69.913387 -23.967562
vn -2.088268 -2.282823 -0.013592
v 27.998200 69.644750 -23.308950
vn -4.185848 -4.684716 -0.051845
v 27.403940 70.207997 -24.757470
vn -4.159795 -4.708364 -0.035359
v 27.394436 70.234025 -26.696596
vn -4.084518 -4.773925 -0.066292
v 25.783333 71.550017 -20.742831
vn -2.035689 -2.381812 -0.027594
v 26.056825 71.312300 -20.400300
vn -3.830658 -4.980241 0.032939
v 20.824938 75.573318 -26.584151
vn -1.854786 -2.518061 -0.072166
v 18.963250 76.971500 -27.563550
vn -3.809942 -4.994015 -0.033214
v 19.676160 76.453498 -27.851703
vn -4.134499 -4.730469 -0.081372
v 27.112899 70.425297 -22.286190
vn -2.049482 -2.352529 -0.028410
v 27.087250 70.436650 -21.414800
vn -1.859448 -2.469908 -0.031837
v 20.927250 75.476900 -21.413050
vn -3.960088 -4.877528 0.055398
v 23.772561 73.272782 -24.830421
vn -3.923161 -4.904227 0.186797
v 23.187597 73.630252 -30.679512
vn -4.062490 -4.792476 -0.030825
v 26.577440 70.940586 -26.585681
vn -4.008450 -4.838402 0.013177
v 26.150211 71.295252 -27.451825
vn -1.896888 -2.347486 0.107417
v 23.766525 73.118850 -31.734900
vn -3.976732 -4.860165 0.202088
v 24.344160 72.691807 -30.821919
vn -4.117860 -4.745481 -0.039206
v 26.986136 70.574345 -25.679535
vn -4.099085 -4.761795 -0.016108
v 26.607154 70.901126 -24.666259
vn -3.942690 -4.887838 0.205752
v 25.659498 71.652567 -29.998559
vn -4.112510 -4.749288 -0.099034
v 24.503630 72.674499 -21.894435
vn -4.106436 -4.754299 -0.110585
v 24.247432 72.870852 -20.786609
vn -4.102241 -4.758338 -0.087772
v 25.275307 72.010167 -22.196467
vn -4.061762 -4.793710 -0.017966
v 25.826605 71.565830 -24.453689
vn -4.086933 -4.771694 -0.079293
v 25.920980 71.443561 -21.389646
vn -3.983352 -4.858933 0.038957
v 25.730436 71.636961 -28.268717
vn -3.947418 -4.886424 0.117109
v 25.323804 71.960343 -29.023757
vn -3.962238 -4.873319 0.170488
v 24.786733 72.357447 -29.957929
vn -3.945088 -4.886615 0.177366
v 23.837438 73.117952 -30.498491
vn -4.112745 -4.748045 0.018842
v 27.015940 70.574400 -27.634309
vn -3.984986 -4.854661 -0.058171
v 23.737828 73.331830 -21.715687
vn -3.829273 -4.981076 -0.015673
v 22.982245 73.922173 -21.642061
vn -3.804402 -4.999703 -0.062808
v 22.818082 74.041185 -20.737932
# 149 vertices, 0 vertices normals

f 56//56 57//57 58//58
f 59//59 60//60 61//61
f 62//62 63//63 64//64
f 13//13 65//65 66//66
f 67//67 68//68 69//69
f 70//70 67//67 71//71
f 72//72 73//73 71//71
f 74//74 75//75 76//76
f 79//79 80//80 77//77
f 69//69 13//13 81//81
f 58//58 82//82 83//83
f 2//2 58//58 83//83
f 84//84 85//85 79//79
f 86//86 87//87 31//31
f 93//93 68//68 94//94
f 63//63 95//95 114//114
f 96//96 33//33 97//97
f 98//98 99//99 100//100
f 101//101 102//102 103//103
f 104//104 105//105 62//62
f 56//56 96//96 95//95
f 9//9 28//28 34//34
f 106//106 107//107 108//108
f 109//109 125//125 108//108
f 98//98 111//111 112//112
f 70//70 113//113 100//100
f 12//12 38//38 60//60
f 114//114 37//37 115//115
f 80//80 92//92 88//88
f 109//109 116//116 117//117
f 18//18 118//118 116//116
f 122//122 89//89 66//66
f 61//61 123//123 124//124
f 122//122 64//64 59//59
f 125//125 126//126 1//1
f 93//93 104//104 65//65
f 90//90 124//124 86//86
f 128//128 75//75 102//102
f 128//128 94//94 99//99
f 101//101 57//57 105//105
f 72//72 84//84 129//129
f 8//8 45//45 50//50
f 130//130 111//111 131//131
f 6//6 43//43 44//44
f 22//22 133//133 51//51
f 22//22 51//51 49//49
f 134//134 118//118 135//135
f 24//24 52//52 35//35
f 24//24 136//136 52//52
f 3//3 148//148 82//82
f 88//88 39//39 78//78
f 119//119 146//146 42//42
f 74//74 139//139 137//137
f 76//76 112//112 140//140
f 140//140 135//135 107//107
f 130//130 119//119 134//134
f 139//139 106//106 141//141
f 7//7 54//54 55//55
f 142//142 110//110 131//131
f 113//113 143//143 142//142
f 136//136 143//143 144//144
f 22//22 49//49 53//53
f 2//2 56//56 58//58
f 56//56 21//21 57//57
f 58//58 57//57 3//3
f 19//19 59//59 61//61
f 59//59 12//12 60//60
f 26//26 60//60 27//27
f 26//26 61//61 60//60
f 10//10 62//62 64//64
f 62//62 21//21 63//63
f 64//64 63//63 12//12
f 23//23 13//13 66//66
f 66//66 65//65 10//10
f 14//14 67//67 69//69
f 67//67 17//17 68//68
f 69//69 68//68 13//13
f 15//15 70//70 71//71
f 70//70 17//17 67//67
f 71//71 67//67 14//14
f 14//14 72//72 71//71
f 71//71 73//73 15//15
f 11//11 74//74 76//76
f 74//74 4//4 75//75
f 76//76 75//75 16//16
f 78//78 77//77 88//88
f 9//9 77//77 28//28
f 78//78 28//28 77//77
f 9//9 79//79 77//77
f 79//79 85//85 80//80
f 77//77 80//80 88//88
f 14//14 69//69 81//81
f 81//81 13//13 23//23
f 58//58 3//3 82//82
f 30//30 82//82 29//29
f 83//83 30//30 127//127
f 30//30 83//83 82//82
f 9//9 84//84 79//79
f 86//86 32//32 87//87
f 88//88 92//92 31//31
f 89//89 19//19 90//90
f 91//91 90//90 92//92
f 91//91 85//85 23//23
f 20//20 93//93 94//94
f 93//93 13//13 68//68
f 94//94 68//68 17//17
f 12//12 63//63 114//114
f 63//63 21//21 95//95
f 114//114 95//95 37//37
f 33//33 96//96 2//2
f 97//97 37//37 96//96
f 25//25 98//98 100//100
f 98//98 16//16 99//99
f 100//100 99//99 17//17
f 3//3 101//101 103//103
f 101//101 20//20 102//102
f 103//103 102//102 4//4
f 10//10 104//104 62//62
f 104//104 20//20 105//105
f 62//62 105//105 21//21
f 21//21 56//56 95//95
f 56//56 2//2 96//96
f 95//95 96//96 37//37
f 1//1 106//106 108//108
f 106//106 11//11 107//107
f 108//108 107//107 18//18
f 18//18 109//109 108//108
f 108//108 125//125 1//1
f 110//110 35//35 36//36
f 35//35 110//110 24//24
f 146//146 110//110 36//36
f 16//16 98//98 112//112
f 98//98 25//25 111//111
f 112//112 111//111 5//5
f 17//17 70//70 100//100
f 70//70 15//15 113//113
f 100//100 113//113 25//25
f 60//60 38//38 27//27
f 12//12 114//114 38//38
f 115//115 38//38 114//114
f 80//80 85//85 91//91
f 88//88 31//31 39//39
f 109//109 18//18 116//116
f 117//117 116//116 40//40
f 125//125 109//109 47//47
f 117//117 47//47 109//109
f 118//118 6//6 41//41
f 118//118 41//41 116//116
f 40//40 116//116 41//41
f 119//119 42//42 43//43
f 6//6 119//119 43//43
f 6//6 44//44 41//41
f 121//121 45//45 120//120
f 10//10 122//122 66//66
f 122//122 19//19 89//89
f 66//66 89//89 23//23
f 19//19 61//61 124//124
f 61//61 26//26 123//123
f 124//124 123//123 32//32
f 149//149 29//29 82//82
f 29//29 149//149 46//46
f 19//19 122//122 59//59
f 122//122 10//10 64//64
f 59//59 64//64 12//12
f 125//125 47//47 126//126
f 1//1 126//126 48//48
f 13//13 93//93 65//65
f 93//93 20//20 104//104
f 65//65 104//104 10//10
f 2//2 83//83 127//127
f 127//127 33//33 2//2
f 92//92 90//90 86//86
f 90//90 19//19 124//124
f 86//86 124//124 32//32
f 20//20 128//128 102//102
f 128//128 16//16 75//75
f 102//102 75//75 4//4
f 16//16 128//128 99//99
f 128//128 20//20 94//94
f 99//99 94//94 17//17
f 20//20 101//101 105//105
f 101//101 3//3 57//57
f 105//105 57//57 21//21
f 145//145 72//72 129//129
f 72//72 14//14 84//84
f 129//129 84//84 9//9
f 129//129 34//34 132//132
f 34//34 129//129 9//9
f 132//132 145//145 129//129
f 130//130 5//5 111//111
f 131//131 111//111 25//25
f 5//5 134//134 135//135
f 134//134 6//6 118//118
f 135//135 118//118 18//18
f 53//53 136//136 22//22
f 136//136 53//53 52//52
f 81//81 23//23 85//85
f 4//4 147//147 103//103
f 7//7 148//148 147//147
f 138//138 137//137 8//8
f 4//4 74//74 137//137
f 74//74 11//11 139//139
f 137//137 139//139 8//8
f 138//138 50//50 54//54
f 50//50 138//138 8//8
f 7//7 138//138 54//54
f 11//11 76//76 140//140
f 76//76 16//16 112//112
f 140//140 112//112 5//5
f 11//11 140//140 107//107
f 140//140 5//5 135//135
f 107//107 135//135 18//18
f 5//5 130//130 134//134
f 134//134 119//119 6//6
f 8//8 139//139 141//141
f 139//139 11//11 106//106
f 141//141 106//106 1//1
f 121//121 120//120 48//48
f 25//25 142//142 131//131
f 142//142 24//24 110//110
f 131//131 110//110 146//146
f 25//25 113//113 142//142
f 113//113 15//15 143//143
f 142//142 143//143 24//24
f 22//22 136//136 144//144
f 136//136 24//24 143//143
f 133//133 73//73 145//145
f 146//146 36//36 42//42
f 72//72 145//145 73//73
f 92//92 86//86 31//31
f 55//55 149//149 7//7
f 146//146 130//130 131//131
f 130//130 146//146 119//119
f 80//80 91//91 92//92
f 89//89 90//90 91//91
f 23//23 89//89 91//91
f 144//144 143//143 15//15
f 144//144 15//15 73//73
f 138//138 147//147 137//137
f 147//147 148//148 103//103
f 7//7 147//147 138//138
f 137//137 147//147 4//4
f 149//149 148//148 7//7
f 8//8 141//141 120//120
f 82//82 148//148 149//149
f 103//103 148//148 3//3
f 149//149 55//55 46//46
f 8//8 120//120 45//45
f 141//141 1//1 48//48
f 133//133 132//132 51//51
f 133//133 145//145 132//132
f 120//120 141//141 48//48
f 144//144 73//73 133//133
f 22//22 144//144 133//133
f 84//84 14//14 81//81
f 84//84 81//81 85//85
# 256 faces, 0 coords texture

# End of File
