####
#
# OBJ File Generated by Meshlab
#
####
# Object 1923_C84_S_11.obj
#
# Vertices: 148
# Faces: 255
#
####
vn -4.123359 -4.740190 -0.081104
v 26.581378 71.957333 -21.867326
vn -3.820257 -4.988158 -0.042850
v 21.277979 76.340535 -23.211022
vn -3.847516 -4.966545 0.034789
v 19.923917 77.393790 -28.195352
vn -3.803682 -4.999590 0.016840
v 20.228446 77.167181 -27.231378
vn -4.166635 -4.702369 -0.063393
v 27.388876 71.257991 -22.362289
vn -4.016213 -4.827739 0.169606
v 26.141030 72.314891 -29.751957
vn -4.011865 -4.834890 0.078980
v 24.326326 73.870577 -26.927586
vn -3.990208 -4.851172 0.147155
v 24.666106 73.537191 -29.002003
vn -3.923537 -4.906063 0.118713
v 21.235165 76.338878 -28.853052
vn -3.910719 -4.916701 0.068113
v 21.800280 75.939395 -26.882289
vn -4.042789 -4.808808 0.061332
v 26.080179 72.410113 -27.426054
vn -4.125631 -4.737760 0.075015
v 27.285693 71.361322 -28.696069
vn -4.149661 -4.716274 -0.040089
v 26.929961 71.690030 -23.804939
vn -3.992627 -4.846667 0.211462
v 24.712094 73.422230 -31.219756
vn -3.854748 -4.961005 -0.079243
v 22.274514 75.553717 -21.404529
vn -3.916069 -4.911676 -0.004231
v 22.946947 75.059171 -23.308908
vn -3.967748 -4.867371 0.162359
v 23.008797 74.936964 -28.503595
vn -3.983118 -4.855155 0.190858
v 22.124310 75.559040 -30.815006
vn -4.001862 -4.843220 0.071010
v 23.730834 74.392535 -25.086667
vn -3.970353 -4.869328 0.065471
v 22.699428 75.211310 -26.612872
vn -3.988229 -4.851324 0.188836
v 23.654457 74.314206 -30.383885
vn -3.900980 -4.924481 0.030025
v 22.208740 75.633500 -25.065342
vn -4.058958 -4.795573 0.015571
v 24.488712 73.781198 -23.479645
vn -4.158551 -4.708332 -0.019371
v 27.322126 71.357495 -25.808484
vn -3.803443 -5.000534 -0.020074
v 20.636979 76.851863 -25.286976
vn -4.112731 -4.749575 -0.069590
v 25.188667 73.163318 -21.764375
vn -4.056150 -4.798376 0.026884
v 25.494603 72.912151 -25.154185
vn -3.929119 -4.901065 0.113306
v 20.487310 76.922522 -29.995484
vn -1.891300 -2.280170 -0.077430
v 23.871150 74.251925 -20.241075
vn -1.926777 -2.422774 -0.071146
v 23.117700 74.867300 -20.468000
vn -1.882073 -2.551344 -0.045643
v 19.207000 77.918400 -27.101200
vn -1.814761 -2.077101 -0.034902
v 27.133500 71.465000 -21.262600
vn -1.876966 -2.225793 0.076183
v 26.897700 71.661500 -30.219800
vn -1.909580 -2.298097 0.129161
v 26.151200 72.239300 -30.945800
vn -2.059900 -2.369967 0.036847
v 27.477700 71.185100 -29.302000
vn -1.733251 -2.191156 0.057021
v 20.072350 77.243750 -30.265000
vn -1.787314 -2.193960 0.132761
v 22.150600 75.467500 -31.967200
vn -1.844137 -2.234704 0.097641
v 21.325000 76.186900 -31.543300
vn -1.673954 -2.203288 -0.003988
v 19.292350 77.876200 -28.339800
vn -2.035105 -2.225798 -0.005060
v 28.041300 70.674300 -22.967700
vn -1.968539 -2.155659 0.023994
v 28.233000 70.520400 -27.638100
vn -1.957527 -2.168911 0.030993
v 27.812600 70.887700 -28.752700
vn -1.988228 -2.387110 0.131412
v 25.556200 72.710800 -31.365500
vn -1.822294 -2.185948 0.111190
v 24.918100 73.221800 -31.783900
vn -1.974706 -2.275542 -0.042556
v 26.300000 72.179900 -20.688900
vn -1.722523 -2.352214 -0.020532
v 19.151800 77.948200 -26.510100
vn -1.999044 -2.554768 -0.054497
v 22.304400 75.517700 -20.761400
vn -1.499921 -1.930771 -0.039695
v 22.103700 75.674100 -20.805600
vn -2.086288 -2.694966 -0.041995
v 21.933500 75.812300 -21.064500
vn -1.704168 -2.228633 -0.017943
v 20.696700 76.776800 -22.141000
vn -1.852653 -2.260960 0.086450
v 23.550700 74.342950 -32.084550
vn -1.820963 -2.447505 -0.011379
v 19.770800 77.490200 -23.852600
vn -1.834123 -2.426133 -0.026487
v 20.053500 77.267800 -23.243300
vn -1.888880 -2.207003 -0.053830
v 24.778600 73.485295 -20.180746
vn -1.832792 -2.516046 -0.015213
v 19.176400 77.929800 -26.258000
vn -1.660928 -2.314516 -0.017485
v 19.318800 77.806900 -25.017300
vn -1.966605 -2.172542 -0.002379
v 28.461950 70.325100 -26.419550
vn -3.887895 -4.934725 -0.103526
v 23.019651 74.969515 -21.447466
vn -3.989594 -4.850532 -0.109932
v 23.790425 74.359823 -21.391299
vn -1.958919 -2.212399 -0.017233
v 27.661525 71.014355 -22.076519
vn -3.966352 -4.870916 0.134430
v 25.417151 72.918272 -29.327172
vn -3.961937 -4.873564 0.172393
v 24.794096 73.396269 -30.055410
vn -4.015903 -4.831680 0.070081
v 24.072281 74.095382 -25.970613
vn -4.024778 -4.824642 0.044481
v 24.898083 73.401428 -26.091150
vn -4.037352 -4.813865 0.069236
v 24.547683 73.706646 -25.148329
vn -3.986917 -4.855024 0.105383
v 25.317241 73.019813 -28.219987
vn -4.006426 -4.839293 0.077769
v 25.156367 73.180215 -27.133240
vn -4.016056 -4.830646 0.118474
v 24.506314 73.695821 -27.954125
vn -4.094742 -4.765540 -0.015797
v 25.223282 73.150092 -23.472786
vn -4.065216 -4.790367 0.045961
v 24.916651 73.411287 -24.309631
vn -4.088091 -4.771339 0.010332
v 25.593075 72.830003 -24.201271
vn -3.853797 -4.961854 -0.072513
v 22.574205 75.334423 -22.307849
vn -3.944856 -4.889358 -0.040592
v 23.386832 74.698664 -22.460759
vn -3.990667 -4.852633 0.069649
v 23.564024 74.501147 -26.741501
vn -3.981911 -4.859943 0.056929
v 23.072447 74.897786 -27.438328
vn -4.016050 -4.831230 0.088259
v 23.722676 74.357796 -27.714088
vn -3.966954 -4.872023 0.071162
v 22.641443 75.271313 -25.739832
vn -3.906663 -4.920195 0.049632
v 21.985131 75.801904 -25.946600
vn -3.977122 -4.861874 0.150290
v 21.224914 76.305286 -30.503337
vn -1.918600 -2.361681 0.080391
v 20.689825 76.726600 -30.957775
vn -3.979399 -4.856923 0.226213
v 23.351619 74.602324 -29.579844
vn -3.927130 -4.901143 0.177083
v 22.084472 75.666614 -28.729716
vn -3.957865 -4.875063 0.202104
v 22.532109 75.255560 -29.665704
vn -1.901776 -2.420650 0.032603
v 19.669950 77.577700 -29.336750
vn -3.962252 -4.875069 0.104064
v 20.983669 76.526444 -29.640447
vn -3.914033 -4.914605 0.072700
v 20.432988 76.976955 -29.011074
vn -3.901441 -4.923679 0.119979
v 21.537344 76.123465 -27.876349
vn -3.879339 -4.941889 0.059155
v 20.995799 76.569813 -27.053723
vn -3.937357 -4.895396 0.092090
v 22.373835 75.463164 -27.678255
vn -3.821514 -4.987065 -0.049634
v 20.937320 76.611786 -24.253949
vn -3.848957 -4.966176 -0.004894
v 21.414381 76.249029 -25.152583
vn -3.836152 -4.976071 -0.028504
v 21.729146 75.998180 -24.188987
vn -3.984074 -4.858062 0.064280
v 23.334429 74.729350 -24.225012
vn -4.021118 -4.827450 0.062509
v 24.119518 74.080039 -24.288033
vn -4.004328 -4.841697 0.038197
v 23.727002 74.413816 -23.410745
vn -3.991018 -4.848782 0.195429
v 24.097920 73.975019 -29.748846
vn -3.972046 -4.865360 0.171835
v 24.244313 73.814051 -30.933881
vn -3.894930 -4.929195 0.025638
v 22.549193 75.368934 -24.188157
vn -3.827046 -4.982982 -0.040457
v 22.115988 75.697283 -23.228100
vn -4.099462 -4.760879 -0.066924
v 24.508740 73.753369 -21.790674
vn -4.107172 -4.754415 -0.070351
v 26.161321 72.330181 -22.533899
vn -4.091368 -4.768306 -0.034581
v 26.065027 72.427175 -23.457955
vn -4.125175 -4.738426 -0.084290
v 26.770010 71.811931 -22.870900
vn -4.215283 -4.658353 -0.038715
v 27.475677 71.193987 -23.157195
vn -4.163579 -4.704130 0.061442
v 27.487628 71.197479 -27.890350
vn -4.040126 -4.811835 0.021472
v 25.770108 72.676593 -26.296466
vn -4.024110 -4.824157 0.089586
v 26.082265 72.387574 -28.623596
vn -4.095555 -4.764760 0.041867
v 26.919428 71.691729 -27.258318
vn -4.082414 -4.775702 0.068126
v 26.776849 71.804244 -28.146684
vn -4.074070 -4.782423 0.093101
v 26.777514 71.786722 -29.124617
vn -3.986494 -4.851031 0.224002
v 25.504021 72.807695 -30.412713
vn -1.975978 -2.402008 0.091576
v 24.069925 73.918250 -31.983325
vn -1.917567 -2.082201 -0.017897
v 28.395505 70.342023 -24.135933
vn -4.115305 -4.747277 -0.076715
v 25.877096 72.565395 -21.710895
vn -3.738105 -5.049795 -0.061092
v 19.598246 77.633491 -27.308315
vn -4.104614 -4.756814 -0.055488
v 25.552369 72.858868 -22.614385
vn -4.023026 -4.823160 0.166748
v 23.884417 74.198032 -28.744926
vn -4.104945 -4.756703 -0.038030
v 24.853364 73.460172 -22.639547
vn -4.050167 -4.802748 -0.012806
v 24.145446 74.072913 -22.590057
vn -1.960916 -2.456941 0.146580
v 22.814700 74.935000 -32.020450
vn -3.954183 -4.876939 0.226548
v 22.873881 74.921014 -31.463175
vn -3.973490 -4.864721 0.152638
v 21.703977 75.932658 -29.745460
vn -3.981239 -4.857857 0.169737
v 23.005719 74.842385 -30.545987
vn -3.979424 -4.861718 0.077686
v 23.309059 74.725500 -25.858135
vn -3.830661 -4.980083 -0.056434
v 21.720871 75.987617 -22.136349
vn -1.917393 -2.488473 -0.026662
v 21.315100 76.294550 -21.602750
vn -3.986427 -4.853832 0.164435
v 23.620570 74.313479 -31.239895
vn -3.792653 -5.009159 -0.046315
v 20.582995 76.868214 -23.308862
vn -3.746593 -5.043273 -0.030343
v 20.166363 77.198290 -24.367144
vn -3.968766 -4.870539 0.071813
v 22.964729 75.017789 -25.041628
vn -1.893343 -2.506933 -0.011890
v 20.375100 77.022300 -22.692150
vn -4.088588 -4.769326 -0.116894
v 24.597687 73.659785 -20.971518
vn -4.082779 -4.775781 0.024278
v 26.691896 71.892969 -26.527226
vn -4.069901 -4.786883 0.003057
v 26.451107 72.099381 -25.568091
vn -4.189352 -4.681164 0.026921
v 27.624385 71.087322 -26.806197
vn -3.696935 -5.080157 -0.040016
v 19.903188 77.395615 -25.603190
vn -4.072851 -4.784377 -0.001557
v 26.266639 72.255182 -24.496878
vn -4.238153 -4.637943 -0.051740
v 27.946426 70.791254 -25.960437
vn -3.865484 -4.953357 0.014765
v 21.190613 76.417388 -26.097810
vn -3.794302 -5.006902 -0.012655
v 20.449490 76.999152 -26.280988
vn -4.163351 -4.703866 -0.033487
v 27.098717 71.548426 -24.765595
vn -4.252383 -4.624805 -0.079618
v 27.827891 70.878517 -24.986621
vn -2.046518 -2.230261 -0.045143
v 28.477300 70.289550 -25.283600
vn -4.111866 -4.749960 -0.093955
v 25.457832 72.913671 -20.912763
vn -1.945848 -2.248786 -0.043622
v 25.746075 72.654700 -20.420075
vn -3.711010 -5.069954 -0.041475
v 19.742647 77.516435 -26.543295
vn -3.898357 -4.926653 0.095274
v 20.685835 76.792222 -28.034820
vn -4.256845 -4.621231 -0.017224
v 27.697502 70.985561 -23.954668
# 148 vertices, 0 vertices normals

f 47//47 58//58 30//30
f 3//3 115//115 39//39
f 61//61 62//62 111//111
f 6//6 34//34 33//33
f 63//63 64//64 65//65
f 66//66 67//67 68//68
f 69//69 70//70 71//71
f 74//74 75//75 76//76
f 77//77 78//78 20//20
f 12//12 35//35 42//42
f 18//18 38//38 37//37
f 28//28 36//36 80//80
f 81//81 17//17 83//83
f 87//87 88//88 147//147
f 89//89 87//87 82//82
f 90//90 91//91 92//92
f 93//93 94//94 95//95
f 96//96 97//97 62//62
f 98//98 99//99 92//92
f 5//5 40//40 60//60
f 101//101 102//102 103//103
f 104//104 5//5 103//103
f 138//138 135//135 41//41
f 135//135 105//105 41//41
f 64//64 67//67 106//106
f 61//61 107//107 66//66
f 108//108 109//109 105//105
f 107//107 110//110 109//109
f 6//6 111//111 34//34
f 26//26 114//114 144//144
f 39//39 115//115 31//31
f 116//116 101//101 114//114
f 15//15 58//58 47//47
f 15//15 47//47 48//48
f 117//117 68//68 76//76
f 116//116 118//118 69//69
f 100//100 119//119 118//118
f 70//70 94//94 65//65
f 51//51 121//121 120//120
f 122//122 18//18 83//83
f 63//63 124//124 74//74
f 125//125 99//99 72//72
f 125//125 49//49 126//126
f 89//89 75//75 20//20
f 15//15 48//48 49//49
f 123//123 121//121 127//127
f 96//96 117//117 81//81
f 4//4 3//3 147//147
f 90//90 128//128 129//129
f 98//98 130//130 93//93
f 124//124 130//130 77//77
f 53//53 128//128 131//131
f 119//119 73//73 95//95
f 132//132 29//29 59//59
f 25//25 129//129 136//136
f 14//14 44//44 43//43
f 71//71 137//137 102//102
f 91//91 139//139 78//78
f 140//140 88//88 139//139
f 141//141 142//142 148//148
f 138//138 143//143 142//142
f 137//137 134//134 141//141
f 140//140 136//136 146//146
f 4//4 146//146 115//115
f 79//79 122//122 85//85
f 30//30 59//59 29//29
f 58//58 59//59 30//30
f 1//1 5//5 32//32
f 60//60 32//32 5//5
f 6//6 61//61 111//111
f 61//61 8//8 62//62
f 111//111 62//62 14//14
f 19//19 63//63 65//65
f 63//63 7//7 64//64
f 65//65 64//64 27//27
f 8//8 66//66 68//68
f 66//66 11//11 67//67
f 68//68 67//67 7//7
f 102//102 69//69 71//71
f 69//69 23//23 70//70
f 71//71 70//70 27//27
f 58//58 15//15 72//72
f 73//73 72//72 16//16
f 7//7 74//74 76//76
f 74//74 20//20 75//75
f 76//76 75//75 17//17
f 77//77 22//22 78//78
f 20//20 78//78 10//10
f 80//80 79//79 28//28
f 18//18 79//79 38//38
f 80//80 38//38 79//79
f 123//123 81//81 83//83
f 83//83 17//17 82//82
f 122//122 82//82 9//9
f 39//39 84//84 3//3
f 28//28 86//86 84//84
f 84//84 36//36 28//28
f 28//28 85//85 86//86
f 85//85 9//9 86//86
f 84//84 86//86 3//3
f 9//9 87//87 147//147
f 87//87 10//10 88//88
f 147//147 88//88 4//4
f 17//17 89//89 82//82
f 89//89 10//10 87//87
f 82//82 87//87 9//9
f 2//2 90//90 92//92
f 90//90 25//25 91//91
f 92//92 91//91 22//22
f 16//16 93//93 95//95
f 93//93 19//19 94//94
f 95//95 94//94 23//23
f 8//8 96//96 62//62
f 96//96 21//21 97//97
f 62//62 97//97 14//14
f 22//22 98//98 92//92
f 98//98 16//16 99//99
f 92//92 99//99 2//2
f 132//132 59//59 100//100
f 132//132 100//100 26//26
f 1//1 101//101 103//103
f 103//103 102//102 13//13
f 13//13 104//104 103//103
f 103//103 5//5 1//1
f 42//42 105//105 12//12
f 105//105 42//42 41//41
f 27//27 64//64 106//106
f 64//64 7//7 67//67
f 106//106 67//67 11//11
f 8//8 61//61 66//66
f 61//61 6//6 107//107
f 66//66 107//107 11//11
f 135//135 108//108 105//105
f 108//108 11//11 109//109
f 105//105 109//109 12//12
f 11//11 107//107 109//109
f 107//107 6//6 110//110
f 109//109 110//110 12//12
f 43//43 111//111 14//14
f 111//111 43//43 34//34
f 112//112 44//44 14//14
f 104//104 13//13 148//148
f 5//5 104//104 40//40
f 113//113 40//40 148//148
f 1//1 32//32 45//45
f 114//114 1//1 45//45
f 114//114 45//45 144//144
f 145//145 144//144 45//45
f 3//3 4//4 115//115
f 115//115 146//146 46//46
f 26//26 116//116 114//114
f 116//116 102//102 101//101
f 114//114 101//101 1//1
f 17//17 117//117 76//76
f 117//117 8//8 68//68
f 76//76 68//68 7//7
f 102//102 116//116 69//69
f 116//116 26//26 118//118
f 69//69 118//118 23//23
f 26//26 100//100 118//118
f 100//100 59//59 119//119
f 118//118 119//119 23//23
f 27//27 70//70 65//65
f 70//70 23//23 94//94
f 65//65 94//94 19//19
f 18//18 37//37 121//121
f 120//120 121//121 37//37
f 82//82 122//122 83//83
f 83//83 18//18 123//123
f 81//81 123//123 21//21
f 7//7 63//63 74//74
f 63//63 19//19 124//124
f 74//74 124//124 20//20
f 125//125 2//2 99//99
f 72//72 99//99 16//16
f 49//49 125//125 15//15
f 2//2 125//125 50//50
f 126//126 50//50 125//125
f 10//10 89//89 20//20
f 89//89 17//17 75//75
f 110//110 33//33 35//35
f 33//33 110//110 6//6
f 12//12 110//110 35//35
f 21//21 123//123 127//127
f 123//123 18//18 121//121
f 127//127 121//121 51//51
f 21//21 96//96 81//81
f 96//96 8//8 117//117
f 81//81 117//117 17//17
f 147//147 86//86 9//9
f 25//25 90//90 129//129
f 90//90 2//2 128//128
f 129//129 128//128 53//53
f 52//52 129//129 53//53
f 16//16 98//98 93//93
f 98//98 22//22 130//130
f 93//93 130//130 19//19
f 20//20 124//124 77//77
f 124//124 19//19 130//130
f 77//77 130//130 22//22
f 2//2 50//50 128//128
f 131//131 128//128 50//50
f 97//97 21//21 127//127
f 112//112 127//127 51//51
f 112//112 97//97 127//127
f 23//23 119//119 95//95
f 119//119 59//59 73//73
f 95//95 73//73 16//16
f 132//132 54//54 29//29
f 133//133 24//24 134//134
f 106//106 134//134 27//27
f 55//55 136//136 56//56
f 129//129 56//56 136//136
f 56//56 129//129 52//52
f 71//71 27//27 137//137
f 102//102 137//137 13//13
f 22//22 91//91 78//78
f 91//91 25//25 139//139
f 78//78 139//139 10//10
f 25//25 140//140 139//139
f 140//140 4//4 88//88
f 139//139 88//88 10//10
f 13//13 141//141 148//148
f 141//141 24//24 142//142
f 148//148 142//142 113//113
f 24//24 138//138 142//142
f 138//138 57//57 143//143
f 142//142 143//143 113//113
f 54//54 132//132 144//144
f 132//132 26//26 144//144
f 145//145 54//54 144//144
f 13//13 137//137 141//141
f 137//137 27//27 134//134
f 141//141 134//134 24//24
f 4//4 140//140 146//146
f 140//140 25//25 136//136
f 146//146 136//136 55//55
f 115//115 46//46 31//31
f 46//46 146//146 55//55
f 28//28 79//79 85//85
f 79//79 18//18 122//122
f 85//85 122//122 9//9
f 15//15 125//125 72//72
f 147//147 3//3 86//86
f 58//58 72//72 73//73
f 138//138 41//41 57//57
f 59//59 58//58 73//73
f 133//133 108//108 135//135
f 138//138 24//24 135//135
f 133//133 134//134 106//106
f 148//148 40//40 104//104
f 11//11 133//133 106//106
f 133//133 11//11 108//108
f 24//24 133//133 135//135
f 14//14 97//97 112//112
# 255 faces, 0 coords texture

# End of File
