####
#
# OBJ File Generated by Meshlab
#
####
# Object 1962_C88_S_7.obj
#
# Vertices: 146
# Faces: 252
#
####
vn -4.783062 -4.074379 0.008770
v 49.722039 51.612044 -24.804537
vn -4.794092 -4.060979 0.058586
v 54.710364 45.754462 -20.750090
vn -4.765078 -4.095313 -0.000334
v 51.565074 49.452988 -18.474988
vn -4.774320 -4.084531 -0.017098
v 50.684939 50.473569 -19.953644
vn -4.790706 -4.065233 0.023418
v 53.924177 46.661082 -22.154404
vn -4.775183 -4.083356 0.036610
v 53.424354 47.272745 -20.383152
vn -4.779137 -4.077957 0.014967
v 54.277824 46.299234 -18.940509
vn -4.755998 -4.105938 -0.004821
v 50.924323 50.187085 -16.758043
vn -4.773983 -4.084873 -0.029389
v 49.288368 52.114049 -19.819249
vn -4.798299 -4.056188 0.037181
v 52.948139 47.803079 -25.259190
vn -4.792574 -4.063132 0.015418
v 50.512030 50.685062 -24.512871
vn -4.774834 -4.084034 0.001142
v 49.622942 51.729419 -23.022786
vn -4.779472 -4.078486 0.009169
v 52.113962 48.810958 -20.110253
vn -4.778348 -4.079861 0.000858
v 53.939756 46.676926 -16.909748
vn -4.770517 -4.088596 0.010093
v 52.940916 47.829412 -18.600627
vn -4.790935 -4.065081 0.012318
v 51.488608 49.533253 -21.672421
vn -4.795276 -4.059969 0.013725
v 51.871390 49.075559 -23.658196
vn -4.766732 -4.093026 0.008614
v 52.475266 48.401907 -16.861701
vn -4.815683 -4.035154 0.061472
v 55.148222 45.214103 -22.693433
vn -4.798731 -4.055883 0.018865
v 51.490034 49.518066 -25.886901
vn -4.768166 -4.091690 -0.022464
v 50.149914 51.088875 -18.356461
vn -4.793301 -4.062265 0.004457
v 50.755959 50.402834 -22.798809
vn -4.782776 -4.074609 -0.014207
v 50.129081 51.138739 -21.267951
vn -4.787195 -4.069437 0.025562
v 52.691459 48.116627 -21.902860
vn -4.787711 -4.068921 0.007009
v 53.035021 47.710262 -22.996878
vn -2.378549 -2.022604 0.009494
v 49.843750 51.464075 -25.918200
vn -2.096459 -1.786386 -0.001521
v 49.191550 52.234850 -25.083400
vn -2.408825 -2.059370 -0.001657
v 49.016300 52.438300 -24.583200
vn -2.346023 -1.969487 0.008704
v 55.304725 45.075300 -18.271550
vn -2.173788 -1.827638 0.018188
v 55.606050 44.709950 -19.347450
vn -2.041519 -1.761579 -0.007486
v 51.776350 49.195600 -15.205550
vn -2.141283 -1.842939 0.002876
v 50.472900 50.713300 -15.778900
vn -2.152877 -1.790530 0.041089
v 55.597700 44.668700 -22.909800
vn -2.434926 -2.005483 0.042973
v 55.314900 44.988500 -23.767000
vn -2.179102 -1.860892 -0.014653
v 48.924300 52.521800 -17.955300
vn -2.352825 -2.010191 -0.006973
v 49.345400 52.025500 -17.206600
vn -2.408561 -2.027411 0.030827
v 55.687550 44.583350 -21.895200
vn -2.194511 -1.859208 0.026393
v 55.747000 44.523600 -21.240600
vn -2.177004 -1.871328 -0.009905
v 48.416200 53.128500 -19.786100
vn -2.335658 -1.982283 0.001843
v 53.578900 47.105800 -15.772300
vn -2.210674 -1.900218 -0.000417
v 49.828800 51.458500 -16.426700
vn -2.236309 -1.896629 -0.000994
v 55.109300 45.310500 -17.702500
vn -2.215417 -1.819371 0.037788
v 55.104400 45.231100 -24.434100
vn -2.343319 -2.007400 -0.004141
v 54.584200 45.924400 -16.748000
vn -2.085917 -1.775739 -0.005510
v 54.266600 46.290900 -16.236100
vn -2.198860 -1.831291 0.033945
v 54.345900 46.126450 -25.752300
vn -2.169535 -1.816029 0.021678
v 53.348300 47.307900 -26.716900
vn -2.370347 -2.039957 -0.006805
v 48.359600 53.197000 -20.571700
vn -2.410216 -2.090470 -0.014384
v 52.136700 48.779400 -15.288200
vn -2.171313 -1.838038 0.009371
v 50.304900 50.918650 -26.485850
vn -2.131538 -1.799177 0.007047
v 51.292400 49.748100 -27.087700
vn -2.304576 -1.976614 -0.003179
v 48.428800 53.122700 -22.469500
vn -2.417236 -2.044724 0.022254
v 55.685500 44.604700 -20.506800
vn -2.265496 -1.912911 0.015212
v 52.122300 48.762500 -27.115900
vn -2.163373 -1.862542 -0.005940
v 48.303000 53.265500 -21.472400
vn -4.814689 -4.036749 0.037032
v 54.918632 45.531897 -19.117371
vn -4.798888 -4.055620 -0.013759
v 54.724003 45.766360 -18.239422
vn -4.775739 -4.082975 0.000990
v 49.354578 52.043159 -23.925993
vn -4.771609 -4.087805 -0.003546
v 49.056518 52.390634 -23.058308
vn -2.214016 -1.896772 -0.001192
v 48.654650 52.860100 -23.613300
vn -4.794631 -4.060596 0.026385
v 54.541264 45.931842 -22.419152
vn -4.799738 -4.054667 0.002071
v 54.133436 46.416829 -23.090918
vn -4.830937 -4.016901 0.048508
v 54.779545 45.647011 -23.449438
vn -4.792192 -4.063490 0.027269
v 53.319849 47.374721 -22.009816
vn -4.791005 -4.065046 -0.004640
v 53.585703 47.060510 -22.784079
vn -4.788684 -4.067437 0.053584
v 53.679730 46.960150 -21.267634
vn -4.787142 -4.069255 0.053338
v 54.310927 46.214835 -21.464391
vn -4.785932 -4.070402 0.070027
v 54.063965 46.517858 -20.560134
vn -4.798848 -4.055068 0.072992
v 54.486779 46.035735 -19.840928
vn -4.757007 -4.104118 0.045204
v 53.834249 46.806351 -19.664366
vn -4.752662 -4.109787 -0.015244
v 50.848060 50.281890 -18.431851
vn -4.747971 -4.115194 -0.014693
v 51.281449 49.776585 -17.655859
vn -4.756428 -4.105430 -0.012846
v 50.575491 50.593005 -17.608932
vn -4.769323 -4.090430 -0.011100
v 49.939025 51.331650 -17.472347
vn -4.779319 -4.078655 -0.030297
v 49.514140 51.832130 -18.188896
vn -4.797251 -4.057379 0.049577
v 55.317993 45.033469 -20.994566
vn -4.784692 -4.072211 0.046287
v 53.048776 47.705528 -21.114929
vn -4.779324 -4.078695 -0.002841
v 51.832144 49.140864 -19.278553
vn -4.758343 -4.103222 0.000058
v 51.120543 49.968564 -19.213337
vn -4.766642 -4.093590 0.004989
v 51.400093 49.641565 -20.054622
vn -4.774817 -4.083869 -0.037351
v 49.078166 52.351609 -18.941640
vn -2.342290 -2.008301 -0.015720
v 48.686725 52.806600 -18.743825
vn -4.789368 -4.066764 0.035858
v 53.184409 47.566916 -16.860622
vn -4.773992 -4.084867 -0.008576
v 52.893568 47.911826 -16.172334
vn -4.761229 -4.099416 0.017504
v 53.420534 47.275531 -17.784950
vn -4.790362 -4.065425 0.056164
v 52.717143 48.104856 -17.720208
vn -4.765947 -4.094009 0.021022
v 52.012038 48.936838 -17.684509
vn -4.792892 -4.062626 0.020535
v 52.259830 48.633126 -18.522490
vn -4.791891 -4.063944 0.012623
v 50.659764 50.513894 -23.583610
vn -4.778435 -4.079821 0.005688
v 50.232997 51.015205 -22.906018
vn -4.757369 -4.104095 -0.009144
v 53.173962 47.561317 -19.493091
vn -4.732222 -4.133290 -0.008973
v 53.618039 47.055128 -18.746300
vn -4.826690 -4.021828 0.056435
v 54.360724 46.142133 -24.169254
vn -4.760576 -4.100343 -0.030760
v 54.094177 46.504709 -17.989325
vn -4.779785 -4.078131 -0.019438
v 54.503821 46.017999 -17.473638
vn -4.786937 -4.069796 -0.010405
v 50.919503 50.203260 -21.062068
vn -4.789703 -4.066448 -0.032258
v 50.300793 50.930920 -20.529882
vn -4.789759 -4.066461 -0.020633
v 52.513277 48.336927 -19.360801
vn -4.782283 -4.075161 0.006525
v 52.778006 48.031681 -20.229220
vn -4.778965 -4.079111 0.022465
v 51.736282 49.248177 -20.905535
vn -4.800610 -4.053099 0.052466
v 53.645093 46.987919 -24.617157
vn -4.815688 -4.035096 0.071631
v 53.682358 46.923407 -25.492055
vn -4.827141 -4.021070 0.086653
v 54.186129 46.335040 -24.964329
vn -2.418741 -1.991722 0.041811
v 54.734850 45.667450 -25.081800
vn -4.793366 -4.062195 0.021899
v 50.385701 50.828801 -25.501634
vn -4.800276 -4.053902 0.037878
v 52.503599 48.319734 -26.242238
vn -2.335936 -1.965121 0.021385
v 52.635500 48.155175 -26.992000
vn -4.815465 -4.035760 0.048225
v 53.160288 47.539385 -26.141018
vn -4.790707 -4.065335 0.010340
v 53.643947 46.993938 -23.657231
vn -4.783421 -4.073940 0.017385
v 53.050814 47.687349 -24.157239
vn -4.787499 -4.069101 0.024307
v 52.051356 48.870521 -21.767403
vn -4.798299 -4.056401 0.009919
v 51.675543 49.310038 -22.547117
vn -4.786398 -4.070459 0.012648
v 52.311397 48.560934 -22.730983
vn -4.803188 -4.050594 0.021612
v 51.025644 50.072704 -25.183813
vn -4.797209 -4.057684 0.015200
v 51.690744 49.284778 -24.831263
vn -4.804902 -4.048581 0.017865
v 51.179663 49.894600 -24.162146
vn -4.802231 -4.051762 -0.005391
v 51.099844 49.994818 -22.217606
vn -4.806522 -4.046677 0.010951
v 51.228951 49.840230 -23.181353
vn -4.765621 -4.094760 -0.013621
v 48.969397 52.488582 -20.636449
vn -4.804523 -4.048712 0.052412
v 55.162944 45.227693 -20.019628
vn -4.745932 -4.117470 -0.030654
v 52.318127 48.576114 -16.004931
vn -2.205479 -1.897657 -0.011192
v 52.882125 47.921175 -15.402350
vn -4.800321 -4.054003 0.019303
v 50.883704 50.234855 -26.164431
vn -2.398928 -2.027457 0.007083
v 50.811150 50.318500 -26.794700
vn -4.744144 -4.119602 -0.018892
v 51.717100 49.272493 -16.755172
vn -4.758339 -4.103208 -0.006686
v 51.198971 49.867564 -16.107908
vn -2.404707 -2.069101 -0.001089
v 51.195075 49.872400 -15.477700
vn -4.770364 -4.089257 -0.003231
v 49.203893 52.217646 -22.250874
vn -4.768643 -4.091260 -0.005883
v 49.437405 51.945082 -21.381665
vn -4.776036 -4.082528 -0.023097
v 49.683273 51.656570 -20.571831
vn -4.782764 -4.074559 -0.039352
v 49.718368 51.601692 -19.069882
vn -4.790673 -4.065384 0.020885
v 52.164401 48.725013 -25.543327
vn -4.797549 -4.057239 0.025872
v 51.904391 49.025325 -26.400333
vn -4.768833 -4.090894 -0.022150
v 50.405454 50.795410 -19.150253
vn -4.788165 -4.068358 -0.005816
v 50.501596 50.701426 -22.053486
vn -4.773511 -4.085578 0.001405
v 49.864628 51.447309 -22.132606
vn -2.406946 -2.012719 0.024917
v 53.837400 46.728500 -26.246000
vn -4.782789 -4.074543 0.037410
v 52.404489 48.461762 -20.982631
vn -4.787184 -4.069527 0.014797
v 52.391951 48.460036 -24.517610
vn -4.785164 -4.071904 0.014457
v 52.558533 48.268322 -23.594498
vn -4.785022 -4.071929 -0.036984
v 49.998982 51.279191 -19.846705
vn -4.793991 -4.061203 0.050557
v 54.951323 45.458784 -21.696648
vn -4.759751 -4.101599 0.000932
v 50.343331 50.861196 -16.783559
vn -4.766084 -4.094229 -0.009390
v 48.784298 52.706522 -21.490470
vn -4.780192 -4.077762 0.005060
v 49.996059 51.291165 -23.819027
vn -4.751202 -4.111429 -0.021077
v 51.762658 49.214165 -15.840355
# 146 vertices, 0 vertices normals

f 56//56 29//29 57//57
f 61//61 62//62 63//63
f 64//64 25//25 65//65
f 126//126 146//146 127//127
f 66//66 67//67 68//68
f 69//69 70//70 68//68
f 71//71 72//72 73//73
f 19//19 34//34 33//33
f 21//21 74//74 75//75
f 2//2 142//142 76//76
f 66//66 77//77 64//64
f 78//78 79//79 80//80
f 18//18 83//83 84//84
f 85//85 83//83 86//86
f 87//87 88//88 86//86
f 89//89 90//90 145//145
f 74//74 41//41 36//36
f 91//91 70//70 92//92
f 57//57 29//29 42//42
f 19//19 63//63 34//34
f 94//94 85//85 92//92
f 45//45 14//14 44//44
f 14//14 95//95 44//44
f 91//91 98//98 99//99
f 88//88 78//78 98//98
f 80//80 96//96 100//100
f 101//101 102//102 103//103
f 103//103 104//104 93//93
f 94//94 57//57 95//95
f 106//106 107//107 108//108
f 101//101 109//109 110//110
f 111//111 112//112 113//113
f 114//114 115//115 116//116
f 117//117 118//118 112//112
f 69//69 120//120 56//56
f 123//123 50//50 124//124
f 72//72 87//87 125//125
f 146//146 49//49 31//31
f 12//12 128//128 59//59
f 30//30 120//120 53//53
f 129//129 130//130 119//119
f 131//131 75//75 81//81
f 132//132 133//133 106//106
f 73//73 143//143 74//74
f 71//71 134//134 79//79
f 135//135 136//136 90//90
f 108//108 137//137 102//102
f 77//77 99//99 138//138
f 138//138 100//100 111//111
f 117//117 96//96 135//135
f 136//136 129//129 128//128
f 132//132 139//139 115//115
f 89//89 116//116 118//118
f 20//20 51//51 133//133
f 114//114 105//105 123//123
f 65//65 109//109 62//62
f 110//110 140//140 139//139
f 140//140 25//25 113//113
f 1//1 28//28 27//27
f 128//128 144//144 52//52
f 144//144 48//48 55//55
f 134//134 131//131 141//141
f 141//141 130//130 97//97
f 26//26 1//1 27//27
f 7//7 56//56 57//57
f 56//56 120//120 30//30
f 58//58 12//12 59//59
f 58//58 59//59 60//60
f 60//60 28//28 58//58
f 28//28 1//1 58//58
f 1//1 11//11 145//145
f 58//58 145//145 12//12
f 30//30 29//29 56//56
f 19//19 61//61 63//63
f 61//61 5//5 62//62
f 63//63 62//62 93//93
f 5//5 64//64 65//65
f 64//64 24//24 25//25
f 6//6 66//66 68//68
f 66//66 5//5 67//67
f 68//68 67//67 2//2
f 2//2 69//69 68//68
f 69//69 7//7 70//70
f 68//68 70//70 6//6
f 41//41 143//143 32//32
f 21//21 71//71 73//73
f 71//71 3//3 72//72
f 73//73 72//72 8//8
f 41//41 74//74 143//143
f 74//74 36//36 75//75
f 35//35 75//75 36//36
f 142//142 37//37 76//76
f 38//38 76//76 37//37
f 5//5 66//66 64//64
f 66//66 6//6 77//77
f 64//64 77//77 24//24
f 13//13 78//78 80//80
f 78//78 3//3 79//79
f 80//80 79//79 4//4
f 9//9 81//81 39//39
f 82//82 39//39 81//81
f 83//83 40//40 84//84
f 40//40 83//83 14//14
f 122//122 84//84 40//40
f 15//15 85//85 86//86
f 85//85 14//14 83//83
f 86//86 83//83 18//18
f 18//18 87//87 86//86
f 87//87 3//3 88//88
f 86//86 88//88 15//15
f 11//11 89//89 145//145
f 89//89 22//22 90//90
f 145//145 90//90 12//12
f 15//15 91//91 92//92
f 91//91 6//6 70//70
f 92//92 70//70 7//7
f 5//5 61//61 67//67
f 61//61 19//19 142//142
f 67//67 142//142 2//2
f 63//63 93//93 43//43
f 63//63 43//43 34//34
f 7//7 94//94 92//92
f 94//94 14//14 85//85
f 92//92 85//85 15//15
f 42//42 95//95 57//57
f 95//95 42//42 44//44
f 96//96 4//4 97//97
f 96//96 97//97 23//23
f 6//6 91//91 99//99
f 91//91 15//15 98//98
f 99//99 98//98 13//13
f 15//15 88//88 98//98
f 88//88 3//3 78//78
f 98//98 78//78 13//13
f 13//13 80//80 100//100
f 80//80 4//4 96//96
f 100//100 96//96 16//16
f 93//93 101//101 103//103
f 101//101 10//10 102//102
f 103//103 102//102 46//46
f 103//103 46//46 104//104
f 93//93 104//104 43//43
f 11//11 1//1 105//105
f 105//105 1//1 26//26
f 50//50 105//105 26//26
f 14//14 94//94 95//95
f 94//94 7//7 57//57
f 10//10 106//106 108//108
f 108//108 107//107 47//47
f 10//10 101//101 110//110
f 101//101 93//93 109//109
f 110//110 109//109 25//25
f 24//24 111//111 113//113
f 111//111 16//16 112//112
f 113//113 112//112 17//17
f 11//11 114//114 116//116
f 114//114 20//20 115//115
f 116//116 115//115 17//17
f 16//16 117//117 112//112
f 117//117 22//22 118//118
f 112//112 118//118 17//17
f 119//119 39//39 48//48
f 39//39 119//119 9//9
f 7//7 69//69 56//56
f 69//69 2//2 120//120
f 121//121 18//18 84//84
f 121//121 84//84 122//122
f 146//146 121//121 49//49
f 122//122 49//49 121//121
f 20//20 123//123 51//51
f 124//124 51//51 123//123
f 8//8 72//72 125//125
f 72//72 3//3 87//87
f 125//125 87//87 18//18
f 125//125 121//121 146//146
f 125//125 146//146 126//126
f 125//125 126//126 8//8
f 31//31 127//127 146//146
f 128//128 52//52 59//59
f 60//60 59//59 52//52
f 120//120 2//2 76//76
f 53//53 76//76 38//38
f 120//120 76//76 53//53
f 129//129 23//23 130//130
f 119//119 130//130 9//9
f 9//9 131//131 81//81
f 131//131 21//21 75//75
f 81//81 75//75 35//35
f 82//82 81//81 35//35
f 19//19 33//33 37//37
f 37//37 142//142 19//19
f 10//10 132//132 106//106
f 132//132 20//20 133//133
f 106//106 133//133 54//54
f 107//107 106//106 54//54
f 21//21 73//73 74//74
f 73//73 8//8 143//143
f 3//3 71//71 79//79
f 71//71 21//21 134//134
f 79//79 134//134 4//4
f 22//22 135//135 90//90
f 135//135 23//23 136//136
f 90//90 136//136 12//12
f 10//10 108//108 102//102
f 108//108 47//47 137//137
f 102//102 137//137 46//46
f 24//24 77//77 138//138
f 77//77 6//6 99//99
f 138//138 99//99 13//13
f 24//24 138//138 111//111
f 138//138 13//13 100//100
f 111//111 100//100 16//16
f 22//22 117//117 135//135
f 117//117 16//16 96//96
f 135//135 96//96 23//23
f 12//12 136//136 128//128
f 136//136 23//23 129//129
f 48//48 144//144 119//119
f 20//20 132//132 115//115
f 132//132 10//10 139//139
f 115//115 139//139 17//17
f 22//22 89//89 118//118
f 89//89 11//11 116//116
f 118//118 116//116 17//17
f 133//133 51//51 54//54
f 20//20 114//114 123//123
f 114//114 11//11 105//105
f 123//123 105//105 50//50
f 5//5 65//65 62//62
f 65//65 25//25 109//109
f 62//62 109//109 93//93
f 10//10 110//110 139//139
f 110//110 25//25 140//140
f 139//139 140//140 17//17
f 17//17 140//140 113//113
f 113//113 25//25 24//24
f 4//4 134//134 141//141
f 134//134 21//21 131//131
f 141//141 131//131 9//9
f 4//4 141//141 97//97
f 141//141 9//9 130//130
f 97//97 130//130 23//23
f 61//61 142//142 67//67
f 144//144 55//55 52//52
f 143//143 8//8 32//32
f 129//129 144//144 128//128
f 144//144 129//129 119//119
f 14//14 45//45 40//40
f 18//18 121//121 125//125
f 145//145 58//58 1//1
f 126//126 127//127 32//32
f 8//8 126//126 32//32
# 252 faces, 0 coords texture

# End of File
