####
#
# OBJ File Generated by Meshlab
#
####
# Object 2020_C96_S_4.obj
#
# Vertices: 139
# Faces: 238
#
####
vn 4.896860 -3.934987 -0.121365
v -55.858366 49.579240 28.240922
vn 4.909344 -3.918939 -0.135100
v -56.944603 48.279614 26.513797
vn 4.891525 -3.941566 -0.123190
v -56.860125 48.509968 22.783030
vn 4.881087 -3.954893 -0.101799
v -55.608265 50.160446 19.433455
vn 4.862965 -3.977643 -0.090456
v -54.610331 51.348367 20.577534
vn 4.876607 -3.961097 -0.076673
v -52.173530 54.268644 24.304379
vn 4.892105 -3.941036 -0.114454
v -54.847825 50.955529 24.655161
vn 4.894632 -3.937603 -0.124044
v -56.270437 49.188006 24.618980
vn 4.886048 -3.948905 -0.104791
v -53.418964 52.692146 25.555505
vn 4.876435 -3.961079 -0.092221
v -53.537555 52.594203 23.688706
vn 4.871170 -3.967982 -0.071076
v -52.462904 53.951217 21.694815
vn 4.863538 -3.977176 -0.079464
v -53.571330 52.595714 21.787356
vn 4.887996 -3.946461 -0.101671
v -55.886717 49.684529 23.634630
vn 4.882838 -3.952850 -0.102869
v -54.724903 51.162367 22.606182
vn 4.898745 -3.932038 -0.136450
v -55.523099 50.047715 26.342812
vn 4.916018 -3.910630 -0.134610
v -56.932882 48.221911 28.576652
vn 4.861997 -3.979126 -0.075495
v -53.515215 52.694775 19.981940
vn 4.890885 -3.942610 -0.116148
v -52.296901 54.029121 27.584254
vn 4.893023 -3.940369 -0.100510
v -57.130721 48.233620 20.685044
vn 4.896588 -3.935379 -0.120091
v -53.403550 52.655657 27.615680
vn 4.887449 -3.946869 -0.113996
v -55.942076 49.695206 21.240075
vn 4.913106 -3.913962 -0.143487
v -57.566341 47.573695 24.352594
vn 4.901423 -3.928974 -0.131110
v -54.623258 51.122218 27.845084
vn 2.287223 -1.835928 -0.048972
v -57.604700 47.642300 20.721100
vn 2.253152 -1.804676 -0.061784
v -58.203614 46.849705 22.443430
vn 2.209986 -1.769087 -0.057671
v -56.206900 49.087300 30.024900
vn 2.231134 -1.810168 -0.029043
v -51.681700 54.899500 22.606500
vn 2.204323 -1.770292 -0.043550
v -56.635600 48.874700 19.498600
vn 2.394945 -1.928581 -0.056694
v -52.712400 53.463800 29.326700
vn 2.226250 -1.795032 -0.052066
v -52.136850 54.201150 28.486550
vn 2.174823 -1.781493 -0.033115
v -51.373600 55.245400 24.277600
vn 2.487666 -2.014927 -0.035580
v -51.821200 54.733900 22.238200
vn 2.246975 -1.830822 -0.033527
v -52.188500 54.298500 21.121100
vn 2.461003 -1.954261 -0.068526
v -57.552600 47.455300 28.188100
vn 2.201450 -1.746793 -0.059542
v -57.921200 47.017000 27.445300
vn 2.159167 -1.777458 -0.039044
v -54.482800 51.539500 18.929800
vn 2.497693 -2.051402 -0.044611
v -53.941500 52.191900 19.234600
vn 2.297564 -1.868913 -0.048401
v -51.479300 55.074500 26.198600
vn 2.200093 -1.770891 -0.058434
v -54.835550 50.773450 30.545300
vn 2.180063 -1.745473 -0.062319
v -53.757000 52.121700 30.343900
vn 2.277859 -1.832468 -0.047735
v -57.414200 47.889100 20.383300
vn 2.438259 -2.006213 -0.046503
v -55.102300 50.788600 18.929300
vn 2.168067 -1.762175 -0.042252
v -55.589200 50.196300 18.916400
vn 2.309600 -1.886093 -0.037098
v -52.405100 54.041200 20.733400
vn 2.098324 -1.717681 -0.035191
v -53.390200 52.858200 19.459400
vn 2.253465 -1.786674 -0.066004
v -58.333780 46.557270 25.620550
vn 2.208858 -1.753538 -0.060964
v -57.097500 47.996000 29.108000
vn 2.356017 -1.921085 -0.043294
v -51.402000 55.193300 25.312100
vn 2.420549 -1.945551 -0.065502
v -54.510700 51.178900 30.497700
vn 2.479316 -1.998392 -0.045590
v -56.737400 48.745500 19.623900
vn 4.897456 -3.934643 -0.108782
v -57.615546 47.604248 21.661279
vn 2.430467 -1.948423 -0.051522
v -57.890250 47.265450 21.515000
vn 4.915227 -3.911871 -0.126990
v -56.549364 48.683452 29.201820
vn 2.429615 -1.927700 -0.065383
v -56.622800 48.576850 29.615950
vn 4.904651 -3.924306 -0.149050
v -55.247236 50.424609 25.509538
vn 4.891201 -3.940842 -0.155911
v -55.914536 49.594957 25.518423
vn 4.895174 -3.936958 -0.119822
v -55.594239 50.028063 24.657458
vn 4.882584 -3.954220 -0.054096
v -52.289029 54.137825 23.414002
vn 4.878403 -3.959157 -0.066986
v -52.361731 54.059518 22.614202
vn 4.868927 -3.970769 -0.066020
v -51.832196 54.699850 23.578995
vn 4.887182 -3.947159 -0.113534
v -55.749327 49.964201 20.183517
vn 4.898646 -3.933450 -0.097396
v -56.351791 49.211633 20.167669
vn 2.437660 -1.998389 -0.034043
v -51.580825 55.013425 23.171050
vn 4.856823 -3.985397 -0.078861
v -54.019851 52.077385 20.110230
vn 4.861710 -3.979619 -0.069291
v -53.524402 52.669828 20.791924
vn 4.864669 -3.975806 -0.078824
v -54.095333 51.966118 21.205817
vn 4.864562 -3.975925 -0.080210
v -53.011326 53.270032 22.257628
vn 4.863821 -3.976946 -0.074456
v -53.004198 53.300068 21.108465
vn 4.914314 -3.912679 -0.137159
v -56.957290 48.221732 27.710378
vn 4.920851 -3.904594 -0.133296
v -57.501953 47.557718 27.083021
vn 4.851349 -3.991866 -0.088320
v -54.541718 51.452159 19.647724
vn 4.889731 -3.944020 -0.116641
v -55.238931 50.352529 28.060182
vn 4.894394 -3.938063 -0.122077
v -54.770899 50.907455 28.859503
vn 4.871821 -3.966409 -0.105100
v -55.229412 50.578927 20.926061
vn 4.872795 -3.965662 -0.088283
v -54.683467 51.235805 21.594677
vn 4.886099 -3.948507 -0.113134
v -55.292612 50.477876 21.975154
vn 2.447481 -1.958369 -0.051138
v -56.277925 49.327125 19.296600
vn 4.907893 -3.920960 -0.130496
v -53.711759 52.217687 29.257207
vn 2.303670 -1.842869 -0.060417
v -53.036952 53.047409 29.741226
vn 4.907037 -3.921248 -0.151433
v -57.860790 47.240489 23.436112
vn 4.916615 -3.909029 -0.157491
v -58.040151 46.982276 24.237876
vn 2.289030 -1.820363 -0.073997
v -58.374075 46.587125 23.629775
vn 4.890451 -3.943198 -0.114421
v -52.756477 53.443608 28.112776
vn 4.892151 -3.941176 -0.111276
v -52.807901 53.409822 27.094171
vn 4.866894 -3.972872 -0.089576
v -53.573311 52.571703 22.757127
vn 4.872791 -3.965387 -0.099698
v -54.153616 51.849892 23.183913
vn 4.869582 -3.969584 -0.089408
v -54.139453 51.889624 22.212907
vn 4.900893 -3.930792 -0.091656
v -55.296125 50.413767 23.925017
vn 4.891855 -3.941283 -0.116213
v -56.587276 48.821616 23.708218
vn 4.879041 -3.957141 -0.119297
v -56.317201 49.174275 22.943133
vn 4.884706 -3.950615 -0.102789
v -53.475631 52.646709 24.612440
vn 4.878302 -3.958459 -0.105728
v -54.099799 51.865436 25.095955
vn 4.876361 -3.960870 -0.104998
v -54.162895 51.812187 24.149912
vn 4.890888 -3.942862 -0.104307
v -54.762906 51.088674 23.600761
vn 4.899749 -3.931468 -0.117923
v -55.296511 50.436056 23.024524
vn 4.889331 -3.944010 -0.132142
v -55.855507 49.760699 22.450833
vn 4.892606 -3.940012 -0.130839
v -55.473509 50.004368 29.857800
vn 2.430996 -1.956602 -0.066398
v -55.550900 49.893700 30.285450
vn 4.900507 -3.930314 -0.125970
v -55.959072 49.423636 29.181276
vn 4.918560 -3.907273 -0.138735
v -57.285006 47.892285 25.352532
vn 4.909704 -3.918694 -0.130547
v -56.932694 48.362480 24.523278
vn 4.899285 -3.931241 -0.142445
v -56.603164 48.741994 25.510754
vn 4.892620 -3.940782 -0.104508
v -52.789716 53.459188 26.104748
vn 4.887199 -3.947434 -0.106569
v -53.388535 52.703506 26.537382
vn 4.903771 -3.926054 -0.129210
v -55.083210 50.572694 27.086890
vn 4.916637 -3.909520 -0.143973
v -54.981823 50.731558 26.265084
vn 4.904913 -3.924240 -0.141671
v -54.453852 51.376652 26.763568
vn 4.890674 -3.943067 -0.109325
v -55.716893 49.781779 27.264877
vn 4.899701 -3.931385 -0.123063
v -56.367406 48.970481 27.425999
vn 4.889457 -3.943835 -0.131533
v -56.190664 49.217305 26.428498
vn 4.859447 -3.981495 -0.106638
v -55.121509 50.741909 19.937049
vn 4.909603 -3.918849 -0.129584
v -56.441024 48.843447 28.424674
vn 4.899438 -3.931550 -0.129581
v -54.349793 51.406352 29.698545
vn 4.905009 -3.924802 -0.123229
v -54.207849 51.616835 28.621330
vn 2.423765 -1.978189 -0.036860
v -52.968275 53.365300 19.997200
vn 4.874057 -3.964411 -0.069665
v -52.957719 53.315286 23.186875
vn 2.461052 -1.951531 -0.064809
v -58.127150 46.787550 26.534550
vn 4.923880 -3.900654 -0.136614
v -57.682151 47.365051 26.043382
vn 2.271577 -1.836137 -0.049815
v -51.735875 54.730050 27.422675
vn 4.921937 -3.902637 -0.149392
v -57.922322 47.096482 25.095609
vn 2.379285 -1.890808 -0.075976
v -58.380700 46.531150 24.805150
vn 4.893336 -3.939682 -0.112149
v -57.069935 48.278720 21.774141
vn 4.892308 -3.941301 -0.098996
v -56.653329 48.823013 20.800610
vn 4.896006 -3.935794 -0.129622
v -57.493714 47.727875 22.613104
vn 4.900820 -3.930112 -0.119732
v -53.210161 52.863685 28.708154
vn 4.908515 -3.920364 -0.125045
v -53.711671 52.245838 28.374413
vn 4.892918 -3.939680 -0.125857
v -53.863568 52.107216 26.916103
vn 4.883643 -3.951665 -0.112673
v -53.973861 51.994646 26.048526
vn 4.903418 -3.926353 -0.135995
v -57.226765 48.025130 23.564647
vn 4.897985 -3.933294 -0.126993
v -54.612093 51.217514 25.677495
vn 4.905402 -3.923730 -0.140098
v -54.042410 51.854320 27.684623
vn 4.885745 -3.949833 -0.077333
v -52.860984 53.423307 24.083692
vn 4.890451 -3.943550 -0.101505
v -52.711111 53.583737 25.074462
vn 4.881332 -3.954748 -0.103830
v -52.091512 54.333632 25.776966
vn 4.893676 -3.938812 -0.126861
v -54.890640 50.731348 29.743267
vn 4.890171 -3.943195 -0.125896
v -55.378384 50.149872 29.011632
vn 4.885720 -3.949267 -0.105852
v -52.198829 54.177207 26.689551
vn 4.874977 -3.962844 -0.090615
v -51.977850 54.494025 25.002970
vn 4.888934 -3.944888 -0.120074
v -56.481404 49.008321 21.826560
# 139 vertices, 0 vertices normals

f 51//51 25//25 52//52
f 53//53 26//26 54//54
f 55//55 56//56 57//57
f 61//61 62//62 77//77
f 83//83 30//30 29//29
f 64//64 65//65 66//66
f 11//11 67//67 68//68
f 2//2 69//69 70//70
f 45//45 17//17 37//37
f 72//72 73//73 136//136
f 74//74 75//75 76//76
f 83//83 84//84 18//18
f 85//85 86//86 87//87
f 74//74 61//61 111//111
f 88//88 57//57 13//13
f 89//89 90//90 13//13
f 91//91 92//92 93//93
f 94//94 86//86 93//93
f 95//95 96//96 76//76
f 97//97 39//39 98//98
f 136//136 97//97 99//99
f 100//100 101//101 102//102
f 103//103 84//84 104//104
f 105//105 106//106 107//107
f 66//66 87//87 75//75
f 95//95 94//94 88//88
f 72//72 108//108 105//105
f 109//109 110//110 108//108
f 102//102 56//56 110//110
f 19//19 24//24 41//41
f 5//5 111//111 71//71
f 4//4 43//43 42//42
f 112//112 99//99 53//53
f 113//113 73//73 114//114
f 17//17 45//45 115//115
f 11//11 44//44 33//33
f 116//116 85//85 67//67
f 118//118 70//70 117//117
f 109//109 112//112 69//69
f 16//16 47//47 34//34
f 17//17 64//64 37//37
f 6//6 31//31 138//138
f 135//135 49//49 39//39
f 120//120 121//121 81//81
f 122//122 123//123 139//139
f 51//51 122//122 124//124
f 20//20 83//83 125//125
f 126//126 125//125 78//78
f 104//104 127//127 128//128
f 118//118 120//120 100//100
f 96//96 90//90 139//139
f 129//129 89//89 101//101
f 129//129 80//80 124//124
f 128//128 130//130 92//92
f 126//126 114//114 131//131
f 55//55 130//130 106//106
f 132//132 133//133 91//91
f 103//103 133//133 134//134
f 58//58 132//132 116//116
f 119//119 137//137 38//38
f 131//131 107//107 127//127
f 52//52 24//24 51//51
f 16//16 53//53 47//47
f 54//54 47//47 53//53
f 7//7 55//55 57//57
f 55//55 15//15 56//56
f 57//57 56//56 8//8
f 6//6 58//58 60//60
f 63//63 60//60 27//27
f 27//27 60//60 58//58
f 61//61 21//21 62//62
f 77//77 62//62 28//28
f 77//77 4//4 61//61
f 6//6 60//60 31//31
f 63//63 31//31 60//60
f 11//11 33//33 32//32
f 5//5 64//64 66//66
f 64//64 17//17 65//65
f 66//66 65//65 12//12
f 11//11 59//59 67//67
f 68//68 67//67 12//12
f 69//69 34//34 70//70
f 34//34 69//69 16//16
f 35//35 70//70 34//34
f 64//64 5//5 71//71
f 37//37 71//71 36//36
f 64//64 71//71 37//37
f 1//1 72//72 136//136
f 72//72 23//23 73//73
f 136//136 73//73 135//135
f 21//21 74//74 76//76
f 74//74 5//5 75//75
f 76//76 75//75 14//14
f 77//77 43//43 4//4
f 79//79 40//40 78//78
f 80//80 22//22 81//81
f 80//80 81//81 82//82
f 82//82 25//25 80//80
f 83//83 20//20 84//84
f 18//18 84//84 137//137
f 12//12 85//85 87//87
f 85//85 10//10 86//86
f 87//87 86//86 14//14
f 5//5 74//74 111//111
f 74//74 21//21 61//61
f 111//111 61//61 4//4
f 88//88 7//7 57//57
f 13//13 57//57 8//8
f 8//8 89//89 13//13
f 89//89 3//3 90//90
f 10//10 91//91 93//93
f 91//91 9//9 92//92
f 93//93 92//92 7//7
f 7//7 94//94 93//93
f 94//94 14//14 86//86
f 93//93 86//86 10//10
f 14//14 95//95 76//76
f 95//95 13//13 96//96
f 76//76 96//96 21//21
f 39//39 97//97 135//135
f 98//98 26//26 97//97
f 2//2 100//100 102//102
f 100//100 22//22 101//101
f 102//102 101//101 8//8
f 9//9 103//103 104//104
f 104//104 84//84 20//20
f 23//23 105//105 107//107
f 105//105 15//15 106//106
f 5//5 66//66 75//75
f 66//66 12//12 87//87
f 75//75 87//87 14//14
f 13//13 95//95 88//88
f 95//95 14//14 94//94
f 88//88 94//94 7//7
f 23//23 72//72 105//105
f 72//72 1//1 108//108
f 105//105 108//108 15//15
f 1//1 109//109 108//108
f 109//109 2//2 110//110
f 108//108 110//110 15//15
f 2//2 102//102 110//110
f 102//102 8//8 56//56
f 110//110 56//56 15//15
f 42//42 111//111 4//4
f 111//111 42//42 71//71
f 36//36 71//71 42//42
f 16//16 112//112 53//53
f 112//112 1//1 99//99
f 53//53 99//99 26//26
f 59//59 11//11 32//32
f 27//27 59//59 32//32
f 78//78 113//113 114//114
f 114//114 73//73 23//23
f 17//17 115//115 65//65
f 11//11 68//68 44//44
f 115//115 44//44 68//68
f 65//65 115//115 68//68
f 65//65 68//68 12//12
f 59//59 116//116 67//67
f 116//116 10//10 85//85
f 67//67 85//85 12//12
f 46//46 118//118 117//117
f 118//118 2//2 70//70
f 117//117 70//70 35//35
f 2//2 109//109 69//69
f 109//109 1//1 112//112
f 69//69 112//112 16//16
f 119//119 18//18 137//137
f 119//119 30//30 18//18
f 138//138 31//31 48//48
f 46//46 121//121 120//120
f 22//22 120//120 81//81
f 81//81 121//121 82//82
f 3//3 122//122 139//139
f 122//122 19//19 123//123
f 21//21 123//123 62//62
f 28//28 62//62 50//50
f 25//25 51//51 124//124
f 51//51 24//24 19//19
f 124//124 122//122 3//3
f 83//83 29//29 125//125
f 30//30 83//83 18//18
f 79//79 125//125 29//29
f 126//126 20//20 125//125
f 78//78 125//125 79//79
f 9//9 104//104 128//128
f 104//104 20//20 127//127
f 128//128 127//127 107//107
f 2//2 118//118 100//100
f 118//118 46//46 120//120
f 100//100 120//120 22//22
f 21//21 96//96 139//139
f 96//96 13//13 90//90
f 139//139 90//90 3//3
f 22//22 129//129 101//101
f 129//129 3//3 89//89
f 101//101 89//89 8//8
f 3//3 129//129 124//124
f 129//129 22//22 80//80
f 124//124 80//80 25//25
f 9//9 128//128 92//92
f 128//128 107//107 130//130
f 92//92 130//130 7//7
f 20//20 126//126 131//131
f 126//126 78//78 114//114
f 131//131 114//114 23//23
f 15//15 55//55 106//106
f 55//55 7//7 130//130
f 106//106 130//130 107//107
f 10//10 132//132 91//91
f 132//132 6//6 133//133
f 91//91 133//133 9//9
f 103//103 9//9 133//133
f 59//59 58//58 116//116
f 58//58 6//6 132//132
f 116//116 132//132 10//10
f 134//134 133//133 138//138
f 134//134 138//138 48//48
f 134//134 48//48 38//38
f 20//20 131//131 127//127
f 131//131 23//23 107//107
f 40//40 113//113 78//78
f 113//113 40//40 49//49
f 137//137 134//134 38//38
f 99//99 1//1 136//136
f 135//135 73//73 113//113
f 135//135 97//97 136//136
f 49//49 135//135 113//113
f 99//99 97//97 26//26
f 103//103 134//134 137//137
f 137//137 84//84 103//103
f 58//58 59//59 27//27
f 138//138 133//133 6//6
f 62//62 123//123 50//50
f 51//51 19//19 122//122
f 139//139 123//123 21//21
f 19//19 41//41 50//50
f 123//123 19//19 50//50
# 238 faces, 0 coords texture

# End of File
