####
#
# OBJ File Generated by Meshlab
#
####
# Object 2026_C97_S_3.obj
#
# Vertices: 138
# Faces: 237
#
####
vn -4.903916 -3.927637 0.046321
v 56.087735 52.600083 -22.230518
vn -4.897560 -3.935780 0.035278
v 55.320485 53.570092 -20.659319
vn -4.894898 -3.938985 0.050034
v 54.927068 54.028664 -22.700761
vn -4.923131 -3.902844 0.085339
v 56.768420 51.689134 -25.523156
vn -4.943078 -3.876935 0.116822
v 57.888245 50.230386 -26.526607
vn -4.935507 -3.886644 0.110206
v 56.720410 51.697148 -27.516207
vn -4.897929 -3.935249 0.047752
v 53.362387 55.954561 -25.258655
vn -4.901579 -3.930822 0.024590
v 55.733734 53.071183 -18.673600
vn -4.894482 -3.939639 0.034085
v 53.758992 55.483302 -23.178442
vn -4.900689 -3.931796 0.050611
v 58.166356 50.018669 -19.388387
vn -4.932051 -3.890834 0.121174
v 58.773844 49.154805 -24.968135
vn -4.928116 -3.896174 0.107076
v 57.752160 50.461901 -24.650094
vn -4.875926 -3.962743 0.012944
v 54.432530 54.677409 -19.055036
vn -4.932697 -3.890807 0.091230
v 55.453291 53.283411 -28.098164
vn -4.881169 -3.956135 0.027159
v 54.057950 55.131201 -21.057874
vn -4.916396 -3.912220 0.042871
v 58.195915 49.958866 -21.422034
vn -4.906478 -3.924299 0.065428
v 55.817563 52.903326 -24.241453
vn -4.934022 -3.889627 0.065142
v 59.105401 48.792591 -22.494827
vn -4.909396 -3.920741 0.058613
v 57.236117 51.150747 -22.735766
vn -4.914381 -3.914194 0.078509
v 56.756510 51.734468 -23.503847
vn -4.908092 -3.922529 0.052013
v 54.635927 54.367233 -24.823051
vn -4.909935 -3.920385 0.036845
v 56.835748 51.671707 -20.056778
vn -4.899152 -3.933753 0.047410
v 57.240362 51.186049 -18.142466
vn -4.884008 -3.952749 0.018208
v 52.736812 56.746932 -23.399848
vn -4.916031 -3.912132 0.076568
v 55.628130 53.097222 -26.231581
vn -2.210070 -1.791989 0.006700
v 52.471500 57.074000 -23.438250
vn -2.185549 -1.718558 0.046639
v 55.363800 53.380000 -28.732700
vn -2.503622 -1.972429 0.041802
v 54.828500 54.069500 -28.423600
vn -2.388834 -1.883899 0.056916
v 55.897500 52.702100 -28.715000
vn -2.188621 -1.734389 0.035070
v 59.531450 48.250350 -22.748300
vn -2.458696 -2.008838 0.003684
v 53.476100 55.848600 -19.015325
vn -2.200910 -1.797957 0.004023
v 53.185300 56.203500 -19.523700
vn -2.162218 -1.735958 0.029477
v 58.779200 49.262200 -19.045100
vn -2.545366 -2.027991 0.027755
v 59.129900 48.799500 -20.214200
vn -2.269994 -1.804956 0.033568
v 54.541400 54.436500 -28.282300
vn -2.297520 -1.794725 0.055447
v 57.325400 50.900700 -28.227000
vn -2.366032 -1.849993 0.055116
v 57.835900 50.261500 -27.731800
vn -2.483406 -1.969530 0.035991
v 59.383900 48.460200 -21.469900
vn -2.391004 -1.942072 0.008036
v 54.658100 54.404600 -17.575100
vn -2.121685 -1.731754 0.003549
v 53.940500 55.281600 -18.146600
vn -2.194402 -1.731725 0.051314
v 59.271450 48.527400 -24.902600
vn -2.230168 -1.799094 0.035307
v 53.829000 55.331400 -27.603200
vn -2.456111 -1.976080 0.040311
v 53.379775 55.904525 -26.835625
vn -2.146434 -1.725757 0.028354
v 52.951300 56.453300 -26.117800
vn -2.333260 -1.879361 0.019873
v 52.743600 56.722700 -25.273100
vn -2.316366 -1.864370 0.024691
v 58.253400 49.925300 -18.270100
vn -2.350016 -1.890755 0.025255
v 57.672400 50.655400 -17.667500
vn -2.489044 -1.990661 0.009635
v 56.358600 52.293100 -17.123300
vn -2.177146 -1.744620 0.004102
v 55.964300 52.787700 -17.031300
vn -2.175445 -1.750323 0.021065
v 57.123300 51.343600 -17.244200
vn -2.276059 -1.853642 0.001641
v 52.541400 56.988800 -21.607200
vn -2.219117 -1.810728 0.001665
v 52.627400 56.883200 -21.112000
vn -2.519459 -2.057548 0.004666
v 53.009600 56.417300 -20.119900
vn -2.288400 -1.850384 0.005249
v 54.964700 54.026800 -17.366000
vn -2.211552 -1.739005 0.054201
v 58.480300 49.465700 -26.900500
vn -2.142693 -1.703173 0.025301
v 59.304300 48.575400 -20.653500
vn -2.452101 -1.931659 0.062204
v 58.846750 49.029275 -25.994350
vn -4.900628 -3.931952 0.033973
v 55.740175 53.039623 -21.493093
vn -4.888682 -3.946660 0.055105
v 55.108636 53.818203 -21.672212
vn -4.887135 -3.948523 0.058403
v 55.543839 53.269742 -22.473550
vn -4.946476 -3.872763 0.111607
v 57.314602 50.977044 -26.055166
vn -4.928409 -3.895808 0.103240
v 56.745505 51.692848 -26.502056
vn -4.950973 -3.867028 0.111118
v 57.308630 50.956240 -27.091335
vn -4.886556 -3.949620 0.022014
v 54.871298 54.130374 -19.845149
vn -4.901568 -3.930816 0.032690
v 55.537734 53.307307 -19.656805
vn -4.884548 -3.952107 0.020766
v 55.085269 53.871904 -18.886002
vn -4.936154 -3.885533 0.124188
v 58.274120 49.794886 -24.788606
vn -4.939778 -3.881030 0.120593
v 57.833535 50.331646 -25.504861
vn -4.905049 -3.925583 0.092873
v 56.207190 52.381988 -25.890789
vn -4.913912 -3.914575 0.087927
v 56.156825 52.419801 -26.870328
vn -4.927560 -3.897699 0.073312
v 55.554121 53.172250 -27.215361
vn -4.910986 -3.918602 0.068860
v 56.261436 52.335112 -24.927993
vn -4.916811 -3.911504 0.058736
v 56.786477 51.679331 -24.542062
vn -4.919486 -3.908026 0.064965
v 56.328039 52.262550 -24.086230
vn -4.906520 -3.924155 0.071193
v 56.088367 52.581575 -23.212112
vn -4.903982 -3.927118 0.084370
v 55.703042 53.025368 -25.231292
vn -4.877208 -3.961153 0.014779
v 54.237509 54.914009 -20.047165
vn -4.866362 -3.974527 0.008372
v 53.817264 55.430491 -19.312270
vn -4.866430 -3.974440 0.009773
v 53.596131 55.698904 -20.238947
vn -4.910305 -3.919648 0.058726
v 58.621567 49.440581 -19.989330
vn -4.931719 -3.892452 0.073127
v 54.957774 53.920742 -27.648158
vn -4.931588 -3.892096 0.090159
v 57.296185 51.030955 -25.061596
vn -4.926545 -3.898346 0.098925
v 56.095276 52.478716 -27.842578
vn -4.922785 -3.902730 0.108435
v 58.054812 50.102901 -23.916778
vn -4.912416 -3.917106 0.050104
v 54.467956 54.564889 -25.968033
vn -4.906416 -3.924706 0.046626
v 54.001205 55.158484 -25.073223
vn -4.877261 -3.961116 0.014172
v 54.711988 54.335762 -18.177631
vn -4.907433 -3.923443 0.045965
v 54.188253 54.936718 -24.017504
vn -4.898251 -3.934909 0.042212
v 53.594842 55.676453 -24.246361
vn -4.886773 -3.949314 0.022950
v 53.194967 56.180413 -23.348605
vn -4.877092 -3.961291 0.017846
v 53.334748 56.009622 -22.301139
vn -4.911417 -3.918034 0.060900
v 57.839417 50.393710 -23.002397
vn -4.930788 -3.894156 0.033364
v 58.441838 49.639085 -22.362835
vn -4.912202 -3.917615 0.030022
v 57.693032 50.584876 -22.005547
vn -4.909352 -3.920442 0.081008
v 57.374981 50.950887 -23.926824
vn -4.916699 -3.911614 0.051495
v 56.628489 51.918678 -22.454153
vn -4.907708 -3.922661 0.066988
v 54.481290 54.531224 -27.198506
vn -4.900255 -3.932137 0.063182
v 53.721753 55.495366 -26.046909
vn -4.901539 -3.930801 0.045355
v 54.774817 54.206273 -23.753360
vn -4.906125 -3.925107 0.043284
v 54.338551 54.761537 -22.943869
vn -4.901012 -3.931147 0.064057
v 55.228399 53.633773 -24.519906
vn -4.893533 -3.940684 0.051940
v 55.380800 53.455925 -23.482959
vn -4.915324 -3.913207 0.064658
v 55.120339 53.746342 -25.562280
vn -4.927415 -3.898079 0.059818
v 55.040668 53.835059 -26.627565
vn -4.898667 -3.934380 0.045268
v 57.628735 50.695417 -18.736641
vn -4.916658 -3.912104 0.018099
v 56.416420 52.190691 -21.401471
vn -4.915885 -3.912993 0.028731
v 55.994753 52.723965 -20.508929
vn -4.890584 -3.944530 0.035702
v 53.026471 56.379498 -24.340783
vn -2.445949 -1.972707 0.016134
v 52.582275 56.932175 -24.179900
vn -4.914698 -3.914489 0.026457
v 56.337271 52.316020 -18.348814
vn -4.905304 -3.926191 0.035136
v 56.797535 51.740069 -17.982892
vn -4.901727 -3.930790 0.009226
v 55.878015 52.893704 -17.743141
vn -4.908695 -3.921920 0.039155
v 56.935062 51.557917 -19.006922
vn -4.902833 -3.929252 0.040251
v 57.492459 50.854709 -19.847825
vn -4.880312 -3.957386 0.006151
v 52.838087 56.623099 -22.440827
vn -2.435798 -1.977914 0.001295
v 52.507400 57.030250 -22.468450
vn -4.870039 -3.970010 0.010894
v 52.986634 56.442755 -21.319136
vn -4.887438 -3.948565 0.010837
v 55.307750 53.600722 -18.005121
vn -2.312526 -1.817950 0.058906
v 56.696600 51.693300 -28.560825
vn -4.867878 -3.972623 0.018815
v 53.503538 55.809772 -21.281399
vn -4.887418 -3.948361 0.033527
v 53.904962 55.311786 -22.108215
vn -4.914543 -3.914717 0.024645
v 57.070170 51.366969 -21.642970
vn -4.916560 -3.912059 0.040523
v 56.247277 52.417273 -19.479621
vn -4.908777 -3.921773 0.044105
v 58.144780 50.034176 -20.415882
vn -4.917585 -3.910584 0.054630
v 58.768916 49.245456 -20.868970
vn -4.890132 -3.945019 0.038563
v 54.678392 54.364144 -20.850909
vn -4.899025 -3.933884 0.048410
v 54.495032 54.576669 -21.884125
vn -4.906734 -3.924417 0.034865
v 57.566616 50.749847 -20.951986
vn -2.445564 -1.972008 0.002402
v 55.464500 53.407250 -17.198650
vn -4.940029 -3.881521 0.070360
v 58.523869 49.529755 -23.104927
vn -4.928913 -3.896250 0.056466
v 58.760086 49.240007 -21.835196
vn -4.941285 -3.879462 0.108317
v 58.795747 49.156205 -23.997837
vn -2.431946 -1.916631 0.043980
v 59.419300 48.368100 -23.811450
vn -4.935952 -3.885813 0.123495
v 58.398640 49.605752 -25.773573
vn -4.895502 -3.937958 0.069663
v 54.014348 55.119126 -26.725504
vn -4.915200 -3.913868 0.026978
v 56.514722 52.070905 -20.508344
vn -4.909895 -3.920497 0.029916
v 57.036008 51.415599 -20.712952
vn -4.941503 -3.879741 0.083440
v 59.127889 48.749969 -23.205063
# 138 vertices, 0 vertices normals

f 58//58 59//59 60//60
f 61//61 62//62 63//63
f 64//64 65//65 66//66
f 134//134 67//67 68//68
f 14//14 28//28 27//27
f 14//14 27//27 29//29
f 69//69 70//70 62//62
f 71//71 83//83 70//70
f 72//72 73//73 74//74
f 69//69 72//72 76//76
f 77//77 78//78 79//79
f 10//10 80//80 33//33
f 14//14 81//81 28//28
f 61//61 68//68 82//82
f 6//6 83//83 119//119
f 67//67 132//132 84//84
f 98//98 85//85 86//86
f 13//13 87//87 40//40
f 115//115 90//90 91//91
f 73//73 82//82 95//95
f 92//92 93//93 94//94
f 20//20 96//96 75//75
f 84//84 92//92 95//95
f 7//7 45//45 44//44
f 88//88 99//99 100//100
f 99//99 101//101 102//102
f 76//76 101//101 103//103
f 81//81 71//71 104//104
f 106//106 107//107 58//58
f 110//110 111//111 48//48
f 23//23 50//50 111//111
f 105//105 113//113 114//114
f 24//24 26//26 109//109
f 115//115 51//51 116//116
f 66//66 118//118 87//87
f 5//5 37//37 55//55
f 108//108 89//89 90//90
f 106//106 96//96 122//122
f 104//104 103//103 85//85
f 23//23 47//47 50//50
f 10//10 33//33 46//46
f 113//113 110//110 123//123
f 117//117 52//52 51//51
f 124//124 125//125 80//80
f 123//123 65//65 107//107
f 64//64 77//77 126//126
f 75//75 60//60 102//102
f 127//127 121//121 100//100
f 124//124 114//114 128//128
f 59//59 126//126 127//127
f 128//128 122//122 94//94
f 112//112 129//129 118//118
f 16//16 131//131 125//125
f 132//132 41//41 133//133
f 11//11 57//57 41//41
f 134//134 55//55 57//57
f 1//1 58//58 60//60
f 58//58 2//2 59//59
f 60//60 59//59 3//3
f 5//5 61//61 63//63
f 61//61 4//4 62//62
f 63//63 62//62 6//6
f 13//13 64//64 66//66
f 64//64 2//2 65//65
f 66//66 65//65 8//8
f 134//134 11//11 67//67
f 68//68 67//67 12//12
f 4//4 69//69 62//62
f 69//69 25//25 70//70
f 62//62 70//70 6//6
f 25//25 71//71 70//70
f 71//71 14//14 83//83
f 70//70 83//83 6//6
f 17//17 72//72 74//74
f 72//72 4//4 73//73
f 74//74 73//73 20//20
f 20//20 75//75 74//74
f 74//74 75//75 17//17
f 25//25 69//69 76//76
f 69//69 4//4 72//72
f 76//76 72//72 17//17
f 15//15 77//77 79//79
f 77//77 13//13 78//78
f 32//32 78//78 31//31
f 32//32 79//79 78//78
f 80//80 34//34 33//33
f 81//81 35//35 28//28
f 4//4 61//61 82//82
f 61//61 5//5 68//68
f 82//82 68//68 12//12
f 29//29 83//83 14//14
f 83//83 29//29 119//119
f 12//12 67//67 84//84
f 67//67 11//11 132//132
f 84//84 132//132 130//130
f 63//63 36//36 37//37
f 36//36 63//63 6//6
f 5//5 63//63 37//37
f 7//7 98//98 86//86
f 87//87 39//39 40//40
f 86//86 21//21 88//88
f 89//89 88//88 9//9
f 117//117 115//115 91//91
f 115//115 24//24 90//90
f 91//91 90//90 9//9
f 20//20 73//73 95//95
f 73//73 4//4 82//82
f 95//95 82//82 12//12
f 19//19 92//92 94//94
f 92//92 130//130 93//93
f 94//94 93//93 16//16
f 19//19 20//20 95//95
f 20//20 19//19 96//96
f 75//75 96//96 1//1
f 12//12 84//84 95//95
f 84//84 130//130 92//92
f 95//95 92//92 19//19
f 35//35 81//81 97//97
f 135//135 98//98 43//43
f 135//135 42//42 97//97
f 42//42 135//135 43//43
f 9//9 88//88 100//100
f 88//88 21//21 99//99
f 100//100 99//99 3//3
f 3//3 99//99 102//102
f 99//99 21//21 101//101
f 102//102 101//101 17//17
f 25//25 76//76 103//103
f 76//76 17//17 101//101
f 103//103 101//101 21//21
f 97//97 81//81 104//104
f 81//81 14//14 71//71
f 104//104 71//71 25//25
f 105//105 46//46 47//47
f 46//46 105//105 10//10
f 23//23 105//105 47//47
f 1//1 106//106 58//58
f 58//58 107//107 2//2
f 109//109 108//108 24//24
f 7//7 108//108 45//45
f 109//109 45//45 108//108
f 8//8 110//110 112//112
f 112//112 110//110 48//48
f 49//49 112//112 48//48
f 111//111 50//50 48//48
f 10//10 105//105 114//114
f 105//105 23//23 113//113
f 51//51 115//115 117//117
f 24//24 115//115 116//116
f 116//116 26//26 24//24
f 117//117 53//53 52//52
f 13//13 66//66 87//87
f 66//66 8//8 118//118
f 87//87 118//118 54//54
f 39//39 87//87 54//54
f 6//6 119//119 36//36
f 120//120 117//117 91//91
f 121//121 91//91 9//9
f 24//24 108//108 90//90
f 108//108 7//7 89//89
f 90//90 89//89 9//9
f 22//22 136//136 137//137
f 106//106 1//1 96//96
f 122//122 96//96 19//19
f 7//7 44//44 98//98
f 43//43 98//98 44//44
f 104//104 25//25 103//103
f 120//120 15//15 79//79
f 53//53 79//79 32//32
f 53//53 117//117 120//120
f 113//113 23//23 111//111
f 123//123 110//110 8//8
f 13//13 40//40 78//78
f 31//31 78//78 40//40
f 10//10 124//124 80//80
f 124//124 16//16 125//125
f 34//34 125//125 56//56
f 34//34 80//80 125//125
f 22//22 123//123 136//136
f 123//123 8//8 65//65
f 107//107 65//65 2//2
f 2//2 64//64 126//126
f 64//64 13//13 77//77
f 126//126 77//77 15//15
f 17//17 75//75 102//102
f 75//75 1//1 60//60
f 102//102 60//60 3//3
f 3//3 127//127 100//100
f 127//127 15//15 121//121
f 100//100 121//121 9//9
f 16//16 124//124 128//128
f 128//128 114//114 137//137
f 3//3 59//59 127//127
f 59//59 2//2 126//126
f 127//127 126//126 15//15
f 16//16 128//128 94//94
f 94//94 122//122 19//19
f 8//8 112//112 118//118
f 112//112 49//49 129//129
f 118//118 129//129 54//54
f 16//16 93//93 131//131
f 38//38 131//131 18//18
f 131//131 38//38 56//56
f 56//56 125//125 131//131
f 41//41 132//132 11//11
f 133//133 30//30 138//138
f 130//130 132//132 138//138
f 55//55 134//134 5//5
f 11//11 134//134 57//57
f 113//113 111//111 110//110
f 5//5 134//134 68//68
f 98//98 135//135 85//85
f 86//86 88//88 89//89
f 7//7 86//86 89//89
f 85//85 103//103 21//21
f 86//86 85//85 21//21
f 97//97 104//104 85//85
f 97//97 85//85 135//135
f 97//97 42//42 35//35
f 18//18 30//30 38//38
f 22//22 114//114 113//113
f 124//124 10//10 114//114
f 22//22 113//113 123//123
f 120//120 79//79 53//53
f 106//106 136//136 107//107
f 136//136 106//106 137//137
f 122//122 137//137 106//106
f 136//136 123//123 107//107
f 137//137 114//114 22//22
f 128//128 137//137 122//122
f 133//133 138//138 132//132
f 138//138 30//30 18//18
f 130//130 138//138 18//18
f 120//120 91//91 121//121
f 93//93 130//130 18//18
f 15//15 120//120 121//121
f 131//131 93//93 18//18
# 237 faces, 0 coords texture

# End of File
