####
#
# OBJ File Generated by Meshlab
#
####
# Object 2033_C98_S_4.obj
#
# Vertices: 136
# Faces: 234
#
####
vn 4.926374 -3.897640 -0.131223
v -57.652182 49.335086 25.001681
vn 4.951524 -3.864948 -0.146892
v -58.504254 48.201594 26.472420
vn 4.925984 -3.898374 -0.124962
v -57.999385 48.959179 23.013768
vn 4.922842 -3.902123 -0.131968
v -56.411615 50.882550 25.368615
vn 4.901322 -3.929842 -0.107719
v -53.489697 54.531959 26.073693
vn 4.897051 -3.935748 -0.083807
v -53.817065 54.169861 23.983052
vn 4.916161 -3.910437 -0.134555
v -55.172755 52.320457 29.055204
vn 4.931675 -3.890763 -0.136765
v -56.567201 50.573815 28.561045
vn 4.910290 -3.918256 -0.115603
v -54.915506 52.776226 25.336357
vn 4.927767 -3.894487 -0.153089
v -56.031764 51.204847 30.290825
vn 4.901883 -3.929537 -0.092806
v -52.750025 55.488967 24.636027
vn 4.914415 -3.913307 -0.113645
v -56.892647 50.374752 22.265762
vn 4.907292 -3.922947 -0.085900
v -53.007116 55.207449 22.786316
vn 4.944256 -3.874291 -0.149229
v -58.839599 47.842726 24.445949
vn 4.892997 -3.940274 -0.104782
v -55.627321 52.026070 19.846632
vn 4.912541 -3.915034 -0.133042
v -54.211486 53.586149 27.461601
vn 4.917074 -3.909994 -0.111443
v -55.975222 51.489485 23.694608
vn 4.922750 -3.902620 -0.117867
v -57.805774 49.267390 21.009063
vn 4.886380 -3.948618 -0.100439
v -54.590016 53.284623 20.715905
vn 4.924462 -3.899886 -0.137718
v -55.728139 51.688124 27.079960
vn 4.941745 -3.877504 -0.147319
v -57.050961 49.926757 29.382375
vn 4.918985 -3.907266 -0.123527
v -57.191255 49.940165 24.207426
vn 4.893947 -3.939455 -0.088140
v -54.871738 52.881086 23.283868
vn 4.908147 -3.921216 -0.112121
v -56.707394 50.662312 20.309987
vn 4.901913 -3.929279 -0.101267
v -55.630111 51.974206 21.648630
vn 4.935181 -3.885844 -0.148640
v -57.944996 48.847194 28.169262
vn 4.924185 -3.900102 -0.141333
v -57.160295 49.890612 26.793213
vn 2.246227 -1.767890 -0.048163
v -58.704200 48.101400 21.737800
vn 2.446878 -1.923453 -0.058988
v -58.246600 48.710100 20.908000
vn 2.304089 -1.829455 -0.062343
v -59.024800 47.670700 22.822100
vn 2.196817 -1.754023 -0.039732
v -52.749500 55.537200 22.472800
vn 2.212800 -1.772589 -0.041709
v -52.357800 55.986200 24.315500
vn 2.327914 -1.795602 -0.067445
v -59.155400 47.372800 26.065500
vn 2.451937 -1.898807 -0.077279
v -59.220400 47.328300 25.007800
vn 2.308034 -1.856509 -0.047980
v -52.344000 55.968700 25.616850
vn 2.207504 -1.730307 -0.076855
v -59.254200 47.323500 24.227200
vn 2.248940 -1.770455 -0.062951
v -58.305300 48.364800 28.865700
vn 2.452662 -1.942873 -0.082535
v -57.662400 49.139300 29.728100
vn 2.248643 -1.797210 -0.052651
v -56.601300 50.822200 19.385000
vn 2.317649 -1.850810 -0.053060
v -57.262575 49.983500 19.753800
vn 2.361792 -1.851160 -0.088778
v -56.243300 50.910700 30.802100
vn 2.317741 -1.797176 -0.073969
v -58.944200 47.604800 27.188200
vn 2.310814 -1.845824 -0.067282
v -54.692300 52.864850 30.619350
vn 2.399992 -1.920864 -0.074411
v -55.222400 52.196700 30.784200
vn 2.200251 -1.750974 -0.066354
v -53.998042 53.751538 30.177186
vn 2.187218 -1.737527 -0.094022
v -55.908600 51.325700 30.922600
vn 2.497264 -1.975264 -0.075308
v -59.107500 47.544700 23.384600
vn 2.300992 -1.845304 -0.052056
v -55.901800 51.699300 19.306300
vn 2.208053 -1.756293 -0.058380
v -53.049000 55.000500 28.835600
vn 2.231258 -1.771253 -0.051129
v -57.916200 49.147350 20.344100
vn 2.396793 -1.864937 -0.073489
v -58.664600 47.928600 28.009700
vn 2.485897 -1.986471 -0.043868
v -53.157000 55.045200 21.638900
vn 2.190127 -1.770602 -0.044603
v -54.530350 53.381500 19.785700
vn 2.445599 -1.969422 -0.051899
v -53.970600 54.061500 20.400400
vn 2.215966 -1.740381 -0.072821
v -57.382950 49.475400 30.093900
vn 2.179522 -1.748012 -0.042797
v -53.462800 54.677600 20.959000
vn 2.155566 -1.730576 -0.048439
v -52.535200 55.682700 27.450600
vn 2.473564 -1.976515 -0.058597
v -52.827100 55.297000 28.215800
vn 2.444296 -1.967211 -0.052034
v -52.442000 55.822300 26.565000
vn 4.929952 -3.893508 -0.119881
v -58.044401 48.939070 21.830746
vn 4.927875 -3.896103 -0.120722
v -58.536704 48.289012 22.716908
vn 4.885109 -3.950513 -0.086265
v -54.388017 53.471639 23.625404
vn 4.882354 -3.954125 -0.076950
v -54.512976 53.335890 22.649053
vn 4.894640 -3.938811 -0.079434
v -53.929527 54.050779 22.951085
vn 4.925786 -3.898071 -0.141704
v -56.142070 51.137979 27.826462
vn 4.923719 -3.900883 -0.135983
v -55.403916 52.063879 28.036127
vn 4.925164 -3.899484 -0.122205
v -55.858547 51.462701 28.778970
vn 4.908651 -3.920063 -0.126849
v -55.603543 51.750947 29.977106
vn 4.937951 -3.883463 -0.113341
v -56.294447 50.894418 29.482123
vn 4.905254 -3.925535 -0.084137
v -52.856487 55.374688 23.768705
vn 2.436355 -1.949033 -0.042254
v -52.554000 55.761425 23.359325
vn 4.881670 -3.954375 -0.103097
v -55.122765 52.640436 20.177808
vn 2.315197 -1.873319 -0.049354
v -55.328450 52.407025 19.417475
vn 4.906900 -3.923462 -0.084792
v -53.472451 54.637391 22.234313
vn 4.905694 -3.925007 -0.083086
v -53.376408 54.734317 23.334299
vn 4.904797 -3.926089 -0.084893
v -53.240576 54.883016 24.318028
vn 4.939479 -3.881135 -0.129440
v -58.268324 48.559464 24.758355
vn 4.934367 -3.887324 -0.137733
v -58.075236 48.772378 25.745676
vn 4.899707 -3.932190 -0.095145
v -53.044154 55.106192 25.321214
vn 4.924681 -3.898640 -0.162719
v -57.622510 49.219618 28.997983
vn 4.957911 -3.856797 -0.148208
v -56.642856 50.427893 30.089533
vn 2.470582 -1.918529 -0.087364
v -56.761100 50.257550 30.486450
vn 4.903729 -3.925768 -0.141820
v -55.086148 52.395030 29.985407
vn 4.899977 -3.932085 -0.085544
v -53.659140 54.345589 24.995490
vn 4.895158 -3.937560 -0.104952
v -55.616754 52.019455 20.604554
vn 4.884355 -3.951216 -0.096604
v -55.108528 52.630076 21.262433
vn 4.916656 -3.909571 -0.141735
v -54.634853 53.021816 28.355107
vn 4.917351 -3.908910 -0.134849
v -53.503863 54.441022 28.462986
vn 2.453623 -1.944844 -0.074908
v -53.508100 54.396050 29.491400
vn 4.898766 -3.933036 -0.105710
v -54.123083 53.753296 25.714648
vn 4.905545 -3.924127 -0.123389
v -53.815182 54.103087 26.771616
vn 4.912247 -3.915297 -0.135558
v -54.562734 53.178779 26.504663
vn 4.913604 -3.914125 -0.119935
v -57.387046 49.775886 21.568421
vn 4.908928 -3.920255 -0.111528
v -56.787899 50.534106 21.274292
vn 4.927130 -3.895786 -0.156717
v -57.262120 49.703036 28.360806
vn 4.898497 -3.933645 -0.096423
v -54.894526 52.830872 24.175328
vn 4.918692 -3.907913 -0.112174
v -55.501229 52.063946 24.472138
vn 4.908261 -3.921468 -0.097336
v -55.375564 52.245512 23.481280
vn 4.909207 -3.919973 -0.109148
v -56.171805 51.315145 20.954195
vn 4.921842 -3.903642 -0.124103
v -56.569497 50.734163 23.883763
vn 4.920466 -3.905591 -0.117368
v -57.007054 50.202456 23.210010
vn 4.917409 -3.909714 -0.107290
v -56.420680 50.949078 22.965486
vn 4.918542 -3.907889 -0.121479
v -57.475270 49.633160 22.549909
vn 4.908978 -3.920197 -0.111342
v -57.309221 49.899528 20.653149
vn 4.924665 -3.899590 -0.138714
v -55.322901 52.228099 26.291086
vn 4.894114 -3.939253 -0.089026
v -55.149284 52.554577 22.439550
vn 4.882792 -3.953294 -0.089890
v -54.650947 53.184709 21.690355
vn 4.925789 -3.898400 -0.132208
v -56.068326 51.288290 26.197103
vn 4.923631 -3.900962 -0.136824
v -56.457869 50.772135 26.937261
vn 4.920152 -3.905461 -0.133616
v -56.770554 50.405860 26.084751
vn 4.893703 -3.939727 -0.089584
v -54.032156 53.944819 21.894642
vn 4.906739 -3.923013 -0.110819
v -56.113082 51.414296 20.017143
vn 4.890592 -3.943288 -0.104727
v -54.156007 53.812240 21.101824
vn 4.932924 -3.889236 -0.135554
v -58.440774 48.374062 23.730230
vn 4.904453 -3.925749 -0.114776
v -53.110495 54.974766 27.127844
vn 4.896805 -3.935545 -0.105614
v -52.884910 55.277166 26.368801
vn 4.929745 -3.893612 -0.124676
v -57.853990 49.111126 24.023258
vn 4.910282 -3.918269 -0.121300
v -53.499144 54.471857 27.655732
vn 4.922745 -3.901891 -0.141904
v -57.430098 49.581878 25.928202
vn 4.916580 -3.909997 -0.132509
v -57.033552 50.105478 25.222432
vn 4.892095 -3.941800 -0.089092
v -54.305010 53.549287 24.652376
vn 4.919311 -3.906605 -0.131143
v -56.682518 50.565129 24.659797
vn 4.919289 -3.907008 -0.119595
v -57.513014 49.559634 23.405305
vn 4.928051 -3.895560 -0.131664
v -55.719499 51.757620 25.387758
vn 4.911376 -3.917361 -0.105084
v -56.267605 51.166241 21.972632
vn 4.909571 -3.919762 -0.099859
v -55.796245 51.738925 22.708652
vn 4.925394 -3.898973 -0.129985
v -56.150894 51.238356 24.584766
vn 4.927560 -3.895712 -0.144876
v -57.554382 49.366610 27.486761
vn 4.925079 -3.898823 -0.145554
v -56.858040 50.240465 27.653836
vn 4.944362 -3.873847 -0.156047
v -58.243487 48.499607 27.333079
vn 4.928933 -3.893944 -0.145718
v -57.834579 49.043260 26.640137
vn 4.957698 -3.857459 -0.137310
v -58.693951 47.993292 25.478421
vn 4.917828 -3.907771 -0.150493
v -54.031394 53.758138 28.912705
vn 4.920999 -3.904197 -0.139331
v -54.966724 52.641273 27.268732
vn 4.911436 -3.915930 -0.147297
v -54.569747 53.062889 29.421077
vn 4.915112 -3.911574 -0.139973
v -53.977838 53.856971 28.102294
# 136 vertices, 0 vertices normals

f 18//18 60//60 29//29
f 62//62 63//63 64//64
f 65//65 66//66 67//67
f 68//68 69//69 67//67
f 13//13 31//31 71//71
f 14//14 132//132 34//34
f 64//64 74//74 75//75
f 70//70 76//76 75//75
f 132//132 77//77 78//78
f 5//5 79//79 116//116
f 14//14 34//34 36//36
f 26//26 80//80 37//37
f 11//11 32//32 35//35
f 24//24 40//40 39//39
f 81//81 41//41 82//82
f 2//2 42//42 33//33
f 46//46 10//10 44//44
f 135//135 43//43 83//83
f 10//10 46//46 41//41
f 10//10 68//68 44//44
f 76//76 79//79 84//84
f 85//85 72//72 86//86
f 14//14 36//36 47//47
f 15//15 48//48 73//73
f 133//133 88//88 89//89
f 90//90 91//91 92//92
f 93//93 104//104 94//94
f 80//80 95//95 21//21
f 96//96 97//97 98//98
f 112//112 85//85 99//99
f 100//100 101//101 102//102
f 18//18 29//29 50//50
f 60//60 93//93 103//103
f 104//104 50//50 40//40
f 105//105 92//92 134//134
f 26//26 37//37 51//51
f 13//13 52//52 31//31
f 19//19 53//53 54//54
f 106//106 107//107 63//63
f 108//108 109//109 110//110
f 38//38 21//21 55//55
f 13//13 74//74 52//52
f 15//15 112//112 48//48
f 81//81 21//21 69//69
f 118//118 115//115 58//58
f 113//113 107//107 19//19
f 3//3 114//114 61//61
f 59//59 57//57 116//116
f 117//117 77//77 114//114
f 16//16 118//118 136//136
f 119//119 120//120 110//110
f 121//121 96//96 62//62
f 22//22 122//122 120//120
f 22//22 117//117 123//123
f 124//124 105//105 108//108
f 94//94 99//99 125//125
f 126//126 102//102 125//125
f 126//126 106//106 98//98
f 103//103 101//101 123//123
f 127//127 122//122 100//100
f 115//115 118//118 91//91
f 128//128 129//129 95//95
f 109//109 65//65 129//129
f 97//97 124//124 127//127
f 119//119 131//131 78//78
f 128//128 130//130 131//131
f 121//121 84//84 90//90
f 134//134 87//87 66//66
f 60//60 3//3 61//61
f 60//60 61//61 28//28
f 60//60 28//28 29//29
f 6//6 62//62 64//64
f 62//62 23//23 63//63
f 64//64 63//63 111//111
f 8//8 65//65 67//67
f 65//65 20//20 66//66
f 67//67 66//66 7//7
f 28//28 61//61 30//30
f 7//7 68//68 67//67
f 68//68 10//10 69//69
f 67//67 69//69 8//8
f 71//71 70//70 13//13
f 11//11 70//70 32//32
f 71//71 32//32 70//70
f 73//73 72//72 15//15
f 19//19 72//72 53//53
f 73//73 53//53 72//72
f 132//132 33//33 34//34
f 6//6 64//64 75//75
f 64//64 111//111 74//74
f 75//75 74//74 13//13
f 13//13 70//70 75//75
f 70//70 11//11 76//76
f 75//75 76//76 6//6
f 2//2 132//132 78//78
f 132//132 14//14 77//77
f 78//78 77//77 1//1
f 35//35 79//79 11//11
f 79//79 35//35 116//116
f 21//21 38//38 80//80
f 80//80 38//38 37//37
f 10//10 81//81 69//69
f 55//55 21//21 81//81
f 81//81 82//82 55//55
f 68//68 7//7 83//83
f 44//44 83//83 43//43
f 68//68 83//83 44//44
f 7//7 135//135 83//83
f 135//135 45//45 43//43
f 6//6 76//76 84//84
f 76//76 11//11 79//79
f 84//84 79//79 5//5
f 25//25 85//85 86//86
f 85//85 15//15 72//72
f 86//86 72//72 19//19
f 89//89 88//88 49//49
f 9//9 90//90 92//92
f 90//90 5//5 91//91
f 12//12 93//93 94//94
f 93//93 18//18 104//104
f 94//94 104//104 24//24
f 80//80 26//26 95//95
f 21//21 95//95 8//8
f 23//23 96//96 98//98
f 96//96 9//9 97//97
f 98//98 97//97 17//17
f 24//24 112//112 99//99
f 112//112 15//15 85//85
f 99//99 85//85 25//25
f 17//17 100//100 102//102
f 100//100 22//22 101//101
f 102//102 101//101 12//12
f 3//3 60//60 103//103
f 60//60 18//18 93//93
f 103//103 93//93 12//12
f 50//50 104//104 18//18
f 24//24 104//104 40//40
f 105//105 9//9 92//92
f 23//23 106//106 63//63
f 106//106 25//25 86//86
f 63//63 107//107 111//111
f 4//4 108//108 110//110
f 108//108 20//20 109//109
f 110//110 109//109 27//27
f 74//74 111//111 56//56
f 74//74 56//56 52//52
f 39//39 112//112 24//24
f 112//112 39//39 48//48
f 10//10 41//41 81//81
f 69//69 21//21 8//8
f 54//54 113//113 19//19
f 56//56 111//111 113//113
f 113//113 111//111 107//107
f 114//114 47//47 61//61
f 47//47 114//114 14//14
f 30//30 61//61 47//47
f 116//116 57//57 115//115
f 59//59 116//116 35//35
f 3//3 117//117 114//114
f 117//117 1//1 77//77
f 114//114 77//77 14//14
f 118//118 58//58 88//88
f 49//49 88//88 58//58
f 27//27 119//119 110//110
f 119//119 1//1 120//120
f 110//110 120//120 4//4
f 6//6 121//121 62//62
f 121//121 9//9 96//96
f 62//62 96//96 23//23
f 1//1 22//22 120//120
f 120//120 122//122 4//4
f 22//22 1//1 117//117
f 123//123 117//117 3//3
f 4//4 124//124 108//108
f 124//124 9//9 105//105
f 108//108 105//105 20//20
f 12//12 94//94 125//125
f 94//94 24//24 99//99
f 125//125 99//99 25//25
f 25//25 126//126 125//125
f 126//126 17//17 102//102
f 125//125 102//102 12//12
f 17//17 126//126 98//98
f 126//126 25//25 106//106
f 98//98 106//106 23//23
f 3//3 103//103 123//123
f 103//103 12//12 101//101
f 123//123 101//101 22//22
f 17//17 127//127 100//100
f 127//127 4//4 122//122
f 100//100 122//122 22//22
f 91//91 118//118 16//16
f 26//26 128//128 95//95
f 128//128 27//27 129//129
f 95//95 129//129 8//8
f 130//130 51//51 42//42
f 51//51 130//130 26//26
f 2//2 130//130 42//42
f 27//27 109//109 129//129
f 109//109 20//20 65//65
f 129//129 65//65 8//8
f 17//17 97//97 127//127
f 97//97 9//9 124//124
f 127//127 124//124 4//4
f 1//1 119//119 78//78
f 119//119 27//27 131//131
f 78//78 131//131 2//2
f 27//27 128//128 131//131
f 128//128 26//26 130//130
f 131//131 130//130 2//2
f 9//9 121//121 90//90
f 121//121 6//6 84//84
f 90//90 84//84 5//5
f 20//20 134//134 66//66
f 66//66 87//87 7//7
f 33//33 132//132 2//2
f 113//113 54//54 56//56
f 16//16 136//136 87//87
f 135//135 87//87 133//133
f 19//19 107//107 86//86
f 115//115 57//57 58//58
f 134//134 92//92 16//16
f 134//134 16//16 87//87
f 20//20 105//105 134//134
f 45//45 135//135 133//133
f 86//86 107//107 106//106
f 5//5 116//116 115//115
f 16//16 92//92 91//91
f 5//5 115//115 91//91
f 45//45 133//133 89//89
f 136//136 118//118 88//88
f 136//136 133//133 87//87
f 133//133 136//136 88//88
f 87//87 135//135 7//7
# 234 faces, 0 coords texture

# End of File
