####
#
# OBJ File Generated by Meshlab
#
####
# Object 2037_C99_S_3.obj
#
# Vertices: 144
# Faces: 247
#
####
vn -4.957688 -3.858330 0.113638
v 58.202412 51.774596 -26.949855
vn -4.953087 -3.864408 0.104983
v 56.954334 53.360245 -27.649977
vn -4.915937 -3.912973 0.023133
v 56.646521 53.885497 -18.260860
vn -4.909787 -3.920606 0.017250
v 55.572650 55.231944 -19.314848
vn -4.900237 -3.932572 0.027355
v 54.297578 56.793651 -22.084022
vn -4.913800 -3.915098 0.052075
v 55.175877 55.695974 -23.373879
vn -4.926973 -3.898680 0.054899
v 56.407943 54.149715 -22.618370
vn -4.937640 -3.884428 0.092759
v 55.892356 54.696960 -28.411552
vn -4.939997 -3.881666 0.079607
v 57.155412 53.149402 -25.789621
vn -4.921972 -3.904907 0.065140
v 54.758517 56.179702 -25.526335
vn -4.931126 -3.893199 0.071657
v 57.425139 52.840591 -23.883165
vn -4.944555 -3.876036 0.076366
v 59.987155 49.600951 -22.343493
vn -4.932994 -3.891091 0.057835
v 59.170025 50.682557 -19.514717
vn -4.940135 -3.882141 0.047094
v 59.073013 50.778478 -21.369239
vn -4.932127 -3.892324 0.046946
v 57.959653 52.214148 -20.029429
vn -4.927066 -3.898344 0.068560
v 56.079365 54.520807 -24.659385
vn -4.926982 -3.898885 0.041976
v 58.184142 51.950780 -18.277611
vn -4.924322 -3.902311 0.037388
v 56.607723 53.916285 -20.588572
vn -4.910330 -3.919913 0.034040
v 53.984534 57.175139 -23.952456
vn -4.951606 -3.866440 0.102662
v 58.467120 51.484237 -25.117936
vn -4.932767 -3.891542 0.045251
v 57.738346 52.471838 -21.934732
vn -4.946208 -3.873611 0.072127
v 58.767058 51.155806 -23.235248
vn -4.961404 -3.853705 0.108626
v 59.730837 49.879697 -24.456980
vn -4.963894 -3.850338 0.113511
v 59.397301 50.257251 -26.292336
vn -4.927557 -3.897741 0.068699
v 55.827872 54.813574 -26.695411
vn -4.908328 -3.922411 0.034502
v 55.405247 55.422861 -21.335910
vn -4.895466 -3.938501 0.024422
v 54.361743 56.735275 -20.079770
vn -2.517651 -1.965523 0.067410
v 58.415600 51.453000 -28.407500
vn -2.163264 -1.679329 0.058204
v 58.025600 51.937350 -28.810850
vn -2.518255 -1.944718 0.059351
v 57.448500 52.680700 -28.975600
vn -2.190645 -1.702683 0.050959
v 56.835400 53.467100 -29.192300
vn -2.340772 -1.822291 0.049019
v 60.379300 49.058800 -24.010700
vn -2.430688 -1.900312 0.047737
v 60.412700 49.038500 -23.094500
vn -2.417862 -1.928942 0.007525
v 53.309000 58.025600 -23.042700
vn -2.182663 -1.722606 0.028625
v 60.149600 49.422500 -20.828200
vn -2.561778 -2.023811 0.030556
v 59.918400 49.723400 -20.268400
vn -2.205061 -1.744200 0.027487
v 59.606600 50.134700 -19.258500
vn -2.093576 -1.687608 0.004146
v 53.935800 57.264700 -19.665300
vn -2.493996 -2.011393 0.001073
v 54.301900 56.810200 -19.138900
vn -2.529704 -1.994205 0.035876
v 60.209000 49.339400 -21.254800
vn -2.273135 -1.805472 0.034568
v 54.582891 56.357788 -27.866200
vn -2.181486 -1.756853 -0.001729
v 54.747800 56.257800 -18.413300
vn -2.148317 -1.700571 0.016865
v 58.351000 51.745250 -17.747150
vn -2.228854 -1.736424 0.053116
v 59.014700 50.703800 -27.855300
vn -2.166450 -1.707654 0.039816
v 55.657300 54.983550 -28.907600
vn -2.220704 -1.762592 0.030697
v 53.674875 57.535125 -26.117100
vn -2.482187 -1.938994 0.056674
v 56.396100 54.033100 -29.082100
vn -2.447092 -1.966793 0.017771
v 53.706000 57.545700 -20.562700
vn -2.232451 -1.759640 0.043478
v 60.416300 49.056800 -22.331200
vn -2.287565 -1.812259 0.018316
v 53.418000 57.879850 -24.895800
vn -2.516259 -1.948387 0.059120
v 59.918700 49.591500 -26.048000
vn -2.183724 -1.685335 0.054760
v 59.735200 49.806800 -26.681000
vn -2.486170 -1.974229 0.014473
v 57.638900 52.643500 -17.532400
vn -2.136137 -1.704871 0.011418
v 56.924100 53.544700 -17.277200
vn -2.312065 -1.856116 -0.005382
v 55.902700 54.815500 -17.591000
vn -2.268570 -1.812593 0.008912
v 53.303746 58.033372 -22.721975
vn -2.344629 -1.852710 0.027996
v 59.351700 50.462500 -18.857100
vn -2.536349 -1.968858 0.057691
v 59.286400 50.368500 -27.375800
vn -2.287557 -1.773414 0.052792
v 60.214200 49.236400 -25.119000
vn -4.902664 -3.929607 0.020035
v 54.183668 56.930863 -23.015702
vn -4.901395 -3.930962 0.042596
v 54.585298 56.427661 -23.703362
vn -4.894201 -3.940148 0.020994
v 54.751577 56.226137 -22.705814
vn -4.968460 -3.844128 0.124329
v 57.452317 52.697921 -28.249519
vn -4.960816 -3.854242 0.115413
v 56.891316 53.415588 -28.509754
vn -4.961368 -3.854102 0.095180
v 59.861735 49.735165 -23.512476
vn -4.909554 -3.921010 0.019020
v 53.652453 57.594442 -23.209538
vn -2.427343 -1.934729 0.011075
v 53.348950 57.971900 -23.901900
vn -4.935808 -3.887536 0.056973
v 59.137864 50.710022 -20.415648
vn -4.932583 -3.891556 0.061712
v 59.702286 49.985992 -21.025965
vn -4.930588 -3.894109 0.060084
v 59.543581 50.200315 -20.104001
vn -4.943882 -3.877314 0.048464
v 59.545750 50.167529 -22.021122
vn -4.961236 -3.854700 0.067781
v 59.399906 50.346532 -22.937529
vn -4.946620 -3.874068 0.028145
v 58.929537 50.955022 -22.303807
vn -4.921098 -3.906404 0.034787
v 56.062346 54.609679 -19.906257
vn -4.909567 -3.920840 0.035814
v 55.454116 55.371679 -20.310169
vn -4.919721 -3.908123 0.036482
v 55.987885 54.693383 -20.955020
vn -4.930137 -3.894315 0.078948
v 55.818135 54.806773 -27.641977
vn -4.919252 -3.908152 0.075583
v 55.217855 55.571472 -27.217526
vn -4.922000 -3.904659 0.077228
v 55.345716 55.392565 -28.111114
vn -4.928983 -3.896316 0.045456
v 58.052733 52.107952 -19.069158
vn -4.938253 -3.884486 0.053063
v 58.609801 51.391502 -19.758412
vn -4.956496 -3.860212 0.101558
v 57.692423 52.444931 -26.358189
vn -4.956633 -3.859951 0.104760
v 58.341376 51.620793 -26.041840
vn -4.952519 -3.865601 0.088503
v 57.815448 52.311871 -25.439173
vn -4.905389 -3.926260 -0.005540
v 55.863391 54.866183 -18.183598
vn -2.382371 -1.908709 -0.006002
v 55.411925 55.429650 -17.893025
vn -4.907685 -3.923341 0.021070
v 53.760042 57.464523 -22.375482
vn -4.902980 -3.929115 0.032245
v 53.900195 57.293453 -21.541997
vn -2.317884 -1.853590 0.013111
v 53.470925 57.830700 -21.481325
vn -4.959349 -3.855575 0.133156
v 58.014587 51.980703 -28.001632
vn -4.955169 -3.861329 0.121659
v 58.591034 51.258465 -27.496131
vn -4.957558 -3.858568 0.111665
v 59.102661 50.677254 -24.793645
vn -4.957106 -3.859296 0.106546
v 58.967208 50.825412 -25.723117
vn -4.934869 -3.888843 0.047172
v 57.859878 52.329193 -20.985929
vn -4.940631 -3.881629 0.037060
v 58.418475 51.609041 -21.646580
vn -4.940822 -3.881213 0.053430
v 58.531111 51.477497 -20.707500
vn -4.921679 -3.905263 0.065905
v 54.214970 56.858973 -25.889788
vn -2.352896 -1.867312 0.035480
v 54.150500 56.916300 -27.155300
vn -4.919991 -3.907282 0.072402
v 54.661863 56.281312 -26.662512
vn -4.945486 -3.874399 0.095837
v 56.379494 54.083693 -28.080516
vn -4.938043 -3.884169 0.085529
v 56.403787 54.071116 -27.165525
vn -4.899149 -3.933856 0.038790
v 54.877593 56.086468 -20.704178
vn -4.895466 -3.938479 0.032719
v 54.839777 56.122309 -21.716345
vn -4.897459 -3.935925 0.042500
v 54.316918 56.779496 -21.124108
vn -4.928984 -3.896388 0.040922
v 57.176328 53.189800 -21.272581
vn -4.926437 -3.899612 0.040464
v 57.277822 53.072792 -20.286899
vn -4.922477 -3.904637 0.037758
v 57.378593 52.955202 -19.255020
vn -4.923452 -3.903460 0.031455
v 56.704622 53.803930 -19.501971
vn -4.915522 -3.913100 0.059250
v 54.368068 56.682246 -24.746385
vn -4.922280 -3.904748 0.047837
v 53.796769 57.402075 -24.862640
vn -4.920844 -3.906060 0.075496
v 54.961322 55.945872 -24.428242
vn -4.942024 -3.878942 0.090393
v 57.947050 52.161161 -24.503621
vn -4.933894 -3.889707 0.067768
v 57.282437 53.004933 -24.843500
vn -4.925366 -3.901002 0.036106
v 56.520433 54.017049 -21.606713
vn -4.932510 -3.891844 0.046980
v 57.061364 53.325959 -22.259345
vn -4.928256 -3.896866 0.069836
v 56.912466 53.500282 -23.255873
vn -4.929412 -3.895667 0.054984
v 57.584593 52.652660 -22.905611
vn -4.929275 -3.895307 0.080059
v 58.100226 51.993265 -23.548234
vn -4.931650 -3.892998 0.038494
v 58.265259 51.797894 -22.588296
vn -2.442754 -1.937734 0.035553
v 55.104750 55.691300 -28.385400
vn -4.931960 -3.892219 0.066529
v 55.398657 55.375805 -25.096620
vn -4.935240 -3.887734 0.085693
v 55.603614 55.138677 -24.036320
vn -4.928263 -3.896579 0.084852
v 56.252226 54.324501 -23.636524
vn -4.919995 -3.907268 0.072155
v 56.752833 53.680463 -24.252282
vn -4.927848 -3.897477 0.059038
v 55.783255 54.933917 -22.999145
vn -4.920965 -3.906341 0.054370
v 56.607977 53.847177 -25.234719
vn -4.946765 -3.872779 0.095740
v 57.046561 53.265443 -26.725910
vn -4.929610 -3.895118 0.069189
v 56.485631 53.989796 -26.214761
vn -4.961217 -3.853737 0.114835
v 57.575642 52.570670 -27.304597
vn -4.918925 -3.909134 0.034304
v 57.417582 52.918095 -18.114612
vn -4.915903 -3.913024 0.015137
v 56.203567 54.440874 -18.740621
vn -2.451737 -1.964321 0.004521
v 56.413400 54.180100 -17.434100
vn -4.895658 -3.938324 0.014506
v 54.832776 56.152302 -19.491015
vn -4.920390 -3.907316 0.032497
v 55.907345 54.785665 -21.976232
vn -4.946031 -3.873269 0.112175
v 58.609256 51.329879 -24.179541
vn -4.934545 -3.889166 0.054847
v 58.714437 51.268948 -18.918685
vn -2.443505 -1.928665 0.029191
v 58.937900 50.994400 -18.380800
vn -4.958212 -3.857772 0.110165
v 58.932817 50.839377 -26.815151
vn -4.961862 -3.853107 0.108802
v 59.574584 50.054345 -25.397939
vn -4.962635 -3.852113 0.108542
v 59.245973 50.521197 -23.859810
vn -4.907115 -3.923950 0.026538
v 55.319572 55.523242 -22.352401
vn -4.922647 -3.904121 0.060003
v 55.259404 55.538679 -26.162914
vn -4.925429 -3.900808 0.047449
v 55.926229 54.701675 -25.683779
vn -4.900855 -3.931893 -0.005617
v 55.312382 55.556514 -18.699249
# 144 vertices, 0 vertices normals

f 60//60 61//61 62//62
f 90//90 29//29 28//28
f 90//90 63//63 29//29
f 29//29 63//63 30//30
f 66//66 67//67 19//19
f 68//68 69//69 70//70
f 37//37 70//70 36//36
f 13//13 70//70 37//37
f 39//39 38//38 27//27
f 71//71 12//12 40//40
f 72//72 71//71 73//73
f 74//74 75//75 76//76
f 77//77 78//78 79//79
f 136//136 80//80 81//81
f 82//82 83//83 84//84
f 85//85 86//86 144//144
f 1//1 90//90 91//91
f 139//139 92//92 93//93
f 94//94 95//95 96//96
f 97//97 98//98 99//99
f 2//2 100//100 64//64
f 100//100 101//101 77//77
f 102//102 104//104 103//103
f 5//5 104//104 88//88
f 105//105 94//94 106//106
f 107//107 108//108 106//106
f 109//109 19//19 110//110
f 111//111 61//61 109//109
f 84//84 112//112 113//113
f 114//114 115//115 105//105
f 115//115 116//116 117//117
f 118//118 119//119 117//117
f 79//79 41//41 120//120
f 81//81 96//96 68//68
f 111//111 121//121 122//122
f 116//116 123//123 124//124
f 125//125 122//122 123//123
f 113//113 124//124 126//126
f 127//127 128//128 101//101
f 24//24 52//52 51//51
f 82//82 127//127 129//129
f 74//74 108//108 131//131
f 66//66 56//56 34//34
f 12//12 33//33 49//49
f 60//60 87//87 66//66
f 8//8 45//45 47//47
f 133//133 39//39 27//27
f 76//76 134//134 114//114
f 112//112 135//135 118//118
f 119//119 73//73 95//95
f 17//17 43//43 53//53
f 136//136 57//57 137//137
f 52//52 24//24 58//58
f 23//23 139//139 59//59
f 138//138 93//93 83//83
f 92//92 140//140 135//135
f 140//140 65//65 72//72
f 13//13 37//37 57//57
f 141//141 103//103 62//62
f 75//75 133//133 102//102
f 142//142 99//99 78//78
f 23//23 59//59 32//32
f 128//128 126//126 143//143
f 143//143 121//121 142//142
f 24//24 138//138 58//58
f 134//134 141//141 125//125
f 27//27 38//38 48//48
f 5//5 60//60 62//62
f 60//60 19//19 61//61
f 62//62 61//61 6//6
f 63//63 2//2 64//64
f 30//30 64//64 31//31
f 63//63 64//64 30//30
f 65//65 32//32 33//33
f 32//32 65//65 23//23
f 12//12 65//65 33//33
f 56//56 66//66 87//87
f 66//66 34//34 67//67
f 13//13 68//68 70//70
f 68//68 14//14 69//69
f 36//36 69//69 35//35
f 70//70 69//69 36//36
f 14//14 71//71 69//69
f 69//69 71//71 40//40
f 35//35 69//69 40//40
f 22//22 72//72 73//73
f 72//72 12//12 71//71
f 73//73 71//71 14//14
f 18//18 74//74 76//76
f 74//74 4//4 75//75
f 76//76 75//75 26//26
f 8//8 77//77 79//79
f 77//77 25//25 78//78
f 79//79 78//78 41//41
f 136//136 17//17 80//80
f 81//81 80//80 15//15
f 9//9 82//82 84//84
f 82//82 1//1 83//83
f 84//84 83//83 20//20
f 4//4 131//131 144//144
f 144//144 86//86 42//42
f 87//87 5//5 88//88
f 87//87 88//88 89//89
f 89//89 56//56 87//87
f 90//90 28//28 91//91
f 44//44 91//91 28//28
f 24//24 139//139 93//93
f 139//139 23//23 92//92
f 93//93 92//92 20//20
f 15//15 94//94 96//96
f 94//94 21//21 95//95
f 96//96 95//95 14//14
f 10//10 97//97 99//99
f 97//97 46//46 98//98
f 99//99 98//98 41//41
f 100//100 47//47 64//64
f 47//47 100//100 8//8
f 31//31 64//64 47//47
f 8//8 100//100 77//77
f 100//100 2//2 101//101
f 77//77 101//101 25//25
f 26//26 102//102 103//103
f 102//102 27//27 104//104
f 103//103 104//104 5//5
f 48//48 104//104 27//27
f 104//104 48//48 88//88
f 89//89 88//88 48//48
f 18//18 105//105 106//106
f 105//105 21//21 94//94
f 106//106 94//94 15//15
f 15//15 107//107 106//106
f 107//107 3//3 108//108
f 106//106 108//108 18//18
f 12//12 49//49 40//40
f 97//97 109//109 110//110
f 10//10 111//111 109//109
f 111//111 6//6 61//61
f 109//109 61//61 19//19
f 9//9 84//84 113//113
f 84//84 20//20 112//112
f 113//113 112//112 11//11
f 18//18 114//114 105//105
f 114//114 7//7 115//115
f 105//105 115//115 21//21
f 21//21 115//115 117//117
f 115//115 7//7 116//116
f 117//117 116//116 11//11
f 11//11 118//118 117//117
f 118//118 22//22 119//119
f 117//117 119//119 21//21
f 8//8 79//79 45//45
f 120//120 45//45 79//79
f 13//13 81//81 68//68
f 81//81 15//15 96//96
f 68//68 96//96 14//14
f 6//6 111//111 122//122
f 111//111 10//10 121//121
f 122//122 121//121 16//16
f 11//11 116//116 124//124
f 116//116 7//7 123//123
f 124//124 123//123 16//16
f 7//7 125//125 123//123
f 125//125 6//6 122//122
f 123//123 122//122 16//16
f 9//9 113//113 126//126
f 113//113 11//11 124//124
f 126//126 124//124 16//16
f 2//2 127//127 101//101
f 127//127 9//9 128//128
f 101//101 128//128 25//25
f 1//1 82//82 129//129
f 82//82 9//9 127//127
f 129//129 127//127 2//2
f 53//53 130//130 17//17
f 4//4 74//74 131//131
f 74//74 18//18 108//108
f 144//144 131//131 85//85
f 86//86 85//85 55//55
f 3//3 54//54 132//132
f 19//19 60//60 66//66
f 60//60 5//5 87//87
f 133//133 4//4 144//144
f 133//133 144//144 42//42
f 133//133 42//42 39//39
f 18//18 76//76 114//114
f 76//76 26//26 134//134
f 114//114 134//134 7//7
f 11//11 112//112 118//118
f 112//112 20//20 135//135
f 118//118 135//135 22//22
f 63//63 90//90 129//129
f 90//90 1//1 129//129
f 63//63 129//129 2//2
f 21//21 119//119 95//95
f 119//119 22//22 73//73
f 95//95 73//73 14//14
f 57//57 136//136 13//13
f 17//17 136//136 137//137
f 137//137 43//43 17//17
f 138//138 1//1 91//91
f 138//138 91//91 44//44
f 138//138 44//44 58//58
f 51//51 139//139 24//24
f 139//139 51//51 59//59
f 1//1 138//138 83//83
f 138//138 24//24 93//93
f 83//83 93//93 20//20
f 20//20 92//92 135//135
f 92//92 23//23 140//140
f 135//135 140//140 22//22
f 22//22 140//140 72//72
f 140//140 23//23 65//65
f 72//72 65//65 12//12
f 10//10 109//109 97//97
f 110//110 50//50 46//46
f 6//6 141//141 62//62
f 141//141 26//26 103//103
f 62//62 103//103 5//5
f 26//26 75//75 102//102
f 75//75 4//4 133//133
f 102//102 133//133 27//27
f 130//130 3//3 107//107
f 80//80 107//107 15//15
f 25//25 142//142 78//78
f 142//142 10//10 99//99
f 78//78 99//99 41//41
f 25//25 128//128 143//143
f 128//128 9//9 126//126
f 143//143 126//126 16//16
f 25//25 143//143 142//142
f 143//143 16//16 121//121
f 142//142 121//121 10//10
f 7//7 134//134 125//125
f 134//134 26//26 141//141
f 125//125 141//141 6//6
f 131//131 108//108 3//3
f 13//13 136//136 81//81
f 110//110 46//46 97//97
f 55//55 85//85 132//132
f 132//132 131//131 3//3
f 110//110 19//19 67//67
f 50//50 110//110 67//67
f 130//130 107//107 80//80
f 17//17 130//130 80//80
f 85//85 131//131 132//132
f 130//130 53//53 54//54
f 3//3 130//130 54//54
# 247 faces, 0 coords texture

# End of File
