####
#
# OBJ File Generated by Meshlab
#
####
# Object 2069_C105_S_5.obj
#
# Vertices: 120
# Faces: 204
#
####
vn 4.946985 -3.872899 -0.067043
v -57.348431 56.968394 8.326766
vn 4.952416 -3.866088 -0.070473
v -58.271970 55.809261 6.747562
vn 4.959905 -3.856520 -0.070592
v -59.214914 54.629592 5.004747
vn 4.956128 -3.861409 -0.067363
v -59.611076 54.074797 7.325602
vn 4.932365 -3.891789 -0.063466
v -56.031507 58.638194 7.954823
vn 4.938743 -3.883605 -0.065342
v -56.929325 57.519941 6.330410
vn 4.950729 -3.868258 -0.069891
v -58.656999 55.271302 8.781974
vn 4.946964 -3.872663 -0.090765
v -56.772571 57.644201 10.946078
vn 4.937265 -3.885117 -0.080100
v -56.488490 58.032953 9.898511
vn 4.952070 -3.866364 -0.078985
v -57.668388 56.509652 10.195908
vn 4.942830 -3.878281 -0.075221
v -57.161401 57.293483 2.850043
vn 4.922781 -3.903654 -0.077978
v -55.058178 59.839250 9.646357
vn 4.917762 -3.910144 -0.067788
v -53.912416 61.311270 8.324142
vn 4.940558 -3.881156 -0.076814
v -56.396322 58.241522 4.312445
vn 4.946501 -3.873661 -0.071848
v -58.862243 54.980978 10.641936
vn 4.943573 -3.877330 -0.075857
v -57.835871 56.264971 11.987044
vn 4.934115 -3.889403 -0.071479
v -55.535668 59.307556 5.955473
vn 4.924737 -3.901353 -0.068017
v -55.020782 59.992550 4.070226
vn 4.928021 -3.896650 -0.093697
v -55.836019 58.820308 11.552567
vn 4.922339 -3.904288 -0.072182
v -54.704313 60.329514 7.544284
vn 4.942711 -3.878444 -0.073926
v -57.796230 56.455748 4.634708
vn 2.419926 -1.884032 -0.035257
v -59.260400 54.593000 3.834110
vn 2.181172 -1.694040 -0.030083
v -59.758900 53.933000 4.754160
vn 2.239189 -1.762776 -0.042244
v -56.643822 57.758481 12.967051
vn 2.307033 -1.840699 -0.029185
v -53.556050 61.772750 7.278455
vn 1.824861 -1.431308 -0.029077
v -57.290700 57.147300 1.943470
vn 2.585947 -2.023077 -0.042071
v -56.651925 57.956550 2.282433
vn 2.171054 -1.732139 -0.031960
v -53.853700 61.434700 5.339580
vn 2.409049 -1.923511 -0.034063
v -53.646000 61.672400 6.580010
vn 2.213841 -1.738522 -0.037631
v -56.009800 58.773500 2.466900
vn 2.435072 -1.903354 -0.032475
v -59.844700 53.741200 9.795370
vn 2.429534 -1.901221 -0.038590
v -58.363000 55.585700 12.281000
vn 2.187485 -1.717686 -0.034134
v -57.863650 56.215150 12.719300
vn 2.208497 -1.752894 -0.038154
v -53.905800 61.279300 10.194300
vn 2.177320 -1.729014 -0.031220
v -53.547400 61.766200 8.586060
vn 2.463773 -1.955224 -0.042528
v -53.768000 61.466800 9.570680
vn 2.182485 -1.726379 -0.044681
v -55.620600 59.063900 12.659300
vn 2.353670 -1.835738 -0.036851
v -60.139500 53.407350 6.822900
vn 2.381927 -1.856758 -0.035415
v -60.024900 53.571500 5.973780
vn 2.513797 -1.988158 -0.047176
v -55.384900 59.553800 3.015710
vn 2.180755 -1.731100 -0.027625
v -54.756600 60.333900 3.485150
vn 2.347952 -1.865975 -0.031754
v -54.535800 60.607000 3.843450
vn 2.284238 -1.783871 -0.037470
v -59.491300 54.171900 10.808600
vn 2.218096 -1.761754 -0.038424
v -54.678350 60.274150 11.719850
vn 2.659551 -2.090381 -0.036690
v -57.984900 56.250900 2.569500
vn 2.199323 -1.720773 -0.033143
v -58.412600 55.704100 2.756550
vn 2.272384 -1.771559 -0.025488
v -60.019700 53.525850 9.223745
vn 2.262918 -1.768515 -0.036247
v -59.017900 54.761600 11.627300
vn 2.271281 -1.762652 -0.024516
v -60.180000 53.333400 7.933950
vn 2.358201 -1.837049 -0.036195
v -59.031900 54.892900 3.472840
vn 4.952242 -3.866435 -0.058346
v -57.808250 56.391041 7.549085
vn 4.964479 -3.850295 -0.086873
v -57.986328 56.140680 8.535885
vn 4.962213 -3.853366 -0.079883
v -58.455297 55.551191 7.780242
vn 4.935342 -3.888044 -0.058646
v -57.604149 56.660117 6.531601
vn 4.933744 -3.890374 -0.039112
v -57.153257 57.225546 7.341349
vn 4.938722 -3.883800 -0.055812
v -56.483126 58.075563 7.147882
vn 4.928238 -3.897254 -0.047559
v -56.698776 57.792109 8.137000
vn 4.927497 -3.897872 -0.067622
v -55.566369 59.212032 8.768603
vn 4.933555 -3.890038 -0.077862
v -55.361503 59.492092 7.756956
vn 4.928912 -3.895882 -0.079233
v -54.907955 60.052355 8.514319
vn 4.940907 -3.880751 -0.073892
v -55.801827 58.949775 6.956886
vn 4.947539 -3.872319 -0.073518
v -56.236935 58.408289 6.142015
vn 4.953314 -3.864908 -0.073553
v -57.309495 56.957880 10.797929
vn 4.957786 -3.858788 -0.092125
v -57.095567 57.249545 10.033990
vn 4.924350 -3.902045 -0.056659
v -56.249394 58.349153 8.931742
vn 4.941846 -3.879391 -0.076055
v -56.900287 57.524232 9.098409
vn 4.950304 -3.868882 -0.065475
v -59.103640 54.712850 8.031731
vn 4.960136 -3.856083 -0.078042
v -58.930932 54.955556 7.029131
vn 4.918978 -3.908514 -0.073652
v -54.369282 60.739269 8.172339
vn 4.911399 -3.918222 -0.063806
v -54.059755 61.138938 7.447010
vn 4.960682 -3.854951 -0.096787
v -57.514761 56.730471 9.279024
vn 4.953148 -3.864983 -0.077444
v -58.133509 55.927643 9.485789
vn 4.943831 -3.877008 -0.073297
v -58.044398 56.119533 5.687245
vn 4.957986 -3.858971 -0.071419
v -58.793606 55.156172 5.811538
vn 4.955076 -3.862726 -0.070628
v -58.831905 55.128871 4.573669
vn 4.919243 -3.908050 -0.081274
v -55.480594 59.287004 10.641439
vn 4.929163 -3.895291 -0.090083
v -56.120887 58.479776 10.699021
vn 4.920658 -3.906487 -0.069005
v -55.816459 58.882433 9.755387
vn 4.943684 -3.877237 -0.072980
v -56.818049 57.718812 3.507183
vn 4.941284 -3.880079 -0.083524
v -56.190394 58.524447 3.347836
vn 4.920332 -3.906888 -0.070082
v -54.838021 60.189229 5.780827
vn 4.928094 -3.897066 -0.070424
v -55.253096 59.682833 4.966246
vn 4.917906 -3.909856 -0.074893
v -54.634424 60.465557 4.787513
vn 4.941262 -3.880557 -0.060114
v -58.753748 55.133822 9.714177
vn 4.946141 -3.874142 -0.069852
v -59.272372 54.469826 9.983592
vn 4.942498 -3.878924 -0.063685
v -58.257817 55.755026 10.421171
vn 4.944649 -3.875847 -0.080589
v -57.298755 56.957713 11.610212
vn 4.944364 -3.876486 -0.067235
v -57.787250 56.342299 11.109260
vn 4.920929 -3.905861 -0.084427
v -54.389262 60.674066 10.015774
vn 2.438593 -1.936028 -0.040705
v -54.262600 60.814550 10.920750
vn 4.919601 -3.907592 -0.081639
v -54.853748 60.073885 10.734171
vn 4.935729 -3.886786 -0.099297
v -56.214164 58.321179 12.283446
vn 2.465512 -1.944645 -0.051615
v -56.109450 58.440050 12.806800
vn 4.957629 -3.859323 -0.076944
v -59.445807 54.304172 6.460074
vn 4.958818 -3.857890 -0.072159
v -59.443496 54.323296 5.661514
vn 4.927118 -3.898306 -0.070438
v -55.115514 59.824041 6.764417
vn 4.915086 -3.913550 -0.066113
v -54.416395 60.707120 6.618217
vn 4.937668 -3.884652 -0.085497
v -57.270078 56.975387 12.417176
vn 2.443229 -1.925141 -0.039655
v -57.199850 57.055200 12.869400
vn 4.938862 -3.882933 -0.094301
v -56.759377 57.634628 12.001843
vn 4.939078 -3.882577 -0.097561
v -56.341519 58.178603 11.496160
vn 4.919745 -3.907240 -0.089059
v -55.268456 59.534396 11.582895
vn 2.449967 -1.944712 -0.048259
v -55.178950 59.631200 12.225900
vn 4.938970 -3.883378 -0.066073
v -57.473076 56.882680 3.689349
vn 4.948296 -3.871333 -0.072861
v -58.125170 56.052175 3.753829
vn 4.939577 -3.882542 -0.069666
v -57.753371 56.539467 2.911529
vn 2.441242 -1.944926 -0.036259
v -54.229300 60.979600 4.500800
vn 4.942082 -3.879107 -0.081762
v -56.666130 57.876612 5.311964
vn 4.941648 -3.879867 -0.070955
v -55.958192 58.784572 5.135196
vn 4.935403 -3.887731 -0.075087
v -55.694045 59.135790 4.174180
vn 4.930228 -3.894077 -0.085901
v -55.493636 59.407486 3.387795
vn 4.945381 -3.875057 -0.074048
v -58.369553 55.596074 11.369355
vn 4.921651 -3.904962 -0.083843
v -54.402069 60.678775 9.077520
vn 4.954384 -3.863872 -0.048934
v -59.662221 53.998255 8.289125
vn 4.934765 -3.888397 -0.082793
v -57.369854 56.978561 5.489952
vn 4.937867 -3.884588 -0.075928
v -57.093552 57.351868 4.483844
vn 4.957304 -3.859745 -0.076698
v -58.569940 55.477666 3.890193
vn 4.954972 -3.862860 -0.070458
v -58.364198 55.724403 4.811215
vn 4.944297 -3.876708 -0.058249
v -59.339945 54.397774 9.081737
vn 4.914335 -3.914418 -0.070925
v -54.219678 60.970548 5.634238
# 120 vertices, 0 vertices normals

f 51//51 52//52 53//53
f 51//51 54//54 55//55
f 56//56 57//57 55//55
f 3//3 23//23 22//22
f 58//58 59//59 60//60
f 61//61 56//56 62//62
f 8//8 63//63 64//64
f 57//57 65//65 66//66
f 53//53 67//67 68//68
f 66//66 64//64 71//71
f 72//72 52//52 71//71
f 73//73 74//74 118//118
f 76//76 77//77 78//78
f 79//79 11//11 27//27
f 58//58 78//78 65//65
f 81//81 82//82 83//83
f 84//84 85//85 119//119
f 119//119 31//31 47//47
f 72//72 86//86 84//84
f 16//16 33//33 32//32
f 63//63 87//87 88//88
f 112//112 86//86 88//88
f 89//89 90//90 91//91
f 13//13 35//35 36//36
f 92//92 37//37 93//93
f 94//94 4//4 38//38
f 61//61 96//96 59//59
f 97//97 96//96 81//81
f 18//18 111//111 41//41
f 98//98 24//24 99//99
f 98//98 87//87 100//100
f 18//18 41//41 42//42
f 101//101 8//8 77//77
f 76//76 91//91 102//102
f 102//102 44//44 103//103
f 104//104 105//105 106//106
f 26//26 106//106 45//45
f 11//11 106//106 26//26
f 20//20 97//97 70//70
f 120//120 83//83 107//107
f 101//101 92//92 100//100
f 108//108 109//109 62//62
f 110//110 82//82 109//109
f 110//110 80//80 111//111
f 41//41 111//111 40//40
f 15//15 48//48 43//43
f 15//15 112//112 48//48
f 114//114 67//67 119//119
f 68//68 94//94 74//74
f 113//113 60//60 69//69
f 12//12 113//113 89//89
f 3//3 95//95 23//23
f 115//115 116//116 108//108
f 73//73 115//115 54//54
f 104//104 79//79 116//116
f 105//105 118//118 117//117
f 21//21 118//118 105//105
f 2//2 51//51 53//53
f 51//51 1//1 52//52
f 53//53 52//52 7//7
f 1//1 51//51 55//55
f 51//51 2//2 54//54
f 55//55 54//54 6//6
f 6//6 56//56 55//55
f 56//56 5//5 57//57
f 55//55 57//57 1//1
f 12//12 58//58 60//60
f 58//58 5//5 59//59
f 60//60 59//59 20//20
f 17//17 61//61 62//62
f 61//61 5//5 56//56
f 62//62 56//56 6//6
f 9//9 8//8 64//64
f 64//64 63//63 10//10
f 1//1 57//57 66//66
f 57//57 5//5 65//65
f 66//66 65//65 9//9
f 2//2 53//53 68//68
f 53//53 7//7 67//67
f 68//68 67//67 4//4
f 13//13 69//69 70//70
f 69//69 20//20 70//70
f 1//1 66//66 71//71
f 66//66 9//9 64//64
f 71//71 64//64 10//10
f 10//10 72//72 71//71
f 72//72 7//7 52//52
f 71//71 52//52 1//1
f 27//27 11//11 26//26
f 73//73 2//2 74//74
f 75//75 74//74 3//3
f 12//12 76//76 78//78
f 76//76 19//19 77//77
f 78//78 77//77 9//9
f 14//14 79//79 80//80
f 80//80 79//79 27//27
f 30//30 80//80 27//27
f 5//5 58//58 65//65
f 58//58 12//12 78//78
f 65//65 78//78 9//9
f 120//120 81//81 83//83
f 81//81 17//17 82//82
f 83//83 82//82 18//18
f 84//84 15//15 85//85
f 7//7 72//72 84//84
f 72//72 10//10 86//86
f 84//84 86//86 15//15
f 10//10 63//63 88//88
f 63//63 8//8 87//87
f 88//88 87//87 16//16
f 16//16 112//112 88//88
f 112//112 15//15 86//86
f 88//88 86//86 10//10
f 12//12 89//89 91//91
f 89//89 34//34 90//90
f 91//91 90//90 44//44
f 37//37 92//92 19//19
f 93//93 24//24 92//92
f 39//39 94//94 38//38
f 39//39 95//95 94//94
f 5//5 61//61 59//59
f 61//61 17//17 96//96
f 59//59 96//96 20//20
f 97//97 20//20 96//96
f 81//81 96//96 17//17
f 16//16 98//98 33//33
f 99//99 33//33 98//98
f 24//24 98//98 100//100
f 98//98 16//16 87//87
f 100//100 87//87 8//8
f 19//19 101//101 77//77
f 77//77 8//8 9//9
f 85//85 43//43 31//31
f 43//43 85//85 15//15
f 119//119 85//85 31//31
f 19//19 76//76 102//102
f 76//76 12//12 91//91
f 102//102 91//91 44//44
f 19//19 102//102 37//37
f 103//103 37//37 102//102
f 11//11 104//104 106//106
f 104//104 21//21 105//105
f 106//106 105//105 46//46
f 106//106 46//46 45//45
f 97//97 29//29 70//70
f 25//25 70//70 29//29
f 83//83 42//42 107//107
f 42//42 83//83 18//18
f 107//107 28//28 120//120
f 8//8 101//101 100//100
f 101//101 19//19 92//92
f 100//100 92//92 24//24
f 6//6 108//108 62//62
f 108//108 14//14 109//109
f 62//62 109//109 17//17
f 14//14 110//110 109//109
f 110//110 18//18 82//82
f 109//109 82//82 17//17
f 18//18 110//110 111//111
f 110//110 14//14 80//80
f 111//111 80//80 30//30
f 111//111 30//30 40//40
f 32//32 112//112 16//16
f 112//112 32//32 48//48
f 114//114 4//4 67//67
f 2//2 68//68 74//74
f 68//68 4//4 94//94
f 74//74 94//94 95//95
f 13//13 113//113 69//69
f 113//113 12//12 60//60
f 69//69 60//60 20//20
f 36//36 113//113 13//13
f 113//113 36//36 89//89
f 34//34 89//89 36//36
f 95//95 39//39 23//23
f 47//47 114//114 119//119
f 114//114 49//49 4//4
f 49//49 114//114 47//47
f 4//4 49//49 38//38
f 6//6 115//115 108//108
f 115//115 21//21 116//116
f 108//108 116//116 14//14
f 2//2 73//73 54//54
f 73//73 21//21 115//115
f 54//54 115//115 6//6
f 46//46 105//105 117//117
f 21//21 104//104 116//116
f 104//104 11//11 79//79
f 116//116 79//79 14//14
f 22//22 50//50 75//75
f 50//50 117//117 75//75
f 75//75 3//3 22//22
f 118//118 74//74 75//75
f 118//118 75//75 117//117
f 118//118 21//21 73//73
f 7//7 84//84 119//119
f 119//119 67//67 7//7
f 120//120 28//28 29//29
f 120//120 97//97 81//81
f 29//29 97//97 120//120
f 74//74 95//95 3//3
f 35//35 13//13 25//25
f 13//13 70//70 25//25
f 46//46 117//117 50//50
# 204 faces, 0 coords texture

# End of File
