####
#
# OBJ File Generated by Meshlab
#
####
# Object 2097_C109_S_5.obj
#
# Vertices: 57
# Faces: 62
#
####
vn -1.221613 -2.894024 -0.004130
v 79.782400 30.718000 15.632300
vn -1.269561 -2.874877 -0.003237
v 79.834600 30.718000 0.000377
vn -0.997369 -2.976871 -0.072188
v 79.799000 30.718000 10.218800
vn -1.165565 -2.917448 -0.004372
v 79.846200 30.718000 -4.702140
vn -1.245757 -2.882882 -0.004654
v 79.773200 30.718000 17.747000
vn -1.068340 -2.951729 0.080291
v 79.805400 30.718000 7.835980
vn -1.114947 -2.936808 0.010844
v 79.840100 30.718000 -2.345340
vn -1.332798 -2.847574 -0.004644
v 79.793100 30.718000 13.343300
vn -1.112970 -2.936705 0.007791
v 79.815700 30.718000 4.709600
vn -1.124850 -2.934051 0.018732
v 79.826200 30.718000 2.345730
vn -1.192969 -2.905884 -0.045873
v 79.796200 30.718000 11.762400
vn -1.152101 -2.922508 -0.023108
v 79.809225 30.718000 6.660445
vn -0.029919 -0.075028 -0.000075
v 79.848900 30.718000 -5.777990
vn -1.137885 -2.852185 -0.003383
v 79.921500 30.688050 -4.778935
vn -1.226847 -2.911029 -0.002639
v 79.810517 30.706174 15.612527
vn -1.237367 -2.862869 -0.005032
v 79.795100 30.708550 17.738150
vn -1.255609 -3.124642 0.002677
v 79.933600 30.680200 -2.611310
vn -1.122965 -3.006079 -0.051026
v 80.079000 30.608300 10.519600
vn -1.162873 -2.934315 -0.035840
v 79.985000 30.644200 11.678500
vn -1.086051 -2.871364 0.017115
v 80.000200 30.652450 2.359535
vn -1.075579 -2.799534 0.007559
v 80.259800 30.546600 4.421810
vn -1.322350 -3.016521 0.003337
v 79.923800 30.674800 1.970400
vn -1.350908 -2.886607 -0.004262
v 79.867500 30.683200 13.329700
vn -1.305584 -2.956450 -0.003712
v 79.838900 30.716100 0.001672
vn -0.011064 -0.025606 -0.000035
v 79.770500 30.718000 18.592000
vn -0.923346 -2.885521 0.088546
v 80.298800 30.571400 8.204030
vn -0.894991 -2.923048 -0.046318
v 80.170200 30.608200 9.975480
vn -1.119467 -2.992157 0.009069
v 80.261100 30.552100 4.955450
vn -1.069531 -2.821903 -0.022425
v 80.316800 30.530000 6.109760
vn -1.195994 -2.973688 -0.049999
v 80.277500 30.530300 6.623130
vn -1.299443 -2.853083 -0.020811
v 79.955200 30.643400 12.062000
vn -0.991799 -2.632223 0.008783
v 79.999700 30.658100 -2.315880
vn -1.150954 -2.951081 0.132838
v 80.270000 30.531800 7.724880
vn -1.234244 -2.888982 -0.005519
v 79.777800 30.718000 16.689650
vn -2.478550 -5.773641 -0.011127
v 79.788214 30.712716 17.140294
vn -1.233729 -2.887109 -0.005605
v 79.803700 30.706950 16.681050
vn -1.185873 -2.909175 -0.003080
v 79.843150 30.718000 -3.523740
vn -2.370779 -5.818744 -0.006056
v 79.885812 30.700162 -3.101074
vn -1.184446 -2.907243 -0.003113
v 79.928850 30.683200 -3.650190
vn -1.144230 -2.925806 -0.002148
v 79.797600 30.718000 10.990600
vn -1.132870 -2.930215 -0.006771
v 79.820950 30.718000 3.527665
vn -2.267828 -5.859630 -0.010145
v 79.992913 30.650706 3.963321
vn -1.138544 -2.940230 -0.007613
v 80.130650 30.598300 3.442280
vn -1.332993 -2.844767 -0.006192
v 79.787750 30.718000 14.487800
vn -2.590899 -5.723561 -0.007393
v 79.806882 30.708021 14.955025
vn -1.334981 -2.851332 -0.006168
v 79.835850 30.695550 14.446950
vn -1.217287 -2.896107 -0.018817
v 79.837350 30.718000 -1.172482
vn -1.298062 -2.920488 -0.005049
v 79.877950 30.699650 -0.996524
vn -1.285605 -2.866496 -0.004616
v 79.830400 30.718000 1.173053
vn -2.572135 -5.732578 -0.009252
v 79.860794 30.703753 1.555948
vn -1.285824 -2.866398 -0.004674
v 79.881350 30.695450 0.986036
vn -0.892948 -3.012016 -0.002363
v 79.802200 30.718000 9.027390
vn -1.785445 -6.024166 -0.004640
v 80.008168 30.656537 9.526108
vn -0.892831 -3.012051 -0.002325
v 80.234500 30.589800 9.089755
vn -1.094759 -2.944645 -0.003628
v 79.813100 30.718000 5.489100
vn -2.189323 -5.889417 -0.007183
v 80.048041 30.630301 5.776622
vn -1.330618 -2.845883 -0.002691
v 79.794650 30.718000 12.552850
# 57 vertices, 0 vertices normals

f 4//4 13//13 14//14
f 5//5 34//34 35//35
f 35//35 34//34 36//36
f 7//7 37//37 38//38
f 38//38 37//37 39//39
f 19//19 40//40 18//18
f 11//11 40//40 19//19
f 9//9 41//41 42//42
f 42//42 41//41 43//43
f 10//10 22//22 20//20
f 1//1 44//44 45//45
f 45//45 44//44 46//46
f 2//2 47//47 48//48
f 10//10 49//49 50//50
f 50//50 49//49 51//51
f 5//5 16//16 25//25
f 3//3 52//52 53//53
f 53//53 52//52 54//54
f 12//12 55//55 56//56
f 12//12 56//56 29//29
f 12//12 29//29 30//30
f 23//23 57//57 31//31
f 8//8 57//57 23//23
f 11//11 19//19 31//31
f 3//3 27//27 18//18
f 9//9 21//21 28//28
f 6//6 12//12 30//30
f 6//6 30//30 33//33
f 7//7 17//17 32//32
f 6//6 33//33 26//26
f 34//34 15//15 36//36
f 15//15 34//34 1//1
f 5//5 35//35 16//16
f 36//36 16//16 35//35
f 37//37 4//4 39//39
f 14//14 39//39 4//4
f 7//7 38//38 17//17
f 39//39 17//17 38//38
f 40//40 3//3 18//18
f 41//41 20//20 43//43
f 20//20 41//41 10//10
f 9//9 42//42 21//21
f 43//43 21//21 42//42
f 44//44 8//8 46//46
f 23//23 46//46 8//8
f 1//1 45//45 15//15
f 46//46 15//15 45//45
f 47//47 32//32 48//48
f 32//32 47//47 7//7
f 2//2 48//48 24//24
f 49//49 24//24 51//51
f 24//24 49//49 2//2
f 10//10 50//50 22//22
f 51//51 22//22 50//50
f 52//52 26//26 54//54
f 26//26 52//52 6//6
f 3//3 53//53 27//27
f 54//54 27//27 53//53
f 55//55 28//28 56//56
f 28//28 55//55 9//9
f 56//56 28//28 29//29
f 57//57 11//11 31//31
# 62 faces, 0 coords texture

# End of File
