####
#
# OBJ File Generated by Meshlab
#
####
# Object 209_C62_M_6.obj
#
# Vertices: 129
# Faces: 218
#
####
vn 2.167878 -5.896752 0.075797
v -16.290994 57.429590 -38.909350
vn 2.128408 -5.910833 0.034740
v -15.089854 57.846683 -40.360221
vn 2.192965 -5.887573 -0.027394
v -15.652758 57.659938 -42.164936
vn 1.051684 -2.958317 -0.004409
v -11.743700 59.058000 -42.473800
vn 1.105001 -2.946442 -0.037289
v -19.339300 56.214700 -43.840600
vn 2.299846 -5.844501 0.030552
v -17.662187 56.843604 -43.258212
vn 1.139853 -2.931373 0.077711
v -19.344500 56.223700 -41.730400
vn 2.234761 -5.870438 0.081662
v -17.338223 57.043266 -40.867661
vn 2.158515 -5.898688 0.045998
v -15.246070 57.828363 -46.197321
vn 2.054621 -5.935118 0.077653
v -12.749034 58.616810 -48.533734
vn 1.006001 -2.975801 -0.037939
v -12.190800 58.821700 -50.000000
vn 1.011216 -2.974359 0.010408
v -14.232400 58.120000 -50.000000
vn 2.174109 -5.891721 0.043017
v -13.259295 58.492010 -41.173378
vn 2.204974 -5.883498 0.000215
v -17.931661 56.822682 -38.959462
vn 1.129492 -2.930942 0.021676
v -16.930100 57.203700 -38.000000
vn 2.164513 -5.898176 0.028236
v -18.516683 56.612484 -48.139441
vn 1.001334 -2.980702 0.036697
v -11.736900 59.046800 -45.131600
vn 1.010982 -2.971003 0.065895
v -11.711400 59.002300 -47.521600
vn 1.131140 -2.930437 -0.006752
v -17.330000 57.041700 -38.000000
vn 0.553296 -1.468276 0.006649
v -19.378900 56.283200 -38.000000
vn 1.115727 -2.932865 0.110761
v -13.153500 58.654900 -38.000000
vn 0.533118 -1.482639 0.048372
v -11.793000 59.144100 -38.000000
vn 1.097234 -2.939391 0.090354
v -11.763700 59.093300 -39.880000
vn 0.512162 -1.483248 -0.001341
v -11.701500 58.985600 -50.000000
vn 0.531713 -1.479606 0.013458
v -19.376300 56.278700 -50.000000
vn 1.084142 -2.945108 -0.012172
v -19.384400 56.292800 -47.762500
vn 1.135412 -2.923817 0.066575
v -19.365500 56.259900 -40.587500
vn 2.226689 -5.871345 0.214381
v -13.334832 58.535506 -39.196632
vn 1.124651 -2.932831 0.073275
v -14.493000 58.118100 -38.000000
vn 1.075190 -2.948585 -0.076284
v -19.370200 56.268200 -45.842100
vn 2.158367 -5.900609 0.044563
v -17.079537 57.122010 -49.059838
vn 1.070205 -2.953520 0.015153
v -16.496600 57.335700 -50.000000
vn 2.094451 -5.923239 0.015853
v -13.884682 58.319922 -44.574118
vn 2.182718 -5.891023 -0.034460
v -17.014025 57.164034 -47.028392
vn 2.024388 -5.947058 0.099798
v -14.605185 58.005687 -47.996825
vn 2.090089 -5.924779 0.068555
v -15.659013 57.642483 -48.276767
vn 2.027669 -5.944508 0.143220
v -13.248222 58.516863 -46.607118
vn 2.278003 -5.853820 -0.073504
v -16.977221 57.133347 -45.213727
vn 2.271749 -5.856484 -0.012637
v -15.774044 57.628485 -44.001673
vn 2.125356 -5.912105 -0.075425
v -14.511989 58.078300 -42.486458
vn 2.141284 -5.907013 0.008094
v -16.716463 57.270197 -39.860993
vn 2.206325 -5.881330 0.077966
v -16.540456 57.334622 -41.527321
vn 1.101400 -2.942147 0.016992
v -19.341900 56.219200 -42.785500
vn 2.210173 -5.881440 -0.004367
v -18.601839 56.492212 -43.373600
vn 2.259781 -5.861008 0.110817
v -18.469353 56.548373 -42.445792
vn 2.066669 -5.933339 -0.028134
v -12.464957 58.721443 -49.405808
vn 1.998359 -5.956486 -0.005731
v -13.418618 58.391532 -49.189340
vn 1.021043 -2.970888 -0.029986
v -13.211600 58.470850 -50.000000
vn 2.049505 -5.937481 0.150625
v -14.656692 58.010256 -47.024487
vn 2.092525 -5.922790 0.114337
v -15.447738 57.736381 -47.287947
vn 2.300902 -5.843747 0.186174
v -18.382521 56.615490 -41.381848
vn 2.303120 -5.843275 0.173319
v -17.524135 56.935960 -42.018024
vn 2.340233 -5.829844 0.072200
v -16.725759 57.233761 -42.585298
vn 2.180244 -5.892085 -0.088148
v -18.557182 56.587525 -46.988311
vn 1.063359 -2.954508 0.098751
v -12.473250 58.899500 -38.000000
vn 2.164972 -5.894019 0.223788
v -12.529192 58.847342 -38.948622
vn 1.065500 -2.953784 0.097328
v -11.778350 59.118700 -38.940000
vn 1.059424 -2.957484 0.020617
v -11.706450 58.993950 -48.760800
vn 2.058062 -5.934162 0.146643
v -12.312467 58.786053 -47.907995
vn 1.069972 -2.953545 0.031881
v -18.574600 56.566800 -50.000000
vn 2.147574 -5.904262 0.076378
v -18.078507 56.756676 -49.154380
vn 1.074380 -2.951590 0.031330
v -19.380300 56.285700 -49.072350
vn 1.127652 -2.932058 0.032243
v -19.372200 56.271550 -39.293750
vn 2.252790 -5.865219 0.048653
v -18.551204 56.582188 -39.758687
vn 2.220946 -5.877260 0.033444
v -18.701744 56.534696 -38.812431
vn 2.190653 -5.884862 0.217187
v -12.704912 58.747339 -39.773934
vn 1.168011 -2.914587 0.102660
v -13.823250 58.386500 -38.000000
vn 2.282436 -5.851199 0.170238
v -13.970125 58.303796 -38.676962
vn 1.080291 -2.948381 -0.050286
v -19.377350 56.280550 -46.611200
vn 2.167385 -5.896647 -0.020684
v -17.777008 56.886909 -47.475139
vn 2.186401 -5.889036 -0.130775
v -17.772823 56.868389 -46.436879
vn 1.087537 -2.947075 0.027203
v -17.453825 56.975100 -50.000000
vn 1.124997 -2.932978 0.039654
v -11.753700 59.075650 -41.176900
vn 2.158862 -5.898993 -0.058792
v -12.725344 58.696641 -41.946414
vn 2.042106 -5.940878 -0.041213
v -12.604740 58.769315 -43.150945
vn 2.136445 -5.908344 0.070619
v -17.767153 56.880993 -48.423311
vn 2.126982 -5.911954 0.055259
v -17.103051 57.122672 -48.028224
vn 2.194021 -5.884043 0.206523
v -13.360553 58.487162 -40.244036
vn 2.205233 -5.881070 0.164187
v -14.138770 58.214994 -39.736666
vn 2.112598 -5.914710 0.059222
v -14.085424 58.198754 -40.792775
vn 1.080261 -2.948478 -0.095490
v -19.354750 56.241450 -44.841350
vn 2.177257 -5.891279 -0.174147
v -18.814339 56.443255 -44.958993
vn 2.227144 -5.873260 -0.145219
v -16.991249 57.148595 -46.044420
vn 2.189972 -5.887345 -0.146403
v -17.873208 56.803002 -45.311000
vn 2.215756 -5.879241 0.016829
v -17.654716 56.926590 -39.918054
vn 2.275351 -5.855425 0.104892
v -18.271692 56.683942 -40.569131
vn 2.219993 -5.876403 -0.025405
v -16.188751 57.474096 -46.633630
vn 2.154218 -5.901801 0.076316
v -16.314947 57.411610 -47.624770
vn 2.206134 -5.881682 0.125932
v -14.802154 57.975274 -39.173517
vn 2.027938 -5.946616 0.060158
v -12.891546 58.656006 -44.855774
vn 2.007818 -5.953483 0.048332
v -12.441030 58.817432 -44.143516
vn 2.081049 -5.927953 0.008602
v -13.288574 58.531719 -43.833006
vn 1.101548 -2.941733 0.049003
v -15.711550 57.660900 -38.000000
vn 2.190052 -5.887807 0.123964
v -15.410535 57.760978 -38.726043
vn 2.139438 -5.906672 0.065401
v -15.740290 57.617531 -39.619853
vn 0.990348 -2.981367 0.016356
v -11.740300 59.052400 -43.802700
vn 2.107721 -5.918701 0.023958
v -14.536289 58.084865 -45.352769
vn 2.068614 -5.931405 0.120706
v -14.176815 58.198543 -46.344972
vn 2.043266 -5.941306 0.063033
v -13.541627 58.427496 -45.597823
vn 1.028980 -2.968173 0.027397
v -15.364500 57.727850 -50.000000
vn 2.047911 -5.939855 0.048917
v -15.017946 57.856833 -49.066912
vn 2.076257 -5.928602 -0.124399
v -13.832487 58.300233 -41.796349
vn 2.113050 -5.915601 -0.104273
v -13.568458 58.424704 -42.795737
vn 2.119353 -5.914745 -0.034341
v -15.638138 57.656198 -41.230812
vn 2.151493 -5.903268 -0.028994
v -14.842979 57.969369 -44.301511
vn 2.254347 -5.863747 0.009277
v -15.508577 57.729138 -45.047731
vn 2.188345 -5.889701 0.009930
v -17.153048 57.112841 -38.981586
vn 2.313969 -5.840386 -0.051816
v -16.202869 57.443958 -45.642729
vn 0.980585 -2.983917 0.065564
v -11.724150 59.024550 -46.326600
vn 1.995842 -5.956815 0.093799
v -12.574699 58.754135 -45.906516
vn 1.980994 -5.960246 0.166311
v -12.427195 58.779155 -46.986876
vn 2.015591 -5.947451 0.208329
v -13.015247 58.560422 -47.593617
vn 2.052100 -5.935739 0.183897
v -13.845668 58.286599 -47.281658
vn 1.994321 -5.956513 0.119129
v -13.606069 58.337210 -48.238999
vn 1.093036 -2.945305 -0.007143
v -18.354450 56.662450 -38.000000
vn 2.144375 -5.905777 0.036426
v -16.451552 57.353895 -48.482659
vn 2.154987 -5.901932 -0.039967
v -15.139863 57.854571 -43.248235
vn 2.300895 -5.844762 -0.041552
v -15.985685 57.542573 -43.041565
vn 2.149653 -5.903907 -0.035941
v -14.210974 58.194553 -43.532168
vn 2.092057 -5.923909 -0.075283
v -14.774077 57.972108 -41.448396
vn 1.992064 -5.958740 0.035879
v -14.177794 58.145846 -48.891397
vn 2.376978 -5.816073 0.015163
v -16.422480 57.362400 -44.666797
vn 2.408029 -5.803414 -0.009553
v -16.674667 57.255556 -43.658340
vn 2.302474 -5.844678 -0.068926
v -17.347211 56.980246 -44.409623
vn 2.216549 -5.877937 -0.114476
v -18.315371 56.609262 -44.206033
vn 2.113728 -5.916817 -0.005958
v -16.200805 57.457951 -40.580985
vn 2.166959 -5.895931 -0.142300
v -18.616824 56.546133 -45.985986
vn 2.239846 -5.868653 0.121023
v -12.554370 58.771021 -40.790558
vn 2.110546 -5.917755 0.030199
v -16.153673 57.461460 -49.187115
# 129 vertices, 0 vertices normals

f 43//43 44//44 45//45
f 35//35 49//49 50//50
f 51//51 45//45 52//52
f 53//53 42//42 52//52
f 55//55 56//56 57//57
f 58//58 59//59 10//10
f 25//25 60//60 62//62
f 63//63 64//64 65//65
f 56//56 28//28 66//66
f 21//21 68//68 28//28
f 69//69 26//26 54//54
f 54//54 70//70 71//71
f 4//4 74//74 75//75
f 31//31 77//77 76//76
f 66//66 78//78 128//128
f 79//79 80//80 78//78
f 5//5 81//81 82//82
f 71//71 83//83 84//84
f 85//85 64//64 86//86
f 50//50 87//87 88//88
f 68//68 89//89 79//79
f 8//8 86//86 51//51
f 90//90 91//91 92//92
f 29//29 93//93 94//94
f 95//95 89//89 94//94
f 96//96 75//75 91//91
f 97//97 98//98 99//99
f 100//100 101//101 129//129
f 74//74 102//102 103//103
f 105//105 106//106 97//97
f 87//87 108//108 83//83
f 109//109 110//110 111//111
f 112//112 113//113 114//114
f 112//112 59//59 111//111
f 14//14 115//115 65//65
f 32//32 129//129 31//31
f 107//107 85//85 41//41
f 117//117 3//3 118//118
f 117//117 105//105 119//119
f 119//119 92//92 103//103
f 77//77 116//116 88//88
f 113//113 98//98 49//49
f 99//99 110//110 90//90
f 120//120 102//102 80//80
f 121//121 35//35 101//101
f 121//121 47//47 114//114
f 108//108 106//106 122//122
f 122//122 123//123 124//124
f 118//118 53//53 123//123
f 120//120 104//104 3//3
f 42//42 126//126 8//8
f 7//7 43//43 45//45
f 43//43 5//5 44//44
f 45//45 44//44 6//6
f 24//24 58//58 46//46
f 10//10 47//47 46//46
f 47//47 12//12 48//48
f 46//46 48//48 11//11
f 36//36 35//35 50//50
f 50//50 49//49 9//9
f 8//8 51//51 52//52
f 51//51 7//7 45//45
f 52//52 45//45 6//6
f 6//6 53//53 52//52
f 53//53 3//3 42//42
f 52//52 42//42 8//8
f 54//54 26//26 16//16
f 22//22 55//55 57//57
f 55//55 21//21 56//56
f 57//57 56//56 23//23
f 58//58 18//18 59//59
f 46//46 58//58 10//10
f 60//60 72//72 61//61
f 20//20 63//63 65//65
f 63//63 27//27 64//64
f 65//65 64//64 14//14
f 23//23 56//56 66//66
f 56//56 21//21 28//28
f 21//21 67//67 68//68
f 67//67 29//29 68//68
f 30//30 69//69 127//127
f 127//127 54//54 71//71
f 54//54 16//16 70//70
f 71//71 70//70 34//34
f 72//72 32//32 31//31
f 4//4 73//73 74//74
f 73//73 23//23 128//128
f 74//74 73//73 128//128
f 23//23 66//66 128//128
f 66//66 28//28 78//78
f 128//128 78//78 13//13
f 28//28 79//79 78//78
f 79//79 2//2 80//80
f 78//78 80//80 13//13
f 81//81 30//30 82//82
f 127//127 82//82 30//30
f 127//127 71//71 84//84
f 71//71 34//34 83//83
f 84//84 83//83 38//38
f 8//8 85//85 86//86
f 85//85 14//14 64//64
f 86//86 64//64 27//27
f 36//36 50//50 88//88
f 50//50 9//9 87//87
f 88//88 87//87 34//34
f 28//28 68//68 79//79
f 68//68 29//29 89//89
f 79//79 89//89 2//2
f 27//27 51//51 86//86
f 51//51 27//27 7//7
f 33//33 90//90 92//92
f 90//90 17//17 91//91
f 92//92 91//91 75//75
f 93//93 1//1 94//94
f 1//1 93//93 15//15
f 1//1 95//95 94//94
f 95//95 2//2 89//89
f 94//94 89//89 29//29
f 17//17 96//96 91//91
f 96//96 4//4 75//75
f 33//33 97//97 99//99
f 97//97 9//9 98//98
f 99//99 98//98 37//37
f 32//32 100//100 129//129
f 100//100 12//12 101//101
f 129//129 101//101 36//36
f 75//75 74//74 103//103
f 74//74 13//13 102//102
f 103//103 102//102 40//40
f 95//95 1//1 41//41
f 104//104 126//126 42//42
f 33//33 105//105 97//97
f 105//105 39//39 106//106
f 97//97 106//106 9//9
f 19//19 107//107 15//15
f 107//107 19//19 14//14
f 34//34 87//87 83//83
f 87//87 9//9 108//108
f 83//83 108//108 38//38
f 18//18 109//109 111//111
f 109//109 17//17 110//110
f 111//111 110//110 37//37
f 10//10 112//112 114//114
f 112//112 37//37 113//113
f 114//114 113//113 35//35
f 37//37 112//112 111//111
f 112//112 10//10 59//59
f 111//111 59//59 18//18
f 14//14 19//19 115//115
f 65//65 115//115 20//20
f 15//15 107//107 1//1
f 129//129 36//36 116//116
f 1//1 107//107 41//41
f 107//107 14//14 85//85
f 41//41 85//85 8//8
f 39//39 117//117 118//118
f 117//117 40//40 3//3
f 40//40 117//117 119//119
f 117//117 39//39 105//105
f 119//119 105//105 33//33
f 40//40 119//119 103//103
f 119//119 33//33 92//92
f 103//103 92//92 75//75
f 77//77 34//34 70//70
f 34//34 77//77 88//88
f 77//77 31//31 116//116
f 88//88 116//116 36//36
f 35//35 113//113 49//49
f 113//113 37//37 98//98
f 49//49 98//98 9//9
f 33//33 99//99 90//90
f 99//99 37//37 110//110
f 90//90 110//110 17//17
f 2//2 120//120 80//80
f 120//120 40//40 102//102
f 80//80 102//102 13//13
f 12//12 121//121 101//101
f 101//101 35//35 36//36
f 35//35 121//121 114//114
f 121//121 12//12 47//47
f 114//114 47//47 10//10
f 38//38 108//108 122//122
f 108//108 9//9 106//106
f 122//122 106//106 39//39
f 38//38 122//122 124//124
f 122//122 39//39 123//123
f 124//124 123//123 6//6
f 39//39 118//118 123//123
f 118//118 3//3 53//53
f 123//123 53//53 6//6
f 40//40 120//120 3//3
f 120//120 2//2 104//104
f 125//125 84//84 124//124
f 44//44 125//125 6//6
f 126//126 41//41 8//8
f 46//46 47//47 48//48
f 54//54 127//127 69//69
f 76//76 77//77 70//70
f 95//95 41//41 126//126
f 104//104 42//42 3//3
f 76//76 70//70 16//16
f 44//44 5//5 125//125
f 125//125 82//82 84//84
f 124//124 84//84 38//38
f 5//5 82//82 125//125
f 125//125 124//124 6//6
f 24//24 46//46 11//11
f 2//2 95//95 126//126
f 2//2 126//126 104//104
f 62//62 16//16 26//26
f 16//16 61//61 76//76
f 84//84 82//82 127//127
f 76//76 61//61 31//31
f 61//61 72//72 31//31
f 74//74 128//128 13//13
f 129//129 116//116 31//31
f 62//62 60//60 61//61
f 62//62 61//61 16//16
# 218 faces, 0 coords texture

# End of File
