####
#
# OBJ File Generated by Meshlab
#
####
# Object 2107_C110_S_5.obj
#
# Vertices: 195
# Faces: 341
#
####
vn -4.980090 -3.831046 0.013858
v 59.113675 61.771785 -18.630510
vn -5.032342 -3.761411 0.067619
v 62.488066 57.268670 -23.961998
vn -5.016773 -3.782430 0.054125
v 61.700125 58.327502 -22.574458
vn -5.032661 -3.761141 0.058826
v 62.870307 56.791109 -21.977134
vn -5.028425 -3.764511 0.145757
v 62.219225 57.447212 -29.790076
vn -4.993471 -3.813344 0.044130
v 58.603724 62.412902 -22.313681
vn -5.011836 -3.789186 0.029735
v 61.253818 58.974041 -19.266132
vn -5.021614 -3.775978 0.046957
v 62.050683 57.904517 -20.612515
vn -4.992780 -3.814428 0.000534
v 60.506742 59.963520 -17.604569
vn -5.044882 -3.742299 0.150560
v 63.464466 55.789646 -29.311498
vn -5.039474 -3.751985 0.067311
v 64.559092 54.518027 -22.051875
vn -5.005282 -3.797136 0.074210
v 59.350239 61.392644 -25.738295
vn -4.993897 -3.812561 0.047748
v 59.771781 60.898387 -21.783016
vn -5.022160 -3.772245 0.161276
v 61.291859 58.639041 -30.866179
vn -5.014611 -3.785695 0.014700
v 61.561778 58.572794 -17.352046
vn -5.055613 -3.728139 0.138221
v 64.859703 53.982314 -27.438649
vn -5.010783 -3.790454 0.053041
v 60.909162 59.400415 -21.232790
vn -5.015842 -3.783510 0.065428
v 61.252424 58.903511 -24.489504
vn -5.008724 -3.793067 0.055446
v 60.651208 59.718189 -23.178068
vn -5.008244 -3.793053 0.087151
v 60.658072 59.673770 -25.299366
vn -5.021462 -3.774993 0.111691
v 60.046275 60.419561 -27.331926
vn -5.017934 -3.779084 0.130085
v 61.294682 58.766704 -27.390116
vn -5.046542 -3.741780 0.093582
v 64.437174 54.612570 -25.535112
vn -5.042010 -3.747873 0.099144
v 63.205001 56.263957 -25.604099
vn -4.997056 -3.808437 0.055762
v 59.568977 61.122997 -23.772576
vn -5.041027 -3.748310 0.128670
v 63.906221 55.267304 -27.354617
vn -4.996889 -3.808809 0.048854
v 58.426087 62.622537 -24.270548
vn -5.027764 -3.766045 0.129579
v 60.569615 59.666483 -29.146846
vn -4.990861 -3.816851 0.029777
v 60.056336 60.541017 -19.796718
vn -5.038117 -3.753945 0.060424
v 64.025570 55.244361 -21.366081
vn -5.048840 -3.739090 0.082492
v 65.041691 53.825776 -23.948434
vn -5.028714 -3.766944 0.022713
v 62.297463 57.581875 -18.785832
vn -4.986282 -3.822943 0.020694
v 58.817442 62.148309 -20.338235
vn -5.043421 -3.746555 0.074966
v 63.834536 55.461391 -23.514111
vn -5.021706 -3.773803 0.138727
v 61.755046 58.089400 -29.058637
vn -5.035610 -3.755457 0.130883
v 62.587639 57.030395 -27.722842
vn -5.028502 -3.765730 0.102442
v 61.964794 57.930791 -25.716278
vn -2.449363 -1.880687 0.006774
v 58.583700 62.461400 -18.663600
vn -2.182660 -1.679527 0.001887
v 58.852500 62.112300 -17.986500
vn -2.349391 -1.737170 0.064745
v 64.803400 53.999500 -28.928950
vn -2.274194 -1.732778 -0.003800
v 60.704600 59.701500 -16.525500
vn -2.224331 -1.711371 -0.001729
v 59.713400 60.994800 -17.000700
vn -2.548413 -1.889282 0.075417
v 64.615200 54.239600 -29.301200
vn -2.526250 -1.901748 0.047751
v 58.941600 61.883300 -27.700350
vn -2.478734 -1.863403 0.016113
v 63.423600 56.090200 -17.935900
vn -2.117544 -1.591316 0.013170
v 62.850400 56.858900 -17.148500
vn -2.668636 -1.964632 0.059089
v 65.339300 53.364400 -26.395500
vn -2.211353 -1.616987 0.061315
v 65.268000 53.422100 -27.487100
vn -2.339942 -1.731615 0.076847
v 63.077250 56.222050 -31.364350
vn -2.488704 -1.890338 -0.000734
v 61.035500 59.265500 -16.524800
vn -2.613644 -1.935719 0.045325
v 65.366000 53.402700 -23.316200
vn -2.320141 -1.721623 0.035459
v 65.270600 53.554900 -22.316400
vn -2.558349 -1.903518 0.030245
v 64.980700 53.964500 -21.221000
vn -2.173497 -1.644162 0.007508
v 61.714300 58.374600 -16.541700
vn -2.404673 -1.799277 0.050956
v 59.318100 61.352700 -28.852900
vn -2.072005 -1.544810 0.062351
v 62.041300 57.602000 -31.845100
vn -2.605193 -1.942424 0.032246
v 64.501300 54.630900 -19.909800
vn -2.727527 -2.056816 0.088080
v 61.658900 58.118500 -31.654900
vn -2.284186 -1.707627 0.021896
v 64.298550 54.912150 -19.294850
vn -2.289304 -1.687852 0.043017
v 65.435700 53.249800 -25.819600
vn -2.475536 -1.882246 0.042411
v 58.739275 62.163525 -27.116650
vn -2.291588 -1.751158 0.031028
v 58.404700 62.623800 -26.082700
vn -2.702768 -2.066530 0.030533
v 58.256500 62.832800 -25.061300
vn -2.393307 -1.780638 0.059133
v 59.772100 60.712900 -29.881000
vn -2.221381 -1.656390 0.060726
v 60.257400 60.029500 -30.679200
vn -2.498217 -1.925363 0.000232
v 59.469600 61.310900 -17.285000
vn -2.627280 -1.935342 0.044132
v 65.425700 53.278100 -25.154600
vn -2.904545 -2.167695 0.091576
v 60.775500 59.323500 -31.040400
vn -2.353527 -1.794608 0.019725
v 57.912000 63.316600 -22.612100
vn -2.318438 -1.765331 0.016176
v 57.939400 63.293500 -21.368800
vn -2.492520 -1.897644 0.009796
v 58.044900 63.160200 -20.718500
vn -2.327674 -1.733117 0.028275
v 64.893100 54.087800 -20.844700
vn -2.699767 -2.030442 0.016535
v 62.246000 57.665200 -16.949700
vn -2.230008 -1.650276 0.038446
v 65.489600 53.218300 -24.063700
vn -1.819626 -1.369159 0.073078
v 61.058900 58.907200 -31.642700
vn -2.552883 -1.947543 0.024448
v 58.012400 63.171400 -23.750200
vn -2.160933 -1.650776 0.023941
v 58.041700 63.123700 -24.409500
vn -5.014583 -3.785558 0.041761
v 62.094606 57.797646 -23.249127
vn -5.028175 -3.767093 0.061970
v 62.697291 57.005177 -22.985179
vn -5.010755 -3.790279 0.065916
v 62.278609 57.567947 -22.279940
vn -2.491915 -1.913092 -0.006558
v 60.209000 60.348150 -16.763100
vn -4.980459 -3.830578 -0.001123
v 59.968403 60.663930 -17.562176
vn -5.030761 -3.762929 0.099703
v 59.656555 60.921294 -28.104792
vn -5.026190 -3.769082 0.098841
v 59.499345 61.149727 -27.303507
vn -5.023326 -3.774070 0.031681
v 62.701442 57.048630 -18.174455
vn -5.040772 -3.748617 0.129623
v 64.460591 54.526323 -27.238861
vn -5.045616 -3.741647 0.142041
v 64.432755 54.525129 -28.275367
vn -5.002992 -3.800746 0.052897
v 61.080127 59.189169 -20.250271
vn -5.007916 -3.794027 0.066371
v 61.481439 58.650365 -20.929253
vn -5.017533 -3.781637 0.034558
v 61.652914 58.438499 -19.948030
vn -5.018278 -3.780313 0.064682
v 61.308681 58.858524 -21.911282
vn -5.011601 -3.788944 0.078572
v 61.876916 58.113868 -21.600713
vn -5.025371 -3.770915 0.058522
v 62.453418 57.357334 -21.286420
vn -5.031726 -3.762965 0.015133
v 62.195347 57.715165 -19.635144
vn -5.030220 -3.764971 0.017196
v 61.806854 58.236621 -18.984609
vn -5.021141 -3.776939 0.035760
v 61.524171 58.553569 -23.503638
vn -5.021812 -3.775745 0.054912
v 61.893157 58.057443 -24.169325
vn -5.024894 -3.771869 0.042032
v 61.159384 59.044557 -22.862554
vn -5.017428 -3.781703 0.047060
v 61.038530 59.198444 -23.671749
vn -5.021730 -3.775490 0.079050
v 61.726081 58.264091 -24.966597
vn -5.035076 -3.757547 0.083783
v 62.245364 57.573483 -24.872706
vn -5.044827 -3.742274 0.152576
v 62.887433 56.556552 -29.607846
vn -5.045569 -3.740862 0.162755
v 62.687232 56.783176 -30.615256
vn -5.047133 -3.738706 0.164057
v 63.252800 56.031761 -30.305442
vn -5.011119 -3.790176 0.040538
v 60.341062 60.148502 -21.514997
vn -5.002381 -3.801348 0.061837
v 60.217172 60.300583 -22.503471
vn -5.019248 -3.779297 0.048286
v 60.762075 59.583182 -22.215238
vn -4.998671 -3.806243 0.062906
v 60.630412 59.729842 -24.145032
vn -5.039586 -3.751618 0.078465
v 64.337323 54.798801 -22.922494
vn -5.045024 -3.744312 0.078411
v 64.498589 54.561279 -23.775662
vn -5.010455 -3.789282 0.122802
v 60.671051 59.592505 -27.346210
vn -5.024179 -3.771185 0.116308
v 60.308037 60.042707 -28.235311
vn -5.017464 -3.779548 0.135087
v 60.926406 59.223865 -28.278022
vn -5.039047 -3.752972 0.040161
v 63.029623 56.587434 -20.961180
vn -5.034909 -3.758620 0.027435
v 62.614419 57.151501 -20.281039
vn -4.983975 -3.825580 0.051165
v 59.192188 61.649955 -22.045179
vn -4.980090 -3.830993 0.024681
v 59.304144 61.510935 -21.051152
vn -4.988645 -3.819796 0.027994
v 58.754902 62.223153 -21.315264
vn -5.040505 -3.750570 0.069362
v 63.909769 55.381511 -22.358903
vn -5.044165 -3.745865 0.055553
v 63.447630 56.018032 -21.660758
vn -5.047129 -3.741645 0.070671
v 63.317773 56.173790 -22.704399
vn -5.027879 -3.768033 0.024445
v 62.732671 56.997463 -19.265595
vn -5.006144 -3.796957 0.001477
v 60.997977 59.316157 -17.471396
vn -5.045317 -3.743783 0.085049
v 64.870505 54.078029 -23.046997
vn -5.022501 -3.775149 0.033845
v 63.328432 56.208610 -18.862797
vn -5.037127 -3.754473 0.096108
v 63.830270 55.426776 -25.538827
vn -5.041816 -3.748784 0.071065
v 64.140421 55.029433 -24.598910
vn -5.042567 -3.747599 0.079619
v 63.501654 55.886191 -24.606405
vn -2.422482 -1.798061 0.078348
v 63.581950 55.562100 -30.906000
vn -5.043640 -3.743502 0.162202
v 63.731316 55.402271 -29.954340
vn -2.541792 -1.870829 0.074746
v 65.048950 53.695000 -28.154400
vn -4.996533 -3.809049 0.062002
v 59.073593 61.784739 -23.044471
vn -4.990263 -3.817024 0.077555
v 59.661257 61.022538 -22.775841
vn -4.991187 -3.815953 0.070175
v 60.131212 60.392943 -23.495684
vn -5.030193 -3.761921 0.152074
v 62.007158 57.688139 -30.845529
vn -2.518478 -1.866059 0.080106
v 62.544900 56.931050 -31.614200
vn -5.040087 -3.750001 0.115745
v 63.544882 55.779703 -26.494068
vn -5.038452 -3.752076 0.119726
v 64.151134 54.968739 -26.417269
vn -4.997384 -3.808115 0.049673
v 60.075626 60.448570 -24.513276
vn -4.998442 -3.806873 0.039425
v 60.665348 59.744155 -19.525483
vn -5.005174 -3.797974 0.043934
v 60.492005 59.958462 -20.527585
vn -5.001598 -3.802880 0.016899
v 60.844835 59.516279 -18.505527
vn -5.044561 -3.743182 0.139333
v 63.070574 56.348909 -28.554489
vn -5.043300 -3.744889 0.139095
v 63.689823 55.522469 -28.331527
vn -5.043491 -3.745058 0.126328
v 63.282014 56.103229 -27.500932
vn -5.028476 -3.766980 0.048507
v 63.905058 55.434620 -19.597414
vn -2.480226 -1.862442 0.016718
v 63.890250 55.463050 -18.632700
vn -5.031633 -3.760527 0.137996
v 62.466653 57.150169 -28.889237
vn -5.050427 -3.736087 0.113586
v 64.729553 54.192383 -26.378780
vn -5.058491 -3.725830 0.090482
v 65.030542 53.806107 -25.553778
vn -5.003596 -3.800097 0.040778
v 58.975972 61.901015 -24.034687
vn -4.993328 -3.813111 0.071166
v 58.812325 62.092824 -25.944571
vn -5.013653 -3.785747 0.096353
v 59.174849 61.599499 -26.705073
vn -4.996588 -3.809224 0.045897
v 58.881102 62.017174 -24.994774
vn -5.003775 -3.799921 0.035327
v 59.474702 61.238091 -24.766749
vn -5.009581 -3.791353 0.078735
v 59.956605 60.595930 -25.532810
vn -5.043554 -3.745715 0.102346
v 62.576594 57.107610 -25.692916
vn -5.045702 -3.743213 0.087383
v 62.856629 56.753694 -24.744679
vn -5.037971 -3.752274 0.132923
v 60.274947 60.038858 -29.794890
vn -5.036782 -3.754482 0.114206
v 59.975510 60.466834 -29.021773
vn -5.019858 -3.777069 0.114264
v 59.734890 60.858368 -26.505196
vn -5.012456 -3.786731 0.119790
v 60.353720 60.041887 -26.395487
vn -5.011352 -3.788259 0.117717
v 60.996836 59.191232 -26.411181
vn -5.015041 -3.783824 0.100959
v 61.356624 58.740883 -25.567796
vn -5.035481 -3.755953 0.122014
v 62.275012 57.485181 -26.638074
vn -5.019668 -3.777032 0.123273
v 61.638912 58.337294 -26.538787
vn -5.025724 -3.768498 0.137381
v 61.917477 57.932596 -27.497340
vn -4.978318 -3.833359 0.008277
v 59.548950 61.207874 -18.166092
vn -5.052353 -3.734514 0.073586
v 64.729966 54.232542 -24.708141
vn -5.055952 -3.729426 0.084388
v 65.163373 53.644045 -24.724101
vn -5.047368 -3.741180 0.077655
v 63.123721 56.415577 -23.746254
vn -5.024984 -3.769250 0.143921
v 61.519365 58.433092 -28.284658
vn -5.022517 -3.772679 0.139927
v 62.064017 57.704007 -28.358986
vn -5.029706 -3.763191 0.137200
v 60.822457 59.292953 -30.132192
vn -4.997877 -3.807686 0.034115
v 58.277870 62.847614 -21.518116
vn -4.997251 -3.808596 0.019170
v 58.416806 62.671850 -20.692413
vn -5.039242 -3.752440 0.060263
v 64.520753 54.582709 -21.166018
vn -4.994869 -3.811585 0.029881
v 59.902581 60.734603 -20.794944
vn -4.979914 -3.831240 0.021744
v 59.429421 61.354208 -20.079768
vn -5.035207 -3.757955 0.052034
v 63.622395 55.794502 -20.647115
vn -5.035788 -3.757017 0.063455
v 64.240606 54.970561 -20.507258
vn -5.027200 -3.768947 0.025470
v 61.997485 57.986482 -18.103682
vn -5.023091 -3.774396 0.030034
v 62.186603 57.740985 -17.341761
vn -5.019388 -3.779362 0.014700
v 61.413526 58.765940 -18.278899
vn -2.289509 -1.751654 0.005782
v 58.207875 62.946900 -19.727525
vn -4.982410 -3.828004 0.019241
v 58.939849 61.993797 -19.416902
vn -4.979105 -3.832308 0.018614
v 59.570646 61.175531 -19.119616
vn -5.022202 -3.773081 0.140491
v 61.509204 58.383951 -29.947140
vn -5.025190 -3.769058 0.141684
v 61.162095 58.876256 -29.153056
vn -5.043119 -3.745984 0.113868
v 62.913873 56.625707 -26.606548
vn -5.000256 -3.804428 0.046320
v 58.473652 62.571393 -23.339213
vn -5.043311 -3.744438 0.149939
v 64.063315 54.989441 -29.154908
vn -2.290451 -1.700152 0.073483
v 64.197225 54.765050 -30.175250
vn -4.986897 -3.822120 0.018344
v 60.204622 60.354608 -18.642819
vn -5.029512 -3.765739 0.038990
v 63.265705 56.282669 -19.892440
# 195 vertices, 0 vertices normals

f 1//1 39//39 38//38
f 78//78 79//79 80//80
f 87//87 43//43 40//40
f 55//55 83//83 44//44
f 88//88 89//89 90//90
f 16//16 48//48 47//47
f 91//91 92//92 89//89
f 80//80 93//93 92//92
f 90//90 94//94 95//95
f 78//78 96//96 97//97
f 98//98 99//99 96//96
f 97//97 100//100 101//101
f 102//102 103//103 104//104
f 105//105 106//106 107//107
f 99//99 108//108 18//18
f 124//124 109//109 110//110
f 111//111 112//112 113//113
f 93//93 114//114 115//115
f 116//116 117//117 118//118
f 119//119 120//120 121//121
f 122//122 94//94 115//115
f 11//11 124//124 52//52
f 11//11 52//52 53//53
f 126//126 127//127 128//128
f 104//104 129//129 130//130
f 87//87 40//40 131//131
f 15//15 54//54 50//50
f 91//91 107//107 98//98
f 116//116 132//132 133//133
f 134//134 106//106 133//133
f 135//135 136//136 103//103
f 137//137 138//138 126//126
f 149//149 138//138 86//86
f 134//134 139//139 108//108
f 88//88 140//140 141//141
f 143//143 144//144 145//145
f 146//146 57//57 59//59
f 146//146 59//59 147//147
f 143//143 148//148 102//102
f 23//23 149//149 150//150
f 132//132 191//191 151//151
f 152//152 61//61 153//153
f 12//12 154//154 152//152
f 139//139 155//155 156//156
f 151//151 154//154 155//155
f 101//101 157//157 158//158
f 28//28 160//160 159//159
f 161//161 153//153 84//84
f 156//156 161//161 162//162
f 111//111 163//163 162//162
f 164//164 100//100 18//18
f 165//165 166//166 167//167
f 168//168 82//82 66//66
f 169//169 150//150 170//170
f 74//74 170//170 67//67
f 79//79 171//171 121//121
f 158//158 128//128 171//171
f 167//167 172//172 173//173
f 83//83 160//160 112//112
f 14//14 174//174 68//68
f 6//6 175//175 69//69
f 118//118 176//176 175//175
f 30//30 11//11 177//177
f 178//178 179//179 117//117
f 180//180 181//181 146//146
f 11//11 119//119 109//109
f 125//125 85//85 122//122
f 182//182 85//85 183//183
f 54//54 183//183 73//73
f 31//31 170//170 74//74
f 142//142 184//184 123//123
f 95//95 182//182 184//184
f 15//15 183//183 54//54
f 33//33 185//185 176//176
f 187//187 186//186 179//179
f 180//180 114//114 120//120
f 31//31 74//74 51//51
f 127//127 169//169 110//110
f 187//187 194//194 168//168
f 1//1 168//168 39//39
f 141//141 178//178 105//105
f 14//14 75//75 58//58
f 35//35 148//148 173//173
f 174//174 188//188 189//189
f 5//5 188//188 135//135
f 190//190 145//145 137//137
f 27//27 191//191 76//76
f 27//27 76//76 77//77
f 27//27 77//77 63//63
f 14//14 68//68 75//75
f 172//172 113//113 189//189
f 190//190 157//157 165//165
f 164//164 163//163 166//166
f 144//144 192//192 87//87
f 146//146 181//181 57//57
f 3//3 78//78 80//80
f 78//78 2//2 79//79
f 80//80 79//79 4//4
f 82//82 9//9 81//81
f 82//82 81//81 42//42
f 83//83 21//21 84//84
f 83//83 84//84 44//44
f 45//45 85//85 125//125
f 46//46 85//85 45//45
f 131//131 16//16 87//87
f 86//86 26//26 87//87
f 7//7 88//88 90//90
f 88//88 17//17 89//89
f 90//90 89//89 8//8
f 17//17 91//91 89//89
f 91//91 3//3 92//92
f 89//89 92//92 8//8
f 3//3 80//80 92//92
f 80//80 4//4 93//93
f 92//92 93//93 8//8
f 7//7 90//90 95//95
f 90//90 8//8 94//94
f 95//95 94//94 32//32
f 2//2 78//78 97//97
f 78//78 3//3 96//96
f 97//97 96//96 18//18
f 3//3 98//98 96//96
f 98//98 19//19 99//99
f 96//96 99//99 18//18
f 2//2 97//97 101//101
f 97//97 18//18 100//100
f 101//101 100//100 37//37
f 10//10 102//102 104//104
f 102//102 5//5 103//103
f 104//104 103//103 49//49
f 17//17 105//105 107//107
f 105//105 13//13 106//106
f 107//107 106//106 19//19
f 99//99 19//19 108//108
f 18//18 108//108 20//20
f 31//31 124//124 110//110
f 124//124 11//11 109//109
f 110//110 109//109 34//34
f 22//22 111//111 113//113
f 111//111 21//21 112//112
f 113//113 112//112 28//28
f 8//8 93//93 115//115
f 93//93 4//4 114//114
f 115//115 114//114 195//195
f 6//6 116//116 118//118
f 116//116 13//13 117//117
f 118//118 117//117 33//33
f 34//34 119//119 121//121
f 119//119 30//30 120//120
f 121//121 120//120 4//4
f 195//195 122//122 115//115
f 122//122 32//32 94//94
f 115//115 94//94 8//8
f 50//50 123//123 15//15
f 123//123 41//41 9//9
f 41//41 123//123 50//50
f 51//51 124//124 31//31
f 124//124 51//51 52//52
f 24//24 126//126 128//128
f 126//126 23//23 127//127
f 128//128 127//127 34//34
f 10//10 104//104 130//130
f 104//104 49//49 129//129
f 130//130 129//129 193//193
f 131//131 48//48 16//16
f 3//3 91//91 98//98
f 91//91 17//17 107//107
f 98//98 107//107 19//19
f 13//13 116//116 133//133
f 116//116 6//6 132//132
f 133//133 132//132 25//25
f 25//25 134//134 133//133
f 134//134 19//19 106//106
f 133//133 106//106 13//13
f 5//5 135//135 103//103
f 135//135 56//56 136//136
f 103//103 136//136 49//49
f 24//24 137//137 126//126
f 137//137 26//26 138//138
f 126//126 138//138 23//23
f 16//16 149//149 86//86
f 149//149 23//23 138//138
f 86//86 138//138 26//26
f 19//19 134//134 108//108
f 134//134 25//25 139//139
f 108//108 139//139 20//20
f 17//17 88//88 141//141
f 88//88 7//7 140//140
f 141//141 140//140 29//29
f 7//7 142//142 140//140
f 36//36 143//143 145//145
f 143//143 10//10 144//144
f 145//145 144//144 26//26
f 58//58 135//135 14//14
f 56//56 135//135 58//58
f 125//125 146//146 147//147
f 147//147 45//45 125//125
f 10//10 143//143 102//102
f 143//143 36//36 148//148
f 102//102 148//148 5//5
f 47//47 149//149 16//16
f 149//149 47//47 150//150
f 60//60 150//150 47//47
f 25//25 132//132 151//151
f 132//132 6//6 191//191
f 151//151 191//191 27//27
f 12//12 152//152 153//153
f 152//152 62//62 61//61
f 63//63 154//154 27//27
f 154//154 63//63 152//152
f 62//62 152//152 63//63
f 20//20 139//139 156//156
f 139//139 25//25 155//155
f 156//156 155//155 12//12
f 25//25 151//151 155//155
f 151//151 27//27 154//154
f 155//155 154//154 12//12
f 2//2 101//101 158//158
f 101//101 37//37 157//157
f 158//158 157//157 24//24
f 65//65 159//159 64//64
f 55//55 160//160 83//83
f 160//160 64//64 159//159
f 64//64 160//160 55//55
f 21//21 161//161 84//84
f 161//161 12//12 153//153
f 44//44 153//153 61//61
f 44//44 84//84 153//153
f 20//20 156//156 162//162
f 156//156 12//12 161//161
f 162//162 161//161 21//21
f 21//21 111//111 162//162
f 111//111 22//22 163//163
f 162//162 163//163 20//20
f 20//20 164//164 18//18
f 164//164 37//37 100//100
f 36//36 165//165 167//167
f 165//165 37//37 166//166
f 167//167 166//166 22//22
f 66//66 82//82 42//42
f 31//31 169//169 170//170
f 169//169 23//23 150//150
f 67//67 150//150 60//60
f 170//170 150//150 67//67
f 4//4 79//79 121//121
f 79//79 2//2 171//171
f 121//121 171//171 34//34
f 2//2 158//158 171//171
f 158//158 24//24 128//128
f 171//171 128//128 34//34
f 36//36 167//167 173//173
f 167//167 22//22 172//172
f 173//173 172//172 35//35
f 21//21 83//83 112//112
f 112//112 160//160 28//28
f 174//174 28//28 159//159
f 174//174 159//159 65//65
f 174//174 65//65 68//68
f 175//175 70//70 69//69
f 6//6 118//118 175//175
f 118//118 33//33 176//176
f 175//175 176//176 71//71
f 70//70 175//175 71//71
f 53//53 177//177 11//11
f 72//72 177//177 53//53
f 13//13 178//178 117//117
f 178//178 29//29 179//179
f 117//117 179//179 33//33
f 180//180 30//30 181//181
f 11//11 30//30 119//119
f 109//109 119//119 34//34
f 195//195 125//125 122//122
f 122//122 85//85 32//32
f 15//15 182//182 183//183
f 182//182 32//32 85//85
f 183//183 85//85 46//46
f 183//183 46//46 73//73
f 142//142 7//7 184//184
f 123//123 184//184 15//15
f 7//7 95//95 184//184
f 95//95 32//32 182//182
f 184//184 182//182 15//15
f 176//176 185//185 71//71
f 38//38 186//186 1//1
f 186//186 185//185 33//33
f 185//185 186//186 38//38
f 29//29 187//187 179//179
f 187//187 1//1 186//186
f 179//179 186//186 33//33
f 30//30 180//180 120//120
f 180//180 195//195 114//114
f 120//120 114//114 4//4
f 34//34 127//127 110//110
f 127//127 23//23 169//169
f 110//110 169//169 31//31
f 1//1 187//187 168//168
f 187//187 29//29 194//194
f 168//168 66//66 39//39
f 17//17 141//141 105//105
f 141//141 29//29 178//178
f 105//105 178//178 13//13
f 35//35 5//5 148//148
f 173//173 148//148 36//36
f 28//28 174//174 189//189
f 174//174 14//14 188//188
f 189//189 188//188 35//35
f 5//5 35//35 188//188
f 135//135 188//188 14//14
f 24//24 190//190 137//137
f 190//190 36//36 145//145
f 137//137 145//145 26//26
f 69//69 191//191 6//6
f 191//191 69//69 76//76
f 35//35 172//172 189//189
f 172//172 22//22 113//113
f 189//189 113//113 28//28
f 192//192 10//10 130//130
f 192//192 130//130 193//193
f 87//87 192//192 43//43
f 193//193 43//43 192//192
f 36//36 190//190 165//165
f 190//190 24//24 157//157
f 165//165 157//157 37//37
f 37//37 164//164 166//166
f 164//164 20//20 163//163
f 166//166 163//163 22//22
f 26//26 144//144 87//87
f 144//144 10//10 192//192
f 181//181 30//30 177//177
f 181//181 177//177 72//72
f 181//181 72//72 57//57
f 9//9 41//41 81//81
f 194//194 142//142 9//9
f 168//168 194//194 82//82
f 9//9 142//142 123//123
f 82//82 194//194 9//9
f 142//142 194//194 140//140
f 140//140 194//194 29//29
f 195//195 146//146 125//125
f 195//195 180//180 146//146
f 16//16 86//86 87//87
# 341 faces, 0 coords texture

# End of File
