####
#
# OBJ File Generated by Meshlab
#
####
# Object 2127_C112_S_3.obj
#
# Vertices: 117
# Faces: 196
#
####
vn -4.999907 -3.803354 -0.117504
v 62.018736 59.473694 20.380627
vn -5.005932 -3.796261 -0.085041
v 62.947937 58.469446 12.614800
vn -4.973325 -3.838804 -0.088271
v 58.803899 63.818874 14.713052
vn -4.993378 -3.811930 -0.116746
v 61.198744 60.604219 18.717547
vn -4.982495 -3.826842 -0.090961
v 61.561392 60.291367 12.393439
vn -4.974576 -3.837253 -0.086357
v 59.814732 62.520833 13.985051
vn -4.973785 -3.838261 -0.085742
v 59.655810 62.688389 15.659849
vn -4.979923 -3.829559 -0.112759
v 59.840570 62.375069 18.873560
vn -4.998574 -3.805390 -0.106809
v 61.645672 60.076233 16.740675
vn -5.000004 -3.803471 -0.108531
v 62.668847 58.687345 18.248478
vn -5.005206 -3.796780 -0.103397
v 63.403624 57.820744 14.531447
vn -5.004358 -3.797690 -0.106583
v 64.055623 56.869228 18.233629
vn -4.976814 -3.834311 -0.081446
v 60.768351 61.265602 15.196658
vn -4.996020 -3.808999 -0.094014
v 62.024795 59.640811 14.499434
vn -4.998070 -3.806330 -0.096297
v 63.699303 57.373125 16.507354
vn -4.979613 -3.831046 -0.069455
v 60.935307 61.064251 14.121140
vn -4.991921 -3.813854 -0.116683
v 60.788731 61.078857 20.623663
vn -4.979925 -3.829973 -0.099368
v 60.353448 61.754117 17.086485
vn -2.266444 -1.719699 -0.052708
v 62.325500 59.046100 21.142400
vn -2.256396 -1.717103 -0.058273
v 63.334580 57.745354 20.272475
vn -2.299991 -1.759466 -0.050405
v 60.641800 61.255250 21.170900
vn -2.496739 -1.889562 -0.037105
v 63.916125 57.192150 12.486250
vn -2.233017 -1.691832 -0.038483
v 64.217600 56.782600 13.028100
vn -2.549645 -1.959832 -0.065025
v 59.797000 62.378300 20.449000
vn -2.174969 -1.674809 -0.052133
v 59.283400 63.064400 19.937700
vn -2.295928 -1.747152 -0.048536
v 61.805100 59.728800 21.303200
vn -2.180616 -1.702869 -0.040477
v 58.345300 64.356200 16.750800
vn -2.468563 -1.918364 -0.047908
v 58.454000 64.259500 15.129900
vn -2.254893 -1.727831 -0.053994
v 60.219100 61.814000 20.944500
vn -2.192164 -1.672369 -0.041163
v 62.271100 59.403550 10.840900
vn -2.180175 -1.645532 -0.032489
v 63.423000 57.859500 11.620000
vn -2.262745 -1.750930 -0.045125
v 58.661550 63.912550 18.462700
vn -2.530528 -1.927671 -0.043559
v 64.535900 56.258700 17.355100
vn -2.191026 -1.672669 -0.039200
v 64.672900 56.091900 16.754000
vn -2.314078 -1.755030 -0.059324
v 64.146500 56.726300 18.932100
vn -2.329078 -1.753296 -0.055486
v 64.297900 56.538300 18.520800
vn -2.417273 -1.863835 -0.041513
v 60.693100 61.449400 11.044800
vn -2.237830 -1.729903 -0.035873
v 59.949100 62.400100 11.562000
vn -2.203403 -1.675583 -0.043357
v 64.648300 56.176350 14.721000
vn -2.495681 -1.922334 -0.040116
v 58.908175 63.710375 13.420900
vn -2.149889 -1.663552 -0.038906
v 58.498550 64.217450 14.543800
vn -2.223716 -1.715147 -0.037273
v 59.189100 63.362100 12.634100
vn -2.305304 -1.775437 -0.039915
v 60.894000 61.190900 10.937800
vn -5.001923 -3.800560 -0.122151
v 62.637903 58.663756 20.230466
vn -2.493596 -1.894469 -0.059806
v 62.802650 58.430950 20.735950
vn -4.963589 -3.851480 -0.085171
v 60.175232 62.024376 15.436911
vn -4.973552 -3.838578 -0.085737
v 59.748108 62.588112 14.813600
vn -4.972781 -3.839244 -0.100185
v 59.371887 62.998785 18.234880
vn -4.974898 -3.836790 -0.088294
v 59.678938 62.626307 17.203643
vn -4.982401 -3.826719 -0.100601
v 60.102058 62.058616 17.971553
vn -5.007718 -3.793746 -0.093093
v 63.166810 58.156834 13.584041
vn -5.009397 -3.791774 -0.081887
v 63.568238 57.645520 12.807249
vn -5.006858 -3.794949 -0.090228
v 63.802416 57.314172 13.718651
vn -4.976443 -3.834400 -0.101372
v 60.575991 61.489781 16.188066
vn -4.992823 -3.812432 -0.124372
v 60.934679 60.916692 19.740297
vn -4.986685 -3.820454 -0.124342
v 60.235571 61.827739 19.845714
vn -4.989836 -3.816644 -0.114609
v 60.506524 61.506001 18.821205
vn -4.988853 -3.818155 -0.106996
v 60.777249 61.178518 17.882969
vn -4.976800 -3.834269 -0.090614
v 61.224780 60.708314 13.185901
vn -4.984913 -3.823826 -0.084515
v 61.830769 59.918445 13.358984
vn -4.978647 -3.832152 -0.076324
v 61.465060 60.376793 14.032173
vn -4.964119 -3.850528 -0.094923
v 58.718709 63.906546 15.648654
vn -2.476667 -1.932133 -0.050830
v 58.399650 64.307850 15.940350
vn -4.979893 -3.830307 -0.088453
v 59.198580 63.291578 15.307612
vn -4.997166 -3.806757 -0.123854
v 61.624823 60.017406 19.562825
vn -4.998661 -3.804984 -0.117816
v 61.904412 59.683067 18.531329
vn -5.000407 -3.802542 -0.122519
v 62.317135 59.113338 19.389882
vn -4.994510 -3.811158 -0.090737
v 62.268345 59.364320 12.431594
vn -4.986153 -3.821987 -0.094260
v 61.876325 59.899796 11.615616
vn -5.000255 -3.803475 -0.096220
v 62.434318 59.169034 11.610509
vn -5.007109 -3.794662 -0.085380
v 62.787495 58.698111 11.884619
vn -2.488889 -1.879385 -0.039740
v 62.920250 58.534650 11.267100
vn -5.006618 -3.794820 -0.106541
v 62.759126 58.672561 14.483287
vn -5.004132 -3.797820 -0.116641
v 63.029343 58.289820 15.311427
vn -5.009008 -3.791434 -0.115071
v 62.445598 59.055673 15.449195
vn -4.968014 -3.845593 -0.092254
v 59.018404 63.476504 17.445801
vn -2.447974 -1.906641 -0.043543
v 58.476250 64.171850 17.517500
vn -5.000657 -3.803199 -0.085879
v 62.497337 59.042028 13.500248
vn -4.994897 -3.810882 -0.081235
v 63.931612 57.047090 17.514134
vn -4.993781 -3.812141 -0.089820
v 64.265450 56.628132 16.646725
vn -4.994961 -3.810102 -0.106191
v 63.407756 57.715962 18.357585
vn -4.999104 -3.805236 -0.086498
v 63.231009 57.968705 17.368518
vn -4.978337 -3.832327 -0.088121
v 60.644761 61.461980 13.151923
vn -4.972547 -3.840087 -0.076470
v 60.326983 61.852029 14.255966
vn -4.975400 -3.836169 -0.087212
v 60.077086 62.198386 13.224980
vn -5.006345 -3.795548 -0.093296
v 62.665450 58.718545 17.149461
vn -5.004209 -3.798044 -0.104769
v 62.967130 58.342917 16.263898
vn -4.974508 -3.837313 -0.087332
v 60.355907 61.859686 12.249883
vn -4.993529 -3.811917 -0.110916
v 61.447045 60.307647 17.732665
vn -5.003852 -3.798549 -0.103509
v 62.109844 59.444217 17.497892
vn -4.997463 -3.806012 -0.133830
v 63.620801 57.409121 19.179131
vn -2.495289 -1.895100 -0.070641
v 63.754450 57.218050 19.584050
vn -5.001701 -3.801141 -0.112848
v 63.567323 57.576825 15.492152
vn -5.003742 -3.798786 -0.100326
v 64.013377 57.014479 14.647538
vn -4.998046 -3.806146 -0.105320
v 64.150010 56.805657 15.627793
vn -2.502202 -1.898702 -0.043659
v 64.432900 56.479550 13.874050
vn -2.496470 -1.906297 -0.049082
v 64.660650 56.134050 15.738000
vn -2.461186 -1.900474 -0.054985
v 58.999650 63.451000 19.289450
vn -4.979572 -3.830822 -0.083991
v 59.270290 63.223036 14.237833
vn -4.986884 -3.821267 -0.081848
v 61.370415 60.485916 14.932813
vn -4.994806 -3.810139 -0.114171
v 61.404766 60.274555 20.514217
vn -2.499721 -1.908309 -0.051983
v 61.302900 60.388400 21.244300
vn -4.975901 -3.835589 -0.083984
v 59.490043 62.955909 13.356708
vn -4.972635 -3.839828 -0.083786
v 59.749061 62.638942 12.547100
vn -4.997126 -3.806676 -0.127698
v 62.998363 58.219617 19.304192
vn -4.990063 -3.816604 -0.105784
v 61.204657 60.674490 15.976557
vn -5.002707 -3.799915 -0.108134
v 61.822347 59.873734 15.683387
vn -5.010293 -3.790064 -0.103290
v 62.251977 59.281539 16.471606
vn -2.483717 -1.918194 -0.039943
v 59.414500 63.076975 12.314850
vn -4.988330 -3.818782 -0.109045
v 61.009885 60.900974 16.950039
vn -4.977022 -3.833965 -0.091475
v 60.961305 61.074400 12.223082
vn -4.977578 -3.833343 -0.087243
v 61.244581 60.722425 11.527890
vn -2.429925 -1.870351 -0.042532
v 61.509350 60.394100 10.852700
vn -4.966459 -3.847597 -0.091303
v 58.928536 63.616383 16.454292
vn -4.970503 -3.842527 -0.085917
v 59.902113 62.354801 16.345140
vn -4.978293 -3.831349 -0.125349
v 59.653377 62.597243 19.510172
vn -4.976914 -3.834270 -0.084340
v 59.384173 63.023222 16.525675
# 117 vertices, 0 vertices normals

f 44//44 20//20 45//45
f 46//46 47//47 84//84
f 48//48 49//49 50//50
f 51//51 52//52 53//53
f 54//54 115//115 46//46
f 55//55 56//56 57//57
f 57//57 50//50 58//58
f 8//8 56//56 116//116
f 1//1 19//19 26//26
f 59//59 60//60 61//61
f 17//17 21//21 29//29
f 114//114 62//62 64//64
f 65//65 66//66 67//67
f 68//68 69//69 70//70
f 2//2 68//68 71//71
f 71//71 70//70 72//72
f 73//73 74//74 75//75
f 76//76 32//32 77//77
f 73//73 78//78 51//51
f 81//81 82//82 79//79
f 12//12 36//36 35//35
f 83//83 84//84 85//85
f 68//68 78//78 60//60
f 82//82 86//86 87//87
f 89//89 90//90 66//66
f 91//91 35//35 92//92
f 93//93 94//94 95//95
f 53//53 96//96 94//94
f 95//95 97//97 80//80
f 8//8 116//116 98//98
f 61//61 100//100 16//16
f 17//17 101//101 102//102
f 85//85 103//103 104//104
f 105//105 44//44 67//67
f 106//106 100//100 107//107
f 64//64 99//99 47//47
f 107//107 75//75 108//108
f 93//93 87//87 74//74
f 55//55 65//65 101//101
f 105//105 81//81 91//91
f 3//3 28//28 41//41
f 58//58 110//110 89//89
f 54//54 106//106 110//110
f 5//5 111//111 112//112
f 86//86 90//90 108//108
f 59//59 83//83 111//111
f 112//112 113//113 69//69
f 56//56 29//29 24//24
f 1//1 44//44 19//19
f 45//45 19//19 44//44
f 13//13 46//46 84//84
f 46//46 7//7 47//47
f 84//84 47//47 6//6
f 8//8 48//48 50//50
f 48//48 76//76 49//49
f 50//50 49//49 18//18
f 11//11 51//51 53//53
f 51//51 2//2 52//52
f 23//23 53//53 52//52
f 22//22 23//23 52//52
f 13//13 54//54 46//46
f 54//54 18//18 115//115
f 46//46 115//115 7//7
f 4//4 55//55 57//57
f 55//55 17//17 56//56
f 57//57 56//56 8//8
f 4//4 57//57 58//58
f 57//57 8//8 50//50
f 58//58 50//50 18//18
f 29//29 56//56 17//17
f 25//25 116//116 24//24
f 16//16 59//59 61//61
f 59//59 5//5 60//60
f 61//61 60//60 14//14
f 63//63 114//114 27//27
f 3//3 64//64 62//62
f 63//63 28//28 62//62
f 18//18 49//49 115//115
f 49//49 76//76 117//117
f 7//7 117//117 64//64
f 3//3 62//62 28//28
f 1//1 65//65 67//67
f 65//65 4//4 66//66
f 67//67 66//66 10//10
f 71//71 68//68 70//70
f 68//68 5//5 69//69
f 70//70 69//69 30//30
f 70//70 30//30 72//72
f 2//2 71//71 31//31
f 72//72 31//31 71//71
f 14//14 73//73 75//75
f 73//73 11//11 74//74
f 75//75 74//74 87//87
f 114//114 77//77 27//27
f 11//11 73//73 51//51
f 73//73 14//14 78//78
f 51//51 78//78 2//2
f 79//79 15//15 80//80
f 33//33 80//80 34//34
f 33//33 79//79 80//80
f 12//12 81//81 79//79
f 81//81 10//10 82//82
f 79//79 82//82 15//15
f 88//88 83//83 85//85
f 83//83 16//16 84//84
f 85//85 84//84 6//6
f 5//5 68//68 60//60
f 68//68 2//2 78//78
f 60//60 78//78 14//14
f 15//15 82//82 87//87
f 82//82 10//10 86//86
f 88//88 38//38 37//37
f 4//4 89//89 66//66
f 89//89 9//9 90//90
f 66//66 90//90 10//10
f 35//35 91//91 12//12
f 92//92 20//20 91//91
f 15//15 93//93 95//95
f 93//93 11//11 94//94
f 95//95 94//94 39//39
f 11//11 53//53 94//94
f 53//53 23//23 96//96
f 94//94 96//96 39//39
f 15//15 95//95 80//80
f 95//95 39//39 97//97
f 80//80 97//97 34//34
f 116//116 25//25 98//98
f 48//48 98//98 32//32
f 3//3 41//41 40//40
f 40//40 99//99 3//3
f 61//61 14//14 100//100
f 16//16 100//100 13//13
f 13//13 84//84 16//16
f 101//101 26//26 102//102
f 26//26 101//101 1//1
f 102//102 21//21 17//17
f 6//6 99//99 103//103
f 103//103 99//99 40//40
f 42//42 103//103 40//40
f 88//88 85//85 104//104
f 85//85 6//6 103//103
f 104//104 103//103 42//42
f 109//109 104//104 42//42
f 10//10 105//105 67//67
f 105//105 20//20 44//44
f 67//67 44//44 1//1
f 9//9 106//106 107//107
f 106//106 13//13 100//100
f 107//107 100//100 14//14
f 7//7 64//64 47//47
f 64//64 3//3 99//99
f 47//47 99//99 6//6
f 9//9 107//107 108//108
f 107//107 14//14 75//75
f 108//108 75//75 87//87
f 11//11 93//93 74//74
f 93//93 15//15 87//87
f 17//17 55//55 101//101
f 55//55 4//4 65//65
f 101//101 65//65 1//1
f 88//88 104//104 38//38
f 109//109 38//38 104//104
f 20//20 105//105 91//91
f 105//105 10//10 81//81
f 91//91 81//81 12//12
f 2//2 31//31 52//52
f 22//22 52//52 31//31
f 4//4 58//58 89//89
f 58//58 18//18 110//110
f 89//89 110//110 9//9
f 18//18 54//54 110//110
f 54//54 13//13 106//106
f 110//110 106//106 9//9
f 111//111 88//88 37//37
f 111//111 37//37 112//112
f 43//43 112//112 37//37
f 87//87 86//86 108//108
f 86//86 10//10 90//90
f 108//108 90//90 9//9
f 5//5 59//59 111//111
f 59//59 16//16 83//83
f 111//111 83//83 88//88
f 5//5 112//112 69//69
f 112//112 43//43 113//113
f 69//69 113//113 30//30
f 115//115 117//117 7//7
f 76//76 48//48 32//32
f 114//114 63//63 62//62
f 12//12 79//79 33//33
f 12//12 33//33 36//36
f 114//114 76//76 77//77
f 8//8 98//98 48//48
f 117//117 76//76 114//114
f 49//49 117//117 115//115
f 117//117 114//114 64//64
f 116//116 56//56 24//24
# 196 faces, 0 coords texture

# End of File
