####
#
# OBJ File Generated by Meshlab
#
####
# Object 2163_C115_S_11.obj
#
# Vertices: 116
# Faces: 195
#
####
vn -4.989379 -3.817672 -0.097718
v 60.178751 65.068334 16.864096
vn -5.016091 -3.782688 -0.089077
v 63.455744 60.837507 13.409862
vn -5.012784 -3.786738 -0.103977
v 62.317505 62.258942 16.669760
vn -5.019340 -3.778436 -0.088617
v 63.118605 61.326099 11.523307
vn -5.007260 -3.794158 -0.098408
v 62.231192 62.470893 12.443808
vn -5.017289 -3.780339 -0.119378
v 63.663737 60.388179 19.423200
vn -5.006464 -3.794644 -0.117369
v 61.282014 63.535961 19.878491
vn -5.014986 -3.783545 -0.114507
v 63.249176 60.993512 17.654657
vn -5.018495 -3.778905 -0.112599
v 64.282261 59.636975 17.301710
vn -5.024230 -3.771846 -0.092760
v 64.513344 59.385780 15.150461
vn -5.009644 -3.791255 -0.090783
v 62.317845 62.308454 14.574654
vn -5.014611 -3.784412 -0.101411
v 63.405880 60.838881 15.807854
vn -5.016242 -3.781790 -0.117385
v 62.434796 61.978165 20.709012
vn -4.993173 -3.812416 -0.110118
v 60.324501 64.822522 18.766806
vn -4.989161 -3.818358 -0.082286
v 60.356041 64.874217 15.055770
vn -5.015801 -3.782430 -0.115592
v 62.350297 62.153377 18.706985
vn -5.029433 -3.765077 -0.085904
v 64.807713 59.036493 13.258194
vn -5.003272 -3.799198 -0.107671
v 61.234088 63.658433 17.777145
vn -5.033986 -3.758378 -0.106640
v 65.429101 58.126229 16.715995
vn -4.999570 -3.804459 -0.090726
v 61.293317 63.639212 15.619863
vn -2.535591 -1.900928 -0.039705
v 63.704700 60.548125 11.348525
vn -1.924882 -1.443425 -0.031561
v 63.063900 61.410100 11.018000
vn -2.247225 -1.691746 -0.050557
v 64.465100 59.283700 20.748400
vn -2.513496 -1.888694 -0.056447
v 64.852350 58.785575 20.170600
vn -2.770089 -2.089885 -0.058480
v 62.820200 61.730900 11.206100
vn -2.312425 -1.753707 -0.042281
v 61.252400 63.776300 12.060000
vn -2.245053 -1.701216 -0.050927
v 62.181200 62.571400 11.320400
vn -2.318669 -1.738690 -0.036642
v 64.070150 60.057050 11.518500
vn -2.312862 -1.726569 -0.038821
v 65.380600 58.272000 13.126200
vn -2.300900 -1.761155 -0.043420
v 60.448600 64.795200 13.302000
vn -2.199469 -1.682977 -0.037608
v 59.939300 65.425500 14.758300
vn -2.194769 -1.683123 -0.044829
v 59.762839 65.601839 17.187673
vn -2.399457 -1.787209 -0.057056
v 65.880200 57.496000 17.487200
vn -2.234549 -1.658726 -0.044324
v 66.019800 57.337100 16.476000
vn -2.455336 -1.860827 -0.046100
v 61.558800 63.376600 11.789700
vn -2.454932 -1.851667 -0.059912
v 61.869300 62.706400 21.372900
vn -2.353350 -1.777944 -0.060080
v 61.369500 63.380600 21.050100
vn -2.255783 -1.723968 -0.049776
v 60.097800 65.111200 19.042400
vn -2.287183 -1.724343 -0.053421
v 63.521300 60.515000 21.428600
vn -2.509391 -1.891436 -0.058427
v 63.198900 60.940200 21.501900
vn -2.156831 -1.627644 -0.048314
v 62.449800 61.929800 21.674100
vn -2.243258 -1.709823 -0.052829
v 60.715400 64.264400 20.362700
vn -2.439477 -1.862679 -0.053550
v 60.263100 64.883700 19.436500
vn -2.239141 -1.676778 -0.050510
v 65.346600 58.148900 19.436800
vn -2.409828 -1.799228 -0.057665
v 65.594600 57.838500 18.689400
vn -2.443008 -1.871055 -0.039801
v 59.834700 65.539100 15.884200
vn -2.301778 -1.718570 -0.039777
v 65.879984 57.566230 14.872434
vn -2.258030 -1.692669 -0.039931
v 64.987500 58.817300 12.388200
vn -5.014679 -3.784120 -0.108756
v 63.341828 60.894673 16.823972
vn -5.016784 -3.781225 -0.112362
v 62.823783 61.571448 17.200858
vn -5.015293 -3.783549 -0.099481
v 62.859271 61.552840 16.214749
vn -5.010154 -3.790432 -0.096625
v 62.870036 61.563611 15.161513
vn -5.004924 -3.797380 -0.094626
v 62.854412 61.615117 14.026935
vn -5.013305 -3.786112 -0.102263
v 63.425289 60.843762 14.679362
vn -5.014850 -3.784455 -0.084619
v 63.250647 61.134981 12.252229
vn -5.027374 -3.767995 -0.078359
v 63.814365 60.380090 12.396214
vn -5.021231 -3.775016 -0.121886
v 64.390847 59.431804 19.097715
vn -5.022270 -3.773853 -0.115067
v 64.755027 58.931576 19.624274
vn -5.019017 -3.778192 -0.114671
v 64.192530 59.665141 20.100119
vn -5.010393 -3.790324 -0.088235
v 61.745414 63.100360 13.058384
vn -5.007104 -3.794716 -0.085839
v 62.284875 62.376523 13.488559
vn -5.008875 -3.792384 -0.085783
v 61.778509 63.034418 14.039075
vn -5.011011 -3.789502 -0.088619
v 61.802762 62.977905 15.085565
vn -5.012470 -3.787534 -0.090251
v 62.326316 62.272004 15.635729
vn -5.009639 -3.791103 -0.097012
v 61.797294 62.960136 16.134794
vn -5.001439 -3.801757 -0.102883
v 61.250957 63.666016 16.684991
vn -4.996232 -3.808555 -0.104761
v 60.683171 64.396176 17.240367
vn -4.991917 -3.814615 -0.087867
v 60.596298 64.538652 16.151476
vn -5.030962 -3.761960 -0.124300
v 65.243720 58.338999 17.783890
vn -5.024376 -3.770723 -0.125211
v 64.653179 59.117640 18.074085
vn -5.024303 -3.771263 -0.110310
v 64.846899 58.894342 16.994092
vn -5.000650 -3.802948 -0.095216
v 61.282355 63.719276 12.778690
vn -2.424328 -1.856214 -0.046169
v 60.725600 64.445300 12.824325
vn -5.005675 -3.796129 -0.104526
v 62.713669 61.850837 11.893950
vn -5.027848 -3.767269 -0.082659
v 64.166639 59.890367 13.335475
vn -5.025065 -3.771001 -0.081574
v 64.393970 59.605020 12.470244
vn -5.031827 -3.761929 -0.083680
v 65.265293 58.407077 14.038552
vn -2.484775 -1.855585 -0.039367
v 65.591750 57.974550 13.820550
vn -2.494846 -1.908731 -0.045793
v 60.193950 65.110350 14.030150
vn -5.012186 -3.787245 -0.114674
v 63.728716 60.362388 17.537615
vn -5.014782 -3.784143 -0.102879
v 63.873863 60.199216 16.530129
vn -5.014789 -3.783649 -0.119557
v 63.430611 60.728773 18.424867
vn -5.017665 -3.779656 -0.124769
v 64.036711 59.928670 18.352544
vn -5.016323 -3.781660 -0.118179
v 63.018379 61.223220 20.095350
vn -5.017938 -3.779488 -0.119075
v 62.403458 62.051051 19.715702
vn -5.016762 -3.781057 -0.118841
v 62.963162 61.327600 19.108259
vn -5.009238 -3.791294 -0.109519
v 61.777996 62.956378 17.204248
vn -5.013520 -3.785459 -0.115419
v 62.314228 62.232016 17.695321
vn -5.012991 -3.786297 -0.110743
v 61.781681 62.919442 18.256259
vn -5.009993 -3.790670 -0.095411
v 61.706281 63.170999 12.233806
vn -5.004480 -3.797607 -0.107266
v 61.254162 63.602270 18.831806
vn -4.994875 -3.810219 -0.108958
v 60.729905 64.303410 18.341050
vn -5.018160 -3.779062 -0.123130
v 61.844524 62.773606 20.350315
vn -4.992333 -3.813546 -0.108944
v 60.236171 64.965527 17.827941
vn -2.484645 -1.899236 -0.054459
v 59.954750 65.321000 18.271000
vn -5.016638 -3.781280 -0.116993
v 63.567560 60.481449 20.529365
vn -5.016682 -3.781256 -0.115810
v 63.018327 61.195230 21.001372
vn -4.994128 -3.811189 -0.109287
v 60.744091 64.256815 19.322420
vn -5.029582 -3.764882 -0.085944
v 65.144679 58.546431 14.978795
vn -5.028704 -3.766029 -0.087080
v 64.645949 59.231350 14.172893
vn -5.001500 -3.802021 -0.089705
v 62.789958 61.725682 12.898552
vn -4.994706 -3.810882 -0.091565
v 61.144839 63.879849 13.544271
vn -5.019710 -3.777740 -0.097971
v 64.412819 59.491860 16.215381
vn -5.018404 -3.779425 -0.099917
v 63.945305 60.132552 15.440011
vn -5.016876 -3.781088 -0.112608
v 61.811162 62.851346 19.292555
vn -5.016296 -3.781740 -0.116768
v 62.852988 61.503681 18.154198
vn -5.023429 -3.772871 -0.094393
v 64.008419 60.078503 14.336066
vn -5.036361 -3.755678 -0.090331
v 65.577093 57.950870 15.781049
vn -2.504958 -1.858950 -0.046983
v 65.963750 57.430000 15.774950
vn -2.511942 -1.888258 -0.042129
v 64.539400 59.422850 11.964000
vn -2.508512 -1.890394 -0.058147
v 63.993200 59.899350 21.088500
vn -5.025682 -3.769925 -0.092285
v 64.983624 58.739838 15.939853
vn -4.996355 -3.808824 -0.085585
v 61.274169 63.687152 14.598204
vn -5.027093 -3.767238 -0.120938
v 65.008161 58.620577 18.791007
vn -4.987543 -3.820305 -0.089809
v 60.693596 64.451033 14.281310
vn -4.986374 -3.822013 -0.081582
v 60.845019 64.232661 15.202315
# 116 vertices, 0 vertices normals

f 49//49 50//50 51//51
f 52//52 53//53 54//54
f 55//55 4//4 21//21
f 57//57 58//58 59//59
f 60//60 61//61 62//62
f 63//63 64//64 65//65
f 52//52 51//51 64//64
f 66//66 67//67 68//68
f 69//69 70//70 71//71
f 4//4 25//25 22//22
f 4//4 74//74 25//25
f 75//75 56//56 76//76
f 77//77 29//29 78//78
f 30//30 115//115 79//79
f 19//19 34//34 33//33
f 80//80 49//49 81//81
f 82//82 80//80 83//83
f 84//84 85//85 86//86
f 87//87 88//88 89//89
f 60//60 72//72 90//90
f 27//27 90//90 35//35
f 5//5 90//90 27//27
f 91//91 98//98 92//92
f 87//87 66//66 65//65
f 7//7 93//93 37//37
f 94//94 14//14 95//95
f 84//84 96//96 97//97
f 13//13 41//41 36//36
f 13//13 97//97 41//41
f 70//70 57//57 83//83
f 14//14 98//98 43//43
f 7//7 37//37 42//42
f 77//77 99//99 100//100
f 114//114 45//45 44//44
f 61//61 101//101 53//53
f 103//103 81//81 104//104
f 1//1 32//32 46//46
f 93//93 105//105 85//85
f 106//106 82//82 86//86
f 105//105 91//91 89//89
f 88//88 50//50 106//106
f 75//75 100//100 107//107
f 17//17 48//48 29//29
f 108//108 47//47 109//109
f 76//76 28//28 110//110
f 59//59 111//111 96//96
f 92//92 94//94 67//67
f 101//101 74//74 55//55
f 104//104 54//54 107//107
f 14//14 43//43 38//38
f 108//108 112//112 99//99
f 71//71 103//103 112//112
f 63//63 113//113 62//62
f 102//102 113//113 115//115
f 12//12 49//49 51//51
f 49//49 8//8 50//50
f 51//51 50//50 3//3
f 12//12 52//52 54//54
f 52//52 11//11 53//53
f 54//54 53//53 2//2
f 21//21 4//4 22//22
f 2//2 55//55 56//56
f 56//56 55//55 21//21
f 28//28 56//56 21//21
f 6//6 57//57 59//59
f 57//57 114//114 58//58
f 59//59 24//24 23//23
f 59//59 58//58 24//24
f 102//102 60//60 62//62
f 60//60 5//5 61//61
f 62//62 61//61 11//11
f 20//20 63//63 65//65
f 63//63 11//11 64//64
f 65//65 64//64 3//3
f 11//11 52//52 64//64
f 52//52 12//12 51//51
f 64//64 51//51 3//3
f 66//66 18//18 67//67
f 19//19 69//69 71//71
f 69//69 114//114 70//70
f 71//71 70//70 9//9
f 72//72 73//73 26//26
f 27//27 74//74 5//5
f 74//74 27//27 25//25
f 17//17 75//75 76//76
f 75//75 2//2 56//56
f 76//76 56//56 28//28
f 29//29 77//77 17//17
f 78//78 47//47 77//77
f 15//15 31//31 79//79
f 9//9 80//80 81//81
f 80//80 8//8 49//49
f 81//81 49//49 12//12
f 6//6 82//82 83//83
f 82//82 8//8 80//80
f 83//83 80//80 9//9
f 6//6 84//84 86//86
f 84//84 13//13 85//85
f 86//86 85//85 16//16
f 18//18 87//87 89//89
f 87//87 3//3 88//88
f 89//89 88//88 16//16
f 5//5 60//60 90//90
f 60//60 102//102 72//72
f 90//90 72//72 26//26
f 90//90 26//26 35//35
f 18//18 91//91 92//92
f 91//91 7//7 98//98
f 92//92 98//98 14//14
f 3//3 87//87 65//65
f 87//87 18//18 66//66
f 65//65 66//66 20//20
f 36//36 93//93 13//13
f 93//93 36//36 37//37
f 38//38 95//95 14//14
f 32//32 94//94 95//95
f 94//94 32//32 1//1
f 13//13 84//84 97//97
f 84//84 6//6 96//96
f 40//40 97//97 39//39
f 39//39 97//97 96//96
f 97//97 40//40 41//41
f 9//9 70//70 83//83
f 83//83 57//57 6//6
f 42//42 98//98 7//7
f 98//98 42//42 43//43
f 114//114 44//44 58//58
f 24//24 58//58 44//44
f 17//17 77//77 100//100
f 77//77 47//47 99//99
f 100//100 99//99 10//10
f 69//69 33//33 45//45
f 33//33 69//69 19//19
f 114//114 69//69 45//45
f 11//11 61//61 53//53
f 61//61 5//5 101//101
f 53//53 101//101 2//2
f 102//102 115//115 30//30
f 72//72 102//102 73//73
f 30//30 73//73 102//102
f 10//10 103//103 104//104
f 103//103 9//9 81//81
f 104//104 81//81 12//12
f 68//68 46//46 15//15
f 46//46 68//68 1//1
f 15//15 46//46 31//31
f 20//20 68//68 116//116
f 13//13 93//93 85//85
f 93//93 7//7 105//105
f 85//85 105//105 16//16
f 16//16 106//106 86//86
f 106//106 8//8 82//82
f 86//86 82//82 6//6
f 16//16 105//105 89//89
f 105//105 7//7 91//91
f 89//89 91//91 18//18
f 16//16 88//88 106//106
f 88//88 3//3 50//50
f 106//106 50//50 8//8
f 2//2 75//75 107//107
f 75//75 17//17 100//100
f 107//107 100//100 10//10
f 19//19 108//108 34//34
f 109//109 34//34 108//108
f 17//17 76//76 48//48
f 110//110 48//48 76//76
f 6//6 59//59 96//96
f 59//59 23//23 111//111
f 96//96 111//111 39//39
f 18//18 92//92 67//67
f 92//92 14//14 94//94
f 67//67 94//94 1//1
f 2//2 101//101 55//55
f 101//101 5//5 74//74
f 55//55 74//74 4//4
f 10//10 104//104 107//107
f 104//104 12//12 54//54
f 107//107 54//54 2//2
f 47//47 108//108 99//99
f 108//108 19//19 112//112
f 99//99 112//112 10//10
f 19//19 71//71 112//112
f 71//71 9//9 103//103
f 112//112 103//103 10//10
f 11//11 63//63 62//62
f 63//63 20//20 113//113
f 62//62 113//113 102//102
f 115//115 113//113 116//116
f 20//20 66//66 68//68
f 79//79 115//115 15//15
f 70//70 114//114 57//57
f 15//15 116//116 68//68
f 20//20 116//116 113//113
f 115//115 116//116 15//15
f 68//68 67//67 1//1
# 195 faces, 0 coords texture

# End of File
