####
#
# OBJ File Generated by Meshlab
#
####
# Object 216_C63_M_5.obj
#
# Vertices: 173
# Faces: 299
#
####
vn -4.566876 -4.313168 -0.089863
v 45.095024 34.215678 39.939650
vn -2.405302 -2.018210 -0.041931
v 48.196500 30.718000 38.819400
vn -2.393675 -2.033336 -0.044173
v 47.745500 31.276900 38.000000
vn -4.393238 -4.487865 -0.119048
v 43.504064 35.825463 40.817033
vn -4.348329 -4.528514 -0.185907
v 43.279056 35.979778 42.760194
vn -4.205915 -4.664037 -0.162627
v 42.080297 37.123989 41.644569
vn -4.230176 -4.643022 -0.122669
v 42.356825 36.930672 39.668819
vn -2.085200 -2.348926 -0.058457
v 40.228900 38.718000 43.052300
vn -4.622039 -4.254050 -0.088750
v 46.865387 32.116984 48.113516
vn -4.595093 -4.279738 -0.158065
v 45.694211 33.482464 43.630521
vn -4.245663 -4.628810 -0.098335
v 41.568995 37.450790 47.219097
vn -2.113463 -2.324144 -0.040068
v 41.207600 37.713400 50.000000
vn -2.077020 -2.341340 -0.049994
v 40.101500 38.718000 48.421600
vn -4.331942 -4.547694 -0.146842
v 43.056194 36.108765 44.583253
vn -4.651665 -4.220992 -0.103324
v 46.047771 33.154677 41.546181
vn -4.113024 -4.748511 -0.113298
v 40.890315 38.195733 40.408403
vn -4.598128 -4.279701 -0.113385
v 45.916056 33.195184 44.831949
vn -2.250926 -2.191045 -0.064386
v 45.144700 33.879400 50.000000
vn -4.658516 -4.215723 -0.037918
v 46.899191 32.096029 46.158438
vn -2.368839 -2.083411 -0.009604
v 48.119600 30.718000 45.328400
vn -4.716448 -4.150578 -0.059826
v 47.469599 31.472789 44.721970
vn -2.377944 -2.055331 -0.034085
v 48.139800 30.718000 42.976100
vn -2.315134 -2.122959 -0.062568
v 47.226300 31.663700 50.000000
vn -1.201028 -0.996666 -0.018761
v 48.209300 30.718000 38.000000
vn -1.036350 -1.165404 -0.015495
v 40.077900 38.718000 50.000000
vn -4.709865 -4.157803 -0.054075
v 46.727607 32.434575 39.181707
vn -2.421712 -2.007618 -0.034290
v 48.169300 30.718000 40.340300
vn -2.337196 -2.098201 -0.035869
v 46.218100 33.025900 38.000000
vn -2.331017 -2.101201 -0.041515
v 48.120200 30.718000 48.238300
vn -1.169571 -1.066383 -0.021015
v 48.088600 30.718000 50.000000
vn -2.047770 -2.379940 -0.059786
v 40.292100 38.718000 40.118300
vn -2.045624 -2.375981 -0.049058
v 40.275200 38.718000 40.727200
vn -2.185483 -2.256461 -0.054869
v 42.894000 36.117600 50.000000
vn -2.325282 -2.087601 -0.004661
v 48.137800 30.718000 46.923500
vn -2.165452 -2.270661 -0.075137
v 43.064700 36.334000 38.000100
vn -2.063859 -2.367092 -0.061007
v 41.231600 37.966000 38.000000
vn -1.036986 -1.209162 -0.030681
v 40.354700 38.718000 38.000000
vn -2.107936 -2.324937 -0.037085
v 40.190900 38.718000 44.970500
vn -2.107466 -2.343975 -0.037616
v 40.175300 38.718000 45.969200
vn -2.273464 -2.166295 -0.049268
v 44.817300 34.548400 38.000000
vn -4.507444 -4.374665 -0.141656
v 44.623119 34.643941 42.124975
vn -4.467445 -4.415907 -0.116239
v 44.377597 34.771056 45.879759
vn -4.350984 -4.530588 -0.113118
v 42.950605 36.161437 46.489945
vn -4.544747 -4.337217 -0.091210
v 45.636797 33.441482 47.056072
vn -4.711767 -4.155250 -0.103838
v 46.828642 32.222165 43.030158
vn -4.370996 -4.511593 -0.126866
v 42.884069 36.166292 48.452153
vn -4.476056 -4.406056 -0.167340
v 44.452807 34.745124 43.960314
vn -4.269685 -4.607313 -0.111295
v 41.622478 37.348014 49.186286
vn -4.448865 -4.434880 -0.124840
v 44.352994 34.729416 48.052498
vn -4.240092 -4.636069 -0.076935
v 41.504414 37.522366 45.121885
vn -4.776496 -4.080025 -0.085202
v 47.471756 31.552797 40.810940
vn -4.369304 -4.510686 -0.149341
v 43.377032 35.917395 41.807651
vn -4.248089 -4.625821 -0.178041
v 42.683478 36.548811 42.192581
vn -4.275839 -4.601687 -0.141432
v 42.782504 36.487304 41.213687
vn -4.206596 -4.664431 -0.131408
v 42.197577 37.048527 40.632769
vn -4.302219 -4.577696 -0.104343
v 42.911624 36.397478 40.244695
vn -4.573132 -4.306387 -0.138470
v 46.235188 32.764213 48.857400
vn -4.803874 -4.048364 -0.087468
v 47.785172 31.167055 41.423860
vn -4.737234 -4.126508 -0.083939
v 47.469574 31.488038 42.977232
vn -4.734975 -4.128372 -0.121001
v 47.218108 31.807838 41.983025
vn -4.225478 -4.646022 -0.195097
v 42.635612 36.542010 43.297792
vn -4.206985 -4.662043 -0.211554
v 42.004699 37.139801 42.748220
vn -4.170008 -4.696699 -0.164112
v 41.399555 37.710674 42.139530
vn -4.482385 -4.400720 -0.138825
v 44.070053 35.229006 41.461781
vn -4.467203 -4.415179 -0.169160
v 43.943451 35.321341 42.435066
vn -4.462997 -4.421039 -0.114712
v 44.778385 34.272954 49.087030
vn -4.485150 -4.399105 -0.098572
v 45.027638 34.034672 48.363495
vn -4.529577 -4.352249 -0.120652
v 45.457487 33.580668 49.076969
vn -4.602901 -4.276157 -0.071613
v 46.272665 32.766152 46.594301
vn -4.628086 -4.249135 -0.035851
v 46.851993 32.140549 47.111803
vn -4.577832 -4.302834 -0.075468
v 46.230990 32.800982 47.634366
vn -2.342975 -2.092701 0.026000
v 48.128700 30.718000 46.125950
vn -4.674633 -4.198114 0.005061
v 47.486922 31.441853 46.587984
vn -4.703971 -4.164851 -0.015397
v 47.500834 31.416285 45.718173
vn -4.564206 -4.316684 -0.094730
v 45.741374 33.353710 46.000498
vn -4.636682 -4.239189 -0.074938
v 46.423360 32.628325 45.606423
vn -2.371793 -2.060050 -0.019856
v 48.129700 30.718000 44.152250
vn -4.739338 -4.125004 -0.037642
v 47.682082 31.236931 43.760777
vn -4.527433 -4.355027 -0.103633
v 45.597895 33.459886 48.069783
vn -4.681058 -4.189801 -0.105658
v 46.426676 32.651105 43.898636
vn -4.703174 -4.165550 -0.062817
v 47.113798 31.887529 43.873176
vn -4.668101 -4.205089 -0.063817
v 46.726315 32.300917 44.738090
vn -2.219438 -2.222489 -0.066950
v 44.571850 34.452250 50.000000
vn -4.425500 -4.458286 -0.128985
v 44.098200 34.952865 49.074527
vn -2.088466 -2.346725 -0.028243
v 40.642750 38.215700 50.000000
vn -2.089850 -2.345469 -0.030096
v 40.089700 38.718000 49.210800
vn -4.180504 -4.689820 -0.081632
v 40.881354 38.015375 48.958333
vn -4.808931 -4.043176 -0.060976
v 47.742202 31.244022 39.781414
vn -4.740128 -4.123180 -0.072385
v 47.067707 32.030900 40.135444
vn -4.767775 -4.091768 -0.057393
v 47.315530 31.756102 38.992004
vn -4.678646 -4.192778 -0.076416
v 46.372693 32.837444 38.832941
vn -2.366851 -2.065697 -0.022246
v 46.981800 32.151400 38.000000
vn -4.625843 -4.249247 -0.136958
v 47.013156 31.926465 49.080796
vn -4.672812 -4.199178 -0.098732
v 47.430817 31.480884 48.397469
vn -4.657724 -4.215820 -0.100423
v 47.664315 31.200472 49.130709
vn -2.321350 -2.116413 -0.041639
v 48.104400 30.718000 49.119150
vn -2.161067 -2.279121 -0.070687
v 42.050800 36.915500 50.000000
vn -4.668927 -4.204322 -0.053500
v 47.476659 31.444776 47.556835
vn -2.286501 -2.153106 -0.077921
v 45.847300 33.134800 50.000000
vn -4.327371 -4.553823 -0.120503
v 42.230138 36.780236 48.863277
vn -2.412934 -2.011505 -0.034181
v 48.154550 30.718000 41.658200
vn -4.527868 -4.353714 -0.134717
v 45.157482 34.069101 42.804135
vn -4.560341 -4.320730 -0.111605
v 45.323227 33.914612 41.829745
vn -4.627054 -4.247547 -0.116304
v 45.823728 33.373505 42.538492
vn -4.689013 -4.181844 -0.049920
v 47.006668 31.983322 45.392800
vn -4.153144 -4.713304 -0.115409
v 41.726009 37.506630 38.945785
vn -4.137184 -4.727278 -0.121917
v 41.610056 37.578622 40.015487
vn -4.112544 -4.748573 -0.125982
v 40.965073 38.154948 39.518373
vn -2.291222 -2.147916 -0.080903
v 46.653900 32.275150 50.000000
vn -4.414473 -4.468648 -0.099027
v 43.624238 35.728008 39.724276
vn -4.325265 -4.554618 -0.139499
v 43.002089 36.322515 39.423246
vn -4.138512 -4.726292 -0.114858
v 41.465013 37.680082 41.050386
vn -4.104626 -4.755384 -0.127667
v 40.921343 38.213358 38.736396
vn -2.045898 -2.383304 -0.061351
v 40.323400 38.718000 39.059150
vn -4.406827 -4.477065 -0.118681
v 43.375332 35.663143 49.177395
vn -4.411150 -4.472498 -0.129984
v 43.574645 35.492798 48.221123
vn -4.251617 -4.622139 -0.149737
v 42.640309 36.697204 38.791416
vn -2.087909 -2.346944 -0.045770
v 42.148150 37.150000 38.000050
vn -2.055473 -2.375440 -0.043770
v 40.252050 38.718000 41.889750
vn -4.121952 -4.741079 -0.096928
v 40.804892 38.248603 41.449612
vn -4.157190 -4.708777 -0.136166
v 40.780262 38.248522 42.508766
vn -2.241404 -2.200776 -0.047908
v 43.941000 35.441200 38.000050
vn -4.504528 -4.379195 -0.098493
v 44.449015 34.898978 39.114511
vn -4.407827 -4.474018 -0.145005
v 43.419431 35.954707 38.771208
vn -4.217064 -4.656897 -0.088833
v 40.838896 38.138288 44.510667
vn -4.218062 -4.656535 -0.052711
v 40.831356 38.128733 45.562604
vn -4.493656 -4.389941 -0.116456
v 44.987588 34.095277 47.503513
vn -4.455090 -4.428106 -0.135599
v 44.339580 34.778503 46.910769
vn -4.512523 -4.370689 -0.108293
v 45.027640 34.085051 46.480848
vn -2.082061 -2.351744 -0.062655
v 40.138400 38.718000 47.195400
vn -4.186313 -4.684414 -0.082073
v 40.852767 38.100433 46.636846
vn -4.168644 -4.699460 -0.125803
v 40.859036 38.064809 47.765630
vn -4.426844 -4.455253 -0.168623
v 43.764809 35.415979 44.291593
vn -4.476644 -4.406619 -0.114858
v 44.427611 34.745490 44.892058
vn -4.413149 -4.470943 -0.114381
v 43.703025 35.454224 45.237948
vn -4.495931 -4.387869 -0.107562
v 44.238028 35.085332 40.361574
vn -4.528469 -4.354431 -0.099747
v 45.114102 34.015329 45.426868
vn -2.311844 -2.126932 -0.033751
v 45.517700 33.787150 38.000000
vn -4.634462 -4.241830 -0.081351
v 45.729492 33.543495 38.845294
vn -4.586934 -4.292839 -0.081259
v 45.128413 34.197222 38.825718
vn -4.644502 -4.231042 -0.068379
v 45.949475 33.281509 39.755012
vn -4.202601 -4.669007 -0.124990
v 40.828296 38.168812 43.491829
vn -4.331248 -4.544659 -0.207252
v 43.172795 36.038544 43.680687
vn -4.229720 -4.643492 -0.157552
v 42.134635 36.981696 43.696249
vn -4.713192 -4.152934 -0.130386
v 46.475796 32.646755 42.253722
vn -4.719513 -4.146332 -0.111529
v 46.764892 32.347033 41.214293
vn -4.410799 -4.472881 -0.128335
v 43.659458 35.471001 46.210944
vn -4.327196 -4.552885 -0.114191
v 42.979887 36.158463 45.517585
vn -4.700366 -4.167413 -0.132229
v 46.247414 32.875355 43.105882
vn -4.250627 -4.624774 -0.121950
v 41.596812 37.393773 48.247197
vn -4.324697 -4.556227 -0.126929
v 42.257633 36.779521 47.812821
vn -2.210440 -2.231609 -0.062609
v 43.722750 35.298225 50.000000
vn -4.270935 -4.607667 -0.066763
v 42.228273 36.842073 45.803038
vn -4.249839 -4.626409 -0.116404
v 42.279183 36.819157 44.781294
vn -4.368536 -4.513530 -0.136466
v 42.936834 36.145016 47.472457
vn -4.411806 -4.471616 -0.137960
v 43.637071 35.461675 47.221522
vn -4.482498 -4.399369 -0.174848
v 44.505548 34.727791 43.061956
vn -4.502631 -4.378128 -0.191018
v 45.003451 34.194727 43.602755
vn -4.677049 -4.194641 -0.070434
v 46.358636 32.825266 40.509854
vn -4.520524 -4.360570 -0.162206
v 45.122470 34.033837 44.414929
vn -4.308156 -4.572560 -0.078291
v 42.247221 36.819140 46.812435
vn -4.529729 -4.352193 -0.125032
v 44.813529 34.476563 41.100988
vn -4.603697 -4.274429 -0.091509
v 45.585758 33.669233 40.798908
vn -4.224992 -4.649117 -0.113544
v 41.554440 37.501707 44.103428
vn -4.451451 -4.429527 -0.203007
v 43.852867 35.375639 43.366302
vn -2.108246 -2.328728 -0.043869
v 40.209900 38.718000 44.011400
vn -4.250376 -4.626975 -0.028539
v 41.528393 37.494381 46.174491
vn -2.416051 -2.007594 -0.043209
v 48.182900 30.718000 39.579850
vn -4.769043 -4.089240 -0.096410
v 47.777559 31.157844 42.214859
vn -4.352655 -4.529527 -0.120097
v 42.703253 36.316464 49.339032
vn -4.201555 -4.668375 -0.172536
v 41.394654 37.671129 43.098912
vn -4.486708 -4.397569 -0.095165
v 44.006982 35.349030 39.209998
vn -4.238566 -4.635425 -0.157977
v 42.619440 36.525584 44.092945
# 173 vertices, 0 vertices normals

f 52//52 53//53 54//54
f 55//55 56//56 54//54
f 58//58 169//169 60//60
f 61//61 62//62 53//53
f 64//64 65//65 52//52
f 66//66 67//67 68//68
f 69//69 70//70 71//71
f 72//72 73//73 74//74
f 75//75 76//76 69//69
f 22//22 77//77 78//78
f 79//79 71//71 57//57
f 80//80 81//81 82//82
f 66//66 83//83 84//84
f 24//24 2//2 3//3
f 85//85 86//86 87//87
f 88//88 89//89 90//90
f 93//93 94//94 95//95
f 29//29 96//96 95//95
f 32//32 31//31 16//16
f 97//97 48//48 100//100
f 9//9 98//98 94//94
f 70//70 73//73 98//98
f 101//101 22//22 169//169
f 102//102 103//103 104//104
f 19//19 105//105 74//74
f 106//106 107//107 108//108
f 93//93 109//109 57//57
f 110//110 56//56 111//111
f 107//107 55//55 112//112
f 113//113 108//108 114//114
f 84//84 115//115 116//116
f 117//117 106//106 118//118
f 119//119 120//120 121//121
f 63//63 120//120 112//112
f 125//125 50//50 126//126
f 127//127 128//128 129//129
f 130//130 131//131 132//132
f 76//76 82//82 105//105
f 133//133 134//134 135//135
f 117//117 124//124 111//111
f 110//110 172//172 136//136
f 75//75 129//129 137//137
f 91//91 141//141 139//139
f 62//62 171//171 63//63
f 60//60 145//145 146//146
f 147//147 148//148 135//135
f 127//127 79//79 67//67
f 59//59 78//78 81//81
f 145//145 149//149 104//104
f 150//150 151//151 100//100
f 152//152 33//33 115//115
f 153//153 154//154 148//148
f 80//80 10//10 149//149
f 155//155 156//156 116//116
f 157//157 102//102 158//158
f 89//89 146//146 159//159
f 10//10 160//160 158//158
f 134//134 160//160 137//137
f 155//155 151//151 161//161
f 162//162 64//64 136//136
f 162//162 163//163 103//103
f 159//159 163//163 141//141
f 150//150 87//87 132//132
f 48//48 12//12 87//87
f 128//128 156//156 147//147
f 142//142 164//164 125//125
f 65//65 157//157 165//165
f 154//154 164//164 144//144
f 165//165 133//133 143//143
f 167//167 153//153 161//161
f 167//167 131//131 126//126
f 88//88 2//2 168//168
f 4//4 52//52 54//54
f 52//52 5//5 53//53
f 54//54 53//53 6//6
f 6//6 55//55 54//54
f 55//55 7//7 56//56
f 54//54 56//56 4//4
f 9//9 93//93 57//57
f 51//51 58//58 60//60
f 60//60 59//59 45//45
f 5//5 61//61 53//53
f 53//53 62//62 6//6
f 62//62 63//63 6//6
f 4//4 64//64 52//52
f 64//64 41//41 65//65
f 52//52 65//65 5//5
f 18//18 66//66 68//68
f 66//66 49//49 67//67
f 44//44 69//69 71//71
f 69//69 19//19 70//70
f 71//71 70//70 9//9
f 20//20 72//72 74//74
f 72//72 34//34 73//73
f 74//74 73//73 19//19
f 44//44 75//75 69//69
f 75//75 17//17 76//76
f 69//69 76//76 19//19
f 77//77 21//21 78//78
f 21//21 77//77 20//20
f 68//68 79//79 57//57
f 79//79 44//44 71//71
f 57//57 71//71 9//9
f 17//17 80//80 82//82
f 80//80 45//45 81//81
f 82//82 81//81 21//21
f 49//49 66//66 84//84
f 66//66 18//18 83//83
f 84//84 83//83 152//152
f 12//12 85//85 87//87
f 85//85 25//25 86//86
f 87//87 86//86 13//13
f 88//88 51//51 89//89
f 90//90 89//89 26//26
f 91//91 28//28 92//92
f 90//90 92//92 3//3
f 23//23 93//93 95//95
f 93//93 9//9 94//94
f 95//95 94//94 29//29
f 30//30 95//95 96//96
f 95//95 30//30 23//23
f 97//97 12//12 48//48
f 34//34 29//29 98//98
f 94//94 98//98 29//29
f 9//9 70//70 98//98
f 70//70 19//19 73//73
f 98//98 73//73 34//34
f 99//99 18//18 68//68
f 33//33 97//97 170//170
f 170//170 100//100 46//46
f 27//27 101//101 58//58
f 10//10 102//102 104//104
f 102//102 41//41 103//103
f 104//104 103//103 15//15
f 21//21 74//74 105//105
f 74//74 21//21 20//20
f 36//36 106//106 113//113
f 106//106 7//7 107//107
f 108//108 107//107 16//16
f 93//93 23//23 109//109
f 57//57 109//109 99//99
f 110//110 4//4 56//56
f 111//111 56//56 7//7
f 16//16 107//107 112//112
f 107//107 7//7 55//55
f 112//112 55//55 6//6
f 36//36 113//113 37//37
f 114//114 37//37 113//113
f 49//49 84//84 116//116
f 84//84 152//152 115//115
f 116//116 115//115 46//46
f 35//35 117//117 118//118
f 117//117 7//7 106//106
f 118//118 106//106 36//36
f 112//112 6//6 63//63
f 8//8 119//119 121//121
f 119//119 32//32 120//120
f 121//121 120//120 63//63
f 32//32 16//16 120//120
f 112//112 120//120 16//16
f 35//35 122//122 124//124
f 122//122 40//40 123//123
f 122//122 123//123 172//172
f 38//38 126//126 39//39
f 126//126 38//38 125//125
f 44//44 127//127 129//129
f 127//127 49//49 128//128
f 129//129 128//128 42//42
f 13//13 130//130 132//132
f 130//130 39//39 131//131
f 132//132 131//131 11//11
f 19//19 76//76 105//105
f 76//76 17//17 82//82
f 105//105 82//82 21//21
f 14//14 133//133 135//135
f 133//133 47//47 134//134
f 135//135 134//134 42//42
f 7//7 117//117 111//111
f 117//117 35//35 124//124
f 111//111 124//124 110//110
f 4//4 110//110 136//136
f 136//136 123//123 1//1
f 17//17 75//75 137//137
f 75//75 44//44 129//129
f 137//137 129//129 42//42
f 40//40 138//138 140//140
f 138//138 28//28 139//139
f 28//28 91//91 139//139
f 91//91 26//26 141//141
f 142//142 8//8 121//121
f 62//62 61//61 144//144
f 61//61 5//5 143//143
f 144//144 61//61 173//173
f 51//51 60//60 146//146
f 60//60 45//45 145//145
f 146//146 145//145 15//15
f 42//42 147//147 135//135
f 147//147 43//43 148//148
f 135//135 148//148 14//14
f 49//49 127//127 67//67
f 127//127 44//44 79//79
f 67//67 79//79 68//68
f 45//45 59//59 81//81
f 59//59 22//22 78//78
f 81//81 78//78 21//21
f 15//15 145//145 104//104
f 145//145 45//45 149//149
f 104//104 149//149 10//10
f 48//48 150//150 100//100
f 150//150 11//11 151//151
f 100//100 151//151 46//46
f 115//115 33//33 170//170
f 115//115 170//170 46//46
f 43//43 153//153 148//148
f 153//153 50//50 154//154
f 148//148 154//154 14//14
f 45//45 80//80 149//149
f 80//80 17//17 10//10
f 46//46 155//155 116//116
f 155//155 43//43 156//156
f 116//116 156//156 49//49
f 47//47 157//157 158//158
f 157//157 41//41 102//102
f 158//158 102//102 10//10
f 89//89 51//51 146//146
f 159//159 146//146 15//15
f 10//10 17//17 160//160
f 158//158 160//160 47//47
f 42//42 134//134 137//137
f 134//134 47//47 160//160
f 137//137 160//160 17//17
f 43//43 155//155 161//161
f 155//155 46//46 151//151
f 161//161 151//151 11//11
f 136//136 172//172 123//123
f 123//123 140//140 1//1
f 1//1 162//162 136//136
f 162//162 41//41 64//64
f 136//136 64//64 4//4
f 41//41 162//162 103//103
f 162//162 1//1 163//163
f 103//103 163//163 15//15
f 159//159 15//15 163//163
f 141//141 163//163 1//1
f 11//11 150//150 132//132
f 150//150 48//48 87//87
f 132//132 87//87 13//13
f 42//42 128//128 147//147
f 128//128 49//49 156//156
f 147//147 156//156 43//43
f 142//142 171//171 164//164
f 125//125 164//164 50//50
f 5//5 65//65 165//165
f 65//65 41//41 157//157
f 165//165 157//157 47//47
f 14//14 154//154 173//173
f 154//154 50//50 164//164
f 5//5 165//165 143//143
f 165//165 47//47 133//133
f 143//143 133//133 14//14
f 8//8 142//142 166//166
f 166//166 125//125 38//38
f 11//11 167//167 161//161
f 167//167 50//50 153//153
f 161//161 153//153 43//43
f 50//50 167//167 126//126
f 167//167 11//11 131//131
f 126//126 131//131 39//39
f 51//51 88//88 27//27
f 168//168 27//27 88//88
f 57//57 99//99 68//68
f 58//58 51//51 27//27
f 169//169 59//59 60//60
f 101//101 169//169 58//58
f 59//59 169//169 22//22
f 108//108 16//16 31//31
f 108//108 31//31 114//114
f 113//113 106//106 108//108
f 170//170 97//97 100//100
f 142//142 125//125 166//166
f 171//171 121//121 63//63
f 121//121 171//171 142//142
f 171//171 62//62 144//144
f 140//140 138//138 139//139
f 123//123 40//40 140//140
f 144//144 164//164 171//171
f 124//124 172//172 110//110
f 172//172 124//124 122//122
f 139//139 141//141 1//1
f 61//61 143//143 173//173
f 14//14 173//173 143//143
f 26//26 89//89 159//159
f 26//26 159//159 141//141
f 173//173 154//154 144//144
f 140//140 139//139 1//1
f 26//26 91//91 92//92
f 90//90 26//26 92//92
f 2//2 88//88 90//90
f 2//2 90//90 3//3
# 299 faces, 0 coords texture

# End of File
