####
#
# OBJ File Generated by Meshlab
#
####
# Object 2178_C116_S_14.obj
#
# Vertices: 216
# Faces: 370
#
####
vn -5.025586 -3.770931 -0.044187
v 63.623809 61.871316 0.867409
vn -5.026613 -3.769239 -0.062219
v 63.710685 61.681101 6.210273
vn -5.012257 -3.788610 -0.045958
v 62.817718 62.967742 -1.564768
vn -5.028949 -3.766470 -0.042051
v 63.425974 62.208660 -5.418889
vn -5.050274 -3.737711 -0.045492
v 66.456277 58.039572 3.510653
vn -5.037286 -3.755160 -0.052482
v 64.882125 60.201502 0.110765
vn -5.023888 -3.773010 -0.056237
v 63.202522 62.410021 2.841452
vn -5.031043 -3.763404 -0.060171
v 64.079364 61.217018 4.355326
vn -5.041205 -3.750162 -0.029401
v 64.336494 61.011520 -7.640977
vn -5.029449 -3.765698 -0.044012
v 64.620124 60.589371 -2.364182
vn -5.055383 -3.731061 -0.026210
v 65.740009 59.112818 -7.035294
vn -5.039494 -3.752470 -0.025785
v 64.579830 60.676978 -6.490108
vn -5.015095 -3.784864 -0.035129
v 62.411390 63.484213 1.240058
vn -5.037995 -3.754219 -0.052767
v 65.342929 59.528854 3.916772
vn -5.043960 -3.746213 -0.050551
v 65.749526 59.006087 1.745970
vn -5.017738 -3.781400 -0.032414
v 62.075066 64.017040 -7.186679
vn -5.002926 -3.800947 -0.033280
v 60.847653 65.662460 -8.291212
vn -5.050810 -3.737286 -0.018153
v 65.259490 59.776389 -9.010301
vn -5.001853 -3.802000 -0.063873
v 61.727553 64.325852 5.149497
vn -5.011982 -3.788989 -0.042426
v 61.017493 65.416163 -6.215080
vn -5.018314 -3.780531 -0.047582
v 63.771385 61.703366 -1.229869
vn -5.034419 -3.759184 -0.032736
v 64.626853 60.598545 -4.346591
vn -5.016435 -3.783106 -0.041642
v 61.962711 64.197140 -9.344794
vn -5.026605 -3.769569 -0.037802
v 63.135796 62.629773 -8.395100
vn -5.010489 -3.790492 -0.073964
v 62.508121 63.268054 6.499813
vn -5.020522 -3.777663 -0.044179
v 63.613395 61.933351 -3.290789
vn -5.032788 -3.761486 -0.016393
v 63.004544 62.822463 -10.799300
vn -5.053335 -3.733822 -0.027677
v 65.914741 58.882706 -7.837920
vn -5.050823 -3.737310 -0.006339
v 64.238842 61.163396 -11.636682
vn -5.020914 -3.776942 -0.056981
v 62.483760 63.449468 -3.934025
vn -5.049513 -3.739011 -0.023743
v 65.529698 59.388675 -5.318216
vn -5.006569 -3.795827 -0.062396
v 61.892140 64.144429 3.113622
vn -5.017344 -3.781607 -0.064115
v 62.805679 62.904556 4.685164
vn -5.051882 -3.735886 -0.005867
v 65.204373 59.853728 -10.744279
vn -5.036562 -3.756150 -0.050555
v 64.520494 60.656921 2.319163
vn -5.042857 -3.747577 -0.056367
v 66.087812 58.509298 5.454774
vn -5.006625 -3.795948 -0.052784
v 61.393004 64.902337 -4.599797
vn -5.034418 -3.758897 -0.060238
v 64.847386 60.156753 6.032905
vn -5.045515 -3.744400 -0.018520
v 64.183077 61.234602 -9.780884
vn -2.459395 -1.832085 -0.024236
v 66.816700 57.565100 2.525040
vn -2.928960 -2.175057 -0.029796
v 64.894100 60.219400 -2.257520
vn -2.954683 -2.196648 -0.023488
v 64.861400 60.267100 -2.545470
vn -2.206067 -1.629546 -0.024734
v 66.395300 58.086500 5.884550
vn -2.421448 -1.783692 -0.027417
v 66.574800 57.851700 5.247030
vn -2.227098 -1.713471 -0.009686
v 60.251000 66.436900 -8.239600
vn -2.370320 -1.815686 -0.017201
v 60.352700 66.315900 -9.057490
vn -2.412630 -1.787022 -0.013504
v 65.672200 59.192700 -4.840420
vn -2.843172 -2.108168 -0.017382
v 65.152500 59.885900 -3.891850
vn -2.414762 -1.822409 -0.023078
v 60.402100 66.237000 -6.628960
vn -2.199398 -1.670497 -0.025491
v 60.570400 65.996500 -5.670380
vn -2.249638 -1.686415 0.001237
v 62.299650 63.763150 -12.646050
vn -2.265785 -1.693038 -0.029687
v 64.913700 60.039300 7.736390
vn -2.278586 -1.710519 -0.025161
v 65.591100 59.148700 7.138640
vn -2.214586 -1.664624 -0.029990
v 63.524600 61.898300 7.965060
vn -2.472066 -1.873274 -0.010654
v 60.344900 66.318200 -7.172230
vn -2.551722 -1.908664 -0.027321
v 65.892900 58.752900 6.643340
vn -2.399144 -1.771147 -0.009623
v 65.832050 58.979100 -5.229595
vn -2.242777 -1.652342 -0.023165
v 66.866200 57.480850 3.612650
vn -2.276085 -1.730418 -0.031375
v 61.483000 64.633600 5.923120
vn -2.307679 -1.770088 -0.029862
v 61.179500 65.044700 4.877330
vn -2.332666 -1.734013 -0.030232
v 66.186300 58.448400 -0.004359
vn -2.205642 -1.640478 -0.020859
v 66.715800 57.710300 1.455690
vn -2.629995 -1.950696 -0.024578
v 65.421100 59.492300 -1.201900
vn -2.483384 -1.847099 -0.028617
v 65.970100 58.745500 -0.367423
vn -2.704564 -2.047908 -0.015453
v 62.053500 63.965200 -0.552751
vn -2.239418 -1.701672 -0.017226
v 61.329500 64.912100 1.014004
vn -2.335126 -1.771048 -0.023266
v 61.195876 65.159270 -4.372942
vn -2.264055 -1.666646 -0.010449
v 66.163000 58.533800 -6.403680
vn -2.182450 -1.669644 -0.027576
v 60.993700 65.326100 2.795660
vn -2.383431 -1.804166 -0.037911
v 61.890300 64.080500 6.680250
vn -2.321755 -1.767608 -0.012261
v 60.600600 65.999600 -10.170700
vn -2.233269 -1.649678 -0.010977
v 66.280080 58.390540 -8.154082
vn -2.236536 -1.653813 -0.002479
v 65.433400 59.545200 -11.451400
vn -2.357731 -1.793641 -0.015027
v 60.910500 65.598650 -10.961400
vn -2.208278 -1.675084 -0.037779
v 62.378700 63.419400 7.347540
vn -2.248384 -1.698748 -0.006852
v 61.412700 64.945700 -11.847300
vn -2.158143 -1.606073 -0.002756
v 63.599250 62.029700 -12.962550
vn -2.447138 -1.822137 -0.030794
v 64.565800 60.505200 7.840840
vn -3.270025 -2.464837 -0.038017
v 62.472800 63.432900 -2.172880
vn -2.756130 -2.081094 -0.034789
v 62.090800 63.957000 -3.162220
vn -2.367461 -1.748049 -0.002247
v 64.845150 60.342650 -12.143900
vn -2.317431 -1.715175 -0.003513
v 65.862050 58.965650 -10.399650
vn -5.028616 -3.766827 -0.049381
v 64.250431 61.040105 0.471270
vn -5.038670 -3.753303 -0.050990
v 64.718357 60.406565 1.206372
vn -5.028245 -3.767369 -0.045843
v 64.076516 61.258618 1.574457
vn -5.028208 -3.767428 -0.045071
v 63.428734 62.119758 1.872245
vn -5.029176 -3.766074 -0.049740
v 63.863994 61.529782 2.610857
vn -5.033599 -3.760065 -0.056262
v 64.299459 60.937333 3.360919
vn -5.025548 -3.770740 -0.060870
v 63.643302 61.810648 3.586054
vn -5.029779 -3.765115 -0.057700
v 63.877822 61.471758 5.303227
vn -5.016453 -3.782885 -0.057730
v 63.261467 62.288847 5.428191
vn -5.020528 -3.777437 -0.060138
v 63.438085 62.066776 4.513269
vn -5.046336 -3.743274 -0.028425
v 65.135005 59.917363 -4.861333
vn -5.024936 -3.771860 -0.037119
v 64.045482 61.378803 -4.920789
vn -5.029845 -3.765380 -0.031378
v 64.005284 61.439914 -5.903289
vn -5.037178 -3.755575 -0.027121
v 64.604517 60.635422 -5.328862
vn -5.037749 -3.754684 -0.042794
v 65.942870 58.726776 3.661049
vn -5.033537 -3.760168 -0.054514
v 65.731713 58.996732 4.716353
vn -5.022239 -3.775279 -0.051602
v 62.789889 62.969969 2.059175
vn -5.017524 -3.781389 -0.062804
v 62.539983 63.286827 3.000741
vn -5.010840 -3.790375 -0.053072
v 62.165122 63.797426 2.143724
vn -5.025833 -3.770687 -0.035043
v 63.004764 62.694487 1.115431
vn -5.032576 -3.761632 -0.033451
v 64.671465 60.529542 -3.286500
vn -2.523552 -1.871106 -0.015850
v 65.006950 60.076500 -3.218660
vn -5.034240 -3.759459 -0.035605
v 63.871427 61.627212 -6.886307
vn -5.026015 -3.770512 -0.017916
v 62.320383 63.736581 -10.921697
vn -5.025160 -3.771745 0.000039
v 62.045210 64.103895 -11.749098
vn -5.028472 -3.767344 0.000400
v 62.649741 63.296125 -11.802855
vn -5.046790 -3.742697 -0.023200
v 64.861473 60.302225 -7.425745
vn -5.048646 -3.740238 -0.008421
v 64.192754 61.224071 -10.730275
vn -5.039675 -3.752290 -0.018203
v 63.614125 62.000852 -10.212906
vn -5.043278 -3.747484 -0.011019
v 63.672807 61.924549 -11.206960
vn -5.016895 -3.782575 -0.036201
v 64.165938 61.196059 -2.817488
vn -5.019638 -3.778880 -0.040852
v 64.109190 61.280989 -3.858075
vn -5.027106 -3.768704 -0.058868
v 65.193696 59.683992 6.736887
vn -5.013052 -3.787312 -0.063217
v 63.117333 62.464493 6.332127
vn -5.023608 -3.773216 -0.065644
v 63.597752 61.815890 7.096154
vn -5.007743 -3.794144 -0.072384
v 63.008716 62.594471 7.160179
vn -5.001745 -3.802573 -0.016427
v 60.570765 66.022154 -7.526772
vn -5.018472 -3.780274 -0.051605
v 63.110046 62.592254 -2.578054
vn -5.027700 -3.767995 -0.052737
v 63.054038 62.685047 -3.679500
vn -5.042446 -3.748378 -0.041705
v 65.559481 59.249613 2.830612
vn -5.038743 -3.753411 -0.037248
v 66.118936 58.501438 2.602538
vn -5.014652 -3.785453 -0.043000
v 61.421124 64.908785 -8.829546
vn -5.015914 -3.783652 -0.054624
v 62.015764 64.111435 -8.279304
vn -5.021638 -3.776165 -0.044843
v 61.476940 64.819129 -7.757605
vn -5.005654 -3.797468 -0.032416
v 61.346375 65.017222 -9.982404
vn -5.024324 -3.772723 -0.033308
v 62.475623 63.519796 -9.959761
vn -5.017254 -3.782050 -0.037381
v 61.957025 64.214042 -10.229080
vn -5.012332 -3.788445 -0.051172
v 62.614263 63.311495 -7.750939
vn -5.023639 -3.773459 -0.044406
v 63.236540 62.482680 -7.261691
vn -5.017961 -3.781157 -0.026208
v 62.694767 63.190881 -6.646550
vn -5.042967 -3.747365 -0.064511
v 65.925204 58.788389 0.640771
vn -2.521454 -1.873715 -0.032594
v 66.451050 58.079350 0.725666
vn -5.041804 -3.749123 -0.049681
v 66.265056 58.314593 1.594758
vn -5.041687 -3.749265 -0.052126
v 65.036759 60.006431 -0.838160
vn -5.042485 -3.748158 -0.054764
v 65.442443 59.451499 -0.143521
vn -5.037377 -3.754920 -0.058594
v 64.750336 60.403157 -1.552965
vn -2.524636 -1.869518 -0.026823
v 65.157600 59.855850 -1.729710
vn -5.021891 -3.775751 -0.050701
v 63.746858 61.721689 -0.180282
vn -5.029618 -3.765397 -0.055929
v 64.389272 60.870899 -0.700288
vn -5.011857 -3.789228 -0.037066
v 62.677245 63.141525 -0.555647
vn -5.016712 -3.782920 -0.021152
v 62.554927 63.298094 0.338797
vn -5.018195 -3.780823 -0.037001
v 63.162805 62.490654 0.178802
vn -5.005337 -3.797847 -0.035075
v 61.874958 64.191417 1.203138
vn -2.456371 -1.861883 -0.010106
v 61.679350 64.455250 0.209441
vn -5.014478 -3.785409 -0.064081
v 62.650791 63.094126 5.608982
vn -5.014964 -3.784750 -0.064919
v 62.212249 63.687705 4.900141
vn -5.027609 -3.768329 -0.029727
v 62.779747 63.075744 -5.655355
vn -5.018675 -3.780266 -0.017666
v 62.110917 63.968809 -5.971558
vn -5.055484 -3.730963 -0.018531
v 65.645670 59.235645 -6.064114
vn -4.999295 -3.805619 -0.051209
v 61.609485 64.530222 2.084271
vn -4.997689 -3.807425 -0.068119
v 61.644204 64.452949 4.092724
vn -2.400223 -1.840298 -0.034168
v 61.053550 65.226725 3.894942
vn -4.991732 -3.815355 -0.062905
v 61.367384 64.834649 2.977080
vn -5.041474 -3.749704 -0.040057
v 66.555900 57.915684 2.488338
vn -5.019534 -3.778647 -0.067125
v 62.985260 62.682445 3.767716
vn -5.015180 -3.784404 -0.068217
v 62.336266 63.540494 3.940876
vn -5.012172 -3.788338 -0.070532
v 62.063989 63.868529 5.813257
vn -2.518575 -1.858261 -0.016095
v 66.222300 58.460850 -7.244510
vn -5.011470 -3.789648 -0.046307
v 63.252174 62.384812 -0.810390
vn -5.011346 -3.789874 -0.041024
v 63.308569 62.320360 -1.695322
vn -5.014479 -3.785755 -0.038255
v 63.701732 61.805890 -2.250608
vn -5.047243 -3.742081 -0.023802
v 65.141510 59.914941 -5.744283
vn -5.017908 -3.781146 -0.041722
v 62.543705 63.420923 -8.865825
vn -5.029589 -3.765732 -0.027302
v 63.063067 62.735428 -9.559159
vn -5.001552 -3.802881 -0.027106
v 60.898935 65.602856 -9.304899
vn -5.037989 -3.754440 -0.035165
v 63.736361 61.820161 -7.982651
vn -2.502907 -1.902021 -0.040629
v 62.933000 62.683750 7.645020
vn -5.025590 -3.770910 -0.045320
v 63.520173 62.070631 -4.382601
vn -5.038192 -3.754232 -0.027915
v 63.652805 61.941306 -9.111809
vn -2.507585 -1.883559 0.004108
v 61.841600 64.373900 -12.236100
vn -2.485524 -1.863616 -0.000175
v 62.940500 62.908650 -12.821450
vn -5.034862 -3.758763 -0.006779
v 63.275514 62.461772 -11.932880
vn -5.047244 -3.742061 -0.026891
v 64.789262 60.406117 -8.371268
vn -5.049870 -3.738525 -0.025206
v 65.367043 59.624010 -7.930207
vn -5.046652 -3.742936 -0.010320
v 63.800818 61.755332 -12.072762
vn -2.455579 -1.815774 -0.002190
v 64.165650 61.263150 -12.642850
vn -5.054202 -3.732748 -0.007187
v 64.715683 60.514742 -10.350752
vn -5.021625 -3.776120 -0.049181
v 64.240665 61.086846 -1.804844
vn -5.030823 -3.763919 -0.046367
v 62.922665 62.872640 -4.707769
vn -5.020678 -3.777347 -0.048173
v 62.308063 63.696962 -4.877003
vn -5.050592 -3.737579 -0.017297
v 64.730403 60.493232 -9.396767
vn -5.043327 -3.747316 -0.029027
v 64.232765 61.159538 -8.725716
vn -5.011251 -3.790067 -0.025561
v 61.673448 64.596078 -10.958742
vn -5.046248 -3.743023 -0.059470
v 65.331271 59.583484 0.896870
vn -5.037688 -3.754443 -0.065142
v 64.126100 61.109450 7.024502
vn -2.492888 -1.860276 -0.033473
v 64.063850 61.176850 7.914230
vn -2.549769 -1.929250 -0.024555
v 62.236550 63.731550 -1.201088
vn -5.018699 -3.780257 -0.022172
v 61.540420 64.724622 -6.671458
vn -5.021148 -3.776916 -0.036847
v 60.978621 65.477915 -7.209756
vn -5.021638 -3.775868 -0.065562
v 62.644399 63.221288 -3.074103
vn -5.011182 -3.789832 -0.060349
v 61.902462 64.221870 -4.176508
vn -2.504018 -1.893606 -0.029762
v 61.648150 64.551650 -3.759790
vn -5.007941 -3.794418 -0.031889
v 61.480988 64.799996 -5.714558
vn -5.009820 -3.791781 -0.047551
v 61.737714 64.454608 -5.093115
vn -5.040182 -3.751139 -0.062774
v 64.268160 60.933072 6.147351
vn -5.039061 -3.752611 -0.064755
v 64.483093 60.660309 5.201429
vn -2.494269 -1.905148 -0.027122
v 61.151050 65.132350 1.956845
vn -5.054833 -3.731894 -0.007035
v 64.773500 60.438251 -11.219920
vn -5.051254 -3.736737 -0.006480
v 65.244853 59.797955 -9.938506
vn -5.052624 -3.734865 -0.012317
v 65.654565 59.243640 -9.486199
vn -5.042284 -3.748470 -0.051357
v 64.941248 60.080351 3.105959
vn -5.048130 -3.740624 -0.050053
v 65.153480 59.807126 2.009632
vn -5.037740 -3.754422 -0.062434
v 64.713117 60.369826 4.164257
vn -5.053383 -3.733809 -0.019944
v 65.792773 59.052764 -8.663259
vn -2.465499 -1.820363 -0.007645
v 66.111550 58.623550 -9.211635
vn -5.033765 -3.759728 -0.063311
v 65.105903 59.827909 5.002495
vn -5.049197 -3.739084 -0.053200
v 66.289658 58.250890 4.508583
vn -2.503543 -1.841825 -0.028422
v 66.706250 57.683850 4.558270
vn -5.037075 -3.755305 -0.062712
v 64.599701 60.474334 6.944990
vn -2.498048 -1.899994 -0.022977
v 60.876450 65.586800 -5.033505
vn -5.028479 -3.766904 -0.056864
v 65.485679 59.308006 5.785176
vn -5.008411 -3.793923 -0.019080
v 62.100854 63.897657 0.493514
vn -5.027581 -3.768336 -0.036668
v 63.354668 62.313602 -6.276179
vn -5.049631 -3.738869 -0.022021
v 65.219365 59.815868 -6.783994
# 216 vertices, 0 vertices normals

f 58//58 5//5 156//156
f 83//83 84//84 85//85
f 86//86 85//85 87//87
f 88//88 89//89 87//87
f 90//90 91//91 92//92
f 10//10 42//42 41//41
f 36//36 44//44 43//43
f 17//17 45//45 46//46
f 22//22 93//93 48//48
f 94//94 95//95 96//96
f 97//97 209//209 98//98
f 99//99 100//100 101//101
f 99//99 102//102 86//86
f 20//20 50//50 49//49
f 103//103 48//48 104//104
f 12//12 95//95 105//105
f 106//106 107//107 108//108
f 216//216 12//12 109//109
f 110//110 111//111 112//112
f 103//103 113//113 114//114
f 116//116 117//117 118//118
f 17//17 119//119 45//45
f 120//120 192//192 121//121
f 36//36 43//43 56//56
f 31//31 57//57 47//47
f 122//122 123//123 97//97
f 19//19 59//59 60//60
f 124//124 125//125 126//126
f 124//124 167//167 127//127
f 128//128 129//129 106//106
f 130//130 131//131 132//132
f 133//133 134//134 135//135
f 6//6 136//136 137//137
f 138//138 139//139 136//136
f 140//140 141//141 83//83
f 102//102 143//143 144//144
f 116//116 147//147 91//91
f 159//159 148//148 147//147
f 132//132 149//149 150//150
f 101//101 152//152 145//145
f 153//153 154//154 155//155
f 123//123 135//135 156//156
f 40//40 58//58 156//156
f 89//89 92//92 157//157
f 158//158 148//148 153//153
f 19//19 159//159 59//59
f 127//127 71//71 74//74
f 144//144 161//161 140//140
f 3//3 162//162 161//161
f 162//162 120//120 163//163
f 34//34 73//73 82//82
f 93//93 96//96 164//164
f 165//165 128//128 166//166
f 127//127 167//167 71//71
f 131//131 168//168 105//105
f 118//118 54//54 169//169
f 114//114 170//170 94//94
f 171//171 166//166 111//111
f 51//51 107//107 172//172
f 108//108 173//173 174//174
f 109//109 175//175 176//176
f 177//177 77//77 178//178
f 112//112 174//174 177//177
f 200//200 179//179 110//110
f 113//113 180//180 163//163
f 181//181 182//182 149//149
f 181//181 170//170 121//121
f 183//183 175//175 184//184
f 168//168 171//171 184//184
f 186//186 137//137 133//133
f 165//165 130//130 125//125
f 187//187 188//188 117//117
f 180//180 138//138 141//141
f 126//126 190//190 191//191
f 30//30 192//192 80//80
f 193//193 80//80 194//194
f 193//193 196//196 182//182
f 196//196 195//195 150//150
f 151//151 164//164 216//216
f 197//197 90//90 198//198
f 155//155 199//199 152//152
f 25//25 75//75 70//70
f 157//157 158//158 100//100
f 73//73 200//200 81//81
f 34//34 200//200 73//73
f 18//18 201//201 202//202
f 203//203 204//204 122//122
f 204//204 84//84 186//186
f 88//88 203//203 205//205
f 206//206 202//202 207//207
f 208//208 198//198 205//205
f 206//206 28//28 176//176
f 209//209 5//5 210//210
f 197//197 38//38 211//211
f 2//2 197//197 187//187
f 195//195 37//37 212//212
f 213//213 208//208 98//98
f 17//17 191//191 119//119
f 38//38 213//213 115//115
f 183//183 179//179 201//201
f 1//1 83//83 85//85
f 83//83 6//6 84//84
f 85//85 84//84 35//35
f 7//7 86//86 87//87
f 86//86 1//1 85//85
f 87//87 85//85 35//35
f 35//35 88//88 87//87
f 88//88 8//8 89//89
f 87//87 89//89 7//7
f 8//8 90//90 92//92
f 90//90 2//2 91//91
f 92//92 91//91 33//33
f 47//47 93//93 31//31
f 93//93 47//47 48//48
f 22//22 94//94 96//96
f 94//94 4//4 95//95
f 96//96 95//95 12//12
f 14//14 97//97 98//98
f 97//97 5//5 209//209
f 98//98 209//209 36//36
f 13//13 99//99 101//101
f 99//99 7//7 100//100
f 101//101 100//100 32//32
f 7//7 99//99 86//86
f 99//99 13//13 102//102
f 86//86 102//102 1//1
f 48//48 103//103 22//22
f 10//10 103//103 42//42
f 104//104 42//42 103//103
f 9//9 12//12 105//105
f 27//27 106//106 108//108
f 106//106 185//185 107//107
f 108//108 107//107 51//51
f 109//109 12//12 9//9
f 29//29 110//110 112//112
f 110//110 39//39 111//111
f 112//112 111//111 27//27
f 22//22 103//103 114//114
f 103//103 10//10 113//113
f 114//114 113//113 26//26
f 52//52 115//115 53//53
f 25//25 116//116 118//118
f 116//116 2//2 117//117
f 118//118 117//117 54//54
f 119//119 55//55 45//45
f 26//26 120//120 121//121
f 120//120 3//3 79//79
f 121//121 192//192 30//30
f 14//14 122//122 97//97
f 122//122 15//15 123//123
f 97//97 123//123 5//5
f 17//17 124//124 126//126
f 124//124 23//23 125//125
f 126//126 125//125 16//16
f 23//23 124//124 127//127
f 124//124 17//17 167//167
f 27//27 128//128 106//106
f 128//128 23//23 129//129
f 106//106 129//129 185//185
f 16//16 130//130 132//132
f 130//130 24//24 131//131
f 15//15 133//133 135//135
f 133//133 61//61 134//134
f 135//135 134//134 62//62
f 136//136 63//63 137//137
f 64//64 137//137 63//63
f 41//41 138//138 10//10
f 6//6 141//141 136//136
f 138//138 41//41 139//139
f 136//136 139//139 63//63
f 1//1 140//140 83//83
f 140//140 21//21 141//141
f 83//83 141//141 6//6
f 189//189 142//142 65//65
f 189//189 3//3 142//142
f 1//1 102//102 144//144
f 102//102 13//13 143//143
f 144//144 143//143 142//142
f 13//13 145//145 214//214
f 145//145 66//66 146//146
f 143//143 214//214 65//65
f 2//2 116//116 91//91
f 116//116 25//25 147//147
f 91//91 147//147 33//33
f 25//25 159//159 147//147
f 159//159 19//19 148//148
f 147//147 148//148 33//33
f 16//16 132//132 150//150
f 132//132 215//215 149//149
f 13//13 101//101 145//145
f 101//101 32//32 152//152
f 145//145 152//152 66//66
f 60//60 153//153 19//19
f 154//154 153//153 60//60
f 32//32 153//153 155//155
f 155//155 154//154 69//69
f 5//5 123//123 156//156
f 123//123 15//15 135//135
f 156//156 135//135 62//62
f 156//156 62//62 40//40
f 7//7 89//89 157//157
f 89//89 8//8 92//92
f 157//157 92//92 33//33
f 32//32 158//158 153//153
f 158//158 33//33 148//148
f 153//153 148//148 19//19
f 70//70 159//159 25//25
f 159//159 70//70 59//59
f 72//72 160//160 28//28
f 11//11 28//28 160//160
f 1//1 144//144 140//140
f 144//144 142//142 161//161
f 140//140 161//161 21//21
f 142//142 3//3 161//161
f 161//161 162//162 21//21
f 21//21 162//162 163//163
f 162//162 3//3 120//120
f 163//163 120//120 26//26
f 31//31 93//93 164//164
f 93//93 22//22 96//96
f 164//164 96//96 12//12
f 24//24 165//165 166//166
f 165//165 23//23 128//128
f 166//166 128//128 27//27
f 46//46 167//167 17//17
f 167//167 46//46 71//71
f 95//95 215//215 105//105
f 131//131 24//24 168//168
f 105//105 168//168 9//9
f 25//25 118//118 75//75
f 169//169 75//75 118//118
f 22//22 114//114 94//94
f 114//114 26//26 170//170
f 94//94 170//170 4//4
f 39//39 171//171 111//111
f 171//171 24//24 166//166
f 111//111 166//166 27//27
f 185//185 76//76 107//107
f 172//172 107//107 76//76
f 27//27 108//108 174//174
f 108//108 51//51 173//173
f 174//174 173//173 77//77
f 11//11 216//216 176//176
f 109//109 9//9 175//175
f 176//176 175//175 18//18
f 29//29 178//178 81//81
f 178//178 29//29 177//177
f 29//29 112//112 177//177
f 112//112 27//27 174//174
f 177//177 174//174 77//77
f 29//29 200//200 110//110
f 200//200 34//34 179//179
f 110//110 179//179 39//39
f 26//26 113//113 163//163
f 113//113 10//10 180//180
f 163//163 180//180 21//21
f 4//4 181//181 149//149
f 181//181 30//30 182//182
f 149//149 182//182 150//150
f 30//30 181//181 121//121
f 181//181 4//4 170//170
f 121//121 170//170 26//26
f 39//39 183//183 184//184
f 183//183 18//18 175//175
f 184//184 175//175 9//9
f 9//9 168//168 184//184
f 168//168 24//24 171//171
f 184//184 171//171 39//39
f 74//74 185//185 127//127
f 185//185 74//74 76//76
f 15//15 186//186 133//133
f 186//186 6//6 137//137
f 133//133 137//137 64//64
f 61//61 133//133 64//64
f 23//23 165//165 125//125
f 165//165 24//24 130//130
f 125//125 130//130 16//16
f 23//23 127//127 129//129
f 129//129 127//127 185//185
f 2//2 187//187 117//117
f 187//187 78//78 188//188
f 117//117 188//188 54//54
f 21//21 180//180 141//141
f 180//180 10//10 138//138
f 141//141 138//138 136//136
f 189//189 79//79 3//3
f 17//17 126//126 191//191
f 126//126 16//16 190//190
f 191//191 190//190 20//20
f 79//79 192//192 120//120
f 192//192 79//79 80//80
f 80//80 193//193 30//30
f 37//37 193//193 194//194
f 194//194 67//67 37//37
f 195//195 196//196 37//37
f 30//30 193//193 182//182
f 193//193 37//37 196//196
f 182//182 196//196 150//150
f 195//195 20//20 190//190
f 150//150 190//190 16//16
f 11//11 68//68 151//151
f 151//151 31//31 164//164
f 216//216 164//164 12//12
f 38//38 197//197 198//198
f 197//197 2//2 90//90
f 198//198 90//90 8//8
f 32//32 155//155 152//152
f 155//155 69//69 199//199
f 152//152 199//199 66//66
f 7//7 157//157 100//100
f 157//157 33//33 158//158
f 100//100 158//158 32//32
f 81//81 200//200 29//29
f 82//82 201//201 34//34
f 201//201 82//82 202//202
f 14//14 203//203 122//122
f 203//203 35//35 204//204
f 122//122 204//204 15//15
f 15//15 204//204 186//186
f 204//204 35//35 84//84
f 186//186 84//84 6//6
f 8//8 88//88 205//205
f 88//88 35//35 203//203
f 205//205 203//203 14//14
f 206//206 18//18 202//202
f 207//207 202//202 82//82
f 207//207 72//72 206//206
f 14//14 208//208 205//205
f 208//208 38//38 198//198
f 205//205 198//198 8//8
f 18//18 206//206 176//176
f 206//206 72//72 28//28
f 176//176 28//28 11//11
f 58//58 210//210 5//5
f 36//36 209//209 44//44
f 210//210 44//44 209//209
f 187//187 197//197 211//211
f 211//211 38//38 115//115
f 211//211 115//115 52//52
f 211//211 78//78 187//187
f 78//78 211//211 52//52
f 67//67 212//212 37//37
f 20//20 195//195 212//212
f 212//212 50//50 20//20
f 36//36 213//213 98//98
f 213//213 38//38 208//208
f 98//98 208//208 14//14
f 191//191 49//49 119//119
f 49//49 191//191 20//20
f 55//55 119//119 49//49
f 213//213 56//56 115//115
f 56//56 213//213 36//36
f 53//53 115//115 56//56
f 18//18 183//183 201//201
f 183//183 39//39 179//179
f 201//201 179//179 34//34
f 31//31 151//151 57//57
f 142//142 143//143 65//65
f 13//13 214//214 143//143
f 11//11 160//160 68//68
f 132//132 131//131 215//215
f 214//214 145//145 146//146
f 214//214 146//146 65//65
f 215//215 4//4 149//149
f 215//215 131//131 105//105
f 11//11 151//151 216//216
f 151//151 68//68 57//57
f 215//215 95//95 4//4
f 216//216 109//109 176//176
f 195//195 190//190 150//150
# 370 faces, 0 coords texture

# End of File
