####
#
# OBJ File Generated by Meshlab
#
####
# Object 2189_C117_S_7.obj
#
# Vertices: 129
# Faces: 187
#
####
vn -5.104789 -3.662831 -0.056636
v 49.894070 80.451650 50.885630
vn -2.552849 -1.830703 -0.029786
v 50.147925 80.112950 50.000000
vn -2.544271 -1.842878 -0.012234
v 55.401500 72.820900 50.000000
vn -2.547584 -1.838045 -0.024493
v 48.046800 83.039500 50.000000
vn -2.551967 -1.832047 -0.027170
v 49.476300 81.046700 50.000000
vn -2.455602 -1.958813 -0.024439
v 42.981700 89.812700 50.000000
vn -2.524215 -1.870166 -0.025794
v 45.157100 86.945200 53.000000
vn -2.504110 -1.896107 -0.033064
v 44.608100 87.728900 50.000000
vn -2.503071 -1.898347 -0.025248
v 44.485500 87.847300 53.000000
vn -2.479109 -1.929546 -0.018660
v 44.377600 88.025700 50.000000
vn -2.533899 -1.857124 -0.007243
v 58.547800 68.520000 50.000000
vn -2.542702 -1.844912 -0.017717
v 54.010900 74.748400 50.000000
vn -2.544750 -1.842200 -0.016201
v 52.726400 76.508500 50.000000
vn -2.533602 -1.857524 -0.009023
v 56.843900 70.836100 50.000000
vn -5.082173 -3.694503 -0.024052
v 56.286303 71.595930 51.133938
vn -2.527942 -1.865186 -0.010604
v 57.469850 69.989350 50.000000
vn -2.555053 -1.827796 -0.024379
v 51.256500 78.559500 50.000000
vn -5.081845 -3.694865 -0.034129
v 53.638602 75.244364 51.654912
vn -5.094982 -3.676550 -0.043858
v 48.025651 83.047304 51.822760
vn -2.544576 -1.842377 -0.025893
v 47.966400 83.114000 53.000000
vn -2.533756 -1.857072 -0.032636
v 46.661600 84.896600 53.000000
vn -2.466313 -1.945841 -0.028564
v 43.106100 89.619900 53.000000
vn -2.531011 -1.860748 -0.028589
v 46.178000 85.605800 50.000000
vn -2.423574 -1.998287 0.043228
v 39.658900 93.859600 50.000000
vn -2.438983 -1.980130 -0.009459
v 41.603300 91.503800 50.000000
vn -2.449914 -1.966498 -0.008808
v 42.454725 90.445650 53.000000
vn -2.433193 -1.986978 -0.020947
v 41.181600 91.996300 53.000000
vn -4.852221 -3.991525 0.018163
v 40.129359 93.306146 50.824605
vn -2.434690 -1.985183 -0.010720
v 41.167600 92.044500 50.000000
vn -5.070326 -3.710332 -0.060176
v 46.960319 84.504053 52.105801
vn -5.108902 -3.657185 -0.049803
v 49.183418 81.430088 51.719876
vn -2.537290 -1.852292 -0.025588
v 46.611100 85.013200 50.000000
vn -2.355639 -1.706480 -0.011868
v 52.642400 76.604000 52.772100
vn -2.550651 -1.833264 -0.022152
v 51.218800 78.579400 52.519800
vn -2.360368 -1.712663 -0.010902
v 55.797600 72.263000 51.934800
vn -2.644519 -1.935376 -0.026356
v 56.518000 71.275200 51.437750
vn -2.639492 -1.933735 -0.009440
v 58.472500 68.621900 50.179400
vn -2.438786 -1.795172 -0.008082
v 57.788500 69.552900 50.795500
vn -0.427387 -0.313022 -0.000941
v 58.690400 68.325300 50.000000
vn -2.396108 -1.757069 -0.005964
v 58.574500 68.483200 50.114700
vn -2.531008 -1.835134 -0.011612
v 55.387200 72.828800 52.048200
vn -2.548871 -1.865652 -0.014606
v 56.539700 71.245800 51.428400
vn -2.612882 -1.892939 -0.015531
v 54.769600 73.678600 52.202200
vn -2.748432 -1.964257 -0.023192
v 48.973825 81.713650 52.534175
vn -3.396129 -2.433214 -0.030478
v 48.556200 82.295000 52.786200
vn -2.482214 -1.778101 -0.025669
v 49.590700 80.851300 52.425800
vn -2.819556 -2.021378 -0.030977
v 50.033400 80.236300 52.280100
vn -2.512513 -1.800548 -0.026868
v 50.729100 79.262700 52.446100
vn -2.534723 -1.843596 -0.016615
v 53.311050 75.684900 52.642000
vn -1.435320 -1.030032 -0.013825
v 48.530100 82.328500 53.000000
vn -2.973912 -2.458989 0.011236
v 39.947500 93.527200 50.965300
vn -0.622359 -0.508741 0.010885
v 39.348600 94.239200 50.000000
vn -1.763709 -1.432844 -0.017149
v 40.728500 92.555400 53.000000
vn -2.580322 -2.118745 -0.007473
v 39.966800 93.503700 51.029800
vn -1.964064 -1.643091 -0.010949
v 39.948200 93.526200 50.989800
vn -5.112483 -3.652125 -0.053322
v 50.834132 79.140546 50.719242
vn -2.557751 -1.823876 -0.029824
v 50.814150 79.180600 50.000000
vn -5.104495 -3.663382 -0.046330
v 48.398838 82.537845 50.811474
vn -2.552932 -1.830708 -0.025532
v 48.761550 82.043100 50.000000
vn -5.106616 -3.660365 -0.051075
v 49.040739 81.641066 50.893195
vn -2.574673 -1.854908 -0.012105
v 51.917875 77.610250 52.624125
vn -4.908045 -3.922561 -0.031898
v 42.971117 89.820095 50.470695
vn -4.908316 -3.922394 -0.036999
v 42.826654 89.980764 52.024041
vn -4.887876 -3.947838 -0.030189
v 42.547846 90.339908 51.095517
vn -4.981039 -3.829128 -0.057533
v 44.038427 88.441252 52.166485
vn -2.479901 -1.928077 -0.047050
v 43.795800 88.733600 53.000000
vn -4.936596 -3.885962 -0.068036
v 43.424993 89.231940 52.154253
vn -2.541346 -1.846893 -0.012172
v 56.122700 71.828500 50.000000
vn -2.534002 -1.856971 -0.008283
v 58.113150 69.113550 50.000000
vn -5.066249 -3.716354 -0.014318
v 57.977443 69.297747 50.221975
vn -4.983655 -3.825932 -0.050195
v 44.181418 88.270280 50.773134
vn -5.018789 -3.779900 -0.041193
v 44.655291 87.630466 52.038557
vn -5.056350 -3.729792 -0.016685
v 57.209545 70.337889 50.528740
vn -5.090521 -3.682974 -0.026241
v 55.050061 73.299961 51.058997
vn -5.085026 -3.690579 -0.023139
v 55.683789 72.425655 51.026222
vn -2.413737 -1.778744 -0.005381
v 57.287750 70.230000 51.128550
vn -5.091247 -3.681910 -0.033718
v 54.489188 74.076941 50.996110
vn -5.087892 -3.686537 -0.034781
v 54.219563 74.443178 51.602257
vn -2.454734 -1.780171 -0.016626
v 54.053150 74.665050 52.488325
vn -2.547431 -1.838471 -0.014942
v 54.706200 73.784650 50.000000
vn -2.525922 -1.867762 -0.028036
v 45.393050 86.667350 50.000000
vn -5.051839 -3.735532 -0.056049
v 45.610180 86.363192 50.700625
vn -5.070220 -3.710527 -0.056940
v 46.623270 84.981221 51.041259
vn -5.109650 -3.656218 -0.044252
v 48.650090 82.176255 51.697562
vn -2.553071 -1.830576 -0.020644
v 51.991450 77.534000 50.000000
vn -5.104303 -3.663709 -0.041516
v 52.047251 77.444465 51.071232
vn -5.105977 -3.661328 -0.045653
v 51.470215 78.250599 50.866297
vn -5.108660 -3.657457 -0.054744
v 50.538711 79.543250 51.501976
vn -5.077125 -3.701396 -0.029727
v 53.205792 75.844572 50.828136
vn -5.081096 -3.695946 -0.029011
v 52.974182 76.155003 51.787117
vn -5.076066 -3.702602 -0.051467
v 47.308098 84.038919 51.401827
vn -5.077395 -3.700852 -0.045607
v 47.118790 84.308765 50.635787
vn -2.475797 -1.933898 -0.006014
v 43.679650 88.919200 50.000000
vn -5.075098 -3.703879 -0.054432
v 47.553019 83.691409 52.241205
vn -2.535148 -1.855164 -0.031554
v 47.314000 84.005300 53.000000
vn -5.059284 -3.725405 -0.057273
v 46.006328 85.819874 51.205879
vn -5.051926 -3.735476 -0.051511
v 45.496905 86.506022 51.391303
vn -4.872842 -3.966485 -0.027943
v 41.254340 91.929467 50.910951
vn -4.858547 -3.983988 -0.009871
v 40.682545 92.630925 50.858130
vn -2.436823 -1.982778 -0.009269
v 42.292500 90.658250 50.000000
vn -2.421584 -2.001042 0.036561
v 39.648050 93.883200 50.482650
vn -4.870429 -3.969344 -0.037828
v 40.877504 92.384658 51.941475
vn -2.421353 -2.001564 0.019018
v 40.413250 92.952050 50.000000
vn -2.225373 -1.817468 -0.014793
v 40.307300 93.081000 52.203025
vn -5.046118 -3.743312 -0.051025
v 45.150354 86.968057 51.917905
vn -2.537685 -1.851893 -0.015818
v 53.368650 75.628450 50.000000
vn -2.540352 -1.848208 -0.018490
v 47.328950 84.026350 50.000000
vn -5.058133 -3.726958 -0.057323
v 45.675187 86.255522 52.129607
vn -5.065698 -3.716599 -0.062940
v 46.318277 85.380621 52.099017
vn -2.531884 -1.859575 -0.033882
v 45.909350 85.920900 53.000000
vn -4.858673 -3.983845 -0.024180
v 41.818150 91.227315 52.546476
vn -2.425224 -1.996948 -0.002403
v 41.709600 91.358600 53.000000
vn -4.870583 -3.969321 -0.017200
v 41.863965 91.180952 50.929702
vn -5.093802 -3.678313 -0.032091
v 52.550204 76.744378 50.919176
vn -5.095141 -3.676526 -0.028363
v 52.345687 77.020200 51.865540
vn -5.086245 -3.688690 -0.043153
v 47.709372 83.496054 50.753431
vn -4.878582 -3.959350 -0.022780
v 42.158037 90.816555 51.903265
vn -5.101276 -3.667932 -0.039473
v 51.700243 77.918516 51.768454
vn -5.030167 -3.764402 -0.061065
v 44.870699 87.358723 51.002212
vn -4.865481 -3.975460 -0.033781
v 41.514574 91.602962 51.876119
vn -5.105612 -3.661718 -0.054376
v 49.610890 80.840364 51.306088
vn -5.106920 -3.659955 -0.049994
v 51.095523 78.763084 51.643351
vn -5.072258 -3.708093 -0.017146
v 56.658935 71.085933 50.712858
vn -4.920923 -3.906461 -0.028269
v 43.249359 89.466543 51.022224
vn -4.862427 -3.979273 -0.024549
v 40.367940 93.011439 51.435467
vn -4.962311 -3.853401 -0.029754
v 43.713742 88.876739 51.183632
vn -5.001269 -3.803047 -0.045745
v 44.258784 88.156195 51.451895
vn -5.110310 -3.655094 -0.058224
v 50.418548 79.725621 50.568928
vn -5.081408 -3.695448 -0.035457
v 53.806385 75.022365 50.726934
# 129 vertices, 0 vertices normals

f 17//17 56//56 57//57
f 58//58 59//59 60//60
f 65//65 66//66 67//67
f 16//16 69//69 70//70
f 16//16 70//70 38//38
f 11//11 39//39 40//40
f 14//14 16//16 73//73
f 74//74 75//75 41//41
f 15//15 42//42 36//36
f 74//74 41//41 43//43
f 77//77 78//78 129//129
f 18//18 78//78 79//79
f 74//74 77//77 80//80
f 119//119 81//81 82//82
f 19//19 58//58 84//84
f 5//5 2//2 1//1
f 31//31 46//46 44//44
f 122//122 34//34 48//48
f 89//89 90//90 114//114
f 19//19 94//94 91//91
f 95//95 30//30 94//94
f 20//20 45//45 50//50
f 82//82 96//96 97//97
f 26//26 117//117 63//63
f 64//64 113//113 100//100
f 101//101 103//103 28//28
f 24//24 103//103 101//101
f 28//28 54//54 51//51
f 11//11 40//40 37//37
f 107//107 116//116 92//92
f 108//108 105//105 97//97
f 108//108 109//109 110//110
f 83//83 30//30 109//109
f 111//111 27//27 120//120
f 25//25 113//113 98//98
f 51//51 54//54 55//55
f 2//2 57//57 128//128
f 58//58 4//4 59//59
f 60//60 59//59 5//5
f 122//122 118//118 34//34
f 61//61 34//34 118//118
f 64//64 124//124 63//63
f 10//10 8//8 71//71
f 81//81 119//119 8//8
f 126//126 65//65 67//67
f 65//65 9//9 66//66
f 67//67 66//66 22//22
f 3//3 68//68 75//75
f 68//68 14//14 123//123
f 36//36 35//35 15//15
f 35//35 75//75 15//15
f 69//69 37//37 70//70
f 37//37 69//69 11//11
f 70//70 37//37 38//38
f 72//72 9//9 65//65
f 71//71 127//127 126//126
f 38//38 73//73 16//16
f 76//76 73//73 38//38
f 74//74 3//3 75//75
f 75//75 35//35 41//41
f 123//123 14//14 73//73
f 123//123 73//73 76//76
f 76//76 42//42 123//123
f 129//129 78//78 18//18
f 43//43 78//78 77//77
f 78//78 43//43 79//79
f 18//18 79//79 49//49
f 3//3 74//74 80//80
f 82//82 81//81 23//23
f 19//19 116//116 58//58
f 116//116 4//4 58//58
f 31//31 84//84 60//60
f 44//44 84//84 31//31
f 84//84 45//45 19//19
f 45//45 84//84 44//44
f 17//17 85//85 87//87
f 85//85 13//13 114//114
f 121//121 46//46 31//31
f 46//46 121//121 47//47
f 87//87 118//118 122//122
f 48//48 88//88 122//122
f 88//88 48//48 47//47
f 13//13 89//89 114//114
f 89//89 18//18 90//90
f 114//114 90//90 115//115
f 49//49 90//90 18//18
f 90//90 49//49 33//33
f 19//19 91//91 116//116
f 92//92 91//91 83//83
f 62//62 6//6 93//93
f 19//19 20//20 94//94
f 91//91 94//94 30//30
f 20//20 95//95 94//94
f 95//95 21//21 30//30
f 20//20 19//19 45//45
f 119//119 82//82 97//97
f 82//82 23//23 96//96
f 96//96 23//23 83//83
f 32//32 83//83 23//23
f 22//22 26//26 63//63
f 100//100 113//113 25//25
f 24//24 101//101 52//52
f 25//25 98//98 29//29
f 53//53 102//102 27//27
f 104//104 102//102 53//53
f 28//28 103//103 99//99
f 101//101 28//28 51//51
f 99//99 98//98 102//102
f 104//104 54//54 125//125
f 105//105 7//7 72//72
f 9//9 72//72 7//7
f 12//12 129//129 106//106
f 106//106 89//89 13//13
f 32//32 107//107 92//92
f 107//107 4//4 116//116
f 121//121 60//60 5//5
f 17//17 87//87 56//56
f 96//96 108//108 97//97
f 108//108 7//7 105//105
f 97//97 105//105 119//119
f 7//7 108//108 110//110
f 108//108 96//96 109//109
f 110//110 109//109 21//21
f 96//96 83//83 109//109
f 109//109 30//30 21//21
f 117//117 111//111 120//120
f 120//120 102//102 98//98
f 113//113 117//117 120//120
f 111//111 112//112 27//27
f 124//124 67//67 63//63
f 67//67 22//22 63//63
f 64//64 63//63 117//117
f 118//118 115//115 61//61
f 61//61 115//115 33//33
f 87//87 85//85 86//86
f 86//86 115//115 118//118
f 92//92 83//83 32//32
f 29//29 98//98 99//99
f 113//113 120//120 98//98
f 85//85 114//114 86//86
f 115//115 90//90 33//33
f 116//116 91//91 92//92
f 117//117 113//113 64//64
f 121//121 31//31 60//60
f 56//56 87//87 122//122
f 111//111 117//117 26//26
f 15//15 68//68 123//123
f 86//86 114//114 115//115
f 111//111 26//26 112//112
f 86//86 118//118 87//87
f 119//119 105//105 72//72
f 72//72 127//127 119//119
f 123//123 42//42 15//15
f 84//84 58//58 60//60
f 91//91 30//30 83//83
f 99//99 102//102 125//125
f 120//120 27//27 102//102
f 6//6 62//62 100//100
f 29//29 99//99 103//103
f 56//56 122//122 88//88
f 75//75 68//68 15//15
f 62//62 64//64 100//100
f 62//62 124//124 64//64
f 124//124 126//126 67//67
f 77//77 74//74 43//43
f 125//125 28//28 99//99
f 125//125 54//54 28//28
f 125//125 102//102 104//104
f 126//126 93//93 71//71
f 93//93 126//126 124//124
f 124//124 62//62 93//93
f 12//12 77//77 129//129
f 71//71 93//93 10//10
f 1//1 88//88 47//47
f 1//1 47//47 121//121
f 1//1 2//2 128//128
f 80//80 77//77 12//12
f 72//72 65//65 127//127
f 128//128 57//57 56//56
f 127//127 65//65 126//126
f 127//127 71//71 119//119
f 8//8 119//119 71//71
f 1//1 121//121 5//5
f 88//88 128//128 56//56
f 129//129 89//89 106//106
f 129//129 18//18 89//89
f 1//1 128//128 88//88
# 187 faces, 0 coords texture

# End of File
