####
#
# OBJ File Generated by Meshlab
#
####
# Object 2218_C118_S_17.obj
#
# Vertices: 83
# Faces: 116
#
####
vn -2.266155 -2.174014 0.060975
v 40.922600 92.645700 -50.000000
vn -2.270131 -2.171115 0.054402
v 41.391700 92.068000 -53.000000
vn -2.258743 -2.183244 0.038352
v 42.281500 91.195200 -50.000000
vn -2.387509 -2.040387 0.058290
v 44.953300 88.335800 -50.000000
vn -2.272209 -2.169093 0.042153
v 42.799200 90.594300 -53.000000
vn -2.450154 -1.965113 0.054912
v 48.167000 84.429000 -50.000000
vn -2.450519 -1.965613 0.037444
v 46.583800 86.378800 -50.000000
vn -2.462170 -1.950587 0.049375
v 48.647000 83.822900 -50.000000
vn -4.821013 -4.027376 0.120881
v 45.832322 87.254308 -51.359677
vn -2.382793 -2.046852 0.064247
v 44.866100 88.349900 -53.000000
vn -2.423902 -1.997905 0.062178
v 46.392700 86.526500 -53.000000
vn -2.428250 -1.991216 0.062971
v 46.339500 86.685000 -50.000000
vn -2.256177 -2.185291 0.043965
v 42.410900 91.064200 -50.000000
vn -2.312557 -2.122525 0.070225
v 44.217300 89.180300 -50.000000
vn -2.506297 -1.893347 0.040685
v 52.168900 79.288200 -50.000000
vn -2.525817 -1.867784 0.031340
v 53.342000 77.708500 -50.000000
vn -2.477861 -1.930214 0.048436
v 50.164300 81.903200 -50.000000
vn -2.491653 -1.912934 0.042440
v 50.796600 81.080300 -50.000000
vn -4.873826 -3.963872 0.108556
v 47.178157 85.609787 -51.432700
vn -4.906288 -3.923655 0.106098
v 48.348618 84.173330 -50.982958
vn -2.983343 -2.868122 0.084100
v 40.757400 92.757300 -51.989500
vn -1.992202 -1.949703 0.053275
v 40.181900 93.373300 -51.049400
vn -0.936968 -0.906308 0.030184
v 40.548100 92.939300 -53.000000
vn -3.238200 -2.633268 0.072117
v 47.458600 85.241900 -52.286600
vn -1.409389 -1.150811 0.033430
v 47.333700 85.374200 -53.000000
vn -2.544986 -2.048837 0.054165
v 48.129000 84.420300 -51.971300
vn -2.534748 -2.000406 0.047903
v 49.460200 82.759800 -51.544400
vn -2.488189 -1.905729 0.041400
v 51.272425 80.433875 -51.157725
vn -2.507851 -1.910535 0.044053
v 51.931700 79.576300 -51.010800
vn -2.495589 -1.953813 0.053211
v 49.881300 82.223900 -51.448800
vn -2.573943 -1.979372 0.039703
v 50.636200 81.261500 -51.291900
vn -2.387586 -1.847676 0.038388
v 50.536900 81.389900 -51.330500
vn -2.250850 -1.659842 0.028834
v 53.484800 77.509000 -50.337000
vn -2.573504 -1.907988 0.030973
v 53.230100 77.851800 -50.470500
vn -0.521409 -0.384304 0.006563
v 53.751800 77.152500 -50.000000
vn -2.323765 -1.734941 0.033689
v 52.598500 78.695800 -50.873500
vn -0.851576 -0.836144 0.021331
v 39.904000 93.683100 -50.000000
vn -4.564394 -4.316419 0.114358
v 41.365921 92.129440 -51.535298
vn -4.553808 -4.328113 0.091458
v 41.740953 91.718248 -52.162318
vn -2.292323 -2.147561 0.053328
v 41.602050 91.920450 -50.000000
vn -4.578203 -4.301698 0.117013
v 41.519359 91.993508 -50.612417
vn -4.531875 -4.349777 0.129518
v 40.883124 92.656165 -51.027349
vn -4.486632 -4.397107 0.118029
v 40.475270 93.090018 -50.441688
vn -4.573026 -4.307555 0.100215
v 43.664270 89.703948 -52.072846
vn -4.546130 -4.336272 0.088522
v 43.047596 90.352024 -52.083287
vn -2.283249 -2.157534 0.046598
v 43.390800 89.973850 -53.000000
vn -4.538773 -4.343736 0.099137
v 42.772506 90.662446 -50.996453
vn -4.542426 -4.340213 0.085580
v 42.411652 91.017913 -52.063160
vn -2.271676 -2.169652 0.041284
v 42.095450 91.331150 -53.000000
vn -4.539326 -4.342520 0.116588
v 41.153394 92.335509 -52.340012
vn -4.864813 -3.974785 0.114400
v 46.857712 85.977158 -52.310833
vn -2.432898 -1.986771 0.057911
v 46.863200 85.950350 -53.000000
vn -4.804213 -4.047837 0.112602
v 45.554056 87.605385 -50.606909
vn -2.405568 -2.019990 0.049880
v 45.646400 87.510400 -50.000000
vn -4.556185 -4.325357 0.099931
v 42.070217 91.395602 -51.042233
vn -4.704009 -4.161882 0.128496
v 44.544102 88.781296 -51.018837
vn -2.325325 -2.111969 0.058856
v 44.203325 89.102525 -53.000000
vn -4.745124 -4.116196 0.120756
v 44.732091 88.531901 -52.080523
vn -4.636566 -4.238127 0.114702
v 44.208788 89.125796 -51.906001
vn -4.574968 -4.304878 0.122660
v 43.854555 89.526713 -50.998012
vn -2.270103 -2.170889 0.058832
v 43.314100 90.122250 -50.000000
vn -4.873271 -3.964523 0.109852
v 46.870437 86.008856 -50.661184
vn -4.861055 -3.979324 0.116062
v 46.511837 86.426433 -51.410498
vn -4.803723 -4.047910 0.128144
v 45.399977 87.742827 -52.153279
vn -2.407920 -2.016467 0.073394
v 45.629400 87.438200 -53.000000
vn -4.837153 -4.007779 0.128308
v 46.126566 86.873680 -52.204376
vn -2.494078 -1.909840 0.041122
v 51.482750 80.184250 -50.000000
vn -4.987877 -3.820030 0.082874
v 51.169318 80.580766 -50.594383
vn -4.988001 -3.819882 0.082221
v 51.634517 79.974180 -50.551530
vn -2.464078 -1.948331 0.043967
v 49.405650 82.863050 -50.000000
vn -4.923610 -3.902300 0.092186
v 49.028986 83.318653 -50.905843
vn -4.935968 -3.886550 0.095307
v 49.689123 82.486168 -50.826501
vn -2.407556 -1.916541 0.048562
v 48.739350 83.661750 -51.811150
vn -4.958925 -3.857107 0.097917
v 50.281015 81.731424 -50.807454
vn -4.886389 -3.948384 0.108823
v 47.830444 84.810943 -51.155871
vn -4.880301 -3.955938 0.107559
v 47.535211 85.189303 -50.694242
vn -2.438536 -1.980044 0.050714
v 47.375400 85.403900 -50.000000
vn -2.522080 -1.872920 0.029802
v 52.755450 78.498350 -50.000000
vn -5.043978 -3.746092 0.059189
v 52.979912 78.190516 -50.350228
vn -2.241303 -2.200685 0.056141
v 40.413300 93.164400 -50.000000
vn -4.789805 -4.064640 0.121700
v 45.161131 88.051728 -51.174574
vn -4.832642 -4.013529 0.118256
v 46.073562 86.989779 -50.482779
vn -4.548886 -4.333097 0.101065
v 43.314095 90.092991 -51.148721
# 83 vertices, 0 vertices normals

f 38//38 50//50 39//39
f 1//1 41//41 40//40
f 42//42 1//1 43//43
f 42//42 22//22 21//21
f 44//44 45//45 46//46
f 47//47 48//48 45//45
f 39//39 49//49 48//48
f 2//2 50//50 23//23
f 19//19 51//51 24//24
f 20//20 26//26 73//73
f 57//57 58//58 59//59
f 62//62 82//82 63//63
f 64//64 65//65 66//66
f 58//58 64//64 81//81
f 53//53 4//4 81//81
f 67//67 68//68 69//69
f 15//15 69//69 29//29
f 70//70 71//71 72//72
f 72//72 27//27 30//30
f 18//18 74//74 31//31
f 16//16 34//34 33//33
f 16//16 33//33 35//35
f 38//38 41//41 42//42
f 44//44 59//59 60//60
f 20//20 75//75 26//26
f 62//62 76//76 77//77
f 16//16 78//78 79//79
f 16//16 79//79 34//34
f 15//15 29//29 36//36
f 1//1 80//80 43//43
f 17//17 72//72 74//74
f 63//63 66//66 51//51
f 55//55 38//38 39//39
f 38//38 42//42 21//21
f 39//39 50//50 2//2
f 55//55 3//3 41//41
f 40//40 41//41 3//3
f 43//43 22//22 42//42
f 57//57 44//44 46//46
f 44//44 83//83 45//45
f 46//46 45//45 5//5
f 83//83 47//47 45//45
f 47//47 55//55 48//48
f 45//45 48//48 5//5
f 55//55 39//39 48//48
f 39//39 2//2 49//49
f 48//48 49//49 5//5
f 21//21 50//50 38//38
f 50//50 21//21 23//23
f 8//8 6//6 20//20
f 51//51 11//11 52//52
f 51//51 52//52 25//25
f 51//51 25//25 24//24
f 12//12 82//82 62//62
f 4//4 53//53 54//54
f 53//53 9//9 82//82
f 14//14 56//56 4//4
f 57//57 10//10 58//58
f 59//59 58//58 56//56
f 13//13 47//47 61//61
f 61//61 83//83 60//60
f 61//61 60//60 14//14
f 3//3 55//55 13//13
f 19//19 62//62 63//63
f 62//62 7//7 12//12
f 63//63 82//82 9//9
f 9//9 64//64 66//66
f 64//64 10//10 65//65
f 66//66 65//65 11//11
f 56//56 58//58 81//81
f 58//58 10//10 64//64
f 81//81 64//64 9//9
f 9//9 53//53 81//81
f 15//15 67//67 69//69
f 67//67 18//18 68//68
f 69//69 68//68 28//28
f 69//69 28//28 29//29
f 17//17 70//70 72//72
f 70//70 8//8 71//71
f 73//73 71//71 20//20
f 72//72 71//71 27//27
f 73//73 27//27 71//71
f 18//18 31//31 68//68
f 28//28 68//68 31//31
f 74//74 18//18 17//17
f 74//74 32//32 31//31
f 38//38 55//55 41//41
f 42//42 41//41 1//1
f 83//83 44//44 60//60
f 44//44 57//57 59//59
f 60//60 59//59 56//56
f 24//24 75//75 19//19
f 75//75 24//24 26//26
f 7//7 62//62 77//77
f 62//62 19//19 76//76
f 77//77 76//76 6//6
f 78//78 36//36 79//79
f 36//36 78//78 15//15
f 79//79 36//36 34//34
f 80//80 37//37 43//43
f 22//22 43//43 37//37
f 71//71 8//8 20//20
f 72//72 30//30 74//74
f 32//32 74//74 30//30
f 75//75 76//76 19//19
f 19//19 63//63 51//51
f 63//63 9//9 66//66
f 51//51 66//66 11//11
f 60//60 56//56 14//14
f 55//55 47//47 13//13
f 81//81 4//4 56//56
f 54//54 53//53 82//82
f 47//47 83//83 61//61
f 75//75 20//20 6//6
f 75//75 6//6 76//76
f 54//54 82//82 12//12
# 116 faces, 0 coords texture

# End of File
