####
#
# OBJ File Generated by Meshlab
#
####
# Object 2221_C119_S_2.obj
#
# Vertices: 80
# Faces: 115
#
####
vn 2.479840 -1.916974 -0.191991
v -47.659300 85.213400 -37.999900
vn 1.216618 -1.070756 -0.080298
v -41.898500 92.000000 -37.969600
vn 2.340400 -2.086226 -0.147776
v -42.577300 91.229100 -37.979500
vn 2.418004 -1.985391 -0.225886
v -46.061800 87.243400 -37.999800
vn 2.542340 -1.842930 -0.097481
v -51.393200 80.153600 -38.000000
vn 2.548913 -1.835754 -0.052853
v -52.752700 78.256700 -38.000000
vn 2.333823 -2.077931 -0.121755
v -41.772900 91.997800 -36.048500
vn 5.081054 -3.686267 -0.268959
v -50.215153 81.737955 -37.272860
vn 2.526882 -1.858508 -0.155577
v -49.772800 82.406400 -38.000000
vn 2.392854 -2.025649 -0.208196
v -44.719200 88.830400 -37.995900
vn 2.549483 -1.831175 -0.126889
v -51.309400 80.270500 -38.000000
vn 4.756592 -4.082908 -0.415062
v -44.268191 89.273960 -37.085741
vn 0.507608 -0.364944 -0.005523
v -54.024150 76.487850 -38.000000
vn 2.352632 -2.064647 -0.170005
v -44.272200 89.348300 -37.995400
vn 4.722148 -4.132534 -0.311754
v -42.879520 90.739341 -35.726042
vn 2.506489 -1.886429 -0.162384
v -49.137400 83.257100 -38.000000
vn 4.815773 -4.009390 -0.459527
v -45.314483 87.917972 -36.154062
vn 4.892055 -3.918276 -0.431212
v -46.821217 86.129204 -36.475561
vn 4.971276 -3.825710 -0.357835
v -48.153812 84.411949 -36.399696
vn 4.797433 -4.036265 -0.413034
v -44.097789 89.238380 -34.937101
vn 2.712828 -1.974497 -0.087099
v -51.593600 79.847500 -37.302300
vn 2.493429 -1.840870 -0.133401
v -49.944400 82.048700 -36.394900
vn 2.455845 -1.774526 -0.120374
v -50.710800 81.014800 -36.725900
vn 2.523378 -1.832302 -0.116189
v -50.986200 80.644900 -36.900050
vn 2.174931 -1.563734 -0.023187
v -54.010200 76.507000 -37.982900
vn 2.492124 -1.895226 -0.159544
v -48.874400 83.439903 -36.021456
vn 2.281285 -1.891934 -0.212383
v -45.274100 87.777000 -34.474400
vn 2.511585 -2.101924 -0.163278
v -43.534100 89.847200 -34.241700
vn 2.194858 -1.863808 -0.145442
v -42.916900 90.578000 -34.248400
vn 2.548266 -2.119113 -0.229545
v -44.638300 88.525700 -34.355100
vn 2.069340 -1.719526 -0.162076
v -44.120800 89.130500 -34.107400
vn 2.542929 -1.831491 -0.053775
v -52.643400 78.396750 -37.596300
vn 1.445749 -1.280428 -0.072285
v -41.726200 91.999100 -34.916700
vn 2.480372 -1.940926 -0.194060
v -47.622250 85.019000 -35.560650
vn 2.460673 -2.020120 -0.235154
v -46.372200 86.506850 -35.020900
vn 2.354236 -2.074307 -0.156294
v -41.835700 91.998900 -37.009050
vn 4.693163 -4.166983 -0.296814
v -42.182782 91.600661 -36.951747
vn 2.552887 -1.829627 -0.069544
v -52.072950 79.205150 -38.000000
vn 5.102189 -3.664653 -0.127394
v -52.350317 78.808364 -37.742532
vn 2.558870 -1.834944 -0.068343
v -52.050100 79.215500 -37.433900
vn 4.996263 -3.795782 -0.328101
v -48.606283 83.875035 -37.043941
vn 5.035095 -3.746009 -0.305113
v -49.589584 82.583999 -37.194929
vn 4.783925 -4.049140 -0.441085
v -44.303324 89.119069 -36.063851
vn 4.810980 -4.016225 -0.450346
v -44.676284 88.608016 -35.490508
vn 4.812107 -4.016077 -0.439487
v -44.665604 88.763507 -36.776484
vn 2.547172 -1.834102 -0.132625
v -50.541100 81.338450 -38.000000
vn 5.092162 -3.672153 -0.252025
v -50.762855 80.986302 -37.382331
vn 5.011630 -3.776820 -0.312150
v -49.155308 83.136089 -36.862035
vn 2.504774 -1.883605 -0.152577
v -49.431850 82.715250 -36.214200
vn 4.822480 -4.002232 -0.451630
v -45.231608 87.900002 -35.113689
vn 2.386073 -1.968048 -0.222264
v -45.734950 87.241600 -34.686050
vn 4.832635 -3.989355 -0.457250
v -45.862025 87.179692 -35.499047
vn 4.674224 -4.189220 -0.283643
v -42.743996 90.958216 -36.725581
vn 4.714942 -4.136319 -0.357888
v -43.405016 90.198112 -36.376646
vn 2.332349 -2.099289 -0.150789
v -43.424750 90.288700 -37.987450
vn 4.685244 -4.179446 -0.239008
v -42.286701 91.414638 -35.916700
vn 4.768848 -4.072335 -0.387822
v -43.489392 89.993705 -35.372798
vn 4.777838 -4.067569 -0.324677
v -42.941937 90.600657 -34.916694
vn 4.796040 -4.045087 -0.336717
v -43.513616 89.900375 -34.611151
vn 4.936833 -3.867240 -0.387658
v -47.197746 85.725104 -37.235020
vn 2.464315 -1.939273 -0.189678
v -46.860550 86.228400 -37.999850
vn 4.882134 -3.929597 -0.439400
v -46.460506 86.657338 -37.187922
vn 4.723761 -4.133296 -0.269650
v -42.452220 91.193460 -35.177772
vn 2.501222 -1.893139 -0.171803
v -48.398350 84.235250 -37.999950
vn 4.975089 -3.819250 -0.372187
v -47.901524 84.820833 -37.236029
vn 2.520548 -1.943313 -0.188683
v -48.272550 84.202050 -35.824050
vn 4.809521 -4.014352 -0.479390
v -45.721862 87.544339 -37.108466
vn 2.392339 -2.023311 -0.229191
v -45.390500 88.036900 -37.997850
vn 4.796480 -4.033741 -0.448016
v -45.082783 88.305213 -37.154393
vn 4.833534 -3.985525 -0.480305
v -46.105329 86.982340 -36.336369
vn 4.849009 -3.968192 -0.467087
v -46.549326 86.376608 -35.751644
vn 2.456103 -1.979954 -0.239852
v -47.015850 85.748200 -35.308550
vn 4.903875 -3.903613 -0.432295
v -47.108696 85.706572 -35.916676
vn 4.945346 -3.857405 -0.377181
v -47.474355 85.293689 -36.478003
vn 2.282056 -1.969176 -0.152628
v -42.490500 91.091400 -34.429800
vn 2.550803 -1.833580 -0.031505
v -53.382750 77.380200 -38.000000
vn 5.101726 -3.666994 -0.062980
v -53.645170 77.013861 -37.926037
vn 2.553714 -1.836584 -0.034386
v -53.254125 77.555200 -37.771100
vn 4.668475 -4.195084 -0.291498
v -43.158305 90.535538 -37.297900
vn 4.702384 -4.151353 -0.355498
v -43.797586 89.804613 -37.022032
# 80 vertices, 0 vertices normals

f 7//7 37//37 36//36
f 6//6 38//38 39//39
f 39//39 38//38 40//40
f 8//8 22//22 23//23
f 9//9 16//16 42//42
f 5//5 11//11 24//24
f 11//11 46//46 47//47
f 11//11 47//47 24//24
f 48//48 26//26 49//49
f 50//50 51//51 52//52
f 10//10 14//14 12//12
f 80//80 79//79 54//54
f 3//3 79//79 55//55
f 37//37 56//56 53//53
f 57//57 58//58 59//59
f 31//31 59//59 28//28
f 20//20 31//31 30//30
f 60//60 61//61 62//62
f 5//5 24//24 21//21
f 15//15 56//56 63//63
f 64//64 65//65 41//41
f 67//67 68//68 69//69
f 17//17 44//44 50//50
f 67//67 70//70 62//62
f 70//70 52//52 71//71
f 71//71 72//72 73//73
f 60//60 74//74 65//65
f 19//19 74//74 34//34
f 63//63 75//75 58//58
f 57//57 43//43 54//54
f 13//13 76//76 77//77
f 20//20 59//59 31//31
f 6//6 32//32 78//78
f 3//3 2//2 37//37
f 36//36 37//37 2//2
f 38//38 21//21 40//40
f 21//21 38//38 5//5
f 6//6 39//39 32//32
f 40//40 32//32 39//39
f 16//16 41//41 48//48
f 9//9 42//42 8//8
f 12//12 43//43 45//45
f 43//43 20//20 44//44
f 45//45 43//43 44//44
f 47//47 8//8 23//23
f 8//8 46//46 9//9
f 47//47 23//23 24//24
f 16//16 48//48 42//42
f 42//42 48//48 49//49
f 8//8 42//42 22//22
f 49//49 22//22 42//42
f 17//17 50//50 52//52
f 50//50 27//27 51//51
f 52//52 51//51 35//35
f 12//12 14//14 80//80
f 43//43 80//80 54//54
f 54//54 53//53 15//15
f 14//14 55//55 80//80
f 3//3 37//37 53//53
f 37//37 7//7 56//56
f 53//53 56//56 15//15
f 20//20 57//57 59//59
f 57//57 15//15 58//58
f 59//59 58//58 29//29
f 59//59 29//29 28//28
f 18//18 60//60 62//62
f 60//60 1//1 61//61
f 62//62 61//61 4//4
f 56//56 7//7 33//33
f 33//33 63//63 56//56
f 16//16 64//64 41//41
f 64//64 1//1 65//65
f 41//41 65//65 19//19
f 34//34 66//66 19//19
f 66//66 26//26 19//19
f 17//17 67//67 69//69
f 67//67 4//4 68//68
f 69//69 68//68 10//10
f 45//45 17//17 69//69
f 44//44 30//30 50//50
f 30//30 44//44 20//20
f 27//27 50//50 30//30
f 4//4 67//67 62//62
f 67//67 17//17 70//70
f 62//62 70//70 18//18
f 18//18 70//70 71//71
f 70//70 17//17 52//52
f 71//71 52//52 35//35
f 18//18 71//71 73//73
f 71//71 35//35 72//72
f 73//73 72//72 34//34
f 1//1 60//60 65//65
f 60//60 18//18 74//74
f 65//65 74//74 19//19
f 74//74 18//18 73//73
f 74//74 73//73 34//34
f 15//15 63//63 58//58
f 63//63 33//33 75//75
f 58//58 75//75 29//29
f 15//15 57//57 54//54
f 57//57 20//20 43//43
f 76//76 78//78 77//77
f 78//78 76//76 6//6
f 13//13 77//77 25//25
f 78//78 25//25 77//77
f 79//79 53//53 54//54
f 79//79 80//80 55//55
f 8//8 47//47 46//46
f 53//53 79//79 3//3
f 41//41 19//19 26//26
f 48//48 41//41 26//26
f 45//45 69//69 10//10
f 12//12 45//45 10//10
f 80//80 43//43 12//12
f 45//45 44//44 17//17
# 115 faces, 0 coords texture

# End of File
