####
#
# OBJ File Generated by Meshlab
#
####
# Object 2224_C119_S_5.obj
#
# Vertices: 59
# Faces: 83
#
####
vn -2.483244 -1.924158 -0.013981
v 44.074100 90.609300 50.000000
vn -2.516867 -1.880061 -0.025789
v 45.356900 88.885800 53.000000
vn -5.003826 -3.799554 -0.050655
v 44.728240 89.741456 51.534220
vn -2.112450 -1.508360 -0.010326
v 50.206900 82.227900 50.000000
vn -2.550546 -1.833817 -0.028982
v 48.376700 84.801800 50.000000
vn -2.536519 -1.853494 -0.020778
v 46.834700 86.888100 53.000000
vn -2.542318 -1.845486 -0.019541
v 47.097400 86.525700 53.000000
vn -2.534502 -1.855938 -0.024786
v 46.947100 86.773100 50.000000
vn -2.534081 -1.856848 -0.012426
v 46.159000 87.835500 50.000000
vn -2.545717 -1.840796 -0.023363
v 47.853900 85.483100 53.000000
vn -2.458726 -1.955519 -0.000410
v 42.484400 92.629200 50.000000
vn -2.514335 -1.882247 -0.033686
v 45.321500 88.991100 50.000000
vn -2.464640 -1.948023 -0.018985
v 43.108825 91.822775 53.000000
vn -2.485658 -1.921077 -0.013098
v 43.819000 90.923900 53.000000
vn -5.098804 -3.671230 -0.050288
v 48.188820 85.038454 51.486103
vn -2.762937 -1.960978 -0.022182
v 50.173300 82.274500 50.066700
vn -2.658223 -1.887175 -0.026046
v 49.632625 83.030200 50.622525
vn -1.013720 -0.729511 -0.010172
v 48.574800 84.481300 53.000000
vn -3.653721 -2.624143 -0.031486
v 48.358600 84.797800 51.850800
vn -2.611501 -2.070419 -0.012619
v 42.222575 92.952950 52.000625
vn -1.388015 -1.097117 -0.009764
v 42.343100 92.792000 53.000000
vn -0.854522 -0.685938 0.000876
v 41.644600 93.675400 50.000000
vn -2.326556 -1.659416 -0.024957
v 49.260000 83.547600 51.114900
vn -2.686476 -1.922212 -0.030925
v 48.740000 84.268400 51.463500
vn -0.681366 -0.488461 -0.001973
v 50.238516 82.183664 50.033030
vn -5.063989 -3.719176 -0.042649
v 46.597183 87.236532 50.913976
vn -5.057078 -3.728405 -0.050410
v 46.023343 88.014821 51.168983
vn -2.561664 -1.818450 -0.024382
v 49.598275 83.087175 50.000000
vn -5.093330 -3.678859 -0.047615
v 48.025235 85.256960 52.139974
vn -2.543283 -1.844076 -0.026472
v 47.661900 85.787450 50.000000
vn -5.097518 -3.672852 -0.059062
v 48.239434 84.979603 50.786023
vn -5.083615 -3.692298 -0.046761
v 47.448526 86.053942 51.988949
vn -4.927863 -3.897917 -0.027673
v 42.729484 92.312438 51.958340
vn -4.957333 -3.860209 -0.015302
v 43.712977 91.070104 50.847705
vn -4.932388 -3.892257 -0.005996
v 42.995716 91.981307 50.895553
vn -2.468624 -1.943061 0.004142
v 43.279250 91.619250 50.000000
vn -5.005186 -3.797020 -0.077756
v 45.046278 89.338818 50.729467
vn -4.980194 -3.830701 -0.041674
v 44.394310 90.183964 50.795271
vn -2.488159 -1.917833 -0.024212
v 44.697800 89.800200 50.000000
vn -4.945139 -3.875834 -0.022998
v 43.404856 91.459430 51.894188
vn -2.507637 -1.892201 -0.030558
v 44.587950 89.904850 53.000000
vn -5.002907 -3.800905 -0.038798
v 44.395151 90.171726 52.295952
vn -5.023800 -3.773197 -0.049853
v 45.037778 89.321019 52.238187
vn -4.916199 -3.912648 -0.009358
v 42.388023 92.748949 50.982881
vn -2.518997 -2.017055 -0.000747
v 41.967475 93.274450 51.000950
vn -2.450511 -1.965859 0.001280
v 42.064500 93.152300 50.000000
vn -5.061686 -3.721498 -0.067391
v 45.641082 88.546230 50.578701
vn -5.034116 -3.758953 -0.074590
v 45.392182 88.856275 51.419370
vn -2.557721 -1.823986 -0.026325
v 48.886050 84.087700 50.000000
vn -2.543771 -1.843551 -0.012435
v 45.740250 88.413300 50.000000
vn -4.981700 -3.828912 -0.019926
v 44.044036 90.631801 51.804658
vn -5.061036 -3.723080 -0.051934
v 46.388094 87.508300 51.955901
vn -5.111639 -3.653216 -0.059514
v 48.779540 84.226602 50.691865
vn -2.525539 -1.868257 -0.029496
v 46.095800 87.886950 53.000000
vn -5.043107 -3.747330 -0.052839
v 45.732374 88.391701 52.147410
vn -5.117708 -3.644855 -0.049639
v 49.234455 83.592583 50.464256
vn -5.080789 -3.696066 -0.054569
v 47.199868 86.411719 50.914229
vn -5.087518 -3.686862 -0.051154
v 47.762618 85.631056 51.210674
vn -5.076228 -3.702461 -0.045263
v 46.919725 86.781650 51.861640
# 59 vertices, 0 vertices normals

f 28//28 16//16 17//17
f 10//10 29//29 18//18
f 30//30 31//31 58//58
f 10//10 7//7 32//32
f 32//32 29//29 10//10
f 34//34 35//35 36//36
f 37//37 38//38 39//39
f 44//44 20//20 45//45
f 41//41 42//42 43//43
f 35//35 33//33 44//44
f 33//33 21//21 20//20
f 44//44 45//45 46//46
f 37//37 47//47 48//48
f 5//5 49//49 53//53
f 58//58 32//32 57//57
f 47//47 50//50 9//9
f 19//19 15//15 24//24
f 52//52 54//54 55//55
f 34//34 38//38 51//51
f 48//48 55//55 43//43
f 4//4 25//25 16//16
f 15//15 31//31 24//24
f 9//9 26//26 27//27
f 26//26 9//9 8//8
f 16//16 28//28 4//4
f 19//19 29//29 15//15
f 29//29 19//19 18//18
f 8//8 30//30 57//57
f 30//30 5//5 31//31
f 58//58 31//31 15//15
f 33//33 40//40 13//13
f 1//1 34//34 36//36
f 36//36 35//35 11//11
f 12//12 37//37 39//39
f 37//37 3//3 38//38
f 39//39 38//38 1//1
f 40//40 14//14 13//13
f 2//2 41//41 43//43
f 41//41 14//14 42//42
f 43//43 42//42 3//3
f 11//11 35//35 44//44
f 21//21 33//33 13//13
f 44//44 33//33 20//20
f 11//11 44//44 46//46
f 46//46 45//45 22//22
f 3//3 37//37 48//48
f 37//37 12//12 47//47
f 48//48 47//47 27//27
f 49//49 28//28 56//56
f 17//17 23//23 56//56
f 23//23 53//53 56//56
f 47//47 12//12 50//50
f 27//27 47//47 9//9
f 42//42 51//51 3//3
f 6//6 52//52 59//59
f 24//24 31//31 53//53
f 31//31 5//5 53//53
f 53//53 23//23 24//24
f 27//27 52//52 55//55
f 52//52 6//6 54//54
f 55//55 54//54 2//2
f 40//40 34//34 51//51
f 34//34 1//1 38//38
f 51//51 38//38 3//3
f 26//26 8//8 57//57
f 3//3 48//48 43//43
f 48//48 27//27 55//55
f 43//43 55//55 2//2
f 56//56 28//28 17//17
f 56//56 53//53 49//49
f 6//6 59//59 7//7
f 59//59 32//32 7//7
f 52//52 27//27 26//26
f 26//26 57//57 59//59
f 57//57 30//30 58//58
f 52//52 26//26 59//59
f 14//14 51//51 42//42
f 32//32 58//58 29//29
f 58//58 15//15 29//29
f 14//14 40//40 51//51
f 32//32 59//59 57//57
f 34//34 40//40 35//35
f 35//35 40//40 33//33
# 83 faces, 0 coords texture

# End of File
