####
#
# OBJ File Generated by Meshlab
#
####
# Object 2229_C119_S_10.obj
#
# Vertices: 103
# Faces: 172
#
####
vn -5.045530 -3.739454 -0.193184
v 66.316975 60.490791 30.816644
vn -5.052981 -3.730808 -0.163028
v 67.948360 58.122967 34.212211
vn -5.050585 -3.732896 -0.187032
v 65.803492 61.089684 32.651271
vn -5.051083 -3.732499 -0.182147
v 65.352645 61.617333 34.357371
vn -5.056799 -3.724833 -0.179721
v 67.770937 58.555555 30.372947
vn -5.045211 -3.740292 -0.185404
v 67.173580 59.258468 32.443718
vn -5.064385 -3.715008 -0.170444
v 69.063305 56.788308 30.394939
vn -5.052150 -3.731929 -0.162326
v 66.642042 60.241708 27.038557
vn -5.060596 -3.719928 -0.174847
v 69.226322 56.415400 33.548872
vn -5.060131 -3.720489 -0.176662
v 69.680802 55.888644 31.776586
vn -5.056978 -3.724461 -0.183584
v 64.976812 62.297237 31.063640
vn -5.041926 -3.745351 -0.172233
v 66.576999 59.970428 34.298003
vn -5.061590 -3.718985 -0.166944
v 67.687966 58.767287 28.155334
vn -5.070284 -3.707279 -0.162856
v 69.318199 56.514007 28.733199
vn -5.047918 -3.736708 -0.182596
v 66.730352 60.027860 29.081802
vn -5.059796 -3.720684 -0.182501
v 68.515197 57.452513 32.199138
vn -5.048112 -3.736519 -0.182595
v 65.559767 61.585147 29.424323
vn -2.249031 -1.651517 -0.084155
v 64.567500 62.756500 32.982300
vn -2.222506 -1.636355 -0.078859
v 64.371200 63.114400 31.172100
vn -2.493747 -1.839700 -0.085711
v 64.500600 62.987600 30.101800
vn -2.261977 -1.672411 -0.062349
v 68.168400 57.770200 35.687200
vn -2.551024 -1.873409 -0.095683
v 64.906000 62.247800 33.916500
vn -2.156076 -1.593431 -0.078765
v 65.172350 61.844500 34.697050
vn -2.526037 -1.874754 -0.086956
v 65.391700 61.538000 34.932100
vn -2.392991 -1.771747 -0.080850
v 64.921025 62.494475 28.425825
vn -2.216401 -1.619597 -0.069476
v 69.726050 55.987350 28.011400
vn -2.251982 -1.654863 -0.070530
v 67.595813 58.990166 25.923225
vn -2.237636 -1.663700 -0.067103
v 67.192700 59.070950 36.028900
vn -2.276365 -1.672958 -0.075694
v 69.540800 55.973450 33.859300
vn -2.387289 -1.757564 -0.068850
v 69.015000 56.653300 34.772300
vn -2.522648 -1.856250 -0.077292
v 69.926600 55.678500 28.921700
vn -2.218049 -1.620854 -0.069505
v 68.850756 57.253550 26.566423
vn -2.322469 -1.714269 -0.079236
v 64.596200 62.888600 29.452500
vn -2.252997 -1.654172 -0.077502
v 70.121300 55.293700 31.664000
vn -2.425056 -1.781583 -0.090368
v 70.002000 55.425600 32.286300
vn -2.390398 -1.773554 -0.078554
v 66.098200 60.997100 26.532500
vn -2.329167 -1.730748 -0.080493
v 65.742000 61.460200 26.882600
vn -2.576473 -1.897336 -0.084986
v 70.101600 55.368500 30.616900
vn -2.233445 -1.646794 -0.070674
v 70.114300 55.387300 29.799700
vn -5.059669 -3.720223 -0.195102
v 65.397659 61.682630 31.869681
vn -5.062639 -3.716458 -0.189862
v 65.165818 61.949465 32.825288
vn -5.060838 -3.718951 -0.189017
v 64.811994 62.471876 32.035428
vn -2.519095 -1.852299 -0.093342
v 64.494650 62.888050 32.341200
vn -5.047378 -3.737263 -0.187423
v 67.465759 58.912942 31.466375
vn -5.061251 -3.718637 -0.183433
v 68.159010 57.979284 31.353298
vn -5.053508 -3.729029 -0.186536
v 67.851212 58.345699 32.338079
vn -5.049958 -3.734453 -0.172997
v 66.655301 60.172750 28.143653
vn -5.040178 -3.747081 -0.185205
v 66.135088 60.834054 28.964220
vn -5.040873 -3.746654 -0.174936
v 66.016170 61.054272 27.677370
vn -5.060583 -3.720344 -0.167119
v 68.178877 58.125799 27.576042
vn -5.061801 -3.718902 -0.162284
v 67.675704 58.831907 27.065651
vn -5.058451 -3.724329 -0.140839
v 68.459675 57.413034 34.618950
vn -2.447491 -1.801475 -0.066153
v 68.688450 57.081850 35.172925
vn -5.051706 -3.733502 -0.139453
v 68.074386 57.919686 35.088245
vn -5.043512 -3.743053 -0.175848
v 65.509816 61.693200 28.573216
vn -2.517521 -1.869310 -0.071922
v 67.688850 58.409400 35.857300
vn -5.045388 -3.741797 -0.146369
v 67.514873 58.673037 35.096664
vn -5.038681 -3.749168 -0.183962
v 66.484378 60.179912 32.539562
vn -5.047780 -3.736403 -0.193194
v 66.064800 60.784206 31.728470
vn -5.039971 -3.747393 -0.184804
v 66.759210 59.857137 31.605096
vn -5.062474 -3.718210 -0.156939
v 67.161190 59.550911 26.664920
vn -2.304119 -1.697480 -0.067876
v 66.837275 60.016250 26.047675
vn -5.042650 -3.743774 -0.184920
v 66.874067 59.615310 33.386908
vn -5.041191 -3.746070 -0.178162
v 66.189743 60.530539 33.477502
vn -5.042181 -3.743980 -0.193198
v 67.014909 59.559547 30.650759
vn -5.062328 -3.717959 -0.167309
v 67.164083 59.505701 27.607472
vn -5.060208 -3.720792 -0.168561
v 67.192321 59.418178 28.671109
vn -5.056193 -3.725235 -0.189296
v 65.639786 61.402785 30.957639
vn -5.053996 -3.728833 -0.177029
v 65.257403 61.958957 30.175430
vn -5.048426 -3.735747 -0.189120
v 65.898885 61.094513 30.056249
vn -5.068901 -3.708683 -0.174142
v 68.503552 57.551871 30.429050
vn -5.063514 -3.716217 -0.169888
v 68.813596 57.089827 31.239856
vn -5.058185 -3.722774 -0.184540
v 68.224443 57.799249 33.176306
vn -5.050077 -3.733753 -0.184894
v 67.553796 58.701358 33.312807
vn -5.063019 -3.717342 -0.159761
v 68.339643 57.937688 26.887236
vn -2.469988 -1.815765 -0.077572
v 68.140750 58.239150 26.158900
vn -5.068809 -3.709084 -0.167608
v 68.650213 57.481567 27.631990
vn -5.063469 -3.716347 -0.168705
v 68.205879 58.044006 28.555357
vn -5.037900 -3.751043 -0.165991
v 66.390476 60.186424 35.067890
vn -2.293679 -1.704903 -0.076700
v 65.967775 60.733025 35.556775
vn -5.046960 -3.738677 -0.168897
v 67.232968 59.087331 34.247625
vn -5.040132 -3.748499 -0.155194
v 66.923816 59.469878 35.117131
vn -5.053348 -3.729424 -0.182125
v 65.531057 61.412671 33.595718
vn -2.410419 -1.799134 -0.076895
v 66.667950 59.779000 35.897700
vn -5.061601 -3.717856 -0.190145
v 68.872107 56.928586 32.945629
vn -5.059656 -3.721534 -0.167327
v 68.616406 57.228536 33.900100
vn -5.058952 -3.722015 -0.178394
v 69.143815 56.607789 31.999761
vn -5.057721 -3.724386 -0.163794
v 69.383788 56.325323 31.013449
vn -5.066590 -3.712048 -0.169545
v 68.293175 57.880668 29.547795
vn -5.061552 -3.719082 -0.165903
v 67.722553 58.672508 29.226618
vn -5.069635 -3.707890 -0.169545
v 68.903717 57.043322 29.607455
vn -5.077563 -3.697224 -0.165078
v 69.059463 56.922703 27.577711
vn -2.480338 -1.803201 -0.077579
v 69.306650 56.596200 27.263750
vn -5.051133 -3.732242 -0.185209
v 67.174731 59.396651 29.687977
vn -5.041090 -3.745040 -0.201209
v 66.541174 60.238893 29.898267
vn -2.386499 -1.771906 -0.083018
v 65.296950 62.026075 27.592475
vn -5.060311 -3.720920 -0.162392
v 69.523875 56.185941 29.846342
vn -5.057619 -3.724455 -0.165320
v 69.848828 55.703987 30.790225
vn -5.060090 -3.719816 -0.192016
v 69.474624 56.124523 32.641543
vn -2.504287 -1.842093 -0.094061
v 69.815750 55.644700 32.949600
vn -5.051400 -3.732554 -0.172634
v 65.062634 62.261664 29.344714
vn -5.043344 -3.743373 -0.173953
v 65.892138 60.885394 34.464787
vn -5.071072 -3.705883 -0.170336
v 68.751889 57.294342 28.666518
# 103 vertices, 0 vertices normals

f 40//40 41//41 42//42
f 11//11 19//19 20//20
f 44//44 45//45 46//46
f 47//47 48//48 49//49
f 50//50 51//51 75//75
f 52//52 53//53 54//54
f 4//4 23//23 22//22
f 4//4 24//24 23//23
f 49//49 55//55 96//96
f 54//54 56//56 57//57
f 58//58 59//59 60//60
f 58//58 63//63 64//64
f 65//65 44//44 60//60
f 66//66 67//67 47//47
f 68//68 69//69 70//70
f 45//45 71//71 72//72
f 46//46 73//73 74//74
f 75//75 51//51 76//76
f 77//77 78//78 50//50
f 51//51 66//66 61//61
f 81//81 57//57 82//82
f 3//3 83//83 41//41
f 63//63 74//74 81//81
f 82//82 84//84 79//79
f 85//85 86//86 73//73
f 87//87 72//72 88//88
f 9//9 29//29 30//30
f 89//89 90//90 78//78
f 14//14 26//26 31//31
f 14//14 97//97 91//91
f 90//90 94//94 67//67
f 17//17 69//69 101//101
f 10//10 34//34 35//35
f 61//61 8//8 62//62
f 40//40 68//68 59//59
f 17//17 101//101 55//55
f 95//95 94//94 65//65
f 71//71 89//89 91//91
f 10//10 98//98 34//34
f 88//88 97//97 98//98
f 34//34 98//98 38//38
f 85//85 87//87 99//99
f 99//99 35//35 100//100
f 2//2 86//86 52//52
f 70//70 48//48 95//95
f 11//11 40//40 42//42
f 40//40 3//3 41//41
f 42//42 41//41 18//18
f 43//43 42//42 18//18
f 11//11 42//42 19//19
f 43//43 19//19 42//42
f 6//6 44//44 46//46
f 44//44 5//5 45//45
f 46//46 45//45 16//16
f 8//8 47//47 49//49
f 47//47 15//15 48//48
f 50//50 13//13 51//51
f 76//76 51//51 27//27
f 2//2 52//52 54//54
f 54//54 53//53 21//21
f 55//55 25//25 96//96
f 2//2 54//54 57//57
f 54//54 21//21 56//56
f 57//57 56//56 28//28
f 6//6 58//58 60//60
f 58//58 3//3 59//59
f 60//60 59//59 1//1
f 62//62 27//27 61//61
f 3//3 58//58 64//64
f 58//58 6//6 63//63
f 64//64 63//63 12//12
f 1//1 65//65 60//60
f 65//65 5//5 44//44
f 60//60 44//44 6//6
f 8//8 66//66 47//47
f 66//66 13//13 67//67
f 47//47 67//67 15//15
f 1//1 68//68 70//70
f 68//68 11//11 69//69
f 70//70 69//69 17//17
f 16//16 45//45 72//72
f 45//45 5//5 71//71
f 72//72 71//71 7//7
f 6//6 46//46 74//74
f 46//46 16//16 73//73
f 74//74 73//73 2//2
f 77//77 50//50 75//75
f 76//76 32//32 75//75
f 49//49 48//48 55//55
f 55//55 48//48 17//17
f 77//77 103//103 78//78
f 50//50 78//78 13//13
f 27//27 51//51 61//61
f 51//51 13//13 66//66
f 61//61 66//66 8//8
f 102//102 12//12 79//79
f 102//102 79//79 80//80
f 4//4 102//102 24//24
f 80//80 24//24 102//102
f 12//12 81//81 82//82
f 81//81 2//2 57//57
f 82//82 57//57 28//28
f 22//22 83//83 4//4
f 83//83 22//22 41//41
f 18//18 41//41 22//22
f 3//3 64//64 83//83
f 64//64 12//12 102//102
f 83//83 102//102 4//4
f 12//12 63//63 81//81
f 63//63 6//6 74//74
f 81//81 74//74 2//2
f 12//12 82//82 79//79
f 82//82 28//28 84//84
f 79//79 84//84 80//80
f 16//16 85//85 73//73
f 85//85 9//9 86//86
f 73//73 86//86 2//2
f 10//10 87//87 88//88
f 87//87 16//16 72//72
f 88//88 72//72 7//7
f 103//103 89//89 78//78
f 89//89 5//5 90//90
f 78//78 90//90 13//13
f 103//103 14//14 91//91
f 91//91 97//97 7//7
f 92//92 103//103 77//77
f 32//32 93//93 92//92
f 26//26 92//92 93//93
f 92//92 26//26 14//14
f 13//13 90//90 67//67
f 90//90 5//5 94//94
f 67//67 94//94 15//15
f 69//69 20//20 101//101
f 20//20 69//69 11//11
f 33//33 101//101 20//20
f 3//3 40//40 59//59
f 40//40 11//11 68//68
f 59//59 68//68 1//1
f 101//101 33//33 25//25
f 49//49 37//37 36//36
f 8//8 49//49 36//36
f 1//1 95//95 65//65
f 95//95 15//15 94//94
f 65//65 94//94 5//5
f 7//7 71//71 91//91
f 71//71 5//5 89//89
f 91//91 89//89 103//103
f 49//49 96//96 37//37
f 31//31 97//97 14//14
f 39//39 97//97 31//31
f 10//10 88//88 98//98
f 88//88 7//7 97//97
f 98//98 97//97 39//39
f 98//98 39//39 38//38
f 9//9 85//85 99//99
f 85//85 16//16 87//87
f 35//35 99//99 10//10
f 9//9 99//99 100//100
f 100//100 29//29 9//9
f 86//86 30//30 52//52
f 30//30 86//86 9//9
f 53//53 52//52 30//30
f 1//1 70//70 95//95
f 70//70 17//17 48//48
f 95//95 48//48 15//15
f 8//8 36//36 62//62
f 101//101 25//25 55//55
f 10//10 99//99 87//87
f 64//64 102//102 83//83
f 14//14 103//103 92//92
f 92//92 77//77 32//32
f 77//77 75//75 32//32
# 172 faces, 0 coords texture

# End of File
