####
#
# OBJ File Generated by Meshlab
#
####
# Object 2234_C119_S_15.obj
#
# Vertices: 103
# Faces: 171
#
####
vn 5.078305 -3.699412 -0.055344
v -64.750742 61.716892 -9.245405
vn 5.093742 -3.678340 -0.044695
v -66.409811 59.387673 -6.915312
vn 5.089816 -3.683675 -0.048814
v -66.560980 59.158544 -5.074574
vn 5.055664 -3.730292 -0.057004
v -62.842714 64.294720 -7.874838
vn 5.066637 -3.715422 -0.056531
v -63.998301 62.714450 -7.456421
vn 5.077946 -3.699791 -0.063844
v -64.678965 61.732334 -3.910780
vn 5.056463 -3.729077 -0.065854
v -63.437900 63.416412 -3.484214
vn 5.083850 -3.691792 -0.058103
v -65.241850 60.979952 -5.673989
vn 5.086198 -3.688515 -0.061051
v -65.226543 61.032620 -7.521322
vn 5.081401 -3.695175 -0.058653
v -65.958418 59.965922 -3.634072
vn 5.072039 -3.707676 -0.074956
v -64.343865 62.154493 -1.977531
vn 5.060574 -3.723705 -0.054072
v -63.654304 63.211256 -9.232485
vn 5.047138 -3.741656 -0.069369
v -62.030792 65.361682 -6.343145
vn 5.052321 -3.734817 -0.059792
v -63.163241 63.822638 -5.732882
vn 5.070807 -3.709662 -0.054466
v -64.224276 62.381136 -5.450954
vn 5.090005 -3.683368 -0.055278
v -66.002878 59.979137 -8.883497
vn 2.249926 -1.625589 -0.025787
v -66.979900 58.607200 -7.549860
vn 2.462902 -1.784893 -0.031019
v -66.684900 59.032300 -8.451710
vn 2.279942 -1.649765 -0.022594
v -65.305900 60.968200 -10.543800
vn 3.038214 -2.214235 -0.029859
v -64.589100 61.959000 -10.805200
vn 2.494127 -1.837388 -0.038436
v -63.617100 63.126700 -1.235550
vn 2.313097 -1.704499 -0.035600
v -63.339800 63.505000 -1.331650
vn 2.268298 -1.679088 -0.029029
v -62.388650 64.812850 -2.177070
vn 2.261395 -1.644757 -0.025862
v -66.593000 59.086600 -3.198960
vn 2.577269 -1.871435 -0.022147
v -66.785500 58.832500 -3.914550
vn 2.243640 -1.618532 -0.020972
v -67.035600 58.495500 -4.756140
vn 1.585368 -1.157398 -0.015124
v -64.478500 62.113200 -11.012100
vn 2.787379 -2.040387 -0.030105
v -64.200100 62.492300 -10.840400
vn 2.229177 -1.649197 -0.026554
v -61.683150 65.870950 -8.388600
vn 2.330077 -1.696764 -0.035044
v -65.241200 60.907800 -1.415460
vn 2.527690 -1.836676 -0.038164
v -64.835800 61.462400 -1.251200
vn 2.231495 -1.632658 -0.033911
v -64.301000 62.194000 -1.050590
vn 2.338701 -1.706997 -0.030922
v -65.841600 60.098000 -1.957850
vn 2.213533 -1.645291 -0.025522
v -61.706400 65.748900 -3.403380
vn 2.448766 -1.769432 -0.025764
v -65.772000 60.315700 -10.065500
vn 2.442810 -1.759629 -0.019397
v -67.082100 58.440900 -5.570790
vn 2.457938 -1.771645 -0.021020
v -67.061100 58.480200 -6.587060
vn 2.228740 -1.652063 -0.032341
v -61.313700 66.335200 -6.653300
vn 2.379048 -1.764996 -0.032304
v -61.328550 66.294250 -5.584663
vn 2.197512 -1.618485 -0.027711
v -63.562600 63.361100 -10.800400
vn 2.543144 -1.883224 -0.031558
v -63.006600 64.104500 -10.352800
vn 2.509092 -1.852082 -0.020421
v -62.023625 65.417325 -9.063520
vn 2.186178 -1.616180 -0.020737
v -62.502750 64.778450 -9.970745
vn 2.307609 -1.671576 -0.023820
v -66.319250 59.548850 -9.337110
vn 5.090287 -3.683058 -0.049311
v -65.773911 60.271262 -7.247970
vn 5.085781 -3.689200 -0.051739
v -65.849692 60.156662 -6.310934
vn 5.092991 -3.679396 -0.042202
v -66.494936 59.260392 -6.002605
vn 5.083043 -3.693041 -0.050103
v -65.565650 60.520972 -4.687649
vn 5.080850 -3.696012 -0.053617
v -66.145886 59.720626 -4.482076
vn 5.081948 -3.694475 -0.055159
v -65.967366 59.978888 -5.393935
vn 5.064839 -3.717844 -0.058806
v -63.823343 62.968121 -8.422405
vn 5.069678 -3.711174 -0.062506
v -64.400779 62.179731 -8.344300
vn 5.065970 -3.716313 -0.058132
v -64.163480 62.517525 -9.252640
vn 5.062267 -3.721106 -0.071940
v -63.894858 62.779765 -2.692496
vn 5.057947 -3.726882 -0.077037
v -63.364110 63.492238 -2.298468
vn 5.059337 -3.724989 -0.077326
v -63.803317 62.884636 -1.747601
vn 5.085650 -3.689471 -0.048882
v -64.949922 61.370696 -4.766997
vn 5.083871 -3.691755 -0.058969
v -65.265825 60.923909 -3.886931
vn 5.047206 -3.741769 -0.057399
v -62.820011 64.256037 -3.850497
vn 5.044637 -3.745249 -0.056119
v -62.344329 64.887975 -3.203846
vn 5.052449 -3.734513 -0.066365
v -62.875011 64.165916 -2.788522
vn 2.485459 -1.809799 -0.030437
v -66.175625 59.647900 -2.469277
vn 5.053778 -3.733087 -0.042319
v -62.659545 64.554418 -8.957058
vn 5.058383 -3.726719 -0.051096
v -63.259567 63.739021 -8.640420
vn 5.052318 -3.734904 -0.054201
v -63.188837 63.848277 -9.748513
vn 5.048312 -3.740043 -0.070993
v -62.441119 64.821966 -7.082293
vn 5.052257 -3.734924 -0.056272
v -62.259972 65.087162 -8.142080
vn 5.048312 -3.740001 -0.073193
v -61.871591 65.596253 -7.350995
vn 5.081899 -3.694178 -0.075930
v -64.862214 61.446087 -2.220222
vn 5.081702 -3.694505 -0.073186
v -64.978688 61.304639 -3.149622
vn 5.073561 -3.705700 -0.070277
v -64.461880 62.011956 -2.963087
vn 5.076440 -3.702005 -0.057084
v -64.644877 61.826897 -7.291262
vn 5.083818 -3.691757 -0.061746
v -64.989675 61.372882 -8.312489
vn 2.517346 -1.871668 -0.028118
v -62.031900 65.302350 -2.815545
vn 2.399189 -1.782010 -0.029931
v -61.465800 66.090000 -4.475962
vn 5.063931 -3.719062 -0.059991
v -63.421009 63.503332 -7.627276
vn 5.083618 -3.692147 -0.057125
v -65.216757 61.032389 -6.692038
vn 5.047482 -3.741348 -0.060490
v -62.727115 64.398250 -4.932509
vn 5.048042 -3.740501 -0.065743
v -62.606399 64.579058 -6.015388
vn 5.045876 -3.743463 -0.063323
v -62.194787 65.123556 -5.334037
vn 5.059817 -3.724708 -0.056058
v -63.575021 63.276492 -6.590195
vn 5.054997 -3.731298 -0.053107
v -63.698902 63.094593 -5.541009
vn 5.066208 -3.716105 -0.047317
v -64.127148 62.525754 -6.422533
vn 5.083110 -3.692877 -0.053735
v -64.673738 61.773329 -6.188091
vn 5.087574 -3.686717 -0.055470
v -64.679777 61.751589 -5.399894
vn 5.075685 -3.702932 -0.060858
v -64.399123 62.128592 -4.655549
vn 5.092592 -3.679802 -0.054548
v -65.359345 60.874408 -9.185853
vn 5.065775 -3.716407 -0.068216
v -64.093021 62.527928 -3.715376
vn 2.522010 -1.869127 -0.036899
v -61.492400 66.110750 -7.495580
vn 5.045066 -3.744478 -0.067584
v -61.732152 65.753108 -5.746368
vn 5.062384 -3.721172 -0.059195
v -63.842120 62.967651 -10.024875
vn 5.078807 -3.698535 -0.070355
v -65.459867 60.634336 -2.694024
vn 5.055672 -3.730157 -0.065625
v -63.014692 64.043043 -6.805936
vn 5.043529 -3.746615 -0.064062
v -61.793933 65.656794 -4.976899
vn 5.092586 -3.679787 -0.056090
v -65.590656 60.538834 -8.193259
vn 2.510702 -1.850737 -0.038420
v -62.879850 64.137450 -1.729040
vn 5.059690 -3.724759 -0.062955
v -63.838862 62.890086 -4.546245
vn 5.050334 -3.737531 -0.058042
v -63.283564 63.643279 -4.645426
vn 5.089918 -3.683451 -0.057409
v -66.258355 59.610382 -7.876783
vn 5.072045 -3.708071 -0.053557
v -64.431026 62.166048 -10.108202
vn 5.084196 -3.691423 -0.052126
v -66.490935 59.240001 -4.069749
vn 5.087240 -3.687251 -0.049635
v -65.061498 61.298951 -10.032151
vn 5.044576 -3.745274 -0.059939
v -62.175584 65.130483 -4.224887
# 103 vertices, 0 vertices normals

f 45//45 46//46 2//2
f 48//48 49//49 50//50
f 100//100 102//102 20//20
f 51//51 52//52 53//53
f 54//54 55//55 56//56
f 32//32 56//56 21//21
f 57//57 58//58 48//48
f 59//59 60//60 61//61
f 26//26 101//101 25//25
f 63//63 64//64 65//65
f 3//3 49//49 101//101
f 100//100 20//20 28//28
f 66//66 67//67 68//68
f 92//92 69//69 30//30
f 70//70 71//71 69//69
f 11//11 32//32 31//31
f 52//52 72//72 73//73
f 92//92 30//30 33//33
f 103//103 34//34 60//60
f 51//51 64//64 76//76
f 8//8 46//46 77//77
f 78//78 79//79 80//80
f 81//81 82//82 83//83
f 72//72 83//83 84//84
f 57//57 85//85 86//86
f 1//1 87//87 102//102
f 3//3 26//26 36//36
f 54//54 71//71 88//88
f 2//2 37//37 17//17
f 68//68 29//29 89//89
f 43//43 65//65 41//41
f 70//70 92//92 58//58
f 93//93 81//81 76//76
f 80//80 90//90 94//94
f 79//79 93//93 66//66
f 28//28 20//20 27//27
f 63//63 65//65 43//43
f 95//95 87//87 73//73
f 11//11 56//56 32//32
f 16//16 44//44 35//35
f 12//12 53//53 91//91
f 61//61 96//96 55//55
f 99//99 95//95 45//45
f 88//88 86//86 97//97
f 59//59 98//98 78//78
f 82//82 98//98 97//97
f 8//8 84//84 85//85
f 45//45 9//9 77//77
f 47//47 46//46 50//50
f 8//8 48//48 50//50
f 48//48 10//10 49//49
f 50//50 49//49 3//3
f 102//102 19//19 20//20
f 12//12 51//51 53//53
f 51//51 5//5 52//52
f 53//53 52//52 1//1
f 11//11 54//54 56//56
f 54//54 7//7 55//55
f 56//56 55//55 22//22
f 56//56 22//22 21//21
f 8//8 57//57 48//48
f 57//57 6//6 58//58
f 48//48 58//58 10//10
f 7//7 59//59 61//61
f 59//59 103//103 60//60
f 61//61 60//60 23//23
f 62//62 24//24 10//10
f 24//24 25//25 101//101
f 63//63 4//4 64//64
f 65//65 64//64 12//12
f 13//13 66//66 68//68
f 66//66 4//4 67//67
f 68//68 67//67 29//29
f 31//31 69//69 11//11
f 69//69 31//31 30//30
f 92//92 70//70 69//69
f 70//70 6//6 71//71
f 69//69 71//71 11//11
f 1//1 52//52 73//73
f 52//52 5//5 72//72
f 73//73 72//72 9//9
f 60//60 34//34 74//74
f 60//60 74//74 23//23
f 5//5 51//51 76//76
f 51//51 12//12 64//64
f 76//76 64//64 4//4
f 8//8 50//50 46//46
f 50//50 3//3 47//47
f 77//77 46//46 45//45
f 78//78 14//14 79//79
f 5//5 81//81 83//83
f 81//81 14//14 82//82
f 83//83 82//82 15//15
f 77//77 72//72 84//84
f 72//72 5//5 83//83
f 84//84 83//83 15//15
f 6//6 57//57 86//86
f 57//57 8//8 85//85
f 86//86 85//85 15//15
f 35//35 87//87 16//16
f 47//47 36//36 37//37
f 36//36 47//47 3//3
f 2//2 47//47 37//37
f 7//7 54//54 88//88
f 54//54 11//11 71//71
f 88//88 71//71 6//6
f 13//13 68//68 38//38
f 89//89 38//38 68//68
f 13//13 38//38 90//90
f 39//39 90//90 38//38
f 65//65 12//12 91//91
f 65//65 91//91 40//40
f 65//65 40//40 41//41
f 6//6 70//70 58//58
f 58//58 92//92 10//10
f 33//33 62//62 92//92
f 62//62 10//10 92//92
f 4//4 93//93 76//76
f 93//93 14//14 81//81
f 76//76 81//81 5//5
f 103//103 80//80 94//94
f 94//94 90//90 39//39
f 94//94 75//75 103//103
f 75//75 94//94 39//39
f 13//13 79//79 66//66
f 79//79 14//14 93//93
f 66//66 93//93 4//4
f 4//4 63//63 67//67
f 67//67 63//63 42//42
f 29//29 67//67 42//42
f 42//42 63//63 43//43
f 99//99 18//18 16//16
f 16//16 18//18 44//44
f 1//1 102//102 100//100
f 53//53 100//100 91//91
f 9//9 95//95 73//73
f 95//95 16//16 87//87
f 73//73 87//87 1//1
f 100//100 28//28 91//91
f 40//40 91//91 28//28
f 7//7 61//61 55//55
f 61//61 23//23 96//96
f 55//55 96//96 22//22
f 99//99 16//16 95//95
f 45//45 95//95 9//9
f 7//7 88//88 97//97
f 88//88 6//6 86//86
f 97//97 86//86 15//15
f 59//59 7//7 98//98
f 78//78 98//98 14//14
f 15//15 82//82 97//97
f 82//82 14//14 98//98
f 97//97 98//98 7//7
f 8//8 77//77 84//84
f 77//77 9//9 72//72
f 85//85 84//84 15//15
f 2//2 46//46 47//47
f 99//99 17//17 18//18
f 10//10 24//24 101//101
f 17//17 99//99 2//2
f 1//1 100//100 53//53
f 99//99 45//45 2//2
f 3//3 101//101 26//26
f 19//19 102//102 35//35
f 103//103 75//75 34//34
f 102//102 87//87 35//35
f 103//103 59//59 78//78
f 78//78 80//80 103//103
f 80//80 79//79 13//13
f 80//80 13//13 90//90
f 10//10 101//101 49//49
# 171 faces, 0 coords texture

# End of File
