####
#
# OBJ File Generated by Meshlab
#
####
# Object 2236_C119_S_17.obj
#
# Vertices: 48
# Faces: 65
#
####
vn -2.266148 -2.174056 0.060768
v 41.448400 93.137000 -50.000000
vn -4.599910 -4.278703 0.105154
v 42.995406 91.428784 -51.585606
vn -2.305702 -2.133571 0.044284
v 43.059300 91.397000 -50.000000
vn -2.454663 -1.959865 0.046076
v 48.953400 84.478000 -50.000000
vn -2.450501 -1.965534 0.041149
v 47.368000 86.444600 -50.000000
vn -4.606572 -4.270972 0.124218
v 44.251130 90.104617 -50.810752
vn -2.410308 -2.014544 0.045586
v 45.195400 89.071100 -50.000000
vn -2.429200 -1.990374 0.053518
v 46.711000 87.268200 -50.000000
vn -2.350018 -2.080001 0.068695
v 44.849800 89.487000 -50.000000
vn -1.973943 -1.931418 0.056096
v 41.069800 93.511900 -50.414400
vn -0.855804 -0.838895 0.022938
v 40.962200 93.633000 -50.000000
vn -2.367579 -2.233048 0.062570
v 41.565100 92.981200 -51.190800
vn -2.070967 -1.925076 0.054063
v 41.772400 92.747500 -51.611600
vn -1.955494 -1.818615 0.035234
v 42.717400 91.707800 -52.615200
vn -2.185119 -1.887067 0.051391
v 45.470800 88.687700 -52.582800
vn -2.497169 -2.088327 0.043438
v 45.855500 88.234900 -52.332700
vn -2.495851 -2.027236 0.058091
v 47.120483 86.714613 -51.576913
vn -2.321253 -1.916433 0.044360
v 46.360000 87.631100 -52.102600
vn -2.109775 -1.937308 0.049445
v 43.994438 90.332424 -52.892285
vn -2.204844 -1.748874 0.041075
v 49.186200 84.174400 -50.430200
vn -2.611987 -2.099599 0.047981
v 48.741400 84.727700 -50.614100
vn -2.293838 -1.848969 0.039811
v 48.155100 85.445000 -51.077000
vn -4.613940 -4.263425 0.112111
v 42.746852 91.721293 -50.800380
vn -4.597994 -4.280298 0.124051
v 42.041106 92.482398 -50.832594
vn -4.607290 -4.270602 0.111864
v 42.430116 92.038325 -51.574247
vn -2.305889 -2.138027 0.043221
v 42.278050 92.190750 -52.147100
vn -2.302409 -2.136343 0.055267
v 42.220600 92.312675 -50.000000
vn -2.291691 -2.135983 0.040253
v 43.304200 91.075800 -52.746600
vn -4.591405 -4.288316 0.087659
v 43.449573 90.931911 -52.105512
vn -4.592117 -4.287238 0.101272
v 43.535089 90.864956 -50.995759
vn -4.618506 -4.258500 0.103923
v 44.093602 90.251660 -51.742939
vn -4.760978 -4.097099 0.131542
v 45.128168 89.133771 -50.796410
vn -4.822530 -4.026480 0.093320
v 45.958682 88.127735 -51.552256
vn -4.854093 -3.987660 0.120691
v 46.583102 87.378416 -51.338769
vn -4.668692 -4.202299 0.146516
v 44.684749 89.614448 -51.244528
vn -4.678017 -4.192197 0.134782
v 44.608827 89.672984 -52.150290
vn -2.337609 -2.082409 0.083156
v 44.762550 89.477000 -52.736850
vn -2.292196 -2.147672 0.054295
v 43.954550 90.442000 -50.000000
vn -4.883854 -3.951112 0.113934
v 46.989263 86.902368 -50.760503
vn -0.455366 -0.360133 0.007734
v 49.597500 83.663575 -50.000000
vn -4.810266 -4.041217 0.091186
v 45.651927 88.509400 -50.813380
vn -2.445620 -1.971482 0.042492
v 48.160700 85.461300 -50.000000
vn -4.893722 -3.939842 0.086567
v 47.581732 86.164475 -50.699922
vn -4.891192 -3.943020 0.085175
v 48.509939 85.018611 -50.439118
vn -2.497958 -2.023097 0.041835
v 47.511675 86.237375 -51.357650
vn -2.404528 -2.021312 0.046356
v 45.953200 88.169650 -50.000000
vn -4.832319 -4.013938 0.116169
v 46.421648 87.595739 -50.725390
vn -4.753453 -4.106482 0.110735
v 45.304074 88.904208 -51.682382
# 48 vertices, 0 vertices normals

f 1//1 11//11 10//10
f 1//1 10//10 12//12
f 23//23 24//24 25//25
f 25//25 13//13 26//26
f 19//19 29//29 28//28
f 30//30 29//29 31//31
f 35//35 32//32 9//9
f 36//36 19//19 37//37
f 30//30 6//6 38//38
f 35//35 31//31 36//36
f 33//33 16//16 18//18
f 4//4 20//20 40//40
f 42//42 43//43 22//22
f 4//4 44//44 21//21
f 4//4 21//21 20//20
f 41//41 47//47 46//46
f 2//2 23//23 25//25
f 23//23 27//27 24//24
f 25//25 24//24 13//13
f 2//2 25//25 14//14
f 26//26 14//14 25//25
f 27//27 1//1 24//24
f 12//12 24//24 1//1
f 13//13 24//24 12//12
f 23//23 3//3 27//27
f 2//2 14//14 29//29
f 28//28 29//29 14//14
f 6//6 30//30 31//31
f 30//30 2//2 29//29
f 31//31 29//29 19//19
f 9//9 32//32 7//7
f 33//33 48//48 16//16
f 15//15 16//16 48//48
f 47//47 33//33 34//34
f 39//39 34//34 17//17
f 33//33 18//18 34//34
f 17//17 34//34 18//18
f 35//35 48//48 32//32
f 6//6 35//35 9//9
f 3//3 23//23 30//30
f 23//23 2//2 30//30
f 3//3 30//30 38//38
f 38//38 6//6 9//9
f 48//48 35//35 36//36
f 35//35 6//6 31//31
f 36//36 31//31 19//19
f 39//39 5//5 8//8
f 17//17 45//45 43//43
f 7//7 32//32 41//41
f 41//41 48//48 33//33
f 4//4 42//42 44//44
f 42//42 5//5 43//43
f 44//44 42//42 22//22
f 44//44 22//22 21//21
f 5//5 39//39 43//43
f 43//43 45//45 22//22
f 7//7 41//41 46//46
f 41//41 33//33 47//47
f 46//46 47//47 8//8
f 39//39 8//8 47//47
f 17//17 43//43 39//39
f 36//36 15//15 48//48
f 39//39 47//47 34//34
f 37//37 15//15 36//36
f 32//32 48//48 41//41
# 65 faces, 0 coords texture

# End of File
