####
#
# OBJ File Generated by Meshlab
#
####
# Object 2240_C120_S_3.obj
#
# Vertices: 37
# Faces: 50
#
####
vn -2.482439 -1.925105 -0.012677
v 43.830200 92.045200 50.000000
vn -4.978189 -3.833312 -0.011443
v 44.153612 91.617688 51.686864
vn -2.490753 -1.914587 -0.008606
v 45.280500 90.142000 50.000000
vn -2.548388 -1.836985 -0.021418
v 48.732200 85.421900 50.000000
vn -5.068858 -3.712591 -0.036828
v 46.293607 88.765769 51.513727
vn -2.542711 -1.844953 -0.018920
v 47.185200 87.554200 50.000000
vn -2.512412 -1.884892 -0.025548
v 45.668500 89.642700 50.000000
vn -5.017285 -3.782053 -0.019142
v 45.194220 90.249554 51.469857
vn -2.239612 -1.677038 -0.001582
v 45.245800 90.180600 52.534900
vn -2.498930 -1.844956 -0.007230
v 45.873600 89.329600 52.397800
vn -2.340869 -1.712610 -0.011133
v 46.412200 88.599300 52.247350
vn -2.462025 -1.777189 -0.020980
v 48.743400 85.402200 50.351000
vn -0.452281 -0.323951 -0.003750
v 49.074000 84.944700 50.000000
vn -2.528689 -1.834051 -0.018915
v 47.628707 86.929080 51.298375
vn -2.089955 -1.645039 -0.013018
v 43.185300 92.856100 51.099900
vn -2.161075 -1.673273 -0.005844
v 44.026128 91.780918 52.093175
vn -2.496840 -1.901200 -0.004134
v 44.547175 91.099500 52.283200
vn -0.876138 -0.689041 -0.005708
v 42.856100 93.283800 50.000000
vn -2.499331 -1.903393 -0.006382
v 44.555350 91.093600 50.000000
vn -5.048952 -3.739539 -0.037579
v 45.682770 89.590195 51.579414
vn -5.085108 -3.690388 -0.033401
v 46.909853 87.919342 51.391803
vn -2.503081 -1.814754 -0.014726
v 47.022200 87.761050 51.802400
vn -2.542802 -1.844823 -0.019740
v 47.958700 86.488050 50.000000
vn -5.086093 -3.688955 -0.040988
v 48.289919 86.027805 50.346755
vn -5.085864 -3.689288 -0.039464
v 47.744927 86.777074 50.526058
vn -5.086071 -3.689011 -0.038632
v 47.258121 87.445539 50.775752
vn -2.560818 -1.857065 -0.020838
v 48.308150 85.998550 50.708750
vn -4.988722 -3.819759 -0.011665
v 44.197474 91.561071 50.874632
vn -2.466120 -1.935911 -0.013728
v 43.535650 92.408100 51.517000
vn -5.015352 -3.784095 -0.048180
v 45.459795 89.906110 50.755479
vn -5.001199 -3.803472 -0.005105
v 44.704537 90.893195 51.696220
vn -2.469115 -1.942379 -0.015538
v 43.343150 92.664500 50.000000
vn -5.084235 -3.691543 -0.038242
v 46.710475 88.201033 50.732233
vn -5.067076 -3.714652 -0.056347
v 46.046371 89.115282 50.756104
vn -2.541959 -1.846009 -0.017306
v 46.426850 88.598450 50.000000
vn -4.997356 -3.808496 -0.011941
v 44.893927 90.645744 50.839146
vn -4.951204 -3.868149 -0.028837
v 43.732415 92.162554 50.927653
# 37 vertices, 0 vertices normals

f 1//1 19//19 28//28
f 8//8 20//20 9//9
f 4//4 13//13 12//12
f 21//21 14//14 22//22
f 23//23 24//24 25//25
f 6//6 25//25 26//26
f 14//14 25//25 27//27
f 7//7 30//30 3//3
f 2//2 17//17 16//16
f 31//31 9//9 17//17
f 1//1 28//28 37//37
f 33//33 34//34 35//35
f 33//33 26//26 21//21
f 20//20 30//30 34//34
f 19//19 3//3 36//36
f 20//20 10//10 9//9
f 11//11 10//10 5//5
f 10//10 20//20 5//5
f 5//5 21//21 11//11
f 22//22 11//11 21//21
f 6//6 23//23 25//25
f 23//23 4//4 24//24
f 25//25 24//24 27//27
f 25//25 14//14 26//26
f 4//4 12//12 24//24
f 27//27 24//24 12//12
f 16//16 29//29 2//2
f 32//32 1//1 37//37
f 30//30 8//8 36//36
f 9//9 31//31 8//8
f 2//2 31//31 17//17
f 18//18 32//32 15//15
f 6//6 33//33 35//35
f 33//33 5//5 34//34
f 35//35 34//34 7//7
f 5//5 33//33 21//21
f 33//33 6//6 26//26
f 14//14 21//21 26//26
f 5//5 20//20 34//34
f 20//20 8//8 30//30
f 34//34 30//30 7//7
f 28//28 31//31 2//2
f 19//19 36//36 28//28
f 30//30 36//36 3//3
f 28//28 36//36 31//31
f 36//36 8//8 31//31
f 32//32 37//37 15//15
f 15//15 37//37 29//29
f 29//29 37//37 2//2
f 37//37 28//28 2//2
# 50 faces, 0 coords texture

# End of File
