####
#
# OBJ File Generated by Meshlab
#
####
# Object 2242_C120_S_5.obj
#
# Vertices: 37
# Faces: 47
#
####
vn -2.476552 -1.911711 0.190996
v 45.377500 89.852800 37.995100
vn -4.971345 -3.825947 0.353602
v 45.811319 89.124314 36.293942
vn -2.527618 -1.857545 0.150255
v 47.950600 86.430500 38.000000
vn -2.479403 -1.913178 0.196560
v 44.147200 91.434200 37.978300
vn -2.504633 -1.884998 0.170630
v 46.721900 88.080400 37.999500
vn -1.283663 -0.995469 0.092585
v 43.707800 92.000000 37.969600
vn -2.549164 -1.832483 0.117216
v 49.154300 84.752800 38.000000
vn -1.492802 -1.138873 0.106271
v 43.562900 92.000000 35.960600
vn -2.608672 -1.919491 0.151826
v 48.057400 86.205900 36.995400
vn -0.157221 -0.113183 0.006360
v 50.169000 83.343300 38.000000
vn -2.677717 -1.925738 0.127327
v 49.096989 84.809907 37.646392
vn -2.403103 -1.797300 0.153935
v 47.043900 87.488300 36.170000
vn -2.534158 -1.912214 0.165864
v 46.872100 87.709450 36.073750
vn -2.302591 -1.796765 0.169589
v 44.911650 90.185850 35.367600
vn -4.941806 -3.860134 0.395153
v 45.006833 90.230056 37.051308
vn -4.970018 -3.826083 0.368824
v 45.597341 89.481947 37.117643
vn -4.964737 -3.830614 0.392546
v 44.362000 91.063057 37.114775
vn -2.473905 -1.925262 0.206785
v 44.762350 90.643500 37.986700
vn -4.997289 -3.792781 0.346877
v 46.204011 88.684617 37.146393
vn -2.499327 -1.895360 0.174862
v 46.049700 88.966600 37.997300
vn -2.515828 -1.874207 0.166014
v 47.336250 87.255450 37.999750
vn -2.490461 -1.906027 0.185068
v 43.635350 92.000000 36.965100
vn -4.983629 -3.809656 0.358090
v 44.091621 91.344899 36.367097
vn -2.548485 -1.832057 0.135601
v 48.552450 85.591650 38.000000
vn -5.095873 -3.665324 0.275394
v 48.537317 85.590096 37.699626
vn -2.562838 -1.842098 0.138444
v 48.505950 85.602600 37.285200
vn -4.996066 -3.795813 0.330645
v 46.423992 88.329253 36.421781
vn -2.339501 -1.790424 0.154984
v 46.145600 88.629850 35.621475
vn -2.324261 -1.781392 0.162462
v 44.261700 91.045050 35.524700
vn -4.957751 -3.842127 0.368010
v 44.645415 90.606851 36.202780
vn -2.545707 -1.833911 0.104190
v 49.752400 83.914200 37.861350
vn -2.546770 -1.836311 0.107366
v 49.661650 84.048050 38.000000
vn -5.025156 -3.758202 0.319223
v 47.453166 87.023249 37.147290
vn -2.509392 -1.883799 0.154453
v 47.550650 86.847100 36.582700
vn -4.938547 -3.866337 0.374880
v 45.235267 89.848146 36.138825
vn -2.388129 -1.865951 0.175096
v 45.487300 89.460500 35.432700
vn -5.011971 -3.774261 0.335813
v 46.777650 87.918115 37.020555
# 37 vertices, 0 vertices normals

f 17//17 15//15 18//18
f 20//20 16//16 19//19
f 21//21 37//37 33//33
f 17//17 22//22 23//23
f 11//11 24//24 25//25
f 25//25 3//3 26//26
f 23//23 29//29 30//30
f 10//10 32//32 31//31
f 33//33 37//37 12//12
f 37//37 13//13 12//12
f 15//15 30//30 35//35
f 35//35 14//14 36//36
f 1//1 15//15 16//16
f 16//16 15//15 35//35
f 4//4 17//17 18//18
f 18//18 15//15 1//1
f 2//2 27//27 19//19
f 19//19 27//27 37//37
f 5//5 20//20 19//19
f 20//20 1//1 16//16
f 19//19 16//16 2//2
f 6//6 22//22 4//4
f 3//3 21//21 33//33
f 21//21 5//5 37//37
f 17//17 4//4 22//22
f 23//23 22//22 8//8
f 24//24 3//3 25//25
f 9//9 26//26 3//3
f 7//7 24//24 11//11
f 26//26 11//11 25//25
f 28//28 27//27 2//2
f 37//37 27//27 13//13
f 28//28 13//13 27//27
f 17//17 23//23 30//30
f 23//23 8//8 29//29
f 30//30 29//29 14//14
f 7//7 11//11 32//32
f 31//31 32//32 11//11
f 12//12 34//34 33//33
f 3//3 33//33 9//9
f 34//34 9//9 33//33
f 2//2 16//16 35//35
f 15//15 17//17 30//30
f 35//35 30//30 14//14
f 2//2 36//36 28//28
f 36//36 2//2 35//35
f 19//19 37//37 5//5
# 47 faces, 0 coords texture

# End of File
