####
#
# OBJ File Generated by Meshlab
#
####
# Object 2243_C120_S_6.obj
#
# Vertices: 217
# Faces: 365
#
####
vn 5.118952 -3.643178 0.043989
v -66.622587 60.233597 -27.693517
vn 5.119099 -3.642580 0.055120
v -68.414485 57.706777 -29.138187
vn 5.129175 -3.628894 0.032401
v -68.954886 56.957259 -27.349434
vn 5.132562 -3.623872 0.051957
v -69.477153 56.196199 -29.219794
vn 5.107659 -3.659249 -0.008963
v -65.993335 61.143292 -19.729319
vn 5.096740 -3.674194 -0.028504
v -65.527696 61.789960 -17.890041
vn 5.113450 -3.650391 0.072505
v -65.613092 61.580902 -31.466634
vn 5.128617 -3.629306 0.058822
v -68.983051 56.870876 -30.961137
vn 5.117517 -3.644992 0.057609
v -67.314194 59.236681 -29.382915
vn 5.117067 -3.645372 0.065700
v -67.751440 58.602438 -30.364291
vn 5.111071 -3.653853 0.068154
v -64.528273 63.102687 -31.508742
vn 5.070421 -3.710546 -0.026916
v -62.868420 65.460878 -20.831258
vn 5.088565 -3.685686 -0.006328
v -63.933147 64.016052 -22.108884
vn 5.113440 -3.650495 0.068388
v -64.873215 62.662399 -29.582896
vn 5.115119 -3.648305 0.059690
v -66.131084 60.899280 -29.554660
vn 5.115066 -3.648650 0.042902
v -65.450776 61.875024 -27.831165
vn 5.108302 -3.658330 0.010687
v -64.996619 62.529987 -23.342005
vn 5.104085 -3.664080 -0.003545
v -64.940839 62.621811 -21.219262
vn 5.077192 -3.700867 -0.048470
v -63.898017 64.013032 -14.890763
vn 5.113799 -3.649786 0.077609
v -66.224373 60.684331 -33.424096
vn 5.064611 -3.718409 -0.032177
v -62.280731 66.256773 -18.755082
vn 5.116961 -3.646048 0.037381
v -67.785868 58.602364 -27.469788
vn 5.117108 -3.645165 0.071763
v -65.111350 62.262871 -33.195249
vn 5.112288 -3.652068 0.067191
v -66.924755 59.754671 -31.531254
vn 5.076869 -3.701715 -0.030816
v -63.509801 64.574405 -18.848573
vn 5.110910 -3.654664 -0.016979
v -66.664030 60.202177 -17.932079
vn 5.092412 -3.680306 -0.030358
v -64.732998 62.893092 -19.284757
vn 5.115318 -3.648440 0.028419
v -67.133793 59.532588 -25.758390
vn 5.085206 -3.690286 -0.029349
v -64.292083 63.483972 -17.286782
vn 5.051090 -3.736533 -0.055876
v -62.289316 66.221561 -16.807864
vn 5.109644 -3.656473 0.009049
v -65.895993 61.281815 -22.217820
vn 5.066042 -3.716285 -0.041098
v -62.998822 65.262113 -16.815465
vn 5.111477 -3.652586 0.097361
v -67.320737 59.148700 -33.834033
vn 5.118667 -3.643085 0.066184
v -68.105404 58.085480 -32.395613
vn 5.094436 -3.677467 -0.036510
v -65.127876 62.316618 -15.824824
vn 2.402160 -1.709450 0.042966
v -65.076450 62.293000 -33.935800
vn 2.491394 -1.754722 0.029078
v -69.772600 55.759800 -30.240900
vn 2.296113 -1.627853 0.024832
v -69.837200 55.689200 -29.163900
vn 2.412589 -1.707306 0.017401
v -69.518400 56.160900 -27.350500
vn 2.477380 -1.754427 0.021251
v -69.741000 55.833000 -28.453900
vn 2.567734 -1.833638 0.013171
v -67.387700 59.184700 -24.710300
vn 2.127185 -1.520610 0.009526
v -66.883700 59.891200 -24.427500
vn 2.208247 -1.631370 -0.020872
v -61.373500 67.486600 -18.875300
vn 2.339661 -1.680368 0.033057
v -64.725100 62.798300 -33.329200
vn 2.277663 -1.617770 0.045995
v -68.449200 57.553200 -34.171500
vn 2.381260 -1.699286 0.011919
v -65.005800 62.513675 -26.105750
vn 2.433210 -1.730149 0.015325
v -64.655400 63.001100 -26.939900
vn 2.324436 -1.648994 0.013004
v -68.478358 57.647404 -25.408701
vn 2.300800 -1.624950 0.011877
v -69.230100 56.573900 -26.492300
vn 2.523486 -1.804240 -0.004135
v -67.108800 59.582700 -19.130100
vn 2.269178 -1.618623 -0.005141
v -67.142400 59.531300 -17.907900
vn 2.323267 -1.698689 -0.019601
v -62.327625 66.217200 -22.362600
vn 2.328449 -1.651933 0.037973
v -65.663400 61.449300 -34.616800
vn 2.525174 -1.808481 0.038789
v -64.138500 63.662500 -30.777000
vn 2.271568 -1.626253 0.030759
v -64.208700 63.545350 -31.705400
vn 2.275157 -1.657680 -0.015685
v -62.940150 65.390850 -23.125150
vn 2.588406 -1.819626 0.028491
v -69.407900 56.246200 -32.245900
vn 2.363938 -1.691074 -0.003600
v -67.092800 59.605600 -19.441000
vn 2.386172 -1.701788 0.021513
v -64.312700 63.470200 -28.089550
vn 2.519784 -1.809937 -0.011234
v -66.967100 59.774000 -16.954000
vn 2.260745 -1.629245 -0.013245
v -66.804000 59.995100 -16.185300
vn 2.408363 -1.719113 0.039696
v -66.842600 59.787800 -35.042900
vn 2.250538 -1.644623 -0.013220
v -61.585300 67.221550 -20.609800
vn 3.014625 -2.159353 0.001057
v -66.240100 60.801300 -22.174800
vn 2.578175 -1.848095 0.007598
v -66.202700 60.851500 -22.806800
vn 4.495947 -3.215266 0.006652
v -65.987100 61.143900 -24.837800
vn 1.898527 -1.356477 0.000326
v -65.010700 62.509900 -24.529600
vn 2.234594 -1.579428 0.031982
v -69.305150 56.385650 -32.688300
vn 3.395796 -2.425384 -0.002277
v -64.661800 62.999000 -23.614600
vn 2.282132 -1.638975 -0.005260
v -63.958400 63.984100 -23.665000
vn 2.520096 -1.803917 0.029717
v -64.236200 63.569900 -28.567000
vn 2.289577 -1.639819 0.032761
v -64.080900 63.766200 -29.712000
vn 2.239261 -1.613946 -0.015686
v -66.105850 60.949800 -14.803800
vn 2.578356 -1.857617 -0.017634
v -65.459825 61.841250 -14.240425
vn 2.167431 -1.603049 -0.023108
v -61.614600 67.133300 -16.793750
vn 4.062061 -2.902191 0.009328
v -66.123000 60.954100 -24.708500
vn 2.335715 -1.687212 -0.020286
v -64.934900 62.564700 -13.741300
vn 1.961717 -1.428229 -0.024357
v -64.527600 63.123000 -13.565500
vn 2.503314 -1.852570 -0.032775
v -62.038200 66.543600 -15.831600
vn 2.215627 -1.640209 -0.027245
v -62.466550 65.948700 -14.913150
vn 2.231285 -1.586373 0.047248
v -67.508000 58.850500 -34.969400
vn 2.869463 -2.091433 -0.042778
v -64.147800 63.647900 -13.891200
vn 2.162521 -1.589160 -0.024377
v -63.471100 64.580200 -13.956200
vn 5.121608 -3.638894 0.070707
v -68.690718 57.301059 -30.015956
vn 5.137750 -3.616583 0.046586
v -68.965021 56.924790 -29.155007
vn 5.138556 -3.615298 0.057282
v -69.255924 56.496060 -30.138082
vn 5.108571 -3.657088 0.080264
v -65.878679 61.230799 -30.511712
vn 5.111384 -3.653455 0.063157
v -66.502965 60.363000 -30.485225
vn 5.101473 -3.666991 0.080835
v -66.239481 60.708837 -31.491422
vn 5.133193 -3.623122 0.040665
v -69.244308 56.536954 -28.273083
vn 5.108541 -3.657463 0.060510
v -68.360640 57.743869 -30.776831
vn 5.105672 -3.661026 0.086056
v -68.184773 58.007998 -29.939861
vn 5.052310 -3.735020 -0.046896
v -61.936747 66.710455 -17.808081
vn 5.054280 -3.732362 -0.046260
v -61.753221 66.971620 -18.798405
vn 2.530204 -1.869404 -0.024174
v -61.472800 67.341250 -18.029800
vn 5.068845 -3.712684 -0.026402
v -63.408076 64.729408 -21.525098
vn 5.059390 -3.725639 -0.020409
v -63.466311 64.648237 -20.564487
vn 5.077031 -3.701463 -0.015513
v -63.955074 63.984685 -20.835919
vn 5.118920 -3.643093 0.049068
v -68.543225 57.479689 -31.699641
vn 5.116325 -3.646930 0.034108
v -67.959499 58.296770 -31.460606
vn 5.126810 -3.631452 0.080794
v -68.724127 57.208975 -32.545777
vn 2.570337 -1.821226 0.049246
v -68.919525 56.911575 -33.349875
vn 5.122547 -3.637038 0.099041
v -68.281557 57.814079 -33.284884
vn 5.113909 -3.650073 0.055776
v -64.567638 63.103917 -28.746694
vn 5.117314 -3.645431 0.048183
v -65.165399 62.263780 -28.712397
vn 5.115175 -3.648459 0.046333
v -65.773613 61.411813 -28.669444
vn 5.115185 -3.648090 0.066040
v -65.516609 61.760266 -29.591350
vn 5.115479 -3.648030 0.046618
v -66.032543 61.060003 -27.770055
vn 5.118488 -3.643778 0.048403
v -66.379437 60.562892 -28.621641
vn 5.111682 -3.653420 0.038975
v -65.723873 61.501877 -27.075414
vn 5.118102 -3.644460 0.031639
v -66.214201 60.819050 -26.712368
vn 5.114811 -3.649106 0.032325
v -65.209424 62.220775 -27.003734
vn 5.111906 -3.653319 -0.008933
v -66.839199 59.958965 -18.776541
vn 5.075388 -3.703700 -0.035487
v -62.437610 66.056537 -21.454866
vn 2.442817 -1.778065 -0.013991
v -61.865050 66.842600 -21.379450
vn 5.079280 -3.698490 -0.022163
v -62.212313 66.360500 -20.644854
vn 5.112422 -3.652567 0.010276
v -65.470368 61.878986 -21.762724
vn 5.110562 -3.655145 -0.015165
v -65.549427 61.767420 -20.625299
vn 5.111801 -3.653467 -0.001750
v -66.010135 61.121299 -21.364516
vn 5.124292 -3.635517 0.053605
v -65.341372 61.949987 -32.420681
vn 5.115909 -3.646882 0.073269
v -65.930304 61.115844 -32.473531
vn 5.128035 -3.629813 0.076744
v -65.588164 61.582081 -33.525885
vn 5.107825 -3.658197 0.077640
v -66.500528 60.281322 -34.254141
vn 2.410319 -1.719923 0.035695
v -66.223050 60.655800 -34.915900
vn 5.122594 -3.637453 0.079106
v -65.996031 60.991328 -34.125836
vn 5.133634 -3.622211 0.060841
v -69.132124 56.642537 -31.987424
vn 5.126384 -3.632587 0.053273
v -67.103185 59.519925 -30.375058
vn 5.126555 -3.632469 0.042046
v -67.458172 59.006103 -31.122574
vn 5.118092 -3.644536 0.029209
v -67.882147 58.484594 -25.622137
vn 2.491730 -1.775631 0.013122
v -67.773700 58.641950 -24.917300
vn 5.072170 -3.708023 -0.045109
v -62.898780 65.433175 -21.986096
vn 5.084167 -3.691661 -0.027704
v -63.440928 64.697083 -22.555405
vn 2.394890 -1.684328 0.026958
v -69.661025 55.902700 -31.224550
vn 5.094283 -3.677762 -0.019734
v -64.443913 63.308778 -20.767409
vn 5.095676 -3.675888 0.011114
v -64.426708 63.333109 -21.687391
vn 5.089557 -3.684312 -0.013236
v -65.145673 62.321024 -18.621826
vn 5.082351 -3.694220 -0.029189
v -64.519416 63.179344 -18.323508
vn 5.081989 -3.694663 -0.034963
v -64.915994 62.628885 -17.617105
vn 5.110153 -3.655776 -0.007583
v -66.589489 60.309518 -19.593137
vn 2.464286 -1.763561 -0.004266
v -66.945950 59.812950 -20.195900
vn 5.110520 -3.655265 -0.005635
v -66.264816 60.765184 -20.476382
vn 5.106010 -3.661516 0.019249
v -65.545389 61.767607 -22.892652
vn 5.103442 -3.665063 0.023991
v -64.951786 62.599534 -22.270554
vn 5.088475 -3.685726 -0.033644
v -64.702274 62.910770 -16.526108
vn 5.091263 -3.681721 -0.046596
v -65.299017 62.093400 -16.880238
vn 5.084372 -3.691472 -0.024587
v -63.653783 64.361296 -16.996186
vn 5.084731 -3.690941 -0.029729
v -63.890346 64.043494 -18.053225
vn 5.078946 -3.698915 -0.025439
v -63.253308 64.919561 -17.848853
vn 5.119911 -3.641971 0.030781
v -66.859078 59.909660 -26.736230
vn 5.114881 -3.648172 0.085143
v -65.256601 62.104347 -30.477015
vn 5.116344 -3.646467 0.066125
v -65.019131 62.415326 -31.414924
vn 5.121595 -3.639381 0.050861
v -66.729581 60.058092 -29.484251
vn 5.118894 -3.643295 0.041083
v -64.879729 62.676476 -27.885374
vn 5.130131 -3.627541 0.029685
v -68.683651 57.333785 -28.243389
vn 5.103203 -3.665322 -0.032571
v -66.451516 60.490867 -17.072413
vn 5.102362 -3.665672 0.084626
v -66.783531 59.902684 -33.567493
vn 5.111598 -3.652584 0.090903
v -66.997759 59.586570 -34.369172
vn 5.113470 -3.650943 0.033024
v -68.108838 58.142681 -28.303695
vn 5.122783 -3.637915 0.031651
v -68.371720 57.778241 -27.377311
vn 5.116320 -3.647000 0.032813
v -67.455274 59.073825 -26.622121
vn 5.118230 -3.644200 0.042647
v -67.206313 59.414856 -27.594579
vn 5.111669 -3.653312 0.048839
v -67.538191 58.936344 -28.418581
vn 5.105652 -3.661398 0.066109
v -67.871534 58.462164 -29.240544
vn 5.120336 -3.641129 0.052406
v -66.967224 59.736922 -28.537691
vn 5.068383 -3.713279 -0.031267
v -61.974316 66.682567 -19.713162
vn 2.524840 -1.862234 -0.023043
v -61.476800 67.357600 -19.729800
vn 5.115387 -3.647870 0.056464
v -67.528960 58.899294 -32.067930
vn 5.072964 -3.706868 -0.040259
v -63.756540 64.247791 -19.746736
vn 5.085872 -3.689208 -0.043361
v -64.122866 63.731147 -19.015786
vn 5.091496 -3.681432 -0.042191
v -64.320005 63.473037 -19.911598
vn 5.076690 -3.702068 -0.017570
v -62.559990 65.878466 -19.759135
vn 5.103739 -3.664450 -0.044643
v -65.868521 61.304758 -17.074153
vn 5.097721 -3.672816 -0.044889
v -65.634086 61.618267 -16.197940
vn 5.111152 -3.654299 0.023764
v -65.618960 61.655309 -26.267823
vn 2.428657 -1.735571 0.006196
v -65.421450 61.935075 -25.467125
vn 5.107840 -3.658987 0.008766
v -65.490876 61.838176 -24.019320
vn 2.555797 -1.826884 0.000139
v -65.498900 61.826900 -24.683700
vn 5.128037 -3.630484 0.032961
v -68.653689 57.390808 -26.512645
vn 2.533898 -1.787824 0.013426
v -68.937600 56.991900 -26.049100
vn 5.110946 -3.654670 -0.006288
v -66.347434 60.646627 -18.845685
vn 5.108557 -3.657566 0.054705
v -64.836233 62.659075 -32.420618
vn 2.519215 -1.811728 0.030806
v -64.492850 63.132500 -32.637400
vn 5.103178 -3.665354 -0.033764
v -64.882977 62.693569 -20.229360
vn 2.529148 -1.827627 -0.005704
v -63.473500 64.654550 -23.417850
vn 5.105717 -3.661921 0.009867
v -64.467377 63.269863 -22.699069
vn 5.120050 -3.641728 0.035221
v -68.073106 58.208731 -26.497497
vn 5.065502 -3.717292 -0.023410
v -63.168530 65.045085 -19.759244
vn 5.073860 -3.705939 -0.019135
v -62.891408 65.420557 -18.777080
vn 5.098170 -3.672281 -0.037609
v -66.142900 60.910761 -16.037532
vn 2.533539 -1.826302 -0.018250
v -66.484250 60.432250 -15.539900
vn 5.096850 -3.674147 -0.034239
v -65.021740 62.454302 -14.760647
vn 5.088540 -3.685727 -0.023054
v -64.082507 63.766086 -16.135058
vn 5.094462 -3.677502 -0.028923
v -64.535369 63.133964 -15.374333
vn 5.067981 -3.713632 -0.042038
v -63.425634 64.669160 -15.893204
vn 5.061827 -3.722185 -0.034740
v -62.591081 65.825083 -17.738978
vn 5.087147 -3.687290 -0.051525
v -64.480392 63.200840 -14.327672
vn 5.113984 -3.650361 0.020318
v -66.822362 59.972804 -25.098197
vn 2.556463 -1.825929 0.009146
v -66.503350 60.422650 -24.568000
vn 5.105724 -3.661932 0.015896
v -65.935849 61.219217 -23.818124
vn 2.553382 -1.830240 0.008267
v -66.162850 60.902800 -23.757650
vn 5.104134 -3.664156 -0.002734
v -65.765128 61.461110 -18.838436
vn 5.109803 -3.656166 -0.022118
v -66.119302 60.964353 -17.984002
vn 2.367373 -1.696011 -0.002358
v -66.659350 60.215550 -21.256800
vn 5.051107 -3.736533 -0.054831
v -63.166645 65.003698 -14.949957
vn 5.100937 -3.668552 -0.015031
v -65.355492 62.028946 -19.588104
vn 5.113162 -3.650368 0.092632
v -67.688529 58.652714 -33.098712
vn 5.103995 -3.663358 0.086277
v -67.121417 59.451393 -32.774921
vn 2.525959 -1.870777 -0.023672
v -62.997850 65.224750 -14.407950
vn 5.101658 -3.666601 0.086850
v -66.544239 60.260138 -32.538558
vn 5.118032 -3.643148 0.107794
v -67.872810 58.368105 -34.003671
vn 2.569473 -1.829476 0.055939
v -68.069750 58.076725 -34.487075
vn 5.103356 -3.665230 -0.007990
v -64.002805 63.920241 -23.032752
vn 5.115263 -3.648597 0.012224
v -66.044608 61.062236 -25.655384
vn 5.050850 -3.736732 -0.064522
v -62.719935 65.622407 -15.824476
vn 5.097353 -3.673439 -0.035451
v -65.632850 61.611034 -15.316841
vn 5.117923 -3.644847 0.018498
v -66.527587 60.383976 -25.640992
vn 5.110486 -3.654419 0.080877
v -64.587216 63.050053 -30.134360
# 217 vertices, 0 vertices normals

f 84//84 85//85 86//86
f 87//87 88//88 89//89
f 4//4 38//38 37//37
f 4//4 90//90 40//40
f 28//28 197//197 41//41
f 4//4 40//40 38//38
f 91//91 92//92 84//84
f 93//93 94//94 95//95
f 23//23 36//36 44//44
f 96//96 97//97 98//98
f 91//91 99//99 100//100
f 101//101 102//102 103//103
f 104//104 153//153 105//105
f 105//105 106//106 107//107
f 106//106 108//108 109//109
f 108//108 110//110 111//111
f 3//3 49//49 39//39
f 26//26 51//51 113//113
f 114//114 115//115 116//116
f 117//117 118//118 119//119
f 120//120 121//121 122//122
f 123//123 124//124 125//125
f 127//127 10//10 128//128
f 129//129 28//28 130//130
f 11//11 55//55 54//54
f 131//131 52//52 114//114
f 96//96 132//132 131//131
f 98//98 134//134 135//135
f 136//136 137//137 138//138
f 139//139 140//140 141//141
f 117//117 142//142 143//143
f 138//138 144//144 145//145
f 146//146 147//147 148//148
f 111//111 216//216 149//149
f 107//107 87//87 150//150
f 127//127 88//88 152//152
f 16//16 153//153 112//112
f 85//85 154//154 90//90
f 26//26 155//155 60//60
f 156//156 157//157 123//123
f 158//158 159//159 154//154
f 149//149 160//160 161//161
f 162//162 158//158 163//163
f 162//162 164//164 161//161
f 10//10 163//163 92//92
f 165//165 166//166 94//94
f 100//100 167//167 128//128
f 168//168 169//169 170//170
f 171//171 116//116 165//165
f 164//164 152//152 109//109
f 31//31 64//64 65//65
f 172//172 145//145 173//173
f 176//176 66//66 177//177
f 110//110 112//112 174//174
f 178//178 48//48 179//179
f 180//180 113//113 139//139
f 26//26 60//60 51//51
f 101//101 68//68 102//102
f 181//181 44//44 182//182
f 17//17 67//67 69//69
f 183//183 134//134 170//170
f 212//212 184//184 132//132
f 13//13 185//185 212//212
f 159//159 186//186 178//178
f 129//129 186//186 160//160
f 97//97 187//187 168//168
f 188//188 187//187 171//171
f 189//189 73//73 190//190
f 185//185 135//135 143//143
f 192//192 193//193 144//144
f 146//146 194//194 192//192
f 195//195 148//148 188//188
f 147//147 137//137 169//169
f 196//196 191//191 193//193
f 199//199 65//65 200//200
f 199//199 176//176 142//142
f 104//104 71//71 59//59
f 196//196 78//78 77//77
f 201//201 202//202 180//180
f 155//155 202//202 172//172
f 30//30 75//75 79//79
f 126//126 57//57 68//68
f 194//194 214//214 204//204
f 201//201 205//205 136//136
f 33//33 81//81 157//157
f 167//167 206//206 207//207
f 196//196 82//82 78//78
f 204//204 80//80 208//208
f 120//120 181//181 151//151
f 205//205 118//118 183//183
f 209//209 121//121 89//89
f 23//23 122//122 36//36
f 206//206 103//103 210//210
f 156//156 209//209 207//207
f 76//76 216//216 213//213
f 8//8 84//84 86//86
f 84//84 2//2 85//85
f 86//86 85//85 4//4
f 37//37 86//86 4//4
f 86//86 37//37 133//133
f 133//133 8//8 86//86
f 7//7 87//87 89//89
f 87//87 15//15 88//88
f 89//89 88//88 24//24
f 39//39 90//90 3//3
f 90//90 39//39 40//40
f 197//197 42//42 41//41
f 8//8 91//91 84//84
f 91//91 10//10 92//92
f 84//84 92//92 2//2
f 93//93 21//21 94//94
f 95//95 94//94 43//43
f 30//30 93//93 75//75
f 95//95 75//75 93//93
f 13//13 96//96 98//98
f 96//96 12//12 97//97
f 10//10 91//91 100//100
f 91//91 8//8 99//99
f 100//100 99//99 34//34
f 68//68 101//101 126//126
f 34//34 101//101 103//103
f 103//103 102//102 45//45
f 14//14 104//104 105//105
f 105//105 153//153 16//16
f 105//105 16//16 106//106
f 107//107 106//106 15//15
f 15//15 106//106 109//109
f 106//106 16//16 108//108
f 109//109 108//108 1//1
f 1//1 108//108 111//111
f 108//108 16//16 110//110
f 112//112 47//47 46//46
f 113//113 51//51 50//50
f 12//12 114//114 116//116
f 114//114 52//52 115//115
f 116//116 115//115 63//63
f 31//31 117//117 119//119
f 117//117 18//18 118//118
f 23//23 120//120 122//122
f 120//120 7//7 121//121
f 122//122 121//121 20//20
f 20//20 123//123 125//125
f 125//125 124//124 53//53
f 101//101 34//34 99//99
f 126//126 99//99 8//8
f 24//24 127//127 128//128
f 127//127 9//9 10//10
f 41//41 130//130 28//28
f 130//130 48//48 129//129
f 12//12 131//131 114//114
f 131//131 56//56 52//52
f 12//12 96//96 131//131
f 96//96 13//13 132//132
f 131//131 132//132 56//56
f 126//126 8//8 133//133
f 133//133 57//57 126//126
f 13//13 98//98 135//135
f 135//135 134//134 18//18
f 6//6 136//136 138//138
f 136//136 27//27 137//137
f 138//138 137//137 29//29
f 5//5 139//139 141//141
f 139//139 58//58 140//140
f 141//141 140//140 203//203
f 18//18 117//117 143//143
f 117//117 31//31 142//142
f 143//143 142//142 17//17
f 6//6 138//138 145//145
f 138//138 29//29 144//144
f 145//145 144//144 35//35
f 146//146 29//29 147//147
f 148//148 147//147 25//25
f 1//1 111//111 149//149
f 149//149 216//216 28//28
f 217//217 14//14 150//150
f 151//151 150//150 7//7
f 107//107 15//15 87//87
f 150//150 87//87 7//7
f 9//9 127//127 152//152
f 127//127 24//24 88//88
f 152//152 88//88 15//15
f 59//59 153//153 104//104
f 153//153 47//47 112//112
f 47//47 153//153 59//59
f 4//4 85//85 90//90
f 85//85 2//2 154//154
f 90//90 154//154 3//3
f 61//61 155//155 189//189
f 155//155 61//61 60//60
f 20//20 156//156 123//123
f 156//156 33//33 157//157
f 123//123 157//157 62//62
f 124//124 123//123 62//62
f 2//2 158//158 154//154
f 158//158 22//22 159//159
f 154//154 159//159 3//3
f 1//1 149//149 161//161
f 149//149 28//28 160//160
f 161//161 160//160 22//22
f 9//9 162//162 163//163
f 162//162 22//22 158//158
f 163//163 158//158 2//2
f 22//22 162//162 161//161
f 162//162 9//9 164//164
f 161//161 164//164 1//1
f 10//10 9//9 163//163
f 92//92 163//163 2//2
f 21//21 165//165 94//94
f 165//165 63//63 166//166
f 94//94 166//166 43//43
f 10//10 100//100 128//128
f 100//100 34//34 167//167
f 128//128 167//167 24//24
f 98//98 168//168 170//170
f 168//168 25//25 169//169
f 170//170 169//169 27//27
f 21//21 171//171 165//165
f 171//171 12//12 116//116
f 165//165 116//116 63//63
f 1//1 164//164 109//109
f 164//164 9//9 152//152
f 109//109 152//152 15//15
f 189//189 172//172 173//173
f 172//172 6//6 145//145
f 173//173 145//145 35//35
f 213//213 174//174 175//175
f 76//76 213//213 66//66
f 175//175 66//66 213//213
f 66//66 176//176 199//199
f 17//17 176//176 67//67
f 177//177 67//67 176//176
f 111//111 110//110 174//174
f 110//110 16//16 112//112
f 174//174 112//112 46//46
f 175//175 174//174 46//46
f 3//3 159//159 178//178
f 178//178 49//49 3//3
f 5//5 180//180 139//139
f 180//180 26//26 113//113
f 58//58 139//139 113//113
f 50//50 58//58 113//113
f 44//44 181//181 23//23
f 11//11 181//181 182//182
f 182//182 55//55 11//11
f 27//27 183//183 170//170
f 183//183 18//18 134//134
f 170//170 134//134 98//98
f 13//13 212//212 132//132
f 212//212 70//70 184//184
f 132//132 184//184 56//56
f 69//69 185//185 17//17
f 185//185 69//69 212//212
f 104//104 72//72 71//71
f 159//159 22//22 186//186
f 28//28 129//129 160//160
f 186//186 48//48 178//178
f 160//160 186//186 22//22
f 98//98 97//97 168//168
f 97//97 12//12 187//187
f 168//168 187//187 25//25
f 21//21 188//188 171//171
f 188//188 25//25 187//187
f 171//171 187//187 12//12
f 189//189 190//190 61//61
f 173//173 35//35 215//215
f 189//189 173//173 215//215
f 35//35 191//191 215//215
f 215//215 191//191 74//74
f 73//73 215//215 74//74
f 17//17 185//185 143//143
f 185//185 13//13 135//135
f 143//143 135//135 18//18
f 29//29 192//192 144//144
f 192//192 19//19 193//193
f 144//144 193//193 35//35
f 29//29 146//146 192//192
f 192//192 194//194 19//19
f 21//21 195//195 188//188
f 188//188 148//148 25//25
f 25//25 147//147 169//169
f 147//147 29//29 137//137
f 169//169 137//137 27//27
f 19//19 196//196 193//193
f 193//193 191//191 35//35
f 198//198 216//216 76//76
f 197//197 198//198 42//42
f 65//65 199//199 142//142
f 200//200 76//76 199//199
f 31//31 65//65 142//142
f 199//199 76//76 66//66
f 142//142 176//176 17//17
f 5//5 201//201 180//180
f 201//201 6//6 202//202
f 180//180 202//202 26//26
f 189//189 155//155 172//172
f 155//155 26//26 202//202
f 172//172 202//202 6//6
f 119//119 141//141 203//203
f 31//31 119//119 64//64
f 203//203 64//64 119//119
f 32//32 30//30 214//214
f 93//93 195//195 21//21
f 19//19 194//194 204//204
f 204//204 214//214 80//80
f 6//6 201//201 136//136
f 201//201 5//5 205//205
f 136//136 205//205 27//27
f 72//72 217//217 54//54
f 157//157 81//81 62//62
f 24//24 167//167 207//207
f 167//167 34//34 206//206
f 207//207 206//206 33//33
f 19//19 204//204 83//83
f 208//208 83//83 204//204
f 7//7 120//120 151//151
f 120//120 23//23 181//181
f 151//151 181//181 11//11
f 27//27 205//205 183//183
f 205//205 5//5 118//118
f 183//183 118//118 18//18
f 24//24 209//209 89//89
f 209//209 20//20 121//121
f 89//89 121//121 7//7
f 33//33 210//210 81//81
f 211//211 81//81 210//210
f 122//122 20//20 125//125
f 122//122 125//125 53//53
f 122//122 53//53 36//36
f 33//33 206//206 210//210
f 206//206 34//34 103//103
f 210//210 103//103 45//45
f 211//211 210//210 45//45
f 33//33 156//156 207//207
f 156//156 20//20 209//209
f 207//207 209//209 24//24
f 196//196 77//77 191//191
f 74//74 191//191 77//77
f 197//197 28//28 216//216
f 174//174 213//213 111//111
f 83//83 82//82 19//19
f 196//196 19//19 82//82
f 14//14 105//105 107//107
f 148//148 32//32 146//146
f 14//14 107//107 150//150
f 70//70 212//212 69//69
f 146//146 32//32 194//194
f 214//214 194//194 32//32
f 195//195 32//32 148//148
f 101//101 99//99 126//126
f 49//49 178//178 179//179
f 93//93 30//30 195//195
f 141//141 119//119 118//118
f 141//141 118//118 5//5
f 80//80 214//214 79//79
f 30//30 32//32 195//195
f 214//214 30//30 79//79
f 189//189 215//215 73//73
f 213//213 216//216 111//111
f 54//54 217//217 11//11
f 216//216 198//198 197//197
f 217//217 150//150 151//151
f 11//11 217//217 151//151
f 72//72 14//14 217//217
f 129//129 48//48 186//186
f 104//104 14//14 72//72
# 365 faces, 0 coords texture

# End of File
