####
#
# OBJ File Generated by Meshlab
#
####
# Object 2254_C120_S_17.obj
#
# Vertices: 24
# Faces: 28
#
####
vn -2.317282 -2.120732 0.051113
v 43.733400 91.707200 -50.000000
vn -2.426130 -1.994888 0.045537
v 46.718700 88.284200 -50.000000
vn -4.704762 -4.160777 0.132452
v 45.019964 90.283551 -50.906187
vn -2.362429 -2.067447 0.058707
v 45.168500 90.144100 -50.000000
vn -2.457384 -2.042134 0.045271
v 46.262600 88.805300 -51.218200
vn -2.232109 -1.874164 0.050997
v 46.075200 89.027100 -51.365900
vn -2.112045 -1.875119 0.061413
v 44.924900 90.359650 -51.848000
vn -2.416682 -2.058375 0.078866
v 45.720500 89.438300 -51.501000
vn -1.983639 -1.809705 0.044646
v 42.925300 92.565800 -51.102800
vn -2.160281 -1.975956 0.048547
v 43.558075 91.860275 -51.596825
vn -0.691956 -0.631152 0.015654
v 42.392300 93.177500 -50.000000
vn -2.327093 -1.898362 0.040407
v 47.022000 87.897200 -50.694200
vn -0.431643 -0.348814 0.005868
v 47.731500 87.030900 -50.000000
vn -2.412874 -2.011409 0.043308
v 45.943600 89.214150 -50.000000
vn -4.834976 -4.011528 0.093778
v 46.426781 88.623335 -50.520120
vn -4.639823 -4.235523 0.103878
v 43.301734 92.163767 -50.673902
vn -4.630398 -4.245845 0.102835
v 43.890878 91.514333 -50.879656
vn -2.320740 -2.116841 0.052445
v 43.062850 92.442350 -50.000000
vn -2.320733 -2.116849 0.052498
v 42.658800 92.871650 -50.551400
vn -2.443343 -1.974481 0.033216
v 47.225100 87.657550 -50.000000
vn -4.630701 -4.245302 0.110314
v 44.446503 90.904844 -51.101630
vn -2.147490 -1.968557 0.051241
v 44.050225 91.318175 -51.797150
vn -2.314004 -2.124244 0.050757
v 44.450950 90.925650 -50.000000
vn -4.803196 -4.048521 0.122166
v 45.639249 89.563430 -50.728288
# 24 vertices, 0 vertices normals

f 4//4 3//3 24//24
f 3//3 7//7 8//8
f 16//16 10//10 17//17
f 18//18 19//19 16//16
f 2//2 15//15 12//12
f 2//2 12//12 20//20
f 21//21 17//17 22//22
f 3//3 23//23 21//21
f 2//2 14//14 15//15
f 14//14 4//4 24//24
f 6//6 24//24 8//8
f 1//1 16//16 17//17
f 16//16 9//9 10//10
f 1//1 18//18 16//16
f 18//18 11//11 19//19
f 16//16 19//19 9//9
f 15//15 5//5 12//12
f 20//20 12//12 13//13
f 21//21 23//23 17//17
f 22//22 17//17 10//10
f 22//22 7//7 21//21
f 3//3 4//4 23//23
f 17//17 23//23 1//1
f 3//3 21//21 7//7
f 24//24 6//6 14//14
f 5//5 15//15 14//14
f 5//5 14//14 6//6
f 24//24 3//3 8//8
# 28 faces, 0 coords texture

# End of File
