####
#
# OBJ File Generated by Meshlab
#
####
# Object 2256_C121_S_1.obj
#
# Vertices: 144
# Faces: 222
#
####
vn -2.645966 -1.720297 -0.061991
v 37.104900 103.000000 20.005400
vn -2.543679 -1.826053 -0.121656
v 38.810200 100.000000 31.215900
vn -2.504785 -1.867596 -0.140560
v 38.724700 100.000000 33.109700
vn -5.120042 -3.633304 -0.227111
v 37.968904 101.320612 29.139558
vn -5.024600 -3.753847 -0.351391
v 37.563426 101.696751 31.612451
vn -5.296087 -3.380359 -0.050965
v 38.105879 101.493257 17.129224
vn -5.164555 -3.573951 -0.156621
v 37.946486 101.479324 26.745824
vn -2.557526 -1.837295 -0.123338
v 36.817800 103.000000 27.877300
vn -2.667696 -1.656508 0.006289
v 39.065300 100.000000 11.484600
vn -5.327147 -3.331508 0.020973
v 38.164719 101.449138 11.240636
vn -2.505919 -1.932971 -0.249331
v 36.500800 103.000000 32.410400
vn -2.525301 -1.877198 -0.156882
v 36.687000 103.000000 29.991900
vn -2.622961 -1.729516 -0.041740
v 38.988800 100.000000 23.783000
vn -5.224859 -3.487566 -0.107733
v 38.019587 101.504380 22.780955
vn -2.644707 -1.700051 -0.025203
v 37.133600 103.000000 17.744000
vn -2.657770 -1.685588 -0.003018
v 37.188200 103.000000 12.099300
vn -2.642625 -1.703964 -0.026480
v 37.165600 103.000000 14.653200
vn -2.672397 -1.648809 -0.009018
v 39.063000 100.000000 14.162600
vn -2.591722 -1.778005 -0.088757
v 38.879100 100.000000 29.033500
vn -4.997307 -3.789749 -0.359641
v 38.220308 100.668212 33.213654
vn -2.634756 -1.706509 -0.037906
v 39.021000 100.000000 21.451300
vn -2.599957 -1.751257 -0.078712
v 37.019900 103.000000 22.093400
vn -2.426335 -2.028879 -0.366766
v 36.172500 103.000000 34.881400
vn -2.473251 -1.940132 -0.175245
v 38.616700 100.000000 34.686200
vn -2.588400 -1.777716 -0.071702
v 36.978900 103.000000 23.447000
vn -2.580688 -1.805083 -0.084847
v 36.910200 103.000000 25.810600
vn -5.286266 -3.395606 -0.057610
v 37.965124 101.688286 18.953530
vn -2.644720 -1.694046 -0.025722
v 39.044300 100.000000 19.052200
vn -2.649179 -1.691807 0.020866
v 39.056500 100.000000 8.867230
vn -2.660032 -1.673516 0.008770
v 37.184800 103.000000 10.102800
vn -2.608647 -1.747455 -0.043458
v 38.968300 100.000000 25.378500
vn -2.584235 -1.764027 -0.072661
v 38.936200 100.000000 27.458600
vn -2.645796 -1.688398 -0.018008
v 39.048400 100.000000 18.561500
vn -2.670777 -1.652531 0.002806
v 39.065500 100.000000 11.784700
vn -2.636030 -1.702657 -0.032669
v 37.149200 103.000000 15.810600
vn -2.664264 -1.665509 -0.018931
v 39.055900 100.000000 16.006800
vn -5.307128 -3.362247 -0.049771
v 38.163419 101.446762 15.232366
vn -5.319294 -3.343485 -0.012189
v 38.166730 101.458358 13.230646
vn -5.199987 -3.524366 -0.117184
v 37.973180 101.509735 24.705779
vn -5.262989 -3.430076 -0.101922
v 38.070483 101.488926 20.745174
vn -1.995374 -1.720609 -0.224983
v 37.538700 101.167000 36.188700
vn -2.542258 -2.147443 -0.351562
v 36.713284 102.206918 35.701660
vn -1.174030 -1.047142 -0.238428
v 36.038200 103.000000 35.542700
vn -2.419912 -2.001659 -0.173344
v 38.130600 100.507000 36.059400
vn -1.363412 -1.094249 -0.078864
v 38.543200 100.000000 35.965200
vn -4.085145 -2.563334 0.008976
v 37.964100 101.757000 9.594310
vn -0.970962 -0.610241 0.003657
v 37.180400 103.000000 8.934610
vn -1.442614 -0.937699 0.000000
v 39.056500 100.000000 8.865270
vn -2.724160 -1.725122 0.025694
v 39.053900 100.004000 8.864550
vn -1.400665 -0.870782 -0.001759
v 38.159900 101.449000 8.461160
vn -2.517444 -1.875944 -0.113656
v 38.767450 100.000000 32.162800
vn -5.064025 -3.710204 -0.255330
v 38.423572 100.456673 32.241999
vn -5.129415 -3.620863 -0.223847
v 38.354502 100.705173 30.228433
vn -5.089615 -3.673739 -0.278988
v 38.142344 100.914940 31.359584
vn -5.071359 -3.699567 -0.268005
v 37.755495 101.519190 30.444292
vn -2.389554 -2.013542 -0.272436
v 37.137000 101.673500 35.953450
vn -4.965896 -3.821799 -0.456862
v 37.347009 101.850529 32.649743
vn -4.933980 -3.848086 -0.560201
v 36.867567 102.427199 33.098597
vn -4.984203 -3.801318 -0.428167
v 37.008709 102.382663 31.974751
vn -5.087808 -3.677514 -0.252606
v 37.371267 102.193183 28.471887
vn -5.058308 -3.716163 -0.285150
v 37.287163 102.211856 29.620552
vn -2.531973 -1.853194 -0.156164
v 36.752400 103.000000 28.934600
vn -5.343661 -3.305012 -0.024294
v 38.615107 100.720873 14.681802
vn -5.312782 -3.353902 -0.028252
v 38.161609 101.457493 14.272679
vn -5.348277 -3.297556 -0.016521
v 38.620037 100.721419 13.656434
vn -4.859902 -3.947675 -0.512937
v 37.446061 101.505486 34.530103
vn -4.922747 -3.875411 -0.473202
v 37.458235 101.607277 33.521740
vn -5.222689 -3.488870 -0.158556
v 37.551230 102.235430 21.417159
vn -2.621773 -1.727577 -0.106729
v 37.062400 103.000000 21.049400
vn -5.260350 -3.432294 -0.144785
v 37.581324 102.252005 20.409643
vn -4.811334 -3.996143 -0.598264
v 36.921949 102.041479 35.140835
vn -4.861258 -3.934831 -0.601477
v 36.796086 102.342573 34.175754
vn -2.436554 -1.957050 -0.320554
v 36.336650 103.000000 33.645900
vn -5.236982 -3.469553 -0.104322
v 38.048675 101.489942 21.778234
vn -5.195801 -3.530720 -0.124410
v 37.524214 102.247610 22.367039
vn -5.014940 -3.770829 -0.319958
v 37.156438 102.306849 30.801078
vn -2.487441 -1.909405 -0.190826
v 36.593900 103.000000 31.201150
vn -5.161150 -3.580796 -0.136434
v 37.444895 102.251961 25.226597
vn -2.582502 -1.787359 -0.075063
v 36.944550 103.000000 24.628800
vn -5.172313 -3.564709 -0.134293
v 37.472723 102.256626 24.158087
vn -4.944465 -3.853867 -0.420403
v 38.095039 100.727053 34.144798
vn -2.497375 -1.896956 -0.184774
v 38.670700 100.000000 33.897950
vn -5.011375 -3.769394 -0.366178
v 37.881953 101.193236 32.430518
vn -5.265100 -3.427677 -0.088127
v 38.523094 100.746357 22.168760
vn -5.278552 -3.407101 -0.078059
v 38.549094 100.739994 21.068608
vn -5.176853 -3.556247 -0.177896
v 38.549520 100.474453 29.152926
vn -2.585240 -1.783033 -0.083251
v 38.844650 100.000000 30.124700
vn -2.644527 -1.695740 -0.023402
v 37.176900 103.000000 13.376250
vn -5.299315 -3.375516 -0.016114
v 37.682672 102.219885 12.749987
vn -5.285553 -3.397023 -0.038211
v 37.673039 102.219342 13.877918
vn -5.319753 -3.343378 0.021310
v 37.710999 102.161536 9.949749
vn -2.659925 -1.671619 0.009615
v 37.572250 102.378500 9.264460
vn -5.277508 -3.409278 -0.051087
v 37.675285 102.206789 14.926916
vn -5.326436 -3.332697 0.022229
v 38.118576 101.515222 10.265857
vn -5.317201 -3.347448 0.016926
v 37.685068 102.208626 10.733006
vn -2.657080 -1.676159 0.004574
v 37.186500 103.000000 11.101050
vn -5.313040 -3.354076 0.013280
v 37.684004 102.213040 11.708979
vn -5.278571 -3.407381 -0.069655
v 37.571099 102.289255 19.428232
vn -5.285161 -3.397158 -0.067504
v 38.049316 101.541761 19.762506
vn -2.629249 -1.719109 -0.036309
v 39.004900 100.000000 22.617150
vn -5.252793 -3.446364 -0.093064
v 38.502864 100.754634 23.241754
vn -5.138995 -3.610358 -0.175838
v 37.424946 102.244177 26.286313
vn -5.188290 -3.541496 -0.121019
v 37.957321 101.499095 25.705182
vn -5.116340 -3.640978 -0.210725
v 37.393473 102.221813 27.350896
vn -2.560682 -1.816440 -0.114282
v 36.864000 103.000000 26.843950
vn -5.225743 -3.487126 -0.096657
v 38.470346 100.753188 25.110462
vn -5.212004 -3.507522 -0.100577
v 38.456441 100.740586 26.082550
vn -5.239072 -3.467162 -0.093429
v 38.481623 100.755059 24.210508
vn -5.213061 -3.505046 -0.115827
v 37.994363 101.510426 23.740177
vn -5.143123 -3.603766 -0.190897
v 37.939091 101.430559 27.859710
vn -2.601715 -1.760412 -0.040386
v 38.952250 100.000000 26.418550
vn -5.190095 -3.538301 -0.135680
v 38.451950 100.722856 27.132326
vn -5.177250 -3.555230 -0.186640
v 38.454402 100.663647 28.184939
vn -2.589283 -1.776645 -0.093537
v 38.907650 100.000000 28.246050
vn -2.642695 -1.698561 -0.025666
v 39.032650 100.000000 20.251750
vn -5.288558 -3.392075 -0.057638
v 38.547801 100.758688 19.964612
vn -5.290652 -3.389002 -0.045305
v 38.060955 101.549869 18.120189
vn -5.300041 -3.374430 -0.029891
v 38.564180 100.766903 17.792419
vn -5.287535 -3.393883 -0.044183
v 37.613690 102.255583 17.455038
vn -5.282942 -3.400823 -0.056152
v 37.581682 102.292452 18.431795
vn -5.339093 -3.312420 0.019233
v 38.621764 100.715160 11.655811
vn -5.292661 -3.385749 -0.052802
v 38.482909 100.879742 18.899806
vn -5.273250 -3.415495 -0.075106
v 37.741736 102.087535 15.704052
vn -5.300176 -3.373131 -0.077555
v 38.143268 101.457493 16.152531
vn -5.280330 -3.404777 -0.059793
v 37.643631 102.221018 16.503948
vn -2.643783 -1.696926 -0.021400
v 37.141400 103.000000 16.777300
vn -5.316153 -3.348670 -0.045237
v 38.586948 100.736223 16.666159
vn -2.652860 -1.682818 -0.007788
v 39.052150 100.000000 17.284150
vn -5.335320 -3.318030 -0.049429
v 38.608301 100.725613 15.639499
vn -2.671631 -1.652841 -0.010454
v 39.059450 100.000000 15.084700
vn -5.324961 -3.334972 0.019614
v 38.167457 101.450956 12.214255
vn -5.346223 -3.300905 0.006449
v 38.622572 100.719138 12.579023
vn -5.183806 -3.548092 -0.131732
v 37.496431 102.253308 23.214069
vn -2.594122 -1.770365 -0.077074
v 36.999400 103.000000 22.770200
vn -2.671102 -1.653728 0.000671
v 38.606900 100.726500 8.662855
vn -5.336461 -3.316656 0.019680
v 38.604102 100.737115 10.627415
vn -2.676316 -1.645275 -0.002814
v 39.064250 100.000000 12.973650
vn -2.615815 -1.739521 -0.034422
v 38.978550 100.000000 24.580750
vn -2.639163 -1.703908 -0.033494
v 37.119250 103.000000 18.874700
vn -2.667919 -1.658834 0.008970
v 39.060900 100.000000 10.175915
vn -5.338072 -3.314091 0.012319
v 38.747746 100.500111 9.521802
vn -4.798475 -4.022840 -0.516186
v 37.493636 101.309205 35.500830
vn -4.882237 -3.935701 -0.383182
v 38.033261 100.695258 35.134296
vn -5.333471 -3.321500 0.006616
v 38.367737 101.112415 9.588167
# 144 vertices, 0 vertices normals

f 2//2 51//51 52//52
f 53//53 54//54 55//55
f 142//142 41//41 56//56
f 57//57 58//58 59//59
f 60//60 61//61 62//62
f 63//63 64//64 65//65
f 66//66 67//67 81//81
f 68//68 69//69 70//70
f 23//23 71//71 42//42
f 23//23 42//42 43//43
f 67//67 66//66 72//72
f 73//73 58//58 72//72
f 71//71 66//66 142//142
f 68//68 74//74 75//75
f 142//142 44//44 41//41
f 76//76 59//59 77//77
f 78//78 79//79 80//80
f 61//61 55//55 76//76
f 24//24 81//81 82//82
f 52//52 83//83 54//54
f 57//57 83//83 67//67
f 84//84 74//74 85//85
f 53//53 86//86 87//87
f 88//88 89//89 90//90
f 91//91 30//30 92//92
f 93//93 90//90 64//64
f 94//94 95//95 91//91
f 29//29 49//49 48//48
f 96//96 95//95 97//97
f 70//70 98//98 99//99
f 100//100 101//101 84//84
f 102//102 78//78 103//103
f 102//102 104//104 105//105
f 106//106 107//107 103//103
f 108//108 109//109 101//101
f 60//60 104//104 110//110
f 111//111 112//112 107//107
f 86//86 113//113 114//114
f 110//110 112//112 113//113
f 115//115 85//85 116//116
f 117//117 118//118 122//122
f 119//119 117//117 120//120
f 37//37 123//123 93//93
f 123//123 124//124 125//125
f 126//126 125//125 119//119
f 127//127 128//128 118//118
f 129//129 127//127 124//124
f 129//129 63//63 130//130
f 97//97 131//131 89//89
f 121//121 132//132 131//131
f 75//75 133//133 134//134
f 141//141 144//144 135//135
f 10//10 136//136 121//121
f 109//109 80//80 133//133
f 65//65 132//132 137//137
f 108//108 138//138 106//106
f 122//122 116//116 99//99
f 98//98 139//139 120//120
f 94//94 46//46 144//144
f 51//51 3//3 52//52
f 20//20 52//52 3//3
f 4//4 53//53 55//55
f 53//53 2//2 54//54
f 55//55 54//54 5//5
f 71//71 142//142 56//56
f 56//56 42//42 71//71
f 5//5 57//57 59//59
f 57//57 67//67 58//58
f 59//59 58//58 11//11
f 8//8 60//60 62//62
f 60//60 4//4 61//61
f 62//62 61//61 12//12
f 18//18 63//63 65//65
f 63//63 37//37 64//64
f 65//65 64//64 38//38
f 81//81 67//67 20//20
f 40//40 68//68 70//70
f 68//68 22//22 69//69
f 70//70 69//69 1//1
f 71//71 23//23 72//72
f 23//23 73//73 72//72
f 73//73 11//11 58//58
f 72//72 58//58 67//67
f 71//71 72//72 66//66
f 44//44 142//142 143//143
f 22//22 68//68 75//75
f 68//68 40//40 74//74
f 75//75 74//74 14//14
f 45//45 44//44 143//143
f 12//12 76//76 77//77
f 76//76 5//5 59//59
f 77//77 59//59 11//11
f 39//39 78//78 80//80
f 78//78 26//26 79//79
f 80//80 79//79 25//25
f 12//12 61//61 76//76
f 61//61 4//4 55//55
f 76//76 55//55 5//5
f 24//24 143//143 81//81
f 20//20 3//3 82//82
f 82//82 81//81 20//20
f 2//2 52//52 54//54
f 52//52 20//20 83//83
f 54//54 83//83 5//5
f 57//57 5//5 83//83
f 67//67 83//83 20//20
f 21//21 84//84 85//85
f 84//84 14//14 74//74
f 85//85 74//74 40//40
f 2//2 53//53 87//87
f 53//53 4//4 86//86
f 87//87 86//86 19//19
f 17//17 88//88 90//90
f 88//88 16//16 89//89
f 90//90 89//89 38//38
f 47//47 92//92 30//30
f 94//94 91//91 46//46
f 92//92 46//46 91//91
f 37//37 93//93 64//64
f 93//93 17//17 90//90
f 64//64 90//90 38//38
f 94//94 10//10 95//95
f 91//91 95//95 30//30
f 16//16 96//96 97//97
f 96//96 30//30 95//95
f 97//97 95//95 10//10
f 40//40 70//70 99//99
f 70//70 1//1 98//98
f 99//99 98//98 27//27
f 21//21 100//100 84//84
f 100//100 13//13 101//101
f 84//84 101//101 14//14
f 7//7 102//102 103//103
f 102//102 26//26 78//78
f 103//103 78//78 39//39
f 26//26 102//102 105//105
f 102//102 7//7 104//104
f 105//105 104//104 8//8
f 39//39 106//106 103//103
f 106//106 31//31 107//107
f 103//103 107//107 7//7
f 13//13 108//108 101//101
f 108//108 39//39 109//109
f 101//101 109//109 14//14
f 4//4 60//60 110//110
f 60//60 8//8 104//104
f 110//110 104//104 7//7
f 31//31 111//111 107//107
f 111//111 32//32 112//112
f 107//107 112//112 7//7
f 19//19 86//86 114//114
f 86//86 4//4 113//113
f 114//114 113//113 32//32
f 4//4 110//110 113//113
f 110//110 7//7 112//112
f 113//113 112//112 32//32
f 28//28 115//115 116//116
f 115//115 21//21 85//85
f 116//116 85//85 40//40
f 27//27 117//117 122//122
f 117//117 6//6 118//118
f 122//122 118//118 33//33
f 15//15 119//119 120//120
f 119//119 6//6 117//117
f 120//120 117//117 27//27
f 34//34 121//121 9//9
f 28//28 122//122 33//33
f 35//35 93//93 123//123
f 93//93 35//35 17//17
f 35//35 123//123 125//125
f 123//123 37//37 124//124
f 125//125 124//124 6//6
f 15//15 126//126 119//119
f 126//126 35//35 125//125
f 119//119 125//125 6//6
f 6//6 127//127 118//118
f 127//127 36//36 128//128
f 118//118 128//128 33//33
f 37//37 129//129 124//124
f 129//129 36//36 127//127
f 124//124 127//127 6//6
f 36//36 129//129 130//130
f 129//129 37//37 63//63
f 130//130 63//63 18//18
f 16//16 97//97 89//89
f 97//97 10//10 131//131
f 89//89 131//131 38//38
f 10//10 121//121 131//131
f 121//121 34//34 132//132
f 131//131 132//132 38//38
f 22//22 75//75 134//134
f 75//75 14//14 133//133
f 134//134 133//133 25//25
f 49//49 141//141 135//135
f 141//141 136//136 144//144
f 135//135 144//144 50//50
f 29//29 141//141 49//49
f 10//10 94//94 136//136
f 121//121 136//136 9//9
f 14//14 109//109 133//133
f 109//109 39//39 80//80
f 133//133 80//80 25//25
f 18//18 65//65 137//137
f 65//65 38//38 132//132
f 137//137 132//132 34//34
f 39//39 108//108 106//106
f 108//108 13//13 138//138
f 106//106 138//138 31//31
f 27//27 122//122 99//99
f 122//122 28//28 116//116
f 99//99 116//116 40//40
f 27//27 98//98 120//120
f 98//98 1//1 139//139
f 120//120 139//139 15//15
f 144//144 46//46 50//50
f 141//141 29//29 140//140
f 136//136 140//140 9//9
f 141//141 140//140 136//136
f 142//142 66//66 143//143
f 45//45 143//143 24//24
f 143//143 66//66 81//81
f 94//94 144//144 136//136
# 222 faces, 0 coords texture

# End of File
