####
#
# OBJ File Generated by Meshlab
#
####
# Object 2262_C121_S_7.obj
#
# Vertices: 99
# Faces: 165
#
####
vn 5.058400 -3.726165 -0.080576
v -62.644832 66.652193 -7.113132
vn 5.104444 -3.663107 -0.068441
v -66.438887 61.432445 -7.245785
vn 5.092624 -3.679548 -0.061993
v -65.266771 63.083078 -8.060472
vn 5.096187 -3.674779 -0.054689
v -65.822591 62.247738 -4.407409
vn 5.075072 -3.703654 -0.066907
v -64.740514 63.715915 -2.809688
vn 5.081170 -3.695415 -0.057515
v -63.333569 65.761283 -9.099421
vn 5.095533 -3.675511 -0.067052
v -65.467551 62.766099 -6.214393
vn 5.097451 -3.672960 -0.060261
v -66.009524 61.953416 -2.270558
vn 5.082518 -3.693687 -0.054788
v -64.409694 64.274018 -9.076333
vn 5.083828 -3.691937 -0.051544
v -64.893066 63.623740 -9.957285
vn 5.079296 -3.697962 -0.064288
v -64.457938 64.131298 -4.652984
vn 5.081839 -3.694333 -0.068509
v -64.193622 64.544503 -6.984033
vn 2.243564 -1.633853 -0.032556
v -64.886000 63.485200 -1.240730
vn 2.692817 -1.951153 -0.038717
v -65.292500 62.925700 -1.340690
vn 2.158308 -1.568772 -0.019475
v -64.714300 63.882200 -10.966700
vn 2.424240 -1.752071 -0.028174
v -65.718000 62.499250 -10.763050
vn 2.155367 -1.551295 -0.025294
v -67.966800 59.281300 -5.339690
vn 2.227779 -1.640517 -0.034992
v -62.316200 67.102450 -7.299905
vn 2.002918 -1.447049 -0.023370
v -66.028200 61.912200 -1.289950
vn 2.222025 -1.590499 -0.024809
v -67.646600 59.765400 -8.368100
vn 2.505434 -1.798958 -0.028719
v -66.656500 61.048700 -2.068640
vn 2.362948 -1.735389 -0.036152
v -62.789000 66.502800 -8.944240
vn 2.388737 -1.712103 -0.027125
v -66.927900 60.800800 -9.796040
vn 2.274689 -1.632629 -0.018576
v -66.442200 61.482200 -10.399600
vn 2.514397 -1.853672 -0.031005
v -62.901100 66.229200 -2.987450
vn 2.318873 -1.706925 -0.032311
v -62.511800 66.772800 -3.923470
vn 2.174552 -1.597101 -0.030608
v -63.156800 65.872300 -2.395160
vn 2.334112 -1.694607 -0.024979
v -63.784250 65.155450 -10.351950
vn 2.266567 -1.635541 -0.027234
v -67.499300 59.901100 -3.446110
vn 2.573319 -1.856567 -0.026431
v -67.753400 59.566500 -4.512900
vn 2.259637 -1.656600 -0.030642
v -62.271500 67.124600 -5.060820
vn 2.511510 -1.837008 -0.039170
v -63.602500 65.254900 -1.989470
vn 2.303745 -1.683474 -0.024904
v -62.975300 66.255300 -9.352550
vn 2.511930 -1.793976 -0.037760
v -67.390400 60.137400 -8.916540
vn 2.343788 -1.714553 -0.036572
v -64.155300 64.488300 -1.521440
vn 2.432069 -1.755150 -0.026478
v -67.924650 59.359750 -6.452580
vn 5.090129 -3.683004 -0.066332
v -65.436756 62.751769 -2.594456
vn 5.081964 -3.694123 -0.072801
v -64.988833 63.358618 -1.991403
vn 5.087482 -3.686614 -0.069213
v -65.549806 62.580782 -1.855649
vn 2.515320 -1.827405 -0.026114
v -65.161000 63.267400 -10.890000
vn 2.543541 -1.847017 -0.022605
v -64.255700 64.510050 -10.662700
vn 5.083200 -3.692775 -0.053325
v -64.343521 64.382134 -10.092688
vn 2.500539 -1.803313 -0.018942
v -67.805675 59.536500 -7.398717
vn 5.063447 -3.719251 -0.080748
v -63.139846 66.008539 -8.165695
vn 2.519518 -1.861420 -0.046351
v -62.579050 66.768750 -8.223865
vn 5.071271 -3.708708 -0.068465
v -63.603084 65.368902 -7.715315
vn 5.085284 -3.689978 -0.047806
v -64.185575 64.568526 -8.043994
vn 5.086774 -3.687839 -0.054283
v -63.741534 65.190941 -8.698370
vn 5.103314 -3.664868 -0.057842
v -66.419733 61.399378 -3.369169
vn 5.102895 -3.665489 -0.055357
v -66.500555 61.300386 -4.248429
vn 5.099028 -3.670791 -0.059384
v -65.947150 62.056482 -3.285628
vn 5.064666 -3.718021 -0.061574
v -63.285946 65.725450 -4.087049
vn 5.070258 -3.710169 -0.073028
v -63.764756 65.083889 -4.906569
vn 5.086959 -3.687589 -0.053672
v -63.888373 65.000054 -9.576977
vn 5.098194 -3.671896 -0.061635
v -65.786978 62.373197 -8.840651
vn 5.105329 -3.661783 -0.073306
v -65.867902 62.238287 -7.724873
vn 5.105850 -3.661013 -0.075471
v -66.387134 61.526299 -8.312517
vn 5.098273 -3.671520 -0.076176
v -65.349803 62.948946 -7.137757
vn 5.103845 -3.663968 -0.066851
v -65.937802 62.121596 -6.770330
vn 5.084589 -3.690881 -0.051142
v -65.107967 63.314691 -8.992816
vn 5.079433 -3.698021 -0.048824
v -64.725278 63.830052 -8.323686
vn 2.418270 -1.740095 -0.028586
v -67.106000 60.433375 -2.693860
vn 5.088880 -3.684925 -0.054948
v -65.458702 62.841549 -9.870362
vn 5.098346 -3.671847 -0.052000
v -65.962656 62.143976 -9.812448
vn 5.073708 -3.705691 -0.060744
v -64.490774 64.067363 -3.418755
vn 5.105946 -3.661048 -0.065882
v -66.996556 60.667776 -7.931968
vn 5.096399 -3.674509 -0.055439
v -66.985213 60.636840 -4.942777
vn 5.095526 -3.675683 -0.057795
v -67.495663 59.939479 -5.529888
vn 5.094691 -3.676857 -0.056942
v -67.388702 60.072301 -4.534420
vn 5.061105 -3.722734 -0.069537
v -62.838526 66.369060 -6.069413
vn 2.472326 -1.814739 -0.032330
v -62.268275 67.147325 -6.147705
vn 5.079041 -3.697956 -0.080228
v -64.206089 64.503628 -5.850856
vn 5.088226 -3.685603 -0.067913
v -64.954748 63.461394 -5.520661
vn 5.091401 -3.681035 -0.077671
v -64.811782 63.679513 -6.515412
vn 2.538695 -1.840601 -0.024242
v -63.534800 65.494875 -10.046187
vn 5.085755 -3.689073 -0.061924
v -64.704403 63.848574 -7.464250
vn 5.084670 -3.690742 -0.054134
v -65.149862 63.176479 -4.539504
vn 5.091914 -3.680702 -0.055541
v -65.591402 62.580634 -5.301533
vn 5.102539 -3.666024 -0.052686
v -66.026706 61.979758 -5.604135
vn 5.102155 -3.666562 -0.052330
v -66.463534 61.363207 -5.025511
vn 5.062142 -3.721127 -0.078485
v -63.468262 65.512524 -5.928104
vn 5.091797 -3.680905 -0.054387
v -67.363226 60.134288 -6.311557
vn 5.097233 -3.673286 -0.059000
v -66.970465 60.685638 -6.858080
vn 5.087984 -3.686129 -0.056262
v -65.319327 62.930285 -3.558920
vn 5.108884 -3.656808 -0.073870
v -66.813881 60.942459 -8.872187
vn 5.070844 -3.709342 -0.075690
v -64.461544 64.081927 -2.096037
vn 5.096274 -3.674788 -0.047320
v -67.480249 59.986124 -7.244174
vn 5.066931 -3.714833 -0.065447
v -63.456128 65.477987 -3.086042
vn 5.063773 -3.719116 -0.069101
v -62.797535 66.404041 -4.896656
vn 5.098427 -3.671650 -0.058427
v -66.956446 60.659588 -3.817715
vn 5.103409 -3.664651 -0.058930
v -66.369932 61.572100 -9.342189
vn 5.055838 -3.729575 -0.083638
v -63.169010 65.937996 -6.972366
vn 5.064349 -3.718080 -0.081012
v -63.734933 65.165716 -6.712486
vn 5.072457 -3.707430 -0.059554
v -63.943026 64.822461 -3.776256
vn 5.065522 -3.716712 -0.069996
v -63.233370 65.813613 -5.077708
vn 5.072995 -3.706424 -0.074162
v -64.034183 64.674551 -2.457625
vn 5.082075 -3.694337 -0.052469
v -64.863210 63.561391 -3.764077
vn 5.095025 -3.676438 -0.053992
v -67.010617 60.613798 -5.754152
vn 5.101586 -3.667294 -0.055758
v -66.484632 61.348085 -6.047398
# 99 vertices, 0 vertices normals

f 37//37 38//38 39//39
f 63//63 16//16 40//40
f 28//28 42//42 41//41
f 8//8 19//19 21//21
f 47//47 48//48 46//46
f 8//8 39//39 19//19
f 64//64 91//91 24//24
f 88//88 25//25 27//27
f 48//48 54//54 6//6
f 55//55 56//56 57//57
f 56//56 58//58 59//59
f 60//60 9//9 61//61
f 30//30 17//17 69//69
f 82//82 68//68 36//36
f 66//66 85//85 57//57
f 69//69 17//17 68//68
f 9//9 42//42 54//54
f 63//63 60//60 55//55
f 72//72 73//73 74//74
f 6//6 33//33 22//22
f 74//74 58//58 76//76
f 77//77 78//78 73//73
f 99//99 59//59 79//79
f 47//47 76//76 61//61
f 81//81 53//53 72//72
f 66//66 20//20 34//34
f 37//37 51//51 84//84
f 91//91 85//85 23//23
f 5//5 86//86 38//38
f 83//83 82//82 87//87
f 8//8 37//37 39//39
f 37//37 5//5 38//38
f 14//14 38//38 13//13
f 14//14 39//39 38//38
f 10//10 40//40 15//15
f 40//40 10//10 63//63
f 10//10 15//15 42//42
f 41//41 42//42 15//15
f 44//44 22//22 45//45
f 22//22 44//44 6//6
f 45//45 18//18 1//1
f 1//1 92//92 44//44
f 46//46 92//92 93//93
f 47//47 9//9 48//48
f 39//39 14//14 19//19
f 21//21 49//49 51//51
f 49//49 62//62 90//90
f 62//62 49//49 21//21
f 90//90 50//50 49//49
f 50//50 4//4 51//51
f 21//21 51//51 8//8
f 52//52 94//94 53//53
f 52//52 26//26 25//25
f 88//88 52//52 25//25
f 48//48 9//9 54//54
f 75//75 54//54 28//28
f 75//75 6//6 54//54
f 55//55 3//3 56//56
f 57//57 56//56 2//2
f 2//2 56//56 59//59
f 56//56 3//3 58//58
f 59//59 58//58 7//7
f 3//3 60//60 61//61
f 60//60 10//10 9//9
f 62//62 29//29 90//90
f 63//63 55//55 64//64
f 63//63 64//64 16//16
f 57//57 85//85 91//91
f 67//67 90//90 69//69
f 29//29 69//69 90//90
f 69//69 29//29 30//30
f 89//89 70//70 71//71
f 9//9 10//10 42//42
f 54//54 42//42 28//28
f 55//55 91//91 64//64
f 63//63 10//10 60//60
f 55//55 60//60 3//3
f 72//72 11//11 73//73
f 74//74 73//73 7//7
f 75//75 33//33 6//6
f 74//74 7//7 58//58
f 76//76 58//58 3//3
f 11//11 77//77 73//73
f 77//77 4//4 78//78
f 73//73 78//78 7//7
f 79//79 59//59 7//7
f 79//79 7//7 78//78
f 80//80 79//79 4//4
f 64//64 24//24 16//16
f 9//9 47//47 61//61
f 47//47 12//12 76//76
f 61//61 76//76 3//3
f 72//72 53//53 11//11
f 70//70 89//89 95//95
f 13//13 38//38 86//86
f 2//2 59//59 99//99
f 4//4 50//50 80//80
f 80//80 67//67 98//98
f 5//5 37//37 84//84
f 37//37 8//8 51//51
f 84//84 51//51 4//4
f 34//34 85//85 66//66
f 85//85 34//34 23//23
f 5//5 84//84 97//97
f 84//84 4//4 77//77
f 65//65 97//97 11//11
f 20//20 66//66 87//87
f 83//83 98//98 82//82
f 87//87 82//82 36//36
f 87//87 43//43 20//20
f 43//43 87//87 36//36
f 91//91 23//23 24//24
f 88//88 27//27 32//32
f 1//1 18//18 71//71
f 91//91 55//55 57//57
f 2//2 83//83 66//66
f 71//71 70//70 1//1
f 92//92 1//1 70//70
f 92//92 46//46 44//44
f 93//93 92//92 81//81
f 93//93 81//81 72//72
f 46//46 93//93 12//12
f 66//66 83//83 87//87
f 31//31 26//26 89//89
f 94//94 11//11 53//53
f 65//65 11//11 94//94
f 2//2 66//66 57//57
f 68//68 17//17 36//36
f 99//99 98//98 83//83
f 2//2 99//99 83//83
f 86//86 35//35 13//13
f 12//12 47//47 46//46
f 52//52 53//53 95//95
f 89//89 26//26 52//52
f 67//67 69//69 68//68
f 32//32 96//96 88//88
f 12//12 93//93 72//72
f 70//70 95//95 81//81
f 81//81 95//95 53//53
f 94//94 52//52 88//88
f 82//82 98//98 68//68
f 74//74 12//12 72//72
f 12//12 74//74 76//76
f 52//52 95//95 89//89
f 86//86 65//65 96//96
f 35//35 86//86 96//96
f 97//97 84//84 77//77
f 44//44 46//46 48//48
f 44//44 48//48 6//6
f 89//89 71//71 31//31
f 98//98 99//99 80//80
f 79//79 78//78 4//4
f 5//5 97//97 65//65
f 97//97 77//77 11//11
f 50//50 90//90 67//67
f 99//99 79//79 80//80
f 96//96 94//94 88//88
f 98//98 67//67 68//68
f 96//96 65//65 94//94
f 86//86 5//5 65//65
f 80//80 50//50 67//67
f 70//70 81//81 92//92
f 45//45 1//1 44//44
f 49//49 50//50 51//51
f 35//35 96//96 32//32
# 165 faces, 0 coords texture

# End of File
