####
#
# OBJ File Generated by Meshlab
#
####
# Object 2263_C121_S_8.obj
#
# Vertices: 214
# Faces: 374
#
####
vn -5.097027 -3.673614 0.056743
v 67.097533 62.413068 -24.845247
vn -5.094538 -3.676930 0.065423
v 67.738653 61.502687 -26.239596
vn -5.097559 -3.671968 0.094592
v 67.861936 61.212264 -32.180526
vn -5.091009 -3.681096 0.094619
v 67.115870 62.206128 -33.300744
vn -5.095867 -3.674939 0.073314
v 67.274681 62.104381 -28.394281
vn -5.090853 -3.682442 0.029714
v 66.687609 63.023371 -21.549010
vn -5.075461 -3.703588 0.038751
v 65.593031 64.519807 -22.324813
vn -5.074751 -3.704329 0.052430
v 65.912905 64.053973 -24.875212
vn -5.099577 -3.670283 0.028181
v 68.540041 60.452478 -22.304667
vn -5.059700 -3.725035 0.035368
v 64.643193 65.832554 -21.192574
vn -5.089713 -3.683203 0.080436
v 66.313134 63.406642 -30.139822
vn -5.073373 -3.706208 0.056417
v 65.252086 64.934441 -26.054555
vn -5.081196 -3.694651 0.096971
v 65.455096 64.548659 -31.541360
vn -5.111951 -3.651969 0.090442
v 69.313477 59.263850 -29.043849
vn -5.108584 -3.656905 0.087695
v 68.714534 60.050998 -30.761611
vn -5.121837 -3.638176 0.092870
v 69.996013 58.305120 -28.918901
vn -5.082621 -3.693951 0.002355
v 66.012887 63.968389 -17.855925
vn -5.061423 -3.722668 0.043361
v 64.518873 65.979875 -23.074764
vn -5.070281 -3.710558 0.048307
v 65.390818 64.775437 -24.214106
vn -5.054397 -3.732386 0.027816
v 63.381018 67.544352 -19.979365
vn -5.063356 -3.720047 0.012440
v 64.768646 65.680829 -19.007986
vn -5.112060 -3.652344 0.074366
v 69.721217 58.728185 -27.186092
vn -5.085122 -3.690486 0.016024
v 67.194534 62.341338 -17.456402
vn -5.095819 -3.674833 0.081443
v 68.333409 60.629936 -28.725306
vn -5.087635 -3.686691 0.044599
v 66.479912 63.291924 -23.520459
vn -5.051329 -3.736636 0.004577
v 63.862072 66.904333 -17.833576
vn -5.089955 -3.683801 0.017534
v 66.902546 62.736989 -19.504603
vn -5.097638 -3.673117 0.025672
v 67.765484 61.531783 -20.810974
vn -5.089023 -3.684463 0.068077
v 66.388421 63.366081 -26.785385
vn -5.098322 -3.671568 0.070673
v 68.539048 60.370016 -27.544214
vn -5.082644 -3.693818 0.023807
v 65.770685 64.296247 -20.259966
vn -5.099534 -3.669747 0.078114
v 67.548083 61.682958 -30.386312
vn -5.078836 -3.698572 0.064254
v 65.280296 64.871224 -27.909158
vn -5.097873 -3.672729 0.027753
v 68.053143 61.150840 -18.811631
vn -5.101988 -3.666592 0.064701
v 68.985647 59.786008 -25.492403
vn -5.079066 -3.698022 0.077642
v 65.164257 64.995316 -29.688827
vn -5.120354 -3.640115 0.097114
v 69.897381 58.390552 -30.640938
vn -5.069543 -3.711849 -0.005407
v 64.797975 65.635073 -16.692529
vn -5.094179 -3.677574 0.053867
v 68.195149 60.905705 -24.260913
vn -5.052454 -3.734967 0.032815
v 63.558412 67.283653 -22.422849
vn -5.094111 -3.677875 0.040053
v 67.502443 61.878506 -22.853708
vn -5.113407 -3.649896 0.097911
v 68.956535 59.668794 -32.650949
vn -2.182751 -1.574846 0.032190
v 66.912000 62.472100 -34.131100
vn -2.111171 -1.540111 0.002437
v 66.928900 62.713100 -15.763700
vn -2.292033 -1.633447 0.039445
v 70.250050 57.889750 -30.881900
vn -2.672063 -1.910513 0.009204
v 68.900900 59.948700 -22.119400
vn -2.420215 -1.735483 0.009659
v 68.861200 60.008000 -20.289600
vn -2.771801 -2.033739 0.026448
v 64.274800 66.290450 -24.867600
vn -2.414195 -1.729046 0.034791
v 69.991900 58.372100 -26.117400
vn -2.216709 -1.593056 0.042606
v 68.143350 60.766200 -34.107700
vn -2.465637 -1.797952 -0.002806
v 65.869500 64.160250 -15.536450
vn -1.877403 -1.370464 -0.000835
v 64.813300 65.613400 -15.465600
vn -2.229611 -1.621279 0.041308
v 65.162350 64.942600 -31.880800
vn -2.304436 -1.641549 0.036838
v 70.316000 57.892100 -27.236400
vn -2.363198 -1.683543 0.039227
v 69.686300 58.650750 -32.472750
vn -2.510283 -1.851241 0.015513
v 62.966700 68.092500 -21.624200
vn -2.344602 -1.729340 0.014065
v 62.893900 68.198200 -20.833500
vn -2.529298 -1.867650 0.009939
v 63.115600 67.911200 -18.873100
vn -2.269456 -1.674711 0.011192
v 62.949800 68.131600 -19.547000
vn -2.612613 -1.897624 0.007481
v 67.423600 62.030700 -16.410500
vn -2.264623 -1.642689 0.011188
v 67.996600 61.239000 -17.032900
vn -2.236065 -1.604012 0.015084
v 68.637500 60.339000 -18.521400
vn -2.551314 -1.813908 0.035880
v 69.709900 58.618800 -32.411300
vn -2.394258 -1.769265 0.015830
v 63.478150 67.383300 -23.527900
vn -2.753130 -1.978600 0.032400
v 69.200100 59.506400 -24.342600
vn -2.196037 -1.622757 0.004279
v 63.388950 67.544700 -17.747750
vn -2.563364 -1.887912 -0.000805
v 64.352000 66.240500 -16.226750
vn -2.677848 -1.955879 0.032582
v 64.864950 65.439600 -27.927700
vn -2.569404 -1.846141 0.022930
v 69.011800 59.784900 -23.194100
vn -2.289297 -1.667652 0.037375
v 64.806050 65.480150 -30.009050
vn -2.532457 -1.840032 0.045339
v 65.587600 64.337400 -32.691900
vn -2.729808 -1.963746 0.030182
v 69.097800 59.655300 -23.944200
vn -2.277950 -1.624031 0.048738
v 69.125400 59.410500 -33.365200
vn -2.238140 -1.621620 0.042346
v 65.935600 63.842800 -33.340700
vn -2.516200 -1.817873 0.011285
v 68.281175 60.841275 -17.663250
vn -2.197702 -1.620279 0.013100
v 63.056100 67.964700 -22.465200
vn -2.318835 -1.647809 0.044237
v 70.461350 57.647850 -29.009700
vn -5.096853 -3.672996 0.096416
v 66.627243 62.886299 -33.202228
vn -2.542853 -1.833227 0.046752
v 66.299775 63.330250 -33.639100
vn -2.534760 -1.855472 -0.000787
v 66.431850 63.392050 -15.656950
vn -5.072431 -3.707943 -0.002763
v 66.417972 63.411224 -16.163774
vn -5.090203 -3.682746 0.074752
v 66.228339 63.563817 -27.916598
vn -5.093869 -3.677761 0.070127
v 66.651103 62.966579 -28.464451
vn -5.095796 -3.675002 0.074992
v 66.854904 62.703318 -27.567591
vn -5.088771 -3.685293 0.033838
v 66.587483 63.152527 -22.546353
vn -5.079649 -3.697894 0.033933
v 66.144092 63.766501 -21.932995
vn -5.076524 -3.702155 0.036357
v 66.049014 63.888826 -22.910948
vn -5.093044 -3.679126 0.054231
v 66.471013 63.287880 -24.674519
vn -5.084489 -3.690672 0.067329
v 66.208259 63.633910 -25.773894
vn -5.098432 -3.671613 0.060282
v 66.794481 62.818777 -25.775658
vn -2.548674 -1.842736 0.042566
v 67.487400 61.675150 -34.118200
vn -2.554653 -1.827729 0.003806
v 68.882500 59.976300 -21.263800
vn -5.105496 -3.662270 0.005902
v 68.625712 60.335088 -21.325955
vn -5.093624 -3.678693 0.016522
v 68.162376 60.979226 -21.530173
vn -5.104548 -3.663513 0.019747
v 68.300383 60.788248 -20.526929
vn -5.097323 -3.673008 0.067937
v 66.785703 62.766154 -29.310075
vn -5.087661 -3.686409 0.066774
v 66.114710 63.698470 -29.073761
vn -5.078359 -3.699797 0.001405
v 66.409018 63.425021 -17.008484
vn -5.076378 -3.702527 -0.007543
v 65.913888 64.101747 -16.648483
vn -5.085296 -3.689550 0.073456
v 65.647651 64.355373 -28.373773
vn -5.081681 -3.694717 0.061381
v 65.740164 64.247581 -27.395267
vn -5.091811 -3.679915 0.098606
v 66.505594 63.116473 -31.073606
vn -5.095262 -3.675519 0.084689
v 67.134499 62.239816 -31.156281
vn -5.101579 -3.666819 0.081779
v 66.945625 62.524336 -30.256013
vn -5.075664 -3.703271 0.042646
v 65.959695 64.000369 -23.870299
vn -5.046906 -3.742460 0.033660
v 64.024918 66.661401 -21.692032
vn -5.044735 -3.745426 0.029210
v 64.134201 66.522863 -20.593939
vn -5.059960 -3.724720 0.031639
v 64.714565 65.744906 -20.119807
vn -5.043797 -3.746715 0.025321
v 64.190142 66.455916 -19.508638
vn -5.067752 -3.713830 0.061196
v 65.306742 64.875356 -25.126094
vn -5.069169 -3.712026 0.052274
v 64.744907 65.652546 -24.572456
vn -5.073747 -3.705714 0.056000
v 64.884689 65.445362 -25.547466
vn -5.080807 -3.695103 0.099992
v 65.857823 64.012220 -30.918849
vn -5.080454 -3.696035 0.080559
v 65.684384 64.274085 -30.007490
vn -5.085162 -3.690444 0.012742
v 66.665610 63.069114 -17.748012
vn -5.105145 -3.662114 0.069525
v 69.366636 59.240034 -26.280905
vn -5.108581 -3.656425 0.103838
v 69.051067 59.605139 -29.937506
vn -5.095215 -3.675520 0.087664
v 68.793421 59.983241 -29.129205
vn -5.098299 -3.671183 0.090289
v 68.496344 60.377057 -29.829962
vn -5.100817 -3.668076 0.071872
v 68.930801 59.811382 -28.270673
vn -5.076372 -3.702210 0.049818
v 65.238629 64.940312 -27.053408
vn -2.789696 -2.034749 0.027147
v 64.788575 65.562525 -26.660525
vn -5.081259 -3.695834 -0.005291
v 65.337441 64.892694 -16.161051
vn -2.547089 -1.851248 -0.001274
v 65.334600 64.896150 -15.503800
vn -5.072486 -3.707640 0.041214
v 65.490448 64.649542 -23.279515
vn -5.071580 -3.708856 0.043305
v 65.030083 65.284907 -22.725708
vn -5.068661 -3.712829 0.044337
v 64.898018 65.455436 -23.636764
vn -5.067878 -3.713518 0.068741
v 65.696445 64.336059 -25.639061
vn -5.089497 -3.683059 0.102182
v 67.708917 61.388950 -33.300946
vn -5.085772 -3.687860 0.114066
v 67.415395 61.812144 -32.680709
vn -5.114485 -3.649011 0.070300
v 69.512165 59.002946 -28.129525
vn -5.119790 -3.641432 0.078128
v 70.006148 58.309739 -28.007523
vn -2.545193 -1.810639 0.039627
v 70.408400 57.738275 -28.307850
vn -5.100836 -3.668481 0.045006
v 66.985897 62.593048 -23.185625
vn -5.099894 -3.669914 0.034993
v 67.112828 62.426514 -22.183387
vn -5.086372 -3.688784 0.010504
v 66.467265 63.339309 -18.768715
vn -5.086798 -3.688200 0.009398
v 65.872441 64.158819 -19.124679
vn -5.087958 -3.686581 0.014007
v 66.335000 63.518947 -19.853476
vn -5.114448 -3.648857 0.081605
v 68.837329 59.857966 -31.701858
vn -5.117019 -3.645332 0.077320
v 69.363300 59.116482 -31.903707
vn -5.102630 -3.665883 0.053619
v 66.838644 62.784458 -24.114956
vn -5.053629 -3.733397 0.030948
v 63.376781 67.536436 -21.623395
vn -5.083293 -3.693025 -0.000068
v 65.353975 64.875518 -18.446136
vn -5.081015 -3.696080 0.021009
v 65.285895 64.966567 -19.616032
vn -5.075578 -3.703472 0.034858
v 65.208421 65.062820 -20.717228
vn -5.085372 -3.690121 0.019882
v 67.668705 61.689233 -17.297925
vn -5.102918 -3.665047 0.077160
v 68.136460 60.859923 -30.572419
vn -5.098335 -3.671546 0.070766
v 67.725499 61.420039 -31.264106
vn -5.108400 -3.657429 0.075688
v 68.295745 60.621627 -31.477319
vn -5.107468 -3.659333 0.038147
v 68.419962 60.630575 -19.569825
vn -2.529182 -1.812105 0.018240
v 68.788925 60.114675 -19.662525
vn -5.084135 -3.690581 0.097736
v 66.050314 63.721322 -31.840348
vn -5.120190 -3.640986 0.072601
v 69.763427 58.562215 -31.442356
vn -2.519342 -1.793289 0.034796
v 69.958300 58.282500 -31.748650
vn -5.100085 -3.669631 0.034265
v 67.894543 61.361806 -19.817726
vn -5.098656 -3.670847 0.083420
v 67.943339 61.150688 -29.653780
vn -5.095194 -3.675773 0.078175
v 67.789133 61.382607 -28.805853
vn -5.099078 -3.670411 0.076613
v 67.386852 61.926498 -29.457942
vn -5.050119 -3.738102 0.036089
v 64.033515 66.638717 -22.793646
vn -5.057911 -3.727479 0.041302
v 64.233887 66.358403 -23.792048
vn -5.099022 -3.671184 0.027400
v 67.225649 62.279023 -21.166447
vn -5.093147 -3.679282 0.031386
v 67.640167 61.696635 -21.827189
vn -5.093147 -3.679378 0.019972
v 66.786490 62.892058 -20.526542
vn -5.094897 -3.676913 0.026541
v 67.338503 62.128226 -20.155130
vn -5.090371 -3.683196 0.022619
v 67.473616 61.949813 -19.167132
vn -2.531567 -1.817026 0.032719
v 69.605550 58.926950 -25.226850
vn -5.055451 -3.731059 -0.003547
v 64.283888 66.333215 -17.338108
vn -2.494531 -1.840307 0.001217
v 63.873300 66.890250 -16.952150
vn -5.086761 -3.688241 0.012690
v 67.049768 62.537147 -18.507032
vn -5.073921 -3.705680 0.040543
v 65.125390 65.166563 -21.754179
vn -5.059905 -3.724719 0.042337
v 64.562436 65.930959 -22.213051
vn -5.078847 -3.698407 0.073309
v 65.167551 65.009691 -28.750832
vn -2.487476 -1.817162 0.035650
v 64.815250 65.486400 -29.021900
vn -5.101045 -3.667869 0.066379
v 68.751621 60.092958 -26.536672
vn -5.105778 -3.661271 0.067342
v 69.134665 59.544174 -27.303911
vn -5.094515 -3.676938 0.066672
v 68.134846 60.942414 -26.874654
vn -5.095275 -3.675808 0.070753
v 67.502956 61.809792 -27.261034
vn -5.093986 -3.677535 0.073718
v 67.930835 61.205435 -27.900760
vn -5.084755 -3.690905 0.027680
v 66.234934 63.651786 -20.912276
vn -5.078393 -3.699595 0.036378
v 65.682533 64.406913 -21.319373
vn -2.624073 -1.917208 0.028657
v 64.472275 66.011725 -25.446275
vn -5.083863 -3.691579 0.070515
v 65.527810 64.503372 -29.228014
vn -5.096797 -3.673799 0.065407
v 68.355033 60.654464 -25.871111
vn -5.078920 -3.697836 0.094761
v 65.281570 64.811974 -30.612261
vn -2.502492 -1.821465 0.047395
v 64.973250 65.226350 -30.961050
vn -5.047702 -3.741507 0.004703
v 64.242589 66.391024 -18.420824
vn -5.067021 -3.715252 -0.008858
v 64.786131 65.654404 -17.854508
vn -5.095032 -3.676523 0.046425
v 68.430850 60.591334 -23.274501
vn -5.100753 -3.668494 0.053563
v 68.730356 60.165702 -23.969112
vn -5.099711 -3.669794 0.062841
v 68.578460 60.363321 -24.832466
vn -5.093757 -3.678008 0.065318
v 67.975911 61.192115 -25.245052
vn -5.074083 -3.705137 0.061699
v 65.751147 64.244720 -26.442945
vn -2.469867 -1.824947 0.020178
v 63.909800 66.791400 -24.300250
vn -2.528649 -1.798593 0.054434
v 70.371650 57.747050 -29.894850
vn -5.088100 -3.685191 0.092400
v 67.364041 61.907470 -31.899041
vn -5.080379 -3.697037 -0.008940
v 65.360877 64.862911 -17.258162
vn -5.091092 -3.680823 0.103370
v 66.788065 62.693218 -32.211504
vn -5.090616 -3.681660 0.095685
v 66.215098 63.472823 -32.736286
vn -5.093066 -3.679054 0.060211
v 67.395547 61.988583 -25.570308
vn -5.096678 -3.673967 0.064820
v 67.106206 62.374524 -26.547851
vn -5.088734 -3.685135 0.053765
v 67.641262 61.665735 -24.591205
vn -5.095028 -3.676472 0.049185
v 67.325242 62.110172 -23.879285
vn -5.087945 -3.686366 0.043909
v 67.857626 61.379797 -23.569514
vn -5.087280 -3.687361 0.036203
v 68.033640 61.148680 -22.540059
vn -5.111509 -3.652669 0.093748
v 68.396946 60.457947 -32.428499
vn -5.123108 -3.635861 0.112636
v 69.658577 58.750360 -29.905496
vn -2.562637 -1.828992 0.052420
v 68.662000 60.050200 -33.711950
vn -5.087726 -3.686893 0.016512
v 67.615458 61.757869 -18.165271
vn -5.119878 -3.640980 0.090996
v 69.320594 59.195877 -30.928013
vn -5.049658 -3.738856 0.016893
v 63.696278 67.125557 -18.732262
vn -5.081116 -3.696011 0.009525
v 66.847602 62.822560 -16.743319
vn -5.050694 -3.737372 0.029343
v 63.599088 67.241014 -20.934842
vn -5.104980 -3.661498 0.103970
v 68.211099 60.699428 -33.093971
vn -5.048166 -3.740805 0.027821
v 63.762958 67.027681 -19.966463
# 214 vertices, 0 vertices normals

f 51//51 81//81 80//80
f 82//82 83//83 84//84
f 85//85 86//86 87//87
f 88//88 89//89 90//90
f 47//47 93//93 92//92
f 94//94 93//93 95//95
f 96//96 83//83 97//97
f 98//98 81//81 99//99
f 100//100 82//82 101//101
f 102//102 103//103 104//104
f 8//8 88//88 105//105
f 108//108 109//109 107//107
f 110//110 111//111 112//112
f 113//113 114//114 184//184
f 117//117 118//118 119//119
f 120//120 24//24 118//118
f 123//123 51//51 124//124
f 105//105 87//87 125//125
f 126//126 127//127 125//125
f 8//8 110//110 128//128
f 131//131 16//16 132//132
f 134//134 135//135 85//85
f 136//136 137//137 138//138
f 139//139 42//42 140//140
f 76//76 40//40 142//142
f 137//137 143//143 144//144
f 108//108 145//145 144//144
f 211//211 23//23 60//60
f 147//147 148//148 149//149
f 113//113 152//152 102//102
f 153//153 63//63 154//154
f 155//155 95//95 150//150
f 147//147 119//119 156//156
f 157//157 158//158 156//156
f 18//18 159//159 160//160
f 161//161 135//135 162//162
f 163//163 161//161 164//164
f 165//165 164//164 155//155
f 127//127 160//160 111//111
f 211//211 60//60 44//44
f 26//26 167//167 168//168
f 38//38 52//52 67//67
f 209//209 140//140 153//153
f 115//115 136//136 169//169
f 126//126 170//170 171//171
f 159//159 171//171 106//106
f 172//172 33//33 68//68
f 9//9 188//188 69//69
f 174//174 175//175 116//116
f 176//176 177//177 178//178
f 86//86 179//179 180//180
f 145//145 170//170 180//180
f 104//104 158//158 96//96
f 22//22 54//54 49//49
f 97//97 182//182 114//114
f 120//120 131//131 175//175
f 24//24 178//178 157//157
f 183//183 176//176 174//174
f 184//184 36//36 70//70
f 13//13 53//53 71//71
f 210//210 109//109 186//186
f 186//186 187//187 167//167
f 163//163 138//138 179//179
f 46//46 9//9 69//69
f 183//183 190//190 191//191
f 39//39 190//190 189//189
f 192//192 121//121 101//101
f 192//192 89//89 128//128
f 195//195 148//148 103//103
f 196//196 99//99 123//123
f 187//187 143//143 196//196
f 197//197 130//130 195//195
f 197//197 152//152 198//198
f 172//172 182//182 100//100
f 23//23 208//208 146//146
f 199//199 90//90 200//200
f 200//200 84//84 177//177
f 191//191 201//201 199//199
f 16//16 77//77 133//133
f 134//134 141//141 202//202
f 203//203 188//188 204//204
f 197//197 198//198 78//78
f 76//76 142//142 56//56
f 203//203 202//202 201//201
f 117//117 209//209 206//206
f 206//206 194//194 16//16
f 139//139 149//149 205//205
f 204//204 94//94 162//162
f 213//213 50//50 207//207
f 4//4 78//78 43//43
f 79//79 43//43 78//78
f 211//211 44//44 81//81
f 80//80 81//81 44//44
f 29//29 82//82 84//84
f 82//82 97//97 83//83
f 84//84 83//83 5//5
f 25//25 85//85 87//87
f 85//85 6//6 86//86
f 87//87 86//86 7//7
f 1//1 88//88 90//90
f 88//88 8//8 89//89
f 90//90 89//89 29//29
f 43//43 91//91 4//4
f 91//91 50//50 129//129
f 9//9 46//46 93//93
f 92//92 93//93 46//46
f 28//28 94//94 95//95
f 94//94 9//9 93//93
f 95//95 93//93 47//47
f 11//11 96//96 97//97
f 96//96 5//5 83//83
f 17//17 98//98 99//99
f 98//98 211//211 81//81
f 99//99 81//81 51//51
f 33//33 100//100 101//101
f 100//100 97//97 82//82
f 101//101 82//82 29//29
f 11//11 102//102 104//104
f 102//102 197//197 103//103
f 104//104 103//103 32//32
f 19//19 8//8 105//105
f 105//105 88//88 25//25
f 107//107 106//106 10//10
f 10//10 108//108 107//107
f 108//108 21//21 109//109
f 12//12 110//110 112//112
f 110//110 19//19 111//111
f 181//181 112//112 111//111
f 48//48 181//181 111//111
f 13//13 113//113 184//184
f 113//113 11//11 114//114
f 184//184 114//114 36//36
f 115//115 211//211 98//98
f 115//115 98//98 17//17
f 49//49 116//116 22//22
f 116//116 166//166 35//35
f 166//166 116//116 49//49
f 15//15 117//117 119//119
f 117//117 14//14 118//118
f 119//119 118//118 24//24
f 14//14 120//120 118//118
f 120//120 30//30 24//24
f 122//122 121//121 12//12
f 33//33 121//121 68//68
f 122//122 68//68 121//121
f 38//38 123//123 52//52
f 124//124 52//52 123//123
f 19//19 105//105 125//125
f 105//105 25//25 87//87
f 125//125 87//87 7//7
f 7//7 126//126 125//125
f 126//126 18//18 127//127
f 125//125 127//127 19//19
f 8//8 19//19 110//110
f 128//128 110//110 12//12
f 4//4 91//91 129//129
f 130//130 129//129 3//3
f 22//22 131//131 132//132
f 131//131 14//14 16//16
f 133//133 132//132 16//16
f 22//22 132//132 54//54
f 133//133 54//54 132//132
f 25//25 134//134 85//85
f 134//134 41//41 135//135
f 85//85 135//135 6//6
f 27//27 136//136 138//138
f 136//136 17//17 137//137
f 138//138 137//137 31//31
f 140//140 42//42 55//55
f 88//88 1//1 141//141
f 88//88 141//141 25//25
f 142//142 212//212 57//57
f 142//142 57//57 56//56
f 214//214 58//58 20//20
f 66//66 210//210 26//26
f 59//59 20//20 58//58
f 31//31 137//137 144//144
f 137//137 17//17 143//143
f 144//144 143//143 21//21
f 21//21 108//108 144//144
f 108//108 10//10 145//145
f 144//144 145//145 31//31
f 60//60 23//23 146//146
f 146//146 61//61 60//60
f 15//15 147//147 149//149
f 147//147 32//32 148//148
f 149//149 148//148 3//3
f 34//34 150//150 62//62
f 151//151 62//62 150//150
f 11//11 113//113 102//102
f 113//113 13//13 152//152
f 102//102 152//152 197//197
f 45//45 153//153 154//154
f 153//153 45//45 37//37
f 34//34 155//155 150//150
f 155//155 28//28 95//95
f 47//47 150//150 95//95
f 47//47 151//151 150//150
f 32//32 147//147 156//156
f 147//147 15//15 119//119
f 156//156 119//119 24//24
f 24//24 157//157 156//156
f 157//157 5//5 158//158
f 156//156 158//158 32//32
f 64//64 159//159 40//40
f 159//159 64//64 160//160
f 28//28 161//161 162//162
f 161//161 6//6 135//135
f 162//162 135//135 41//41
f 27//27 163//163 164//164
f 163//163 6//6 161//161
f 164//164 161//161 28//28
f 34//34 165//165 155//155
f 165//165 27//27 164//164
f 155//155 164//164 28//28
f 35//35 166//166 65//65
f 19//19 127//127 111//111
f 127//127 18//18 160//160
f 167//167 67//67 168//168
f 67//67 167//167 38//38
f 168//168 66//66 26//26
f 37//37 209//209 153//153
f 63//63 140//140 55//55
f 63//63 153//153 140//140
f 34//34 208//208 165//165
f 165//165 169//169 27//27
f 23//23 115//115 169//169
f 115//115 17//17 136//136
f 169//169 136//136 27//27
f 18//18 126//126 171//171
f 126//126 7//7 170//170
f 171//171 170//170 10//10
f 40//40 159//159 106//106
f 159//159 18//18 171//171
f 106//106 171//171 10//10
f 68//68 173//173 172//172
f 36//36 172//172 173//173
f 173//173 70//70 36//36
f 35//35 174//174 116//116
f 174//174 30//30 175//175
f 116//116 175//175 22//22
f 30//30 176//176 178//178
f 176//176 2//2 177//177
f 178//178 177//177 5//5
f 7//7 86//86 180//180
f 86//86 6//6 179//179
f 180//180 179//179 31//31
f 31//31 145//145 180//180
f 145//145 10//10 170//170
f 180//180 170//170 7//7
f 11//11 104//104 96//96
f 104//104 32//32 158//158
f 96//96 158//158 5//5
f 12//12 112//112 122//122
f 181//181 122//122 112//112
f 11//11 97//97 114//114
f 114//114 182//182 36//36
f 30//30 120//120 175//175
f 120//120 14//14 131//131
f 175//175 131//131 22//22
f 24//24 30//30 178//178
f 157//157 178//178 5//5
f 35//35 183//183 174//174
f 183//183 2//2 176//176
f 174//174 176//176 30//30
f 70//70 185//185 184//184
f 13//13 184//184 185//185
f 185//185 53//53 13//13
f 26//26 210//210 186//186
f 210//210 58//58 214//214
f 186//186 109//109 21//21
f 26//26 186//186 167//167
f 186//186 21//21 187//187
f 167//167 187//187 38//38
f 6//6 163//163 179//179
f 163//163 27//27 138//138
f 179//179 138//138 31//31
f 188//188 39//39 189//189
f 69//69 189//189 72//72
f 188//188 189//189 69//69
f 2//2 183//183 191//191
f 183//183 35//35 190//190
f 191//191 190//190 39//39
f 190//190 35//35 65//65
f 190//190 65//65 189//189
f 72//72 189//189 65//65
f 29//29 192//192 101//101
f 192//192 12//12 121//121
f 101//101 121//121 33//33
f 12//12 192//192 128//128
f 192//192 29//29 89//89
f 128//128 89//89 8//8
f 160//160 64//64 193//193
f 160//160 193//193 48//48
f 45//45 194//194 37//37
f 194//194 77//77 16//16
f 42//42 73//73 55//55
f 197//197 195//195 103//103
f 195//195 3//3 148//148
f 103//103 148//148 32//32
f 38//38 196//196 123//123
f 196//196 17//17 99//99
f 123//123 99//99 51//51
f 38//38 187//187 196//196
f 187//187 21//21 143//143
f 196//196 143//143 17//17
f 197//197 4//4 130//130
f 195//195 130//130 3//3
f 152//152 71//71 198//198
f 71//71 152//152 13//13
f 74//74 198//198 71//71
f 33//33 172//172 100//100
f 172//172 36//36 182//182
f 100//100 182//182 97//97
f 208//208 75//75 146//146
f 61//61 146//146 75//75
f 34//34 62//62 75//75
f 75//75 208//208 34//34
f 2//2 199//199 200//200
f 199//199 1//1 90//90
f 200//200 90//90 29//29
f 57//57 212//212 20//20
f 2//2 200//200 177//177
f 200//200 29//29 84//84
f 177//177 84//84 5//5
f 2//2 191//191 199//199
f 191//191 39//39 201//201
f 199//199 201//201 1//1
f 41//41 134//134 202//202
f 134//134 25//25 141//141
f 202//202 141//141 1//1
f 41//41 203//203 204//204
f 203//203 39//39 188//188
f 204//204 188//188 9//9
f 4//4 197//197 78//78
f 79//79 198//198 74//74
f 79//79 78//78 198//198
f 39//39 203//203 201//201
f 203//203 41//41 202//202
f 201//201 202//202 1//1
f 3//3 129//129 213//213
f 205//205 213//213 207//207
f 14//14 117//117 206//206
f 117//117 15//15 209//209
f 206//206 209//209 37//37
f 14//14 206//206 16//16
f 206//206 37//37 194//194
f 42//42 139//139 205//205
f 139//139 15//15 149//149
f 205//205 149//149 3//3
f 41//41 204//204 162//162
f 204//204 9//9 94//94
f 162//162 94//94 28//28
f 50//50 213//213 129//129
f 42//42 205//205 207//207
f 207//207 73//73 42//42
f 208//208 169//169 165//165
f 208//208 23//23 169//169
f 20//20 212//212 214//214
f 209//209 139//139 140//140
f 209//209 15//15 139//139
f 210//210 66//66 58//58
f 23//23 211//211 115//115
f 40//40 76//76 64//64
f 111//111 160//160 48//48
f 142//142 40//40 106//106
f 212//212 106//106 107//107
f 212//212 142//142 106//106
f 4//4 129//129 130//130
f 57//57 20//20 59//59
f 214//214 107//107 109//109
f 210//210 214//214 109//109
f 3//3 213//213 205//205
f 214//214 212//212 107//107
# 374 faces, 0 coords texture

# End of File
