####
#
# OBJ File Generated by Meshlab
#
####
# Object 2273_C121_S_18.obj
#
# Vertices: 12
# Faces: 12
#
####
vn -2.525373 -1.868380 -0.008091
v 46.052200 90.247100 50.000000
vn -2.543809 -1.843529 -0.003562
v 46.683325 89.377325 50.000000
vn -0.486009 -0.367354 -0.000502
v 44.558700 92.223000 50.000000
vn -2.187093 -1.653013 -0.002397
v 45.126200 91.471300 50.657200
vn -2.173795 -1.619097 -0.007293
v 45.920500 90.419700 50.936900
vn -2.311575 -1.672628 -0.001406
v 46.943400 89.017500 50.496900
vn -0.469129 -0.338818 0.000188
v 47.388600 88.400800 50.000000
vn -2.485858 -1.806825 -0.008396
v 46.554500 89.552800 50.694600
vn -5.012673 -3.788335 -0.006207
v 45.586051 90.863135 50.458115
vn -2.506244 -1.894291 -0.002670
v 45.305450 91.235050 50.000000
vn -2.506416 -1.894062 -0.003394
v 45.523350 90.945500 50.797050
vn -5.085343 -3.690201 -0.010898
v 46.549813 89.560496 50.290895
# 12 vertices, 0 vertices normals

f 1//1 9//9 10//10
f 4//4 9//9 11//11
f 2//2 7//7 6//6
f 1//1 2//2 12//12
f 1//1 12//12 8//8
f 1//1 8//8 5//5
f 9//9 4//4 10//10
f 3//3 10//10 4//4
f 1//1 5//5 9//9
f 11//11 9//9 5//5
f 6//6 12//12 2//2
f 12//12 6//6 8//8
# 12 faces, 0 coords texture

# End of File
