####
#
# OBJ File Generated by Meshlab
#
####
# Object 2282_C122_S_7.obj
#
# Vertices: 14
# Faces: 15
#
####
vn -5.315334 -3.349987 -0.042640
v 38.957755 101.347759 17.328811
vn -0.452481 -0.291840 -0.010628
v 38.661100 101.717000 21.122700
vn -2.492838 -1.562317 -0.020045
v 39.149800 101.039000 17.479250
vn -2.524842 -1.611287 -0.036761
v 38.629650 101.829500 19.285200
vn -2.491815 -1.589261 -0.023578
v 38.749100 101.674000 17.395100
vn -0.849829 -0.533840 -0.006174
v 38.899800 101.449000 16.552200
vn -2.224829 -1.382383 -0.011425
v 39.110700 101.104000 17.039200
vn -2.367518 -1.510802 -0.035465
v 39.082050 101.115000 19.532450
vn -5.287304 -3.392728 -0.109862
v 38.798121 101.545849 19.951670
vn -2.639475 -1.701145 -0.058772
v 38.647750 101.767000 20.318100
vn -2.615376 -1.668947 -0.028144
v 38.687000 101.758000 18.226000
vn -5.305573 -3.365374 -0.056479
v 38.891401 101.439815 18.099812
vn -2.622464 -1.660520 -0.028517
v 39.128600 101.058500 18.440450
vn -2.575816 -1.657477 -0.057369
v 38.856850 101.437500 20.463700
# 14 vertices, 0 vertices normals

f 9//9 14//14 10//10
f 12//12 4//4 11//11
f 12//12 3//3 13//13
f 1//1 7//7 3//3
f 1//1 5//5 6//6
f 1//1 6//6 7//7
f 2//2 10//10 14//14
f 10//10 4//4 9//9
f 1//1 3//3 12//12
f 12//12 5//5 1//1
f 5//5 12//12 11//11
f 4//4 12//12 13//13
f 13//13 8//8 4//4
f 4//4 8//8 9//9
f 14//14 9//9 8//8
# 15 faces, 0 coords texture

# End of File
