####
#
# OBJ File Generated by Meshlab
#
####
# Object 2290_C122_S_15.obj
#
# Vertices: 17
# Faces: 18
#
####
vn 2.539336 -1.849573 0.025739
v -44.899300 91.732900 50.000000
vn 2.570593 -1.805854 0.031735
v -46.258500 89.823500 50.000000
vn 2.592649 -1.774147 0.018298
v -47.260700 88.379200 50.000000
vn 0.691834 -0.513146 0.007753
v -44.229900 92.635400 50.000000
vn 2.167070 -1.598747 0.018137
v -44.564600 92.193900 50.645300
vn 2.450869 -1.766690 0.026771
v -45.137675 91.415325 51.068825
vn 2.232370 -1.594745 0.032659
v -45.491200 90.928400 51.250200
vn 2.295351 -1.562424 0.011003
v -47.363700 88.230300 50.343200
vn 2.665731 -1.844663 0.031174
v -46.960600 88.823500 50.629200
vn 2.266973 -1.585715 0.026019
v -46.483000 89.520100 51.068700
vn 0.615634 -0.418400 0.003236
v -47.571900 87.921300 50.000000
vn 2.558323 -1.822961 0.037312
v -45.578900 90.778200 50.000000
vn 5.097775 -3.672287 0.046005
v -45.057699 91.520066 50.453437
vn 5.124814 -3.634556 0.066589
v -45.830235 90.438170 50.604189
vn 2.580919 -1.790900 0.033739
v -46.759600 89.101350 50.000000
vn 5.161926 -3.581677 0.067281
v -46.866808 88.955138 50.439991
vn 2.566474 -1.811664 0.026275
v -45.987100 90.224250 51.159450
# 17 vertices, 0 vertices normals

f 1//1 4//4 5//5
f 12//12 13//13 6//6
f 3//3 9//9 8//8
f 3//3 15//15 16//16
f 3//3 16//16 9//9
f 3//3 8//8 11//11
f 14//14 7//7 17//17
f 2//2 12//12 14//14
f 12//12 1//1 13//13
f 7//7 12//12 6//6
f 7//7 14//14 12//12
f 15//15 10//10 16//16
f 10//10 15//15 2//2
f 16//16 10//10 9//9
f 1//1 5//5 13//13
f 6//6 13//13 5//5
f 2//2 14//14 17//17
f 17//17 10//10 2//2
# 18 faces, 0 coords texture

# End of File
