####
#
# OBJ File Generated by Meshlab
#
####
# Object 2327_C126_S_1.obj
#
# Vertices: 102
# Faces: 171
#
####
vn -5.091992 -3.678637 -0.132631
v 70.843052 61.490103 34.984291
vn -5.099963 -3.667633 -0.129378
v 72.642238 59.135319 30.827257
vn -5.098124 -3.670211 -0.130406
v 71.820060 60.235696 32.188548
vn -5.102709 -3.663541 -0.138454
v 71.645882 60.543468 30.361448
vn -5.088363 -3.683387 -0.139607
v 69.533567 63.444807 31.244916
vn -5.094105 -3.675487 -0.138839
v 70.284162 62.516600 28.208034
vn -5.086138 -3.686099 -0.149148
v 68.348167 65.094875 30.791986
vn -5.098592 -3.668903 -0.147468
v 71.514831 60.795894 28.656922
vn -5.098033 -3.670016 -0.139353
v 71.264406 60.977368 32.976857
vn -5.084252 -3.689211 -0.135401
v 69.620012 63.156208 35.501196
vn -5.087800 -3.684836 -0.121045
v 70.645250 61.700614 36.764073
vn -5.097754 -3.670556 -0.134751
v 70.758350 61.733767 31.646341
vn -5.093859 -3.676351 -0.124265
v 71.810378 60.112840 36.061674
vn -5.087292 -3.684653 -0.144594
v 69.861830 62.912115 33.344889
vn -5.096084 -3.672814 -0.136686
v 70.486238 62.171558 29.879563
vn -5.092695 -3.677299 -0.142309
v 69.262257 63.892238 29.355384
vn -5.101186 -3.666030 -0.125387
v 72.842306 58.809498 32.532499
vn -5.102367 -3.663706 -0.146657
v 72.540930 59.307247 30.061811
vn -5.093287 -3.676849 -0.132390
v 71.989461 59.929059 34.127434
vn -5.084735 -3.688370 -0.140572
v 68.570492 64.647524 34.336469
vn -5.083967 -3.689176 -0.147067
v 68.498306 64.814747 32.621185
vn -2.545803 -1.836337 -0.068836
v 73.003000 58.527800 34.113600
vn -2.220967 -1.589860 -0.058353
v 73.257300 58.215700 32.880600
vn -2.284069 -1.639076 -0.065749
v 72.720271 59.086211 29.338524
vn -2.243203 -1.616530 -0.053059
v 73.161700 58.413900 30.831900
vn -2.517680 -1.826514 -0.059141
v 70.079200 62.464900 37.258000
vn -2.180531 -1.581095 -0.052085
v 69.376100 63.441400 37.048000
vn -2.556605 -1.843640 -0.061088
v 72.127650 59.668500 36.192400
vn -2.522407 -1.826319 -0.075911
v 68.195400 65.332100 30.159400
vn -2.194140 -1.587480 -0.065064
v 67.988100 65.597300 30.675900
vn -2.124192 -1.533342 -0.051676
v 71.986600 59.854500 36.483100
vn -2.296371 -1.656179 -0.062963
v 69.161200 64.070500 28.351800
vn -2.234817 -1.613858 -0.059266
v 72.881100 58.673600 34.691500
vn -2.531605 -1.821871 -0.054187
v 73.217100 58.309600 31.830000
vn -2.307610 -1.654345 -0.066208
v 71.971500 60.179200 28.150600
vn -2.295407 -1.654483 -0.065338
v 71.470000 60.893100 27.770200
vn -2.160484 -1.560332 -0.056634
v 70.254700 62.580200 27.579700
vn -2.335224 -1.689833 -0.068699
v 68.658500 64.738400 29.068400
vn -2.606585 -1.886532 -0.075324
v 67.933700 65.651300 31.195500
vn -2.150066 -1.558809 -0.047005
v 70.571150 61.784300 37.378250
vn -2.293139 -1.661723 -0.064310
v 67.871900 65.620700 34.084900
vn -2.239626 -1.622513 -0.057716
v 68.417800 64.804600 35.810450
vn -2.265208 -1.639480 -0.065783
v 67.757300 65.848900 32.365500
vn -5.093809 -3.675911 -0.137999
v 72.573210 59.150036 33.409481
vn -2.548080 -1.833752 -0.073173
v 72.953200 58.731600 30.125050
vn -5.091966 -3.678274 -0.142804
v 70.359586 62.188551 34.233064
vn -5.098337 -3.669614 -0.138798
v 70.579230 61.918168 33.269509
vn -5.097862 -3.670527 -0.132115
v 70.972000 61.345726 34.013887
vn -5.084307 -3.689532 -0.124830
v 70.104858 62.463332 36.235295
vn -5.080961 -3.693378 -0.145606
v 69.031499 64.107810 31.947613
vn -5.085335 -3.687293 -0.147051
v 68.410317 64.974412 31.661560
vn -5.082361 -3.691413 -0.146593
v 68.906080 64.318430 31.001166
vn -5.106397 -3.658425 -0.137671
v 72.158705 59.817576 30.625224
vn -5.105102 -3.659817 -0.148605
v 72.131773 59.888584 29.792754
vn -5.079496 -3.695363 -0.146358
v 69.142339 63.917232 32.933569
vn -5.086175 -3.686394 -0.140085
v 69.683976 63.199881 32.229247
vn -5.099158 -3.668214 -0.145642
v 70.873128 61.541730 32.464754
vn -5.095496 -3.673468 -0.141160
v 70.322555 62.308899 32.410072
vn -2.544323 -1.832277 -0.068823
v 69.533650 63.563400 28.086350
vn -5.101418 -3.665361 -0.137897
v 71.296531 60.975526 31.893174
vn -5.100959 -3.666402 -0.126867
v 71.194419 61.150233 30.984307
vn -5.105831 -3.659516 -0.129697
v 71.733038 60.390472 31.250323
vn -5.092879 -3.677356 -0.133797
v 72.505271 59.202422 34.463112
vn -5.093699 -3.676511 -0.126043
v 71.368292 60.740593 35.617271
vn -5.096237 -3.672985 -0.126242
v 71.442655 60.669573 34.646744
vn -5.084453 -3.688749 -0.140453
v 70.217990 62.341531 35.253554
vn -5.082187 -3.691430 -0.151992
v 69.732748 63.042607 34.491179
vn -5.087404 -3.685099 -0.129370
v 70.724355 61.620346 35.940954
vn -5.094951 -3.675489 -0.103282
v 72.761921 58.943581 31.710274
vn -5.091751 -3.679356 -0.120178
v 72.365387 59.472901 32.447591
vn -5.101184 -3.666406 -0.116044
v 72.249258 59.659413 31.524203
vn -5.083034 -3.690486 -0.146495
v 68.512471 64.757606 33.565169
vn -5.079712 -3.694921 -0.150012
v 69.181518 63.824782 33.882158
vn -5.100136 -3.666624 -0.151067
v 71.580979 60.668736 29.508074
vn -5.097079 -3.671374 -0.137785
v 71.080985 61.337057 30.112002
vn -5.093145 -3.676454 -0.148175
v 70.997536 61.488814 29.244801
vn -5.090839 -3.679922 -0.140449
v 69.388879 63.681013 30.304559
vn -5.098705 -3.669113 -0.138654
v 69.873333 63.032493 29.633605
vn -5.096585 -3.672320 -0.131377
v 70.008007 62.811496 30.545849
vn -5.094793 -3.674390 -0.142566
v 70.384886 62.346350 28.996374
vn -5.096623 -3.672496 -0.124920
v 70.616790 61.960446 30.760485
vn -5.093344 -3.676800 -0.131826
v 70.159793 62.569594 31.462870
vn -2.515998 -1.823766 -0.060494
v 68.939350 64.061650 36.506050
vn -5.086807 -3.685959 -0.128351
v 69.048151 63.938477 35.695472
vn -5.105605 -3.659094 -0.149160
v 72.065875 60.013273 28.996091
vn -2.525099 -1.809330 -0.073107
v 72.323450 59.666250 28.688000
vn -5.087234 -3.685162 -0.134329
v 68.644134 64.518981 35.074421
vn -2.499118 -1.810865 -0.065860
v 68.102450 65.274000 34.870850
vn -5.091570 -3.679392 -0.128047
v 71.290424 60.820865 36.395577
vn -2.521457 -1.822456 -0.061333
v 71.293050 60.798550 36.941600
vn -5.096794 -3.671955 -0.133544
v 71.494784 60.629356 33.743340
vn -5.091429 -3.679259 -0.137009
v 71.920744 60.060767 33.143035
vn -2.558760 -1.845479 -0.061308
v 72.547900 59.114000 35.345250
vn -5.091266 -3.679186 -0.144968
v 70.926295 61.620883 28.387938
vn -2.530664 -1.829664 -0.071498
v 70.842550 61.765575 27.662350
vn -5.085150 -3.687456 -0.149313
v 68.777492 64.531373 30.088164
vn -5.083380 -3.690125 -0.143242
v 69.137009 63.848024 34.812998
vn -5.087373 -3.684414 -0.148775
v 68.103762 65.335403 33.218962
vn -2.499748 -1.809608 -0.073437
v 67.811450 65.732500 33.383925
vn -5.085642 -3.687788 -0.121987
v 69.537750 63.239478 36.410102
vn -5.097836 -3.670270 -0.140024
v 69.756314 63.228933 28.754716
vn -5.095115 -3.674681 -0.122238
v 72.018292 59.849319 35.312469
# 102 vertices, 0 vertices normals

f 17//17 23//23 44//44
f 18//18 24//24 45//45
f 46//46 47//47 48//48
f 10//10 49//49 100//100
f 50//50 51//51 52//52
f 7//7 30//30 29//29
f 53//53 54//54 18//18
f 55//55 50//50 56//56
f 57//57 47//47 58//58
f 57//57 60//60 9//9
f 61//61 62//62 60//60
f 64//64 65//65 102//102
f 46//46 66//66 67//67
f 68//68 49//49 66//66
f 17//17 34//34 23//23
f 8//8 36//36 35//35
f 6//6 37//37 95//95
f 64//64 89//89 68//68
f 13//13 28//28 31//31
f 17//17 69//69 34//34
f 69//69 70//70 71//71
f 74//74 75//75 76//76
f 77//77 78//78 79//79
f 80//80 78//78 101//101
f 16//16 38//38 32//32
f 96//96 77//77 52//52
f 7//7 39//39 30//30
f 81//81 82//82 79//79
f 81//81 75//75 61//61
f 100//100 83//83 84//84
f 53//53 71//71 62//62
f 11//11 40//40 26//26
f 85//85 35//35 86//86
f 87//87 88//88 20//20
f 54//54 74//74 85//85
f 89//89 31//31 90//90
f 82//82 58//58 56//56
f 91//91 9//9 92//92
f 70//70 44//44 92//92
f 65//65 48//48 91//91
f 16//16 96//96 38//38
f 97//97 84//84 87//87
f 76//76 80//80 94//94
f 7//7 51//51 39//39
f 97//97 73//73 67//67
f 44//44 23//23 22//22
f 2//2 45//45 25//25
f 45//45 2//2 18//18
f 1//1 46//46 48//48
f 46//46 14//14 47//47
f 48//48 47//47 9//9
f 26//26 49//49 11//11
f 49//49 26//26 100//100
f 5//5 50//50 52//52
f 50//50 21//21 51//51
f 52//52 51//51 7//7
f 2//2 53//53 18//18
f 53//53 4//4 54//54
f 14//14 55//55 56//56
f 55//55 21//21 50//50
f 56//56 50//50 5//5
f 12//12 57//57 58//58
f 57//57 9//9 47//47
f 58//58 47//47 14//14
f 32//32 59//59 101//101
f 6//6 101//101 59//59
f 59//59 37//37 6//6
f 57//57 12//12 60//60
f 9//9 60//60 3//3
f 12//12 61//61 60//60
f 61//61 4//4 62//62
f 60//60 62//62 3//3
f 19//19 44//44 63//63
f 63//63 44//44 22//22
f 33//33 63//63 22//22
f 13//13 64//64 102//102
f 64//64 1//1 65//65
f 14//14 46//46 67//67
f 46//46 1//1 66//66
f 67//67 66//66 10//10
f 1//1 68//68 66//66
f 68//68 11//11 49//49
f 66//66 49//49 10//10
f 1//1 64//64 68//68
f 89//89 13//13 31//31
f 68//68 89//89 11//11
f 25//25 69//69 2//2
f 69//69 25//25 34//34
f 2//2 69//69 71//71
f 69//69 17//17 70//70
f 71//71 70//70 3//3
f 73//73 55//55 14//14
f 8//8 74//74 76//76
f 74//74 4//4 75//75
f 76//76 75//75 15//15
f 5//5 77//77 79//79
f 77//77 16//16 78//78
f 79//79 78//78 15//15
f 6//6 80//80 101//101
f 80//80 15//15 78//78
f 101//101 78//78 16//16
f 7//7 96//96 52//52
f 96//96 16//16 77//77
f 52//52 77//77 5//5
f 15//15 81//81 79//79
f 81//81 12//12 82//82
f 79//79 82//82 5//5
f 12//12 81//81 61//61
f 81//81 15//15 75//75
f 61//61 75//75 4//4
f 10//10 100//100 84//84
f 100//100 27//27 83//83
f 84//84 83//83 42//42
f 4//4 53//53 62//62
f 53//53 2//2 71//71
f 62//62 71//71 3//3
f 35//35 85//85 8//8
f 24//24 85//85 86//86
f 54//54 24//24 18//18
f 87//87 42//42 88//88
f 20//20 88//88 41//41
f 24//24 54//54 85//85
f 54//54 4//4 74//74
f 85//85 74//74 8//8
f 13//13 89//89 64//64
f 11//11 89//89 90//90
f 90//90 40//40 11//11
f 5//5 82//82 56//56
f 82//82 12//12 58//58
f 56//56 58//58 14//14
f 19//19 91//91 92//92
f 92//92 9//9 3//3
f 3//3 70//70 92//92
f 70//70 17//17 44//44
f 92//92 44//44 19//19
f 93//93 102//102 63//63
f 93//93 63//63 33//33
f 93//93 28//28 102//102
f 19//19 65//65 91//91
f 65//65 1//1 48//48
f 91//91 48//48 9//9
f 95//95 94//94 6//6
f 8//8 94//94 36//36
f 95//95 36//36 94//94
f 29//29 96//96 7//7
f 96//96 29//29 38//38
f 20//20 97//97 87//87
f 97//97 10//10 84//84
f 87//87 84//84 42//42
f 8//8 76//76 94//94
f 76//76 15//15 80//80
f 94//94 80//80 6//6
f 21//21 72//72 98//98
f 99//99 98//98 41//41
f 43//43 51//51 21//21
f 51//51 43//43 39//39
f 10//10 97//97 67//67
f 97//97 20//20 73//73
f 67//67 73//73 14//14
f 21//21 98//98 43//43
f 99//99 43//43 98//98
f 27//27 100//100 26//26
f 32//32 101//101 16//16
f 102//102 19//19 63//63
f 20//20 72//72 73//73
f 72//72 21//21 55//55
f 102//102 65//65 19//19
f 72//72 55//55 73//73
f 102//102 28//28 13//13
f 72//72 20//20 41//41
f 98//98 72//72 41//41
# 171 faces, 0 coords texture

# End of File
