####
#
# OBJ File Generated by Meshlab
#
####
# Object 2336_C127_S_0.obj
#
# Vertices: 197
# Faces: 340
#
####
vn -5.138171 -3.615942 0.050368
v 72.148193 61.624335 -30.344919
vn -5.139551 -3.613699 0.065357
v 72.166298 61.568168 -32.371880
vn -5.117557 -3.644875 0.062535
v 69.056643 66.000296 -29.864505
vn -5.113765 -3.650323 0.054195
v 68.521789 66.778503 -28.147487
vn -5.135328 -3.620214 0.027387
v 69.679886 65.211273 -22.919023
vn -5.141073 -3.611791 0.051085
v 71.253494 62.916324 -28.990659
vn -5.106063 -3.661278 0.023901
v 67.604522 68.149462 -21.445715
vn -5.098216 -3.672287 0.026977
v 66.745309 69.344128 -19.860201
vn -5.095750 -3.675766 0.021089
v 66.426856 69.776903 -21.920876
vn -5.123513 -3.636413 0.064568
v 70.165334 64.384767 -33.312942
vn -5.134778 -3.621060 0.018625
v 70.134430 64.576522 -20.979412
vn -5.119026 -3.642799 0.063194
v 69.732537 65.021833 -31.518948
vn -5.113581 -3.650541 0.048629
v 68.234170 67.236144 -24.840713
vn -5.132835 -3.623739 0.018230
v 70.607414 63.919324 -19.216383
vn -5.127563 -3.631298 0.006311
v 69.271079 65.799011 -19.403744
vn -5.131658 -3.625412 0.027609
v 70.152030 64.520874 -24.932646
vn -5.118703 -3.643447 0.047691
v 69.130690 65.953211 -26.362273
vn -5.131384 -3.625910 -0.003144
v 68.634835 66.703313 -17.810815
vn -5.118257 -3.644308 0.009235
v 67.887715 67.759542 -19.530983
vn -5.121030 -3.640348 0.030969
v 68.512061 66.862518 -23.052038
vn -5.132292 -3.623990 0.066400
v 71.332575 62.718081 -33.769775
vn -5.131377 -3.625359 0.062797
v 71.013995 63.219419 -31.399478
vn -5.103787 -3.664489 0.035718
v 67.349421 68.483699 -23.264596
vn -5.118776 -3.643172 0.061913
v 68.629560 66.566226 -31.765798
vn -5.129931 -3.627929 0.010939
v 68.834174 66.418771 -21.232922
vn -5.114796 -3.648727 0.063766
v 69.565447 65.228099 -33.136529
vn -5.124087 -3.635659 0.063567
v 70.178429 64.430914 -29.481804
vn -5.132127 -3.624430 0.044180
v 70.410685 64.144570 -27.193041
vn -5.147896 -3.602101 0.049459
v 71.536166 62.541404 -26.736838
vn -5.120963 -3.640482 -0.012402
v 67.775508 67.919770 -17.218170
vn -2.206451 -1.560650 0.028304
v 70.491200 63.888950 -35.288800
vn -2.400618 -1.680922 0.022709
v 72.178900 61.626000 -26.533400
vn -2.177186 -1.549809 0.028730
v 69.255900 65.629900 -34.914950
vn -2.417013 -1.715022 0.030558
v 72.001700 61.767400 -34.207200
vn -2.299139 -1.622640 0.027461
v 71.447400 62.537200 -34.841400
vn -2.280790 -1.638311 -0.005011
v 66.849550 69.210700 -17.152750
vn -2.270963 -1.597474 0.011543
v 71.276300 62.955200 -20.860700
vn -2.966661 -2.092572 0.014913
v 70.959658 63.390183 -23.229968
vn -2.614249 -1.876774 0.024316
v 67.154400 68.735900 -25.152450
vn -2.519966 -1.765202 0.023323
v 72.394100 61.313400 -26.943700
vn -2.228214 -1.581878 0.025886
v 68.330386 66.957315 -33.698649
vn -2.250126 -1.576250 0.009859
v 71.150400 63.144600 -19.103900
vn -2.430998 -1.716700 0.005566
v 70.896200 63.513400 -18.309800
vn -2.256166 -1.601350 -0.007130
v 69.995700 64.780200 -16.704900
vn -2.398601 -1.701841 -0.001111
v 70.448200 64.146000 -17.349400
vn -2.300431 -1.651496 0.013613
v 66.058950 70.310100 -18.852500
vn -2.255623 -1.627322 0.008096
v 65.815300 70.622400 -22.323400
vn -2.547611 -1.836176 0.010002
v 66.108175 70.210650 -23.349925
vn -2.251800 -1.618108 0.012285
v 66.209000 70.068800 -23.702400
vn -2.221833 -1.573459 -0.005720
v 68.923000 66.289700 -16.092100
vn -2.479945 -1.750173 0.028586
v 72.292400 61.366100 -33.729500
vn -3.093288 -2.215246 0.037675
v 67.984100 67.548800 -26.670900
vn -2.566310 -1.812245 0.014685
v 73.048800 60.360700 -29.224000
vn -2.222592 -1.560190 0.013861
v 72.861700 60.632300 -27.961900
vn -2.451653 -1.722447 0.030353
v 72.975300 60.427300 -31.688100
vn -2.314355 -1.633008 0.021316
v 73.121500 60.253100 -29.720600
vn -2.203189 -1.568946 0.025643
v 67.788600 67.743800 -31.975300
vn -2.278887 -1.593264 0.030042
v 72.737100 60.742200 -32.815300
vn -3.105580 -2.187875 0.020549
v 71.332400 62.850200 -25.489700
vn -2.468901 -1.782017 0.006969
v 65.756000 70.709000 -21.247200
vn -2.327613 -1.679232 0.010862
v 65.757100 70.710200 -20.507800
vn -2.320056 -1.652415 0.027381
v 67.736370 67.853964 -29.893876
vn -2.285175 -1.620390 -0.008266
v 67.834350 67.831350 -16.271650
vn -2.829106 -2.019827 0.026424
v 68.032600 67.466200 -27.972400
vn -5.116243 -3.646775 0.059121
v 68.759928 66.430260 -29.018853
vn -5.117918 -3.644389 0.061220
v 68.450109 66.851314 -29.906226
vn -2.570610 -1.799190 0.025444
v 71.758900 62.233400 -26.013450
vn -5.120332 -3.640926 0.064735
v 69.184474 65.750002 -33.825772
vn -5.115103 -3.648220 0.067945
v 69.730461 64.979552 -34.114431
vn -2.471645 -1.779246 0.002573
v 66.413450 69.818300 -18.007800
vn -5.141939 -3.610608 0.047673
v 71.691899 62.282613 -29.706340
vn -5.139030 -3.614862 0.037473
v 72.215399 61.539708 -29.300489
vn -5.146619 -3.604016 0.042230
v 71.796774 62.144584 -28.631433
vn -5.137682 -3.616898 0.025996
v 70.762722 63.683759 -21.011151
vn -2.564814 -1.805336 0.011115
v 71.132650 63.152500 -21.949300
vn -5.118728 -3.643209 0.063802
v 69.627983 65.200337 -29.708717
vn -5.118243 -3.643884 0.064155
v 69.401208 65.501796 -30.691729
vn -5.120797 -3.640279 0.064881
v 69.982849 64.687265 -30.536282
vn -5.104162 -3.663702 0.054117
v 67.685025 67.999198 -24.994372
vn -2.591308 -1.857974 0.036558
v 67.608900 68.086850 -25.947500
vn -5.107618 -3.658599 0.072774
v 68.108542 67.393461 -25.767124
vn -5.118099 -3.644086 0.064144
v 69.794146 64.984047 -28.729548
vn -5.116890 -3.645822 0.061787
v 69.298987 65.674933 -29.005272
vn -5.146868 -3.603601 0.047146
v 71.937060 61.958281 -27.516318
vn -5.143924 -3.607876 0.039957
v 72.316414 61.407668 -28.199393
vn -5.140141 -3.613394 0.026163
v 70.881445 63.522689 -20.133156
vn -2.592070 -1.819306 0.011060
v 71.223675 63.034650 -20.206100
vn -5.132771 -3.623438 0.061144
v 70.712648 63.678603 -29.248485
vn -5.127031 -3.631559 0.060505
v 70.572703 63.859419 -30.379277
vn -5.134887 -3.620534 0.055287
v 71.142091 63.057509 -30.114149
vn -5.130494 -3.627159 0.010300
v 68.940264 66.268979 -18.623311
vn -5.123751 -3.636679 0.011642
v 69.573237 65.376235 -18.502128
vn -5.125462 -3.634263 -0.000909
v 69.228413 65.865704 -17.695214
vn -5.133969 -3.621633 0.066207
v 71.637957 62.325240 -31.930217
vn -5.138766 -3.615046 0.054239
v 72.121326 61.647058 -31.376936
vn -5.137677 -3.616577 0.055353
v 71.619772 62.367849 -30.815291
vn -5.130794 -3.626661 0.024005
v 70.384394 64.227695 -20.180748
vn -5.131013 -3.626337 0.028037
v 69.089241 66.046656 -22.986162
vn -5.132809 -3.623842 0.021034
v 69.275391 65.789296 -22.057071
vn -5.127175 -3.631797 0.022104
v 68.671689 66.642915 -22.163014
vn -5.100061 -3.669778 0.022186
v 66.355902 69.869546 -22.871360
vn -5.099378 -3.670650 0.031562
v 66.886577 69.132733 -22.565032
vn -5.104241 -3.663894 0.030999
v 66.775555 69.281411 -23.476467
vn -5.105140 -3.662625 0.033066
v 67.794565 67.856346 -24.051825
vn -5.103635 -3.664682 0.037708
v 67.230085 68.640253 -24.200114
vn -5.129286 -3.628862 0.006002
v 68.378763 67.063831 -20.415393
vn -5.109237 -3.656962 0.010347
v 67.737462 67.966859 -20.522594
vn -5.123111 -3.637556 0.017889
v 68.216495 67.288781 -21.333559
vn -5.127482 -3.630725 0.071430
v 71.747241 62.147153 -33.020967
vn -5.136449 -3.618177 0.060191
v 72.187789 61.522629 -33.221458
vn -5.134112 -3.621253 0.076135
v 71.175714 62.963696 -32.655601
vn -5.129227 -3.628912 0.020747
v 70.725099 63.709474 -25.217850
vn -2.597445 -1.838123 0.011137
v 71.141050 63.126650 -24.417000
vn -5.117747 -3.644569 0.064797
v 68.817909 66.318986 -30.797907
vn -5.117835 -3.644434 0.065436
v 69.174304 65.803434 -31.646352
vn -5.116264 -3.646663 0.063969
v 69.485372 65.354438 -32.312713
vn -5.129998 -3.627246 0.065952
v 70.581676 63.812208 -32.436326
vn -5.122555 -3.637869 0.061092
v 70.327188 64.185735 -31.450154
vn -5.118307 -3.643868 0.059233
v 69.981904 64.657610 -32.376995
vn -5.127260 -3.631104 0.065374
v 70.325332 64.141533 -34.297958
vn -5.137765 -3.616243 0.067175
v 70.750499 63.550510 -33.486670
vn -5.138917 -3.614748 0.059523
v 70.900111 63.322005 -34.456941
vn -2.572196 -1.809392 0.029655
v 71.027650 63.131200 -35.036450
vn -5.118194 -3.643999 0.057096
v 68.662357 66.623208 -25.587154
vn -5.107931 -3.658338 0.062326
v 68.505414 66.823729 -26.516149
vn -5.123245 -3.637405 0.006882
v 70.234407 64.446335 -18.372199
vn -5.127698 -3.631120 0.006993
v 69.692742 65.203490 -20.150876
vn -5.122297 -3.638726 0.012421
v 69.959390 64.830880 -19.291565
vn -5.129201 -3.628829 0.035861
v 68.886075 66.327142 -23.773597
vn -5.133254 -3.623094 0.035795
v 69.420764 65.570305 -23.796782
vn -5.131175 -3.625994 0.039819
v 69.183945 65.889617 -25.326972
vn -5.129232 -3.628757 0.038696
v 68.946364 66.233496 -24.576410
vn -5.117277 -3.645612 0.033511
v 68.365826 67.059740 -23.930710
vn -5.134388 -3.621547 0.028647
v 72.673287 60.894381 -28.987094
vn -5.143008 -3.608832 0.063902
v 72.529235 61.059411 -31.866011
vn -5.139202 -3.614378 0.057295
v 72.587279 60.989845 -30.992329
vn -2.455986 -1.728439 0.029107
v 73.078375 60.294650 -30.822725
vn -5.134312 -3.621422 0.048395
v 72.661155 60.902267 -29.970249
vn -5.093818 -3.678393 0.025915
v 66.998802 68.986977 -21.648117
vn -5.094383 -3.677711 0.009288
v 67.118126 68.825133 -20.710834
vn -5.093446 -3.678995 0.014647
v 66.556423 69.601384 -20.942006
vn -5.117943 -3.644382 0.059419
v 68.153549 67.233325 -31.852738
vn -2.543658 -1.811660 0.027152
v 68.048500 67.366350 -32.821150
vn -5.121055 -3.640059 0.056107
v 68.466807 66.780458 -32.723599
vn -5.115250 -3.648154 0.060046
v 69.236312 65.776705 -28.169337
vn -2.525767 -1.812033 0.018969
v 66.640550 69.460000 -24.388550
vn -2.558367 -1.823295 0.035645
v 69.855700 64.784825 -35.096325
vn -5.148107 -3.601845 0.046052
v 71.396670 62.725005 -27.922500
vn -5.114721 -3.648943 0.057055
v 69.350259 65.630290 -27.331272
vn -5.110843 -3.654413 0.053942
v 68.816989 66.377916 -27.316721
vn -5.134620 -3.621133 0.038492
v 69.610270 65.292156 -24.696514
vn -5.128904 -3.629288 0.027716
v 69.675971 65.187867 -25.690050
vn -5.128056 -3.630577 0.017568
v 70.257929 64.366625 -26.028528
vn -5.140690 -3.612481 0.036118
v 70.931385 63.410703 -26.415311
vn -5.098265 -3.672262 0.018186
v 67.263661 68.624153 -19.868612
vn -5.102512 -3.666310 0.030121
v 67.173139 68.756724 -19.170857
vn -5.102019 -3.666873 0.041777
v 67.476230 68.317562 -22.352972
vn -5.108092 -3.658473 0.036485
v 67.931651 67.672103 -23.136011
vn -5.127819 -3.630930 -0.013727
v 68.835841 66.415577 -16.881624
vn -2.568092 -1.814161 -0.006061
v 68.407600 67.019350 -16.178350
vn -5.133732 -3.622567 -0.014465
v 68.274723 67.210421 -17.048809
vn -5.137469 -3.617124 0.035163
v 70.012092 64.730690 -23.832928
vn -5.136820 -3.618162 0.019822
v 69.886197 64.923944 -21.919353
vn -5.138261 -3.616083 0.025058
v 70.677204 63.794741 -22.743781
vn -5.097659 -3.673045 0.029354
v 66.235417 70.049779 -20.140655
vn -5.094334 -3.677764 0.015176
v 66.074026 70.268580 -21.198557
vn -2.516419 -1.809881 0.021055
v 65.883500 70.543450 -19.754900
vn -5.118069 -3.644120 0.064645
v 68.242465 67.125857 -30.862913
vn -2.555862 -1.819522 0.032155
v 67.762450 67.798000 -30.983350
vn -5.108761 -3.657702 -0.005257
v 67.361400 68.499448 -17.741330
vn -5.132095 -3.624912 -0.002385
v 69.022820 66.150515 -20.298730
vn -5.133152 -3.623391 0.008604
v 69.469680 65.519075 -21.058914
vn -5.132758 -3.623966 0.007084
v 68.303439 67.171954 -18.674482
vn -5.114432 -3.649732 0.009804
v 67.597402 68.168869 -18.564913
vn -5.125577 -3.633611 0.061104
v 68.711386 66.423774 -33.475334
vn -2.559138 -1.813875 0.032339
v 68.798650 66.285600 -34.317050
vn -5.124312 -3.635878 -0.015201
v 69.392924 65.630439 -16.843300
vn -2.567660 -1.821437 -0.007947
v 69.468250 65.522350 -16.406950
vn -5.134250 -3.621856 0.002876
v 68.616831 66.725484 -19.510399
vn -5.141742 -3.610740 0.056302
v 70.839811 63.518723 -28.144848
vn -5.126401 -3.632341 0.065940
v 70.298299 64.281913 -28.388483
vn -5.109456 -3.656452 0.046950
v 68.348001 67.031976 -27.343883
vn -5.117089 -3.645559 0.060457
v 69.848096 64.926348 -27.728281
vn -5.120294 -3.641323 0.035697
v 69.770010 65.051158 -26.721274
vn -5.115629 -3.647932 0.032526
v 68.074111 67.484046 -22.236726
vn -5.116100 -3.647040 0.054981
v 68.196183 67.222645 -28.972156
vn -2.537617 -1.810811 0.025795
v 67.888850 67.654950 -28.858550
vn -2.484666 -1.780273 -0.009010
v 67.368050 68.485550 -16.643800
vn -5.123927 -3.636430 -0.002894
v 69.829172 65.018691 -17.575622
vn -5.101228 -3.668085 0.030279
v 66.499428 69.694879 -19.054187
vn -5.138394 -3.615918 0.021487
v 70.466510 64.099137 -21.899200
vn -5.102011 -3.667058 0.009675
v 66.936454 69.092559 -18.330489
vn -5.138998 -3.615019 0.026864
v 70.234819 64.422854 -22.872233
vn -5.133667 -3.622572 0.027881
v 70.591758 63.906153 -23.917207
vn -5.120836 -3.640269 0.062060
v 69.017068 66.004381 -32.747786
vn -5.127493 -3.631352 0.000284
v 67.977802 67.635174 -17.870656
vn -5.148910 -3.600675 0.047767
v 71.078097 63.188109 -27.335376
# 197 vertices, 0 vertices normals

f 65//65 186//186 66//66
f 26//26 68//68 69//69
f 21//21 35//35 34//34
f 71//71 72//72 73//73
f 76//76 77//77 78//78
f 79//79 80//80 81//81
f 76//76 82//82 83//83
f 88//88 89//89 90//90
f 14//14 42//42 43//43
f 91//91 92//92 93//93
f 94//94 95//95 96//96
f 189//189 45//45 44//44
f 98//98 99//99 100//100
f 102//102 101//101 103//103
f 104//104 105//105 79//79
f 106//106 107//107 108//108
f 2//2 109//109 110//110
f 94//94 111//111 109//109
f 112//112 113//113 194//194
f 77//77 114//114 115//115
f 195//195 116//116 115//115
f 117//117 118//118 119//119
f 111//111 117//117 121//121
f 122//122 31//31 123//123
f 124//124 81//81 125//125
f 127//127 97//97 128//128
f 129//129 130//130 98//98
f 124//124 131//131 132//132
f 129//129 133//133 132//132
f 85//85 134//134 54//54
f 95//95 135//135 136//136
f 136//136 137//137 138//138
f 139//139 140//140 141//141
f 144//144 142//142 143//143
f 2//2 110//110 58//58
f 145//145 65//65 83//83
f 103//103 146//146 105//105
f 72//72 138//138 134//134
f 148//148 73//73 84//84
f 2//2 58//58 135//135
f 149//149 150//150 145//145
f 151//151 131//131 152//152
f 153//153 154//154 112//112
f 90//90 96//96 71//71
f 159//159 93//93 177//177
f 9//9 166//166 47//47
f 102//102 157//157 139//139
f 158//158 104//104 133//133
f 159//159 160//160 161//161
f 151//151 162//162 130//130
f 141//141 165//165 166//166
f 47//47 166//166 60//60
f 168//168 169//169 142//142
f 171//171 172//172 127//127
f 172//172 99//99 163//163
f 173//173 196//196 174//174
f 175//175 176//176 68//68
f 26//26 119//119 116//116
f 177//177 44//44 178//178
f 106//106 171//171 179//179
f 168//168 114//114 66//66
f 118//118 89//89 78//78
f 196//196 161//161 30//30
f 195//195 144//144 175//175
f 180//180 181//181 88//88
f 150//150 125//125 182//182
f 149//149 183//183 184//184
f 157//157 158//158 185//185
f 185//185 100//100 108//108
f 4//4 182//182 64//64
f 186//186 64//64 187//187
f 181//181 183//183 82//82
f 155//155 140//140 107//107
f 184//184 153//153 152//152
f 91//91 173//173 179//179
f 30//30 188//188 170//170
f 128//128 126//126 92//92
f 3//3 65//65 66//66
f 65//65 4//4 186//186
f 66//66 186//186 62//62
f 29//29 32//32 67//67
f 29//29 67//67 59//59
f 10//10 26//26 69//69
f 69//69 68//68 33//33
f 6//6 71//71 73//73
f 71//71 1//1 72//72
f 73//73 72//72 85//85
f 87//87 86//86 37//37
f 27//27 76//76 78//78
f 76//76 3//3 77//77
f 78//78 77//77 12//12
f 13//13 79//79 81//81
f 79//79 39//39 80//80
f 81//81 80//80 52//52
f 3//3 76//76 83//83
f 76//76 27//27 82//82
f 83//83 82//82 145//145
f 84//84 85//85 40//40
f 84//84 32//32 29//29
f 32//32 84//84 40//40
f 14//14 86//86 42//42
f 87//87 42//42 86//86
f 6//6 88//88 90//90
f 88//88 27//27 89//89
f 90//90 89//89 22//22
f 18//18 91//91 93//93
f 91//91 15//15 92//92
f 93//93 92//92 189//189
f 22//22 94//94 96//96
f 94//94 2//2 95//95
f 96//96 95//95 1//1
f 14//14 97//97 86//86
f 37//37 86//86 74//74
f 20//20 98//98 100//100
f 98//98 5//5 99//99
f 100//100 99//99 25//25
f 9//9 47//47 101//101
f 48//48 101//101 47//47
f 23//23 102//102 103//103
f 102//102 9//9 101//101
f 49//49 101//101 48//48
f 49//49 103//103 101//101
f 13//13 104//104 79//79
f 104//104 23//23 105//105
f 79//79 105//105 39//39
f 25//25 106//106 108//108
f 106//106 19//19 107//107
f 108//108 107//107 7//7
f 109//109 34//34 110//110
f 34//34 109//109 21//21
f 51//51 110//110 34//34
f 2//2 94//94 109//109
f 94//94 22//22 111//111
f 109//109 111//111 21//21
f 16//16 112//112 194//194
f 112//112 59//59 113//113
f 12//12 77//77 115//115
f 77//77 3//3 114//114
f 115//115 114//114 24//24
f 24//24 195//195 115//115
f 195//195 26//26 116//116
f 115//115 116//116 12//12
f 10//10 117//117 119//119
f 117//117 22//22 118//118
f 119//119 118//118 12//12
f 120//120 31//31 122//122
f 121//121 122//122 21//21
f 21//21 111//111 121//121
f 111//111 22//22 117//117
f 121//121 117//117 10//10
f 21//21 122//122 35//35
f 123//123 35//35 122//122
f 17//17 124//124 125//125
f 124//124 13//13 81//81
f 125//125 81//81 52//52
f 126//126 43//43 45//45
f 43//43 126//126 14//14
f 189//189 126//126 45//45
f 15//15 127//127 128//128
f 127//127 11//11 97//97
f 128//128 97//97 14//14
f 20//20 129//129 98//98
f 129//129 132//132 130//130
f 98//98 130//130 5//5
f 13//13 124//124 132//132
f 124//124 17//17 131//131
f 129//129 20//20 133//133
f 132//132 133//133 13//13
f 134//134 53//53 54//54
f 85//85 54//54 40//40
f 1//1 95//95 136//136
f 95//95 2//2 135//135
f 136//136 135//135 55//55
f 137//137 136//136 55//55
f 1//1 136//136 138//138
f 138//138 137//137 56//56
f 9//9 139//139 141//141
f 139//139 7//7 140//140
f 141//141 140//140 8//8
f 41//41 175//175 144//144
f 144//144 24//24 142//142
f 143//143 142//142 57//57
f 110//110 51//51 58//58
f 145//145 4//4 65//65
f 83//83 65//65 3//3
f 23//23 103//103 105//105
f 103//103 49//49 146//146
f 105//105 146//146 39//39
f 85//85 72//72 134//134
f 72//72 1//1 138//138
f 134//134 56//56 53//53
f 134//134 138//138 56//56
f 147//147 31//31 120//120
f 29//29 148//148 84//84
f 148//148 6//6 73//73
f 84//84 73//73 85//85
f 135//135 58//58 55//55
f 149//149 17//17 150//150
f 145//145 150//150 4//4
f 16//16 151//151 152//152
f 151//151 132//132 131//131
f 152//152 131//131 17//17
f 16//16 153//153 112//112
f 153//153 28//28 154//154
f 112//112 154//154 59//59
f 6//6 90//90 71//71
f 90//90 22//22 96//96
f 71//71 96//96 1//1
f 159//159 18//18 93//93
f 170//170 192//192 174//174
f 9//9 102//102 139//139
f 102//102 23//23 157//157
f 139//139 157//157 7//7
f 20//20 158//158 133//133
f 158//158 23//23 104//104
f 133//133 104//104 13//13
f 18//18 159//159 161//161
f 159//159 50//50 160//160
f 161//161 160//160 63//63
f 132//132 151//151 130//130
f 151//151 16//16 162//162
f 130//130 162//162 5//5
f 163//163 5//5 193//193
f 75//75 191//191 164//164
f 9//9 141//141 166//166
f 141//141 8//8 165//165
f 166//166 165//165 61//61
f 166//166 61//61 60//60
f 8//8 190//190 165//165
f 190//190 46//46 167//167
f 165//165 167//167 61//61
f 24//24 168//168 142//142
f 168//168 62//62 169//169
f 142//142 169//169 57//57
f 15//15 171//171 127//127
f 171//171 25//25 172//172
f 127//127 172//172 11//11
f 11//11 172//172 163//163
f 172//172 25//25 99//99
f 163//163 99//99 5//5
f 19//19 173//173 174//174
f 173//173 18//18 196//196
f 170//170 196//196 30//30
f 175//175 41//41 176//176
f 68//68 176//176 33//33
f 26//26 10//10 119//119
f 116//116 119//119 12//12
f 44//44 177//177 189//189
f 50//50 177//177 178//178
f 177//177 50//50 159//159
f 19//19 106//106 179//179
f 106//106 25//25 171//171
f 179//179 171//171 15//15
f 62//62 168//168 66//66
f 168//168 24//24 114//114
f 66//66 114//114 3//3
f 12//12 118//118 78//78
f 118//118 22//22 89//89
f 78//78 89//89 27//27
f 120//120 10//10 69//69
f 147//147 69//69 33//33
f 147//147 120//120 69//69
f 196//196 18//18 161//161
f 30//30 161//161 63//63
f 162//162 16//16 194//194
f 164//164 194//194 38//38
f 68//68 195//195 175//175
f 195//195 24//24 144//144
f 41//41 144//144 143//143
f 6//6 180//180 88//88
f 180//180 28//28 181//181
f 88//88 181//181 27//27
f 4//4 150//150 182//182
f 150//150 17//17 125//125
f 182//182 125//125 52//52
f 17//17 149//149 184//184
f 149//149 145//145 183//183
f 184//184 183//183 28//28
f 7//7 157//157 185//185
f 157//157 23//23 158//158
f 185//185 158//158 20//20
f 7//7 185//185 108//108
f 185//185 20//20 100//100
f 108//108 100//100 25//25
f 182//182 52//52 64//64
f 64//64 186//186 4//4
f 187//187 62//62 186//186
f 28//28 180//180 197//197
f 180//180 6//6 148//148
f 154//154 197//197 29//29
f 27//27 181//181 82//82
f 181//181 28//28 183//183
f 82//82 183//183 145//145
f 155//155 8//8 140//140
f 107//107 140//140 7//7
f 17//17 184//184 152//152
f 184//184 28//28 153//153
f 152//152 153//153 16//16
f 15//15 91//91 179//179
f 91//91 18//18 173//173
f 179//179 173//173 19//19
f 30//30 63//63 188//188
f 170//170 188//188 36//36
f 15//15 128//128 92//92
f 128//128 14//14 126//126
f 92//92 126//126 189//189
f 19//19 174//174 156//156
f 11//11 163//163 191//191
f 74//74 75//75 37//37
f 189//189 177//177 93//93
f 120//120 122//122 121//121
f 164//164 193//193 194//194
f 74//74 191//191 75//75
f 46//46 190//190 70//70
f 10//10 120//120 121//121
f 163//163 193//193 191//191
f 5//5 162//162 193//193
f 11//11 191//191 74//74
f 191//191 193//193 164//164
f 164//164 38//38 75//75
f 70//70 192//192 36//36
f 162//162 194//194 193//193
f 192//192 170//170 36//36
f 194//194 113//113 38//38
f 19//19 155//155 107//107
f 26//26 195//195 68//68
f 19//19 156//156 155//155
f 190//190 8//8 156//156
f 97//97 11//11 74//74
f 174//174 192//192 156//156
f 97//97 74//74 86//86
f 190//190 192//192 70//70
f 190//190 156//156 192//192
f 174//174 196//196 170//170
f 8//8 155//155 156//156
f 165//165 190//190 167//167
f 154//154 29//29 59//59
f 180//180 148//148 197//197
f 28//28 197//197 154//154
f 197//197 148//148 29//29
# 340 faces, 0 coords texture

# End of File
