####
#
# OBJ File Generated by Meshlab
#
####
# Object 2337_C127_S_1.obj
#
# Vertices: 96
# Faces: 158
#
####
vn -5.115071 -3.646862 -0.119227
v 73.195407 59.378155 32.228375
vn -5.108245 -3.656001 -0.132669
v 72.964465 59.623649 34.408493
vn -5.108765 -3.655473 -0.128123
v 72.856499 59.912488 30.304976
vn -5.089235 -3.682680 -0.125730
v 69.916512 63.799219 35.870610
vn -5.094647 -3.674907 -0.133450
v 70.759697 62.695819 34.236366
vn -5.100947 -3.665882 -0.141561
v 70.007822 63.927345 28.974464
vn -5.100515 -3.666817 -0.132261
v 71.924617 61.127726 32.840412
vn -5.098880 -3.669188 -0.127836
v 71.477300 61.820419 30.924790
vn -5.093164 -3.677039 -0.132057
v 70.515389 63.104588 32.157439
vn -5.098319 -3.669501 -0.142260
v 71.169189 62.314410 28.928333
vn -5.096759 -3.672151 -0.128033
v 71.952515 61.004706 34.999222
vn -5.094931 -3.674614 -0.131163
v 70.425936 63.271242 30.957050
vn -5.090847 -3.680076 -0.136765
v 69.351070 64.662521 33.656748
vn -5.109531 -3.654398 -0.128265
v 72.379690 60.563875 30.735271
vn -5.107572 -3.656932 -0.133959
v 72.391855 60.587156 29.619850
vn -5.097153 -3.672030 -0.116406
v 71.052696 62.213032 36.309953
vn -2.261973 -1.610846 -0.058409
v 73.372300 59.036000 34.821100
vn -2.237028 -1.613236 -0.066138
v 68.526600 65.922500 30.664900
vn -2.313452 -1.650954 -0.057319
v 73.353250 59.225450 30.086350
vn -2.493027 -1.791781 -0.058078
v 72.587400 60.079100 36.415900
vn -2.224865 -1.613076 -0.051783
v 69.576900 64.230200 37.022600
vn -2.524142 -1.816067 -0.073011
v 70.501400 63.280000 28.010600
vn -2.260860 -1.626778 -0.066116
v 70.848300 62.804500 27.842700
vn -2.483841 -1.780647 -0.068877
v 69.341500 64.854200 29.039000
vn -2.222139 -1.597133 -0.059984
v 69.783700 64.260800 28.398600
vn -2.344965 -1.689916 -0.046825
v 70.528200 62.906600 37.527900
vn -2.234296 -1.609119 -0.047394
v 71.260400 61.889100 37.507900
vn -2.155528 -1.549690 -0.046736
v 72.429900 60.289500 36.696600
vn -2.273484 -1.634303 -0.068038
v 71.819700 61.450100 27.972200
vn -2.296854 -1.624791 -0.051205
v 73.709000 58.659700 31.981600
vn -2.206356 -1.577726 -0.059950
v 72.740100 60.133300 28.739700
vn -2.445197 -1.735843 -0.060335
v 73.678200 58.673000 32.956500
vn -2.433401 -1.730421 -0.062808
v 73.565100 58.796900 33.916500
vn -2.406078 -1.728213 -0.069385
v 68.862900 65.489900 29.854900
vn -2.338866 -1.688722 -0.067196
v 68.279400 66.188800 32.577900
vn -2.314095 -1.675965 -0.059955
v 68.448825 65.871475 34.670125
vn -2.607589 -1.876796 -0.056110
v 72.179900 60.633100 36.843100
vn -2.276058 -1.645059 -0.057644
v 68.799850 65.348200 35.816700
vn -2.475814 -1.792032 -0.049949
v 70.310400 63.210800 37.438400
vn -2.562645 -1.832344 -0.065826
v 73.009400 59.518000 35.550550
vn -2.504278 -1.806348 -0.071732
v 68.382525 66.082025 31.659400
vn -5.094525 -3.675105 -0.132760
v 70.766480 62.836550 29.898153
vn -5.096433 -3.672894 -0.120547
v 71.329808 62.053561 30.028151
vn -5.088438 -3.683803 -0.125618
v 70.981304 62.513426 30.695674
vn -5.087936 -3.684062 -0.137871
v 70.292803 63.311650 35.005482
vn -5.097034 -3.671555 -0.134609
v 70.894195 62.470614 35.281407
vn -5.090889 -3.680524 -0.121309
v 70.487196 63.005705 36.005556
vn -2.528066 -1.824582 -0.062489
v 69.208300 64.759950 36.465050
vn -5.093614 -3.676512 -0.129446
v 69.363701 64.567631 35.793541
vn -5.103213 -3.663415 -0.122439
v 72.622355 60.166038 32.540580
vn -5.111882 -3.651006 -0.130473
v 73.094324 59.482839 33.269333
vn -5.100055 -3.667334 -0.135730
v 72.494620 60.307532 33.584641
vn -5.099589 -3.667615 -0.145586
v 70.591981 63.117684 28.909354
vn -5.092205 -3.678625 -0.124747
v 70.634547 62.904184 33.202769
vn -5.088502 -3.683492 -0.131935
v 70.087007 63.635784 33.939164
vn -5.092817 -3.677442 -0.133991
v 69.942201 63.872996 32.853321
vn -5.100893 -3.666144 -0.136618
v 69.723781 64.255884 30.724252
vn -5.097548 -3.670796 -0.136500
v 69.858920 64.031505 31.746049
vn -5.101354 -3.665551 -0.134301
v 71.653046 61.542999 31.816568
vn -5.093467 -3.676614 -0.132031
v 71.190862 62.155534 32.527097
vn -5.089950 -3.681324 -0.136537
v 71.036055 62.407676 31.540234
vn -5.098871 -3.669052 -0.133547
v 71.306658 61.960693 33.551289
vn -5.107098 -3.657981 -0.122445
v 71.891675 61.263616 30.278954
vn -5.111475 -3.651652 -0.129129
v 71.953612 61.147088 31.108508
vn -5.104033 -3.661733 -0.137567
v 71.368708 61.832975 34.599790
vn -5.101018 -3.666481 -0.121547
v 71.478931 61.642473 35.623636
vn -5.096139 -3.673510 -0.114427
v 72.098925 60.769717 36.038419
vn -5.096438 -3.673418 -0.103546
v 70.647978 62.757550 36.908699
vn -5.101286 -3.665682 -0.133055
v 71.755629 61.481220 29.374033
vn -5.098998 -3.668235 -0.150586
v 71.698485 61.594383 28.556831
vn -5.103626 -3.661976 -0.145715
v 72.142310 60.964005 28.887405
vn -2.491189 -1.763388 -0.058935
v 73.538000 58.935550 30.928225
vn -2.515530 -1.803325 -0.072044
v 72.191250 60.920350 28.259775
vn -2.548790 -1.835106 -0.075229
v 71.334000 62.127300 27.907450
vn -5.090474 -3.680644 -0.135325
v 69.657361 64.196242 34.813364
vn -5.100732 -3.666274 -0.139161
v 70.179558 63.654242 29.860344
vn -5.099566 -3.667730 -0.143393
v 71.909406 61.103382 34.001197
vn -5.107075 -3.658005 -0.122997
v 72.233080 60.732208 31.789882
vn -5.099196 -3.668110 -0.146719
v 69.054878 65.190259 30.659885
vn -5.094754 -3.674464 -0.142172
v 69.299412 64.782092 32.407955
vn -5.091944 -3.678195 -0.146254
v 68.788043 65.467727 32.998964
vn -5.093878 -3.675613 -0.143858
v 68.763448 65.540748 31.996609
vn -5.089174 -3.682265 -0.139623
v 68.787253 65.431461 33.913575
vn -2.447743 -1.768373 -0.071158
v 68.312250 66.107600 33.448050
vn -5.104109 -3.661454 -0.142268
v 69.539681 64.547639 29.804227
vn -5.094391 -3.675239 -0.134565
v 72.404658 60.397107 34.485226
vn -5.089495 -3.682174 -0.130373
v 69.058478 65.027679 34.766225
vn -2.560834 -1.831649 -0.068160
v 73.007750 59.737100 29.332600
vn -5.096439 -3.673221 -0.110321
v 71.626750 61.408919 36.564750
vn -2.548271 -1.836550 -0.054796
v 71.720150 61.261100 37.175500
vn -5.086645 -3.686872 -0.106327
v 70.184801 63.406303 36.649297
vn -5.096793 -3.671623 -0.142419
v 69.218462 64.933962 31.388397
vn -5.104720 -3.661425 -0.119177
v 72.781769 59.979383 31.424408
vn -5.116452 -3.644991 -0.118662
v 73.234869 59.357442 31.118206
vn -5.098423 -3.669999 -0.124252
v 72.538089 60.186006 35.280682
vn -5.094534 -3.674557 -0.147526
v 68.760967 65.571554 31.302313
# 96 vertices, 0 vertices normals

f 42//42 43//43 44//44
f 45//45 46//46 47//47
f 38//38 49//49 48//48
f 50//50 51//51 52//52
f 54//54 55//55 56//56
f 57//57 12//12 58//58
f 59//59 60//60 61//61
f 62//62 54//54 60//60
f 6//6 85//85 24//24
f 63//63 14//14 64//64
f 65//65 66//66 46//46
f 16//16 27//27 68//68
f 67//67 20//20 28//28
f 69//69 70//70 71//71
f 10//10 74//74 70//70
f 75//75 55//55 45//45
f 57//57 85//85 76//76
f 65//65 62//62 77//77
f 69//69 63//63 43//43
f 50//50 78//78 93//93
f 2//2 33//33 17//17
f 80//80 81//81 82//82
f 83//83 84//84 81//81
f 53//53 42//42 76//76
f 56//56 80//80 58//58
f 44//44 61//61 12//12
f 25//25 6//6 24//24
f 64//64 78//78 59//59
f 67//67 11//11 95//95
f 86//86 77//77 52//52
f 1//1 30//30 32//32
f 67//67 28//28 37//37
f 87//87 36//36 83//83
f 75//75 49//49 87//87
f 94//94 19//19 72//72
f 89//89 37//37 90//90
f 47//47 68//68 91//91
f 4//4 91//91 21//21
f 17//17 40//40 2//2
f 40//40 20//20 95//95
f 12//12 42//42 44//44
f 42//42 10//10 43//43
f 44//44 43//43 8//8
f 4//4 45//45 47//47
f 45//45 5//5 46//46
f 47//47 46//46 16//16
f 4//4 21//21 49//49
f 48//48 49//49 21//21
f 7//7 50//50 52//52
f 50//50 1//1 51//51
f 52//52 51//51 2//2
f 53//53 6//6 22//22
f 53//53 23//23 10//10
f 23//23 53//53 22//22
f 9//9 54//54 56//56
f 54//54 5//5 55//55
f 56//56 55//55 13//13
f 8//8 59//59 61//61
f 59//59 7//7 60//60
f 61//61 60//60 9//9
f 7//7 62//62 60//60
f 62//62 5//5 54//54
f 60//60 54//54 9//9
f 8//8 63//63 64//64
f 63//63 15//15 14//14
f 5//5 65//65 46//46
f 65//65 11//11 66//66
f 46//46 66//66 16//16
f 66//66 89//89 16//16
f 68//68 27//27 26//26
f 15//15 69//69 71//71
f 69//69 10//10 70//70
f 73//73 70//70 29//29
f 73//73 71//71 70//70
f 1//1 94//94 30//30
f 72//72 30//30 94//94
f 15//15 71//71 31//31
f 73//73 31//31 71//71
f 10//10 23//23 74//74
f 70//70 74//74 29//29
f 51//51 32//32 33//33
f 32//32 51//51 1//1
f 2//2 51//51 33//33
f 4//4 75//75 45//45
f 75//75 13//13 55//55
f 45//45 55//55 5//5
f 12//12 57//57 76//76
f 57//57 92//92 79//79
f 11//11 65//65 77//77
f 65//65 5//5 62//62
f 77//77 62//62 7//7
f 10//10 69//69 43//43
f 69//69 15//15 63//63
f 43//43 63//63 8//8
f 94//94 1//1 93//93
f 3//3 93//93 14//14
f 1//1 50//50 93//93
f 50//50 7//7 78//78
f 93//93 78//78 14//14
f 88//88 3//3 15//15
f 79//79 18//18 34//34
f 92//92 80//80 82//82
f 80//80 13//13 81//81
f 82//82 81//81 35//35
f 79//79 96//96 18//18
f 41//41 82//82 35//35
f 13//13 83//83 81//81
f 83//83 36//36 84//84
f 81//81 84//84 35//35
f 6//6 53//53 76//76
f 53//53 10//10 42//42
f 76//76 42//42 12//12
f 9//9 56//56 58//58
f 56//56 13//13 80//80
f 44//44 8//8 61//61
f 12//12 61//61 9//9
f 6//6 25//25 22//22
f 85//85 57//57 79//79
f 85//85 79//79 34//34
f 85//85 34//34 24//24
f 8//8 64//64 59//59
f 64//64 14//14 78//78
f 59//59 78//78 7//7
f 20//20 67//67 95//95
f 2//2 86//86 52//52
f 86//86 11//11 77//77
f 52//52 77//77 7//7
f 13//13 87//87 83//83
f 87//87 38//38 36//36
f 13//13 75//75 87//87
f 75//75 4//4 49//49
f 87//87 49//49 38//38
f 31//31 88//88 15//15
f 88//88 19//19 3//3
f 37//37 89//89 67//67
f 16//16 89//89 27//27
f 90//90 27//27 89//89
f 4//4 47//47 91//91
f 47//47 16//16 68//68
f 39//39 68//68 26//26
f 39//39 91//91 68//68
f 91//91 39//39 21//21
f 92//92 57//57 58//58
f 76//76 85//85 6//6
f 58//58 80//80 92//92
f 40//40 95//95 2//2
f 67//67 89//89 66//66
f 19//19 94//94 3//3
f 58//58 12//12 9//9
f 11//11 67//67 66//66
f 3//3 14//14 15//15
f 95//95 11//11 86//86
f 94//94 93//93 3//3
f 95//95 86//86 2//2
f 82//82 41//41 96//96
f 92//92 96//96 79//79
f 96//96 41//41 18//18
f 82//82 96//96 92//92
# 158 faces, 0 coords texture

# End of File
