####
#
# OBJ File Generated by Meshlab
#
####
# Object 2343_C127_S_7.obj
#
# Vertices: 97
# Faces: 161
#
####
vn -5.129616 -3.627963 -0.057103
v 70.973301 63.251951 2.286273
vn -5.102455 -3.665934 -0.065187
v 68.325142 66.913492 5.087654
vn -5.113373 -3.650524 -0.064678
v 69.448378 65.351167 5.345953
vn -5.110076 -3.655404 -0.058296
v 68.924780 66.172102 -0.238835
vn -5.122776 -3.637430 -0.067288
v 70.181068 64.344842 3.749670
vn -5.114223 -3.649600 -0.056626
v 69.681432 65.077151 2.045966
vn -5.103970 -3.663770 -0.067339
v 66.871566 68.991731 2.467696
vn -5.105482 -3.661776 -0.061818
v 69.065808 65.909444 3.507211
vn -5.106906 -3.659719 -0.066155
v 68.015636 67.381286 3.071934
vn -5.110782 -3.654345 -0.063092
v 67.254102 68.414530 4.679116
vn -5.107064 -3.659568 -0.061817
v 69.029966 65.988111 1.938253
vn -5.103023 -3.665032 -0.071339
v 68.666069 66.401893 7.079207
vn -5.126278 -3.632566 -0.060468
v 70.568372 63.757780 5.609738
vn -5.110393 -3.654844 -0.065485
v 67.938252 67.525585 0.992931
vn -5.125699 -3.633272 -0.069261
v 71.273691 62.796763 4.143801
vn -2.166250 -1.545860 -0.034772
v 69.952000 64.596900 7.688440
vn -2.601265 -1.838359 -0.029882
v 71.563700 62.389100 3.992940
vn -2.278187 -1.615750 -0.024069
v 70.810300 63.515400 0.097106
vn -2.325194 -1.652863 -0.023462
v 70.031700 64.625400 -0.814414
vn -2.271269 -1.624739 -0.026790
v 68.051500 67.401300 -1.029160
vn -2.268063 -1.618219 -0.032157
v 66.995750 68.866100 0.184604
vn -2.238379 -1.606875 -0.031168
v 68.883900 66.079700 8.050700
vn -2.350574 -1.669768 -0.018861
v 70.732500 63.514500 6.708580
vn -2.601188 -1.849647 -0.026603
v 70.214700 64.235600 7.337170
vn -2.293725 -1.630189 -0.027763
v 71.191800 62.877600 5.769530
vn -2.646105 -1.878660 -0.037331
v 71.474400 62.505600 4.562120
vn -2.664625 -1.895148 -0.027130
v 69.835000 64.903300 -0.920934
vn -2.039456 -1.454921 -0.022250
v 69.177300 65.837000 -1.446870
vn -2.126677 -1.503490 -0.025874
v 71.571000 62.374500 4.243800
vn -2.267041 -1.622631 -0.033244
v 67.266750 68.350500 7.190180
vn -2.205234 -1.556429 -0.023914
v 71.434400 62.608500 1.623030
vn -2.479742 -1.778906 -0.033883
v 67.593300 67.890700 7.460680
vn -2.294418 -1.654315 -0.026768
v 66.204400 69.912600 2.738340
vn -2.267369 -1.638024 -0.031027
v 66.383300 69.682600 1.654600
vn -2.364726 -1.684141 -0.030557
v 66.776405 69.059329 6.301658
vn -2.250706 -1.612973 -0.025567
v 66.246529 69.825585 4.545622
vn -2.437875 -1.720085 -0.026471
v 71.558525 62.412500 2.909055
vn -5.121150 -3.639987 -0.052174
v 69.935767 64.748120 0.043523
vn -2.561656 -1.818469 -0.026320
v 70.421000 64.070400 -0.358654
vn -5.123954 -3.636018 -0.053653
v 70.375218 64.120508 0.635336
vn -5.119548 -3.641921 -0.070836
v 67.467995 68.193913 0.597743
vn -2.532012 -1.798773 -0.031903
v 67.541650 68.109300 -0.465899
vn -5.112551 -3.651866 -0.062218
v 67.992130 67.467483 -0.028926
vn -5.128260 -3.629947 -0.051408
v 70.165894 64.314901 6.434576
vn -5.104018 -3.663823 -0.061742
v 68.456287 66.814391 0.376550
vn -5.103988 -3.663915 -0.058690
v 68.470720 66.809193 -0.526845
vn -5.121158 -3.639487 -0.079079
v 70.955440 63.230011 4.788285
vn -5.124168 -3.635530 -0.060100
v 69.811972 64.852555 4.518339
vn -5.104601 -3.663159 -0.050224
v 69.253979 65.635150 4.401002
vn -5.111776 -3.653013 -0.059049
v 69.610723 65.145358 3.632086
vn -5.115690 -3.647561 -0.058031
v 69.431207 65.451799 0.410600
vn -5.119373 -3.642457 -0.054270
v 69.526668 65.330879 -0.505728
vn -5.096259 -3.674565 -0.063707
v 68.884695 66.134946 5.231560
vn -5.101089 -3.667910 -0.060429
v 68.700283 66.405304 4.263210
vn -5.128051 -3.630206 -0.055580
v 70.848747 63.444357 1.200169
vn -5.128939 -3.628514 -0.078196
v 70.378169 64.046231 4.652402
vn -5.124293 -3.635185 -0.072945
v 70.762024 63.522358 3.931593
vn -5.119259 -3.642209 -0.070575
v 69.633986 65.071515 6.319222
vn -5.135163 -3.619942 -0.066911
v 70.001909 64.563610 5.456030
vn -2.557008 -1.807971 -0.028305
v 71.089625 63.110400 0.771232
vn -5.105996 -3.660961 -0.067775
v 68.071141 67.235300 6.876704
vn -2.405099 -1.724660 -0.032588
v 68.169450 67.080175 7.832320
vn -5.105218 -3.662070 -0.066358
v 68.539570 66.646274 3.322050
vn -5.104559 -3.663000 -0.065743
v 68.455681 66.780079 2.402535
vn -5.104848 -3.662574 -0.067097
v 68.901210 66.152577 2.749688
vn -5.118728 -3.643356 -0.053900
v 69.868616 64.827669 1.089694
vn -5.111551 -3.653378 -0.056298
v 69.384722 65.500907 1.303317
vn -5.112925 -3.651322 -0.064005
v 67.403147 68.188502 5.682574
vn -5.105865 -3.661177 -0.065930
v 67.783455 67.672337 4.897138
vn -5.106054 -3.660911 -0.066005
v 67.933983 67.444047 5.914165
vn -5.110547 -3.654736 -0.059364
v 66.747669 69.125488 4.531300
vn -5.125797 -3.633310 -0.060645
v 70.559750 63.823668 2.989939
vn -5.107961 -3.658191 -0.068889
v 69.388135 65.473018 2.806686
vn -5.118613 -3.643313 -0.065056
v 69.965410 64.664268 2.876811
vn -5.124893 -3.634660 -0.055930
v 70.338509 64.153750 1.876460
vn -5.098947 -3.670601 -0.076172
v 69.070523 65.857802 6.225106
vn -5.100797 -3.668163 -0.069163
v 68.497372 66.655012 6.095380
vn -5.105645 -3.661486 -0.065761
v 68.158089 67.164532 4.080021
vn -5.107757 -3.658494 -0.068138
v 67.623376 67.914262 3.856176
vn -5.115374 -3.648017 -0.056208
v 66.908094 68.889465 5.419970
vn -2.470037 -1.766935 -0.024504
v 66.444500 69.539250 5.310035
vn -5.109988 -3.655340 -0.070198
v 67.087724 68.667227 3.633717
vn -2.545870 -1.840118 -0.038706
v 66.671500 69.298750 0.963223
vn -5.104956 -3.662167 -0.076620
v 66.962612 68.889565 1.268489
vn -5.104267 -3.663446 -0.063548
v 68.435745 66.825313 1.409724
vn -5.109221 -3.656539 -0.062801
v 68.936758 66.136732 0.844553
vn -5.103423 -3.664584 -0.064292
v 66.565876 69.398088 3.571837
vn -2.544714 -1.834541 -0.029006
v 66.223650 69.872150 3.612600
vn -5.110162 -3.655159 -0.066797
v 67.480723 68.134362 2.781444
vn -5.102389 -3.665820 -0.076127
v 69.237915 65.604089 7.174814
vn -2.571438 -1.845694 -0.037769
v 69.304600 65.496950 7.897390
vn -5.107516 -3.658904 -0.063888
v 67.940454 67.504149 2.040489
vn -5.114244 -3.649366 -0.070504
v 67.428965 68.225778 1.684697
vn -2.536909 -1.819183 -0.027412
v 68.552550 66.705950 -1.224742
vn -5.129359 -3.628302 -0.058898
v 71.122529 63.023757 3.338789
vn -5.112079 -3.652411 -0.069735
v 67.401254 68.176885 6.491926
vn -5.114466 -3.648972 -0.071775
v 69.771657 64.860831 7.189989
# 97 vertices, 0 vertices normals

f 38//38 39//39 40//40
f 41//41 42//42 43//43
f 12//12 22//22 62//62
f 13//13 25//25 23//23
f 45//45 43//43 46//46
f 13//13 47//47 25//25
f 48//48 49//49 50//50
f 51//51 52//52 38//38
f 49//49 53//53 54//54
f 75//75 40//40 55//55
f 4//4 28//28 52//52
f 47//47 56//56 57//57
f 15//15 17//17 29//29
f 44//44 58//58 59//59
f 97//97 24//24 16//16
f 7//7 33//33 34//34
f 63//63 64//64 65//65
f 66//66 6//6 67//67
f 96//96 30//30 35//35
f 68//68 69//69 70//70
f 57//57 72//72 95//95
f 50//50 73//73 74//74
f 74//74 75//75 72//72
f 1//1 31//31 37//37
f 76//76 77//77 53//53
f 90//90 76//76 58//58
f 78//78 69//69 79//79
f 80//80 35//35 81//81
f 87//87 82//82 71//71
f 35//35 68//68 96//96
f 73//73 65//65 11//11
f 54//54 78//78 63//63
f 21//21 84//84 83//83
f 85//85 45//45 86//86
f 51//51 67//67 86//86
f 96//96 32//32 30//30
f 61//61 70//70 77//77
f 87//87 36//36 88//88
f 89//89 79//79 82//82
f 59//59 48//48 56//56
f 85//85 64//64 92//92
f 93//93 92//92 89//89
f 93//93 84//84 41//41
f 15//15 29//29 26//26
f 37//37 95//95 1//1
f 15//15 95//95 17//17
f 37//37 17//17 95//95
f 66//66 38//38 40//40
f 38//38 19//19 39//39
f 40//40 39//39 18//18
f 14//14 41//41 43//43
f 41//41 21//21 42//42
f 43//43 42//42 20//20
f 44//44 23//23 24//24
f 23//23 44//44 13//13
f 97//97 44//44 24//24
f 4//4 45//45 46//46
f 45//45 14//14 43//43
f 46//46 43//43 20//20
f 94//94 46//46 20//20
f 26//26 47//47 15//15
f 47//47 26//26 25//25
f 5//5 48//48 50//50
f 48//48 3//3 49//49
f 50//50 49//49 8//8
f 66//66 51//51 38//38
f 51//51 4//4 52//52
f 52//52 19//19 38//38
f 52//52 27//27 19//19
f 8//8 49//49 54//54
f 49//49 3//3 53//53
f 54//54 53//53 2//2
f 1//1 75//75 55//55
f 75//75 66//66 40//40
f 55//55 40//40 18//18
f 60//60 55//55 18//18
f 52//52 28//28 27//27
f 15//15 47//47 57//57
f 47//47 13//13 56//56
f 57//57 56//56 5//5
f 13//13 44//44 59//59
f 44//44 97//97 58//58
f 59//59 58//58 3//3
f 1//1 55//55 31//31
f 60//60 31//31 55//55
f 61//61 62//62 32//32
f 62//62 61//61 12//12
f 61//61 32//32 96//96
f 8//8 63//63 65//65
f 63//63 9//9 64//64
f 65//65 64//64 11//11
f 67//67 6//6 11//11
f 68//68 10//10 69//69
f 70//70 69//69 2//2
f 80//80 81//81 71//71
f 80//80 71//71 10//10
f 15//15 57//57 95//95
f 57//57 5//5 72//72
f 5//5 50//50 74//74
f 50//50 8//8 73//73
f 74//74 73//73 6//6
f 5//5 74//74 72//72
f 74//74 6//6 75//75
f 72//72 75//75 1//1
f 66//66 75//75 6//6
f 3//3 76//76 53//53
f 76//76 12//12 77//77
f 53//53 77//77 2//2
f 97//97 90//90 58//58
f 90//90 12//12 76//76
f 58//58 76//76 3//3
f 9//9 78//78 79//79
f 78//78 2//2 69//69
f 79//79 69//69 10//10
f 81//81 36//36 71//71
f 36//36 87//87 71//71
f 87//87 7//7 82//82
f 71//71 82//82 10//10
f 35//35 80//80 68//68
f 80//80 10//10 68//68
f 6//6 73//73 11//11
f 73//73 8//8 65//65
f 8//8 54//54 63//63
f 54//54 2//2 78//78
f 63//63 78//78 9//9
f 7//7 34//34 84//84
f 83//83 84//84 34//34
f 11//11 85//85 86//86
f 85//85 14//14 45//45
f 86//86 45//45 4//4
f 51//51 66//66 67//67
f 86//86 67//67 11//11
f 12//12 61//61 77//77
f 61//61 96//96 70//70
f 77//77 70//70 2//2
f 7//7 87//87 33//33
f 88//88 33//33 87//87
f 7//7 89//89 82//82
f 89//89 9//9 79//79
f 82//82 79//79 10//10
f 16//16 91//91 97//97
f 12//12 90//90 22//22
f 91//91 22//22 90//90
f 13//13 59//59 56//56
f 59//59 3//3 48//48
f 56//56 48//48 5//5
f 14//14 85//85 92//92
f 85//85 11//11 64//64
f 92//92 64//64 9//9
f 7//7 93//93 89//89
f 93//93 14//14 92//92
f 89//89 92//92 9//9
f 14//14 93//93 41//41
f 93//93 7//7 84//84
f 41//41 84//84 21//21
f 96//96 68//68 70//70
f 95//95 72//72 1//1
f 90//90 97//97 91//91
f 94//94 28//28 4//4
f 94//94 4//4 46//46
f 4//4 51//51 86//86
# 161 faces, 0 coords texture

# End of File
