####
#
# OBJ File Generated by Meshlab
#
####
# Object 2354_C128_S_8.obj
#
# Vertices: 93
# Faces: 154
#
####
vn -5.132155 -3.624330 -0.058681
v 70.675452 64.740901 1.634644
vn -5.116235 -3.646526 -0.072100
v 69.336518 66.531237 6.890904
vn -5.125899 -3.633142 -0.059325
v 70.434914 65.013230 5.894032
vn -5.116002 -3.646880 -0.071189
v 69.486801 66.367237 4.723444
vn -5.119139 -3.642434 -0.064042
v 69.644173 66.193355 2.512432
vn -5.112260 -3.652284 -0.062534
v 68.548422 67.704187 3.304197
vn -5.120752 -3.640308 -0.066236
v 68.263216 68.063368 5.640056
vn -5.117512 -3.644935 -0.061750
v 67.583898 69.080032 1.925990
vn -5.123956 -3.635768 -0.062557
v 69.782546 66.029630 0.484393
vn -5.134628 -3.620706 -0.066302
v 71.547414 63.485587 3.026001
vn -5.133142 -3.622840 -0.065309
v 70.517242 64.929553 3.811333
vn -5.111611 -3.653117 -0.064953
v 68.697131 67.531346 1.139222
vn -5.117735 -3.644707 -0.056521
v 67.378639 69.339464 3.920184
vn -2.294844 -1.618085 -0.026304
v 70.899450 64.452100 -0.360005
vn -2.252449 -1.602280 -0.033104
v 69.256100 66.619800 8.052340
vn -2.175504 -1.528932 -0.029009
v 72.009800 62.834250 2.617940
vn -2.515641 -1.776780 -0.033130
v 71.943825 62.906625 3.940667
vn -2.277721 -1.611312 -0.020984
v 71.276350 63.814350 6.521110
vn -2.247482 -1.599812 -0.025906
v 71.558700 63.513700 0.747511
vn -2.289924 -1.634277 -0.029004
v 70.384800 65.054400 7.608900
vn -2.222220 -1.570664 -0.033438
v 70.041500 65.694400 -1.041990
vn -2.226473 -1.574290 -0.023933
v 71.854900 63.013500 4.961710
vn -2.522358 -1.791783 -0.033730
v 68.462500 67.899500 -0.818958
vn -2.318332 -1.656426 -0.032714
v 67.502400 69.231200 0.149705
vn -2.350457 -1.668121 -0.028805
v 68.514200 67.675550 7.817660
vn -2.375924 -1.691016 -0.029285
v 66.689700 70.324300 2.905660
vn -2.289339 -1.634520 -0.029191
v 67.033400 69.865600 1.102560
vn -2.262432 -1.619644 -0.025601
v 66.666400 70.330400 4.110520
vn -2.232197 -1.593461 -0.029573
v 68.750350 67.498500 -1.032180
vn -2.559744 -1.813503 -0.039764
v 71.766000 63.205200 1.594660
vn -2.521943 -1.798708 -0.028448
v 68.287400 67.996900 7.632900
vn -2.269456 -1.615566 -0.033184
v 67.677500 68.857700 7.079700
vn -2.267395 -1.608460 -0.026357
v 67.001300 69.846500 5.725230
vn -5.126571 -3.632156 -0.063929
v 71.109943 64.116586 2.273941
vn -5.131438 -3.625230 -0.066123
v 71.031464 64.210348 3.344105
vn -5.134785 -3.620601 -0.059442
v 70.599912 64.830352 2.710811
vn -5.140582 -3.612431 -0.056370
v 70.239074 65.370956 1.057460
vn -5.144007 -3.607359 -0.066341
v 70.336946 65.245856 0.112524
vn -5.129970 -3.627510 -0.050978
v 70.760414 64.635212 0.628679
vn -5.125587 -3.633519 -0.063832
v 68.750040 67.352229 7.297105
vn -5.134728 -3.620821 -0.048591
v 70.982453 64.242307 5.358524
vn -2.547607 -1.815542 -0.022944
v 71.241000 63.965700 0.206672
vn -5.120256 -3.641118 -0.059308
v 71.151674 64.078109 1.205349
vn -5.139896 -3.613358 -0.059363
v 70.163255 65.462447 2.080785
vn -5.135258 -3.619728 -0.070206
v 70.085827 65.554296 3.170700
vn -5.111520 -3.653175 -0.071104
v 69.893712 65.762006 6.385972
vn -5.117951 -3.644296 -0.061945
v 70.385714 65.067535 6.782211
vn -5.107252 -3.659197 -0.068250
v 69.852760 65.803090 7.280318
vn -5.126980 -3.631293 -0.072004
v 69.891770 65.892233 -0.383967
vn -2.567395 -1.796818 -0.040866
v 70.458550 65.090450 -0.713915
vn -2.499923 -1.792814 -0.033967
v 69.891125 65.739075 7.835462
vn -5.131817 -3.624578 -0.072719
v 71.392884 63.686888 3.883863
vn -5.130840 -3.626182 -0.059431
v 71.446794 63.594500 4.709991
vn -2.520913 -1.786208 -0.029093
v 70.794950 64.484100 7.138145
vn -5.120900 -3.640153 -0.055455
v 69.709959 66.116762 1.468978
vn -2.453191 -1.743024 -0.032337
v 68.052100 68.471200 -0.474507
vn -5.113748 -3.649913 -0.078317
v 69.410060 66.451120 5.826876
vn -5.118665 -3.643199 -0.067590
v 69.951178 65.703238 5.367132
vn -5.107843 -3.658354 -0.068795
v 69.018914 67.033547 4.025337
vn -5.113190 -3.650845 -0.070434
v 68.914178 67.160470 5.169107
vn -5.116385 -3.646481 -0.064108
v 68.431072 67.848990 4.425425
vn -5.125564 -3.633640 -0.059869
v 67.819197 68.705162 4.699746
vn -5.120671 -3.640538 -0.059865
v 67.969402 68.512878 3.646898
vn -5.120758 -3.640520 -0.053520
v 67.530119 69.140530 2.955948
vn -5.117163 -3.645381 -0.063858
v 67.072509 69.780023 3.269257
vn -5.121607 -3.639349 -0.051955
v 67.124171 69.720556 2.370113
vn -2.461011 -1.748728 -0.024228
v 66.813350 70.162075 2.074477
vn -5.116953 -3.645372 -0.077381
v 69.567752 66.277325 3.607541
vn -5.102431 -3.665940 -0.066493
v 69.106537 66.934073 2.916199
vn -5.126907 -3.631594 -0.067906
v 70.010236 65.636865 4.279497
vn -5.108676 -3.657333 -0.059603
v 68.625638 67.613633 2.220744
vn -5.101352 -3.667632 -0.055571
v 69.172578 66.859259 1.848902
vn -5.119092 -3.642612 -0.067124
v 68.829951 67.254382 6.292195
vn -2.542746 -1.797769 -0.020893
v 71.601250 63.364200 5.668270
vn -5.107759 -3.658513 -0.066939
v 69.296182 66.721030 -0.186108
vn -2.547069 -1.822753 -0.031812
v 69.422100 66.560050 -1.042455
vn -5.127971 -3.629971 -0.074515
v 71.541800 63.515260 1.886345
vn -5.136206 -3.618478 -0.065678
v 70.953771 64.299484 4.362309
vn -5.132470 -3.623901 -0.057448
v 70.466263 64.984648 4.891971
vn -5.116337 -3.646617 -0.060168
v 68.277338 68.025096 6.754086
vn -5.122765 -3.637243 -0.077061
v 67.861467 68.615303 6.335135
vn -5.117727 -3.644710 -0.057824
v 68.070823 68.385775 2.595851
vn -5.130004 -3.627205 -0.068136
v 67.603557 68.996270 5.632653
vn -5.118737 -3.643405 -0.046252
v 67.217384 69.554088 4.832652
vn -5.122871 -3.637230 -0.071838
v 68.314466 68.086591 0.320221
vn -5.113775 -3.650024 -0.069794
v 68.766318 67.455496 0.055218
vn -5.118607 -3.643240 -0.070920
v 68.115588 68.343101 1.435486
vn -5.118640 -3.643109 -0.074136
v 67.883804 68.689892 0.507625
vn -5.104576 -3.663044 -0.061242
v 69.229664 66.794786 0.812354
vn -2.552338 -1.803742 -0.042059
v 67.348100 69.339400 6.430740
vn -2.544963 -1.822791 -0.018295
v 66.825150 70.101150 4.889600
vn -5.129855 -3.627759 -0.047728
v 70.943583 64.288637 6.222122
vn -5.112219 -3.652047 -0.078240
v 67.604077 69.070537 1.032330
# 93 vertices, 0 vertices normals

f 34//34 35//35 36//36
f 37//37 38//38 39//39
f 39//39 42//42 43//43
f 44//44 36//36 45//45
f 46//46 47//47 48//48
f 49//49 50//50 38//38
f 52//52 10//10 17//17
f 92//92 54//54 47//47
f 37//37 44//44 55//55
f 23//23 85//85 56//56
f 57//57 58//58 46//46
f 59//59 60//60 61//61
f 61//61 62//62 63//63
f 64//64 65//65 66//66
f 68//68 59//59 69//69
f 45//45 70//70 68//68
f 69//69 71//71 72//72
f 57//57 73//73 60//60
f 13//13 28//28 65//65
f 75//75 76//76 49//49
f 34//34 43//43 77//77
f 16//16 77//77 30//30
f 52//52 78//78 35//35
f 41//41 79//79 78//78
f 79//79 58//58 70//70
f 10//10 77//77 16//16
f 40//40 80//80 73//73
f 7//7 80//80 81//81
f 82//82 63//63 64//64
f 62//62 83//83 84//84
f 88//88 85//85 87//87
f 89//89 86//86 75//75
f 55//55 72//72 89//89
f 82//82 87//87 71//71
f 81//81 90//90 83//83
f 84//84 33//33 91//91
f 80//80 40//40 31//31
f 1//1 34//34 36//36
f 34//34 10//10 35//35
f 36//36 35//35 11//11
f 1//1 37//37 39//39
f 37//37 9//9 38//38
f 39//39 38//38 14//14
f 15//15 40//40 2//2
f 40//40 15//15 25//25
f 17//17 10//10 16//16
f 3//3 41//41 92//92
f 1//1 39//39 43//43
f 39//39 14//14 42//42
f 43//43 42//42 19//19
f 5//5 44//44 45//45
f 44//44 1//1 36//36
f 45//45 36//36 11//11
f 2//2 46//46 48//48
f 46//46 3//3 47//47
f 48//48 47//47 20//20
f 51//51 48//48 20//20
f 9//9 49//49 38//38
f 49//49 21//21 50//50
f 38//38 50//50 14//14
f 2//2 48//48 15//15
f 51//51 15//15 48//48
f 53//53 52//52 17//17
f 53//53 17//17 22//22
f 3//3 92//92 47//47
f 92//92 18//18 54//54
f 47//47 54//54 20//20
f 9//9 37//37 55//55
f 37//37 1//1 44//44
f 55//55 44//44 5//5
f 56//56 88//88 24//24
f 2//2 57//57 46//46
f 57//57 4//4 58//58
f 46//46 58//58 3//3
f 6//6 59//59 61//61
f 59//59 4//4 60//60
f 61//61 60//60 7//7
f 6//6 61//61 63//63
f 61//61 7//7 62//62
f 63//63 62//62 13//13
f 8//8 64//64 66//66
f 64//64 13//13 65//65
f 66//66 65//65 26//26
f 67//67 66//66 26//26
f 8//8 66//66 27//27
f 67//67 27//27 66//66
f 5//5 68//68 69//69
f 68//68 4//4 59//59
f 69//69 59//59 6//6
f 5//5 45//45 68//68
f 45//45 11//11 70//70
f 68//68 70//70 4//4
f 5//5 69//69 72//72
f 69//69 6//6 71//71
f 72//72 71//71 12//12
f 4//4 57//57 60//60
f 57//57 2//2 73//73
f 60//60 73//73 7//7
f 65//65 28//28 26//26
f 53//53 22//22 74//74
f 74//74 41//41 53//53
f 9//9 75//75 49//49
f 75//75 29//29 76//76
f 49//49 76//76 21//21
f 10//10 34//34 77//77
f 34//34 1//1 43//43
f 77//77 43//43 19//19
f 77//77 19//19 30//30
f 10//10 52//52 35//35
f 52//52 53//53 78//78
f 35//35 78//78 11//11
f 53//53 41//41 78//78
f 41//41 3//3 79//79
f 78//78 79//79 11//11
f 11//11 79//79 70//70
f 79//79 3//3 58//58
f 70//70 58//58 4//4
f 2//2 40//40 73//73
f 73//73 80//80 7//7
f 25//25 31//31 40//40
f 32//32 81//81 80//80
f 8//8 82//82 64//64
f 82//82 6//6 63//63
f 64//64 63//63 13//13
f 13//13 62//62 84//84
f 62//62 7//7 83//83
f 84//84 83//83 33//33
f 12//12 85//85 86//86
f 29//29 86//86 23//23
f 8//8 93//93 87//87
f 87//87 85//85 12//12
f 88//88 93//93 24//24
f 9//9 89//89 75//75
f 89//89 12//12 86//86
f 75//75 86//86 29//29
f 9//9 55//55 89//89
f 55//55 5//5 72//72
f 89//89 72//72 12//12
f 6//6 82//82 71//71
f 82//82 8//8 87//87
f 71//71 87//87 12//12
f 7//7 81//81 83//83
f 81//81 32//32 90//90
f 83//83 90//90 33//33
f 13//13 84//84 28//28
f 91//91 28//28 84//84
f 85//85 88//88 56//56
f 86//86 85//85 23//23
f 32//32 80//80 31//31
f 18//18 92//92 74//74
f 92//92 41//41 74//74
f 93//93 88//88 87//87
f 27//27 93//93 8//8
f 93//93 27//27 24//24
# 154 faces, 0 coords texture

# End of File
