####
#
# OBJ File Generated by Meshlab
#
####
# Object 2377_C131_S_1.obj
#
# Vertices: 100
# Faces: 166
#
####
vn -5.137866 -3.615114 -0.102706
v 74.440009 61.810113 33.652471
vn -5.112623 -3.650575 -0.112990
v 71.268645 66.262575 34.178207
vn -5.125421 -3.632139 -0.124817
v 71.116039 66.582831 31.233008
vn -5.130681 -3.625108 -0.114341
v 72.360089 64.831397 30.936497
vn -5.123550 -3.635407 -0.105896
v 72.559694 64.349265 37.444675
vn -5.121580 -3.638183 -0.104928
v 72.462772 64.596297 34.031744
vn -5.130651 -3.625357 -0.106739
v 73.040593 63.732126 35.580575
vn -5.142589 -3.608676 -0.097434
v 74.591951 61.631994 31.902545
vn -5.115519 -3.646490 -0.113162
v 71.899998 65.330515 35.852838
vn -5.133479 -3.621463 -0.102481
v 74.201927 62.081551 35.560424
vn -5.132280 -3.623143 -0.103557
v 73.313633 63.435516 32.541923
vn -5.137303 -3.615838 -0.110209
v 73.588719 63.095905 30.621835
vn -5.106900 -3.658534 -0.114467
v 70.830358 66.824127 35.855811
vn -5.121521 -3.637910 -0.117556
v 71.914594 65.405810 32.550547
vn -2.560519 -1.811296 -0.052500
v 71.258025 66.419550 29.944100
vn -2.293165 -1.623205 -0.048480
v 71.520400 66.060200 29.544800
vn -2.334787 -1.660958 -0.054410
v 73.314100 63.264900 38.191500
vn -2.495239 -1.771064 -0.054166
v 73.012900 63.685700 38.262400
vn -2.608221 -1.825619 -0.059535
v 75.005600 61.079600 30.703500
vn -2.261187 -1.584985 -0.046869
v 75.300800 60.631900 31.530300
vn -2.207427 -1.551753 -0.050463
v 74.823100 61.359500 30.136900
vn -2.279619 -1.609573 -0.038665
v 74.895900 61.079500 36.346800
vn -2.240130 -1.586424 -0.037530
v 72.361000 64.609500 38.324700
vn -2.556189 -1.818464 -0.045323
v 71.736700 65.495325 37.939725
vn -2.332556 -1.636754 -0.048773
v 75.339800 60.491400 34.785500
vn -2.230694 -1.589701 -0.046193
v 71.453900 65.897600 37.762700
vn -2.274186 -1.624440 -0.054306
v 70.192000 67.771100 34.144100
vn -2.582770 -1.817775 -0.059547
v 73.413100 63.400600 28.945100
vn -2.323118 -1.634716 -0.053289
v 72.780100 64.306000 28.756400
vn -2.147013 -1.540866 -0.049323
v 70.571500 67.170100 36.311250
vn -2.270209 -1.609710 -0.049773
v 70.788300 67.062600 30.665600
vn -2.517423 -1.788451 -0.067521
v 70.564200 67.354200 31.377600
vn -2.329592 -1.644399 -0.053906
v 72.483100 64.726000 28.824300
vn -2.572361 -1.812045 -0.058742
v 74.206700 62.258600 29.398500
vn -2.201106 -1.549974 -0.050506
v 73.951200 62.631300 29.088800
vn -2.363715 -1.669300 -0.041216
v 74.262400 61.952700 37.396200
vn -2.477771 -1.734463 -0.043562
v 75.401750 60.460075 32.534325
vn -2.297323 -1.632383 -0.064362
v 70.307100 67.679600 32.295900
vn -2.498182 -1.782249 -0.064380
v 70.213200 67.763700 33.509100
vn -5.130578 -3.625169 -0.116862
v 71.727940 65.721863 31.074480
vn -5.129043 -3.627685 -0.106017
v 71.359699 66.260870 30.459900
vn -5.126494 -3.630284 -0.135521
v 71.510489 66.002144 31.866936
vn -5.121258 -3.637834 -0.130841
v 71.263279 66.318570 32.666833
vn -2.471582 -1.751060 -0.053861
v 73.897225 62.458650 37.756800
vn -5.118381 -3.642372 -0.117103
v 73.071120 63.633602 37.357144
vn -5.140660 -3.610913 -0.115188
v 74.671987 61.545137 31.043508
vn -5.120735 -3.639078 -0.116564
v 72.761297 64.095153 36.528781
vn -5.128271 -3.628785 -0.103834
v 73.304970 63.334283 36.425029
vn -5.131611 -3.623899 -0.110169
v 72.806017 64.089563 34.734519
vn -5.136744 -3.616725 -0.107052
v 73.406069 63.238599 34.626948
vn -5.136627 -3.616878 -0.107416
v 72.979232 63.956473 30.791526
vn -5.138972 -3.613861 -0.096781
v 73.468163 63.242639 31.540941
vn -5.129401 -3.627112 -0.107130
v 72.825690 64.150636 31.688683
vn -5.131967 -3.623939 -0.091413
v 74.657914 61.427205 35.903524
vn -2.547648 -1.796879 -0.049647
v 75.199500 60.675850 35.297475
vn -5.121193 -3.638849 -0.101823
v 72.000281 65.135597 37.507043
vn -5.123072 -3.635771 -0.117095
v 72.482294 64.515022 35.707664
vn -5.132737 -3.622074 -0.118038
v 72.561366 64.578073 29.947821
vn -5.131380 -3.624105 -0.113800
v 73.877323 62.562738 34.858386
vn -5.125898 -3.631689 -0.120011
v 73.908736 62.546860 34.013957
vn -5.131019 -3.624273 -0.124646
v 74.354691 61.899322 34.576027
vn -5.145225 -3.604552 -0.108654
v 74.892769 61.147967 34.187173
vn -5.135771 -3.617864 -0.114754
v 74.776602 61.281997 35.074341
vn -5.122307 -3.636808 -0.118375
v 72.214444 64.861364 36.653674
vn -5.113946 -3.648750 -0.111503
v 71.592710 65.731738 36.806147
vn -5.107643 -3.657673 -0.108720
v 71.312095 66.150144 35.898624
vn -5.105050 -3.661264 -0.109596
v 71.068545 66.472612 36.497059
vn -5.110074 -3.654176 -0.111958
v 70.981373 66.637492 35.052977
vn -2.557161 -1.827414 -0.057695
v 70.372375 67.486550 35.167850
vn -5.109426 -3.655196 -0.108259
v 71.586678 65.793476 35.007857
vn -5.137423 -3.615420 -0.118492
v 73.122961 63.786929 29.736934
vn -5.138349 -3.614750 -0.096689
v 73.600504 62.936135 35.573702
vn -5.135517 -3.618966 -0.089061
v 73.870466 62.530773 36.417053
vn -5.150189 -3.598157 -0.084853
v 74.950251 61.089524 33.232019
vn -2.402450 -1.676673 -0.042514
v 75.439475 60.377925 33.664025
vn -5.132325 -3.622729 -0.115055
v 73.395556 63.284527 33.597943
vn -5.131949 -3.623679 -0.099036
v 73.933937 62.542215 33.091660
vn -5.123054 -3.636097 -0.106689
v 72.583172 64.465255 32.518495
vn -5.126806 -3.630308 -0.122823
v 72.163462 65.081140 31.768736
vn -5.117746 -3.643800 -0.098194
v 72.241480 64.927137 33.287951
vn -5.110879 -3.653240 -0.105691
v 71.898493 65.383762 34.099279
vn -5.115718 -3.646290 -0.110898
v 71.596927 65.826983 33.352960
vn -2.579337 -1.828954 -0.059149
v 71.886700 65.551900 29.280075
vn -5.140514 -3.611899 -0.087316
v 73.985931 62.487485 32.195196
vn -5.138913 -3.613694 -0.105291
v 74.085474 62.369185 31.313238
vn -5.144571 -3.606311 -0.079130
v 74.493556 61.753142 32.764735
vn -5.131383 -3.624441 -0.102829
v 72.870079 64.035442 33.486316
vn -5.136587 -3.616613 -0.118319
v 73.721140 62.937504 29.717980
vn -5.132876 -3.622810 -0.085123
v 74.303526 61.916731 36.431723
vn -5.126212 -3.631643 -0.105760
v 73.616713 62.870772 37.230600
vn -5.146269 -3.603670 -0.087977
v 74.961926 61.090776 32.409146
vn -5.121580 -3.636917 -0.143752
v 70.884954 66.876968 32.020675
vn -5.116153 -3.645328 -0.122072
v 70.947021 66.738177 33.453697
vn -5.118546 -3.641531 -0.134466
v 70.690167 67.118896 32.848963
vn -2.545210 -1.824953 -0.054097
v 71.094675 66.415750 37.178225
vn -2.566343 -1.811549 -0.042176
v 74.579150 61.516100 36.871500
vn -5.135576 -3.618115 -0.116264
v 74.180927 62.262697 30.399994
vn -5.112022 -3.651170 -0.120673
v 70.653989 67.123053 34.182113
vn -5.117274 -3.644078 -0.111709
v 72.192927 64.946678 34.956996
vn -5.127061 -3.630259 -0.113365
v 72.040153 65.314322 29.934572
# 100 vertices, 0 vertices normals

f 40//40 41//41 100//100
f 42//42 43//43 92//92
f 5//5 45//45 18//18
f 8//8 46//46 20//20
f 46//46 21//21 19//19
f 47//47 48//48 45//45
f 51//51 52//52 53//53
f 59//59 60//60 61//61
f 61//61 62//62 63//63
f 10//10 63//63 54//54
f 47//47 64//64 57//57
f 64//64 56//56 65//65
f 66//66 65//65 67//67
f 68//68 69//69 98//98
f 70//70 66//66 68//68
f 59//59 72//72 50//50
f 73//73 48//48 72//72
f 74//74 75//75 62//62
f 13//13 30//30 69//69
f 76//76 77//77 60//60
f 53//53 78//78 79//79
f 80//80 81//81 82//82
f 3//3 32//32 31//31
f 58//58 33//33 29//29
f 5//5 18//18 23//23
f 84//84 52//52 85//85
f 84//84 86//86 77//77
f 42//42 40//40 79//79
f 85//85 97//97 46//46
f 70//70 81//81 99//99
f 21//21 97//97 34//34
f 73//73 89//89 36//36
f 86//86 91//91 74//74
f 3//3 92//92 32//32
f 93//93 43//43 82//82
f 38//38 94//94 39//39
f 54//54 96//96 89//89
f 78//78 87//87 80//80
f 4//4 40//40 100//100
f 40//40 3//3 41//41
f 15//15 16//16 41//41
f 41//41 16//16 100//100
f 3//3 42//42 92//92
f 42//42 14//14 43//43
f 92//92 43//43 94//94
f 90//90 44//44 17//17
f 17//17 45//45 90//90
f 45//45 17//17 18//18
f 21//21 46//46 97//97
f 46//46 19//19 20//20
f 5//5 47//47 45//45
f 47//47 7//7 48//48
f 45//45 48//48 90//90
f 7//7 49//49 50//50
f 49//49 6//6 87//87
f 4//4 51//51 53//53
f 51//51 12//12 52//52
f 53//53 52//52 11//11
f 54//54 55//55 22//22
f 5//5 23//23 56//56
f 24//24 56//56 23//23
f 6//6 49//49 99//99
f 99//99 57//57 9//9
f 58//58 4//4 100//100
f 83//83 100//100 16//16
f 10//10 59//59 61//61
f 59//59 50//50 60//60
f 61//61 60//60 1//1
f 10//10 61//61 63//63
f 61//61 1//1 62//62
f 63//63 62//62 25//25
f 63//63 55//55 54//54
f 55//55 63//63 25//25
f 7//7 47//47 57//57
f 47//47 5//5 64//64
f 57//57 64//64 9//9
f 9//9 64//64 65//65
f 64//64 5//5 56//56
f 26//26 65//65 56//56
f 24//24 26//26 56//56
f 13//13 66//66 67//67
f 66//66 9//9 65//65
f 95//95 65//65 26//26
f 95//95 67//67 65//65
f 69//69 68//68 13//13
f 2//2 68//68 98//98
f 98//98 69//69 27//27
f 2//2 70//70 68//68
f 70//70 9//9 66//66
f 68//68 66//66 13//13
f 51//51 71//71 12//12
f 58//58 29//29 71//71
f 28//28 71//71 29//29
f 59//59 10//10 72//72
f 50//50 72//72 7//7
f 10//10 73//73 72//72
f 73//73 90//90 48//48
f 72//72 48//48 7//7
f 1//1 74//74 62//62
f 62//62 75//75 25//25
f 50//50 76//76 60//60
f 76//76 11//11 77//77
f 60//60 77//77 1//1
f 4//4 53//53 79//79
f 53//53 11//11 78//78
f 79//79 78//78 14//14
f 14//14 80//80 82//82
f 80//80 6//6 81//81
f 82//82 81//81 2//2
f 3//3 31//31 41//41
f 15//15 41//41 31//31
f 83//83 33//33 100//100
f 8//8 84//84 85//85
f 84//84 11//11 52//52
f 85//85 52//52 12//12
f 11//11 84//84 77//77
f 84//84 8//8 86//86
f 77//77 86//86 1//1
f 14//14 42//42 79//79
f 42//42 3//3 40//40
f 79//79 40//40 4//4
f 11//11 76//76 87//87
f 76//76 50//50 49//49
f 8//8 85//85 46//46
f 85//85 12//12 97//97
f 9//9 70//70 99//99
f 70//70 2//2 81//81
f 99//99 81//81 6//6
f 34//34 88//88 35//35
f 97//97 88//88 34//34
f 12//12 71//71 88//88
f 88//88 71//71 28//28
f 35//35 88//88 28//28
f 73//73 10//10 89//89
f 90//90 73//73 36//36
f 90//90 36//36 44//44
f 1//1 86//86 74//74
f 86//86 8//8 91//91
f 74//74 91//91 37//37
f 75//75 74//74 37//37
f 8//8 20//20 91//91
f 37//37 91//91 20//20
f 38//38 92//92 94//94
f 92//92 38//38 32//32
f 2//2 93//93 82//82
f 93//93 94//94 43//43
f 82//82 43//43 14//14
f 93//93 2//2 98//98
f 39//39 93//93 98//98
f 94//94 93//93 39//39
f 13//13 67//67 30//30
f 95//95 30//30 67//67
f 10//10 54//54 89//89
f 54//54 22//22 96//96
f 89//89 96//96 36//36
f 14//14 78//78 80//80
f 78//78 11//11 87//87
f 80//80 87//87 6//6
f 97//97 12//12 88//88
f 39//39 98//98 27//27
f 49//49 87//87 76//76
f 58//58 71//71 51//51
f 4//4 58//58 51//51
f 49//49 7//7 57//57
f 100//100 33//33 58//58
f 99//99 49//49 57//57
# 166 faces, 0 coords texture

# End of File
