####
#
# OBJ File Generated by Meshlab
#
####
# Object 2384_C131_S_8.obj
#
# Vertices: 196
# Faces: 335
#
####
vn -5.157875 -3.587834 0.044965
v 70.389350 68.492415 -27.634525
vn -5.160750 -3.583823 0.035846
v 70.917011 67.750012 -25.793324
vn -5.162374 -3.581293 0.046289
v 73.744064 63.595686 -34.470168
vn -5.136117 -3.619048 0.004410
v 68.693716 70.981488 -18.532659
vn -5.151534 -3.597003 0.040707
v 72.387783 65.598028 -29.368437
vn -5.160302 -3.584288 0.044694
v 73.544653 63.931802 -30.492009
vn -5.146457 -3.604090 0.048277
v 70.810701 67.822231 -32.887007
vn -5.149410 -3.600252 0.002036
v 69.638854 69.629482 -19.093161
vn -5.157807 -3.588159 0.022510
v 70.988686 67.683829 -21.835050
vn -5.165165 -3.577461 0.025042
v 73.685720 63.750784 -28.253900
vn -5.153018 -3.594874 0.040695
v 72.024459 66.081748 -32.750477
vn -5.147935 -3.601852 0.059080
v 71.394421 66.962997 -34.521837
vn -5.151322 -3.597237 0.046407
v 72.594859 65.242127 -34.363696
vn -5.156406 -3.590248 -0.003017
v 70.662571 68.158433 -17.690581
vn -5.164154 -3.579061 0.001717
v 71.677893 66.700689 -18.428336
vn -5.156513 -3.589777 0.047789
v 71.007993 67.577200 -29.464689
vn -5.154303 -3.593012 0.039766
v 71.449319 66.919190 -31.142452
vn -5.158201 -3.587544 0.028054
v 72.848068 64.961475 -27.171719
vn -5.174270 -3.564169 0.018817
v 72.381642 65.682110 -21.688928
vn -5.159988 -3.584812 0.042300
v 73.413565 64.093117 -32.583758
vn -5.146809 -3.603871 0.015617
v 69.728892 69.499027 -21.021430
vn -5.128263 -3.630236 0.021211
v 68.771080 70.850235 -22.415387
vn -5.157689 -3.588259 0.031840
v 70.318142 68.630413 -24.040652
vn -5.148558 -3.601125 0.048147
v 70.251588 68.642221 -31.225066
vn -5.164772 -3.578010 0.035459
v 71.580847 66.815796 -23.758579
vn -5.149524 -3.600006 0.024749
v 69.763692 69.437111 -22.659740
vn -5.149215 -3.600333 0.039970
v 72.555880 65.337305 -31.208529
vn -5.127701 -3.631041 0.019230
v 68.595752 71.108000 -20.610121
vn -5.156900 -3.589528 0.003758
v 70.724499 68.071879 -19.714971
vn -5.169914 -3.570600 0.033232
v 74.529741 62.512266 -29.780609
vn -2.748016 -1.917623 0.030621
v 70.131500 68.855500 -28.063500
vn -2.578903 -1.802565 0.023634
v 69.907900 69.154800 -29.304700
vn -2.551121 -1.758912 0.017359
v 74.303000 62.790100 -33.929700
vn -2.338491 -1.615634 0.019679
v 73.994200 63.230600 -34.719400
vn -2.225279 -1.575772 0.001802
v 68.421700 71.366000 -18.204000
vn -2.268366 -1.593279 0.029819
v 71.088300 67.378800 -35.597100
vn -2.470689 -1.739345 0.032324
v 70.523500 68.193500 -34.896000
vn -2.302748 -1.610293 0.025941
v 71.912712 66.195349 -35.961274
vn -3.161440 -2.194244 0.012369
v 72.581700 65.355500 -25.538900
vn -2.726987 -1.892116 0.012181
v 72.973500 64.786300 -26.274000
vn -2.327060 -1.614555 0.024020
v 74.876900 61.983800 -31.890400
vn -2.427679 -1.676420 0.019063
v 74.620450 62.338900 -33.040250
vn -2.187508 -1.527026 -0.001833
v 69.537000 69.772200 -16.895300
vn -2.412769 -1.677356 0.025092
v 73.760700 63.562400 -35.043200
vn -2.268883 -1.587378 0.017224
v 72.956500 64.709700 -35.767800
vn -2.605073 -1.817502 0.019311
v 73.108200 64.493900 -35.621800
vn -2.531257 -1.775241 0.021865
v 72.476900 65.392100 -35.879400
vn -2.367691 -1.669929 0.018751
v 68.924600 70.607400 -25.554700
vn -2.215705 -1.572263 0.011254
v 68.180394 71.670649 -24.421950
vn -2.262170 -1.618119 0.008981
v 67.819950 72.198950 -19.981900
vn -2.420759 -1.659674 -0.000339
v 72.986600 64.798500 -21.021300
vn -2.332557 -1.596276 0.014373
v 72.969800 64.818800 -22.079700
vn -2.719900 -1.875153 0.010279
v 72.552600 65.400100 -24.425100
vn -2.806959 -1.931765 0.021149
v 72.594800 65.343000 -23.807000
vn -2.225497 -1.549289 0.000580
v 70.630000 68.205600 -16.655600
vn -2.476869 -1.722639 -0.002260
v 71.238800 67.328800 -16.953400
vn -2.935476 -2.058148 0.023722
v 69.550350 69.711550 -26.117450
vn -3.090996 -2.153446 0.029314
v 70.153600 68.830400 -27.662700
vn -2.263713 -1.564706 0.007504
v 74.816500 62.098200 -29.614400
vn -2.585463 -1.778551 0.011456
v 74.656800 62.332100 -29.094400
vn -2.467575 -1.715793 0.024551
v 74.897400 61.963000 -31.365100
vn -2.557228 -1.776661 0.018940
v 74.847900 62.050600 -30.135400
vn -2.368352 -1.638188 0.006445
v 73.816600 63.565800 -27.194500
vn -2.719004 -1.885953 0.008013
v 73.374100 64.204600 -26.798500
vn -2.292962 -1.619231 0.028346
v 69.794000 69.259600 -33.072500
vn -2.542680 -1.790890 0.034087
v 69.701550 69.405850 -32.246475
vn -2.326903 -1.639947 0.030098
v 70.278700 68.548700 -34.505700
vn -2.233359 -1.594640 0.009588
v 67.683650 72.375650 -22.301150
vn -2.515833 -1.759133 0.020754
v 69.772800 69.340500 -30.054500
vn -2.379545 -1.639642 -0.000367
v 72.862950 64.977250 -19.838550
vn -2.432283 -1.678047 0.006813
v 72.630400 65.316800 -18.949600
vn -2.283136 -1.578900 0.004826
v 72.204900 65.940300 -17.892700
vn -2.424734 -1.686027 -0.003175
v 71.663700 66.719000 -17.264700
vn -2.243341 -1.575111 0.025360
v 69.608700 69.557800 -31.240800
vn -2.312544 -1.589435 0.009476
v 74.318400 62.832000 -27.995100
vn -5.154697 -3.592296 0.053394
v 70.517157 68.293928 -28.644594
vn -5.151287 -3.597314 0.044206
v 70.307095 68.579433 -29.660163
vn -5.155398 -3.591391 0.046909
v 71.702532 66.532562 -33.619029
vn -5.155255 -3.591523 0.051982
v 71.986121 66.115234 -34.404213
vn -5.153899 -3.593526 0.048075
v 72.327543 65.636644 -33.527273
vn -5.138029 -3.615886 0.066639
v 70.828231 67.767915 -34.504452
vn -5.155052 -3.591992 0.036800
v 71.403204 66.972541 -32.830377
vn -5.147271 -3.602854 0.056219
v 71.105467 67.388793 -33.691675
vn -5.157920 -3.587722 0.050109
v 71.185810 67.309384 -30.322154
vn -5.156263 -3.590186 0.043277
v 70.589372 68.167418 -30.358889
vn -5.159982 -3.584872 0.040525
v 70.833969 67.804368 -31.181289
vn -5.160739 -3.583758 0.042576
v 70.880678 67.783997 -27.705409
vn -5.157815 -3.587936 0.045250
v 71.207105 67.300954 -28.653555
vn -5.151387 -3.597308 0.030917
v 71.718927 66.525977 -31.970892
vn -5.157327 -3.588796 0.030156
v 71.109040 67.400650 -32.022265
vn -5.147457 -3.602688 0.045919
v 70.527149 68.237891 -32.056248
vn -5.158104 -3.587700 0.027539
v 72.413857 65.591025 -26.457647
vn -5.161317 -3.583021 0.034512
v 70.633649 68.148770 -26.771719
vn -5.160573 -3.584087 0.034892
v 71.206130 67.324764 -26.724348
vn -5.162230 -3.581592 0.039853
v 73.616548 63.788779 -33.651696
vn -5.172090 -3.567418 0.037672
v 74.021549 63.207288 -33.028886
vn -5.171934 -3.567567 0.044495
v 74.097213 63.106424 -32.269620
vn -5.166903 -3.574793 0.047356
v 74.500941 62.526203 -31.854517
vn -5.150313 -3.598396 0.064173
v 71.673116 66.550742 -35.268343
vn -2.574314 -1.804136 0.034999
v 71.460550 66.844500 -35.760700
vn -5.152955 -3.594927 0.044132
v 73.280814 64.256666 -34.685366
vn -5.147467 -3.602819 0.040756
v 72.777817 64.971290 -35.197019
vn -5.149758 -3.599401 0.051030
v 72.239002 65.740214 -35.164236
vn -5.157619 -3.588446 0.019656
v 70.339648 68.619440 -21.356517
vn -5.148308 -3.601728 0.026533
v 69.769813 69.433878 -21.897255
vn -5.156312 -3.590288 0.026272
v 70.292232 68.680566 -22.313439
vn -5.147827 -3.602338 0.038008
v 72.049795 66.061122 -31.146880
vn -5.148178 -3.601814 0.040219
v 72.468592 65.470788 -30.425500
vn -5.151709 -3.596677 0.046489
v 71.868342 66.330931 -30.227552
vn -5.132906 -3.623683 0.021923
v 68.935927 70.611544 -23.322781
vn -5.145305 -3.606021 0.024300
v 69.458190 69.869142 -23.393655
vn -5.139585 -3.614227 0.020709
v 69.297596 70.101107 -22.527677
vn -5.157897 -3.587994 0.028322
v 70.669403 68.133855 -22.996123
vn -5.159772 -3.585248 0.033955
v 70.952810 67.718799 -23.855474
vn -5.158967 -3.586440 0.030391
v 71.325752 67.191137 -22.801313
vn -5.160822 -3.583710 0.036770
v 70.616689 68.191782 -24.889199
vn -5.160149 -3.584671 0.037652
v 71.228595 67.312191 -24.774566
vn -5.156764 -3.589571 0.033216
v 70.020416 69.049465 -25.027811
vn -5.161630 -3.582562 0.035312
v 70.344875 68.573555 -25.869570
vn -5.145115 -3.606377 0.003838
v 69.670991 69.582741 -20.083005
vn -5.156569 -3.590001 0.008218
v 70.245878 68.757917 -20.377368
vn -5.154848 -3.592484 -0.000781
v 70.179230 68.854443 -19.395317
vn -5.127774 -3.630907 0.028925
v 68.635428 71.030408 -24.104600
vn -2.567520 -1.817411 0.018293
v 68.573450 71.109050 -25.017900
vn -5.144659 -3.606853 0.036643
v 69.455749 69.856162 -25.256574
vn -5.150155 -3.598937 0.044072
v 73.013085 64.687565 -30.861159
vn -5.152638 -3.595415 0.041547
v 72.931657 64.792584 -31.782455
vn -5.164496 -3.578266 0.046824
v 73.628278 63.794682 -31.655862
vn -5.140859 -3.612428 0.014129
v 69.101381 70.391506 -19.840346
vn -5.135720 -3.619753 0.011629
v 69.144235 70.329375 -20.812394
vn -5.128116 -3.630360 0.020012
v 68.552633 71.176659 -19.507858
vn -5.113249 -3.651381 0.021958
v 68.151128 71.734130 -20.310603
vn -2.521485 -1.799969 0.008482
v 68.104700 71.805600 -19.097050
vn -5.166359 -3.575746 0.032422
v 71.797990 66.492622 -24.762390
vn -5.169141 -3.571823 0.020771
v 72.235317 65.857802 -24.886799
vn -5.174247 -3.564286 0.036444
v 72.163624 65.968890 -23.849613
vn -5.148937 -3.600750 0.038224
v 72.999431 64.717721 -29.906425
vn -5.151542 -3.596914 0.047272
v 72.985064 64.694444 -33.516970
vn -5.158688 -3.586769 0.037496
v 70.178614 68.803895 -26.820389
vn -2.666196 -1.858805 0.021222
v 69.917050 69.177750 -26.966400
vn -5.147892 -3.602405 0.009202
v 69.113551 70.380798 -18.811560
vn -5.155043 -3.592203 -0.005400
v 70.147717 68.898359 -18.391615
vn -5.152589 -3.595720 -0.005493
v 69.615005 69.662042 -18.059912
vn -5.177142 -3.560269 -0.009930
v 72.450202 65.578034 -20.569098
vn -5.165080 -3.577409 0.047984
v 74.510761 62.527203 -30.715679
vn -5.153496 -3.594223 0.037795
v 72.605569 65.298087 -28.215481
vn -5.150391 -3.598708 0.034388
v 73.067530 64.630756 -28.871432
vn -5.156943 -3.589377 0.023010
v 73.269056 64.353105 -27.686276
vn -5.136376 -3.618280 0.063896
v 70.010181 68.970497 -32.097438
vn -5.133141 -3.622917 0.061115
v 70.275068 68.581278 -32.927446
vn -5.160186 -3.584578 0.036143
v 73.587564 63.880910 -29.467057
vn -5.153963 -3.593753 -0.002397
v 70.121855 68.933630 -17.385943
vn -2.623516 -1.830249 0.000915
v 70.169350 68.865850 -16.783750
vn -5.135847 -3.619017 0.064433
v 70.547524 68.181665 -33.723332
vn -5.160129 -3.584712 0.036321
v 71.502586 66.907737 -25.727430
vn -5.156026 -3.590610 0.036321
v 72.189020 65.905069 -27.443582
vn -5.156269 -3.590444 -0.004433
v 70.674509 68.142450 -18.716377
vn -5.158631 -3.587048 -0.001609
v 71.197739 67.391334 -19.050729
vn -5.115304 -3.648506 0.021244
v 68.243642 71.590444 -22.375121
vn -2.487239 -1.775707 0.007445
v 67.913900 72.047950 -23.415900
vn -5.148818 -3.600863 0.042497
v 70.086205 68.887281 -30.478363
vn -2.565754 -1.812599 0.031502
v 70.036350 68.904150 -33.789100
vn -5.175116 -3.563186 0.012801
v 72.119246 66.058052 -18.902779
vn -5.160251 -3.584699 0.007378
v 71.287614 67.261912 -20.005258
vn -5.157897 -3.588081 0.013965
v 70.850029 67.887740 -20.711790
vn -5.158791 -3.586796 0.012946
v 71.454992 67.017700 -20.929213
vn -5.177146 -3.559957 0.047441
v 72.473708 65.533013 -22.797808
vn -2.556263 -1.755767 0.022577
v 72.764600 65.105900 -23.077500
vn -5.172929 -3.566080 0.047931
v 73.980623 63.287462 -31.369576
vn -5.155216 -3.591847 0.028165
v 70.030151 69.049907 -23.273959
vn -5.137281 -3.617489 0.022516
v 69.212801 70.227662 -21.680605
vn -5.150169 -3.598993 0.037425
v 72.323223 65.662831 -31.919705
vn -5.149052 -3.600780 -0.007475
v 69.174105 70.292769 -17.879993
vn -2.543274 -1.782144 -0.006024
v 68.965500 70.589750 -17.540900
vn -5.152540 -3.595516 0.044607
v 72.676676 65.148215 -32.658230
vn -5.125719 -3.633818 0.021735
v 68.659951 71.012607 -21.546774
vn -5.158234 -3.587538 0.023746
v 71.706040 66.652737 -21.805940
vn -5.165885 -3.576536 0.002114
v 72.000162 66.233601 -21.000503
vn -5.166008 -3.576166 0.039648
v 71.949711 66.294261 -22.737349
vn -5.157081 -3.589276 -0.005800
v 71.178150 67.418020 -18.001725
vn -5.172133 -3.567284 0.043684
v 74.071933 63.172147 -30.110187
vn -5.174777 -3.563572 0.030614
v 74.147241 63.073913 -29.109733
vn -2.482612 -1.775851 0.010618
v 67.723650 72.327100 -21.105700
vn -5.114216 -3.650012 0.023788
v 68.154807 71.722611 -21.390868
vn -5.136608 -3.618323 0.032512
v 69.079251 70.401071 -24.395369
vn -5.151347 -3.597368 0.030895
v 69.696107 69.520971 -24.253528
vn -5.171115 -3.568997 0.001838
v 71.748067 66.598272 -19.403328
vn -5.119947 -3.641984 0.018861
v 68.426551 71.330539 -23.296066
vn -5.153683 -3.593935 0.037348
v 69.868123 69.259676 -25.949687
vn -5.176220 -3.561589 -0.000406
v 72.310373 65.778435 -19.675021
vn -5.158281 -3.587336 0.039415
v 71.520739 66.862344 -27.677264
vn -5.157963 -3.587853 0.033610
v 71.785265 66.491982 -26.635698
vn -5.155805 -3.590876 0.041218
v 71.991561 66.177043 -28.470763
vn -5.160669 -3.583990 0.029944
v 72.033439 66.143302 -25.759241
vn -5.171271 -3.568771 -0.001599
v 71.906087 66.369049 -20.265120
vn -5.155221 -3.591646 0.046577
v 71.705034 66.578601 -29.301950
# 196 vertices, 0 vertices normals

f 16//16 76//76 77//77
f 3//3 34//34 33//33
f 78//78 79//79 80//80
f 12//12 81//81 36//36
f 78//78 82//82 83//83
f 89//89 90//90 82//82
f 86//86 91//91 90//90
f 20//20 95//95 96//96
f 41//41 98//98 42//42
f 99//99 36//36 100//100
f 3//3 44//44 34//34
f 13//13 103//103 102//102
f 104//104 105//105 106//106
f 107//107 108//108 109//109
f 110//110 111//111 112//112
f 113//113 114//114 115//115
f 116//116 117//117 114//114
f 118//118 119//119 116//116
f 120//120 121//121 122//122
f 126//126 127//127 128//128
f 120//120 129//129 130//130
f 50//50 132//132 133//133
f 19//19 52//52 51//51
f 134//134 135//135 136//136
f 14//14 56//56 55//55
f 108//108 126//126 137//137
f 139//139 119//119 189//189
f 194//194 39//39 135//135
f 129//129 141//141 131//131
f 142//142 152//152 143//143
f 190//190 144//144 70//70
f 30//30 59//59 60//60
f 30//30 145//145 62//62
f 146//146 147//147 148//148
f 18//18 148//148 64//64
f 98//98 41//41 61//61
f 91//91 149//149 150//150
f 151//151 147//147 137//137
f 152//152 55//55 153//153
f 79//79 99//99 103//103
f 83//83 154//154 81//81
f 156//156 92//92 192//192
f 157//157 158//158 180//180
f 103//103 38//38 47//47
f 134//134 117//117 155//155
f 188//188 159//159 160//160
f 85//85 77//77 161//161
f 150//150 162//162 154//154
f 15//15 163//163 72//72
f 164//164 187//187 158//158
f 164//164 165//165 166//166
f 106//106 170//170 113//113
f 105//105 171//171 112//112
f 107//107 89//89 172//172
f 111//111 186//186 170//170
f 122//122 157//157 142//142
f 121//121 104//104 165//165
f 110//110 188//188 123//123
f 80//80 138//138 175//175
f 127//127 172//172 175//175
f 130//130 176//176 171//171
f 166//166 177//177 178//178
f 179//179 136//136 167//167
f 163//163 190//190 71//71
f 14//14 180//180 56//56
f 15//15 72//72 73//73
f 1//1 58//58 31//31
f 141//141 143//143 173//173
f 24//24 161//161 74//74
f 181//181 169//169 145//145
f 181//181 182//182 151//151
f 10//10 182//182 75//75
f 30//30 62//62 59//59
f 18//18 64//64 40//40
f 119//119 139//139 93//93
f 132//132 183//183 184//184
f 176//176 184//184 159//159
f 115//115 179//179 177//177
f 31//31 76//76 1//1
f 32//32 77//77 76//76
f 11//11 78//78 80//80
f 78//78 12//12 79//79
f 80//80 79//79 13//13
f 81//81 37//37 36//36
f 12//12 78//78 83//83
f 78//78 11//11 82//82
f 83//83 82//82 7//7
f 84//84 16//16 85//85
f 86//86 85//85 24//24
f 191//191 87//87 88//88
f 87//87 1//1 76//76
f 11//11 89//89 82//82
f 89//89 17//17 90//90
f 82//82 90//90 7//7
f 17//17 86//86 90//90
f 86//86 24//24 91//91
f 90//90 91//91 7//7
f 92//92 40//40 39//39
f 40//40 92//92 18//18
f 194//194 92//92 39//39
f 2//2 93//93 94//94
f 93//93 1//1 87//87
f 163//163 15//15 187//187
f 190//190 163//163 187//187
f 95//95 33//33 96//96
f 33//33 95//95 3//3
f 42//42 96//96 33//33
f 97//97 20//20 96//96
f 36//36 99//99 12//12
f 103//103 99//99 38//38
f 100//100 38//38 99//99
f 101//101 13//13 102//102
f 46//46 102//102 45//45
f 46//46 101//101 102//102
f 103//103 47//47 102//102
f 45//45 102//102 47//47
f 9//9 104//104 106//106
f 104//104 21//21 105//105
f 106//106 105//105 26//26
f 17//17 107//107 109//109
f 107//107 27//27 108//108
f 109//109 108//108 5//5
f 22//22 110//110 112//112
f 110//110 185//185 111//111
f 112//112 111//111 26//26
f 9//9 113//113 115//115
f 113//113 23//23 114//114
f 115//115 114//114 25//25
f 23//23 116//116 114//114
f 116//116 2//2 117//117
f 114//114 117//117 25//25
f 23//23 118//118 116//116
f 118//118 189//189 119//119
f 116//116 119//119 2//2
f 8//8 120//120 122//122
f 120//120 21//21 121//121
f 122//122 121//121 29//29
f 123//123 49//49 124//124
f 6//6 126//126 128//128
f 126//126 27//27 127//127
f 128//128 127//127 20//20
f 21//21 120//120 130//130
f 120//120 8//8 129//129
f 130//130 129//129 28//28
f 28//28 131//131 132//132
f 132//132 131//131 133//133
f 4//4 35//35 133//133
f 133//133 131//131 4//4
f 25//25 134//134 136//136
f 134//134 155//155 194//194
f 136//136 135//135 53//53
f 54//54 136//136 53//53
f 5//5 108//108 137//137
f 108//108 27//27 126//126
f 137//137 126//126 6//6
f 101//101 3//3 95//95
f 138//138 95//95 20//20
f 189//189 140//140 139//139
f 1//1 139//139 58//58
f 140//140 58//58 139//139
f 135//135 39//39 53//53
f 28//28 129//129 131//131
f 129//129 8//8 141//141
f 131//131 141//141 4//4
f 8//8 142//142 143//143
f 142//142 14//14 152//152
f 143//143 152//152 43//43
f 51//51 144//144 19//19
f 144//144 51//51 70//70
f 61//61 145//145 98//98
f 145//145 61//61 62//62
f 18//18 146//146 148//148
f 146//146 5//5 147//147
f 148//148 147//147 10//10
f 148//148 10//10 63//63
f 148//148 63//63 64//64
f 7//7 91//91 150//150
f 91//91 24//24 149//149
f 65//65 149//149 66//66
f 65//65 150//150 149//149
f 6//6 151//151 137//137
f 151//151 10//10 147//147
f 137//137 147//147 5//5
f 55//55 152//152 14//14
f 153//153 43//43 152//152
f 13//13 79//79 103//103
f 79//79 12//12 99//99
f 12//12 83//83 81//81
f 83//83 7//7 154//154
f 81//81 154//154 67//67
f 37//37 81//81 67//67
f 191//191 192//192 94//94
f 94//94 155//155 2//2
f 156//156 146//146 18//18
f 156//156 18//18 92//92
f 192//192 92//92 194//194
f 14//14 157//157 180//180
f 157//157 29//29 158//158
f 180//180 158//158 15//15
f 134//134 25//25 117//117
f 155//155 117//117 2//2
f 160//160 159//159 68//68
f 49//49 123//123 188//188
f 160//160 49//49 188//188
f 24//24 85//85 161//161
f 85//85 16//16 77//77
f 69//69 77//77 32//32
f 69//69 161//161 77//77
f 7//7 150//150 154//154
f 150//150 65//65 162//162
f 154//154 162//162 67//67
f 163//163 71//71 72//72
f 29//29 164//164 158//158
f 164//164 195//195 187//187
f 158//158 187//187 15//15
f 195//195 164//164 166//166
f 164//164 29//29 165//165
f 166//166 165//165 9//9
f 19//19 167//167 52//52
f 168//168 52//52 167//167
f 6//6 128//128 169//169
f 169//169 97//97 98//98
f 9//9 106//106 113//113
f 106//106 26//26 170//170
f 113//113 170//170 23//23
f 26//26 105//105 112//112
f 105//105 21//21 171//171
f 112//112 171//171 22//22
f 84//84 17//17 109//109
f 27//27 107//107 172//172
f 107//107 17//17 89//89
f 172//172 89//89 11//11
f 4//4 173//173 174//174
f 174//174 35//35 4//4
f 118//118 23//23 186//186
f 125//125 186//186 185//185
f 26//26 111//111 170//170
f 111//111 185//185 186//186
f 170//170 186//186 23//23
f 8//8 122//122 142//142
f 122//122 29//29 157//157
f 142//142 157//157 14//14
f 29//29 121//121 165//165
f 121//121 21//21 104//104
f 165//165 104//104 9//9
f 185//185 110//110 123//123
f 110//110 22//22 188//188
f 11//11 80//80 175//175
f 80//80 13//13 138//138
f 175//175 138//138 20//20
f 20//20 127//127 175//175
f 127//127 27//27 172//172
f 175//175 172//172 11//11
f 21//21 130//130 171//171
f 130//130 28//28 176//176
f 171//171 176//176 22//22
f 189//189 125//125 57//57
f 195//195 166//166 178//178
f 166//166 9//9 177//177
f 178//178 177//177 19//19
f 19//19 179//179 167//167
f 179//179 25//25 136//136
f 168//168 167//167 54//54
f 54//54 167//167 136//136
f 73//73 180//180 15//15
f 180//180 73//73 56//56
f 4//4 141//141 173//173
f 141//141 8//8 143//143
f 161//161 69//69 74//74
f 30//30 181//181 145//145
f 181//181 6//6 169//169
f 145//145 169//169 98//98
f 6//6 181//181 151//151
f 181//181 30//30 182//182
f 151//151 182//182 10//10
f 60//60 182//182 30//30
f 182//182 60//60 75//75
f 10//10 75//75 63//63
f 24//24 74//74 149//149
f 66//66 149//149 74//74
f 2//2 119//119 93//93
f 93//93 139//139 1//1
f 19//19 144//144 178//178
f 28//28 132//132 184//184
f 132//132 50//50 183//183
f 184//184 183//183 68//68
f 22//22 176//176 159//159
f 176//176 28//28 184//184
f 159//159 184//184 68//68
f 9//9 115//115 177//177
f 115//115 25//25 179//179
f 177//177 179//179 19//19
f 185//185 124//124 48//48
f 48//48 125//125 185//185
f 118//118 186//186 125//125
f 32//32 76//76 31//31
f 185//185 123//123 124//124
f 134//134 194//194 135//135
f 190//190 187//187 195//195
f 188//188 22//22 159//159
f 189//189 118//118 125//125
f 93//93 87//87 94//94
f 191//191 94//94 87//87
f 140//140 189//189 57//57
f 178//178 144//144 195//195
f 173//173 43//43 174//174
f 190//190 70//70 71//71
f 156//156 192//192 191//191
f 125//125 48//48 57//57
f 173//173 143//143 43//43
f 192//192 155//155 94//94
f 195//195 144//144 190//190
f 194//194 155//155 192//192
f 191//191 193//193 156//156
f 193//193 196//196 5//5
f 3//3 101//101 44//44
f 88//88 87//87 76//76
f 88//88 76//76 16//16
f 97//97 96//96 42//42
f 101//101 95//95 138//138
f 98//98 97//97 42//42
f 13//13 101//101 138//138
f 88//88 16//16 196//196
f 84//84 109//109 196//196
f 193//193 191//191 88//88
f 196//196 109//109 5//5
f 101//101 46//46 44//44
f 16//16 84//84 196//196
f 196//196 193//193 88//88
f 84//84 85//85 86//86
f 17//17 84//84 86//86
f 193//193 5//5 146//146
f 128//128 20//20 97//97
f 193//193 146//146 156//156
f 169//169 128//128 97//97
# 335 faces, 0 coords texture

# End of File
