####
#
# OBJ File Generated by Meshlab
#
####
# Object 2394_C132_S_8.obj
#
# Vertices: 197
# Faces: 337
#
####
vn -5.163843 -3.579355 0.036619
v 71.333662 68.257215 -24.975239
vn -5.169818 -3.570681 0.033901
v 73.946316 64.445075 -29.732311
vn -5.152040 -3.596100 0.054360
v 71.479436 67.925445 -35.047196
vn -5.161953 -3.582268 0.000042
v 70.969609 68.811362 -17.544668
vn -5.158307 -3.587289 0.040111
v 72.657862 66.261099 -33.019450
vn -5.166068 -3.576045 0.045116
v 73.842012 64.543764 -33.914098
vn -5.159952 -3.584876 0.044110
v 71.754412 67.611409 -28.562118
vn -5.159500 -3.585513 0.044575
v 70.837325 68.926796 -29.165261
vn -5.159582 -3.585505 0.035343
v 70.320528 69.708832 -25.806982
vn -5.162550 -3.581408 -0.002778
v 71.276899 68.368944 -19.410656
vn -5.170624 -3.569719 -0.001761
v 72.150528 67.107257 -18.181049
vn -5.174874 -3.563427 0.032038
v 74.811704 63.176188 -30.807876
vn -5.160149 -3.584560 0.046245
v 71.820445 67.501067 -29.721623
vn -5.159416 -3.585549 0.047484
v 72.973349 65.784004 -35.177968
vn -5.147142 -3.603419 0.021957
v 69.260882 71.263736 -20.596024
vn -5.180129 -3.555780 0.023994
v 72.436374 66.689402 -22.086073
vn -5.155603 -3.591255 0.031734
v 70.491195 69.480637 -23.970184
vn -5.168858 -3.572059 0.041391
v 74.836683 63.118340 -32.805899
vn -5.156609 -3.589938 -0.001144
v 70.130528 70.021558 -19.030412
vn -5.153692 -3.593772 0.051622
v 71.971140 67.223417 -34.830120
vn -5.164188 -3.578849 0.030833
v 72.897275 65.971847 -28.426962
vn -5.154181 -3.593103 0.046548
v 71.382097 68.094210 -33.160569
vn -5.134155 -3.621877 0.020078
v 68.810818 71.892942 -22.653920
vn -5.162306 -3.581572 0.026884
v 71.261316 68.387978 -22.693733
vn -5.162273 -3.581597 0.038774
v 71.103359 68.569355 -26.909765
vn -5.150580 -3.598518 0.023071
v 69.499782 70.899695 -24.346870
vn -5.149664 -3.599834 0.023817
v 69.943130 70.276514 -22.448867
vn -5.157110 -3.588969 0.043825
v 72.815504 66.059920 -30.691377
vn -5.156437 -3.590147 0.009680
v 70.498330 69.492488 -20.850554
vn -5.165079 -3.577495 0.042759
v 73.834444 64.580431 -31.840896
vn -5.170631 -3.569599 0.026640
v 72.331902 66.802840 -26.395169
vn -5.161945 -3.581986 0.044861
v 71.156904 68.439096 -31.364334
vn -5.171578 -3.568338 0.011434
v 74.005479 64.368383 -27.794589
vn -2.203227 -1.541862 0.020279
v 71.209000 68.306900 -35.425950
vn -2.591893 -1.811575 0.024889
v 71.294100 68.184600 -35.484800
vn -2.405144 -1.660498 0.024185
v 73.824050 64.544700 -35.618450
vn -2.742838 -1.907022 0.017415
v 69.920950 70.280250 -26.151650
vn -2.545322 -1.772090 -0.000532
v 70.233625 69.869300 -17.091125
vn -2.239082 -1.555601 0.001257
v 70.849600 68.984900 -16.796600
vn -2.392532 -1.670105 0.024977
v 71.915100 67.287150 -35.942225
vn -3.445287 -2.391585 0.026797
v 70.693500 69.155500 -27.298100
vn -2.615009 -1.785349 0.016024
v 72.957900 65.898700 -24.955400
vn -2.828560 -1.931052 0.018309
v 73.089000 65.718500 -23.665000
vn -2.196628 -1.519604 0.016816
v 75.173200 62.629000 -33.067600
vn -2.577323 -1.780105 0.018711
v 75.225900 62.557400 -32.564700
vn -2.577462 -1.759185 -0.005791
v 72.816100 66.135200 -18.563500
vn -2.244973 -1.527829 -0.004327
v 73.114500 65.699800 -19.194300
vn -3.329501 -2.279378 0.013849
v 72.901700 65.975300 -25.600500
vn -2.278928 -1.580456 0.022679
v 73.154300 65.509900 -36.108600
vn -2.610406 -1.814049 0.021894
v 70.560450 69.334300 -28.408850
vn -2.538381 -1.752998 0.003735
v 68.634200 72.175200 -18.997300
vn -2.340544 -1.625838 0.014406
v 68.516200 72.345200 -19.291200
vn -2.254094 -1.535419 0.005815
v 73.414650 65.260200 -21.164600
vn -2.248163 -1.549083 0.007516
v 74.423200 63.764000 -27.555500
vn -2.583976 -1.809581 0.026944
v 71.095200 68.472500 -35.206900
vn -2.653817 -1.835307 0.022693
v 74.997100 62.878100 -33.472700
vn -2.404362 -1.665835 0.000685
v 71.255250 68.399750 -16.903050
vn -2.446774 -1.711963 0.025541
v 70.136300 69.890900 -32.100400
vn -2.606305 -1.819065 0.023358
v 70.386400 69.567400 -29.621900
vn -2.411504 -1.683850 0.025597
v 72.551600 66.373100 -36.137100
vn -2.400397 -1.689466 0.007163
v 68.536400 72.275100 -24.183100
vn -2.355398 -1.643256 0.010776
v 69.258500 71.238100 -25.532900
vn -2.368403 -1.659020 0.027759
v 70.146683 69.872463 -32.325300
vn -2.428379 -1.666661 0.011237
v 75.021952 62.883300 -28.948094
vn -2.772322 -1.911681 0.004702
v 73.599000 64.958800 -26.814900
vn -2.372870 -1.618638 0.014426
v 73.206100 65.551000 -23.246500
vn -2.397198 -1.653494 0.015166
v 75.343900 62.399500 -31.386600
vn -2.279842 -1.584068 -0.004422
v 69.061900 71.553100 -18.044800
vn -2.291749 -1.620754 0.014060
v 68.146200 72.837400 -21.136800
vn -2.217867 -1.528510 0.004028
v 72.401200 66.744750 -17.719000
vn -2.313265 -1.591026 0.010479
v 75.302300 62.467300 -30.142100
vn -2.260066 -1.606543 0.007769
v 68.201600 72.747300 -23.019100
vn -5.165655 -3.576774 0.032881
v 71.822298 67.545638 -25.642482
vn -5.162657 -3.581067 0.036727
v 71.221052 68.408672 -26.034934
vn -5.163239 -3.580218 0.037646
v 71.645355 67.789985 -26.699035
vn -5.162713 -3.580943 0.040547
v 73.305674 65.321793 -33.489677
vn -5.157755 -3.588078 0.039430
v 72.838340 65.988641 -34.211679
vn -5.166968 -3.574762 0.043066
v 73.381885 65.201530 -34.506659
vn -5.171668 -3.567891 0.049194
v 73.429958 65.121087 -35.285415
vn -5.168248 -3.572798 0.052214
v 73.827881 64.551340 -34.803709
vn -5.163830 -3.579563 -0.001560
v 71.141658 68.563565 -18.445037
vn -5.164262 -3.578935 -0.005002
v 71.743689 67.694745 -18.741953
vn -5.164567 -3.578482 -0.004411
v 71.879208 67.502120 -19.696064
vn -5.179849 -3.556229 -0.012216
v 72.406806 66.738026 -19.033635
vn -5.169312 -3.571465 0.035347
v 71.901072 67.441327 -24.502851
vn -5.159277 -3.585834 0.045467
v 73.384996 65.246782 -30.197273
vn -5.165292 -3.577262 0.032230
v 73.447049 65.171751 -29.124292
vn -5.157715 -3.588060 0.046961
v 72.864311 66.003954 -29.614089
vn -5.164150 -3.578829 0.044159
v 71.293438 68.265351 -29.418632
vn -5.162504 -3.581224 0.042458
v 71.088072 68.574621 -28.375377
vn -5.161946 -3.582092 0.035522
v 71.578400 67.819730 -32.231140
vn -5.158528 -3.586966 0.039840
v 71.967338 67.253193 -33.101895
vn -5.161920 -3.582139 0.035772
v 70.796831 69.026418 -25.412720
vn -5.161555 -3.582644 0.037776
v 70.720517 69.126123 -26.420864
vn -2.603963 -1.808321 0.019662
v 70.393850 69.592050 -26.837250
vn -5.162735 -3.580908 0.040930
v 71.390783 68.147271 -27.600131
vn -5.183824 -3.550450 -0.000950
v 72.569573 66.502730 -20.032740
vn -5.161851 -3.582416 0.000136
v 71.395724 68.198022 -20.368388
vn -5.166617 -3.575500 0.007049
v 71.957308 67.389614 -20.684383
vn -5.159852 -3.585104 0.036746
v 72.009181 67.257129 -27.465333
vn -2.457539 -1.700803 0.025384
v 74.223150 63.975550 -35.128400
vn -5.167117 -3.574479 0.048783
v 74.204328 64.014691 -34.327963
vn -5.150247 -3.599010 0.021547
v 69.707745 70.608085 -23.339986
vn -5.147386 -3.603101 0.022100
v 69.361928 71.106570 -22.503180
vn -5.146209 -3.604791 0.020665
v 69.172020 71.372801 -23.431300
vn -5.164949 -3.577656 0.044403
v 73.872957 64.537977 -30.775400
vn -5.171232 -3.568611 0.042283
v 74.335343 63.860909 -31.321729
vn -5.176638 -3.560806 0.036041
v 74.372432 63.820437 -30.287449
vn -5.154828 -3.592333 0.034593
v 70.818141 69.016804 -23.420833
vn -5.160387 -3.584322 0.037958
v 70.876698 68.921197 -24.402561
vn -5.164696 -3.578068 0.041124
v 71.348738 68.247903 -23.885497
vn -5.158134 -3.587606 0.033205
v 70.392941 69.614225 -24.812800
vn -5.148029 -3.602173 0.023748
v 69.599967 70.772824 -21.579861
vn -5.149969 -3.599400 0.023567
v 70.210578 69.899463 -21.634023
vn -5.149545 -3.600044 0.013968
v 69.900005 70.349231 -20.736947
vn -5.162913 -3.580885 -0.001728
v 70.700838 69.199383 -19.192157
vn -5.156324 -3.590346 0.001513
v 70.281877 69.803968 -19.958176
vn -5.163153 -3.580540 -0.002128
v 70.850745 68.983837 -20.115095
vn -5.138691 -3.615476 0.018330
v 69.019176 71.601890 -21.676307
vn -5.160924 -3.583503 0.042152
v 73.277766 65.375739 -32.390319
vn -5.159441 -3.585647 0.041469
v 73.320768 65.326139 -31.278274
vn -5.156601 -3.589753 0.038963
v 72.750579 66.141256 -31.787791
vn -5.161172 -3.583360 0.009366
v 69.218594 71.327597 -19.466098
vn -5.151599 -3.596737 0.040438
v 68.791844 71.942965 -19.902855
vn -5.165211 -3.577549 0.009731
v 71.474373 68.084007 -21.484013
vn -5.171080 -3.568991 0.023698
v 71.907966 67.452906 -22.396741
vn -5.168893 -3.572209 0.016867
v 72.030557 67.278889 -21.556660
vn -5.179637 -3.556564 0.014249
v 72.461568 66.657538 -21.112486
vn -5.191494 -3.539251 0.021693
v 72.906640 66.002526 -21.673590
vn -5.192442 -3.537910 0.008124
v 72.918275 65.989577 -20.783148
vn -2.587199 -1.758984 -0.001126
v 73.260950 65.485550 -20.129400
vn -2.580885 -1.782500 0.003443
v 74.029950 64.334100 -27.199850
vn -5.155060 -3.591839 0.047330
v 71.026872 68.615323 -32.267972
vn -5.168529 -3.572510 0.043654
v 74.395601 63.748730 -33.445256
vn -2.383752 -1.647897 0.021260
v 74.665675 63.346625 -34.387400
vn -5.160569 -3.584255 -0.004965
v 70.548829 69.418276 -18.258641
vn -5.155367 -3.591435 0.046537
v 72.272533 66.801373 -34.026684
vn -5.150932 -3.597770 0.048395
v 72.422500 66.574494 -35.026924
vn -5.167202 -3.574560 0.024123
v 72.605502 66.400505 -27.428934
vn -5.156306 -3.590171 0.039296
v 72.315817 66.809688 -28.211624
vn -5.155837 -3.590670 0.053059
v 71.705035 67.617341 -34.049930
vn -5.146687 -3.603719 0.056163
v 71.193103 68.348860 -34.177403
vn -2.335631 -1.639946 0.026458
v 70.641075 69.131750 -34.356850
vn -5.155820 -3.590784 0.046991
v 72.329117 66.778778 -29.121687
vn -5.150995 -3.597592 0.054754
v 72.596641 66.315289 -35.696767
vn -5.134079 -3.622012 0.015644
v 68.728767 72.004873 -23.494665
vn -5.145115 -3.606357 0.020027
v 69.002154 71.609905 -24.297336
vn -2.453686 -1.719998 0.008779
v 68.809100 71.882800 -24.788975
vn -5.160192 -3.584492 0.046500
v 71.872198 67.415302 -30.587920
vn -5.165430 -3.576976 0.044536
v 71.408585 68.087011 -30.438184
vn -5.171562 -3.568188 0.037022
v 71.880918 67.482491 -23.440138
vn -5.147188 -3.602983 0.057725
v 70.507837 69.354716 -32.454729
vn -2.470355 -1.731627 0.030342
v 70.327500 69.597900 -33.245000
vn -5.180234 -3.555687 0.025814
v 74.799051 63.201116 -29.874577
vn -5.180269 -3.555650 0.023444
v 74.489193 63.658199 -29.224882
vn -5.171110 -3.569018 0.011603
v 73.529745 65.056792 -28.028559
vn -5.175051 -3.563299 0.012160
v 73.159024 65.595934 -27.346694
vn -5.174194 -3.564515 0.017280
v 73.995844 64.378788 -28.746504
vn -5.177758 -3.559366 0.011738
v 72.881701 66.002271 -26.647732
vn -2.694002 -1.852981 0.005614
v 73.330925 65.349350 -26.419650
vn -5.181071 -3.554370 0.033820
v 72.439028 66.676350 -23.077817
vn -5.191120 -3.539742 0.029826
v 72.888010 66.022346 -22.681390
vn -5.156662 -3.589757 0.029753
v 69.882269 70.343955 -25.165103
vn -5.170240 -3.570086 0.039084
v 74.826420 63.143784 -31.864218
vn -5.150670 -3.598380 0.026037
v 70.559848 69.393304 -22.518484
vn -5.151916 -3.596599 0.025614
v 70.261082 69.815342 -23.263838
vn -5.155046 -3.591952 0.042059
v 72.265516 66.843476 -31.141384
vn -5.155383 -3.591408 0.047289
v 72.321352 66.776303 -30.156410
vn -2.390650 -1.665041 -0.002996
v 69.690256 70.650148 -17.392611
vn -5.154011 -3.593581 0.027408
v 70.034930 70.133659 -24.135355
vn -5.156624 -3.589874 0.016667
v 70.832822 69.008187 -21.704065
vn -5.163367 -3.580227 0.003081
v 71.002980 68.764734 -20.923047
vn -5.161085 -3.583507 -0.003175
v 69.207685 71.345028 -18.637013
vn -5.165149 -3.577380 0.044393
v 73.842397 64.555753 -32.904911
vn -2.568079 -1.809292 0.032216
v 68.331200 72.591300 -20.214000
vn -5.133156 -3.623122 0.037754
v 68.671880 72.095520 -20.903059
vn -5.165393 -3.577307 -0.001780
v 71.544146 67.982337 -17.798165
vn -2.550202 -1.765169 -0.001879
v 71.829150 67.570000 -17.288500
vn -5.169332 -3.571365 0.042051
v 74.358460 63.815748 -32.365308
vn -2.573086 -1.752300 0.013033
v 73.314000 65.400050 -22.255600
vn -5.126198 -3.633195 0.017827
v 68.489823 72.349692 -21.905453
vn -2.402870 -1.678934 0.023135
v 70.191575 69.830900 -30.796000
vn -2.496596 -1.771924 0.011305
v 68.150600 72.827025 -22.003225
vn -5.177824 -3.559237 0.019252
v 74.391862 63.804522 -28.383297
vn -2.515117 -1.726325 0.010002
v 74.827000 63.170450 -28.434200
vn -5.157196 -3.588798 0.045915
v 70.832717 68.918796 -30.369576
vn -5.180448 -3.555281 0.033832
v 72.458127 66.638135 -24.132259
vn -5.151007 -3.597646 0.049667
v 70.603903 69.229782 -31.577605
vn -5.179247 -3.557048 0.030307
v 72.420476 66.683686 -25.206503
vn -5.151264 -3.597617 0.006365
v 69.712530 70.618628 -19.837368
vn -5.145382 -3.605555 0.058524
v 70.867250 68.827875 -33.250938
vn -5.157432 -3.588771 -0.004295
v 70.357983 69.690797 -17.480785
vn -5.162733 -3.580878 0.041887
v 71.707187 67.643276 -31.346819
vn -5.156132 -3.590633 -0.007842
v 69.961584 70.262288 -18.156786
vn -5.156215 -3.590348 0.034908
v 72.184735 66.948390 -32.164450
vn -5.155206 -3.591967 -0.006134
v 69.470205 70.966949 -18.070119
vn -5.153961 -3.593754 -0.000087
v 69.625604 70.745271 -18.758975
# 197 vertices, 0 vertices normals

f 73//73 74//74 75//75
f 3//3 34//34 35//35
f 76//76 77//77 78//78
f 78//78 79//79 80//80
f 81//81 82//82 177//177
f 83//83 84//84 82//82
f 86//86 87//87 88//88
f 89//89 7//7 90//90
f 195//195 91//91 92//92
f 3//3 35//35 40//40
f 93//93 94//94 74//74
f 94//94 9//9 95//95
f 187//187 42//42 43//43
f 18//18 44//44 45//45
f 70//70 11//11 46//46
f 11//11 84//84 46//46
f 98//98 99//99 83//83
f 100//100 75//75 96//96
f 80//80 101//101 102//102
f 14//14 49//49 79//79
f 103//103 104//104 105//105
f 106//106 107//107 108//108
f 90//90 41//41 50//50
f 109//109 110//110 111//111
f 112//112 93//93 110//110
f 113//113 114//114 115//115
f 116//116 117//117 118//118
f 104//104 113//113 119//119
f 120//120 121//121 122//122
f 15//15 123//123 124//124
f 115//115 117//117 190//190
f 125//125 126//126 127//127
f 128//128 129//129 130//130
f 130//130 131//131 97//97
f 65//65 33//33 132//132
f 3//3 55//55 34//34
f 152//152 133//133 188//188
f 18//18 56//56 44//44
f 136//136 116//116 81//81
f 4//4 57//57 39//39
f 152//152 58//58 63//63
f 137//137 138//138 77//77
f 139//139 100//100 140//140
f 92//92 141//141 137//137
f 141//141 142//142 3//3
f 8//8 50//50 59//59
f 140//140 7//7 144//144
f 14//14 138//138 145//145
f 49//49 145//145 60//60
f 105//105 146//146 147//147
f 147//147 148//148 62//62
f 149//149 150//150 193//193
f 151//151 111//111 85//85
f 108//108 154//154 155//155
f 156//156 87//87 158//158
f 16//16 161//161 162//162
f 163//163 26//26 62//62
f 9//9 163//163 37//37
f 12//12 164//164 67//67
f 165//165 166//166 109//109
f 149//149 167//167 168//168
f 167//167 195//195 122//122
f 170//170 166//166 103//103
f 170//170 163//163 112//112
f 114//114 165//165 171//171
f 98//98 118//118 172//172
f 76//76 174//174 120//120
f 86//86 121//121 106//106
f 124//124 175//175 176//176
f 151//151 161//161 126//126
f 177//177 11//11 178//178
f 12//12 67//67 71//71
f 179//179 164//164 107//107
f 127//127 128//128 99//99
f 14//14 145//145 49//49
f 174//174 134//134 179//179
f 23//23 72//72 146//146
f 139//139 157//157 159//159
f 162//162 180//180 129//129
f 125//125 172//172 171//171
f 119//119 176//176 181//181
f 144//144 168//168 88//88
f 89//89 186//186 150//150
f 158//158 155//155 184//184
f 31//31 73//73 75//75
f 73//73 1//1 74//74
f 75//75 74//74 25//25
f 6//6 76//76 78//78
f 76//76 5//5 77//77
f 78//78 77//77 14//14
f 6//6 78//78 80//80
f 78//78 14//14 79//79
f 80//80 79//79 36//36
f 4//4 81//81 177//177
f 81//81 10//10 82//82
f 177//177 82//82 11//11
f 10//10 83//83 82//82
f 83//83 97//97 84//84
f 82//82 84//84 11//11
f 31//31 48//48 189//189
f 189//189 187//187 85//85
f 73//73 189//189 85//85
f 28//28 86//86 88//88
f 86//86 2//2 87//87
f 88//88 87//87 21//21
f 8//8 89//89 90//90
f 89//89 13//13 7//7
f 4//4 39//39 192//192
f 38//38 192//192 39//39
f 5//5 195//195 92//92
f 92//92 91//91 22//22
f 40//40 20//20 3//3
f 1//1 93//93 74//74
f 93//93 9//9 94//94
f 74//74 94//94 25//25
f 37//37 95//95 9//9
f 25//25 94//94 41//41
f 95//95 41//41 94//94
f 25//25 41//41 96//96
f 96//96 90//90 7//7
f 84//84 47//47 46//46
f 10//10 98//98 83//83
f 98//98 125//125 99//99
f 83//83 99//99 97//97
f 7//7 100//100 96//96
f 100//100 31//31 75//75
f 96//96 75//75 25//25
f 6//6 80//80 102//102
f 80//80 36//36 101//101
f 102//102 101//101 135//135
f 79//79 49//49 36//36
f 26//26 103//103 105//105
f 103//103 27//27 104//104
f 105//105 104//104 23//23
f 2//2 106//106 108//108
f 106//106 30//30 107//107
f 108//108 107//107 12//12
f 41//41 90//90 96//96
f 8//8 90//90 50//50
f 24//24 109//109 111//111
f 109//109 17//17 110//110
f 111//111 110//110 1//1
f 17//17 112//112 110//110
f 112//112 9//9 93//93
f 110//110 93//93 1//1
f 15//15 113//113 115//115
f 113//113 27//27 114//114
f 115//115 114//114 29//29
f 10//10 116//116 118//118
f 116//116 19//19 117//117
f 118//118 117//117 29//29
f 23//23 104//104 119//119
f 104//104 27//27 113//113
f 119//119 113//113 15//15
f 5//5 120//120 122//122
f 120//120 30//30 121//121
f 122//122 121//121 28//28
f 51//51 124//124 123//123
f 52//52 124//124 51//51
f 115//115 29//29 117//117
f 197//197 190//190 19//19
f 125//125 24//24 126//126
f 127//127 126//126 16//16
f 97//97 128//128 130//130
f 128//128 16//16 129//129
f 130//130 129//129 53//53
f 130//130 53//53 131//131
f 97//97 131//131 47//47
f 132//132 33//33 54//54
f 134//134 6//6 102//102
f 134//134 102//102 135//135
f 135//135 56//56 134//134
f 4//4 136//136 81//81
f 136//136 19//19 116//116
f 81//81 116//116 10//10
f 5//5 137//137 77//77
f 137//137 20//20 138//138
f 77//77 138//138 14//14
f 21//21 139//139 140//140
f 139//139 31//31 100//100
f 140//140 100//100 7//7
f 5//5 92//92 137//137
f 92//92 22//22 141//141
f 137//137 141//141 20//20
f 142//142 191//191 143//143
f 3//3 142//142 55//55
f 143//143 55//55 142//142
f 20//20 141//141 3//3
f 141//141 22//22 142//142
f 21//21 140//140 144//144
f 144//144 7//7 13//13
f 40//40 145//145 138//138
f 145//145 40//40 60//60
f 26//26 105//105 147//147
f 105//105 23//23 146//146
f 147//147 146//146 61//61
f 148//148 147//147 61//61
f 26//26 147//147 62//62
f 149//149 13//13 150//150
f 193//193 150//150 32//32
f 151//151 24//24 111//111
f 85//85 111//111 1//1
f 22//22 133//133 191//191
f 152//152 63//63 153//153
f 191//191 153//153 143//143
f 2//2 108//108 155//155
f 108//108 12//12 154//154
f 155//155 154//154 64//64
f 21//21 156//156 157//157
f 33//33 156//156 158//158
f 156//156 21//21 87//87
f 158//158 87//87 2//2
f 31//31 159//159 48//48
f 160//160 48//48 159//159
f 161//161 43//43 162//162
f 43//43 161//161 187//187
f 66//66 162//162 43//43
f 163//163 62//62 37//37
f 45//45 164//164 18//18
f 164//164 45//45 67//67
f 24//24 165//165 109//109
f 165//165 27//27 166//166
f 109//109 166//166 17//17
f 13//13 149//149 168//168
f 168//168 167//167 28//28
f 28//28 167//167 122//122
f 167//167 193//193 195//195
f 169//169 68//68 196//196
f 26//26 170//170 103//103
f 170//170 17//17 166//166
f 103//103 166//166 27//27
f 17//17 170//170 112//112
f 170//170 26//26 163//163
f 112//112 163//163 9//9
f 29//29 114//114 171//171
f 114//114 27//27 165//165
f 171//171 165//165 24//24
f 125//125 98//98 172//172
f 98//98 10//10 118//118
f 172//172 118//118 29//29
f 15//15 115//115 190//190
f 51//51 123//123 173//173
f 5//5 76//76 120//120
f 76//76 6//6 174//174
f 120//120 174//174 30//30
f 2//2 86//86 106//106
f 86//86 28//28 121//121
f 106//106 121//121 30//30
f 15//15 124//124 176//176
f 124//124 52//52 175//175
f 176//176 175//175 69//69
f 24//24 151//151 126//126
f 126//126 161//161 16//16
f 70//70 178//178 11//11
f 4//4 177//177 57//57
f 178//178 57//57 177//177
f 19//19 136//136 194//194
f 136//136 4//4 192//192
f 169//169 192//192 38//38
f 12//12 71//71 154//154
f 64//64 154//154 71//71
f 30//30 179//179 107//107
f 179//179 18//18 164//164
f 107//107 164//164 12//12
f 125//125 127//127 99//99
f 127//127 16//16 128//128
f 99//99 128//128 97//97
f 30//30 174//174 179//179
f 174//174 6//6 134//134
f 179//179 134//134 18//18
f 146//146 72//72 61//61
f 31//31 139//139 159//159
f 139//139 21//21 157//157
f 160//160 159//159 157//157
f 65//65 160//160 157//157
f 16//16 162//162 129//129
f 162//162 66//66 180//180
f 129//129 180//180 53//53
f 24//24 125//125 171//171
f 171//171 172//172 29//29
f 23//23 119//119 181//181
f 119//119 15//15 176//176
f 181//181 176//176 69//69
f 183//183 181//181 69//69
f 133//133 22//22 91//91
f 188//188 32//32 186//186
f 188//188 186//186 182//182
f 152//152 188//188 58//58
f 182//182 58//58 188//188
f 23//23 181//181 72//72
f 183//183 72//72 181//181
f 33//33 184//184 54//54
f 185//185 54//54 184//184
f 21//21 144//144 88//88
f 144//144 13//13 168//168
f 88//88 168//168 28//28
f 59//59 186//186 8//8
f 182//182 186//186 59//59
f 13//13 89//89 150//150
f 89//89 8//8 186//186
f 33//33 158//158 184//184
f 158//158 2//2 155//155
f 64//64 185//185 155//155
f 155//155 185//185 184//184
f 84//84 97//97 47//47
f 138//138 20//20 40//40
f 151//151 85//85 187//187
f 187//187 161//161 151//151
f 18//18 134//134 56//56
f 156//156 33//33 65//65
f 73//73 85//85 1//1
f 188//188 133//133 32//32
f 142//142 22//22 191//191
f 157//157 156//156 65//65
f 123//123 197//197 173//173
f 190//190 117//117 19//19
f 31//31 189//189 73//73
f 42//42 189//189 48//48
f 187//187 189//189 42//42
f 123//123 190//190 197//197
f 152//152 191//191 133//133
f 191//191 152//152 153//153
f 15//15 190//190 123//123
f 169//169 194//194 192//192
f 173//173 197//197 196//196
f 197//197 19//19 194//194
f 149//149 193//193 167//167
f 91//91 195//195 193//193
f 194//194 136//136 192//192
f 122//122 195//195 5//5
f 32//32 133//133 91//91
f 193//193 32//32 91//91
f 150//150 186//186 32//32
f 173//173 68//68 51//51
f 196//196 68//68 173//173
f 194//194 196//196 197//197
f 196//196 194//194 169//169
# 337 faces, 0 coords texture

# End of File
