####
#
# OBJ File Generated by Meshlab
#
####
# Object 2427_C136_S_1.obj
#
# Vertices: 91
# Faces: 150
#
####
vn -5.154764 -3.591270 -0.097333
v 74.154252 67.565094 34.946634
vn -5.158121 -3.586657 -0.085913
v 76.094363 64.731249 36.464200
vn -5.163337 -3.579146 -0.089610
v 75.493353 65.636628 35.113440
vn -5.161704 -3.581287 -0.097889
v 75.086708 66.272838 33.222257
vn -5.147192 -3.601495 -0.115968
v 73.068143 69.165579 33.721471
vn -5.140540 -3.611286 -0.107924
v 72.947089 69.276953 35.597574
vn -5.179933 -3.555449 -0.068355
v 77.328858 62.985593 34.315539
vn -5.165437 -3.576344 -0.078073
v 76.557108 64.086466 35.734552
vn -5.175638 -3.561335 -0.088363
v 76.243455 64.590300 33.652781
vn -5.159519 -3.584549 -0.087696
v 74.925702 66.418363 36.870579
vn -5.163503 -3.578529 -0.103755
v 74.015925 67.831758 32.627505
vn -5.159222 -3.585355 -0.076333
v 75.559987 65.463046 38.278742
vn -5.162559 -3.579970 -0.100985
v 74.911933 66.580652 31.136893
vn -5.174403 -3.563099 -0.088110
v 75.800661 65.283726 31.716038
vn -5.186637 -3.545593 -0.076803
v 76.896044 63.678483 31.923983
vn -2.199249 -1.534363 -0.028399
v 75.819700 65.076000 39.077500
vn -2.283388 -1.578818 -0.048404
v 73.212500 69.017300 31.849200
vn -2.438292 -1.671058 -0.041346
v 77.455200 62.850700 32.431000
vn -2.260791 -1.543012 -0.029166
v 77.177900 63.273100 31.522600
vn -2.227049 -1.538373 -0.025728
v 77.437100 62.800900 36.482000
vn -2.454921 -1.684578 -0.041952
v 77.643500 62.546900 33.500500
vn -2.542367 -1.796068 -0.057148
v 72.621500 69.749300 35.228400
vn -2.263462 -1.601424 -0.045647
v 72.618100 69.738000 35.736100
vn -2.216903 -1.544282 -0.028154
v 76.739700 63.774100 38.159300
vn -2.608170 -1.812843 -0.058906
v 72.995000 69.307900 32.578700
vn -2.248651 -1.550968 -0.025881
v 77.717100 62.421100 34.411700
vn -2.640198 -1.818914 -0.023359
v 77.538400 62.665200 35.587900
vn -2.300715 -1.610367 -0.041851
v 73.479600 68.442000 38.340500
vn -2.171387 -1.516020 -0.038180
v 74.623700 66.787550 39.235550
vn -2.215551 -1.514413 -0.032634
v 76.344900 64.516900 30.360000
vn -2.229422 -1.540108 -0.041011
v 75.213550 66.179150 29.974450
vn -2.247778 -1.555406 -0.044725
v 74.017900 67.887150 30.589950
vn -2.269564 -1.601900 -0.053645
v 72.701200 69.693800 33.472500
vn -2.527860 -1.773081 -0.047585
v 72.983600 69.177900 37.177900
vn -2.507603 -1.765403 -0.050263
v 72.719900 69.582500 36.197300
vn -2.322113 -1.624706 -0.037216
v 73.201500 68.852700 37.876100
vn -2.468410 -1.742204 -0.057013
v 72.649600 69.748600 34.026500
vn -5.153267 -3.593136 -0.107051
v 73.474979 68.527389 35.347077
vn -5.144106 -3.605859 -0.118165
v 73.042231 69.170209 34.707119
vn -5.158259 -3.585838 -0.111624
v 73.556615 68.445176 34.292936
vn -2.577167 -1.795452 -0.036800
v 75.223650 65.928950 39.156500
vn -5.160890 -3.582655 -0.089787
v 75.092269 66.132411 38.463806
vn -5.161625 -3.581461 -0.095854
v 74.953597 66.490759 32.239864
vn -5.161741 -3.581233 -0.098036
v 75.319530 65.978785 31.661069
vn -5.163604 -3.578556 -0.097623
v 75.465962 65.746071 32.471981
vn -5.160984 -3.582383 -0.095563
v 75.276115 65.973981 34.188299
vn -5.165449 -3.575933 -0.096178
v 75.662166 65.436197 33.421298
vn -5.164480 -3.577496 -0.089831
v 75.867278 65.114939 34.386123
vn -5.167129 -3.573139 -0.108749
v 73.554598 68.511158 32.220297
vn -2.573061 -1.776976 -0.051029
v 73.597500 68.477250 31.238450
vn -5.167098 -3.573381 -0.102257
v 74.000641 67.882381 31.627409
vn -5.168810 -3.571834 -0.059652
v 77.030667 63.395179 36.129185
vn -2.583934 -1.792082 -0.037006
v 77.168200 63.176100 37.126000
vn -5.184910 -3.547785 -0.091229
v 77.154791 63.268224 33.205104
vn -5.176691 -3.559935 -0.080683
v 76.433313 64.291401 34.675822
vn -5.162294 -3.580487 -0.095818
v 76.037934 64.844691 35.366773
vn -5.169184 -3.570550 -0.094395
v 75.669577 65.360276 35.900182
vn -5.163006 -3.579079 -0.109290
v 73.531396 68.512981 33.209097
vn -5.160395 -3.582999 -0.104190
v 74.071725 67.720152 33.701570
vn -5.181226 -3.553792 -0.059718
v 76.965848 63.503435 35.049810
vn -5.153599 -3.593571 -0.071082
v 76.462302 64.186281 37.398498
vn -5.160578 -3.582852 -0.100010
v 74.534605 67.075112 32.968658
vn -5.163052 -3.579312 -0.099054
v 74.456526 67.214658 31.954931
vn -5.158164 -3.586280 -0.101677
v 74.658818 66.865597 34.022727
vn -5.143331 -3.607769 -0.092574
v 74.175432 67.451919 38.252126
vn -2.570411 -1.802360 -0.045929
v 74.043050 67.627200 38.782450
vn -5.156941 -3.588454 -0.084639
v 74.878938 66.521664 35.024578
vn -5.166369 -3.574980 -0.078758
v 75.175757 66.077554 35.924692
vn -5.149577 -3.599113 -0.080089
v 74.554146 66.969279 35.997268
vn -5.142746 -3.608635 -0.091268
v 74.290365 67.317315 37.122535
vn -5.153033 -3.593735 -0.096949
v 74.741598 66.652872 37.948888
vn -5.162616 -3.580447 -0.075543
v 75.812500 65.116792 37.410847
vn -5.169684 -3.569888 -0.092363
v 75.271665 65.897966 37.592153
vn -5.174654 -3.562868 -0.085511
v 75.485872 65.607738 36.690126
vn -5.172811 -3.565366 -0.089728
v 75.522095 65.708086 30.909330
vn -2.569586 -1.758022 -0.039064
v 75.829350 65.275750 30.169650
vn -5.185885 -3.546720 -0.076092
v 76.095832 64.868286 30.963066
vn -5.164583 -3.577000 -0.102832
v 74.392775 67.331237 31.097954
vn -2.526550 -1.750326 -0.050735
v 74.583300 67.080400 30.260900
vn -5.146732 -3.602932 -0.091491
v 73.894529 67.904648 36.173608
vn -5.146601 -3.602831 -0.102017
v 73.258998 68.811172 36.317189
vn -5.152571 -3.595141 -0.066284
v 76.097965 64.694345 38.151112
vn -2.595443 -1.810612 -0.033421
v 76.219900 64.510050 38.666150
vn -5.174508 -3.562873 -0.092268
v 76.030061 64.926376 32.647390
vn -5.184823 -3.548209 -0.078777
v 76.381608 64.432767 31.816952
vn -2.596133 -1.774610 -0.036617
v 76.692875 63.997675 30.847375
vn -5.185801 -3.546584 -0.087101
v 76.602940 64.084287 32.886116
vn -5.188587 -3.542648 -0.080836
v 76.808145 63.756430 33.960785
vn -5.156209 -3.589637 -0.078249
v 76.656475 63.923245 36.718826
vn -5.144193 -3.606567 -0.091408
v 73.698122 68.150817 37.530579
vn -5.144963 -3.605371 -0.095149
v 73.641068 68.248969 36.883747
# 91 vertices, 0 vertices normals

f 38//38 39//39 40//40
f 29//29 42//42 41//41
f 43//43 44//44 45//45
f 46//46 47//47 48//48
f 49//49 50//50 51//51
f 15//15 19//19 18//18
f 89//89 52//52 53//53
f 7//7 54//54 21//21
f 6//6 23//23 22//22
f 55//55 56//56 48//48
f 2//2 57//57 56//56
f 11//11 58//58 49//49
f 59//59 40//40 58//58
f 60//60 7//7 27//27
f 62//62 63//63 43//43
f 64//64 59//59 62//62
f 46//46 67//67 64//64
f 68//68 69//69 67//67
f 70//70 71//71 65//65
f 72//72 73//73 74//74
f 57//57 74//74 68//68
f 75//75 76//76 77//77
f 78//78 79//79 13//13
f 82//82 72//72 61//61
f 80//80 81//81 38//38
f 58//58 5//5 25//25
f 82//82 24//24 83//83
f 47//47 45//45 84//84
f 44//44 13//13 75//75
f 63//63 51//51 78//78
f 6//6 81//81 35//35
f 90//90 28//28 36//36
f 80//80 69//69 70//70
f 73//73 42//42 71//71
f 84//84 85//85 87//87
f 6//6 35//35 23//23
f 5//5 37//37 33//33
f 60//60 55//55 88//88
f 54//54 88//88 87//87
f 7//7 21//21 26//26
f 1//1 38//38 40//40
f 38//38 6//6 39//39
f 40//40 39//39 5//5
f 12//12 41//41 42//42
f 41//41 12//12 16//16
f 4//4 43//43 45//45
f 43//43 13//13 44//44
f 45//45 44//44 14//14
f 3//3 46//46 48//48
f 46//46 4//4 47//47
f 48//48 47//47 9//9
f 11//11 49//49 51//51
f 49//49 17//17 50//50
f 51//51 50//50 32//32
f 53//53 52//52 20//20
f 53//53 24//24 61//61
f 54//54 18//18 21//21
f 9//9 55//55 48//48
f 55//55 8//8 56//56
f 48//48 56//56 3//3
f 8//8 2//2 56//56
f 56//56 57//57 3//3
f 58//58 25//25 49//49
f 17//17 49//49 25//25
f 11//11 59//59 58//58
f 59//59 1//1 40//40
f 58//58 40//40 5//5
f 7//7 26//26 27//27
f 8//8 60//60 52//52
f 52//52 60//60 27//27
f 20//20 52//52 27//27
f 4//4 62//62 43//43
f 62//62 11//11 63//63
f 43//43 63//63 13//13
f 4//4 64//64 62//62
f 64//64 1//1 59//59
f 62//62 59//59 11//11
f 66//66 28//28 65//65
f 4//4 46//46 64//64
f 46//46 3//3 67//67
f 64//64 67//67 1//1
f 3//3 68//68 67//67
f 68//68 10//10 69//69
f 67//67 69//69 1//1
f 70//70 10//10 71//71
f 2//2 72//72 74//74
f 72//72 12//12 73//73
f 74//74 73//73 10//10
f 3//3 57//57 68//68
f 57//57 2//2 74//74
f 68//68 74//74 10//10
f 14//14 75//75 77//77
f 75//75 31//31 76//76
f 77//77 76//76 30//30
f 78//78 32//32 79//79
f 13//13 79//79 31//31
f 24//24 82//82 61//61
f 82//82 12//12 72//72
f 61//61 72//72 2//2
f 1//1 80//80 38//38
f 38//38 81//81 6//6
f 12//12 82//82 16//16
f 83//83 16//16 82//82
f 9//9 47//47 84//84
f 47//47 4//4 45//45
f 84//84 45//45 14//14
f 14//14 44//44 75//75
f 75//75 13//13 31//31
f 13//13 63//63 78//78
f 63//63 11//11 51//51
f 78//78 51//51 32//32
f 81//81 34//34 35//35
f 80//80 1//1 69//69
f 70//70 69//69 10//10
f 10//10 73//73 71//71
f 73//73 12//12 42//42
f 71//71 42//42 29//29
f 85//85 14//14 77//77
f 86//86 77//77 30//30
f 86//86 85//85 77//77
f 86//86 19//19 15//15
f 9//9 84//84 87//87
f 84//84 14//14 85//85
f 87//87 85//85 15//15
f 39//39 22//22 37//37
f 22//22 39//39 6//6
f 5//5 39//39 37//37
f 7//7 60//60 88//88
f 60//60 8//8 55//55
f 88//88 55//55 9//9
f 54//54 7//7 88//88
f 87//87 88//88 9//9
f 5//5 33//33 25//25
f 89//89 61//61 2//2
f 8//8 89//89 2//2
f 89//89 8//8 52//52
f 65//65 29//29 66//66
f 65//65 71//71 29//29
f 90//90 36//36 34//34
f 53//53 61//61 89//89
f 90//90 34//34 91//91
f 90//90 91//91 70//70
f 90//90 70//70 65//65
f 15//15 18//18 54//54
f 15//15 54//54 87//87
f 28//28 90//90 65//65
f 80//80 91//91 81//81
f 91//91 34//34 81//81
f 91//91 80//80 70//70
f 15//15 85//85 86//86
# 150 faces, 0 coords texture

# End of File
