####
#
# OBJ File Generated by Meshlab
#
####
# Object 2436_C137_S_0.obj
#
# Vertices: 180
# Faces: 312
#
####
vn 5.194577 -3.534393 -0.053232
v -73.928243 67.038409 36.949595
vn 5.191188 -3.539364 -0.052639
v -73.455897 67.755979 35.483195
vn 5.202244 -3.522773 -0.070706
v -71.465766 70.850922 26.517370
vn 5.206962 -3.516123 -0.051082
v -74.548141 66.195350 32.476408
vn 5.192605 -3.537191 -0.059122
v -73.566420 67.618373 33.783146
vn 5.199531 -3.526788 -0.067415
v -73.527683 67.716854 31.731338
vn 5.195092 -3.533763 -0.030640
v -76.091399 63.932799 31.204780
vn 5.191054 -3.539866 -0.025380
v -75.855203 64.233384 35.548363
vn 5.186222 -3.546139 -0.079258
v -72.498579 69.248833 30.693189
vn 5.198525 -3.528661 -0.040324
v -75.722488 64.440766 33.226895
vn 5.199786 -3.526390 -0.060083
v -72.967646 68.608304 28.631653
vn 5.187388 -3.544610 -0.070202
v -72.566780 69.095277 32.935616
vn 5.197688 -3.529385 -0.074583
v -70.714610 71.909954 28.784000
vn 5.218057 -3.499468 -0.063054
v -74.073951 66.961697 28.320540
vn 5.189467 -3.541035 -0.091152
v -71.327121 70.957187 30.572509
vn 5.187587 -3.543769 -0.077907
v -70.815870 71.654740 32.334753
vn 5.200083 -3.525104 -0.104007
v -70.273716 72.515083 30.603383
vn 5.199674 -3.527164 -0.027417
v -76.614040 63.127266 34.019805
vn 5.204540 -3.519841 -0.040586
v -75.448711 64.877278 30.908343
vn 5.191481 -3.538524 -0.074806
v -71.872041 70.207122 28.645161
vn 5.195905 -3.532534 -0.045913
v -74.586530 66.101133 34.882829
vn 5.182311 -3.552232 -0.060508
v -71.540202 70.576167 34.172032
vn 5.183042 -3.551310 -0.051271
v -72.362042 69.346771 35.951738
vn 5.194365 -3.534616 -0.057140
v -72.502856 69.309913 26.898013
vn 5.186096 -3.547054 -0.033721
v -76.158910 63.772870 37.522802
vn 5.214382 -3.505050 -0.054214
v -74.407899 66.427732 30.322991
vn 5.184920 -3.548684 -0.042891
v -75.072817 65.363214 36.913786
vn 5.177564 -3.559467 -0.037952
v -75.132181 65.251986 39.063316
vn 5.192857 -3.536988 -0.047927
v -73.312876 67.937826 37.377800
vn 2.297433 -1.577509 -0.015241
v -74.613200 65.999600 39.760900
vn 2.326808 -1.585276 -0.016351
v -74.026900 66.856400 39.664100
vn 2.447460 -1.675151 -0.016690
v -76.292700 63.570100 38.262900
vn 2.303713 -1.570168 -0.014497
v -76.483700 63.293200 37.863500
vn 2.737942 -1.860961 -0.002523
v -76.353700 63.548700 30.215900
vn 2.327903 -1.571082 -0.013125
v -76.666150 63.083150 31.135550
vn 2.616998 -1.771681 -0.036609
v -71.359600 71.014500 26.190350
vn 2.567976 -1.739468 -0.020916
v -76.839600 62.803200 32.851150
vn 2.852210 -1.931394 -0.063709
v -69.973400 72.933000 31.389100
vn 2.167936 -1.477468 -0.042198
v -69.869600 73.109200 30.563300
vn 2.616474 -1.748121 -0.028545
v -75.063050 65.508850 27.007450
vn 2.542887 -1.723057 -0.035117
v -70.112000 72.795100 28.997900
vn 2.145932 -1.466195 -0.022712
v -70.307100 72.520900 27.827500
vn 2.653935 -1.799528 -0.047208
v -70.023700 72.908300 29.669200
vn 2.800497 -1.907254 -0.040164
v -71.069500 71.431800 26.593200
vn 2.491816 -1.675271 -0.013413
v -76.176600 63.808400 29.425600
vn 2.575429 -1.741978 -0.032506
v -73.527100 67.826800 25.700400
vn 2.315180 -1.552435 -0.029113
v -74.189600 66.837150 25.961350
vn 2.172302 -1.469917 -0.037225
v -69.920700 72.974800 32.433400
vn 2.685320 -1.832558 -0.028695
v -70.350400 72.317500 34.052350
vn 2.141284 -1.454393 -0.025704
v -72.325100 69.597400 25.400200
vn 2.346358 -1.588667 -0.008051
v -76.966000 62.599100 34.844100
vn 2.712895 -1.846695 -0.002150
v -76.848200 62.774200 35.943000
vn 2.463426 -1.685989 -0.018915
v -72.137900 69.652050 37.954500
vn 2.178504 -1.481573 -0.017829
v -73.164700 68.134000 39.126100
vn 2.548715 -1.751029 -0.026919
v -71.203900 71.025250 36.440700
vn 2.098017 -1.426362 -0.033918
v -71.168800 71.292200 26.329200
vn 2.247487 -1.540914 -0.031351
v -70.571100 71.968700 35.229900
vn 2.883296 -1.955123 -0.024088
v -73.390600 67.800500 39.157100
vn 2.753526 -1.880533 -0.014547
v -76.697900 62.989200 36.833100
vn 2.189447 -1.496364 -0.009269
v -76.833600 62.793800 36.435500
vn 2.105634 -1.401945 -0.016139
v -75.767800 64.437400 27.846700
vn 2.439300 -1.675790 -0.016654
v -75.336800 64.950600 39.419600
vn 2.382879 -1.635548 -0.017882
v -75.722900 64.391500 39.096600
vn 5.188459 -3.543454 -0.042023
v -74.247430 66.542026 38.766177
vn 5.223658 -3.490977 -0.069557
v -74.435371 66.452656 26.838764
vn 2.590671 -1.728822 -0.032187
v -74.663800 66.116400 26.513850
vn 5.178941 -3.556851 -0.076059
v -71.885408 70.143944 30.584172
vn 5.174057 -3.563855 -0.079560
v -71.594935 70.549721 31.433469
vn 5.182296 -3.551887 -0.078901
v -72.095057 69.821822 31.418123
vn 5.190411 -3.540511 -0.052046
v -73.371389 67.866016 36.420249
vn 5.196977 -3.530856 -0.053877
v -73.806059 67.232007 36.048136
vn 5.177837 -3.559032 -0.040932
v -74.773596 65.778316 38.576120
vn 5.190559 -3.539821 -0.078242
v -73.024000 68.465126 31.291507
vn 5.207234 -3.515357 -0.069045
v -73.480703 67.805920 30.728106
vn 5.194005 -3.534771 -0.077932
v -73.021805 68.486886 30.372684
vn 5.194820 -3.534099 -0.045199
v -76.319039 63.567286 33.023352
vn 5.191004 -3.539534 -0.059133
v -76.062886 63.958968 32.207355
vn 5.187711 -3.543852 -0.084746
v -72.540366 69.159875 31.854509
vn 5.186064 -3.546393 -0.078759
v -73.051617 68.399576 32.339069
vn 5.183493 -3.550199 -0.076215
v -71.969246 69.983806 32.353025
vn 5.214450 -3.504899 -0.059724
v -74.690414 66.040498 28.561647
vn 5.224388 -3.490207 -0.048529
v -75.149409 65.368034 27.854149
vn 5.219853 -3.496762 -0.063600
v -74.581718 66.216184 27.652900
vn 5.187596 -3.544466 -0.062504
v -72.084648 69.790967 33.501415
vn 5.184272 -3.549446 -0.056163
v -72.142103 69.693999 34.377002
vn 5.186612 -3.546063 -0.053818
v -72.609903 69.015833 34.023760
vn 5.203862 -3.519944 -0.090707
v -70.480732 72.231437 29.739984
vn 5.202393 -3.522010 -0.094578
v -71.042381 71.402065 29.680254
vn 5.189048 -3.541738 -0.088623
v -71.604997 70.573386 29.641282
vn 5.198989 -3.527246 -0.085693
v -71.302029 71.046605 28.678406
vn 5.218188 -3.499058 -0.073643
v -74.126613 66.902563 27.401588
vn 5.215183 -3.503677 -0.066394
v -73.684216 67.555665 27.593489
vn 5.210576 -3.510645 -0.060145
v -74.823295 65.824263 29.549489
vn 5.208498 -3.513929 -0.046946
v -74.923332 65.659807 30.602431
vn 5.214673 -3.504680 -0.051413
v -75.341416 65.052379 29.837667
vn 5.190161 -3.540578 -0.068903
v -70.949676 71.584981 27.757650
vn 2.590930 -1.776401 -0.032930
v -70.688300 71.976350 27.210350
vn 2.564525 -1.719942 -0.021086
v -76.771650 62.913950 32.050650
vn 5.192815 -3.536624 -0.071625
v -73.553510 67.658087 32.758027
vn 5.186405 -3.546217 -0.061948
v -73.079391 68.337379 33.397036
vn 5.205265 -3.517403 -0.106373
v -70.783780 71.760172 30.611857
vn 5.168642 -3.571871 -0.072209
v -71.344637 70.892304 32.286056
vn 5.175884 -3.561691 -0.049885
v -71.137681 71.175281 33.182391
vn 5.177663 -3.558866 -0.064646
v -71.626958 70.470591 33.072529
vn 5.186411 -3.545100 -0.101066
v -71.053132 71.332424 31.459923
vn 5.207943 -3.514827 -0.024120
v -75.846272 64.293670 30.139164
vn 5.192262 -3.537832 -0.049835
v -74.291351 66.518757 35.973412
vn 5.196785 -3.531150 -0.053050
v -73.967302 67.007355 35.215260
vn 5.215128 -3.503970 -0.052506
v -73.981612 67.051231 31.063813
vn 5.221980 -3.493617 -0.062909
v -73.894218 67.200604 30.069358
vn 5.218183 -3.499279 -0.062875
v -74.274041 66.645210 29.331467
vn 5.221512 -3.494398 -0.058391
v -73.792668 67.367508 29.186666
vn 5.211592 -3.509308 -0.049593
v -75.094928 65.377816 32.852125
vn 5.203283 -3.521517 -0.054909
v -74.579501 66.130963 33.617234
vn 5.202562 -3.522770 -0.036583
v -75.149166 65.278944 34.042854
vn 5.200946 -3.524668 -0.072225
v -71.541168 70.719242 27.516842
vn 5.194299 -3.534620 -0.059841
v -72.162249 69.796658 27.690752
vn 5.205303 -3.518369 -0.065537
v -71.975879 70.091608 26.733630
vn 5.203582 -3.520941 -0.062982
v -73.367475 68.041296 26.836268
vn 5.193494 -3.536001 -0.050765
v -72.925721 68.686730 27.065451
vn 5.193134 -3.536292 -0.066166
v -72.939014 68.681217 26.311271
vn 5.188671 -3.543177 -0.043116
v -72.689035 69.027094 27.755533
vn 5.206895 -3.516218 -0.048698
v -73.178252 68.308100 27.733762
vn 5.180390 -3.554689 -0.078422
v -72.173001 69.746334 29.649077
vn 5.189469 -3.541352 -0.080437
v -72.732736 68.930761 29.601758
vn 5.182831 -3.551417 -0.062543
v -72.428912 69.394388 28.656925
vn 5.202812 -3.521405 -0.087217
v -70.324018 72.380765 32.354204
vn 2.609295 -1.768251 -0.025517
v -70.128400 72.656950 33.205350
vn 5.193487 -3.536097 -0.043160
v -70.602677 71.957215 33.197965
vn 5.185340 -3.547810 -0.056817
v -70.888182 71.530893 34.097832
vn 5.193785 -3.535581 -0.051490
v -73.593764 67.565239 34.660454
vn 5.196095 -3.532156 -0.053693
v -74.052861 66.895988 34.229165
vn 5.219974 -3.496724 -0.056625
v -73.491507 67.828129 28.508367
vn 5.196824 -3.530902 -0.062337
v -72.413289 69.455436 26.086244
vn 2.642948 -1.784656 -0.030840
v -71.885700 70.241550 25.784100
vn 5.209520 -3.511962 -0.069289
v -73.343176 68.032012 29.608243
vn 5.198668 -3.528200 -0.063162
v -74.055254 66.909262 33.164702
vn 5.205408 -3.518357 -0.055139
v -74.032803 66.963562 32.104014
vn 2.601041 -1.757088 -0.015032
v -76.914000 62.683300 34.011800
vn 5.192861 -3.537248 -0.021682
v -76.179211 63.765550 33.969490
vn 5.199644 -3.526902 -0.050017
v -75.560694 64.696419 32.011755
vn 5.211344 -3.509771 -0.042542
v -75.008067 65.521633 31.702042
vn 5.224841 -3.489641 -0.042506
v -75.730185 64.480955 29.130003
vn 5.184825 -3.548676 -0.053809
v -72.928028 68.523332 35.730673
vn 5.186638 -3.546137 -0.045486
v -72.817022 68.671722 36.695039
vn 5.182881 -3.551695 -0.038649
v -72.237694 69.517608 36.934505
vn 5.189218 -3.542415 -0.041558
v -72.736255 68.778909 37.662996
vn 2.617923 -1.786561 -0.020912
v -72.693700 68.830550 38.570650
vn 5.195344 -3.533391 -0.043421
v -73.261588 68.000522 38.379342
vn 5.187986 -3.544060 -0.053253
v -73.103838 68.284415 34.587446
vn 5.181717 -3.553085 -0.061684
v -71.951426 69.959414 35.150681
vn 5.179856 -3.555758 -0.063984
v -71.396267 70.763924 35.389947
vn 5.178285 -3.558236 -0.050403
v -71.789149 70.177597 36.163016
vn 5.209522 -3.512509 -0.039775
v -74.490022 66.293957 31.377287
vn 5.194628 -3.534671 -0.018748
v -75.730979 64.421496 34.489978
vn 5.196955 -3.531249 -0.017857
v -76.286292 63.603346 34.884836
vn 5.181588 -3.553114 -0.069989
v -71.056187 71.268356 34.884615
vn 5.204810 -3.517684 -0.119464
v -70.526252 72.111249 31.496224
vn 5.199902 -3.526694 -0.043167
v -73.756404 67.265475 38.790387
vn 5.186884 -3.545713 -0.050489
v -74.562638 66.109768 36.886823
vn 5.188387 -3.543589 -0.045050
v -74.854421 65.694635 35.998596
vn 5.192323 -3.537952 -0.030609
v -75.248631 65.126652 35.198623
vn 2.523451 -1.718925 -0.033373
v -72.933739 68.704781 25.503665
vn 5.193777 -3.535927 -0.013308
v -76.514424 63.264691 35.809251
vn 2.716177 -1.813654 -0.019433
v -75.984775 64.103125 28.807900
vn 2.637822 -1.752369 -0.021904
v -75.438150 64.938250 27.465850
vn 5.186830 -3.546033 -0.028687
v -76.048437 63.942764 36.535615
vn 5.181771 -3.553355 -0.036295
v -75.585148 64.611980 37.310344
vn 5.186615 -3.546263 -0.037629
v -75.436082 64.839310 36.252634
vn 5.186919 -3.545603 -0.052595
v -74.371389 66.373831 37.832267
vn 5.180450 -3.555178 -0.045070
v -74.961663 65.516029 37.655565
vn 5.178734 -3.557739 -0.039975
v -75.318031 64.990376 38.300340
vn 5.181211 -3.554149 -0.038734
v -75.790815 64.302671 38.163295
vn 5.197808 -3.529693 -0.049269
v -73.809539 67.196909 38.013319
vn 5.185170 -3.548111 -0.057696
v -72.514093 69.140088 35.022422
vn 2.542387 -1.749014 -0.017964
v -71.642900 70.379650 37.194600
vn 2.589537 -1.777843 -0.031929
v -70.873100 71.518450 35.807950
vn 5.213622 -3.505929 -0.069837
v -73.901251 67.252658 26.708229
vn 5.220218 -3.496418 -0.050360
v -75.256107 65.195319 28.772390
vn 5.204731 -3.519360 -0.051421
v -76.461720 63.377119 31.965266
# 180 vertices, 0 vertices normals

f 25//25 32//32 33//33
f 7//7 35//35 34//34
f 17//17 39//39 38//38
f 65//65 40//40 66//66
f 67//67 68//68 69//69
f 70//70 1//1 71//71
f 72//72 64//64 30//30
f 73//73 74//74 75//75
f 76//76 180//180 77//77
f 13//13 42//42 41//41
f 73//73 78//78 79//79
f 69//69 80//80 78//78
f 81//81 82//82 83//83
f 84//84 85//85 86//86
f 17//17 87//87 43//43
f 88//88 89//89 90//90
f 93//93 94//94 95//95
f 96//96 44//44 97//97
f 180//180 37//37 98//98
f 99//99 79//79 100//100
f 87//87 101//101 88//88
f 102//102 103//103 104//104
f 105//105 101//101 158//158
f 19//19 7//7 106//106
f 71//71 107//107 108//108
f 74//74 109//109 110//110
f 111//111 112//112 110//110
f 113//113 114//114 115//115
f 96//96 90//90 116//116
f 117//117 118//118 116//116
f 178//178 47//47 46//46
f 122//122 123//123 120//120
f 67//67 124//124 89//89
f 125//125 126//126 124//124
f 127//127 128//128 129//129
f 103//103 129//129 130//130
f 105//105 102//102 68//68
f 131//131 108//108 132//132
f 92//92 123//123 133//133
f 118//118 134//134 135//135
f 75//75 136//136 125//125
f 112//112 133//133 136//136
f 51//51 156//156 164//164
f 137//137 138//138 99//99
f 17//17 43//43 39//39
f 76//76 140//140 18//18
f 141//141 142//142 113//113
f 95//95 106//106 143//143
f 144//144 145//145 70//70
f 145//145 146//146 147//147
f 117//117 126//126 122//122
f 104//104 84//84 80//80
f 147//147 148//148 149//149
f 151//151 152//152 153//153
f 94//94 154//154 142//142
f 3//3 56//56 44//44
f 140//140 155//155 156//156
f 22//22 130//130 157//157
f 16//16 158//158 127//127
f 141//141 77//77 7//7
f 138//138 154//154 109//109
f 64//64 159//159 31//31
f 107//107 160//160 161//161
f 137//137 132//132 114//114
f 162//162 155//155 115//115
f 18//18 51//51 139//139
f 3//3 36//36 56//56
f 121//121 163//163 134//134
f 91//91 83//83 65//65
f 25//25 33//33 59//59
f 51//51 164//164 52//52
f 82//82 61//61 166//166
f 8//8 167//167 164//164
f 168//168 167//167 169//169
f 161//161 169//169 162//162
f 170//170 171//171 160//160
f 93//93 81//81 111//111
f 173//173 168//168 172//172
f 25//25 173//173 32//32
f 28//28 62//62 63//63
f 170//170 1//1 174//174
f 85//85 151//151 175//175
f 86//86 150//150 100//100
f 175//175 144//144 150//150
f 72//72 172//172 171//171
f 174//174 149//149 159//159
f 153//153 176//176 146//146
f 157//157 177//177 152//152
f 64//64 31//31 30//30
f 178//178 65//65 47//47
f 66//66 47//47 65//65
f 9//9 67//67 69//69
f 67//67 15//15 68//68
f 69//69 68//68 80//80
f 2//2 70//70 71//71
f 70//70 29//29 1//1
f 9//9 73//73 75//75
f 73//73 6//6 74//74
f 75//75 74//74 136//136
f 10//10 76//76 77//77
f 76//76 37//37 180//180
f 6//6 73//73 79//79
f 73//73 9//9 78//78
f 79//79 78//78 12//12
f 9//9 69//69 78//78
f 78//78 80//80 12//12
f 14//14 81//81 83//83
f 81//81 179//179 82//82
f 83//83 82//82 40//40
f 12//12 84//84 86//86
f 84//84 22//22 85//85
f 41//41 87//87 13//13
f 87//87 41//41 43//43
f 13//13 88//88 90//90
f 88//88 15//15 89//89
f 90//90 89//89 20//20
f 14//14 91//91 92//92
f 92//92 178//178 119//119
f 179//179 93//93 95//95
f 93//93 26//26 94//94
f 95//95 94//94 19//19
f 44//44 96//96 116//116
f 13//13 96//96 42//42
f 97//97 42//42 96//96
f 7//7 77//77 180//180
f 98//98 35//35 180//180
f 5//5 99//99 100//100
f 99//99 6//6 79//79
f 100//100 79//79 12//12
f 13//13 87//87 88//88
f 87//87 17//17 101//101
f 88//88 101//101 15//15
f 80//80 102//102 104//104
f 102//102 16//16 103//103
f 104//104 103//103 22//22
f 16//16 105//105 158//158
f 105//105 15//15 101//101
f 158//158 101//101 17//17
f 7//7 34//34 106//106
f 45//45 106//106 34//34
f 2//2 71//71 108//108
f 71//71 1//1 107//107
f 108//108 107//107 21//21
f 136//136 74//74 110//110
f 74//74 6//6 109//109
f 110//110 109//109 26//26
f 26//26 111//111 110//110
f 111//111 14//14 112//112
f 110//110 112//112 136//136
f 10//10 113//113 115//115
f 113//113 4//4 114//114
f 115//115 114//114 21//21
f 3//3 44//44 116//116
f 96//96 13//13 90//90
f 116//116 90//90 20//20
f 20//20 117//117 116//116
f 117//117 24//24 118//118
f 116//116 118//118 3//3
f 46//46 119//119 178//178
f 119//119 46//46 121//121
f 163//163 121//121 46//46
f 24//24 120//120 121//121
f 120//120 119//119 121//121
f 24//24 122//122 120//120
f 122//122 11//11 123//123
f 120//120 123//123 119//119
f 15//15 67//67 89//89
f 67//67 9//9 124//124
f 89//89 124//124 20//20
f 9//9 125//125 124//124
f 125//125 11//11 126//126
f 124//124 126//126 20//20
f 16//16 127//127 129//129
f 127//127 48//48 128//128
f 129//129 128//128 49//49
f 22//22 103//103 130//130
f 103//103 16//16 129//129
f 130//130 129//129 49//49
f 15//15 105//105 68//68
f 105//105 16//16 102//102
f 68//68 102//102 80//80
f 5//5 131//131 132//132
f 131//131 2//2 108//108
f 132//132 108//108 21//21
f 14//14 92//92 133//133
f 92//92 119//119 123//123
f 133//133 123//123 11//11
f 118//118 24//24 134//134
f 135//135 134//134 50//50
f 3//3 118//118 135//135
f 135//135 36//36 3//3
f 9//9 75//75 125//125
f 125//125 136//136 11//11
f 112//112 14//14 133//133
f 136//136 133//133 11//11
f 5//5 137//137 99//99
f 137//137 4//4 138//138
f 99//99 138//138 6//6
f 139//139 37//37 18//18
f 37//37 76//76 18//18
f 76//76 10//10 140//140
f 10//10 141//141 113//113
f 141//141 19//19 142//142
f 113//113 142//142 4//4
f 179//179 95//95 143//143
f 95//95 19//19 106//106
f 143//143 106//106 45//45
f 143//143 165//165 61//61
f 165//165 143//143 45//45
f 2//2 144//144 70//70
f 144//144 23//23 145//145
f 70//70 145//145 29//29
f 29//29 145//145 147//147
f 145//145 23//23 146//146
f 147//147 146//146 53//53
f 24//24 117//117 122//122
f 117//117 20//20 126//126
f 122//122 126//126 11//11
f 104//104 22//22 84//84
f 80//80 84//84 12//12
f 29//29 147//147 149//149
f 147//147 53//53 148//148
f 149//149 148//148 54//54
f 5//5 150//150 131//131
f 131//131 150//150 2//2
f 23//23 151//151 153//153
f 151//151 22//22 152//152
f 153//153 152//152 55//55
f 19//19 94//94 142//142
f 94//94 26//26 154//154
f 142//142 154//154 4//4
f 18//18 140//140 156//156
f 140//140 10//10 155//155
f 156//156 155//155 8//8
f 130//130 57//57 157//157
f 57//57 130//130 49//49
f 38//38 158//158 17//17
f 158//158 38//38 127//127
f 48//48 127//127 38//38
f 19//19 141//141 7//7
f 141//141 10//10 77//77
f 6//6 138//138 109//109
f 138//138 4//4 154//154
f 109//109 154//154 26//26
f 159//159 58//58 31//31
f 21//21 107//107 161//161
f 107//107 1//1 160//160
f 161//161 160//160 27//27
f 4//4 137//137 114//114
f 137//137 5//5 132//132
f 114//114 132//132 21//21
f 21//21 162//162 115//115
f 162//162 8//8 155//155
f 115//115 155//155 10//10
f 24//24 121//121 134//134
f 134//134 163//163 50//50
f 178//178 91//91 65//65
f 91//91 14//14 83//83
f 65//65 83//83 40//40
f 51//51 18//18 156//156
f 156//156 8//8 164//164
f 52//52 164//164 60//60
f 143//143 61//61 179//179
f 61//61 82//82 179//179
f 166//166 40//40 82//82
f 59//59 167//167 25//25
f 167//167 59//59 164//164
f 60//60 164//164 59//59
f 27//27 168//168 169//169
f 168//168 25//25 167//167
f 169//169 167//167 8//8
f 21//21 161//161 162//162
f 161//161 27//27 169//169
f 162//162 169//169 8//8
f 1//1 170//170 160//160
f 160//160 171//171 27//27
f 26//26 93//93 111//111
f 111//111 81//81 14//14
f 173//173 25//25 168//168
f 172//172 168//168 171//171
f 63//63 173//173 172//172
f 173//173 63//63 32//32
f 64//64 170//170 174//174
f 174//174 1//1 29//29
f 86//86 85//85 175//175
f 85//85 22//22 151//151
f 175//175 151//151 23//23
f 12//12 86//86 100//100
f 100//100 150//150 5//5
f 86//86 175//175 150//150
f 175//175 23//23 144//144
f 150//150 144//144 2//2
f 72//72 28//28 172//172
f 64//64 174//174 159//159
f 174//174 29//29 149//149
f 58//58 149//149 54//54
f 58//58 159//159 149//149
f 23//23 153//153 146//146
f 153//153 55//55 176//176
f 146//146 176//176 53//53
f 22//22 157//157 152//152
f 157//157 57//57 177//177
f 152//152 177//177 55//55
f 91//91 178//178 92//92
f 93//93 179//179 81//81
f 170//170 64//64 72//72
f 170//170 72//72 171//171
f 28//28 72//72 30//30
f 28//28 30//30 62//62
f 63//63 172//172 28//28
f 7//7 180//180 35//35
f 171//171 168//168 27//27
# 312 faces, 0 coords texture

# End of File
