####
#
# OBJ File Generated by Meshlab
#
####
# Object 2448_C138_S_2.obj
#
# Vertices: 187
# Faces: 314
#
####
vn -5.195220 -3.533561 0.043389
v 74.589989 70.058568 -35.185863
vn -5.218018 -3.500003 0.011791
v 74.370678 70.475315 -21.280841
vn -5.218530 -3.499237 0.016153
v 74.648234 70.054180 -23.091172
vn -5.221334 -3.495094 0.009431
v 73.293959 72.094673 -20.665021
vn -5.223490 -3.491877 0.010285
v 73.464595 71.834349 -22.533040
vn -5.190721 -3.540438 0.009279
v 71.377340 74.914800 -22.819135
vn -5.214730 -3.504954 0.013602
v 74.892795 69.669651 -28.582832
vn -5.222586 -3.493250 0.006162
v 74.146811 70.815629 -19.522466
vn -5.203205 -3.521797 0.043453
v 74.997104 69.479236 -33.091314
vn -5.189741 -3.541707 0.030522
v 75.651155 68.497935 -34.743728
vn -5.209462 -3.512710 -0.002491
v 75.961428 68.073013 -28.764125
vn -5.187145 -3.545564 0.028487
v 76.371241 67.438477 -36.185712
vn -5.220699 -3.495883 0.011970
v 75.495742 68.810893 -21.637815
vn -5.197067 -3.530924 0.037294
v 73.522586 71.668684 -31.863616
vn -5.203686 -3.521122 0.017595
v 72.440963 73.357751 -23.726090
vn -5.205975 -3.517898 0.018219
v 75.372859 68.951652 -30.718864
vn -5.192783 -3.537297 0.029345
v 76.133033 67.812732 -32.613857
vn -5.217111 -3.501205 0.011089
v 77.242314 66.186627 -32.218574
vn -5.208087 -3.514666 -0.001602
v 76.616175 67.119349 -30.502822
vn -5.227647 -3.485694 -0.000082
v 73.601444 71.635613 -18.892480
vn -5.187813 -3.544555 0.033009
v 75.213154 69.126187 -36.634172
vn -5.200491 -3.525994 0.022164
v 74.110962 70.821692 -30.125458
vn -5.200690 -3.525742 0.009943
v 72.309804 73.551719 -21.773714
vn -5.203677 -3.521319 0.007115
v 72.225778 73.684619 -19.753892
vn -5.191604 -3.539014 0.022427
v 76.733882 66.924329 -34.329043
vn -5.220750 -3.495994 0.012780
v 74.948881 69.600583 -25.058717
vn -5.195939 -3.532434 0.049327
v 73.949761 71.019603 -33.686562
vn -5.208342 -3.514167 0.041078
v 72.544584 73.184321 -25.741765
vn -5.221030 -3.495522 0.021340
v 73.672522 71.511979 -24.705905
vn -5.207733 -3.515216 0.034200
v 73.648553 71.531018 -26.683355
vn -1.926134 -1.287727 0.005801
v 75.312300 69.051300 -26.499800
vn -2.740279 -1.836956 0.009352
v 75.448350 68.853525 -25.510625
vn -2.304543 -1.577622 0.023378
v 74.190300 70.621600 -36.651700
vn -2.470706 -1.666420 -0.001788
v 72.617400 73.101800 -18.256900
vn -2.305098 -1.541318 0.003624
v 73.216500 72.213900 -17.888500
vn -2.599351 -1.752198 -0.011228
v 76.631200 67.080600 -28.443100
vn -2.260943 -1.520354 -0.010832
v 76.970800 66.580800 -28.722400
vn -2.277496 -1.531848 0.002403
v 75.157150 69.317300 -18.834800
vn -2.439771 -1.624828 -0.000690
v 75.872800 68.243600 -20.665500
vn -2.311750 -1.535954 0.002484
v 78.026600 65.005700 -32.423900
vn -2.268299 -1.543455 0.023195
v 73.105200 72.255600 -34.028100
vn -2.268524 -1.502682 0.005614
v 76.065500 67.950000 -21.842100
vn -2.281410 -1.526092 0.000145
v 74.177500 70.770000 -17.961600
vn -2.720795 -1.833108 0.005281
v 76.139800 67.811300 -28.043300
vn -2.287381 -1.549757 0.018216
v 73.050300 72.364500 -32.068200
vn -2.491769 -1.691742 0.017746
v 73.251500 72.076900 -31.012100
vn -2.210745 -1.508779 0.011864
v 76.553350 67.167100 -36.763150
vn -2.258893 -1.541804 0.011280
v 71.399300 74.873900 -25.097600
vn -2.587709 -1.760715 0.023398
v 73.083300 72.295700 -33.373300
vn -2.335077 -1.593923 0.008397
v 71.183100 75.206900 -20.928700
vn -2.522953 -1.720194 0.006237
v 71.072000 75.365800 -21.871000
vn -2.241358 -1.491912 -0.004825
v 77.750800 65.417600 -30.364600
vn -2.026584 -1.370451 0.007147
v 73.838400 71.231400 -28.658100
vn -3.872504 -2.615283 0.017820
v 74.110700 70.829000 -28.400700
vn -2.617470 -1.778988 0.017877
v 77.080800 66.397900 -35.896500
vn -2.395281 -1.598819 0.006557
v 77.927050 65.150000 -33.686350
vn -2.455267 -1.679647 0.021804
v 74.775050 69.761750 -37.070450
vn -2.283017 -1.563477 0.014026
v 75.205600 69.131800 -37.238000
vn -2.344347 -1.570853 0.010331
v 75.943550 68.126150 -23.526150
vn -2.488879 -1.703823 0.015122
v 76.148100 67.757400 -36.971900
vn -3.981434 -2.659531 0.011472
v 75.004600 69.510900 -26.807800
vn -2.649849 -1.800405 0.016229
v 73.495800 71.727200 -30.130400
vn -2.100334 -1.407314 0.006386
v 75.568200 68.665100 -27.391500
vn -3.472294 -2.321207 0.010263
v 75.228100 69.173200 -27.420900
vn -2.467210 -1.666680 -0.002205
v 72.203800 73.715700 -18.654300
vn -2.272652 -1.545762 0.004639
v 71.694500 74.467600 -19.354600
vn -2.274229 -1.536857 0.005704
v 77.545700 65.721000 -35.168300
vn -2.567113 -1.724742 -0.004746
v 77.821300 65.309000 -34.138400
vn -2.442084 -1.644639 0.023478
v 72.620500 73.057100 -26.739200
vn -2.308169 -1.567272 0.018879
v 72.070100 73.877100 -26.283200
vn -2.214458 -1.507277 0.004665
v 70.986000 75.489050 -23.173050
vn -3.455178 -2.332242 0.023904
v 73.938800 71.090300 -27.749500
vn -3.028909 -2.041699 0.025446
v 73.166000 72.242200 -26.974300
vn -2.064004 -1.394416 0.014475
v 73.595900 71.598500 -27.690500
vn -5.217022 -3.501454 0.014713
v 74.500354 70.278348 -22.172462
vn -5.231004 -3.480655 0.007485
v 73.930930 71.134795 -21.912924
vn -5.230527 -3.481358 0.011649
v 74.050863 70.952455 -22.841916
vn -5.230841 -3.480900 0.007588
v 73.833055 71.283746 -21.004245
vn -5.221064 -3.495495 0.010168
v 73.371784 71.975690 -21.597260
vn -5.223317 -3.492157 0.014133
v 75.014727 69.498531 -26.026270
vn -5.201639 -3.524210 0.036264
v 74.783970 69.782498 -34.179101
vn -5.200086 -3.526510 0.035310
v 75.083920 69.331965 -34.982485
vn -5.198533 -3.528771 0.037709
v 75.328271 68.982118 -33.922980
vn -5.185950 -3.547041 0.053287
v 74.245618 70.555950 -35.644415
vn -2.350469 -1.606226 0.025851
v 73.640701 71.437925 -35.768362
vn -5.215550 -3.503740 0.015400
v 75.384055 68.956164 -24.308833
vn -2.647530 -1.776908 0.009177
v 75.700500 68.484000 -24.439150
vn -5.212314 -3.508478 0.025146
v 75.263543 69.138869 -23.319078
vn -5.206680 -3.516813 0.028664
v 75.084441 69.414322 -22.389707
vn -5.200523 -3.525948 -0.024660
v 76.279881 67.609672 -29.603470
vn -5.216153 -3.502729 -0.021437
v 76.816439 66.816477 -29.576579
vn -5.206453 -3.517201 -0.021165
v 76.471052 67.320569 -28.816379
vn -5.181460 -3.553915 0.023733
v 76.007299 67.973470 -35.519580
vn -5.191107 -3.539755 0.027175
v 75.405510 68.850528 -35.753620
vn -5.215584 -3.503686 0.006712
v 75.113010 69.381023 -19.906099
vn -5.209505 -3.512750 0.006951
v 74.640273 70.082650 -19.473756
vn -5.216625 -3.502144 0.000851
v 75.315817 69.077889 -20.709954
vn -5.198788 -3.528425 0.030763
v 74.349597 70.462525 -31.193941
vn -5.208935 -3.513406 0.034322
v 74.875395 69.684017 -31.291287
vn -5.205938 -3.518000 0.016753
v 74.750196 69.874821 -30.387369
vn -5.205404 -3.518469 0.046918
v 74.583085 70.106448 -32.253699
vn -5.205271 -3.518745 0.041687
v 75.207994 69.180645 -31.962692
vn -5.201245 -3.524881 0.016705
v 72.258191 73.632711 -20.792150
vn -5.211716 -3.509450 0.014019
v 72.807319 72.815150 -21.220775
vn -5.212576 -3.508181 0.010820
v 72.747519 72.908109 -20.248717
vn -5.204541 -3.520069 0.014306
v 74.928016 69.650945 -21.490430
vn -5.207313 -3.515990 0.010970
v 74.776517 69.877349 -20.586503
vn -5.219884 -3.497243 0.011088
v 74.265718 70.635050 -20.359552
vn -5.226745 -3.486949 0.020510
v 77.543950 65.730273 -32.944042
vn -2.604228 -1.729396 -0.003082
v 77.899600 65.195450 -31.440500
vn -5.230960 -3.480714 -0.008632
v 77.455085 65.864519 -31.334150
vn -5.194103 -3.535086 0.052702
v 73.474106 71.715729 -33.876257
vn -2.533092 -1.723741 0.030425
v 73.314450 71.934050 -34.788400
vn -5.190434 -3.540379 0.058940
v 73.795078 71.229830 -34.681923
vn -2.582437 -1.742445 0.001738
v 74.642650 70.080300 -18.361850
vn -5.219054 -3.498503 0.001395
v 74.222791 70.702220 -18.730104
vn -5.209420 -3.512787 -0.010506
v 75.707359 68.452492 -29.631310
vn -5.221597 -3.494750 0.004863
v 75.436381 68.857220 -28.720795
vn -5.214497 -3.505306 0.006021
v 75.126620 69.320351 -29.561815
vn -5.196493 -3.531850 0.029226
v 76.371617 67.470614 -31.536129
vn -5.192439 -3.537875 0.019863
v 76.704911 66.975034 -32.407976
vn -5.209877 -3.512010 0.008185
v 76.938494 66.639535 -31.415595
vn -5.219072 -3.498500 0.009133
v 74.808930 69.811989 -24.055277
vn -5.185816 -3.547621 0.008619
v 71.866987 74.198177 -23.338324
vn -5.189347 -3.542361 0.024361
v 71.925740 74.108235 -24.358653
vn -5.194150 -3.535127 0.045426
v 73.586987 71.562566 -32.836318
vn -5.195035 -3.533786 0.046161
v 74.280144 70.523559 -34.460556
vn -5.203792 -3.520883 0.047302
v 74.458987 70.270459 -33.417813
vn -5.188533 -3.543648 0.007831
v 71.814732 74.275314 -22.353708
vn -5.189941 -3.541552 0.017947
v 71.763303 74.354500 -21.363081
vn -5.190414 -3.540880 0.013655
v 71.390909 74.898145 -21.912847
vn -2.447422 -1.633919 0.000419
v 75.615400 68.628550 -19.818525
vn -5.227609 -3.485734 -0.012380
v 77.165870 66.295920 -30.439641
vn -2.591063 -1.726244 -0.007921
v 77.349900 66.015400 -29.497250
vn -5.206987 -3.516467 0.012690
v 74.560071 70.159772 -29.375680
vn -5.207642 -3.515437 0.022325
v 74.381303 70.427994 -28.447724
vn -5.205039 -3.519334 0.015642
v 74.109188 70.828600 -29.111939
vn -5.198727 -3.528514 0.035060
v 75.784001 68.335880 -31.696899
vn -5.196668 -3.531514 0.038371
v 75.561057 68.651919 -32.831434
vn -5.192543 -3.537551 0.039812
v 73.979691 70.996690 -32.049384
vn -5.197398 -3.530279 0.049264
v 74.120883 70.779512 -32.848789
vn -5.199290 -3.527757 0.005856
v 76.033003 67.978728 -30.592051
vn -5.188312 -3.543801 0.032213
v 76.598870 67.114119 -35.237172
vn -5.179712 -3.556442 0.026832
v 76.233106 67.652226 -34.509749
vn -5.188266 -3.543959 0.021327
v 76.530951 67.226048 -33.468793
vn -5.210234 -3.511580 0.021457
v 77.097598 66.389825 -33.715218
vn -5.221015 -3.495591 0.004570
v 73.219387 72.208036 -19.641394
vn -5.230250 -3.481789 0.006577
v 73.749962 71.410786 -20.060495
vn -5.220232 -3.496695 0.025662
v 73.035325 72.467343 -24.160731
vn -5.226041 -3.488060 0.017317
v 73.566858 71.676301 -23.538470
vn -5.218352 -3.499570 0.008377
v 72.962892 72.581139 -23.132547
vn -2.602793 -1.733692 0.000303
v 73.857750 71.250450 -17.931775
vn -5.223431 -3.491798 0.027378
v 75.654094 68.567448 -22.574326
vn -2.625255 -1.739357 0.008177
v 76.005000 68.037450 -22.652450
vn -5.224517 -3.490369 0.012623
v 74.563260 70.175286 -25.812367
vn -5.224289 -3.490701 0.014693
v 74.720717 69.936570 -26.642134
vn -2.599768 -1.763722 0.009710
v 73.667100 71.479300 -29.394250
vn -5.193698 -3.535904 0.035628
v 73.772308 71.309841 -31.087926
vn -5.218533 -3.499293 0.014357
v 75.683323 68.489928 -28.128579
vn -5.222646 -3.493162 0.013995
v 75.239412 69.154064 -27.952757
vn -5.200837 -3.525485 0.000589
v 72.374733 73.456059 -22.740737
vn -5.190483 -3.540743 0.020332
v 71.752441 74.376886 -20.366296
vn -5.211389 -3.509957 0.000658
v 72.684937 73.003005 -19.244481
vn -5.213348 -3.506890 0.031365
v 73.487509 71.777381 -25.733063
vn -5.218931 -3.498569 0.034506
v 73.055338 72.427761 -25.204289
vn -5.215311 -3.503900 0.039888
v 73.145267 72.282900 -26.231014
vn -5.204038 -3.520722 0.021489
v 77.109371 66.367979 -34.747699
vn -5.188229 -3.543917 0.033491
v 75.895431 68.150486 -33.688186
vn -5.187948 -3.544484 0.014666
v 71.423192 74.844345 -23.886070
vn -2.560274 -1.746606 0.008275
v 71.195750 75.176200 -24.211550
vn -5.217208 -3.501194 0.024089
v 74.678961 69.994528 -27.563932
vn -5.191147 -3.539528 0.044187
v 74.773107 69.778652 -36.086610
vn -5.183983 -3.550217 0.025927
v 75.783797 68.294502 -36.400800
vn -2.592361 -1.774550 0.015569
v 75.676850 68.444600 -37.104950
vn -5.206829 -3.516496 0.034235
v 72.489605 73.275834 -24.734668
vn -5.194285 -3.535044 0.035550
v 72.013041 73.970859 -25.327002
vn -2.604541 -1.774802 0.018554
v 71.754850 74.345650 -25.719900
vn -5.215677 -3.503481 0.020630
v 73.995710 71.025074 -25.719101
vn -5.224588 -3.490273 0.008848
v 74.364739 70.475723 -24.841948
vn -5.227347 -3.486129 0.011024
v 74.184710 70.746979 -23.838293
vn -5.213072 -3.507450 0.005067
v 72.882074 72.700679 -22.163517
vn -2.591085 -1.770120 0.010421
v 71.464900 74.799600 -20.058200
vn -5.215115 -3.504273 0.025718
v 74.253519 70.635348 -26.683938
vn -5.203441 -3.521576 0.022791
v 77.036224 66.486799 -32.969848
vn -5.218774 -3.498916 0.010230
v 77.527185 65.746397 -34.005640
vn -5.233971 -3.476195 -0.001246
v 77.653534 65.567131 -32.049252
vn -5.216681 -3.502065 0.000145
v 73.055866 72.452200 -18.711327
# 187 vertices, 0 vertices normals

f 75//75 76//76 77//77
f 78//78 79//79 76//76
f 80//80 31//31 32//32
f 81//81 82//82 83//83
f 86//86 32//32 87//87
f 88//88 153//153 89//89
f 20//20 152//152 187//187
f 90//90 91//91 92//92
f 44//44 92//92 36//36
f 93//93 94//94 173//173
f 95//95 97//97 132//132
f 98//98 99//99 100//100
f 101//101 102//102 99//99
f 103//103 104//104 105//105
f 106//106 97//97 107//107
f 96//96 108//108 107//107
f 18//18 186//186 111//111
f 112//112 113//113 114//114
f 13//13 42//42 39//39
f 11//11 92//92 44//44
f 117//117 118//118 119//119
f 14//14 46//46 45//45
f 120//120 121//121 122//122
f 88//88 123//123 86//86
f 89//89 106//106 75//75
f 124//124 169//169 125//125
f 14//14 45//45 126//126
f 127//127 81//81 128//128
f 129//129 130//130 131//131
f 6//6 131//131 51//51
f 38//38 95//95 132//132
f 133//133 134//134 91//91
f 137//137 136//136 54//54
f 122//122 111//111 133//133
f 100//100 119//119 135//135
f 138//138 102//102 139//139
f 138//138 120//120 142//142
f 117//117 142//142 90//90
f 12//12 47//47 55//55
f 143//143 144//144 93//93
f 121//121 145//145 184//184
f 20//20 147//147 148//148
f 149//149 150//150 151//151
f 21//21 57//57 58//58
f 153//153 59//59 154//154
f 12//12 60//60 47//47
f 155//155 156//156 80//80
f 137//137 53//53 157//157
f 14//14 158//158 46//46
f 98//98 158//158 140//140
f 118//118 159//159 160//160
f 171//171 160//160 64//64
f 11//11 44//44 159//159
f 129//129 124//124 161//161
f 103//103 162//162 130//130
f 24//24 65//65 66//66
f 163//163 105//105 147//147
f 164//164 165//165 166//166
f 101//101 141//141 128//128
f 25//25 143//143 167//167
f 185//185 68//68 56//56
f 28//28 70//70 69//69
f 6//6 51//51 71//71
f 83//83 168//168 139//139
f 144//144 145//145 168//168
f 169//169 71//71 170//170
f 7//7 171//171 136//136
f 183//183 171//171 156//156
f 94//94 82//82 172//172
f 127//127 114//114 84//84
f 73//73 166//166 69//69
f 149//149 175//175 165//165
f 176//176 175//175 125//125
f 176//176 48//48 177//177
f 78//78 108//108 148//148
f 178//178 155//155 179//179
f 123//123 180//180 179//179
f 150//150 180//180 77//77
f 30//30 73//73 74//74
f 164//164 30//30 178//178
f 161//161 151//151 181//181
f 104//104 181//181 79//79
f 50//50 162//162 182//182
f 3//3 75//75 77//77
f 75//75 2//2 76//76
f 77//77 76//76 5//5
f 2//2 78//78 76//76
f 78//78 4//4 79//79
f 76//76 79//79 5//5
f 26//26 80//80 32//32
f 9//9 81//81 83//83
f 81//81 1//1 82//82
f 83//83 82//82 10//10
f 84//84 85//85 33//33
f 32//32 86//86 26//26
f 87//87 59//59 86//86
f 3//3 88//88 89//89
f 88//88 59//59 153//153
f 89//89 153//153 13//13
f 11//11 90//90 92//92
f 90//90 19//19 91//91
f 92//92 91//91 37//37
f 92//92 37//37 36//36
f 93//93 10//10 94//94
f 174//174 173//173 21//21
f 96//96 95//95 38//38
f 39//39 97//97 13//13
f 97//97 39//39 132//132
f 22//22 98//98 100//100
f 98//98 101//101 99//99
f 100//100 99//99 16//16
f 101//101 9//9 102//102
f 99//99 102//102 16//16
f 24//24 103//103 105//105
f 103//103 23//23 104//104
f 105//105 104//104 4//4
f 2//2 106//106 107//107
f 106//106 13//13 97//97
f 107//107 97//97 95//95
f 95//95 96//96 107//107
f 96//96 8//8 108//108
f 107//107 108//108 2//2
f 109//109 40//40 186//186
f 111//111 110//110 52//52
f 27//27 112//112 114//114
f 112//112 41//41 113//113
f 114//114 113//113 85//85
f 8//8 96//96 116//116
f 96//96 38//38 115//115
f 116//116 115//115 43//43
f 16//16 117//117 119//119
f 117//117 11//11 118//118
f 119//119 118//118 7//7
f 19//19 120//120 122//122
f 120//120 17//17 121//121
f 122//122 121//121 18//18
f 59//59 88//88 86//86
f 88//88 3//3 123//123
f 86//86 123//123 26//26
f 3//3 89//89 75//75
f 89//89 13//13 106//106
f 75//75 106//106 2//2
f 15//15 124//124 125//125
f 124//124 6//6 169//169
f 125//125 169//169 48//48
f 27//27 126//126 112//112
f 112//112 126//126 49//49
f 41//41 112//112 49//49
f 126//126 45//45 49//49
f 27//27 127//127 128//128
f 127//127 1//1 81//81
f 128//128 81//81 9//9
f 6//6 129//129 131//131
f 129//129 23//23 130//130
f 131//131 130//130 50//50
f 131//131 50//50 51//51
f 20//20 8//8 116//116
f 152//152 20//20 116//116
f 43//43 152//152 116//116
f 19//19 133//133 91//91
f 133//133 52//52 134//134
f 91//91 134//134 37//37
f 22//22 135//135 137//137
f 135//135 7//7 136//136
f 137//137 135//135 136//136
f 53//53 137//137 54//54
f 19//19 122//122 133//133
f 122//122 18//18 111//111
f 133//133 111//111 52//52
f 22//22 100//100 135//135
f 100//100 16//16 119//119
f 135//135 119//119 7//7
f 17//17 138//138 139//139
f 138//138 16//16 102//102
f 139//139 102//102 9//9
f 101//101 140//140 141//141
f 141//141 140//140 126//126
f 141//141 126//126 27//27
f 16//16 138//138 142//142
f 138//138 17//17 120//120
f 142//142 120//120 19//19
f 11//11 117//117 90//90
f 117//117 16//16 142//142
f 90//90 142//142 19//19
f 12//12 143//143 93//93
f 143//143 25//25 144//144
f 93//93 144//144 10//10
f 121//121 17//17 145//145
f 146//146 145//145 25//25
f 18//18 184//184 109//109
f 8//8 20//20 148//148
f 148//148 147//147 4//4
f 15//15 149//149 151//151
f 149//149 29//29 150//150
f 151//151 150//150 5//5
f 152//152 35//35 187//187
f 13//13 153//153 42//42
f 154//154 42//42 153//153
f 26//26 155//155 80//80
f 155//155 183//183 156//156
f 80//80 156//156 61//61
f 31//31 80//80 61//61
f 22//22 137//137 157//157
f 157//157 62//62 22//22
f 62//62 158//158 22//22
f 158//158 62//62 46//46
f 101//101 98//98 140//140
f 98//98 22//22 158//158
f 140//140 158//158 14//14
f 7//7 118//118 160//160
f 118//118 11//11 159//159
f 160//160 159//159 63//63
f 160//160 63//63 64//64
f 159//159 44//44 63//63
f 23//23 129//129 161//161
f 129//129 6//6 124//124
f 161//161 124//124 15//15
f 23//23 103//103 130//130
f 103//103 24//24 162//162
f 130//130 162//162 50//50
f 20//20 187//187 147//147
f 163//163 24//24 105//105
f 147//147 105//105 4//4
f 164//164 29//29 165//165
f 166//166 165//165 28//28
f 9//9 101//101 128//128
f 128//128 141//141 27//27
f 56//56 109//109 185//185
f 143//143 55//55 167//167
f 55//55 143//143 12//12
f 67//67 167//167 55//55
f 185//185 146//146 167//167
f 68//68 185//185 67//67
f 163//163 34//34 65//65
f 24//24 163//163 65//65
f 9//9 83//83 139//139
f 83//83 10//10 168//168
f 139//139 168//168 17//17
f 10//10 144//144 168//168
f 144//144 25//25 145//145
f 168//168 145//145 17//17
f 71//71 169//169 6//6
f 170//170 48//48 169//169
f 171//171 72//72 136//136
f 72//72 171//171 183//183
f 54//54 136//136 72//72
f 156//156 171//171 61//61
f 160//160 171//171 7//7
f 64//64 61//61 171//171
f 21//21 94//94 172//172
f 94//94 10//10 82//82
f 172//172 82//82 1//1
f 57//57 21//21 172//172
f 172//172 1//1 84//84
f 172//172 33//33 57//57
f 58//58 174//174 21//21
f 12//12 93//93 173//173
f 174//174 60//60 173//173
f 1//1 127//127 84//84
f 127//127 27//27 114//114
f 84//84 114//114 85//85
f 166//166 28//28 69//69
f 29//29 149//149 165//165
f 149//149 15//15 175//175
f 165//165 175//175 28//28
f 48//48 176//176 125//125
f 176//176 28//28 175//175
f 125//125 175//175 15//15
f 28//28 176//176 70//70
f 177//177 70//70 176//176
f 4//4 78//78 148//148
f 78//78 2//2 108//108
f 148//148 108//108 8//8
f 29//29 178//178 179//179
f 179//179 155//155 26//26
f 26//26 123//123 179//179
f 123//123 3//3 180//180
f 179//179 180//180 29//29
f 5//5 150//150 77//77
f 150//150 29//29 180//180
f 77//77 180//180 3//3
f 30//30 74//74 72//72
f 183//183 30//30 72//72
f 29//29 164//164 178//178
f 178//178 30//30 183//183
f 23//23 161//161 181//181
f 161//161 15//15 151//151
f 181//181 151//151 5//5
f 4//4 104//104 79//79
f 104//104 23//23 181//181
f 79//79 181//181 5//5
f 24//24 66//66 162//162
f 182//182 162//162 66//66
f 140//140 14//14 126//126
f 40//40 109//109 56//56
f 12//12 173//173 60//60
f 178//178 183//183 155//155
f 173//173 94//94 21//21
f 146//146 25//25 167//167
f 185//185 167//167 67//67
f 186//186 110//110 111//111
f 184//184 145//145 146//146
f 146//146 185//185 109//109
f 30//30 164//164 166//166
f 18//18 109//109 186//186
f 186//186 40//40 110//110
f 184//184 18//18 121//121
f 184//184 146//146 109//109
f 116//116 96//96 115//115
f 187//187 35//35 34//34
f 187//187 163//163 147//147
f 34//34 163//163 187//187
f 30//30 166//166 73//73
f 172//172 84//84 33//33
# 314 faces, 0 coords texture

# End of File
