####
#
# OBJ File Generated by Meshlab
#
####
# Object 2472_C140_S_6.obj
#
# Vertices: 95
# Faces: 158
#
####
vn -5.229017 -3.482394 -0.092092
v 75.015603 71.283569 16.118646
vn -5.218462 -3.497156 -0.124108
v 71.966582 75.797007 18.116523
vn -5.215125 -3.502907 -0.102196
v 75.109517 70.989618 21.849185
vn -5.206335 -3.515953 -0.102196
v 74.465723 71.898176 23.492072
vn -5.213817 -3.504505 -0.112481
v 73.986440 72.650302 21.981863
vn -5.228850 -3.482775 -0.087516
v 76.059651 69.682065 17.335025
vn -5.240014 -3.465587 -0.101164
v 73.643455 73.359850 15.455338
vn -5.230381 -3.480100 -0.101888
v 72.626544 74.854868 16.558794
vn -5.224277 -3.489562 -0.089982
v 75.352473 70.657952 20.771634
vn -5.211187 -3.508440 -0.110095
v 72.806854 74.402350 22.397623
vn -5.218195 -3.498158 -0.107982
v 73.397085 73.593992 20.115664
vn -5.225946 -3.487209 -0.084318
v 75.977315 69.716233 20.988903
vn -5.224296 -3.489436 -0.094629
v 74.067160 72.642737 18.346682
vn -5.224596 -3.488638 -0.106576
v 72.978786 74.274385 18.217025
vn -5.218944 -3.497305 -0.098593
v 74.497987 71.948725 20.218443
vn -5.207337 -3.513701 -0.125626
v 72.188526 75.393607 20.039039
vn -5.220975 -3.494578 -0.086937
v 76.140919 69.509548 19.200572
vn -5.228497 -3.483033 -0.097963
v 73.813456 73.071210 16.516659
vn -5.227763 -3.484338 -0.090850
v 75.106381 71.082268 18.401182
vn -2.297572 -1.528610 -0.040566
v 75.127700 71.146600 14.949200
vn -2.617574 -1.753494 -0.041907
v 74.414100 72.214700 14.792400
vn -2.340735 -1.556130 -0.038053
v 74.132200 72.637200 14.725600
vn -2.275926 -1.540117 -0.061525
v 71.527200 76.382300 19.750300
vn -2.564104 -1.725076 -0.051320
v 74.766300 71.445500 23.696400
vn -2.337564 -1.580125 -0.046369
v 74.440250 71.923550 23.911550
vn -2.429618 -1.615619 -0.051474
v 73.162300 74.094900 15.161600
vn -2.362933 -1.582179 -0.048995
v 73.410350 73.449550 23.863100
vn -2.393671 -1.583194 -0.038518
v 75.599000 70.418400 15.426400
vn -2.255599 -1.508809 -0.033787
v 76.543800 68.956000 17.399000
vn -2.681227 -1.799159 -0.047482
v 76.607300 68.833300 18.521800
vn -2.430518 -1.631123 -0.050968
v 72.742500 74.467500 23.383300
vn -2.515233 -1.661969 -0.048429
v 73.496250 73.597100 14.958800
vn -2.620256 -1.761241 -0.040153
v 76.509700 68.928400 20.598000
vn -2.215916 -1.487796 -0.036545
v 76.701000 68.670100 19.405400
vn -2.419841 -1.606244 -0.030016
v 76.333100 69.281250 16.766050
vn -2.188673 -1.463632 -0.036733
v 76.390700 69.087200 21.383400
vn -2.436703 -1.656696 -0.056994
v 71.884600 75.777800 21.782800
vn -2.441159 -1.625828 -0.044919
v 72.532000 75.015400 15.844800
vn -2.360973 -1.590230 -0.060977
v 71.680700 76.220350 18.145150
vn -2.637376 -1.762854 -0.049471
v 76.119400 69.478400 21.888700
vn -2.290782 -1.557107 -0.047437
v 72.278000 75.167800 22.821200
vn -2.390913 -1.587407 -0.046881
v 72.248800 75.430900 16.320600
vn -5.223110 -3.491304 -0.091076
v 74.436750 72.142146 16.395371
vn -5.230195 -3.480738 -0.087376
v 74.106564 72.655596 15.568124
vn -2.611367 -1.765730 -0.070523
v 71.595800 76.308900 19.060400
vn -5.210795 -3.509384 -0.101099
v 74.850682 71.345218 22.850965
vn -5.219045 -3.497086 -0.101164
v 75.346011 70.619413 22.482735
vn -2.348736 -1.576333 -0.047251
v 75.304575 70.657100 23.285175
vn -2.507625 -1.694969 -0.049812
v 73.971400 72.614250 23.941850
vn -5.220452 -3.494488 -0.116819
v 72.591691 74.824298 19.080643
vn -5.218474 -3.497873 -0.103760
v 73.167194 73.965271 19.162399
vn -5.213650 -3.504970 -0.107029
v 72.825636 74.446151 20.064388
vn -5.214669 -3.503292 -0.110348
v 73.714300 73.024668 22.941083
vn -5.205241 -3.517628 -0.100735
v 74.267680 72.208690 22.871422
vn -5.233921 -3.475260 -0.080786
v 75.796033 70.094836 16.727099
vn -2.610624 -1.729398 -0.034946
v 75.904550 69.945150 15.977500
vn -5.224447 -3.489449 -0.085191
v 74.773642 71.558613 19.289129
vn -5.226089 -3.486139 -0.115001
v 73.201804 73.793614 22.897187
vn -5.226716 -3.485691 -0.099070
v 74.919895 71.394979 17.227877
vn -5.229881 -3.480660 -0.108453
v 72.806813 74.560753 17.307564
vn -5.228073 -3.483089 -0.117036
v 72.428706 75.102550 18.139234
vn -5.219743 -3.495505 -0.118718
v 73.677031 73.143825 21.057203
vn -5.217908 -3.498572 -0.107915
v 73.962839 72.748748 20.171742
vn -5.212304 -3.506621 -0.117700
v 74.249636 72.289394 21.095085
vn -5.229574 -3.481948 -0.077032
v 75.743825 70.088400 19.918362
vn -5.221351 -3.494260 -0.077042
v 76.234230 69.347362 20.197246
vn -5.224947 -3.488443 -0.095336
v 74.259527 72.381741 17.347698
vn -5.227595 -3.484292 -0.101296
v 73.372944 73.707737 17.360658
vn -5.222859 -3.491519 -0.097149
v 73.538825 73.434163 18.306900
vn -5.228210 -3.483911 -0.080115
v 75.245843 70.847661 19.527562
vn -5.221038 -3.494488 -0.087669
v 74.944755 71.280983 20.232114
vn -5.220658 -3.494787 -0.097930
v 73.730298 73.121325 19.224996
vn -2.462813 -1.669850 -0.062661
v 71.658825 76.146350 20.804125
vn -5.205443 -3.516808 -0.116153
v 72.564522 74.808877 20.908033
vn -5.196294 -3.530345 -0.116471
v 72.404549 75.014176 21.763176
vn -5.196288 -3.529988 -0.127231
v 72.122639 75.455097 21.024436
vn -5.218585 -3.497464 -0.111630
v 73.102135 74.006699 20.976031
vn -5.223362 -3.490189 -0.116124
v 73.350581 73.601962 21.980108
vn -5.229432 -3.481913 -0.086765
v 75.607788 70.318092 18.807160
vn -5.229584 -3.481114 -0.108021
v 73.120935 74.121677 16.257425
vn -5.207894 -3.513514 -0.106712
v 74.562282 71.797398 21.957738
vn -5.213866 -3.504648 -0.105947
v 74.796981 71.479111 21.062777
vn -5.222934 -3.491389 -0.097851
v 75.623176 70.224132 21.781777
vn -2.506281 -1.674493 -0.047772
v 75.801700 69.936350 22.518400
vn -5.230316 -3.479925 -0.111033
v 72.311250 75.306448 17.264850
vn -2.517020 -1.677775 -0.055087
v 71.909125 75.910225 17.296425
vn -5.211439 -3.508029 -0.112930
v 72.843252 74.372631 21.606830
vn -5.214367 -3.502936 -0.132821
v 72.039512 75.655778 18.994045
vn -5.220390 -3.495489 -0.086594
v 74.636931 71.862408 15.611246
vn -5.223714 -3.490379 -0.091704
v 74.285692 72.292565 19.220613
vn -5.227350 -3.484876 -0.093975
v 74.595936 71.852144 18.232364
vn -5.227638 -3.484311 -0.098938
v 75.531959 70.464174 17.657596
vn -5.223027 -3.491372 -0.093454
v 73.831473 73.015938 17.572710
vn -5.222819 -3.491626 -0.095237
v 76.014488 69.727622 18.121182
vn -5.231385 -3.478935 -0.088516
v 75.388005 70.711667 16.572516
# 95 vertices, 0 vertices normals

f 53//53 54//54 49//49
f 50//50 51//51 52//52
f 7//7 26//26 32//32
f 18//18 7//7 44//44
f 36//36 12//12 66//66
f 85//85 60//60 61//61
f 94//94 6//6 29//29
f 6//6 35//35 29//29
f 62//62 63//63 64//64
f 65//65 66//66 12//12
f 70//70 71//71 57//57
f 90//90 63//63 72//72
f 74//74 75//75 76//76
f 62//62 78//78 77//77
f 70//70 79//79 65//65
f 72//72 51//51 69//69
f 33//33 36//36 66//66
f 7//7 80//80 26//26
f 68//68 60//60 80//80
f 81//81 46//46 54//54
f 2//2 39//39 86//86
f 71//71 9//9 82//82
f 78//78 53//53 58//58
f 3//3 9//9 83//83
f 83//83 84//84 47//47
f 10//10 41//41 75//75
f 4//4 24//24 25//25
f 12//12 36//36 40//40
f 8//8 42//42 38//38
f 81//81 64//64 82//82
f 89//89 21//21 20//20
f 89//89 43//43 44//44
f 21//21 89//89 44//44
f 23//23 45//45 88//88
f 2//2 88//88 45//45
f 45//45 39//39 2//2
f 46//46 3//3 47//47
f 46//46 47//47 48//48
f 4//4 46//46 24//24
f 48//48 24//24 46//46
f 25//25 49//49 4//4
f 49//49 27//27 53//53
f 50//50 14//14 51//51
f 53//53 5//5 54//54
f 49//49 54//54 4//4
f 56//56 95//95 28//28
f 56//56 35//35 55//55
f 19//19 57//57 91//91
f 57//57 15//15 90//90
f 91//91 57//57 90//90
f 94//94 29//29 30//30
f 27//27 58//58 53//53
f 58//58 31//31 10//10
f 31//31 58//58 27//27
f 22//22 44//44 7//7
f 2//2 85//85 61//61
f 85//85 8//8 60//60
f 61//61 60//60 14//14
f 17//17 94//94 30//30
f 34//34 17//17 30//30
f 50//50 61//61 14//14
f 5//5 62//62 64//64
f 62//62 11//11 63//63
f 64//64 63//63 15//15
f 9//9 65//65 12//12
f 65//65 17//17 66//66
f 9//9 12//12 83//83
f 14//14 68//68 69//69
f 68//68 18//18 93//93
f 69//69 93//93 13//13
f 19//19 70//70 57//57
f 70//70 9//9 71//71
f 57//57 71//71 15//15
f 13//13 90//90 72//72
f 90//90 15//15 63//63
f 72//72 63//63 11//11
f 73//73 23//23 16//16
f 16//16 74//74 76//76
f 74//74 77//77 87//87
f 76//76 75//75 37//37
f 76//76 73//73 16//16
f 73//73 76//76 37//37
f 16//16 52//52 74//74
f 11//11 62//62 77//77
f 62//62 5//5 78//78
f 77//77 78//78 87//87
f 9//9 70//70 65//65
f 70//70 19//19 79//79
f 65//65 79//79 17//17
f 13//13 72//72 69//69
f 72//72 11//11 51//51
f 69//69 51//51 14//14
f 66//66 17//17 34//34
f 66//66 34//34 33//33
f 38//38 80//80 8//8
f 80//80 38//38 26//26
f 80//80 7//7 18//18
f 18//18 68//68 80//80
f 68//68 14//14 60//60
f 80//80 60//60 8//8
f 19//19 59//59 92//92
f 5//5 81//81 54//54
f 81//81 3//3 46//46
f 54//54 46//46 4//4
f 17//17 79//79 94//94
f 79//79 19//19 92//92
f 15//15 71//71 82//82
f 82//82 9//9 3//3
f 10//10 78//78 58//58
f 78//78 5//5 53//53
f 12//12 40//40 83//83
f 3//3 83//83 47//47
f 83//83 40//40 84//84
f 47//47 84//84 48//48
f 10//10 31//31 41//41
f 75//75 41//41 37//37
f 86//86 85//85 2//2
f 8//8 85//85 42//42
f 86//86 42//42 85//85
f 3//3 81//81 82//82
f 81//81 5//5 64//64
f 82//82 64//64 15//15
f 23//23 88//88 16//16
f 95//95 56//56 55//55
f 74//74 87//87 75//75
f 75//75 87//87 10//10
f 87//87 78//78 10//10
f 21//21 44//44 22//22
f 88//88 61//61 50//50
f 52//52 77//77 74//74
f 52//52 51//51 11//11
f 59//59 19//19 91//91
f 16//16 88//88 50//50
f 88//88 2//2 61//61
f 77//77 52//52 11//11
f 43//43 59//59 67//67
f 67//67 91//91 13//13
f 52//52 16//16 50//50
f 43//43 67//67 18//18
f 6//6 92//92 55//55
f 6//6 55//55 35//35
f 90//90 13//13 91//91
f 43//43 18//18 44//44
f 43//43 89//89 1//1
f 1//1 89//89 20//20
f 1//1 20//20 28//28
f 67//67 59//59 91//91
f 43//43 1//1 59//59
f 1//1 95//95 59//59
f 68//68 93//93 69//69
f 95//95 1//1 28//28
f 94//94 92//92 6//6
f 93//93 18//18 67//67
f 93//93 67//67 13//13
f 79//79 92//92 94//94
f 92//92 95//95 55//55
f 95//95 92//92 59//59
f 7//7 32//32 22//22
# 158 faces, 0 coords texture

# End of File
