####
#
# OBJ File Generated by Meshlab
#
####
# Object 2486_C141_S_9.obj
#
# Vertices: 84
# Faces: 138
#
####
vn 5.270225 -3.420450 -0.055971
v -75.310036 70.576929 -21.899189
vn 5.267379 -3.424733 -0.051296
v -74.120047 72.431779 -22.126593
vn 5.264306 -3.429778 -0.045369
v -74.029095 72.493641 -17.924203
vn 5.259970 -3.436396 -0.043751
v -72.916923 74.262244 -22.267002
vn 5.255058 -3.444004 -0.034128
v -72.305580 75.227742 -24.131980
vn 5.261195 -3.434586 -0.038725
v -74.799787 71.401486 -24.202354
vn 5.266265 -3.426983 -0.017502
v -73.957369 72.695201 -24.998902
vn 5.257079 -3.440538 -0.060040
v -72.352471 75.110631 -20.527220
vn 5.263866 -3.430253 -0.057341
v -73.498449 73.350889 -20.335082
vn 5.263059 -3.431648 -0.048920
v -75.624133 70.070880 -20.153292
vn 5.253330 -3.446313 -0.057933
v -71.646826 76.208034 -21.665697
vn 5.272587 -3.416875 -0.054821
v -74.587194 71.663025 -19.970007
vn 2.612578 -1.706203 -0.026415
v -73.209300 73.738400 -17.192000
vn 2.406945 -1.567449 -0.026076
v -73.024600 74.022700 -17.262800
vn 2.278370 -1.481257 -0.010422
v -73.208100 73.857500 -25.874700
vn 2.480372 -1.619083 -0.031137
v -75.845100 69.790400 -23.660900
vn 2.525489 -1.647824 -0.032695
v -75.674600 70.060400 -24.121500
vn 2.376848 -1.563144 -0.023718
v -75.266100 70.704500 -24.970200
vn 2.396674 -1.578252 -0.035238
v -71.408950 76.547850 -20.685200
vn 2.485893 -1.629269 -0.014521
v -72.261700 75.302800 -25.025600
vn 2.477867 -1.633272 -0.014036
v -74.864900 71.313100 -25.409300
vn 2.466603 -1.614726 -0.013744
v -74.396700 72.028900 -25.739400
vn 2.347854 -1.534342 -0.023047
v -76.181750 69.224850 -20.632600
vn 2.305506 -1.499085 -0.017713
v -75.218154 70.665328 -17.768300
vn 2.466795 -1.619623 -0.012797
v -71.407600 76.581200 -22.567000
vn 2.226973 -1.471913 -0.011142
v -71.959300 75.755400 -24.626600
vn 2.316918 -1.516153 -0.018322
v -71.327700 76.699600 -21.987700
vn 2.380043 -1.555459 -0.018313
v -73.888700 72.697700 -16.959700
vn 2.381111 -1.552154 -0.015953
v -74.327200 72.027500 -17.051000
vn 2.380428 -1.557212 -0.016707
v -72.409500 74.979400 -17.847700
vn 5.264784 -3.428881 -0.056670
v -73.064562 73.972466 -17.931892
vn 5.260724 -3.435181 -0.051732
v -73.545912 73.231852 -17.765418
vn 2.370918 -1.544304 -0.022379
v -75.963250 69.539650 -19.431975
vn 5.262058 -3.433293 -0.037990
v -72.972597 74.205832 -24.136643
vn 5.261676 -3.433885 -0.037208
v -72.222033 75.345373 -23.261620
vn 5.255059 -3.443919 -0.045186
v -73.230779 73.795593 -23.163237
vn 5.258761 -3.438315 -0.034510
v -71.895332 75.839300 -22.496398
vn 5.270295 -3.420602 -0.043434
v -72.369149 75.106790 -22.329297
vn 5.274644 -3.413670 -0.054186
v -75.040842 71.011451 -23.025925
vn 5.262147 -3.432783 -0.064957
v -75.571296 70.194801 -22.879766
vn 5.261390 -3.433906 -0.066846
v -75.358770 70.538860 -23.839854
vn 5.259630 -3.436779 -0.056443
v -75.775205 69.867535 -22.078263
vn 2.413025 -1.576380 -0.028393
v -76.077375 69.415850 -22.691900
vn 5.263312 -3.431181 -0.051687
v -72.082813 75.537474 -21.461100
vn 5.249382 -3.452081 -0.074029
v -71.860954 75.859572 -20.602344
vn 5.263121 -3.431805 -0.026305
v -72.775870 74.513012 -24.928386
vn 2.622128 -1.709086 -0.013439
v -72.680500 74.663100 -25.407550
vn 5.277714 -3.408887 -0.058251
v -74.909323 71.181647 -20.971665
vn 5.285121 -3.397439 -0.056670
v -74.707383 71.517244 -22.058072
vn 2.464072 -1.601961 -0.011525
v -73.873650 72.830700 -25.908550
vn 5.275567 -3.412495 -0.033515
v -74.453883 71.926263 -23.119976
vn 5.264519 -3.429728 -0.013173
v -74.169171 72.369047 -24.072813
vn 5.257260 -3.440700 -0.029720
v -73.837253 72.873289 -23.120633
vn 5.258044 -3.439577 -0.021448
v -74.429829 71.971194 -24.917912
vn 5.265413 -3.428040 -0.048002
v -75.351477 70.498470 -20.843634
vn 5.259554 -3.437014 -0.049481
v -75.744042 69.902812 -21.215377
vn 2.512333 -1.642929 -0.024354
v -76.173650 69.250600 -21.562900
vn 5.267991 -3.424125 -0.045023
v -75.108828 70.859703 -19.955165
vn 5.267365 -3.425118 -0.042813
v -74.860271 71.229848 -18.911252
vn 5.267877 -3.424329 -0.042947
v -75.383470 70.426021 -19.055475
vn 2.515986 -1.634667 -0.020072
v -75.569900 70.131500 -18.438300
vn 5.270301 -3.420507 -0.048971
v -74.278765 72.123739 -18.950510
vn 5.265721 -3.427682 -0.039571
v -74.584586 71.640855 -17.959318
vn 2.596570 -1.707665 -0.011647
v -71.672500 76.184675 -23.600425
vn 5.249330 -3.452653 -0.045688
v -73.518818 73.346811 -22.192215
vn 5.262179 -3.432956 -0.049432
v -72.909334 74.256360 -20.480022
vn 5.254713 -3.443994 -0.071747
v -72.627240 74.672864 -19.659235
vn 5.261381 -3.433983 -0.063593
v -73.185701 73.815485 -19.562871
vn 5.249878 -3.451287 -0.076150
v -72.127442 75.433085 -19.667797
vn 5.249907 -3.451509 -0.053774
v -72.389194 75.016773 -18.902566
vn 5.261975 -3.433008 -0.063742
v -73.820832 72.870340 -21.102042
vn 5.273522 -3.415302 -0.063114
v -74.062276 72.475519 -20.066408
vn 5.266400 -3.426652 -0.037645
v -72.617616 74.712230 -21.381343
vn 2.505239 -1.649381 -0.036206
v -71.626500 76.195000 -19.712250
vn 2.629309 -1.710866 -0.016878
v -74.762700 71.361600 -17.399400
vn 5.258079 -3.439161 -0.055144
v -72.843199 74.325801 -18.759340
vn 2.413254 -1.585013 -0.022983
v -71.987228 75.625394 -18.599100
vn 5.268247 -3.423525 -0.057501
v -73.813624 72.844029 -19.051715
vn 5.264661 -3.429181 -0.049144
v -72.668053 74.659248 -23.284463
vn 5.268280 -3.423894 -0.022567
v -73.358356 73.620454 -25.028357
vn 5.261842 -3.433335 -0.060415
v -73.505290 73.308094 -18.585676
vn 5.263049 -3.431888 -0.025523
v -73.559174 73.305697 -24.072591
vn 5.278457 -3.407511 -0.071003
v -74.364392 72.030640 -21.045897
vn 5.256506 -3.441750 -0.042068
v -73.202626 73.815445 -21.351573
# 84 vertices, 0 vertices normals

f 23//23 10//10 33//33
f 37//37 38//38 35//35
f 39//39 40//40 41//41
f 6//6 41//41 18//18
f 42//42 43//43 40//40
f 45//45 11//11 19//19
f 46//46 80//80 15//15
f 6//6 18//18 21//21
f 51//51 52//52 53//53
f 50//50 7//7 22//22
f 55//55 10//10 56//56
f 56//56 57//57 42//42
f 58//58 59//59 60//60
f 60//60 24//24 61//61
f 48//48 58//58 55//55
f 62//62 63//63 59//59
f 65//65 53//53 36//36
f 35//35 5//5 64//64
f 5//5 20//20 26//26
f 66//66 67//67 68//68
f 67//67 69//69 70//70
f 49//49 39//39 51//51
f 52//52 54//54 7//7
f 38//38 44//44 73//73
f 45//45 74//74 69//69
f 3//3 32//32 28//28
f 11//11 25//25 27//27
f 24//24 63//63 75//75
f 70//70 77//77 30//30
f 3//3 28//28 29//29
f 3//3 81//81 32//32
f 32//32 81//81 31//31
f 13//13 31//31 14//14
f 13//13 32//32 31//31
f 82//82 34//34 36//36
f 34//34 5//5 79//79
f 35//35 38//38 79//79
f 6//6 39//39 41//41
f 39//39 1//1 40//40
f 41//41 40//40 16//16
f 17//17 41//41 16//16
f 41//41 17//17 18//18
f 80//80 82//82 7//7
f 34//34 46//46 5//5
f 1//1 42//42 40//40
f 40//40 43//43 16//16
f 8//8 44//44 45//45
f 45//45 44//44 11//11
f 5//5 46//46 20//20
f 47//47 20//20 46//46
f 49//49 48//48 1//1
f 50//50 15//15 80//80
f 2//2 51//51 53//53
f 51//51 6//6 52//52
f 21//21 54//54 6//6
f 54//54 21//21 22//22
f 1//1 55//55 56//56
f 56//56 10//10 23//23
f 1//1 56//56 42//42
f 56//56 23//23 57//57
f 42//42 57//57 43//43
f 10//10 58//58 60//60
f 58//58 12//12 59//59
f 60//60 59//59 24//24
f 10//10 60//60 33//33
f 61//61 33//33 60//60
f 1//1 48//48 55//55
f 48//48 12//12 58//58
f 55//55 58//58 10//10
f 12//12 62//62 59//59
f 62//62 3//3 63//63
f 59//59 63//63 24//24
f 64//64 37//37 35//35
f 11//11 37//37 25//25
f 64//64 25//25 37//37
f 4//4 65//65 36//36
f 65//65 2//2 53//53
f 36//36 53//53 82//82
f 11//11 27//27 19//19
f 9//9 66//66 68//68
f 66//66 8//8 67//67
f 68//68 67//67 76//76
f 76//76 67//67 70//70
f 67//67 8//8 69//69
f 70//70 69//69 77//77
f 2//2 49//49 51//51
f 49//49 1//1 39//39
f 51//51 39//39 6//6
f 52//52 6//6 54//54
f 2//2 71//71 83//83
f 83//83 72//72 12//12
f 4//4 38//38 73//73
f 73//73 44//44 8//8
f 8//8 45//45 69//69
f 45//45 19//19 74//74
f 69//69 74//74 77//77
f 32//32 13//13 28//28
f 3//3 29//29 63//63
f 75//75 63//63 29//29
f 76//76 30//30 31//31
f 14//14 31//31 30//30
f 76//76 70//70 30//30
f 9//9 78//78 72//72
f 9//9 71//71 84//84
f 71//71 2//2 65//65
f 84//84 65//65 4//4
f 9//9 84//84 66//66
f 66//66 73//73 8//8
f 68//68 78//78 9//9
f 34//34 79//79 36//36
f 46//46 34//34 80//80
f 81//81 78//78 68//68
f 81//81 76//76 31//31
f 36//36 79//79 4//4
f 79//79 38//38 4//4
f 46//46 15//15 47//47
f 76//76 81//81 68//68
f 37//37 11//11 44//44
f 7//7 50//50 80//80
f 53//53 52//52 82//82
f 7//7 82//82 52//52
f 38//38 37//37 44//44
f 72//72 78//78 62//62
f 72//72 62//62 12//12
f 7//7 54//54 22//22
f 34//34 82//82 80//80
f 49//49 83//83 48//48
f 79//79 5//5 35//35
f 2//2 83//83 49//49
f 83//83 12//12 48//48
f 71//71 9//9 72//72
f 83//83 71//71 72//72
f 5//5 26//26 64//64
f 84//84 71//71 65//65
f 84//84 73//73 66//66
f 84//84 4//4 73//73
f 78//78 81//81 3//3
f 78//78 3//3 62//62
# 138 faces, 0 coords texture

# End of File
