####
#
# OBJ File Generated by Meshlab
#
####
# Object 2488_C142_S_0.obj
#
# Vertices: 81
# Faces: 133
#
####
vn 5.295433 -3.381067 -0.071138
v -75.265828 71.560902 -8.721804
vn 5.288738 -3.391440 -0.073915
v -74.928167 71.983061 -4.404614
vn 5.283933 -3.399243 -0.059464
v -76.407624 69.757894 -7.790590
vn 5.301127 -3.372113 -0.072640
v -75.041236 71.950182 -10.622993
vn 5.285302 -3.396752 -0.077373
v -75.387034 71.315792 -6.346544
vn 5.280066 -3.404976 -0.072673
v -76.512503 69.558455 -5.665915
vn 5.276498 -3.410535 -0.071624
v -73.252868 74.689812 -8.572630
vn 5.286710 -3.394388 -0.081062
v -74.191020 73.265140 -9.595120
vn 5.289150 -3.390701 -0.080010
v -74.264814 73.096101 -7.548338
vn 5.285548 -3.396544 -0.065868
v -73.255867 74.646055 -6.258762
vn 5.293572 -3.383775 -0.080885
v -74.337521 72.939771 -5.775541
vn 2.260509 -1.464480 -0.025948
v -72.248917 76.222869 -7.586322
vn 2.431120 -1.567695 -0.026637
v -77.005100 68.824100 -7.364360
vn 2.561105 -1.650718 -0.030021
v -76.966200 68.866000 -6.285020
vn 2.297439 -1.481885 -0.024209
v -76.904500 68.997000 -8.367550
vn 2.565486 -1.632155 -0.035576
v -74.485300 72.838500 -11.197000
vn 2.231907 -1.424889 -0.025507
v -76.232100 70.068700 -10.193200
vn 2.523384 -1.610602 -0.027479
v -72.913800 75.135100 -3.961040
vn 2.443591 -1.573192 -0.027770
v -72.681850 75.503250 -4.448590
vn 2.310674 -1.499492 -0.024379
v -72.347600 76.036800 -5.619380
vn 2.378455 -1.543449 -0.038470
v -73.283300 74.688900 -10.551700
vn 2.260528 -1.455401 -0.032909
v -76.887100 68.970600 -5.399200
vn 2.290625 -1.464509 -0.027968
v -74.442550 72.709000 -2.621425
vn 2.285941 -1.473733 -0.035530
v -76.323800 69.806500 -3.870470
vn 2.266743 -1.468397 -0.031333
v -72.612100 75.696400 -9.371620
vn 2.306494 -1.469567 -0.032478
v -73.405500 74.342600 -3.184680
vn 2.235662 -1.421730 -0.032411
v -75.055400 71.942450 -11.260800
vn 2.667426 -1.720692 -0.042448
v -76.601600 69.395300 -4.650470
vn 2.313730 -1.488226 -0.031185
v -75.518800 71.034000 -2.926260
vn 5.301396 -3.371704 -0.071803
v -75.635279 71.008757 -10.266367
vn 2.618197 -1.666498 -0.039822
v -75.688750 70.935500 -10.712450
vn 5.299495 -3.374968 -0.057252
v -75.739711 70.828326 -9.412346
vn 5.292945 -3.385074 -0.064720
v -75.835940 70.660278 -8.260702
vn 5.288145 -3.392775 -0.052465
v -76.305316 69.934375 -8.912017
vn 5.280156 -3.405132 -0.058748
v -76.468822 69.644591 -6.713894
vn 2.637044 -1.701164 -0.027343
v -76.588900 69.499850 -9.227475
vn 5.301455 -3.371617 -0.071619
v -74.614761 72.610890 -10.162142
vn 5.290666 -3.388273 -0.078513
v -74.166845 73.322013 -10.408850
vn 5.272714 -3.416649 -0.058416
v -72.744770 75.447750 -6.992900
vn 2.635766 -1.708644 -0.029379
v -72.298400 76.129550 -6.598395
vn 5.271802 -3.418110 -0.055028
v -72.724937 75.461824 -6.031249
vn 5.282237 -3.401714 -0.062895
v -72.924796 75.142029 -5.235959
vn 2.402916 -1.551262 -0.039657
v -73.793600 73.916550 -10.989400
vn 5.272678 -3.416108 -0.086279
v -73.736549 73.977710 -10.048233
vn 5.290045 -3.389321 -0.079659
v -75.335013 71.425905 -7.577007
vn 5.284714 -3.397832 -0.069057
v -75.905679 70.524576 -7.109474
vn 5.278507 -3.407478 -0.068966
v -76.005535 70.350962 -6.016094
vn 5.300935 -3.372588 -0.064375
v -75.159775 71.747723 -9.775413
vn 5.295619 -3.380788 -0.071306
v -74.374174 72.848761 -4.302596
vn 5.294456 -3.382698 -0.067103
v -74.065795 73.314889 -3.440493
vn 5.293323 -3.384534 -0.063699
v -74.677367 72.358777 -3.527254
vn 5.290036 -3.389232 -0.083894
v -74.788584 72.242123 -6.034763
vn 5.292987 -3.384675 -0.081481
v -74.625523 72.474235 -5.148886
vn 5.284793 -3.397441 -0.081551
v -75.150776 71.658302 -5.308902
vn 5.279916 -3.405111 -0.078227
v -75.721171 70.740455 -3.812419
vn 2.613903 -1.684479 -0.038826
v -75.805175 70.597075 -3.247303
vn 5.274135 -3.414393 -0.061835
v -72.762302 75.438798 -8.064996
vn 5.273370 -3.415346 -0.073117
v -72.891391 75.258326 -9.046495
vn 2.634211 -1.704393 -0.033188
v -72.431050 75.958950 -8.486880
vn 5.272167 -3.417065 -0.079591
v -73.307689 74.628889 -9.585743
vn 2.604870 -1.689329 -0.039161
v -73.064950 75.017125 -10.186180
vn 5.275162 -3.412291 -0.085499
v -73.726134 73.971264 -9.089340
vn 5.282395 -3.401316 -0.073586
v -73.733704 73.931927 -8.050988
vn 5.285382 -3.396303 -0.089820
v -74.226652 73.183215 -8.595244
vn 5.290146 -3.389137 -0.080715
v -74.814943 72.224767 -7.018660
vn 5.291908 -3.386303 -0.084001
v -74.770450 72.319602 -8.099495
vn 5.299033 -3.375421 -0.071039
v -73.277900 74.571790 -4.379385
vn 5.280188 -3.405077 -0.057462
v -73.236601 74.696981 -7.488777
vn 5.291379 -3.387459 -0.068292
v -73.766697 73.862527 -6.977731
vn 5.296096 -3.379871 -0.079123
v -73.868857 73.679199 -5.990237
vn 5.297988 -3.377011 -0.074284
v -73.547184 74.165061 -5.200158
vn 5.296035 -3.380005 -0.077461
v -74.094067 73.305597 -5.099923
vn 5.292680 -3.385162 -0.081251
v -74.304089 73.011128 -6.569586
vn 2.639423 -1.687309 -0.034020
v -73.907950 73.551050 -2.907180
vn 5.277797 -3.408392 -0.078360
v -75.634050 70.910933 -5.379703
vn 5.278925 -3.406673 -0.077092
v -75.447979 71.179898 -4.531374
vn 5.285281 -3.396953 -0.068977
v -75.219695 71.514044 -3.652266
vn 5.278359 -3.407466 -0.080665
v -76.045983 70.260408 -4.815684
vn 5.296265 -3.379631 -0.076998
v -74.706719 72.447226 -9.167454
vn 2.631076 -1.684896 -0.030490
v -74.996750 71.846250 -2.769715
vn 5.297750 -3.377404 -0.073046
v -73.811438 73.728697 -4.230918
# 81 vertices, 0 vertices normals

f 34//34 15//15 36//36
f 3//3 13//13 15//15
f 8//8 37//37 38//38
f 67//67 19//19 18//18
f 39//39 40//40 41//41
f 38//38 43//43 44//44
f 45//45 46//46 33//33
f 47//47 35//35 46//46
f 6//6 22//22 14//14
f 32//32 30//30 48//48
f 49//49 50//50 51//51
f 52//52 53//53 54//54
f 57//57 58//58 59//59
f 60//60 61//61 58//58
f 62//62 44//44 60//60
f 62//62 63//63 64//64
f 65//65 45//45 66//66
f 68//68 57//57 39//39
f 69//69 63//63 68//68
f 70//70 71//71 72//72
f 73//73 52//52 65//65
f 70//70 73//73 69//69
f 72//72 49//49 53//53
f 4//4 27//27 16//16
f 75//75 78//78 47//47
f 6//6 78//78 28//28
f 76//76 77//77 55//55
f 22//22 6//6 28//28
f 66//66 79//79 64//64
f 37//37 79//79 48//48
f 51//51 80//80 77//77
f 54//54 76//76 75//75
f 71//71 42//42 67//67
f 4//4 30//30 31//31
f 31//31 27//27 4//4
f 17//17 32//32 34//34
f 35//35 14//14 13//13
f 14//14 35//35 6//6
f 3//3 35//35 13//13
f 15//15 34//34 3//3
f 36//36 17//17 34//34
f 37//37 16//16 38//38
f 16//16 37//37 4//4
f 43//43 38//38 16//16
f 10//10 39//39 41//41
f 39//39 12//12 40//40
f 41//41 40//40 20//20
f 42//42 10//10 41//41
f 19//19 42//42 20//20
f 8//8 38//38 44//44
f 44//44 43//43 21//21
f 1//1 45//45 33//33
f 45//45 5//5 46//46
f 33//33 46//46 3//3
f 5//5 47//47 46//46
f 47//47 6//6 35//35
f 46//46 35//35 3//3
f 1//1 32//32 48//48
f 48//48 30//30 4//4
f 2//2 49//49 51//51
f 49//49 81//81 50//50
f 51//51 50//50 23//23
f 5//5 52//52 54//54
f 52//52 11//11 53//53
f 54//54 53//53 2//2
f 78//78 55//55 24//24
f 56//56 24//24 55//55
f 57//57 7//7 58//58
f 59//59 58//58 25//25
f 59//59 12//12 57//57
f 7//7 60//60 58//58
f 58//58 61//61 25//25
f 7//7 62//62 60//60
f 62//62 8//8 44//44
f 60//60 44//44 21//21
f 61//61 60//60 21//21
f 8//8 62//62 64//64
f 62//62 7//7 63//63
f 64//64 63//63 9//9
f 9//9 65//65 66//66
f 65//65 5//5 45//45
f 66//66 45//45 1//1
f 67//67 26//26 81//81
f 26//26 67//67 18//18
f 10//10 68//68 39//39
f 68//68 7//7 57//57
f 39//39 57//57 12//12
f 10//10 69//69 68//68
f 69//69 9//9 63//63
f 68//68 63//63 7//7
f 11//11 70//70 72//72
f 70//70 10//10 71//71
f 9//9 73//73 65//65
f 73//73 11//11 52//52
f 65//65 52//52 5//5
f 10//10 70//70 69//69
f 70//70 11//11 73//73
f 69//69 73//73 9//9
f 11//11 72//72 53//53
f 72//72 81//81 49//49
f 53//53 49//49 2//2
f 50//50 74//74 23//23
f 5//5 75//75 47//47
f 47//47 78//78 6//6
f 78//78 76//76 55//55
f 76//76 2//2 77//77
f 55//55 77//77 29//29
f 56//56 55//55 29//29
f 78//78 24//24 28//28
f 9//9 66//66 64//64
f 66//66 1//1 79//79
f 64//64 79//79 8//8
f 4//4 37//37 48//48
f 37//37 8//8 79//79
f 48//48 79//79 1//1
f 2//2 51//51 77//77
f 51//51 23//23 80//80
f 77//77 80//80 29//29
f 5//5 54//54 75//75
f 54//54 2//2 76//76
f 75//75 76//76 78//78
f 71//71 10//10 42//42
f 19//19 67//67 42//42
f 34//34 33//33 3//3
f 72//72 71//71 81//81
f 67//67 81//81 71//71
f 50//50 81//81 26//26
f 50//50 26//26 74//74
f 42//42 41//41 20//20
f 30//30 32//32 17//17
f 32//32 33//33 34//34
f 33//33 32//32 1//1
f 30//30 17//17 31//31
# 133 faces, 0 coords texture

# End of File
