####
#
# OBJ File Generated by Meshlab
#
####
# Object 2489_C142_S_1.obj
#
# Vertices: 91
# Faces: 150
#
####
vn 5.227024 -3.486526 -0.027125
v -76.534265 70.056650 -38.476744
vn 5.249117 -3.453066 -0.033882
v -77.687825 68.317344 -38.195276
vn 5.278592 -3.407141 -0.078729
v -78.738508 66.587898 -31.588259
vn 5.273282 -3.415668 -0.061859
v -78.538927 66.946299 -33.798062
vn 5.262461 -3.432408 -0.055174
v -77.984835 67.837263 -36.104593
vn 5.263640 -3.430371 -0.061320
v -77.671548 68.259193 -32.289553
vn 5.256672 -3.441476 -0.042569
v -76.615255 69.874271 -33.065737
vn 5.252382 -3.447898 -0.052759
v -77.356857 68.767975 -34.446242
vn 5.271780 -3.417946 -0.065401
v -79.019518 66.239247 -36.014037
vn 5.277818 -3.408751 -0.058786
v -79.475782 65.506428 -34.363814
vn 5.237725 -3.470121 -0.038035
v -76.903021 69.493527 -36.561654
vn 5.239675 -3.467398 -0.021450
v -75.700718 71.292884 -37.014394
vn 5.261096 -3.434736 -0.042620
v -75.860933 71.017928 -31.806933
vn 5.263249 -3.431347 -0.049009
v -76.810500 69.549399 -30.972690
vn 5.273645 -3.415001 -0.068840
v -77.768652 68.066154 -30.383340
vn 5.244649 -3.459882 -0.030640
v -76.182937 70.558212 -35.057843
vn 2.657020 -1.722023 -0.040962
v -79.354500 65.650200 -32.124500
vn 2.289593 -1.474160 -0.034184
v -78.983400 66.194200 -31.012800
vn 2.246706 -1.449464 -0.029728
v -77.789500 68.023300 -29.869500
vn 2.701969 -1.749765 -0.028175
v -77.585000 68.341200 -29.895500
vn 2.293367 -1.496700 -0.019857
v -75.771500 71.142800 -30.882100
vn 2.622730 -1.693711 -0.030585
v -79.641900 65.238200 -33.743400
vn 2.334635 -1.511978 -0.031853
v -79.499100 65.436700 -32.536100
vn 2.332899 -1.504285 -0.026137
v -79.697055 65.161489 -34.261301
vn 2.329824 -1.507381 -0.031911
v -79.520100 65.468800 -36.169300
vn 2.362664 -1.552594 -0.015230
v -75.108500 72.176000 -32.468100
vn 2.494630 -1.607917 -0.031879
v -78.664700 66.682700 -30.598200
vn 2.397909 -1.570686 -0.016057
v -78.533300 67.027700 -38.440300
vn 2.490802 -1.629567 -0.028723
v -78.878100 66.496600 -37.882400
vn 2.517015 -1.642386 -0.038496
v -79.233000 65.936800 -37.068900
vn 2.412868 -1.598606 -0.006072
v -74.824650 72.613750 -34.493200
vn 2.409136 -1.579281 -0.015469
v -78.029100 67.803500 -38.884100
vn 2.646625 -1.763335 -0.016898
v -76.712400 69.794600 -39.042900
vn 2.281875 -1.482233 -0.018374
v -76.912100 69.379900 -29.884500
vn 2.190911 -1.462424 -0.011272
v -76.450500 70.186400 -39.029200
vn 2.277556 -1.494150 -0.011335
v -75.296000 71.913700 -37.528100
vn 2.593623 -1.730328 -0.015676
v -76.202100 70.557000 -38.763900
vn 2.462564 -1.634743 -0.014661
v -75.691400 71.317000 -38.189600
vn 2.268500 -1.497471 -0.005624
v -74.849200 72.581600 -35.786000
vn 5.226319 -3.487615 -0.019316
v -76.697090 69.807826 -37.590369
vn 5.244416 -3.460214 -0.028975
v -77.268040 68.947588 -37.405547
vn 5.266573 -3.426111 -0.056550
v -78.322406 67.295292 -34.740538
vn 5.261005 -3.434621 -0.059542
v -77.929033 67.905097 -35.138327
vn 5.247604 -3.455243 -0.048511
v -77.149447 69.057226 -32.693474
vn 5.255324 -3.443494 -0.045806
v -77.539674 68.474775 -33.381085
vn 5.246927 -3.456258 -0.049522
v -76.976728 69.334593 -33.744526
vn 5.245923 -3.457696 -0.055087
v -76.760980 69.677077 -34.774744
vn 5.256183 -3.442209 -0.041526
v -76.410516 70.198525 -34.071766
vn 5.274756 -3.413560 -0.054526
v -78.790625 66.575364 -34.933926
vn 5.271636 -3.418340 -0.056766
v -78.506022 67.030551 -35.945439
vn 5.274437 -3.413823 -0.067060
v -79.181012 65.942441 -33.251129
vn 5.264765 -3.429098 -0.044065
v -76.306816 70.328292 -31.383850
vn 5.274952 -3.413214 -0.057078
v -79.269296 65.838027 -35.118679
vn 2.640645 -1.709184 -0.029367
v -79.601600 65.327700 -35.281750
vn 5.255126 -3.443508 -0.062966
v -77.255098 68.882196 -31.640238
vn 5.257215 -3.440627 -0.043928
v -76.745603 69.661872 -32.029447
vn 5.260013 -3.436412 -0.041455
v -75.673260 71.314025 -32.546785
vn 5.241926 -3.464152 -0.012190
v -75.369088 71.791536 -34.284504
vn 5.272952 -3.416191 -0.058930
v -78.095778 67.616747 -32.995200
vn 5.254076 -3.445381 -0.049267
v -77.459250 68.642356 -36.358822
vn 5.251342 -3.449414 -0.057562
v -77.332635 68.822631 -35.549238
vn 5.233267 -3.476863 -0.042844
v -76.537224 70.034370 -35.787749
vn 5.274977 -3.412795 -0.076425
v -78.793749 66.521970 -32.420480
vn 5.256810 -3.441279 -0.044164
v -77.821891 68.099969 -37.197454
vn 5.221140 -3.495366 -0.022966
v -76.320129 70.364951 -36.789719
vn 5.233766 -3.476395 -0.014383
v -75.948756 70.914840 -36.012095
vn 5.281054 -3.403399 -0.075906
v -78.195394 67.437842 -31.902689
vn 5.266741 -3.425727 -0.061863
v -77.337960 68.732265 -30.643744
vn 5.271691 -3.417782 -0.077786
v -77.739057 68.131795 -31.247419
vn 5.279926 -3.405236 -0.071587
v -78.205214 67.400272 -30.911006
vn 2.600790 -1.679599 -0.033078
v -78.127175 67.505975 -30.129975
vn 5.264599 -3.428855 -0.070797
v -78.768834 66.641111 -36.879405
vn 2.548949 -1.688543 -0.008129
v -74.963450 72.398950 -33.327700
vn 2.562902 -1.677235 -0.021196
v -75.381725 71.749475 -31.750300
vn 5.264775 -3.429134 -0.039936
v -76.228719 70.460392 -32.386131
vn 5.264566 -3.429492 -0.036378
v -76.060774 70.728987 -33.340274
vn 5.255912 -3.442791 -0.021870
v -75.870963 71.029835 -34.283418
vn 5.233271 -3.477136 -0.026651
v -77.040270 69.294853 -38.374075
vn 2.406744 -1.595171 -0.016338
v -77.342100 68.849225 -39.120000
vn 2.579072 -1.680770 -0.022340
v -76.339400 70.264075 -30.344400
vn 5.247143 -3.456262 -0.009959
v -75.379140 71.778723 -36.045725
vn 2.665469 -1.750749 -0.010436
v -75.096400 72.212550 -36.694800
vn 5.223838 -3.491286 -0.027544
v -76.173104 70.591121 -37.812265
vn 5.242502 -3.463307 -0.007205
v -75.239761 71.989214 -35.195457
vn 5.276197 -3.411229 -0.060386
v -79.077134 66.118317 -34.072265
vn 5.245906 -3.458157 -0.005279
v -75.665844 71.343144 -35.219725
vn 5.251318 -3.449727 -0.028233
v -75.523404 71.553768 -33.399922
vn 5.256781 -3.441345 -0.042424
v -78.257184 67.444132 -37.940961
vn 5.263722 -3.430519 -0.055281
v -78.365098 67.267060 -37.075629
vn 5.278417 -3.407535 -0.073480
v -78.565440 66.886130 -32.929071
vn 5.261879 -3.433377 -0.053386
v -77.905946 67.923076 -34.207992
# 91 vertices, 0 vertices normals

f 78//78 40//40 41//41
f 91//91 42//42 43//43
f 15//15 20//20 19//19
f 44//44 45//45 46//46
f 47//47 48//48 46//46
f 42//42 49//49 50//50
f 10//10 85//85 22//22
f 53//53 10//10 54//54
f 55//55 44//44 56//56
f 10//10 22//22 24//24
f 59//59 91//91 45//45
f 62//62 47//47 61//61
f 89//89 88//88 64//64
f 40//40 83//83 65//65
f 66//66 62//62 65//65
f 59//59 67//67 90//90
f 55//55 68//68 69//69
f 88//88 29//29 28//28
f 72//72 89//89 50//50
f 2//2 32//32 79//79
f 75//75 76//76 57//57
f 75//75 52//52 56//56
f 76//76 48//48 77//77
f 70//70 67//67 69//69
f 9//9 25//25 30//30
f 3//3 27//27 18//18
f 58//58 84//84 31//31
f 1//1 33//33 35//35
f 15//15 19//19 71//71
f 1//1 35//35 37//37
f 12//12 83//83 38//38
f 12//12 38//38 36//36
f 84//84 86//86 81//81
f 58//58 77//77 86//86
f 2//2 78//78 41//41
f 78//78 1//1 40//40
f 41//41 40//40 11//11
f 3//3 18//18 17//17
f 7//7 44//44 46//46
f 44//44 6//6 45//45
f 46//46 45//45 8//8
f 8//8 47//47 46//46
f 47//47 16//16 48//48
f 46//46 48//48 7//7
f 5//5 43//43 50//50
f 50//50 49//49 9//9
f 51//51 22//22 85//85
f 49//49 53//53 9//9
f 21//21 52//52 13//13
f 52//52 80//80 14//14
f 80//80 52//52 21//21
f 51//51 23//23 22//22
f 24//24 54//54 10//10
f 9//9 53//53 25//25
f 54//54 25//25 53//53
f 14//14 55//55 56//56
f 55//55 6//6 44//44
f 56//56 44//44 7//7
f 74//74 13//13 57//57
f 6//6 59//59 45//45
f 59//59 4//4 91//91
f 8//8 91//91 43//43
f 8//8 43//43 61//61
f 43//43 5//5 61//61
f 61//61 60//60 11//11
f 11//11 62//62 61//61
f 62//62 16//16 47//47
f 61//61 47//47 8//8
f 85//85 90//90 51//51
f 23//23 51//51 63//63
f 64//64 2//2 41//41
f 60//60 41//41 11//11
f 11//11 40//40 65//65
f 40//40 1//1 83//83
f 65//65 83//83 12//12
f 12//12 66//66 65//65
f 66//66 16//16 62//62
f 65//65 62//62 11//11
f 59//59 6//6 67//67
f 63//63 67//67 3//3
f 6//6 55//55 69//69
f 55//55 14//14 68//68
f 69//69 68//68 15//15
f 15//15 70//70 69//69
f 3//3 70//70 27//27
f 71//71 27//27 70//70
f 30//30 72//72 9//9
f 72//72 30//30 29//29
f 57//57 87//87 26//26
f 13//13 74//74 21//21
f 9//9 72//72 50//50
f 50//50 89//89 5//5
f 13//13 75//75 57//57
f 75//75 7//7 76//76
f 7//7 75//75 56//56
f 75//75 13//13 52//52
f 56//56 52//52 14//14
f 76//76 7//7 48//48
f 77//77 48//48 16//16
f 79//79 78//78 2//2
f 1//1 78//78 33//33
f 79//79 33//33 78//78
f 14//14 80//80 34//34
f 15//15 71//71 70//70
f 70//70 3//3 67//67
f 69//69 67//67 6//6
f 68//68 34//34 20//20
f 34//34 68//68 14//14
f 15//15 68//68 20//20
f 82//82 12//12 36//36
f 12//12 82//82 81//81
f 82//82 39//39 81//81
f 37//37 83//83 1//1
f 83//83 37//37 38//38
f 81//81 66//66 12//12
f 58//58 31//31 73//73
f 81//81 39//39 84//84
f 84//84 58//58 86//86
f 49//49 85//85 53//53
f 84//84 39//39 31//31
f 4//4 85//85 49//49
f 85//85 10//10 53//53
f 85//85 4//4 90//90
f 74//74 57//57 26//26
f 58//58 87//87 77//77
f 86//86 66//66 81//81
f 87//87 57//57 76//76
f 87//87 73//73 26//26
f 72//72 29//29 89//89
f 66//66 86//86 16//16
f 86//86 77//77 16//16
f 87//87 58//58 73//73
f 87//87 76//76 77//77
f 88//88 32//32 2//2
f 88//88 28//28 32//32
f 64//64 41//41 60//60
f 5//5 89//89 64//64
f 64//64 60//60 5//5
f 88//88 2//2 64//64
f 89//89 29//29 88//88
f 63//63 3//3 17//17
f 42//42 91//91 4//4
f 23//23 63//63 17//17
f 42//42 4//4 49//49
f 90//90 67//67 63//63
f 43//43 42//42 50//50
f 61//61 5//5 60//60
f 90//90 63//63 51//51
f 4//4 59//59 90//90
f 45//45 91//91 8//8
# 150 faces, 0 coords texture

# End of File
