####
#
# OBJ File Generated by Meshlab
#
####
# Object 2500_C143_S_1.obj
#
# Vertices: 93
# Faces: 155
#
####
vn 5.243163 -3.462081 -0.037436
v -77.222492 70.165676 -38.415406
vn 5.273462 -3.415247 -0.063340
v -78.607577 67.988208 -33.607141
vn 5.269432 -3.421704 -0.056859
v -78.906272 67.555554 -35.500133
vn 5.274500 -3.413528 -0.070359
v -78.120035 68.702639 -31.712286
vn 5.259619 -3.436856 -0.053225
v -77.464529 69.733524 -33.374407
vn 5.253419 -3.446536 -0.033481
v -76.699994 70.923535 -34.851545
vn 5.289661 -3.389935 -0.077305
v -79.725494 66.258906 -34.106597
vn 5.264252 -3.429792 -0.048768
v -77.069613 70.306089 -31.496621
vn 5.278011 -3.408287 -0.066169
v -79.501796 66.642132 -35.824326
vn 5.266282 -3.426632 -0.051549
v -79.121142 67.254368 -37.284213
vn 5.253290 -3.446855 -0.022800
v -75.653584 72.510206 -34.266594
vn 5.246929 -3.456423 -0.034595
v -76.931650 70.582981 -36.637630
vn 5.261951 -3.433417 -0.043064
v -76.333426 71.458228 -32.842395
vn 5.256414 -3.441939 -0.039452
v -78.333943 68.475076 -38.613261
vn 5.254479 -3.444784 -0.045607
v -78.042623 68.901254 -36.956509
vn 5.249111 -3.453212 -0.022697
v -75.872792 72.187038 -36.196298
vn 5.257336 -3.440460 -0.044802
v -77.791845 69.258985 -35.208839
vn 2.574909 -1.649142 -0.041902
v -79.320700 66.816550 -31.167650
vn 2.275864 -1.488480 -0.015231
v -78.451600 68.300700 -39.152600
vn 2.639206 -1.726698 -0.021086
v -78.789900 67.779900 -38.755700
vn 2.539244 -1.638783 -0.031840
v -79.894100 66.050100 -36.636000
vn 2.387253 -1.529546 -0.031911
v -80.071500 65.754100 -35.822200
vn 2.548242 -1.673385 -0.008474
v -75.296400 73.056900 -34.783600
vn 2.311720 -1.516404 -0.007498
v -75.297700 73.052200 -34.157000
vn 2.451362 -1.592710 -0.021240
v -76.146800 71.725500 -31.334000
vn 2.560950 -1.679218 -0.021085
v -78.076600 68.875600 -39.253900
vn 2.391682 -1.571334 -0.009380
v -75.354100 72.975000 -35.950400
vn 2.254803 -1.488340 -0.012929
v -75.974600 72.047200 -38.117000
vn 2.452177 -1.611649 -0.012544
v -75.582950 72.634675 -37.021975
vn 2.574801 -1.682085 -0.012395
v -75.485300 72.761400 -33.301300
vn 2.586624 -1.651406 -0.038293
v -80.124600 65.644700 -34.550700
vn 2.285419 -1.457548 -0.037377
v -80.124850 65.622100 -33.686400
vn 2.353599 -1.529977 -0.018305
v -76.874600 70.593600 -30.411700
vn 2.420855 -1.573437 -0.025578
v -77.534800 69.574500 -30.118600
vn 2.269399 -1.452636 -0.036358
v -78.538900 68.012700 -30.275100
vn 2.481243 -1.607007 -0.026476
v -79.688100 66.379500 -37.314300
vn 2.305104 -1.529422 -0.011042
v -76.854100 70.726100 -39.123100
vn 2.400609 -1.582626 -0.018472
v -77.432500 69.857800 -39.333200
vn 2.232427 -1.426035 -0.036447
v -79.562000 66.446900 -31.491800
vn 2.541821 -1.650741 -0.021681
v -76.330100 71.439300 -31.058100
vn 2.372856 -1.546577 -0.021856
v -79.294100 67.001700 -38.179100
vn 5.260436 -3.435698 -0.046949
v -78.201877 68.620642 -34.430573
vn 5.272955 -3.416330 -0.051033
v -78.771969 67.748691 -34.560378
vn 5.261673 -3.433777 -0.048737
v -78.344586 68.413829 -35.334877
vn 5.266679 -3.425968 -0.055963
v -79.003210 67.421634 -36.419721
vn 5.258826 -3.438136 -0.048845
v -77.641812 69.475724 -34.307440
vn 5.259586 -3.436895 -0.053923
v -78.024548 68.878650 -33.501017
vn 5.257361 -3.440507 -0.036692
v -77.245194 70.092777 -35.057136
vn 5.259130 -3.437691 -0.047399
v -77.094092 70.310942 -34.136842
vn 2.447074 -1.595328 -0.016996
v -75.763850 72.325125 -32.230700
vn 5.267799 -3.424420 -0.045197
v -76.286839 71.520287 -32.110436
vn 5.258939 -3.437878 -0.054365
v -77.579182 69.529021 -31.648173
vn 5.259822 -3.436477 -0.057580
v -77.809204 69.192411 -32.556318
vn 5.260277 -3.435762 -0.058675
v -77.267300 70.019263 -32.424567
vn 5.275065 -3.412674 -0.070556
v -78.388570 68.306227 -32.629491
vn 5.261326 -3.434245 -0.053177
v -78.465849 68.241516 -36.223740
vn 5.254111 -3.445309 -0.048696
v -77.918832 69.077681 -36.083443
vn 5.249711 -3.452336 -0.018054
v -75.742248 72.380587 -35.222264
vn 5.287265 -3.393551 -0.083941
v -78.994357 67.364489 -32.753092
vn 5.285378 -3.396747 -0.071204
v -79.194467 67.079049 -33.782026
vn 5.249210 -3.452885 -0.041758
v -77.622984 69.548039 -37.685560
vn 5.255752 -3.442956 -0.038555
v -78.180780 68.700142 -37.832479
vn 5.248202 -3.454572 -0.026813
v -76.032939 71.950282 -37.025196
vn 5.242802 -3.462566 -0.045025
v -77.059193 70.401488 -37.524630
vn 5.242938 -3.462465 -0.035196
v -76.491429 71.256764 -37.332230
vn 5.257374 -3.440533 -0.033061
v -75.991807 71.986688 -33.490735
vn 5.286064 -3.395654 -0.070835
v -79.777889 66.197655 -35.012863
vn 5.262241 -3.432933 -0.046274
v -77.368497 69.840073 -30.891422
vn 5.272048 -3.417485 -0.062806
v -77.818572 69.151826 -30.896770
vn 5.289872 -3.389504 -0.083136
v -78.337116 68.343491 -30.896460
vn 2.661924 -1.706814 -0.043941
v -78.855700 67.528150 -30.646700
vn 2.552968 -1.641107 -0.035385
v -77.913175 68.988900 -30.130725
vn 5.273195 -3.415922 -0.057525
v -79.444139 66.745828 -36.692328
vn 5.279561 -3.405911 -0.065367
v -79.333220 66.879720 -34.770813
vn 5.265648 -3.427592 -0.053681
v -76.740657 70.823336 -32.261514
vn 5.269552 -3.421729 -0.044688
v -76.581126 71.057819 -31.442570
vn 5.261017 -3.434720 -0.052641
v -76.915178 70.571755 -33.175122
vn 5.258854 -3.438172 -0.042829
v -78.722100 67.873744 -37.995805
vn 5.252243 -3.448282 -0.041095
v -77.793849 69.296946 -38.547133
vn 5.250339 -3.451291 -0.028833
v -76.152891 71.753162 -34.562002
vn 5.247301 -3.455990 -0.019424
v -76.272666 71.576312 -35.519989
vn 5.260382 -3.435770 -0.047362
v -78.586516 68.070768 -37.117057
vn 5.246414 -3.457085 -0.046104
v -77.487728 69.741351 -36.807143
vn 5.246643 -3.456962 -0.023677
v -76.389601 71.404203 -36.419076
vn 5.251325 -3.449836 -0.023155
v -76.821109 70.745504 -35.756440
vn 5.256584 -3.441635 -0.042990
v -76.541842 71.152522 -33.871803
vn 5.251354 -3.449679 -0.035172
v -77.367158 69.912979 -35.937773
vn 5.238322 -3.469469 -0.032536
v -76.657278 71.017373 -38.223003
vn 2.631772 -1.744190 -0.010464
v -76.478300 71.290200 -38.684850
vn 5.291914 -3.386202 -0.086894
v -79.573962 66.470789 -33.091020
vn 2.617216 -1.670233 -0.044428
v -79.854750 66.017000 -32.581750
vn 5.290751 -3.388054 -0.086207
v -79.352307 66.789869 -32.066941
vn 5.288621 -3.391421 -0.084611
v -78.757052 67.708220 -31.666586
# 93 vertices, 0 vertices normals

f 42//42 43//43 44//44
f 45//45 9//9 73//73
f 14//14 20//20 19//19
f 9//9 22//22 21//21
f 11//11 23//23 24//24
f 42//42 46//46 47//47
f 48//48 49//49 46//46
f 52//52 53//53 54//54
f 55//55 47//47 53//53
f 14//14 19//19 26//26
f 44//44 56//56 57//57
f 11//11 58//58 23//23
f 59//59 90//90 60//60
f 61//61 62//62 79//79
f 63//63 28//28 29//29
f 64//64 88//88 65//65
f 55//55 93//93 59//59
f 7//7 32//32 31//31
f 9//9 67//67 22//22
f 8//8 33//33 68//68
f 52//52 68//68 69//69
f 93//93 70//70 71//71
f 69//69 72//72 70//70
f 10//10 73//73 36//36
f 1//1 38//38 37//37
f 43//43 60//60 74//74
f 92//92 18//18 39//39
f 9//9 74//74 67//67
f 11//11 24//24 30//30
f 75//75 51//51 76//76
f 8//8 76//76 33//33
f 77//77 75//75 54//54
f 14//14 78//78 20//20
f 1//1 79//79 38//38
f 58//58 80//80 81//81
f 45//45 82//82 56//56
f 62//62 82//82 78//78
f 61//61 64//64 83//83
f 84//84 65//65 63//63
f 16//16 29//29 27//27
f 81//81 85//85 84//84
f 86//86 77//77 49//49
f 86//86 80//80 66//66
f 10//10 36//36 41//41
f 87//87 85//85 48//48
f 57//57 83//83 87//87
f 88//88 37//37 89//89
f 90//90 92//92 91//91
f 17//17 42//42 44//44
f 42//42 2//2 43//43
f 44//44 43//43 3//3
f 10//10 45//45 73//73
f 45//45 3//3 9//9
f 2//2 42//42 47//47
f 42//42 17//17 46//46
f 47//47 46//46 5//5
f 17//17 48//48 46//46
f 48//48 6//6 49//49
f 46//46 49//49 5//5
f 51//51 50//50 25//25
f 8//8 52//52 54//54
f 52//52 4//4 53//53
f 54//54 53//53 5//5
f 4//4 55//55 53//53
f 55//55 2//2 47//47
f 53//53 47//47 5//5
f 17//17 44//44 57//57
f 44//44 3//3 56//56
f 57//57 56//56 15//15
f 27//27 58//58 16//16
f 58//58 27//27 23//23
f 2//2 59//59 60//60
f 60//60 90//90 7//7
f 1//1 61//61 79//79
f 61//61 15//15 62//62
f 79//79 62//62 14//14
f 16//16 63//63 29//29
f 12//12 64//64 65//65
f 64//64 1//1 88//88
f 65//65 88//88 28//28
f 30//30 66//66 11//11
f 50//50 66//66 30//30
f 2//2 55//55 59//59
f 59//59 93//93 92//92
f 31//31 67//67 7//7
f 67//67 31//31 22//22
f 68//68 33//33 34//34
f 4//4 52//52 69//69
f 52//52 8//8 68//68
f 69//69 68//68 34//34
f 72//72 69//69 34//34
f 71//71 70//70 35//35
f 92//92 93//93 18//18
f 71//71 18//18 93//93
f 4//4 69//69 70//70
f 70//70 72//72 35//35
f 21//21 73//73 9//9
f 73//73 21//21 36//36
f 3//3 43//43 74//74
f 43//43 2//2 60//60
f 74//74 60//60 7//7
f 9//9 3//3 74//74
f 67//67 74//74 7//7
f 8//8 75//75 76//76
f 75//75 13//13 51//51
f 76//76 51//51 25//25
f 40//40 76//76 25//25
f 76//76 40//40 33//33
f 5//5 77//77 54//54
f 77//77 13//13 75//75
f 54//54 75//75 8//8
f 41//41 78//78 10//10
f 78//78 41//41 20//20
f 26//26 79//79 14//14
f 79//79 26//26 38//38
f 16//16 58//58 81//81
f 58//58 11//11 80//80
f 81//81 80//80 6//6
f 3//3 45//45 56//56
f 45//45 10//10 82//82
f 56//56 82//82 15//15
f 14//14 62//62 78//78
f 62//62 15//15 82//82
f 78//78 82//82 10//10
f 15//15 61//61 83//83
f 61//61 1//1 64//64
f 83//83 64//64 12//12
f 16//16 84//84 63//63
f 84//84 12//12 65//65
f 63//63 65//65 28//28
f 16//16 81//81 84//84
f 81//81 6//6 85//85
f 84//84 85//85 12//12
f 6//6 86//86 49//49
f 86//86 13//13 77//77
f 49//49 77//77 5//5
f 13//13 86//86 66//66
f 86//86 6//6 80//80
f 66//66 80//80 11//11
f 17//17 87//87 48//48
f 87//87 12//12 85//85
f 48//48 85//85 6//6
f 17//17 57//57 87//87
f 57//57 15//15 83//83
f 87//87 83//83 12//12
f 37//37 88//88 1//1
f 89//89 28//28 88//88
f 39//39 91//91 92//92
f 7//7 90//90 32//32
f 91//91 32//32 90//90
f 92//92 90//90 59//59
f 55//55 4//4 93//93
f 93//93 4//4 70//70
f 13//13 66//66 50//50
f 51//51 13//13 50//50
# 155 faces, 0 coords texture

# End of File
