####
#
# OBJ File Generated by Meshlab
#
####
# Object 250_C67_M_7.obj
#
# Vertices: 129
# Faces: 216
#
####
vn 1.418439 -2.802350 0.007774
v -16.634000 60.919800 50.000000
vn 1.446472 -2.788734 -0.034285
v -20.801300 58.746900 47.778600
vn 2.872690 -5.587723 0.037085
v -17.602296 60.402855 48.566215
vn 2.851602 -5.597437 -0.006079
v -18.806332 59.800446 47.104618
vn 1.407409 -2.811365 0.005219
v -13.672900 62.400100 40.343700
vn 2.839335 -5.602877 -0.104226
v -15.546076 61.439148 41.506521
vn 1.399323 -2.813552 0.006181
v -13.655300 62.369600 49.060700
vn 1.397415 -2.811852 -0.042644
v -14.397400 61.978600 50.000000
vn 2.769771 -5.637885 0.046492
v -15.587894 61.434937 48.215144
vn 2.793831 -5.627311 0.049376
v -15.183005 61.590629 46.191225
vn 1.414852 -2.804607 0.043412
v -15.779800 61.299400 38.000000
vn 1.380385 -2.820213 0.088967
v -14.260200 62.026500 38.000000
vn 2.812697 -5.617609 0.093797
v -16.902612 60.736626 46.674226
vn 2.870143 -5.589039 0.025849
v -17.074353 60.637676 39.425438
vn 1.428682 -2.798606 -0.032503
v -20.795700 58.737300 39.446800
vn 1.378086 -2.824428 0.005265
v -13.644700 62.351300 45.407300
vn 0.738565 -1.386471 0.006365
v -13.657200 62.372900 50.000000
vn 2.887550 -5.580149 -0.044612
v -20.201087 59.077134 45.939164
vn 1.348093 -2.835052 0.042260
v -13.641100 62.345000 47.673500
vn 1.339852 -2.832671 0.117912
v -17.470800 60.410400 38.000000
vn 1.360280 -2.829916 -0.007790
v -18.052300 60.163800 38.000000
vn 0.729831 -1.390173 -0.021619
v -20.804800 58.752900 38.000000
vn 1.444966 -2.788869 -0.046342
v -20.189800 59.076700 38.000000
vn 1.503959 -2.757187 0.056658
v -20.754200 58.754400 50.000000
vn 0.765437 -1.372143 0.017375
v -20.793100 58.732700 50.000000
vn 1.489892 -2.765264 0.035207
v -20.792900 58.732300 49.959600
vn 1.457689 -2.781617 0.056212
v -18.639800 59.887700 50.000000
vn 0.694931 -1.405523 0.049523
v -13.635400 62.335200 38.000000
vn 1.401397 -2.812164 0.027984
v -20.799700 58.744200 42.026500
vn 1.430796 -2.795748 -0.004856
v -20.814300 58.769300 45.270700
vn 2.847847 -5.600624 0.000429
v -17.064397 60.634087 43.683874
vn 2.899710 -5.573949 -0.003468
v -17.174333 60.592487 40.277719
vn 1.355276 -2.828987 -0.022363
v -13.627200 62.321000 42.990500
vn 2.783351 -5.632620 0.057562
v -18.066937 60.135771 45.215114
vn 2.805655 -5.621640 0.060554
v -19.087070 59.614604 43.173326
vn 2.800057 -5.623860 -0.070753
v -15.637862 61.369050 42.451636
vn 2.853712 -5.596604 -0.025414
v -19.068346 59.597778 40.900428
vn 2.836501 -5.605125 0.082753
v -15.101450 61.669146 39.833680
vn 2.804990 -5.621076 0.002195
v -15.280014 61.551992 44.291696
vn 2.887668 -5.579993 0.053416
v -17.083058 60.678600 49.256073
vn 2.875984 -5.585833 0.074846
v -16.602242 60.914819 48.394756
vn 2.779243 -5.633501 -0.002552
v -16.058594 61.204991 49.156578
vn 2.828428 -5.609981 0.055632
v -17.225703 60.583638 47.650550
vn 2.851832 -5.597575 0.104627
v -16.244549 61.086203 47.437198
vn 2.895944 -5.575353 -0.068177
v -20.032979 59.134174 48.431859
vn 2.914548 -5.565683 -0.074424
v -19.757586 59.298368 47.405553
vn 2.909950 -5.567963 -0.087593
v -19.127850 59.612949 48.101112
vn 2.846969 -5.600160 -0.033784
v -18.198782 60.104801 47.854303
vn 2.918407 -5.563083 0.021196
v -18.501521 59.929932 48.817452
vn 2.717066 -5.664834 -0.064100
v -15.044024 61.686979 49.064178
vn 2.792590 -5.625383 0.186201
v -14.155294 62.114313 39.026347
vn 2.832043 -5.607368 0.075808
v -14.499777 61.977232 40.144868
vn 2.762745 -5.640693 0.162741
v -14.769416 61.808212 39.013572
vn 2.874777 -5.586074 -0.005721
v -18.018000 60.135078 41.737301
vn 2.899157 -5.573856 -0.068082
v -18.125689 60.097049 40.580654
vn 2.923976 -5.560998 -0.062040
v -17.311715 60.511806 41.313669
vn 2.775517 -5.636873 -0.022415
v -14.417286 61.968499 45.826977
vn 1.388881 -2.817894 -0.009271
v -13.642900 62.348150 46.540400
vn 2.723564 -5.661295 0.050353
v -14.443101 61.952812 46.899449
vn 1.441541 -2.791171 -0.030382
v -20.807800 58.758100 46.524650
vn 2.907549 -5.569710 -0.048971
v -20.228619 59.054914 46.780243
vn 2.854667 -5.596511 0.012451
v -19.435586 59.475541 46.260938
vn 2.695052 -5.675060 0.074481
v -14.554377 61.924278 48.031744
vn 2.751189 -5.646840 0.120636
v -15.316022 61.548534 47.194047
vn 1.346216 -2.837996 0.054978
v -13.648200 62.357300 48.367100
vn 2.792234 -5.627546 0.054848
v -17.464929 60.439835 38.640417
vn 1.455093 -2.784021 -0.039171
v -20.800250 58.745100 38.723400
vn 2.892707 -5.576821 -0.095903
v -20.345338 58.982857 38.723905
vn 2.860499 -5.593464 -0.092960
v -19.491601 59.421286 38.773748
vn 2.873704 -5.586503 -0.105938
v -19.887110 59.205885 39.395595
vn 1.481140 -2.769937 0.057190
v -19.697000 59.321050 50.000000
vn 2.933506 -5.555526 0.043012
v -19.358159 59.483395 49.131632
vn 2.913376 -5.566048 0.019696
v -20.229953 59.024660 49.401838
vn 1.424362 -2.799891 -0.037507
v -19.121050 59.620250 38.000000
vn 2.832426 -5.607926 -0.077931
v -18.490003 59.930843 38.787819
vn 1.429799 -2.797261 -0.024687
v -20.797100 58.739600 48.869100
vn 1.398765 -2.811399 0.095269
v -13.654150 62.367650 39.171850
vn 2.848636 -5.600183 -0.026759
v -17.897255 60.221619 39.594727
vn 2.784080 -5.632235 0.064475
v -17.850032 60.271320 46.901367
vn 1.437120 -2.793537 0.008790
v -17.615900 60.403025 50.000000
vn 2.889426 -5.578756 0.066210
v -17.939850 60.236672 49.331564
vn 1.344304 -2.839111 -0.043547
v -15.515700 61.449200 50.000000
vn 2.910995 -5.567663 -0.071166
v -16.415128 60.976963 41.911385
vn 2.885180 -5.581537 -0.011699
v -16.422663 60.965708 42.969679
vn 2.881459 -5.583246 -0.038327
v -15.945912 61.199835 44.848313
vn 2.838610 -5.604903 -0.019397
v -16.775627 60.774033 44.583741
vn 2.880439 -5.583845 -0.033260
v -16.160598 61.099397 43.951570
vn 2.837416 -5.605450 -0.032003
v -15.176254 61.598351 45.238294
vn 2.858646 -5.594392 0.026426
v -15.779561 61.280784 45.648490
vn 2.776341 -5.635499 0.023881
v -15.471070 61.453539 43.366870
vn 2.804133 -5.620409 -0.123385
v -14.634805 61.904592 40.993644
vn 2.874946 -5.586667 0.001872
v -15.457934 61.488681 40.539840
vn 2.823885 -5.611456 0.124424
v -16.001043 61.185013 46.449918
vn 1.350026 -2.836367 0.045336
v -13.635950 62.336150 44.198900
vn 2.738066 -5.654648 0.033631
v -14.443029 61.961176 44.772676
vn 2.697218 -5.674275 0.076661
v -14.516337 61.909454 43.719768
vn 2.766386 -5.641057 0.062871
v -18.953477 59.702046 45.249620
vn 2.783281 -5.632427 0.086073
v -18.433390 59.969247 46.131116
vn 1.446400 -2.788213 0.056630
v -16.625300 60.854900 38.000000
vn 2.891071 -5.578170 0.058442
v -16.474400 60.944513 38.751443
vn 1.379781 -2.820305 -0.108109
v -13.650050 62.360550 41.667100
vn 2.749784 -5.645913 -0.200920
v -14.278653 62.040231 42.000677
vn 2.704681 -5.669667 -0.051114
v -14.742974 61.790907 42.785636
vn 2.824580 -5.612157 0.061732
v -18.293115 60.005820 42.491603
vn 2.815763 -5.616550 0.065218
v -19.122213 59.583522 41.979606
vn 2.782471 -5.633022 0.068105
v -19.461166 59.443500 44.284594
vn 2.791856 -5.628557 0.041523
v -18.551521 59.888347 44.280812
vn 2.824364 -5.610930 0.088898
v -15.595862 61.404706 38.857300
vn 1.359191 -2.831586 0.065687
v -15.020000 61.662950 38.000000
vn 2.785120 -5.631375 0.095572
v -17.521841 60.417679 45.960173
vn 2.787857 -5.630445 0.040126
v -17.308954 60.509725 45.162084
vn 2.817502 -5.615312 0.063266
v -16.596743 60.868268 45.604673
vn 2.832269 -5.608207 0.058691
v -20.292024 59.030068 44.365778
vn 1.427936 -2.798140 0.020788
v -20.811900 58.765250 44.430850
vn 2.823586 -5.612877 0.034903
v -18.018429 60.153148 43.444308
vn 2.871913 -5.587644 -0.092241
v -18.968103 59.671365 39.758443
vn 2.828429 -5.609856 -0.041433
v -19.914517 59.175781 40.251932
vn 2.804897 -5.621832 0.077229
v -20.013998 59.156448 43.454723
vn 1.407019 -2.808392 0.036754
v -20.807050 58.756950 43.199875
vn 2.809088 -5.619815 0.071272
v -19.974863 59.162683 42.492281
vn 2.905074 -5.571081 0.042421
v -16.222183 61.086508 39.784388
vn 2.917390 -5.564360 -0.028586
v -16.377343 61.011793 40.916698
vn 2.799380 -5.624887 0.041695
v -19.957157 59.158608 41.388592
vn 1.392462 -2.816125 0.009691
v -20.797700 58.740750 40.736650
vn 2.804017 -5.622736 0.006496
v -17.632118 60.351238 44.401803
vn 2.754191 -5.645977 -0.028469
v -14.294016 62.058413 48.918943
vn 2.822012 -5.613191 0.030359
v -19.822060 59.276332 45.222339
vn 2.748493 -5.646907 -0.189025
v -14.967590 61.712863 41.748108
vn 2.885797 -5.580803 0.000610
v -17.235052 60.540573 42.492031
# 129 vertices, 0 vertices normals

f 40//40 41//41 42//42
f 43//43 44//44 41//41
f 45//45 46//46 47//47
f 48//48 49//49 47//47
f 9//9 63//63 50//50
f 51//51 52//52 38//38
f 54//54 55//55 56//56
f 57//57 58//58 59//59
f 17//17 8//8 7//7
f 2//2 60//60 61//61
f 62//62 46//46 61//61
f 59//59 63//63 64//64
f 65//65 126//126 63//63
f 21//21 20//20 66//66
f 15//15 67//67 68//68
f 69//69 70//70 68//68
f 24//24 25//25 26//26
f 71//71 73//73 72//72
f 74//74 75//75 69//69
f 73//73 76//76 45//45
f 5//5 52//52 77//77
f 75//75 66//66 78//78
f 48//48 79//79 43//43
f 82//82 42//42 50//50
f 85//85 86//86 87//87
f 85//85 88//88 89//89
f 84//84 90//90 87//87
f 93//93 64//64 44//44
f 94//94 95//95 96//96
f 62//62 97//97 98//98
f 99//99 11//11 100//100
f 104//104 105//105 54//54
f 81//81 40//40 80//80
f 106//106 107//107 97//97
f 27//27 49//49 81//81
f 108//108 109//109 53//53
f 110//110 111//111 112//112
f 89//89 93//93 112//112
f 119//119 113//113 114//114
f 129//129 115//115 104//104
f 98//98 110//110 79//79
f 70//70 116//116 117//117
f 113//113 118//118 106//106
f 119//119 120//120 118//118
f 108//108 121//121 100//100
f 92//92 122//122 121//121
f 123//123 105//105 120//120
f 123//123 124//124 117//117
f 115//115 125//125 107//107
f 111//111 125//125 86//86
f 95//95 57//57 88//88
f 116//116 78//78 55//55
f 83//83 56//56 122//122
f 1//1 40//40 42//42
f 40//40 3//3 41//41
f 42//42 41//41 9//9
f 3//3 43//43 41//41
f 43//43 13//13 44//44
f 41//41 44//44 9//9
f 72//72 45//45 47//47
f 45//45 2//2 46//46
f 47//47 46//46 4//4
f 4//4 48//48 47//47
f 48//48 3//3 49//49
f 47//47 49//49 72//72
f 7//7 8//8 126//126
f 12//12 51//51 53//53
f 54//54 37//37 55//55
f 56//56 55//55 32//32
f 10//10 57//57 59//59
f 57//57 16//16 58//58
f 59//59 58//58 19//19
f 60//60 30//30 18//18
f 18//18 62//62 61//61
f 62//62 4//4 46//46
f 10//10 59//59 64//64
f 59//59 19//19 63//63
f 64//64 63//63 9//9
f 19//19 65//65 63//63
f 65//65 7//7 126//126
f 63//63 126//126 50//50
f 66//66 20//20 99//99
f 67//67 22//22 68//68
f 23//23 68//68 22//22
f 23//23 69//69 68//68
f 69//69 116//116 70//70
f 68//68 70//70 15//15
f 27//27 71//71 72//72
f 71//71 24//24 73//73
f 73//73 24//24 26//26
f 23//23 74//74 69//69
f 74//74 21//21 75//75
f 69//69 75//75 116//116
f 72//72 73//73 45//45
f 73//73 26//26 76//76
f 45//45 76//76 2//2
f 12//12 28//28 51//51
f 77//77 51//51 28//28
f 116//116 75//75 78//78
f 75//75 21//21 66//66
f 78//78 66//66 14//14
f 3//3 48//48 43//43
f 48//48 4//4 79//79
f 43//43 79//79 13//13
f 80//80 27//27 81//81
f 40//40 81//81 3//3
f 8//8 82//82 50//50
f 82//82 1//1 42//42
f 50//50 42//42 9//9
f 31//31 129//129 84//84
f 84//84 83//83 36//36
f 39//39 85//85 87//87
f 85//85 112//112 86//86
f 87//87 86//86 31//31
f 112//112 85//85 89//89
f 85//85 39//39 88//88
f 89//89 88//88 10//10
f 31//31 84//84 87//87
f 84//84 36//36 90//90
f 87//87 90//90 39//39
f 52//52 5//5 91//91
f 13//13 93//93 44//44
f 93//93 10//10 64//64
f 44//44 64//64 9//9
f 33//33 94//94 96//96
f 94//94 16//16 95//95
f 96//96 95//95 39//39
f 4//4 62//62 98//98
f 62//62 18//18 127//127
f 98//98 97//97 34//34
f 66//66 100//100 14//14
f 100//100 66//66 99//99
f 5//5 101//101 91//91
f 101//101 33//33 102//102
f 104//104 35//35 105//105
f 54//54 105//105 37//37
f 1//1 80//80 40//40
f 106//106 35//35 107//107
f 97//97 107//107 34//34
f 27//27 72//72 49//49
f 81//81 49//49 3//3
f 38//38 108//108 53//53
f 108//108 11//11 109//109
f 53//53 109//109 12//12
f 13//13 110//110 112//112
f 110//110 34//34 111//111
f 89//89 10//10 93//93
f 112//112 93//93 13//13
f 113//113 30//30 114//114
f 30//30 113//113 127//127
f 54//54 129//129 104//104
f 129//129 31//31 115//115
f 104//104 115//115 35//35
f 4//4 98//98 79//79
f 98//98 34//34 110//110
f 79//79 110//110 13//13
f 103//103 33//33 96//96
f 90//90 96//96 39//39
f 15//15 70//70 117//117
f 117//117 116//116 37//37
f 18//18 30//30 127//127
f 113//113 119//119 118//118
f 106//106 118//118 35//35
f 119//119 29//29 120//120
f 118//118 120//120 35//35
f 11//11 108//108 100//100
f 108//108 38//38 121//121
f 100//100 121//121 14//14
f 14//14 121//121 32//32
f 38//38 92//92 121//121
f 92//92 6//6 122//122
f 121//121 122//122 32//32
f 29//29 123//123 120//120
f 123//123 37//37 105//105
f 120//120 105//105 35//35
f 37//37 123//123 117//117
f 123//123 29//29 124//124
f 117//117 124//124 15//15
f 35//35 115//115 107//107
f 115//115 31//31 125//125
f 107//107 125//125 34//34
f 112//112 111//111 86//86
f 111//111 34//34 125//125
f 86//86 125//125 31//31
f 39//39 95//95 88//88
f 95//95 16//16 57//57
f 88//88 57//57 10//10
f 37//37 116//116 55//55
f 55//55 78//78 32//32
f 6//6 36//36 83//83
f 83//83 129//129 56//56
f 122//122 56//56 32//32
f 50//50 126//126 8//8
f 60//60 18//18 61//61
f 61//61 46//46 2//2
f 32//32 78//78 14//14
f 103//103 96//96 90//90
f 62//62 127//127 97//97
f 102//102 33//33 103//103
f 103//103 128//128 102//102
f 128//128 91//91 102//102
f 97//97 127//127 106//106
f 36//36 128//128 103//103
f 103//103 90//90 36//36
f 127//127 113//113 106//106
f 6//6 128//128 36//36
f 6//6 83//83 122//122
f 129//129 83//83 84//84
f 129//129 54//54 56//56
f 52//52 51//51 77//77
f 53//53 51//51 38//38
f 91//91 101//101 102//102
f 92//92 91//91 6//6
f 128//128 6//6 91//91
f 38//38 52//52 92//92
f 91//91 92//92 52//52
# 216 faces, 0 coords texture

# End of File
