####
#
# OBJ File Generated by Meshlab
#
####
# Object 2538_C146_S_6.obj
#
# Vertices: 84
# Faces: 138
#
####
vn -5.331740 -3.323891 -0.041648
v 76.791055 75.950492 -6.427326
vn -5.300426 -3.373904 -0.004502
v 75.243945 78.430212 -10.852182
vn -5.320973 -3.341346 -0.024246
v 76.772549 76.017444 -9.930362
vn -5.308878 -3.360442 -0.039141
v 78.199714 73.716911 -6.813576
vn -5.291382 -3.388069 -0.012926
v 75.260429 78.409128 -8.320676
vn -5.312840 -3.353779 -0.038261
v 75.749863 77.636128 -6.679157
vn -5.313466 -3.353103 -0.038736
v 78.620883 73.084627 -8.884011
vn -5.320774 -3.341292 -0.041856
v 77.416371 74.970599 -8.367359
vn -5.307648 -3.361959 -0.027586
v 76.623369 76.305406 -13.194980
vn -5.325923 -3.332946 -0.018433
v 76.370555 76.665546 -8.254606
vn -5.317933 -3.346179 -0.029816
v 78.163613 73.837031 -12.075653
vn -5.311060 -3.357010 -0.035617
v 77.854390 74.310686 -10.264622
vn -5.284978 -3.398036 -0.026717
v 75.681569 77.760671 -12.673415
vn -5.307897 -3.362185 -0.002567
v 76.206773 76.915636 -9.752608
vn -5.317831 -3.346148 -0.041322
v 77.241497 75.289881 -11.730134
vn -5.318351 -3.345545 -0.027452
v 78.817844 72.781712 -10.852422
vn -2.296503 -1.438723 -0.011654
v 78.624300 73.105300 -12.516400
vn -2.317778 -1.455456 -0.016193
v 77.708012 74.575131 -13.644126
vn -2.632910 -1.686551 -0.013540
v 75.202300 78.507500 -12.514200
vn -2.282665 -1.465769 -0.010533
v 75.509200 78.032700 -13.173800
vn -2.317802 -1.493035 -0.014714
v 74.674000 79.316000 -8.260000
vn -2.501821 -1.610546 -0.008431
v 74.943000 78.897400 -7.399900
vn -2.415832 -1.525222 -0.018046
v 78.157900 73.772300 -5.968630
vn -2.586478 -1.625933 -0.014506
v 77.628800 74.612600 -5.664210
vn -2.311183 -1.469685 -0.013609
v 78.444800 73.326900 -6.317190
vn -2.278506 -1.452075 -0.003547
v 74.801600 79.125700 -11.628500
vn -2.725421 -1.710512 -0.014549
v 78.873300 72.701100 -11.749600
vn -2.338707 -1.475272 0.001998
v 76.678000 76.217300 -13.957700
vn -2.428515 -1.509520 -0.018891
v 76.390500 76.583000 -5.471970
vn -2.613576 -1.623793 -0.026559
v 75.937700 77.319700 -5.798300
vn -2.446416 -1.551647 -0.006257
v 74.591200 79.468000 -9.484880
vn -2.321749 -1.474481 -0.018627
v 75.536700 77.965000 -6.142550
vn -2.590065 -1.663140 -0.010615
v 75.240700 78.429400 -6.728770
vn -2.650389 -1.666571 -0.011952
v 79.175300 72.210100 -10.423500
vn -2.223958 -1.405273 -0.014404
v 79.137700 72.277700 -11.065700
vn -2.595359 -1.674065 -0.012540
v 75.796200 77.588500 -13.418500
vn -2.510063 -1.611661 -0.006060
v 76.332300 76.761200 -13.812500
vn -2.660025 -1.680073 -0.024592
v 78.734100 72.875400 -7.124680
vn -2.347111 -1.477425 -0.021465
v 79.093700 72.322200 -8.108140
vn -2.379902 -1.493807 -0.010885
v 79.239600 72.102000 -9.274000
vn -5.313584 -3.353052 -0.034343
v 77.859803 74.324121 -12.653145
vn -2.647803 -1.662808 -0.013543
v 78.182300 73.814600 -13.069750
vn -5.310010 -3.358681 -0.034352
v 77.754715 74.426376 -7.414835
vn -5.317802 -3.346452 -0.025466
v 77.346198 75.068282 -6.429638
vn -5.332848 -3.322086 -0.040822
v 77.131036 75.416814 -7.398312
vn -5.319937 -3.342630 -0.037018
v 76.050623 77.165829 -7.443335
vn -5.344746 -3.302751 -0.061975
v 76.588103 76.297685 -7.380086
vn -5.317953 -3.346162 -0.030834
v 77.806806 74.336384 -6.409911
vn -5.303045 -3.369051 -0.058119
v 76.487670 76.507285 -12.398990
vn -5.292481 -3.386169 -0.039603
v 76.123793 77.066928 -11.888277
vn -5.347969 -3.297858 -0.035163
v 76.880833 75.838334 -8.275135
vn -5.323703 -3.337000 -0.031862
v 78.503433 73.289359 -11.469687
vn -5.308459 -3.361245 -0.026569
v 77.538150 74.815412 -10.969761
vn -5.308346 -3.361359 -0.033308
v 77.718159 74.538415 -11.846664
vn -5.314982 -3.350847 -0.031292
v 78.028606 74.042935 -11.159849
vn -2.652299 -1.664252 -0.003309
v 77.160250 75.448950 -13.816100
vn -5.326752 -3.332031 -0.031489
v 77.101933 75.540913 -13.325013
vn -2.414912 -1.516806 -0.011322
v 76.944975 75.697850 -5.389477
vn -5.328249 -3.329351 -0.059809
v 76.944592 75.778915 -12.499972
vn -5.319570 -3.343318 -0.051395
v 76.730944 76.104303 -11.647107
vn -5.319936 -3.342737 -0.048429
v 77.438900 74.989006 -12.631294
vn -5.310760 -3.357422 -0.042110
v 77.333237 75.131953 -10.068007
vn -5.316405 -3.348585 -0.032876
v 77.016108 75.639769 -10.832877
vn -5.306467 -3.364038 -0.054463
v 77.650810 74.616871 -9.332763
vn -5.329021 -3.328270 -0.034209
v 77.113606 75.464624 -9.160138
vn -5.341450 -3.308167 -0.057657
v 76.246290 76.832048 -6.503184
vn -5.309562 -3.359588 0.011164
v 75.147750 78.585519 -9.905189
vn -5.300288 -3.374037 -0.016231
v 75.065408 78.718360 -9.052259
vn -5.330678 -3.325822 0.005503
v 76.599220 76.297249 -9.065516
vn -5.309036 -3.360171 -0.035662
v 76.372401 76.664339 -10.765604
vn -2.529144 -1.598509 0.006448
v 74.645600 79.378225 -10.485725
vn -5.293171 -3.385309 -0.016214
v 75.492812 78.041917 -7.509308
vn -5.301597 -3.371803 -0.049222
v 78.007015 74.045507 -8.579659
vn -5.308087 -3.361508 -0.052692
v 78.406667 73.405730 -7.802189
vn -5.279847 -3.405977 -0.030245
v 76.160189 77.021541 -12.968218
vn -5.291207 -3.388277 -0.032084
v 75.817960 77.537342 -11.183854
vn -5.320308 -3.342448 -0.025974
v 78.368257 73.494816 -10.532266
vn -5.309952 -3.358731 -0.034371
v 78.210956 73.740252 -9.587246
vn -5.300460 -3.373927 0.000791
v 75.829362 77.516123 -8.326480
vn -5.319764 -3.343384 -0.017333
v 78.750817 72.883622 -9.911541
vn -5.299904 -3.374708 -0.011169
v 75.735123 77.657476 -10.302563
vn -5.304932 -3.366898 0.009742
v 75.636180 77.816739 -9.258919
vn -5.306788 -3.363931 0.017313
v 76.151076 77.007703 -8.971895
vn -5.288921 -3.391912 -0.024980
v 75.439893 78.130338 -11.789833
# 84 vertices, 0 vertices normals

f 41//41 18//18 42//42
f 43//43 44//44 45//45
f 13//13 19//19 20//20
f 46//46 47//47 66//66
f 4//4 23//23 48//48
f 1//1 44//44 58//58
f 49//49 50//50 75//75
f 4//4 25//25 23//23
f 45//45 47//47 51//51
f 13//13 84//84 19//19
f 16//16 52//52 27//27
f 53//53 54//54 55//55
f 18//18 57//57 56//56
f 49//49 59//59 60//60
f 59//59 57//57 61//61
f 53//53 62//62 63//63
f 64//64 65//65 62//62
f 6//6 66//66 30//30
f 6//6 30//30 32//32
f 65//65 51//51 69//69
f 63//63 70//70 60//60
f 16//16 35//35 34//34
f 43//43 73//73 74//74
f 9//9 75//75 37//37
f 84//84 50//50 76//76
f 77//77 80//80 78//78
f 78//78 73//73 64//64
f 4//4 38//38 25//25
f 46//46 72//72 79//79
f 7//7 40//40 39//39
f 4//4 74//74 38//38
f 5//5 21//21 68//68
f 7//7 80//80 40//40
f 6//6 32//32 33//33
f 81//81 76//76 70//70
f 81//81 82//82 67//67
f 69//69 83//83 14//14
f 82//82 83//83 79//79
f 9//9 37//37 28//28
f 13//13 20//20 36//36
f 54//54 61//61 41//41
f 16//16 27//27 35//35
f 77//77 55//55 52//52
f 11//11 42//42 17//17
f 42//42 11//11 41//41
f 8//8 43//43 45//45
f 43//43 4//4 48//48
f 45//45 44//44 1//1
f 5//5 22//22 21//21
f 6//6 46//46 66//66
f 46//46 10//10 47//47
f 66//66 47//47 1//1
f 48//48 23//23 24//24
f 44//44 43//43 48//48
f 44//44 48//48 24//24
f 44//44 24//24 58//58
f 9//9 49//49 75//75
f 75//75 50//50 13//13
f 8//8 45//45 51//51
f 45//45 1//1 47//47
f 51//51 47//47 10//10
f 84//84 26//26 19//19
f 17//17 52//52 11//11
f 52//52 17//17 27//27
f 12//12 53//53 55//55
f 53//53 15//15 54//54
f 55//55 54//54 11//11
f 9//9 28//28 57//57
f 56//56 57//57 28//28
f 1//1 58//58 29//29
f 50//50 49//49 60//60
f 49//49 9//9 59//59
f 60//60 59//59 15//15
f 15//15 59//59 61//61
f 59//59 9//9 57//57
f 61//61 57//57 18//18
f 15//15 53//53 63//63
f 53//53 12//12 62//62
f 63//63 62//62 3//3
f 12//12 64//64 62//62
f 64//64 8//8 65//65
f 62//62 65//65 3//3
f 29//29 66//66 1//1
f 66//66 29//29 30//30
f 67//67 68//68 31//31
f 67//67 71//71 2//2
f 71//71 67//67 31//31
f 3//3 65//65 69//69
f 65//65 8//8 51//51
f 69//69 51//51 10//10
f 15//15 63//63 60//60
f 63//63 3//3 70//70
f 60//60 70//70 50//50
f 71//71 26//26 2//2
f 33//33 72//72 6//6
f 72//72 22//22 5//5
f 22//22 72//72 33//33
f 4//4 43//43 74//74
f 43//43 8//8 73//73
f 74//74 73//73 7//7
f 36//36 75//75 13//13
f 75//75 36//36 37//37
f 2//2 84//84 76//76
f 84//84 13//13 50//50
f 12//12 77//77 78//78
f 77//77 16//16 80//80
f 78//78 80//80 7//7
f 12//12 78//78 64//64
f 78//78 7//7 73//73
f 64//64 73//73 8//8
f 10//10 46//46 79//79
f 46//46 6//6 72//72
f 79//79 72//72 5//5
f 39//39 74//74 7//7
f 74//74 39//39 38//38
f 68//68 21//21 31//31
f 34//34 80//80 16//16
f 80//80 34//34 40//40
f 14//14 81//81 70//70
f 81//81 2//2 76//76
f 70//70 76//76 50//50
f 2//2 81//81 67//67
f 81//81 14//14 82//82
f 67//67 82//82 68//68
f 69//69 10//10 83//83
f 3//3 69//69 14//14
f 5//5 82//82 79//79
f 82//82 14//14 83//83
f 79//79 83//83 10//10
f 14//14 70//70 3//3
f 11//11 54//54 41//41
f 54//54 15//15 61//61
f 41//41 61//61 18//18
f 16//16 77//77 52//52
f 77//77 12//12 55//55
f 52//52 55//55 11//11
f 26//26 84//84 2//2
f 68//68 82//82 5//5
# 138 faces, 0 coords texture

# End of File
