####
#
# OBJ File Generated by Meshlab
#
####
# Object 2554_C148_S_0.obj
#
# Vertices: 88
# Faces: 144
#
####
vn -5.323373 -3.336879 -0.073032
v 79.067491 74.240333 17.439821
vn -5.308709 -3.358896 -0.113627
v 77.817019 76.070168 23.058604
vn -5.325961 -3.331139 -0.123844
v 75.824853 79.312574 20.645683
vn -5.308590 -3.359229 -0.112690
v 78.769661 74.596105 21.932636
vn -5.324920 -3.334413 -0.072722
v 79.785686 73.064303 18.808395
vn -5.325530 -3.333122 -0.085141
v 78.055487 75.857837 17.509633
vn -5.312951 -3.352415 -0.109987
v 77.364796 76.910106 19.110664
vn -5.318025 -3.344560 -0.104156
v 76.974272 77.589932 17.182931
vn -5.310223 -3.356401 -0.118897
v 76.793951 77.712446 21.957831
vn -5.314922 -3.349803 -0.091752
v 78.644807 74.866998 19.562139
vn -5.322222 -3.337674 -0.107120
v 76.271884 78.651949 18.655268
vn -5.299833 -3.372684 -0.122403
v 76.912152 77.463645 23.897021
vn -5.308992 -3.358697 -0.107938
v 77.703718 76.300690 21.050289
vn -2.725997 -1.698421 -0.051628
v 75.513700 79.838100 19.784400
vn -2.241376 -1.405150 -0.050217
v 75.391400 80.010300 20.468900
vn -2.322115 -1.468768 -0.053691
v 79.740700 73.032800 22.734600
vn -2.361780 -1.478944 -0.040524
v 80.165700 72.409800 21.178700
vn -2.495702 -1.555052 -0.029153
v 80.209400 72.353400 20.453700
vn -2.661152 -1.675018 -0.056856
v 79.903725 72.794475 22.135775
vn -2.523221 -1.612033 -0.060614
v 76.634600 77.882800 24.304200
vn -2.290393 -1.447902 -0.058998
v 75.838759 79.178977 23.020943
vn -2.345713 -1.463482 -0.031082
v 78.622400 74.978200 16.058100
vn -2.259287 -1.413413 -0.034773
v 80.109100 72.552400 18.602700
vn -2.618981 -1.634067 -0.034122
v 80.148600 72.475600 19.143600
vn -2.692173 -1.688467 -0.039651
v 79.878100 72.936100 17.993900
vn -2.525373 -1.579466 -0.068571
v 75.441800 79.908100 21.037000
vn -2.348602 -1.460880 -0.045472
v 75.682000 79.603600 18.543800
vn -2.367040 -1.486690 -0.042318
v 76.929900 77.686700 16.265200
vn -2.480643 -1.555048 -0.056074
v 76.067900 79.018000 17.526700
vn -2.237928 -1.422403 -0.054913
v 76.874900 77.496700 24.572800
vn -2.424148 -1.512239 -0.040021
v 77.739780 76.406994 15.903426
vn -2.534616 -1.593143 -0.055122
v 76.428400 78.467900 16.909300
vn -2.295768 -1.445321 -0.058023
v 78.810050 74.443200 24.213100
vn -2.737542 -1.731677 -0.074365
v 77.246400 76.907600 24.603600
vn -2.309085 -1.457449 -0.062164
v 77.788000 76.046300 24.749800
vn -2.257986 -1.418141 -0.031990
v 79.520100 73.530200 16.975100
vn -5.307679 -3.360299 -0.123579
v 79.293404 73.753912 22.337930
vn -2.637713 -1.671648 -0.065613
v 79.294450 73.708250 23.456400
vn -5.314136 -3.349801 -0.130315
v 78.801189 74.503504 23.027774
vn -5.313421 -3.351556 -0.113939
v 79.694305 73.143045 21.668571
vn -5.299339 -3.373911 -0.110189
v 76.799937 77.671016 22.941528
vn -5.297446 -3.376546 -0.119698
v 76.440021 78.221101 23.411826
vn -2.616007 -1.670100 -0.064332
v 76.272250 78.471050 23.745250
vn -5.327436 -3.330425 -0.071144
v 78.580633 75.016070 17.585183
vn -5.334422 -3.319179 -0.071755
v 78.341670 75.414100 16.753663
vn -5.324882 -3.334623 -0.065641
v 78.761484 74.740488 16.868725
vn -5.321719 -3.338084 -0.121563
v 76.805914 77.728724 20.988494
vn -5.315671 -3.347742 -0.121144
v 77.247555 77.037184 20.714857
vn -5.310796 -3.356045 -0.102466
v 77.271239 76.970030 21.550229
vn -5.303889 -3.367137 -0.097190
v 78.235688 75.450223 21.480387
vn -5.306084 -3.363070 -0.116184
v 78.137631 75.639321 20.384459
vn -5.303963 -3.366778 -0.105692
v 78.709096 74.726787 20.817602
vn -5.308015 -3.360252 -0.109846
v 79.245706 73.864890 21.298512
vn -5.313521 -3.352217 -0.083010
v 79.226035 73.929281 20.233048
vn -5.318320 -3.344295 -0.095952
v 76.474206 78.305861 19.482132
vn -5.325788 -3.332138 -0.105116
v 76.364086 78.459072 20.345701
vn -5.331235 -3.323775 -0.093705
v 76.004645 79.054590 19.570049
vn -5.320773 -3.340445 -0.095954
v 77.368298 76.981881 16.523655
vn -2.619747 -1.645060 -0.046516
v 77.296650 77.108450 16.082650
vn -5.325140 -3.333986 -0.076324
v 78.892430 74.497605 18.426120
vn -5.320996 -3.340373 -0.084661
v 78.315654 75.418877 18.476986
vn -5.313896 -3.350909 -0.108045
v 78.298482 75.323492 22.550978
vn -5.306515 -3.363302 -0.086669
v 77.779712 76.154544 22.060890
vn -5.315611 -3.348062 -0.114422
v 76.937608 77.557429 19.947094
vn -5.312584 -3.352495 -0.124976
v 77.557248 76.568844 20.084468
vn -5.320962 -3.338463 -0.140888
v 76.306477 78.515454 21.344059
vn -5.312748 -3.352760 -0.108538
v 77.964682 75.952727 19.327894
vn -5.308992 -3.358729 -0.109358
v 76.809091 77.795827 18.875169
vn -5.313225 -3.351752 -0.117049
v 76.616363 78.132615 17.892058
vn -5.314613 -3.349954 -0.104835
v 77.167340 77.253969 18.126767
vn -5.320897 -3.340152 -0.099284
v 77.515976 76.721897 17.358883
vn -5.317540 -3.345606 -0.095192
v 77.730701 76.351166 18.319875
vn -5.326283 -3.332449 -0.061639
v 79.743944 73.113006 19.770902
vn -5.321773 -3.339533 -0.067902
v 79.289335 73.847808 19.170846
vn -5.331486 -3.323461 -0.088536
v 77.856012 76.201976 16.610366
vn -2.635013 -1.631921 -0.039620
v 78.190350 75.677500 15.964650
vn -5.321110 -3.337535 -0.157676
v 75.865615 79.196463 21.727252
vn -2.610725 -1.629707 -0.076667
v 75.592600 79.626350 21.886100
vn -5.322113 -3.338818 -0.076304
v 79.434727 73.639256 18.132076
vn -5.319731 -3.340782 -0.134052
v 78.314470 75.258566 23.582918
vn -2.646812 -1.663587 -0.070956
v 78.279950 75.274500 24.498900
vn -5.311603 -3.353493 -0.138423
v 77.815712 76.036433 23.952055
vn -2.653453 -1.666017 -0.034892
v 79.095500 74.215050 16.536850
vn -5.302604 -3.369119 -0.098261
v 77.299229 76.900931 22.520301
vn -5.306445 -3.361736 -0.136983
v 77.352954 76.755442 24.224262
vn -5.319978 -3.341764 -0.086589
v 79.721644 73.130600 20.758290
vn -5.307854 -3.359427 -0.136066
v 76.320465 78.442381 22.399889
vn -5.301666 -3.369870 -0.120704
v 77.297513 76.873685 23.438649
# 88 vertices, 0 vertices normals

f 3//3 15//15 14//14
f 37//37 38//38 39//39
f 86//86 18//18 17//17
f 42//42 20//20 43//43
f 44//44 45//45 46//46
f 47//47 48//48 49//49
f 5//5 23//23 24//24
f 50//50 51//51 52//52
f 53//53 52//52 54//54
f 5//5 25//25 23//23
f 3//3 26//26 15//15
f 55//55 56//56 57//57
f 11//11 57//57 27//27
f 58//58 28//28 59//59
f 60//60 61//61 44//44
f 53//53 40//40 37//37
f 50//50 62//62 63//63
f 48//48 64//64 65//65
f 56//56 47//47 66//66
f 51//51 65//65 67//67
f 55//55 68//68 64//64
f 69//69 70//70 68//68
f 75//75 71//71 58//58
f 72//72 70//70 71//71
f 54//54 74//74 73//73
f 11//11 27//27 29//29
f 12//12 30//30 20//20
f 75//75 76//76 45//45
f 77//77 87//87 21//21
f 60//60 79//79 74//74
f 61//61 67//67 72//72
f 87//87 77//77 66//66
f 8//8 32//32 28//28
f 62//62 39//39 80//80
f 85//85 30//30 12//12
f 80//80 81//81 82//82
f 46//46 22//22 83//83
f 49//49 63//63 84//84
f 5//5 79//79 25//25
f 88//88 82//82 85//85
f 85//85 34//34 30//30
f 4//4 37//37 39//39
f 37//37 16//16 38//38
f 39//39 38//38 33//33
f 86//86 17//17 40//40
f 19//19 40//40 17//17
f 42//42 12//12 20//20
f 87//87 42//42 21//21
f 12//12 42//42 41//41
f 43//43 21//21 42//42
f 1//1 44//44 46//46
f 44//44 6//6 45//45
f 46//46 45//45 22//22
f 9//9 47//47 49//49
f 47//47 64//64 48//48
f 49//49 48//48 13//13
f 4//4 50//50 52//52
f 50//50 13//13 51//51
f 52//52 51//51 10//10
f 53//53 4//4 52//52
f 54//54 52//52 10//10
f 11//11 55//55 57//57
f 55//55 64//64 56//56
f 57//57 56//56 3//3
f 14//14 57//57 3//3
f 57//57 14//14 27//27
f 28//28 58//58 8//8
f 75//75 58//58 31//31
f 59//59 31//31 58//58
f 1//1 60//60 44//44
f 60//60 10//10 61//61
f 44//44 61//61 6//6
f 4//4 53//53 37//37
f 53//53 86//86 40//40
f 40//40 19//19 16//16
f 37//37 40//40 16//16
f 13//13 50//50 63//63
f 50//50 4//4 62//62
f 63//63 62//62 2//2
f 13//13 48//48 65//65
f 65//65 64//64 7//7
f 3//3 56//56 66//66
f 56//56 64//64 47//47
f 66//66 47//47 9//9
f 10//10 51//51 67//67
f 51//51 13//13 65//65
f 67//67 65//65 7//7
f 55//55 11//11 68//68
f 64//64 68//68 7//7
f 11//11 69//69 68//68
f 69//69 8//8 70//70
f 68//68 70//70 7//7
f 75//75 6//6 71//71
f 58//58 71//71 8//8
f 6//6 72//72 71//71
f 72//72 7//7 70//70
f 71//71 70//70 8//8
f 73//73 24//24 18//18
f 24//24 73//73 5//5
f 86//86 73//73 18//18
f 86//86 54//54 73//73
f 54//54 10//10 74//74
f 73//73 74//74 5//5
f 6//6 75//75 45//45
f 75//75 31//31 76//76
f 45//45 76//76 22//22
f 21//21 78//78 77//77
f 78//78 26//26 77//77
f 10//10 60//60 74//74
f 60//60 1//1 79//79
f 74//74 79//79 5//5
f 6//6 61//61 72//72
f 61//61 10//10 67//67
f 72//72 67//67 7//7
f 9//9 87//87 66//66
f 66//66 77//77 3//3
f 69//69 29//29 32//32
f 29//29 69//69 11//11
f 8//8 69//69 32//32
f 2//2 62//62 80//80
f 62//62 4//4 39//39
f 80//80 39//39 33//33
f 2//2 80//80 82//82
f 80//80 33//33 81//81
f 82//82 81//81 35//35
f 1//1 83//83 36//36
f 83//83 1//1 46//46
f 9//9 49//49 84//84
f 49//49 13//13 63//63
f 84//84 63//63 2//2
f 36//36 79//79 1//1
f 79//79 36//36 25//25
f 9//9 84//84 41//41
f 84//84 2//2 88//88
f 41//41 88//88 12//12
f 12//12 88//88 85//85
f 88//88 2//2 82//82
f 85//85 82//82 35//35
f 85//85 35//35 34//34
f 86//86 53//53 54//54
f 3//3 77//77 26//26
f 41//41 42//42 87//87
f 9//9 41//41 87//87
f 84//84 88//88 41//41
# 144 faces, 0 coords texture

# End of File
