####
#
# OBJ File Generated by Meshlab
#
####
# Object 2565_C149_S_0.obj
#
# Vertices: 88
# Faces: 146
#
####
vn -5.323111 -3.335203 -0.134320
v 77.286744 78.135048 22.205034
vn -5.329919 -3.323592 -0.154972
v 76.418254 79.511061 22.653643
vn -5.339068 -3.311330 -0.086337
v 78.625445 76.159199 17.289859
vn -5.328044 -3.328475 -0.107319
v 77.587451 77.829230 17.001135
vn -5.308261 -3.358961 -0.128050
v 77.929947 77.075355 23.701747
vn -5.321086 -3.339677 -0.104165
v 79.815424 74.106606 22.564044
vn -5.329211 -3.326684 -0.103671
v 77.568335 77.761327 20.137868
vn -5.334928 -3.317484 -0.099976
v 76.823710 79.000505 18.442843
vn -5.327193 -3.330130 -0.096974
v 78.665536 76.031787 19.588494
vn -5.330758 -3.324891 -0.079339
v 79.688975 74.364910 20.369450
vn -5.321796 -3.337750 -0.126563
v 78.909335 75.519142 23.542195
vn -5.314708 -3.349821 -0.104686
v 78.274752 76.585607 21.765605
vn -2.312119 -1.458250 -0.060188
v 75.939100 80.343500 21.239700
vn -2.339135 -1.465678 -0.029880
v 80.618200 72.871650 21.033000
vn -2.531833 -1.547896 -0.033334
v 79.066425 75.463725 16.235025
vn -2.379766 -1.471420 -0.040703
v 78.533700 76.344000 16.011300
vn -2.457424 -1.519252 -0.022880
v 79.535600 74.693400 16.603700
vn -2.498820 -1.552169 -0.059535
v 76.743100 79.174800 17.270100
vn -2.336551 -1.446972 -0.050575
v 76.405900 79.696200 17.883800
vn -2.589109 -1.616218 -0.049431
v 77.938900 77.292700 16.156600
vn -2.382432 -1.483135 -0.048617
v 77.552300 77.908100 16.317650
vn -2.334745 -1.447297 -0.028751
v 80.579735 72.954525 19.133474
vn -2.318174 -1.457525 -0.059134
v 76.868900 78.722300 24.174500
vn -2.629434 -1.670462 -0.071833
v 77.154800 78.260100 24.395000
vn -2.328507 -1.453982 -0.064141
v 76.250200 79.767200 22.948200
vn -2.405001 -1.489902 -0.027461
v 79.998650 73.940100 17.262650
vn -2.325244 -1.464948 -0.046312
v 80.187500 73.505800 22.893900
vn -2.499760 -1.575121 -0.040669
v 75.989575 80.300750 20.079000
vn -2.530186 -1.581728 -0.040078
v 76.142900 80.081300 18.990900
vn -2.365268 -1.500194 -0.066408
v 77.704700 77.382500 24.784800
vn -2.597426 -1.628421 -0.061352
v 79.818300 74.066000 23.536400
vn -2.505994 -1.571618 -0.073113
v 78.368600 76.325400 24.809800
vn -2.517559 -1.578742 -0.070932
v 78.694500 75.809600 24.709700
vn -2.358615 -1.479007 -0.060238
v 79.296200 74.870400 24.325600
vn -5.326762 -3.328090 -0.165456
v 76.448752 79.505090 21.823278
vn -2.635304 -1.654034 -0.080819
v 76.114075 80.016725 22.242750
vn -5.344148 -3.302830 -0.094097
v 76.929149 78.791280 20.336692
vn -5.336782 -3.313767 -0.124545
v 77.357902 78.066872 21.078135
vn -5.343984 -3.301152 -0.147545
v 76.918182 78.766515 21.481219
vn -5.321491 -3.339879 -0.067056
v 80.139494 73.641033 20.743709
vn -5.339053 -3.311768 -0.066994
v 80.096423 73.725496 19.570473
vn -5.318725 -3.343826 -0.091633
v 80.180248 73.547228 21.801356
vn -2.616945 -1.642223 -0.046379
v 80.435850 73.137600 21.883350
vn -5.335997 -3.316261 -0.089276
v 79.151099 75.270813 18.844057
vn -5.341198 -3.307918 -0.087129
v 79.642420 74.470088 19.235265
vn -5.335182 -3.317567 -0.089397
v 79.211143 75.144697 19.961416
vn -5.331853 -3.322913 -0.089402
v 79.295335 74.978861 21.071161
vn -5.326817 -3.330740 -0.096675
v 78.878412 75.661783 20.609726
vn -5.353274 -3.288826 -0.064438
v 79.039924 75.493685 16.856596
vn -5.323820 -3.335440 -0.100320
v 78.210399 76.781105 18.830266
vn -5.328675 -3.327898 -0.093422
v 78.268714 76.714038 17.871535
vn -5.332273 -3.322187 -0.091007
v 78.667142 76.063011 18.362428
vn -5.341491 -3.307777 -0.071077
v 79.102121 75.378527 17.785323
vn -5.342328 -3.306888 -0.048753
v 79.463462 74.800386 17.319967
vn -5.331600 -3.324292 -0.039265
v 80.430976 73.181802 20.114503
vn -2.617803 -1.631581 -0.018170
v 80.613300 72.889500 20.093900
vn -5.328614 -3.327876 -0.097628
v 78.140792 76.944490 16.992362
vn -5.319955 -3.341414 -0.106910
v 78.102561 76.917962 19.888687
vn -5.320107 -3.341175 -0.106856
v 77.717893 77.555894 19.123439
vn -5.323137 -3.336887 -0.087102
v 79.765622 74.213732 21.495410
vn -5.345830 -3.300573 -0.081988
v 80.061887 73.809792 18.491969
vn -5.320585 -3.340515 -0.102517
v 78.833463 75.701885 21.676770
vn -5.317707 -3.345124 -0.102727
v 78.445070 76.347292 20.720160
vn -5.332187 -3.322339 -0.086091
v 77.192269 78.386288 19.324665
vn -5.337361 -3.314542 -0.068012
v 76.738519 79.116820 19.496106
vn -5.319225 -3.342711 -0.102664
v 77.347163 78.168726 18.394063
vn -5.334735 -3.315757 -0.156567
v 76.799701 78.904276 22.503356
vn -5.326991 -3.331066 -0.072921
v 76.401084 79.650184 19.897349
vn -5.333410 -3.320576 -0.081150
v 76.465765 79.564097 18.982719
vn -5.298228 -3.374974 -0.128991
v 77.258676 78.119268 23.867647
vn -2.662218 -1.657532 -0.070596
v 76.577650 79.214450 23.599900
vn -2.546553 -1.573802 -0.038441
v 80.344800 73.358800 18.214100
vn -5.319552 -3.341902 -0.111509
v 79.015674 75.379357 22.664355
vn -5.319725 -3.341793 -0.106141
v 78.590879 76.053855 22.664392
vn -5.326219 -3.331652 -0.098190
v 79.373896 74.825086 22.154563
vn -5.322965 -3.335838 -0.126204
v 78.424998 76.290287 23.606463
vn -5.314720 -3.349945 -0.098571
v 78.109800 76.819031 22.754232
vn -5.320362 -3.338896 -0.154524
v 78.234555 76.562674 24.303899
vn -5.313987 -3.349859 -0.130041
v 77.116991 78.365471 23.183167
vn -5.300748 -3.371733 -0.108089
v 77.617829 77.589549 22.946174
vn -5.324919 -3.333018 -0.120628
v 79.385306 74.772371 23.179346
vn -2.643314 -1.645301 -0.062298
v 77.094150 78.627400 16.843850
vn -5.318806 -3.343148 -0.109747
v 77.934010 77.153804 20.926073
vn -5.312118 -3.353719 -0.109807
v 77.774885 77.370030 21.950215
vn -5.326121 -3.331225 -0.115357
v 77.210029 78.408317 17.679911
vn -5.341788 -3.307226 -0.074719
v 79.594581 74.575262 18.169715
vn -5.323178 -3.336498 -0.099279
v 77.837755 77.401749 17.959664
vn -5.327990 -3.327745 -0.117000
v 76.481846 79.500119 20.816660
# 88 vertices, 0 vertices normals

f 37//37 38//38 39//39
f 40//40 41//41 55//55
f 42//42 14//14 43//43
f 44//44 45//45 46//46
f 47//47 48//48 46//46
f 50//50 51//51 52//52
f 53//53 49//49 54//54
f 86//86 53//53 54//54
f 8//8 19//19 18//18
f 44//44 52//52 53//53
f 4//4 21//21 20//20
f 55//55 22//22 56//56
f 70//70 24//24 23//23
f 3//3 57//57 16//16
f 58//58 59//59 50//50
f 2//2 25//25 36//36
f 42//42 60//60 40//40
f 54//54 17//17 26//26
f 48//48 62//62 63//63
f 64//64 37//37 65//65
f 64//64 66//66 59//59
f 39//39 67//67 35//35
f 65//65 68//68 69//69
f 73//73 74//74 62//62
f 60//60 75//75 47//47
f 6//6 27//27 31//31
f 74//74 76//76 77//77
f 5//5 76//76 78//78
f 79//79 71//71 67//67
f 79//79 80//80 70//70
f 11//11 81//81 34//34
f 11//11 34//34 33//33
f 5//5 78//78 30//30
f 85//85 18//18 82//82
f 75//75 81//81 73//73
f 63//63 83//83 58//58
f 77//77 80//80 84//84
f 83//83 84//84 38//38
f 36//36 35//35 2//2
f 88//88 35//35 13//13
f 36//36 13//13 35//35
f 37//37 7//7 38//38
f 39//39 38//38 1//1
f 14//14 40//40 55//55
f 40//40 10//10 41//41
f 55//55 41//41 22//22
f 6//6 42//42 27//27
f 43//43 27//27 42//42
f 9//9 44//44 46//46
f 44//44 86//86 45//45
f 46//46 45//45 10//10
f 10//10 47//47 46//46
f 47//47 62//62 48//48
f 46//46 48//48 9//9
f 3//3 16//16 49//49
f 15//15 49//49 16//16
f 9//9 50//50 52//52
f 50//50 87//87 51//51
f 52//52 51//51 3//3
f 51//51 57//57 3//3
f 53//53 3//3 49//49
f 17//17 49//49 15//15
f 17//17 54//54 49//49
f 44//44 9//9 52//52
f 53//53 52//52 3//3
f 56//56 14//14 55//55
f 20//20 57//57 4//4
f 57//57 20//20 16//16
f 9//9 58//58 50//50
f 58//58 7//7 59//59
f 50//50 59//59 87//87
f 14//14 42//42 40//40
f 42//42 6//6 60//60
f 40//40 60//60 10//10
f 86//86 54//54 26//26
f 41//41 10//10 45//45
f 61//61 45//45 86//86
f 9//9 48//48 63//63
f 63//63 62//62 12//12
f 8//8 64//64 65//65
f 64//64 7//7 37//37
f 7//7 64//64 59//59
f 64//64 8//8 66//66
f 59//59 66//66 87//87
f 39//39 1//1 67//67
f 35//35 67//67 2//2
f 8//8 65//65 69//69
f 29//29 68//68 28//28
f 69//69 29//29 19//19
f 29//29 69//69 68//68
f 30//30 70//70 5//5
f 70//70 30//30 24//24
f 23//23 71//71 79//79
f 71//71 25//25 2//2
f 72//72 22//22 61//61
f 73//73 11//11 74//74
f 62//62 74//74 12//12
f 10//10 60//60 47//47
f 60//60 6//6 75//75
f 47//47 75//75 62//62
f 12//12 74//74 77//77
f 74//74 11//11 76//76
f 77//77 76//76 5//5
f 76//76 33//33 78//78
f 33//33 76//76 11//11
f 32//32 78//78 33//33
f 1//1 79//79 67//67
f 79//79 70//70 23//23
f 67//67 71//71 2//2
f 79//79 1//1 80//80
f 70//70 80//80 5//5
f 31//31 81//81 6//6
f 81//81 31//31 34//34
f 28//28 68//68 88//88
f 78//78 32//32 30//30
f 21//21 4//4 82//82
f 62//62 75//75 73//73
f 75//75 6//6 81//81
f 73//73 81//81 11//11
f 9//9 63//63 58//58
f 63//63 12//12 83//83
f 58//58 83//83 7//7
f 12//12 77//77 84//84
f 77//77 5//5 80//80
f 84//84 80//80 1//1
f 7//7 83//83 38//38
f 83//83 12//12 84//84
f 38//38 84//84 1//1
f 8//8 69//69 19//19
f 8//8 18//18 85//85
f 61//61 86//86 26//26
f 86//86 44//44 53//53
f 61//61 26//26 72//72
f 41//41 45//45 61//61
f 22//22 41//41 61//61
f 28//28 88//88 13//13
f 87//87 57//57 51//51
f 39//39 88//88 37//37
f 87//87 4//4 57//57
f 68//68 37//37 88//88
f 88//88 39//39 35//35
f 65//65 37//37 68//68
f 4//4 85//85 82//82
f 85//85 4//4 87//87
f 66//66 85//85 87//87
f 8//8 85//85 66//66
# 146 faces, 0 coords texture

# End of File
