####
#
# OBJ File Generated by Meshlab
#
####
# Object 2574_C149_S_9.obj
#
# Vertices: 76
# Faces: 124
#
####
vn -5.365096 -3.270086 -0.018374
v 77.700389 78.183644 -9.092668
vn -5.359366 -3.279443 -0.027564
v 78.438423 76.957382 -7.596461
vn -5.343886 -3.304585 -0.029515
v 79.247884 75.679687 -11.343820
vn -5.350138 -3.294454 -0.031155
v 79.013062 76.021343 -7.426545
vn -5.347361 -3.298904 -0.034179
v 79.746653 74.853016 -9.262961
vn -5.356064 -3.284802 -0.017832
v 78.024318 77.653591 -11.297403
vn -5.351437 -3.292281 -0.025191
v 78.682504 76.569379 -9.393131
vn -5.352635 -3.290396 -0.011592
v 77.035467 79.278042 -10.699111
vn -5.354179 -3.287539 -0.039638
v 77.395082 78.669098 -7.025811
vn -5.344111 -3.304074 -0.001188
v 76.891200 79.516930 -11.821048
vn -5.331781 -3.323720 -0.033731
v 76.696531 79.816611 -8.561523
vn -2.405215 -1.493202 0.006296
v 76.693900 79.830200 -12.826500
vn -2.569485 -1.584683 0.004957
v 77.231000 78.956200 -13.489100
vn -2.529633 -1.583375 -0.024455
v 76.509400 80.097200 -7.376480
vn -2.495458 -1.554450 -0.024452
v 76.825500 79.578400 -6.694200
vn -2.349246 -1.473407 0.002096
v 76.360600 80.362200 -12.060800
vn -2.344952 -1.448320 -0.004664
v 77.687850 78.218300 -13.909150
vn -2.347057 -1.448564 -0.011347
v 79.793300 74.808400 -12.945100
vn -2.614772 -1.608767 -0.015125
v 80.048100 74.388900 -12.329800
vn -2.683407 -1.659416 -0.011613
v 79.415900 75.421300 -13.351500
vn -2.270113 -1.407778 -0.011091
v 78.886600 76.282600 -13.940400
vn -2.296583 -1.410980 -0.015495
v 79.276800 75.576800 -5.961970
vn -2.345724 -1.440465 -0.011526
v 80.407950 73.792950 -11.316200
vn -2.450431 -1.503809 -0.012883
v 80.550000 73.552200 -10.023600
vn -2.307631 -1.441771 -0.006764
v 76.056550 80.850500 -10.253500
vn -2.275699 -1.441516 -0.019112
v 76.166500 80.650900 -8.391970
vn -2.368152 -1.454259 -0.019548
v 80.033500 74.356750 -7.099640
vn -2.567220 -1.588889 -0.005801
v 78.379550 77.098000 -13.995300
vn -2.305626 -1.415698 -0.017709
v 80.507200 73.608600 -8.709030
vn -2.312679 -1.422919 -0.022017
v 77.304600 78.800300 -6.011240
vn -2.380386 -1.454354 -0.017116
v 78.244845 77.252071 -5.626541
vn -5.357350 -3.282772 0.002203
v 77.290095 78.865324 -12.578864
vn -5.343257 -3.305427 -0.039381
v 77.013136 79.294770 -7.755489
vn -5.363135 -3.273285 -0.023125
v 78.444043 76.954139 -8.592338
vn -5.346356 -3.300638 -0.021627
v 78.874770 76.251647 -8.415817
vn -5.353011 -3.289753 -0.034737
v 78.630782 76.634314 -6.593261
vn -5.364950 -3.270179 -0.035990
v 78.202462 77.332876 -6.680244
vn -5.367486 -3.266268 -0.003312
v 77.873828 77.899853 -10.125902
vn -5.353815 -3.288406 -0.021475
v 78.393054 77.046653 -10.327605
vn -5.369090 -3.263559 -0.017008
v 78.187657 77.383092 -9.314461
vn -5.344655 -3.303323 -0.031046
v 79.523655 75.224046 -10.322376
vn -5.338878 -3.312671 -0.031284
v 79.217613 75.706289 -9.340521
vn -5.339280 -3.311966 -0.037145
v 78.958229 76.135506 -10.360695
vn -5.346946 -3.299678 -0.025734
v 79.536921 75.218556 -12.275563
vn -5.352850 -3.290005 -0.035661
v 79.151063 75.788250 -6.580728
vn -2.636537 -1.620822 -0.017830
v 78.820200 76.317400 -5.790330
vn -5.352890 -3.290025 -0.026221
v 80.055567 74.359421 -10.244687
vn -5.335797 -3.317757 -0.011828
v 76.575344 80.015919 -10.209222
vn -5.330433 -3.326350 -0.007084
v 76.516807 80.114661 -11.063568
vn -5.367191 -3.266733 -0.010269
v 77.441304 78.612401 -11.605229
vn -5.367549 -3.266163 -0.003753
v 77.553815 78.426130 -10.734917
vn -5.355629 -3.285517 -0.023093
v 77.831508 77.975355 -12.412532
vn -5.369980 -3.262047 -0.027280
v 78.024117 77.643018 -8.330920
vn -5.371021 -3.260293 -0.031956
v 77.890685 77.854389 -7.329803
vn -5.363335 -3.272943 -0.024386
v 77.533781 78.449155 -8.059190
vn -5.340418 -3.310182 -0.031802
v 78.666999 76.616662 -11.354958
vn -5.353120 -3.289499 -0.041347
v 79.530916 75.178072 -7.315937
vn -2.631892 -1.615573 -0.018414
v 79.627100 75.011400 -6.458140
vn -5.345621 -3.301709 -0.035020
v 79.403625 75.398411 -8.304705
vn -5.352913 -3.289790 -0.044956
v 79.889805 74.606266 -8.186044
vn -5.345427 -3.302174 -0.019369
v 78.139936 77.484115 -13.280467
vn -5.342328 -3.307138 -0.027551
v 78.410154 77.038590 -12.352593
vn -5.341921 -3.307827 -0.023629
v 79.001179 76.085240 -12.328680
vn -5.353928 -3.288223 -0.037232
v 80.187014 74.135002 -9.104063
vn -2.655905 -1.631510 -0.022957
v 80.298400 73.938050 -7.977000
vn -2.653161 -1.678693 -0.023328
v 76.113000 80.748300 -9.292435
vn -5.322919 -3.338141 -0.026722
v 76.411865 80.277262 -9.387125
vn -5.361750 -3.275624 -0.012078
v 77.377648 78.714822 -9.836096
vn -5.369199 -3.263131 -0.043465
v 77.799036 77.996087 -6.393876
vn -2.672063 -1.629396 -0.026449
v 77.735450 78.091200 -5.829470
vn -5.355554 -3.285723 -0.021892
v 77.198262 79.000887 -8.820767
vn -5.346015 -3.301196 -0.015179
v 76.882984 79.519773 -9.576845
vn -2.647130 -1.657474 0.002565
v 76.219250 80.589600 -11.248000
vn -5.341734 -3.308129 -0.023522
v 78.748233 76.499774 -13.185204
vn -5.351027 -3.293122 -0.011083
v 77.648738 78.279203 -13.186478
vn -5.351681 -3.291986 -0.027297
v 79.819697 74.750656 -11.314230
# 76 vertices, 0 vertices normals

f 11//11 33//33 14//14
f 10//10 16//16 12//12
f 2//2 34//34 35//35
f 2//2 36//36 37//37
f 38//38 39//39 40//40
f 41//41 42//42 43//43
f 63//63 74//74 20//20
f 45//45 46//46 36//36
f 5//5 47//47 64//64
f 75//75 13//13 17//17
f 8//8 48//48 49//49
f 50//50 51//51 8//8
f 32//32 52//52 50//50
f 11//11 14//14 26//26
f 53//53 54//54 55//55
f 39//39 56//56 43//43
f 40//40 34//34 53//53
f 57//57 58//58 45//45
f 59//59 60//60 57//57
f 42//42 59//59 35//35
f 76//76 19//19 23//23
f 74//74 28//28 21//21
f 61//61 62//62 52//52
f 3//3 63//63 44//44
f 62//62 63//63 56//56
f 64//64 65//65 60//60
f 25//25 67//67 66//66
f 38//38 68//68 51//51
f 9//9 30//30 15//15
f 54//54 37//37 69//69
f 69//69 31//31 70//70
f 71//71 72//72 68//68
f 71//71 55//55 33//33
f 49//49 25//25 73//73
f 72//72 67//67 48//48
f 32//32 12//12 13//13
f 12//12 32//32 10//10
f 75//75 32//32 13//13
f 15//15 33//33 9//9
f 33//33 15//15 14//14
f 4//4 2//2 35//35
f 35//35 34//34 7//7
f 2//2 4//4 36//36
f 36//36 31//31 37//37
f 1//1 38//38 40//40
f 38//38 6//6 39//39
f 40//40 39//39 7//7
f 3//3 41//41 43//43
f 41//41 5//5 42//42
f 43//43 42//42 7//7
f 76//76 3//3 44//44
f 19//19 44//44 18//18
f 76//76 44//44 19//19
f 4//4 45//45 36//36
f 45//45 22//22 46//46
f 36//36 46//46 31//31
f 5//5 41//41 47//47
f 41//41 3//3 76//76
f 23//23 47//47 76//76
f 47//47 24//24 64//64
f 24//24 47//47 23//23
f 10//10 8//8 49//49
f 49//49 48//48 25//25
f 10//10 50//50 8//8
f 50//50 6//6 51//51
f 10//10 32//32 50//50
f 32//32 75//75 52//52
f 50//50 52//52 6//6
f 1//1 53//53 55//55
f 53//53 2//2 54//54
f 55//55 54//54 9//9
f 7//7 39//39 43//43
f 39//39 6//6 56//56
f 43//43 56//56 3//3
f 1//1 40//40 53//53
f 40//40 7//7 34//34
f 53//53 34//34 2//2
f 4//4 57//57 45//45
f 57//57 27//27 58//58
f 45//45 58//58 22//22
f 4//4 59//59 57//57
f 59//59 5//5 60//60
f 57//57 60//60 27//27
f 7//7 42//42 35//35
f 42//42 5//5 59//59
f 35//35 59//59 4//4
f 52//52 62//62 6//6
f 63//63 20//20 44//44
f 18//18 44//44 20//20
f 6//6 62//62 56//56
f 62//62 61//61 74//74
f 56//56 63//63 3//3
f 5//5 64//64 60//60
f 64//64 29//29 65//65
f 60//60 65//65 27//27
f 11//11 26//26 67//67
f 66//66 67//67 26//26
f 6//6 38//38 51//51
f 38//38 1//1 68//68
f 51//51 68//68 8//8
f 9//9 54//54 69//69
f 54//54 2//2 37//37
f 69//69 37//37 31//31
f 9//9 69//69 30//30
f 70//70 30//30 69//69
f 1//1 71//71 68//68
f 71//71 11//11 72//72
f 68//68 72//72 8//8
f 11//11 71//71 33//33
f 71//71 1//1 55//55
f 33//33 55//55 9//9
f 29//29 64//64 24//24
f 10//10 49//49 16//16
f 73//73 16//16 49//49
f 17//17 28//28 61//61
f 8//8 72//72 48//48
f 72//72 11//11 67//67
f 48//48 67//67 25//25
f 74//74 21//21 20//20
f 75//75 61//61 52//52
f 28//28 74//74 61//61
f 62//62 74//74 63//63
f 41//41 76//76 47//47
f 17//17 61//61 75//75
# 124 faces, 0 coords texture

# End of File
