####
#
# OBJ File Generated by Meshlab
#
####
# Object 2578_C150_S_2.obj
#
# Vertices: 85
# Faces: 139
#
####
vn -5.317025 -3.347727 0.009300
v 77.508939 79.729937 -21.875044
vn -5.340356 -3.310253 0.000576
v 80.411872 75.067027 -23.852274
vn -5.340096 -3.310830 0.007867
v 79.366758 76.740996 -24.227885
vn -5.335143 -3.318678 0.023965
v 79.143069 77.096111 -26.356597
vn -5.341932 -3.307630 0.007906
v 78.395654 78.326792 -21.005433
vn -5.337012 -3.315657 -0.005676
v 80.036540 75.673065 -21.005884
vn -5.344036 -3.304285 0.005146
v 79.234668 76.949588 -22.109769
vn -5.314565 -3.351024 0.064730
v 78.098550 78.755158 -26.994689
vn -5.313868 -3.352765 0.011332
v 77.191831 80.231274 -23.468984
vn -5.332952 -3.322020 0.010037
v 78.244524 78.566514 -23.181566
vn -5.334467 -3.319776 0.029852
v 78.277390 78.496729 -24.955579
vn -5.316422 -3.348370 0.037129
v 77.706354 79.411781 -25.008322
vn -5.340124 -3.310742 0.017800
v 80.149944 75.470148 -25.795349
vn -5.337099 -3.315665 0.000880
v 80.236391 75.344675 -22.835149
vn -2.429494 -1.523700 0.006149
v 78.037200 78.901300 -20.406900
vn -2.640133 -1.662772 0.009609
v 77.508600 79.734000 -21.229200
vn -2.586202 -1.607888 -0.006420
v 79.939900 75.825000 -20.111500
vn -2.293725 -1.411545 -0.011822
v 80.387000 75.098400 -20.449600
vn -2.486451 -1.572879 0.010247
v 76.841000 80.784600 -23.838200
vn -2.503533 -1.537499 -0.001109
v 79.010300 77.321700 -19.846600
vn -2.485746 -1.529824 0.001025
v 78.438600 78.257700 -20.067100
vn -2.435498 -1.510300 -0.004707
v 79.461000 76.589500 -19.851100
vn -2.611276 -1.634815 0.016901
v 79.679700 76.219000 -28.209700
vn -2.316592 -1.464605 0.032506
v 77.932300 78.997400 -27.920300
vn -2.295675 -1.454546 0.028548
v 77.202600 80.177050 -26.685250
vn -2.332662 -1.434904 0.000545
v 81.328500 73.575750 -23.562350
vn -2.289348 -1.416466 0.004971
v 81.042200 74.047900 -21.785300
vn -2.431515 -1.528224 0.008664
v 76.904600 80.689900 -23.170100
vn -2.363428 -1.482061 0.007322
v 77.359900 79.969600 -21.471800
vn -2.798759 -1.734548 0.004137
v 80.230700 75.336000 -27.581000
vn -2.336284 -1.447518 0.003507
v 80.730300 74.530800 -26.892000
vn -2.195153 -1.364050 0.007599
v 79.958400 75.773800 -28.090800
vn -2.338293 -1.482683 0.018787
v 76.857800 80.748200 -25.147300
vn -2.364144 -1.459060 0.010806
v 81.194600 73.786550 -25.422000
vn -2.454935 -1.552630 0.033536
v 78.539550 78.027850 -28.302100
vn -5.313660 -3.353091 0.010948
v 77.918417 79.082874 -21.445706
vn -5.342448 -3.307049 0.009833
v 79.243362 76.936774 -25.335979
vn -5.343181 -3.305868 0.008592
v 79.641329 76.291570 -26.070743
vn -5.337261 -3.315316 0.021074
v 79.772001 76.082940 -25.077361
vn -5.358999 -3.280158 0.001494
v 78.771492 77.706306 -22.617831
vn -5.351349 -3.292584 0.007019
v 78.806007 77.652619 -23.665719
vn -5.343619 -3.305063 -0.007403
v 79.273080 76.889334 -23.111648
vn -5.332524 -3.322863 0.023912
v 79.562220 76.416195 -27.295472
vn -2.450468 -1.540022 0.019767
v 79.090350 77.155900 -28.390450
vn -5.326168 -3.332891 0.045644
v 78.632240 77.910544 -26.633066
vn -5.317298 -3.346768 0.060493
v 78.573356 77.989043 -27.624059
vn -5.323471 -3.337267 0.040831
v 79.137147 77.091174 -27.463697
vn -5.362443 -3.274528 0.009453
v 78.802112 77.659449 -21.594137
vn -5.345131 -3.302493 0.014034
v 79.214721 76.984396 -21.262010
vn -5.310529 -3.358080 0.000605
v 77.825985 79.228693 -22.414142
vn -5.336611 -3.316114 0.005510
v 78.321563 78.444763 -22.025281
vn -5.325536 -3.334207 0.011399
v 79.647115 76.292915 -21.558502
vn -5.335111 -3.318768 0.022799
v 78.719672 77.781140 -25.657062
vn -5.322296 -3.338994 0.048015
v 78.094078 78.780316 -25.941950
vn -5.330182 -3.326792 -0.005138
v 79.808465 76.032036 -23.454836
vn -5.328802 -3.328987 0.005048
v 79.717266 76.176648 -22.492967
vn -5.310309 -3.357787 0.065171
v 77.695019 79.401715 -26.562361
vn -2.646389 -1.675358 0.036332
v 77.574200 79.576250 -27.320000
vn -5.340795 -3.309570 0.029493
v 78.407925 78.294536 -24.130582
vn -5.343132 -3.305894 0.018895
v 78.811546 77.636250 -24.676334
vn -5.310896 -3.357493 0.004898
v 77.642158 79.519270 -23.351318
vn -5.335215 -3.318674 0.001657
v 79.462583 76.589236 -20.585491
vn -5.336886 -3.315840 0.033509
v 80.308225 75.225335 -24.871068
vn -5.330839 -3.325656 0.017258
v 79.934844 75.830083 -24.264546
vn -5.346928 -3.299734 -0.003707
v 80.779728 74.464328 -23.166730
vn -2.671104 -1.652783 0.008783
v 81.178050 73.823300 -22.629300
vn -5.342406 -3.307092 0.015934
v 80.641583 74.692394 -22.282385
vn -5.316612 -3.348411 0.005013
v 77.345270 79.988692 -22.726268
vn -2.607972 -1.634532 0.005314
v 77.157875 80.289325 -22.160075
vn -5.342206 -3.307444 0.007977
v 79.989447 75.727132 -26.800184
vn -5.340986 -3.309411 0.008711
v 80.458239 74.970966 -26.453422
vn -5.321634 -3.340309 0.021260
v 77.935122 79.053370 -24.138412
vn -2.642778 -1.676345 0.028978
v 77.023450 80.473600 -25.899050
vn -5.308380 -3.360938 0.059385
v 77.471762 79.768316 -25.837276
vn -5.309545 -3.359595 0.014673
v 77.390066 79.915890 -24.163267
vn -2.652841 -1.643999 0.005773
v 80.953700 74.172250 -26.201250
vn -5.341397 -3.308619 0.026849
v 80.657559 74.652469 -25.579880
vn -5.347587 -3.298568 0.027451
v 80.815110 74.409309 -24.690804
vn -2.625188 -1.608308 0.007567
v 81.277600 73.656100 -24.492450
vn -5.353015 -3.289834 -0.002358
v 80.931373 74.223974 -23.931995
vn -5.333698 -3.321097 0.013863
v 80.137744 75.507187 -21.921525
vn -5.343426 -3.305400 -0.006760
v 80.514060 74.901969 -21.434673
vn -2.677845 -1.653783 -0.010597
v 80.782700 74.465850 -21.258250
vn -5.306057 -3.364890 0.037319
v 77.194135 80.220193 -24.956643
vn -5.357815 -3.282082 0.008096
v 78.904727 77.493694 -20.673655
# 85 vertices, 0 vertices normals

f 1//1 36//36 16//16
f 37//37 38//38 39//39
f 6//6 18//18 17//17
f 40//40 41//41 42//42
f 5//5 85//85 21//21
f 38//38 43//43 70//70
f 62//62 22//22 20//20
f 45//45 46//46 47//47
f 85//85 48//48 49//49
f 36//36 50//50 51//51
f 62//62 49//49 52//52
f 45//45 53//53 54//54
f 42//42 55//55 56//56
f 57//57 58//58 8//8
f 59//59 60//60 41//41
f 68//68 61//61 50//50
f 39//39 63//63 64//64
f 65//65 66//66 67//67
f 9//9 28//28 19//19
f 1//1 29//29 69//69
f 13//13 70//70 71//71
f 5//5 21//21 15//15
f 70//70 32//32 30//30
f 75//75 72//72 61//61
f 84//84 73//73 74//74
f 1//1 16//16 29//29
f 53//53 37//37 60//60
f 12//12 75//75 84//84
f 11//11 59//59 72//72
f 54//54 74//74 57//57
f 71//71 76//76 77//77
f 51//51 40//40 48//48
f 63//63 77//77 78//78
f 78//78 79//79 80//80
f 56//56 81//81 52//52
f 43//43 23//23 32//32
f 55//55 64//64 2//2
f 81//81 67//67 82//82
f 46//46 35//35 44//44
f 15//15 36//36 5//5
f 36//36 15//15 16//16
f 3//3 37//37 39//39
f 37//37 4//4 38//38
f 39//39 38//38 13//13
f 7//7 40//40 42//42
f 40//40 10//10 41//41
f 42//42 41//41 3//3
f 85//85 20//20 21//21
f 13//13 38//38 70//70
f 38//38 4//4 43//43
f 44//44 23//23 47//47
f 47//47 23//23 43//43
f 4//4 45//45 47//47
f 45//45 8//8 46//46
f 62//62 20//20 85//85
f 85//85 5//5 48//48
f 49//49 48//48 7//7
f 5//5 36//36 51//51
f 36//36 1//1 50//50
f 51//51 50//50 10//10
f 6//6 62//62 52//52
f 52//52 49//49 7//7
f 8//8 45//45 54//54
f 45//45 4//4 53//53
f 54//54 53//53 11//11
f 7//7 42//42 56//56
f 42//42 3//3 55//55
f 56//56 55//55 14//14
f 57//57 25//25 58//58
f 8//8 58//58 24//24
f 10//10 59//59 41//41
f 59//59 11//11 60//60
f 41//41 60//60 3//3
f 4//4 47//47 43//43
f 47//47 46//46 44//44
f 1//1 68//68 50//50
f 68//68 9//9 61//61
f 50//50 61//61 10//10
f 17//17 62//62 6//6
f 62//62 17//17 22//22
f 3//3 39//39 64//64
f 39//39 13//13 63//63
f 64//64 63//63 2//2
f 14//14 65//65 67//67
f 65//65 26//26 66//66
f 67//67 66//66 27//27
f 69//69 68//68 1//1
f 9//9 68//68 28//28
f 69//69 28//28 68//68
f 32//32 70//70 43//43
f 70//70 30//30 71//71
f 31//31 71//71 30//30
f 46//46 8//8 24//24
f 46//46 24//24 35//35
f 9//9 75//75 61//61
f 75//75 12//12 72//72
f 61//61 72//72 10//10
f 12//12 84//84 74//74
f 84//84 33//33 73//73
f 74//74 73//73 25//25
f 11//11 53//53 60//60
f 53//53 4//4 37//37
f 60//60 37//37 3//3
f 19//19 75//75 9//9
f 75//75 19//19 84//84
f 12//12 11//11 72//72
f 72//72 59//59 10//10
f 8//8 54//54 57//57
f 54//54 12//12 74//74
f 57//57 74//74 25//25
f 11//11 12//12 54//54
f 13//13 71//71 77//77
f 71//71 31//31 76//76
f 77//77 76//76 34//34
f 5//5 51//51 48//48
f 51//51 10//10 40//40
f 48//48 40//40 7//7
f 2//2 63//63 78//78
f 63//63 13//13 77//77
f 78//78 77//77 34//34
f 2//2 78//78 80//80
f 78//78 34//34 79//79
f 80//80 79//79 26//26
f 7//7 56//56 52//52
f 56//56 14//14 81//81
f 52//52 81//81 6//6
f 14//14 55//55 2//2
f 55//55 3//3 64//64
f 6//6 81//81 82//82
f 81//81 14//14 67//67
f 82//82 67//67 27//27
f 83//83 82//82 27//27
f 14//14 2//2 65//65
f 65//65 2//2 80//80
f 65//65 80//80 26//26
f 6//6 82//82 18//18
f 83//83 18//18 82//82
f 33//33 84//84 19//19
f 62//62 85//85 49//49
# 139 faces, 0 coords texture

# End of File
