####
#
# OBJ File Generated by Meshlab
#
####
# Object 2584_C150_S_8.obj
#
# Vertices: 79
# Faces: 129
#
####
vn 5.320021 -3.341611 -0.092934
v -82.355288 70.325307 -36.847458
vn 5.339823 -3.309722 -0.101895
v -83.063067 69.144343 -35.363569
vn 5.323111 -3.336173 -0.112142
v -81.988304 70.800502 -33.155720
vn 5.306782 -3.362925 -0.084071
v -81.550873 71.545229 -35.116491
vn 5.301109 -3.372485 -0.053978
v -79.818154 74.319978 -37.165942
vn 5.311437 -3.355937 -0.067901
v -80.429382 73.320822 -35.221505
vn 5.336990 -3.313742 -0.116061
v -82.550463 69.909645 -33.388429
vn 5.290499 -3.389024 -0.059432
v -80.533229 73.231615 -39.028416
vn 5.286609 -3.394986 -0.065015
v -81.122453 72.328356 -39.815958
vn 5.297781 -3.377190 -0.078651
v -81.109503 72.301731 -37.329175
vn 5.315507 -3.349156 -0.082053
v -80.851294 72.618299 -33.504378
vn 5.320195 -3.342092 -0.065847
v -79.595301 74.618447 -33.785455
vn 2.468448 -1.586201 -0.027140
v -80.445000 73.394500 -40.520600
vn 2.273375 -1.459462 -0.030145
v -81.077300 72.418300 -40.732800
vn 2.580898 -1.656481 -0.027125
v -81.746000 71.366100 -40.402000
vn 2.364134 -1.506856 -0.025736
v -82.058500 70.876900 -40.200500
vn 2.291672 -1.437301 -0.045679
v -81.034200 72.273600 -31.727300
vn 2.288432 -1.452870 -0.017890
v -78.785850 75.930050 -35.997900
vn 2.395416 -1.510536 -0.023187
v -79.076400 75.452000 -34.166800
vn 2.323737 -1.445191 -0.042466
v -83.249200 68.906000 -37.448700
vn 2.223426 -1.376655 -0.043943
v -83.344650 68.688100 -35.317850
vn 2.266864 -1.401261 -0.051385
v -82.763550 69.552950 -33.061800
vn 2.405451 -1.510440 -0.035408
v -79.917800 74.078200 -32.476550
vn 2.283212 -1.426073 -0.054114
v -81.963600 70.796200 -32.007600
vn 2.352574 -1.471750 -0.037641
v -82.802150 69.671200 -39.047300
vn 2.657245 -1.657850 -0.063420
v -82.428700 70.075400 -32.614400
vn 2.278741 -1.451730 -0.023899
v -79.474311 74.899107 -39.553625
vn 2.290376 -1.457247 -0.021442
v -78.947300 75.701600 -38.036500
vn 2.415912 -1.516332 -0.028766
v -79.402300 74.916450 -33.263900
vn 5.322474 -3.337666 -0.093101
v -82.374813 70.265922 -35.810660
vn 5.336096 -3.315737 -0.100622
v -82.660874 69.784469 -35.067235
vn 5.313371 -3.352368 -0.089814
v -81.771278 71.173390 -34.135166
vn 5.312710 -3.353240 -0.094069
v -82.120714 70.645961 -35.003290
vn 5.291404 -3.387551 -0.060748
v -81.779246 71.299698 -39.417890
vn 5.316937 -3.346622 -0.092535
v -81.335762 71.844942 -33.344359
vn 5.319814 -3.341887 -0.098612
v -80.894585 72.524976 -32.681443
vn 5.322234 -3.337550 -0.112796
v -81.421696 71.681200 -32.455682
vn 5.306259 -3.364548 -0.042953
v -79.329687 75.067601 -35.542290
vn 2.652209 -1.680818 -0.018761
v -78.931350 75.690600 -35.078200
vn 5.290531 -3.388972 -0.058985
v -80.702528 72.951124 -38.142522
vn 5.285240 -3.397157 -0.063069
v -81.280635 72.063334 -38.785572
vn 5.333550 -3.320013 -0.095705
v -82.868086 69.510139 -37.154050
vn 2.657388 -1.656197 -0.048547
v -83.037200 69.269350 -38.216900
vn 5.305274 -3.365722 -0.061676
v -80.173849 73.741096 -36.189045
vn 5.309473 -3.359398 -0.047351
v -79.701805 74.489039 -36.102890
vn 5.315218 -3.350199 -0.053562
v -79.868024 74.213356 -35.236564
vn 5.328494 -3.327797 -0.103049
v -82.385238 70.198759 -34.107558
vn 2.611617 -1.614754 -0.052660
v -83.056250 69.113400 -34.101050
vn 5.296169 -3.380217 -0.055872
v -79.998079 74.070187 -39.138200
vn 5.295465 -3.381325 -0.055488
v -80.156139 73.806056 -38.149366
vn 5.304319 -3.366646 -0.091170
v -81.918853 70.989846 -36.006810
vn 5.301828 -3.370778 -0.081898
v -80.763790 72.818632 -36.245292
vn 5.309548 -3.358672 -0.079468
v -80.986607 72.439178 -35.213205
vn 5.306303 -3.363509 -0.091480
v -81.348256 71.893913 -36.181454
vn 5.303602 -3.368726 -0.043615
v -79.302110 75.124633 -36.566604
vn 5.336440 -3.315417 -0.093853
v -82.785403 69.612352 -36.110328
vn 2.694244 -1.674216 -0.049396
v -83.293000 68.801225 -36.284775
vn 5.294576 -3.382542 -0.064479
v -80.451433 73.329480 -37.211212
vn 5.304004 -3.366956 -0.097668
v -81.757130 71.275505 -37.120250
vn 5.318729 -3.343643 -0.095568
v -82.271910 70.485849 -37.855738
vn 5.319044 -3.343634 -0.078190
v -80.375010 73.367298 -33.176866
vn 2.592804 -1.623197 -0.045190
v -80.560250 73.039900 -31.997650
vn 2.644467 -1.653465 -0.060667
v -81.348525 71.774650 -31.813125
vn 5.286788 -3.394777 -0.061010
v -80.567225 73.193239 -39.874496
vn 5.313776 -3.352038 -0.072904
v -82.188361 70.647977 -38.960607
vn 5.313259 -3.353089 -0.066711
v -80.628038 72.986495 -34.245340
vn 5.312587 -3.354009 -0.073645
v -81.179824 72.113752 -34.246929
vn 2.496063 -1.595316 -0.026302
v -80.033900 74.031625 -40.210875
vn 5.298913 -3.375922 -0.055513
v -79.650901 74.602823 -38.394384
vn 2.649507 -1.687615 -0.027676
v -79.208600 75.303700 -38.788850
vn 5.301322 -3.372234 -0.048793
v -79.308247 75.128612 -37.650306
vn 2.649926 -1.683558 -0.021200
v -78.866350 75.816250 -37.021350
vn 2.642310 -1.658359 -0.029824
v -82.418800 70.293300 -39.655000
vn 5.317875 -3.345780 -0.066103
v -80.107622 73.809877 -34.097430
vn 5.314621 -3.351091 -0.054931
v -79.476942 74.823407 -34.565234
vn 5.318976 -3.343995 -0.067812
v -79.885930 74.147166 -33.332259
vn 5.292110 -3.386030 -0.079673
v -81.334300 71.963198 -37.893009
vn 5.286154 -3.395758 -0.061834
v -80.907948 72.649954 -39.151398
vn 5.299130 -3.374808 -0.083812
v -81.802885 71.242547 -38.343107
# 79 vertices, 0 vertices normals

f 30//30 31//31 56//56
f 35//35 36//36 37//37
f 38//38 39//39 75//75
f 40//40 41//41 78//78
f 42//42 43//43 60//60
f 44//44 45//45 46//46
f 47//47 32//32 3//3
f 47//47 48//48 31//31
f 30//30 51//51 33//33
f 52//52 53//53 54//54
f 45//45 55//55 38//38
f 2//2 21//21 57//57
f 56//56 57//57 42//42
f 44//44 52//52 58//58
f 50//50 58//58 40//40
f 66//66 67//67 53//53
f 67//67 35//35 32//32
f 7//7 26//26 22//22
f 69//69 70//70 71//71
f 51//51 59//59 54//54
f 71//71 72//72 55//55
f 7//7 3//3 26//26
f 12//12 29//29 76//76
f 75//75 74//74 46//46
f 1//1 30//30 56//56
f 30//30 33//33 31//31
f 56//56 31//31 2//2
f 64//64 14//14 13//13
f 32//32 33//33 4//4
f 15//15 9//9 34//34
f 3//3 35//35 37//37
f 35//35 11//11 36//36
f 37//37 36//36 17//17
f 63//63 37//37 17//17
f 46//46 38//38 75//75
f 38//38 18//18 39//39
f 75//75 39//39 19//19
f 40//40 10//10 77//77
f 1//1 42//42 60//60
f 42//42 20//20 43//43
f 60//60 43//43 25//25
f 6//6 44//44 46//46
f 44//44 5//5 45//45
f 7//7 47//47 3//3
f 47//47 33//33 32//32
f 33//33 47//47 31//31
f 47//47 7//7 48//48
f 31//31 48//48 2//2
f 22//22 48//48 7//7
f 48//48 21//21 2//2
f 50//50 69//69 5//5
f 30//30 1//1 51//51
f 33//33 51//51 4//4
f 10//10 52//52 54//54
f 52//52 6//6 53//53
f 54//54 53//53 4//4
f 46//46 45//45 38//38
f 45//45 5//5 55//55
f 38//38 55//55 18//18
f 57//57 56//56 2//2
f 1//1 56//56 42//42
f 42//42 57//57 20//20
f 5//5 44//44 58//58
f 44//44 6//6 52//52
f 58//58 52//52 10//10
f 65//65 79//79 60//60
f 79//79 77//77 59//59
f 9//9 15//15 14//14
f 11//11 61//61 36//36
f 61//61 23//23 62//62
f 36//36 62//62 17//17
f 3//3 37//37 24//24
f 63//63 24//24 37//37
f 68//68 64//64 13//13
f 8//8 50//50 40//40
f 50//50 5//5 58//58
f 40//40 58//58 10//10
f 34//34 79//79 65//65
f 6//6 66//66 53//53
f 66//66 11//11 67//67
f 53//53 67//67 4//4
f 4//4 67//67 32//32
f 67//67 11//11 35//35
f 32//32 35//35 3//3
f 68//68 8//8 64//64
f 49//49 8//8 68//68
f 68//68 27//27 49//49
f 27//27 69//69 49//49
f 5//5 69//69 71//71
f 69//69 27//27 70//70
f 71//71 70//70 28//28
f 4//4 51//51 54//54
f 51//51 1//1 59//59
f 54//54 59//59 10//10
f 5//5 71//71 55//55
f 71//71 28//28 72//72
f 55//55 72//72 18//18
f 65//65 25//25 73//73
f 61//61 11//11 66//66
f 74//74 66//66 6//6
f 3//3 24//24 26//26
f 75//75 12//12 74//74
f 46//46 74//74 6//6
f 49//49 69//69 50//50
f 15//15 34//34 16//16
f 8//8 49//49 50//50
f 36//36 61//61 62//62
f 12//12 76//76 74//74
f 29//29 12//12 19//19
f 12//12 75//75 19//19
f 76//76 29//29 23//23
f 61//61 76//76 23//23
f 76//76 61//61 74//74
f 65//65 60//60 25//25
f 34//34 65//65 16//16
f 16//16 65//65 73//73
f 9//9 41//41 34//34
f 74//74 61//61 66//66
f 9//9 14//14 64//64
f 40//40 78//78 8//8
f 40//40 77//77 41//41
f 9//9 78//78 41//41
f 77//77 10//10 59//59
f 60//60 79//79 59//59
f 8//8 78//78 64//64
f 9//9 64//64 78//78
f 41//41 77//77 79//79
f 41//41 79//79 34//34
f 60//60 59//59 1//1
# 129 faces, 0 coords texture

# End of File
