####
#
# OBJ File Generated by Meshlab
#
####
# Object 25_C39_M_5.obj
#
# Vertices: 140
# Faces: 238
#
####
vn -1.525446 -6.094938 0.041810
v 10.241218 40.855387 -44.471632
vn -1.054507 -6.187179 -0.079154
v 7.164518 41.541506 -46.283327
vn -0.708200 -6.238312 -0.066112
v 5.313370 41.744655 -42.651954
vn -0.502799 -6.261350 -0.019621
v 4.755348 41.828555 -46.601358
vn -0.784498 -6.231439 0.023490
v 6.093008 41.690175 -48.475621
vn -0.449628 -3.104730 -0.058508
v 6.582200 41.638900 -50.000000
vn -0.553725 -3.092218 -0.007867
v 7.537100 41.464900 -50.000000
vn -0.714042 -2.840617 -0.011189
v 10.995200 40.653700 -46.333600
vn -1.442141 -6.114843 -0.050082
v 9.194823 41.107286 -47.001513
vn -0.563274 -6.255555 -0.074002
v 5.210778 41.708391 -40.133449
vn -0.292354 -6.271036 -0.147634
v 3.384976 41.879602 -41.755352
vn -0.310357 -6.272596 -0.041849
v 3.393250 41.911351 -44.047712
vn -0.686485 -6.239884 -0.077098
v 5.285018 41.776311 -44.885900
vn -1.002763 -3.905696 -0.027822
v 10.834700 40.729000 -42.573400
vn -0.797291 -1.914942 0.012627
v 11.132400 40.603100 -42.869400
vn -0.893868 -3.287054 0.034710
v 10.927600 40.682400 -43.774600
vn -1.246051 -6.153129 -0.043320
v 8.277275 41.342587 -48.263785
vn -0.387489 -1.666617 0.006827
v 10.774400 40.715000 -38.000000
vn -0.090549 -3.139239 -0.003121
v 3.320470 41.912300 -50.000000
vn -1.059103 -6.188480 -0.001680
v 7.236543 41.468096 -41.569547
vn -0.148880 -3.161377 -0.023749
v 4.280670 41.755900 -37.987900
vn -0.058598 -2.955514 0.019403
v 1.438880 41.943200 -48.005000
vn -1.016149 -6.191734 0.032254
v 7.344528 41.466194 -39.487831
vn -0.697827 -3.059015 -0.006109
v 9.742380 40.955000 -37.986600
vn -0.632584 -2.871128 0.009914
v 11.016200 40.650800 -39.948400
vn -0.759086 -3.154651 -0.049915
v 10.780600 40.756900 -48.914200
vn -0.777969 -3.198459 -0.050111
v 10.825300 40.711200 -47.293700
vn -1.323712 -6.139596 -0.007487
v 9.098547 41.055599 -40.852500
vn -0.286138 -3.092080 -0.004633
v 5.520400 41.677500 -37.952800
vn -0.073329 -3.135506 0.008084
v 1.547760 41.953800 -45.741200
vn -0.292357 -6.275695 -0.001599
v 3.635201 41.892669 -46.255009
vn -0.061643 -3.167669 -0.042163
v 1.678870 41.944800 -43.272800
vn -0.237615 -3.131957 0.003702
v 4.266200 41.862300 -50.000000
vn -0.517278 -3.093502 0.006730
v 7.526580 41.431000 -37.966800
vn -0.054917 -3.185928 -0.092182
v 1.736510 41.884100 -41.010800
vn -0.734761 -3.051262 -0.044596
v 9.757170 41.032600 -50.000000
vn -0.380383 -1.451320 -0.008437
v 10.853900 40.734400 -50.000000
vn -0.069142 -3.145429 -0.069251
v 1.701280 41.839700 -39.307600
vn -0.034804 -1.549296 -0.029500
v 1.667430 41.816300 -38.000000
vn -0.017835 -1.708310 0.006597
v 1.714480 41.922400 -49.999600
vn -1.045307 -6.194336 -0.085221
v 7.307142 41.433316 -43.883040
vn -0.134215 -6.281671 0.016491
v 2.536865 41.921590 -47.999942
vn -0.210000 -6.277506 -0.148205
v 3.078720 41.817371 -39.679495
vn -1.147049 -6.176758 -0.074323
v 8.700628 41.182462 -44.030597
vn -1.162799 -6.172480 -0.157787
v 8.111686 41.304221 -44.564280
vn -1.284131 -6.148707 -0.071935
v 8.926995 41.161888 -45.014657
vn -0.759262 -6.236904 -0.026310
v 5.952102 41.698838 -46.524474
vn -0.650309 -6.247594 0.006451
v 5.520217 41.757919 -47.491055
vn -0.892873 -6.218298 0.015715
v 6.623721 41.618006 -47.398298
vn -0.994135 -6.203444 -0.059664
v 6.907803 41.563655 -49.215042
vn -0.729723 -6.238984 -0.023215
v 6.081377 41.688945 -49.362870
vn -0.777566 -3.043807 0.015222
v 10.961400 40.668050 -45.054100
vn -1.527437 -6.094557 0.034565
v 10.397304 40.809786 -45.462529
vn -0.772696 -6.234720 -0.049471
v 6.259618 41.585707 -40.885932
vn -0.656244 -6.245578 -0.116877
v 5.274258 41.726308 -41.450064
vn -0.879277 -6.220230 -0.026390
v 6.291258 41.604475 -42.055270
vn -0.437916 -6.265109 -0.169663
v 4.265124 41.797307 -40.980996
vn -0.484947 -6.263617 -0.100594
v 4.322741 41.814050 -42.165784
vn -0.871659 -6.219692 -0.132438
v 6.201298 41.661639 -45.483448
vn -0.621830 -6.249656 -0.017398
v 5.268370 41.782113 -45.832366
vn -1.518112 -6.094898 -0.139404
v 9.981737 40.959288 -49.363342
vn -1.483237 -6.104527 -0.103488
v 9.148690 41.125633 -48.044384
vn -1.340552 -6.135372 -0.047712
v 9.170885 41.154849 -49.356502
vn -0.600418 -3.083440 0.038744
v 8.647135 41.248750 -50.000000
vn -1.103419 -6.184500 0.035680
v 7.937886 41.397341 -49.165658
vn -0.993199 -6.204029 0.032132
v 7.242005 41.509340 -48.306529
vn -0.128714 -6.281337 -0.010309
v 3.004573 41.915082 -49.014591
vn -0.290252 -6.275359 -0.007500
v 3.689769 41.891514 -48.073292
vn -0.348335 -6.271387 -0.123448
v 4.062205 41.769066 -39.865752
vn -0.251908 -6.272718 -0.222217
v 3.301561 41.844777 -40.658739
vn -0.085804 -6.282376 0.031193
v 2.121272 41.922033 -48.994869
vn -0.062425 -3.140880 0.024128
v 1.576680 41.932800 -49.002300
vn -0.975518 -6.204440 -0.155672
v 6.305678 41.603184 -44.360554
vn -1.065595 -6.187052 -0.214587
v 7.236014 41.487897 -45.036603
vn -1.040500 -6.187738 0.045395
v 7.265395 41.470609 -40.499716
vn -0.714741 -6.242371 0.018310
v 6.333828 41.580649 -39.809735
vn -0.651646 -3.073166 -0.024105
v 8.634480 41.193000 -37.976700
vn -1.346930 -6.136043 0.014811
v 9.130870 41.096517 -38.823465
vn -0.717239 -3.058039 -0.059475
v 10.802950 40.734050 -48.103950
vn -1.411848 -6.121669 0.068447
v 9.928780 40.909764 -39.299283
vn -1.339917 -6.136431 0.148098
v 9.129303 41.080290 -39.812557
vn -0.389159 -6.270730 -0.015665
v 4.721267 41.733128 -38.983891
vn -0.613926 -6.252320 -0.001551
v 5.604994 41.665132 -39.117107
vn -0.063571 -3.140899 0.017764
v 1.493320 41.948500 -46.873100
vn -0.145976 -6.281401 0.026090
v 2.094289 41.936013 -46.930298
vn -1.164631 -6.170960 -0.035521
v 7.694425 41.446459 -47.362533
vn -0.145392 -6.281076 -0.052893
v 2.506352 41.930604 -43.674235
vn -0.324111 -6.272332 -0.088904
v 3.395309 41.895030 -42.901483
vn -0.127449 -6.280345 -0.127892
v 2.527381 41.912958 -42.514933
vn -0.756994 -6.231689 -0.079574
v 5.315089 41.757648 -43.790383
vn -0.484689 -6.263871 -0.085574
v 4.330721 41.829845 -43.322530
vn -0.466339 -6.265437 -0.041097
v 4.334679 41.845136 -44.439115
vn -1.513624 -6.097959 -0.016438
v 10.025407 40.896989 -46.379844
vn -1.400245 -6.124159 -0.005687
v 9.076289 41.133815 -46.022771
vn -0.748997 -6.238101 -0.021898
v 6.462720 41.568427 -38.803270
vn -0.397936 -6.268378 -0.022818
v 4.045076 41.878430 -49.088782
vn -0.588185 -6.255564 0.007114
v 5.162856 41.777825 -49.208778
vn -0.532655 -6.260349 0.026251
v 4.894921 41.803539 -48.314664
vn -0.387381 -6.269708 0.022459
v 4.231279 41.865128 -47.326077
vn -0.058656 -3.141035 -0.008054
v 1.613315 41.949300 -44.507000
vn -0.147662 -6.281335 0.005786
v 2.501794 41.933520 -44.853038
vn -1.474755 -6.107122 -0.073525
v 9.957944 40.923886 -47.549769
vn -1.395023 -6.124836 -0.118861
v 8.557577 41.260999 -47.463554
vn -0.043202 -3.140201 -0.082905
v 1.707690 41.914450 -42.141800
vn -0.101101 -6.279544 -0.186407
v 2.521554 41.883723 -41.398581
vn -1.212958 -6.164319 -0.045469
v 9.026438 41.120980 -43.135764
vn -1.434208 -6.117268 0.017131
v 10.460657 40.784446 -38.854176
vn -0.711440 -3.059951 0.012535
v 10.895300 40.682900 -38.974200
vn -0.021046 -3.141518 0.004815
v 2.517475 41.917350 -49.999800
vn -0.071669 -3.139649 -0.084090
v 1.718895 41.861900 -40.159200
vn -0.127106 -6.279022 -0.188761
v 2.455253 41.851527 -40.392824
vn -0.141827 -6.279692 -0.153105
v 2.320663 41.833965 -39.636994
vn -0.301492 -3.127082 0.008151
v 5.424200 41.750600 -50.000000
vn -0.624900 -3.078433 -0.048501
v 10.925450 40.689900 -41.260900
vn -1.291298 -6.147291 -0.135680
v 9.955957 40.892196 -41.609721
vn -0.229433 -6.277819 -0.067415
v 3.632753 41.788205 -38.875011
vn -0.390094 -3.117219 -0.018547
v 6.523490 41.554250 -37.959800
vn -0.193329 -6.280131 0.010307
v 3.045755 41.910559 -47.073690
vn -1.329185 -6.140118 -0.065645
v 8.297340 41.297808 -46.624038
vn -1.418570 -6.118932 -0.004328
v 10.097084 40.901247 -43.420058
vn -1.308930 -6.143875 -0.119303
v 9.763620 40.960437 -42.543888
vn -0.972781 -6.206866 -0.002723
v 6.333775 41.584548 -43.220254
vn -1.251339 -6.155589 -0.096484
v 8.137581 41.332260 -45.638391
vn -1.287563 -6.147916 -0.136951
v 8.995840 41.110637 -41.943622
vn -1.331108 -6.139652 -0.039364
v 8.157637 41.265853 -41.192764
vn -1.204738 -6.165946 -0.024848
v 8.101837 41.297546 -42.340192
vn -0.427131 -6.268507 -0.025424
v 4.398326 41.839303 -45.521711
vn -0.302865 -6.274471 0.018818
v 3.446449 41.905861 -45.169898
vn -1.040158 -6.195409 0.059346
v 7.274819 41.447982 -42.721925
vn -1.335184 -6.138183 0.116767
v 8.218362 41.261577 -40.146986
vn -0.141171 -6.280364 -0.124496
v 2.555152 41.813189 -38.883962
vn -0.175189 -6.280685 0.024613
v 2.660962 41.923806 -45.994204
vn -0.072294 -3.140158 -0.061551
v 2.974050 41.786100 -37.993950
vn -1.460457 -6.108928 -0.144024
v 9.910776 40.949373 -48.536139
vn -1.472530 -6.108062 0.024024
v 9.716019 40.978527 -45.264100
vn -1.320871 -6.140328 -0.017582
v 9.469888 41.044279 -44.255030
vn -1.313002 -6.142826 0.025432
v 10.043788 40.856468 -40.473681
vn -1.293929 -6.147420 0.056271
v 8.280270 41.275846 -39.114500
vn -1.131944 -6.180163 -0.009729
v 8.074788 41.295334 -43.500634
vn -1.058581 -6.188601 -0.023494
v 7.546003 41.426535 -38.526097
# 140 vertices, 0 vertices normals

f 136//136 44//44 46//46
f 47//47 48//48 49//49
f 5//5 51//51 50//50
f 8//8 52//52 53//53
f 54//54 55//55 56//56
f 57//57 58//58 55//55
f 59//59 60//60 47//47
f 15//15 14//14 16//16
f 61//61 134//134 63//63
f 64//64 63//63 65//65
f 66//66 50//50 65//65
f 67//67 96//96 68//68
f 57//57 69//69 70//70
f 40//40 71//71 72//72
f 73//73 59//59 74//74
f 54//54 75//75 76//76
f 77//77 138//138 78//78
f 79//79 27//27 102//102
f 80//80 81//81 137//137
f 10//10 83//83 82//82
f 30//30 84//84 85//85
f 66//66 86//86 49//49
f 87//87 88//88 89//89
f 90//90 91//91 92//92
f 83//83 76//76 95//95
f 96//96 97//97 98//98
f 48//48 99//99 98//98
f 100//100 101//101 87//87
f 9//9 62//62 102//102
f 104//104 89//89 105//105
f 9//9 102//102 93//93
f 37//37 26//26 61//61
f 107//107 25//25 108//108
f 109//109 67//67 71//71
f 110//110 111//111 112//112
f 113//113 51//51 97//97
f 82//82 116//116 69//69
f 117//117 95//95 140//140
f 118//118 68//68 99//99
f 103//103 119//119 86//86
f 88//88 91//91 58//58
f 1//1 16//16 120//120
f 106//106 120//120 121//121
f 90//90 73//73 122//122
f 45//45 74//74 123//123
f 124//124 125//125 126//126
f 94//94 123//123 119//119
f 127//127 4//4 60//60
f 128//128 127//127 92//92
f 122//122 129//129 56//56
f 130//130 75//75 125//125
f 46//46 94//94 135//135
f 43//43 131//131 112//112
f 101//101 132//132 128//128
f 111//111 105//105 70//70
f 115//115 124//124 121//121
f 131//131 116//116 133//133
f 118//118 132//132 85//85
f 2//2 47//47 49//49
f 47//47 4//4 48//48
f 49//49 48//48 5//5
f 6//6 50//50 51//51
f 50//50 6//6 7//7
f 52//52 16//16 1//1
f 20//20 54//54 56//56
f 54//54 10//10 55//55
f 56//56 55//55 3//3
f 10//10 57//57 55//55
f 57//57 11//11 58//58
f 55//55 58//58 3//3
f 2//2 59//59 47//47
f 59//59 13//13 60//60
f 47//47 60//60 4//4
f 7//7 64//64 65//65
f 64//64 36//36 63//63
f 17//17 66//66 65//65
f 66//66 5//5 50//50
f 65//65 50//50 7//7
f 42//42 67//67 68//68
f 67//67 19//19 96//96
f 11//11 57//57 70//70
f 57//57 10//10 69//69
f 70//70 69//69 43//43
f 71//71 22//22 72//72
f 22//22 71//71 42//42
f 41//41 73//73 74//74
f 73//73 13//13 59//59
f 74//74 59//59 2//2
f 10//10 54//54 76//76
f 54//54 20//20 75//75
f 76//76 75//75 23//23
f 24//24 77//77 78//78
f 77//77 34//34 140//140
f 26//26 79//79 134//134
f 102//102 134//134 79//79
f 80//80 78//78 81//81
f 29//29 82//82 83//83
f 82//82 29//29 21//21
f 84//84 22//22 85//85
f 42//42 85//85 22//22
f 5//5 66//66 49//49
f 66//66 17//17 86//86
f 49//49 86//86 2//2
f 32//32 87//87 89//89
f 87//87 12//12 88//88
f 89//89 88//88 11//11
f 13//13 90//90 92//92
f 90//90 3//3 91//91
f 92//92 91//91 12//12
f 9//9 93//93 94//94
f 94//94 93//93 135//135
f 29//29 83//83 95//95
f 83//83 10//10 76//76
f 95//95 76//76 23//23
f 68//68 96//96 98//98
f 96//96 33//33 97//97
f 98//98 97//97 5//5
f 5//5 48//48 98//98
f 48//48 4//4 99//99
f 98//98 99//99 68//68
f 32//32 100//100 87//87
f 100//100 30//30 101//101
f 87//87 101//101 12//12
f 9//9 103//103 62//62
f 103//103 17//17 62//62
f 102//102 62//62 134//134
f 35//35 104//104 105//105
f 104//104 32//32 89//89
f 105//105 89//89 11//11
f 129//129 139//139 126//126
f 44//44 136//136 106//106
f 27//27 93//93 102//102
f 93//93 27//27 8//8
f 134//134 61//61 26//26
f 37//37 61//61 36//36
f 80//80 137//137 25//25
f 24//24 107//107 18//18
f 108//108 18//18 107//107
f 40//40 109//109 71//71
f 109//109 19//19 67//67
f 71//71 67//67 42//42
f 38//38 110//110 112//112
f 110//110 35//35 111//111
f 112//112 111//111 43//43
f 33//33 113//113 97//97
f 113//113 6//6 51//51
f 97//97 51//51 5//5
f 14//14 114//114 115//115
f 114//114 25//25 137//137
f 10//10 82//82 69//69
f 82//82 21//21 116//116
f 69//69 116//116 43//43
f 34//34 117//117 140//140
f 117//117 29//29 95//95
f 140//140 95//95 23//23
f 31//31 118//118 99//99
f 118//118 42//42 68//68
f 17//17 103//103 86//86
f 103//103 9//9 119//119
f 86//86 119//119 2//2
f 11//11 88//88 58//58
f 88//88 12//12 91//91
f 58//58 91//91 3//3
f 120//120 16//16 14//14
f 19//19 33//33 96//96
f 120//120 136//136 1//1
f 121//121 120//120 14//14
f 3//3 90//90 122//122
f 90//90 13//13 73//73
f 122//122 73//73 41//41
f 46//46 45//45 123//123
f 45//45 41//41 74//74
f 123//123 74//74 2//2
f 124//124 28//28 125//125
f 126//126 125//125 20//20
f 9//9 94//94 119//119
f 94//94 46//46 123//123
f 119//119 123//123 2//2
f 13//13 127//127 60//60
f 127//127 31//31 4//4
f 12//12 128//128 92//92
f 128//128 31//31 127//127
f 92//92 127//127 13//13
f 3//3 122//122 56//56
f 122//122 41//41 129//129
f 56//56 129//129 20//20
f 124//124 126//126 106//106
f 126//126 20//20 129//129
f 45//45 139//139 41//41
f 140//140 23//23 138//138
f 28//28 130//130 125//125
f 130//130 23//23 75//75
f 125//125 75//75 20//20
f 136//136 46//46 135//135
f 39//39 38//38 131//131
f 112//112 131//131 38//38
f 12//12 101//101 128//128
f 101//101 30//30 132//132
f 128//128 132//132 31//31
f 43//43 111//111 70//70
f 111//111 35//35 105//105
f 70//70 105//105 11//11
f 14//14 115//115 121//121
f 115//115 28//28 124//124
f 23//23 130//130 138//138
f 130//130 28//28 81//81
f 39//39 131//131 133//133
f 131//131 43//43 116//116
f 133//133 116//116 21//21
f 31//31 99//99 4//4
f 42//42 118//118 85//85
f 118//118 31//31 132//132
f 85//85 132//132 30//30
f 134//134 62//62 63//63
f 80//80 107//107 24//24
f 52//52 1//1 53//53
f 53//53 93//93 8//8
f 135//135 93//93 53//53
f 45//45 46//46 44//44
f 106//106 136//136 120//120
f 80//80 25//25 107//107
f 1//1 135//135 53//53
f 135//135 1//1 136//136
f 114//114 137//137 115//115
f 138//138 77//77 140//140
f 137//137 81//81 28//28
f 115//115 137//137 28//28
f 124//124 106//106 121//121
f 130//130 81//81 138//138
f 78//78 138//138 81//81
f 139//139 106//106 126//126
f 106//106 139//139 44//44
f 139//139 129//129 41//41
f 44//44 139//139 45//45
f 78//78 80//80 24//24
f 63//63 62//62 17//17
f 65//65 63//63 17//17
f 63//63 36//36 61//61
# 238 faces, 0 coords texture

# End of File
