####
#
# OBJ File Generated by Meshlab
#
####
# Object 2601_C152_S_3.obj
#
# Vertices: 80
# Faces: 131
#
####
vn -5.251385 -3.449310 -0.059476
v 82.736475 72.707601 37.796245
vn -5.261890 -3.433396 -0.048622
v 82.738079 72.742776 35.749017
vn -5.247719 -3.454589 -0.072844
v 81.776018 74.160441 38.583820
vn -5.253813 -3.445098 -0.083803
v 80.833854 75.615609 37.417791
vn -5.254850 -3.443757 -0.067100
v 83.632338 71.326005 39.272411
vn -5.270741 -3.419884 -0.041157
v 84.494125 70.018470 38.219240
vn -5.249000 -3.452657 -0.074405
v 82.703369 72.719600 39.930926
vn -5.264559 -3.429365 -0.034999
v 83.713633 71.234772 37.040730
vn -5.251755 -3.448219 -0.085225
v 83.467866 71.523004 41.348977
vn -5.241179 -3.464116 -0.090278
v 80.863083 75.515908 39.472751
vn -5.255995 -3.442152 -0.066955
v 81.753928 74.230616 36.502224
vn -5.283705 -3.400075 -0.006761
v 83.632592 71.367669 35.050122
vn -5.250574 -3.449814 -0.091350
v 82.552214 72.908419 41.785571
vn -2.183053 -1.396979 0.004851
v 83.959400 70.854300 34.389200
vn -2.328574 -1.546887 -0.037424
v 81.068200 75.164800 41.230800
vn -2.268737 -1.473897 -0.015611
v 84.945200 69.322200 38.336450
vn -2.646640 -1.729581 -0.039745
v 80.739500 75.784300 36.352800
vn -2.336457 -1.527362 -0.034489
v 80.882400 75.578700 35.809000
vn -2.531255 -1.663624 -0.046883
v 80.483800 76.106300 39.005300
vn -2.281844 -1.505145 -0.041431
v 80.535000 76.006500 39.719500
vn -2.199041 -1.422273 -0.014093
v 82.907600 72.504200 33.806700
vn -2.602761 -1.694075 -0.017705
v 82.316300 73.409400 34.068200
vn -2.201307 -1.421096 -0.003935
v 84.727400 69.670600 35.974600
vn -2.350762 -1.533642 -0.041746
v 80.512000 76.115400 37.180700
vn -2.493077 -1.634926 -0.046984
v 80.469500 76.162800 37.715200
vn -2.637035 -1.722594 -0.033953
v 81.198300 75.106900 35.236600
vn -2.310410 -1.507027 -0.032165
v 84.568600 69.867800 40.247350
vn -2.577559 -1.710638 -0.041297
v 80.832400 75.534800 40.603600
vn -2.441336 -1.611179 -0.042324
v 82.018700 73.706400 42.217300
vn -2.268909 -1.489573 -0.045521
v 82.602000 72.813100 42.423200
vn -2.191458 -1.430279 -0.022611
v 81.644450 74.438550 34.412750
vn -2.242780 -1.474537 -0.038611
v 83.571700 71.348100 42.012500
vn -2.544915 -1.671824 -0.041491
v 83.686700 71.177800 41.845500
vn -5.237323 -3.470036 -0.087378
v 81.291831 74.880068 39.024012
vn -5.245639 -3.457648 -0.077268
v 81.286741 74.916491 37.970308
vn -5.281307 -3.403679 -0.029303
v 83.200667 72.041027 34.668588
vn -2.638819 -1.687395 -0.004507
v 83.505550 71.567400 34.132650
vn -2.445624 -1.620088 -0.040160
v 81.536950 74.444275 41.837550
vn -5.238671 -3.468110 -0.082701
v 81.657189 74.289664 40.755018
vn -5.252739 -3.447038 -0.070385
v 82.255524 73.416620 39.232790
vn -5.256311 -3.441790 -0.060712
v 82.257149 73.433185 38.174699
vn -5.249017 -3.452856 -0.061977
v 82.730540 72.697709 38.864975
vn -5.241445 -3.463972 -0.080052
v 81.751623 74.172797 39.656163
vn -5.233871 -3.475382 -0.082008
v 81.235994 74.938769 40.128479
vn -5.254103 -3.445166 -0.060284
v 81.761881 74.200568 37.536839
vn -5.255669 -3.442758 -0.061410
v 82.249319 73.462948 37.139937
vn -5.254587 -3.444231 -0.069989
v 81.264772 74.968617 36.913941
vn -5.261947 -3.433293 -0.050474
v 82.218683 73.549395 35.039258
vn -5.269181 -3.422365 -0.038812
v 82.701959 72.808620 34.869503
vn -5.272066 -3.417893 -0.036259
v 84.145066 70.562894 37.671940
vn -5.278475 -3.408182 -0.020285
v 84.594726 69.870297 36.984892
vn -2.585441 -1.671627 -0.009308
v 84.845500 69.481850 37.036750
vn -5.260285 -3.435899 -0.039536
v 83.231768 71.979538 36.400772
vn -5.272793 -3.416898 -0.027952
v 83.170199 72.079510 35.418097
vn -5.274066 -3.415033 -0.013115
v 83.700401 71.259099 36.015547
vn -5.243803 -3.460506 -0.075201
v 83.167226 72.023271 39.630519
vn -5.244479 -3.459869 -0.055657
v 83.196764 71.998284 38.527377
vn -5.248753 -3.453377 -0.056167
v 83.222472 71.974984 37.434279
vn -5.256194 -3.442093 -0.050825
v 83.673021 71.280580 38.140570
vn -5.258704 -3.438023 -0.066659
v 81.734094 74.282412 35.453713
vn -5.258660 -3.437933 -0.074249
v 81.276944 74.971515 35.970102
vn -5.252574 -3.447442 -0.063246
v 82.747004 72.710538 36.759862
vn -5.247721 -3.454519 -0.078296
v 82.203039 73.472488 40.289115
vn -5.251048 -3.449482 -0.077185
v 82.622351 72.821017 40.925749
vn -5.255828 -3.442437 -0.065643
v 82.246628 73.486252 36.100731
vn -5.245590 -3.457371 -0.093292
v 80.847154 75.568999 38.417722
vn -5.266639 -3.426013 -0.057631
v 84.095986 70.621465 38.776507
vn -5.264054 -3.429957 -0.059113
v 84.505770 69.983804 39.179313
vn -5.262448 -3.432009 -0.078413
v 84.058646 70.656047 39.988746
vn -5.280492 -3.405081 0.004626
v 84.120410 70.610673 35.508756
vn -2.642815 -1.701684 0.009728
v 84.304500 70.322450 35.102900
vn -2.551884 -1.669438 -0.027112
v 84.763700 69.585950 39.400100
vn -2.608722 -1.705360 -0.043462
v 84.125150 70.526050 41.070225
vn -5.249202 -3.452138 -0.083313
v 83.102316 72.094509 40.687616
vn -5.244238 -3.459705 -0.082161
v 82.095211 73.613560 41.300881
vn -5.252933 -3.446385 -0.086490
v 83.039212 72.170858 41.564549
vn -2.635870 -1.728861 -0.049691
v 82.984500 72.234750 42.256200
vn -5.251616 -3.448304 -0.089346
v 83.553906 71.417492 40.384604
vn -5.257019 -3.440127 -0.087649
v 83.806408 71.015410 40.985603
vn -5.277600 -3.409558 -0.015095
v 84.200824 70.483787 36.468740
# 80 vertices, 0 vertices normals

f 34//34 66//66 35//35
f 36//36 21//21 37//37
f 40//40 41//41 42//42
f 43//43 44//44 34//34
f 41//41 45//45 46//46
f 11//11 47//47 61//61
f 10//10 20//20 19//19
f 80//80 51//51 50//50
f 53//53 54//54 55//55
f 4//4 25//25 24//24
f 56//56 42//42 57//57
f 57//57 58//58 59//59
f 58//58 62//62 53//53
f 4//4 24//24 17//17
f 63//63 64//64 75//75
f 62//62 46//46 65//65
f 4//4 66//66 25//25
f 67//67 68//68 69//69
f 43//43 40//40 63//63
f 70//70 14//14 71//71
f 10//10 44//44 28//28
f 10//10 28//28 20//20
f 45//45 35//35 47//47
f 27//27 68//68 72//72
f 67//67 59//59 50//50
f 55//55 70//70 80//80
f 13//13 30//30 29//29
f 48//48 65//65 60//60
f 60//60 26//26 31//31
f 64//64 74//74 76//76
f 9//9 33//33 32//32
f 76//76 9//9 32//32
f 78//78 69//69 79//79
f 56//56 78//78 74//74
f 3//3 34//34 35//35
f 34//34 10//10 66//66
f 35//35 66//66 4//4
f 12//12 36//36 37//37
f 37//37 14//14 12//12
f 39//39 38//38 15//15
f 7//7 40//40 42//42
f 40//40 3//3 41//41
f 42//42 41//41 1//1
f 3//3 43//43 34//34
f 43//43 39//39 44//44
f 34//34 44//44 10//10
f 1//1 41//41 46//46
f 41//41 3//3 45//45
f 46//46 45//45 11//11
f 17//17 47//47 4//4
f 61//61 17//17 18//18
f 17//17 61//61 47//47
f 49//49 48//48 22//22
f 21//21 49//49 22//22
f 8//8 80//80 50//50
f 50//50 51//51 6//6
f 6//6 51//51 52//52
f 52//52 16//16 6//6
f 8//8 53//53 55//55
f 53//53 2//2 54//54
f 55//55 54//54 12//12
f 5//5 56//56 57//57
f 56//56 7//7 42//42
f 57//57 42//42 1//1
f 5//5 57//57 59//59
f 57//57 1//1 58//58
f 59//59 58//58 8//8
f 26//26 60//60 61//61
f 60//60 11//11 61//61
f 61//61 18//18 26//26
f 12//12 54//54 36//36
f 36//36 54//54 49//49
f 36//36 49//49 21//21
f 8//8 58//58 53//53
f 58//58 1//1 62//62
f 53//53 62//62 2//2
f 39//39 63//63 75//75
f 63//63 7//7 64//64
f 75//75 64//64 13//13
f 2//2 62//62 65//65
f 62//62 1//1 46//46
f 65//65 46//46 11//11
f 19//19 66//66 10//10
f 66//66 19//19 25//25
f 5//5 67//67 69//69
f 67//67 6//6 68//68
f 69//69 68//68 27//27
f 39//39 43//43 63//63
f 43//43 3//3 40//40
f 63//63 40//40 7//7
f 14//14 70//70 12//12
f 71//71 23//23 70//70
f 44//44 39//39 15//15
f 44//44 15//15 28//28
f 11//11 45//45 47//47
f 45//45 3//3 35//35
f 47//47 35//35 4//4
f 6//6 16//16 68//68
f 72//72 68//68 16//16
f 6//6 67//67 50//50
f 67//67 5//5 59//59
f 50//50 59//59 8//8
f 8//8 55//55 80//80
f 55//55 12//12 70//70
f 80//80 70//70 23//23
f 60//60 31//31 48//48
f 22//22 48//48 31//31
f 48//48 49//49 2//2
f 60//60 65//65 11//11
f 9//9 79//79 33//33
f 73//73 33//33 79//79
f 13//13 64//64 76//76
f 64//64 7//7 74//74
f 76//76 74//74 9//9
f 29//29 75//75 13//13
f 75//75 38//38 39//39
f 38//38 75//75 29//29
f 32//32 77//77 76//76
f 13//13 76//76 77//77
f 77//77 30//30 13//13
f 9//9 78//78 79//79
f 78//78 5//5 69//69
f 73//73 69//69 27//27
f 73//73 79//79 69//69
f 7//7 56//56 74//74
f 56//56 5//5 78//78
f 74//74 78//78 9//9
f 48//48 2//2 65//65
f 54//54 2//2 49//49
f 51//51 80//80 23//23
f 51//51 23//23 52//52
# 131 faces, 0 coords texture

# End of File
