####
#
# OBJ File Generated by Meshlab
#
####
# Object 2635_C155_S_4.obj
#
# Vertices: 87
# Faces: 143
#
####
vn 5.459419 -3.109587 -0.057703
v -79.730498 79.866950 7.220227
vn 5.454085 -3.118775 -0.067609
v -80.427871 78.617086 8.832051
vn 5.444065 -3.135793 -0.082287
v -78.309649 82.228345 11.822072
vn 5.448831 -3.127602 -0.066889
v -80.821560 77.837250 12.290249
vn 5.440882 -3.138659 -0.096600
v -78.009763 82.894793 8.270023
vn 5.443113 -3.137037 -0.090854
v -77.542702 83.625399 10.123120
vn 5.442132 -3.139056 -0.073728
v -79.283384 80.570421 11.385298
vn 5.437409 -3.147273 -0.084562
v -79.084557 80.846166 13.338730
vn 5.453293 -3.120053 -0.070409
v -81.168222 77.283557 10.614979
vn 5.456121 -3.115024 -0.071479
v -80.013316 79.254445 12.890352
vn 5.453345 -3.118448 -0.100525
v -78.557768 81.842749 9.769484
vn 5.448704 -3.128154 -0.067020
v -79.496993 80.232750 9.298527
vn 5.444630 -3.134979 -0.079070
v -78.212844 82.354517 13.671257
vn 5.458372 -3.111161 -0.071615
v -80.211987 78.946043 10.885005
vn 2.333681 -1.356673 -0.029254
v -81.303000 77.004400 12.573700
vn 2.680577 -1.529297 -0.035153
v -80.896600 77.682000 13.519200
vn 2.776186 -1.577086 -0.041035
v -79.029400 81.117700 6.543658
vn 2.402416 -1.349534 -0.029517
v -78.649600 81.783100 6.667050
vn 2.701913 -1.606415 -0.034580
v -77.343400 83.980900 9.192400
vn 2.314233 -1.342920 -0.019087
v -77.172100 84.268800 9.789060
vn 2.223952 -1.263205 -0.019319
v -81.596100 76.528700 10.737100
vn 2.503911 -1.412217 -0.031995
v -79.519000 80.261800 6.332240
vn 2.319057 -1.332993 -0.040046
v -77.306900 83.956000 12.531300
vn 2.261155 -1.307757 -0.022570
v -77.897600 83.101300 7.467980
vn 2.437860 -1.387695 -0.027706
v -81.319700 77.056150 8.632635
vn 2.391384 -1.354117 -0.016476
v -79.874600 79.621600 6.372810
vn 2.748717 -1.581161 -0.027735
v -80.380100 78.742100 6.861250
vn 2.391417 -1.367664 -0.030790
v -80.700200 78.178100 7.150160
vn 2.705027 -1.555565 -0.039581
v -78.549500 81.745100 14.617200
vn 2.295566 -1.325382 -0.036360
v -77.942950 82.809400 14.143200
vn 2.409126 -1.364594 -0.026417
v -80.676200 78.062600 13.990200
vn 2.443826 -1.410224 -0.028483
v -79.856000 79.490650 14.750450
vn 2.813910 -1.574552 -0.027920
v -78.449800 82.138100 6.914380
vn 2.803539 -1.622810 -0.033553
v -81.454700 76.769300 11.497100
vn 2.521571 -1.455817 -0.038920
v -77.150200 84.294700 10.519200
vn 2.350801 -1.361239 -0.033019
v -78.949500 81.041600 14.911000
vn 5.461337 -3.105891 -0.074709
v -79.304797 80.611671 7.355131
vn 5.474510 -3.082408 -0.078211
v -78.813980 81.471761 7.522584
vn 5.434024 -3.152465 -0.107948
v -79.183267 80.708874 12.388880
vn 5.426935 -3.165318 -0.083590
v -78.801453 81.391241 11.599778
vn 5.437750 -3.146538 -0.089292
v -78.701687 81.528843 12.596004
vn 5.468157 -3.092423 -0.115023
v -78.707581 81.622148 8.729814
vn 5.437921 -3.146571 -0.074623
v -79.034175 81.025981 9.549345
vn 5.453484 -3.119468 -0.081277
v -79.169644 80.825143 8.435414
vn 5.455196 -3.116889 -0.064777
v -79.609163 80.058632 8.220213
vn 5.452321 -3.121854 -0.067907
v -79.956449 79.435876 9.046378
vn 5.450780 -3.124622 -0.064386
v -80.053255 79.287428 8.026089
vn 5.451909 -3.122149 -0.084447
v -80.701953 78.095813 10.690737
vn 5.454477 -3.118109 -0.066386
v -80.808176 77.933365 9.702627
vn 5.451971 -3.122356 -0.072916
v -80.326442 78.770325 9.856624
vn 5.428491 -3.160016 -0.121850
v -77.796480 83.229036 9.099398
vn 2.632838 -1.582305 -0.039197
v -77.621500 83.540950 8.261448
vn 5.436829 -3.148258 -0.085168
v -79.557027 80.036275 13.139865
vn 5.451280 -3.123051 -0.086487
v -79.653036 79.903577 12.168487
vn 5.461181 -3.106477 -0.060284
v -81.228521 77.197482 9.650110
vn 5.458601 -3.110939 -0.064184
v -80.886544 77.814631 8.721887
vn 5.462459 -3.104241 -0.060260
v -79.746118 79.760874 11.142008
vn 5.457466 -3.112896 -0.064996
v -79.848720 79.599422 10.100522
vn 5.447383 -3.130650 -0.051098
v -79.385718 80.409028 10.356567
vn 5.453872 -3.119119 -0.068711
v -80.517685 78.481893 7.830422
vn 5.447274 -3.130935 -0.051038
v -80.127094 79.175664 7.218510
vn 5.449682 -3.125859 -0.089934
v -77.827918 83.060158 12.112897
vn 5.446978 -3.131084 -0.071790
v -78.235000 82.335427 12.819215
vn 5.468927 -3.092794 -0.062183
v -80.435909 78.513580 12.577698
vn 5.465547 -3.098763 -0.062007
v -80.353738 78.641910 13.476208
vn 5.457183 -3.113350 -0.063209
v -80.749401 77.949909 13.088676
vn 5.447859 -3.129629 -0.063142
v -79.929357 79.381329 13.805304
vn 2.707820 -1.538791 -0.031720
v -80.298550 78.721050 14.354000
vn 5.459468 -3.108659 -0.092083
v -77.923287 82.930790 11.015080
vn 5.479434 -3.071028 -0.150487
v -78.258524 82.417510 8.941153
vn 5.469242 -3.090214 -0.120705
v -78.064312 82.708891 9.949634
vn 5.482885 -3.066903 -0.085511
v -78.370626 82.261346 7.926687
vn 5.439127 -3.144209 -0.085867
v -81.028504 77.498898 11.536969
vn 5.428883 -3.162713 -0.052737
v -78.912080 81.221172 10.583493
vn 5.445991 -3.132557 -0.069659
v -78.419335 82.060745 10.789626
vn 5.448999 -3.126638 -0.104381
v -77.469318 83.714031 11.313204
vn 2.724797 -1.567990 -0.051747
v -77.226250 84.130700 11.486700
vn 2.647685 -1.508483 -0.034618
v -80.992050 77.650600 7.777820
vn 5.461028 -3.106184 -0.081870
v -80.554068 78.324616 11.642928
vn 5.466170 -3.097599 -0.065157
v -80.104874 79.113583 11.904646
vn 5.442596 -3.138444 -0.081186
v -77.828299 83.036337 13.107162
vn 2.664187 -1.541760 -0.046591
v -77.577050 83.465550 13.270950
vn 5.446887 -3.131164 -0.075095
v -78.620517 81.648102 13.553052
vn 5.438013 -3.146486 -0.075481
v -78.993654 80.982426 14.206939
vn 2.693691 -1.570168 -0.035244
v -79.370300 80.321700 14.847050
vn 5.431235 -3.158442 -0.065638
v -79.462674 80.181188 14.033066
vn 2.643452 -1.498619 -0.028460
v -81.463100 76.786350 9.510695
# 87 vertices, 0 vertices normals

f 4//4 66//66 15//15
f 39//39 40//40 41//41
f 42//42 43//43 44//44
f 6//6 19//19 20//20
f 45//45 46//46 47//47
f 48//48 49//49 50//50
f 5//5 24//24 52//52
f 39//39 53//53 54//54
f 49//49 55//55 56//56
f 57//57 58//58 59//59
f 1//1 26//26 22//22
f 47//47 60//60 61//61
f 62//62 81//81 63//63
f 13//13 30//30 29//29
f 64//64 65//65 66//66
f 15//15 66//66 16//16
f 67//67 68//68 65//65
f 76//76 62//62 69//69
f 70//70 42//42 72//72
f 70//70 51//51 71//71
f 72//72 38//38 33//33
f 5//5 72//72 24//24
f 9//9 73//73 34//34
f 74//74 59//59 43//43
f 74//74 75//75 40//40
f 9//9 34//34 21//21
f 76//76 35//35 77//77
f 75//75 71//71 69//69
f 56//56 78//78 60//60
f 50//50 46//46 58//58
f 1//1 61//61 26//26
f 79//79 80//80 64//64
f 81//81 23//23 82//82
f 8//8 83//83 84//84
f 63//63 83//83 41//41
f 79//79 73//73 48//48
f 57//57 54//54 80//80
f 6//6 20//20 35//35
f 84//84 85//85 86//86
f 53//53 86//86 67//67
f 25//25 55//55 87//87
f 38//38 37//37 17//17
f 18//18 38//38 17//17
f 8//8 39//39 41//41
f 39//39 7//7 40//40
f 41//41 40//40 3//3
f 38//38 42//42 44//44
f 42//42 11//11 43//43
f 44//44 43//43 12//12
f 1//1 22//22 37//37
f 17//17 37//37 22//22
f 1//1 45//45 47//47
f 45//45 12//12 46//46
f 47//47 46//46 2//2
f 14//14 48//48 50//50
f 48//48 9//9 49//49
f 50//50 49//49 2//2
f 52//52 51//51 5//5
f 6//6 51//51 19//19
f 52//52 19//19 51//51
f 7//7 39//39 54//54
f 39//39 8//8 53//53
f 54//54 53//53 10//10
f 2//2 49//49 56//56
f 49//49 9//9 55//55
f 56//56 55//55 25//25
f 7//7 57//57 59//59
f 57//57 14//14 58//58
f 59//59 58//58 12//12
f 1//1 47//47 61//61
f 47//47 2//2 60//60
f 27//27 61//61 28//28
f 28//28 61//61 60//60
f 3//3 62//62 63//63
f 62//62 23//23 81//81
f 63//63 81//81 13//13
f 4//4 64//64 66//66
f 64//64 10//10 65//65
f 66//66 65//65 31//31
f 66//66 31//31 16//16
f 10//10 67//67 65//65
f 67//67 32//32 68//68
f 65//65 68//68 31//31
f 6//6 76//76 69//69
f 76//76 23//23 62//62
f 69//69 62//62 3//3
f 5//5 70//70 72//72
f 70//70 11//11 42//42
f 72//72 42//42 38//38
f 11//11 70//70 71//71
f 70//70 5//5 51//51
f 71//71 51//51 6//6
f 33//33 38//38 18//18
f 72//72 33//33 24//24
f 15//15 73//73 4//4
f 73//73 15//15 34//34
f 44//44 12//12 45//45
f 37//37 45//45 1//1
f 11//11 74//74 43//43
f 74//74 7//7 59//59
f 43//43 59//59 12//12
f 7//7 74//74 40//40
f 74//74 11//11 75//75
f 40//40 75//75 3//3
f 35//35 76//76 6//6
f 77//77 23//23 76//76
f 3//3 75//75 69//69
f 75//75 11//11 71//71
f 69//69 71//71 6//6
f 2//2 56//56 60//60
f 56//56 25//25 78//78
f 60//60 78//78 28//28
f 14//14 50//50 58//58
f 50//50 2//2 46//46
f 58//58 46//46 12//12
f 61//61 27//27 26//26
f 4//4 79//79 64//64
f 79//79 14//14 80//80
f 64//64 80//80 10//10
f 13//13 81//81 30//30
f 82//82 30//30 81//81
f 83//83 29//29 84//84
f 29//29 83//83 13//13
f 36//36 84//84 29//29
f 3//3 63//63 41//41
f 63//63 13//13 83//83
f 41//41 83//83 8//8
f 14//14 79//79 48//48
f 79//79 4//4 73//73
f 48//48 73//73 9//9
f 14//14 57//57 80//80
f 57//57 7//7 54//54
f 80//80 54//54 10//10
f 8//8 84//84 86//86
f 84//84 36//36 85//85
f 86//86 85//85 32//32
f 10//10 53//53 67//67
f 53//53 8//8 86//86
f 67//67 86//86 32//32
f 9//9 21//21 55//55
f 87//87 55//55 21//21
f 44//44 45//45 37//37
f 38//38 44//44 37//37
# 143 faces, 0 coords texture

# End of File
