####
#
# OBJ File Generated by Meshlab
#
####
# Object 2644_C156_S_2.obj
#
# Vertices: 76
# Faces: 124
#
####
vn 5.432228 -3.157112 -0.034081
v -79.560253 82.068273 -21.771820
vn 5.410412 -3.194089 0.002349
v -80.818517 79.981116 -26.754927
vn 5.416694 -3.183806 -0.020706
v -79.565925 82.074533 -23.412447
vn 5.442716 -3.138050 -0.086336
v -82.444372 77.093938 -23.069086
vn 5.451773 -3.123090 -0.052963
v -80.586906 80.267446 -20.962751
vn 5.446729 -3.131271 -0.081410
v -81.545480 78.685364 -24.578148
vn 5.443937 -3.136073 -0.080341
v -81.280039 79.094438 -22.782464
vn 5.407995 -3.198612 -0.025959
v -80.106584 81.161074 -25.150593
vn 5.437018 -3.148579 -0.054291
v -80.358952 80.710862 -23.190521
vn 5.407351 -3.199834 -0.005276
v -79.253472 82.605702 -25.333931
vn 5.453074 -3.120805 -0.051920
v -81.368168 78.886023 -20.091942
vn 5.439852 -3.143721 -0.050469
v -81.729542 78.407988 -26.311087
vn 5.435174 -3.151304 -0.070020
v -81.023065 79.605349 -24.881567
vn 5.445684 -3.133556 -0.060294
v -81.682157 78.351807 -20.760035
vn 2.508792 -1.468312 0.006023
v -81.173000 79.373000 -27.554400
vn 2.664807 -1.547232 -0.005696
v -81.591300 78.650200 -27.244900
vn 2.283925 -1.358498 -0.001227
v -79.830600 81.637200 -27.224400
vn 2.344360 -1.349929 -0.034053
v -82.925300 76.267500 -23.402900
vn 2.357548 -1.367374 -0.023155
v -82.035200 77.889600 -26.856800
vn 2.376354 -1.413611 0.022443
v -80.688900 80.183800 -27.668500
vn 2.209102 -1.307978 -0.001617
v -78.985835 83.058081 -25.620980
vn 2.716604 -1.606641 -0.009261
v -78.832000 83.310100 -22.751300
vn 2.278439 -1.347917 -0.006699
v -78.761600 83.431800 -23.143400
vn 2.763909 -1.592727 -0.029227
v -81.760900 78.198500 -19.804300
vn 2.347368 -1.352664 -0.024630
v -82.184700 77.472100 -20.261100
vn 2.527800 -1.440919 -0.013952
v -80.766400 79.934600 -19.422300
vn 2.410380 -1.378059 -0.012132
v -80.231000 80.874800 -19.603700
vn 2.723116 -1.550269 -0.017471
v -81.251200 79.084300 -19.486800
vn 2.365930 -1.391780 -0.008428
v -79.048600 82.938100 -21.493400
vn 2.663264 -1.577380 -0.003151
v -78.854600 83.277600 -24.334700
vn 2.316301 -1.326339 -0.023225
v -81.532200 78.589700 -19.528900
vn 2.354864 -1.358434 -0.031628
v -82.687300 76.720250 -25.320300
vn 2.551656 -1.467529 -0.035632
v -82.524600 76.896175 -21.157500
vn 2.547512 -1.470641 -0.013493
v -79.412500 82.313800 -20.680000
vn 2.627930 -1.504927 -0.014886
v -79.724700 81.763500 -20.204600
vn 5.435239 -3.152113 -0.021136
v -81.278170 79.189673 -26.602299
vn 5.409695 -3.195859 -0.008658
v -79.648997 81.935849 -25.255406
vn 5.400396 -3.211466 -0.018449
v -79.976128 81.386277 -26.131845
vn 5.404767 -3.204178 -0.008657
v -79.585258 82.047656 -26.183644
vn 5.442618 -3.138807 -0.064888
v -82.517948 76.988531 -24.121100
vn 2.709976 -1.561406 -0.032024
v -82.826350 76.455400 -24.225050
vn 5.448096 -3.129278 -0.064775
v -80.384180 80.643464 -22.043894
vn 5.434018 -3.153922 -0.044907
v -79.908459 81.478875 -22.545380
vn 2.700284 -1.601382 0.022107
v -80.268250 80.896300 -27.451750
vn 5.397406 -3.216378 0.010360
v -80.341700 80.780368 -26.877973
vn 5.443980 -3.135670 -0.095154
v -82.379763 77.177116 -22.173643
vn 2.498634 -1.435531 -0.044854
v -82.806950 76.437300 -22.292150
vn 5.419269 -3.179513 -0.014111
v -79.812798 81.657479 -24.289186
vn 5.429484 -3.162027 -0.026294
v -79.969438 81.382299 -23.435534
vn 5.418012 -3.181477 -0.033916
v -80.248975 80.907953 -24.190371
vn 5.406474 -3.201290 -0.012919
v -79.119088 82.828945 -23.429425
vn 5.398591 -3.214389 -0.032486
v -80.453013 80.587974 -25.969130
vn 5.452025 -3.122468 -0.063424
v -80.941925 79.665741 -21.890314
vn 5.450294 -3.125093 -0.079280
v -80.802153 79.932350 -22.960852
vn 2.650984 -1.575583 -0.001340
v -79.378100 82.396100 -26.413600
vn 5.456292 -3.115464 -0.034013
v -80.539087 80.340105 -20.124713
vn 5.436983 -3.148007 -0.087069
v -81.893682 78.035017 -22.689248
vn 5.439311 -3.144328 -0.073227
v -82.002177 77.876329 -23.799296
vn 5.438854 -3.144780 -0.086579
v -81.535784 78.673673 -23.550407
vn 5.456557 -3.114857 -0.043106
v -80.950629 79.618603 -20.191367
vn 5.452048 -3.122490 -0.060352
v -81.163431 79.261017 -20.956420
vn 5.408041 -3.198666 -0.004973
v -79.360127 82.424083 -24.351464
vn 5.444801 -3.134804 -0.072309
v -81.504329 78.682401 -21.801260
vn 5.442894 -3.138028 -0.076801
v -82.042405 77.741819 -21.481038
vn 5.451856 -3.123246 -0.031621
v -80.094766 81.120334 -20.512917
vn 5.448359 -3.128522 -0.078166
v -81.783930 78.291549 -25.445323
vn 5.443759 -3.136707 -0.069816
v -82.119186 77.694033 -24.841980
vn 5.443262 -3.137354 -0.079383
v -82.147281 77.669400 -25.816988
vn 2.676445 -1.545944 -0.041346
v -82.400500 77.236900 -26.037250
vn 5.443601 -3.137067 -0.060994
v -81.382238 78.998399 -25.655300
vn 5.408599 -3.197377 -0.046732
v -80.563908 80.388077 -25.040064
vn 5.420848 -3.176424 -0.043543
v -80.918950 79.800423 -25.845731
vn 5.429207 -3.161529 -0.067830
v -80.689035 80.162107 -24.045994
vn 5.448017 -3.128711 -0.093244
v -81.126313 79.393418 -23.820970
vn 5.414198 -3.188131 -0.023073
v -79.308906 82.502581 -22.502276
vn 5.448833 -3.128241 -0.049012
v -80.000978 81.291738 -21.234227
# 76 vertices, 0 vertices normals

f 2//2 36//36 15//15
f 37//37 38//38 39//39
f 40//40 18//18 41//41
f 1//1 76//76 42//42
f 17//17 45//45 44//44
f 2//2 15//15 20//20
f 48//48 49//49 50//50
f 52//52 45//45 38//38
f 53//53 54//54 42//42
f 12//12 19//19 16//16
f 5//5 65//65 56//56
f 57//57 58//58 59//59
f 60//60 11//11 61//61
f 60//60 56//56 26//26
f 31//31 11//11 28//28
f 3//3 62//62 51//51
f 10//10 21//21 30//30
f 11//11 31//31 24//24
f 57//57 64//64 46//46
f 5//5 42//42 76//76
f 62//62 48//48 37//37
f 68//68 66//66 67//67
f 68//68 32//32 69//69
f 56//56 65//65 27//27
f 67//67 58//58 40//40
f 6//6 66//66 70//70
f 71//71 72//72 52//52
f 72//72 70//70 36//36
f 43//43 49//49 3//3
f 1//1 29//29 34//34
f 50//50 73//73 71//71
f 73//73 54//54 74//74
f 59//59 6//6 74//74
f 61//61 63//63 53//53
f 16//16 36//36 12//12
f 36//36 16//16 15//15
f 10//10 37//37 39//39
f 37//37 8//8 38//38
f 18//18 40//40 4//4
f 41//41 32//32 40//40
f 43//43 42//42 9//9
f 2//2 20//20 45//45
f 44//44 45//45 20//20
f 47//47 18//18 4//4
f 8//8 48//48 50//50
f 48//48 3//3 49//49
f 50//50 49//49 9//9
f 75//75 3//3 51//51
f 22//22 51//51 23//23
f 22//22 75//75 51//51
f 8//8 52//52 38//38
f 52//52 2//2 45//45
f 38//38 45//45 17//17
f 5//5 53//53 42//42
f 53//53 7//7 54//54
f 42//42 54//54 9//9
f 11//11 24//24 14//14
f 14//14 24//24 25//25
f 10//10 39//39 55//55
f 55//55 21//21 10//10
f 56//56 27//27 26//26
f 7//7 57//57 59//59
f 59//59 58//58 6//6
f 5//5 60//60 61//61
f 61//61 11//11 14//14
f 60//60 5//5 56//56
f 28//28 60//60 26//26
f 11//11 60//60 28//28
f 1//1 75//75 29//29
f 62//62 30//30 51//51
f 30//30 62//62 10//10
f 23//23 51//51 30//30
f 7//7 63//63 57//57
f 63//63 14//14 64//64
f 4//4 57//57 46//46
f 46//46 64//64 33//33
f 47//47 46//46 33//33
f 14//14 25//25 64//64
f 33//33 64//64 25//25
f 34//34 76//76 1//1
f 34//34 65//65 76//76
f 10//10 62//62 37//37
f 62//62 3//3 48//48
f 37//37 48//48 8//8
f 32//32 68//68 67//67
f 68//68 12//12 66//66
f 67//67 66//66 6//6
f 12//12 68//68 19//19
f 69//69 19//19 68//68
f 65//65 35//35 27//27
f 32//32 67//67 40//40
f 67//67 6//6 58//58
f 40//40 58//58 4//4
f 13//13 6//6 70//70
f 70//70 66//66 12//12
f 8//8 71//71 52//52
f 71//71 13//13 72//72
f 52//52 72//72 2//2
f 2//2 72//72 36//36
f 72//72 13//13 70//70
f 36//36 70//70 12//12
f 1//1 43//43 75//75
f 43//43 9//9 49//49
f 75//75 43//43 3//3
f 8//8 50//50 71//71
f 50//50 9//9 73//73
f 71//71 73//73 13//13
f 13//13 73//73 74//74
f 73//73 9//9 54//54
f 74//74 54//54 7//7
f 7//7 59//59 74//74
f 74//74 6//6 13//13
f 5//5 61//61 53//53
f 61//61 14//14 63//63
f 53//53 63//63 7//7
f 63//63 64//64 57//57
f 47//47 4//4 46//46
f 57//57 4//4 58//58
f 39//39 17//17 55//55
f 39//39 38//38 17//17
f 75//75 22//22 29//29
f 35//35 65//65 34//34
f 1//1 42//42 43//43
f 5//5 76//76 65//65
# 124 faces, 0 coords texture

# End of File
