####
#
# OBJ File Generated by Meshlab
#
####
# Object 2654_C157_S_1.obj
#
# Vertices: 90
# Faces: 149
#
####
vn 5.479807 -3.073202 -0.070156
v -78.927329 83.945485 8.586775
vn 5.487288 -3.059374 -0.088253
v -79.520867 82.819007 12.345487
vn 5.461648 -3.104883 -0.088963
v -78.733071 84.199943 13.032255
vn 5.480967 -3.071053 -0.064704
v -79.176768 83.475226 9.555396
vn 5.492511 -3.050083 -0.076909
v -80.969090 80.297770 8.242896
vn 5.482448 -3.068703 -0.062444
v -81.282756 79.704277 9.980234
vn 5.481930 -3.069711 -0.060056
v -82.139993 78.168075 10.647442
vn 5.477623 -3.077345 -0.063149
v -81.986381 78.479557 8.721236
vn 5.477860 -3.076348 -0.076016
v -79.885520 82.267276 8.115762
vn 5.488526 -3.057531 -0.071313
v -80.301972 81.476133 9.901082
vn 5.478842 -3.075113 -0.065784
v -80.616248 80.823112 13.602951
vn 5.475004 -3.082118 -0.057240
v -81.301271 79.636027 11.969178
vn 2.554373 -1.466292 -0.044088
v -78.312900 84.926700 13.201900
vn 2.663437 -1.528222 -0.047805
v -78.135000 85.269800 12.163300
vn 2.723463 -1.536071 -0.030081
v -78.237000 85.166500 9.333190
vn 2.339606 -1.310046 -0.024055
v -78.325400 85.021400 8.743500
vn 2.770267 -1.540549 -0.032668
v -78.766300 84.252300 7.773490
vn 2.622797 -1.477019 -0.017091
v -78.871900 83.927200 14.426600
vn 2.417394 -1.382406 -0.033832
v -78.500900 84.581600 13.840000
vn 2.331110 -1.335206 -0.038746
v -78.007000 85.522300 11.199900
vn 2.647830 -1.503603 -0.042272
v -78.090000 85.403800 10.358000
vn 2.327700 -1.304366 -0.026839
v -82.198800 78.109200 8.297760
vn 2.434474 -1.357831 -0.041484
v -79.834800 82.170300 15.276500
vn 2.435763 -1.361815 -0.036105
v -81.730200 78.823750 14.096050
vn 2.406467 -1.345343 -0.028384
v -82.525900 77.490700 10.019600
vn 2.368721 -1.319041 -0.038083
v -80.526900 81.165200 6.403310
vn 2.298702 -1.282014 -0.037280
v -81.502000 79.378800 6.952500
vn 2.450988 -1.366996 -0.032576
v -82.272000 77.886000 12.789000
vn 2.732909 -1.530925 -0.040877
v -81.343900 79.502800 14.540200
vn 2.348050 -1.317907 -0.038089
v -80.779200 80.490800 15.173900
vn 2.590370 -1.442196 -0.029893
v -82.520200 77.479700 10.911400
vn 2.593234 -1.444944 -0.030961
v -82.425900 77.630000 11.949900
vn 2.497456 -1.406430 -0.027220
v -78.842150 84.119350 7.596145
vn 5.461696 -3.104721 -0.091253
v -78.638605 84.391819 12.164531
vn 5.480003 -3.072658 -0.081494
v -79.266047 83.249465 13.117101
vn 5.475119 -3.081191 -0.087802
v -79.070856 83.618895 12.374885
vn 5.486342 -3.061993 -0.047858
v -78.858306 84.034171 10.398920
vn 5.489319 -3.056192 -0.072946
v -79.466551 82.869956 14.041517
vn 5.472324 -3.086478 -0.068964
v -78.399022 84.861188 10.302104
vn 5.465998 -3.098278 -0.043909
v -79.735711 82.542458 7.385547
vn 2.456187 -1.390559 -0.017741
v -79.338700 83.249250 6.934737
vn 5.467277 -3.095609 -0.062249
v -79.375110 83.173357 7.900994
vn 5.479652 -3.073712 -0.062605
v -81.765465 78.806063 12.248869
vn 5.479777 -3.073310 -0.071767
v -81.354126 79.508981 13.584529
vn 5.476923 -3.078595 -0.057805
v -79.011430 83.749999 11.420858
vn 5.477995 -3.077094 -0.037967
v -79.421814 83.026773 10.641212
vn 5.495906 -3.044096 -0.082117
v -80.194068 81.621847 11.586210
vn 5.495623 -3.044521 -0.085828
v -80.475924 81.135822 10.774282
vn 5.491137 -3.052850 -0.071541
v -79.787343 82.363739 11.437872
vn 5.502093 -3.032684 -0.086254
v -80.421685 81.292088 8.186171
vn 5.486871 -3.060234 -0.086450
v -79.854204 82.158476 14.524804
vn 2.749745 -1.540645 -0.030847
v -82.391250 77.745400 9.323095
vn 5.475508 -3.081135 -0.061982
v -81.657551 79.052457 9.274243
vn 5.475811 -3.080671 -0.058045
v -81.722714 78.917241 10.251356
vn 5.485523 -3.063336 -0.055369
v -81.162439 79.936633 9.091822
vn 5.487848 -3.058211 -0.089375
v -81.282274 79.755428 7.549122
vn 2.750910 -1.517872 -0.055540
v -81.093050 80.129300 6.722295
vn 5.482436 -3.068681 -0.063439
v -80.771169 80.581430 11.683048
vn 5.485130 -3.063909 -0.062138
v -80.404105 81.217984 12.651434
vn 5.485238 -3.063161 -0.077876
v -80.094143 81.870611 9.001866
vn 5.498654 -3.039797 -0.052428
v -80.639280 80.880284 9.065045
vn 2.548830 -1.417706 -0.035199
v -79.256950 83.225550 14.896425
vn 5.494417 -3.046872 -0.078554
v -79.930658 82.073110 12.496376
vn 5.467501 -3.094514 -0.093941
v -79.537083 82.861081 8.814102
vn 5.470414 -3.089908 -0.066926
v -79.752666 82.450195 9.763711
vn 5.482537 -3.067739 -0.079482
v -80.206043 81.715209 7.336428
vn 2.645783 -1.503182 -0.021981
v -79.959750 82.159200 6.594975
vn 5.482488 -3.068397 -0.073068
v -81.740192 78.832822 13.101810
vn 2.721557 -1.515525 -0.040601
v -82.045150 78.278450 13.353150
vn 5.478916 -3.074706 -0.076935
v -80.960946 80.199445 14.047544
vn 5.476857 -3.078871 -0.054821
v -81.726784 78.891771 11.274064
vn 5.495388 -3.045232 -0.071353
v -80.810793 80.557805 9.921999
vn 5.475101 -3.081985 -0.055199
v -81.298757 79.658412 10.966557
vn 2.729179 -1.531344 -0.045083
v -80.333500 81.283150 15.228000
vn 5.475461 -3.081154 -0.064865
v -81.509143 79.334090 8.377207
vn 2.787002 -1.568215 -0.034505
v -81.895150 78.662850 7.748445
vn 5.486626 -3.060852 -0.074405
v -80.918838 80.337028 10.735325
vn 5.483368 -3.066917 -0.070768
v -80.192777 81.580103 13.556100
vn 5.478622 -3.075608 -0.060927
v -82.099376 78.259196 9.683967
vn 5.487628 -3.059457 -0.058029
v -78.647271 84.434567 9.498733
vn 5.500709 -3.034545 -0.110255
v -80.745098 80.735800 7.376395
vn 5.464809 -3.099526 -0.072913
v -78.517475 84.632344 11.226810
vn 5.476760 -3.078876 -0.063323
v -81.358642 79.517428 12.771816
vn 5.485026 -3.063886 -0.064929
v -79.990163 82.017982 10.656417
vn 5.484678 -3.064754 -0.061358
v -82.145414 78.139417 11.668452
vn 5.478834 -3.074692 -0.083879
v -80.512545 80.987847 14.413127
vn 5.487800 -3.058794 -0.078675
v -79.683941 82.492179 13.478131
vn 5.476707 -3.078942 -0.061918
v -79.066276 83.587312 13.970993
vn 5.477207 -3.078162 -0.059186
v -80.937778 80.263934 12.940772
vn 5.480805 -3.071520 -0.062992
v -79.356526 83.131965 11.636638
# 90 vertices, 0 vertices normals

f 80//80 16//16 15//15
f 3//3 13//13 19//19
f 82//82 39//39 20//20
f 34//34 82//82 14//14
f 20//20 39//39 21//21
f 40//40 41//41 42//42
f 45//45 46//46 37//37
f 11//11 78//78 86//86
f 79//79 25//25 52//52
f 53//53 54//54 79//79
f 36//36 45//45 34//34
f 53//53 75//75 55//55
f 81//81 56//56 57//57
f 60//60 61//61 50//50
f 64//64 65//65 60//60
f 49//49 84//84 46//46
f 66//66 67//67 40//40
f 68//68 24//24 69//69
f 85//85 71//71 43//43
f 7//7 31//31 25//25
f 61//61 72//72 55//55
f 8//8 22//22 76//76
f 54//54 73//73 71//71
f 86//86 51//51 74//74
f 44//44 29//29 24//24
f 75//75 76//76 56//56
f 64//64 42//42 1//1
f 58//58 73//73 77//77
f 77//77 72//72 48//48
f 34//34 14//14 13//13
f 3//3 34//34 13//13
f 35//35 2//2 36//36
f 1//1 17//17 16//16
f 37//37 4//4 80//80
f 15//15 39//39 80//80
f 39//39 15//15 21//21
f 9//9 40//40 42//42
f 42//42 41//41 33//33
f 44//44 68//68 83//83
f 37//37 46//46 4//4
f 47//47 58//58 48//48
f 50//50 66//66 9//9
f 86//86 78//78 51//51
f 51//51 87//87 38//38
f 51//51 23//23 74//74
f 8//8 79//79 52//52
f 52//52 22//22 8//8
f 8//8 53//53 79//79
f 53//53 6//6 54//54
f 25//25 79//79 7//7
f 3//3 36//36 34//34
f 36//36 2//2 90//90
f 34//34 45//45 82//82
f 6//6 53//53 55//55
f 53//53 8//8 75//75
f 55//55 75//75 5//5
f 81//81 5//5 56//56
f 57//57 56//56 27//27
f 57//57 26//26 81//81
f 11//11 89//89 59//59
f 89//89 83//83 12//12
f 59//59 89//89 58//58
f 9//9 60//60 50//50
f 60//60 10//10 61//61
f 50//50 61//61 5//5
f 38//38 62//62 51//51
f 9//9 64//64 60//60
f 64//64 4//4 65//65
f 60//60 65//65 10//10
f 45//45 90//90 46//46
f 46//46 65//65 4//4
f 9//9 66//66 40//40
f 66//66 26//26 67//67
f 40//40 67//67 41//41
f 24//24 68//68 44//44
f 28//28 68//68 69//69
f 68//68 28//28 43//43
f 12//12 58//58 89//89
f 70//70 30//30 29//29
f 44//44 70//70 29//29
f 85//85 7//7 71//71
f 43//43 71//71 12//12
f 85//85 32//32 31//31
f 28//28 85//85 43//43
f 7//7 85//85 31//31
f 5//5 61//61 55//55
f 61//61 10//10 72//72
f 55//55 72//72 6//6
f 7//7 54//54 71//71
f 54//54 6//6 73//73
f 71//71 73//73 12//12
f 58//58 47//47 59//59
f 63//63 87//87 78//78
f 59//59 78//78 11//11
f 74//74 30//30 86//86
f 76//76 75//75 8//8
f 5//5 75//75 56//56
f 56//56 76//76 27//27
f 4//4 64//64 1//1
f 64//64 9//9 42//42
f 1//1 42//42 33//33
f 17//17 1//1 33//33
f 58//58 12//12 73//73
f 77//77 73//73 6//6
f 58//58 77//77 48//48
f 77//77 6//6 72//72
f 48//48 72//72 10//10
f 88//88 19//19 18//18
f 82//82 20//20 14//14
f 78//78 87//87 51//51
f 79//79 54//54 7//7
f 2//2 63//63 49//49
f 35//35 87//87 2//2
f 47//47 63//63 59//59
f 37//37 80//80 39//39
f 50//50 81//81 66//66
f 82//82 37//37 39//39
f 80//80 4//4 1//1
f 16//16 80//80 1//1
f 43//43 83//83 68//68
f 83//83 43//43 12//12
f 82//82 45//45 37//37
f 5//5 81//81 50//50
f 81//81 26//26 66//66
f 30//30 70//70 86//86
f 49//49 63//63 47//47
f 84//84 65//65 46//46
f 85//85 28//28 32//32
f 84//84 48//48 10//10
f 65//65 84//84 10//10
f 59//59 63//63 78//78
f 47//47 48//48 84//84
f 49//49 47//47 84//84
f 86//86 70//70 11//11
f 83//83 89//89 44//44
f 89//89 11//11 70//70
f 44//44 89//89 70//70
f 62//62 38//38 88//88
f 3//3 35//35 36//36
f 35//35 3//3 88//88
f 19//19 88//88 3//3
f 2//2 87//87 63//63
f 62//62 88//88 18//18
f 49//49 90//90 2//2
f 36//36 90//90 45//45
f 90//90 49//49 46//46
f 38//38 87//87 35//35
f 38//38 35//35 88//88
f 51//51 62//62 23//23
# 149 faces, 0 coords texture

# End of File
