####
#
# OBJ File Generated by Meshlab
#
####
# Object 2662_C157_S_9.obj
#
# Vertices: 79
# Faces: 128
#
####
vn 5.426091 -3.167944 0.000779
v -79.673914 83.198935 -24.466073
vn 5.416741 -3.183912 -0.001754
v -80.135138 82.414861 -26.232583
vn 5.443956 -3.136910 -0.031177
v -80.511776 81.752804 -23.651678
vn 5.452011 -3.121886 -0.085999
v -82.953623 77.511725 -24.027628
vn 5.456782 -3.113817 -0.075269
v -82.354778 78.516263 -22.733504
vn 5.460308 -3.108209 -0.047677
v -82.580472 78.103136 -21.607847
vn 5.452593 -3.121231 -0.071425
v -82.136344 78.960256 -24.812965
vn 5.418637 -3.180668 -0.006323
v -81.055998 80.853679 -27.286099
vn 5.430420 -3.159983 -0.045373
v -81.204706 80.590305 -25.381556
vn 5.455288 -3.116976 -0.048652
v -81.645531 79.729880 -21.256825
vn 5.437999 -3.146937 -0.047022
v -81.964318 79.300121 -26.840796
vn 5.450030 -3.125716 -0.072140
v -81.412828 80.182292 -23.202860
vn 5.463795 -3.101904 -0.048023
v -80.744223 81.310938 -21.556135
vn 5.444101 -3.136172 -0.015274
v -79.843281 82.921671 -22.159481
vn 2.363324 -1.355371 -0.036997
v -83.356400 76.811600 -24.116600
vn 2.314157 -1.356366 -0.009011
v -82.081400 79.105400 -27.481400
vn 2.478294 -1.414966 -0.037865
v -83.260850 76.913300 -22.240500
vn 2.432773 -1.388275 -0.024848
v -82.947600 77.557550 -25.984300
vn 2.643135 -1.500979 -0.024364
v -83.199800 77.015500 -21.967500
vn 2.404232 -1.362868 -0.021692
v -82.883900 77.555900 -20.856400
vn 2.328296 -1.328688 -0.016332
v -82.034000 79.032200 -19.772300
vn 2.318232 -1.319762 -0.010070
v -80.903400 81.016500 -19.685850
vn 2.359764 -1.379813 0.001980
v -79.248000 83.927200 -24.560800
vn 2.481879 -1.452821 0.006555
v -79.248000 83.929900 -23.564000
vn 2.575309 -1.467917 -0.022611
v -82.599350 78.050150 -20.395300
vn 2.752097 -1.621516 -0.001494
v -80.818700 81.257600 -27.678600
vn 2.236321 -1.313388 -0.000318
v -80.924500 81.077700 -27.772500
vn 2.681413 -1.526049 -0.030911
v -82.681500 78.034600 -26.494000
vn 2.625779 -1.519300 -0.025581
v -82.187200 78.924000 -27.341700
vn 2.489876 -1.470272 0.001067
v -80.291375 82.148600 -27.276900
vn 2.385170 -1.400397 0.000182
v -79.621400 83.290400 -26.219000
vn 2.685005 -1.576279 -0.001556
v -79.503300 83.490700 -25.723100
vn 2.652534 -1.501086 -0.024288
v -79.887100 82.827200 -20.902000
vn 2.360242 -1.376876 -0.011316
v -79.535700 83.445100 -21.693800
vn 2.488730 -1.401987 -0.019600
v -80.120600 82.402800 -20.454800
vn 2.659505 -1.558530 0.006988
v -79.379800 83.710500 -22.615000
vn 5.451886 -3.121716 -0.101011
v -82.680491 77.969250 -23.437631
vn 5.459707 -3.108560 -0.074872
v -82.848730 77.641290 -22.457853
vn 5.451703 -3.121825 -0.107495
v -83.083332 77.256900 -23.204214
vn 2.646167 -1.517844 -0.052835
v -83.323200 76.833300 -23.048500
vn 5.453881 -3.118855 -0.076218
v -82.587157 78.162814 -24.430241
vn 5.453146 -3.120611 -0.057559
v -82.938187 77.555334 -24.891516
vn 5.459214 -3.110006 -0.057069
v -82.528561 78.285704 -25.569780
vn 5.459414 -3.109118 -0.080202
v -81.869188 79.375157 -23.001608
vn 5.456486 -3.114495 -0.071050
v -81.521931 79.967640 -22.200969
vn 5.455966 -3.115643 -0.059005
v -82.006819 79.111347 -21.987074
vn 5.453803 -3.119676 -0.045398
v -82.142667 78.857114 -20.902944
vn 5.457330 -3.113696 -0.028761
v -81.296277 80.335324 -20.518363
vn 2.723006 -1.550741 -0.015847
v -81.482600 80.000050 -19.725600
vn 5.457241 -3.113786 -0.035149
v -81.750940 79.536219 -20.453547
vn 5.419531 -3.179090 -0.020765
v -80.455261 81.867715 -25.532727
vn 5.419824 -3.178626 -0.016137
v -81.109440 80.758585 -26.432526
vn 5.453904 -3.118404 -0.093718
v -82.227388 78.769065 -23.764624
vn 5.458088 -3.112090 -0.007672
v -80.191377 82.313822 -22.864626
vn 5.436909 -3.149315 0.006893
v -80.004366 82.630481 -23.812903
vn 5.433038 -3.155605 -0.039245
v -81.581176 79.952389 -26.180273
vn 5.444883 -3.134875 -0.064934
v -81.665115 79.785119 -25.106675
vn 5.452040 -3.122455 -0.061180
v -82.041814 79.146434 -25.886864
vn 2.640376 -1.518432 -0.028033
v -83.156300 77.180950 -25.156300
vn 5.458660 -3.110773 -0.067038
v -82.303190 78.699396 -26.490417
vn 5.440691 -3.142091 -0.067144
v -81.303394 80.395454 -24.276474
vn 5.451615 -3.122750 -0.079695
v -81.763296 79.591661 -24.029199
vn 5.421249 -3.176201 -0.011527
v -81.523865 80.055179 -27.076631
vn 2.707894 -1.587886 -0.000581
v -81.474100 80.140350 -27.635600
vn 5.413957 -3.188613 -0.008206
v -80.655515 81.533166 -26.652154
vn 2.591158 -1.521961 0.002769
v -79.868500 82.868000 -26.681000
vn 5.427631 -3.165228 -0.021918
v -80.223069 82.256937 -24.598849
vn 5.421466 -3.175829 -0.009689
v -79.928130 82.767335 -25.342948
vn 5.476953 -3.078822 -0.045983
v -80.294731 82.116564 -21.787866
vn 5.473145 -3.085637 -0.039108
v -80.395648 81.920772 -20.899783
vn 5.428730 -3.163013 -0.047416
v -80.818036 81.239867 -24.608768
vn 5.441698 -3.140486 -0.060472
v -80.977411 80.941083 -23.425161
vn 5.448311 -3.128867 -0.066285
v -81.083611 80.737104 -22.356116
vn 5.453951 -3.119268 -0.050045
v -81.182090 80.542603 -21.391960
vn 5.461046 -3.106755 -0.048954
v -80.651320 81.491963 -22.574701
vn 5.460801 -3.107610 -0.024419
v -80.833532 81.145576 -20.654000
vn 2.715567 -1.538473 -0.010386
v -80.498100 81.733950 -20.073800
vn 5.418163 -3.181396 -0.023345
v -80.835479 81.222144 -25.732240
vn 5.429687 -3.161701 0.018957
v -79.700925 83.157788 -23.315336
# 79 vertices, 0 vertices normals

f 37//37 38//38 39//39
f 39//39 17//17 40//40
f 41//41 42//42 43//43
f 44//44 45//45 46//46
f 6//6 46//46 47//47
f 48//48 49//49 50//50
f 1//1 23//23 24//24
f 51//51 78//78 65//65
f 20//20 6//6 25//25
f 8//8 27//27 26//26
f 41//41 53//53 37//37
f 79//79 54//54 55//55
f 56//56 57//57 58//58
f 18//18 42//42 59//59
f 58//58 43//43 60//60
f 11//11 29//29 16//16
f 57//57 61//61 62//62
f 63//63 52//52 56//56
f 63//63 11//11 16//16
f 1//1 67//67 68//68
f 25//25 6//6 47//47
f 69//69 14//14 33//33
f 13//13 69//69 70//70
f 62//62 44//44 53//53
f 61//61 71//71 72//72
f 45//45 73//73 74//74
f 11//11 60//60 29//29
f 51//51 67//67 71//71
f 14//14 36//36 34//34
f 75//75 73//73 72//72
f 75//75 54//54 69//69
f 74//74 76//76 48//48
f 70//70 77//77 76//76
f 4//4 37//37 39//39
f 37//37 5//5 38//38
f 39//39 38//38 17//17
f 4//4 39//39 15//15
f 40//40 15//15 39//39
f 7//7 41//41 43//43
f 41//41 4//4 42//42
f 43//43 42//42 18//18
f 5//5 44//44 46//46
f 44//44 12//12 45//45
f 46//46 45//45 10//10
f 6//6 5//5 46//46
f 47//47 46//46 10//10
f 6//6 20//20 19//19
f 10//10 48//48 50//50
f 48//48 22//22 49//49
f 50//50 49//49 21//21
f 2//2 51//51 65//65
f 65//65 52//52 8//8
f 5//5 6//6 38//38
f 17//17 38//38 19//19
f 4//4 41//41 37//37
f 41//41 7//7 53//53
f 37//37 53//53 5//5
f 79//79 14//14 54//54
f 55//55 54//54 3//3
f 11//11 56//56 58//58
f 56//56 9//9 57//57
f 58//58 57//57 7//7
f 4//4 15//15 42//42
f 59//59 42//42 15//15
f 11//11 58//58 60//60
f 58//58 7//7 43//43
f 28//28 43//43 18//18
f 28//28 60//60 43//43
f 7//7 57//57 62//62
f 57//57 9//9 61//61
f 62//62 61//61 12//12
f 11//11 63//63 56//56
f 63//63 8//8 52//52
f 56//56 52//52 9//9
f 16//16 64//64 63//63
f 8//8 63//63 64//64
f 64//64 27//27 8//8
f 26//26 65//65 8//8
f 65//65 26//26 30//30
f 2//2 30//30 66//66
f 2//2 66//66 31//31
f 1//1 55//55 67//67
f 55//55 3//3 67//67
f 47//47 10//10 50//50
f 47//47 50//50 21//21
f 47//47 21//21 25//25
f 69//69 33//33 70//70
f 35//35 70//70 33//33
f 7//7 62//62 53//53
f 62//62 12//12 44//44
f 53//53 44//44 5//5
f 12//12 61//61 72//72
f 61//61 9//9 71//71
f 72//72 71//71 3//3
f 10//10 45//45 74//74
f 45//45 12//12 73//73
f 74//74 73//73 13//13
f 60//60 28//28 29//29
f 32//32 68//68 31//31
f 31//31 68//68 2//2
f 79//79 24//24 36//36
f 14//14 79//79 36//36
f 9//9 78//78 71//71
f 71//71 67//67 3//3
f 3//3 75//75 72//72
f 75//75 13//13 73//73
f 72//72 73//73 12//12
f 13//13 75//75 69//69
f 75//75 3//3 54//54
f 69//69 54//54 14//14
f 10//10 74//74 48//48
f 74//74 13//13 76//76
f 48//48 76//76 22//22
f 13//13 70//70 76//76
f 70//70 35//35 77//77
f 76//76 77//77 22//22
f 14//14 34//34 33//33
f 38//38 6//6 19//19
f 2//2 68//68 51//51
f 1//1 68//68 32//32
f 2//2 65//65 30//30
f 1//1 32//32 23//23
f 51//51 68//68 67//67
f 78//78 52//52 65//65
f 52//52 78//78 9//9
f 78//78 51//51 71//71
f 24//24 79//79 1//1
f 79//79 55//55 1//1
# 128 faces, 0 coords texture

# End of File
