####
#
# OBJ File Generated by Meshlab
#
####
# Object 2689_C160_S_3.obj
#
# Vertices: 85
# Faces: 139
#
####
vn 5.490751 -3.054361 -0.018312
v -82.429452 82.378353 -24.462186
vn 5.475253 -3.081351 -0.022932
v -82.411290 82.401812 -26.529250
vn 5.466900 -3.096237 -0.056255
v -83.409234 80.652678 -25.443311
vn 5.477358 -3.077152 -0.089608
v -84.375843 78.911432 -24.813654
vn 5.472975 -3.086110 -0.007186
v -81.612678 83.839845 -27.375547
vn 5.483409 -3.067423 0.009254
v -81.470912 84.109205 -25.403287
vn 5.455738 -3.116129 -0.042473
v -83.154340 81.113176 -27.520785
vn 5.488593 -3.058178 -0.010893
v -81.573655 83.923106 -23.504529
vn 5.500967 -3.035862 -0.035407
v -82.409207 82.380620 -20.627033
vn 5.488384 -3.058242 -0.044664
v -83.236198 80.907525 -23.328390
vn 5.501713 -3.034590 -0.024816
v -82.401248 82.409039 -22.494032
vn 5.501346 -3.035244 -0.022170
v -81.604374 83.855159 -21.633454
vn 5.490316 -3.054876 -0.049754
v -83.995753 79.534201 -22.103764
vn 5.497910 -3.041369 -0.037090
v -83.186024 80.982606 -21.108774
vn 2.335570 -1.310092 -0.040034
v -84.677550 78.387600 -25.289250
vn 2.765835 -1.567653 -0.031676
v -81.868400 83.398600 -27.993400
vn 2.768551 -1.561401 -0.038777
v -82.713800 81.911900 -28.272600
vn 2.354639 -1.331207 -0.035555
v -82.401900 82.466800 -28.347800
vn 2.416690 -1.379251 -0.027086
v -84.146500 79.394750 -27.041650
vn 2.552478 -1.403727 -0.016792
v -81.588700 83.872500 -20.701000
vn 2.735278 -1.504572 -0.019788
v -82.122500 82.896400 -20.227900
vn 2.254527 -1.285435 -0.000794
v -81.491800 84.052100 -27.775700
vn 2.539267 -1.428958 0.001351
v -80.687200 85.499700 -25.469300
vn 2.654435 -1.488629 0.006835
v -80.640300 85.579500 -24.958100
vn 2.754137 -1.550814 -0.041539
v -84.726400 78.267600 -24.019500
vn 2.695994 -1.490845 -0.021006
v -82.780400 81.701800 -20.059500
vn 2.367560 -1.305902 -0.019710
v -82.377800 82.428300 -20.013500
vn 2.349233 -1.319625 -0.026277
v -84.753200 78.204900 -23.458800
vn 2.435248 -1.345629 -0.026112
v -83.970200 79.554650 -20.773650
vn 2.318657 -1.320506 -0.015463
v -83.291550 80.880300 -28.177300
vn 2.493667 -1.392839 -0.007048
v -80.833500 85.239900 -22.508200
vn 2.745844 -1.527827 -0.004822
v -80.776525 85.344625 -22.877600
vn 2.377503 -1.348293 0.017647
v -80.923300 85.062900 -26.621200
vn 2.404388 -1.329964 0.005729
v -80.608600 85.654000 -23.965700
vn 2.448533 -1.354658 -0.006332
v -81.272100 84.454200 -21.184500
vn 2.789738 -1.562967 -0.026968
v -84.714800 78.270100 -23.235500
vn 2.334865 -1.301462 -0.027504
v -84.533900 78.565200 -21.987700
vn 5.480681 -3.072247 0.013229
v -82.426294 82.379398 -25.486835
vn 5.471569 -3.088181 -0.032126
v -82.894079 81.559580 -24.945039
vn 5.455791 -3.116455 -0.005883
v -82.883739 81.573492 -26.014345
vn 5.483487 -3.066953 -0.027914
v -81.961330 83.211905 -27.021060
vn 5.497528 -3.042229 0.019233
v -81.955041 83.230720 -26.001558
vn 5.460547 -3.107531 -0.053136
v -82.815989 81.699928 -27.089697
vn 5.469674 -3.091057 -0.080237
v -82.387000 82.471363 -27.531918
vn 5.457268 -3.112693 -0.067441
v -83.788162 80.006253 -26.261618
vn 5.443929 -3.137058 -0.027067
v -83.287209 80.874409 -26.608877
vn 5.500302 -3.037185 -0.015985
v -81.997154 83.159198 -23.993017
vn 5.506189 -3.026480 -0.026064
v -81.996981 83.149435 -23.030355
vn 5.501618 -3.034728 -0.031779
v -82.415249 82.393987 -23.473075
vn 5.498260 -3.040959 0.006967
v -81.969732 83.208796 -24.973985
vn 5.482430 -3.069296 -0.003355
v -81.535809 83.991910 -24.427470
vn 5.439667 -3.144502 -0.021882
v -83.590703 80.356046 -27.232942
vn 2.660959 -1.535964 -0.004474
v -83.765850 80.053650 -27.588150
vn 5.506604 -3.025688 -0.029949
v -82.009428 83.112313 -21.094608
vn 5.477942 -3.075851 -0.098195
v -83.948550 79.685778 -25.248681
vn 5.477945 -3.075616 -0.105449
v -84.248643 79.173133 -25.876583
vn 2.716754 -1.526104 -0.053282
v -84.400050 78.916000 -26.231750
vn 5.482111 -3.068819 -0.084692
v -83.687047 80.133590 -24.619155
vn 5.479319 -3.073937 -0.078733
v -84.047904 79.479028 -24.244912
vn 5.484491 -3.065537 0.002589
v -81.100743 84.760164 -23.718314
vn 5.471786 -3.088194 0.015554
v -81.032827 84.885424 -25.569529
vn 5.478228 -3.076784 0.002285
v -81.055316 84.841223 -24.687705
vn 5.508519 -3.022274 -0.022384
v -81.993119 83.149673 -22.061342
vn 5.501048 -3.035807 -0.023044
v -82.398797 82.406101 -21.518957
vn 5.496461 -3.044048 -0.031454
v -82.767770 81.737240 -20.989751
vn 5.497022 -3.043103 -0.025000
v -82.815867 81.663318 -22.905600
vn 5.490574 -3.054217 -0.055120
v -82.844692 81.622136 -23.918477
vn 5.478305 -3.076010 -0.066013
v -84.357364 78.914807 -23.721390
vn 5.483699 -3.066140 -0.079026
v -83.293847 80.830228 -24.345977
vn 5.481423 -3.070479 -0.064930
v -83.659987 80.158809 -23.740123
vn 5.494556 -3.047364 -0.035678
v -83.563569 80.311789 -21.866044
vn 5.481267 -3.071467 -0.002696
v -81.151330 84.674149 -22.988765
vn 5.485750 -3.063283 -0.032220
v -83.622894 80.210193 -22.744988
vn 5.495620 -3.045561 -0.019923
v -81.586640 83.894217 -22.590891
vn 5.495218 -3.046392 -0.021748
v -82.806717 81.673951 -21.885873
vn 2.461161 -1.357671 -0.019852
v -83.397450 80.586575 -20.208150
vn 5.482431 -3.068900 -0.055707
v -84.284268 79.032130 -22.877730
vn 5.486213 -3.062629 -0.009254
v -81.223417 84.540920 -22.182471
vn 2.744133 -1.530676 0.000426
v -80.944725 85.040550 -22.172700
vn 5.478488 -3.076198 0.028981
v -81.424355 84.182958 -26.436341
vn 2.796048 -1.583523 0.013792
v -81.283075 84.423450 -27.312400
vn 2.723268 -1.512984 -0.029489
v -84.289950 78.992650 -21.447350
vn 5.500054 -3.037242 -0.053840
v -83.726033 80.005385 -21.229959
vn 5.492012 -3.052176 -0.020123
v -83.208282 80.951398 -22.189413
vn 5.480444 -3.072530 -0.051692
v -83.973641 79.591732 -23.263630
# 85 vertices, 0 vertices normals

f 38//38 39//39 40//40
f 5//5 16//16 22//22
f 2//2 43//43 44//44
f 5//5 41//41 16//16
f 45//45 52//52 46//46
f 47//47 48//48 49//49
f 50//50 51//51 47//47
f 52//52 19//19 53//53
f 42//42 50//50 38//38
f 9//9 54//54 21//21
f 45//45 55//55 56//56
f 56//56 15//15 57//57
f 58//58 59//59 55//55
f 62//62 60//60 51//51
f 24//24 61//61 23//23
f 43//43 40//40 46//46
f 4//4 25//25 15//15
f 63//63 54//54 64//64
f 9//9 21//21 27//27
f 66//66 67//67 49//49
f 4//4 68//68 25//25
f 39//39 67//67 69//69
f 70//70 58//58 69//69
f 5//5 22//22 81//81
f 7//7 30//30 17//17
f 6//6 80//80 61//61
f 73//73 13//13 85//85
f 74//74 63//63 48//48
f 62//62 24//24 34//34
f 12//12 35//35 20//20
f 75//75 84//84 66//66
f 9//9 27//27 26//26
f 14//14 76//76 83//83
f 65//65 75//75 64//64
f 73//73 84//84 71//71
f 74//74 72//72 78//78
f 13//13 83//83 82//82
f 2//2 38//38 40//40
f 38//38 1//1 39//39
f 40//40 39//39 3//3
f 41//41 5//5 80//80
f 42//42 80//80 6//6
f 43//43 17//17 44//44
f 17//17 43//43 7//7
f 18//18 44//44 17//17
f 41//41 2//2 44//44
f 16//16 44//44 18//18
f 41//41 44//44 16//16
f 3//3 45//45 46//46
f 45//45 19//19 52//52
f 46//46 52//52 7//7
f 1//1 47//47 49//49
f 47//47 8//8 48//48
f 49//49 48//48 11//11
f 1//1 50//50 47//47
f 50//50 6//6 51//51
f 47//47 51//51 8//8
f 7//7 52//52 30//30
f 53//53 30//30 52//52
f 2//2 42//42 38//38
f 42//42 6//6 50//50
f 38//38 50//50 1//1
f 20//20 54//54 12//12
f 54//54 20//20 21//21
f 19//19 45//45 56//56
f 45//45 3//3 55//55
f 56//56 55//55 4//4
f 15//15 56//56 4//4
f 57//57 19//19 56//56
f 3//3 58//58 55//55
f 55//55 59//59 4//4
f 51//51 60//60 8//8
f 62//62 51//51 6//6
f 24//24 62//62 61//61
f 7//7 43//43 46//46
f 43//43 2//2 40//40
f 46//46 40//40 3//3
f 11//11 63//63 64//64
f 63//63 12//12 54//54
f 64//64 54//54 9//9
f 26//26 65//65 9//9
f 76//76 14//14 26//26
f 11//11 66//66 49//49
f 66//66 10//10 67//67
f 49//49 67//67 1//1
f 4//4 59//59 68//68
f 68//68 28//28 25//25
f 3//3 39//39 69//69
f 39//39 1//1 67//67
f 69//69 67//67 10//10
f 10//10 70//70 69//69
f 70//70 59//59 58//58
f 69//69 58//58 3//3
f 71//71 14//14 83//83
f 13//13 71//71 83//83
f 8//8 60//60 72//72
f 60//60 62//62 34//34
f 31//31 72//72 32//32
f 80//80 33//33 61//61
f 23//23 61//61 33//33
f 10//10 73//73 70//70
f 85//85 13//13 77//77
f 85//85 77//77 68//68
f 32//32 72//72 60//60
f 8//8 74//74 48//48
f 74//74 12//12 63//63
f 48//48 63//63 11//11
f 11//11 75//75 66//66
f 75//75 14//14 84//84
f 66//66 84//84 10//10
f 83//83 76//76 29//29
f 9//9 65//65 64//64
f 65//65 14//14 75//75
f 64//64 75//75 11//11
f 68//68 36//36 28//28
f 36//36 68//68 77//77
f 13//13 73//73 71//71
f 73//73 10//10 84//84
f 12//12 78//78 35//35
f 79//79 35//35 78//78
f 12//12 74//74 78//78
f 74//74 8//8 72//72
f 79//79 78//78 31//31
f 31//31 78//78 72//72
f 81//81 80//80 5//5
f 80//80 81//81 33//33
f 13//13 82//82 37//37
f 41//41 80//80 42//42
f 2//2 41//41 42//42
f 82//82 83//83 29//29
f 62//62 6//6 61//61
f 14//14 65//65 26//26
f 60//60 34//34 32//32
f 71//71 84//84 14//14
f 77//77 37//37 36//36
f 77//77 13//13 37//37
f 73//73 85//85 70//70
f 70//70 85//85 59//59
f 68//68 59//59 85//85
# 139 faces, 0 coords texture

# End of File
