####
#
# OBJ File Generated by Meshlab
#
####
# Object 2695_C160_S_9.obj
#
# Vertices: 72
# Faces: 116
#
####
vn -5.292695 -3.384800 -0.094457
v 85.143648 78.258711 41.948411
vn -5.289018 -3.390827 -0.083563
v 87.969152 73.833100 41.834835
vn -5.306086 -3.363655 -0.096276
v 85.177226 78.284574 38.942527
vn -5.302260 -3.370165 -0.080182
v 86.057707 76.826191 41.913158
vn -5.308409 -3.360751 -0.053026
v 87.261643 75.012827 38.901099
vn -5.323991 -3.336656 0.004756
v 87.314532 74.936834 36.882860
vn -5.298912 -3.375743 -0.051989
v 88.172676 73.563232 39.984983
vn -5.301601 -3.370921 -0.089719
v 86.258769 76.557165 39.894850
vn -5.316825 -3.348086 0.002036
v 88.154081 73.595552 38.053851
vn -5.312169 -3.354676 -0.047601
v 86.325452 76.513701 37.867922
vn -5.293669 -3.383492 -0.085936
v 87.084670 75.236050 40.931053
vn -5.296317 -3.379667 -0.067892
v 87.044037 75.251113 42.843229
vn -2.255382 -1.411156 0.003756
v 86.465800 76.284300 35.764300
vn -2.229479 -1.400301 -0.024187
v 85.408400 77.987400 36.534800
vn -2.379100 -1.517325 -0.028977
v 88.614400 72.861700 40.452900
vn -2.370066 -1.487136 -0.048197
v 84.743100 79.007600 37.981600
vn -2.510888 -1.572409 0.002594
v 88.165800 73.575600 37.156100
vn -2.477154 -1.549694 0.005144
v 87.747200 74.243500 36.389700
vn -2.291069 -1.436260 0.007872
v 87.377600 74.831200 35.962400
vn -2.293639 -1.463106 -0.020646
v 87.044100 75.238300 43.775700
vn -2.635376 -1.676021 -0.030745
v 86.419500 76.216300 43.824600
vn -2.228680 -1.428423 -0.036811
v 85.044200 78.385600 42.978400
vn -2.399344 -1.537686 -0.037077
v 88.248300 73.392450 42.045450
vn -2.473743 -1.587328 -0.036121
v 87.987500 73.786100 42.633500
vn -2.392512 -1.519456 -0.005980
v 88.652700 72.810000 39.454100
vn -2.360245 -1.488686 0.004867
v 88.419900 73.173350 37.821900
vn -2.372103 -1.498461 -0.049884
v 84.498000 79.354800 39.097600
vn -2.298185 -1.464742 -0.040897
v 84.444100 79.384500 40.865900
vn -2.191301 -1.397256 -0.028142
v 85.920200 77.000800 43.846800
vn -2.452073 -1.571260 -0.030443
v 87.525500 74.490300 43.331600
vn -5.296937 -3.378122 -0.095089
v 85.782692 77.352284 38.357371
vn -5.299107 -3.374501 -0.103028
v 86.290019 76.539130 38.899894
vn -5.302596 -3.369353 -0.089611
v 85.780231 77.322887 39.421544
vn -5.312895 -3.353419 -0.058012
v 86.799759 75.753992 38.391342
vn -5.297447 -3.377249 -0.097906
v 86.755195 75.792506 39.406198
vn -5.289534 -3.389927 -0.087434
v 88.077608 73.686442 40.959690
vn -2.644001 -1.694166 -0.043578
v 88.458450 73.087550 41.132000
vn -5.307430 -3.362009 -0.080265
v 85.827664 77.228725 40.305201
vn -5.299273 -3.374766 -0.081967
v 85.350224 77.985756 40.147568
vn -5.293813 -3.383091 -0.092840
v 84.959012 78.573876 41.037470
vn -5.310281 -3.356982 -0.094526
v 85.316152 78.098863 37.709370
vn -2.674074 -1.672221 -0.050332
v 85.050400 78.535500 37.321700
vn -5.289224 -3.390427 -0.086748
v 87.543186 74.507451 41.450441
vn -5.295893 -3.380005 -0.085739
v 87.037638 75.284444 41.913231
vn -5.324769 -3.335436 -0.002422
v 87.755070 74.233047 37.417322
vn -5.302291 -3.370482 -0.061767
v 86.621183 75.910129 43.189429
vn -5.321376 -3.340833 0.013656
v 86.882856 75.622546 36.426019
vn -2.662931 -1.669723 0.009275
v 86.931850 75.541300 35.866250
vn -2.693500 -1.723622 -0.037525
v 85.538750 77.605675 43.438600
vn -5.303133 -3.369077 -0.047479
v 87.716659 74.288729 39.440286
vn -5.319196 -3.344320 -0.008700
v 87.742785 74.249140 38.418559
vn -5.289119 -3.390572 -0.087512
v 87.630819 74.396255 40.459456
vn -5.291968 -3.386076 -0.089160
v 87.182903 75.108971 39.920037
vn -5.323070 -3.338140 -0.001236
v 86.828820 75.711220 37.373868
vn -5.326303 -3.332970 0.007786
v 86.390006 76.407851 36.847654
vn -5.314830 -3.350491 -0.044624
v 85.867583 77.246993 37.280511
vn -2.451942 -1.567258 -0.044792
v 84.663525 79.010000 41.941975
vn -5.297484 -3.377557 -0.084306
v 86.664673 75.907007 40.415823
vn -5.309370 -3.359887 -0.004808
v 88.189247 73.539356 39.003766
vn -2.630160 -1.669695 0.000552
v 88.561950 72.953100 38.771100
vn -5.301094 -3.371584 -0.094029
v 84.812407 78.829865 39.979792
vn -2.659166 -1.681119 -0.052813
v 84.473000 79.367450 39.956950
vn -5.324005 -3.336645 -0.013166
v 87.289482 74.973162 37.878154
vn -5.336439 -3.316744 0.001672
v 86.008346 77.019952 36.463851
vn -2.666500 -1.655454 -0.000580
v 85.956300 77.103900 36.133500
vn -5.300949 -3.372188 -0.081790
v 86.571140 76.030672 41.424670
vn -5.304062 -3.367315 -0.080533
v 86.153707 76.699193 40.884357
vn -5.294013 -3.383011 -0.083794
v 85.557415 77.599664 42.419551
vn -5.300759 -3.372716 -0.071493
v 86.077792 76.770712 42.999626
vn -5.303728 -3.367882 -0.078857
v 86.551436 76.037278 42.394947
vn -5.300064 -3.373376 -0.089133
v 85.555197 77.634603 41.241319
vn -5.288183 -3.392192 -0.080865
v 87.514326 74.528807 42.380516
# 72 vertices, 0 vertices normals

f 31//31 32//32 33//33
f 34//34 35//35 32//32
f 33//33 38//38 39//39
f 1//1 40//40 71//71
f 41//41 16//16 42//42
f 43//43 72//72 44//44
f 9//9 45//45 17//17
f 6//6 19//19 18//18
f 47//47 13//13 48//48
f 2//2 23//23 24//24
f 50//50 51//51 59//59
f 43//43 52//52 36//36
f 53//53 50//50 52//52
f 7//7 25//25 15//15
f 54//54 55//55 47//47
f 56//56 64//64 55//55
f 1//1 22//22 57//57
f 9//9 17//17 26//26
f 35//35 53//53 58//58
f 59//59 9//9 60//60
f 3//3 27//27 16//16
f 61//61 28//28 62//62
f 54//54 63//63 34//34
f 63//63 45//45 51//51
f 56//56 31//31 41//41
f 64//64 14//14 65//65
f 66//66 67//67 58//58
f 44//44 70//70 66//66
f 12//12 30//30 20//20
f 39//39 40//40 61//61
f 71//71 38//38 67//67
f 12//12 72//72 30//30
f 70//70 46//46 69//69
f 3//3 31//31 33//33
f 31//31 10//10 32//32
f 33//33 32//32 8//8
f 10//10 34//34 32//32
f 34//34 5//5 35//35
f 32//32 35//35 8//8
f 37//37 36//36 15//15
f 7//7 15//15 36//36
f 23//23 2//2 37//37
f 36//36 37//37 2//2
f 3//3 33//33 39//39
f 33//33 8//8 38//38
f 71//71 40//40 39//39
f 42//42 14//14 41//41
f 11//11 43//43 44//44
f 43//43 2//2 72//72
f 44//44 72//72 12//12
f 18//18 45//45 6//6
f 45//45 18//18 17//17
f 12//12 20//20 46//46
f 21//21 46//46 20//20
f 6//6 47//47 19//19
f 48//48 19//19 47//47
f 1//1 68//68 22//22
f 49//49 22//22 68//68
f 7//7 50//50 59//59
f 50//50 5//5 51//51
f 59//59 51//51 9//9
f 2//2 43//43 36//36
f 43//43 11//11 52//52
f 36//36 52//52 7//7
f 11//11 53//53 52//52
f 53//53 5//5 50//50
f 52//52 50//50 7//7
f 6//6 54//54 47//47
f 54//54 10//10 55//55
f 47//47 55//55 13//13
f 10//10 56//56 55//55
f 56//56 14//14 64//64
f 55//55 64//64 13//13
f 57//57 40//40 1//1
f 57//57 28//28 40//40
f 8//8 35//35 58//58
f 35//35 5//5 53//53
f 58//58 53//53 11//11
f 26//26 60//60 9//9
f 7//7 59//59 25//25
f 60//60 25//25 59//59
f 3//3 61//61 27//27
f 62//62 27//27 61//61
f 10//10 54//54 34//34
f 54//54 6//6 63//63
f 34//34 63//63 5//5
f 5//5 63//63 51//51
f 63//63 6//6 45//45
f 51//51 45//45 9//9
f 14//14 56//56 41//41
f 56//56 10//10 31//31
f 41//41 31//31 3//3
f 65//65 13//13 64//64
f 11//11 66//66 58//58
f 66//66 4//4 67//67
f 58//58 67//67 8//8
f 68//68 4//4 69//69
f 49//49 69//69 29//29
f 49//49 68//68 69//69
f 11//11 44//44 66//66
f 44//44 12//12 70//70
f 66//66 70//70 4//4
f 3//3 39//39 61//61
f 61//61 40//40 28//28
f 4//4 71//71 67//67
f 71//71 39//39 38//38
f 67//67 38//38 8//8
f 71//71 4//4 68//68
f 71//71 68//68 1//1
f 24//24 72//72 2//2
f 72//72 24//24 30//30
f 4//4 70//70 69//69
f 70//70 12//12 46//46
f 69//69 46//46 21//21
f 29//29 69//69 21//21
f 16//16 41//41 3//3
# 116 faces, 0 coords texture

# End of File
