####
#
# OBJ File Generated by Meshlab
#
####
# Object 2702_C161_S_5.obj
#
# Vertices: 109
# Faces: 181
#
####
vn -5.440976 -3.140916 0.092289
v 83.258269 84.123119 -27.768076
vn -5.424459 -3.170160 0.042449
v 84.977387 81.079551 -30.379516
vn -5.461951 -3.105528 -0.030279
v 86.421391 78.584443 -25.401120
vn -5.490156 -3.055474 0.003079
v 84.600521 81.810690 -22.979436
vn -5.465020 -3.099716 0.043607
v 84.367946 82.211092 -27.104372
vn -5.419031 -3.177485 0.124415
v 83.164306 84.224497 -29.672826
vn -5.449180 -3.127417 0.022227
v 85.210277 80.690361 -28.363799
vn -5.440560 -3.142811 -0.025275
v 86.181269 79.026676 -27.644760
vn -5.471812 -3.087840 0.043658
v 83.038077 84.592106 -23.955019
vn -5.446518 -3.131440 0.074736
v 84.201035 82.468913 -29.001155
vn -5.465012 -3.100116 0.012264
v 85.407604 80.361443 -26.370109
vn -5.459781 -3.108795 0.066171
v 83.462709 83.814504 -25.911148
vn -5.483961 -3.066469 -0.011091
v 85.473003 80.261391 -21.987195
vn -5.422087 -3.172638 0.112654
v 84.013381 82.734051 -30.830396
vn -5.477764 -3.077709 0.000415
v 85.516668 80.180644 -24.212922
vn -5.479910 -3.073823 0.020073
v 84.501831 81.984246 -25.223963
vn -5.463519 -3.102355 0.060129
v 83.119356 84.434123 -25.133237
vn -2.676397 -1.569456 0.028105
v 84.791700 81.377800 -31.394500
vn -1.948384 -1.158241 0.007741
v 85.409300 80.347100 -31.293000
vn -2.301596 -1.308051 0.054475
v 81.968800 86.408700 -26.854300
vn -2.828705 -1.598669 0.054058
v 82.013500 86.362700 -26.025700
vn -2.210345 -1.233175 -0.008060
v 85.595600 80.037400 -21.337300
vn -2.806517 -1.580579 -0.007489
v 85.079300 80.953000 -21.120600
vn -2.861814 -1.631327 -0.014710
v 86.725900 78.056800 -26.111300
vn -2.445746 -1.379499 0.039076
v 82.010400 86.393900 -25.165900
vn -2.446679 -1.367714 0.025294
v 82.310650 85.906350 -23.413900
vn -2.671320 -1.513530 0.017201
v 82.942600 84.793400 -21.909600
vn -2.560467 -1.448189 0.020286
v 82.869400 84.920000 -22.024500
vn -2.705501 -1.519635 -0.020423
v 86.483775 78.449675 -23.676525
vn -2.744214 -1.614809 -0.004122
v 85.952137 79.433732 -29.792725
vn -2.340306 -1.377116 0.065460
v 82.642000 85.097200 -29.959500
vn -2.439775 -1.440319 0.065236
v 83.092800 84.297600 -30.732800
vn -2.815635 -1.621346 0.078417
v 82.201600 85.942300 -28.022900
vn -2.503493 -1.447040 0.062417
v 82.256900 85.827700 -28.418500
vn -2.417208 -1.351562 -0.003511
v 83.479800 83.839900 -21.169200
vn -2.781777 -1.618890 0.042963
v 84.368900 82.107100 -31.433000
vn -2.392426 -1.383380 -0.013373
v 86.491500 78.497300 -28.407600
vn -2.219354 -1.266797 -0.020408
v 86.828100 77.871500 -25.375500
vn -2.514067 -1.398561 -0.008075
v 86.296850 78.774500 -22.912950
vn -2.200908 -1.300277 0.053899
v 83.970300 82.778000 -31.529300
vn -2.763976 -1.632326 0.072343
v 83.552600 83.502000 -31.113300
vn -2.906636 -1.610671 -0.004932
v 83.796600 83.268000 -21.021200
vn -2.301387 -1.271110 0.005296
v 84.102500 82.718900 -20.752400
vn -2.637063 -1.491546 -0.025495
v 86.721900 78.042500 -24.738900
vn -2.595841 -1.437304 -0.000974
v 84.678750 81.666300 -20.882950
vn -5.484239 -3.066127 0.003181
v 85.515402 80.184653 -23.091937
vn -5.473514 -3.085280 -0.005363
v 85.076224 80.965263 -22.436557
vn -5.475925 -3.081014 0.003168
v 85.058815 80.994689 -23.611880
vn -5.456028 -3.115066 0.067927
v 84.608406 81.741336 -29.656701
vn -5.433641 -3.153349 0.100509
v 84.102513 82.608431 -29.955213
vn -5.459529 -3.108951 0.079773
v 82.952800 84.704829 -26.085014
vn -5.453719 -3.119979 -0.030954
v 86.314993 78.781844 -26.528580
vn -2.592884 -1.478888 -0.016515
v 86.663500 78.175750 -27.158825
vn -5.478159 -3.076345 0.062361
v 82.620467 85.335301 -24.276127
vn -2.711466 -1.528401 0.039635
v 82.141700 86.182600 -24.362450
vn -5.463081 -3.103371 0.046356
v 83.366456 84.025790 -23.237917
vn -5.468316 -3.094303 0.027824
v 83.210227 84.316674 -22.294623
vn -2.712008 -1.603579 0.005077
v 85.673000 79.903600 -30.557250
vn -5.407637 -3.199345 0.006399
v 85.452019 80.278889 -30.064052
vn -5.439931 -3.143401 0.020583
v 85.094278 80.884403 -29.353836
vn -5.415171 -3.186533 -0.010178
v 85.582556 80.058369 -29.051341
vn -5.469685 -3.091877 -0.012329
v 85.965203 79.389004 -24.814372
vn -5.476983 -3.078836 -0.042913
v 86.339254 78.718403 -24.440523
vn -5.485659 -3.063454 -0.022381
v 86.001154 79.309320 -23.681936
vn -5.440158 -3.143609 -0.010515
v 85.820332 79.647636 -26.988159
vn -5.457786 -3.112470 0.026035
v 85.314461 80.516394 -27.375324
vn -5.425723 -3.168509 -0.005248
v 85.698527 79.853034 -28.026562
vn -5.425527 -3.168828 -0.021875
v 86.031214 79.290522 -28.682430
vn -5.471024 -3.089596 0.017698
v 85.474202 80.249479 -25.315230
vn -5.455066 -3.117657 -0.008641
v 85.918207 79.465840 -25.900442
vn -5.424292 -3.168472 0.123669
v 82.812616 84.849432 -29.086502
vn -2.811782 -1.640261 0.065689
v 82.435450 85.496575 -29.018700
vn -5.449105 -3.125166 0.137118
v 82.383441 85.660612 -27.317270
vn -5.429846 -3.159955 0.099178
v 83.212090 84.173260 -28.710073
vn -5.436420 -3.147671 0.124285
v 82.667950 85.127660 -28.160954
vn -5.482939 -3.068004 0.015715
v 83.661976 83.518282 -22.424351
vn -5.506302 -3.026373 0.006321
v 84.208259 82.525222 -22.471892
vn -5.461793 -3.105669 0.043742
v 83.505314 83.769393 -24.271019
vn -5.483390 -3.067193 0.029519
v 83.823285 83.220031 -23.495083
vn -5.502299 -3.033630 0.012106
v 84.233302 82.473700 -23.617694
vn -5.483655 -3.066729 0.038373
v 84.038689 82.822939 -24.557049
vn -5.487035 -3.061096 0.004528
v 84.573025 81.858023 -24.153449
vn -5.438676 -3.145104 0.084851
v 84.489575 81.916157 -30.615207
vn -5.426130 -3.166353 0.098686
v 83.670627 83.368068 -29.328269
vn -5.434393 -3.152703 0.074194
v 83.742764 83.273773 -28.373265
vn -5.472167 -3.087284 0.048526
v 84.712571 81.568397 -28.681868
vn -2.714532 -1.578913 -0.010404
v 86.225900 78.958500 -29.090650
vn -2.711836 -1.509808 0.018656
v 82.608850 85.380700 -22.646650
vn -5.497309 -3.042667 -0.007472
v 85.872346 79.541666 -22.721068
vn -5.452383 -3.121397 0.081654
v 83.348921 83.989636 -26.831189
vn -5.443867 -3.136589 0.065633
v 83.815353 83.163192 -27.437581
vn -5.455438 -3.116548 0.049347
v 83.902889 83.034139 -26.534041
vn -5.417046 -3.180930 0.122246
v 83.594427 83.468147 -30.295588
vn -5.500855 -3.036221 -0.009563
v 83.918258 83.052974 -21.798033
vn -5.478365 -3.076642 0.010189
v 85.018938 81.065205 -24.743113
vn -5.480918 -3.072068 0.018697
v 84.961234 81.161616 -25.795462
vn -5.450290 -3.124095 0.108962
v 82.812517 84.923405 -27.111226
vn -5.506472 -3.026069 -0.000747
v 84.254591 82.440851 -21.396502
vn -5.457646 -3.112591 0.056675
v 84.286322 82.337275 -28.043378
vn -5.478891 -3.075314 0.048737
v 84.808879 81.416315 -27.714589
vn -5.482227 -3.069642 0.028374
v 84.893393 81.276778 -26.760331
vn -5.473131 -3.085874 0.017742
v 84.439054 82.091117 -26.191935
vn -2.718690 -1.500933 -0.008148
v 86.011950 79.285950 -22.246650
vn -5.470301 -3.090589 0.042091
v 83.986935 82.891182 -25.631527
vn -5.467625 -3.095072 0.060154
v 83.619829 83.554475 -25.127164
vn -5.491459 -3.053003 -0.006710
v 84.672460 81.678541 -21.832847
vn -5.461453 -3.104934 0.100765
v 82.418784 85.635568 -26.322528
vn -5.467219 -3.095303 0.083420
v 82.543568 85.443477 -25.347932
vn -5.479248 -3.074699 0.046172
v 82.882233 84.883931 -23.110598
# 109 vertices, 0 vertices normals

f 2//2 18//18 19//19
f 107//107 21//21 20//20
f 46//46 47//47 48//48
f 49//49 50//50 83//83
f 54//54 55//55 108//108
f 56//56 57//57 109//109
f 30//30 59//59 58//58
f 60//60 59//59 61//61
f 62//62 63//63 64//64
f 65//65 66//66 67//67
f 67//67 61//61 68//68
f 69//69 70//70 62//62
f 6//6 31//31 32//32
f 107//107 20//20 73//73
f 74//74 75//75 71//71
f 78//78 79//79 56//56
f 80//80 77//77 79//79
f 81//81 82//82 80//80
f 2//2 83//83 18//18
f 93//93 50//50 84//84
f 85//85 74//74 84//84
f 8//8 37//37 53//53
f 49//49 60//60 86//86
f 65//65 52//52 70//70
f 68//68 30//30 87//87
f 3//3 24//24 38//38
f 46//46 64//64 89//89
f 90//90 91//91 92//92
f 14//14 41//41 40//40
f 14//14 40//40 36//36
f 14//14 93//93 41//41
f 98//98 43//43 42//42
f 3//3 38//38 44//44
f 95//95 96//96 69//69
f 97//97 73//73 75//75
f 98//98 45//45 43//43
f 95//95 48//48 82//82
f 91//91 85//85 99//99
f 100//100 99//99 86//86
f 66//66 101//101 100//100
f 102//102 101//101 96//96
f 89//89 39//39 103//103
f 104//104 92//92 102//102
f 81//81 105//105 104//104
f 15//15 46//46 48//48
f 46//46 13//13 47//47
f 48//48 47//47 4//4
f 2//2 49//49 83//83
f 49//49 10//10 50//50
f 83//83 50//50 14//14
f 53//53 52//52 8//8
f 3//3 52//52 24//24
f 53//53 24//24 52//52
f 54//54 26//26 55//55
f 108//108 55//55 25//25
f 9//9 56//56 109//109
f 56//56 76//76 57//57
f 28//28 57//57 27//27
f 28//28 88//88 109//109
f 2//2 19//19 59//59
f 58//58 59//59 19//19
f 7//7 60//60 61//61
f 60//60 2//2 59//59
f 61//61 59//59 30//30
f 15//15 62//62 64//64
f 62//62 3//3 63//63
f 64//64 63//63 29//29
f 39//39 64//64 29//29
f 8//8 65//65 67//67
f 65//65 11//11 66//66
f 67//67 66//66 7//7
f 8//8 67//67 68//68
f 67//67 7//7 61//61
f 68//68 61//61 30//30
f 15//15 69//69 62//62
f 69//69 11//11 70//70
f 62//62 70//70 3//3
f 6//6 71//71 31//31
f 72//72 31//31 71//71
f 73//73 20//20 33//33
f 6//6 74//74 71//71
f 74//74 1//1 75//75
f 72//72 75//75 34//34
f 72//72 71//71 75//75
f 76//76 35//35 57//57
f 27//27 57//57 35//35
f 76//76 77//77 94//94
f 94//94 77//77 98//98
f 9//9 78//78 56//56
f 56//56 79//79 76//76
f 81//81 80//80 79//79
f 80//80 4//4 77//77
f 79//79 77//77 76//76
f 81//81 16//16 82//82
f 80//80 82//82 4//4
f 36//36 83//83 14//14
f 83//83 36//36 18//18
f 6//6 93//93 84//84
f 93//93 14//14 50//50
f 84//84 50//50 10//10
f 10//10 85//85 84//84
f 85//85 1//1 74//74
f 84//84 74//74 6//6
f 10//10 49//49 86//86
f 49//49 2//2 60//60
f 86//86 60//60 7//7
f 11//11 65//65 70//70
f 65//65 8//8 52//52
f 70//70 52//52 3//3
f 8//8 68//68 37//37
f 87//87 37//37 68//68
f 109//109 88//88 26//26
f 13//13 46//46 89//89
f 46//46 15//15 64//64
f 89//89 64//64 39//39
f 23//23 106//106 47//47
f 45//45 106//106 23//23
f 12//12 90//90 92//92
f 90//90 1//1 91//91
f 92//92 91//91 5//5
f 32//32 93//93 6//6
f 93//93 32//32 41//41
f 107//107 51//51 108//108
f 21//21 108//108 25//25
f 9//9 109//109 54//54
f 42//42 94//94 98//98
f 94//94 35//35 76//76
f 35//35 94//94 42//42
f 15//15 95//95 69//69
f 95//95 16//16 96//96
f 69//69 96//96 11//11
f 1//1 97//97 75//75
f 97//97 107//107 73//73
f 75//75 73//73 33//33
f 34//34 75//75 33//33
f 51//51 107//107 97//97
f 90//90 97//97 1//1
f 77//77 4//4 106//106
f 98//98 106//106 45//45
f 16//16 95//95 82//82
f 95//95 15//15 48//48
f 82//82 48//48 4//4
f 5//5 91//91 99//99
f 91//91 1//1 85//85
f 99//99 85//85 10//10
f 7//7 100//100 86//86
f 100//100 5//5 99//99
f 86//86 99//99 10//10
f 7//7 66//66 100//100
f 66//66 11//11 101//101
f 100//100 101//101 5//5
f 16//16 102//102 96//96
f 102//102 5//5 101//101
f 96//96 101//101 11//11
f 22//22 13//13 103//103
f 89//89 103//103 13//13
f 3//3 44//44 63//63
f 29//29 63//63 44//44
f 16//16 104//104 102//102
f 104//104 12//12 92//92
f 102//102 92//92 5//5
f 16//16 81//81 104//104
f 104//104 105//105 12//12
f 79//79 78//78 81//81
f 23//23 47//47 13//13
f 78//78 105//105 81//81
f 77//77 106//106 98//98
f 17//17 105//105 78//78
f 106//106 4//4 47//47
f 17//17 78//78 9//9
f 13//13 22//22 23//23
f 51//51 97//97 90//90
f 107//107 108//108 21//21
f 12//12 51//51 90//90
f 109//109 26//26 54//54
f 17//17 9//9 54//54
f 108//108 51//51 17//17
f 17//17 54//54 108//108
f 109//109 57//57 28//28
f 17//17 51//51 12//12
f 17//17 12//12 105//105
# 181 faces, 0 coords texture

# End of File
