####
#
# OBJ File Generated by Meshlab
#
####
# Object 2705_C161_S_8.obj
#
# Vertices: 82
# Faces: 134
#
####
vn -5.352727 -3.290189 -0.024746
v 86.886411 77.891182 -35.098121
vn -5.344026 -3.304021 -0.052938
v 88.188946 75.834941 -38.088182
vn -5.326142 -3.333050 -0.034090
v 87.189976 77.446253 -38.554430
vn -5.317668 -3.346699 -0.007177
v 86.735181 78.183933 -40.440527
vn -5.369025 -3.263645 0.021157
v 85.894221 79.520489 -34.217298
vn -5.329891 -3.327091 -0.024078
v 87.808701 76.470591 -40.052710
vn -5.345878 -3.301173 0.040100
v 85.086220 80.811052 -37.402202
vn -5.292469 -3.386284 0.021226
v 85.443892 80.221077 -40.722535
vn -5.341059 -3.308502 -0.056547
v 87.531802 76.878110 -36.571724
vn -5.321302 -3.340247 0.046016
v 84.868061 81.125157 -39.313212
vn -5.319598 -3.343579 -0.011414
v 86.033488 79.291427 -38.688558
vn -5.346659 -3.299958 0.003060
v 85.999350 79.326348 -36.468555
vn -5.363861 -3.271974 0.038594
v 85.070846 80.862049 -35.383444
vn -2.355387 -1.439863 -0.036844
v 88.465550 75.334550 -35.980900
vn -2.584809 -1.644977 0.004417
v 86.074900 79.227300 -41.934300
vn -2.373655 -1.499394 0.000735
v 86.390300 78.729000 -41.994000
vn -2.153569 -1.344460 -0.006495
v 88.035300 76.110300 -40.607100
vn -2.307521 -1.449057 0.000644
v 87.233800 77.389400 -41.618100
vn -2.766222 -1.733814 -0.001713
v 87.629400 76.758100 -41.051800
vn -2.512777 -1.556770 -0.022229
v 88.498200 75.344500 -38.704700
vn -2.491742 -1.533549 0.028724
v 84.295800 82.103900 -36.898200
vn -2.512184 -1.539850 0.022889
v 84.397284 81.953174 -36.062974
vn -2.357725 -1.453420 -0.032080
v 88.604400 75.156500 -37.868800
vn -2.237490 -1.355889 -0.029779
v 87.834550 76.320350 -34.098200
vn -2.178967 -1.400307 0.016989
v 85.417300 80.248600 -41.715000
vn -2.333549 -1.476164 0.019119
v 84.560200 81.600300 -40.228100
vn -2.315217 -1.423324 0.032575
v 84.278500 82.089400 -38.982400
vn -2.451230 -1.492527 0.015033
v 85.031800 80.938300 -34.185300
vn -2.766747 -1.682067 0.014340
v 85.368100 80.389700 -33.763800
vn -2.415985 -1.476179 0.019048
v 84.632800 81.583300 -35.051400
vn -2.467096 -1.493999 -0.003980
v 86.761250 78.088250 -33.210050
vn -2.015437 -1.219250 0.006252
v 85.852100 79.596700 -33.018200
vn -5.363120 -3.272434 -0.078667
v 87.720697 76.541075 -35.343710
vn -5.364769 -3.270294 -0.050126
v 87.321599 77.175636 -34.515791
vn -5.322848 -3.338305 -0.036893
v 87.021766 77.692454 -36.814902
vn -5.363769 -3.271446 -0.077435
v 87.989612 76.121370 -36.262878
vn -5.305614 -3.365633 0.021553
v 85.420853 80.254875 -39.052375
vn -5.294490 -3.383264 0.007102
v 85.197547 80.607549 -40.037425
vn -5.304179 -3.368085 -0.003939
v 85.797256 79.665517 -39.933445
vn -5.309337 -3.359963 -0.001090
v 86.213820 79.007926 -40.678547
vn -5.297873 -3.377862 0.014401
v 85.799707 79.662381 -40.988000
vn -5.313259 -3.353749 0.003003
v 86.522608 78.519886 -41.301928
vn -5.336873 -3.315904 -0.030385
v 85.996612 79.340321 -37.542097
vn -5.326613 -3.332274 -0.037629
v 86.400972 78.695399 -37.957619
vn -5.328473 -3.329370 -0.031245
v 86.480099 78.559928 -37.084724
vn -5.322702 -3.338681 -0.021718
v 86.971092 77.801818 -39.520835
vn -5.323050 -3.338167 -0.010076
v 87.299832 77.283579 -40.473844
vn -5.328365 -3.329517 -0.031540
v 87.515163 76.933613 -39.347617
vn -5.319720 -3.343494 0.003174
v 86.946027 77.847736 -41.107196
vn -2.658747 -1.673518 0.003106
v 86.812050 78.059200 -41.806050
vn -5.335889 -3.317386 -0.040741
v 88.021413 76.116067 -39.054557
vn -2.666051 -1.656029 -0.019048
v 88.266225 75.729550 -39.664100
vn -5.321474 -3.340452 -0.040942
v 86.867490 77.949663 -37.793332
vn -5.327906 -3.330207 -0.035494
v 87.380115 77.131814 -37.587281
vn -5.367876 -3.265457 0.033336
v 85.460999 80.226825 -34.784818
vn -5.365991 -3.268518 0.036528
v 85.515840 80.125041 -35.901069
vn -5.358936 -3.280083 0.030488
v 85.968055 79.387365 -35.344855
vn -2.592503 -1.575977 -0.041967
v 88.199400 75.745200 -35.081750
vn -2.676269 -1.647778 -0.041426
v 88.535750 75.244650 -36.940750
vn -5.356316 -3.283627 -0.076966
v 88.291686 75.644849 -37.091844
vn -2.622209 -1.589036 -0.014628
v 87.260650 77.265550 -33.577450
vn -5.361435 -3.275913 0.041824
v 85.094807 80.809843 -36.407463
vn -5.353584 -3.288567 0.052449
v 84.677413 81.486599 -36.738875
vn -5.335562 -3.317965 -0.035623
v 87.709530 76.608645 -38.345849
vn -5.349555 -3.294983 -0.051419
v 87.868790 76.343381 -37.346255
vn -5.326515 -3.332276 0.011762
v 85.531398 80.095662 -38.025909
vn -5.328016 -3.329519 0.060198
v 85.022241 80.895419 -38.367638
vn -5.322619 -3.338700 -0.033106
v 86.643996 78.317881 -38.686713
vn -5.315905 -3.349503 -0.011860
v 86.400411 78.712367 -39.637330
vn -5.348715 -3.296254 0.066113
v 84.649303 81.513599 -37.698011
vn -2.613907 -1.677678 0.014770
v 85.002925 80.904700 -41.020575
vn -5.339380 -3.311867 -0.008719
v 86.562232 78.419194 -35.939574
vn -5.353311 -3.289150 0.005097
v 85.534902 80.080266 -36.973712
vn -2.674827 -1.647353 0.033720
v 84.287150 82.096650 -37.940300
vn -5.362463 -3.274422 0.006107
v 86.410343 78.672700 -34.779388
vn -5.358635 -3.280456 0.045139
v 84.741632 81.392226 -35.930281
vn -5.368924 -3.263853 -0.017611
v 86.810484 78.011840 -34.223501
vn -5.375065 -3.253746 0.000045
v 86.342913 78.779892 -33.756115
vn -2.692439 -1.623492 0.006079
v 86.302300 78.849650 -33.114300
vn -2.673949 -1.648618 0.040739
v 84.419350 81.844850 -39.605250
vn -5.348684 -3.296206 0.070771
v 84.580344 81.606109 -38.646154
vn -5.338052 -3.313636 -0.053486
v 87.187859 77.414997 -35.714014
# 82 vertices, 0 vertices normals

f 1//1 82//82 34//34
f 82//82 72//72 35//35
f 37//37 38//38 39//39
f 40//40 41//41 15//15
f 43//43 44//44 45//45
f 46//46 47//47 48//48
f 6//6 17//17 52//52
f 17//17 6//6 19//19
f 6//6 47//47 19//19
f 42//42 50//50 49//49
f 35//35 53//53 54//54
f 63//63 22//22 21//21
f 55//55 56//56 57//57
f 33//33 36//36 58//58
f 14//14 60//60 59//59
f 31//31 77//77 61//61
f 62//62 76//76 63//63
f 64//64 48//48 51//51
f 8//8 25//25 41//41
f 65//65 60//60 36//36
f 66//66 67//67 37//37
f 68//68 69//69 46//46
f 67//67 7//7 70//70
f 66//66 43//43 73//73
f 44//44 68//68 53//53
f 54//54 64//64 65//65
f 69//69 39//39 40//40
f 10//10 67//67 81//81
f 81//81 70//70 74//74
f 57//57 72//72 75//75
f 13//13 55//55 28//28
f 73//73 56//56 62//62
f 76//76 30//30 22//22
f 1//1 34//34 77//77
f 75//75 77//77 78//78
f 2//2 20//20 23//23
f 13//13 28//28 30//30
f 78//78 31//31 79//79
f 82//82 9//9 33//33
f 9//9 82//82 35//35
f 82//82 1//1 72//72
f 35//35 72//72 45//45
f 33//33 9//9 36//36
f 58//58 36//36 14//14
f 11//11 37//37 39//39
f 37//37 10//10 38//38
f 39//39 38//38 8//8
f 4//4 40//40 42//42
f 16//16 42//42 15//15
f 15//15 42//42 40//40
f 12//12 43//43 45//45
f 43//43 11//11 44//44
f 3//3 46//46 48//48
f 46//46 4//4 47//47
f 48//48 47//47 6//6
f 47//47 4//4 49//49
f 47//47 49//49 18//18
f 47//47 18//18 19//19
f 4//4 42//42 49//49
f 42//42 16//16 50//50
f 49//49 50//50 18//18
f 52//52 51//51 6//6
f 2//2 51//51 20//20
f 52//52 20//20 51//51
f 9//9 35//35 54//54
f 35//35 45//45 53//53
f 54//54 53//53 3//3
f 5//5 55//55 57//57
f 55//55 13//13 56//56
f 57//57 56//56 12//12
f 58//58 24//24 33//33
f 2//2 23//23 60//60
f 59//59 60//60 23//23
f 61//61 34//34 24//24
f 7//7 62//62 63//63
f 62//62 13//13 76//76
f 2//2 64//64 51//51
f 64//64 3//3 48//48
f 51//51 48//48 6//6
f 41//41 25//25 15//15
f 9//9 65//65 36//36
f 65//65 2//2 60//60
f 36//36 60//60 14//14
f 11//11 66//66 37//37
f 66//66 7//7 67//67
f 37//37 67//67 10//10
f 38//38 10//10 26//26
f 26//26 71//71 38//38
f 71//71 8//8 38//38
f 3//3 68//68 46//46
f 68//68 11//11 69//69
f 46//46 69//69 4//4
f 81//81 67//67 70//70
f 70//70 7//7 63//63
f 71//71 25//25 8//8
f 72//72 12//12 45//45
f 7//7 66//66 73//73
f 66//66 11//11 43//43
f 73//73 43//43 12//12
f 45//45 44//44 53//53
f 44//44 11//11 68//68
f 53//53 68//68 3//3
f 9//9 54//54 65//65
f 54//54 3//3 64//64
f 65//65 64//64 2//2
f 4//4 69//69 40//40
f 69//69 11//11 39//39
f 40//40 39//39 41//41
f 70//70 21//21 74//74
f 21//21 70//70 63//63
f 80//80 81//81 27//27
f 74//74 27//27 81//81
f 5//5 57//57 75//75
f 57//57 12//12 72//72
f 75//75 72//72 1//1
f 55//55 5//5 29//29
f 55//55 29//29 28//28
f 7//7 73//73 62//62
f 73//73 12//12 56//56
f 62//62 56//56 13//13
f 30//30 76//76 13//13
f 63//63 76//76 22//22
f 77//77 34//34 61//61
f 5//5 75//75 78//78
f 75//75 1//1 77//77
f 78//78 77//77 31//31
f 5//5 32//32 29//29
f 5//5 78//78 32//32
f 79//79 32//32 78//78
f 10//10 80//80 26//26
f 10//10 81//81 80//80
f 41//41 39//39 8//8
f 82//82 33//33 34//34
f 34//34 33//33 24//24
# 134 faces, 0 coords texture

# End of File
