####
#
# OBJ File Generated by Meshlab
#
####
# Object 2708_C162_S_0.obj
#
# Vertices: 91
# Faces: 152
#
####
vn 5.363741 -3.271965 -0.054180
v -86.796255 77.748326 -42.407297
vn 5.390331 -3.227333 -0.080776
v -86.156305 78.655948 -36.153816
vn 5.383011 -3.239782 -0.070367
v -85.609166 79.616190 -37.754666
vn 5.368258 -3.264513 -0.055572
v -85.767006 79.414400 -41.130109
vn 5.373350 -3.255724 -0.073476
v -86.168981 78.726858 -39.495382
vn 5.372996 -3.255818 -0.089943
v -86.693553 77.809439 -37.871324
vn 5.368762 -3.261924 -0.109455
v -87.790586 76.029229 -38.040021
vn 5.389788 -3.225380 -0.158382
v -88.389158 74.969426 -36.610961
vn 5.378247 -3.246006 -0.125335
v -87.333437 76.713151 -36.320784
vn 5.375978 -3.251757 -0.056580
v -85.057244 80.559795 -39.746320
vn 5.364402 -3.270157 -0.081208
v -88.139663 75.501843 -39.764183
vn 5.382838 -3.238470 -0.125323
v -88.752648 74.435853 -38.310923
vn 5.360985 -3.276371 -0.060176
v -88.380546 75.138520 -41.477916
vn 5.360736 -3.276097 -0.086540
v -87.156375 77.091735 -39.430535
vn 2.355100 -1.415436 -0.059259
v -89.060150 73.910969 -37.980687
vn 2.310240 -1.410736 -0.024575
v -87.691100 76.293050 -43.074800
vn 2.733600 -1.666914 -0.031605
v -88.726300 74.566800 -41.220000
vn 2.264529 -1.364441 -0.023673
v -84.458600 81.553000 -39.725000
vn 2.390974 -1.446453 -0.025236
v -84.892950 80.864350 -41.505150
vn 2.676626 -1.618086 -0.062799
v -89.044100 73.981100 -39.034500
vn 2.323762 -1.412383 -0.041045
v -89.017900 74.068300 -40.162700
vn 2.774014 -1.645048 -0.040420
v -86.373300 78.256600 -34.587600
vn 2.321853 -1.380498 -0.027653
v -85.749100 79.313900 -34.831400
vn 2.223054 -1.323727 -0.047864
v -86.829100 77.476300 -34.328000
vn 2.346532 -1.427458 -0.023639
v -85.663350 79.613400 -42.887550
vn 2.264491 -1.347380 -0.074448
v -88.627900 74.533200 -35.989300
vn 2.688700 -1.602079 -0.068566
v -87.480500 76.396450 -34.682350
vn 2.337906 -1.398648 -0.064716
v -87.928900 75.655900 -34.935900
vn 2.367108 -1.418358 -0.029158
v -85.001081 80.590604 -35.949875
vn 2.691471 -1.646310 -0.028148
v -88.150600 75.530500 -42.418800
vn 2.245585 -1.372229 -0.025422
v -88.585700 74.809050 -41.815500
vn 2.241949 -1.367826 -0.024123
v -86.605400 78.080300 -43.491400
vn 2.340165 -1.411389 -0.022688
v -84.527393 81.405065 -37.640550
vn 5.362321 -3.274311 -0.053067
v -86.240123 78.643523 -41.376146
vn 5.367266 -3.266061 -0.059327
v -86.823971 77.684235 -41.180357
vn 5.383449 -3.238619 -0.089771
v -86.409822 78.303324 -38.670140
vn 5.378436 -3.247364 -0.070259
v -85.874526 79.195556 -38.632072
vn 5.389357 -3.228841 -0.088246
v -86.150864 78.713476 -37.799267
vn 5.364683 -3.270395 -0.055659
v -87.202185 77.079875 -42.238599
vn 5.361780 -3.275137 -0.056469
v -87.595988 76.431407 -42.076236
vn 5.364078 -3.270622 -0.085947
v -86.931815 77.440727 -38.712458
vn 5.352661 -3.289103 -0.093987
v -87.242645 76.918195 -37.951418
vn 5.351033 -3.292297 -0.075091
v -87.449440 76.600388 -38.772171
vn 5.384185 -3.235237 -0.148993
v -87.874037 75.819933 -36.468535
vn 5.385278 -3.233716 -0.142324
v -88.112119 75.461497 -37.304378
vn 5.368948 -3.261104 -0.130148
v -87.569320 76.359997 -37.204508
vn 5.379608 -3.245852 -0.051442
v -84.804909 80.960976 -38.707439
vn 2.689057 -1.620183 -0.026558
v -84.488000 81.488600 -38.807600
vn 5.376110 -3.251482 -0.060847
v -85.077437 80.544562 -40.705386
vn 2.677759 -1.614933 -0.029315
v -84.656950 81.238600 -40.554650
vn 5.371072 -3.259863 -0.057028
v -85.473086 79.887020 -40.470397
vn 5.374335 -3.254494 -0.056345
v -85.373838 80.067653 -41.353316
vn 5.357817 -3.281409 -0.066783
v -87.759743 76.136058 -40.489391
vn 5.382938 -3.239497 -0.088479
v -86.442713 78.202585 -36.999227
vn 5.394043 -3.220984 -0.088777
v -85.885750 79.130698 -36.934690
vn 5.379211 -3.244906 -0.113276
v -88.494622 74.888238 -39.021644
vn 5.369592 -3.261139 -0.100374
v -88.605931 74.736603 -39.851552
vn 5.368483 -3.263197 -0.089099
v -87.979229 75.742439 -38.890753
vn 5.386667 -3.232233 -0.120772
v -88.321024 75.149803 -38.156701
vn 5.365577 -3.268359 -0.081272
v -87.146809 77.131397 -40.294933
vn 5.351900 -3.290792 -0.079088
v -87.609633 76.359618 -39.613799
vn 5.395638 -3.218515 -0.079519
v -86.296280 78.402605 -35.339302
vn 5.399723 -3.212039 -0.064797
v -85.866824 79.129695 -35.529917
vn 5.376234 -3.250497 -0.093745
v -86.721904 77.812932 -39.555176
vn 5.364412 -3.270837 -0.055387
v -85.961846 79.081750 -40.373710
vn 5.368533 -3.264070 -0.055739
v -85.632315 79.610212 -39.546367
vn 5.364414 -3.269736 -0.098746
v -87.008076 77.270841 -37.096703
vn 5.363317 -3.272643 -0.055184
v -86.184335 78.753364 -42.530111
vn 5.368681 -3.263861 -0.052421
v -85.751180 79.453624 -41.947726
vn 2.628709 -1.591434 -0.024834
v -85.278600 80.238850 -42.244050
vn 5.372637 -3.257322 -0.054365
v -85.335830 80.082154 -38.671200
vn 5.377558 -3.249227 -0.052970
v -85.079403 80.491963 -37.743552
vn 5.386707 -3.231477 -0.139119
v -88.616773 74.628118 -37.486211
vn 2.622873 -1.570965 -0.076281
v -88.828700 74.244225 -36.793000
vn 5.379478 -3.244964 -0.098217
v -86.740703 77.685979 -36.083230
vn 5.389211 -3.227721 -0.127829
v -87.128167 77.015738 -35.327593
vn 5.390116 -3.225489 -0.145341
v -87.639138 76.169564 -35.590293
vn 5.387647 -3.232044 -0.070115
v -85.341243 80.044025 -36.882087
vn 5.397890 -3.214907 -0.074119
v -85.609120 79.574033 -36.111220
vn 5.360485 -3.277241 -0.057535
v -87.925339 75.881601 -41.409257
vn 2.680081 -1.597210 -0.031310
v -85.382150 79.940150 -35.367550
vn 5.379312 -3.246275 -0.055600
v -84.918536 80.744638 -36.962846
vn 5.391572 -3.222432 -0.158283
v -88.128980 75.364996 -35.819223
vn 2.739683 -1.630882 -0.081691
v -88.204075 75.216525 -35.373625
vn 2.675025 -1.631689 -0.028696
v -87.120450 77.232500 -43.298150
vn 2.679964 -1.635437 -0.028780
v -86.152750 78.816950 -43.202200
vn 2.653365 -1.598419 -0.026634
v -84.763300 80.998850 -36.754100
vn 5.363170 -3.272735 -0.062991
v -87.367523 76.790575 -41.203691
vn 5.363870 -3.271593 -0.063032
v -88.510164 74.909349 -40.578338
vn 5.392331 -3.223283 -0.105594
v -86.698170 77.722382 -35.111304
vn 5.368900 -3.263085 -0.070273
v -86.533444 78.146802 -40.342057
# 91 vertices, 0 vertices normals

f 36//36 37//37 38//38
f 41//41 42//42 43//43
f 13//13 17//17 31//31
f 44//44 45//45 46//46
f 47//47 18//18 48//48
f 49//49 19//19 50//50
f 51//51 52//52 49//49
f 12//12 15//15 20//20
f 54//54 38//38 55//55
f 11//11 56//56 57//57
f 58//58 59//59 56//56
f 60//60 61//61 53//53
f 43//43 58//58 61//61
f 90//90 62//62 22//22
f 65//65 51//51 66//66
f 34//34 65//65 91//91
f 67//67 46//46 42//42
f 13//13 89//89 17//17
f 34//34 68//68 69//69
f 69//69 70//70 52//52
f 71//71 47//47 72//72
f 71//71 37//37 66//66
f 59//59 45//45 73//73
f 62//62 90//90 75//75
f 67//67 54//54 75//75
f 8//8 26//26 74//74
f 55//55 78//78 79//79
f 90//90 22//22 24//24
f 88//88 80//80 40//40
f 13//13 31//31 30//30
f 79//79 81//81 63//63
f 72//72 82//82 78//78
f 64//64 36//36 41//41
f 44//44 77//77 83//83
f 1//1 39//39 85//85
f 25//25 68//68 86//86
f 29//29 82//82 87//87
f 1//1 34//34 35//35
f 6//6 36//36 38//38
f 36//36 5//5 37//37
f 38//38 37//37 3//3
f 39//39 88//88 40//40
f 39//39 40//40 16//16
f 39//39 16//16 85//85
f 14//14 41//41 43//43
f 41//41 6//6 42//42
f 43//43 42//42 7//7
f 9//9 44//44 46//46
f 44//44 8//8 45//45
f 46//46 45//45 7//7
f 18//18 47//47 10//10
f 48//48 33//33 47//47
f 10//10 50//50 18//18
f 50//50 10//10 49//49
f 10//10 51//51 49//49
f 51//51 4//4 52//52
f 49//49 52//52 19//19
f 13//13 80//80 89//89
f 80//80 88//88 53//53
f 57//57 89//89 11//11
f 2//2 54//54 55//55
f 54//54 6//6 38//38
f 55//55 38//38 3//3
f 20//20 56//56 12//12
f 56//56 20//20 57//57
f 21//21 57//57 20//20
f 11//11 58//58 56//56
f 58//58 7//7 59//59
f 56//56 59//59 12//12
f 88//88 60//60 53//53
f 60//60 14//14 61//61
f 53//53 61//61 11//11
f 14//14 43//43 61//61
f 43//43 7//7 58//58
f 61//61 58//58 11//11
f 62//62 2//2 63//63
f 62//62 63//63 23//23
f 62//62 23//23 22//22
f 14//14 60//60 64//64
f 5//5 65//65 66//66
f 65//65 4//4 51//51
f 66//66 51//51 10//10
f 35//35 34//34 91//91
f 34//34 4//4 65//65
f 91//91 65//65 5//5
f 39//39 1//1 35//35
f 6//6 67//67 42//42
f 67//67 9//9 46//46
f 42//42 46//46 7//7
f 4//4 34//34 69//69
f 34//34 1//1 68//68
f 69//69 68//68 25//25
f 4//4 69//69 52//52
f 69//69 25//25 70//70
f 52//52 70//70 19//19
f 3//3 71//71 72//72
f 71//71 10//10 47//47
f 72//72 47//47 33//33
f 10//10 71//71 66//66
f 71//71 3//3 37//37
f 66//66 37//37 5//5
f 74//74 73//73 8//8
f 12//12 73//73 15//15
f 74//74 15//15 73//73
f 12//12 59//59 73//73
f 59//59 7//7 45//45
f 73//73 45//45 8//8
f 2//2 62//62 75//75
f 75//75 76//76 9//9
f 9//9 67//67 75//75
f 67//67 6//6 54//54
f 75//75 54//54 2//2
f 60//60 91//91 64//64
f 91//91 5//5 64//64
f 9//9 76//76 77//77
f 77//77 76//76 27//27
f 28//28 77//77 27//27
f 2//2 55//55 79//79
f 55//55 3//3 78//78
f 79//79 78//78 29//29
f 30//30 80//80 13//13
f 80//80 30//30 40//40
f 16//16 40//40 30//30
f 2//2 79//79 63//63
f 79//79 29//29 81//81
f 63//63 81//81 23//23
f 3//3 72//72 78//78
f 72//72 33//33 82//82
f 78//78 82//82 29//29
f 90//90 24//24 76//76
f 27//27 76//76 24//24
f 14//14 64//64 41//41
f 64//64 5//5 36//36
f 41//41 36//36 6//6
f 8//8 83//83 26//26
f 84//84 26//26 83//83
f 8//8 44//44 83//83
f 44//44 9//9 77//77
f 84//84 83//83 28//28
f 28//28 83//83 77//77
f 85//85 32//32 1//1
f 1//1 32//32 68//68
f 86//86 68//68 32//32
f 87//87 82//82 33//33
f 88//88 35//35 60//60
f 88//88 39//39 35//35
f 89//89 80//80 53//53
f 90//90 76//76 75//75
f 89//89 53//53 11//11
f 91//91 60//60 35//35
f 89//89 57//57 21//21
f 89//89 21//21 17//17
# 152 faces, 0 coords texture

# End of File
