####
#
# OBJ File Generated by Meshlab
#
####
# Object 2710_C162_S_2.obj
#
# Vertices: 110
# Faces: 182
#
####
vn 5.567245 -2.911380 -0.082759
v -82.078299 85.062544 15.375862
vn 5.560116 -2.925312 -0.076813
v -80.991877 87.187514 12.838045
vn 5.564314 -2.917385 -0.058399
v -83.995785 81.579749 8.887654
vn 5.551603 -2.941468 -0.071642
v -83.710738 82.023606 13.300159
vn 5.558979 -2.927757 -0.062766
v -81.353930 86.459660 14.610140
vn 5.561688 -2.922388 -0.073171
v -82.532773 84.302726 11.041655
vn 5.559159 -2.927725 -0.049636
v -84.549349 80.445472 12.223822
vn 5.553578 -2.937109 -0.086509
v -82.859829 83.583273 14.233086
vn 5.559162 -2.927009 -0.062885
v -82.050305 85.284103 9.123834
vn 5.551636 -2.941375 -0.062648
v -82.502478 84.470080 7.042456
vn 5.571638 -2.903297 -0.077603
v -83.383665 82.778815 7.103444
vn 5.563907 -2.917620 -0.079227
v -83.024282 83.398125 9.112159
vn 5.560063 -2.925892 -0.056083
v -83.652034 82.177397 11.069176
vn 5.573044 -2.901416 -0.036453
v -84.100904 81.387413 7.875091
vn 5.562421 -2.920800 -0.074463
v -82.007399 85.235072 13.065228
vn 5.559195 -2.926880 -0.083391
v -81.514846 86.243151 10.988918
vn 5.537551 -2.967715 -0.080974
v -83.669703 82.048793 15.137794
vn 5.551219 -2.941637 -0.057029
v -81.631660 86.075984 7.262191
vn 5.561517 -2.923102 -0.054855
v -81.054145 87.161004 8.971686
vn 2.902979 -1.522198 -0.039451
v -80.521450 88.140625 10.461658
vn 2.513669 -1.325223 -0.034651
v -80.487000 88.185100 11.230600
vn 2.913908 -1.531803 -0.024830
v -84.519900 80.468300 14.249400
vn 2.346930 -1.247372 -0.027321
v -84.354800 80.771700 14.922800
vn 2.161956 -1.138198 -0.030660
v -81.235400 86.663200 15.515300
vn 2.963398 -1.557205 -0.052915
v -81.632000 85.892400 15.859200
vn 2.266282 -1.184483 -0.042962
v -82.032200 85.112900 16.438500
vn 2.921893 -1.553270 -0.037604
v -81.054300 87.019400 14.775000
vn 2.422467 -1.276745 -0.041644
v -82.890800 83.453700 16.538900
vn 2.400780 -1.290906 -0.025358
v -82.194700 85.064000 5.963290
vn 3.050254 -1.586889 -0.030462
v -84.139300 81.327600 6.975900
vn 2.261319 -1.172549 -0.019284
v -84.272900 81.068600 7.091370
vn 2.710228 -1.413640 -0.035014
v -83.240950 83.081600 6.023145
vn 2.737330 -1.421728 -0.034016
v -81.238500 86.836400 7.097940
vn 2.719665 -1.412128 -0.025262
v -80.850100 87.570000 8.070670
vn 2.472953 -1.306895 -0.024627
v -85.019700 79.544500 12.791900
vn 2.497625 -1.325469 -0.020816
v -85.185000 79.256900 11.639000
vn 2.348221 -1.260536 -0.032235
v -83.760300 81.858400 15.983000
vn 2.885423 -1.540461 -0.039385
v -84.182700 81.086900 15.175500
vn 2.618522 -1.392773 -0.021045
v -85.172200 79.297500 10.407300
vn 2.973029 -1.541895 -0.021627
v -84.394900 80.825700 7.489260
vn 2.362574 -1.228131 -0.033021
v -83.716300 82.162700 6.228000
vn 2.372251 -1.230384 -0.019111
v -84.718800 80.195800 8.167820
vn 2.416607 -1.279593 -0.020755
v -85.107100 79.431400 9.707880
vn 3.034869 -1.577762 -0.029676
v -84.819000 79.988600 8.823050
vn 2.575835 -1.341157 -0.030584
v -80.635600 87.968700 8.692370
vn 2.591160 -1.373452 -0.038181
v -80.700300 87.711400 13.779000
vn 2.367853 -1.248660 -0.034190
v -80.490600 88.139200 12.803100
vn 2.384846 -1.233022 -0.031711
v -80.502700 88.211200 9.361130
vn 2.936966 -1.572859 -0.041019
v -81.824600 85.738800 6.358880
vn 2.322260 -1.209444 -0.045462
v -81.477000 86.398700 6.577090
vn 2.989348 -1.576786 -0.039396
v -80.510700 88.134000 11.473200
vn 5.551989 -2.940871 -0.070871
v -81.271073 86.727905 9.988442
vn 5.566142 -2.913888 -0.072451
v -80.810542 87.605213 9.772338
vn 5.557493 -2.930471 -0.070814
v -80.932676 87.346847 10.959070
vn 5.562349 -2.921681 -0.049625
v -84.227521 81.043000 13.138007
vn 5.555086 -2.935203 -0.060171
v -84.130648 81.212667 14.045086
vn 5.563558 -2.918914 -0.068253
v -81.686582 85.818940 14.948331
vn 5.561082 -2.923161 -0.075718
v -82.445269 84.385040 13.706645
vn 5.547187 -2.948730 -0.109979
v -82.857052 83.626875 13.250055
vn 5.548073 -2.947439 -0.097458
v -82.476125 84.362629 12.797639
vn 5.569870 -2.906528 -0.081738
v -82.958321 83.598508 7.038785
vn 2.628560 -1.385283 -0.026612
v -82.717750 84.083075 5.897343
vn 5.579269 -2.887950 -0.097867
v -82.474224 84.285343 15.816162
vn 2.864032 -1.485775 -0.058206
v -82.353200 84.494250 16.438550
vn 5.558006 -2.929522 -0.063722
v -83.597555 82.346683 8.209732
vn 5.576399 -2.894375 -0.062764
v -82.476912 84.310941 14.767312
vn 5.558961 -2.926740 -0.088743
v -82.880841 83.512868 15.276735
vn 5.576807 -2.892838 -0.095123
v -82.773146 83.916592 8.152736
vn 5.556450 -2.931864 -0.062579
v -82.306113 84.819797 8.189086
vn 5.582429 -2.882317 -0.083544
v -82.540533 84.333668 9.150081
vn 5.561157 -2.922813 -0.092280
v -83.199823 83.101300 8.023031
vn 5.546456 -2.951108 -0.078361
v -83.454410 82.593658 8.988597
vn 5.564426 -2.917753 -0.027238
v -81.327456 86.647447 8.109962
vn 5.526198 -2.989427 -0.051344
v -82.056146 85.295628 7.043822
vn 5.538412 -2.967043 -0.017784
v -81.815118 85.728745 8.170788
vn 5.564945 -2.916738 -0.049305
v -84.170329 81.177239 11.719009
vn 5.560398 -2.925297 -0.054687
v -83.698478 82.066870 12.241938
vn 5.535262 -2.971848 -0.085989
v -83.288817 82.770602 14.708187
vn 5.531682 -2.978502 -0.086018
v -83.319321 82.685857 15.639950
vn 2.808951 -1.516056 -0.040662
v -83.411700 82.500150 16.182350
vn 5.541447 -2.960420 -0.081142
v -83.734303 81.950900 14.321017
vn 5.557769 -2.930398 -0.044945
v -84.632323 80.303686 11.165386
vn 5.558982 -2.928077 -0.049111
v -83.060446 83.300860 11.040299
vn 5.553147 -2.939011 -0.052992
v -83.312697 82.834937 10.069076
vn 5.570739 -2.905372 -0.056161
v -82.789654 83.827824 10.095674
vn 5.553803 -2.936887 -0.088955
v -82.258465 84.792872 11.988778
vn 5.562374 -2.920450 -0.096864
v -82.023527 85.273403 11.015912
vn 5.565992 -2.913617 -0.094432
v -81.756130 85.750175 11.977978
vn 5.562104 -2.921429 -0.076531
v -83.957753 81.627160 9.810826
vn 5.569045 -2.908522 -0.064859
v -84.217477 81.104695 10.605773
vn 5.577756 -2.891725 -0.069190
v -84.412513 80.762599 9.448558
vn 5.568263 -2.910454 -0.044361
v -82.064962 85.108160 14.276531
vn 5.568525 -2.909874 -0.049615
v -81.639269 85.924612 13.938418
vn 5.578731 -2.890300 -0.046270
v -84.432999 80.739978 8.609696
vn 5.558143 -2.929543 -0.056838
v -83.280140 82.867564 11.850937
vn 5.550523 -2.943195 -0.082244
v -83.274188 82.861612 12.768903
vn 2.778136 -1.466640 -0.023074
v -84.769800 80.006400 13.520650
vn 5.572633 -2.901160 -0.082703
v -82.288128 84.799873 10.077401
vn 5.570575 -2.905418 -0.073180
v -81.477457 86.255120 12.909366
vn 5.560222 -2.925266 -0.065859
v -81.204176 86.762693 13.805968
vn 5.555264 -2.934237 -0.085998
v -81.785274 85.758602 10.047961
vn 5.551688 -2.941231 -0.076157
v -82.817523 83.740322 12.117904
vn 5.539959 -2.962667 -0.097975
v -83.281791 82.810448 13.752092
vn 5.563107 -2.919460 -0.082053
v -81.255662 86.710772 11.923674
vn 5.548518 -2.947770 -0.040909
v -81.542325 86.241263 9.074815
vn 5.557021 -2.931312 -0.073136
v -80.809028 87.556694 11.950367
vn 5.551210 -2.942818 -0.046043
v -84.931378 79.747591 10.584275
vn 5.564299 -2.917731 -0.058494
v -84.665269 80.261829 10.013757
vn 5.574302 -2.898571 -0.058384
v -83.725879 82.113203 7.368871
vn 5.558856 -2.928347 -0.047759
v -84.619340 80.298763 13.052960
# 110 vertices, 0 vertices normals

f 52//52 53//53 54//54
f 57//57 24//24 25//25
f 5//5 27//27 24//24
f 58//58 59//59 60//60
f 14//14 31//31 30//30
f 26//26 63//63 1//1
f 66//66 63//63 67//67
f 68//68 69//69 70//70
f 19//19 73//73 34//34
f 69//69 74//74 75//75
f 76//76 77//77 55//55
f 67//67 79//79 78//78
f 79//79 28//28 80//80
f 4//4 81//81 56//56
f 83//83 84//84 85//85
f 86//86 87//87 88//88
f 14//14 40//40 31//31
f 66//66 58//58 92//92
f 93//93 57//57 92//92
f 11//11 32//32 61//61
f 90//90 76//76 82//82
f 77//77 95//95 96//96
f 98//98 85//85 70//70
f 107//107 39//39 43//43
f 19//19 34//34 45//45
f 89//89 72//72 84//84
f 93//93 99//99 100//100
f 87//87 98//98 101//101
f 60//60 102//102 86//86
f 96//96 59//59 103//103
f 81//81 103//103 78//78
f 95//95 83//83 102//102
f 2//2 47//47 46//46
f 88//88 104//104 99//99
f 105//105 52//52 101//101
f 50//50 18//18 49//49
f 18//18 50//50 33//33
f 18//18 74//74 49//49
f 104//104 54//54 106//106
f 2//2 106//106 47//47
f 53//53 45//45 48//48
f 17//17 37//37 38//38
f 105//105 75//75 73//73
f 16//16 52//52 54//54
f 52//52 19//19 53//53
f 54//54 53//53 20//20
f 21//21 54//54 20//20
f 55//55 4//4 56//56
f 22//22 56//56 23//23
f 22//22 110//110 55//55
f 57//57 25//25 1//1
f 24//24 57//57 5//5
f 1//1 25//25 26//26
f 15//15 58//58 60//60
f 58//58 8//8 59//59
f 60//60 59//59 102//102
f 10//10 62//62 29//29
f 63//63 26//26 64//64
f 64//64 28//28 63//63
f 62//62 61//61 32//32
f 11//11 71//71 65//65
f 65//65 3//3 14//14
f 8//8 66//66 67//67
f 66//66 1//1 63//63
f 67//67 63//63 28//28
f 12//12 68//68 70//70
f 68//68 10//10 69//69
f 70//70 69//69 9//9
f 3//3 65//65 72//72
f 11//11 61//61 71//71
f 61//61 10//10 68//68
f 71//71 68//68 12//12
f 33//33 73//73 18//18
f 73//73 33//33 34//34
f 9//9 69//69 75//75
f 69//69 10//10 74//74
f 75//75 74//74 18//18
f 76//76 13//13 77//77
f 55//55 77//77 4//4
f 8//8 67//67 78//78
f 67//67 28//28 79//79
f 78//78 79//79 17//17
f 17//17 79//79 37//37
f 80//80 37//37 79//79
f 38//38 81//81 17//17
f 81//81 38//38 56//56
f 23//23 56//56 38//38
f 82//82 36//36 107//107
f 36//36 82//82 7//7
f 6//6 83//83 85//85
f 83//83 13//13 84//84
f 85//85 84//84 12//12
f 15//15 86//86 88//88
f 86//86 6//6 87//87
f 88//88 87//87 16//16
f 89//89 13//13 90//90
f 30//30 109//109 14//14
f 109//109 41//41 11//11
f 41//41 109//109 30//30
f 1//1 66//66 92//92
f 66//66 8//8 58//58
f 92//92 58//58 15//15
f 15//15 93//93 92//92
f 93//93 5//5 57//57
f 92//92 57//57 1//1
f 11//11 41//41 32//32
f 40//40 14//14 94//94
f 40//40 94//94 42//42
f 107//107 108//108 82//82
f 90//90 13//13 76//76
f 82//82 76//76 7//7
f 4//4 77//77 96//96
f 77//77 13//13 95//95
f 96//96 95//95 102//102
f 97//97 35//35 110//110
f 9//9 98//98 70//70
f 98//98 6//6 85//85
f 70//70 85//85 12//12
f 108//108 43//43 44//44
f 13//13 89//89 84//84
f 89//89 3//3 72//72
f 84//84 72//72 12//12
f 5//5 93//93 100//100
f 93//93 15//15 99//99
f 100//100 99//99 2//2
f 16//16 87//87 101//101
f 87//87 6//6 98//98
f 101//101 98//98 9//9
f 15//15 60//60 86//86
f 86//86 102//102 6//6
f 4//4 96//96 103//103
f 96//96 102//102 59//59
f 103//103 59//59 8//8
f 17//17 81//81 78//78
f 81//81 4//4 103//103
f 78//78 103//103 8//8
f 3//3 91//91 94//94
f 42//42 94//94 44//44
f 95//95 13//13 83//83
f 102//102 83//83 6//6
f 15//15 88//88 99//99
f 88//88 16//16 104//104
f 99//99 104//104 2//2
f 19//19 45//45 53//53
f 20//20 53//53 48//48
f 9//9 105//105 101//101
f 105//105 19//19 52//52
f 101//101 52//52 16//16
f 74//74 29//29 49//49
f 2//2 104//104 106//106
f 104//104 16//16 54//54
f 54//54 21//21 51//51
f 106//106 54//54 51//51
f 100//100 46//46 27//27
f 46//46 100//100 2//2
f 5//5 100//100 27//27
f 106//106 51//51 47//47
f 19//19 105//105 73//73
f 105//105 9//9 75//75
f 73//73 75//75 18//18
f 107//107 36//36 39//39
f 91//91 90//90 108//108
f 108//108 90//90 82//82
f 108//108 107//107 43//43
f 65//65 109//109 11//11
f 10//10 61//61 62//62
f 71//71 61//61 68//68
f 14//14 109//109 65//65
f 65//65 71//71 72//72
f 14//14 3//3 94//94
f 7//7 35//35 36//36
f 72//72 71//71 12//12
f 91//91 108//108 44//44
f 74//74 10//10 29//29
f 110//110 7//7 55//55
f 94//94 91//91 44//44
f 55//55 56//56 22//22
f 89//89 90//90 91//91
f 110//110 22//22 97//97
f 3//3 89//89 91//91
f 110//110 35//35 7//7
f 7//7 76//76 55//55
# 182 faces, 0 coords texture

# End of File
