####
#
# OBJ File Generated by Meshlab
#
####
# Object 2711_C162_S_3.obj
#
# Vertices: 70
# Faces: 111
#
####
vn 5.553754 -2.937387 -0.075733
v -83.483777 82.965828 -9.383930
vn 5.565334 -2.914675 -0.087773
v -83.539928 82.775225 -7.058252
vn 5.551526 -2.940977 -0.093768
v -84.383899 81.235733 -8.231489
vn 5.556556 -2.932275 -0.068403
v -84.318094 81.415086 -10.416748
vn 5.540070 -2.963094 -0.076208
v -85.271115 79.531196 -7.294605
vn 5.558491 -2.928510 -0.069782
v -82.702247 84.431381 -8.572070
vn 5.544061 -2.955231 -0.072766
v -84.458578 81.004557 -6.018467
vn 5.567099 -2.912182 -0.060994
v -83.622859 82.567208 -4.905309
vn 5.568861 -2.908490 -0.072041
v -82.828445 84.130411 -5.836501
vn 2.806916 -1.507647 -0.025261
v -85.978800 78.226800 -8.052560
vn 2.372684 -1.276351 -0.026226
v -85.949800 78.260400 -6.876020
vn 2.608280 -1.384525 -0.029509
v -82.282100 85.196700 -7.307770
vn 2.366907 -1.258976 -0.027889
v -82.230300 85.315900 -8.455470
vn 2.650402 -1.403367 -0.035397
v -82.441700 84.869200 -6.134500
vn 2.319438 -1.228457 -0.036379
v -82.591400 84.565700 -5.422090
vn 2.762234 -1.474697 -0.032084
v -85.953000 78.286700 -8.685480
vn 2.401372 -1.281663 -0.029954
v -85.747400 78.697300 -9.809960
vn 2.270348 -1.221431 -0.025309
v -85.515000 79.026200 -5.192465
vn 2.673995 -1.410834 -0.022017
v -82.707000 84.454800 -10.457600
vn 2.430793 -1.286730 -0.021357
v -82.808500 84.266200 -10.735500
vn 2.394901 -1.265246 -0.028534
v -84.302800 81.473600 -11.727400
vn 2.437404 -1.293670 -0.028503
v -83.437500 83.099000 -11.495700
vn 2.365229 -1.265764 -0.025417
v -85.996400 78.200200 -8.441410
vn 2.575473 -1.330504 -0.031166
v -83.310600 83.157800 -4.314970
vn 2.337566 -1.250424 -0.014847
v -84.648200 80.629700 -4.127370
vn 2.769462 -1.476064 -0.019668
v -84.137975 81.586650 -4.083468
vn 2.609430 -1.378339 -0.028280
v -82.394100 85.031500 -9.359250
vn 2.417706 -1.274771 -0.029967
v -85.079150 79.983500 -11.167350
vn 2.420146 -1.275316 -0.025708
v -83.631500 82.532400 -4.043560
vn 5.549759 -2.945245 -0.064151
v -83.522913 82.916822 -10.523243
vn 5.538653 -2.966129 -0.060920
v -85.694649 78.756196 -8.069146
vn 5.533294 -2.976072 -0.063057
v -85.639248 78.840223 -6.998685
vn 5.536111 -2.969830 -0.095264
v -84.884239 80.230648 -6.621675
vn 5.559316 -2.927087 -0.061720
v -82.574502 84.655797 -7.775256
vn 5.566568 -2.913203 -0.061185
v -82.705029 84.388927 -6.855942
vn 5.559695 -2.926339 -0.068726
v -84.791956 80.474313 -8.832319
vn 5.561677 -2.922538 -0.070266
v -84.751319 80.577201 -9.864841
vn 5.557376 -2.930625 -0.073216
v -84.349484 81.328272 -9.322846
vn 5.551980 -2.940938 -0.069143
v -83.918915 82.156121 -9.877883
vn 5.548308 -2.947189 -0.091421
v -83.944457 82.079854 -8.768882
vn 5.551507 -2.941027 -0.092858
v -84.830852 80.376184 -7.738475
vn 5.545714 -2.951075 -0.120942
v -84.422403 81.118033 -7.122583
vn 5.545237 -2.952193 -0.115187
v -83.967976 81.994278 -7.644705
vn 5.553610 -2.937002 -0.094654
v -83.999571 81.888750 -6.524456
vn 5.554810 -2.935903 -0.050220
v -84.022639 81.820144 -5.457763
vn 5.572833 -2.901190 -0.065415
v -83.588735 82.655648 -5.923747
vn 5.549907 -2.944857 -0.066852
v -85.225972 79.640547 -8.366431
vn 2.774921 -1.472519 -0.033259
v -83.870150 82.286300 -11.611550
vn 5.550233 -2.944328 -0.065275
v -83.888918 82.235698 -10.937062
vn 5.563232 -2.919145 -0.082092
v -83.131415 83.619673 -8.754262
vn 5.584742 -2.878292 -0.067001
v -83.228843 83.341835 -5.341976
vn 2.788518 -1.447161 -0.037713
v -82.918575 83.932925 -4.923378
vn 5.543184 -2.958102 -0.032438
v -84.462605 80.986074 -4.920663
vn 2.771872 -1.486384 -0.016972
v -85.005350 79.969700 -4.568060
vn 5.546308 -2.952105 -0.042948
v -83.977169 81.896384 -4.638791
vn 5.574764 -2.897182 -0.079103
v -83.042908 83.751341 -7.672098
vn 5.584548 -2.878829 -0.059800
v -83.148276 83.521811 -6.433336
vn 5.557162 -2.931471 -0.053095
v -82.939516 83.997577 -9.502140
vn 5.556883 -2.930436 -0.105939
v -83.521705 82.852310 -8.212503
vn 2.769311 -1.491335 -0.036648
v -85.764000 78.588200 -6.159630
vn 5.562118 -2.921774 -0.067088
v -84.705115 80.687492 -10.815578
vn 2.757234 -1.448822 -0.032587
v -84.670600 80.768000 -11.474600
vn 5.553323 -2.938320 -0.070013
v -85.114852 79.895254 -10.304181
vn 2.753443 -1.467809 -0.034770
v -85.433650 79.300950 -10.461430
vn 2.760352 -1.466177 -0.032123
v -83.341331 83.277607 -11.382991
vn 5.533400 -2.976055 -0.050706
v -84.944410 80.093944 -5.547020
vn 5.530312 -2.981385 -0.073464
v -85.339835 79.376627 -6.194716
vn 5.541977 -2.959777 -0.068030
v -85.556768 79.032657 -8.859224
vn 5.551365 -2.942325 -0.058546
v -83.163714 83.586823 -10.233358
vn 5.551211 -2.942321 -0.069435
v -85.178853 79.753902 -9.446471
# 70 vertices, 0 vertices normals

f 6//6 13//13 34//34
f 35//35 34//34 12//12
f 9//9 35//35 14//14
f 36//36 37//37 38//38
f 38//38 39//39 40//40
f 33//33 41//41 42//42
f 43//43 44//44 42//42
f 45//45 44//44 46//46
f 9//9 15//15 52//52
f 70//70 68//68 17//17
f 41//41 47//47 36//36
f 69//69 20//20 19//19
f 22//22 49//49 48//48
f 31//31 10//10 23//23
f 31//31 68//68 47//47
f 66//66 53//53 54//54
f 45//45 55//55 53//53
f 56//56 35//35 57//57
f 57//57 51//51 46//46
f 6//6 27//27 13//13
f 6//6 58//58 27//27
f 50//50 56//56 59//59
f 67//67 60//60 32//32
f 39//39 49//49 30//30
f 59//59 43//43 40//40
f 61//61 28//28 62//62
f 37//37 63//63 61//61
f 9//9 14//14 15//15
f 28//28 63//63 64//64
f 68//68 31//31 23//23
f 8//8 24//24 29//29
f 69//69 30//30 65//65
f 31//31 5//5 32//32
f 10//10 32//32 11//11
f 31//31 32//32 10//10
f 5//5 33//33 67//67
f 34//34 13//13 12//12
f 9//9 57//57 35//35
f 35//35 56//56 34//34
f 35//35 12//12 14//14
f 3//3 36//36 38//38
f 36//36 70//70 37//37
f 38//38 37//37 4//4
f 3//3 38//38 40//40
f 38//38 4//4 39//39
f 40//40 39//39 1//1
f 7//7 33//33 42//42
f 33//33 5//5 41//41
f 42//42 41//41 3//3
f 3//3 43//43 42//42
f 43//43 2//2 44//44
f 42//42 44//44 7//7
f 8//8 45//45 46//46
f 45//45 7//7 44//44
f 46//46 44//44 2//2
f 23//23 16//16 68//68
f 68//68 16//16 17//17
f 3//3 41//41 36//36
f 41//41 5//5 47//47
f 4//4 21//21 49//49
f 48//48 49//49 21//21
f 5//5 31//31 47//47
f 6//6 50//50 58//58
f 52//52 51//51 9//9
f 8//8 51//51 24//24
f 52//52 24//24 51//51
f 54//54 53//53 25//25
f 67//67 66//66 18//18
f 54//54 18//18 66//66
f 7//7 45//45 53//53
f 45//45 8//8 55//55
f 53//53 55//55 26//26
f 25//25 53//53 26//26
f 2//2 56//56 57//57
f 56//56 6//6 34//34
f 2//2 57//57 46//46
f 57//57 9//9 51//51
f 46//46 51//51 8//8
f 19//19 58//58 69//69
f 58//58 19//19 27//27
f 1//1 50//50 59//59
f 50//50 6//6 56//56
f 59//59 56//56 2//2
f 5//5 67//67 32//32
f 67//67 18//18 60//60
f 32//32 60//60 11//11
f 1//1 39//39 30//30
f 39//39 4//4 49//49
f 30//30 49//49 22//22
f 65//65 30//30 22//22
f 1//1 59//59 40//40
f 59//59 2//2 43//43
f 40//40 43//43 3//3
f 4//4 61//61 21//21
f 62//62 21//21 61//61
f 4//4 37//37 61//61
f 37//37 70//70 63//63
f 61//61 63//63 28//28
f 8//8 29//29 55//55
f 26//26 55//55 29//29
f 65//65 20//20 69//69
f 33//33 7//7 66//66
f 66//66 7//7 53//53
f 67//67 33//33 66//66
f 69//69 1//1 30//30
f 50//50 1//1 58//58
f 69//69 58//58 1//1
f 17//17 63//63 70//70
f 36//36 47//47 70//70
f 68//68 70//70 47//47
f 64//64 63//63 17//17
# 111 faces, 0 coords texture

# End of File
