####
#
# OBJ File Generated by Meshlab
#
####
# Object 2736_C164_S_6.obj
#
# Vertices: 69
# Faces: 111
#
####
vn -5.324553 -3.335115 -0.066826
v 88.888910 77.162158 40.405369
vn -5.317223 -3.346686 -0.071616
v 88.742528 77.358543 42.382442
vn -5.314929 -3.350363 -0.070093
v 89.416423 76.259955 43.533727
vn -5.344189 -3.303631 -0.061768
v 87.871508 78.859163 37.710368
vn -5.326389 -3.331653 -0.089043
v 87.866484 78.777732 41.176074
vn -5.338481 -3.312402 -0.083309
v 87.906990 78.763392 39.251657
vn -5.320165 -3.342539 -0.035231
v 89.870227 75.617385 39.335567
vn -5.342421 -3.306677 -0.046670
v 88.868261 77.236267 38.388489
vn -5.313408 -3.352945 -0.061386
v 89.902808 75.527342 41.588668
vn -5.323226 -3.336217 -0.106181
v 86.874736 80.342393 41.953709
vn -5.311287 -3.356064 -0.073853
v 88.159458 78.247247 43.942187
vn -2.260928 -1.395511 -0.020960
v 87.769150 79.034150 37.101000
vn -2.302253 -1.418916 0.000171
v 89.651100 75.963600 37.380100
vn -2.437832 -1.511909 -0.043263
v 86.850880 80.487653 38.664907
vn -2.331174 -1.464205 -0.039636
v 87.016800 80.060500 43.756800
vn -2.602788 -1.604837 -0.018343
v 88.346700 78.099800 36.883800
vn -2.285917 -1.401859 -0.014205
v 88.802900 77.359800 36.786500
vn -2.250424 -1.415153 -0.044776
v 86.483900 80.954300 42.247100
vn -2.658989 -1.666823 -0.048600
v 86.740900 80.525200 42.975200
vn -2.520201 -1.590483 -0.023654
v 90.466800 74.664600 39.849500
vn -2.241101 -1.413747 -0.004676
v 90.336500 74.881900 38.761900
vn -2.353904 -1.485056 -0.032375
v 88.199600 78.165300 44.782500
vn -2.551273 -1.613225 -0.026092
v 90.487700 74.618600 40.590600
vn -2.330244 -1.478219 -0.025824
v 90.447300 74.667000 41.715000
vn -2.458773 -1.557003 -0.031150
v 90.240900 74.975000 42.507500
vn -2.599818 -1.633634 -0.055196
v 86.453100 81.024900 41.609900
vn -2.483900 -1.560230 -0.052977
v 86.441100 81.083000 40.460900
vn -2.641950 -1.665085 -0.037791
v 89.257700 76.494700 44.292000
vn -2.216927 -1.404875 -0.027227
v 89.549900 76.038700 44.082000
vn -2.381088 -1.494946 -0.048766
v 86.504700 81.003200 39.830700
vn -2.425354 -1.526933 -0.035500
v 88.630600 77.482000 44.720900
vn -5.324806 -3.334527 -0.074712
v 88.379084 77.966630 40.826676
vn -5.333674 -3.319996 -0.088514
v 87.897134 78.754156 40.204430
vn -5.330758 -3.324949 -0.077575
v 88.395836 77.965413 39.853495
vn -5.334701 -3.319145 -0.029116
v 89.353019 76.452588 38.857121
vn -5.353979 -3.288264 -0.007590
v 89.281905 76.564801 37.914591
vn -5.331013 -3.325348 0.012679
v 89.748484 75.811406 38.357130
vn -5.341857 -3.306984 -0.082369
v 87.932343 78.742889 38.434974
vn -5.341512 -3.307240 -0.093928
v 87.314695 79.718342 39.327709
vn -5.344644 -3.302425 -0.084520
v 87.499279 79.443699 38.467526
vn -5.320127 -3.342335 -0.058818
v 89.388211 76.357239 40.968382
vn -5.320284 -3.341933 -0.066667
v 89.309916 76.462928 42.007348
vn -5.320359 -3.341912 -0.061819
v 88.852001 77.202275 41.409735
vn -2.562161 -1.583692 -0.036139
v 87.240975 79.875375 37.903850
vn -5.335932 -3.316054 -0.099857
v 87.407640 79.535633 40.483573
vn -5.315561 -3.349088 -0.081361
v 87.629515 79.100340 43.224078
vn -2.405799 -1.520193 -0.033390
v 87.567325 79.172164 44.437924
vn -5.322637 -3.338271 -0.062038
v 89.386037 76.379005 39.886975
vn -5.316121 -3.348722 -0.057145
v 89.884883 75.575786 40.414606
vn -5.335924 -3.316729 -0.074592
v 88.395058 77.986568 38.872831
vn -5.329179 -3.327706 -0.067640
v 88.886377 77.187060 39.379021
vn -5.317091 -3.346819 -0.074568
v 88.316164 78.049069 41.778762
vn -5.343323 -3.305042 -0.057490
v 88.392481 78.014269 37.923927
vn -5.356262 -3.284446 -0.033685
v 88.829136 77.309845 37.494402
vn -2.681820 -1.636228 -0.014263
v 89.227000 76.661700 37.083300
vn -5.325331 -3.333147 -0.096873
v 87.239059 79.740894 42.587989
vn -5.323016 -3.336768 -0.099297
v 86.872003 80.323158 42.731726
vn -5.309734 -3.358910 -0.053059
v 90.238787 75.008150 40.844048
vn -2.606015 -1.636180 0.009765
v 89.945300 75.495400 37.933375
vn -2.642271 -1.670418 -0.031329
v 89.979900 75.376250 43.113400
vn -5.318979 -3.343755 -0.078643
v 88.916160 77.048612 43.847478
vn -5.319439 -3.342700 -0.089707
v 87.767678 78.907798 42.150934
vn -5.311144 -3.356190 -0.078198
v 88.187266 78.228602 42.748361
vn -5.320180 -3.341927 -0.074906
v 89.111959 76.757043 42.988997
vn -5.329782 -3.325828 -0.103194
v 87.347428 79.597668 41.550203
vn -5.315822 -3.348988 -0.067827
v 89.684713 75.852284 42.628862
vn -5.326781 -3.330345 -0.111558
v 86.918198 80.307437 40.934174
vn -5.328929 -3.327071 -0.105529
v 86.869071 80.417928 39.981425
vn -5.314846 -3.350359 -0.076476
v 88.586213 77.578693 43.620664
# 69 vertices, 0 vertices normals

f 32//32 33//33 34//34
f 35//35 36//36 37//37
f 41//41 42//42 43//43
f 48//48 49//49 41//41
f 34//34 50//50 51//51
f 43//43 52//52 32//32
f 8//8 53//53 54//54
f 10//10 57//57 18//18
f 54//54 55//55 36//36
f 4//4 12//12 16//16
f 35//35 48//48 51//51
f 7//7 21//21 20//20
f 18//18 57//57 19//19
f 9//9 58//58 24//24
f 9//9 24//24 25//25
f 10//10 18//18 26//26
f 30//30 68//68 27//27
f 38//38 53//53 50//50
f 3//3 29//29 28//28
f 9//9 49//49 58//58
f 66//66 25//25 60//60
f 62//62 52//52 63//63
f 42//42 66//66 64//64
f 65//65 62//62 56//56
f 11//11 31//31 22//22
f 11//11 63//63 69//69
f 69//69 64//64 61//61
f 1//1 32//32 34//34
f 32//32 5//5 33//33
f 34//34 33//33 6//6
f 7//7 35//35 37//37
f 35//35 8//8 36//36
f 37//37 36//36 13//13
f 59//59 37//37 13//13
f 1//1 41//41 43//43
f 41//41 9//9 42//42
f 43//43 42//42 2//2
f 44//44 12//12 4//4
f 68//68 39//39 45//45
f 45//45 33//33 5//5
f 46//46 47//47 15//15
f 1//1 48//48 41//41
f 48//48 7//7 49//49
f 41//41 49//49 9//9
f 1//1 34//34 51//51
f 34//34 6//6 50//50
f 51//51 50//50 8//8
f 1//1 43//43 32//32
f 43//43 2//2 52//52
f 32//32 52//52 5//5
f 16//16 53//53 4//4
f 53//53 16//16 54//54
f 17//17 54//54 16//16
f 8//8 54//54 36//36
f 54//54 17//17 55//55
f 36//36 55//55 13//13
f 8//8 35//35 51//51
f 35//35 7//7 48//48
f 51//51 48//48 1//1
f 10//10 56//56 57//57
f 57//57 15//15 19//19
f 58//58 23//23 24//24
f 26//26 67//67 10//10
f 67//67 26//26 27//27
f 6//6 38//38 50//50
f 38//38 4//4 53//53
f 50//50 53//53 8//8
f 7//7 37//37 21//21
f 59//59 21//21 37//37
f 49//49 20//20 58//58
f 20//20 49//49 7//7
f 23//23 58//58 20//20
f 3//3 66//66 60//60
f 60//60 29//29 3//3
f 28//28 61//61 3//3
f 61//61 28//28 31//31
f 11//11 47//47 46//46
f 46//46 62//62 63//63
f 62//62 5//5 52//52
f 63//63 52//52 2//2
f 2//2 42//42 64//64
f 42//42 9//9 66//66
f 64//64 66//66 3//3
f 10//10 65//65 56//56
f 65//65 5//5 62//62
f 56//56 62//62 46//46
f 10//10 67//67 65//65
f 65//65 45//45 5//5
f 11//11 46//46 63//63
f 69//69 63//63 2//2
f 31//31 69//69 61//61
f 69//69 2//2 64//64
f 61//61 64//64 3//3
f 56//56 46//46 15//15
f 57//57 56//56 15//15
f 66//66 9//9 25//25
f 67//67 45//45 65//65
f 39//39 6//6 33//33
f 67//67 68//68 45//45
f 45//45 39//39 33//33
f 38//38 6//6 40//40
f 39//39 40//40 6//6
f 44//44 40//40 14//14
f 11//11 22//22 47//47
f 44//44 4//4 40//40
f 14//14 68//68 30//30
f 68//68 67//67 27//27
f 14//14 40//40 39//39
f 40//40 4//4 38//38
f 11//11 69//69 31//31
f 39//39 68//68 14//14
# 111 faces, 0 coords texture

# End of File
