####
#
# OBJ File Generated by Meshlab
#
####
# Object 2739_C164_S_9.obj
#
# Vertices: 106
# Faces: 177
#
####
vn 5.523347 -2.994777 0.027743
v -84.422584 84.245460 -27.738282
vn 5.567491 -2.911914 -0.034892
v -85.164471 82.840014 -22.222193
vn 5.565466 -2.915858 0.009976
v -84.181369 84.735445 -21.741480
vn 5.588405 -2.871569 -0.030685
v -84.740495 83.650437 -20.281087
vn 5.539833 -2.963640 0.004676
v -84.456632 84.224569 -25.738293
vn 5.543044 -2.958462 0.007969
v -83.652115 85.707187 -24.795678
vn 5.498642 -3.040097 -0.029215
v -85.263419 82.722537 -28.669078
vn 5.523092 -2.995193 -0.024829
v -85.281159 82.663860 -26.746013
vn 5.554482 -2.936897 -0.006240
v -84.389207 84.320989 -23.658782
vn 5.525036 -2.991278 -0.065098
v -86.070554 81.201446 -25.632958
vn 5.545823 -2.952474 -0.067719
v -86.029075 81.236683 -23.565721
vn 5.544615 -2.955201 -0.036427
v -85.232817 82.733244 -24.593190
vn 5.533151 -2.976669 0.043673
v -83.600106 85.789556 -26.794026
vn 5.555654 -2.933650 -0.081145
v -86.101831 81.041794 -21.668809
vn 5.507278 -3.023966 -0.057994
v -86.118970 81.156613 -27.504779
vn 5.552154 -2.941274 0.027858
v -83.890700 85.265236 -23.224642
vn 5.557711 -2.930781 0.023042
v -83.277243 86.445990 -21.704003
vn 2.574841 -1.350944 -0.005732
v -83.775700 85.502500 -20.070250
vn 2.704789 -1.373513 -0.021071
v -84.961400 83.206200 -19.656600
vn 2.685561 -1.378776 -0.024558
v -85.470700 82.205800 -20.001000
vn 2.577170 -1.345909 -0.031659
v -85.707400 81.756000 -20.228100
vn 2.351153 -1.276586 0.024452
v -84.220600 84.595900 -29.419600
vn 2.831135 -1.573800 0.005469
v -84.851600 83.463500 -29.242100
vn 2.221756 -1.233622 -0.014532
v -85.386400 82.507300 -29.199900
vn 2.357882 -1.215517 -0.016107
v -84.629100 83.856400 -19.516400
vn 2.296015 -1.242874 0.023814
v -83.509500 85.920600 -29.040800
vn 2.851643 -1.536309 0.032134
v -84.117000 84.791300 -29.343900
vn 2.535712 -1.312053 0.012137
v -82.420300 88.060600 -23.762600
vn 3.127244 -1.631093 0.025836
v -82.433500 88.024400 -24.699700
vn 2.508332 -1.310674 0.016750
v -82.560100 87.797600 -22.575200
vn 2.982417 -1.581181 -0.047821
v -86.585700 80.151100 -22.401400
vn 2.260186 -1.198097 -0.032863
v -86.414100 80.444800 -21.380600
vn 2.120395 -1.129122 0.026274
v -82.272900 88.300400 -25.587600
vn 2.511705 -1.332643 0.028428
v -82.429800 87.991400 -26.420600
vn 2.767601 -1.460507 -0.035688
v -86.153400 80.926400 -20.950200
vn 2.431951 -1.318412 0.028844
v -82.953300 86.962900 -27.969900
vn 2.453669 -1.309876 -0.037012
v -86.842950 79.731050 -24.573150
vn 2.413889 -1.310966 -0.039402
v -86.670800 80.120000 -26.488500
vn 2.373968 -1.303201 -0.023348
v -86.274550 80.879250 -27.842400
vn 2.765554 -1.452698 0.018117
v -82.773400 87.403200 -21.855600
vn 2.350412 -1.238057 0.001802
v -83.045600 86.887100 -20.954900
vn 2.419103 -1.282374 -0.038998
v -86.693300 79.959000 -22.755800
vn 2.880398 -1.569246 0.028341
v -83.070600 86.745500 -28.147800
vn 2.847798 -1.552101 -0.036669
v -86.454900 80.532200 -27.147700
vn 5.577393 -2.893245 0.003798
v -84.640488 83.849980 -21.950330
vn 5.576761 -2.894453 -0.015401
v -84.464088 84.187092 -21.004690
vn 5.590966 -2.866738 -0.023386
v -84.922361 83.302664 -21.157241
vn 5.564632 -2.917641 -0.011512
v -83.996126 85.086049 -20.915897
vn 5.573906 -2.899872 -0.026140
v -84.309410 84.478983 -20.217412
vn 5.583642 -2.880316 -0.053914
v -85.342969 82.473474 -21.144200
vn 5.604216 -2.840723 -0.037803
v -85.116907 82.910577 -20.418149
vn 5.533225 -2.976207 0.062994
v -84.439151 84.235266 -26.747426
vn 5.532587 -2.977617 0.048806
v -84.005431 85.027754 -27.272349
vn 5.523509 -2.994468 0.041904
v -84.034905 84.994806 -26.271285
vn 5.502423 -3.033215 -0.010676
v -84.859506 83.454637 -28.260790
vn 5.524139 -2.993137 0.009410
v -84.855224 83.448782 -27.260316
vn 5.505439 -3.027664 -0.040998
v -85.307357 82.630642 -27.813640
vn 5.552216 -2.941256 0.018023
v -83.278718 86.414765 -24.208847
vn 5.551763 -2.942093 0.020727
v -83.219933 86.519635 -25.221986
vn 5.566493 -2.913910 0.025454
v -82.829633 87.260504 -24.522828
vn 5.508546 -3.021923 0.030615
v -84.410786 84.259646 -28.687580
vn 5.565302 -2.916297 -0.003809
v -84.761106 83.610889 -22.995896
vn 5.563488 -2.919661 0.027672
v -84.308257 84.485140 -22.655093
vn 2.800556 -1.456959 -0.015760
v -84.269900 84.549950 -19.757250
vn 5.534618 -2.973930 -0.042448
v -85.627020 81.992041 -24.048065
vn 5.536725 -2.969721 -0.060272
v -86.040651 81.236157 -24.600655
vn 5.524773 -2.992167 -0.043310
v -85.653969 81.963508 -25.129482
vn 5.513500 -3.012774 -0.048433
v -85.694082 81.899583 -26.197589
vn 5.541897 -2.960191 -0.029082
v -85.257245 82.698106 -25.677912
vn 5.554641 -2.936440 0.041231
v -83.533929 85.949858 -22.433701
vn 5.553987 -2.937775 0.029725
v -83.377979 86.232638 -23.284265
vn 5.550935 -2.943192 0.015552
v -84.861792 83.457738 -26.227992
vn 5.554768 -2.936333 0.020096
v -83.738062 85.574877 -21.667732
vn 5.556426 -2.933349 0.000685
v -83.533903 85.960730 -20.953569
vn 5.561548 -2.923375 -0.037447
v -84.848455 83.472083 -25.173482
vn 5.561283 -2.923000 -0.081108
v -85.664925 81.879430 -21.909318
vn 5.555426 -2.933901 -0.088264
v -86.066401 81.136671 -22.592346
vn 5.549545 -2.945572 -0.056176
v -85.622321 81.991208 -22.950760
vn 5.547334 -2.950336 -0.026991
v -85.202592 82.779767 -23.466861
vn 5.557214 -2.931625 -0.035885
v -84.819550 83.510702 -24.096257
vn 5.525552 -2.990889 -0.011710
v -84.051193 84.971098 -25.270823
vn 5.535045 -2.973204 0.021314
v -83.626618 85.747577 -25.782748
vn 5.546259 -2.952092 -0.042991
v -84.442809 84.235131 -24.704970
vn 5.563262 -2.919501 -0.070023
v -85.705967 81.774916 -20.915602
vn 5.513246 -3.012824 -0.072720
v -86.187583 81.011079 -26.654839
vn 5.503339 -3.031248 -0.053942
v -85.741496 81.837396 -27.254147
vn 5.544591 -2.955087 0.049539
v -83.200010 86.549176 -26.243194
vn 5.531400 -2.979466 0.065944
v -83.153835 86.607873 -27.289759
vn 5.544293 -2.955262 0.074214
v -82.852458 87.188741 -26.602779
vn 5.537196 -2.968240 -0.082337
v -86.426235 80.523127 -25.085524
vn 2.760839 -1.488274 -0.053296
v -86.756400 79.926750 -25.547400
vn 5.524983 -2.990621 -0.094726
v -86.418617 80.567224 -25.944212
vn 2.762595 -1.524684 -0.020441
v -85.833350 81.686950 -28.506200
vn 5.552811 -2.939927 0.038799
v -83.929517 85.202802 -22.351413
vn 5.559903 -2.926395 0.045161
v -83.060169 86.845833 -22.516626
vn 5.552188 -2.941320 0.016017
v -83.657934 85.700864 -23.948624
vn 5.543053 -2.958291 -0.013105
v -84.026269 85.003294 -24.268961
vn 2.785083 -1.468118 0.000702
v -83.398050 86.218650 -20.531300
vn 5.551019 -2.942237 -0.088534
v -86.414955 80.496343 -23.159175
vn 2.768149 -1.467638 -0.043643
v -86.768600 79.843800 -23.647900
vn 5.547289 -2.949640 -0.073500
v -86.421290 80.512102 -24.098009
vn 2.878283 -1.534724 0.041592
v -82.748250 87.367100 -27.265625
vn 5.565362 -2.916060 0.029807
v -82.911123 87.114687 -23.464281
vn 5.552056 -2.941161 0.047933
v -82.752361 87.398889 -25.635937
vn 5.527410 -2.987225 0.047161
v -83.554857 85.860023 -27.859103
vn 5.531318 -2.980085 0.042797
v -84.002098 85.023011 -28.295107
# 106 vertices, 0 vertices normals

f 45//45 46//46 47//47
f 46//46 48//48 49//49
f 50//50 47//47 51//51
f 84//84 50//50 20//20
f 52//52 53//53 54//54
f 55//55 56//56 57//57
f 84//84 20//20 21//21
f 58//58 59//59 60//60
f 1//1 55//55 61//61
f 4//4 25//25 19//19
f 62//62 63//63 45//45
f 49//49 18//18 64//64
f 65//65 66//66 67//67
f 68//68 69//69 67//67
f 95//95 70//70 71//71
f 72//72 56//56 52//52
f 73//73 74//74 48//48
f 103//103 28//28 30//30
f 75//75 69//69 72//72
f 76//76 77//77 78//78
f 62//62 79//79 80//80
f 14//14 32//32 31//31
f 104//104 34//34 33//33
f 26//26 106//106 27//27
f 60//60 104//104 29//29
f 81//81 54//54 82//82
f 80//80 75//75 83//83
f 106//106 105//105 53//53
f 76//76 50//50 84//84
f 14//14 84//84 35//35
f 7//7 24//24 23//23
f 85//85 86//86 68//68
f 87//87 88//88 89//89
f 90//90 91//91 92//92
f 16//16 94//94 63//63
f 17//17 95//95 40//40
f 70//70 73//73 94//94
f 71//71 96//96 58//58
f 97//97 96//96 16//16
f 17//17 40//40 41//41
f 97//97 83//83 81//81
f 86//86 93//93 57//57
f 18//18 74//74 98//98
f 11//11 77//77 99//99
f 99//99 100//100 101//101
f 79//79 78//78 65//65
f 14//14 35//35 32//32
f 82//82 87//87 59//59
f 66//66 101//101 90//90
f 13//13 105//105 88//88
f 15//15 85//85 44//44
f 15//15 44//44 39//39
f 2//2 45//45 47//47
f 45//45 3//3 46//46
f 47//47 46//46 4//4
f 4//4 46//46 49//49
f 46//46 3//3 48//48
f 49//49 48//48 18//18
f 20//20 50//50 51//51
f 50//50 2//2 47//47
f 51//51 47//47 4//4
f 19//19 51//51 4//4
f 51//51 19//19 20//20
f 5//5 52//52 54//54
f 52//52 1//1 53//53
f 54//54 53//53 13//13
f 7//7 55//55 57//57
f 55//55 1//1 56//56
f 57//57 56//56 8//8
f 103//103 58//58 60//60
f 58//58 6//6 59//59
f 60//60 59//59 104//104
f 55//55 23//23 61//61
f 23//23 55//55 7//7
f 22//22 61//61 23//23
f 2//2 62//62 45//45
f 62//62 9//9 63//63
f 45//45 63//63 3//3
f 4//4 49//49 25//25
f 64//64 25//25 49//49
f 12//12 65//65 67//67
f 65//65 11//11 66//66
f 67//67 66//66 10//10
f 10//10 68//68 67//67
f 68//68 8//8 69//69
f 67//67 69//69 12//12
f 95//95 17//17 70//70
f 71//71 70//70 16//16
f 5//5 72//72 52//52
f 72//72 8//8 56//56
f 52//52 56//56 1//1
f 3//3 73//73 48//48
f 73//73 17//17 74//74
f 48//48 74//74 18//18
f 60//60 29//29 28//28
f 103//103 60//60 28//28
f 5//5 75//75 72//72
f 75//75 12//12 69//69
f 72//72 69//69 8//8
f 2//2 76//76 78//78
f 76//76 14//14 77//77
f 78//78 77//77 11//11
f 9//9 62//62 80//80
f 62//62 2//2 79//79
f 80//80 79//79 12//12
f 27//27 106//106 61//61
f 27//27 61//61 22//22
f 6//6 81//81 82//82
f 81//81 5//5 54//54
f 82//82 54//54 13//13
f 9//9 80//80 83//83
f 80//80 12//12 75//75
f 83//83 75//75 5//5
f 1//1 106//106 53//53
f 53//53 105//105 13//13
f 14//14 76//76 84//84
f 76//76 2//2 50//50
f 84//84 21//21 35//35
f 10//10 85//85 68//68
f 85//85 15//15 86//86
f 68//68 86//86 8//8
f 87//87 13//13 88//88
f 102//102 88//88 36//36
f 102//102 89//89 88//88
f 10//10 90//90 92//92
f 90//90 37//37 91//91
f 92//92 91//91 38//38
f 39//39 93//93 15//15
f 93//93 24//24 7//7
f 9//9 16//16 63//63
f 63//63 94//94 3//3
f 30//30 95//95 103//103
f 95//95 30//30 40//40
f 16//16 70//70 94//94
f 70//70 17//17 73//73
f 94//94 73//73 3//3
f 103//103 71//71 58//58
f 71//71 16//16 96//96
f 58//58 96//96 6//6
f 9//9 97//97 16//16
f 97//97 6//6 96//96
f 6//6 97//97 81//81
f 97//97 9//9 83//83
f 81//81 83//83 5//5
f 8//8 86//86 57//57
f 86//86 15//15 93//93
f 57//57 93//93 7//7
f 17//17 41//41 74//74
f 98//98 74//74 41//41
f 77//77 31//31 99//99
f 31//31 77//77 14//14
f 42//42 99//99 31//31
f 11//11 99//99 101//101
f 99//99 42//42 100//100
f 101//101 100//100 37//37
f 12//12 79//79 65//65
f 79//79 2//2 78//78
f 65//65 78//78 11//11
f 6//6 82//82 59//59
f 82//82 13//13 87//87
f 59//59 87//87 104//104
f 10//10 66//66 90//90
f 66//66 11//11 101//101
f 90//90 101//101 37//37
f 26//26 105//105 106//106
f 105//105 43//43 88//88
f 36//36 88//88 43//43
f 104//104 89//89 34//34
f 102//102 34//34 89//89
f 85//85 10//10 92//92
f 85//85 92//92 38//38
f 85//85 38//38 44//44
f 104//104 33//33 29//29
f 103//103 95//95 71//71
f 104//104 87//87 89//89
f 105//105 26//26 43//43
f 106//106 1//1 61//61
# 177 faces, 0 coords texture

# End of File
