####
#
# OBJ File Generated by Meshlab
#
####
# Object 2741_C165_S_1.obj
#
# Vertices: 137
# Faces: 230
#
####
vn 5.608861 -2.830112 -0.087723
v -84.220273 85.411973 12.776051
vn 5.599651 -2.848371 -0.090124
v -83.378012 87.090631 12.070913
vn 5.603743 -2.840243 -0.075509
v -85.020496 83.784253 13.267235
vn 5.613378 -2.821942 -0.059710
v -84.185201 85.597627 6.462168
vn 5.610169 -2.828056 -0.072090
v -83.205665 87.472868 9.721907
vn 5.609578 -2.829841 -0.052425
v -84.181104 85.574339 8.580981
vn 5.607423 -2.833808 -0.061555
v -84.173278 85.557382 10.755751
vn 5.609172 -2.829829 -0.083214
v -85.376175 83.042552 15.411140
vn 5.614449 -2.819844 -0.068593
v -86.476944 80.955680 12.159310
vn 5.611940 -2.824264 -0.080033
v -82.289531 89.314220 9.771650
vn 5.593934 -2.859225 -0.095936
v -83.538297 86.696171 13.860218
vn 5.606866 -2.834672 -0.073020
v -85.542006 82.835811 11.138175
vn 5.601037 -2.846766 -0.050766
v -85.123956 83.730476 7.421888
vn 5.611099 -2.826427 -0.061724
v -86.355977 81.231188 9.878469
vn 5.613300 -2.822803 -0.029486
v -83.376779 87.219504 6.317379
vn 5.599916 -2.848698 -0.060160
v -84.265194 85.257161 15.002941
vn 5.606012 -2.836796 -0.058458
v -84.921290 84.094859 9.718019
vn 5.606131 -2.836485 -0.060579
v -82.621354 88.685659 8.167366
vn 5.600109 -2.848194 -0.061996
v -83.227375 87.262278 15.656666
vn 5.610122 -2.827984 -0.078571
v -86.057132 81.762253 13.577052
vn 5.608225 -2.831338 -0.094552
v -82.539163 88.684560 13.431352
vn 5.613191 -2.822183 -0.053756
v -83.365834 87.234968 7.473827
vn 2.510915 -1.258189 -0.026782
v -82.366850 89.005850 14.358650
vn 2.370225 -1.177406 -0.043195
v -85.482200 82.788800 16.480000
vn 2.638912 -1.339252 -0.043153
v -82.000400 89.821500 11.429600
vn 2.440311 -1.216508 -0.034239
v -86.483000 80.902700 13.764000
vn 2.350918 -1.206170 -0.026320
v -83.775900 86.163850 17.341100
vn 2.852205 -1.444462 -0.054153
v -85.879500 82.049700 15.433600
vn 2.443128 -1.229931 -0.029585
v -84.721100 84.314600 17.268300
vn 2.341483 -1.190838 -0.032655
v -82.073500 89.741900 9.665540
vn 2.373718 -1.214516 -0.019970
v -86.798200 80.361700 10.189200
vn 3.211984 -1.628833 -0.024263
v -86.653200 80.612500 11.878100
vn 1.973702 -1.000588 -0.025111
v -86.673800 80.570500 12.034700
vn 3.227272 -1.614921 -0.075751
v -86.620200 80.668200 12.184800
vn 2.724563 -1.373844 -0.033077
v -86.669400 80.624500 9.261290
vn 3.100487 -1.570797 -0.028348
v -82.146200 89.605400 9.363470
vn 2.434176 -1.230679 -0.033097
v -86.309200 81.406900 7.351060
vn 2.746066 -1.376501 -0.044555
v -86.467100 81.065600 8.100000
vn 2.380397 -1.211013 -0.024135
v -85.778100 82.470600 6.092310
vn 2.548229 -1.292770 -0.034400
v -84.882350 84.258200 5.156235
vn 2.317186 -1.167287 -0.039671
v -84.029000 85.958900 4.917760
vn 1.881861 -0.954565 -0.014647
v -83.297100 87.389700 5.462750
vn 3.296445 -1.659315 -0.035760
v -83.453200 87.081200 5.502650
vn 3.040397 -1.539724 -0.014897
v -83.088200 87.792100 6.053860
vn 3.012669 -1.536081 -0.026400
v -86.012900 81.998000 6.803120
vn 2.814059 -1.405389 -0.031871
v -82.809300 88.095600 15.793900
vn 2.413448 -1.215786 -0.040554
v -82.015400 89.767300 12.386400
vn 2.363913 -1.201896 -0.018354
v -82.235700 89.445400 8.052800
vn 2.916431 -1.482583 -0.026848
v -82.538300 88.867000 7.154730
vn 2.424938 -1.230030 -0.019486
v -82.617700 88.716900 6.842710
vn 2.415268 -1.227261 -0.029758
v -83.025700 87.639600 16.464100
vn 3.020325 -1.518176 -0.047198
v -82.276500 89.204000 13.531700
vn 5.600329 -2.848144 -0.052240
v -83.303964 87.257158 10.959020
vn 5.599462 -2.849609 -0.063360
v -83.770662 86.335233 11.357693
vn 5.597727 -2.853348 -0.047195
v -83.721330 86.452602 10.246725
vn 5.602170 -2.844697 -0.041907
v -84.157379 85.604620 9.669202
vn 5.605658 -2.837016 -0.071760
v -83.720598 86.470088 9.130199
vn 5.625337 -2.797901 -0.065740
v -85.007034 83.765918 16.200988
vn 2.871791 -1.409641 -0.043998
v -85.142900 83.470350 16.802500
vn 5.614627 -2.818458 -0.099795
v -82.379432 89.106363 10.597497
vn 2.949226 -1.495986 -0.055227
v -82.077350 89.711325 10.365800
vn 2.675124 -1.345259 -0.045213
v -86.217725 81.407675 14.625600
vn 5.622040 -2.804538 -0.073866
v -85.974202 82.005925 9.519853
vn 5.594581 -2.859057 -0.068587
v -84.208269 85.330384 16.872930
vn 2.765835 -1.412129 -0.039487
v -84.229150 85.276850 17.324800
vn 2.801046 -1.421335 -0.059582
v -85.680850 82.419250 15.956800
vn 5.615743 -2.817350 -0.063439
v -85.622435 82.701875 9.996527
vn 5.619524 -2.810067 -0.052016
v -85.993340 81.942113 10.663061
vn 5.604459 -2.838735 -0.083899
v -84.258627 85.306189 13.797708
vn 5.619866 -2.809101 -0.061473
v -84.681680 84.444040 14.110985
vn 5.628651 -2.791091 -0.080697
v -84.601358 84.635097 13.084009
vn 5.612637 -2.823985 -0.042767
v -84.822533 84.147887 15.178160
vn 5.604004 -2.840799 -0.052571
v -84.501191 84.773350 16.106044
vn 5.614768 -2.819005 -0.070745
v -82.820354 88.215658 10.712473
vn 5.601144 -2.845720 -0.080610
v -82.907936 88.023810 11.795278
vn 5.602239 -2.844438 -0.049700
v -85.418335 83.138401 8.284202
vn 5.603320 -2.842409 -0.043800
v -84.996313 83.964019 8.607391
vn 5.605876 -2.837175 -0.053182
v -85.306024 83.343397 9.310576
vn 5.625724 -2.797944 -0.031823
v -83.778912 86.409495 6.966971
vn 5.620459 -2.807559 -0.072373
v -83.766460 86.418537 8.040512
vn 5.616537 -2.816115 -0.041507
v -84.206031 85.540568 7.497449
vn 5.596132 -2.855973 -0.068982
v -83.389938 86.967167 14.670503
vn 5.604866 -2.837879 -0.099226
v -83.147735 87.466236 13.892458
vn 5.598170 -2.850965 -0.100292
v -83.821526 86.208287 12.394763
vn 5.598516 -2.849398 -0.125820
v -83.452945 86.899383 13.060884
vn 5.586002 -2.874481 -0.108041
v -83.865181 86.079348 13.366249
vn 5.583816 -2.879868 -0.074450
v -83.849013 86.080855 14.354411
vn 5.587281 -2.873588 -0.056250
v -83.712986 86.323925 15.357554
vn 5.604371 -2.840150 -0.046361
v -86.455752 81.016652 10.897670
vn 2.795954 -1.432306 -0.027350
v -86.725700 80.487100 11.033650
vn 5.598016 -2.852405 -0.058364
v -85.169278 83.473045 14.304207
vn 5.584224 -2.879044 -0.076545
v -85.500827 82.852030 13.451948
vn 5.602782 -2.842870 -0.071968
v -85.235438 83.458513 10.398224
vn 5.607441 -2.833382 -0.080848
v -84.883332 84.143141 10.638739
vn 5.600821 -2.846230 -0.090061
v -85.104832 83.686790 11.392243
vn 5.613411 -2.821007 -0.093298
v -84.876429 84.103368 12.301226
vn 5.626300 -2.795929 -0.076314
v -84.511909 84.840528 12.245116
vn 5.612829 -2.822916 -0.072335
v -84.193060 85.491289 11.796480
vn 5.616966 -2.814460 -0.081386
v -84.620492 84.645366 11.344535
vn 5.610872 -2.826013 -0.100832
v -83.316188 87.296188 8.523668
vn 5.600384 -2.847926 -0.057477
v -85.489765 83.026722 6.626074
vn 2.763214 -1.401740 -0.032766
v -85.378250 83.269550 5.648085
vn 5.600777 -2.846984 -0.066159
v -85.019147 83.963027 6.260484
vn 5.604108 -2.840039 -0.078806
v -84.550018 84.892852 5.885292
vn 2.785385 -1.404113 -0.046048
v -84.407650 85.203400 5.013185
vn 5.610129 -2.827728 -0.093934
v -84.115350 85.764947 5.580964
vn 5.602004 -2.844793 -0.053696
v -84.635898 84.700447 6.905094
vn 5.616405 -2.815861 -0.063367
v -83.759274 86.458055 5.970170
vn 2.805000 -1.413948 -0.048273
v -83.741100 86.520050 5.210205
vn 5.597677 -2.853332 -0.053747
v -85.678809 82.638284 7.660268
vn 5.617524 -2.813222 -0.087244
v -86.229405 81.517452 8.830519
vn 5.614202 -2.820839 -0.044611
v -86.216686 81.483108 11.635941
vn 5.615625 -2.817724 -0.059110
v -86.125717 81.647709 12.552329
vn 5.589719 -2.868842 -0.055937
v -83.997600 85.757085 16.137395
vn 5.611480 -2.825770 -0.063547
v -84.553988 84.813447 10.210098
vn 5.605521 -2.838079 -0.043092
v -84.573857 84.789882 9.128472
vn 2.810530 -1.403324 -0.034699
v -86.551600 80.785450 12.974400
vn 5.604845 -2.839428 -0.042215
v -84.630941 84.694686 8.003593
vn 5.613090 -2.822599 -0.062675
v -82.956563 87.816597 14.879979
vn 2.757658 -1.377068 -0.024882
v -82.621900 88.481200 15.229300
vn 5.600594 -2.845810 -0.114362
v -82.953122 87.889925 12.952845
vn 5.590358 -2.866812 -0.085438
v -85.361609 83.150810 12.319694
vn 5.614784 -2.819343 -0.054627
v -82.459978 88.991577 8.973597
vn 5.625836 -2.796738 -0.080843
v -82.674905 88.539563 9.750574
vn 5.604408 -2.839505 -0.073776
v -82.962122 88.021337 7.864301
vn 5.617367 -2.813537 -0.084192
v -82.879951 88.150160 8.834997
vn 5.603821 -2.841561 -0.030023
v -82.989370 87.981876 6.987727
vn 5.596700 -2.854297 -0.086126
v -85.698395 82.442099 14.467141
vn 5.587143 -2.873902 -0.054093
v -83.588829 86.546765 16.400145
vn 2.784132 -1.432195 -0.026770
v -83.333550 87.035000 16.828950
vn 5.611546 -2.825170 -0.079627
v -82.739125 88.267827 14.074720
vn 5.607249 -2.833490 -0.091255
v -82.438622 88.953955 11.572362
vn 5.595056 -2.857805 -0.070141
v -85.763875 82.361566 12.791590
vn 5.606125 -2.836505 -0.057754
v -85.819750 82.270642 11.807893
vn 5.605752 -2.835832 -0.108046
v -82.527620 88.741545 12.531065
vn 5.612137 -2.824439 -0.068104
v -85.779453 82.412944 8.902292
vn 5.604411 -2.839592 -0.069724
v -85.993281 82.018869 7.830380
# 137 vertices, 0 vertices normals

f 53//53 54//54 55//55
f 56//56 57//57 55//55
f 58//58 29//29 59//59
f 64//64 114//114 27//27
f 8//8 24//24 66//66
f 67//67 68//68 63//63
f 69//69 70//70 71//71
f 58//58 72//72 73//73
f 53//53 74//74 75//75
f 76//76 77//77 78//78
f 79//79 80//80 81//81
f 10//10 30//30 61//61
f 82//82 83//83 119//119
f 84//84 85//85 86//86
f 69//69 86//86 87//87
f 82//82 88//88 87//87
f 89//89 32//32 90//90
f 9//9 33//33 32//32
f 9//9 34//34 33//33
f 91//91 128//128 92//92
f 14//14 31//31 35//35
f 93//93 94//94 95//95
f 71//71 96//96 97//97
f 98//98 97//97 99//99
f 10//10 36//36 30//30
f 57//57 80//80 100//100
f 101//101 102//102 103//103
f 104//104 105//105 106//106
f 107//107 103//103 104//104
f 108//108 106//106 109//109
f 15//15 42//42 44//44
f 13//13 110//110 101//101
f 37//37 137//137 38//38
f 112//112 89//89 68//68
f 73//73 114//114 64//64
f 72//72 91//91 70//70
f 115//115 116//116 56//56
f 113//113 20//20 117//117
f 118//118 116//116 77//77
f 118//118 107//107 81//81
f 119//119 131//131 120//120
f 83//83 85//85 121//121
f 122//122 95//95 96//96
f 67//67 78//78 93//93
f 94//94 115//115 99//99
f 84//84 98//98 54//54
f 15//15 43//43 42//42
f 10//10 123//123 36//36
f 18//18 49//49 48//48
f 74//74 124//124 60//60
f 125//125 126//126 100//100
f 22//22 15//15 127//127
f 19//19 46//46 51//51
f 133//133 113//113 134//134
f 126//126 123//123 124//124
f 114//114 88//88 129//129
f 21//21 52//52 23//23
f 108//108 15//15 79//79
f 125//125 22//22 127//127
f 18//18 125//125 49//49
f 5//5 53//53 55//55
f 53//53 2//2 54//54
f 55//55 54//54 7//7
f 7//7 56//56 55//55
f 56//56 6//6 57//57
f 55//55 57//57 5//5
f 8//8 58//58 24//24
f 59//59 24//24 58//58
f 60//60 61//61 25//25
f 61//61 60//60 10//10
f 60//60 25//25 132//132
f 20//20 62//62 26//26
f 63//63 14//14 111//111
f 27//27 65//65 64//64
f 65//65 29//29 64//64
f 8//8 66//66 28//28
f 136//136 67//67 63//63
f 67//67 12//12 68//68
f 63//63 68//68 14//14
f 1//1 69//69 71//71
f 69//69 16//16 70//70
f 71//71 70//70 3//3
f 29//29 58//58 73//73
f 58//58 8//8 72//72
f 73//73 72//72 16//16
f 2//2 53//53 75//75
f 53//53 5//5 74//74
f 75//75 74//74 132//132
f 136//136 76//76 78//78
f 76//76 13//13 77//77
f 78//78 77//77 17//17
f 4//4 79//79 81//81
f 79//79 22//22 80//80
f 81//81 80//80 6//6
f 19//19 82//82 119//119
f 82//82 11//11 83//83
f 1//1 84//84 86//86
f 84//84 2//2 85//85
f 86//86 85//85 11//11
f 16//16 69//69 87//87
f 69//69 1//1 86//86
f 87//87 86//86 11//11
f 11//11 82//82 87//87
f 82//82 19//19 88//88
f 87//87 88//88 16//16
f 112//112 32//32 89//89
f 14//14 89//89 31//31
f 90//90 31//31 89//89
f 3//3 91//91 92//92
f 91//91 8//8 128//128
f 92//92 128//128 20//20
f 12//12 93//93 95//95
f 93//93 17//17 94//94
f 95//95 94//94 99//99
f 1//1 71//71 97//97
f 71//71 3//3 96//96
f 97//97 96//96 99//99
f 7//7 98//98 99//99
f 98//98 1//1 97//97
f 5//5 57//57 100//100
f 57//57 6//6 80//80
f 100//100 80//80 22//22
f 13//13 101//101 103//103
f 101//101 39//39 102//102
f 103//103 102//102 40//40
f 4//4 104//104 106//106
f 104//104 40//40 105//105
f 106//106 105//105 41//41
f 4//4 107//107 104//104
f 107//107 13//13 103//103
f 104//104 103//103 40//40
f 108//108 4//4 106//106
f 109//109 106//106 41//41
f 15//15 108//108 43//43
f 109//109 43//43 108//108
f 110//110 45//45 101//101
f 39//39 101//101 45//45
f 35//35 111//111 14//14
f 111//111 35//35 38//38
f 32//32 112//112 9//9
f 68//68 89//89 14//14
f 9//9 112//112 113//113
f 112//112 68//68 134//134
f 29//29 73//73 64//64
f 73//73 16//16 114//114
f 27//27 114//114 129//129
f 16//16 72//72 70//70
f 72//72 8//8 91//91
f 70//70 91//91 3//3
f 7//7 115//115 56//56
f 115//115 17//17 116//116
f 56//56 116//116 6//6
f 113//113 133//133 20//20
f 117//117 20//20 26//26
f 117//117 34//34 9//9
f 13//13 118//118 77//77
f 118//118 6//6 116//116
f 77//77 116//116 17//17
f 6//6 118//118 81//81
f 118//118 13//13 107//107
f 81//81 107//107 4//4
f 23//23 120//120 131//131
f 19//19 119//119 46//46
f 120//120 46//46 119//119
f 21//21 23//23 131//131
f 83//83 11//11 85//85
f 121//121 85//85 2//2
f 75//75 135//135 121//121
f 75//75 121//121 2//2
f 3//3 122//122 96//96
f 122//122 12//12 95//95
f 96//96 95//95 99//99
f 12//12 67//67 93//93
f 67//67 136//136 78//78
f 93//93 78//78 17//17
f 94//94 17//17 115//115
f 99//99 115//115 7//7
f 2//2 84//84 54//54
f 84//84 1//1 98//98
f 54//54 98//98 7//7
f 48//48 123//123 18//18
f 123//123 48//48 36//36
f 132//132 74//74 60//60
f 74//74 5//5 124//124
f 60//60 124//124 10//10
f 22//22 125//125 100//100
f 125//125 18//18 126//126
f 100//100 126//126 5//5
f 15//15 44//44 127//127
f 50//50 127//127 44//44
f 28//28 128//128 8//8
f 128//128 62//62 20//20
f 62//62 128//128 28//28
f 130//130 19//19 51//51
f 19//19 130//130 129//129
f 130//130 27//27 129//129
f 3//3 92//92 122//122
f 5//5 126//126 124//124
f 126//126 18//18 123//123
f 124//124 123//123 10//10
f 114//114 16//16 88//88
f 129//129 88//88 19//19
f 4//4 108//108 79//79
f 79//79 15//15 22//22
f 49//49 127//127 50//50
f 127//127 49//49 125//125
f 13//13 76//76 110//110
f 135//135 132//132 47//47
f 121//121 131//131 83//83
f 131//131 119//119 83//83
f 21//21 131//131 121//121
f 25//25 47//47 132//132
f 135//135 21//21 121//121
f 92//92 20//20 133//133
f 92//92 133//133 122//122
f 134//134 122//122 133//133
f 112//112 134//134 113//113
f 122//122 134//134 12//12
f 21//21 135//135 52//52
f 9//9 113//113 117//117
f 12//12 134//134 68//68
f 135//135 47//47 52//52
f 132//132 135//135 75//75
f 137//137 111//111 38//38
f 110//110 137//137 45//45
f 136//136 111//111 137//137
f 136//136 63//63 111//111
f 76//76 136//136 110//110
f 137//137 110//110 136//136
f 137//137 37//37 45//45
# 230 faces, 0 coords texture

# End of File
