####
#
# OBJ File Generated by Meshlab
#
####
# Object 2776_C168_S_6.obj
#
# Vertices: 133
# Faces: 228
#
####
vn 5.618966 -2.811495 -0.012055
v -86.498287 86.084681 -21.548505
vn 5.606373 -2.836264 0.039837
v -85.963353 87.133296 -24.993487
vn 5.593065 -2.861598 0.071038
v -86.058883 86.912998 -26.940848
vn 5.576581 -2.894502 0.018613
v -86.920569 85.220315 -27.471667
vn 5.567003 -2.911636 0.064349
v -86.250704 86.459134 -28.958212
vn 5.613973 -2.821532 0.012712
v -84.952833 89.137981 -22.839309
vn 5.547853 -2.949473 0.017479
v -87.042701 84.966637 -29.710954
vn 5.616201 -2.817021 0.015407
v -86.718118 85.647907 -23.486920
vn 5.593574 -2.861542 -0.037332
v -87.785338 83.525128 -26.154791
vn 5.571741 -2.903479 -0.032261
v -87.772116 83.597394 -28.179338
vn 5.612332 -2.823601 -0.042334
v -88.307487 82.499577 -22.752517
vn 5.600229 -2.846732 0.105942
v -85.383836 88.170918 -28.478997
vn 5.607052 -2.834079 0.073289
v -85.150939 88.685883 -26.374616
vn 5.605391 -2.838417 0.005433
v -87.597309 83.880018 -24.033850
vn 5.607498 -2.834493 0.004954
v -85.820104 87.423566 -23.101324
vn 5.617580 -2.814128 -0.031970
v -87.422053 84.236140 -22.027736
vn 5.608645 -2.832063 0.017524
v -86.825417 85.407786 -25.473856
vn 5.637200 -2.774190 -0.062301
v -87.091737 84.856717 -20.051318
vn 5.590074 -2.868473 -0.019472
v -88.508843 82.096337 -24.610653
vn 2.492482 -1.223258 -0.041844
v -87.518200 83.952900 -18.909100
vn 2.702865 -1.438532 0.006593
v -86.820200 85.380425 -30.736300
vn 2.202130 -1.172152 0.004972
v -87.326600 84.428900 -30.720700
vn 3.001381 -1.518863 0.021946
v -84.548200 89.928900 -24.104100
vn 2.838442 -1.437607 0.018918
v -84.522800 89.973000 -24.621850
vn 2.378377 -1.165338 -0.050916
v -88.317800 82.375900 -20.116600
vn 2.891072 -1.423413 -0.055533
v -88.575900 81.896800 -21.166600
vn 2.637786 -1.329992 -0.023208
v -89.055300 81.012500 -23.242400
vn 2.585078 -1.343082 -0.036595
v -88.488600 82.228000 -28.727600
vn 2.941656 -1.535410 -0.048683
v -88.602400 81.992100 -28.298500
vn 2.246099 -1.119975 0.010674
v -84.489000 90.070600 -22.879900
vn 2.524910 -1.333830 -0.003918
v -88.060300 83.054400 -29.676300
vn 2.221062 -1.086360 0.015208
v -84.397800 90.216700 -26.247100
vn 2.256083 -1.113206 -0.011959
v -86.002300 87.069300 -18.687100
vn 2.836465 -1.379571 -0.029529
v -86.538800 85.958600 -18.573400
vn 2.351893 -1.231688 -0.020254
v -89.222300 80.739300 -25.149900
vn 2.876341 -1.430961 0.043558
v -84.878900 89.191400 -28.274700
vn 2.833718 -1.419516 0.008596
v -84.746500 89.556200 -21.844700
vn 2.531796 -1.346850 -0.051435
v -89.061800 81.084600 -26.844500
vn 2.912130 -1.532796 -0.024890
v -89.127300 80.922600 -25.788600
vn 2.517786 -1.341756 -0.045169
v -88.930800 81.356200 -27.490300
vn 2.297348 -1.171267 0.051975
v -85.110300 88.666000 -29.391400
vn 2.518004 -1.266988 0.005980
v -85.281800 88.502000 -19.959800
vn 2.412167 -1.257983 0.027015
v -85.763400 87.363700 -30.356400
vn 2.934558 -1.502478 0.050897
v -85.568500 87.758000 -29.993400
vn 2.520158 -1.227669 -0.027556
v -86.787900 85.446700 -18.513600
vn 5.617771 -2.813001 -0.076804
v -87.747853 83.568005 -21.322010
vn 5.626209 -2.796436 -0.064245
v -87.281806 84.495604 -20.991740
vn 5.628895 -2.790245 -0.089736
v -87.583473 83.867882 -20.114917
vn 5.642068 -2.763757 -0.080896
v -87.263437 84.489191 -19.402287
vn 5.551948 -2.941626 0.030202
v -86.999097 85.061130 -28.505805
vn 5.545818 -2.953267 0.021443
v -86.713798 85.585616 -29.545662
vn 5.563803 -2.917784 0.074076
v -86.565556 85.877743 -28.214790
vn 5.608827 -2.831842 0.010201
v -85.910120 87.242096 -24.051313
vn 5.606256 -2.836942 0.007115
v -86.271160 86.531843 -23.293476
vn 5.611474 -2.826455 0.024416
v -86.345749 86.380694 -24.253426
vn 5.635656 -2.777616 -0.045156
v -86.809656 85.442202 -20.789605
vn 5.624118 -2.800994 -0.034655
v -86.965919 85.149300 -21.753478
vn 5.607003 -2.835474 0.004074
v -86.160663 86.751212 -22.332461
vn 5.613885 -2.821776 -0.000915
v -86.625075 85.833145 -22.511770
vn 5.586598 -2.875018 -0.031783
v -87.313726 84.449160 -26.799577
vn 5.583898 -2.879900 -0.066009
v -87.745590 83.627177 -27.229375
vn 5.567148 -2.912446 -0.019228
v -87.354767 84.392862 -27.804535
vn 5.591662 -2.864460 0.058976
v -86.491449 86.061815 -27.195339
vn 5.588394 -2.869684 0.114298
v -86.137908 86.717605 -27.951962
vn 5.593214 -2.860610 0.105780
v -85.822041 87.305476 -28.694760
vn 5.586515 -2.873776 0.101519
v -85.705625 87.572752 -27.702009
vn 5.607566 -2.834355 0.007317
v -85.682931 87.696721 -22.128559
vn 5.607987 -2.833516 0.008853
v -86.005726 87.059598 -21.356454
vn 5.602869 -2.843623 0.000205
v -85.129176 88.790286 -23.592645
vn 5.604242 -2.840728 0.023967
v -84.785956 89.463476 -23.799600
vn 5.608138 -2.833008 0.024165
v -86.434733 86.175036 -26.202978
vn 5.598317 -2.852584 0.001814
v -86.869559 85.319827 -26.470072
vn 5.598834 -2.851540 -0.008696
v -87.278046 84.519638 -25.777115
vn 5.610972 -2.827389 0.007987
v -87.215332 84.636187 -24.751532
vn 5.598998 -2.851186 -0.018967
v -87.677778 83.728538 -25.048990
vn 5.595105 -2.858833 -0.001298
v -88.047455 82.999146 -24.313754
vn 5.595422 -2.858182 -0.021003
v -88.162502 82.779575 -25.281174
vn 5.623343 -2.802815 0.020559
v -87.156060 84.767428 -23.742985
vn 5.619082 -2.811227 0.036259
v -86.778383 85.514505 -24.476385
vn 5.623395 -2.802817 0.000813
v -87.076571 84.929518 -22.744766
vn 5.593435 -2.862104 0.016327
v -87.971010 83.153519 -23.365205
vn 5.602624 -2.844021 0.009977
v -88.417518 82.279426 -23.694594
vn 5.553350 -2.939077 0.016898
v -87.414568 84.269913 -28.787923
vn 5.633051 -2.781396 -0.104638
v -88.535645 82.016406 -22.182112
vn 2.621057 -1.298378 -0.050910
v -88.862700 81.353675 -22.147475
vn 5.573536 -2.899982 -0.050024
v -88.148757 82.878257 -28.586270
vn 5.552917 -2.939950 -0.001726
v -87.782696 83.577057 -29.118137
vn 5.546890 -2.951328 0.008505
v -87.475511 84.153759 -29.647816
vn 5.633418 -2.781911 0.061501
v -84.750402 89.494484 -26.341556
vn 2.748308 -1.352514 0.031959
v -84.601875 89.773975 -27.212575
vn 5.649703 -2.748837 -0.055732
v -86.483616 86.083918 -19.127333
vn 5.546359 -2.952295 0.016217
v -86.417442 86.141129 -29.897987
vn 5.608008 -2.832354 0.073657
v -85.005340 89.002351 -25.371506
vn 5.598874 -2.850747 0.042465
v -85.078400 88.890037 -24.407088
vn 2.808597 -1.446458 -0.035953
v -89.120975 80.895975 -24.092475
vn 5.602169 -2.843610 0.073716
v -85.258224 88.445884 -27.434308
vn 5.582912 -2.881697 0.070456
v -85.604768 87.799736 -26.661479
vn 5.592179 -2.863566 0.072774
v -85.542758 87.938081 -25.669781
vn 5.600482 -2.847745 0.047594
v -86.000960 87.043349 -25.952054
vn 5.628627 -2.791499 0.063424
v -84.925226 89.119439 -27.147074
vn 5.626248 -2.796720 -0.008106
v -86.333369 86.414204 -20.614357
vn 5.645785 -2.757069 -0.043000
v -86.633680 85.793210 -19.918196
vn 2.815484 -1.387760 -0.056021
v -87.935300 83.132650 -19.536100
vn 5.616185 -2.816953 0.040623
v -86.393933 86.271631 -25.226293
vn 5.624093 -2.799652 -0.095017
v -88.193021 82.696321 -21.744903
vn 5.603017 -2.842623 -0.034144
v -87.872279 83.352422 -22.375307
vn 5.608809 -2.831878 0.004300
v -85.483411 88.090554 -23.815969
vn 5.604213 -2.840106 0.053531
v -85.525323 88.003677 -24.735642
vn 2.907925 -1.547480 0.004810
v -87.701000 83.728400 -30.102475
vn 5.609899 -2.829494 0.011995
v -87.518580 84.040142 -23.039936
vn 5.568982 -2.907905 -0.083019
v -88.517177 82.119888 -27.118665
vn 2.668454 -1.340834 0.008306
v -84.970625 89.116625 -20.895575
vn 5.610806 -2.827902 0.013663
v -85.490601 88.080637 -21.090995
vn 5.575151 -2.897153 -0.031286
v -88.657139 81.815332 -25.452329
vn 5.587520 -2.872967 -0.051184
v -88.320910 82.476651 -26.170032
vn 2.870933 -1.424911 0.014692
v -84.465250 90.082500 -25.512100
vn 2.591701 -1.382548 0.007075
v -86.283450 86.388400 -30.661650
vn 5.572979 -2.900379 0.066661
v -85.940342 87.040383 -29.661236
vn 5.609734 -2.830046 0.011630
v -85.814306 87.442863 -20.353342
vn 5.590041 -2.866998 0.100069
v -85.561235 87.796647 -29.271305
vn 2.898988 -1.460006 0.001776
v -85.621075 87.829500 -19.429525
vn 5.592191 -2.863738 -0.069300
v -88.106194 82.914636 -26.858045
vn 5.648618 -2.750958 -0.061039
v -86.900083 85.233470 -19.274056
vn 2.825445 -1.373101 -0.032522
v -87.153050 84.699800 -18.711350
vn 5.631018 -2.785438 -0.102988
v -88.080785 82.884274 -20.680583
vn 5.586465 -2.874596 -0.078415
v -88.162712 82.823459 -27.705289
vn 5.628813 -2.791381 -0.018987
v -86.156673 86.766519 -19.705710
vn 5.606716 -2.836036 0.002919
v -85.372842 88.307693 -22.871085
vn 5.610830 -2.827844 0.015116
v -85.214220 88.624862 -21.921114
vn 5.619475 -2.809606 -0.050763
v -88.725042 81.669583 -23.102304
vn 5.571498 -2.903794 -0.054973
v -88.913768 81.323771 -24.866049
vn 5.559461 -2.926054 -0.085517
v -88.791833 81.577288 -26.457140
vn 5.597303 -2.853882 -0.035837
v -88.794523 81.530032 -24.038277
# 133 vertices, 0 vertices normals

f 46//46 47//47 48//48
f 50//50 51//51 52//52
f 53//53 54//54 55//55
f 56//56 47//47 57//57
f 58//58 59//59 54//54
f 60//60 61//61 62//62
f 63//63 52//52 64//64
f 65//65 66//66 64//64
f 58//58 67//67 68//68
f 63//63 71//71 72//72
f 72//72 73//73 60//60
f 73//73 74//74 75//75
f 78//78 74//74 79//79
f 57//57 80//80 59//59
f 50//50 62//62 83//83
f 84//84 85//85 130//130
f 10//10 126//126 86//86
f 6//6 70//70 30//30
f 83//83 87//87 88//88
f 127//127 33//33 91//91
f 66//66 96//96 97//97
f 98//98 99//99 97//97
f 13//13 96//96 100//100
f 13//13 100//100 89//89
f 56//56 101//101 102//102
f 79//79 104//104 55//55
f 46//46 105//105 106//106
f 107//107 69//69 128//128
f 107//107 53//53 108//108
f 11//11 105//105 84//84
f 110//110 106//106 81//81
f 110//110 78//78 80//80
f 132//132 39//39 38//38
f 12//12 41//41 36//36
f 114//114 115//115 77//77
f 89//89 116//116 93//93
f 6//6 30//30 37//37
f 92//92 117//117 43//43
f 108//108 98//98 93//93
f 68//68 119//119 101//101
f 12//12 120//120 41//41
f 65//65 118//118 120//120
f 104//104 71//71 99//99
f 126//126 61//61 122//122
f 123//123 124//124 49//49
f 10//10 86//86 87//87
f 102//102 91//91 123//123
f 111//111 40//40 29//29
f 111//111 122//122 115//115
f 125//125 46//46 48//48
f 46//46 16//16 47//47
f 48//48 47//47 18//18
f 48//48 18//18 49//49
f 48//48 49//49 20//20
f 48//48 103//103 125//125
f 103//103 48//48 20//20
f 4//4 50//50 52//52
f 50//50 7//7 51//51
f 52//52 51//51 5//5
f 21//21 7//7 22//22
f 2//2 53//53 55//55
f 53//53 15//15 54//54
f 55//55 54//54 8//8
f 1//1 56//56 57//57
f 56//56 18//18 47//47
f 57//57 47//47 16//16
f 15//15 58//58 54//54
f 58//58 1//1 59//59
f 54//54 59//59 8//8
f 4//4 60//60 62//62
f 60//60 9//9 61//61
f 62//62 61//61 10//10
f 3//3 63//63 64//64
f 63//63 4//4 52//52
f 64//64 52//52 5//5
f 5//5 65//65 64//64
f 65//65 12//12 66//66
f 64//64 66//66 3//3
f 1//1 58//58 68//68
f 58//58 15//15 67//67
f 68//68 67//67 113//113
f 6//6 69//69 70//70
f 69//69 94//94 70//70
f 23//23 70//70 24//24
f 4//4 63//63 72//72
f 63//63 3//3 71//71
f 72//72 71//71 17//17
f 4//4 72//72 60//60
f 72//72 17//17 73//73
f 60//60 73//73 9//9
f 9//9 73//73 75//75
f 73//73 17//17 74//74
f 75//75 74//74 14//14
f 76//76 19//19 77//77
f 75//75 77//77 9//9
f 8//8 78//78 79//79
f 78//78 14//14 74//74
f 79//79 74//74 17//17
f 1//1 57//57 59//59
f 57//57 16//16 80//80
f 59//59 80//80 8//8
f 19//19 76//76 82//82
f 76//76 14//14 81//81
f 7//7 50//50 83//83
f 50//50 4//4 62//62
f 83//83 62//62 10//10
f 11//11 84//84 130//130
f 130//130 85//85 27//27
f 126//126 29//29 86//86
f 28//28 86//86 29//29
f 113//113 67//67 129//129
f 67//67 15//15 128//128
f 129//129 128//128 6//6
f 70//70 23//23 30//30
f 7//7 83//83 88//88
f 83//83 10//10 87//87
f 109//109 87//87 31//31
f 109//109 88//88 87//87
f 89//89 90//90 32//32
f 91//91 33//33 34//34
f 5//5 51//51 92//92
f 117//117 92//92 21//21
f 94//94 24//24 70//70
f 131//131 95//95 35//35
f 3//3 66//66 97//97
f 66//66 12//12 96//96
f 97//97 96//96 13//13
f 13//13 98//98 97//97
f 98//98 2//2 99//99
f 97//97 99//99 3//3
f 96//96 36//36 100//100
f 36//36 96//96 12//12
f 100//100 90//90 89//89
f 90//90 100//100 36//36
f 18//18 56//56 102//102
f 56//56 1//1 101//101
f 102//102 101//101 127//127
f 103//103 25//25 125//125
f 37//37 129//129 6//6
f 112//112 113//113 129//129
f 8//8 79//79 55//55
f 79//79 17//17 104//104
f 55//55 104//104 2//2
f 16//16 46//46 106//106
f 106//106 105//105 11//11
f 15//15 107//107 128//128
f 107//107 94//94 69//69
f 128//128 69//69 6//6
f 94//94 107//107 108//108
f 107//107 15//15 53//53
f 108//108 53//53 2//2
f 7//7 88//88 22//22
f 109//109 22//22 88//88
f 105//105 26//26 84//84
f 85//85 84//84 26//26
f 14//14 110//110 81//81
f 110//110 16//16 106//106
f 81//81 106//106 11//11
f 16//16 110//110 80//80
f 110//110 14//14 78//78
f 80//80 78//78 8//8
f 38//38 40//40 132//132
f 113//113 112//112 42//42
f 19//19 114//114 77//77
f 114//114 132//132 115//115
f 77//77 115//115 9//9
f 13//13 89//89 93//93
f 89//89 32//32 116//116
f 93//93 116//116 24//24
f 5//5 92//92 118//118
f 118//118 92//92 43//43
f 94//94 108//108 93//93
f 108//108 2//2 98//98
f 93//93 98//98 13//13
f 82//82 11//11 130//130
f 95//95 133//133 27//27
f 1//1 68//68 101//101
f 68//68 113//113 119//119
f 101//101 119//119 127//127
f 120//120 44//44 41//41
f 12//12 65//65 120//120
f 65//65 5//5 118//118
f 44//44 118//118 43//43
f 44//44 120//120 118//118
f 121//121 33//33 127//127
f 2//2 104//104 99//99
f 104//104 17//17 71//71
f 99//99 71//71 3//3
f 111//111 29//29 126//126
f 126//126 10//10 61//61
f 122//122 61//61 9//9
f 18//18 123//123 49//49
f 123//123 45//45 124//124
f 49//49 124//124 20//20
f 86//86 31//31 87//87
f 31//31 86//86 28//28
f 18//18 102//102 123//123
f 102//102 127//127 91//91
f 45//45 123//123 91//91
f 34//34 45//45 91//91
f 119//119 121//121 127//127
f 121//121 119//119 42//42
f 39//39 114//114 131//131
f 132//132 111//111 115//115
f 115//115 122//122 9//9
f 125//125 25//25 26//26
f 94//94 93//93 24//24
f 112//112 129//129 37//37
f 46//46 125//125 105//105
f 26//26 105//105 125//125
f 111//111 126//126 122//122
f 67//67 128//128 129//129
f 114//114 19//19 131//131
f 119//119 113//113 42//42
f 39//39 132//132 114//114
f 39//39 131//131 35//35
f 27//27 133//133 130//130
f 19//19 133//133 131//131
f 76//76 77//77 75//75
f 14//14 76//76 75//75
f 82//82 76//76 81//81
f 111//111 132//132 40//40
f 82//82 81//81 11//11
f 133//133 19//19 82//82
f 133//133 82//82 130//130
f 133//133 95//95 131//131
f 51//51 7//7 21//21
f 92//92 51//51 21//21
# 228 faces, 0 coords texture

# End of File
