####
#
# OBJ File Generated by Meshlab
#
####
# Object 2779_C168_S_9.obj
#
# Vertices: 99
# Faces: 165
#
####
vn -5.631103 -2.785951 -0.005232
v 86.696827 87.725714 -8.659172
vn -5.612280 -2.824478 -0.041788
v 87.533594 86.093648 -9.288335
vn -5.651349 -2.745851 0.027346
v 86.307976 88.535557 -8.268524
vn -5.625828 -2.797433 -0.040258
v 87.302543 86.515611 -7.274379
vn -5.645451 -2.757721 -0.027268
v 86.076629 89.007152 -9.678149
vn -5.632471 -2.783802 -0.039302
v 86.227236 88.756058 -11.706882
vn -5.618028 -2.812807 -0.050830
v 86.917698 87.323528 -10.656545
vn -5.627738 -2.794088 -0.003898
v 86.251667 88.706304 -13.674848
vn -5.623777 -2.801103 -0.033559
v 87.822824 85.555140 -11.398623
vn -5.625216 -2.798135 -0.041924
v 88.830353 83.445577 -8.448768
vn -5.614573 -2.820035 -0.042062
v 89.201313 82.750422 -10.060305
vn -5.629164 -2.790743 -0.029743
v 88.745970 83.665321 -11.789741
vn -5.617125 -2.815334 -0.008749
v 88.003585 85.196840 -13.767889
vn -5.633094 -2.781882 -0.058281
v 88.110460 84.920985 -7.749783
vn -5.633699 -2.781620 -0.040603
v 88.383134 84.377226 -9.819148
vn -2.795351 -1.360268 0.009356
v 86.711900 87.723625 -6.842132
vn -2.406704 -1.171936 -0.012323
v 87.107300 86.905000 -6.424000
vn -2.734066 -1.357510 -0.038413
v 87.548800 85.996500 -6.457950
vn -2.563407 -1.267668 -0.019844
v 85.436350 90.329400 -10.835600
vn -2.369449 -1.181731 -0.001272
v 85.480600 90.254900 -12.576900
vn -2.918133 -1.450048 -0.005122
v 85.585300 90.046900 -13.030300
vn -2.660830 -1.293350 0.001265
v 85.681050 89.824450 -8.887215
vn -2.542593 -1.268272 -0.044665
v 88.002000 85.097600 -6.581560
vn -2.688864 -1.325834 -0.016532
v 88.861150 83.377200 -7.771325
vn -2.502159 -1.270010 -0.022250
v 89.102900 82.906400 -8.314980
vn -2.612437 -1.277749 -0.034819
v 88.407400 84.291100 -6.986950
vn -2.472012 -1.207714 0.002780
v 85.899600 89.371200 -8.019410
vn -2.438780 -1.214126 -0.000290
v 85.789500 89.634600 -14.262000
vn -2.507868 -1.261519 0.005382
v 87.477000 86.248900 -16.330200
vn -2.705557 -1.350528 0.005782
v 87.013300 87.175600 -16.206700
vn -2.444763 -1.227455 -0.012817
v 88.029900 85.161200 -16.062900
vn -2.914065 -1.447056 -0.005595
v 88.461100 84.280500 -15.360600
vn -2.579776 -1.277909 -0.012688
v 89.145753 82.885714 -13.756950
vn -2.216571 -1.102320 -0.000619
v 86.427900 88.356600 -15.889300
vn -2.348512 -1.182516 -0.007914
v 89.510000 82.149200 -12.006400
vn -2.377514 -1.192206 -0.015214
v 89.500900 82.153800 -10.124500
vn -2.652801 -1.291256 0.019098
v 86.328900 88.507850 -7.278780
vn -2.892260 -1.444056 -0.008281
v 85.484200 90.247500 -12.151500
vn -2.492370 -1.233841 -0.004361
v 88.627700 83.945200 -15.151400
vn -5.618366 -2.812171 -0.001059
v 87.009678 87.101178 -8.013526
vn -5.643830 -2.761303 0.013465
v 86.951587 87.230443 -7.231454
vn -5.647876 -2.752807 0.042926
v 86.648670 87.841921 -7.728246
vn -5.634959 -2.778474 -0.075560
v 86.154626 88.873158 -10.694991
vn -5.641489 -2.765429 -0.062800
v 86.588791 88.007539 -11.231775
vn -5.635887 -2.776705 -0.070281
v 86.490344 88.177326 -10.205545
vn -5.615331 -2.818103 -0.053722
v 86.805363 87.526656 -9.639912
vn -5.647026 -2.754361 -0.024428
v 86.392501 88.354033 -9.227654
vn -5.643050 -2.762465 -0.031926
v 85.765304 89.647026 -10.129072
vn -5.635619 -2.777756 -0.037291
v 87.952843 85.246950 -9.575509
vn -5.619294 -2.810153 -0.053408
v 87.670032 85.840742 -10.336130
vn -5.644092 -2.760301 -0.056358
v 88.109572 84.952599 -10.613214
vn -5.613191 -2.822109 -0.075308
v 87.699105 85.732201 -7.476720
vn -5.598062 -2.852743 -0.044382
v 87.233186 86.694027 -9.999762
vn -5.597434 -2.853982 -0.043849
v 87.112732 86.913536 -8.985134
vn -5.632682 -2.784076 -0.011415
v 86.681994 87.834850 -13.272466
vn -5.626638 -2.796270 -0.014204
v 86.658615 87.888242 -14.269523
vn -5.622052 -2.805348 -0.027504
v 87.137016 86.922112 -13.904624
vn -5.650770 -2.746975 -0.034334
v 88.506079 84.110015 -8.099673
vn -5.626007 -2.797580 0.000783
v 85.903567 89.406620 -13.090686
vn -5.641839 -2.765361 -0.016204
v 88.232121 84.679959 -8.805022
vn -5.634672 -2.779209 -0.050685
v 88.632123 83.858180 -9.046502
vn -5.603342 -2.842266 -0.047512
v 87.412087 86.316076 -8.258124
vn -5.621212 -2.806825 -0.031250
v 87.821018 85.510390 -8.533523
vn -5.624465 -2.800670 0.003078
v 86.855545 87.496156 -15.369736
vn -5.616822 -2.815851 -0.016812
v 87.869100 85.474669 -15.411524
vn -2.814312 -1.396150 0.004267
v 86.720600 87.766100 -16.048000
vn -5.643313 -2.762189 -0.039907
v 88.477357 84.226515 -12.645381
vn -5.637350 -2.774433 -0.030166
v 88.681830 83.827115 -13.616628
vn -5.626033 -2.797138 -0.034732
v 88.929520 83.308596 -12.765545
vn -2.803183 -1.410190 -0.010378
v 89.332250 82.508600 -12.864800
vn -5.612152 -2.825206 -0.019270
v 89.187540 82.788541 -11.845885
vn -5.609571 -2.829454 -0.070180
v 89.003766 83.119239 -9.153462
vn -2.807467 -1.421701 -0.030458
v 89.266500 82.599700 -9.059965
vn -5.615673 -2.817692 -0.046140
v 88.824726 83.500044 -9.982174
vn -5.620850 -2.807110 -0.033438
v 87.031379 87.108938 -11.750686
vn -5.623153 -2.803276 -0.010331
v 88.084297 85.038240 -14.622403
vn -5.610279 -2.828926 -0.009598
v 87.625035 85.944845 -13.281751
vn -5.631424 -2.786164 -0.030279
v 88.563611 84.023453 -10.812384
vn -5.648400 -2.751809 -0.038349
v 88.285137 84.609437 -11.635016
vn -5.627754 -2.793663 -0.013652
v 88.000133 85.203329 -12.520098
vn -5.597957 -2.853099 -0.031295
v 87.362310 86.456053 -11.062786
vn -5.602554 -2.844163 -0.008136
v 87.503078 86.188825 -12.166878
vn -5.623209 -2.803133 -0.009345
v 85.827001 89.561262 -12.243760
vn -2.707609 -1.313141 -0.000269
v 85.521300 90.150100 -9.904895
vn -5.612802 -2.823935 -0.015863
v 89.124535 82.908097 -10.921021
vn -2.909028 -1.464156 -0.009202
v 89.483750 82.197000 -11.283000
vn -5.624935 -2.799728 -0.006256
v 86.326963 88.556956 -14.732117
vn -2.907024 -1.448563 -0.002825
v 86.121000 88.970850 -15.019825
vn -2.820205 -1.389929 -0.007438
v 88.883600 83.421850 -14.460800
vn -5.652443 -2.743722 0.004129
v 86.050973 89.063892 -8.814853
vn -5.626281 -2.796409 -0.052611
v 85.798319 89.608516 -11.204357
vn -5.616586 -2.816414 0.003770
v 87.418974 86.370320 -15.453927
vn -5.620419 -2.808720 -0.010486
v 87.106549 86.994290 -14.897780
vn -5.620292 -2.808725 -0.020718
v 87.137050 86.910341 -12.829091
vn -5.633296 -2.782691 -0.020214
v 88.299831 84.601861 -13.486543
vn -5.631856 -2.785776 -0.000115
v 86.337609 88.532649 -12.500365
vn -5.616486 -2.816575 -0.019782
v 87.605188 85.993352 -14.475389
vn -5.641119 -2.766774 -0.023350
v 86.631741 87.935819 -12.238718
vn -5.630228 -2.789041 -0.008008
v 88.416212 84.370524 -14.618478
# 99 vertices, 0 vertices normals

f 40//40 41//41 42//42
f 43//43 44//44 45//45
f 46//46 47//47 45//45
f 4//4 18//18 17//17
f 43//43 48//48 91//91
f 20//20 21//21 59//59
f 96//96 83//83 59//59
f 49//49 50//50 51//51
f 53//53 54//54 46//46
f 55//55 56//56 57//57
f 10//10 25//25 24//24
f 14//14 58//58 26//26
f 3//3 27//27 90//90
f 60//60 61//61 58//58
f 52//52 62//62 63//63
f 40//40 54//54 62//62
f 69//69 67//67 68//68
f 69//69 70//70 71//71
f 96//96 55//55 98//98
f 72//72 11//11 73//73
f 74//74 72//72 61//61
f 44//44 98//98 75//75
f 78//78 51//51 79//79
f 80//80 67//67 79//79
f 53//53 81//81 50//50
f 75//75 82//82 81//81
f 27//27 3//3 37//37
f 14//14 26//26 23//23
f 83//83 38//38 20//20
f 74//74 78//78 85//85
f 85//85 71//71 86//86
f 60//60 63//63 49//49
f 56//56 8//8 87//87
f 77//77 80//80 82//82
f 68//68 99//99 89//89
f 1//1 40//40 42//42
f 40//40 4//4 41//41
f 42//42 41//41 16//16
f 37//37 42//42 16//16
f 43//43 6//6 44//44
f 45//45 44//44 7//7
f 7//7 46//46 45//45
f 46//46 1//1 47//47
f 45//45 47//47 5//5
f 6//6 43//43 91//91
f 43//43 5//5 48//48
f 22//22 5//5 90//90
f 8//8 96//96 59//59
f 96//96 6//6 83//83
f 15//15 49//49 51//51
f 49//49 2//2 50//50
f 51//51 50//50 9//9
f 52//52 23//23 18//18
f 23//23 52//52 14//14
f 4//4 52//52 18//18
f 7//7 53//53 46//46
f 53//53 2//2 54//54
f 46//46 54//54 1//1
f 94//94 55//55 57//57
f 55//55 8//8 56//56
f 24//24 58//58 10//10
f 58//58 24//24 26//26
f 59//59 83//83 20//20
f 59//59 28//28 8//8
f 28//28 59//59 21//21
f 14//14 60//60 58//58
f 60//60 15//15 61//61
f 58//58 61//61 10//10
f 14//14 52//52 63//63
f 52//52 4//4 62//62
f 63//63 62//62 2//2
f 65//65 31//31 32//32
f 4//4 40//40 62//62
f 40//40 1//1 54//54
f 62//62 54//54 2//2
f 66//66 64//64 34//34
f 56//56 93//93 57//57
f 33//33 69//69 68//68
f 69//69 12//12 67//67
f 12//12 69//69 71//71
f 69//69 33//33 70//70
f 71//71 70//70 35//35
f 96//96 8//8 55//55
f 3//3 47//47 1//1
f 4//4 17//17 41//41
f 16//16 41//41 17//17
f 36//36 73//73 11//11
f 25//25 72//72 73//73
f 72//72 25//25 10//10
f 15//15 74//74 61//61
f 74//74 11//11 72//72
f 61//61 72//72 10//10
f 7//7 44//44 75//75
f 12//12 78//78 79//79
f 78//78 15//15 51//51
f 79//79 51//51 9//9
f 9//9 80//80 79//79
f 80//80 13//13 95//95
f 79//79 67//67 12//12
f 2//2 53//53 50//50
f 53//53 7//7 81//81
f 50//50 81//81 9//9
f 7//7 75//75 81//81
f 75//75 94//94 82//82
f 81//81 82//82 9//9
f 3//3 1//1 42//42
f 3//3 42//42 37//37
f 83//83 6//6 91//91
f 83//83 91//91 38//38
f 48//48 84//84 19//19
f 11//11 74//74 85//85
f 74//74 15//15 78//78
f 85//85 78//78 12//12
f 85//85 12//12 71//71
f 86//86 71//71 35//35
f 11//11 85//85 86//86
f 86//86 36//36 11//11
f 15//15 60//60 49//49
f 60//60 14//14 63//63
f 49//49 63//63 2//2
f 87//87 8//8 28//28
f 88//88 87//87 28//28
f 88//88 34//34 87//87
f 94//94 77//77 82//82
f 77//77 13//13 80//80
f 82//82 80//80 9//9
f 33//33 68//68 89//89
f 68//68 95//95 99//99
f 89//89 99//99 39//39
f 95//95 76//76 99//99
f 39//39 99//99 32//32
f 38//38 91//91 19//19
f 90//90 27//27 22//22
f 3//3 90//90 47//47
f 5//5 43//43 45//45
f 90//90 5//5 47//47
f 65//65 92//92 29//29
f 48//48 5//5 22//22
f 65//65 29//29 31//31
f 48//48 22//22 84//84
f 30//30 64//64 66//66
f 91//91 48//48 19//19
f 92//92 30//30 29//29
f 76//76 65//65 32//32
f 97//97 13//13 77//77
f 97//97 76//76 13//13
f 93//93 56//56 64//64
f 93//93 92//92 97//97
f 77//77 57//57 97//97
f 57//57 93//93 97//97
f 98//98 55//55 94//94
f 75//75 98//98 94//94
f 94//94 57//57 77//77
f 95//95 68//68 67//67
f 44//44 6//6 98//98
f 80//80 95//95 67//67
f 95//95 13//13 76//76
f 76//76 97//97 65//65
f 97//97 92//92 65//65
f 30//30 93//93 64//64
f 98//98 6//6 96//96
f 99//99 76//76 32//32
f 64//64 56//56 87//87
f 64//64 87//87 34//34
f 92//92 93//93 30//30
# 165 faces, 0 coords texture

# End of File
