####
#
# OBJ File Generated by Meshlab
#
####
# Object 2791_C170_S_1.obj
#
# Vertices: 67
# Faces: 108
#
####
vn -5.662594 -2.722396 -0.043145
v 89.839459 84.216621 1.505281
vn -5.669050 -2.708869 -0.043995
v 88.173326 87.682163 2.128537
vn -5.669015 -2.709106 -0.031337
v 88.972797 86.005917 1.977414
vn -5.667078 -2.712878 -0.053301
v 90.424212 82.942366 4.142473
vn -5.660459 -2.725659 -0.070130
v 88.796815 86.285051 5.720188
vn -5.653305 -2.741003 -0.072556
v 87.833460 88.338372 4.379733
vn -5.663288 -2.720454 -0.055930
v 89.276592 85.281380 7.227410
vn -5.666947 -2.712637 -0.069554
v 89.659531 84.523664 5.327252
vn -5.667269 -2.712620 -0.045535
v 89.710563 84.455890 3.228740
vn -5.665100 -2.716372 -0.070255
v 88.939413 86.055311 4.127868
vn -5.666093 -2.714755 -0.058163
v 87.989478 87.991457 5.377356
vn -5.666528 -2.713440 -0.058338
v 88.539158 86.906402 3.653516
vn -2.620179 -1.244511 -0.023082
v 88.151600 87.737950 1.558485
vn -2.512714 -1.193435 -0.022062
v 88.667700 86.666900 0.964363
vn -2.311283 -1.113984 -0.033419
v 87.551400 88.954000 3.369620
vn -2.574471 -1.230633 -0.021273
v 89.476300 84.851600 7.936100
vn -2.401750 -1.145794 -0.015767
v 88.315800 87.267300 7.550530
vn -2.404587 -1.145424 -0.030638
v 90.186400 83.352700 7.197220
vn -2.579081 -1.224311 -0.029949
v 87.986700 88.081000 1.881840
vn -2.479433 -1.198118 -0.038385
v 89.130200 85.556500 8.043030
vn -2.825991 -1.361059 -0.022060
v 88.691525 86.483350 7.778940
vn -2.524281 -1.216145 -0.021707
v 87.529400 88.951600 5.083990
vn -2.396574 -1.142119 -0.014131
v 87.694400 88.600700 6.196430
vn -2.595091 -1.241284 -0.022660
v 90.331500 83.181900 1.889155
vn -2.705559 -1.310291 -0.013781
v 89.745100 84.418500 0.993109
vn -2.574860 -1.239454 -0.023454
v 90.798900 82.157400 4.496050
vn -2.480512 -1.189435 -0.022221
v 90.772400 82.226700 3.589770
vn -2.826647 -1.368652 -0.045165
v 87.543900 88.952600 3.783560
vn -2.485561 -1.201563 -0.030163
v 90.683000 82.372750 5.686250
vn -2.481823 -1.196576 -0.018682
v 89.893800 84.110400 1.089780
vn -5.673644 -2.698492 -0.073123
v 88.411966 87.097465 5.600859
vn -5.660265 -2.725953 -0.089831
v 88.247205 87.484485 4.536102
vn -5.664979 -2.715584 -0.108578
v 88.655271 86.620123 4.738968
vn -5.672009 -2.702794 -0.033288
v 88.498682 87.000563 1.985180
vn -5.683767 -2.677606 -0.053096
v 89.675487 84.436185 7.111827
vn -2.848678 -1.342737 -0.013547
v 89.789200 84.189950 7.606265
vn -5.675013 -2.696696 -0.018327
v 88.659211 86.661011 2.720156
vn -5.660724 -2.726337 -0.026460
v 88.305698 87.402503 2.763829
vn -5.665085 -2.717248 -0.032726
v 88.613864 86.654293 6.719064
vn -5.676576 -2.693127 -0.044397
v 88.178432 87.576656 6.418121
vn -5.663132 -2.720776 -0.055947
v 87.957109 88.119286 2.684516
vn -2.838324 -1.346792 -0.040184
v 87.799500 88.456300 2.521720
vn -5.658563 -2.730441 -0.047780
v 88.938538 85.981026 7.295444
vn -5.653219 -2.741440 -0.060666
v 88.003012 88.013201 3.573972
vn -5.663979 -2.719470 -0.046567
v 89.801215 84.283368 2.260433
vn -5.668829 -2.709242 -0.052780
v 90.136319 83.573022 2.804741
vn -5.665766 -2.715341 -0.065151
v 90.407918 82.955661 5.128864
vn -5.656516 -2.735147 -0.029835
v 89.479315 84.961761 1.634502
vn -5.662453 -2.722808 -0.035103
v 89.355111 85.202633 2.648128
vn -5.665372 -2.715847 -0.058354
v 89.452662 84.933274 6.340228
vn -5.677130 -2.690786 -0.087845
v 89.892524 83.999652 6.267258
vn -5.672039 -2.702476 -0.054631
v 90.054022 83.708704 4.681800
vn -5.670809 -2.705148 -0.050214
v 89.672843 84.516221 4.232996
vn -5.670477 -2.705788 -0.053007
v 90.063011 83.707630 3.718049
vn -5.651161 -2.746230 -0.027425
v 89.031342 85.793285 6.510078
vn -5.648751 -2.750153 -0.072176
v 89.187614 85.485378 5.590255
vn -5.672895 -2.699857 -0.083268
v 90.074182 83.647784 5.512600
vn -2.611606 -1.255883 -0.009617
v 89.230950 85.476675 0.827328
vn -5.668518 -2.709824 -0.056276
v 90.401137 83.007480 3.330209
vn -2.678705 -1.280775 -0.025713
v 90.573200 82.661775 2.652518
vn -5.667980 -2.711239 -0.037910
v 89.307533 85.291737 3.690478
vn -5.661820 -2.723014 -0.078428
v 89.282803 85.325910 4.661584
vn -5.662993 -2.720483 -0.086220
v 90.296076 83.160030 6.098111
vn -2.741525 -1.330111 -0.038855
v 90.441650 82.848400 6.494610
vn -2.828466 -1.340948 -0.022830
v 88.060025 87.816500 7.000280
vn -5.654393 -2.737509 -0.110879
v 88.965406 85.969324 4.951015
vn -5.672676 -2.701524 -0.025751
v 88.941453 86.060389 3.163956
# 67 vertices, 0 vertices normals

f 31//31 32//32 33//33
f 3//3 34//34 14//14
f 35//35 18//18 36//36
f 34//34 37//37 38//38
f 31//31 39//39 40//40
f 2//2 19//19 13//13
f 41//41 15//15 42//42
f 7//7 16//16 20//20
f 44//44 32//32 6//6
f 11//11 23//23 22//22
f 9//9 45//45 46//46
f 47//47 26//26 29//29
f 4//4 27//27 26//26
f 44//44 28//28 15//15
f 48//48 45//45 49//49
f 35//35 50//50 51//51
f 52//52 53//53 54//54
f 55//55 56//56 50//50
f 57//57 52//52 47//47
f 51//51 57//57 63//63
f 55//55 43//43 39//39
f 3//3 14//14 58//58
f 54//54 46//46 59//59
f 61//61 67//67 49//49
f 63//63 29//29 64//64
f 1//1 25//25 30//30
f 1//1 30//30 24//24
f 61//61 53//53 62//62
f 38//38 44//44 41//41
f 5//5 31//31 33//33
f 31//31 11//11 32//32
f 10//10 33//33 12//12
f 13//13 34//34 2//2
f 34//34 13//13 14//14
f 7//7 35//35 16//16
f 36//36 16//16 35//35
f 2//2 34//34 38//38
f 34//34 3//3 37//37
f 38//38 37//37 12//12
f 11//11 31//31 40//40
f 31//31 5//5 39//39
f 40//40 39//39 17//17
f 65//65 40//40 17//17
f 15//15 41//41 44//44
f 19//19 41//41 42//42
f 41//41 19//19 2//2
f 7//7 20//20 43//43
f 21//21 43//43 20//20
f 44//44 12//12 32//32
f 6//6 32//32 11//11
f 24//24 45//45 1//1
f 45//45 24//24 46//46
f 47//47 4//4 26//26
f 22//22 6//6 11//11
f 6//6 22//22 28//28
f 3//3 48//48 49//49
f 48//48 1//1 45//45
f 49//49 45//45 9//9
f 18//18 35//35 51//51
f 35//35 7//7 50//50
f 51//51 50//50 8//8
f 4//4 52//52 54//54
f 52//52 8//8 53//53
f 54//54 53//53 9//9
f 7//7 55//55 50//50
f 55//55 5//5 56//56
f 50//50 56//56 8//8
f 57//57 8//8 52//52
f 47//47 52//52 4//4
f 18//18 51//51 63//63
f 51//51 8//8 57//57
f 63//63 57//57 47//47
f 5//5 55//55 39//39
f 55//55 7//7 43//43
f 39//39 43//43 21//21
f 17//17 39//39 21//21
f 58//58 48//48 3//3
f 1//1 48//48 25//25
f 58//58 25//25 48//48
f 4//4 59//59 27//27
f 60//60 27//27 59//59
f 4//4 54//54 59//59
f 54//54 9//9 46//46
f 60//60 59//59 46//46
f 24//24 60//60 46//46
f 9//9 61//61 49//49
f 61//61 10//10 67//67
f 49//49 67//67 3//3
f 5//5 33//33 66//66
f 33//33 10//10 66//66
f 56//56 62//62 8//8
f 29//29 63//63 47//47
f 64//64 18//18 63//63
f 11//11 40//40 23//23
f 65//65 23//23 40//40
f 10//10 61//61 62//62
f 61//61 9//9 53//53
f 62//62 53//53 8//8
f 2//2 38//38 41//41
f 38//38 12//12 44//44
f 28//28 44//44 6//6
f 37//37 3//3 67//67
f 12//12 37//37 67//67
f 33//33 32//32 12//12
f 56//56 66//66 62//62
f 5//5 66//66 56//56
f 66//66 10//10 62//62
f 12//12 67//67 10//10
# 108 faces, 0 coords texture

# End of File
