####
#
# OBJ File Generated by Meshlab
#
####
# Object 2795_C170_S_5.obj
#
# Vertices: 150
# Faces: 255
#
####
vn 5.485715 -3.063350 -0.021848
v -89.470435 83.250002 -34.446073
vn 5.420333 -3.174194 -0.137120
v -92.912511 77.460840 -39.035389
vn 5.411994 -3.191302 -0.061938
v -90.102512 82.255384 -39.920694
vn 5.424356 -3.170571 -0.037186
v -89.237254 83.697880 -38.663992
vn 5.424728 -3.169175 -0.081187
v -90.176620 82.072214 -37.849831
vn 5.402295 -3.207616 -0.061722
v -92.310708 78.568190 -42.471188
vn 5.418687 -3.179881 -0.066777
v -93.254431 76.973921 -43.122405
vn 5.435825 -3.147824 -0.142005
v -91.037491 80.571380 -36.953112
vn 5.394104 -3.221833 -0.039464
v -92.314374 78.605808 -45.824788
vn 5.401074 -3.210086 -0.044924
v -91.329655 80.271053 -46.155825
vn 5.412525 -3.190968 0.003151
v -88.399589 85.125280 -39.294298
vn 5.409142 -3.195724 -0.081882
v -91.997133 79.043686 -40.343244
vn 5.418798 -3.178953 -0.090100
v -91.074282 80.586107 -39.048041
vn 5.400811 -3.210594 -0.041450
v -90.550507 81.563751 -45.067492
vn 5.457928 -3.111103 -0.096146
v -90.216664 81.954018 -35.863438
vn 5.413228 -3.189498 -0.049612
v -90.945904 80.840141 -41.104238
vn 5.452582 -3.121799 -0.033881
v -89.362857 83.452547 -36.560759
vn 5.405981 -3.201886 -0.035936
v -89.995048 82.466409 -41.915798
vn 5.393954 -3.222258 -0.026958
v -89.121110 83.939127 -42.810478
vn 5.400264 -3.211571 -0.033875
v -89.127517 83.913024 -40.758084
vn 5.400487 -3.211043 -0.048367
v -91.595982 79.793210 -44.340693
vn 5.423526 -3.169061 -0.142171
v -91.972030 79.007568 -37.993756
vn 5.398319 -3.214252 -0.068530
v -92.781543 77.805808 -44.351329
vn 5.469221 -3.088822 -0.139854
v -90.851721 80.775817 -34.871291
vn 5.416277 -3.183652 -0.080041
v -93.083481 77.216445 -40.691277
vn 5.449679 -3.121312 -0.189203
v -91.857835 79.094507 -36.002647
vn 5.407354 -3.199509 -0.044601
v -90.798680 81.115861 -43.050995
vn 5.475817 -3.081170 0.011823
v -88.585705 84.825243 -35.383842
vn 1.968647 -1.171219 -0.015734
v -91.187500 80.519500 -46.863400
vn 2.649698 -1.570117 -0.018439
v -91.596100 79.828300 -46.741700
vn 2.858481 -1.698068 -0.005148
v -88.237600 85.399800 -39.777200
vn 2.934905 -1.756202 -0.013040
v -88.706900 84.628400 -42.419700
vn 2.203363 -1.317570 -0.011687
v -88.824600 84.438200 -43.173600
vn 2.457542 -1.454605 0.029901
v -87.926800 85.937600 -37.758900
vn 2.346513 -1.403324 -0.007487
v -88.375600 85.175000 -41.416000
vn 2.770679 -1.617841 -0.057068
v -93.447200 76.567300 -39.639000
vn 3.118109 -1.860885 -0.024971
v -90.925500 80.952100 -46.437100
vn 2.212214 -1.317912 -0.015844
v -90.429300 81.780900 -46.230500
vn 2.295745 -1.325509 -0.075230
v -93.330700 76.704600 -38.479600
vn 2.417417 -1.444223 -0.014534
v -89.404600 83.479500 -44.475300
vn 2.789635 -1.661023 -0.018910
v -89.944100 82.586550 -45.305300
vn 3.134597 -1.837277 -0.060111
v -93.399900 76.736900 -43.491600
vn 1.858445 -1.079206 -0.028486
v -93.487700 76.577000 -43.303500
vn 2.128556 -1.275212 -0.028985
v -93.180000 77.159900 -45.163600
vn 3.078566 -1.705216 -0.040649
v -89.976400 82.319800 -33.757800
vn 2.273378 -1.250552 -0.001806
v -89.503900 83.187900 -33.569100
vn 2.927157 -1.707997 -0.107396
v -92.611900 77.844400 -36.722900
vn 2.501784 -1.461546 -0.082180
v -92.780300 77.573000 -37.025200
vn 2.945656 -1.759389 -0.015979
v -89.148300 83.901700 -43.710100
vn 2.284557 -1.279315 0.007767
v -88.548000 84.899700 -34.361100
vn 2.374978 -1.341593 0.011515
v -88.075500 85.730600 -35.654400
vn 2.751206 -1.634831 -0.019671
v -92.223400 78.766700 -46.476300
vn 2.672438 -1.523920 -0.066652
v -91.084150 80.346050 -34.365450
vn 2.523170 -1.437000 -0.075480
v -91.901700 78.972700 -35.150600
vn 2.426683 -1.372437 -0.103643
v -92.233100 78.401800 -35.659300
vn 2.260033 -1.320264 -0.027077
v -93.689000 76.202400 -41.681300
vn 3.181133 -1.861691 -0.026977
v -93.463200 76.617000 -43.096200
vn 2.957500 -1.782346 -0.023475
v -92.739100 77.900300 -45.796500
vn 2.015171 -1.208588 -0.012369
v -92.521200 78.266700 -46.386400
vn 2.882690 -1.595467 -0.048491
v -90.664700 81.085100 -33.985200
vn 2.548569 -1.466342 0.025104
v -87.955975 85.927325 -36.670725
vn 2.079241 -1.153065 -0.033519
v -90.373300 81.602900 -33.600700
vn 5.414198 -3.187963 0.034968
v -88.387420 85.156308 -38.407786
vn 2.635686 -1.559683 0.013256
v -88.080175 85.669475 -38.902275
vn 5.401435 -3.209648 -0.027723
v -88.673353 84.670734 -40.080227
vn 5.393085 -3.223766 -0.019077
v -88.710466 84.613767 -41.172386
vn 2.697336 -1.610570 -0.006788
v -88.306600 85.287400 -40.596600
vn 5.411278 -3.191956 -0.088406
v -92.903943 77.500439 -39.943854
vn 5.436384 -3.149659 -0.058679
v -89.762116 82.775580 -37.212551
vn 5.448768 -3.128245 -0.055272
v -89.811893 82.665500 -36.181890
vn 5.436772 -3.148607 -0.077774
v -90.198031 82.010886 -36.837970
vn 5.403026 -3.206718 -0.051080
v -91.276599 80.303020 -42.639362
vn 5.396441 -3.217801 -0.050713
v -91.820674 79.399532 -43.264396
vn 5.401811 -3.208779 -0.050864
v -91.204003 80.442426 -43.644392
vn 5.387569 -3.232679 -0.046244
v -92.545444 78.211216 -45.112707
vn 5.399615 -3.212545 -0.044981
v -91.990815 79.139961 -45.112923
vn 5.395449 -3.219561 -0.044365
v -92.193259 78.789728 -44.256085
vn 5.402179 -3.208397 -0.029729
v -89.951136 82.549579 -42.933849
vn 5.396290 -3.218345 -0.026635
v -89.529078 83.251354 -42.361345
vn 5.398047 -3.215179 -0.045782
v -90.955721 80.891098 -45.636574
vn 5.465694 -3.098979 -0.021232
v -89.432231 83.322189 -35.511138
vn 5.441199 -3.141592 -0.000745
v -88.832618 84.398131 -38.010397
vn 5.417551 -3.182239 -0.004534
v -88.766548 84.499569 -39.056291
vn 5.406488 -3.200980 -0.045070
v -89.173758 83.820184 -39.719746
vn 5.398571 -3.214424 -0.035304
v -89.906360 82.635117 -44.023784
vn 5.445753 -3.131123 -0.124800
v -90.600573 81.307379 -36.400652
vn 5.452561 -3.117064 -0.177102
v -90.972861 80.623271 -35.889153
vn 5.412385 -3.190830 -0.055815
v -91.439418 79.995831 -40.695747
vn 5.414727 -3.186855 -0.055533
v -91.025895 80.686826 -40.095257
vn 5.421316 -3.174904 -0.081889
v -91.526910 79.829171 -39.647937
vn 5.415634 -3.185399 -0.050288
v -90.533213 81.532622 -40.517095
vn 5.413159 -3.189134 -0.072169
v -90.591441 81.415852 -39.495515
vn 5.412341 -3.191184 -0.035474
v -90.405821 81.775914 -42.483484
vn 5.407091 -3.200039 -0.038265
v -90.346416 81.885883 -43.482876
vn 5.397542 -3.215736 -0.062520
v -91.769289 79.466237 -42.146282
vn 5.411619 -3.191585 -0.077588
v -93.011441 77.396652 -43.623160
vn 2.701669 -1.602544 -0.049386
v -93.289950 76.948400 -44.327600
vn 5.426923 -3.161438 -0.178542
v -92.813645 77.572383 -38.011926
vn 2.779330 -1.610210 -0.091691
v -92.971525 77.275125 -37.577350
vn 5.408196 -3.197956 -0.053533
v -91.329635 80.199065 -41.665589
vn 5.404137 -3.204528 -0.065939
v -91.748372 79.481783 -41.263761
vn 5.405262 -3.203025 -0.046744
v -89.608510 83.095322 -40.342560
vn 5.413056 -3.189392 -0.066078
v -89.665578 82.984212 -39.304433
vn 5.423870 -3.170146 -0.099260
v -90.615929 81.308115 -37.427293
vn 5.414477 -3.187469 -0.043561
v -90.467248 81.658801 -41.505204
vn 5.409515 -3.195826 -0.046659
v -90.045586 82.366592 -40.926325
vn 5.428490 -3.161855 -0.112069
v -91.533954 79.779389 -38.544995
vn 5.422641 -3.171687 -0.117005
v -91.068508 80.557564 -37.994801
vn 5.434257 -3.150361 -0.146188
v -91.503672 79.792167 -37.482792
vn 5.413534 -3.187692 -0.102170
v -90.619807 81.338830 -38.456399
vn 5.466347 -3.097940 0.012159
v -88.483682 85.003133 -36.315040
vn 5.470351 -3.090884 -0.005229
v -88.976809 84.132442 -35.944146
vn 5.460864 -3.107493 -0.017161
v -88.894293 84.277329 -36.957163
vn 5.442985 -3.138472 -0.041081
v -89.297573 83.579353 -37.603547
vn 5.425634 -3.167977 -0.065528
v -89.712471 82.875484 -38.253381
vn 5.432230 -3.152547 -0.174490
v -91.905768 79.065672 -36.963601
vn 5.431628 -3.150146 -0.222802
v -92.210170 78.519987 -36.518967
vn 5.420712 -3.172313 -0.175269
v -92.390710 78.259145 -37.390133
vn 5.401042 -3.210248 -0.035615
v -89.560317 83.191623 -41.349675
vn 5.394878 -3.220684 -0.030005
v -89.494927 83.318306 -43.399459
vn 2.696286 -1.506767 0.003741
v -89.007400 84.079050 -33.951075
vn 2.738324 -1.539825 0.011148
v -88.311750 85.315150 -35.007750
vn 5.479429 -3.074742 0.002584
v -89.019037 84.054118 -34.910623
vn 5.414880 -3.185846 -0.087997
v -90.146530 82.151875 -38.885256
vn 5.413253 -3.189018 -0.070643
v -92.760313 77.789099 -41.700930
vn 5.417219 -3.182572 -0.058193
v -92.840863 77.672031 -42.795284
vn 5.394378 -3.221569 -0.023609
v -89.104772 83.959326 -41.799690
vn 5.404416 -3.204482 -0.044161
v -91.823539 79.435413 -45.957543
vn 5.440022 -3.139224 -0.172717
v -91.390026 79.869383 -35.352901
vn 2.775965 -1.603383 -0.085995
v -91.544950 79.573600 -34.839050
vn 2.696906 -1.577483 -0.037548
v -93.576050 76.374450 -40.678475
vn 5.422301 -3.173739 -0.066289
v -93.278122 76.902663 -41.531143
vn 2.712143 -1.585211 -0.031447
v -93.576100 76.409700 -42.388750
vn 5.409065 -3.193554 -0.142184
v -92.437200 78.242437 -38.520760
vn 5.414900 -3.185100 -0.107443
v -91.996761 79.003301 -39.110894
vn 5.402920 -3.205769 -0.098866
v -92.472490 78.220102 -39.608983
vn 5.405213 -3.202922 -0.053708
v -92.489750 78.281714 -43.454902
vn 5.402159 -3.208182 -0.051508
v -91.462432 80.033441 -45.285738
vn 5.401365 -3.209552 -0.049503
v -91.065213 80.691747 -44.663790
vn 5.400212 -3.210913 -0.077480
v -92.186228 78.752207 -41.432056
vn 5.441376 -3.136648 -0.176890
v -91.449709 79.827458 -36.443668
vn 5.411113 -3.193170 -0.043427
v -90.865199 80.990058 -42.077152
vn 5.402705 -3.207395 -0.041833
v -90.276846 82.016698 -44.403917
vn 5.403743 -3.205579 -0.047352
v -90.708163 81.283693 -44.044952
vn 5.407101 -3.199146 -0.084297
v -92.559895 78.101021 -40.636603
vn 5.476287 -3.079364 -0.066561
v -89.920554 82.460822 -35.075880
vn 5.494800 -3.045825 -0.091973
v -90.403324 81.575379 -34.516438
vn 5.437063 -3.148530 0.026720
v -88.417890 85.116984 -37.351411
vn 5.420587 -3.176774 -0.060976
v -93.188582 77.072291 -42.373191
vn 5.481448 -3.068263 -0.126666
v -90.412362 81.582595 -35.317825
# 150 vertices, 0 vertices normals

f 10//10 30//30 29//29
f 19//19 33//33 32//32
f 65//65 66//66 67//67
f 69//69 70//70 71//71
f 72//72 73//73 74//74
f 75//75 76//76 77//77
f 10//10 29//29 37//37
f 78//78 120//120 79//79
f 70//70 81//81 146//146
f 2//2 39//39 36//36
f 63//63 82//82 83//83
f 84//84 65//65 83//83
f 86//86 150//150 87//87
f 88//88 89//89 90//90
f 91//91 92//92 89//89
f 78//78 93//93 94//94
f 7//7 43//43 42//42
f 96//96 97//97 23//23
f 1//1 46//46 45//45
f 100//100 88//88 101//101
f 102//102 84//84 103//103
f 71//71 86//86 104//104
f 105//105 106//106 91//91
f 107//107 108//108 109//109
f 110//110 104//104 108//108
f 11//11 31//31 64//64
f 111//111 112//112 113//113
f 82//82 113//113 114//114
f 69//69 115//115 114//114
f 116//116 117//117 118//118
f 79//79 127//127 119//119
f 19//19 120//120 49//49
f 28//28 51//51 122//122
f 103//103 115//115 124//124
f 125//125 149//149 126//126
f 19//19 49//49 33//33
f 20//20 127//127 66//66
f 10//10 128//128 30//30
f 129//129 53//53 130//130
f 26//26 54//54 55//55
f 119//119 102//102 106//106
f 56//56 132//132 131//131
f 133//133 132//132 56//56
f 149//149 132//132 133//133
f 134//134 118//118 98//98
f 135//135 134//134 136//136
f 9//9 75//75 58//58
f 77//77 73//73 137//137
f 138//138 80//80 139//139
f 76//76 128//128 138//138
f 9//9 59//59 52//52
f 24//24 60//60 53//53
f 101//101 140//140 95//95
f 129//129 141//141 87//87
f 26//26 55//55 117//117
f 72//72 142//142 100//100
f 143//143 94//94 144//144
f 28//28 111//111 51//51
f 93//93 105//105 142//142
f 145//145 125//125 140//140
f 68//68 145//145 136//136
f 137//137 126//126 96//96
f 9//9 58//58 59//59
f 107//107 135//135 90//90
f 109//109 141//141 116//116
f 124//124 110//110 92//92
f 7//7 57//57 43//43
f 123//123 81//81 112//112
f 139//139 144//144 74//74
f 24//24 147//147 60//60
f 64//64 63//63 11//11
f 148//148 63//63 34//34
f 64//64 34//34 63//63
f 65//65 20//20 66//66
f 67//67 66//66 35//35
f 11//11 65//65 31//31
f 67//67 31//31 65//65
f 68//68 36//36 25//25
f 36//36 68//68 2//2
f 25//25 36//36 131//131
f 5//5 69//69 71//71
f 69//69 17//17 70//70
f 71//71 70//70 15//15
f 27//27 72//72 74//74
f 72//72 95//95 73//73
f 74//74 73//73 21//21
f 23//23 75//75 77//77
f 75//75 9//9 76//76
f 77//77 76//76 21//21
f 18//18 78//78 79//79
f 78//78 85//85 120//120
f 79//79 120//120 19//19
f 37//37 80//80 10//10
f 80//80 38//38 14//14
f 38//38 80//80 37//37
f 15//15 70//70 146//146
f 70//70 17//17 81//81
f 146//146 81//81 1//1
f 11//11 63//63 83//83
f 83//83 82//82 4//4
f 4//4 84//84 83//83
f 84//84 20//20 65//65
f 83//83 65//65 11//11
f 85//85 41//41 40//40
f 8//8 86//86 87//87
f 86//86 15//15 150//150
f 87//87 150//150 24//24
f 12//12 88//88 90//90
f 88//88 16//16 89//89
f 90//90 89//89 13//13
f 16//16 91//91 89//89
f 91//91 3//3 92//92
f 89//89 92//92 13//13
f 85//85 78//78 94//94
f 78//78 18//18 93//93
f 94//94 93//93 27//27
f 73//73 95//95 6//6
f 42//42 96//96 7//7
f 96//96 42//42 97//97
f 23//23 97//97 44//44
f 2//2 98//98 39//39
f 99//99 39//39 98//98
f 95//95 100//100 101//101
f 100//100 16//16 88//88
f 101//101 88//88 12//12
f 3//3 102//102 103//103
f 102//102 20//20 84//84
f 103//103 84//84 4//4
f 5//5 71//71 104//104
f 71//71 15//15 86//86
f 104//104 86//86 8//8
f 16//16 105//105 91//91
f 105//105 18//18 106//106
f 91//91 106//106 3//3
f 22//22 107//107 109//109
f 107//107 13//13 108//108
f 109//109 108//108 8//8
f 13//13 110//110 108//108
f 110//110 5//5 104//104
f 108//108 104//104 8//8
f 148//148 111//111 113//113
f 111//111 28//28 112//112
f 113//113 112//112 17//17
f 4//4 82//82 114//114
f 82//82 148//148 113//113
f 114//114 113//113 17//17
f 17//17 69//69 114//114
f 69//69 5//5 115//115
f 114//114 115//115 4//4
f 22//22 116//116 118//118
f 116//116 26//26 117//117
f 118//118 117//117 47//47
f 48//48 118//118 47//47
f 18//18 79//79 119//119
f 79//79 19//19 127//127
f 119//119 127//127 20//20
f 40//40 120//120 85//85
f 120//120 40//40 49//49
f 121//121 46//46 1//1
f 28//28 122//122 50//50
f 50//50 123//123 28//28
f 123//123 121//121 1//1
f 121//121 123//123 50//50
f 3//3 103//103 124//124
f 103//103 4//4 115//115
f 124//124 115//115 5//5
f 6//6 125//125 126//126
f 126//126 149//149 7//7
f 32//32 127//127 19//19
f 127//127 32//32 66//66
f 35//35 66//66 32//32
f 52//52 128//128 9//9
f 128//128 52//52 30//30
f 53//53 129//129 24//24
f 26//26 129//129 54//54
f 130//130 54//54 129//129
f 18//18 119//119 106//106
f 119//119 20//20 102//102
f 106//106 102//102 3//3
f 25//25 131//131 132//132
f 7//7 149//149 57//57
f 133//133 57//57 149//149
f 2//2 134//134 98//98
f 134//134 22//22 118//118
f 98//98 118//118 48//48
f 99//99 98//98 48//48
f 12//12 135//135 136//136
f 135//135 22//22 134//134
f 136//136 134//134 2//2
f 75//75 23//23 44//44
f 75//75 44//44 58//58
f 23//23 77//77 137//137
f 77//77 21//21 73//73
f 137//137 73//73 6//6
f 138//138 10//10 80//80
f 21//21 76//76 138//138
f 76//76 9//9 128//128
f 138//138 128//128 10//10
f 41//41 14//14 38//38
f 101//101 12//12 140//140
f 95//95 140//140 6//6
f 24//24 129//129 87//87
f 129//129 26//26 141//141
f 87//87 141//141 8//8
f 117//117 55//55 47//47
f 95//95 72//72 100//100
f 72//72 27//27 142//142
f 100//100 142//142 16//16
f 14//14 143//143 144//144
f 143//143 85//85 94//94
f 144//144 94//94 27//27
f 61//61 148//148 34//34
f 111//111 148//148 61//61
f 111//111 61//61 51//51
f 27//27 93//93 142//142
f 93//93 18//18 105//105
f 142//142 105//105 16//16
f 12//12 145//145 140//140
f 125//125 25//25 132//132
f 140//140 125//125 6//6
f 2//2 68//68 136//136
f 68//68 25//25 145//145
f 136//136 145//145 12//12
f 23//23 137//137 96//96
f 137//137 6//6 126//126
f 96//96 126//126 7//7
f 13//13 107//107 90//90
f 107//107 22//22 135//135
f 90//90 135//135 12//12
f 22//22 109//109 116//116
f 109//109 8//8 141//141
f 116//116 141//141 26//26
f 3//3 124//124 92//92
f 124//124 5//5 110//110
f 92//92 110//110 13//13
f 45//45 146//146 1//1
f 146//146 45//45 147//147
f 62//62 147//147 45//45
f 143//143 14//14 41//41
f 143//143 41//41 85//85
f 28//28 123//123 112//112
f 123//123 1//1 81//81
f 112//112 81//81 17//17
f 74//74 144//144 27//27
f 24//24 150//150 147//147
f 147//147 62//62 60//60
f 63//63 148//148 82//82
f 139//139 80//80 14//14
f 145//145 25//25 125//125
f 139//139 14//14 144//144
f 21//21 138//138 139//139
f 21//21 139//139 74//74
f 149//149 125//125 132//132
f 150//150 146//146 147//147
f 150//150 15//15 146//146
# 255 faces, 0 coords texture

# End of File
