####
#
# OBJ File Generated by Meshlab
#
####
# Object 2808_C171_S_8.obj
#
# Vertices: 80
# Faces: 130
#
####
vn -5.340637 -3.308218 -0.107997
v 91.442336 81.545302 44.219291
vn -5.352294 -3.290398 -0.067284
v 90.448315 83.241516 41.311051
vn -5.340451 -3.308263 -0.114217
v 91.950134 80.663295 45.997295
vn -5.331856 -3.322423 -0.105316
v 92.502468 79.836297 44.358182
vn -5.331100 -3.323599 -0.104452
v 93.102235 78.875513 44.391018
vn -5.346407 -3.300003 -0.062844
v 92.536070 79.874307 40.853834
vn -5.346615 -3.298748 -0.101511
v 90.906620 82.359016 45.816672
vn -5.343665 -3.304248 -0.071998
v 93.077841 78.960992 42.532675
vn -5.340109 -3.309521 -0.093240
v 92.025633 80.652922 42.639920
vn -5.343448 -3.304590 -0.072087
v 91.492766 81.556274 41.151829
vn -5.351638 -3.290371 -0.108388
v 90.255964 83.451629 44.647307
vn -5.350960 -3.292596 -0.063341
v 90.968077 82.428415 39.562450
vn -2.272877 -1.387330 -0.035971
v 90.797300 82.728700 38.771800
vn -2.651231 -1.627464 -0.035206
v 90.391700 83.369400 39.463600
vn -2.600624 -1.601448 -0.049066
v 90.357600 83.250300 45.830700
vn -2.420795 -1.484018 -0.050664
v 89.924500 83.980400 44.960500
vn -2.216374 -1.371658 -0.050379
v 92.184700 80.255600 46.767100
vn -2.536569 -1.560113 -0.046096
v 91.791800 80.896400 46.814600
vn -2.309803 -1.442236 -0.051722
v 92.912800 79.123900 45.905600
vn -2.766732 -1.725620 -0.062608
v 93.065200 78.892300 45.563800
vn -2.771189 -1.730215 -0.063536
v 92.742700 79.390700 46.066900
vn -2.513016 -1.550929 -0.043521
v 91.146400 81.946000 46.690700
vn -2.314124 -1.427147 -0.041555
v 90.728200 82.629800 46.452900
vn -2.665505 -1.642369 -0.027156
v 91.295900 81.913300 38.516300
vn -2.568993 -1.564681 -0.032386
v 93.714050 77.954800 40.603050
vn -2.358030 -1.439039 -0.016884
v 93.910800 77.609000 41.810600
vn -2.494323 -1.543903 -0.015176
v 93.877125 77.663300 42.857675
vn -2.564502 -1.594525 -0.041262
v 93.709600 77.913800 43.950100
vn -2.320045 -1.439914 -0.053621
v 93.523200 78.184000 44.746500
vn -2.381454 -1.456005 -0.036849
v 89.683900 84.477000 41.979200
vn -2.356700 -1.445449 -0.027208
v 90.222400 83.639400 39.772700
vn -2.264778 -1.372026 -0.045152
v 89.634900 84.502400 43.790300
vn -2.363284 -1.463264 -0.021002
v 91.582600 81.452500 38.377400
vn -2.227244 -1.375151 -0.020803
v 92.629500 79.757600 38.600100
vn -2.626963 -1.604462 -0.048703
v 89.667450 84.494650 42.299100
vn -2.262359 -1.386150 -0.028051
v 93.542400 78.254400 39.891400
vn -5.331933 -3.321786 -0.120909
v 92.201393 80.289543 45.185908
vn -5.339554 -3.309648 -0.116908
v 91.692054 81.109758 45.146685
vn -5.334586 -3.317891 -0.109650
v 91.968312 80.696453 44.317149
vn -5.346102 -3.299457 -0.105618
v 90.653298 82.800210 44.860390
vn -5.328551 -3.327272 -0.119228
v 92.703154 79.481079 45.308270
vn -5.329114 -3.326135 -0.125491
v 92.366275 80.000099 45.889351
vn -5.344579 -3.302810 -0.070622
v 92.007181 80.726943 41.007963
vn -5.342683 -3.306294 -0.050713
v 91.773149 81.117187 40.254049
vn -5.344859 -3.302773 -0.050792
v 92.279153 80.300220 40.186971
vn -5.341666 -3.307226 -0.084897
v 92.278120 80.267698 41.766138
vn -5.344110 -3.303108 -0.091481
v 91.760152 81.103123 41.892736
vn -5.332748 -3.321499 -0.088063
v 92.809155 79.367497 43.466029
vn -5.335312 -3.317786 -0.069316
v 93.359919 78.489202 43.331370
vn -5.356261 -3.284067 -0.060373
v 93.149188 78.880177 40.672987
vn -5.347971 -3.297695 -0.052736
v 92.639356 79.726423 39.579253
vn -5.343568 -3.303507 -0.107441
v 90.922539 82.391846 44.037923
vn -5.350957 -3.291343 -0.111795
v 90.458650 83.148635 43.836617
vn -5.361066 -3.276263 -0.057996
v 93.357986 78.522303 41.568643
vn -5.351755 -3.291689 -0.040546
v 93.518763 78.245226 42.447753
vn -5.358938 -3.279216 -0.081594
v 90.092832 83.809921 41.909080
vn -2.678729 -1.641040 -0.031674
v 89.953150 84.058200 40.875950
vn -5.350212 -3.293953 -0.057982
v 90.622879 82.972205 40.523809
vn -5.346064 -3.300395 -0.071127
v 92.814428 79.406465 41.657692
vn -5.337507 -3.313874 -0.087399
v 92.550163 79.809224 42.596324
vn -5.344121 -3.302530 -0.109907
v 91.164265 81.968339 45.028230
vn -5.336347 -3.315541 -0.094887
v 92.262510 80.247505 43.478303
vn -5.338915 -3.311219 -0.100812
v 91.739666 81.089733 43.436414
vn -5.342030 -3.306229 -0.099745
v 91.563326 81.399044 42.675288
vn -5.345763 -3.300126 -0.101563
v 91.435588 81.497767 45.957272
vn -5.342388 -3.306809 -0.048227
v 91.605239 81.402562 39.309173
vn -5.342836 -3.306051 -0.050490
v 91.244997 81.968736 40.350084
vn -5.344635 -3.302691 -0.071671
v 90.949455 82.432290 41.269551
vn -5.351996 -3.290252 -0.093287
v 90.604625 82.968190 42.139486
vn -2.671355 -1.653150 -0.023684
v 92.106050 80.605050 38.488750
vn -5.358692 -3.278874 -0.108597
v 90.152287 83.682302 42.887058
vn -2.678823 -1.648924 -0.025946
v 93.126350 78.939450 39.305700
vn -2.692199 -1.639977 -0.053131
v 89.651550 84.495200 43.115350
vn -5.355598 -3.285133 -0.062316
v 90.422063 83.308869 40.038080
vn -5.343426 -3.305117 -0.049086
v 92.152906 80.515920 39.425253
vn -5.343415 -3.303876 -0.103587
v 91.233861 81.913692 43.235084
vn -5.345139 -3.301282 -0.097064
v 91.174738 82.040584 42.200838
vn -5.363911 -3.270076 -0.115602
v 90.005898 83.886641 43.892392
vn -5.349125 -3.294501 -0.107192
v 90.718779 82.754148 43.032578
vn -5.350265 -3.293978 -0.052736
v 92.882972 79.323000 40.052589
# 80 vertices, 0 vertices normals

f 12//12 74//74 14//14
f 37//37 38//38 39//39
f 3//3 17//17 18//18
f 4//4 5//5 41//41
f 37//37 41//41 42//42
f 7//7 22//22 23//23
f 3//3 42//42 17//17
f 43//43 44//44 45//45
f 43//43 46//46 47//47
f 48//48 49//49 5//5
f 12//12 13//13 24//24
f 50//50 6//6 80//80
f 8//8 54//54 55//55
f 5//5 49//49 28//28
f 5//5 29//29 20//20
f 2//2 57//57 58//58
f 59//59 60//60 46//46
f 65//65 61//61 38//38
f 48//48 62//62 60//60
f 63//63 62//62 39//39
f 59//59 50//50 54//54
f 63//63 76//76 64//64
f 7//7 23//23 15//15
f 7//7 65//65 22//22
f 44//44 67//67 66//66
f 68//68 77//77 69//69
f 64//64 77//77 47//47
f 45//45 75//75 51//51
f 34//34 75//75 70//70
f 61//61 40//40 52//52
f 69//69 71//71 56//56
f 5//5 28//28 29//29
f 50//50 36//36 25//25
f 35//35 71//71 73//73
f 58//58 67//67 68//68
f 13//13 12//12 14//14
f 4//4 37//37 39//39
f 37//37 3//3 38//38
f 39//39 38//38 1//1
f 15//15 40//40 7//7
f 20//20 41//41 5//5
f 19//19 41//41 20//20
f 3//3 37//37 42//42
f 37//37 4//4 41//41
f 21//21 41//41 19//19
f 21//21 42//42 41//41
f 42//42 21//21 17//17
f 6//6 43//43 45//45
f 43//43 10//10 44//44
f 10//10 43//43 47//47
f 43//43 6//6 46//46
f 47//47 46//46 9//9
f 4//4 48//48 5//5
f 48//48 8//8 49//49
f 76//76 1//1 52//52
f 25//25 54//54 50//50
f 54//54 26//26 55//55
f 26//26 54//54 25//25
f 55//55 26//26 27//27
f 49//49 8//8 55//55
f 49//49 55//55 27//27
f 49//49 27//27 28//28
f 2//2 56//56 57//57
f 56//56 30//30 57//57
f 6//6 59//59 46//46
f 59//59 8//8 60//60
f 46//46 60//60 9//9
f 3//3 65//65 38//38
f 65//65 7//7 61//61
f 38//38 61//61 1//1
f 8//8 48//48 60//60
f 48//48 4//4 62//62
f 60//60 62//62 9//9
f 1//1 63//63 39//39
f 63//63 9//9 62//62
f 39//39 62//62 4//4
f 8//8 59//59 54//54
f 59//59 6//6 50//50
f 9//9 63//63 64//64
f 63//63 1//1 76//76
f 18//18 65//65 3//3
f 65//65 18//18 22//22
f 24//24 66//66 12//12
f 66//66 24//24 33//33
f 44//44 10//10 67//67
f 66//66 67//67 12//12
f 2//2 68//68 69//69
f 68//68 10//10 77//77
f 9//9 64//64 47//47
f 76//76 79//79 77//77
f 47//47 77//77 10//10
f 45//45 44//44 75//75
f 51//51 75//75 34//34
f 66//66 70//70 75//75
f 70//70 66//66 33//33
f 1//1 61//61 52//52
f 61//61 7//7 40//40
f 52//52 40//40 53//53
f 50//50 80//80 36//36
f 72//72 36//36 80//80
f 73//73 71//71 78//78
f 2//2 58//58 68//68
f 58//58 12//12 67//67
f 68//68 67//67 10//10
f 2//2 69//69 56//56
f 30//30 56//56 35//35
f 12//12 58//58 74//74
f 74//74 31//31 14//14
f 11//11 16//16 78//78
f 71//71 35//35 56//56
f 53//53 78//78 71//71
f 53//53 40//40 11//11
f 79//79 52//52 53//53
f 11//11 15//15 16//16
f 11//11 40//40 15//15
f 75//75 44//44 66//66
f 79//79 76//76 52//52
f 80//80 51//51 72//72
f 69//69 77//77 79//79
f 64//64 76//76 77//77
f 53//53 11//11 78//78
f 78//78 16//16 32//32
f 78//78 32//32 73//73
f 69//69 79//79 71//71
f 79//79 53//53 71//71
f 51//51 34//34 72//72
f 80//80 6//6 45//45
f 45//45 51//51 80//80
f 74//74 57//57 31//31
f 74//74 58//58 57//57
# 130 faces, 0 coords texture

# End of File
