####
#
# OBJ File Generated by Meshlab
#
####
# Object 2817_C172_S_7.obj
#
# Vertices: 137
# Faces: 235
#
####
vn -5.687283 -2.668424 -0.109111
v 90.086082 86.241411 20.807701
vn -5.675477 -2.692685 -0.121641
v 89.937816 86.463959 22.902927
vn -5.619429 -2.807859 -0.125934
v 90.560005 84.956140 27.827713
vn -5.617744 -2.806029 -0.203063
v 89.792300 86.426730 28.896767
vn -5.655505 -2.722938 -0.261598
v 89.037516 88.092533 27.943003
vn -5.652425 -2.740456 -0.106388
v 90.507889 85.257141 24.089257
vn -5.693192 -2.650499 -0.193370
v 88.379084 89.731315 24.627096
vn -5.700398 -2.638307 -0.147690
v 89.132877 88.127644 23.846981
vn -5.685010 -2.669984 -0.166601
v 89.069404 88.171741 25.820250
vn -5.635827 -2.776752 -0.064908
v 91.565902 83.136902 22.056722
vn -5.663244 -2.716765 -0.143355
v 89.821996 86.596953 24.949147
vn -5.706653 -2.626236 -0.120200
v 88.545300 89.608782 20.411717
vn -5.718950 -2.600778 -0.085972
v 89.381206 87.875587 17.627927
vn -5.660285 -2.722673 -0.152676
v 89.811607 86.518127 26.879703
vn -5.667262 -2.701943 -0.242434
v 88.268816 89.781602 26.574055
vn -5.703534 -2.632315 -0.136824
v 89.253417 87.999171 21.725938
vn -5.705323 -2.627730 -0.150380
v 88.443794 89.710183 22.569472
vn -5.686156 -2.671746 -0.080256
v 90.153830 86.173616 18.559444
vn -5.638268 -2.769455 -0.134578
v 90.602089 84.959290 25.883266
vn -5.662977 -2.720141 -0.098565
v 90.928446 84.498139 20.229858
vn -5.710500 -2.619022 -0.096095
v 88.695900 89.358768 18.267489
vn -5.657438 -2.731202 -0.087424
v 90.746211 84.781458 22.392377
vn -5.708705 -2.622884 -0.097253
v 89.331989 87.922010 19.558421
vn -2.906351 -1.437430 -0.048356
v 91.480725 83.170300 26.069850
vn -2.349870 -1.173340 -0.050945
v 91.785900 82.587400 25.159200
vn -2.455115 -1.247513 -0.061526
v 90.198600 85.606700 29.398900
vn -3.093989 -1.534640 -0.062737
v 91.111800 83.872900 27.160000
vn -2.618649 -1.294468 -0.051040
v 91.314600 83.485200 26.685200
vn -2.184769 -1.076295 -0.010630
v 91.889100 82.481000 22.040900
vn -3.141202 -1.518225 -0.016136
v 91.716700 82.831600 21.464000
vn -2.389855 -1.184541 -0.125495
v 89.382750 87.167800 29.770650
vn -2.639619 -1.334571 -0.049628
v 91.859800 82.494200 24.115100
vn -2.465680 -1.240969 -0.044989
v 90.891300 84.286600 28.177100
vn -2.667929 -1.342390 -0.059399
v 90.537800 84.952600 28.890800
vn -2.706474 -1.237503 -0.034942
v 89.647600 87.312400 16.797200
vn -2.400763 -1.182921 -0.164127
v 88.668000 88.658600 29.292100
vn -2.782631 -1.360627 -0.153987
v 88.336300 89.467300 28.474300
vn -2.501737 -1.175064 -0.106445
v 87.721000 91.073300 25.280500
vn -2.494095 -1.190217 -0.028301
v 91.584300 83.125500 20.191100
vn -2.626828 -1.263502 -0.047299
v 91.167200 84.057800 18.778600
vn -2.393004 -1.081039 -0.045738
v 89.103100 88.526500 16.825400
vn -2.693449 -1.247480 -0.064271
v 87.716023 91.358436 21.193301
vn -3.204506 -1.503701 -0.145250
v 87.847700 90.746700 25.865200
vn -2.393630 -1.134898 -0.114406
v 87.871200 90.580100 27.028700
vn -2.685900 -1.309857 -0.142784
v 88.095700 90.011900 27.868900
vn -2.945546 -1.419072 -0.040635
v 90.829775 84.779425 18.081800
vn -2.287025 -1.090882 -0.028822
v 90.495500 85.491400 17.192000
vn -3.023303 -1.381915 -0.058833
v 88.826500 89.117700 17.213400
vn -2.173004 -1.002929 -0.036234
v 88.442600 89.933400 17.545700
vn -2.239144 -1.033824 -0.042186
v 87.923700 91.009000 19.096900
vn -3.211065 -1.474567 -0.051623
v 88.233200 90.358300 18.478900
vn -2.678661 -1.243301 -0.079485
v 87.650100 91.382900 23.394050
vn -2.853311 -1.318882 -0.070944
v 87.682500 91.369900 22.336100
vn -5.622288 -2.802901 -0.106401
v 91.496540 83.174510 24.984098
vn -2.777564 -1.429316 -0.093085
v 89.806600 86.354150 29.584550
vn -5.631719 -2.783195 -0.126277
v 90.583536 84.953048 26.853765
vn -5.631771 -2.783714 -0.110573
v 91.007347 84.117432 26.414500
vn -5.625612 -2.796198 -0.108433
v 90.852873 84.390272 27.274533
vn -5.707432 -2.624959 -0.113510
v 89.295999 87.953801 20.632984
vn -5.702784 -2.635521 -0.102616
v 89.712348 87.076087 20.153296
vn -5.700662 -2.639522 -0.117365
v 89.668334 87.124311 21.241698
vn -5.661169 -2.713335 -0.253834
v 89.432132 87.212321 28.469319
vn -5.629047 -2.770456 -0.337963
v 89.154273 87.741466 28.875738
vn -5.615871 -2.816161 -0.092652
v 91.469980 83.289757 23.179384
vn -2.968612 -1.496327 -0.041226
v 91.836250 82.573175 22.994150
vn -5.672403 -2.700873 -0.078979
v 90.339687 85.631022 22.578240
vn -5.669648 -2.707763 -0.038949
v 90.630969 85.010134 23.329543
vn -5.647791 -2.751218 -0.087125
v 90.249510 85.804675 23.530371
vn -5.699468 -2.639515 -0.164207
v 89.191291 88.066877 22.801759
vn -5.695814 -2.648635 -0.142441
v 89.606643 87.208239 22.310804
vn -5.688650 -2.663282 -0.156686
v 89.535145 87.296387 23.369533
vn -5.658291 -2.727106 -0.143100
v 89.864041 86.563078 23.935534
vn -5.630895 -2.783561 -0.151529
v 90.195286 85.867555 24.486764
vn -5.706355 -2.628903 -0.068587
v 89.715863 87.138030 17.997063
vn -5.696897 -2.649205 -0.069996
v 89.983345 86.566050 17.608011
vn -2.783328 -1.392357 -0.179746
v 89.009450 87.946300 29.531600
vn -5.621012 -2.782324 -0.374461
v 88.893800 88.279410 28.735327
vn -5.637625 -2.754252 -0.323196
v 88.652960 88.851902 28.189685
vn -5.690698 -2.659958 -0.136888
v 89.477706 87.360278 24.409056
vn -5.615181 -2.815180 -0.149639
v 90.188282 85.671791 28.374400
vn -5.665932 -2.713818 -0.091405
v 90.867026 84.502358 24.197516
vn -5.649664 -2.748049 -0.070790
v 91.038239 84.157819 23.282277
vn -5.701908 -2.636452 -0.124418
v 89.095433 88.160811 24.844330
vn -5.687830 -2.661859 -0.188098
v 88.718909 88.962428 25.232963
vn -5.710860 -2.616257 -0.139407
v 88.750574 88.939838 24.255688
vn -5.682690 -2.669851 -0.238842
v 88.009350 90.487184 24.973749
vn -2.841186 -1.336795 -0.111962
v 87.685800 91.227400 24.340700
vn -5.692828 -2.652098 -0.186469
v 88.033361 90.517601 23.991065
vn -5.666177 -2.713180 -0.107012
v 91.123221 84.116860 19.587804
vn -2.835364 -1.351819 -0.053843
v 91.375750 83.591650 19.484850
vn -5.668965 -2.708320 -0.072852
v 91.293549 83.732277 20.296648
vn -5.646334 -2.751747 -0.156679
v 90.570169 85.080687 24.915447
vn -5.636519 -2.772062 -0.153732
v 90.196975 85.807715 25.438275
vn -5.644117 -2.758425 -0.110878
v 91.061485 84.045111 25.282477
vn -5.647498 -2.747626 -0.179202
v 89.807240 86.468129 27.869251
vn -5.629694 -2.786262 -0.145665
v 90.203393 85.700971 27.364306
vn -5.636706 -2.772676 -0.134602
v 90.203502 85.744707 26.393827
vn -5.695871 -2.649204 -0.130930
v 89.448442 87.376682 25.398964
vn -5.671199 -2.698255 -0.185209
v 89.045416 88.153731 26.825759
vn -5.645596 -2.748684 -0.219977
v 88.657553 88.932480 27.212297
vn -5.662321 -2.714431 -0.217128
v 88.670457 88.973299 26.209907
vn -5.675693 -2.683426 -0.252361
v 88.315088 89.775929 25.589800
vn -5.706918 -2.623966 -0.155448
v 88.843157 88.864883 22.181150
vn -5.703063 -2.632978 -0.144548
v 88.490456 89.668221 21.493161
vn -5.710181 -2.618219 -0.129622
v 88.894298 88.814351 21.083895
vn -5.672548 -2.700854 -0.071102
v 90.346160 85.788103 17.812266
vn -5.662795 -2.721002 -0.084287
v 90.560101 85.325533 18.573712
vn -2.759198 -1.291268 -0.038393
v 90.053375 86.435650 16.937600
vn -5.719087 -2.600014 -0.101167
v 89.052234 88.590468 17.906544
vn -5.691200 -2.657470 -0.160574
v 89.435637 87.353880 26.373249
vn -5.682031 -2.675577 -0.184801
v 89.423950 87.308933 27.387435
vn -5.704751 -2.631894 -0.085586
v 89.738781 87.056497 19.066798
vn -5.711104 -2.618127 -0.083036
v 89.361054 87.890885 18.545586
vn -5.665548 -2.714943 -0.094358
v 90.540875 85.333786 19.430870
vn -5.660776 -2.724716 -0.099624
v 90.872644 84.655561 19.135704
vn -5.710739 -2.615387 -0.159908
v 88.789404 88.914644 23.243459
vn -5.708252 -2.621224 -0.152719
v 88.406143 89.731109 23.620280
vn -5.668039 -2.706889 -0.140787
v 89.812605 86.565705 25.916858
vn -5.641184 -2.753606 -0.268771
v 88.306948 89.613345 27.551358
vn -5.699385 -2.641466 -0.133971
v 88.143276 90.456396 20.805285
vn -2.855285 -1.325884 -0.061885
v 87.823300 91.177150 20.126800
vn -5.702905 -2.634934 -0.109916
v 88.225574 90.328494 19.749535
vn -5.674115 -2.696006 -0.119561
v 90.431879 85.479122 21.566635
vn -5.670147 -2.704880 -0.105474
v 90.508362 85.367796 20.502335
vn -5.651195 -2.743461 -0.117192
v 90.845539 84.620665 21.360452
vn -5.630969 -2.785579 -0.105392
v 91.166450 83.935689 22.263076
vn -5.647245 -2.752927 -0.079152
v 91.240148 83.827869 21.223177
vn -5.665538 -2.716316 -0.040768
v 91.503447 83.282892 21.067111
vn -5.710489 -2.619061 -0.096059
v 88.610474 89.506300 19.337240
vn -5.708565 -2.623357 -0.093205
v 88.341883 90.112751 18.732452
vn -5.702747 -2.633530 -0.146918
v 88.051732 90.538658 22.935244
vn -5.713849 -2.611346 -0.105564
v 88.937509 88.767361 19.990942
vn -5.714182 -2.611137 -0.091991
v 88.987852 88.696628 18.933975
vn -5.687236 -2.669046 -0.090246
v 90.130988 86.183284 19.711417
vn -5.688933 -2.664492 -0.118864
v 90.017199 86.341487 21.868869
vn -5.633474 -2.780361 -0.093448
v 91.305079 83.586131 24.195090
vn -5.701437 -2.636582 -0.143046
v 88.096791 90.500421 21.837805
# 137 vertices, 0 vertices normals

f 31//31 4//4 55//55
f 56//56 57//57 58//58
f 33//33 58//58 27//27
f 59//59 60//60 61//61
f 10//10 29//29 65//65
f 10//10 30//30 29//29
f 66//66 67//67 68//68
f 69//69 70//70 71//71
f 72//72 68//68 73//73
f 3//3 33//33 34//34
f 63//63 76//76 77//77
f 5//5 77//77 78//78
f 71//71 72//72 79//79
f 4//4 80//80 26//26
f 81//81 67//67 82//82
f 83//83 84//84 85//85
f 3//3 58//58 33//33
f 86//86 87//87 88//88
f 89//89 90//90 91//91
f 73//73 92//92 93//93
f 81//81 94//94 92//92
f 80//80 95//95 96//96
f 56//56 96//96 97//97
f 83//83 79//79 98//98
f 99//99 100//100 101//101
f 7//7 102//102 86//86
f 15//15 44//44 43//43
f 15//15 119//119 44//44
f 84//84 101//101 102//102
f 103//103 104//104 105//105
f 106//106 46//46 107//107
f 75//75 108//108 106//106
f 13//13 109//109 41//41
f 21//21 49//49 48//48
f 99//99 110//110 111//111
f 74//74 112//112 113//113
f 114//114 107//107 115//115
f 20//20 115//115 89//89
f 116//116 85//85 117//117
f 97//97 118//118 93//93
f 118//118 110//110 98//98
f 100//100 78//78 119//119
f 44//44 119//119 45//45
f 69//69 116//116 103//103
f 123//123 124//124 125//125
f 62//62 111//111 95//95
f 126//126 125//125 127//127
f 127//127 91//91 128//128
f 10//10 128//128 30//30
f 21//21 130//130 49//49
f 117//117 88//88 131//131
f 129//129 122//122 130//130
f 49//49 130//130 51//51
f 137//137 17//17 131//131
f 120//120 137//137 42//42
f 82//82 126//126 64//64
f 59//59 105//105 132//132
f 133//133 132//132 129//129
f 60//60 112//112 134//134
f 134//134 114//114 124//124
f 70//70 61//61 135//135
f 66//66 135//135 123//123
f 113//113 133//133 109//109
f 24//24 54//54 25//25
f 55//55 4//4 26//26
f 3//3 56//56 58//58
f 56//56 19//19 57//57
f 27//27 57//57 28//28
f 58//58 57//57 27//27
f 16//16 59//59 61//61
f 59//59 23//23 60//60
f 61//61 60//60 1//1
f 5//5 62//62 63//63
f 64//64 65//65 32//32
f 65//65 64//64 10//10
f 64//64 32//32 136//136
f 2//2 66//66 68//68
f 66//66 22//22 67//67
f 68//68 67//67 6//6
f 8//8 69//69 71//71
f 69//69 16//16 70//70
f 71//71 70//70 2//2
f 11//11 72//72 73//73
f 72//72 2//2 68//68
f 73//73 68//68 6//6
f 18//18 74//74 75//75
f 108//108 75//75 35//35
f 5//5 63//63 77//77
f 63//63 31//31 76//76
f 77//77 76//76 36//36
f 77//77 36//36 78//78
f 37//37 78//78 36//36
f 8//8 71//71 79//79
f 71//71 2//2 72//72
f 79//79 72//72 11//11
f 34//34 80//80 3//3
f 80//80 34//34 26//26
f 81//81 6//6 67//67
f 82//82 67//67 22//22
f 8//8 83//83 85//85
f 83//83 9//9 84//84
f 85//85 84//84 7//7
f 7//7 86//86 88//88
f 86//86 38//38 87//87
f 88//88 87//87 52//52
f 20//20 89//89 91//91
f 89//89 40//40 90//90
f 91//91 90//90 39//39
f 13//13 41//41 35//35
f 11//11 73//73 93//93
f 73//73 6//6 92//92
f 93//93 92//92 19//19
f 6//6 81//81 92//92
f 92//92 94//94 19//19
f 3//3 80//80 96//96
f 80//80 4//4 95//95
f 96//96 95//95 14//14
f 19//19 56//56 97//97
f 56//56 3//3 96//96
f 97//97 96//96 14//14
f 9//9 83//83 98//98
f 83//83 8//8 79//79
f 98//98 79//79 11//11
f 9//9 99//99 101//101
f 99//99 5//5 100//100
f 101//101 100//100 15//15
f 102//102 43//43 86//86
f 43//43 102//102 15//15
f 38//38 86//86 43//43
f 7//7 84//84 102//102
f 84//84 9//9 101//101
f 102//102 101//101 15//15
f 16//16 103//103 105//105
f 103//103 17//17 104//104
f 105//105 104//104 12//12
f 18//18 106//106 107//107
f 106//106 47//47 46//46
f 18//18 75//75 106//106
f 106//106 108//108 47//47
f 48//48 109//109 21//21
f 109//109 48//48 41//41
f 5//5 99//99 111//111
f 99//99 9//9 110//110
f 111//111 110//110 14//14
f 13//13 74//74 113//113
f 74//74 18//18 112//112
f 113//113 112//112 23//23
f 20//20 114//114 115//115
f 114//114 18//18 107//107
f 115//115 107//107 46//46
f 115//115 40//40 89//89
f 40//40 115//115 46//46
f 17//17 116//116 117//117
f 116//116 8//8 85//85
f 117//117 85//85 7//7
f 19//19 97//97 93//93
f 97//97 14//14 118//118
f 93//93 118//118 11//11
f 19//19 94//94 57//57
f 94//94 136//136 54//54
f 28//28 57//57 24//24
f 11//11 118//118 98//98
f 118//118 14//14 110//110
f 98//98 110//110 9//9
f 15//15 100//100 119//119
f 100//100 5//5 78//78
f 119//119 78//78 37//37
f 119//119 37//37 45//45
f 120//120 42//42 121//121
f 122//122 121//121 50//50
f 16//16 69//69 103//103
f 69//69 8//8 116//116
f 103//103 116//116 17//17
f 104//104 17//17 137//137
f 22//22 123//123 125//125
f 123//123 1//1 124//124
f 125//125 124//124 20//20
f 4//4 62//62 95//95
f 62//62 5//5 111//111
f 95//95 111//111 14//14
f 10//10 126//126 127//127
f 126//126 22//22 125//125
f 127//127 125//125 20//20
f 10//10 127//127 128//128
f 127//127 20//20 91//91
f 128//128 91//91 39//39
f 128//128 39//39 30//30
f 17//17 117//117 131//131
f 117//117 7//7 88//88
f 131//131 88//88 52//52
f 21//21 129//129 130//130
f 129//129 12//12 122//122
f 130//130 122//122 50//50
f 130//130 50//50 51//51
f 53//53 131//131 52//52
f 42//42 137//137 53//53
f 131//131 53//53 137//137
f 82//82 22//22 126//126
f 64//64 126//126 10//10
f 23//23 59//59 132//132
f 59//59 16//16 105//105
f 132//132 105//105 12//12
f 21//21 133//133 129//129
f 133//133 23//23 132//132
f 129//129 132//132 12//12
f 1//1 60//60 134//134
f 60//60 23//23 112//112
f 134//134 112//112 18//18
f 1//1 134//134 124//124
f 134//134 18//18 114//114
f 124//124 114//114 20//20
f 2//2 70//70 135//135
f 70//70 16//16 61//61
f 135//135 61//61 1//1
f 22//22 66//66 123//123
f 66//66 2//2 135//135
f 123//123 135//135 1//1
f 13//13 113//113 109//109
f 113//113 23//23 133//133
f 109//109 133//133 21//21
f 62//62 4//4 31//31
f 63//63 62//62 31//31
f 81//81 136//136 94//94
f 74//74 13//13 35//35
f 75//75 74//74 35//35
f 136//136 81//81 82//82
f 12//12 120//120 122//122
f 121//121 122//122 120//120
f 12//12 104//104 120//120
f 137//137 120//120 104//104
f 136//136 82//82 64//64
f 54//54 136//136 32//32
f 54//54 32//32 25//25
f 94//94 54//54 24//24
f 57//57 94//94 24//24
# 235 faces, 0 coords texture

# End of File
