####
#
# OBJ File Generated by Meshlab
#
####
# Object 2825_C173_S_6.obj
#
# Vertices: 208
# Faces: 360
#
####
vn 5.731709 -2.573123 -0.065835
v -90.468017 84.646027 13.748833
vn 5.745856 -2.541089 -0.078703
v -89.383068 87.146473 11.826411
vn 5.743088 -2.547686 -0.067799
v -90.109332 85.507515 11.855746
vn 5.754640 -2.520940 -0.082523
v -87.972502 90.276635 14.301181
vn 5.739768 -2.555137 -0.040867
v -89.753377 86.418336 7.725120
vn 5.747245 -2.538303 -0.050578
v -90.393039 84.958158 8.643916
vn 5.742454 -2.548999 -0.072074
v -89.612827 86.568371 13.831041
vn 5.750110 -2.529714 -0.087658
v -88.933502 88.028345 17.526543
vn 5.736134 -2.563494 -0.042664
v -88.931219 88.220074 8.168284
vn 5.738236 -2.558510 -0.056756
v -90.469817 84.820114 4.976630
vn 5.748200 -2.536079 -0.053210
v -88.978707 88.216171 3.500555
vn 5.744417 -2.545176 -0.045452
v -87.346361 91.787872 8.788305
vn 5.726371 -2.584954 -0.068820
v -87.388511 91.755126 5.927749
vn 5.744686 -2.544007 -0.046684
v -89.862793 86.247160 3.628362
vn 5.750785 -2.530433 -0.057117
v -88.847394 88.473358 5.519957
vn 5.741265 -2.548310 -0.088334
v -89.701002 86.219768 17.454130
vn 5.747168 -2.537909 -0.078201
v -88.761968 88.502314 12.949873
vn 5.747060 -2.539016 -0.047251
v -87.981117 90.306799 12.051551
vn 5.749673 -2.532710 -0.067292
v -89.273975 87.288237 15.616721
vn 5.741630 -2.550981 -0.045009
v -88.168059 89.925803 8.550546
vn 5.752223 -2.525639 -0.103330
v -89.318828 87.054164 19.291515
vn 5.726369 -2.584525 -0.079387
v -88.102751 89.840757 17.850864
vn 5.746932 -2.539235 -0.047734
v -89.867731 86.165552 5.743230
vn 5.740485 -2.552933 -0.045065
v -88.698854 88.749277 10.557708
vn 5.741139 -2.552216 -0.058057
v -89.666180 86.549225 9.900679
vn 5.742003 -2.548131 -0.111563
v -88.567512 88.771326 19.334120
vn 5.746239 -2.540710 -0.061926
v -88.848672 88.259581 15.072450
vn 5.736606 -2.561880 -0.078117
v -90.943678 83.712536 8.320313
vn 5.737808 -2.559264 -0.076342
v -87.719501 90.996411 6.846922
vn 5.747760 -2.537670 -0.020918
v -87.309395 91.827729 10.994089
vn 5.752107 -2.525747 -0.101703
v -87.156129 92.128707 14.791633
vn 5.749296 -2.532705 -0.073335
v -88.124731 90.159277 4.916531
vn 2.837586 -1.294685 -0.045777
v -86.887900 92.761500 13.253900
vn 3.175722 -1.418243 -0.007359
v -86.833300 92.914800 12.497700
vn 2.191057 -0.952930 -0.023020
v -88.905200 88.426300 1.775410
vn 2.826025 -1.259688 -0.021992
v -86.794900 93.050000 7.312690
vn 2.455304 -1.112970 -0.022495
v -90.059900 85.395800 19.093300
vn 2.727722 -1.268616 -0.032256
v -90.395850 84.737800 17.259600
vn 2.405441 -1.059156 -0.014200
v -90.135300 85.637300 2.954990
vn 2.749103 -1.227202 -0.005487
v -89.750175 86.501750 2.456068
vn 2.233256 -0.987704 -0.011077
v -86.705200 93.246300 7.986980
vn 3.272203 -1.448246 -0.019636
v -86.846600 92.915300 8.862800
vn 2.515437 -1.145676 -0.016627
v -90.693300 84.153300 13.617700
vn 3.423300 -1.525915 -0.034076
v -90.652000 84.247300 13.153000
vn 3.327061 -1.460398 -0.054122
v -91.030900 83.465400 9.692160
vn 2.643766 -1.165328 -0.029102
v -90.933250 83.653800 11.524050
vn 3.084154 -1.357507 -0.024242
v -86.816900 92.964900 10.084300
vn 2.119613 -0.939615 -0.002314
v -86.626800 93.372000 11.675600
vn 3.347035 -1.468942 -0.036369
v -90.414500 84.967800 4.080370
vn 2.034111 -0.918004 -0.023652
v -90.658700 84.416500 4.397800
vn 2.709652 -1.233498 -0.022266
v -90.581800 84.354500 15.502000
vn 2.433924 -1.085618 -0.047309
v -89.585200 86.411400 20.316000
vn 2.965882 -1.328624 -0.028723
v -89.947000 85.645500 19.345900
vn 3.209326 -1.444971 -0.022792
v -90.733900 84.224500 5.553260
vn 2.444826 -1.068797 -0.057520
v -88.820600 88.100300 20.969600
vn 2.418915 -1.062642 -0.042232
v -88.137800 89.689000 20.646000
vn 3.432517 -1.559009 -0.054084
v -87.264600 92.059500 5.008520
vn 2.102185 -0.953043 -0.022230
v -87.019200 92.582100 5.397780
vn 2.434653 -1.094556 -0.013997
v -90.992700 83.634000 6.594260
vn 3.214165 -1.443950 -0.019953
v -91.007400 83.595500 7.092980
vn 2.781757 -1.213957 -0.024878
v -88.213500 90.004800 2.658450
vn 2.294661 -1.033304 -0.029163
v -87.448000 91.693000 3.882140
vn 2.096741 -0.932161 -0.019877
v -91.087200 83.347800 9.499920
vn 2.732290 -1.220811 -0.042604
v -87.328700 91.548000 18.217550
vn 2.574038 -1.116040 -0.060068
v -87.071600 92.231100 16.531500
vn 2.629516 -1.180394 -0.032740
v -87.775550 90.526650 19.901500
vn 3.287252 -1.456208 -0.038366
v -91.071700 83.383600 9.347860
vn 2.253274 -1.021339 -0.028900
v -91.201400 83.151300 8.060550
vn 2.985036 -1.316339 -0.042649
v -87.029000 92.416000 14.822300
vn 5.761101 -2.506549 -0.071077
v -87.566587 91.230249 13.578247
vn 5.738266 -2.557770 -0.079534
v -87.183637 92.095773 13.902907
vn 5.759249 -2.509284 -0.110715
v -87.491648 91.367749 14.585139
vn 5.755900 -2.518924 -0.055158
v -88.390181 89.337792 13.596755
vn 5.750906 -2.529361 -0.083654
v -88.366724 89.416455 12.498823
vn 5.760744 -2.507785 -0.056171
v -87.981591 90.283129 13.111559
vn 5.741911 -2.550533 -0.053119
v -90.003386 85.837385 8.467136
vn 5.755093 -2.521312 -0.015898
v -89.997224 85.863801 7.316741
vn 5.742213 -2.548567 -0.098883
v -88.138690 89.866434 15.239529
vn 5.748613 -2.532940 -0.121678
v -87.751572 90.728157 15.343239
vn 5.736249 -2.561802 -0.104974
v -88.001208 90.136824 16.117552
vn 5.734206 -2.566927 -0.078220
v -88.336357 89.532859 11.409668
vn 5.723689 -2.591694 -0.025509
v -88.212334 89.822818 10.423246
vn 5.729272 -2.579104 -0.041356
v -87.970793 90.343055 11.164613
vn 5.745407 -2.543147 -0.007687
v -87.628824 91.104082 11.526686
vn 5.737616 -2.560560 -0.037827
v -87.728920 90.893571 10.457635
vn 5.732733 -2.569532 -0.108041
v -87.841644 90.453985 17.067373
vn 5.725698 -2.585786 -0.090539
v -88.268111 89.511225 16.879421
vn 5.752730 -2.525793 -0.067886
v -88.440578 89.200368 14.662941
vn 5.748547 -2.535608 -0.054965
v -88.805447 88.380629 14.016819
vn 5.747418 -2.537910 -0.067087
v -89.542670 86.700153 14.876754
vn 5.750256 -2.530214 -0.100293
v -89.740769 86.228130 15.658740
vn 5.745765 -2.541351 -0.076856
v -89.910763 85.867663 14.713609
vn 5.756276 -2.517938 -0.054565
v -88.961902 88.275686 2.613183
vn 2.795153 -1.235824 -0.016265
v -89.312750 87.487825 2.057200
vn 5.747643 -2.537019 -0.080068
v -87.957050 90.431568 7.692375
vn 5.742519 -2.548394 -0.087001
v -88.303061 89.652777 7.636554
vn 5.746560 -2.539269 -0.086722
v -88.217318 89.878041 6.711187
vn 5.740425 -2.553417 -0.074609
v -88.470552 89.095377 15.807719
vn 5.740144 -2.553999 -0.078643
v -89.485424 86.889318 12.704154
vn 5.742382 -2.549107 -0.074262
v -89.894565 85.963763 12.801836
vn 5.743790 -2.546145 -0.065792
v -89.718058 86.390164 11.852140
vn 5.741490 -2.550954 -0.079287
v -90.096689 85.482354 13.738485
vn 5.745682 -2.541313 -0.083217
v -89.796383 86.359670 4.816205
vn 5.746527 -2.540007 -0.059211
v -90.177801 85.471450 5.416288
vn 5.729522 -2.578890 0.002715
v -88.420421 89.366289 9.471446
vn 5.736667 -2.562688 -0.021640
v -88.000534 90.293424 9.512062
vn 5.748448 -2.533123 -0.123971
v -87.431161 91.363060 17.234963
vn 5.727813 -2.581366 -0.075846
v -87.695589 90.738555 18.033473
vn 5.721048 -2.596977 -0.058970
v -89.329779 87.349784 7.883352
vn 5.728530 -2.580810 -0.026872
v -89.404904 87.203902 6.800856
vn 5.736784 -2.561730 -0.055310
v -89.007164 88.072665 7.068420
vn 5.733792 -2.568824 -0.056491
v -87.247318 92.045243 7.060520
vn 3.060831 -1.372770 -0.025124
v -86.964550 92.694275 6.257073
vn 5.729595 -2.577564 -0.072728
v -90.324719 84.938815 14.635552
vn 5.734355 -2.567923 -0.035654
v -90.570119 84.582316 6.014110
vn 5.717422 -2.604334 -0.058320
v -89.864837 85.841700 18.316260
vn 2.850589 -1.329113 -0.044333
v -90.213800 85.095100 18.249750
vn 5.692510 -2.658579 -0.074779
v -90.066990 85.438019 17.380805
vn 5.722064 -2.592297 -0.098573
v -89.934929 85.741492 16.509916
vn 5.704901 -2.632271 -0.048418
v -90.282556 85.000303 16.406030
vn 5.762310 -2.503323 -0.059095
v -89.125566 87.609878 16.644768
vn 5.784081 -2.452261 -0.096071
v -89.325665 87.105862 17.481321
vn 5.766531 -2.492332 -0.112435
v -89.531026 86.659433 16.582738
vn 5.770502 -2.483076 -0.111384
v -89.128739 87.536184 18.393327
vn 5.762847 -2.501989 -0.062884
v -89.500684 86.659128 18.362499
vn 5.731213 -2.574593 -0.044286
v -89.361617 87.363314 3.819751
vn 5.736811 -2.562574 -0.022157
v -89.413679 87.252226 3.003579
vn 5.752612 -2.525357 -0.087191
v -89.094718 87.823065 11.269049
vn 5.751648 -2.528436 -0.060437
v -89.490345 86.923351 10.974853
vn 5.755060 -2.521056 -0.029758
v -89.175937 87.663830 10.180782
vn 5.737556 -2.560262 -0.035202
v -89.262804 87.465124 9.030616
vn 5.729010 -2.578965 -0.074479
v -89.682820 86.548843 8.651067
vn 5.757945 -2.513489 -0.080747
v -88.377966 89.546082 5.753953
vn 5.735895 -2.562929 -0.090779
v -87.914150 90.598074 5.827133
vn 5.765111 -2.497516 -0.063335
v -88.586624 89.084940 4.917845
vn 5.766153 -2.495204 -0.061684
v -88.669950 88.916083 4.058713
vn 5.743752 -2.546146 -0.069493
v -90.361182 84.915031 12.752411
vn 2.862596 -1.266312 -0.032863
v -90.785300 83.965500 12.392950
vn 5.745774 -2.541565 -0.070222
v -90.507547 84.610903 11.719957
vn 5.748281 -2.536015 -0.063159
v -90.565439 84.508695 10.752266
vn 2.857841 -1.249683 -0.024946
v -90.989400 83.544650 10.553680
vn 5.742191 -2.549727 -0.063747
v -87.545203 91.363014 7.861233
vn 5.752058 -2.527886 -0.042667
v -87.042333 92.443719 10.495689
vn 2.875090 -1.266174 -0.016200
v -86.721850 93.168450 10.879950
vn 5.746038 -2.539526 -0.110769
v -88.729404 88.625049 11.826381
vn 5.741395 -2.550531 -0.096119
v -89.102568 87.758511 12.338545
vn 5.750658 -2.530844 -0.054403
v -87.782149 90.801984 8.673447
vn 5.747151 -2.539007 -0.044990
v -87.588178 91.228785 9.538546
vn 2.831728 -1.289715 -0.017518
v -90.502900 84.517850 16.307500
vn 2.952950 -1.343774 -0.031431
v -90.604900 84.319850 14.783600
vn 5.717110 -2.604868 -0.087893
v -88.516558 88.939346 17.662052
vn 5.730256 -2.576334 -0.055612
v -88.699803 88.567729 16.736888
vn 5.742147 -2.550021 -0.059579
v -89.210174 87.459819 14.465424
vn 5.739256 -2.556255 -0.068719
v -89.168025 87.578323 13.396407
vn 5.748408 -2.533050 -0.131819
v -89.078771 87.556557 20.130085
vn 2.789155 -1.237417 -0.062439
v -89.149000 87.367875 20.732250
vn 5.736731 -2.561940 -0.062588
v -89.698173 86.205071 19.155477
vn 5.726991 -2.583368 -0.071971
v -88.343866 89.283964 18.658973
vn 5.736259 -2.561015 -0.109369
v -88.738593 88.424977 18.471327
vn 5.738300 -2.558639 -0.036393
v -88.545010 89.082836 8.396141
vn 5.747989 -2.536406 -0.072870
v -88.620144 88.950722 7.284884
vn 5.742739 -2.549002 -0.039079
v -88.886722 88.153118 15.967859
vn 2.880670 -1.253153 -0.030851
v -90.274900 85.302550 3.517680
vn 5.743882 -2.546724 0.006037
v -88.838265 88.431126 9.319893
vn 5.743888 -2.544891 -0.092538
v -88.257843 89.450056 19.782614
vn 2.879631 -1.254366 -0.062350
v -88.479200 88.894650 20.807800
vn 5.755617 -2.516442 -0.137044
v -88.657852 88.522103 20.096759
vn 5.742397 -2.549156 -0.057021
v -89.519475 86.951540 5.664939
vn 5.747369 -2.538846 -0.009062
v -89.772561 86.379259 6.576185
vn 5.734271 -2.568199 -0.026809
v -90.618728 84.461633 6.929444
vn 5.763460 -2.501341 -0.061112
v -88.315043 89.738382 4.109710
vn 2.842768 -1.273599 -0.022274
v -87.810850 90.894650 3.285645
vn 5.735611 -2.564482 -0.062729
v -87.886949 90.709089 4.151526
vn 2.900539 -1.254704 -0.029303
v -88.579250 89.169800 2.201580
vn 5.752280 -2.526865 -0.066199
v -90.560856 84.542150 9.767193
vn 5.741741 -2.550735 -0.066645
v -90.251099 85.209132 11.080361
vn 5.738228 -2.558451 -0.069467
v -89.380636 87.297008 4.792435
vn 5.741980 -2.550108 -0.052600
v -88.997374 88.153068 4.464674
vn 5.741004 -2.552588 -0.059107
v -89.892270 86.016269 10.959409
vn 5.755599 -2.519068 -0.075249
v -90.751347 84.128046 8.945899
vn 5.756262 -2.515018 -0.136122
v -88.916733 87.973273 19.312709
vn 5.749787 -2.530198 -0.123390
v -87.553396 91.131738 16.309808
vn 2.933388 -1.271666 -0.068523
v -87.193000 91.911200 17.257850
vn 5.730608 -2.575813 -0.053168
v -87.933888 90.199791 18.902257
vn 2.774470 -1.256959 -0.023604
v -87.511150 91.129600 18.993450
vn 5.739278 -2.555988 -0.077063
v -90.121653 85.547363 9.329127
vn 5.740019 -2.554611 -0.067247
v -90.145379 85.466754 10.249128
vn 5.745841 -2.541779 -0.054365
v -87.357670 91.735675 10.137316
vn 5.747105 -2.539082 -0.046699
v -87.154220 92.209506 9.588771
vn 5.759080 -2.511848 -0.020036
v -87.601440 91.173652 12.534844
vn 5.748472 -2.536324 0.019597
v -87.253503 91.962372 11.974808
vn 2.862365 -1.294371 -0.032509
v -86.958450 92.588750 14.038100
vn 5.746398 -2.541014 0.001547
v -86.959480 92.621745 11.588718
vn 5.762319 -2.501197 -0.134553
v -87.339332 91.665626 15.551479
vn 2.888318 -1.254617 -0.066168
v -87.053850 92.313950 15.738450
vn 5.725208 -2.587168 -0.083393
v -87.662540 91.181346 4.974357
vn 5.742682 -2.549120 -0.038956
v -90.677487 84.322438 7.926578
vn 5.756613 -2.516927 -0.065190
v -90.897681 83.771474 9.622634
vn 5.741214 -2.551051 -0.046973
v -87.205430 92.077986 12.953086
vn 5.744586 -2.545096 -0.016541
v -90.313501 85.140926 7.562197
vn 5.745665 -2.542512 -0.024208
v -90.188217 85.430949 6.483236
vn 5.728977 -2.578867 -0.070023
v -90.157608 85.285870 15.532518
vn 5.739726 -2.555377 -0.053969
v -89.116660 87.847531 6.189267
vn 5.739346 -2.556574 -0.043114
v -87.100192 92.353081 7.997510
vn 5.767326 -2.492607 -0.057239
v -88.542525 89.230814 3.223953
vn 5.750398 -2.531014 -0.055978
v -88.150859 90.131806 3.493933
vn 5.756868 -2.516258 -0.071636
v -90.128561 85.619505 4.307029
vn 5.753904 -2.523191 -0.066690
v -88.632953 88.945737 6.317368
# 208 vertices, 0 vertices normals

f 70//70 71//71 72//72
f 73//73 74//74 75//75
f 76//76 200//200 77//77
f 78//78 79//79 80//80
f 81//81 82//82 83//83
f 84//84 83//83 85//85
f 86//86 87//87 80//80
f 88//88 89//89 73//73
f 199//199 34//34 33//33
f 90//90 91//91 92//92
f 95//95 96//96 97//97
f 78//78 98//98 88//88
f 99//99 100//100 101//101
f 102//102 137//137 100//100
f 79//79 72//72 194//194
f 82//82 105//105 106//106
f 86//86 107//107 108//108
f 109//109 110//110 111//111
f 102//102 92//92 114//114
f 116//116 117//117 118//118
f 202//202 119//119 120//120
f 121//121 122//122 123//123
f 122//122 124//124 125//125
f 126//126 14//14 127//127
f 11//11 127//127 93//93
f 128//128 129//129 130//130
f 131//131 132//132 109//109
f 133//133 134//134 97//97
f 204//204 36//36 41//41
f 204//204 41//41 42//42
f 1//1 43//43 44//44
f 137//137 138//138 139//139
f 112//112 204//204 142//142
f 143//143 144//144 193//193
f 145//145 81//81 74//74
f 145//145 146//146 128//128
f 106//106 147//147 148//148
f 10//10 50//50 49//49
f 120//120 38//38 149//149
f 119//119 91//91 123//123
f 151//151 152//152 87//87
f 153//153 154//154 89//89
f 146//146 154//154 99//99
f 21//21 52//52 157//157
f 158//158 159//159 151//151
f 160//160 161//161 96//96
f 208//208 161//161 111//111
f 153//153 19//19 90//90
f 19//19 27//27 162//162
f 131//131 164//164 130//130
f 105//105 164//164 160//160
f 10//10 54//54 50//50
f 165//165 158//158 184//184
f 13//13 57//57 58//58
f 168//168 110//110 169//169
f 10//10 115//115 54//54
f 171//171 206//206 173//173
f 125//125 157//157 116//116
f 93//93 174//174 205//205
f 198//198 45//45 63//63
f 176//176 139//139 140//140
f 13//13 58//58 113//113
f 147//147 95//95 142//142
f 177//177 126//126 178//178
f 129//129 101//101 179//179
f 181//181 167//167 155//155
f 107//107 65//65 183//183
f 184//184 108//108 185//185
f 181//181 124//124 159//159
f 162//162 152//152 121//121
f 176//176 187//187 179//179
f 169//169 77//77 201//201
f 170//170 200//200 197//197
f 188//188 189//189 143//143
f 198//198 63//63 67//67
f 28//28 68//68 60//60
f 70//70 75//75 190//190
f 191//191 190//190 84//84
f 199//199 191//191 34//34
f 85//85 148//148 188//188
f 194//194 195//195 65//65
f 13//13 196//196 57//57
f 196//196 13//13 134//134
f 4//4 70//70 72//72
f 72//72 71//71 31//31
f 4//4 73//73 75//75
f 73//73 17//17 74//74
f 75//75 74//74 18//18
f 76//76 6//6 200//200
f 98//98 78//78 80//80
f 78//78 4//4 79//79
f 80//80 79//79 182//182
f 18//18 81//81 83//83
f 81//81 24//24 82//82
f 83//83 82//82 85//85
f 30//30 84//84 85//85
f 84//84 18//18 83//83
f 182//182 86//86 80//80
f 86//86 22//22 87//87
f 80//80 87//87 98//98
f 4//4 88//88 73//73
f 88//88 27//27 89//89
f 73//73 89//89 17//17
f 7//7 90//90 92//92
f 90//90 19//19 91//91
f 92//92 91//91 202//202
f 93//93 94//94 35//35
f 29//29 95//95 97//97
f 95//95 20//20 96//96
f 4//4 78//78 88//88
f 88//88 98//98 27//27
f 2//2 99//99 101//101
f 99//99 7//7 100//100
f 101//101 100//100 3//3
f 7//7 102//102 100//100
f 102//102 1//1 137//137
f 100//100 137//137 3//3
f 14//14 103//103 207//207
f 103//103 23//23 104//104
f 49//49 207//207 10//10
f 182//182 79//79 194//194
f 79//79 4//4 72//72
f 194//194 72//72 31//31
f 85//85 82//82 106//106
f 82//82 24//24 105//105
f 106//106 105//105 20//20
f 22//22 86//86 108//108
f 86//86 182//182 107//107
f 108//108 107//107 64//64
f 9//9 109//109 111//111
f 109//109 5//5 110//110
f 113//113 36//36 112//112
f 1//1 102//102 114//114
f 102//102 7//7 92//92
f 114//114 92//92 202//202
f 10//10 104//104 115//115
f 115//115 104//104 201//201
f 16//16 116//116 118//118
f 116//116 37//37 117//117
f 118//118 117//117 38//38
f 119//119 16//16 118//118
f 120//120 118//118 38//38
f 119//119 118//118 120//120
f 19//19 121//121 123//123
f 121//121 8//8 122//122
f 123//123 122//122 16//16
f 16//16 122//122 125//125
f 122//122 8//8 124//124
f 125//125 124//124 21//21
f 14//14 39//39 40//40
f 11//11 126//126 127//127
f 127//127 94//94 93//93
f 94//94 127//127 40//40
f 24//24 128//128 130//130
f 128//128 2//2 129//129
f 130//130 129//129 25//25
f 9//9 131//131 109//109
f 131//131 25//25 132//132
f 109//109 132//132 5//5
f 133//133 32//32 134//134
f 97//97 134//134 29//29
f 133//133 135//135 32//32
f 44//44 137//137 1//1
f 3//3 137//137 139//139
f 137//137 44//44 138//138
f 139//139 138//138 46//46
f 141//141 140//140 46//46
f 141//141 45//45 198//198
f 36//36 204//204 112//112
f 112//112 29//29 13//13
f 113//113 112//112 13//13
f 29//29 112//112 142//142
f 30//30 143//143 193//193
f 143//143 47//47 144//144
f 193//193 144//144 48//48
f 17//17 145//145 74//74
f 145//145 24//24 81//81
f 74//74 81//81 18//18
f 24//24 145//145 128//128
f 145//145 17//17 146//146
f 128//128 146//146 2//2
f 85//85 106//106 148//148
f 106//106 20//20 147//147
f 148//148 147//147 12//12
f 202//202 120//120 51//51
f 149//149 51//51 120//120
f 51//51 150//150 114//114
f 1//1 114//114 150//150
f 150//150 43//43 1//1
f 16//16 119//119 123//123
f 119//119 202//202 91//91
f 123//123 91//91 19//19
f 22//22 151//151 87//87
f 151//151 8//8 152//152
f 87//87 152//152 98//98
f 27//27 153//153 89//89
f 153//153 7//7 154//154
f 89//89 154//154 17//17
f 2//2 146//146 99//99
f 146//146 17//17 154//154
f 99//99 154//154 7//7
f 21//21 155//155 52//52
f 156//156 52//52 155//155
f 157//157 52//52 53//53
f 22//22 158//158 151//151
f 158//158 26//26 159//159
f 151//151 159//159 8//8
f 20//20 160//160 96//96
f 160//160 9//9 161//161
f 96//96 161//161 97//97
f 15//15 208//208 203//203
f 111//111 161//161 9//9
f 7//7 153//153 90//90
f 153//153 27//27 19//19
f 162//162 27//27 98//98
f 49//49 163//163 207//207
f 25//25 131//131 130//130
f 131//131 9//9 164//164
f 130//130 164//164 24//24
f 20//20 105//105 160//160
f 105//105 24//24 164//164
f 160//160 164//164 9//9
f 26//26 165//165 167//167
f 165//165 56//56 166//166
f 167//167 166//166 55//55
f 165//165 26//26 158//158
f 184//184 158//158 22//22
f 23//23 168//168 169//169
f 168//168 177//177 203//203
f 169//169 110//110 5//5
f 60//60 170//170 197//197
f 59//59 170//170 60//60
f 136//136 11//11 205//205
f 32//32 171//171 173//173
f 173//173 172//172 62//62
f 16//16 125//125 116//116
f 125//125 21//21 157//157
f 53//53 37//37 157//157
f 157//157 37//37 116//116
f 11//11 93//93 205//205
f 93//93 35//35 174//174
f 205//205 174//174 61//61
f 6//6 175//175 180//180
f 180//180 175//175 198//198
f 176//176 3//3 139//139
f 140//140 139//139 46//46
f 12//12 147//147 142//142
f 147//147 20//20 95//95
f 142//142 95//95 29//29
f 15//15 177//177 178//178
f 177//177 103//103 126//126
f 178//178 126//126 11//11
f 15//15 203//203 177//177
f 177//177 168//168 103//103
f 126//126 103//103 14//14
f 25//25 129//129 179//179
f 129//129 2//2 101//101
f 179//179 101//101 3//3
f 6//6 180//180 197//197
f 197//197 180//180 28//28
f 21//21 181//181 155//155
f 181//181 26//26 167//167
f 155//155 167//167 55//55
f 156//156 155//155 55//55
f 107//107 182//182 65//65
f 183//183 64//64 107//107
f 185//185 66//66 184//184
f 22//22 108//108 184//184
f 108//108 64//64 185//185
f 26//26 181//181 159//159
f 181//181 21//21 124//124
f 159//159 124//124 8//8
f 19//19 162//162 121//121
f 162//162 98//98 152//152
f 121//121 152//152 8//8
f 77//77 5//5 76//76
f 132//132 25//25 186//186
f 76//76 186//186 6//6
f 3//3 176//176 179//179
f 176//176 140//140 187//187
f 179//179 187//187 25//25
f 66//66 165//165 184//184
f 56//56 165//165 66//66
f 23//23 169//169 201//201
f 169//169 5//5 77//77
f 170//170 201//201 200//200
f 186//186 25//25 187//187
f 175//175 187//187 140//140
f 28//28 60//60 197//197
f 197//197 200//200 6//6
f 30//30 188//188 143//143
f 188//188 148//148 189//189
f 143//143 189//189 47//47
f 180//180 198//198 67//67
f 67//67 28//28 180//180
f 28//28 67//67 68//68
f 199//199 70//70 190//190
f 70//70 4//4 75//75
f 190//190 75//75 18//18
f 30//30 191//191 84//84
f 191//191 199//199 190//190
f 84//84 190//190 18//18
f 71//71 33//33 192//192
f 33//33 71//71 199//199
f 31//31 71//71 192//192
f 192//192 69//69 31//31
f 34//34 191//191 193//193
f 191//191 30//30 193//193
f 193//193 48//48 34//34
f 12//12 42//42 189//189
f 12//12 204//204 42//42
f 47//47 189//189 42//42
f 30//30 85//85 188//188
f 189//189 148//148 12//12
f 69//69 195//195 31//31
f 194//194 31//31 195//195
f 182//182 194//194 65//65
f 178//178 11//11 136//136
f 196//196 173//173 62//62
f 196//196 62//62 57//57
f 32//32 173//173 196//196
f 134//134 13//13 29//29
f 178//178 136//136 135//135
f 115//115 201//201 170//170
f 114//114 202//202 51//51
f 200//200 201//201 77//77
f 199//199 71//71 70//70
f 15//15 178//178 135//135
f 32//32 196//196 134//134
f 135//135 136//136 171//171
f 203//203 111//111 110//110
f 142//142 204//204 12//12
f 203//203 208//208 111//111
f 168//168 203//203 110//110
f 61//61 206//206 205//205
f 135//135 171//171 32//32
f 206//206 172//172 173//173
f 171//171 205//205 206//206
f 205//205 171//171 136//136
f 172//172 206//206 61//61
f 104//104 23//23 201//201
f 167//167 165//165 166//166
f 115//115 170//170 59//59
f 115//115 59//59 54//54
f 103//103 104//104 207//207
f 198//198 175//175 141//141
f 207//207 104//104 10//10
f 175//175 140//140 141//141
f 168//168 23//23 103//103
f 161//161 208//208 97//97
f 186//186 187//187 175//175
f 6//6 186//186 175//175
f 127//127 14//14 40//40
f 76//76 132//132 186//186
f 208//208 133//133 97//97
f 14//14 207//207 163//163
f 5//5 132//132 76//76
f 14//14 163//163 39//39
f 15//15 135//135 133//133
f 208//208 15//15 133//133
# 360 faces, 0 coords texture

# End of File
