####
#
# OBJ File Generated by Meshlab
#
####
# Object 2827_C173_S_8.obj
#
# Vertices: 69
# Faces: 110
#
####
vn 5.736432 -2.561451 -0.044079
v -88.953517 88.526638 -9.925161
vn 5.741069 -2.552489 -0.046171
v -88.778117 88.908767 -7.872602
vn 5.724964 -2.587542 -0.078782
v -90.329816 85.478447 -9.375326
vn 5.744560 -2.543747 -0.074142
v -89.463240 87.362254 -6.495051
vn 5.751796 -2.527930 -0.044882
v -88.229901 90.198459 -9.215396
vn 5.721308 -2.595724 -0.061864
v -89.734708 86.857464 -10.746327
vn 5.735178 -2.564830 -0.076618
v -90.185743 85.735865 -7.343155
vn 5.715903 -2.607825 -0.078163
v -90.573714 84.861687 -6.582816
vn 5.710961 -2.618218 -0.089317
v -90.906712 84.178369 -8.143905
vn 5.725431 -2.586737 -0.049045
v -90.397585 85.366928 -11.097938
vn 5.731167 -2.574346 -0.053242
v -89.569004 87.174266 -8.632463
vn 2.610258 -1.135787 -0.035754
v -89.603400 86.982900 -4.710690
vn 2.712282 -1.217400 -0.026075
v -88.804500 88.794300 -5.215010
vn 2.823478 -1.236374 -0.036536
v -89.826400 86.468300 -4.779380
vn 2.495148 -1.120267 -0.030908
v -90.182100 85.674000 -4.938420
vn 2.473713 -1.091439 -0.020426
v -88.460400 89.577900 -5.683580
vn 2.362758 -1.073460 -0.031387
v -90.782400 84.381200 -5.859280
vn 2.901339 -1.281176 -0.037232
v -90.305700 85.588100 -11.568800
vn 2.416294 -1.090309 -0.025839
v -90.442850 85.275150 -11.458200
vn 2.702994 -1.244146 -0.024720
v -89.321700 87.769700 -11.963200
vn 2.453789 -1.070645 -0.019650
v -88.511200 89.572350 -11.284100
vn 2.736859 -1.224547 -0.033274
v -87.951600 90.815500 -9.036700
vn 2.227369 -0.989369 -0.016607
v -87.948400 90.836800 -9.539140
vn 2.445359 -1.077537 -0.029211
v -88.078400 90.477100 -7.010950
vn 2.581032 -1.183223 -0.037279
v -91.148700 83.631300 -7.535880
vn 2.515249 -1.142276 -0.030451
v -89.818900 86.706000 -12.004600
vn 2.911587 -1.325518 -0.035891
v -90.641000 84.688400 -5.661490
vn 2.439987 -1.123089 -0.042688
v -91.204700 83.537900 -8.326220
vn 2.882570 -1.327865 -0.052191
v -91.089000 83.826900 -9.267140
vn 2.853052 -1.326477 -0.025391
v -90.672025 84.772525 -10.885225
vn 2.409959 -1.116189 -0.033902
v -91.002400 84.046000 -10.065400
vn 2.724281 -1.212405 -0.034934
v -89.182050 87.945075 -4.894125
vn 5.730024 -2.576974 -0.063322
v -89.109551 88.135882 -5.965951
vn 5.703354 -2.635594 -0.055352
v -89.382530 87.625024 -11.333100
vn 5.732429 -2.571135 -0.062564
v -88.985966 88.482139 -10.933221
vn 5.701869 -2.639010 -0.051135
v -89.340911 87.696886 -10.320580
vn 5.754973 -2.519982 -0.083417
v -89.830008 86.490262 -5.795779
vn 5.745308 -2.542408 -0.077253
v -89.945811 86.333461 -9.011007
vn 5.750516 -2.530708 -0.073053
v -89.869830 86.472381 -7.997390
vn 5.731214 -2.573634 -0.080200
v -90.244657 85.636646 -8.394195
vn 5.716366 -2.606832 -0.077457
v -90.550409 84.948261 -7.756293
vn 2.882383 -1.267642 -0.030727
v -88.197075 90.197625 -6.602802
vn 5.755077 -2.520138 -0.078596
v -89.821701 86.555088 -6.927165
vn 5.739203 -2.556384 -0.058796
v -89.495532 87.315625 -7.577748
vn 5.721364 -2.596721 -0.028460
v -89.181534 88.023235 -8.239615
vn 5.726528 -2.585002 -0.055200
v -89.069237 88.248503 -7.108641
vn 5.737352 -2.560564 -0.056279
v -88.698793 89.049144 -6.300954
vn 5.771136 -2.484215 -0.032753
v -88.584675 89.378636 -9.554581
vn 5.764530 -2.499308 -0.042963
v -88.641098 89.260381 -10.437285
vn 5.752608 -2.526009 -0.071820
v -88.378394 89.806292 -7.431282
vn 5.762192 -2.504342 -0.053141
v -88.493728 89.578053 -8.565867
vn 5.744152 -2.545263 -0.017000
v -88.872017 88.703697 -8.911076
vn 5.721977 -2.594331 -0.059307
v -89.652710 87.013553 -9.660452
vn 5.708687 -2.624434 -0.026520
v -89.262184 87.847999 -9.278473
vn 5.715175 -2.609440 -0.077401
v -90.813832 84.354394 -7.230843
vn 2.805165 -1.281638 -0.038820
v -90.943275 84.051075 -6.538695
vn 5.744817 -2.543833 -0.064519
v -90.116700 85.999549 -10.986007
vn 5.741471 -2.551294 -0.068902
v -90.036112 86.157270 -10.019671
vn 5.714354 -2.611445 -0.057047
v -90.467894 85.200600 -10.334447
vn 2.880721 -1.287846 -0.034650
v -88.008050 90.667250 -8.187445
vn 5.744640 -2.543950 -0.072596
v -88.173067 90.300591 -8.278866
vn 5.761294 -2.506870 -0.027046
v -88.339111 89.955172 -9.964667
vn 2.864118 -1.246562 -0.013284
v -88.271900 90.114500 -10.552605
vn 2.661454 -1.194322 -0.028683
v -88.960718 88.560642 -11.785877
vn 5.702122 -2.637558 -0.083958
v -90.700157 84.684061 -9.608354
vn 5.710354 -2.619513 -0.090228
v -90.634776 84.794113 -8.796107
vn 5.754929 -2.520311 -0.079018
v -89.511032 87.218805 -5.461179
vn 5.743449 -2.546886 -0.063328
v -88.621697 89.242217 -7.037758
vn 5.731345 -2.573259 -0.079447
v -90.190263 85.688643 -6.171896
# 69 vertices, 0 vertices normals

f 4//4 33//33 67//67
f 34//34 35//35 36//36
f 15//15 37//37 14//14
f 38//38 39//39 40//40
f 8//8 55//55 41//41
f 43//43 39//39 44//44
f 45//45 46//46 44//44
f 46//46 47//47 33//33
f 48//48 49//49 62//62
f 8//8 17//17 56//56
f 10//10 19//19 18//18
f 5//5 23//23 22//22
f 51//51 52//52 48//48
f 53//53 36//36 54//54
f 54//54 52//52 45//45
f 43//43 37//37 69//69
f 40//40 41//41 66//66
f 64//64 35//35 34//34
f 8//8 27//27 17//17
f 8//8 69//69 27//27
f 9//9 25//25 28//28
f 9//9 28//28 29//29
f 57//57 58//58 59//59
f 10//10 30//30 19//19
f 24//24 61//61 60//60
f 51//51 61//61 50//50
f 38//38 58//58 53//53
f 62//62 49//49 63//63
f 59//59 31//31 30//30
f 3//3 66//66 65//65
f 67//67 32//32 12//12
f 13//13 33//33 47//47
f 33//33 32//32 67//67
f 32//32 33//33 13//13
f 6//6 34//34 36//36
f 34//34 20//20 64//64
f 36//36 35//35 1//1
f 37//37 4//4 67//67
f 37//37 67//67 14//14
f 3//3 38//38 40//40
f 38//38 11//11 39//39
f 40//40 39//39 7//7
f 7//7 8//8 41//41
f 41//41 55//55 9//9
f 42//42 16//16 47//47
f 4//4 43//43 44//44
f 43//43 7//7 39//39
f 44//44 39//39 11//11
f 11//11 45//45 44//44
f 45//45 2//2 46//46
f 44//44 46//46 4//4
f 4//4 46//46 33//33
f 46//46 2//2 68//68
f 5//5 48//48 62//62
f 48//48 1//1 49//49
f 63//63 49//49 21//21
f 42//42 47//47 68//68
f 24//24 42//42 50//50
f 5//5 51//51 48//48
f 51//51 2//2 52//52
f 48//48 52//52 1//1
f 11//11 53//53 54//54
f 53//53 6//6 36//36
f 54//54 36//36 1//1
f 11//11 54//54 45//45
f 54//54 1//1 52//52
f 45//45 52//52 2//2
f 7//7 43//43 69//69
f 43//43 4//4 37//37
f 3//3 40//40 66//66
f 40//40 7//7 41//41
f 66//66 41//41 9//9
f 7//7 69//69 8//8
f 56//56 55//55 8//8
f 9//9 55//55 25//25
f 56//56 25//25 55//55
f 34//34 6//6 26//26
f 34//34 26//26 20//20
f 64//64 21//21 35//35
f 49//49 1//1 35//35
f 69//69 15//15 27//27
f 18//18 57//57 10//10
f 57//57 26//26 6//6
f 26//26 57//57 18//18
f 10//10 57//57 59//59
f 57//57 6//6 58//58
f 59//59 58//58 3//3
f 5//5 22//22 61//61
f 60//60 61//61 22//22
f 2//2 51//51 50//50
f 51//51 5//5 61//61
f 50//50 61//61 24//24
f 11//11 38//38 53//53
f 38//38 3//3 58//58
f 53//53 58//58 6//6
f 5//5 62//62 23//23
f 63//63 23//23 62//62
f 35//35 21//21 49//49
f 59//59 3//3 65//65
f 59//59 65//65 31//31
f 10//10 59//59 30//30
f 29//29 66//66 9//9
f 66//66 29//29 65//65
f 31//31 65//65 29//29
f 14//14 67//67 12//12
f 47//47 16//16 13//13
f 46//46 68//68 47//47
f 50//50 68//68 2//2
f 69//69 37//37 15//15
f 50//50 42//42 68//68
# 110 faces, 0 coords texture

# End of File
