####
#
# OBJ File Generated by Meshlab
#
####
# Object 2842_C175_S_5.obj
#
# Vertices: 63
# Faces: 100
#
####
vn -5.758744 -2.512748 -0.028278
v 90.805983 89.981001 6.552037
vn -5.758669 -2.512455 -0.039252
v 91.975236 87.362833 3.075698
vn -5.746067 -2.539756 -0.038941
v 91.118899 89.370636 2.912823
vn -5.753594 -2.524140 -0.052991
v 91.389262 88.684974 4.804269
vn -5.755532 -2.519633 -0.039078
v 92.281715 86.665474 4.969330
vn -5.756295 -2.517566 -0.068626
v 91.695442 87.957806 6.567844
vn -5.748098 -2.536752 -0.039613
v 92.787342 85.512317 3.477208
vn -5.754811 -2.520667 -0.081089
v 92.453410 86.218784 6.704990
vn -2.386834 -1.049772 -0.029193
v 92.669750 85.715050 7.131480
vn -2.859370 -1.254255 -0.052894
v 92.238400 86.671100 7.614270
vn -2.481448 -1.068882 -0.046266
v 91.844400 87.552500 8.036950
vn -2.388648 -1.040841 -0.021969
v 93.131700 84.693900 5.387350
vn -2.416935 -1.066917 0.008053
v 90.085100 91.652800 4.308490
vn -2.536053 -1.105077 -0.007797
v 90.143800 91.524100 5.337470
vn -2.628327 -1.140211 -0.025466
v 91.316900 88.796300 8.001330
vn -2.388044 -1.053998 -0.027454
v 92.534100 86.135400 1.552390
vn -2.416882 -1.085657 0.000326
v 90.893800 89.872600 1.488920
vn -2.504259 -1.148523 -0.005284
v 90.361100 91.019700 2.656580
vn -2.508712 -1.122007 -0.022384
v 93.147000 84.706800 3.616680
vn -2.535173 -1.124255 -0.022712
v 93.017000 85.007300 2.833190
vn -2.330865 -1.010514 -0.009531
v 90.548900 90.570800 7.223590
vn -2.719547 -1.185867 -0.029977
v 90.881450 89.791700 7.661795
vn -2.407547 -1.050319 -0.014642
v 91.691450 88.060000 0.975165
vn -2.798572 -1.251740 0.009674
v 90.225050 91.321825 3.362620
vn -5.751368 -2.529482 -0.043622
v 91.087203 89.356325 5.693867
vn -5.750282 -2.531215 -0.070005
v 90.940491 89.706849 4.707266
vn -5.761826 -2.505163 -0.037144
v 91.687164 88.012873 3.920903
vn -5.750033 -2.532870 -0.001771
v 92.132333 87.005966 4.028118
vn -5.746023 -2.541725 -0.027523
v 91.841672 87.661599 4.863874
vn -5.750765 -2.530813 -0.030779
v 92.396513 86.403177 3.265893
vn -5.760687 -2.508408 -0.013243
v 92.549395 86.055878 4.202203
vn -5.756380 -2.516624 -0.094097
v 92.107446 87.012093 6.656683
vn -5.765592 -2.495013 -0.102675
v 91.824920 87.627605 7.346618
vn -5.753682 -2.523880 -0.045643
v 92.918756 85.198728 4.383996
vn -5.765705 -2.496392 -0.050691
v 92.687899 85.724237 5.151220
vn -2.890249 -1.230452 -0.045218
v 91.580650 88.174400 8.019140
vn -5.764162 -2.499498 -0.061653
v 91.464811 88.470916 7.305913
vn -5.748519 -2.535870 -0.047367
v 91.538661 88.329242 5.725719
vn -5.751222 -2.529290 -0.064296
v 91.983118 87.324069 5.773380
vn -5.762788 -2.502062 -0.083155
v 91.250029 89.037679 3.846018
vn -5.777673 -2.468590 -0.051649
v 91.541391 88.381021 2.955507
vn -5.751506 -2.529194 -0.042058
v 91.265094 88.936642 6.573484
vn -5.754281 -2.522879 -0.040409
v 91.079072 89.348403 7.269742
vn -5.760378 -2.508124 -0.075559
v 92.394408 86.378994 5.894292
vn -5.708144 -2.625863 -0.017768
v 90.717551 90.245784 2.871690
vn -2.853352 -1.314500 -0.008800
v 90.627450 90.446150 2.072750
vn -5.730222 -2.576769 -0.000840
v 90.995669 89.646004 2.102313
vn -5.748372 -2.535819 -0.065183
v 92.250545 86.757277 2.333114
vn -5.764007 -2.500552 -0.009707
v 91.391706 88.744750 1.993642
vn -5.764168 -2.499756 -0.050278
v 91.823373 87.732606 2.112092
vn -2.875342 -1.266846 0.009079
v 91.221150 89.126750 1.277855
vn -5.760203 -2.508854 -0.063084
v 92.734206 85.590182 6.094272
vn -2.811301 -1.229124 -0.024425
v 92.928700 85.142750 6.223930
vn -2.871137 -1.277710 -0.034075
v 93.139250 84.701000 4.468660
vn -5.748237 -2.536142 -0.064644
v 92.637795 85.873577 2.594777
vn -2.874588 -1.267546 -0.032610
v 92.780500 85.559950 2.205905
vn -5.748580 -2.535343 -0.065420
v 92.090507 87.139502 1.592758
vn -2.860311 -1.262233 -0.033008
v 92.124450 87.071200 1.263276
vn -2.900448 -1.256868 -0.013554
v 90.351550 91.031650 6.288897
vn -5.729834 -2.576927 -0.056108
v 90.820637 90.014523 3.764559
vn -5.724583 -2.589475 0.004963
v 90.434890 90.854752 3.631253
vn -5.747629 -2.538040 -0.024098
v 90.494258 90.725326 4.565099
vn -5.758533 -2.513143 -0.038214
v 90.632636 90.392851 5.521901
# 63 vertices, 0 vertices normals

f 27//27 28//28 29//29
f 30//30 31//31 28//28
f 6//6 32//32 33//33
f 31//31 34//34 35//35
f 61//61 62//62 13//13
f 33//33 36//36 37//37
f 38//38 29//29 39//39
f 27//27 40//40 41//41
f 42//42 37//37 43//43
f 43//43 22//22 21//21
f 39//39 44//44 32//32
f 8//8 9//9 10//10
f 45//45 46//46 47//47
f 48//48 55//55 30//30
f 41//41 49//49 50//50
f 49//49 47//47 51//51
f 52//52 12//12 53//53
f 12//12 34//34 54//54
f 55//55 16//16 56//56
f 7//7 20//20 19//19
f 43//43 21//21 1//1
f 57//57 23//23 58//58
f 57//57 48//48 50//50
f 44//44 35//35 52//52
f 25//25 38//38 42//42
f 63//63 1//1 59//59
f 60//60 40//40 26//26
f 60//60 61//61 45//45
f 4//4 25//25 26//26
f 25//25 1//1 63//63
f 26//26 63//63 62//62
f 4//4 27//27 29//29
f 27//27 2//2 28//28
f 29//29 28//28 5//5
f 2//2 30//30 28//28
f 30//30 7//7 31//31
f 28//28 31//31 5//5
f 32//32 10//10 33//33
f 10//10 32//32 8//8
f 11//11 33//33 10//10
f 5//5 31//31 35//35
f 31//31 7//7 34//34
f 35//35 34//34 12//12
f 6//6 33//33 37//37
f 33//33 11//11 36//36
f 37//37 36//36 15//15
f 6//6 38//38 39//39
f 38//38 4//4 29//29
f 39//39 29//29 5//5
f 2//2 27//27 41//41
f 27//27 4//4 40//40
f 41//41 40//40 3//3
f 1//1 42//42 43//43
f 42//42 6//6 37//37
f 43//43 37//37 15//15
f 43//43 15//15 22//22
f 6//6 39//39 32//32
f 39//39 5//5 44//44
f 32//32 44//44 8//8
f 3//3 45//45 47//47
f 45//45 18//18 46//46
f 47//47 46//46 17//17
f 2//2 48//48 30//30
f 48//48 16//16 55//55
f 30//30 55//55 7//7
f 2//2 41//41 50//50
f 41//41 3//3 49//49
f 50//50 49//49 23//23
f 49//49 3//3 47//47
f 51//51 47//47 17//17
f 51//51 23//23 49//49
f 8//8 52//52 9//9
f 53//53 9//9 52//52
f 7//7 19//19 34//34
f 54//54 34//34 19//19
f 7//7 55//55 20//20
f 56//56 20//20 55//55
f 58//58 16//16 57//57
f 23//23 57//57 50//50
f 57//57 16//16 48//48
f 50//50 48//48 2//2
f 8//8 44//44 52//52
f 44//44 5//5 35//35
f 52//52 35//35 12//12
f 1//1 25//25 42//42
f 25//25 4//4 38//38
f 42//42 38//38 6//6
f 59//59 14//14 63//63
f 60//60 3//3 40//40
f 26//26 40//40 4//4
f 24//24 61//61 13//13
f 3//3 60//60 45//45
f 60//60 62//62 61//61
f 18//18 61//61 24//24
f 18//18 45//45 61//61
f 62//62 14//14 13//13
f 1//1 21//21 59//59
f 63//63 14//14 62//62
f 62//62 60//60 26//26
f 25//25 63//63 26//26
# 100 faces, 0 coords texture

# End of File
