####
#
# OBJ File Generated by Meshlab
#
####
# Object 2866_C178_S_5.obj
#
# Vertices: 77
# Faces: 124
#
####
vn -5.807405 -2.396853 -0.039101
v 92.089544 92.283242 7.140048
vn -5.815393 -2.376795 -0.013366
v 92.976364 90.171321 4.654458
vn -5.803388 -2.406582 -0.031370
v 92.181365 92.031636 5.120920
vn -5.822056 -2.362417 -0.008232
v 92.412451 91.518860 3.023873
vn -5.805826 -2.399475 -0.109680
v 93.107359 89.888596 1.039265
vn -5.834249 -2.331602 -0.041033
v 93.483140 88.854564 5.904773
vn -5.804799 -2.403637 -0.069729
v 93.760450 88.264497 1.847943
vn -5.796778 -2.422413 -0.036249
v 94.169598 87.157220 6.160246
vn -5.822751 -2.360365 -0.045746
v 93.595840 88.562752 7.683464
vn -5.812578 -2.384068 -0.034342
v 93.048097 89.946978 2.700038
vn -5.809845 -2.391510 -0.049855
v 93.825261 88.045951 4.031601
vn -5.811703 -2.384988 -0.067533
v 92.462200 91.397383 1.459873
vn -5.815987 -2.376043 -0.050868
v 92.834419 90.476045 6.855677
vn -2.431783 -0.949572 -0.025362
v 91.856900 92.947500 2.127110
vn -2.683124 -1.096330 -0.028508
v 93.738600 88.340500 0.945726
vn -2.625764 -1.056571 -0.042978
v 91.594600 93.542500 3.622740
vn -2.490776 -1.054797 -0.029071
v 94.696000 85.963200 4.383280
vn -2.953785 -1.223608 0.011692
v 91.714600 93.181900 6.439900
vn -2.427120 -0.998799 -0.019417
v 91.519100 93.640600 5.407560
vn -2.845989 -1.184474 -0.011322
v 94.300800 86.832200 7.175560
vn -2.352258 -1.020195 -0.016885
v 94.568500 86.233100 6.429920
vn -3.267270 -1.284396 0.001567
v 92.219800 92.008900 1.417760
vn -2.428815 -1.008225 -0.017776
v 94.067400 87.532900 1.289430
vn -2.652115 -1.081309 -0.010365
v 94.029300 87.498100 7.902150
vn -3.126609 -1.277302 -0.060455
v 92.168800 92.052900 7.908180
vn -2.153974 -0.892203 -0.026368
v 91.901500 92.722700 7.631430
vn -3.337599 -1.388438 -0.068143
v 93.017400 90.122000 0.707450
vn -2.217831 -0.894198 -0.011028
v 92.284400 91.842200 1.149420
vn -2.502474 -1.030603 -0.045927
v 92.494600 91.227400 8.518990
vn -2.117558 -0.866016 -0.035438
v 93.030700 90.090800 0.678579
vn -2.564856 -1.045163 -0.032194
v 93.637600 88.435900 8.474710
vn -2.953974 -1.239507 -0.021556
v 94.312650 86.938675 2.078670
vn -2.476991 -1.041678 -0.029230
v 94.513000 86.449300 2.651420
vn -2.861858 -1.159496 -0.041099
v 93.271000 89.335400 8.612930
vn -5.781635 -2.459538 -0.041151
v 92.574012 91.112868 4.900273
vn -5.810916 -2.388081 -0.044670
v 92.895840 90.347257 5.691215
vn -5.793807 -2.430602 0.001608
v 92.494026 91.286840 5.949476
vn -5.807476 -2.396908 -0.057571
v 92.267573 91.852145 4.073490
vn -5.801062 -2.412593 0.008211
v 92.659831 90.930650 3.891910
vn -5.836198 -2.326320 -0.070919
v 91.989198 92.572883 3.190789
vn -2.871332 -1.148826 -0.045706
v 91.676300 93.357975 3.114237
vn -5.813066 -2.382584 -0.094609
v 93.414470 89.124837 1.420294
vn -2.924023 -1.190425 -0.036539
v 93.396400 89.186800 0.824102
vn -5.824400 -2.355076 -0.090612
v 91.898736 92.759518 4.319554
vn -5.806679 -2.398926 -0.062416
v 94.025824 87.530391 5.121151
vn -5.791443 -2.435497 -0.077081
v 94.291701 86.927382 4.250016
vn -5.778633 -2.465981 -0.054843
v 94.402023 86.631032 5.284401
vn -5.807541 -2.397847 0.034893
v 92.109122 92.221966 6.157557
vn -5.812195 -2.385675 -0.030215
v 91.828737 92.889369 5.345856
vn -5.795464 -2.426067 -0.071185
v 93.792274 88.156836 2.852543
vn -5.814024 -2.381127 -0.006053
v 93.418949 89.038553 3.333828
vn -5.802817 -2.407406 -0.096496
v 93.418027 89.070403 2.315300
vn -5.844349 -2.306660 -0.017243
v 92.256166 91.913081 2.176591
vn -5.821502 -2.363975 -0.010701
v 93.908119 87.798080 6.969151
vn -5.823224 -2.359528 -0.029798
v 93.801625 88.067042 6.001309
vn -5.829254 -2.344728 -0.015931
v 93.530040 88.732860 6.731913
vn -5.832286 -2.336443 -0.055958
v 93.637305 88.489438 5.103463
vn -2.884212 -1.248727 -0.014972
v 94.630850 86.100850 5.422500
vn -5.788134 -2.441880 -0.114320
v 92.811346 90.581666 1.258860
vn -2.891896 -1.221387 -0.060631
v 92.691900 90.880700 0.901690
vn -5.839957 -2.317637 -0.036938
v 93.193242 89.579371 6.335693
vn -5.842604 -2.310485 -0.063612
v 93.259621 89.437046 5.340459
vn -5.800119 -2.412951 -0.119881
v 93.068630 89.945219 1.764930
vn -5.835166 -2.329188 -0.003530
v 93.375109 89.172974 4.356695
vn -2.908793 -1.185548 -0.054756
v 91.556850 93.591550 4.515150
vn -5.810829 -2.388975 -0.030655
v 92.412466 91.499073 6.941636
vn -5.808680 -2.393083 -0.103163
v 92.650716 90.882193 7.759426
vn -5.815140 -2.377144 -0.108240
v 92.339624 91.646139 7.682536
vn -5.824918 -2.354855 0.057459
v 93.032955 90.006387 3.670471
vn -5.822313 -2.361581 0.038107
v 92.740445 90.710451 3.042924
vn -5.815879 -2.375924 -0.090231
v 92.966914 90.114095 7.861261
vn -2.668577 -1.097070 -0.045288
v 92.899225 90.244600 8.699433
vn -5.793901 -2.430153 -0.056191
v 94.099702 87.442401 2.295383
vn -5.811940 -2.385896 -0.045768
v 92.671393 90.876489 2.138206
vn -5.791834 -2.434737 -0.071538
v 94.186637 87.206994 3.244785
vn -2.895270 -1.218894 -0.036265
v 94.604500 86.206250 3.517350
vn -5.830188 -2.341749 -0.050113
v 93.218260 89.508257 7.370322
# 77 vertices, 0 vertices normals

f 35//35 36//36 37//37
f 38//38 39//39 35//35
f 42//42 5//5 43//43
f 38//38 44//44 40//40
f 45//45 46//46 47//47
f 3//3 48//48 49//49
f 8//8 21//21 20//20
f 50//50 51//51 52//52
f 12//12 53//53 22//22
f 1//1 26//26 18//18
f 7//7 15//15 23//23
f 9//9 54//54 24//24
f 55//55 54//54 56//56
f 55//55 57//57 45//45
f 47//47 17//17 58//58
f 1//1 25//25 26//26
f 59//59 12//12 60//60
f 61//61 36//36 62//62
f 63//63 42//42 52//52
f 64//64 57//57 62//62
f 49//49 65//65 44//44
f 66//66 67//67 68//68
f 1//1 68//68 25//25
f 69//69 51//51 64//64
f 69//69 39//39 70//70
f 12//12 22//22 28//28
f 5//5 27//27 30//30
f 9//9 24//24 31//31
f 71//71 72//72 67//67
f 53//53 74//74 4//4
f 59//59 63//63 74//74
f 66//66 48//48 37//37
f 50//50 73//73 75//75
f 61//61 56//56 77//77
f 75//75 76//76 46//46
f 13//13 77//77 71//71
f 9//9 31//31 34//34
f 3//3 35//35 37//37
f 35//35 2//2 36//36
f 37//37 36//36 13//13
f 3//3 38//38 35//35
f 38//38 4//4 39//39
f 35//35 39//39 2//2
f 40//40 41//41 14//14
f 30//30 43//43 5//5
f 7//7 42//42 15//15
f 43//43 15//15 42//42
f 4//4 38//38 40//40
f 38//38 3//3 44//44
f 40//40 44//44 16//16
f 41//41 40//40 16//16
f 8//8 45//45 47//47
f 45//45 11//11 46//46
f 47//47 46//46 17//17
f 48//48 18//18 49//49
f 18//18 48//48 1//1
f 19//19 49//49 18//18
f 7//7 50//50 52//52
f 50//50 11//11 51//51
f 52//52 51//51 10//10
f 53//53 4//4 40//40
f 53//53 40//40 14//14
f 53//53 14//14 22//22
f 20//20 54//54 8//8
f 54//54 20//20 24//24
f 6//6 55//55 56//56
f 55//55 8//8 54//54
f 56//56 54//54 9//9
f 8//8 55//55 45//45
f 55//55 6//6 57//57
f 45//45 57//57 11//11
f 8//8 47//47 21//21
f 58//58 21//21 47//47
f 28//28 60//60 12//12
f 5//5 59//59 27//27
f 60//60 27//27 59//59
f 6//6 61//61 62//62
f 61//61 13//13 36//36
f 62//62 36//36 2//2
f 10//10 63//63 52//52
f 63//63 5//5 42//42
f 52//52 42//42 7//7
f 2//2 64//64 62//62
f 64//64 11//11 57//57
f 62//62 57//57 6//6
f 3//3 49//49 44//44
f 49//49 19//19 65//65
f 44//44 65//65 16//16
f 1//1 66//66 68//68
f 66//66 13//13 67//67
f 68//68 67//67 29//29
f 68//68 29//29 25//25
f 2//2 69//69 64//64
f 69//69 10//10 51//51
f 64//64 51//51 11//11
f 10//10 69//69 70//70
f 69//69 2//2 39//39
f 70//70 39//39 4//4
f 13//13 71//71 67//67
f 67//67 72//72 29//29
f 7//7 23//23 73//73
f 32//32 73//73 23//23
f 53//53 12//12 74//74
f 70//70 74//74 10//10
f 12//12 59//59 74//74
f 59//59 5//5 63//63
f 74//74 63//63 10//10
f 13//13 66//66 37//37
f 66//66 1//1 48//48
f 37//37 48//48 3//3
f 11//11 50//50 75//75
f 50//50 7//7 73//73
f 32//32 33//33 73//73
f 73//73 33//33 75//75
f 13//13 61//61 77//77
f 61//61 6//6 56//56
f 77//77 56//56 9//9
f 11//11 75//75 46//46
f 75//75 33//33 76//76
f 46//46 76//76 17//17
f 34//34 77//77 9//9
f 77//77 34//34 71//71
f 72//72 71//71 34//34
f 4//4 74//74 70//70
# 124 faces, 0 coords texture

# End of File
