####
#
# OBJ File Generated by Meshlab
#
####
# Object 2867_C178_S_6.obj
#
# Vertices: 115
# Faces: 191
#
####
vn 5.803877 -2.406165 -0.025556
v -91.397517 91.619647 -13.075859
vn 5.837415 -2.323818 -0.053450
v -91.651293 90.959551 -9.438553
vn 5.803353 -2.406879 -0.067389
v -93.249297 86.995298 -6.213970
vn 5.828351 -2.346617 -0.026288
v -91.301130 91.744814 -4.841484
vn 5.819826 -2.367573 -0.042967
v -90.987240 92.540177 -7.104051
vn 5.825652 -2.353079 -0.030648
v -92.064277 89.814268 -4.721681
vn 5.806200 -2.400937 -0.039491
v -93.163915 87.230898 -8.335054
vn 5.800834 -2.413740 -0.041339
v -90.365937 94.076882 -8.699116
vn 5.812920 -2.383990 -0.049192
v -92.396782 89.040319 -6.961727
vn 5.808411 -2.393802 -0.053547
v -91.035981 92.504706 -9.323280
vn 5.812596 -2.383777 -0.010690
v -91.195577 92.146227 -11.165933
vn 5.799928 -2.415007 -0.032653
v -90.451914 93.878637 -10.681136
vn 5.816726 -2.374617 -0.055025
v -92.378345 89.140896 -9.575431
vn 5.832199 -2.336968 -0.046475
v -91.663908 90.859144 -6.382128
vn 5.804679 -2.404302 -0.056476
v -93.231084 87.115341 -10.573773
vn 5.832540 -2.335895 -0.058209
v -91.682140 90.853247 -8.247348
vn 5.825157 -2.353964 -0.056172
v -91.902348 90.366434 -11.393155
vn 5.817447 -2.373006 -0.062648
v -92.582334 88.709267 -11.814594
vn 3.244095 -1.331885 -0.063210
v -93.091300 87.317800 -4.906160
vn 2.921254 -1.207182 -0.057810
v -93.296800 86.834400 -5.259230
vn 3.320324 -1.359304 -0.014619
v -93.768500 85.741800 -7.179790
vn 2.143485 -0.885260 -0.022549
v -93.675900 85.955100 -5.875560
vn 3.142730 -1.272934 -0.013813
v -90.472200 93.806000 -6.367040
vn 2.409154 -0.979242 0.001089
v -90.338500 94.138800 -6.686490
vn 2.334109 -0.955214 -0.010253
v -93.836500 85.578400 -7.426320
vn 3.208582 -1.319871 -0.020443
v -93.841100 85.577100 -8.389160
vn 2.629676 -1.050773 -0.008500
v -91.859600 90.317000 -3.685430
vn 2.467987 -1.011261 -0.006814
v -92.329900 89.159100 -3.723350
vn 2.770188 -1.135186 -0.016542
v -90.838600 92.868300 -4.876400
vn 3.170924 -1.252970 -0.015103
v -91.510500 91.204200 -3.958910
vn 2.146397 -0.865069 -0.033419
v -92.895300 87.760800 -4.217900
vn 3.256967 -1.323081 -0.017598
v -92.599200 88.509300 -4.111970
vn 2.154828 -0.869998 -0.004557
v -91.155600 92.100700 -3.969910
vn 2.351639 -0.986442 0.001768
v -90.675700 93.381100 -12.450400
vn 3.397068 -1.431860 -0.022974
v -90.493800 93.793100 -11.549300
vn 2.106248 -0.847912 -0.021512
v -90.198600 94.517400 -11.056400
vn 3.176266 -1.283110 -0.017347
v -90.156900 94.601400 -10.380700
vn 2.254643 -0.951316 -0.008234
v -93.938700 85.360100 -9.081160
vn 3.395955 -1.398391 0.022317
v -90.829700 93.002400 -12.682300
vn 2.210049 -0.916976 -0.013121
v -91.088200 92.376300 -13.855300
vn 2.636317 -1.059420 -0.016958
v -92.578150 88.764950 -13.907700
vn 2.377969 -0.984431 -0.022209
v -91.838300 90.611700 -14.448000
vn 3.313835 -1.366287 -0.028319
v -93.877200 85.506800 -9.499500
vn 2.498109 -1.022233 -0.039647
v -93.920500 85.434200 -10.546900
vn 2.315832 -0.972377 -0.030557
v -93.763800 85.875900 -11.781100
vn 2.891352 -1.198482 -0.018998
v -93.228300 87.152450 -12.739400
vn 2.187461 -0.886333 -0.013834
v -89.978500 95.043000 -9.318850
vn 2.973552 -1.227877 0.000254
v -90.268100 94.306375 -7.269643
vn 2.880055 -1.207845 -0.026443
v -90.110000 94.675900 -8.282750
vn 5.800611 -2.413067 -0.084118
v -92.958556 87.674162 -5.622080
vn 5.812863 -2.385001 -0.028129
v -93.478182 86.447235 -6.836017
vn 5.821169 -2.364782 -0.010792
v -90.581022 93.541755 -7.034422
vn 5.821830 -2.362805 -0.038325
v -90.793088 93.011583 -6.153707
vn 5.821439 -2.363906 -0.030555
v -91.115182 92.214196 -5.922066
vn 5.816728 -2.375311 -0.041713
v -93.495837 86.425998 -8.830911
vn 5.814587 -2.380823 -0.025958
v -93.514406 86.369268 -7.781781
vn 5.809709 -2.392461 -0.036668
v -93.733280 85.843211 -8.648991
vn 5.808952 -2.393992 -0.051254
v -93.194522 87.180217 -9.452149
vn 2.910091 -1.183272 -0.029046
v -90.655400 93.337150 -5.621720
vn 5.842786 -2.310581 -0.036613
v -91.681275 90.780631 -4.737555
vn 5.838012 -2.322311 -0.053792
v -91.314339 91.811781 -9.631083
vn 5.834557 -2.330396 -0.072695
v -91.345042 91.713124 -8.757069
vn 5.777197 -2.470167 -0.024996
v -90.740769 93.210943 -11.195794
vn 5.796959 -2.423036 0.016304
v -90.949577 92.727469 -11.958570
vn 5.803246 -2.408094 -0.032054
v -93.177807 87.184644 -7.258367
vn 5.792531 -2.433618 -0.046997
v -92.851672 87.953038 -6.619887
vn 5.800001 -2.415622 -0.049130
v -92.572720 88.595606 -5.835994
vn 5.822633 -2.360637 0.033734
v -91.319614 91.827102 -12.079781
vn 5.810238 -2.391252 0.022139
v -91.098104 92.348590 -12.812619
vn 5.776984 -2.470748 -0.014900
v -90.728227 93.230486 -9.991465
vn 5.804973 -2.402627 -0.035798
v -91.088590 92.392043 -10.256987
vn 5.786130 -2.448437 -0.048994
v -90.696846 93.300099 -9.003185
vn 2.906515 -1.192376 -0.004081
v -90.958950 92.689350 -13.268800
vn 5.828302 -2.346263 -0.043346
v -92.259173 89.556756 -13.164811
vn 2.916371 -1.176264 -0.011195
v -92.203050 89.701500 -14.180050
vn 5.815520 -2.377620 -0.069138
v -93.572181 86.263678 -9.906099
vn 5.788392 -2.442935 -0.070586
v -91.693539 90.928199 -13.465161
vn 2.897447 -1.220402 -0.033733
v -91.389100 91.667800 -14.091950
vn 5.827030 -2.349471 -0.057885
v -92.133477 89.772741 -10.559815
vn 5.838341 -2.321665 -0.044919
v -91.774841 90.670581 -10.488643
vn 5.835504 -2.328718 -0.048355
v -91.991222 90.114703 -9.752473
vn 5.833943 -2.332411 -0.057577
v -91.976175 90.084152 -6.639081
vn 5.833135 -2.334637 -0.049229
v -92.029463 89.972981 -7.681849
vn 5.828105 -2.347115 -0.049623
v -91.676462 90.845628 -7.224092
vn 5.838550 -2.320874 -0.054574
v -91.846132 90.381997 -5.662363
vn 5.834575 -2.331139 -0.033653
v -91.487012 91.292032 -5.691010
vn 5.815460 -2.377875 -0.050409
v -92.396786 89.068263 -8.273488
vn 5.834198 -2.331915 -0.051947
v -92.023772 90.010810 -8.813707
vn 5.810664 -2.390328 -0.030010
v -92.400109 89.000179 -4.882394
vn 5.813966 -2.381433 -0.063012
v -92.712706 88.238943 -4.867438
vn 5.822369 -2.361062 -0.049563
v -92.207083 89.483145 -5.820779
vn 5.801530 -2.411127 -0.075636
v -93.549630 86.364253 -11.090023
vn 2.938920 -1.244220 -0.021119
v -93.509150 86.481750 -12.210600
vn 5.799696 -2.416622 -0.036449
v -93.230676 87.132839 -11.671629
vn 5.805608 -2.402207 -0.049345
v -92.895688 87.938678 -11.194561
vn 5.811764 -2.387466 -0.041299
v -92.906555 87.927403 -12.266996
vn 5.810617 -2.388368 -0.089417
v -91.018453 92.509651 -8.293765
vn 5.826152 -2.351383 -0.070138
v -91.344242 91.675263 -7.697916
vn 5.839569 -2.318765 -0.016346
v -91.551643 91.249851 -11.297647
vn 5.839221 -2.319322 -0.051139
v -91.427761 91.544436 -10.402204
vn 5.811263 -2.387631 -0.034271
v -91.677956 90.928098 -12.301505
vn 5.798963 -2.418239 -0.050684
v -92.793534 88.130984 -8.913103
vn 5.795849 -2.425834 -0.041483
v -92.792508 88.108139 -7.730312
vn 5.800490 -2.414437 -0.056230
v -92.837727 88.048750 -10.080561
vn 5.809744 -2.391685 -0.068212
v -92.509872 88.855656 -10.767917
vn 5.820056 -2.365784 -0.089985
v -92.249204 89.518424 -11.524572
vn 5.807620 -2.395824 -0.086582
v -92.044365 90.059430 -12.308211
vn 5.823729 -2.358219 -0.034320
v -91.364029 91.604630 -6.674173
vn 5.804759 -2.403881 -0.008700
v -90.375754 94.055315 -9.679089
vn 5.829965 -2.341395 -0.078990
v -92.341442 89.328431 -12.338782
vn 2.857967 -1.170518 -0.025083
v -92.895300 87.977950 -13.371000
vn 5.828343 -2.346212 -0.051435
v -92.587634 88.717539 -12.820492
vn 5.805898 -2.400851 -0.050745
v -90.674249 93.315665 -7.984022
vn 5.806067 -2.401290 -0.006630
v -90.398880 93.993241 -7.849824
vn 5.803266 -2.407145 -0.057768
v -91.942758 90.333625 -13.273345
# 115 vertices, 0 vertices normals

f 55//55 56//56 57//57
f 76//76 58//58 55//55
f 29//29 53//53 59//59
f 6//6 60//60 27//27
f 51//51 3//3 22//22
f 2//2 61//61 62//62
f 4//4 29//29 33//33
f 35//35 36//36 12//12
f 65//65 51//51 56//56
f 50//50 66//66 67//67
f 35//35 12//12 63//63
f 12//12 36//36 37//37
f 57//57 26//26 38//38
f 68//68 69//69 64//64
f 63//63 70//70 71//71
f 109//109 72//72 70//70
f 39//39 69//69 73//73
f 15//15 76//76 92//92
f 57//57 38//38 43//43
f 79//79 80//80 81//81
f 82//82 83//83 84//84
f 85//85 86//86 60//60
f 87//87 88//88 83//83
f 89//89 6//6 28//28
f 31//31 90//90 32//32
f 67//67 91//91 89//89
f 85//85 91//91 82//82
f 92//92 93//93 94//94
f 95//95 94//94 96//96
f 62//62 97//97 98//98
f 99//99 100//100 80//80
f 99//99 101//101 68//68
f 100//100 71//71 61//61
f 102//102 87//87 103//103
f 102//102 58//58 104//104
f 79//79 105//105 106//106
f 101//101 107//107 115//115
f 86//86 108//108 54//54
f 98//98 108//108 84//84
f 90//90 31//31 19//19
f 103//103 66//66 65//65
f 8//8 109//109 47//47
f 110//110 107//107 106//106
f 96//96 111//111 112//112
f 110//110 112//112 74//74
f 105//105 104//104 95//95
f 88//88 81//81 2//2
f 97//97 72//72 113//113
f 8//8 47//47 49//49
f 113//113 114//114 52//52
f 50//50 19//19 20//20
f 19//19 50//50 90//90
f 3//3 50//50 20//20
f 51//51 22//22 21//21
f 23//23 52//52 24//24
f 53//53 23//23 59//59
f 23//23 53//53 52//52
f 55//55 7//7 56//56
f 21//21 25//25 56//56
f 57//57 56//56 26//26
f 57//57 43//43 55//55
f 76//76 15//15 58//58
f 55//55 58//58 7//7
f 6//6 27//27 28//28
f 53//53 29//29 54//54
f 30//30 60//60 4//4
f 60//60 30//30 27//27
f 16//16 2//2 62//62
f 62//62 61//61 10//10
f 63//63 11//11 64//64
f 63//63 64//64 34//34
f 63//63 34//34 35//35
f 7//7 65//65 56//56
f 65//65 3//3 51//51
f 56//56 51//51 21//21
f 56//56 25//25 26//26
f 90//90 50//50 67//67
f 50//50 3//3 66//66
f 67//67 66//66 9//9
f 11//11 68//68 64//64
f 68//68 1//1 69//69
f 64//64 69//69 39//39
f 34//34 64//64 39//39
f 11//11 63//63 71//71
f 63//63 12//12 70//70
f 71//71 70//70 10//10
f 12//12 109//109 70//70
f 109//109 8//8 72//72
f 70//70 72//72 10//10
f 1//1 40//40 69//69
f 73//73 69//69 40//40
f 74//74 41//41 75//75
f 77//77 115//115 42//42
f 43//43 76//76 55//55
f 76//76 44//44 92//92
f 44//44 76//76 43//43
f 1//1 78//78 40//40
f 78//78 1//1 77//77
f 13//13 79//79 81//81
f 79//79 17//17 80//80
f 81//81 80//80 2//2
f 14//14 82//82 84//84
f 82//82 9//9 83//83
f 84//84 83//83 16//16
f 6//6 85//85 60//60
f 85//85 14//14 86//86
f 60//60 86//86 4//4
f 9//9 87//87 83//83
f 87//87 13//13 88//88
f 83//83 88//88 16//16
f 32//32 89//89 28//28
f 90//90 89//89 32//32
f 90//90 67//67 89//89
f 67//67 9//9 91//91
f 89//89 91//91 6//6
f 14//14 85//85 82//82
f 85//85 6//6 91//91
f 82//82 91//91 9//9
f 15//15 92//92 94//94
f 92//92 45//45 93//93
f 94//94 93//93 46//46
f 18//18 95//95 96//96
f 95//95 15//15 94//94
f 96//96 94//94 46//46
f 16//16 62//62 98//98
f 62//62 10//10 97//97
f 98//98 97//97 5//5
f 17//17 99//99 80//80
f 99//99 11//11 100//100
f 80//80 100//100 2//2
f 11//11 99//99 68//68
f 99//99 17//17 101//101
f 68//68 101//101 1//1
f 2//2 100//100 61//61
f 100//100 11//11 71//71
f 61//61 71//71 10//10
f 7//7 102//102 103//103
f 102//102 13//13 87//87
f 103//103 87//87 9//9
f 13//13 102//102 104//104
f 102//102 7//7 58//58
f 104//104 58//58 15//15
f 17//17 79//79 106//106
f 79//79 13//13 105//105
f 106//106 105//105 18//18
f 1//1 101//101 77//77
f 101//101 17//17 107//107
f 86//86 14//14 108//108
f 53//53 54//54 5//5
f 16//16 98//98 84//84
f 98//98 5//5 108//108
f 84//84 108//108 14//14
f 7//7 103//103 65//65
f 103//103 9//9 66//66
f 65//65 66//66 3//3
f 37//37 109//109 12//12
f 109//109 37//37 47//47
f 18//18 110//110 106//106
f 110//110 74//74 107//107
f 106//106 107//107 17//17
f 18//18 96//96 112//112
f 96//96 46//46 111//111
f 112//112 111//111 41//41
f 110//110 18//18 112//112
f 74//74 112//112 41//41
f 18//18 105//105 95//95
f 105//105 13//13 104//104
f 95//95 104//104 15//15
f 16//16 88//88 2//2
f 88//88 13//13 81//81
f 45//45 92//92 44//44
f 5//5 97//97 113//113
f 97//97 10//10 72//72
f 113//113 72//72 8//8
f 8//8 49//49 114//114
f 48//48 114//114 49//49
f 5//5 113//113 52//52
f 113//113 8//8 114//114
f 52//52 114//114 48//48
f 24//24 52//52 48//48
f 3//3 20//20 22//22
f 53//53 5//5 52//52
f 54//54 108//108 5//5
f 4//4 54//54 29//29
f 4//4 86//86 54//54
f 4//4 33//33 30//30
f 77//77 42//42 78//78
f 115//115 74//74 75//75
f 101//101 115//115 77//77
f 115//115 75//75 42//42
f 74//74 115//115 107//107
# 191 faces, 0 coords texture

# End of File
