####
#
# OBJ File Generated by Meshlab
#
####
# Object 289_C72_M_6.obj
#
# Vertices: 167
# Faces: 287
#
####
vn 1.252551 -0.952227 -0.004714
v -53.453800 30.718000 -38.000000
vn 2.479054 -1.929348 0.008277
v -52.287300 32.254200 -38.000000
vn 2.497350 -1.897325 -0.001666
v -53.455600 30.718000 -38.415300
vn 4.964693 -3.850865 -0.002494
v -52.330572 32.184052 -39.723806
vn 2.514088 -1.891060 -0.024024
v -53.471500 30.718000 -43.658400
vn 5.013684 -3.786218 -0.075306
v -52.933288 31.444682 -44.283756
vn 4.705080 -4.163644 -0.017263
v -48.193875 37.285806 -48.133347
vn 2.515111 -1.898364 -0.008583
v -53.444800 30.718000 -40.910800
vn 2.501860 -1.893400 -0.022141
v -53.467500 30.718000 -42.867600
vn 4.810617 -4.040954 -0.070895
v -48.421125 36.997938 -41.665074
vn 4.790957 -4.063372 -0.037006
v -48.620652 36.807772 -43.267595
vn 4.940487 -3.880861 -0.050597
v -51.964847 32.712947 -44.258794
vn 4.738292 -4.124708 -0.051952
v -47.709072 37.851813 -41.911103
vn 2.357178 -2.101492 -0.023055
v -46.937900 38.718000 -41.874700
vn 4.889719 -3.945333 -0.047971
v -50.935905 33.982172 -43.220561
vn 2.330093 -2.100447 0.005920
v -46.900500 38.718000 -47.774000
vn 2.342157 -2.098474 0.015801
v -46.929400 38.718000 -44.201600
vn 2.452142 -1.963759 0.007545
v -51.039300 33.823500 -38.000000
vn 2.404357 -2.021891 -0.005285
v -49.054000 36.243000 -38.000000
vn 4.872736 -3.966471 -0.005821
v -50.337518 34.691986 -39.161519
vn 2.435874 -1.983872 0.004528
v -50.549400 34.431000 -38.000000
vn 2.342925 -2.080860 -0.040519
v -46.921600 38.718000 -41.106800
vn 4.691380 -4.179480 0.019605
v -47.435991 38.155534 -43.807301
vn 4.755155 -4.105943 0.017128
v -48.392544 37.069315 -45.101297
vn 2.535380 -1.881571 -0.069038
v -53.499800 30.718000 -45.938300
vn 2.458262 -1.914861 -0.023409
v -53.594900 30.718000 -48.624600
vn 1.261515 -0.951517 0.019811
v -53.573300 30.718000 -50.000000
vn 2.413924 -2.009346 -0.041440
v -50.379000 34.769300 -50.000000
vn 2.367165 -2.064322 -0.031386
v -48.849500 36.563500 -50.000000
vn 2.327375 -2.110190 -0.000334
v -47.351000 38.220300 -50.000000
vn 1.161354 -1.056543 0.000850
v -46.898000 38.718000 -50.000000
vn 2.472745 -1.935897 -0.043352
v -52.384200 32.294500 -50.000000
vn 1.146198 -1.061127 -0.014769
v -46.889300 38.718000 -38.000000
vn 2.336945 -2.102842 -0.006490
v -46.899200 38.718000 -38.768300
vn 2.346438 -2.088320 -0.001073
v -47.450600 38.111700 -38.000000
vn 2.472833 -1.921414 -0.063148
v -53.573000 30.718000 -47.752600
vn 2.339953 -2.095604 0.017654
v -46.916600 38.718000 -45.723200
vn 4.815723 -4.035536 -0.020184
v -49.504401 35.747987 -46.280487
vn 4.783090 -4.073838 -0.061138
v -49.425686 35.855620 -48.384376
vn 4.723382 -4.142905 0.009730
v -48.238430 37.233320 -47.046407
vn 4.920801 -3.906875 -0.001860
v -51.608615 33.103850 -39.611289
vn 4.756761 -4.104613 -0.026079
v -48.048813 37.426259 -39.960752
vn 4.848039 -3.996683 -0.014233
v -49.703031 35.503098 -44.338463
vn 4.848232 -3.996067 -0.051503
v -49.748057 35.432765 -42.358902
vn 4.892079 -3.941668 -0.089150
v -51.469598 33.398950 -48.550623
vn 4.845127 -3.999375 -0.074660
v -50.501240 34.571341 -47.724823
vn 4.975291 -3.836641 -0.046322
v -52.329937 32.206449 -41.959657
vn 4.892327 -3.942336 -0.032553
v -50.745395 34.188444 -41.107696
vn 4.906901 -3.923850 -0.060885
v -51.682917 33.081975 -46.426845
vn 4.874043 -3.964873 -0.037289
v -50.792024 34.176862 -45.285841
vn 4.826832 -4.022203 -0.016009
v -49.463424 35.755281 -40.306079
vn 4.995269 -3.809138 -0.107705
v -52.880569 31.556258 -45.980710
vn 2.502008 -1.899878 -0.005194
v -52.870550 31.486100 -38.000000
vn 5.001838 -3.802624 -0.002191
v -52.913047 31.431162 -38.375875
vn 4.998602 -3.806785 0.019548
v -52.946862 31.385432 -39.190253
vn 4.976427 -3.835461 0.025516
v -52.485993 31.991759 -38.817898
vn 4.807282 -4.044864 -0.072534
v -49.132668 36.156889 -41.945276
vn 4.834548 -4.012222 -0.071659
v -49.193578 36.111042 -42.879173
vn 4.813946 -4.036093 -0.119128
v -48.695400 36.695296 -42.473546
vn 4.764375 -4.094869 -0.051767
v -48.156563 37.340130 -42.624788
vn 4.670642 -4.202705 0.013890
v -47.567675 37.977897 -47.382509
vn 4.663465 -4.210757 -0.004863
v -47.537172 38.013446 -48.242925
vn 2.458924 -1.955319 0.005078
v -51.663300 33.038850 -38.000000
vn 4.931172 -3.893703 0.021693
v -51.950270 32.675801 -38.813084
vn 4.910699 -3.919573 0.015467
v -51.321726 33.466521 -38.745450
vn 2.423000 -1.999652 -0.008130
v -49.801700 35.337000 -38.000000
vn 4.844922 -4.000616 -0.014391
v -49.745279 35.408347 -38.733702
vn 4.694784 -4.174735 -0.094773
v -47.368738 38.221148 -41.322598
vn 4.761154 -4.098429 -0.063523
v -47.898313 37.617267 -41.020281
vn 4.806220 -4.046908 -0.029090
v -48.421725 36.989110 -40.726751
vn 4.700182 -4.169611 0.010989
v -47.516859 38.067865 -42.814655
vn 2.339158 -2.097114 0.007500
v -46.933650 38.718000 -43.038150
vn 4.895928 -3.937836 -0.041542
v -51.244387 33.621797 -45.824493
vn 4.890106 -3.944518 -0.072252
v -51.089913 33.827189 -46.944276
vn 4.867113 -3.972838 -0.061636
v -50.614696 34.415214 -46.652075
vn 4.902307 -3.929653 -0.054637
v -51.477908 33.313094 -43.666046
vn 4.893998 -3.940321 -0.032096
v -51.385781 33.436992 -44.737444
vn 4.880310 -3.957196 -0.034077
v -50.890893 34.046932 -44.249518
vn 4.803584 -4.050060 0.008021
v -48.946602 36.411087 -45.701676
vn 4.820175 -4.030350 0.005592
v -49.043646 36.291332 -44.755848
vn 4.836113 -4.011129 -0.011293
v -49.607695 35.620835 -45.298933
vn 4.702995 -4.166350 0.020807
v -47.892551 37.638652 -44.469042
vn 4.720534 -4.146672 0.005242
v -48.020615 37.492876 -43.538941
vn 4.774414 -4.083701 0.012533
v -48.514690 36.929799 -44.174318
vn 4.957428 -3.859116 -0.027737
v -53.032907 31.443798 -49.052815
vn 2.500021 -1.902203 0.033108
v -53.584100 30.718000 -49.312300
vn 2.497073 -1.906306 0.006410
v -52.978750 31.506250 -50.000000
vn 4.869844 -3.970143 -0.030799
v -50.332807 34.726663 -43.813898
vn 4.860076 -3.982060 -0.029141
v -49.758047 35.429676 -43.359533
vn 4.874744 -3.963990 -0.041277
v -50.343977 34.706721 -42.798517
vn 4.706135 -4.162433 -0.065558
v -47.435915 38.127641 -40.494317
vn 4.910094 -3.919818 -0.065998
v -51.499996 33.263697 -42.522160
vn 4.945160 -3.875177 -0.059871
v -52.001002 32.640848 -42.764615
vn 4.996766 -3.808980 -0.046161
v -52.603876 31.858299 -42.986561
vn 4.994850 -3.811060 -0.073509
v -52.512451 31.990307 -43.941702
vn 5.010251 -3.791219 -0.048463
v -53.059514 31.261366 -43.288085
vn 5.007766 -3.794442 -0.053682
v -52.953394 31.389528 -42.377092
vn 5.029165 -3.765443 -0.084340
v -53.028018 31.336395 -45.117385
vn 2.514738 -1.882691 -0.034113
v -53.485650 30.718000 -44.798350
vn 4.935311 -3.887395 -0.092420
v -52.690280 31.826544 -46.963351
vn 4.917832 -3.909755 -0.084167
v -52.132326 32.531603 -47.132636
vn 2.390592 -2.037906 -0.040206
v -49.614250 35.666400 -50.000000
vn 4.771691 -4.086731 -0.087956
v -49.170908 36.170458 -49.188539
vn 4.926123 -3.900010 -0.024040
v -51.837969 32.820998 -40.584126
vn 4.920270 -3.907352 -0.039938
v -51.803507 32.867691 -41.495524
vn 4.906466 -3.924892 -0.015332
v -51.193927 33.625313 -40.385882
vn 4.656322 -4.218648 0.001229
v -47.218215 38.366838 -48.981497
vn 2.325140 -2.112658 0.002611
v -46.899250 38.718000 -48.887000
vn 4.891347 -3.943668 0.013252
v -50.722920 34.214432 -38.623026
vn 4.905112 -3.926572 0.002898
v -50.953374 33.922611 -39.427166
vn 2.504930 -1.896001 0.010475
v -53.450200 30.718000 -39.663050
vn 5.008009 -3.794451 -0.000877
v -52.935405 31.394955 -40.272922
vn 4.763962 -4.096151 -0.057645
v -48.816994 36.565620 -48.483900
vn 4.709893 -4.157604 -0.046186
v -48.495835 36.953560 -49.149109
vn 2.384210 -2.045723 -0.012932
v -48.252300 37.177350 -38.000000
vn 4.782069 -4.075463 -0.008436
v -48.536904 36.852069 -39.014557
vn 4.729216 -4.136270 -0.002192
v -47.776401 37.737621 -38.890607
vn 2.357055 -2.076870 -0.022578
v -46.910400 38.718000 -39.937550
vn 4.703423 -4.165921 -0.021389
v -47.425643 38.129371 -39.581025
vn 4.900299 -3.931352 -0.094152
v -51.557085 33.264890 -47.506720
vn 4.875543 -3.962206 -0.091272
v -50.986701 33.982269 -48.070306
vn 2.439914 -1.978660 -0.035593
v -51.036000 33.959525 -50.000000
vn 4.875564 -3.962471 -0.077824
v -50.943544 34.057759 -49.140122
vn 4.882910 -3.953555 -0.070529
v -51.424929 33.468392 -49.360238
vn 4.836199 -4.010386 -0.041579
v -49.641040 35.552372 -41.332958
vn 4.797716 -4.057034 -0.025700
v -48.993450 36.313760 -40.978916
vn 2.338213 -2.098101 0.018356
v -46.908550 38.718000 -46.748600
vn 4.678836 -4.193553 0.031261
v -47.604642 37.945349 -46.393856
vn 4.683056 -4.188772 0.039867
v -47.288896 38.310992 -44.763064
vn 4.685533 -4.186065 0.031532
v -47.713320 37.829962 -45.417711
vn 2.341043 -2.094930 0.019693
v -46.923000 38.718000 -44.962400
vn 4.796367 -4.058714 -0.003291
v -48.790115 36.550939 -40.031373
vn 4.863033 -3.978511 -0.021201
v -50.267023 34.816539 -44.805487
vn 4.885241 -3.951133 -0.002201
v -50.546929 34.433351 -40.088784
vn 4.869421 -3.970574 -0.024109
v -50.104883 34.972290 -40.709537
vn 4.852126 -3.991851 -0.002940
v -49.909149 35.213594 -39.692872
vn 4.836099 -4.011164 0.000155
v -49.142882 36.178962 -43.819772
vn 4.768044 -4.091882 -0.020359
v -48.831652 36.545481 -47.667135
vn 5.016392 -3.783167 -0.034025
v -52.902866 31.440629 -41.356534
vn 2.504601 -1.896242 -0.029055
v -53.456150 30.718000 -41.889200
vn 4.978799 -3.831927 -0.028641
v -52.399353 32.108746 -40.829014
vn 4.831999 -4.014765 -0.088733
v -50.433101 34.677728 -48.804578
vn 4.898647 -3.934160 -0.058031
v -50.886544 34.028183 -42.164882
vn 4.661443 -4.212997 -0.003874
v -47.809799 37.712035 -49.088752
vn 2.329975 -2.107324 -0.002345
v -48.100250 37.391900 -50.000000
vn 4.940951 -3.880032 -0.102963
v -53.059270 31.378243 -47.951758
vn 4.941058 -3.879961 -0.084706
v -52.561841 32.044220 -49.133155
vn 4.878038 -3.959839 -0.053023
v -50.264003 34.790987 -41.756286
vn 4.783097 -4.074242 0.002467
v -48.872221 36.491140 -46.676019
vn 4.735863 -4.128191 0.027757
v -48.296408 37.174738 -46.057991
vn 4.993701 -3.809224 -0.148141
v -53.205938 31.165756 -46.898761
vn 2.520589 -1.872403 -0.101696
v -53.536400 30.718000 -46.845450
vn 4.901649 -3.929613 -0.097081
v -51.936908 32.831106 -49.172720
vn 2.442169 -1.975861 -0.036898
v -51.819600 32.992050 -50.000000
vn 4.917431 -3.909829 -0.101572
v -52.027594 32.687375 -48.175200
vn 4.825278 -4.023887 -0.051802
v -50.028638 35.126452 -46.888849
vn 4.794571 -4.060659 -0.028661
v -49.438559 35.832637 -47.306558
vn 4.847077 -3.997670 -0.039518
v -50.149581 34.961234 -45.817859
vn 4.818891 -4.031796 -0.002890
v -49.254873 36.003131 -39.260406
vn 4.918263 -3.909878 -0.031728
v -51.840637 32.875437 -45.341065
vn 4.854637 -3.988797 -0.011638
v -50.211276 34.842679 -38.483032
vn 4.933632 -3.890173 -0.061837
v -52.296733 32.304698 -46.066343
vn 4.785889 -4.070146 -0.086596
v -49.840324 35.383791 -49.117556
vn 4.980643 -3.829259 -0.069109
v -52.525754 31.998257 -44.926344
vn 4.909817 -3.920439 -0.041494
v -51.305690 33.490352 -41.443030
vn 4.802170 -4.051282 -0.059685
v -49.961140 35.214841 -47.941504
vn 4.927693 -3.896882 -0.101806
v -52.638153 31.918911 -48.136906
# 167 vertices, 0 vertices normals

f 2//2 53//53 54//54
f 54//54 55//55 56//56
f 57//57 58//58 59//59
f 60//60 10//10 59//59
f 61//61 7//7 62//62
f 63//63 64//64 65//65
f 19//19 66//66 67//67
f 14//14 22//22 68//68
f 69//69 70//70 10//10
f 14//14 71//71 72//72
f 73//73 74//74 75//75
f 76//76 77//77 78//78
f 79//79 80//80 81//81
f 82//82 83//83 84//84
f 85//85 86//86 87//87
f 71//71 60//60 83//83
f 88//88 89//89 90//90
f 91//91 69//69 68//68
f 76//76 92//92 93//93
f 93//93 94//94 95//95
f 96//96 94//94 97//97
f 6//6 99//99 98//98
f 25//25 52//52 98//98
f 162//162 100//100 101//101
f 102//102 103//103 163//163
f 104//104 105//105 165//165
f 16//16 107//107 108//108
f 109//109 65//65 110//110
f 55//55 111//111 112//112
f 34//34 33//33 35//35
f 113//113 103//103 114//114
f 115//115 116//116 117//117
f 118//118 119//119 91//91
f 42//42 119//119 117//117
f 120//120 121//121 74//74
f 122//122 123//123 124//124
f 21//21 18//18 109//109
f 125//125 57//57 126//126
f 127//127 128//128 61//61
f 129//129 82//82 130//130
f 37//37 131//131 129//129
f 9//9 5//5 96//96
f 126//126 70//70 132//132
f 133//133 88//88 78//78
f 110//110 106//106 134//134
f 134//134 135//135 136//136
f 137//137 80//80 84//84
f 113//113 7//7 138//138
f 97//97 139//139 140//140
f 4//4 141//141 104//104
f 166//166 142//142 163//163
f 92//92 143//143 165//165
f 62//62 144//144 107//107
f 114//114 145//145 144//144
f 148//148 125//125 135//135
f 149//149 150//150 79//79
f 128//128 130//130 150//150
f 36//36 151//151 152//152
f 153//153 154//154 124//124
f 58//58 89//89 137//137
f 147//147 153//153 155//155
f 112//112 139//139 141//141
f 64//64 56//56 4//4
f 155//155 120//120 101//101
f 143//143 90//90 148//148
f 121//121 123//123 142//142
f 81//81 133//133 158//158
f 136//136 159//159 67//67
f 132//132 116//116 159//159
f 77//77 160//160 73//73
f 158//158 75//75 156//156
f 151//151 146//146 100//100
f 149//149 157//157 138//138
f 53//53 1//1 54//54
f 3//3 54//54 1//1
f 2//2 54//54 56//56
f 54//54 3//3 55//55
f 56//56 55//55 4//4
f 10//10 57//57 59//59
f 57//57 44//44 58//58
f 59//59 58//58 11//11
f 11//11 60//60 59//59
f 60//60 13//13 10//10
f 16//16 61//61 62//62
f 61//61 40//40 7//7
f 18//18 63//63 65//65
f 63//63 2//2 64//64
f 65//65 64//64 41//41
f 66//66 161//161 67//67
f 109//109 161//161 21//21
f 14//14 68//68 13//13
f 13//13 69//69 10//10
f 69//69 42//42 70//70
f 13//13 71//71 14//14
f 71//71 23//23 72//72
f 17//17 72//72 23//23
f 50//50 73//73 75//75
f 73//73 49//49 74//74
f 15//15 76//76 78//78
f 76//76 12//12 77//77
f 78//78 77//77 50//50
f 38//38 79//79 81//81
f 79//79 24//24 80//80
f 81//81 80//80 43//43
f 24//24 82//82 84//84
f 82//82 23//23 83//83
f 84//84 83//83 11//11
f 32//32 147//147 87//87
f 85//85 26//26 86//86
f 87//87 86//86 27//27
f 23//23 71//71 83//83
f 71//71 13//13 60//60
f 83//83 60//60 11//11
f 15//15 88//88 90//90
f 88//88 43//43 89//89
f 90//90 89//89 44//44
f 22//22 91//91 68//68
f 91//91 42//42 69//69
f 68//68 69//69 13//13
f 12//12 76//76 93//93
f 76//76 15//15 92//92
f 12//12 93//93 95//95
f 93//93 47//47 94//94
f 95//95 94//94 96//96
f 9//9 96//96 97//97
f 96//96 6//6 95//95
f 97//97 94//94 47//47
f 99//99 6//6 5//5
f 49//49 162//162 101//101
f 101//101 100//100 167//167
f 28//28 102//102 163//163
f 102//102 29//29 103//103
f 41//41 104//104 106//106
f 106//106 104//104 165//165
f 107//107 31//31 108//108
f 31//31 107//107 30//30
f 20//20 109//109 110//110
f 109//109 18//18 65//65
f 110//110 65//65 41//41
f 4//4 55//55 112//112
f 55//55 3//3 111//111
f 112//112 111//111 8//8
f 7//7 113//113 114//114
f 113//113 39//39 103//103
f 114//114 103//103 29//29
f 35//35 115//115 117//117
f 115//115 19//19 116//116
f 117//117 116//116 42//42
f 22//22 118//118 91//91
f 118//118 34//34 119//119
f 91//91 119//119 42//42
f 34//34 117//117 119//119
f 117//117 34//34 35//35
f 49//49 120//120 74//74
f 120//120 45//45 121//121
f 74//74 121//121 46//46
f 122//122 28//28 123//123
f 124//124 123//123 45//45
f 51//51 125//125 126//126
f 125//125 44//44 57//57
f 126//126 57//57 10//10
f 16//16 127//127 61//61
f 127//127 37//37 128//128
f 61//61 128//128 40//40
f 37//37 129//129 130//130
f 129//129 23//23 82//82
f 130//130 82//82 24//24
f 131//131 17//17 129//129
f 23//23 129//129 17//17
f 96//96 5//5 6//6
f 51//51 126//126 132//132
f 126//126 10//10 70//70
f 132//132 70//70 42//42
f 50//50 133//133 78//78
f 133//133 43//43 88//88
f 78//78 88//88 15//15
f 20//20 110//110 134//134
f 110//110 41//41 106//106
f 134//134 106//106 48//48
f 20//20 134//134 136//136
f 134//134 48//48 135//135
f 136//136 135//135 51//51
f 11//11 137//137 84//84
f 137//137 43//43 80//80
f 84//84 80//80 24//24
f 39//39 113//113 138//138
f 138//138 7//7 40//40
f 9//9 97//97 140//140
f 97//97 47//47 139//139
f 140//140 139//139 8//8
f 95//95 6//6 164//164
f 98//98 52//52 164//164
f 95//95 164//164 12//12
f 41//41 4//4 104//104
f 104//104 141//141 105//105
f 92//92 15//15 143//143
f 16//16 62//62 107//107
f 62//62 7//7 144//144
f 107//107 144//144 30//30
f 7//7 114//114 144//144
f 114//114 29//29 145//145
f 144//144 145//145 30//30
f 146//146 26//26 85//85
f 26//26 146//146 36//36
f 48//48 148//148 135//135
f 148//148 44//44 125//125
f 135//135 125//125 51//51
f 38//38 149//149 79//79
f 149//149 40//40 150//150
f 79//79 150//150 24//24
f 40//40 128//128 150//150
f 128//128 37//37 130//130
f 150//150 130//130 24//24
f 151//151 25//25 152//152
f 25//25 151//151 52//52
f 45//45 153//153 124//124
f 153//153 32//32 154//154
f 124//124 154//154 122//122
f 11//11 58//58 137//137
f 58//58 44//44 89//89
f 137//137 89//89 43//43
f 167//167 147//147 155//155
f 147//147 32//32 153//153
f 155//155 153//153 45//45
f 38//38 156//156 157//157
f 156//156 46//46 166//166
f 157//157 166//166 39//39
f 4//4 112//112 141//141
f 112//112 8//8 139//139
f 141//141 139//139 47//47
f 41//41 64//64 4//4
f 64//64 2//2 56//56
f 167//167 155//155 101//101
f 155//155 45//45 120//120
f 101//101 120//120 49//49
f 48//48 143//143 148//148
f 143//143 15//15 90//90
f 148//148 90//90 44//44
f 121//121 45//45 123//123
f 38//38 81//81 158//158
f 81//81 43//43 133//133
f 158//158 133//133 50//50
f 20//20 136//136 67//67
f 136//136 51//51 159//159
f 67//67 159//159 19//19
f 51//51 132//132 159//159
f 132//132 42//42 116//116
f 159//159 116//116 19//19
f 52//52 162//162 164//164
f 164//164 160//160 12//12
f 50//50 77//77 73//73
f 77//77 12//12 160//160
f 73//73 160//160 49//49
f 38//38 158//158 156//156
f 158//158 50//50 75//75
f 151//151 36//36 146//146
f 100//100 146//146 167//167
f 40//40 149//149 138//138
f 149//149 38//38 157//157
f 138//138 157//157 39//39
f 161//161 20//20 67//67
f 161//161 66//66 21//21
f 20//20 161//161 109//109
f 162//162 160//160 164//164
f 162//162 49//49 160//160
f 52//52 151//151 100//100
f 162//162 52//52 100//100
f 98//98 99//99 25//25
f 163//163 103//103 39//39
f 105//105 141//141 47//47
f 39//39 166//166 163//163
f 142//142 123//123 28//28
f 163//163 142//142 28//28
f 92//92 165//165 105//105
f 106//106 165//165 48//48
f 48//48 165//165 143//143
f 156//156 166//166 157//157
f 147//147 85//85 87//87
f 6//6 98//98 164//164
f 46//46 121//121 142//142
f 166//166 46//46 142//142
f 167//167 85//85 147//147
f 75//75 74//74 46//46
f 93//93 92//92 105//105
f 47//47 93//93 105//105
f 167//167 146//146 85//85
f 156//156 75//75 46//46
# 287 faces, 0 coords texture

# End of File
