####
#
# OBJ File Generated by Meshlab
#
####
# Object 2919_C195_S_2.obj
#
# Vertices: 49
# Faces: 61
#
####
vn 4.326235 -1.818072 0.005725
v -104.589000 90.201400 -50.000000
vn 2.717281 -1.162590 0.000948
v -104.587000 90.205400 -49.770400
vn 3.162301 -1.525762 -0.064008
v -104.385000 90.687600 -47.262200
vn 4.634368 -1.967131 -0.007410
v -104.147000 91.233400 -50.000000
vn 2.447082 -1.052955 -0.003188
v -104.088000 91.373700 -49.544200
vn 2.945746 -1.091338 0.010107
v -105.838000 87.031300 -50.000000
vn 2.901164 -1.247952 -0.054225
v -104.549000 90.124150 -43.774350
vn 2.837726 -1.395675 -0.066421
v -104.214000 91.033400 -47.229300
vn 2.002863 -0.851763 -0.036476
v -104.254000 90.800100 -43.360500
vn 2.935113 -1.110825 -0.054665
v -103.203000 93.488000 -50.000000
vn 2.922604 -1.151462 0.014570
v -105.262000 88.548100 -50.000000
vn 0.723238 -0.304452 -0.018270
v -104.603000 89.932600 -42.720000
vn 5.813007 -2.384471 0.023648
v -104.685519 89.954850 -51.160361
vn 5.640114 -2.763309 -0.171147
v -104.336555 90.732299 -46.346679
vn 2.945219 -1.418620 -0.084324
v -104.270000 90.819600 -45.612900
vn 2.592819 -1.057568 -0.028769
v -103.522000 92.776800 -51.636700
vn 3.052919 -1.215086 0.005445
v -105.142000 88.811500 -52.233800
vn 2.414249 -0.936490 0.011649
v -105.512000 87.872800 -51.901000
vn 0.811825 -0.291379 -0.000739
v -106.134000 86.206600 -50.000000
vn 2.862948 -1.054651 0.009385
v -105.956000 86.704100 -50.616900
vn 2.574576 -1.065250 -0.002329
v -104.145000 91.253400 -52.603900
vn 3.090975 -1.254558 -0.047747
v -103.310000 93.261900 -50.875500
vn 2.451717 -0.868504 -0.058956
v -103.120000 93.747500 -50.371200
vn 1.239001 -0.422507 -0.018328
v -103.083000 93.839900 -50.000000
vn 3.030388 -1.147003 0.011091
v -105.624000 87.579700 -51.528600
vn 2.432180 -0.989252 0.006837
v -104.797000 89.668700 -52.694900
vn 2.866032 -1.286470 -0.007708
v -104.151000 91.203550 -48.386750
vn 5.793163 -2.432575 -0.001797
v -104.286236 90.912259 -50.930256
vn 2.879108 -1.257051 0.003488
v -104.486000 90.446500 -48.516300
vn 2.811923 -1.398448 -0.083868
v -104.242000 90.926500 -46.421100
vn 5.808738 -2.394919 -0.017394
v -103.963104 91.685786 -51.633431
vn 2.710797 -1.106199 -0.007727
v -103.858750 91.946025 -52.279600
vn 5.803830 -2.407011 0.008513
v -104.393921 90.653387 -51.857149
vn 2.822389 -1.367450 -0.089921
v -104.441250 90.499425 -46.100000
vn 5.717435 -2.601395 -0.116475
v -104.394263 90.514361 -44.722453
vn 2.839548 -1.354759 -0.077959
v -104.495500 90.312350 -44.919200
vn 2.880791 -1.252680 -0.037635
v -104.262000 90.809850 -44.486700
vn 5.806057 -2.401115 -0.041203
v -103.799163 92.073773 -50.894981
vn 2.900498 -1.206730 -0.022003
v -103.675000 92.360700 -50.000000
vn 2.909740 -1.184452 0.009637
v -104.925500 89.374750 -50.000000
vn 5.823698 -2.358295 0.032932
v -104.974893 89.248277 -50.630931
vn 5.820303 -2.366727 0.017540
v -104.763533 89.755571 -52.030898
vn 2.904888 -1.196311 0.008362
v -104.471000 90.461050 -52.649400
vn 2.936953 -1.115299 0.004665
v -105.550000 87.789700 -50.000000
vn 5.875980 -2.224925 0.023734
v -105.583712 87.698608 -50.553976
vn 5.833493 -2.333977 0.032410
v -105.087177 88.952534 -51.533699
vn 5.708917 -2.618126 -0.026080
v -104.311354 90.857571 -47.869541
vn 5.766008 -2.495910 -0.018780
v -104.335271 90.797174 -49.028730
vn 5.849656 -2.292240 0.043435
v -105.327832 88.363276 -51.043850
# 49 vertices, 0 vertices normals

f 2//2 1//1 4//4
f 4//4 5//5 2//2
f 5//5 27//27 48//48
f 48//48 27//27 29//29
f 15//15 34//34 14//14
f 3//3 30//30 14//14
f 6//6 19//19 20//20
f 28//28 33//33 31//31
f 8//8 30//30 3//3
f 35//35 7//7 36//36
f 35//35 15//15 37//37
f 10//10 39//39 22//22
f 22//22 39//39 38//38
f 4//4 1//1 28//28
f 13//13 1//1 41//41
f 11//11 49//49 41//41
f 10//10 23//23 24//24
f 10//10 22//22 23//23
f 49//49 25//25 18//18
f 42//42 43//43 33//33
f 49//49 45//45 25//25
f 13//13 46//46 42//42
f 27//27 8//8 47//47
f 1//1 13//13 28//28
f 30//30 15//15 14//14
f 31//31 32//32 16//16
f 7//7 9//9 12//12
f 38//38 28//28 31//31
f 28//28 13//13 33//33
f 31//31 33//33 21//21
f 32//32 31//31 21//21
f 34//34 3//3 14//14
f 15//15 35//35 36//36
f 36//36 34//34 15//15
f 7//7 37//37 9//9
f 37//37 7//7 35//35
f 38//38 16//16 22//22
f 4//4 38//38 39//39
f 31//31 16//16 38//38
f 4//4 28//28 38//38
f 41//41 1//1 40//40
f 41//41 40//40 11//11
f 41//41 46//46 13//13
f 13//13 42//42 33//33
f 42//42 26//26 43//43
f 33//33 43//43 21//21
f 6//6 45//45 44//44
f 20//20 45//45 6//6
f 45//45 20//20 25//25
f 46//46 17//17 42//42
f 26//26 42//42 17//17
f 47//47 3//3 29//29
f 27//27 47//47 29//29
f 3//3 47//47 8//8
f 5//5 48//48 2//2
f 44//44 45//45 11//11
f 48//48 29//29 2//2
f 49//49 46//46 41//41
f 45//45 49//49 11//11
f 46//46 49//49 18//18
f 46//46 18//18 17//17
# 61 faces, 0 coords texture

# End of File
