####
#
# OBJ File Generated by Meshlab
#
####
# Object 2933_C197_S_5.obj
#
# Vertices: 10
# Faces: 8
#
####
vn -2.924091 -1.148443 0.015563
v 106.400000 90.850300 -50.000000
vn -2.261695 -0.885607 0.014739
v 106.621000 90.270100 -50.949500
vn -0.724808 -0.284181 0.004949
v 106.978000 89.376100 -50.000000
vn -2.332758 -0.919487 0.009027
v 106.113000 91.568200 -51.041500
vn -0.528351 -0.209166 0.001418
v 105.515000 93.085800 -50.000000
vn -2.924759 -1.146731 0.019970
v 106.799500 89.823100 -50.474750
vn -2.924759 -1.146731 0.019970
v 106.689000 90.113200 -50.000000
vn -2.925932 -1.143770 0.017888
v 106.367000 90.919150 -50.995500
vn -2.921013 -1.156384 0.007837
v 105.957500 91.968050 -50.000000
vn -2.921013 -1.156384 0.007837
v 105.814000 92.327000 -50.520750
# 10 vertices, 0 vertices normals

f 3//3 7//7 6//6
f 1//1 4//4 8//8
f 9//9 5//5 10//10
f 1//1 2//2 7//7
f 6//6 7//7 2//2
f 1//1 8//8 2//2
f 1//1 9//9 4//4
f 10//10 4//4 9//9
# 8 faces, 0 coords texture

# End of File
