####
#
# OBJ File Generated by Meshlab
#
####
# Object 297_C73_M_6.obj
#
# Vertices: 163
# Faces: 277
#
####
vn 2.512018 -1.886372 0.012744
v -53.718000 31.306900 -38.000000
vn 2.469738 -1.941400 -0.001276
v -52.230300 33.244700 -38.000000
vn 2.490307 -1.891856 -0.055924
v -54.173800 30.718000 -44.415600
vn 4.950277 -3.868216 -0.032619
v -52.130399 33.408221 -43.237315
vn 5.035739 -3.757372 -0.016042
v -53.248707 31.924372 -42.238814
vn 4.759158 -4.100794 0.027290
v -48.849057 37.427855 -45.690593
vn 4.870407 -3.969102 -0.037380
v -51.053047 34.773205 -46.054272
vn 5.031821 -3.762713 0.012722
v -53.571123 31.490395 -40.057112
vn 4.887635 -3.948053 -0.043442
v -51.130457 34.634295 -41.838509
vn 2.339033 -2.082487 0.010778
v -47.687500 38.718000 -46.804400
vn 2.348934 -2.097041 -0.005520
v -47.691400 38.718000 -47.774900
vn 4.843209 -4.001931 -0.050987
v -49.919934 36.133020 -42.551465
vn 2.436482 -1.983154 -0.003154
v -50.880000 34.925500 -38.000000
vn 2.424171 -1.998240 -0.006230
v -49.681500 36.380100 -38.000000
vn 2.531416 -1.888741 -0.057659
v -54.189400 30.718000 -45.781600
vn 4.797380 -4.057350 -0.009176
v -48.757474 37.486609 -39.390351
vn 2.537130 -1.866063 0.010890
v -54.135100 30.718000 -41.143500
vn 2.520120 -1.868223 0.023370
v -54.138900 30.718000 -40.834900
vn 2.350470 -2.090913 0.016414
v -47.710100 38.718000 -44.692100
vn 2.346976 -2.088036 0.010396
v -47.712400 38.718000 -44.138600
vn 2.505005 -1.893161 -0.028085
v -53.555100 31.710500 -50.000000
vn 1.289688 -0.909689 0.015096
v -54.253200 30.718000 -50.000000
vn 2.470478 -1.885890 -0.042798
v -54.279700 30.718200 -47.992200
vn 2.540208 -1.880749 -0.032874
v -54.137500 30.718000 -43.343700
vn 2.397281 -2.029993 -0.051575
v -50.010025 36.086250 -50.000000
vn 2.411730 -2.011618 -0.051076
v -50.723200 35.250900 -50.000000
vn 2.398758 -2.041127 -0.022983
v -47.724300 38.718000 -41.475400
vn 2.341011 -2.088058 0.019971
v -47.676100 38.718000 -49.996400
vn 2.340266 -2.095454 0.012532
v -47.678200 38.715600 -50.000000
vn 1.182145 -1.034377 0.000000
v -47.676100 38.718000 -50.000000
vn 1.191585 -1.016268 -0.008303
v -47.697600 38.718000 -38.000000
vn 2.408654 -2.016811 -0.004187
v -49.370800 36.756900 -38.000000
vn 2.370353 -2.058685 -0.052872
v -49.189900 37.068400 -50.000000
vn 2.456164 -1.957748 -0.048077
v -52.228300 33.394800 -50.000000
vn 2.528229 -1.862480 0.058565
v -54.031500 30.888200 -38.000000
vn 2.532067 -1.852342 0.019520
v -54.151700 30.718000 -38.223700
vn 1.285907 -0.904366 -0.002874
v -54.151200 30.718000 -38.000000
vn 4.769285 -4.089027 -0.021926
v -48.648709 37.665572 -43.423264
vn 4.930799 -3.893614 -0.053435
v -52.039965 33.533844 -45.308641
vn 4.841867 -4.004023 -0.009375
v -49.905993 36.165462 -44.767182
vn 5.016418 -3.782367 -0.075823
v -53.178098 32.034624 -44.435688
vn 4.843636 -4.001998 -0.024229
v -50.075793 35.908501 -40.074053
vn 2.394867 -2.032282 -0.012463
v -47.709900 38.718000 -39.708500
vn 4.866586 -3.972944 -0.085533
v -51.295338 34.511428 -48.191947
vn 4.805270 -4.047701 -0.048616
v -48.841004 37.386266 -41.138744
vn 4.881024 -3.956340 -0.035338
v -50.974721 34.847607 -44.016164
vn 4.960198 -3.856083 -0.030259
v -52.400444 33.036115 -41.091089
vn 4.825214 -4.024061 -0.023485
v -50.087923 35.934167 -46.829989
vn 4.903080 -3.928972 -0.014755
v -51.566251 34.077855 -39.765489
vn 4.927480 -3.897412 -0.091517
v -52.581566 32.898554 -48.168163
vn 4.734439 -4.129545 -0.059096
v -48.983756 37.274935 -48.878896
vn 4.909662 -3.920136 -0.078297
v -51.806547 33.858064 -47.524224
vn 2.491835 -1.913171 -0.011684
v -52.974150 32.275800 -38.000000
vn 4.994929 -3.811570 0.001336
v -53.249249 31.921888 -38.712506
vn 4.967287 -3.847400 -0.002139
v -52.631616 32.727896 -38.984816
vn 5.037841 -3.753255 -0.081991
v -53.680803 31.346619 -43.896536
vn 5.036885 -3.755652 -0.027126
v -53.199090 31.999323 -43.358584
vn 5.065051 -3.717961 -0.016500
v -53.684582 31.332784 -42.801472
vn 5.004054 -3.799658 -0.019560
v -52.650025 32.727200 -43.865435
vn 5.007354 -3.795259 -0.028659
v -52.703421 32.649003 -42.767247
vn 4.693187 -4.177428 -0.003924
v -48.317784 38.008663 -47.277352
vn 4.690049 -4.180884 0.045201
v -48.287054 38.052377 -46.234786
vn 4.757644 -4.102930 0.019399
v -48.920261 37.336496 -46.714205
vn 4.931441 -3.893337 -0.010417
v -52.144510 33.344103 -39.620305
vn 4.919349 -3.908593 0.004866
v -51.921006 33.632455 -38.869101
vn 2.424680 -1.997622 -0.006115
v -50.280750 35.652800 -38.000000
vn 4.860432 -3.981738 -0.002337
v -50.508132 35.379732 -38.977215
vn 4.836799 -4.010399 -0.003709
v -49.824946 36.209402 -39.066300
vn 4.800863 -4.053208 -0.010465
v -49.025796 37.167347 -38.779042
vn 4.822212 -4.027985 0.002064
v -49.333382 36.797191 -39.677767
vn 5.058096 -3.727400 0.020801
v -53.861745 31.093594 -40.696739
vn 5.063704 -3.719842 0.002785
v -53.733739 31.264335 -41.698333
vn 5.033071 -3.760813 -0.004182
v -53.387889 31.737155 -41.133362
vn 4.986481 -3.820907 -0.088446
v -53.708817 31.470710 -48.474668
vn 4.986081 -3.820321 -0.145182
v -53.714657 31.428753 -47.478190
vn 5.051632 -3.731593 -0.049739
v -53.788296 31.389104 -49.276982
vn 2.542322 -1.845424 0.007463
v -54.266450 30.718100 -48.996100
vn 2.348775 -2.086330 0.009186
v -47.718350 38.718000 -42.807000
vn 4.752932 -4.108155 -0.038040
v -48.201991 38.174628 -42.461872
vn 4.700124 -4.169744 0.018949
v -48.094354 38.292380 -43.446534
vn 5.020565 -3.776202 -0.109090
v -53.691168 31.362504 -44.877310
vn 4.798340 -4.056254 -0.018145
v -48.279168 38.047829 -40.435566
vn 4.783919 -4.073320 -0.014167
v -48.262578 38.068370 -39.556990
vn 4.804953 -4.048467 0.001939
v -48.829517 37.400746 -40.172824
vn 2.389901 -2.039050 -0.015913
v -48.534200 37.737450 -38.000000
vn 4.780431 -4.077354 -0.032821
v -48.317040 37.997851 -38.752964
vn 4.648730 -4.226834 -0.028283
v -48.556827 37.752772 -49.461526
vn 2.317793 -2.120661 -0.014820
v -48.434050 37.892000 -50.000000
vn 4.804916 -4.047160 -0.100882
v -49.542891 36.621597 -49.275798
vn 4.894358 -3.938797 -0.090918
v -51.744683 33.975857 -49.105415
vn 4.911060 -3.917974 -0.096297
v -51.983700 33.650778 -48.193838
vn 4.924755 -3.900468 -0.106116
v -52.417681 33.130226 -49.073810
vn 2.449464 -1.967150 -0.007199
v -51.555150 34.085100 -38.000000
vn 4.885647 -3.950719 -0.002639
v -51.213582 34.514051 -38.920156
vn 4.870365 -3.969511 -0.017688
v -50.863122 34.942186 -39.920376
vn 4.806025 -4.046607 -0.069002
v -48.263832 38.075769 -41.385043
vn 4.807368 -4.044662 -0.091053
v -48.770052 37.494706 -42.211124
vn 4.835804 -4.010764 -0.059158
v -49.994220 36.026073 -41.374518
vn 4.871401 -3.968076 -0.046892
v -50.630770 35.238667 -41.016303
vn 4.876815 -3.961432 -0.045718
v -50.514551 35.396853 -42.173892
vn 2.496510 -1.904515 -0.099283
v -54.234550 30.718100 -46.886900
vn 5.024184 -3.768953 -0.169503
v -53.805775 31.265073 -46.575693
vn 4.882652 -3.954204 -0.043042
v -50.987019 34.843806 -45.052325
vn 4.896123 -3.937663 -0.033565
v -51.505541 34.194519 -44.683268
vn 4.901513 -3.930870 -0.042479
v -51.517614 34.190413 -45.666607
vn 2.344839 -2.090623 0.025088
v -47.698800 38.718000 -45.748250
vn 4.696445 -4.173743 0.037850
v -48.248328 38.108337 -45.191036
vn 2.530476 -1.861797 -0.002760
v -54.136300 30.718000 -42.243600
vn 5.005144 -3.798216 -0.022113
v -52.826104 32.479202 -41.665529
vn 5.004091 -3.799643 -0.010111
v -53.001442 32.242842 -40.591289
vn 4.945311 -3.873828 -0.099366
v -52.586715 32.855346 -45.929745
vn 4.982268 -3.826568 -0.083092
v -52.605653 32.788912 -44.907315
vn 5.004034 -3.796876 -0.135305
v -53.157450 32.097401 -45.447743
vn 4.947452 -3.872095 -0.018478
v -52.072828 33.487553 -44.297641
vn 4.826938 -4.022274 0.017168
v -49.469172 36.680238 -46.237578
vn 4.821442 -4.028859 0.011104
v -49.373296 36.801976 -45.202238
vn 4.831794 -4.016408 0.023904
v -49.989913 36.058278 -45.815357
vn 4.701721 -4.167922 0.023234
v -48.186559 38.184528 -44.225759
vn 4.881854 -3.955301 -0.038311
v -51.025127 34.775305 -42.937212
vn 4.874725 -3.964134 -0.032478
v -50.448054 35.489633 -43.297165
vn 4.992119 -3.812799 -0.107191
v -53.217662 32.059606 -46.622380
vn 4.949641 -3.869212 -0.090890
v -53.125833 32.199751 -47.839441
vn 4.926308 -3.899367 -0.067376
v -52.542929 32.926807 -47.111110
vn 4.801514 -4.051542 -0.092574
v -50.227563 35.808001 -49.009499
vn 2.390633 -2.038182 -0.017116
v -47.703750 38.718000 -38.854250
vn 2.439522 -1.979169 -0.035073
v -51.475750 34.322850 -50.000000
vn 4.845651 -3.998153 -0.098037
v -51.015607 34.874199 -49.131176
vn 4.804398 -4.048432 -0.077976
v -49.381082 36.758393 -41.829480
vn 4.809260 -4.043133 -0.034438
v -49.424313 36.689060 -40.703266
vn 4.819199 -4.031013 -0.059587
v -49.303939 36.875701 -42.963688
vn 4.890472 -3.944687 -0.031471
v -51.539406 34.146147 -43.641748
vn 4.896182 -3.937339 -0.051681
v -51.624495 34.030411 -42.566061
vn 2.404548 -2.021722 -0.019909
v -47.717100 38.718000 -40.591950
vn 4.848734 -3.995783 -0.028007
v -49.880171 36.189057 -43.675161
vn 4.869879 -3.970063 -0.035328
v -50.435900 35.512162 -44.382329
vn 4.822186 -4.027958 -0.015760
v -49.294436 36.895236 -44.097662
vn 4.908772 -3.921695 -0.043977
v -51.766492 33.834221 -41.495184
vn 4.953136 -3.864629 -0.047839
v -52.239331 33.255779 -42.154244
vn 4.921995 -3.905285 -0.028921
v -51.961574 33.584767 -40.477597
vn 4.966383 -3.848320 -0.017771
v -52.569856 32.810814 -40.080019
vn 4.827439 -4.021532 -0.014346
v -50.589704 35.331416 -46.455765
vn 4.869845 -3.968879 -0.068024
v -51.229302 34.575001 -47.123123
vn 4.820613 -4.029406 -0.062157
v -50.696839 35.215994 -47.474723
vn 4.890452 -3.944540 -0.030660
v -51.310836 34.402781 -40.766363
vn 4.816309 -4.034394 -0.071499
v -50.155829 35.870991 -47.847988
vn 4.820027 -4.029495 -0.092099
v -50.698293 35.230138 -48.355312
vn 4.940792 -3.880261 -0.102283
v -53.126695 32.228042 -48.989446
vn 2.467510 -1.943820 -0.050631
v -52.891700 32.552650 -50.000000
vn 4.761106 -4.099133 0.010086
v -48.757586 37.536395 -44.615381
vn 5.032505 -3.761687 0.023642
v -53.693297 31.333702 -39.011452
vn 2.526317 -1.867390 0.013340
v -54.145300 30.718000 -39.529300
vn 5.003041 -3.801030 0.009126
v -53.150948 32.046872 -39.578170
vn 4.680473 -4.191576 -0.010274
v -48.329586 38.007081 -48.389433
vn 2.330868 -2.106277 0.016053
v -47.683750 38.718000 -48.885650
vn 2.511109 -1.887461 -0.037047
v -54.181600 30.718000 -45.098600
vn 4.906761 -3.923870 -0.066201
v -51.540144 34.170823 -46.538912
vn 4.751540 -4.110370 -0.031326
v -48.955370 37.294851 -47.783398
vn 4.817627 -4.033262 -0.030162
v -49.542471 36.592061 -47.251202
vn 4.800080 -4.053863 -0.061661
v -49.565838 36.579584 -48.335842
vn 4.853338 -3.990220 -0.010288
v -50.487789 35.459602 -45.425987
vn 4.906580 -3.924404 -0.053471
v -52.021250 33.568566 -46.309342
vn 5.040839 -3.748766 -0.120938
v -53.711645 31.361518 -45.760931
vn 4.648975 -4.226641 0.013321
v -48.089934 38.265372 -49.296720
# 163 vertices, 0 vertices normals

f 53//53 54//54 55//55
f 56//56 57//57 58//58
f 59//59 60//60 57//57
f 62//62 63//63 61//61
f 66//66 67//67 68//68
f 69//69 68//68 70//70
f 71//71 72//72 73//73
f 76//76 74//74 77//77
f 78//78 79//79 80//80
f 41//41 56//56 81//81
f 82//82 83//83 84//84
f 28//28 29//29 30//30
f 85//85 69//69 86//86
f 33//33 88//88 87//87
f 90//90 91//91 92//92
f 37//37 36//36 35//35
f 1//1 35//35 36//36
f 93//93 65//65 94//94
f 94//94 95//95 67//67
f 96//96 97//97 79//79
f 98//98 99//99 100//100
f 101//101 75//75 102//102
f 103//103 104//104 105//105
f 106//106 107//107 62//62
f 108//108 58//58 72//72
f 73//73 109//109 110//110
f 111//111 112//112 113//113
f 112//112 114//114 59//59
f 115//115 116//116 117//117
f 38//38 118//118 80//80
f 18//18 17//17 71//71
f 119//119 120//120 100//100
f 121//121 122//122 123//123
f 125//125 86//86 83//83
f 126//126 127//127 90//90
f 98//98 128//128 129//129
f 97//97 128//128 130//130
f 131//131 114//114 104//104
f 131//131 119//119 132//132
f 133//133 82//82 96//96
f 84//84 70//70 129//129
f 134//134 120//120 135//135
f 134//134 136//136 130//130
f 137//137 138//138 132//132
f 60//60 138//138 109//109
f 139//139 64//64 140//140
f 141//141 142//142 143//143
f 144//144 99//99 95//95
f 145//145 143//143 146//146
f 139//139 137//137 144//144
f 92//92 147//147 148//148
f 118//118 149//149 107//107
f 122//122 74//74 147//147
f 36//36 151//151 150//150
f 140//140 152//152 110//110
f 153//153 87//87 163//163
f 136//136 116//116 149//149
f 142//142 156//156 52//52
f 61//61 157//157 153//153
f 102//102 121//121 162//162
f 63//63 115//115 158//158
f 145//145 159//159 158//158
f 159//159 124//124 89//89
f 141//141 117//117 160//160
f 160//160 135//135 103//103
f 113//113 81//81 162//162
f 152//152 54//54 150//150
f 161//161 156//156 105//105
f 161//161 111//111 123//123
f 2//2 53//53 55//55
f 53//53 1//1 54//54
f 24//24 56//56 58//58
f 56//56 41//41 57//57
f 58//58 57//57 5//5
f 41//41 59//59 57//57
f 59//59 4//4 60//60
f 57//57 60//60 5//5
f 61//61 11//11 10//10
f 10//10 62//62 61//61
f 62//62 6//6 63//63
f 61//61 63//63 157//157
f 2//2 55//55 65//65
f 65//65 64//64 49//49
f 14//14 66//66 68//68
f 66//66 13//13 67//67
f 16//16 69//69 70//70
f 69//69 32//32 68//68
f 8//8 71//71 73//73
f 71//71 17//17 72//72
f 73//73 72//72 5//5
f 21//21 76//76 22//22
f 77//77 22//22 76//76
f 20//20 78//78 80//80
f 78//78 27//27 79//79
f 80//80 79//79 38//38
f 24//24 3//3 56//56
f 81//81 56//56 3//3
f 45//45 82//82 84//84
f 82//82 43//43 83//83
f 84//84 83//83 16//16
f 31//31 85//85 86//86
f 85//85 32//32 69//69
f 86//86 69//69 16//16
f 29//29 28//28 163//163
f 33//33 89//89 25//25
f 32//32 14//14 68//68
f 34//34 90//90 92//92
f 90//90 44//44 91//91
f 92//92 91//91 50//50
f 13//13 93//93 94//94
f 93//93 2//2 65//65
f 94//94 65//65 49//49
f 13//13 94//94 67//67
f 94//94 49//49 95//95
f 67//67 95//95 42//42
f 27//27 96//96 79//79
f 96//96 45//45 97//97
f 79//79 97//97 38//38
f 12//12 98//98 100//100
f 98//98 42//42 99//99
f 100//100 99//99 9//9
f 15//15 101//101 102//102
f 101//101 23//23 75//75
f 7//7 103//103 105//105
f 103//103 46//46 104//104
f 105//105 104//104 39//39
f 10//10 106//106 62//62
f 106//106 19//19 107//107
f 62//62 107//107 6//6
f 17//17 108//108 72//72
f 108//108 24//24 58//58
f 72//72 58//58 5//5
f 8//8 73//73 110//110
f 73//73 5//5 109//109
f 110//110 109//109 47//47
f 121//121 111//111 113//113
f 111//111 39//39 112//112
f 113//113 112//112 41//41
f 41//41 112//112 59//59
f 112//112 39//39 114//114
f 59//59 114//114 4//4
f 48//48 115//115 117//117
f 115//115 6//6 116//116
f 117//117 116//116 40//40
f 19//19 20//20 118//118
f 80//80 118//118 20//20
f 151//151 71//71 8//8
f 9//9 119//119 100//100
f 119//119 46//46 120//120
f 100//100 120//120 12//12
f 121//121 75//75 122//122
f 123//123 122//122 50//50
f 124//124 26//26 25//25
f 43//43 125//125 83//83
f 125//125 31//31 86//86
f 83//83 86//86 16//16
f 34//34 126//126 90//90
f 126//126 26//26 127//127
f 90//90 127//127 44//44
f 42//42 98//98 129//129
f 98//98 12//12 128//128
f 129//129 128//128 45//45
f 38//38 97//97 130//130
f 97//97 45//45 128//128
f 130//130 128//128 12//12
f 46//46 131//131 104//104
f 131//131 4//4 114//114
f 104//104 114//114 39//39
f 4//4 131//131 132//132
f 131//131 46//46 119//119
f 132//132 119//119 9//9
f 27//27 133//133 96//96
f 133//133 43//43 82//82
f 96//96 82//82 45//45
f 45//45 84//84 129//129
f 84//84 16//16 70//70
f 129//129 70//70 42//42
f 40//40 134//134 135//135
f 134//134 12//12 120//120
f 135//135 120//120 46//46
f 12//12 134//134 130//130
f 134//134 40//40 136//136
f 130//130 136//136 38//38
f 9//9 137//137 132//132
f 137//137 47//47 138//138
f 132//132 138//138 4//4
f 5//5 60//60 109//109
f 60//60 4//4 138//138
f 109//109 138//138 47//47
f 47//47 139//139 140//140
f 139//139 49//49 64//64
f 140//140 64//64 55//55
f 48//48 141//141 143//143
f 141//141 7//7 142//142
f 143//143 142//142 44//44
f 49//49 144//144 95//95
f 144//144 9//9 99//99
f 95//95 99//99 42//42
f 124//124 145//145 146//146
f 145//145 48//48 143//143
f 146//146 143//143 44//44
f 49//49 139//139 144//144
f 139//139 47//47 137//137
f 144//144 137//137 9//9
f 34//34 92//92 148//148
f 92//92 50//50 147//147
f 148//148 147//147 21//21
f 19//19 118//118 107//107
f 118//118 38//38 149//149
f 107//107 149//149 6//6
f 50//50 122//122 147//147
f 122//122 75//75 74//74
f 147//147 74//74 76//76
f 18//18 71//71 151//151
f 150//150 151//151 8//8
f 47//47 140//140 110//110
f 140//140 55//55 152//152
f 110//110 152//152 8//8
f 11//11 153//153 154//154
f 153//153 51//51 87//87
f 163//163 87//87 88//88
f 36//36 150//150 1//1
f 44//44 127//127 146//146
f 146//146 127//127 124//124
f 38//38 136//136 149//149
f 136//136 40//40 116//116
f 149//149 116//116 6//6
f 81//81 3//3 155//155
f 142//142 7//7 156//156
f 11//11 61//61 153//153
f 153//153 157//157 51//51
f 15//15 102//102 162//162
f 102//102 75//75 121//121
f 157//157 63//63 158//158
f 63//63 6//6 115//115
f 158//158 115//115 48//48
f 48//48 145//145 158//158
f 145//145 124//124 159//159
f 158//158 159//159 157//157
f 51//51 157//157 159//159
f 51//51 159//159 89//89
f 89//89 124//124 25//25
f 7//7 141//141 160//160
f 141//141 48//48 117//117
f 160//160 117//117 40//40
f 7//7 160//160 103//103
f 160//160 40//40 135//135
f 103//103 135//135 46//46
f 121//121 113//113 162//162
f 113//113 41//41 81//81
f 8//8 152//152 150//150
f 152//152 55//55 54//54
f 150//150 54//54 1//1
f 39//39 161//161 105//105
f 161//161 52//52 156//156
f 105//105 156//156 7//7
f 161//161 39//39 111//111
f 123//123 111//111 121//121
f 74//74 75//75 23//23
f 77//77 74//74 23//23
f 65//65 55//55 64//64
f 147//147 76//76 21//21
f 127//127 26//26 124//124
f 33//33 51//51 89//89
f 162//162 155//155 15//15
f 162//162 81//81 155//155
f 52//52 161//161 123//123
f 123//123 91//91 52//52
f 87//87 51//51 33//33
f 44//44 142//142 52//52
f 153//153 163//163 154//154
f 154//154 163//163 28//28
f 88//88 29//29 163//163
f 50//50 91//91 123//123
f 68//68 67//67 42//42
f 70//70 68//68 42//42
f 44//44 52//52 91//91
# 277 faces, 0 coords texture

# End of File
