####
#
# OBJ File Generated by Meshlab
#
####
# Object 316_C76_M_1.obj
#
# Vertices: 128
# Faces: 214
#
####
vn -1.839604 -2.545093 -0.028480
v 17.710600 69.393700 39.650900
vn -3.575042 -5.166270 -0.052862
v 20.437333 67.450850 39.074603
vn -1.773446 -2.593014 -0.025338
v 20.878000 67.157300 38.000000
vn -1.732223 -2.620863 -0.010222
v 22.550200 66.039800 38.000000
vn -3.478950 -5.231926 -0.022225
v 21.731316 66.572083 39.803413
vn -3.570006 -5.170329 -0.022175
v 19.095429 68.421286 48.437452
vn -3.595826 -5.149047 0.059675
v 19.230460 68.357828 46.229789
vn -1.712303 -2.634000 0.016394
v 24.335100 64.867600 43.460900
vn -1.717613 -2.630833 0.008618
v 24.336800 64.870600 44.386200
vn -3.439595 -5.258002 0.028380
v 23.638371 65.321598 43.663221
vn -1.774976 -2.591843 -0.012750
v 20.204600 67.654400 50.000000
vn -3.498931 -5.218654 0.026669
v 22.531979 66.087959 47.930838
vn -1.822606 -2.558706 -0.029129
v 18.822500 68.607100 38.000000
vn -1.773025 -2.593346 -0.016357
v 17.704900 69.383300 47.673400
vn -1.732429 -2.620374 0.002933
v 24.328100 64.855600 41.395800
vn -3.528016 -5.198884 -0.032591
v 20.670738 67.278837 41.203190
vn -0.923103 -1.270522 0.004378
v 24.325300 64.850600 38.000000
vn -1.784293 -2.584707 -0.004799
v 24.034200 65.062100 38.000000
vn -1.733852 -2.621495 0.026426
v 24.341800 64.879200 47.525800
vn -3.500696 -5.216476 0.032014
v 20.762813 67.202985 43.157311
vn -3.476503 -5.233577 0.034266
v 23.149139 65.652194 45.733409
vn -1.754261 -2.606163 0.003055
v 22.098400 66.381900 50.000000
vn -1.739949 -2.613424 0.033140
v 24.335100 64.867600 46.949500
vn -1.839798 -2.547458 -0.023978
v 17.696600 69.369400 41.877400
vn -1.843809 -2.545318 0.005791
v 17.695000 69.366500 42.855100
vn -1.811160 -2.565019 0.048366
v 17.705900 69.385400 45.046500
vn -3.615087 -5.135263 0.110766
v 19.234434 68.257236 44.105644
vn -0.890146 -1.294443 -0.003054
v 17.700800 69.376600 50.000000
vn -1.785361 -2.584950 -0.001366
v 19.756800 67.967100 50.000000
vn -1.777237 -2.590465 -0.020143
v 23.800500 65.227800 50.000000
vn -0.906458 -1.280605 -0.028275
v 24.327600 64.854700 50.000000
vn -1.769727 -2.596343 -0.023142
v 24.335300 64.867900 49.155300
vn -0.910227 -1.279967 -0.003186
v 17.712300 69.396600 38.000000
vn -3.642064 -5.119215 -0.063088
v 19.093972 68.380249 40.307957
vn -3.494605 -5.221410 0.054968
v 22.239624 66.264078 46.041670
vn -3.544730 -5.186392 0.102430
v 20.686537 67.295940 45.168134
vn -3.467786 -5.239226 0.052050
v 22.139553 66.311832 44.325872
vn -1.768742 -2.596491 -0.012431
v 24.326700 64.853100 39.020700
vn -3.521307 -5.203538 0.024681
v 20.840748 67.221092 48.950922
vn -3.558689 -5.177536 0.025456
v 20.693534 67.309576 47.121244
vn -3.480951 -5.230755 -0.012062
v 23.505862 65.404382 39.791525
vn -3.456249 -5.247122 0.000632
v 22.394330 66.131543 41.975992
vn -3.605842 -5.144810 -0.032888
v 19.392083 68.146556 42.302017
vn -1.745518 -2.611951 -0.022007
v 21.714100 66.598550 38.000000
vn -3.467271 -5.239711 -0.028398
v 22.124172 66.316676 38.929409
vn -3.504774 -5.214724 -0.035790
v 21.331984 66.846293 38.904240
vn -3.654460 -5.110639 -0.014256
v 19.950843 67.840787 46.688092
vn -3.632747 -5.123347 0.142818
v 19.964680 67.821597 45.672966
vn -3.589952 -5.155163 0.048799
v 20.664236 67.320295 46.155501
vn -3.591691 -5.154678 -0.071735
v 19.200678 68.362980 47.304289
vn -3.558638 -5.178026 -0.043829
v 18.437683 68.876409 48.032680
vn -3.529049 -5.198207 -0.036309
v 18.466343 68.871536 46.883694
vn -3.506749 -5.213136 -0.037109
v 20.757964 67.211901 42.173561
vn -3.473846 -5.235454 -0.019405
v 21.479542 66.739502 41.572078
vn -3.448922 -5.251826 -0.001732
v 21.546434 66.687594 42.628822
vn -3.551287 -5.183264 0.001345
v 20.194514 67.664110 49.430286
vn -1.754603 -2.605925 0.010374
v 21.151500 67.018150 50.000000
vn -3.496410 -5.220464 0.014843
v 21.576992 66.729441 49.310320
vn -1.731837 -2.621132 -0.003578
v 24.335950 64.869100 45.667850
vn -3.483948 -5.228604 0.026832
v 23.698557 65.289531 46.363400
vn -3.451853 -5.250027 0.005679
v 23.795524 65.226464 45.340262
vn -1.810661 -2.566987 -0.041082
v 19.850250 67.882200 38.000000
vn -3.622506 -5.133174 -0.079963
v 19.600941 68.045103 38.810842
vn -1.843778 -2.543334 -0.039223
v 17.703600 69.381550 40.764150
vn -3.690245 -5.084806 -0.072167
v 18.374318 68.906959 40.005478
vn -3.679529 -5.092639 -0.065244
v 18.435691 68.845038 41.142188
vn -3.489649 -5.224966 0.018484
v 21.607125 66.708057 48.476230
vn -3.510139 -5.211224 0.002324
v 22.401196 66.177839 49.092627
vn -3.455740 -5.247438 0.025768
v 22.873395 65.826545 43.978301
vn -3.445845 -5.253936 0.022356
v 23.413678 65.473437 44.695304
vn -3.475921 -5.233933 0.039954
v 22.659371 65.972137 45.022890
vn -1.754398 -2.606086 -0.002751
v 17.705400 69.384350 46.359950
vn -3.567575 -5.169231 0.108005
v 18.477734 68.865117 45.699970
vn -3.670100 -5.096974 0.144756
v 18.469791 68.821553 44.572823
vn -3.607234 -5.139112 0.234836
v 19.230027 68.308661 45.152957
vn -1.776425 -2.591123 -0.001415
v 18.728800 68.671850 50.000000
vn -3.560162 -5.177196 -0.012179
v 18.430918 68.876564 49.134069
vn -3.559227 -5.177861 0.000782
v 19.269060 68.301889 49.166301
vn -3.494673 -5.221434 0.027052
v 23.577518 65.385437 47.599438
vn -1.824263 -2.557657 -0.007796
v 17.711450 69.395150 38.825450
vn -1.821680 -2.559491 -0.009660
v 18.267400 69.001850 38.000000
vn -3.671463 -5.098607 -0.043340
v 18.306490 68.970044 38.929808
vn -1.745249 -2.612143 -0.020037
v 24.338550 64.873550 48.340550
vn -1.763070 -2.600226 -0.003576
v 22.949450 65.804850 50.000000
vn -3.516410 -5.207030 -0.008663
v 23.199097 65.637728 48.638274
vn -3.440517 -5.257357 0.034053
v 23.854830 65.173104 42.582716
vn -3.454171 -5.248461 0.027727
v 23.065381 65.693989 42.861556
vn -3.460291 -5.244423 -0.000482
v 23.369284 65.488205 41.728707
vn -3.454803 -5.247454 0.069051
v 21.489023 66.731645 43.703946
vn -3.442981 -5.255780 0.030272
v 22.269793 66.219672 43.241507
vn -3.516009 -5.207203 -0.033365
v 21.053973 67.029444 39.690184
vn -3.496201 -5.220535 -0.014104
v 21.264569 66.882011 40.556944
vn -3.553365 -5.181578 -0.028322
v 20.520800 67.385780 40.225368
vn -3.495766 -5.220627 0.055564
v 22.920319 65.816626 46.821035
vn -3.499567 -5.217187 0.108193
v 20.728462 67.246648 44.163768
vn -3.554237 -5.177807 0.173580
v 19.975598 67.766248 44.645395
vn -3.542442 -5.188726 0.058560
v 20.002929 67.726868 43.643726
vn -1.713515 -2.633064 0.021109
v 24.331600 64.861600 42.428350
vn -1.853095 -2.536666 0.031095
v 17.700450 69.375950 43.950800
vn -3.690522 -5.084895 0.031043
v 18.485367 68.796945 43.493632
vn -3.657404 -5.108316 -0.071878
v 18.980601 68.476961 39.213316
vn -3.607059 -5.144292 -0.051217
v 19.757675 67.919609 39.783019
vn -3.449457 -5.251610 -0.014150
v 22.494217 66.071685 39.894596
vn -3.455647 -5.247498 -0.016442
v 22.876626 65.818863 40.860584
vn -3.459722 -5.244815 -0.006983
v 22.054574 66.356930 40.812016
vn -3.477618 -5.232956 -0.009222
v 23.672324 65.293471 40.674436
vn -3.495396 -5.220842 0.058571
v 21.985723 66.424849 45.198874
vn -3.497898 -5.219209 0.054559
v 21.379096 66.836364 45.664850
vn -3.494964 -5.221200 0.052052
v 21.419404 66.818723 46.608604
vn -3.671558 -5.098701 -0.026565
v 18.578208 68.730393 42.336502
vn -3.622087 -5.133324 -0.059793
v 19.217634 68.278293 41.460739
vn -3.488513 -5.225030 0.084268
v 21.413986 66.802278 44.716992
vn -3.452702 -5.249458 -0.015387
v 22.888514 65.815975 38.952846
vn -3.564910 -5.173914 0.017843
v 19.999323 67.797943 48.584090
vn -1.783700 -2.586098 -0.010591
v 17.702850 69.379950 48.836700
vn -3.493854 -5.221926 0.053736
v 22.162804 66.325519 47.011572
vn -1.748337 -2.610155 0.003178
v 24.327400 64.854350 40.208250
vn -1.728378 -2.623415 -0.002572
v 23.292200 65.550950 38.000000
vn -3.488122 -5.225742 -0.028260
v 23.599465 65.347628 38.905317
vn -3.580239 -5.163092 -0.046423
v 19.888220 67.823830 40.821909
vn -3.559652 -5.177265 -0.053134
v 19.994817 67.737375 41.788002
vn -3.526589 -5.199835 0.031456
v 20.749434 67.277629 48.042563
vn -3.489859 -5.224695 0.041184
v 21.547847 66.742359 47.546353
vn -3.600066 -5.149081 -0.023204
v 19.941746 67.832520 47.679969
vn -3.620318 -5.134831 0.000064
v 19.274678 68.227450 43.118480
vn -3.556691 -5.179535 -0.014319
v 20.028455 67.707862 42.704483
vn -3.523055 -5.202534 -0.010728
v 23.342473 65.539298 49.319940
vn -3.509579 -5.211580 -0.023736
v 23.791525 65.237883 48.658752
# 128 vertices, 0 vertices normals

f 44//44 45//45 46//46
f 47//47 48//48 49//49
f 8//8 9//9 10//10
f 50//50 51//51 52//52
f 18//18 17//17 38//38
f 53//53 54//54 55//55
f 11//11 29//29 56//56
f 22//22 57//57 58//58
f 59//59 60//60 61//61
f 62//62 2//2 63//63
f 64//64 65//65 66//66
f 58//58 67//67 68//68
f 69//69 70//70 71//71
f 72//72 73//73 52//52
f 74//74 75//75 73//73
f 76//76 77//77 78//78
f 31//31 30//30 32//32
f 80//80 81//81 82//82
f 85//85 79//79 128//128
f 84//84 68//68 127//127
f 86//86 87//87 88//88
f 89//89 55//55 90//90
f 46//46 91//91 2//2
f 92//92 93//93 91//91
f 60//60 79//79 94//94
f 95//95 96//96 97//97
f 15//15 98//98 86//86
f 99//99 100//100 74//74
f 65//65 82//82 101//101
f 101//101 63//63 102//102
f 103//103 104//104 105//105
f 104//104 106//106 88//88
f 35//35 107//107 71//71
f 108//108 109//109 49//49
f 110//110 66//66 111//111
f 112//112 95//95 89//89
f 108//108 112//112 107//107
f 113//113 103//103 45//45
f 21//21 70//70 61//61
f 78//78 114//114 56//56
f 77//77 115//115 51//51
f 116//116 35//35 94//94
f 41//41 117//117 106//106
f 118//118 119//119 113//113
f 87//87 69//69 90//90
f 120//120 121//121 111//111
f 122//122 123//123 67//67
f 116//116 123//123 109//109
f 50//50 47//47 124//124
f 114//114 124//124 122//122
f 120//120 102//102 93//93
f 96//96 48//48 75//75
f 92//92 105//105 54//54
f 110//110 125//125 100//100
f 121//121 53//53 126//126
f 125//125 126//126 97//97
f 3//3 44//44 46//46
f 44//44 4//4 45//45
f 46//46 45//45 5//5
f 40//40 47//47 49//49
f 47//47 7//7 48//48
f 49//49 48//48 36//36
f 7//7 50//50 52//52
f 50//50 6//6 51//51
f 52//52 51//51 14//14
f 20//20 53//53 55//55
f 53//53 16//16 54//54
f 55//55 54//54 42//42
f 57//57 56//56 39//39
f 57//57 39//39 58//58
f 56//56 57//57 11//11
f 9//9 59//59 61//61
f 59//59 23//23 60//60
f 61//61 60//60 21//21
f 13//13 62//62 63//63
f 62//62 3//3 2//2
f 24//24 64//64 66//66
f 64//64 1//1 65//65
f 66//66 65//65 34//34
f 22//22 58//58 68//68
f 58//58 39//39 67//67
f 68//68 67//67 12//12
f 37//37 69//69 71//71
f 69//69 10//10 70//70
f 71//71 70//70 21//21
f 14//14 72//72 52//52
f 72//72 26//26 73//73
f 52//52 73//73 7//7
f 26//26 74//74 73//73
f 74//74 27//27 75//75
f 73//73 75//75 7//7
f 29//29 76//76 78//78
f 76//76 28//28 77//77
f 23//23 19//19 79//79
f 1//1 80//80 82//82
f 80//80 33//33 81//81
f 82//82 81//81 13//13
f 83//83 128//128 79//79
f 84//84 22//22 68//68
f 127//127 85//85 128//128
f 15//15 86//86 88//88
f 86//86 10//10 87//87
f 88//88 87//87 42//42
f 37//37 89//89 90//90
f 89//89 20//20 55//55
f 90//90 55//55 42//42
f 3//3 46//46 2//2
f 46//46 5//5 91//91
f 5//5 92//92 91//91
f 92//92 16//16 93//93
f 91//91 93//93 2//2
f 21//21 60//60 94//94
f 94//94 79//79 12//12
f 20//20 95//95 97//97
f 95//95 36//36 96//96
f 97//97 96//96 27//27
f 98//98 8//8 86//86
f 10//10 86//86 8//8
f 26//26 99//99 74//74
f 99//99 25//25 100//100
f 74//74 100//100 27//27
f 65//65 1//1 82//82
f 102//102 63//63 2//2
f 5//5 103//103 105//105
f 103//103 41//41 104//104
f 105//105 104//104 42//42
f 42//42 104//104 88//88
f 104//104 41//41 106//106
f 88//88 106//106 15//15
f 21//21 35//35 71//71
f 71//71 107//107 37//37
f 36//36 108//108 49//49
f 108//108 35//35 109//109
f 49//49 109//109 40//40
f 43//43 110//110 111//111
f 110//110 24//24 66//66
f 111//111 66//66 34//34
f 37//37 112//112 89//89
f 112//112 36//36 95//95
f 89//89 95//95 20//20
f 35//35 108//108 107//107
f 108//108 36//36 112//112
f 107//107 112//112 37//37
f 4//4 113//113 45//45
f 113//113 41//41 103//103
f 45//45 103//103 5//5
f 70//70 9//9 61//61
f 9//9 70//70 10//10
f 29//29 78//78 56//56
f 78//78 6//6 114//114
f 56//56 114//114 39//39
f 51//51 115//115 14//14
f 12//12 116//116 94//94
f 94//94 35//35 21//21
f 41//41 38//38 117//117
f 106//106 117//117 15//15
f 4//4 118//118 113//113
f 118//118 18//18 119//119
f 113//113 119//119 41//41
f 42//42 87//87 90//90
f 87//87 10//10 69//69
f 90//90 69//69 37//37
f 25//25 24//24 110//110
f 34//34 120//120 111//111
f 120//120 16//16 121//121
f 111//111 121//121 43//43
f 39//39 122//122 67//67
f 122//122 40//40 123//123
f 67//67 123//123 12//12
f 35//35 116//116 109//109
f 116//116 12//12 123//123
f 109//109 123//123 40//40
f 50//50 7//7 47//47
f 124//124 47//47 40//40
f 39//39 114//114 122//122
f 122//122 124//124 40//40
f 16//16 120//120 93//93
f 120//120 34//34 102//102
f 93//93 102//102 2//2
f 27//27 96//96 75//75
f 96//96 36//36 48//48
f 75//75 48//48 7//7
f 18//18 38//38 119//119
f 41//41 119//119 38//38
f 16//16 92//92 54//54
f 92//92 5//5 105//105
f 54//54 105//105 42//42
f 25//25 110//110 100//100
f 110//110 43//43 125//125
f 100//100 125//125 27//27
f 43//43 121//121 126//126
f 121//121 16//16 53//53
f 126//126 53//53 20//20
f 27//27 125//125 97//97
f 125//125 43//43 126//126
f 97//97 126//126 20//20
f 101//101 82//82 13//13
f 101//101 13//13 63//63
f 77//77 28//28 115//115
f 34//34 65//65 101//101
f 34//34 101//101 102//102
f 85//85 68//68 12//12
f 60//60 23//23 79//79
f 6//6 50//50 124//124
f 114//114 6//6 124//124
f 79//79 85//85 12//12
f 83//83 79//79 19//19
f 127//127 68//68 85//85
f 32//32 128//128 83//83
f 30//30 84//84 127//127
f 30//30 127//127 32//32
f 128//128 32//32 127//127
f 6//6 78//78 77//77
f 6//6 77//77 51//51
# 214 faces, 0 coords texture

# End of File
