####
#
# OBJ File Generated by Meshlab
#
####
# Object 348_C80_M_1.obj
#
# Vertices: 126
# Faces: 210
#
####
vn -1.931791 -2.479335 0.096135
v 19.399000 72.318000 40.794700
vn -1.984069 -2.435177 0.043103
v 20.191900 71.744300 50.000000
vn -1.925410 -2.481599 0.009805
v 22.157400 70.132000 50.000000
vn -1.937762 -2.468653 0.117870
v 19.402500 72.324100 40.957800
vn -1.976854 -2.436466 0.075274
v 19.451500 72.408900 43.616500
vn -1.853484 -2.533295 0.011314
v 25.791100 67.389500 47.865500
vn -1.878903 -2.517093 0.053205
v 23.938300 68.814600 50.000000
vn -3.879933 -4.940910 -0.081639
v 22.535566 69.886845 44.828858
vn -3.930395 -4.900205 -0.031737
v 22.827503 69.708828 42.842190
vn -2.002608 -2.421909 0.027460
v 19.414200 72.344400 47.879000
vn -1.936277 -2.474439 0.062478
v 19.396600 72.313800 40.557800
vn -2.001768 -2.408465 -0.039393
v 19.455800 72.416300 44.093800
vn -3.934012 -4.894656 -0.139935
v 20.821799 71.205206 45.585551
vn -1.937307 -2.471154 0.072538
v 20.670200 71.243600 38.000000
vn -3.825401 -4.982030 0.155152
v 21.942756 70.296868 39.002355
vn -2.012510 -2.419193 -0.044569
v 19.413000 72.342300 46.651500
vn -1.884209 -2.511745 -0.047731
v 25.798900 67.402900 45.871900
vn -1.860822 -2.533799 -0.003423
v 25.807100 67.417100 44.973400
vn -3.824776 -4.984624 -0.044811
v 22.149955 70.164183 46.768951
vn -3.893478 -4.929431 0.005756
v 21.305992 70.794954 48.210377
vn -1.880618 -2.514531 0.056673
v 22.337800 69.963400 38.000000
vn -1.883140 -2.512684 -0.047977
v 23.946800 68.814900 38.000000
vn -0.923070 -1.270140 0.011118
v 25.792600 67.392100 38.000000
vn -1.876404 -2.519074 0.009594
v 25.585100 67.542900 38.000000
vn -1.856741 -2.534872 0.018207
v 25.793800 67.394100 38.328100
vn -0.983273 -1.227422 0.025650
v 19.378900 72.283200 38.000000
vn -1.874083 -2.521522 0.002069
v 25.794100 67.394600 40.268000
vn -1.851495 -2.539587 0.013931
v 25.803400 67.410800 42.650700
vn -3.862680 -4.955060 0.024629
v 24.137200 68.643911 41.494540
vn -1.882105 -2.512758 0.023149
v 25.793650 67.393850 41.390300
vn -0.982792 -1.223495 0.014198
v 19.423900 72.361200 50.000000
vn -0.937751 -1.262065 0.027997
v 25.807100 67.417200 50.000000
vn -3.779808 -5.016769 0.010692
v 24.856117 68.073543 47.853461
vn -3.816278 -4.986699 -0.006244
v 24.167393 68.591518 43.822256
vn -3.825487 -4.981454 0.170605
v 21.107781 70.993015 40.701007
vn -3.852794 -4.962341 0.047793
v 21.598151 70.674384 42.606402
vn -3.811910 -4.994499 -0.029470
v 23.147122 69.401536 48.000941
vn -3.943750 -4.889539 0.003440
v 20.624006 71.338130 47.609576
vn -3.867879 -4.949478 0.128362
v 22.615395 69.844437 40.961054
vn -3.806627 -4.998326 -0.014723
v 24.061181 68.714591 46.034682
vn -3.910407 -4.916830 -0.071527
v 21.288756 70.912342 43.584853
vn -3.878172 -4.939579 0.190801
v 20.184665 71.745454 41.870883
vn -3.974711 -4.865211 0.080852
v 19.805137 72.042708 48.943732
vn -4.007268 -4.838688 0.079069
v 20.072559 71.801393 48.062129
vn -3.989712 -4.852610 0.108126
v 20.329926 71.606207 48.921040
vn -3.975367 -4.864539 0.103836
v 20.926039 71.126087 49.128551
vn -1.953451 -2.457794 0.113494
v 19.427000 72.366500 42.287150
vn -3.934025 -4.895295 0.188374
v 20.022567 71.920113 42.879001
vn -3.880857 -4.939672 0.120622
v 20.000797 71.820836 39.839047
vn -3.988181 -4.852163 -0.037928
v 20.327678 71.697727 43.786503
vn -3.851408 -4.962999 0.102010
v 23.092617 69.449765 40.113323
vn -3.846798 -4.967200 0.019000
v 23.902963 68.810536 40.108705
vn -3.895553 -4.929216 0.074030
v 23.673216 69.004307 40.991177
vn -1.912712 -2.491071 0.075522
v 21.504000 70.603500 38.000000
vn -2.024824 -2.399795 -0.103324
v 19.434400 72.379300 45.372650
vn -4.028686 -4.816753 -0.214775
v 20.174266 71.775202 44.904443
vn -4.013036 -4.831799 -0.145877
v 20.074958 71.809953 46.043249
vn -1.854959 -2.535378 -0.024299
v 25.795000 67.396200 46.868700
vn -3.751440 -5.039353 -0.079773
v 25.270684 67.779297 46.921810
vn -3.767521 -5.026356 0.105165
v 22.745260 69.682533 39.058424
vn -1.919146 -2.486890 -0.042481
v 24.765950 68.178900 38.000000
vn -3.806089 -4.998513 -0.063000
v 24.402529 68.436331 39.109384
vn -1.955032 -2.458782 0.042944
v 19.387750 72.298500 39.278900
vn -1.968494 -2.447683 0.059034
v 20.024550 71.763400 38.000000
vn -1.868760 -2.525339 0.002016
v 25.793950 67.394350 39.298050
vn -3.756396 -5.036604 0.001132
v 25.187358 67.843887 39.718840
vn -3.779437 -5.018957 -0.018852
v 25.268253 67.782569 38.728429
vn -3.754886 -5.037721 0.020475
v 25.121718 67.895552 40.781849
vn -3.774968 -5.022623 -0.006768
v 24.564153 68.309104 40.165811
vn -3.827161 -4.980664 0.152940
v 21.151831 70.993524 41.647376
vn -3.890290 -4.932223 0.114762
v 20.771517 71.311846 42.739854
vn -1.836582 -2.548806 0.000253
v 23.142300 69.389150 38.000000
vn -1.867918 -2.525107 0.065727
v 23.047850 69.473300 50.000000
vn -3.756376 -5.035574 0.041814
v 23.059619 69.453647 49.579425
vn -3.832391 -4.976634 0.155536
v 21.135588 70.916087 38.975890
vn -1.834114 -2.550597 0.009330
v 25.805250 67.413950 43.812050
vn -3.686025 -5.087811 0.059110
v 24.966013 68.019268 44.376043
vn -3.804799 -5.000090 -0.030239
v 23.033699 69.494201 46.388058
vn -3.792783 -5.009190 -0.031037
v 22.730445 69.721071 47.285660
vn -3.997375 -4.847091 -0.023016
v 20.015531 71.840456 47.124959
vn -3.913763 -4.914283 -0.061933
v 20.694643 71.293814 46.610354
vn -3.746099 -5.044058 0.021019
v 25.030451 67.973612 41.908742
vn -1.967372 -2.449132 0.028396
v 19.419050 72.352800 48.939500
vn -3.791181 -5.009501 -0.100655
v 24.916942 68.063067 46.206692
vn -3.744191 -5.044651 0.008781
v 24.955540 68.047514 45.409296
vn -3.821343 -4.986620 -0.085030
v 24.449388 68.400197 46.959407
vn -3.786521 -5.012038 0.096765
v 24.129529 68.640828 44.917462
vn -3.837648 -4.972615 0.154001
v 20.723414 71.262307 39.901224
vn -3.944551 -4.885867 -0.206171
v 21.019902 71.090975 44.576786
vn -3.980060 -4.860568 -0.100267
v 23.481197 69.164834 43.295594
vn -3.959815 -4.877549 0.007453
v 23.547068 69.124071 42.207377
vn -3.909710 -4.917867 0.084066
v 22.804252 69.711438 41.890073
vn -3.804056 -5.000393 -0.048116
v 22.127879 70.169653 47.909342
vn -3.865760 -4.950929 -0.127859
v 21.668816 70.553472 45.214527
vn -3.897167 -4.925658 -0.163172
v 21.887182 70.420804 44.250687
vn -3.888610 -4.933393 0.025995
v 21.764316 70.438094 49.095057
vn -1.992108 -2.428816 0.044328
v 21.174650 70.938150 50.000000
vn -3.914415 -4.913090 -0.024064
v 23.372665 69.222257 44.358941
vn -3.939400 -4.892767 -0.140100
v 22.700889 69.783091 43.828676
vn -3.847747 -4.966777 -0.063998
v 21.357879 70.774091 47.176471
vn -3.847567 -4.967093 -0.051221
v 21.487897 70.683058 46.184244
vn -3.839661 -4.972851 0.024730
v 23.263714 69.326624 45.409051
vn -3.747504 -5.041764 0.121562
v 25.266134 67.806348 49.422746
vn -3.825178 -4.981618 0.172745
v 21.822183 70.449290 40.841948
vn -3.859007 -4.956373 0.123266
v 22.057016 70.301406 41.735629
vn -3.791308 -5.010136 0.030485
v 23.670051 68.997643 48.964389
vn -3.847766 -4.966948 -0.006973
v 24.010507 68.730392 47.882959
vn -1.860024 -2.531262 0.051103
v 25.799100 67.403350 48.932750
vn -3.826778 -4.983104 -0.047673
v 22.353285 70.017329 45.807036
vn -3.825601 -4.981680 0.161409
v 21.521926 70.649698 39.928836
vn -3.824972 -4.982124 0.162613
v 22.303863 70.052309 40.016288
vn -3.888720 -4.934809 0.044154
v 22.265820 70.148425 42.496600
vn -3.897220 -4.927409 -0.076504
v 22.092210 70.283919 43.294410
vn -1.880578 -2.515639 0.067786
v 24.872700 68.115900 50.000000
vn -3.788012 -5.012755 -0.040564
v 22.671936 69.752307 48.950455
vn -3.687070 -5.087503 -0.008571
v 24.951546 68.025771 43.178185
vn -3.845159 -4.966147 0.171184
v 20.314013 71.610678 40.939570
vn -3.774255 -5.022794 -0.016089
v 23.524593 69.106587 39.082327
vn -3.884844 -4.936235 0.132271
v 20.410169 71.478161 38.992864
vn -3.921091 -4.908518 0.097654
v 19.882148 71.898335 38.874817
vn -3.976255 -4.863787 0.104745
v 20.631668 71.347457 48.371805
vn -3.731958 -5.053452 0.111181
v 25.184371 67.846913 48.596075
vn -3.859463 -4.954609 -0.053950
v 24.189428 68.588147 42.639143
vn -3.800026 -5.002829 0.045635
v 24.462725 68.385737 40.949891
vn -3.823663 -4.985539 -0.037157
v 23.522412 69.121293 46.728804
vn -3.787002 -5.012390 0.101810
v 24.448099 68.406547 49.012459
# 126 vertices, 0 vertices normals

f 43//43 44//44 45//45
f 51//51 52//52 53//53
f 54//54 15//15 75//75
f 55//55 56//56 57//57
f 17//17 58//58 59//59
f 24//24 23//23 25//25
f 61//61 67//67 62//62
f 65//65 66//66 67//67
f 68//68 69//69 66//66
f 117//117 11//11 49//49
f 73//73 3//3 74//74
f 76//76 77//77 116//116
f 78//78 125//125 79//79
f 80//80 57//57 81//81
f 38//38 44//44 80//80
f 30//30 82//82 68//68
f 10//10 43//43 83//83
f 40//40 85//85 84//84
f 59//59 86//86 84//84
f 85//85 87//87 77//77
f 49//49 88//88 117//117
f 56//56 50//50 89//89
f 90//90 91//91 123//123
f 92//92 53//53 91//91
f 94//94 89//89 95//95
f 42//42 4//4 117//117
f 96//96 97//97 46//46
f 98//98 99//99 90//90
f 100//100 81//81 101//101
f 98//98 87//87 102//102
f 50//50 48//48 71//71
f 70//70 104//104 105//105
f 106//106 107//107 126//126
f 32//32 103//103 108//108
f 94//94 109//109 101//101
f 75//75 110//110 88//88
f 51//51 111//111 60//60
f 112//112 105//105 92//92
f 112//112 113//113 36//36
f 32//32 114//114 103//103
f 96//96 93//93 115//115
f 102//102 78//78 109//109
f 104//104 110//110 111//111
f 115//115 106//106 74//74
f 20//20 100//100 93//93
f 86//86 107//107 125//125
f 113//113 99//99 95//95
f 43//43 10//10 44//44
f 45//45 44//44 121//121
f 38//38 20//20 121//121
f 5//5 47//47 48//48
f 47//47 4//4 42//42
f 48//48 47//47 42//42
f 4//4 1//1 117//117
f 11//11 117//117 1//1
f 12//12 5//5 50//50
f 39//39 51//51 53//53
f 51//51 118//118 52//52
f 14//14 54//54 75//75
f 54//54 21//21 15//15
f 16//16 55//55 57//57
f 55//55 12//12 56//56
f 57//57 56//56 13//13
f 58//58 6//6 59//59
f 33//33 59//59 6//6
f 15//15 21//21 60//60
f 22//22 61//61 62//62
f 61//61 24//24 67//67
f 11//11 63//63 49//49
f 63//63 26//26 120//120
f 49//49 63//63 120//120
f 64//64 14//14 119//119
f 25//25 65//65 67//67
f 65//65 27//27 66//66
f 67//67 66//66 62//62
f 27//27 68//68 66//66
f 66//66 69//69 62//62
f 42//42 70//70 71//71
f 71//71 70//70 36//36
f 60//60 21//21 72//72
f 118//118 72//72 22//22
f 24//24 25//25 67//67
f 106//106 7//7 74//74
f 120//120 64//64 119//119
f 28//28 76//76 116//116
f 76//76 18//18 77//77
f 19//19 78//78 79//79
f 38//38 80//80 81//81
f 80//80 16//16 57//57
f 81//81 57//57 13//13
f 44//44 10//10 80//80
f 16//16 80//80 10//10
f 82//82 30//30 28//28
f 27//27 30//30 68//68
f 68//68 82//82 124//124
f 43//43 31//31 83//83
f 31//31 43//43 2//2
f 18//18 17//17 85//85
f 84//84 85//85 17//17
f 17//17 59//59 84//84
f 59//59 33//33 86//86
f 84//84 86//86 40//40
f 18//18 85//85 77//77
f 85//85 40//40 87//87
f 77//77 87//87 34//34
f 117//117 88//88 35//35
f 13//13 56//56 89//89
f 56//56 12//12 50//50
f 89//89 50//50 41//41
f 90//90 9//9 91//91
f 9//9 92//92 91//91
f 92//92 39//39 53//53
f 93//93 19//19 79//79
f 93//93 79//79 37//37
f 118//118 62//62 52//52
f 29//29 53//53 124//124
f 8//8 94//94 95//95
f 94//94 13//13 89//89
f 95//95 89//89 41//41
f 20//20 96//96 46//46
f 96//96 3//3 97//97
f 46//46 97//97 2//2
f 34//34 98//98 90//90
f 98//98 8//8 99//99
f 90//90 99//99 9//9
f 19//19 100//100 101//101
f 100//100 38//38 81//81
f 101//101 81//81 13//13
f 8//8 98//98 102//102
f 98//98 34//34 87//87
f 102//102 87//87 40//40
f 33//33 122//122 126//126
f 41//41 50//50 71//71
f 50//50 5//5 48//48
f 71//71 48//48 42//42
f 36//36 70//70 105//105
f 70//70 35//35 104//104
f 105//105 104//104 39//39
f 106//106 37//37 107//107
f 126//126 107//107 33//33
f 33//33 6//6 122//122
f 13//13 94//94 101//101
f 94//94 8//8 109//109
f 101//101 109//109 19//19
f 75//75 15//15 110//110
f 88//88 110//110 35//35
f 118//118 51//51 60//60
f 51//51 39//39 111//111
f 60//60 111//111 15//15
f 9//9 112//112 92//92
f 112//112 36//36 105//105
f 92//92 105//105 39//39
f 112//112 9//9 113//113
f 36//36 113//113 41//41
f 7//7 126//126 114//114
f 3//3 96//96 115//115
f 96//96 20//20 93//93
f 115//115 93//93 37//37
f 8//8 102//102 109//109
f 109//109 78//78 19//19
f 39//39 104//104 111//111
f 104//104 35//35 110//110
f 111//111 110//110 15//15
f 3//3 115//115 74//74
f 115//115 37//37 106//106
f 20//20 38//38 100//100
f 93//93 100//100 19//19
f 40//40 86//86 125//125
f 86//86 33//33 107//107
f 41//41 113//113 95//95
f 113//113 9//9 99//99
f 95//95 99//99 8//8
f 41//41 71//71 36//36
f 116//116 123//123 82//82
f 28//28 116//116 82//82
f 34//34 116//116 77//77
f 116//116 34//34 123//123
f 120//120 26//26 64//64
f 70//70 42//42 117//117
f 2//2 43//43 45//45
f 62//62 118//118 22//22
f 49//49 119//119 88//88
f 7//7 73//73 74//74
f 88//88 119//119 75//75
f 119//119 14//14 75//75
f 45//45 46//46 2//2
f 49//49 120//120 119//119
f 118//118 60//60 72//72
f 45//45 121//121 46//46
f 103//103 114//114 126//126
f 121//121 44//44 38//38
f 121//121 20//20 46//46
f 123//123 91//91 29//29
f 52//52 62//62 69//69
f 82//82 123//123 29//29
f 122//122 103//103 126//126
f 122//122 6//6 108//108
f 108//108 103//103 122//122
f 34//34 90//90 123//123
f 70//70 117//117 35//35
f 78//78 40//40 125//125
f 29//29 91//91 53//53
f 68//68 124//124 69//69
f 79//79 125//125 37//37
f 124//124 82//82 29//29
f 52//52 124//124 53//53
f 124//124 52//52 69//69
f 126//126 7//7 106//106
f 125//125 107//107 37//37
f 102//102 40//40 78//78
# 210 faces, 0 coords texture

# End of File
