####
#
# OBJ File Generated by Meshlab
#
####
# Object 358_C81_M_3.obj
#
# Vertices: 156
# Faces: 268
#
####
vn 5.176805 -3.560718 0.002075
v -58.037201 32.376910 44.891983
vn 2.587900 -1.777873 -0.054591
v -58.533700 31.781100 38.000000
vn 5.131631 -3.624368 -0.082545
v -57.818864 32.741391 39.623320
vn 5.118178 -3.644118 0.006669
v -57.326326 33.403300 47.134735
vn 5.081586 -3.694981 0.043185
v -57.081509 33.751207 49.208602
vn 4.980284 -3.825163 -0.038769
v -55.268170 36.237391 48.536597
vn 5.075556 -3.703622 0.004986
v -56.246182 34.885954 47.877766
vn 2.593199 -1.764820 -0.044422
v -59.216700 30.718000 39.541800
vn 2.598703 -1.775116 -0.030091
v -59.197500 30.718000 40.731200
vn 2.469917 -1.947963 -0.046135
v -53.320300 38.718000 42.079100
vn 2.545674 -1.840435 -0.031806
v -57.156100 33.699300 38.000000
vn 5.007261 -3.794097 0.014577
v -55.304431 36.178405 44.554203
vn 5.044707 -3.744547 -0.039844
v -55.908234 35.375968 41.379808
vn 2.614368 -1.762396 -0.000501
v -59.157400 30.718000 45.465100
vn 2.463975 -1.946971 -0.029177
v -53.360200 38.718000 39.518300
vn 2.423413 -2.008053 -0.014594
v -53.263200 38.718000 46.511900
vn 5.003787 -3.799063 -0.004203
v -55.276555 36.207414 46.729832
vn 1.208170 -0.989620 -0.021740
v -53.222000 38.718000 50.000000
vn 2.422777 -2.004321 -0.029282
v -53.246600 38.718000 48.257000
vn 2.521705 -1.873397 -0.017614
v -55.655900 35.742000 38.000000
vn 2.593658 -1.764245 0.017268
v -59.181000 30.719600 47.679400
vn 2.558224 -1.821687 0.039395
v -57.450300 33.262300 50.000000
vn 2.519001 -1.876946 -0.020069
v -55.931400 35.322300 50.000000
vn 1.251749 -0.966133 -0.021683
v -53.386500 38.718000 38.000000
vn 2.589403 -1.773978 -0.020745
v -59.183100 30.718000 43.105800
vn 2.417160 -1.984457 -0.011629
v -53.264300 38.718000 44.546800
vn 5.082961 -3.693164 -0.003690
v -56.429959 34.645456 43.421864
vn 1.309318 -0.859582 -0.013163
v -59.229300 30.718000 38.000000
vn 2.448598 -1.967662 -0.062355
v -54.586500 37.042400 50.000000
vn 2.590140 -1.777679 0.024872
v -57.619800 33.015400 50.000000
vn 5.171241 -3.568640 0.025117
v -58.166962 32.207883 48.321203
vn 2.612443 -1.744269 0.011981
v -58.922900 31.116000 50.000000
vn 1.314574 -0.858546 0.004292
v -59.181500 30.718000 50.000000
vn 5.136577 -3.618103 0.009475
v -57.436325 33.246077 45.125000
vn 5.024166 -3.772603 -0.047573
v -55.275420 36.234313 39.739721
vn 5.075937 -3.702958 -0.008821
v -56.349772 34.756111 45.805873
vn 2.499736 -1.902617 -0.015327
v -54.612700 37.129300 38.000000
vn 4.926664 -3.899166 -0.016366
v -54.277325 37.485175 43.371008
vn 4.896737 -3.935268 -0.009747
v -54.268273 37.510721 45.600320
vn 5.080052 -3.697063 -0.041662
v -56.516081 34.557376 39.651368
vn 4.999161 -3.805924 -0.018407
v -55.217579 36.274821 42.516306
vn 5.141645 -3.611269 -0.010684
v -57.764398 32.767027 43.171961
vn 5.116531 -3.646532 -0.041466
v -57.133106 33.676670 41.369518
vn 4.876299 -3.961396 -0.051477
v -54.163648 37.612816 47.984305
vn 5.160223 -3.584342 -0.048791
v -58.329608 31.978090 41.261543
vn 5.183268 -3.551183 0.024183
v -58.272272 32.038027 46.444125
vn 4.944174 -3.875936 -0.057306
v -53.926823 37.998789 40.196350
vn 5.173755 -3.565081 -0.013189
v -58.234872 32.091447 44.019006
vn 2.551516 -1.832431 -0.039578
v -57.844900 32.740200 38.000000
vn 5.103878 -3.663718 -0.077577
v -57.496733 33.207433 38.813119
vn 5.136609 -3.615682 -0.122753
v -58.176581 32.261019 38.802866
vn 5.078485 -3.699574 -0.000883
v -56.795247 34.132385 47.495278
vn 5.070090 -3.711101 0.017405
v -56.692361 34.278770 48.497978
vn 5.103619 -3.664473 0.017405
v -57.259315 33.501267 48.176413
vn 5.020072 -3.774800 -0.086111
v -55.559805 35.835084 49.166847
vn 5.078681 -3.699328 0.007388
v -56.119972 35.061245 48.876357
vn 5.085279 -3.690206 0.019798
v -55.717248 35.616977 48.246907
vn 5.178347 -3.557994 -0.059520
v -58.695431 31.459947 40.439573
vn 5.183467 -3.550815 -0.040284
v -58.799613 31.293896 41.258554
vn 2.598643 -1.765210 -0.026196
v -59.170250 30.718000 44.285450
vn 5.188242 -3.543810 -0.042967
v -58.832232 31.218397 44.047174
vn 2.455284 -1.959133 -0.054606
v -53.292300 38.718000 43.312950
vn 4.876306 -3.961236 -0.044218
v -53.769350 38.104368 43.896965
vn 4.926540 -3.898818 -0.072715
v -53.829598 38.058846 42.784522
vn 2.420024 -2.003139 -0.022934
v -53.254900 38.718000 47.384450
vn 4.842369 -4.003279 -0.058681
v -53.575985 38.321209 48.163749
vn 4.843333 -4.002333 -0.042921
v -53.710805 38.169666 47.168089
vn 2.435719 -1.983492 -0.051333
v -53.904250 37.880200 50.000000
vn 4.874771 -3.962974 -0.099058
v -54.352750 37.353177 49.082931
vn 4.859254 -3.982190 -0.087124
v -53.739977 38.106437 49.052942
vn 2.510896 -1.888064 -0.014905
v -55.134300 36.435650 38.000000
vn 5.015915 -3.783878 -0.034120
v -54.935460 36.693169 38.877898
vn 5.038231 -3.753976 -0.038514
v -55.508759 35.930923 38.851573
vn 2.599735 -1.763572 0.028240
v -59.169200 30.718800 46.572250
vn 5.209412 -3.512645 0.021581
v -58.732519 31.351626 45.866132
vn 5.192376 -3.537731 0.042917
v -58.704604 31.410673 47.030595
vn 2.529445 -1.863057 0.023051
v -56.690850 34.292300 50.000000
vn 5.064062 -3.719242 0.025991
v -56.523289 34.512326 49.351388
vn 4.977876 -3.833394 -0.043708
v -54.411306 37.385813 38.805486
vn 2.592467 -1.774401 -0.014958
v -59.190300 30.718000 41.918500
vn 5.174833 -3.563408 -0.033937
v -58.682071 31.459056 42.139199
vn 5.121970 -3.638527 -0.062010
v -57.469499 33.218267 40.472197
vn 5.138099 -3.615930 -0.052418
v -57.741205 32.813665 41.315423
vn 5.155072 -3.591439 -0.065765
v -58.092940 32.332672 40.433495
vn 5.083955 -3.691542 -0.052048
v -56.818034 34.152951 38.817752
vn 5.105278 -3.662081 -0.059157
v -57.162367 33.656562 39.639734
vn 5.209272 -3.510236 -0.111977
v -58.825727 31.320732 38.783057
vn 2.623201 -1.728572 -0.021437
v -59.223000 30.718000 38.770900
vn 2.474526 -1.933506 -0.088767
v -55.258950 36.182350 50.000000
vn 4.914801 -3.911382 -0.137364
v -54.964891 36.596021 49.197484
vn 5.141498 -3.611267 0.021179
v -57.569667 33.050657 44.131590
vn 5.170518 -3.567787 -0.108728
v -58.478440 31.786502 39.595518
vn 4.957563 -3.860114 0.006248
v -54.780418 36.852178 45.060083
vn 4.956274 -3.861621 -0.031570
v -54.764582 36.869283 46.183600
vn 5.011328 -3.789345 -0.013575
v -55.298642 36.181982 45.649248
vn 2.415224 -2.009054 -0.001310
v -53.263750 38.718000 45.529350
vn 4.837882 -4.009021 -0.022822
v -53.753068 38.129402 46.101594
vn 4.836276 -4.011046 0.010642
v -53.764324 38.116536 45.026346
vn 5.149692 -3.599484 0.039234
v -57.763361 32.793129 49.063839
vn 5.150083 -3.599159 0.027444
v -57.766251 32.779515 47.805909
vn 4.897152 -3.935552 0.024301
v -54.270927 37.500209 44.464326
vn 4.954938 -3.862123 -0.091737
v -54.038817 37.802269 41.833579
vn 4.955256 -3.862942 -0.035632
v -54.327312 37.427240 42.490979
vn 5.130506 -3.626986 -0.033217
v -57.425707 33.254732 42.271955
vn 5.147497 -3.602812 -0.032777
v -58.035098 32.389763 42.205393
vn 4.996688 -3.808695 -0.055343
v -54.592853 37.137247 39.804187
vn 5.186481 -3.546544 0.029304
v -58.622063 31.540382 48.085709
vn 5.178910 -3.557605 0.023730
v -58.441550 31.812355 49.090958
vn 5.211025 -3.510158 0.016793
v -58.941895 31.079572 48.939213
vn 2.588321 -1.780437 0.015316
v -58.271350 32.065700 50.000000
vn 2.617920 -1.736692 -0.000633
v -59.181250 30.718800 48.839700
vn 5.074727 -3.704416 -0.030529
v -56.217606 34.959305 40.511942
vn 5.052240 -3.735271 -0.027909
v -55.884943 35.411566 39.679845
vn 5.023201 -3.773816 -0.036578
v -55.605455 35.786787 40.561223
vn 4.892930 -3.941039 -0.029511
v -54.781405 36.843775 48.305287
vn 4.993831 -3.810255 0.038905
v -55.265419 36.232835 47.723860
vn 4.928295 -3.897097 -0.007036
v -54.734573 36.892792 47.293209
vn 4.983853 -3.824606 -0.096566
v -54.351589 37.432564 40.894882
vn 5.005468 -3.797115 -0.070958
v -54.980688 36.603058 40.693197
vn 4.996886 -3.808844 -0.044127
v -55.321134 36.144353 41.490972
vn 5.070992 -3.709789 -0.021143
v -56.311240 34.802727 46.861574
vn 5.057305 -3.728507 -0.017701
v -55.808073 35.488753 46.248173
vn 5.069157 -3.712254 0.008201
v -55.772045 35.532110 47.281428
vn 2.482054 -1.925705 -0.025408
v -53.999600 37.923650 38.000000
vn 2.479725 -1.928510 -0.037350
v -53.373350 38.718000 38.759150
vn 4.953803 -3.864891 0.028551
v -54.768979 36.859921 43.960141
vn 5.097258 -3.673557 -0.031804
v -56.510544 34.540623 41.388456
vn 5.101703 -3.667249 -0.047587
v -56.838082 34.098406 40.495253
vn 5.060282 -3.724486 -0.006457
v -55.832028 35.460793 45.156230
vn 5.173765 -3.564973 0.032060
v -58.226786 32.112802 47.421736
vn 5.098416 -3.672130 0.003157
v -56.885104 34.013700 45.428031
vn 5.089805 -3.684010 -0.009852
v -56.848724 34.065048 46.473950
vn 5.130494 -3.626653 0.002994
v -57.367378 33.345817 46.131171
vn 5.003931 -3.799103 0.035004
v -55.264737 36.218612 43.519663
vn 4.964121 -3.851567 -0.008374
v -54.747265 36.880125 42.937700
vn 5.055775 -3.730452 0.024068
v -55.832878 35.459037 44.044881
vn 5.037555 -3.754739 -0.009433
v -55.749036 35.559488 43.003963
vn 5.015410 -3.784282 -0.051781
v -55.642041 35.717233 42.129582
vn 5.062865 -3.720256 -0.037745
v -56.170015 35.010065 42.287581
vn 4.979847 -3.830854 -0.057490
v -54.710977 36.940852 41.815375
vn 5.122034 -3.638930 -0.002131
v -57.134033 33.654788 43.278617
vn 5.110675 -3.654872 -0.025852
v -56.797278 34.139322 42.339739
vn 2.422776 -1.999638 -0.034747
v -53.234300 38.718000 49.128500
vn 2.532054 -1.859591 -0.015158
v -56.406000 34.720650 38.000000
vn 5.059449 -3.725442 -0.037032
v -56.130105 35.089569 38.827450
vn 5.080707 -3.696491 0.000875
v -56.382162 34.711434 44.682370
vn 4.938564 -3.882462 -0.110499
v -53.789861 38.148678 41.145556
vn 2.452121 -1.963441 -0.040030
v -53.340250 38.718000 40.798700
vn 4.897513 -3.935007 -0.046437
v -54.232884 37.540955 46.743373
vn 5.109380 -3.656732 0.016317
v -56.957477 33.913110 44.335702
vn 5.195435 -3.533347 0.004813
v -58.336514 31.942043 45.602625
vn 5.169375 -3.571546 0.003515
v -57.864692 32.627153 45.830870
vn 5.161530 -3.582812 0.017072
v -57.806624 32.712092 46.792616
vn 4.953127 -3.865598 -0.041298
v -53.965820 37.950602 39.198847
vn 5.168520 -3.572601 -0.030877
v -58.457060 31.774084 43.180802
vn 5.201273 -3.524774 -0.027531
v -58.756440 31.320244 44.832453
# 156 vertices, 0 vertices normals

f 49//49 50//50 51//51
f 52//52 53//53 54//54
f 55//55 56//56 57//57
f 45//45 59//59 58//58
f 14//14 60//60 156//156
f 61//61 48//48 156//156
f 62//62 63//63 64//64
f 65//65 66//66 67//67
f 68//68 69//69 70//70
f 71//71 72//72 73//73
f 74//74 75//75 76//76
f 23//23 77//77 78//78
f 78//78 53//53 56//56
f 80//80 9//9 59//59
f 82//82 83//83 84//84
f 85//85 86//86 50//50
f 87//87 8//8 88//88
f 89//89 55//55 90//90
f 22//22 30//30 99//99
f 1//1 48//48 91//91
f 87//87 51//51 92//92
f 93//93 94//94 95//95
f 96//96 97//97 98//98
f 54//54 99//99 100//100
f 101//101 63//63 98//98
f 102//102 64//64 103//103
f 83//83 104//104 105//105
f 79//79 106//106 72//72
f 107//107 108//108 109//109
f 111//111 21//21 109//109
f 112//112 113//113 114//114
f 69//69 90//90 115//115
f 116//116 117//117 115//115
f 106//106 118//118 119//119
f 120//120 114//114 119//119
f 121//121 122//122 123//123
f 154//154 124//124 125//125
f 101//101 93//93 126//126
f 112//112 127//127 128//128
f 129//129 95//95 122//122
f 107//107 76//76 130//130
f 131//131 132//132 133//133
f 134//134 135//135 126//126
f 134//134 136//136 137//137
f 138//138 137//137 139//139
f 41//41 120//120 140//140
f 155//155 81//81 105//105
f 141//141 104//104 142//142
f 70//70 66//66 143//143
f 144//144 145//145 85//85
f 113//113 145//145 73//73
f 136//136 129//129 146//146
f 147//147 47//47 148//148
f 127//127 139//139 142//142
f 117//117 94//94 149//149
f 123//123 116//116 57//57
f 128//128 82//82 86//86
f 141//141 150//150 91//91
f 131//131 150//150 146//146
f 121//121 52//52 132//132
f 58//58 92//92 84//84
f 152//152 151//151 1//1
f 130//130 153//153 100//100
f 149//149 97//97 67//67
f 153//153 152//152 133//133
f 147//147 102//102 118//118
f 103//103 135//135 140//140
f 42//42 48//48 155//155
f 2//2 49//49 51//51
f 49//49 11//11 50//50
f 51//51 50//50 3//3
f 4//4 52//52 54//54
f 52//52 7//7 53//53
f 54//54 53//53 5//5
f 6//6 55//55 57//57
f 55//55 23//23 56//56
f 57//57 56//56 7//7
f 9//9 58//58 59//59
f 58//58 9//9 8//8
f 60//60 25//25 61//61
f 155//155 61//61 25//25
f 10//10 62//62 64//64
f 62//62 26//26 63//63
f 64//64 63//63 38//38
f 16//16 65//65 67//67
f 65//65 19//19 66//66
f 67//67 66//66 44//44
f 18//18 68//68 70//70
f 68//68 29//29 69//69
f 70//70 69//69 44//44
f 20//20 71//71 73//73
f 71//71 37//37 72//72
f 73//73 72//72 35//35
f 21//21 74//74 76//76
f 74//74 14//14 75//75
f 76//76 75//75 46//46
f 77//77 22//22 5//5
f 23//23 78//78 56//56
f 78//78 5//5 53//53
f 56//56 53//53 7//7
f 25//25 81//81 155//155
f 81//81 25//25 80//80
f 3//3 82//82 84//84
f 82//82 43//43 83//83
f 84//84 83//83 45//45
f 11//11 85//85 50//50
f 85//85 40//40 86//86
f 50//50 86//86 3//3
f 2//2 87//87 28//28
f 88//88 28//28 87//87
f 29//29 89//89 90//90
f 89//89 23//23 55//55
f 90//90 55//55 6//6
f 34//34 1//1 91//91
f 91//91 48//48 42//42
f 8//8 87//87 92//92
f 87//87 2//2 51//51
f 92//92 51//51 3//3
f 12//12 93//93 95//95
f 93//93 39//39 94//94
f 95//95 94//94 17//17
f 26//26 96//96 98//98
f 96//96 16//16 97//97
f 98//98 97//97 39//39
f 99//99 5//5 22//22
f 4//4 54//54 100//100
f 54//54 5//5 99//99
f 100//100 99//99 31//31
f 39//39 101//101 98//98
f 101//101 38//38 63//63
f 98//98 63//63 26//26
f 140//140 102//102 103//103
f 102//102 10//10 64//64
f 103//103 64//64 38//38
f 45//45 83//83 105//105
f 83//83 43//43 104//104
f 105//105 104//104 42//42
f 37//37 79//79 72//72
f 79//79 154//154 106//106
f 72//72 106//106 35//35
f 21//21 107//107 109//109
f 107//107 31//31 108//108
f 109//109 108//108 32//32
f 31//31 99//99 108//108
f 99//99 30//30 110//110
f 108//108 110//110 32//32
f 33//33 109//109 32//32
f 109//109 33//33 111//111
f 13//13 112//112 114//114
f 112//112 40//40 113//113
f 114//114 113//113 35//35
f 44//44 69//69 115//115
f 69//69 29//29 90//90
f 115//115 90//90 6//6
f 6//6 116//116 115//115
f 116//116 17//17 117//117
f 115//115 117//117 44//44
f 35//35 106//106 119//119
f 106//106 47//47 118//118
f 119//119 118//118 140//140
f 140//140 120//120 119//119
f 120//120 13//13 114//114
f 119//119 114//114 35//35
f 7//7 121//121 123//123
f 121//121 36//36 122//122
f 123//123 122//122 17//17
f 15//15 154//154 125//125
f 154//154 79//79 124//124
f 125//125 124//124 24//24
f 80//80 59//59 81//81
f 59//59 45//45 81//81
f 38//38 101//101 126//126
f 101//101 39//39 93//93
f 126//126 93//93 12//12
f 40//40 112//112 128//128
f 112//112 13//13 127//127
f 128//128 127//127 43//43
f 36//36 129//129 122//122
f 129//129 12//12 95//95
f 122//122 95//95 17//17
f 31//31 107//107 130//130
f 107//107 21//21 76//76
f 130//130 76//76 46//46
f 34//34 131//131 133//133
f 131//131 36//36 132//132
f 133//133 132//132 4//4
f 12//12 134//134 126//126
f 134//134 41//41 135//135
f 126//126 135//135 38//38
f 41//41 134//134 137//137
f 134//134 12//12 136//136
f 137//137 136//136 27//27
f 13//13 138//138 139//139
f 138//138 41//41 137//137
f 139//139 137//137 27//27
f 41//41 138//138 120//120
f 138//138 13//13 120//120
f 42//42 155//155 105//105
f 105//105 81//81 45//45
f 27//27 141//141 142//142
f 141//141 42//42 104//104
f 142//142 104//104 43//43
f 18//18 70//70 143//143
f 70//70 44//44 66//66
f 143//143 66//66 19//19
f 11//11 144//144 85//85
f 144//144 20//20 145//145
f 85//85 145//145 40//40
f 35//35 113//113 73//73
f 113//113 40//40 145//145
f 73//73 145//145 20//20
f 27//27 136//136 146//146
f 136//136 12//12 129//129
f 146//146 129//129 36//36
f 10//10 147//147 148//148
f 148//148 47//47 15//15
f 43//43 127//127 142//142
f 127//127 13//13 139//139
f 142//142 139//139 27//27
f 44//44 117//117 149//149
f 117//117 17//17 94//94
f 149//149 94//94 39//39
f 7//7 123//123 57//57
f 123//123 17//17 116//116
f 57//57 116//116 6//6
f 40//40 128//128 86//86
f 128//128 43//43 82//82
f 86//86 82//82 3//3
f 42//42 141//141 91//91
f 141//141 27//27 150//150
f 91//91 150//150 34//34
f 36//36 131//131 146//146
f 131//131 34//34 150//150
f 146//146 150//150 27//27
f 36//36 121//121 132//132
f 121//121 7//7 52//52
f 132//132 52//52 4//4
f 45//45 58//58 84//84
f 58//58 8//8 92//92
f 84//84 92//92 3//3
f 46//46 75//75 151//151
f 151//151 75//75 156//156
f 34//34 152//152 1//1
f 152//152 46//46 151//151
f 31//31 130//130 100//100
f 130//130 46//46 153//153
f 100//100 153//153 4//4
f 44//44 149//149 67//67
f 149//149 39//39 97//97
f 67//67 97//97 16//16
f 4//4 153//153 133//133
f 153//153 46//46 152//152
f 133//133 152//152 34//34
f 47//47 147//147 118//118
f 147//147 10//10 102//102
f 118//118 102//102 140//140
f 103//103 38//38 135//135
f 140//140 135//135 41//41
f 77//77 5//5 78//78
f 154//154 15//15 47//47
f 108//108 99//99 110//110
f 79//79 37//37 124//124
f 154//154 47//47 106//106
f 155//155 48//48 61//61
f 1//1 156//156 48//48
f 151//151 156//156 1//1
f 156//156 60//60 61//61
f 75//75 14//14 156//156
# 268 faces, 0 coords texture

# End of File
