####
#
# OBJ File Generated by Meshlab
#
####
# Object 372_C83_M_1.obj
#
# Vertices: 154
# Faces: 262
#
####
vn 2.643883 -1.707132 -0.016133
v -60.523800 30.718000 40.482900
vn 5.214692 -3.503709 -0.083410
v -59.402715 32.448305 39.463444
vn 2.609327 -1.744328 0.008570
v -60.495500 30.718000 45.906200
vn 2.624401 -1.720415 -0.010248
v -60.494300 30.718000 48.296500
vn 5.203374 -3.521195 -0.037277
v -59.559157 32.134676 44.218276
vn 2.584909 -1.781621 -0.067285
v -59.041500 33.032400 38.000000
vn 2.551165 -1.831728 -0.062715
v -58.801400 33.368600 38.000000
vn 5.226867 -3.486238 -0.001751
v -59.814798 31.754813 48.239724
vn 5.116369 -3.646388 0.005713
v -57.897026 34.529536 46.586403
vn 5.074324 -3.704929 0.044973
v -57.147834 35.567727 48.284104
vn 2.630595 -1.706963 -0.018646
v -60.522700 30.718000 41.262900
vn 2.532366 -1.858938 -0.031911
v -57.312800 35.398400 38.000000
vn 5.091879 -3.680815 -0.039694
v -57.802340 34.700014 39.761475
vn 2.620910 -1.741588 -0.006359
v -60.492200 30.718000 45.206900
vn 2.470283 -1.964723 -0.008723
v -54.774300 38.718000 47.128200
vn 5.134134 -3.621321 -0.036039
v -57.801318 34.699812 42.048148
vn 5.074697 -3.703505 -0.018094
v -56.697280 36.245406 42.828521
vn 5.024151 -3.769531 -0.067284
v -56.142976 36.979958 44.660774
vn 2.502853 -1.913277 -0.035408
v -54.827600 38.718000 41.590700
vn 5.026600 -3.769530 0.008576
v -55.831430 37.401291 41.341924
vn 5.154088 -3.593347 -0.001399
v -58.547203 33.600796 45.120993
vn 1.211748 -0.985813 -0.016530
v -54.722600 38.718000 50.000000
vn 2.434605 -1.979900 -0.039297
v -54.729100 38.718000 49.523500
vn 2.529941 -1.862251 -0.028606
v -56.932700 35.915700 38.000000
vn 2.515263 -1.895440 0.002277
v -54.838800 38.718000 40.051900
vn 2.555965 -1.824899 0.037670
v -57.801000 34.709800 50.000000
vn 2.508655 -1.890367 0.013207
v -56.412700 36.590700 50.000000
vn 2.512380 -1.885756 -0.010441
v -55.627200 37.680800 38.000000
vn 1.240646 -0.957517 0.007316
v -54.826700 38.718000 38.000000
vn 2.631266 -1.699968 -0.013362
v -60.551400 30.718000 38.131300
vn 1.323455 -0.850647 0.006048
v -60.550800 30.718000 38.000000
vn 5.209201 -3.510739 -0.059616
v -59.649365 32.049729 42.071300
vn 2.634110 -1.718800 -0.028619
v -60.502900 30.718000 42.947200
vn 5.152955 -3.594644 -0.053228
v -58.630013 33.481376 43.243339
vn 2.633480 -1.712637 -0.027050
v -60.299100 31.109600 38.000000
vn 5.122008 -3.638654 -0.046892
v -57.480288 35.106514 44.515889
vn 2.457655 -1.956229 -0.054567
v -54.784100 38.718000 43.552600
vn 5.193360 -3.536414 0.004094
v -59.311033 32.486334 46.360746
vn 4.958893 -3.857787 0.001989
v -55.347817 37.990410 46.283273
vn 2.445363 -1.944732 -0.021998
v -54.761500 38.718000 44.568700
vn 2.452295 -1.963395 -0.039523
v -55.364000 37.929600 50.000000
vn 2.601932 -1.760231 0.005130
v -59.153400 32.740100 50.000000
vn 1.316148 -0.864307 -0.009808
v -60.482500 30.718000 50.000000
vn 5.073209 -3.706267 -0.028934
v -56.584126 36.318736 46.471120
vn 5.156151 -3.590150 0.034493
v -58.507362 33.666385 48.285778
vn 5.144827 -3.606142 -0.065103
v -58.787101 33.305661 40.939164
vn 5.078816 -3.698978 0.016210
v -56.974462 35.849009 40.742261
vn 5.005815 -3.796676 -0.011882
v -55.753167 37.452683 48.299842
vn 2.622091 -1.730372 0.005067
v -60.494900 30.718000 47.101350
vn 5.246828 -3.456347 -0.046861
v -59.855516 31.753982 40.004405
vn 5.269168 -3.422444 -0.031811
v -60.152111 31.293018 40.668029
vn 2.534044 -1.856616 -0.034679
v -58.057100 34.383500 38.000000
vn 5.160246 -3.582409 -0.120468
v -59.000406 33.054309 38.831962
vn 5.035183 -3.758154 0.012497
v -56.268989 36.817222 42.071461
vn 4.985725 -3.823341 -0.021920
v -55.544172 37.777297 42.326165
vn 5.015374 -3.784750 -0.007680
v -56.077371 37.069067 43.004847
vn 4.965393 -3.848465 -0.054488
v -55.819649 37.409512 43.823119
vn 5.069092 -3.710880 -0.047868
v -56.458484 36.562304 43.786059
vn 5.227952 -3.485029 -0.008846
v -59.942441 31.541789 45.683764
vn 5.238262 -3.469561 -0.031612
v -60.007927 31.455149 44.693507
vn 5.206192 -3.517080 -0.026682
v -59.457404 32.278823 45.261102
vn 5.057627 -3.727962 0.029017
v -56.832834 35.989422 47.401350
vn 5.060474 -3.724149 0.008147
v -56.154588 36.904692 47.367632
vn 5.049833 -3.738378 0.042779
v -56.469754 36.485352 48.287024
vn 2.498160 -1.904908 0.002839
v -54.832750 38.718000 39.025950
vn 5.267580 -3.424681 -0.048490
v -60.094481 31.371933 41.606124
vn 5.267568 -3.424319 -0.071112
v -60.072606 31.388190 42.569635
vn 2.635522 -1.709582 -0.030985
v -60.512800 30.718000 42.105050
vn 5.148094 -3.601636 -0.049396
v -58.276384 34.025857 41.631781
vn 5.113143 -3.650885 -0.057618
v -58.355407 33.921641 40.303390
vn 5.116737 -3.646449 -0.007221
v -57.909344 34.549536 40.909173
vn 5.080998 -3.695751 0.028163
v -56.850017 36.028439 41.784854
vn 5.120974 -3.640089 -0.027213
v -57.259648 35.460220 42.505782
vn 5.105555 -3.662162 0.010429
v -57.386894 35.275795 41.404304
vn 5.148041 -3.601377 -0.076208
v -57.656130 34.882492 43.235443
vn 5.125536 -3.633270 -0.077932
v -57.073232 35.702796 43.621364
vn 5.143322 -3.608422 -0.037504
v -58.096420 34.235492 43.844915
vn 5.158612 -3.586199 -0.079507
v -58.191791 34.124439 42.677285
vn 2.471991 -1.938342 -0.039514
v -54.805850 38.718000 42.571650
vn 4.955610 -3.861291 -0.053205
v -55.479027 37.858317 43.074056
vn 4.986946 -3.821752 -0.044250
v -55.236046 38.182059 41.678941
vn 5.149498 -3.599982 0.002576
v -58.580300 33.552318 44.288073
vn 5.128321 -3.630224 0.013130
v -58.081791 34.258005 44.894004
vn 5.093969 -3.677902 0.001901
v -57.658541 34.859000 45.653966
vn 5.147126 -3.603264 -0.001633
v -58.253045 34.021593 45.788732
vn 5.117621 -3.644149 -0.092309
v -56.775333 36.095606 44.628610
vn 5.088557 -3.683949 -0.102475
v -56.388877 36.615980 45.543046
vn 5.091405 -3.680946 -0.051325
v -57.017016 35.732363 45.558057
vn 2.460256 -1.953610 0.012281
v -54.767900 38.718000 45.848450
vn 4.919869 -3.908038 0.023204
v -55.222156 38.142979 45.375935
vn 4.982675 -3.825328 -0.049605
v -55.782090 37.438720 45.489957
vn 4.917244 -3.910620 -0.044413
v -55.478710 37.815951 44.606613
vn 5.005630 -3.796638 0.010241
v -56.096842 37.003011 49.170246
vn 5.053561 -3.733126 0.060125
v -56.768895 36.095532 49.136520
vn 5.201219 -3.524763 0.022214
v -59.538972 32.157708 47.346426
vn 2.500940 -1.901220 -0.016202
v -54.833200 38.718000 40.821300
vn 5.018317 -3.780716 -0.002000
v -55.366229 38.017565 40.638823
vn 5.172560 -3.566923 -0.006078
v -59.024486 32.909339 44.743800
vn 5.158413 -3.586914 -0.037416
v -59.101872 32.797150 43.738224
vn 5.052975 -3.734276 0.031836
v -56.423643 36.597699 41.047503
vn 5.171585 -3.568276 -0.020753
v -58.859397 33.145605 45.680934
vn 5.218348 -3.498929 -0.003609
v -59.480487 32.253051 49.114360
vn 5.185088 -3.548626 0.021534
v -59.166887 32.703972 48.241565
vn 5.181833 -3.553308 0.031792
v -58.823940 33.212551 49.136000
vn 5.047577 -3.741589 -0.023212
v -55.954649 37.225446 39.130274
vn 2.436684 -1.982438 -0.045981
v -54.751700 38.718000 48.325850
vn 4.903990 -3.926881 -0.076389
v -55.157263 38.210618 48.709180
vn 4.923269 -3.902205 -0.070225
v -55.174846 38.207019 47.932550
vn 2.626877 -1.723018 -0.018196
v -60.488400 30.718000 49.148250
vn 5.252093 -3.448536 -0.039000
v -60.098721 31.312366 49.122714
vn 2.625216 -1.725520 -0.020618
v -59.817950 31.729050 50.000000
vn 5.257489 -3.439914 -0.063788
v -59.896712 31.709833 38.904642
vn 5.267062 -3.425370 -0.056966
v -60.274917 31.116340 39.607921
vn 2.633977 -1.711944 -0.031884
v -60.537600 30.718000 39.307100
vn 4.927932 -3.896601 -0.056542
v -55.481047 37.797897 49.280970
vn 2.477547 -1.931418 -0.030924
v -55.888350 37.260150 50.000000
vn 5.078475 -3.699512 -0.000341
v -57.129492 35.634322 39.741271
vn 5.054108 -3.732851 0.009694
v -56.535586 36.439340 39.973666
vn 2.621753 -1.730855 -0.012487
v -60.497550 30.718000 44.077050
vn 5.251457 -3.449197 -0.052498
v -60.047128 31.403662 43.610668
vn 5.056849 -3.729019 -0.026838
v -56.643547 36.294395 38.948738
vn 5.088973 -3.684883 0.007844
v -57.509415 35.067409 47.438963
vn 5.065543 -3.717261 0.012006
v -57.237311 35.429630 46.525998
vn 2.528271 -1.864561 0.029353
v -57.106850 35.650250 50.000000
vn 5.110997 -3.653625 0.049684
v -57.817258 34.632002 48.313604
vn 5.145607 -3.604223 0.073506
v -58.165777 34.171271 49.151214
vn 5.137880 -3.616316 0.008737
v -58.193440 34.110159 47.439495
vn 5.000521 -3.802448 -0.007917
v -55.523734 37.767164 47.251549
vn 5.053381 -3.733226 -0.052238
v -55.967750 37.163041 46.408711
vn 2.589862 -1.778198 0.015200
v -58.477200 33.724950 50.000000
vn 5.173059 -3.566056 0.026183
v -58.880579 33.118314 47.370253
vn 5.165896 -3.576429 0.006125
v -58.561142 33.570357 46.553479
vn 2.526299 -1.867329 -0.022344
v -56.279950 36.798250 38.000000
vn 5.093106 -3.678148 -0.089816
v -58.399655 33.895195 39.065329
vn 5.099667 -3.670394 -0.003348
v -57.454742 35.181510 40.452205
vn 5.147348 -3.602421 -0.076026
v -59.145940 32.756599 42.648747
vn 5.204109 -3.518334 -0.078242
v -59.613167 32.079368 43.147915
vn 5.154337 -3.592366 -0.077875
v -58.652072 33.475300 42.083216
vn 5.224588 -3.489343 -0.032491
v -59.711361 31.966230 41.007143
vn 5.158743 -3.586299 -0.059767
v -59.212619 32.685611 41.518589
vn 2.629090 -1.719500 -0.028444
v -59.670300 32.071000 38.000000
vn 5.240179 -3.466575 0.019082
v -60.086246 31.341559 47.471975
vn 5.144458 -3.605611 -0.091996
v -58.878134 33.204953 39.839664
vn 4.915164 -3.912501 -0.109170
v -55.170793 38.228687 43.678143
vn 5.190103 -3.540595 -0.064670
v -59.332344 32.529503 40.424780
vn 5.223628 -3.491594 0.025673
v -59.963172 31.518000 46.592471
vn 5.233696 -3.475047 -0.087575
v -59.408117 32.461367 38.636278
vn 5.070827 -3.709820 -0.041105
v -57.273701 35.436691 38.870862
vn 5.084815 -3.689460 0.090101
v -57.487455 35.119695 49.123816
vn 5.005061 -3.797558 -0.021233
v -55.340180 38.058302 38.734712
vn 5.044471 -3.745832 0.018277
v -55.943559 37.241768 40.301666
vn 5.267223 -3.425006 -0.063768
v -60.339907 31.032890 38.747065
vn 5.068304 -3.713002 -0.065693
v -57.741476 34.802127 38.685246
vn 5.028243 -3.767550 -0.009505
v -55.451540 37.898845 39.510006
# 154 vertices, 0 vertices normals

f 49//49 3//3 146//146
f 134//134 52//52 153//153
f 143//143 145//145 2//2
f 22//22 41//41 23//23
f 54//54 55//55 56//56
f 57//57 58//58 56//56
f 59//59 60//60 61//61
f 38//38 146//146 59//59
f 62//62 63//63 64//64
f 25//25 154//154 65//65
f 30//30 31//31 35//35
f 66//66 67//67 68//68
f 72//72 73//73 74//74
f 75//75 73//73 76//76
f 75//75 77//77 78//78
f 82//82 77//77 83//83
f 83//83 84//84 85//85
f 86//86 87//87 88//88
f 89//89 39//39 90//90
f 91//91 92//92 90//90
f 93//93 94//94 64//64
f 142//142 146//146 95//95
f 96//96 19//19 81//81
f 98//98 99//99 82//82
f 72//72 100//100 54//54
f 61//61 98//98 101//101
f 76//76 58//58 86//86
f 102//102 103//103 104//104
f 92//92 57//57 144//144
f 106//106 107//107 108//108
f 43//43 109//109 110//110
f 102//102 111//111 110//110
f 112//112 50//50 113//113
f 1//1 114//114 113//113
f 93//93 115//115 116//116
f 117//117 121//121 118//118
f 119//119 120//120 60//60
f 122//122 123//123 62//62
f 124//124 149//149 94//94
f 125//125 127//127 122//122
f 15//15 128//128 39//39
f 84//84 88//88 123//123
f 87//87 91//91 129//129
f 126//126 130//130 104//104
f 103//103 95//95 131//131
f 132//132 127//127 131//131
f 101//101 85//85 132//132
f 135//135 74//74 71//71
f 63//63 129//129 128//128
f 136//136 99//99 137//137
f 51//51 139//139 66//66
f 140//140 138//138 136//136
f 120//120 67//67 137//137
f 139//139 145//145 140//140
f 48//48 107//107 115//115
f 4//4 142//142 8//8
f 11//11 1//1 51//51
f 113//113 51//51 1//1
f 17//17 54//54 56//56
f 54//54 20//20 55//55
f 56//56 55//55 80//80
f 80//80 57//57 56//56
f 57//57 18//18 58//58
f 56//56 58//58 17//17
f 38//38 59//59 61//61
f 59//59 14//14 60//60
f 61//61 60//60 5//5
f 3//3 59//59 146//146
f 59//59 3//3 14//14
f 62//62 44//44 63//63
f 64//64 63//63 48//48
f 29//29 150//150 28//28
f 11//11 66//66 68//68
f 66//66 32//32 67//67
f 68//68 67//67 33//33
f 16//16 69//69 71//71
f 47//47 72//72 74//74
f 72//72 17//17 73//73
f 74//74 73//73 16//16
f 36//36 75//75 76//76
f 75//75 16//16 73//73
f 76//76 73//73 17//17
f 16//16 75//75 78//78
f 75//75 36//36 77//77
f 78//78 77//77 34//34
f 19//19 79//79 81//81
f 79//79 37//37 144//144
f 21//21 82//82 83//83
f 82//82 34//34 77//77
f 83//83 77//77 36//36
f 21//21 83//83 85//85
f 83//83 36//36 84//84
f 85//85 84//84 9//9
f 36//36 86//86 88//88
f 86//86 18//18 87//87
f 88//88 87//87 44//44
f 40//40 89//89 90//90
f 89//89 15//15 39//39
f 39//39 91//91 90//90
f 91//91 18//18 92//92
f 90//90 92//92 40//40
f 93//93 27//27 94//94
f 8//8 142//142 95//95
f 25//25 96//96 97//97
f 97//97 96//96 81//81
f 97//97 81//81 20//20
f 21//21 98//98 82//82
f 98//98 5//5 99//99
f 82//82 99//99 34//34
f 17//17 72//72 54//54
f 72//72 47//47 100//100
f 54//54 100//100 20//20
f 38//38 61//61 101//101
f 61//61 5//5 98//98
f 101//101 98//98 21//21
f 36//36 76//76 86//86
f 76//76 17//17 58//58
f 86//86 58//58 18//18
f 42//42 102//102 104//104
f 102//102 8//8 103//103
f 104//104 103//103 45//45
f 79//79 144//144 80//80
f 144//144 37//37 40//40
f 40//40 92//92 144//144
f 92//92 18//18 57//57
f 144//144 57//57 80//80
f 20//20 81//81 55//55
f 15//15 106//106 108//108
f 106//106 23//23 107//107
f 108//108 107//107 48//48
f 109//109 4//4 110//110
f 8//8 110//110 4//4
f 8//8 102//102 110//110
f 102//102 42//42 111//111
f 110//110 111//111 43//43
f 35//35 112//112 152//152
f 112//112 2//2 50//50
f 114//114 30//30 152//152
f 27//27 93//93 116//116
f 93//93 48//48 115//115
f 116//116 115//115 41//41
f 154//154 25//25 97//97
f 14//14 119//119 60//60
f 119//119 33//33 120//120
f 60//60 120//120 5//5
f 24//24 121//121 148//148
f 10//10 122//122 62//62
f 122//122 9//9 123//123
f 62//62 123//123 44//44
f 27//27 124//124 94//94
f 124//124 26//26 149//149
f 94//94 149//149 10//10
f 45//45 125//125 126//126
f 126//126 125//125 149//149
f 125//125 45//45 127//127
f 122//122 127//127 9//9
f 15//15 108//108 128//128
f 108//108 48//48 128//128
f 9//9 84//84 123//123
f 84//84 36//36 88//88
f 123//123 88//88 44//44
f 44//44 87//87 129//129
f 87//87 18//18 91//91
f 129//129 91//91 39//39
f 45//45 126//126 104//104
f 126//126 26//26 130//130
f 104//104 130//130 42//42
f 45//45 103//103 131//131
f 103//103 8//8 95//95
f 131//131 95//95 38//38
f 38//38 132//132 131//131
f 132//132 9//9 127//127
f 131//131 127//127 45//45
f 121//121 24//24 133//133
f 105//105 133//133 28//28
f 151//151 20//20 100//100
f 118//118 100//100 47//47
f 134//134 7//7 52//52
f 38//38 101//101 132//132
f 101//101 21//21 85//85
f 132//132 85//85 9//9
f 70//70 13//13 71//71
f 135//135 47//47 74//74
f 71//71 74//74 16//16
f 48//48 63//63 128//128
f 63//63 44//44 129//129
f 128//128 129//129 39//39
f 32//32 136//136 137//137
f 136//136 34//34 99//99
f 137//137 99//99 5//5
f 46//46 69//69 138//138
f 138//138 78//78 34//34
f 11//11 51//51 66//66
f 51//51 50//50 139//139
f 66//66 139//139 32//32
f 32//32 140//140 136//136
f 140//140 46//46 138//138
f 136//136 138//138 34//34
f 53//53 6//6 7//7
f 70//70 46//46 143//143
f 134//134 143//143 53//53
f 5//5 120//120 137//137
f 120//120 33//33 67//67
f 137//137 67//67 32//32
f 32//32 139//139 140//140
f 139//139 50//50 145//145
f 140//140 145//145 46//46
f 6//6 53//53 147//147
f 53//53 2//2 147//147
f 141//141 112//112 35//35
f 107//107 23//23 115//115
f 41//41 115//115 23//23
f 49//49 146//146 142//142
f 143//143 2//2 53//53
f 70//70 143//143 134//134
f 142//142 4//4 49//49
f 52//52 12//12 153//153
f 143//143 46//46 145//145
f 10//10 62//62 64//64
f 105//105 121//121 133//133
f 13//13 70//70 134//134
f 134//134 53//53 7//7
f 2//2 145//145 50//50
f 141//141 147//147 112//112
f 95//95 146//146 38//38
f 28//28 150//150 105//105
f 13//13 117//117 135//135
f 6//6 147//147 141//141
f 147//147 2//2 112//112
f 154//154 150//150 65//65
f 12//12 24//24 148//148
f 150//150 29//29 65//65
f 148//148 121//121 117//117
f 126//126 149//149 26//26
f 10//10 149//149 125//125
f 13//13 135//135 71//71
f 10//10 125//125 122//122
f 151//151 100//100 118//118
f 134//134 153//153 13//13
f 64//64 94//94 10//10
f 113//113 50//50 51//51
f 105//105 154//154 151//151
f 105//105 151//151 118//118
f 153//153 148//148 13//13
f 48//48 93//93 64//64
f 152//152 112//112 113//113
f 152//152 30//30 35//35
f 114//114 152//152 113//113
f 151//151 97//97 20//20
f 118//118 121//121 105//105
f 153//153 12//12 148//148
f 151//151 154//154 97//97
f 79//79 80//80 55//55
f 117//117 118//118 47//47
f 117//117 47//47 135//135
f 55//55 81//81 79//79
f 148//148 117//117 13//13
f 154//154 105//105 150//150
f 69//69 46//46 70//70
f 71//71 69//69 70//70
f 69//69 16//16 78//78
f 138//138 69//69 78//78
# 262 faces, 0 coords texture

# End of File
