####
#
# OBJ File Generated by Meshlab
#
####
# Object 390_C85_M_3.obj
#
# Vertices: 128
# Faces: 215
#
####
vn -2.138085 -2.301211 0.008058
v 22.942600 75.034400 50.000000
vn -4.291272 -4.587592 0.098110
v 22.953028 75.021341 48.902828
vn -2.114809 -2.322339 0.048358
v 24.404800 73.725400 50.000000
vn -4.302337 -4.572720 0.140926
v 22.832118 75.040691 46.837915
vn -4.145852 -4.720228 0.081099
v 25.296283 72.774658 44.483027
vn -2.045915 -2.386706 0.028933
v 27.705200 70.704800 44.640400
vn -2.048760 -2.380631 0.016775
v 27.707400 70.708600 45.874500
vn -2.047267 -2.382911 0.003777
v 25.306200 72.726700 38.000000
vn -2.191897 -2.238490 0.067551
v 21.670500 76.252300 48.153900
vn -2.139969 -2.297685 0.036373
v 21.932100 75.681700 38.000000
vn -2.149026 -2.295998 0.039650
v 21.554600 76.051700 38.710200
vn -4.206573 -4.666635 0.061608
v 22.787510 74.936705 39.552662
vn -4.118213 -4.744923 0.054223
v 26.644739 71.622567 45.855562
vn -2.149573 -2.288681 0.084981
v 21.605600 76.139800 43.681600
vn -2.076375 -2.357061 0.026572
v 23.494400 74.284800 38.000000
vn -4.222446 -4.650219 0.105747
v 23.746129 74.132919 43.788710
vn -4.150585 -4.716544 0.057841
v 24.779399 73.214384 42.190374
vn -2.058756 -2.372308 -0.021104
v 27.687700 70.674600 38.738000
vn -2.053247 -2.377620 -0.020450
v 27.255600 71.057100 38.000000
vn -1.105115 -1.114903 -0.006571
v 21.556200 76.054300 38.000000
vn -4.122973 -4.740684 0.062996
v 26.170337 71.984600 42.371907
vn -4.190625 -4.680129 0.112794
v 25.343554 72.791196 46.732664
vn -2.182742 -2.267244 0.044130
v 21.628300 76.179300 45.616200
vn -4.309620 -4.570947 0.093667
v 22.370039 75.469922 45.130909
vn -2.101163 -2.335369 0.036627
v 26.320000 71.964300 50.000000
vn -2.132068 -2.311723 0.056541
v 21.570300 76.078900 41.314000
vn -1.029066 -1.188791 -0.013622
v 27.691000 70.680200 38.000000
vn -1.039636 -1.178580 0.006717
v 27.719600 70.729700 50.000000
vn -2.059137 -2.373336 0.026552
v 27.715500 70.722800 48.154700
vn -1.088491 -1.131616 0.003522
v 21.672700 76.256300 50.000000
vn -4.126227 -4.738355 -0.012579
v 27.149936 71.127972 40.746364
vn -2.074798 -2.352911 0.019731
v 27.680000 70.661100 41.379700
vn -2.157045 -2.277116 0.049208
v 21.627100 76.177200 45.293500
vn -4.211191 -4.660897 0.127849
v 23.999365 73.963075 45.836489
vn -4.133956 -4.731404 0.032235
v 24.482429 73.440852 39.958995
vn -4.200651 -4.670658 0.078939
v 23.291936 74.502182 41.687307
vn -4.224374 -4.650010 0.101875
v 25.403722 72.766074 48.024844
vn -2.057568 -2.373861 0.038384
v 27.687800 70.674600 42.356200
vn -4.208645 -4.662816 0.150192
v 24.182540 73.869675 47.787962
vn -4.102354 -4.758999 -0.021987
v 26.106701 72.040299 39.383814
vn -4.214797 -4.658872 0.074744
v 23.650499 74.397046 49.353000
vn -2.095416 -2.340655 0.013111
v 23.673700 74.379900 50.000000
vn -4.092166 -4.767727 0.036342
v 27.126519 71.206750 45.579103
vn -4.098022 -4.762591 0.045393
v 26.592219 71.658533 44.937884
vn -4.132018 -4.732331 0.086337
v 25.963487 72.205298 45.236867
vn -4.104929 -4.756414 0.064580
v 26.121897 72.058753 44.267282
vn -4.093570 -4.766050 0.074681
v 26.950968 71.342552 44.120393
vn -4.386287 -4.495749 0.124157
v 22.304413 75.642082 48.456481
vn -4.418313 -4.462466 0.207504
v 22.253665 75.633044 47.269845
vn -4.305087 -4.569223 0.211269
v 22.898389 75.025756 47.867111
vn -2.145186 -2.293422 0.089403
v 21.587950 76.109350 42.497800
vn -4.271869 -4.604613 0.162855
v 22.139248 75.583340 42.218076
vn -4.289820 -4.587949 0.162356
v 22.270852 75.494615 43.135901
vn -4.168259 -4.700537 0.084470
v 25.959379 72.235310 46.239355
vn -4.164851 -4.702879 0.123014
v 25.302551 72.800019 45.695735
vn -2.048402 -2.381936 0.006154
v 24.400300 73.505750 38.000000
vn -4.098755 -4.762193 0.011713
v 24.875409 73.099480 38.894596
vn -4.130364 -4.734307 0.043152
v 23.997855 73.854226 38.922892
vn -2.048494 -2.381761 0.022096
v 27.711450 70.715700 47.014600
vn -4.102909 -4.758213 0.060209
v 27.129643 71.222353 47.689469
vn -4.097218 -4.763339 0.042683
v 27.127383 71.214352 46.616402
vn -4.162912 -4.705710 0.065239
v 25.309061 72.729203 41.360564
vn -4.136248 -4.728944 0.049719
v 25.865156 72.239219 41.600884
vn -4.167119 -4.702082 0.059187
v 25.470970 72.603175 42.386316
vn -4.135284 -4.729916 0.059050
v 25.731251 72.380504 43.389524
vn -4.155133 -4.712955 0.032856
v 24.999657 73.027986 43.294086
vn -4.134987 -4.730557 0.042681
v 24.271155 73.665458 43.019654
vn -4.158991 -4.708732 0.077815
v 24.477779 73.490833 44.125807
vn -4.374231 -4.507903 0.110604
v 22.227496 75.612372 46.193418
vn -4.288142 -4.592072 0.011049
v 22.803477 75.063842 45.954437
vn -4.300846 -4.578022 0.151195
v 23.155713 74.709294 44.454589
vn -4.234751 -4.638743 0.139157
v 23.892333 74.029575 44.821080
vn -4.281307 -4.597479 0.082483
v 23.296572 74.608671 45.421722
vn -4.102783 -4.758002 0.083532
v 26.470988 71.740660 43.303819
vn -4.104457 -4.756868 0.060313
v 26.854696 71.393904 42.369060
vn -4.099728 -4.760546 0.088232
v 27.131081 71.168905 43.154452
vn -4.123773 -4.740176 0.059596
v 24.052361 73.843916 41.930083
vn -4.144150 -4.722418 0.045510
v 23.843014 74.010494 40.845428
vn -4.149377 -4.717481 0.073435
v 24.602360 73.353414 41.120705
vn -2.211189 -2.229434 0.099357
v 21.649400 76.215800 46.885050
vn -4.302152 -4.576587 0.157222
v 22.360004 75.445324 44.093959
vn -2.097799 -2.338247 0.037552
v 22.713250 74.983250 38.000000
vn -4.174435 -4.695477 0.069481
v 23.233628 74.529908 38.861163
vn -4.236441 -4.639348 0.084190
v 22.175669 75.488147 39.113711
vn -2.073263 -2.360212 0.023561
v 27.019800 71.347000 50.000000
vn -4.124803 -4.739170 0.058428
v 27.102250 71.264480 48.761071
vn -2.074388 -2.359296 0.015521
v 27.717550 70.726250 49.077350
vn -4.355759 -4.528299 0.016513
v 22.311805 75.639711 49.409025
vn -2.178861 -2.263204 0.008668
v 21.671600 76.254300 49.076950
vn -2.178241 -2.263809 0.006284
v 22.307650 75.645350 50.000000
vn -4.170731 -4.698455 0.066894
v 26.487584 71.801397 49.053045
vn -4.119896 -4.743816 -0.032351
v 27.200774 71.090486 39.763504
vn -2.063013 -2.369236 -0.017436
v 27.683850 70.667850 40.058850
vn -2.046002 -2.384000 -0.004426
v 26.280900 71.891900 38.000000
vn -4.094619 -4.765756 0.004296
v 25.636453 72.443968 38.783905
vn -2.153277 -2.286183 0.079789
v 21.616350 76.158500 44.487550
vn -4.216965 -4.656056 0.093817
v 23.415324 74.502931 46.374515
vn -4.185175 -4.683414 0.168295
v 24.092386 73.915035 46.818147
vn -4.188900 -4.679305 0.187247
v 23.502515 74.459818 47.343248
vn -4.127260 -4.737153 0.047047
v 27.188580 71.099945 41.637239
vn -4.108111 -4.754001 -0.020318
v 25.352076 72.690419 39.679714
vn -4.224834 -4.649265 0.116070
v 24.822012 73.297877 48.171490
vn -4.206980 -4.664687 0.138272
v 24.761396 73.331438 47.252163
vn -4.172302 -4.696202 0.126433
v 24.612457 73.401199 45.218429
vn -4.275611 -4.601964 0.138062
v 22.816004 74.967324 42.479871
vn -4.204630 -4.666614 0.088514
v 23.541082 74.296958 42.740120
vn -4.294877 -4.583935 0.140512
v 23.023212 74.801226 43.480945
vn -4.255090 -4.621672 0.104944
v 22.499667 75.227124 41.474321
vn -4.206634 -4.666569 0.043886
v 23.027603 74.730792 40.645566
vn -4.163932 -4.705010 0.048154
v 23.561261 74.254619 39.803761
vn -4.144989 -4.721347 0.046360
v 26.540566 71.721163 46.835657
vn -2.047368 -2.382370 0.046910
v 27.696500 70.689700 43.498300
vn -4.246491 -4.630425 0.069565
v 22.250913 75.440729 40.393808
vn -2.122672 -2.315695 0.037754
v 21.562450 76.065300 40.012100
vn -4.140303 -4.725485 0.022949
v 25.120428 72.883104 40.529661
vn -4.106614 -4.755321 -0.029629
v 26.589213 71.618158 40.149116
vn -4.107938 -4.754202 -0.025719
v 26.825144 71.421155 38.982778
vn -2.126214 -2.312305 0.045438
v 25.362400 72.844850 50.000000
vn -4.240532 -4.635138 0.106254
v 25.013176 73.148225 49.097641
vn -4.236729 -4.639103 0.082197
v 25.785063 72.439074 49.127690
vn -4.215029 -4.656469 0.163701
v 23.585033 74.430059 48.344042
vn -4.182838 -4.686190 0.146173
v 24.683264 73.366288 46.270381
vn -4.112246 -4.750249 -0.011976
v 25.827533 72.268492 40.561231
vn -4.231927 -4.642649 0.122423
v 24.281701 73.806216 48.809109
vn -4.216505 -4.657483 0.085140
v 25.996296 72.232668 48.204097
vn -4.200795 -4.671728 0.075428
v 25.961723 72.243386 47.227803
vn -4.101712 -4.759569 0.018242
v 26.499041 71.691605 41.313363
vn -4.154402 -4.712502 0.076818
v 26.566175 71.712657 47.960734
# 128 vertices, 0 vertices normals

f 3//3 42//42 41//41
f 44//44 45//45 46//46
f 47//47 6//6 44//44
f 48//48 49//49 50//50
f 51//51 52//52 53//53
f 54//54 55//55 45//45
f 56//56 57//57 58//58
f 59//59 60//60 61//61
f 11//11 20//20 10//10
f 62//62 63//63 64//64
f 65//65 66//66 64//64
f 67//67 66//66 68//68
f 71//71 72//72 73//73
f 74//74 75//75 76//76
f 77//77 78//78 79//79
f 19//19 27//27 18//18
f 85//85 86//86 87//87
f 48//48 88//88 89//89
f 30//30 88//88 90//90
f 18//18 93//93 92//92
f 14//14 81//81 96//96
f 97//97 98//98 99//99
f 32//32 38//38 100//100
f 57//57 95//95 101//101
f 37//37 102//102 103//103
f 100//100 75//75 127//127
f 46//46 65//65 74//74
f 104//104 72//72 68//68
f 105//105 106//106 107//107
f 77//77 67//67 106//106
f 105//105 52//52 108//108
f 109//109 110//110 78//78
f 73//73 97//97 70//70
f 61//61 111//111 13//13
f 112//112 47//47 76//76
f 113//113 114//114 84//84
f 115//115 62//62 79//79
f 107//107 71//71 81//81
f 83//83 58//58 110//110
f 109//109 108//108 113//113
f 116//116 117//117 92//92
f 118//118 119//119 120//120
f 50//50 99//99 121//121
f 122//122 103//103 98//98
f 122//122 104//104 55//55
f 124//124 102//102 119//119
f 124//124 41//41 121//121
f 91//91 120//120 125//125
f 126//126 125//125 37//37
f 126//126 54//54 111//111
f 101//101 123//123 115//115
f 1//1 41//41 42//42
f 41//41 1//1 2//2
f 7//7 43//43 6//6
f 47//47 44//44 46//46
f 44//44 13//13 45//45
f 46//46 45//45 5//5
f 44//44 6//6 43//43
f 44//44 43//43 13//13
f 2//2 48//48 50//50
f 48//48 9//9 49//49
f 50//50 49//49 4//4
f 14//14 51//51 53//53
f 51//51 26//26 52//52
f 13//13 54//54 45//45
f 54//54 22//22 55//55
f 45//45 55//55 5//5
f 15//15 56//56 58//58
f 56//56 8//8 57//57
f 58//58 57//57 35//35
f 7//7 59//59 61//61
f 59//59 29//29 60//60
f 111//111 60//60 128//128
f 17//17 62//62 64//64
f 64//64 63//63 21//21
f 21//21 65//65 64//64
f 65//65 5//5 66//66
f 64//64 66//66 17//17
f 16//16 67//67 68//68
f 67//67 17//17 66//66
f 68//68 66//66 5//5
f 4//4 69//69 70//70
f 70//70 69//69 24//24
f 24//24 71//71 73//73
f 71//71 16//16 72//72
f 73//73 72//72 34//34
f 47//47 74//74 76//76
f 74//74 21//21 75//75
f 76//76 75//75 38//38
f 17//17 77//77 79//79
f 77//77 36//36 78//78
f 79//79 78//78 35//35
f 9//9 80//80 49//49
f 80//80 23//23 69//69
f 96//96 24//24 33//33
f 10//10 82//82 84//84
f 82//82 15//15 83//83
f 28//28 85//85 87//87
f 85//85 25//25 91//91
f 87//87 86//86 29//29
f 9//9 48//48 89//89
f 48//48 2//2 88//88
f 89//89 88//88 30//30
f 2//2 1//1 88//88
f 90//90 88//88 1//1
f 29//29 86//86 60//60
f 60//60 86//86 128//128
f 32//32 100//100 31//31
f 92//92 93//93 31//31
f 8//8 94//94 95//95
f 94//94 19//19 117//117
f 14//14 53//53 81//81
f 96//96 81//81 24//24
f 4//4 97//97 99//99
f 97//97 34//34 98//98
f 99//99 98//98 39//39
f 35//35 57//57 101//101
f 57//57 8//8 95//95
f 101//101 95//95 40//40
f 22//22 37//37 103//103
f 103//103 102//102 39//39
f 69//69 23//23 24//24
f 100//100 38//38 75//75
f 47//47 46//46 74//74
f 46//46 5//5 65//65
f 74//74 65//65 21//21
f 5//5 104//104 68//68
f 104//104 34//34 72//72
f 68//68 72//72 16//16
f 84//84 11//11 10//10
f 53//53 105//105 107//107
f 105//105 36//36 106//106
f 107//107 106//106 16//16
f 36//36 77//77 106//106
f 77//77 17//17 67//67
f 106//106 67//67 16//16
f 123//123 116//116 127//127
f 63//63 127//127 21//21
f 36//36 105//105 108//108
f 105//105 53//53 52//52
f 108//108 52//52 26//26
f 36//36 109//109 78//78
f 109//109 12//12 110//110
f 78//78 110//110 35//35
f 24//24 73//73 70//70
f 73//73 34//34 97//97
f 70//70 97//97 4//4
f 61//61 60//60 111//111
f 38//38 112//112 76//76
f 112//112 6//6 47//47
f 12//12 113//113 84//84
f 113//113 26//26 114//114
f 84//84 114//114 11//11
f 35//35 115//115 79//79
f 115//115 123//123 62//62
f 79//79 62//62 17//17
f 53//53 107//107 81//81
f 107//107 16//16 71//71
f 81//81 71//71 24//24
f 12//12 83//83 110//110
f 83//83 15//15 58//58
f 110//110 58//58 35//35
f 12//12 109//109 113//113
f 109//109 36//36 108//108
f 113//113 108//108 26//26
f 31//31 116//116 92//92
f 116//116 40//40 117//117
f 92//92 117//117 18//18
f 18//18 117//117 19//19
f 25//25 118//118 120//120
f 118//118 3//3 119//119
f 120//120 119//119 37//37
f 2//2 50//50 121//121
f 50//50 4//4 99//99
f 121//121 99//99 39//39
f 34//34 122//122 98//98
f 122//122 22//22 103//103
f 98//98 103//103 39//39
f 22//22 122//122 55//55
f 122//122 34//34 104//104
f 55//55 104//104 5//5
f 31//31 127//127 116//116
f 116//116 123//123 40//40
f 3//3 124//124 119//119
f 124//124 39//39 102//102
f 119//119 102//102 37//37
f 39//39 124//124 121//121
f 124//124 3//3 41//41
f 121//121 41//41 2//2
f 91//91 25//25 120//120
f 125//125 120//120 37//37
f 22//22 126//126 37//37
f 126//126 128//128 125//125
f 128//128 126//126 111//111
f 126//126 22//22 54//54
f 111//111 54//54 13//13
f 35//35 101//101 115//115
f 101//101 40//40 123//123
f 32//32 31//31 93//93
f 85//85 91//91 86//86
f 127//127 31//31 100//100
f 86//86 91//91 128//128
f 123//123 127//127 63//63
f 128//128 91//91 125//125
f 24//24 23//23 33//33
f 21//21 127//127 75//75
f 62//62 123//123 63//63
f 49//49 80//80 69//69
f 49//49 69//69 4//4
f 43//43 7//7 61//61
f 43//43 61//61 13//13
f 82//82 83//83 12//12
f 84//84 82//82 12//12
f 94//94 117//117 40//40
f 95//95 94//94 40//40
# 215 faces, 0 coords texture

# End of File
