####
#
# OBJ File Generated by Meshlab
#
####
# Object 417_C88_M_3.obj
#
# Vertices: 145
# Faces: 249
#
####
vn -5.225086 -3.488785 -0.054187
v 62.207806 35.758738 -44.088880
vn -2.665793 -1.679550 -0.074946
v 65.393700 30.718000 -40.197400
vn -2.623144 -1.727369 -0.056043
v 61.416700 36.752500 -37.999600
vn -2.630261 -1.734624 -0.021035
v 60.154900 38.718000 -39.158600
vn -5.242992 -3.460735 -0.091666
v 62.676875 35.019620 -42.141609
vn -5.265761 -3.427531 -0.040904
v 63.462720 33.830839 -43.578266
vn -2.654648 -1.702776 -0.014075
v 65.470800 30.718000 -44.651600
vn -5.274203 -3.414543 -0.030363
v 64.524401 32.197784 -43.158605
vn -5.257610 -3.438004 -0.122520
v 63.427294 33.833410 -40.829843
vn -2.568493 -1.811111 -0.028621
v 60.197500 38.718700 -46.870100
vn -2.594852 -1.766966 0.001535
v 60.148150 38.718075 -40.231475
vn -2.626736 -1.723315 -0.001269
v 63.436000 33.937900 -50.000000
vn -5.161551 -3.582204 -0.060106
v 61.057359 37.440994 -43.845361
vn -2.616737 -1.691897 -0.035317
v 65.485400 30.718000 -42.562000
vn -2.642925 -1.686118 -0.032059
v 65.501100 30.718000 -46.549100
vn -1.313403 -0.851326 -0.013830
v 60.142700 38.718000 -38.000000
vn -2.605490 -1.753475 -0.024189
v 61.615700 36.729500 -50.000000
vn -2.630076 -1.718193 -0.011638
v 62.026500 36.093600 -50.000000
vn -5.278121 -3.408296 -0.038186
v 64.466806 32.367078 -48.999891
vn -2.640470 -1.701200 -0.026970
v 64.592600 32.191000 -50.000000
vn -2.640193 -1.702538 -0.027747
v 64.002900 32.873200 -37.999600
vn -1.339210 -0.840701 -0.023726
v 65.350400 30.718000 -38.000000
vn -2.656846 -1.676984 -0.015300
v 65.510600 30.718000 -48.903200
vn -1.328732 -0.833205 -0.006506
v 65.515600 30.718000 -50.000000
vn -5.262295 -3.432316 -0.062131
v 63.181036 34.303052 -45.291166
vn -2.610944 -1.745358 -0.061388
v 62.850200 34.605900 -37.999100
vn -5.234179 -3.473530 -0.122919
v 63.069906 34.312003 -38.933832
vn -2.583513 -1.809504 0.011057
v 60.219100 38.718500 -49.287600
vn -1.278318 -0.899577 0.014532
v 60.209000 38.718000 -50.000000
vn -2.571061 -1.805638 -0.032060
v 60.175900 38.718600 -44.988000
vn -2.568564 -1.795921 -0.019590
v 60.144500 38.718200 -42.415800
vn -5.286084 -3.395724 -0.063405
v 64.315354 32.534406 -45.275516
vn -5.300222 -3.372541 -0.105768
v 64.301417 32.429605 -39.442067
vn -5.288467 -3.389806 -0.131918
v 64.564056 32.091550 -41.289347
vn -5.260244 -3.436260 -0.008188
v 63.887956 33.251407 -48.411854
vn -5.286278 -3.395286 -0.047958
v 64.496114 32.310221 -47.349202
vn -5.190187 -3.539547 -0.033980
v 61.413157 37.011089 -48.036253
vn -5.248968 -3.453390 -0.016591
v 62.668149 35.113249 -48.174086
vn -5.226724 -3.484451 -0.135394
v 62.161718 35.722558 -40.393070
vn -5.193904 -3.534065 -0.073166
v 61.524126 36.747000 -42.215861
vn -5.173526 -3.564347 -0.067693
v 61.230123 37.231077 -45.685382
vn -5.198408 -3.527449 -0.076417
v 60.975673 37.516390 -40.690838
vn -5.232699 -3.477716 -0.049356
v 62.307561 35.637888 -46.345072
vn -5.252276 -3.446633 -0.110287
v 61.129565 37.221573 -38.917132
vn -5.258142 -3.439170 -0.046356
v 63.117352 34.351986 -42.615616
vn -5.261442 -3.434269 -0.030530
v 63.624622 33.579049 -42.776729
vn -5.272254 -3.416671 -0.086861
v 64.531522 32.163988 -42.159417
vn -5.276255 -3.410786 -0.062124
v 64.069451 32.892705 -42.463473
vn -5.175156 -3.563113 -0.012580
v 60.546954 38.137115 -40.670068
vn -5.231669 -3.478412 -0.068607
v 60.667679 37.951072 -39.639268
vn -2.650844 -1.682873 -0.102801
v 65.439550 30.718000 -41.379700
vn -5.312252 -3.350535 -0.176370
v 64.931298 31.483218 -40.800591
vn -5.279693 -3.402387 -0.147844
v 64.991627 31.451970 -41.844726
vn -2.632885 -1.713484 -0.038410
v 60.779700 37.735250 -37.999800
vn -5.232247 -3.478552 -0.028117
v 61.777500 36.465314 -49.051634
vn -5.160661 -3.583750 -0.007631
v 61.198368 37.322757 -49.220965
vn -5.247848 -3.455051 -0.017258
v 63.970646 33.123120 -49.401612
vn -2.619428 -1.734289 -0.021053
v 64.014300 33.064450 -50.000000
vn -2.663387 -1.665663 -0.039249
v 64.676650 31.795600 -37.999800
vn -5.309128 -3.359451 -0.066125
v 64.274364 32.453853 -38.646681
vn -5.321462 -3.339417 -0.092260
v 64.797549 31.621546 -38.810417
vn -5.315169 -3.350299 -0.048101
v 65.014271 31.513093 -49.437974
vn -2.662105 -1.668108 -0.014749
v 65.054100 31.454500 -50.000000
vn -5.306792 -3.363703 -0.037081
v 64.898946 31.681561 -48.720947
vn -5.242495 -3.462766 -0.050250
v 62.473363 35.341179 -43.005772
vn -5.258119 -3.438979 -0.057245
v 62.873425 34.735417 -43.760413
vn -2.620007 -1.732774 -0.051118
v 63.426550 33.739550 -37.999350
vn -5.266150 -3.425994 -0.089437
v 63.721177 33.318206 -38.993268
vn -2.567234 -1.810710 0.015158
v 60.912350 37.723750 -50.000000
vn -5.230688 -3.478944 -0.121287
v 61.832784 36.154119 -38.832796
vn -2.612102 -1.744652 -0.052089
v 62.133450 35.679200 -37.999350
vn -5.218686 -3.496879 -0.122996
v 62.452793 35.226429 -38.844320
vn -2.583845 -1.785432 0.002077
v 60.145200 38.718150 -41.502450
vn -5.155260 -3.591749 -0.018631
v 60.634270 38.011207 -41.504680
vn -2.638586 -1.705035 0.017965
v 65.478100 30.718000 -43.606800
vn -5.265754 -3.427214 -0.024457
v 65.009403 31.450758 -42.867763
vn -5.287919 -3.393428 0.011868
v 64.983577 31.480543 -43.890999
vn -2.643968 -1.696247 -0.042244
v 65.485950 30.718000 -45.600350
vn -5.293674 -3.384038 -0.047040
v 64.934099 31.561093 -44.915080
vn -5.289624 -3.389721 -0.089706
v 64.938810 31.579141 -45.933149
vn -5.285906 -3.395396 -0.093657
v 64.437501 32.375011 -46.380144
vn -5.300095 -3.373804 -0.057316
v 64.984559 31.536827 -46.981140
vn -5.255564 -3.443459 0.007367
v 63.502226 33.839069 -49.029156
vn -5.240725 -3.465740 -0.043155
v 62.791666 34.908962 -46.590261
vn -5.263081 -3.431237 -0.053367
v 63.369677 34.031457 -46.322766
vn -5.240738 -3.465687 -0.045846
v 62.785600 34.907135 -45.751851
vn -5.137515 -3.616673 -0.063381
v 60.729893 37.953145 -46.337131
vn -5.140550 -3.612321 -0.065262
v 60.689635 37.993725 -45.328590
vn -2.569479 -1.807346 -0.029668
v 60.186700 38.718650 -45.929050
vn -5.167219 -3.573573 -0.077145
v 61.152700 37.321335 -44.683707
vn -5.143582 -3.607980 -0.066652
v 60.645599 38.036605 -44.311575
vn -5.241812 -3.462037 -0.123941
v 61.156998 37.213375 -39.923536
vn -5.282632 -3.401604 -0.018437
v 64.448411 32.321166 -44.164137
vn -5.271571 -3.417912 -0.075411
v 63.304040 34.096117 -44.479068
vn -5.288128 -3.392518 -0.070184
v 63.658126 33.559811 -45.292544
vn -5.277082 -3.409954 -0.045728
v 63.871332 33.208993 -44.363798
vn -5.227133 -3.486101 -0.044759
v 62.248877 35.712601 -45.289983
vn -5.247613 -3.454882 -0.065088
v 62.757646 34.935929 -44.737831
vn -2.654510 -1.680198 -0.010712
v 65.505850 30.718000 -47.726150
vn -5.307402 -3.362966 -0.018636
v 64.985624 31.541616 -47.996227
vn -5.286359 -3.395741 -0.021871
v 64.470242 32.355148 -48.181466
vn -5.276651 -3.408967 -0.119347
v 63.847966 33.156592 -40.115810
vn -5.278186 -3.406746 -0.113918
v 64.053944 32.882040 -41.296160
vn -5.298936 -3.373349 -0.136160
v 64.411848 32.294910 -40.425210
vn -5.144529 -3.606931 -0.046666
v 60.888452 37.656766 -42.302548
vn -5.187210 -3.543549 -0.079052
v 61.225837 37.167191 -41.427564
vn -5.248110 -3.454642 -0.028995
v 63.011303 34.585815 -47.341055
vn -5.241135 -3.465159 -0.039931
v 62.440590 35.447911 -47.276427
vn -5.319661 -3.341243 -0.123759
v 64.857657 31.556505 -39.782866
vn -5.249216 -3.451040 -0.113986
v 63.255856 34.062423 -39.862126
vn -5.222164 -3.491135 -0.138243
v 62.159371 35.690389 -39.523262
vn -5.222011 -3.491859 -0.124451
v 62.655957 34.958745 -39.706666
vn -5.202325 -3.522708 -0.063408
v 61.698987 36.525670 -44.935121
vn -5.216251 -3.502152 -0.061665
v 61.766029 36.439970 -46.028757
vn -5.244614 -3.457964 -0.116806
v 63.026173 34.467010 -41.503529
vn -5.262640 -3.431221 -0.086747
v 63.573081 33.644974 -41.865555
vn -5.284031 -3.398531 -0.085402
v 63.936128 33.142339 -46.007649
vn -5.273927 -3.414561 -0.062201
v 63.978430 33.100406 -46.876364
vn -2.572438 -1.803098 -0.031683
v 60.160200 38.718400 -43.701900
vn -5.143671 -3.607958 -0.060778
v 60.676179 37.974385 -43.253433
vn -2.658254 -1.673484 -0.052381
v 65.372050 30.718000 -39.098700
vn -5.266084 -3.427260 -0.025407
v 64.077394 32.955600 -47.669314
vn -5.261253 -3.434654 -0.022749
v 63.582238 33.715408 -47.471316
vn -2.629415 -1.719238 0.000790
v 62.731250 35.015750 -50.000000
vn -5.256941 -3.441358 0.004445
v 62.987390 34.624430 -49.079301
vn -5.250516 -3.451106 -0.007581
v 62.362774 35.579731 -49.062853
vn -5.255466 -3.443596 -0.003801
v 63.249970 34.225629 -48.237083
vn -5.265944 -3.427509 -0.020543
v 64.006641 32.994551 -43.415376
vn -5.229910 -3.479733 -0.133703
v 61.514876 36.701663 -40.577475
vn -5.226529 -3.484922 -0.130698
v 61.829201 36.256914 -41.333275
vn -5.223628 -3.490103 -0.100612
v 62.129327 35.840464 -42.181238
vn -5.227904 -3.482495 -0.139879
v 62.442545 35.338838 -41.332678
vn -5.165922 -3.576017 -0.042556
v 61.257352 37.143531 -43.081503
vn -5.189934 -3.541085 -0.053906
v 61.548651 36.722981 -43.940032
vn -5.206835 -3.516218 -0.045553
v 61.854896 36.268327 -43.080180
vn -5.232494 -3.475796 -0.134818
v 61.682088 36.415577 -39.718139
vn -5.231923 -3.476985 -0.125143
v 62.820964 34.737959 -40.581605
vn -5.241707 -3.464383 -0.028469
v 62.065797 36.024688 -48.110952
vn -5.134607 -3.620918 -0.054575
v 60.780508 37.901863 -47.448776
vn -5.177382 -3.558448 -0.071037
v 61.300085 37.152165 -46.786967
vn -5.230194 -3.481252 -0.060163
v 61.866704 36.314023 -47.113455
vn -2.565097 -1.813676 -0.021481
v 60.208300 38.718600 -48.078850
vn -5.136594 -3.618338 -0.030075
v 60.837941 37.833990 -48.509636
vn -5.263313 -3.430636 -0.077082
v 60.539117 38.116535 -38.622739
vn -5.137581 -3.616903 0.005794
v 60.555138 38.239383 -49.179654
# 145 vertices, 0 vertices normals

f 47//47 103//103 48//48
f 49//49 50//50 11//11
f 51//51 52//52 53//53
f 55//55 37//37 56//56
f 12//12 58//58 57//57
f 59//59 60//60 61//61
f 20//20 63//63 62//62
f 23//23 64//64 62//62
f 45//45 65//65 66//66
f 21//21 67//67 68//68
f 17//17 56//56 69//69
f 71//71 70//70 72//72
f 73//73 74//74 49//49
f 75//75 76//76 77//77
f 78//78 79//79 80//80
f 81//81 82//82 80//80
f 57//57 35//35 83//83
f 84//84 85//85 86//86
f 87//87 88//88 89//89
f 90//90 91//91 88//88
f 77//77 93//93 79//79
f 94//94 95//95 96//96
f 97//97 86//86 98//98
f 99//99 82//82 100//100
f 64//64 100//100 101//101
f 102//102 103//103 104//104
f 74//74 105//105 106//106
f 53//53 47//47 76//76
f 107//107 84//84 108//108
f 109//109 104//104 52//52
f 68//68 110//110 102//102
f 72//72 111//111 112//112
f 97//97 113//113 114//114
f 115//115 45//45 116//116
f 118//118 81//81 117//117
f 119//119 91//91 120//120
f 109//109 121//121 61//61
f 122//122 118//118 123//123
f 66//66 98//98 94//94
f 101//101 122//122 35//35
f 124//124 125//125 126//126
f 127//127 125//125 83//83
f 127//127 123//123 107//107
f 128//128 96//96 93//93
f 129//129 106//106 130//130
f 130//130 131//131 132//132
f 133//133 134//134 135//135
f 111//111 70//70 136//136
f 137//137 132//132 115//115
f 46//46 128//128 48//48
f 112//112 137//137 110//110
f 126//126 138//138 55//55
f 135//135 65//65 131//131
f 105//105 120//120 133//133
f 113//113 134//134 90//90
f 139//139 140//140 87//87
f 92//92 129//129 136//136
f 138//138 108//108 141//141
f 140//140 141//141 114//114
f 139//139 142//142 143//143
f 44//44 144//144 50//50
f 116//116 45//45 46//46
f 46//46 45//45 6//6
f 8//8 47//47 48//48
f 47//47 34//34 103//103
f 48//48 103//103 116//116
f 92//92 50//50 42//42
f 11//11 50//50 4//4
f 14//14 51//51 53//53
f 51//51 2//2 52//52
f 53//53 52//52 34//34
f 54//54 16//16 144//144
f 18//18 55//55 17//17
f 56//56 17//17 55//55
f 20//20 57//57 58//58
f 57//57 20//20 19//19
f 22//22 59//59 61//61
f 59//59 21//21 60//60
f 61//61 60//60 33//33
f 24//24 62//62 63//63
f 62//62 24//24 23//23
f 64//64 19//19 62//62
f 20//20 62//62 19//19
f 6//6 45//45 66//66
f 45//45 5//5 65//65
f 66//66 65//65 1//1
f 67//67 27//27 68//68
f 27//27 67//67 26//26
f 68//68 33//33 60//60
f 68//68 60//60 21//21
f 29//29 69//69 145//145
f 3//3 44//44 70//70
f 26//26 71//71 72//72
f 71//71 3//3 70//70
f 26//26 72//72 27//27
f 11//11 73//73 49//49
f 73//73 31//31 74//74
f 49//49 74//74 42//42
f 7//7 75//75 77//77
f 75//75 14//14 76//76
f 77//77 76//76 8//8
f 15//15 78//78 80//80
f 78//78 7//7 79//79
f 80//80 79//79 32//32
f 32//32 81//81 80//80
f 81//81 36//36 82//82
f 80//80 82//82 15//15
f 12//12 57//57 83//83
f 57//57 19//19 35//35
f 43//43 84//84 86//86
f 10//10 87//87 89//89
f 87//87 41//41 88//88
f 89//89 88//88 30//30
f 41//41 90//90 88//88
f 90//90 13//13 91//91
f 88//88 91//91 30//30
f 49//49 42//42 50//50
f 7//7 77//77 79//79
f 77//77 8//8 93//93
f 79//79 93//93 32//32
f 6//6 94//94 96//96
f 94//94 25//25 95//95
f 96//96 95//95 32//32
f 1//1 97//97 98//98
f 97//97 43//43 86//86
f 98//98 86//86 25//25
f 23//23 99//99 100//100
f 99//99 15//15 82//82
f 100//100 82//82 36//36
f 19//19 64//64 101//101
f 64//64 23//23 100//100
f 101//101 100//100 36//36
f 33//33 102//102 104//104
f 102//102 9//9 103//103
f 104//104 103//103 34//34
f 42//42 74//74 106//106
f 74//74 31//31 105//105
f 106//106 105//105 40//40
f 14//14 53//53 76//76
f 53//53 34//34 47//47
f 76//76 47//47 8//8
f 38//38 107//107 108//108
f 107//107 85//85 84//84
f 108//108 84//84 43//43
f 2//2 109//109 52//52
f 109//109 33//33 104//104
f 52//52 104//104 34//34
f 33//33 68//68 102//102
f 68//68 27//27 110//110
f 102//102 110//110 9//9
f 27//27 72//72 112//112
f 112//112 111//111 39//39
f 43//43 97//97 114//114
f 97//97 1//1 113//113
f 114//114 113//113 41//41
f 9//9 115//115 116//116
f 115//115 5//5 45//45
f 25//25 85//85 95//95
f 95//95 117//117 32//32
f 85//85 118//118 117//117
f 118//118 36//36 81//81
f 117//117 81//81 32//32
f 31//31 119//119 120//120
f 119//119 30//30 91//91
f 120//120 91//91 13//13
f 33//33 109//109 61//61
f 109//109 2//2 121//121
f 61//61 121//121 22//22
f 116//116 103//103 9//9
f 35//35 122//122 123//123
f 122//122 36//36 118//118
f 123//123 118//118 85//85
f 6//6 66//66 94//94
f 66//66 1//1 98//98
f 94//94 98//98 25//25
f 19//19 101//101 35//35
f 101//101 36//36 122//122
f 18//18 124//124 126//126
f 124//124 12//12 125//125
f 126//126 125//125 38//38
f 35//35 127//127 83//83
f 127//127 38//38 125//125
f 83//83 125//125 12//12
f 38//38 127//127 107//107
f 127//127 35//35 123//123
f 107//107 123//123 85//85
f 8//8 128//128 93//93
f 128//128 6//6 96//96
f 93//93 96//96 32//32
f 39//39 129//129 130//130
f 129//129 42//42 106//106
f 130//130 106//106 40//40
f 39//39 130//130 132//132
f 130//130 40//40 131//131
f 132//132 131//131 5//5
f 40//40 133//133 135//135
f 133//133 13//13 134//134
f 135//135 134//134 1//1
f 39//39 111//111 136//136
f 111//111 72//72 70//70
f 136//136 70//70 44//44
f 9//9 137//137 115//115
f 137//137 39//39 132//132
f 115//115 132//132 5//5
f 116//116 46//46 48//48
f 46//46 6//6 128//128
f 48//48 128//128 8//8
f 27//27 112//112 110//110
f 112//112 39//39 137//137
f 110//110 137//137 9//9
f 18//18 126//126 55//55
f 126//126 38//38 138//138
f 55//55 138//138 37//37
f 40//40 135//135 131//131
f 135//135 1//1 65//65
f 131//131 65//65 5//5
f 40//40 105//105 133//133
f 105//105 31//31 120//120
f 133//133 120//120 13//13
f 41//41 113//113 90//90
f 113//113 1//1 134//134
f 90//90 134//134 13//13
f 10//10 139//139 87//87
f 139//139 37//37 140//140
f 87//87 140//140 41//41
f 44//44 92//92 136//136
f 92//92 42//42 129//129
f 136//136 129//129 39//39
f 37//37 138//138 141//141
f 138//138 38//38 108//108
f 141//141 108//108 43//43
f 41//41 140//140 114//114
f 140//140 37//37 141//141
f 114//114 141//141 43//43
f 37//37 139//139 143//143
f 139//139 10//10 142//142
f 56//56 37//37 143//143
f 56//56 143//143 145//145
f 86//86 85//85 25//25
f 95//95 85//85 117//117
f 56//56 145//145 69//69
f 29//29 145//145 28//28
f 44//44 3//3 54//54
f 144//144 4//4 50//50
f 4//4 144//144 16//16
f 54//54 144//144 44//44
f 145//145 142//142 28//28
f 145//145 143//143 142//142
f 44//44 50//50 92//92
# 249 faces, 0 coords texture

# End of File
