####
#
# OBJ File Generated by Meshlab
#
####
# Object 43_C42_M_0.obj
#
# Vertices: 221
# Faces: 387
#
####
vn 1.886727 -2.511921 0.014098
v -28.072700 32.321800 -50.000000
vn 3.783554 -5.016152 0.029510
v -28.019565 32.366422 -49.158681
vn 3.452997 -5.248551 -0.021728
v -24.774297 34.679405 -40.384952
vn 3.281457 -5.357830 -0.045798
v -23.253797 35.633136 -39.792500
vn 3.383880 -5.293712 -0.046790
v -24.196853 35.058706 -43.937657
vn 0.742211 -1.368675 0.012275
v -17.932400 38.718000 -50.000000
vn 1.533566 -2.741647 -0.005548
v -19.308800 37.971600 -50.000000
vn 1.918730 -2.487269 -0.010733
v -29.947500 30.907100 -50.000000
vn 1.930802 -2.467297 -0.006626
v -30.172100 30.718000 -47.418300
vn 3.874372 -4.944867 0.015695
v -28.837981 31.777463 -46.114302
vn 3.351504 -5.313201 -0.023392
v -23.744797 35.353939 -41.822297
vn 1.981192 -2.440440 -0.023598
v -30.104300 30.718000 -42.745300
vn 3.699071 -5.077354 -0.045960
v -27.012772 33.147503 -43.116466
vn 1.594065 -2.706917 -0.009366
v -22.060600 36.391800 -50.000000
vn 1.540476 -2.752103 -0.002108
v -17.968700 38.718400 -46.940500
vn 1.532913 -2.752801 0.009337
v -17.963200 38.718700 -48.059600
vn 1.994632 -2.435091 -0.001529
v -30.072500 30.718000 -38.151700
vn 1.998743 -2.429203 -0.004009
v -30.081300 30.718000 -40.325000
vn 3.041321 -5.497259 -0.026906
v -19.366643 37.943326 -41.662379
vn 3.163169 -5.428410 -0.060492
v -20.628431 37.209511 -40.607619
vn 1.982906 -2.442566 -0.027056
v -30.136000 30.718000 -45.403000
vn 3.170239 -5.424388 0.012398
v -21.044493 36.992813 -44.651473
vn 3.151223 -5.435489 -0.049765
v -20.231935 37.421683 -38.811164
vn 3.236890 -5.384924 -0.057174
v -22.191266 36.288090 -41.249406
vn 3.884257 -4.937665 -0.041106
v -28.678655 31.888433 -44.022028
vn 3.740358 -5.046888 0.013515
v -27.377398 32.894364 -45.306880
vn 3.264386 -5.368189 0.000339
v -23.129428 35.747617 -47.837694
vn 1.507730 -2.763365 -0.005339
v -17.957100 38.718600 -45.648700
vn 1.859100 -2.532349 0.023862
v -26.621200 33.406500 -50.000000
vn 1.701139 -2.640181 -0.012253
v -24.473400 34.874400 -38.000000
vn 3.271270 -5.363980 -0.018063
v -22.560003 36.086964 -43.265587
vn 1.000175 -1.207260 0.003956
v -30.073100 30.718000 -38.000000
vn 1.980534 -2.438126 0.036280
v -29.963500 30.808800 -38.000000
vn 1.471851 -2.756774 -0.010146
v -17.916200 38.716800 -43.202700
vn 1.493631 -2.781751 -0.008909
v -17.923300 38.719000 -40.655300
vn 3.426936 -5.262424 -0.013136
v -24.622665 34.831847 -46.105695
vn 3.561821 -5.173496 -0.041033
v -25.802193 34.025292 -44.606498
vn 3.857118 -4.958677 -0.030962
v -28.360883 32.120310 -41.674939
vn 1.625805 -2.688057 -0.027909
v -22.499500 36.070500 -38.000000
vn 1.815185 -2.563552 0.001163
v -26.430900 33.542400 -38.000000
vn 1.910962 -2.492883 -0.009530
v -28.063500 32.341500 -38.000000
vn 3.174718 -5.421085 -0.040484
v -20.940579 37.055341 -42.467552
vn 1.470675 -2.755252 -0.012382
v -17.896500 38.718900 -38.946400
vn 1.514082 -2.752491 -0.007737
v -18.674800 38.301500 -38.000000
vn 1.564543 -2.724237 -0.014358
v -19.909900 37.602900 -38.000000
vn 1.607912 -2.698849 -0.026981
v -21.827000 36.476900 -38.000000
vn 0.746569 -1.387202 0.002152
v -17.900900 38.718000 -38.000000
vn 1.917580 -2.480146 -0.015609
v -30.187400 30.718000 -49.588500
vn 1.791566 -2.580349 0.020414
v -25.556700 34.172200 -50.000000
vn 1.675889 -2.656415 0.001422
v -23.799000 35.344800 -50.000000
vn 0.974243 -1.233388 0.001184
v -30.186900 30.718000 -50.000000
vn 3.574646 -5.166900 0.001975
v -25.938492 33.882246 -38.922963
vn 3.661182 -5.105269 -0.021974
v -26.556849 33.462900 -41.089388
vn 3.730888 -5.055043 -0.011178
v -27.285515 32.921857 -39.572750
vn 3.502796 -5.214202 0.019526
v -25.013098 34.557899 -48.185121
vn 3.266486 -5.366959 -0.022371
v -22.922474 35.871667 -45.426985
vn 3.647548 -5.115839 0.030804
v -26.177238 33.738896 -46.665180
vn 3.503521 -5.215454 -0.020555
v -25.285988 34.336704 -42.477379
vn 3.103778 -5.462865 0.029877
v -20.026125 37.566941 -46.440589
vn 3.090468 -5.470566 0.004607
v -19.363417 37.934007 -48.172439
vn 3.150718 -5.436049 0.002242
v -21.209460 36.879222 -48.217366
vn 3.408562 -5.277581 -0.033595
v -24.255849 35.020173 -41.097665
vn 3.302146 -5.344762 -0.062675
v -23.501489 35.492116 -40.799790
vn 3.344926 -5.318559 -0.031623
v -24.018151 35.155291 -40.050376
vn 1.497560 -2.761577 0.024767
v -18.620600 38.344800 -50.000000
vn 1.506881 -2.756541 0.018987
v -17.947800 38.718350 -49.029800
vn 1.895871 -2.505040 0.006150
v -29.010100 31.614450 -50.000000
vn 3.793536 -5.008670 0.004981
v -28.721095 31.835880 -49.383874
vn 3.881044 -4.940557 0.026972
v -29.302777 31.404162 -46.922709
vn 1.569539 -2.721408 -0.007667
v -21.309550 36.825550 -50.000000
vn 3.128860 -5.448689 -0.016811
v -20.789878 37.122709 -49.126902
vn 3.164568 -5.427930 -0.027298
v -21.698464 36.598144 -49.093182
vn 3.878649 -4.941914 -0.024784
v -28.494550 32.007177 -38.784060
vn 1.975731 -2.442263 -0.037866
v -29.013500 31.575150 -38.000000
vn 2.005404 -2.418242 -0.008052
v -30.076900 30.718000 -39.238350
vn 3.960938 -4.877219 -0.045483
v -29.426960 31.287778 -44.652028
vn 3.952834 -4.883821 -0.041231
v -29.454770 31.275437 -45.829053
vn 3.891484 -4.932182 -0.034713
v -28.777239 31.819122 -45.175063
vn 3.211194 -5.400148 -0.065652
v -21.413547 36.746956 -40.933165
vn 3.192989 -5.411134 -0.051010
v -21.235711 36.845184 -39.963598
vn 3.224873 -5.392207 -0.044831
v -21.994103 36.398044 -40.264817
vn 3.811866 -4.994585 0.014497
v -28.156533 32.298484 -45.722669
vn 3.817247 -4.990498 -0.040885
v -28.013135 32.402817 -44.662678
vn 3.055666 -5.489956 0.029121
v -19.178543 38.040505 -46.257316
vn 3.068627 -5.482863 0.005339
v -18.904341 38.194179 -47.146273
vn 3.091680 -5.469764 0.021403
v -19.671796 37.764241 -47.299146
vn 1.881531 -2.515774 0.018069
v -27.346950 32.864150 -50.000000
vn 3.767025 -5.028478 0.047775
v -27.261153 32.935813 -49.019969
vn 1.767253 -2.597354 -0.013235
v -25.452150 34.208400 -38.000000
vn 3.530731 -5.197292 -0.021564
v -25.145445 34.421030 -38.782144
vn 3.638880 -5.121979 0.028278
v -25.967872 33.883747 -49.253965
vn 3.697235 -5.079388 0.030346
v -26.531394 33.485371 -48.734450
vn 3.810970 -4.994899 0.073152
v -28.399504 32.102943 -46.704515
vn 3.743379 -5.045258 0.075069
v -27.565007 32.740733 -46.325921
vn 1.966452 -2.449860 -0.028757
v -30.154050 30.718000 -46.410650
vn 3.815206 -4.992126 0.012107
v -28.712894 31.839098 -48.547471
vn 3.808786 -4.997063 -0.019332
v -29.454505 31.278409 -49.201105
vn 1.482935 -2.769561 0.006525
v -17.919750 38.717900 -41.929000
vn 2.961086 -5.541685 0.005066
v -18.692463 38.303248 -42.315124
vn 1.976166 -2.442134 -0.018779
v -30.092800 30.718000 -41.535150
vn 1.860760 -2.531214 -0.011529
v -27.247200 32.941950 -38.000000
vn 3.761725 -5.032324 0.003431
v -27.662056 32.640843 -38.780054
vn 3.114261 -5.456965 -0.014201
v -20.297244 37.424484 -43.005608
vn 3.182107 -5.417580 0.003622
v -21.042335 36.994376 -43.491842
vn 3.128693 -5.448803 0.010847
v -20.421992 37.351635 -43.907799
vn 1.481542 -2.770233 -0.021112
v -17.909900 38.718950 -39.800850
vn 3.021988 -5.508205 -0.038948
v -18.836715 38.225055 -40.154495
vn 3.018514 -5.510064 -0.037594
v -18.723678 38.279800 -39.146897
vn 3.182184 -5.417450 -0.057782
v -21.071463 36.930064 -38.949496
vn 3.216045 -5.397333 -0.053180
v -21.820541 36.493006 -39.226140
vn 1.590921 -2.708849 -0.026709
v -20.868450 37.039900 -38.000000
vn 3.103914 -5.462913 -0.020277
v -19.745157 37.719912 -49.100599
vn 3.117660 -5.455079 0.005353
v -20.267934 37.417695 -48.249480
vn 3.096743 -5.466906 -0.035648
v -19.417123 37.883801 -38.567373
vn 1.546674 -2.734464 -0.010483
v -19.292350 37.952200 -38.000000
vn 1.911848 -2.492838 -0.014040
v -30.179750 30.718000 -48.503400
vn 3.102641 -5.463362 -0.050288
v -19.596312 37.792362 -39.448720
vn 3.249039 -5.377659 -0.054281
v -22.297544 36.199823 -38.722362
vn 3.740314 -5.047708 -0.039911
v -27.207412 33.012198 -44.229125
vn 3.802107 -5.002067 -0.037386
v -27.860759 32.506545 -43.521023
vn 3.660761 -5.106412 0.009931
v -26.586795 33.462925 -44.940917
vn 3.629992 -5.127562 -0.072355
v -26.387370 33.600676 -43.866968
vn 3.369208 -5.301788 -0.107163
v -24.418345 34.939956 -45.019866
vn 3.429018 -5.264072 -0.093215
v -24.997135 34.544165 -44.275878
vn 3.517704 -5.204237 -0.034604
v -25.224237 34.421556 -45.342883
vn 1.482467 -2.769692 -0.026538
v -17.936650 38.717700 -44.425700
vn 2.960957 -5.541536 -0.050057
v -18.539990 38.391655 -44.093874
vn 3.005452 -5.517321 0.000343
v -18.689068 38.322166 -45.188717
vn 3.578819 -5.163604 -0.046079
v -26.130388 33.755042 -42.795653
vn 3.554000 -5.181170 0.003705
v -25.854947 33.952086 -41.753567
vn 3.026572 -5.505576 -0.017195
v -19.516809 37.863799 -42.628202
vn 2.960856 -5.541732 -0.023778
v -18.915191 38.185210 -43.352035
vn 3.252322 -5.375689 -0.052458
v -22.967229 35.821595 -41.535075
vn 3.295434 -5.349218 -0.012690
v -23.182313 35.702216 -42.551310
vn 3.249630 -5.377268 -0.057218
v -22.381761 36.183741 -42.238497
vn 3.064951 -5.484144 -0.046150
v -19.293709 37.978322 -40.843223
vn 3.248969 -5.377758 -0.048287
v -22.740333 35.950138 -40.540386
vn 3.058152 -5.488058 -0.005195
v -19.721109 37.753913 -43.650528
vn 3.107083 -5.460876 -0.053723
v -20.150992 37.500737 -42.049694
vn 3.313828 -5.337850 0.032976
v -23.936872 35.252950 -46.927671
vn 3.252035 -5.376007 -0.002860
v -23.079857 35.777188 -46.566768
vn 3.292077 -5.351313 -0.047937
v -23.774986 35.350434 -45.789592
vn 3.797161 -5.005660 0.048287
v -27.919447 32.450522 -48.234151
vn 3.826628 -4.983109 0.061737
v -28.621720 31.917813 -47.627141
vn 1.628058 -2.686664 -0.029498
v -23.486450 35.472450 -38.000000
vn 3.291913 -5.351468 -0.025303
v -23.801843 35.292069 -38.979830
vn 3.252925 -5.375277 -0.057245
v -22.958564 35.801642 -38.845687
vn 3.425576 -5.265899 -0.003042
v -24.586850 34.801466 -39.299019
vn 3.475751 -5.231812 0.037880
v -24.806363 34.702008 -47.166448
vn 3.354912 -5.312193 0.010517
v -24.134010 35.114175 -48.024295
vn 3.111144 -5.458805 0.020965
v -20.081798 37.543799 -44.645804
vn 3.961048 -4.877086 -0.050018
v -29.367042 31.323671 -43.343557
vn 3.879834 -4.940953 -0.037406
v -28.553471 31.978000 -42.804873
vn 3.757418 -5.035698 -0.030120
v -27.422750 32.818546 -41.318090
vn 3.780501 -5.018324 -0.041022
v -27.692962 32.629333 -42.353889
vn 3.157169 -5.432009 -0.055414
v -20.443068 37.307920 -39.706563
vn 3.117005 -5.455242 -0.051257
v -19.807990 37.678403 -40.301835
vn 3.122149 -5.452243 -0.058364
v -20.000844 37.574666 -41.148399
vn 1.620818 -2.691199 -0.000053
v -22.929800 35.868300 -50.000000
vn 3.214158 -5.398688 -0.019438
v -22.591108 36.072252 -48.998575
vn 3.303319 -5.344136 -0.026139
v -23.506437 35.521005 -48.978986
vn 1.982865 -2.436655 -0.023771
v -30.120150 30.718000 -44.074150
vn 3.233105 -5.386983 -0.072975
v -21.583646 36.661525 -41.887766
vn 3.234297 -5.386662 -0.026482
v -21.734921 36.580398 -42.887680
vn 3.223013 -5.393570 -0.000906
v -21.854149 36.508859 -43.956883
vn 3.620475 -5.135207 0.010143
v -25.792840 34.008836 -48.387674
vn 3.615796 -5.138518 0.003919
v -25.597848 34.147097 -47.400865
vn 3.667021 -5.101769 -0.002948
v -26.361260 33.608431 -47.671006
vn 3.626844 -5.130403 0.051832
v -25.995304 33.878191 -45.650714
vn 3.605725 -5.145462 0.031832
v -25.410886 34.280102 -46.384826
vn 3.327343 -5.329351 -0.060778
v -23.580686 35.452231 -44.682089
vn 3.167746 -5.425244 -0.081719
v -20.793749 37.126857 -41.519361
vn 3.529087 -5.198343 -0.011996
v -25.566580 34.146188 -40.756387
vn 3.537868 -5.192345 -0.030906
v -25.372795 34.270303 -39.731837
vn 3.590648 -5.154544 -0.038281
v -26.109232 33.777291 -40.418929
vn 3.486704 -5.226874 0.004027
v -25.017401 34.516881 -41.428662
vn 3.459826 -5.244801 0.003089
v -24.502422 34.855008 -42.144985
vn 3.247801 -5.378422 -0.052729
v -22.507394 36.081687 -39.568366
vn 3.706015 -5.073300 -0.033454
v -26.912016 33.199036 -40.348478
vn 3.777526 -5.020650 -0.018645
v -27.899243 32.464075 -40.723885
vn 3.805702 -4.999391 -0.005044
v -28.120302 32.287246 -39.616166
vn 3.870509 -4.948596 -0.009143
v -28.549750 31.967303 -40.444395
vn 3.545595 -5.186455 0.039519
v -25.251139 34.387072 -49.136016
vn 1.742766 -2.613688 0.031743
v -24.677850 34.758500 -50.000000
vn 3.424116 -5.267435 0.006917
v -24.405623 34.951253 -49.052442
vn 3.208098 -5.402389 0.014657
v -22.411307 36.176459 -47.165670
vn 3.216427 -5.397494 0.004848
v -22.257208 36.268611 -46.150114
vn 3.742863 -5.046402 0.021426
v -27.131421 33.045101 -47.972401
vn 3.701576 -5.076726 0.037676
v -26.952843 33.173833 -46.970796
vn 3.666376 -5.102032 0.066315
v -26.766285 33.325489 -45.972330
vn 3.285190 -5.355359 -0.017254
v -22.734292 35.983444 -44.333918
vn 3.342649 -5.320169 -0.000586
v -23.383386 35.570306 -43.603449
vn 3.078255 -5.477091 0.035577
v -19.597087 37.817463 -45.455411
vn 3.128993 -5.448576 0.025184
v -20.603692 37.231121 -47.350313
vn 3.442255 -5.256175 -0.032039
v -24.750481 34.692834 -43.206092
vn 3.509452 -5.209976 -0.088802
v -25.558016 34.170850 -43.540018
vn 3.136347 -5.444335 0.028923
v -20.857619 37.087421 -46.507614
vn 3.128754 -5.448682 0.032372
v -20.494212 37.303290 -45.602336
vn 3.178165 -5.419838 0.021398
v -21.393993 36.783440 -45.806862
vn 3.397453 -5.284896 0.011560
v -23.973969 35.204225 -42.869812
vn 3.174601 -5.422021 0.022502
v -21.581983 36.667668 -47.050513
vn 3.220481 -5.395082 -0.000382
v -22.033607 36.402300 -45.049796
vn 1.560347 -2.726671 -0.009028
v -20.246075 37.437375 -50.000000
vn 3.190406 -5.412801 -0.003169
v -22.125316 36.339891 -48.099347
vn 3.678440 -5.093555 0.004673
v -26.814439 33.263356 -38.788917
vn 3.831856 -4.979272 0.015202
v -29.414783 31.301887 -48.047490
vn 2.977913 -5.532630 -0.002501
v -18.643022 38.332358 -41.196038
vn 3.021426 -5.508439 -0.013537
v -19.235494 38.022948 -44.393153
vn 3.051587 -5.492293 0.008369
v -18.498272 38.419350 -46.162852
vn 3.773965 -5.022997 0.054886
v -27.802891 32.547882 -47.311094
vn 3.997469 -4.847445 0.007060
v -29.524972 31.178182 -39.992495
vn 3.963546 -4.875212 -0.016959
v -29.600778 31.112120 -41.012092
vn 3.961724 -4.876691 0.010584
v -29.081556 31.534138 -40.829799
vn 3.070160 -5.482005 0.004881
v -18.596261 38.364501 -47.878250
vn 3.669031 -5.099113 -0.026439
v -26.786607 33.304366 -42.118052
vn 3.956332 -4.880971 -0.042765
v -29.290742 31.370766 -42.021997
vn 3.920777 -4.908133 -0.004538
v -28.925799 31.672999 -39.752674
vn 3.030097 -5.503958 0.011608
v -18.807803 38.248367 -49.433099
vn 3.060530 -5.487312 -0.000417
v -18.849250 38.224487 -48.790004
vn 3.621692 -5.134062 -0.034175
v -26.265728 33.650552 -39.588540
vn 3.979838 -4.861506 -0.048244
v -29.377668 31.297161 -39.021002
# 221 vertices, 0 vertices normals

f 62//62 63//63 64//64
f 8//8 67//67 97//97
f 70//70 71//71 72//72
f 76//76 77//77 78//78
f 79//79 80//80 81//81
f 78//78 82//82 83//83
f 29//29 88//88 87//87
f 89//89 52//52 90//90
f 82//82 93//93 94//94
f 95//95 69//69 77//77
f 33//33 32//32 17//17
f 68//68 96//96 97//97
f 101//101 102//102 205//205
f 103//103 104//104 105//105
f 106//106 108//108 107//107
f 46//46 109//109 111//111
f 43//43 47//47 44//44
f 71//71 112//112 113//113
f 44//44 115//115 114//114
f 117//117 108//108 114//114
f 83//83 119//119 120//120
f 121//121 122//122 119//119
f 123//123 124//124 125//125
f 126//126 127//127 128//128
f 131//131 132//132 99//99
f 133//133 134//134 135//135
f 48//48 51//51 8//8
f 63//63 133//133 137//137
f 139//139 103//103 131//131
f 140//140 141//141 142//142
f 143//143 144//144 96//96
f 145//145 146//146 147//147
f 148//148 64//64 146//146
f 140//140 149//149 150//150
f 138//138 105//105 151//151
f 154//154 155//155 215//215
f 117//117 156//156 157//157
f 157//157 158//158 136//136
f 159//159 160//160 161//161
f 163//163 135//135 164//164
f 165//165 104//104 164//164
f 166//166 167//167 168//168
f 125//125 169//169 170//170
f 142//142 171//171 123//123
f 80//80 156//156 109//109
f 139//139 158//158 172//172
f 172//172 79//79 163//163
f 173//173 174//174 175//175
f 176//176 177//177 62//62
f 81//81 178//178 137//137
f 174//174 148//148 90//90
f 179//179 180//180 154//154
f 40//40 205//205 52//52
f 175//175 220//220 179//179
f 130//130 176//176 173//173
f 181//181 182//182 180//180
f 102//102 73//73 181//181
f 183//183 184//184 185//185
f 183//183 166//166 91//91
f 186//186 187//187 141//141
f 188//188 143//143 88//88
f 185//185 161//161 150//150
f 188//188 168//168 189//189
f 167//167 149//149 170//170
f 190//190 169//169 121//121
f 190//190 94//94 189//189
f 191//191 192//192 171//171
f 128//128 193//193 84//84
f 86//86 194//194 113//113
f 124//124 195//195 196//196
f 118//118 147//147 178//178
f 197//197 198//198 199//199
f 177//177 195//195 200//200
f 192//192 134//134 200//200
f 122//122 196//196 129//129
f 194//194 197//197 201//201
f 151//151 198//198 193//193
f 187//187 199//199 202//202
f 191//191 202//202 165//165
f 153//153 120//120 155//155
f 72//72 204//204 160//160
f 201//201 186//186 204//204
f 3//3 62//62 64//64
f 62//62 11//11 63//63
f 64//64 63//63 4//4
f 7//7 65//65 218//218
f 65//65 6//6 66//66
f 214//214 219//219 16//16
f 112//112 219//219 60//60
f 67//67 1//1 68//68
f 2//2 68//68 1//1
f 14//14 70//70 72//72
f 70//70 203//203 71//71
f 72//72 71//71 61//61
f 214//214 16//16 15//15
f 74//74 73//73 41//41
f 17//17 75//75 221//221
f 75//75 18//18 211//211
f 25//25 76//76 78//78
f 76//76 21//21 77//77
f 78//78 77//77 10//10
f 24//24 79//79 81//81
f 79//79 20//20 80//80
f 81//81 80//80 110//110
f 25//25 78//78 83//83
f 78//78 10//10 82//82
f 83//83 82//82 26//26
f 15//15 85//85 214//214
f 85//85 84//84 86//86
f 2//2 1//1 87//87
f 87//87 88//88 2//2
f 30//30 89//89 90//90
f 89//89 40//40 52//52
f 29//29 91//91 92//92
f 91//91 29//29 49//49
f 26//26 82//82 94//94
f 82//82 10//10 93//93
f 94//94 93//93 210//210
f 21//21 95//95 77//77
f 95//95 9//9 69//69
f 68//68 2//2 96//96
f 34//34 98//98 99//99
f 98//98 35//35 207//207
f 99//99 207//207 19//19
f 18//18 100//100 212//212
f 40//40 101//101 205//205
f 101//101 41//41 102//102
f 205//205 102//102 54//54
f 138//138 103//103 105//105
f 103//103 42//42 104//104
f 105//105 104//104 22//22
f 35//35 106//106 107//107
f 106//106 43//43 108//108
f 108//108 43//43 44//44
f 110//110 109//109 46//46
f 23//23 111//111 109//109
f 111//111 23//23 45//45
f 61//61 71//71 113//113
f 71//71 203//203 112//112
f 113//113 112//112 60//60
f 45//45 114//114 115//115
f 114//114 45//45 23//23
f 9//9 116//116 206//206
f 116//116 48//48 97//97
f 116//116 97//97 206//206
f 97//97 48//48 8//8
f 23//23 117//117 114//114
f 117//117 107//107 108//108
f 114//114 108//108 44//44
f 46//46 118//118 110//110
f 118//118 46//46 39//39
f 25//25 83//83 120//120
f 83//83 26//26 119//119
f 120//120 119//119 13//13
f 26//26 121//121 119//119
f 121//121 37//37 122//122
f 119//119 122//122 13//13
f 36//36 123//123 125//125
f 123//123 5//5 124//124
f 125//125 124//124 37//37
f 28//28 126//126 128//128
f 126//126 34//34 127//127
f 128//128 127//127 208//208
f 53//53 215//215 130//130
f 130//130 129//129 58//58
f 19//19 131//131 99//99
f 131//131 138//138 132//132
f 99//99 132//132 34//34
f 24//24 133//133 135//135
f 133//133 11//11 134//134
f 135//135 134//134 31//31
f 35//35 107//107 207//207
f 207//207 136//136 19//19
f 4//4 63//63 137//137
f 63//63 11//11 133//133
f 137//137 133//133 24//24
f 132//132 208//208 127//127
f 132//132 127//127 34//34
f 19//19 139//139 131//131
f 139//139 42//42 103//103
f 131//131 103//103 138//138
f 36//36 140//140 142//142
f 140//140 27//27 141//141
f 142//142 141//141 56//56
f 88//88 29//29 92//92
f 2//2 143//143 96//96
f 39//39 145//145 147//147
f 145//145 30//30 146//146
f 147//147 146//146 4//4
f 30//30 148//148 146//146
f 148//148 3//3 64//64
f 146//146 64//64 4//4
f 27//27 140//140 150//150
f 140//140 36//36 149//149
f 150//150 149//149 55//55
f 144//144 93//93 69//69
f 208//208 138//138 151//151
f 151//151 105//105 22//22
f 152//152 25//25 153//153
f 107//107 117//117 157//157
f 117//117 23//23 156//156
f 157//157 156//156 20//20
f 107//107 157//157 136//136
f 157//157 20//20 158//158
f 136//136 158//158 19//19
f 50//50 159//159 161//161
f 159//159 14//14 160//160
f 161//161 160//160 27//27
f 12//12 162//162 152//152
f 162//162 21//21 76//76
f 42//42 163//163 164//164
f 163//163 24//24 135//135
f 164//164 135//135 31//31
f 31//31 165//165 164//164
f 165//165 22//22 104//104
f 164//164 104//104 42//42
f 92//92 166//166 168//168
f 166//166 55//55 167//167
f 168//168 167//167 57//57
f 36//36 125//125 170//170
f 125//125 37//37 169//169
f 170//170 169//169 57//57
f 36//36 142//142 123//123
f 142//142 56//56 171//171
f 123//123 171//171 5//5
f 110//110 80//80 109//109
f 80//80 20//20 156//156
f 109//109 156//156 23//23
f 42//42 139//139 172//172
f 139//139 19//19 158//158
f 172//172 158//158 20//20
f 42//42 172//172 163//163
f 172//172 20//20 79//79
f 163//163 79//79 24//24
f 173//173 3//3 174//174
f 3//3 176//176 62//62
f 176//176 58//58 177//177
f 62//62 177//177 11//11
f 24//24 81//81 137//137
f 81//81 110//110 178//178
f 137//137 178//178 4//4
f 52//52 174//174 90//90
f 174//174 3//3 148//148
f 90//90 148//148 30//30
f 179//179 54//54 180//180
f 205//205 54//54 220//220
f 53//53 175//175 179//179
f 175//175 174//174 220//220
f 179//179 220//220 54//54
f 53//53 130//130 173//173
f 130//130 58//58 176//176
f 173//173 176//176 3//3
f 54//54 181//181 180//180
f 181//181 217//217 182//182
f 54//54 102//102 181//181
f 102//102 41//41 73//73
f 181//181 73//73 217//217
f 55//55 183//183 185//185
f 183//183 49//49 184//184
f 185//185 184//184 50//50
f 49//49 183//183 91//91
f 183//183 55//55 166//166
f 91//91 166//166 92//92
f 27//27 186//186 141//141
f 186//186 201//201 187//187
f 141//141 187//187 56//56
f 92//92 188//188 88//88
f 188//188 210//210 143//143
f 88//88 143//143 2//2
f 55//55 185//185 150//150
f 185//185 50//50 161//161
f 150//150 161//161 27//27
f 210//210 188//188 189//189
f 188//188 92//92 168//168
f 189//189 168//168 57//57
f 57//57 167//167 170//170
f 167//167 55//55 149//149
f 170//170 149//149 36//36
f 26//26 190//190 121//121
f 190//190 57//57 169//169
f 121//121 169//169 37//37
f 57//57 190//190 189//189
f 190//190 26//26 94//94
f 189//189 94//94 210//210
f 56//56 191//191 171//171
f 191//191 31//31 192//192
f 171//171 192//192 5//5
f 28//28 128//128 209//209
f 128//128 208//208 193//193
f 84//84 193//193 59//59
f 86//86 59//59 194//194
f 113//113 194//194 61//61
f 37//37 124//124 196//196
f 124//124 5//5 195//195
f 196//196 195//195 58//58
f 110//110 118//118 178//178
f 118//118 39//39 147//147
f 178//178 147//147 4//4
f 201//201 197//197 199//199
f 197//197 59//59 198//198
f 199//199 198//198 22//22
f 11//11 177//177 200//200
f 177//177 58//58 195//195
f 200//200 195//195 5//5
f 5//5 192//192 200//200
f 192//192 31//31 134//134
f 200//200 134//134 11//11
f 13//13 122//122 129//129
f 122//122 37//37 196//196
f 129//129 196//196 58//58
f 61//61 194//194 201//201
f 194//194 59//59 197//197
f 208//208 151//151 193//193
f 151//151 22//22 198//198
f 193//193 198//198 59//59
f 56//56 187//187 202//202
f 187//187 201//201 199//199
f 202//202 199//199 22//22
f 31//31 191//191 165//165
f 191//191 56//56 202//202
f 165//165 202//202 22//22
f 153//153 25//25 120//120
f 7//7 112//112 203//203
f 182//182 213//213 38//38
f 14//14 72//72 160//160
f 72//72 61//61 204//204
f 160//160 204//204 27//27
f 61//61 201//201 204//204
f 204//204 186//186 27//27
f 77//77 69//69 10//10
f 205//205 220//220 52//52
f 206//206 69//69 9//9
f 28//28 209//209 15//15
f 206//206 96//96 144//144
f 97//97 96//96 206//206
f 98//98 207//207 99//99
f 138//138 208//208 132//132
f 84//84 59//59 86//86
f 93//93 10//10 69//69
f 206//206 144//144 69//69
f 97//97 67//67 68//68
f 85//85 209//209 84//84
f 207//207 107//107 136//136
f 143//143 210//210 144//144
f 210//210 93//93 144//144
f 209//209 128//128 84//84
f 209//209 85//85 15//15
f 74//74 221//221 73//73
f 13//13 155//155 120//120
f 155//155 154//154 38//38
f 213//213 212//212 216//216
f 219//219 214//214 60//60
f 212//212 100//100 216//216
f 216//216 153//153 38//38
f 60//60 86//86 113//113
f 212//212 211//211 18//18
f 213//213 216//216 38//38
f 85//85 86//86 60//60
f 215//215 129//129 130//130
f 217//217 213//213 182//182
f 214//214 85//85 60//60
f 216//216 100//100 12//12
f 129//129 215//215 13//13
f 12//12 152//152 216//216
f 53//53 179//179 154//154
f 217//217 211//211 213//213
f 215//215 155//155 13//13
f 74//74 17//17 221//221
f 215//215 53//53 154//154
f 219//219 66//66 16//16
f 175//175 53//53 173//173
f 38//38 153//153 155//155
f 211//211 212//212 213//213
f 152//152 153//153 216//216
f 33//33 17//17 74//74
f 219//219 218//218 66//66
f 152//152 162//162 76//76
f 218//218 65//65 66//66
f 7//7 218//218 112//112
f 219//219 112//112 218//218
f 152//152 76//76 25//25
f 220//220 174//174 52//52
f 180//180 182//182 38//38
f 221//221 75//75 211//211
f 154//154 180//180 38//38
f 221//221 217//217 73//73
f 217//217 221//221 211//211
# 387 faces, 0 coords texture

# End of File
