####
#
# OBJ File Generated by Meshlab
#
####
# Object 443_C90_M_9.obj
#
# Vertices: 130
# Faces: 218
#
####
vn 2.110056 -2.327040 0.028123
v -27.889200 74.967100 50.000000
vn 4.236417 -4.639632 0.057447
v -27.937883 74.908384 48.796548
vn 4.418395 -4.464500 0.101501
v -25.895076 76.663283 41.605892
vn 4.475314 -4.408414 0.110186
v -24.780681 77.782547 39.946857
vn 1.063019 -1.152881 0.019026
v -29.266800 73.409600 38.000000
vn 2.128637 -2.307732 0.047715
v -29.268300 73.412100 38.235300
vn 4.290710 -4.588304 0.112056
v -27.916072 74.687297 39.586703
vn 2.105577 -2.331452 -0.018535
v -26.286000 76.400100 50.000000
vn 2.155750 -2.280996 -0.051334
v -25.758900 76.868800 50.000000
vn 2.123495 -2.314371 0.031379
v -29.363000 73.577200 47.626900
vn 4.241493 -4.634838 0.078152
v -28.022327 74.790896 46.646459
vn 2.213715 -2.226793 0.075198
v -25.663200 76.813900 38.000000
vn 2.211790 -2.230674 -0.014980
v -23.507800 79.166500 50.000000
vn 2.150472 -2.303179 -0.026782
v -23.407800 79.261400 49.868400
vn 1.099770 -1.112178 0.033673
v -23.409200 79.264000 50.000000
vn 4.434162 -4.449768 0.120818
v -25.527796 77.097244 43.716044
vn 4.348390 -4.533194 0.086857
v -26.552012 76.125992 45.576013
vn 2.105287 -2.333160 0.076820
v -29.346700 73.548000 44.449100
vn 4.306546 -4.573207 0.128321
v -27.395225 75.224735 41.316795
vn 2.109438 -2.325724 0.086355
v -29.313700 73.490900 42.231200
vn 2.117845 -2.317125 0.065578
v -29.288400 73.447000 40.355100
vn 4.492353 -4.392138 -0.077282
v -24.762237 77.895852 49.094337
vn 2.157589 -2.282659 0.043054
v -27.549900 74.999600 38.000000
vn 2.109082 -2.331549 0.044084
v -29.356400 73.564800 45.406200
vn 2.237519 -2.205959 0.042344
v -23.382700 79.218100 41.170500
vn 4.483717 -4.400751 0.088370
v -24.487551 78.116116 42.282427
vn 4.562032 -4.318216 0.103608
v -23.941690 78.762257 46.016953
vn 2.290205 -2.140214 0.085872
v -23.418100 79.279400 44.248600
vn 4.528080 -4.355563 -0.010941
v -24.176022 78.533001 46.962200
vn 2.245815 -2.197052 -0.044744
v -23.416000 79.275700 49.020200
vn 2.290685 -2.130855 0.014569
v -23.442300 79.321300 46.572300
vn 2.244846 -2.194569 0.064650
v -23.369700 79.195600 39.305900
vn 2.248410 -2.191282 0.088420
v -24.150900 78.338500 38.000000
vn 2.266349 -2.183621 0.068567
v -23.402100 79.251600 43.451000
vn 1.066117 -1.156337 0.015086
v -29.375800 73.598400 50.000000
vn 1.139793 -1.088438 0.032994
v -23.357000 79.173500 38.000000
vn 4.282709 -4.596960 0.018824
v -26.661681 76.062750 47.933702
vn 4.232869 -4.640354 0.166407
v -28.530956 74.225038 42.871937
vn 4.381031 -4.502045 0.098620
v -26.534145 76.002800 39.673887
vn 4.433577 -4.451786 -0.006369
v -25.462018 77.222784 47.173478
vn 2.246235 -2.196082 -0.033051
v -24.327475 78.326950 50.000000
vn 4.316046 -4.563805 0.127536
v -26.958816 75.688598 43.291307
vn 4.447731 -4.436786 0.087590
v -25.079418 77.602791 45.532773
vn 4.239133 -4.634736 0.163372
v -28.657918 74.067570 41.718669
vn 4.200508 -4.672489 0.026455
v -27.180525 75.592029 49.312459
vn 4.230612 -4.644991 0.042187
v -27.302318 75.482877 48.304483
vn 4.408129 -4.474732 0.124799
v -26.115939 76.392432 38.850873
vn 4.459361 -4.422697 0.179596
v -25.263090 77.254987 38.908234
vn 4.467422 -4.416406 0.097080
v -25.700120 76.848868 39.776841
vn 4.487334 -4.397636 0.043050
v -25.374452 77.183133 40.799546
vn 4.409080 -4.474611 0.068741
v -26.171014 76.374289 40.603827
vn 2.177814 -2.263943 0.035919
v -26.606550 75.906750 38.000000
vn 4.343273 -4.539449 0.085169
v -26.984087 75.556343 38.817332
vn 2.306311 -2.132380 0.058983
v -23.430200 79.300350 45.410450
vn 4.541409 -4.339578 0.117009
v -23.994898 78.681989 45.085446
vn 4.255070 -4.621366 0.123556
v -28.422481 74.233535 40.089340
vn 4.240748 -4.633740 0.147690
v -28.752917 73.952114 40.892467
vn 2.126293 -2.311946 0.058225
v -29.278350 73.429550 39.295200
vn 4.248226 -4.628062 0.109335
v -28.878383 73.793783 39.151600
vn 4.257675 -4.619580 0.094015
v -28.308414 74.311642 39.006426
vn 4.421367 -4.463657 0.047429
v -25.949313 76.732495 46.500109
vn 4.375014 -4.508766 -0.006412
v -26.007677 76.694552 47.511264
vn 4.319765 -4.560988 0.080344
v -26.636093 76.067511 46.796022
vn 2.115898 -2.322113 0.019285
v -29.359700 73.571000 46.516550
vn 4.219404 -4.655082 0.065433
v -28.703754 74.164714 46.038662
vn 4.241676 -4.634864 0.062340
v -28.686138 74.189802 47.123648
vn 4.479359 -4.405248 0.084687
v -23.969063 78.632429 41.707160
vn 4.489087 -4.395653 0.064383
v -24.634326 77.950134 41.183285
vn 4.468349 -4.416603 0.076192
v -24.030282 78.553556 40.621365
vn 4.491906 -4.392110 0.094324
v -25.175871 77.402663 41.898387
vn 2.232124 -2.210306 0.042109
v -23.376200 79.206850 40.238200
vn 4.475356 -4.407647 0.137822
v -23.993133 78.571947 39.611114
vn 4.510553 -4.370703 0.167598
v -23.855061 78.674526 38.745114
vn 4.471356 -4.410199 0.187725
v -24.482601 78.040362 38.872692
vn 4.304503 -4.576020 0.091881
v -27.739457 74.837840 38.817608
vn 4.328336 -4.553335 0.105062
v -27.303318 75.270492 39.624503
vn 4.332758 -4.548879 0.115051
v -26.948432 75.628794 40.497687
vn 4.302260 -4.577374 0.123182
v -27.670468 74.940159 40.396837
vn 2.107342 -2.328200 0.090540
v -29.330200 73.519450 43.340150
vn 4.210314 -4.660793 0.169017
v -28.723892 74.090060 43.910105
vn 4.471547 -4.412641 0.106508
v -25.001675 77.611863 42.959422
vn 4.432163 -4.450619 0.144515
v -25.707009 76.884312 42.665290
vn 4.337359 -4.544526 0.114061
v -26.651528 75.936635 41.439612
vn 4.256064 -4.621536 0.074720
v -28.663831 74.230619 48.218327
vn 4.250091 -4.626851 0.085929
v -27.988805 74.841747 47.710077
vn 2.243700 -2.198364 0.051063
v -23.392400 79.234850 42.310750
vn 4.493894 -4.390320 0.090745
v -23.903115 78.721170 42.641272
vn 2.130421 -2.308653 0.032115
v -29.369400 73.587800 48.813450
vn 4.258293 -4.619720 0.059218
v -28.644967 74.263163 49.306389
vn 2.127823 -2.311113 0.027019
v -28.632500 74.282750 50.000000
vn 4.388729 -4.494613 0.119315
v -26.245644 76.389778 43.501064
vn 4.359294 -4.522719 0.135903
v -26.425202 76.177363 42.442573
vn 2.229474 -2.211473 0.091868
v -24.907050 77.576200 38.000000
vn 2.093538 -2.342192 0.028994
v -27.087600 75.683600 50.000000
vn 4.536754 -4.345686 -0.103401
v -23.820461 78.895082 47.603232
vn 2.268534 -2.172410 -0.063159
v -23.429150 79.298500 47.796250
vn 4.494000 -4.390300 -0.086286
v -24.377707 78.309761 48.078669
vn 4.457202 -4.426613 0.127729
v -24.630035 78.031693 44.888124
vn 4.445516 -4.438118 0.137414
v -25.302924 77.353087 44.700545
vn 4.457858 -4.426324 0.109515
v -24.808517 77.823700 43.934676
vn 2.132463 -2.306458 0.044864
v -28.409475 74.200100 38.000000
vn 4.494942 -4.389519 -0.077288
v -24.016411 78.659669 49.106969
vn 4.517280 -4.364841 0.122811
v -24.072566 78.575198 44.119682
vn 4.484804 -4.399634 0.084614
v -24.256964 78.368298 43.246729
vn 4.259673 -4.617946 -0.076917
v -26.006503 76.662336 49.379436
vn 4.304145 -4.575465 0.124883
v -27.164668 75.467643 42.283709
vn 4.251986 -4.624546 0.110680
v -27.397287 75.335914 45.083181
vn 4.254177 -4.621710 0.140248
v -27.519084 75.196429 44.055630
vn 4.319134 -4.560799 0.103470
v -26.778570 75.882853 44.362756
vn 4.481563 -4.403349 -0.029925
v -24.851134 77.845398 47.162322
vn 4.464547 -4.421041 0.018783
v -25.262375 77.422451 46.364019
vn 4.324037 -4.556857 -0.079061
v -25.999626 76.674825 48.526704
vn 4.239922 -4.634106 0.158902
v -28.135298 74.616392 43.759775
vn 4.262424 -4.613886 0.148484
v -27.688471 75.006862 43.091787
vn 4.205624 -4.666393 0.123340
v -28.718861 74.129000 44.950482
vn 4.472819 -4.412050 0.070533
v -24.561998 78.130256 46.014698
vn 4.417187 -4.465475 -0.089435
v -25.457397 77.181989 49.170653
vn 4.443068 -4.441154 -0.099575
v -25.261670 77.407612 48.116534
vn 4.254463 -4.622883 0.083038
v -27.333717 75.415029 46.155585
vn 4.230476 -4.644519 0.096038
v -28.056830 74.739697 45.597389
vn 4.248837 -4.628052 0.083218
v -27.324954 75.442361 47.242554
vn 4.265247 -4.611180 0.151508
v -27.938269 74.744358 42.096076
vn 4.450252 -4.434452 0.073002
v -25.713921 76.966923 45.556196
vn 4.422778 -4.461381 0.106284
v -26.031635 76.618161 44.575555
vn 2.244108 -2.198407 -0.023014
v -25.179800 77.457950 50.000000
vn 2.110331 -2.325783 0.082723
v -29.301050 73.468950 41.293150
vn 4.269878 -4.607039 0.145047
v -28.105315 74.556217 41.117377
vn 4.511283 -4.371931 -0.108621
v -23.786350 78.910017 48.349941
vn 4.231253 -4.642819 0.135947
v -28.141955 74.637199 44.542211
vn 4.233187 -4.643020 -0.011804
v -26.693470 76.032737 49.000518
# 130 vertices, 0 vertices normals

f 5//5 101//101 6//6
f 37//37 130//130 46//46
f 47//47 48//48 49//49
f 50//50 51//51 49//49
f 13//13 14//14 15//15
f 52//52 47//47 53//53
f 28//28 54//54 55//55
f 21//21 58//58 59//59
f 59//59 60//60 56//56
f 61//61 62//62 63//63
f 102//102 30//30 13//13
f 64//64 65//65 66//66
f 31//31 29//29 27//27
f 67//67 68//68 69//69
f 70//70 50//50 68//68
f 71//71 69//69 72//72
f 73//73 72//72 74//74
f 75//75 53//53 76//76
f 77//77 78//78 76//76
f 79//79 38//38 80//80
f 81//81 82//82 70//70
f 77//77 51//51 83//83
f 84//84 66//66 85//85
f 86//86 87//87 67//67
f 88//88 84//84 89//89
f 35//35 89//89 90//90
f 91//91 92//92 82//82
f 93//93 74//74 48//48
f 8//8 94//94 45//45
f 36//36 32//32 73//73
f 30//30 128//128 96//96
f 95//95 128//128 97//97
f 98//98 99//99 100//100
f 75//75 60//60 101//101
f 13//13 41//41 102//102
f 34//34 28//28 103//103
f 34//34 104//104 87//87
f 100//100 81//81 104//104
f 9//9 8//8 105//105
f 83//83 92//92 106//106
f 107//107 108//108 109//109
f 110//110 111//111 116//116
f 130//130 112//112 105//105
f 108//108 113//113 114//114
f 116//116 98//98 55//55
f 62//62 118//118 112//112
f 118//118 110//110 97//97
f 107//107 119//119 120//120
f 121//121 46//46 85//85
f 121//121 119//119 63//63
f 38//38 44//44 122//122
f 123//123 124//124 99//99
f 22//22 41//41 125//125
f 124//124 109//109 91//91
f 122//122 106//106 114//114
f 61//61 123//123 111//111
f 57//57 44//44 126//126
f 56//56 78//78 127//127
f 65//65 115//115 120//120
f 46//46 45//45 2//2
f 39//39 47//47 49//49
f 47//47 12//12 48//48
f 49//49 48//48 4//4
f 4//4 50//50 49//49
f 50//50 3//3 51//51
f 49//49 51//51 39//39
f 23//23 52//52 53//53
f 52//52 12//12 47//47
f 53//53 47//47 39//39
f 54//54 27//27 55//55
f 27//27 54//54 31//31
f 28//28 55//55 103//103
f 21//21 56//56 57//57
f 57//57 56//56 127//127
f 58//58 6//6 59//59
f 101//101 59//59 6//6
f 21//21 59//59 56//56
f 59//59 101//101 60//60
f 56//56 60//60 7//7
f 17//17 61//61 63//63
f 61//61 40//40 62//62
f 63//63 62//62 37//37
f 10//10 64//64 66//66
f 64//64 24//24 65//65
f 66//66 65//65 11//11
f 25//25 67//67 69//69
f 67//67 26//26 68//68
f 69//69 68//68 4//4
f 26//26 70//70 68//68
f 70//70 3//3 50//50
f 68//68 50//50 4//4
f 32//32 71//71 72//72
f 71//71 25//25 69//69
f 72//72 69//69 4//4
f 33//33 73//73 74//74
f 73//73 32//32 72//72
f 74//74 72//72 4//4
f 7//7 75//75 76//76
f 75//75 23//23 53//53
f 76//76 53//53 39//39
f 39//39 77//77 76//76
f 77//77 19//19 78//78
f 76//76 78//78 7//7
f 18//18 79//79 80//80
f 79//79 20//20 38//38
f 26//26 81//81 70//70
f 81//81 16//16 82//82
f 70//70 82//82 3//3
f 19//19 77//77 83//83
f 77//77 39//39 51//51
f 83//83 51//51 3//3
f 2//2 84//84 85//85
f 84//84 10//10 66//66
f 85//85 66//66 11//11
f 25//25 86//86 67//67
f 86//86 34//34 87//87
f 67//67 87//87 26//26
f 35//35 88//88 89//89
f 88//88 10//10 84//84
f 89//89 84//84 2//2
f 2//2 1//1 89//89
f 90//90 89//89 1//1
f 16//16 91//91 82//82
f 91//91 42//42 92//92
f 82//82 92//92 3//3
f 12//12 93//93 48//48
f 93//93 33//33 74//74
f 48//48 74//74 4//4
f 94//94 1//1 45//45
f 2//2 45//45 1//1
f 36//36 73//73 33//33
f 31//31 96//96 95//95
f 29//29 95//95 97//97
f 97//97 102//102 22//22
f 103//103 98//98 100//100
f 98//98 43//43 99//99
f 100//100 99//99 16//16
f 23//23 75//75 101//101
f 75//75 7//7 60//60
f 22//22 102//102 41//41
f 34//34 103//103 104//104
f 87//87 104//104 26//26
f 103//103 100//100 104//104
f 100//100 16//16 81//81
f 104//104 81//81 26//26
f 9//9 105//105 117//117
f 19//19 83//83 106//106
f 83//83 3//3 92//92
f 106//106 92//92 42//42
f 17//17 107//107 109//109
f 107//107 129//129 108//108
f 109//109 108//108 42//42
f 29//29 110//110 116//116
f 110//110 40//40 111//111
f 116//116 111//111 43//43
f 8//8 130//130 105//105
f 105//105 112//112 117//117
f 42//42 108//108 114//114
f 108//108 129//129 113//113
f 114//114 113//113 38//38
f 115//115 18//18 80//80
f 113//113 80//80 38//38
f 18//18 115//115 24//24
f 27//27 116//116 55//55
f 116//116 43//43 98//98
f 55//55 98//98 103//103
f 22//22 117//117 118//118
f 37//37 62//62 112//112
f 62//62 40//40 118//118
f 112//112 118//118 117//117
f 22//22 118//118 97//97
f 118//118 40//40 110//110
f 97//97 110//110 29//29
f 129//129 107//107 120//120
f 107//107 17//17 119//119
f 120//120 119//119 11//11
f 11//11 121//121 85//85
f 121//121 37//37 46//46
f 85//85 46//46 2//2
f 37//37 121//121 63//63
f 121//121 11//11 119//119
f 63//63 119//119 17//17
f 38//38 20//20 44//44
f 43//43 123//123 99//99
f 123//123 17//17 124//124
f 99//99 124//124 16//16
f 13//13 30//30 14//14
f 117//117 125//125 9//9
f 125//125 117//117 22//22
f 16//16 124//124 91//91
f 124//124 17//17 109//109
f 91//91 109//109 42//42
f 38//38 122//122 114//114
f 122//122 19//19 106//106
f 114//114 106//106 42//42
f 40//40 61//61 111//111
f 61//61 17//17 123//123
f 111//111 123//123 43//43
f 29//29 116//116 27//27
f 21//21 57//57 126//126
f 126//126 44//44 20//20
f 44//44 57//57 127//127
f 56//56 7//7 78//78
f 127//127 78//78 19//19
f 11//11 65//65 120//120
f 65//65 24//24 115//115
f 120//120 115//115 129//129
f 122//122 44//44 127//127
f 122//122 127//127 19//19
f 95//95 29//29 31//31
f 128//128 95//95 96//96
f 128//128 102//102 97//97
f 102//102 128//128 30//30
f 129//129 80//80 113//113
f 129//129 115//115 80//80
f 130//130 8//8 45//45
f 130//130 45//45 46//46
f 130//130 37//37 112//112
# 218 faces, 0 coords texture

# End of File
