####
#
# OBJ File Generated by Meshlab
#
####
# Object 450_C91_M_6.obj
#
# Vertices: 147
# Faces: 249
#
####
vn 2.607998 -1.741259 -0.007794
v -60.951100 38.718000 -41.416400
vn 2.616874 -1.740505 -0.018691
v -60.970100 38.718000 -43.647300
vn 2.666899 -1.679750 -0.037362
v -66.119200 30.718000 -44.937900
vn 2.623540 -1.726705 -0.040451
v -62.505200 36.523800 -50.000000
vn 5.290487 -3.389466 0.022750
v -63.999267 34.063411 -40.204364
vn 2.646996 -1.692641 0.006598
v -63.790100 34.411700 -37.999700
vn 5.278155 -3.408596 -0.007813
v -63.065113 35.518458 -41.313377
vn 5.313579 -3.351961 -0.092568
v -64.678970 33.038189 -45.789138
vn 5.287579 -3.393751 -0.047953
v -63.759543 34.541451 -48.852640
vn 2.615722 -1.739044 -0.000433
v -62.424900 36.530400 -37.999700
vn 2.632243 -1.677810 0.001331
v -66.142100 30.718000 -40.213700
vn 2.653231 -1.688610 0.025523
v -66.136500 30.718000 -40.579800
vn 5.315005 -3.350272 -0.035830
v -65.043853 32.406986 -43.938093
vn 2.645419 -1.694370 -0.024056
v -63.898800 34.340500 -50.000000
vn 5.206136 -3.515820 -0.029056
v -61.868859 37.364754 -39.238700
vn 5.240811 -3.465675 0.028043
v -61.976685 37.188730 -40.333904
vn 5.239040 -3.468154 -0.046475
v -62.339557 36.675917 -46.202232
vn 5.211737 -3.508778 -0.063397
v -61.616449 37.784894 -47.704685
vn 2.589201 -1.758677 -0.022867
v -60.981300 38.718300 -47.599700
vn 2.611801 -1.765779 -0.005499
v -60.952600 38.718000 -40.554200
vn 2.617461 -1.744412 -0.013244
v -60.982600 38.718000 -45.670700
vn 2.659446 -1.683558 0.010230
v -66.114600 30.718000 -43.089200
vn 5.283580 -3.400180 0.001168
v -64.990415 32.529017 -38.898631
vn 2.647389 -1.666732 -0.030643
v -66.169200 30.718000 -47.183400
vn 2.664246 -1.661965 -0.002346
v -65.381000 31.930000 -37.999100
vn 2.641896 -1.698194 -0.028635
v -64.768700 32.856700 -37.999000
vn 2.664343 -1.663609 -0.022222
v -64.981900 32.653100 -50.000000
vn 2.669743 -1.655517 0.004597
v -65.866200 31.188500 -50.000000
vn 2.665712 -1.663224 0.006211
v -66.166600 30.718000 -48.474300
vn 1.326785 -0.842036 0.001565
v -66.164800 30.718000 -50.000000
vn 1.363242 -0.802739 -0.029190
v -66.094700 30.718000 -38.000000
vn 2.607021 -1.779048 -0.032735
v -61.018900 38.718000 -49.560500
vn 2.589160 -1.778240 -0.023734
v -61.189200 38.475800 -50.000000
vn 1.273852 -0.911998 0.008985
v -61.015800 38.718000 -50.000000
vn 1.281490 -0.890127 -0.023680
v -60.905900 38.718000 -38.000000
vn 5.241453 -3.464703 -0.032245
v -62.054053 37.074081 -42.401229
vn 5.280869 -3.403706 -0.048175
v -63.112774 35.473863 -43.290567
vn 5.296460 -3.380088 0.025223
v -65.227447 32.146865 -40.941626
vn 5.304593 -3.367281 -0.010952
v -64.085840 33.920793 -42.340074
vn 5.238544 -3.469111 -0.033283
v -62.099228 37.026472 -44.369308
vn 5.248240 -3.453179 -0.081649
v -62.632300 36.281888 -48.068777
vn 5.278091 -3.408627 0.025502
v -63.000129 35.632553 -39.468436
vn 5.282413 -3.401374 -0.064409
v -63.625631 34.722631 -46.771336
vn 5.319592 -3.343069 -0.062692
v -64.074675 33.961814 -44.334205
vn 5.318079 -3.344658 -0.098358
v -65.245535 32.148503 -46.136218
vn 5.334182 -3.320160 -0.018584
v -65.587124 31.650328 -48.153768
vn 5.291072 -3.388485 0.033548
v -63.900945 34.226937 -39.159282
vn 5.294240 -3.383588 0.027068
v -63.465514 34.901766 -39.776404
vn 5.287639 -3.393899 0.022601
v -63.336898 35.112156 -38.836311
vn 5.283660 -3.399946 -0.041311
v -64.146227 33.933064 -48.223211
vn 5.302438 -3.370371 -0.046161
v -64.764094 32.983170 -49.212709
vn 5.252302 -3.446667 -0.085034
v -62.588725 36.371963 -48.994234
vn 5.211181 -3.509079 -0.091443
v -62.065138 37.159481 -49.324338
vn 5.293738 -3.383977 -0.058161
v -63.376607 35.149387 -49.393545
vn 2.647619 -1.690857 -0.026864
v -63.202000 35.432150 -50.000000
vn 5.191328 -3.538366 -0.026635
v -61.436959 38.002659 -39.859369
vn 5.221833 -3.494310 0.012394
v -61.477613 37.930481 -40.910759
vn 2.652062 -1.684080 -0.006673
v -66.116900 30.718000 -44.013550
vn 5.314353 -3.351246 -0.055604
v -65.625174 31.494273 -44.484609
vn 5.309103 -3.360193 0.012930
v -65.609062 31.515287 -43.408267
vn 5.295092 -3.381716 -0.052186
v -63.621051 34.713508 -45.779524
vn 5.306134 -3.363945 -0.083041
v -64.162000 33.866486 -46.273452
vn 5.309438 -3.359426 -0.000150
v -64.576883 33.143675 -43.041521
vn 5.291336 -3.388132 0.024829
v -64.599770 33.120394 -41.900799
vn 5.303175 -3.369450 0.034877
v -65.110612 32.313595 -42.658348
vn 5.293674 -3.384540 0.017318
v -63.535842 34.785600 -40.760152
vn 5.290377 -3.389711 0.012642
v -64.063264 33.959141 -41.264296
vn 5.300676 -3.373376 -0.019345
v -63.578430 34.715232 -41.783653
vn 2.598487 -1.765636 0.001477
v -60.981950 38.718150 -46.635200
vn 5.218069 -3.499683 -0.021113
v -61.364146 38.155584 -46.740621
vn 5.234049 -3.475971 -0.027071
v -61.568071 37.831129 -44.992053
vn 5.236558 -3.472229 -0.022432
v -62.173458 36.920422 -45.300753
vn 5.237152 -3.471226 -0.033329
v -61.590522 37.803118 -45.912791
vn 2.643365 -1.697575 -0.021525
v -64.440350 33.496800 -50.000000
vn 5.250971 -3.450193 -0.042832
v -62.591235 36.262104 -42.836526
vn 5.246566 -3.456851 -0.045221
v -62.607822 36.247115 -43.807633
vn 5.240988 -3.465387 -0.036450
v -62.070374 37.059856 -43.395042
vn 2.660159 -1.671255 0.007330
v -66.165700 30.718000 -49.237150
vn 5.315208 -3.350025 -0.037484
v -65.831791 31.257762 -47.518527
vn 5.349999 -3.294493 0.006259
v -65.708936 31.447382 -49.139900
vn 2.579616 -1.792474 -0.047165
v -60.929250 38.718000 -39.277100
vn 5.159625 -3.584356 -0.095307
v -61.366538 38.077326 -38.845528
vn 5.331388 -3.323860 -0.001492
v -65.499265 31.734084 -39.066324
vn 2.699508 -1.606614 -0.029919
v -65.737850 31.324000 -37.999550
vn 2.681443 -1.636449 -0.036591
v -66.118400 30.718000 -39.106850
vn 5.205088 -3.518039 -0.093491
v -61.334387 38.224871 -48.565432
vn 2.599655 -1.763219 -0.049581
v -61.000100 38.718150 -48.580100
vn 5.314736 -3.351009 -0.004342
v -65.701781 31.409003 -39.954786
vn 5.258881 -3.437813 -0.047682
v -63.003613 35.666072 -46.320601
vn 5.271908 -3.417509 -0.070314
v -63.117658 35.520641 -47.410638
vn 5.239102 -3.467168 -0.087769
v -62.536742 36.401597 -47.125292
vn 5.300686 -3.373197 -0.010037
v -64.361274 33.514580 -38.629414
vn 5.288061 -3.393233 0.027379
v -64.472295 33.331009 -39.650351
vn 2.658774 -1.673245 -0.027822
v -64.279400 33.634200 -37.999350
vn 2.582854 -1.787859 -0.044792
v -61.665400 37.624200 -37.999850
vn 5.221901 -3.493143 -0.010399
v -62.228184 36.823685 -38.724412
vn 5.241996 -3.463930 -0.006373
v -62.029544 37.106785 -41.401977
vn 5.259587 -3.437215 0.014036
v -62.529534 36.339639 -40.847624
vn 5.257693 -3.440019 -0.030568
v -62.568841 36.282263 -41.856515
vn 5.210171 -3.510666 -0.088032
v -61.531766 37.951375 -49.337397
vn 5.336975 -3.315375 -0.039399
v -65.143369 32.373339 -48.711199
vn 2.689257 -1.624034 -0.003430
v -65.424050 31.920800 -50.000000
vn 5.213036 -3.506352 -0.090349
v -62.008051 37.224097 -48.556825
vn 5.215839 -3.502381 -0.082100
v -62.145206 37.000399 -47.783270
vn 2.640941 -1.701471 0.005563
v -63.107500 35.471050 -37.999700
vn 5.272174 -3.417819 0.024234
v -62.749211 36.024765 -38.770285
vn 2.654964 -1.679356 0.023138
v -66.125550 30.718000 -41.834500
vn 5.310933 -3.357171 0.042361
v -65.626003 31.502045 -42.250331
vn 5.307213 -3.363072 0.039742
v -65.597161 31.561340 -41.253071
vn 5.275801 -3.412082 0.026363
v -63.016922 35.600832 -40.318804
vn 5.257824 -3.439824 0.035956
v -62.474829 36.435350 -39.679780
vn 5.325534 -3.333339 -0.071891
v -65.105592 32.418903 -47.843474
vn 2.614904 -1.741088 -0.022270
v -60.960600 38.718000 -42.531850
vn 5.225779 -3.488342 -0.028452
v -61.501357 37.898248 -41.937662
vn 5.231261 -3.480037 -0.040485
v -61.517069 37.888073 -42.987044
vn 5.228257 -3.484247 -0.057388
v -61.951089 37.271666 -46.927059
vn 2.616065 -1.739411 -0.016137
v -60.976350 38.718000 -44.659000
vn 5.232488 -3.478263 -0.034209
v -61.532227 37.875936 -44.007076
vn 5.281140 -3.403335 -0.050384
v -63.097923 35.482505 -42.305714
vn 5.287211 -3.394622 0.018512
v -64.593720 33.134887 -40.774997
vn 5.290323 -3.389746 0.021603
v -65.077013 32.387046 -40.057010
vn 5.241621 -3.464414 -0.036870
v -62.640094 36.212862 -44.754728
vn 5.242676 -3.463005 -0.012526
v -62.675557 36.164687 -45.581283
vn 5.280040 -3.404719 -0.051017
v -63.125580 35.469939 -44.261815
vn 5.286969 -3.394499 -0.060051
v -63.164307 35.463909 -48.539069
vn 5.283703 -3.399838 -0.044619
v -63.672302 34.663516 -47.804881
vn 5.311808 -3.355741 -0.045320
v -63.597277 34.700916 -42.803113
vn 5.321036 -3.341157 -0.038780
v -64.074269 33.951494 -43.384844
vn 5.325279 -3.334113 -0.055894
v -64.492677 33.288912 -43.984108
vn 5.293246 -3.384289 -0.072439
v -64.169834 33.884108 -47.271092
vn 2.604813 -1.755743 -0.043829
v -61.847200 37.499800 -50.000000
vn 5.316863 -3.347034 -0.080194
v -65.404138 31.923278 -47.161724
vn 5.311865 -3.354364 -0.102119
v -65.762389 31.343491 -46.593088
vn 5.313048 -3.353475 -0.063629
v -63.616621 34.699117 -44.770524
vn 5.316015 -3.349021 -0.048761
v -63.597346 34.712589 -43.798578
vn 5.320768 -3.340081 -0.107707
v -65.691478 31.419636 -45.542862
vn 5.320669 -3.340637 -0.094937
v -65.142698 32.283934 -45.153317
vn 5.319796 -3.342266 -0.086142
v -64.603236 33.131106 -44.763655
vn 5.312915 -3.352897 -0.094078
v -64.777259 32.916715 -46.885509
vn 2.658715 -1.672536 -0.058844
v -66.144200 30.718000 -46.060650
vn 5.315094 -3.349950 -0.077017
v -64.159640 33.849740 -45.268200
vn 5.292777 -3.385353 -0.064983
v -62.959655 35.802005 -49.414289
vn 5.271354 -3.418488 -0.024652
v -63.122794 35.486478 -45.273171
vn 5.301705 -3.371272 -0.056889
v -64.638668 33.166395 -48.135907
vn 5.357092 -3.282697 -0.034947
v -65.195605 32.297826 -49.452845
vn 5.285537 -3.397023 -0.041611
v -64.268916 33.752370 -49.133047
vn 5.297911 -3.377743 0.030400
v -65.080391 32.371978 -41.640886
# 147 vertices, 0 vertices normals

f 47//47 48//48 49//49
f 52//52 53//53 103//103
f 4//4 142//142 55//55
f 56//56 16//16 57//57
f 58//58 59//59 60//60
f 63//63 64//64 65//65
f 66//66 67//67 68//68
f 69//69 21//21 70//70
f 25//25 23//23 26//26
f 71//71 72//72 73//73
f 27//27 74//74 51//51
f 75//75 76//76 77//77
f 80//80 29//29 78//78
f 56//56 81//81 82//82
f 85//85 84//84 31//31
f 32//32 87//87 86//86
f 32//32 33//33 34//34
f 89//89 90//90 91//91
f 47//47 92//92 93//93
f 6//6 94//94 92//92
f 95//95 96//96 15//15
f 97//97 98//98 99//99
f 101//101 80//80 145//145
f 105//105 49//49 106//106
f 107//107 108//108 109//109
f 66//66 110//110 48//48
f 113//113 114//114 115//115
f 97//97 114//114 57//57
f 116//116 70//70 73//73
f 71//71 117//117 118//118
f 75//75 99//99 119//119
f 120//120 64//64 67//67
f 120//120 93//93 121//121
f 122//122 123//123 72//72
f 115//115 77//77 118//118
f 76//76 124//124 122//122
f 103//103 100//100 86//86
f 125//125 90//90 126//126
f 125//125 54//54 142//142
f 68//68 127//127 119//119
f 116//116 91//91 104//104
f 128//128 63//63 129//129
f 108//108 60//60 65//65
f 50//50 126//126 130//130
f 106//106 111//111 96//96
f 110//110 98//98 111//111
f 79//79 132//132 133//133
f 134//134 124//124 135//135
f 44//44 141//141 134//134
f 128//128 135//135 127//127
f 59//59 136//136 137//137
f 62//62 139//139 130//130
f 136//136 140//140 133//133
f 112//112 139//139 132//132
f 6//6 47//47 49//49
f 47//47 5//5 48//48
f 49//49 48//48 42//42
f 146//146 9//9 50//50
f 41//41 52//52 103//103
f 52//52 4//4 53//53
f 14//14 55//55 54//54
f 20//20 56//56 57//57
f 56//56 15//15 16//16
f 1//1 20//20 57//57
f 22//22 58//58 60//60
f 58//58 3//3 59//59
f 60//60 59//59 13//13
f 13//13 63//63 65//65
f 63//63 39//39 64//64
f 7//7 66//66 68//68
f 66//66 5//5 67//67
f 68//68 67//67 39//39
f 19//19 70//70 18//18
f 70//70 19//19 69//69
f 71//71 40//40 72//72
f 74//74 14//14 146//146
f 36//36 75//75 77//77
f 75//75 37//37 76//76
f 77//77 76//76 40//40
f 28//28 80//80 78//78
f 78//78 30//30 28//28
f 79//79 29//29 46//46
f 29//29 79//79 24//24
f 29//29 80//80 46//46
f 15//15 56//56 82//82
f 56//56 20//20 81//81
f 82//82 81//81 35//35
f 85//85 83//83 84//84
f 19//19 86//86 87//87
f 86//86 19//19 18//18
f 25//25 84//84 83//83
f 17//17 89//89 91//91
f 89//89 43//43 90//90
f 91//91 90//90 41//41
f 5//5 47//47 93//93
f 47//47 6//6 92//92
f 93//93 92//92 23//23
f 26//26 92//92 94//94
f 92//92 26//26 23//23
f 35//35 95//95 82//82
f 95//95 10//10 96//96
f 82//82 95//95 15//15
f 36//36 97//97 99//99
f 97//97 16//16 98//98
f 99//99 98//98 7//7
f 32//32 100//100 33//33
f 53//53 131//131 100//100
f 27//27 51//51 145//145
f 101//101 46//46 80//80
f 102//102 80//80 28//28
f 103//103 18//18 104//104
f 103//103 104//104 41//41
f 10//10 105//105 106//106
f 105//105 6//6 49//49
f 106//106 49//49 42//42
f 12//12 107//107 109//109
f 107//107 22//22 108//108
f 5//5 66//66 48//48
f 66//66 7//7 110//110
f 48//48 110//110 42//42
f 15//15 111//111 16//16
f 46//46 101//101 112//112
f 101//101 51//51 144//144
f 2//2 113//113 115//115
f 113//113 1//1 114//114
f 115//115 114//114 36//36
f 88//88 12//12 109//109
f 16//16 97//97 57//57
f 97//97 36//36 114//114
f 57//57 114//114 1//1
f 17//17 116//116 73//73
f 116//116 18//18 70//70
f 40//40 71//71 118//118
f 71//71 21//21 117//117
f 118//118 117//117 2//2
f 37//37 75//75 119//119
f 75//75 36//36 99//99
f 119//119 99//99 7//7
f 5//5 120//120 67//67
f 120//120 38//38 147//147
f 67//67 64//64 39//39
f 38//38 120//120 121//121
f 120//120 5//5 93//93
f 121//121 93//93 23//23
f 40//40 122//122 72//72
f 122//122 143//143 123//123
f 72//72 123//123 17//17
f 2//2 115//115 118//118
f 115//115 36//36 77//77
f 118//118 77//77 40//40
f 40//40 76//76 122//122
f 76//76 37//37 124//124
f 122//122 124//124 143//143
f 18//18 103//103 86//86
f 103//103 53//53 100//100
f 86//86 100//100 32//32
f 9//9 125//125 126//126
f 125//125 41//41 90//90
f 126//126 90//90 43//43
f 41//41 125//125 52//52
f 125//125 9//9 54//54
f 7//7 68//68 119//119
f 68//68 39//39 127//127
f 119//119 127//127 37//37
f 18//18 116//116 104//104
f 116//116 17//17 91//91
f 104//104 91//91 41//41
f 61//61 43//43 89//89
f 123//123 89//89 17//17
f 44//44 128//128 129//129
f 128//128 39//39 63//63
f 129//129 63//63 13//13
f 38//38 109//109 147//147
f 108//108 22//22 60//60
f 65//65 60//60 13//13
f 144//144 50//50 130//130
f 50//50 9//9 126//126
f 130//130 126//126 43//43
f 10//10 106//106 96//96
f 106//106 42//42 111//111
f 96//96 111//111 15//15
f 42//42 110//110 111//111
f 110//110 7//7 98//98
f 111//111 98//98 16//16
f 88//88 11//11 12//12
f 53//53 4//4 131//131
f 100//100 131//131 33//33
f 24//24 79//79 133//133
f 79//79 46//46 132//132
f 133//133 132//132 45//45
f 44//44 134//134 135//135
f 134//134 143//143 124//124
f 135//135 124//124 37//37
f 134//134 141//141 61//61
f 39//39 128//128 127//127
f 128//128 44//44 135//135
f 127//127 135//135 37//37
f 13//13 59//59 137//137
f 59//59 3//3 136//136
f 137//137 136//136 45//45
f 13//13 138//138 129//129
f 138//138 8//8 141//141
f 43//43 62//62 130//130
f 62//62 8//8 139//139
f 130//130 139//139 144//144
f 45//45 136//136 133//133
f 136//136 3//3 140//140
f 133//133 140//140 24//24
f 46//46 112//112 132//132
f 112//112 144//144 139//139
f 132//132 139//139 45//45
f 8//8 45//45 139//139
f 13//13 137//137 138//138
f 61//61 141//141 62//62
f 54//54 9//9 14//14
f 43//43 61//61 62//62
f 62//62 141//141 8//8
f 134//134 61//61 143//143
f 142//142 54//54 55//55
f 25//25 83//83 23//23
f 125//125 142//142 52//52
f 143//143 89//89 123//123
f 52//52 142//142 4//4
f 143//143 61//61 89//89
f 23//23 83//83 121//121
f 88//88 121//121 83//83
f 51//51 74//74 146//146
f 137//137 45//45 8//8
f 138//138 137//137 8//8
f 146//146 50//50 144//144
f 138//138 141//141 44//44
f 51//51 146//146 144//144
f 144//144 112//112 101//101
f 129//129 138//138 44//44
f 145//145 80//80 102//102
f 73//73 72//72 17//17
f 9//9 146//146 14//14
f 27//27 145//145 102//102
f 101//101 145//145 51//51
f 65//65 64//64 147//147
f 120//120 147//147 64//64
f 109//109 108//108 147//147
f 65//65 147//147 108//108
f 88//88 109//109 38//38
f 21//21 71//71 73//73
f 88//88 38//38 121//121
f 11//11 88//88 85//85
f 88//88 83//83 85//85
f 73//73 70//70 21//21
# 249 faces, 0 coords texture

# End of File
