####
#
# OBJ File Generated by Meshlab
#
####
# Object 473_C93_M_9.obj
#
# Vertices: 141
# Faces: 241
#
####
vn -2.619910 -1.734700 -0.030559
v 64.764100 36.867300 -37.997200
vn -1.302544 -0.867906 -0.017582
v 63.531500 38.718000 -38.000000
vn -2.666395 -1.653951 -0.034201
v 67.401600 32.784000 -37.992100
vn -5.273375 -3.415327 -0.070147
v 65.498413 35.833904 -42.460647
vn -5.296734 -3.379091 -0.061591
v 66.256086 34.623949 -40.909095
vn -5.265144 -3.428403 -0.037342
v 65.721878 35.430089 -38.960710
vn -2.639061 -1.701121 -0.010008
v 66.046800 34.924400 -37.992700
vn -1.321827 -0.864797 -0.001422
v 63.636100 38.718000 -50.000000
vn -5.249938 -3.451994 0.001980
v 64.583333 37.267489 -48.368528
vn -2.624175 -1.718235 0.003429
v 63.622200 38.735400 -47.478800
vn -5.268127 -3.423777 -0.048442
v 65.771602 35.451552 -44.891072
vn -2.620260 -1.709000 0.004194
v 63.622800 38.745600 -45.356600
vn -5.260864 -3.434733 -0.048904
v 64.481421 37.426740 -43.869655
vn -5.349576 -3.293245 -0.059351
v 67.851403 32.089352 -39.481380
vn -5.243348 -3.461978 -0.010854
v 65.612829 35.714345 -47.075582
vn -2.678256 -1.645326 -0.039863
v 68.734500 30.718400 -44.968000
vn -5.322837 -3.336742 -0.082662
v 67.054725 33.464950 -45.086192
vn -2.619843 -1.733724 -0.000499
v 65.016100 36.609000 -50.000000
vn -2.677061 -1.621686 -0.028838
v 68.774600 30.718000 -47.384100
vn -5.238810 -3.468126 -0.071097
v 64.520462 37.263163 -39.458042
vn -1.355020 -0.799665 0.005873
v 68.761200 30.718000 -50.000000
vn -2.674130 -1.647477 -0.025641
v 67.529200 32.808900 -50.000000
vn -1.364384 -0.810864 -0.036438
v 68.630100 30.718000 -38.000000
vn -2.699814 -1.605415 -0.072210
v 68.631900 30.718000 -38.067400
vn -2.669212 -1.631019 -0.022553
v 68.695100 30.718000 -40.380900
vn -5.270840 -3.419041 -0.047741
v 66.495142 34.375898 -46.737241
vn -2.614899 -1.741159 -0.010357
v 66.110400 34.975200 -50.000000
vn -2.641850 -1.699159 -0.028660
v 67.190000 33.345300 -50.000000
vn -5.275135 -3.412306 -0.041803
v 66.901234 33.773405 -48.551951
vn -5.247524 -3.454558 -0.086082
v 64.495024 37.350775 -41.576280
vn -2.650711 -1.721676 -0.022589
v 63.630700 38.737200 -44.147500
vn -2.617050 -1.724366 -0.050706
v 63.598200 38.735100 -42.554100
vn -2.617560 -1.743268 -0.043079
v 63.562100 38.719200 -40.365700
vn -2.678852 -1.652169 -0.024601
v 68.698800 30.718000 -42.307300
vn -5.340717 -3.308414 -0.084285
v 67.567130 32.684570 -46.965619
vn -5.254659 -3.444825 0.000062
v 64.616147 37.223161 -46.176804
vn -5.263879 -3.430094 -0.065064
v 65.268747 36.144594 -40.585905
vn -5.378958 -3.246437 -0.022431
v 67.889995 32.201190 -49.056475
vn -5.310522 -3.356741 -0.076055
v 66.659868 34.040364 -43.031598
vn -5.235812 -3.473414 -0.004358
v 65.682212 35.609281 -48.162163
vn -5.307847 -3.362175 -0.028328
v 66.889149 33.607866 -39.487769
vn -5.352392 -3.289968 -0.079735
v 67.762522 32.272440 -43.706025
vn -5.334042 -3.320239 -0.037183
v 67.531276 32.597033 -41.345891
vn -5.228507 -3.483698 -0.070522
v 64.052754 37.952825 -38.844954
vn -5.235149 -3.473734 -0.068180
v 64.531679 37.229490 -38.636141
vn -2.614533 -1.741415 -0.035980
v 64.147800 37.792650 -37.998600
vn -5.306639 -3.362855 -0.084835
v 66.473082 34.308120 -41.946396
vn -5.280760 -3.403849 -0.075702
v 65.898091 35.196737 -41.690525
vn -5.283023 -3.400574 -0.064327
v 66.068421 34.954229 -42.766753
vn -2.622269 -1.729921 -0.026113
v 65.405450 35.895850 -37.994950
vn -5.245876 -3.457723 -0.057814
v 65.054319 36.443006 -38.934221
vn -2.613927 -1.742351 -0.034695
v 63.546800 38.718600 -39.182850
vn -5.226253 -3.486975 -0.075248
v 64.033321 38.002816 -39.891402
vn -5.256193 -3.442497 0.001987
v 64.122554 37.971180 -47.913992
vn -5.247256 -3.456074 0.009017
v 64.628511 37.201148 -47.267850
vn -5.256066 -3.442670 0.013732
v 64.122966 37.973532 -46.836974
vn -2.653417 -1.681908 -0.012843
v 66.724200 33.854200 -37.992400
vn -5.306242 -3.364693 -0.032191
v 67.032031 33.375462 -38.754783
vn -5.348060 -3.297199 -0.071328
v 67.651541 32.427623 -42.581235
vn -5.352559 -3.289858 -0.073211
v 68.205326 31.537421 -43.051120
vn -5.346208 -3.300529 -0.042977
v 68.144846 31.610052 -41.907979
vn -2.704531 -1.598413 0.013854
v 68.767900 30.718000 -48.692050
vn -5.386148 -3.234626 -0.022945
v 68.280253 31.547175 -48.222313
vn -5.410821 -3.193876 0.023699
v 68.341330 31.435233 -49.214348
vn -2.629042 -1.719807 -0.002625
v 63.629150 38.726700 -48.739400
vn -2.706427 -1.595238 0.008641
v 68.145200 31.763450 -50.000000
vn -2.699653 -1.605879 -0.069706
v 67.952850 31.857375 -37.995850
vn -5.353223 -3.286927 -0.084819
v 67.644305 32.408854 -38.764212
vn -5.396174 -3.215540 -0.141390
v 68.166013 31.538192 -38.891845
vn -5.369772 -3.260342 -0.063079
v 68.229383 31.476694 -39.876100
vn -2.698432 -1.607064 -0.073594
v 68.663500 30.718000 -39.224150
vn -5.295659 -3.380562 -0.071442
v 66.765160 33.936552 -45.907317
vn -5.310815 -3.356962 -0.066282
v 67.029923 33.533381 -46.844463
vn -5.338421 -3.312105 -0.080314
v 67.310574 33.075101 -46.013638
vn -2.619105 -1.734879 -0.009418
v 66.650200 34.160250 -50.000000
vn -5.272864 -3.415958 -0.042818
v 67.040487 33.567892 -49.414778
vn -5.236322 -3.472586 -0.021894
v 66.509158 34.369107 -49.253529
vn -5.235741 -3.473474 -0.019754
v 66.339673 34.618336 -48.390345
vn -5.228932 -3.483714 -0.017533
v 65.946409 35.215971 -49.170168
vn -5.241157 -3.463953 -0.097342
v 64.044954 38.045588 -42.076240
vn -5.251274 -3.448646 -0.095626
v 64.040894 38.076593 -43.100471
vn -5.254401 -3.444214 -0.082772
v 64.510425 37.353707 -42.674873
vn -5.275493 -3.412277 -0.058718
v 65.710343 35.464149 -40.713318
vn -5.269091 -3.421802 -0.078268
v 65.376035 35.998653 -41.426033
vn -2.618269 -1.735270 -0.055734
v 63.580150 38.727150 -41.459900
vn -5.230315 -3.480315 -0.096306
v 64.032988 38.028753 -40.987778
vn -5.240281 -3.465631 -0.080207
v 64.488988 37.334854 -40.504011
vn -5.326367 -3.332661 0.007882
v 67.724818 32.290586 -40.277001
vn -5.342669 -3.306649 0.005450
v 68.160336 31.581367 -40.870660
vn -5.265933 -3.427577 -0.004900
v 64.068464 38.061613 -44.680107
vn -5.263074 -3.431034 -0.069355
v 63.981683 38.190973 -43.864297
vn -2.676458 -1.644648 -0.036159
v 68.716650 30.718200 -43.637650
vn -5.353626 -3.288092 -0.074485
v 68.264260 31.467748 -44.244433
vn -5.354021 -3.286932 -0.092576
v 67.382918 32.909836 -44.360414
vn -5.345005 -3.301775 -0.086106
v 67.225547 33.132646 -43.324459
vn -5.312246 -3.353770 -0.081551
v 66.842952 33.775595 -44.091616
vn -5.346788 -3.299065 -0.066230
v 67.757677 32.400057 -47.983315
vn -5.316330 -3.348147 -0.068507
v 67.246428 33.212555 -47.796965
vn -5.324614 -3.335017 -0.064542
v 67.409601 32.972079 -48.826314
vn -5.273239 -3.415199 -0.046214
v 66.717043 34.046018 -47.636906
vn -2.675879 -1.645396 -0.044139
v 68.754550 30.718200 -46.176050
vn -5.355418 -3.284901 -0.085145
v 68.313640 31.413793 -45.376372
vn -5.358712 -3.279154 -0.097373
v 68.351312 31.379743 -46.390892
vn -5.240316 -3.466595 -0.012215
v 66.155012 34.892494 -47.465418
vn -5.363653 -3.271149 -0.094737
v 68.111136 31.799444 -47.154172
vn -5.362005 -3.273737 -0.099319
v 67.871494 32.152704 -45.961725
vn -5.324055 -3.335808 -0.061177
v 66.848299 33.683348 -41.142400
vn -5.313678 -3.353036 -0.012977
v 67.160394 33.181142 -40.327551
vn -5.308716 -3.360688 -0.034359
v 66.586025 34.093734 -40.130253
vn -5.238620 -3.469179 0.006395
v 65.132476 36.438442 -47.602542
vn -5.245694 -3.458384 -0.011143
v 65.119368 36.461280 -46.602912
vn -2.628777 -1.720190 0.008966
v 63.622500 38.740500 -46.417700
vn -5.260272 -3.436244 0.007400
v 64.107259 38.003101 -45.758952
vn -2.610613 -1.747643 -0.006911
v 65.563250 35.792100 -50.000000
vn -5.229488 -3.482898 -0.001463
v 65.366679 36.082740 -49.148309
vn -5.243609 -3.461515 -0.026822
v 66.016920 35.099314 -46.661284
vn -2.628542 -1.719686 -0.055233
v 63.614450 38.736150 -43.350800
vn -5.252820 -3.446966 -0.067515
v 64.937743 36.638607 -40.032873
vn -5.258991 -3.437361 -0.077185
v 64.913680 36.698299 -41.034783
vn -5.262424 -3.432972 -0.003988
v 64.584836 37.270194 -45.065623
vn -5.256889 -3.441356 -0.017655
v 65.141875 36.416939 -45.524677
vn -5.267506 -3.424927 -0.029663
v 65.110735 36.463498 -44.366450
vn -5.261252 -3.433870 -0.078544
v 64.971825 36.631787 -42.068334
vn -5.358076 -3.280643 -0.081957
v 67.859104 32.140052 -44.772500
vn -5.248693 -3.453885 0.000835
v 64.770807 36.982398 -49.172797
vn -5.281306 -3.403326 -0.059919
v 66.235553 34.713989 -43.892583
vn -5.280865 -3.403682 -0.075110
v 66.466180 34.375369 -44.946883
vn -5.263011 -3.431219 -0.064031
v 66.189488 34.828617 -45.859777
vn -5.260484 -3.435555 -0.045109
v 65.449761 35.857388 -39.837309
vn -5.284011 -3.399372 -0.040354
v 66.010731 34.991760 -39.932065
vn -5.277880 -3.408680 -0.056911
v 65.622093 35.661606 -43.606468
vn -5.268101 -3.423543 -0.067991
v 65.031072 36.567414 -43.186453
vn -5.362119 -3.273743 -0.092349
v 67.514447 32.716389 -45.257987
vn -5.299089 -3.375965 -0.028093
v 66.409149 34.357722 -39.011198
vn -5.247754 -3.455177 -0.034658
v 65.635807 35.670102 -46.074827
vn -2.628825 -1.720138 -0.003056
v 64.326100 37.663500 -50.000000
vn -5.307329 -3.363052 -0.018875
v 67.385882 32.824225 -39.510456
vn -2.669671 -1.656030 -0.005364
v 68.696950 30.718000 -41.344100
vn -5.335470 -3.317203 -0.083612
v 67.069489 33.361078 -42.221762
vn -5.257868 -3.439943 -0.005675
v 64.149501 37.931830 -49.120684
vn -5.238475 -3.469402 0.005687
v 65.045245 36.569123 -48.335251
# 141 vertices, 0 vertices normals

f 44//44 45//45 46//46
f 47//47 48//48 49//49
f 1//1 45//45 51//51
f 44//44 52//52 53//53
f 57//57 134//134 58//58
f 59//59 60//60 61//61
f 62//62 63//63 64//64
f 38//38 66//66 64//64
f 23//23 67//67 24//24
f 67//67 68//68 69//69
f 69//69 70//70 71//71
f 72//72 73//73 74//74
f 75//75 76//76 77//77
f 78//78 79//79 77//77
f 80//80 81//81 82//82
f 48//48 83//83 84//84
f 85//85 80//80 86//86
f 86//86 87//87 53//53
f 70//70 88//88 89//89
f 13//13 91//91 90//90
f 92//92 60//60 93//93
f 94//94 95//95 96//96
f 97//97 98//98 99//99
f 73//73 100//100 98//98
f 101//101 102//102 103//103
f 104//104 78//78 100//100
f 105//105 103//103 106//106
f 107//107 108//108 109//109
f 110//110 111//111 55//55
f 112//112 56//56 113//113
f 114//114 79//79 115//115
f 104//104 116//116 15//15
f 117//117 91//91 81//81
f 118//118 87//87 119//119
f 113//113 120//120 90//90
f 120//120 121//121 122//122
f 119//119 123//123 84//84
f 124//124 102//102 93//93
f 125//125 115//115 141//141
f 96//96 126//126 127//127
f 72//72 127//127 128//128
f 129//129 83//83 130//130
f 129//129 51//51 118//118
f 63//63 105//105 97//97
f 122//122 131//131 132//132
f 133//133 74//74 106//106
f 49//49 131//131 126//126
f 130//130 109//109 134//134
f 111//111 135//135 121//121
f 116//116 128//128 135//135
f 141//141 40//40 110//110
f 123//123 82//82 132//132
f 58//58 137//137 68//68
f 94//94 133//133 124//124
f 108//108 88//88 137//137
f 89//89 61//61 138//138
f 139//139 107//107 47//47
f 59//59 139//139 95//95
f 2//2 44//44 46//46
f 44//44 20//20 45//45
f 46//46 45//45 1//1
f 39//39 47//47 49//49
f 47//47 5//5 48//48
f 49//49 48//48 4//4
f 6//6 50//50 51//51
f 50//50 6//6 7//7
f 45//45 20//20 51//51
f 20//20 44//44 53//53
f 44//44 2//2 52//52
f 53//53 52//52 33//33
f 54//54 9//9 55//55
f 56//56 55//55 36//36
f 3//3 57//57 58//58
f 57//57 7//7 134//134
f 43//43 59//59 61//61
f 59//59 42//42 60//60
f 61//61 60//60 34//34
f 21//21 62//62 64//64
f 62//62 19//19 63//63
f 64//64 63//63 38//38
f 10//10 65//65 54//54
f 65//65 8//8 140//140
f 38//38 22//22 66//66
f 64//64 66//66 21//21
f 67//67 3//3 68//68
f 69//69 68//68 14//14
f 24//24 69//69 71//71
f 69//69 14//14 70//70
f 71//71 70//70 25//25
f 17//17 72//72 74//74
f 72//72 26//26 73//73
f 74//74 73//73 35//35
f 27//27 75//75 77//77
f 75//75 28//28 76//76
f 77//77 76//76 29//29
f 29//29 78//78 77//77
f 78//78 40//40 79//79
f 77//77 79//79 27//27
f 30//30 80//80 82//82
f 80//80 32//32 81//81
f 82//82 81//81 13//13
f 99//99 76//76 22//22
f 22//22 38//38 99//99
f 4//4 48//48 84//84
f 48//48 5//5 83//83
f 84//84 83//83 37//37
f 33//33 85//85 86//86
f 85//85 32//32 80//80
f 86//86 80//80 30//30
f 33//33 86//86 53//53
f 86//86 30//30 87//87
f 53//53 87//87 20//20
f 25//25 70//70 89//89
f 70//70 14//14 88//88
f 89//89 88//88 43//43
f 31//31 90//90 91//91
f 90//90 31//31 12//12
f 16//16 92//92 93//93
f 92//92 34//34 60//60
f 93//93 60//60 42//42
f 17//17 94//94 96//96
f 94//94 42//42 95//95
f 96//96 95//95 39//39
f 38//38 97//97 99//99
f 97//97 35//35 98//98
f 99//99 98//98 29//29
f 35//35 73//73 98//98
f 73//73 26//26 100//100
f 98//98 100//100 29//29
f 19//19 101//101 103//103
f 101//101 16//16 102//102
f 103//103 102//102 106//106
f 26//26 104//104 100//100
f 104//104 40//40 78//78
f 100//100 78//78 29//29
f 35//35 105//105 106//106
f 105//105 19//19 103//103
f 5//5 107//107 109//109
f 107//107 43//43 108//108
f 109//109 108//108 41//41
f 9//9 141//141 110//110
f 110//110 15//15 111//111
f 55//55 111//111 36//36
f 12//12 112//112 113//113
f 112//112 10//10 56//56
f 113//113 56//56 36//36
f 29//29 76//76 99//99
f 76//76 28//28 22//22
f 18//18 114//114 115//115
f 114//114 27//27 79//79
f 115//115 79//79 40//40
f 104//104 26//26 116//116
f 40//40 104//104 15//15
f 32//32 117//117 81//81
f 117//117 31//31 91//91
f 81//81 91//91 13//13
f 37//37 118//118 119//119
f 118//118 20//20 87//87
f 119//119 87//87 30//30
f 12//12 113//113 90//90
f 113//113 36//36 120//120
f 90//90 120//120 13//13
f 13//13 120//120 122//122
f 120//120 36//36 121//121
f 122//122 121//121 11//11
f 37//37 119//119 84//84
f 119//119 30//30 123//123
f 84//84 123//123 4//4
f 42//42 124//124 93//93
f 124//124 106//106 102//102
f 93//93 102//102 16//16
f 67//67 69//69 24//24
f 9//9 125//125 141//141
f 125//125 18//18 115//115
f 141//141 115//115 40//40
f 17//17 96//96 127//127
f 96//96 39//39 126//126
f 127//127 126//126 11//11
f 26//26 72//72 128//128
f 72//72 17//17 127//127
f 128//128 127//127 11//11
f 6//6 129//129 130//130
f 129//129 37//37 83//83
f 130//130 83//83 5//5
f 37//37 129//129 118//118
f 129//129 6//6 51//51
f 118//118 51//51 20//20
f 38//38 63//63 97//97
f 63//63 19//19 105//105
f 97//97 105//105 35//35
f 13//13 122//122 132//132
f 122//122 11//11 131//131
f 132//132 131//131 4//4
f 133//133 17//17 74//74
f 106//106 74//74 35//35
f 39//39 49//49 126//126
f 49//49 4//4 131//131
f 126//126 131//131 11//11
f 6//6 130//130 134//134
f 130//130 5//5 109//109
f 134//134 109//109 41//41
f 36//36 111//111 121//121
f 111//111 15//15 135//135
f 121//121 135//135 11//11
f 15//15 116//116 135//135
f 116//116 26//26 128//128
f 135//135 128//128 11//11
f 125//125 136//136 18//18
f 110//110 40//40 15//15
f 4//4 123//123 132//132
f 123//123 30//30 82//82
f 132//132 82//82 13//13
f 3//3 58//58 68//68
f 58//58 41//41 137//137
f 68//68 137//137 14//14
f 6//6 134//134 7//7
f 42//42 94//94 124//124
f 94//94 17//17 133//133
f 124//124 133//133 106//106
f 41//41 108//108 137//137
f 108//108 43//43 88//88
f 137//137 88//88 14//14
f 25//25 89//89 138//138
f 89//89 43//43 61//61
f 138//138 61//61 34//34
f 39//39 139//139 47//47
f 139//139 43//43 107//107
f 47//47 107//107 5//5
f 42//42 59//59 95//95
f 59//59 43//43 139//139
f 95//95 139//139 39//39
f 1//1 51//51 50//50
f 140//140 136//136 125//125
f 140//140 8//8 136//136
f 58//58 134//134 41//41
f 54//54 55//55 56//56
f 10//10 54//54 56//56
f 140//140 54//54 65//65
f 9//9 140//140 125//125
f 9//9 110//110 55//55
f 9//9 54//54 140//140
# 241 faces, 0 coords texture

# End of File
