####
#
# OBJ File Generated by Meshlab
#
####
# Object 475_C94_M_1.obj
#
# Vertices: 153
# Faces: 261
#
####
vn 5.267122 -3.425685 -0.007555
v -64.891709 35.846671 -46.419607
vn 2.631840 -1.697429 -0.004661
v -63.035700 38.719000 -47.361400
vn 2.651708 -1.687889 0.016647
v -63.053400 38.718400 -45.297200
vn 5.285281 -3.396938 -0.036490
v -65.965266 34.207583 -46.386619
vn 5.290433 -3.389132 -0.034811
v -65.451132 34.987362 -44.661963
vn 5.264113 -3.430139 -0.031307
v -65.339770 35.168100 -48.138368
vn 5.283260 -3.400215 -0.032520
v -63.918977 37.342193 -39.998290
vn 5.317505 -3.346565 -0.048009
v -66.159872 33.834086 -43.059892
vn 2.688921 -1.639980 -0.041819
v -68.073400 30.718000 -41.854900
vn 2.677396 -1.623640 -0.032493
v -68.065200 30.718000 -40.600500
vn 5.322065 -3.339551 -0.014788
v -65.854632 34.315580 -41.171340
vn 2.681293 -1.646051 -0.033132
v -68.139400 30.718000 -46.518200
vn 2.635813 -1.702161 -0.018631
v -63.030400 38.719700 -41.838800
vn 2.670540 -1.638340 -0.035953
v -68.122900 30.718000 -44.051800
vn 2.639252 -1.703941 -0.029726
v -64.626100 36.296200 -50.000000
vn 2.623263 -1.726482 -0.055643
v -63.495800 38.067800 -50.000000
vn 2.658300 -1.693065 -0.004215
v -63.059300 38.718200 -44.208600
vn 2.703861 -1.590934 -0.061592
v -67.948000 30.803700 -37.999500
vn 2.711952 -1.590648 -0.064743
v -68.002900 30.718000 -38.201600
vn 2.655457 -1.671070 -0.024495
v -65.948000 34.144400 -37.993100
vn 1.312306 -0.872173 -0.019819
v -63.057900 38.718000 -50.000000
vn 2.685544 -1.659924 0.000085
v -63.040800 38.718000 -38.011400
vn 2.670868 -1.655450 0.020238
v -63.056500 38.692600 -38.000000
vn 2.633371 -1.713048 -0.019108
v -66.041900 34.116200 -50.000000
vn 2.647722 -1.692264 -0.037794
v -64.670000 36.113000 -37.997700
vn 2.626744 -1.704824 -0.006465
v -63.018500 38.719300 -39.972000
vn 2.678093 -1.640417 -0.043184
v -67.862700 31.276100 -50.000000
vn 1.323408 -0.828432 -0.023218
v -63.040600 38.718000 -38.000000
vn 1.363442 -0.809634 -0.027052
v -67.998900 30.718000 -38.000000
vn 1.344061 -0.797863 -0.020093
v -68.194000 30.718000 -50.000000
vn 2.687487 -1.625221 -0.048395
v -68.179400 30.718000 -49.023400
vn 5.282153 -3.402308 -0.000566
v -63.896685 37.382191 -46.559433
vn 5.286298 -3.395384 -0.045004
v -66.473291 33.437400 -48.181332
vn 5.343429 -3.305147 -0.028542
v -66.440891 33.367408 -39.655857
vn 5.282108 -3.402310 -0.036926
v -64.112641 37.040730 -42.019752
vn 2.656552 -1.676859 0.001138
v -63.605650 37.811650 -37.999175
vn 5.390135 -3.226691 -0.079071
v -67.434173 31.744744 -39.509603
vn 2.688668 -1.626048 -0.039929
v -66.883600 32.618000 -37.996700
vn 5.327414 -3.330443 -0.069226
v -67.035974 32.508170 -46.491520
vn 5.313704 -3.352520 -0.059357
v -66.551323 33.247726 -44.796599
vn 5.286330 -3.395971 0.007706
v -64.289175 36.780269 -44.742501
vn 5.290795 -3.388381 -0.043100
v -65.355200 35.097220 -39.721577
vn 5.332292 -3.321711 -0.081675
v -67.251717 32.119007 -43.370092
vn 5.344290 -3.303645 -0.041367
v -66.945313 32.552458 -41.416896
vn 5.288985 -3.391596 -0.034476
v -64.873319 35.854385 -40.441349
vn 5.293899 -3.384030 -0.025611
v -64.951618 35.748142 -42.694911
vn 2.647313 -1.691416 0.021248
v -63.044550 38.718700 -46.329300
vn 5.298779 -3.376410 0.033981
v -63.519325 37.980062 -45.933959
vn 5.283358 -3.400408 0.001512
v -63.484743 38.022214 -46.976319
vn 5.296948 -3.379445 -0.003045
v -64.030786 37.187242 -43.839038
vn 5.302703 -3.370356 0.018298
v -63.639529 37.800890 -44.776233
vn 5.295706 -3.381047 -0.032935
v -63.497306 38.026107 -43.601072
vn 5.255800 -3.443093 -0.009062
v -65.416670 35.044592 -46.364844
vn 5.264505 -3.429737 -0.000113
v -65.157635 35.438279 -45.518671
vn 5.283889 -3.399052 -0.038435
v -65.711981 34.592335 -45.523765
vn 5.273156 -3.416458 0.007127
v -64.604426 36.291580 -45.592047
vn 5.272373 -3.417643 -0.004382
v -64.875159 35.876424 -44.672580
vn 5.305946 -3.364838 -0.054241
v -67.173273 32.347729 -49.160660
vn 5.293790 -3.384085 -0.034583
v -66.711171 33.073810 -48.960025
vn 5.313219 -3.353088 -0.066014
v -67.000439 32.606839 -48.251932
vn 2.647911 -1.690040 -0.044041
v -64.060950 37.182000 -50.000000
vn 5.286080 -3.395672 -0.066821
v -64.203537 36.938686 -49.227228
vn 5.272630 -3.417127 -0.012949
v -63.502170 37.988265 -40.918525
vn 5.285979 -3.396588 0.001301
v -63.997763 37.217076 -41.002214
vn 5.283147 -3.400713 -0.028606
v -63.632090 37.784901 -41.865054
vn 5.293581 -3.384192 -0.042119
v -64.394450 36.599624 -40.150851
vn 5.281232 -3.403904 -0.011566
v -64.467183 36.486066 -41.191764
vn 5.331667 -3.322877 -0.092393
v -67.290097 32.127087 -47.397081
vn 5.313762 -3.352126 -0.074304
v -66.754304 32.973521 -47.336418
vn 5.286153 -3.395524 -0.038810
v -66.213367 33.831499 -47.279756
vn 5.317682 -3.346128 -0.063961
v -66.505502 33.350973 -46.436712
vn 5.314159 -3.352170 -0.019936
v -65.732318 34.505185 -40.356933
vn 5.301697 -3.371950 -0.016755
v -65.358092 35.094472 -40.840867
vn 5.265816 -3.427577 -0.031433
v -66.242073 33.800244 -49.066722
vn 5.262941 -3.431838 -0.046288
v -65.648165 34.707083 -49.047768
vn 5.256366 -3.442130 -0.024231
v -65.907078 34.301854 -48.154305
vn 5.255684 -3.443265 -0.011284
v -65.643318 34.701711 -47.244864
vn 5.310407 -3.357871 -0.049893
v -66.883353 32.711700 -44.059681
vn 5.330012 -3.326699 -0.040438
v -67.325010 32.011963 -44.159711
vn 5.320428 -3.342018 -0.047865
v -67.072006 32.421600 -44.851394
vn 5.380243 -3.244140 -0.058360
v -67.662790 31.375837 -40.227710
vn 5.418342 -3.178209 -0.137733
v -67.659569 31.324054 -38.665596
vn 2.706357 -1.594071 -0.064383
v -68.034050 30.718000 -39.401050
vn 5.387559 -3.230781 -0.097069
v -67.159560 32.180766 -38.767211
vn 2.709098 -1.589248 -0.068434
v -67.415800 31.710850 -37.998100
vn 5.302166 -3.370537 0.023104
v -63.309167 38.270788 -38.948354
vn 5.295606 -3.381139 -0.036986
v -63.816948 37.486423 -38.982320
vn 5.261384 -3.434448 -0.027623
v -63.432181 38.086321 -39.948403
vn 2.634761 -1.710560 -0.040299
v -65.309000 35.128700 -37.995400
vn 5.294492 -3.382476 -0.050778
v -65.660933 34.605716 -38.805947
vn 5.269213 -3.421640 -0.078712
v -65.146270 35.397257 -38.755462
vn 2.666384 -1.661073 0.028914
v -63.029650 38.718650 -38.991700
vn 5.332419 -3.321361 -0.086350
v -67.649841 31.599939 -49.301478
vn 2.649832 -1.687364 -0.025471
v -67.377000 32.040450 -50.000000
vn 2.630015 -1.718238 -0.016831
v -63.024450 38.719500 -40.905400
vn 5.344760 -3.301897 -0.085629
v -67.611769 31.634118 -48.353724
vn 5.356502 -3.282683 -0.099859
v -67.761360 31.359750 -47.339524
vn 2.683269 -1.633323 -0.043894
v -68.159400 30.718000 -47.770800
vn 5.355767 -3.284976 -0.055703
v -66.668085 32.983025 -38.817029
vn 5.356610 -3.283763 -0.036665
v -66.929109 32.572340 -39.619118
vn 5.287831 -3.393534 0.017533
v -64.051548 37.145016 -45.694439
vn 5.273514 -3.415449 -0.053589
v -63.482101 38.038529 -48.096339
vn 2.634776 -1.710791 -0.027461
v -65.334000 35.206200 -50.000000
vn 5.273322 -3.415831 -0.050580
v -64.766217 36.067737 -49.165439
vn 5.263721 -3.430887 -0.018937
v -65.114734 35.508385 -47.271763
vn 2.676877 -1.644268 -0.017696
v -68.131150 30.718000 -45.285000
vn 5.351262 -3.292611 -0.033269
v -67.760828 31.325793 -45.751214
vn 5.343552 -3.304940 -0.041502
v -67.634711 31.520939 -44.783143
vn 5.348915 -3.295575 -0.072074
v -67.554225 31.668677 -46.526402
vn 2.643232 -1.697758 -0.015740
v -66.678950 33.132650 -50.000000
vn 5.312341 -3.354537 -0.067274
v -66.007513 34.107492 -44.721753
vn 5.315149 -3.350129 -0.064557
v -66.254198 33.734701 -45.574269
vn 5.349535 -3.295555 -0.006869
v -66.694666 32.957746 -40.510916
vn 5.358349 -3.281191 -0.015426
v -67.203069 32.129031 -40.442134
vn 5.360115 -3.277656 -0.055446
v -67.535349 31.590066 -41.377410
vn 5.353808 -3.287266 -0.086169
v -67.695569 31.405360 -43.693727
vn 5.362585 -3.272339 -0.113331
v -67.641082 31.455234 -42.626000
vn 2.681531 -1.635648 -0.060426
v -68.098150 30.718000 -42.953350
vn 5.335612 -3.317997 -0.012006
v -66.179531 33.790849 -40.451834
vn 5.344367 -3.303926 -0.010974
v -66.388768 33.452555 -41.340094
vn 5.334854 -3.318830 -0.046444
v -67.305021 32.064727 -45.670979
vn 5.318880 -3.344284 -0.060806
v -66.784737 32.891835 -45.631332
vn 5.278471 -3.408005 -0.036224
v -64.548185 36.366648 -42.100427
vn 5.287096 -3.394586 -0.027274
v -64.347671 36.691800 -42.925774
vn 5.308838 -3.360171 -0.062211
v -66.345954 33.556829 -43.951162
vn 5.306486 -3.363547 -0.076839
v -66.724433 32.946729 -43.200173
vn 2.660114 -1.671054 -0.028090
v -64.229350 36.815500 -37.998300
vn 5.306057 -3.364262 -0.074383
v -64.470704 36.448524 -38.900482
vn 2.678361 -1.641729 -0.026676
v -66.415800 33.381200 -37.994900
vn 5.339768 -3.310985 -0.037425
v -66.187911 33.766353 -38.820802
vn 5.322429 -3.339081 -0.025526
v -65.935112 34.175558 -39.629747
vn 2.642075 -1.699434 -0.031145
v -63.044850 38.718950 -43.023700
vn 5.284025 -3.399065 -0.062104
v -63.410123 38.144042 -42.640391
vn 5.315500 -3.349987 -0.029489
v -65.580957 34.751878 -42.890750
vn 5.315162 -3.350203 -0.059672
v -65.783721 34.444987 -43.840843
vn 5.294365 -3.382993 -0.036003
v -65.205041 35.362906 -43.742885
vn 5.282814 -3.401424 -0.006450
v -64.609865 36.280745 -43.779444
vn 5.333882 -3.319099 -0.098324
v -67.126880 32.288737 -42.401178
vn 5.283285 -3.399740 -0.080150
v -64.784782 35.966658 -39.322227
vn 5.326311 -3.332163 -0.055147
v -66.563661 33.175367 -42.275345
vn 5.329376 -3.327908 -0.012951
v -66.002005 34.083659 -42.116825
vn 5.271458 -3.417869 -0.080928
v -63.582153 37.911485 -49.220957
vn 2.630367 -1.717543 -0.028141
v -63.046800 38.718500 -48.680700
vn 5.276243 -3.411420 -0.043155
v -64.414858 36.600750 -48.437179
vn 5.308081 -3.361884 -0.015338
v -65.441714 34.970914 -41.880469
vn 5.288690 -3.392177 -0.023733
v -64.932852 35.769072 -41.523635
vn 5.274884 -3.413614 -0.035320
v -64.030517 37.185504 -47.559547
vn 5.282190 -3.401903 -0.058378
v -63.907381 37.386551 -48.514028
vn 5.273480 -3.415910 -0.011885
v -64.374890 36.644738 -46.575138
vn 5.270647 -3.419925 -0.052722
v -65.160431 35.455920 -48.921168
vn 5.287243 -3.394243 -0.047905
v -63.823765 37.504719 -42.841949
vn 5.273838 -3.415154 -0.040725
v -64.884948 35.871454 -48.267945
vn 5.273987 -3.415040 -0.029603
v -64.642370 36.237646 -47.429880
# 153 vertices, 0 vertices normals

f 47//47 48//48 49//49
f 50//50 51//51 52//52
f 53//53 54//54 55//55
f 56//56 57//57 54//54
f 58//58 59//59 60//60
f 61//61 142//142 62//62
f 63//63 64//64 65//65
f 66//66 67//67 64//64
f 68//68 60//60 69//69
f 70//70 71//71 69//69
f 42//42 72//72 73//73
f 74//74 75//75 76//76
f 77//77 70//70 76//76
f 78//78 79//79 80//80
f 81//81 37//37 83//83
f 84//84 85//85 82//82
f 86//86 87//87 88//88
f 89//89 90//90 91//91
f 93//93 94//94 58//58
f 95//95 88//88 63//63
f 22//22 28//28 23//23
f 18//18 29//29 19//19
f 30//30 27//27 31//31
f 97//97 98//98 96//96
f 99//99 84//84 100//100
f 101//101 56//56 149//149
f 102//102 49//49 147//147
f 103//103 104//104 150//150
f 77//77 105//105 53//53
f 106//106 107//107 108//108
f 97//97 68//68 109//109
f 110//110 74//74 59//59
f 48//48 51//51 101//101
f 111//111 112//112 55//55
f 113//113 100//100 114//114
f 116//116 117//117 118//118
f 119//119 113//113 120//120
f 109//109 121//121 107//107
f 71//71 112//112 122//122
f 123//123 124//124 35//35
f 78//78 125//125 126//126
f 127//127 128//128 87//87
f 129//129 99//99 130//130
f 131//131 119//119 72//72
f 132//132 133//133 52//52
f 134//134 135//135 136//136
f 50//50 124//124 137//137
f 80//80 121//121 122//122
f 131//131 90//90 130//130
f 138//138 115//115 117//117
f 125//125 111//111 135//135
f 128//128 139//139 66//66
f 120//120 140//140 141//141
f 114//114 81//81 115//115
f 139//139 91//91 42//42
f 138//138 126//126 140//140
f 137//137 136//136 57//57
f 134//134 145//145 141//141
f 123//123 67//67 146//146
f 73//73 145//145 146//146
f 2//2 47//47 49//49
f 47//47 3//3 48//48
f 49//49 48//48 32//32
f 151//151 50//50 52//52
f 50//50 41//41 51//51
f 52//52 51//51 17//17
f 4//4 53//53 55//55
f 53//53 1//1 54//54
f 55//55 54//54 5//5
f 1//1 56//56 54//54
f 56//56 41//41 57//57
f 54//54 57//57 5//5
f 96//96 58//58 60//60
f 58//58 110//110 59//59
f 60//60 59//59 33//33
f 15//15 61//61 62//62
f 61//61 16//16 142//142
f 62//62 142//142 148//148
f 13//13 63//63 65//65
f 63//63 7//7 64//64
f 65//65 64//64 35//35
f 7//7 66//66 64//64
f 66//66 45//45 67//67
f 64//64 67//67 35//35
f 39//39 68//68 69//69
f 68//68 96//96 60//60
f 69//69 60//60 33//33
f 33//33 70//70 69//69
f 70//70 4//4 71//71
f 69//69 71//71 39//39
f 45//45 42//42 73//73
f 73//73 72//72 11//11
f 17//17 51//51 3//3
f 33//33 74//74 76//76
f 74//74 24//24 75//75
f 76//76 75//75 6//6
f 6//6 77//77 76//76
f 77//77 4//4 70//70
f 76//76 70//70 33//33
f 40//40 78//78 80//80
f 78//78 43//43 79//79
f 80//80 79//79 108//108
f 10//10 81//81 83//83
f 83//83 37//37 82//82
f 83//83 82//82 19//19
f 37//37 84//84 82//82
f 84//84 38//38 85//85
f 19//19 82//82 18//18
f 86//86 88//88 26//26
f 36//36 86//86 23//23
f 26//26 92//92 86//86
f 86//86 36//36 87//87
f 88//88 87//87 7//7
f 25//25 89//89 91//91
f 89//89 20//20 90//90
f 91//91 90//90 42//42
f 22//22 23//23 92//92
f 86//86 92//92 23//23
f 96//96 93//93 58//58
f 93//93 27//27 94//94
f 58//58 94//94 110//110
f 13//13 95//95 63//63
f 95//95 26//26 88//88
f 63//63 88//88 7//7
f 27//27 93//93 31//31
f 96//96 31//31 93//93
f 97//97 12//12 98//98
f 96//96 98//98 31//31
f 34//34 99//99 100//100
f 99//99 38//38 84//84
f 100//100 84//84 37//37
f 32//32 101//101 149//149
f 101//101 41//41 56//56
f 149//149 56//56 1//1
f 148//148 102//102 147//147
f 102//102 2//2 49//49
f 147//147 49//49 32//32
f 24//24 103//103 75//75
f 103//103 15//15 104//104
f 4//4 77//77 53//53
f 77//77 6//6 105//105
f 53//53 105//105 1//1
f 14//14 106//106 108//108
f 106//106 12//12 107//107
f 12//12 97//97 109//109
f 97//97 96//96 68//68
f 109//109 68//68 39//39
f 110//110 24//24 74//74
f 59//59 74//74 33//33
f 32//32 48//48 101//101
f 48//48 3//3 51//51
f 101//101 51//51 41//41
f 5//5 111//111 55//55
f 111//111 40//40 112//112
f 55//55 112//112 4//4
f 44//44 113//113 114//114
f 113//113 34//34 100//100
f 114//114 100//100 37//37
f 10//10 9//9 115//115
f 14//14 116//116 118//118
f 116//116 43//43 117//117
f 118//118 117//117 9//9
f 11//11 119//119 120//120
f 119//119 34//34 113//113
f 120//120 113//113 44//44
f 12//12 109//109 107//107
f 109//109 39//39 121//121
f 107//107 121//121 108//108
f 39//39 71//71 122//122
f 71//71 4//4 112//112
f 122//122 112//112 40//40
f 123//123 46//46 124//124
f 35//35 124//124 151//151
f 43//43 78//78 126//126
f 78//78 40//40 125//125
f 126//126 125//125 8//8
f 36//36 127//127 87//87
f 127//127 25//25 128//128
f 87//87 128//128 7//7
f 20//20 129//129 130//130
f 129//129 38//38 99//99
f 130//130 99//99 34//34
f 42//42 131//131 72//72
f 131//131 34//34 119//119
f 72//72 119//119 11//11
f 18//18 82//82 85//85
f 17//17 132//132 52//52
f 132//132 13//13 133//133
f 52//52 133//133 151//151
f 46//46 134//134 136//136
f 134//134 8//8 135//135
f 136//136 135//135 5//5
f 41//41 50//50 137//137
f 50//50 151//151 124//124
f 137//137 124//124 46//46
f 40//40 80//80 122//122
f 80//80 108//108 121//121
f 122//122 121//121 39//39
f 34//34 131//131 130//130
f 131//131 42//42 90//90
f 130//130 90//90 20//20
f 43//43 116//116 79//79
f 79//79 116//116 108//108
f 43//43 138//138 117//117
f 138//138 44//44 115//115
f 117//117 115//115 9//9
f 8//8 125//125 135//135
f 125//125 40//40 111//111
f 135//135 111//111 5//5
f 7//7 128//128 66//66
f 66//66 139//139 45//45
f 11//11 120//120 141//141
f 120//120 44//44 140//140
f 141//141 140//140 8//8
f 44//44 114//114 115//115
f 114//114 37//37 81//81
f 115//115 81//81 10//10
f 133//133 13//13 65//65
f 45//45 139//139 42//42
f 139//139 128//128 25//25
f 44//44 138//138 140//140
f 138//138 43//43 126//126
f 140//140 126//126 8//8
f 2//2 102//102 143//143
f 143//143 102//102 142//142
f 143//143 142//142 21//21
f 41//41 137//137 57//57
f 137//137 46//46 136//136
f 57//57 136//136 5//5
f 6//6 150//150 152//152
f 144//144 62//62 148//148
f 147//147 144//144 148//148
f 6//6 152//152 105//105
f 8//8 134//134 141//141
f 134//134 46//46 145//145
f 141//141 145//145 11//11
f 46//46 123//123 146//146
f 123//123 35//35 67//67
f 146//146 67//67 45//45
f 45//45 73//73 146//146
f 73//73 11//11 145//145
f 146//146 145//145 46//46
f 21//21 142//142 16//16
f 147//147 149//149 153//153
f 116//116 14//14 108//108
f 153//153 105//105 152//152
f 144//144 104//104 62//62
f 32//32 149//149 147//147
f 147//147 153//153 144//144
f 104//104 15//15 62//62
f 103//103 150//150 75//75
f 151//151 65//65 35//35
f 75//75 150//150 6//6
f 151//151 133//133 65//65
f 102//102 148//148 142//142
f 150//150 104//104 152//152
f 144//144 152//152 104//104
f 153//153 152//152 144//144
f 105//105 153//153 1//1
f 153//153 149//149 1//1
f 139//139 25//25 91//91
# 261 faces, 0 coords texture

# End of File
