####
#
# OBJ File Generated by Meshlab
#
####
# Object 477_C94_M_3.obj
#
# Vertices: 143
# Faces: 245
#
####
vn -5.251145 -3.449669 -0.059455
v 65.428475 36.896747 -39.409464
vn -2.622166 -1.730894 -0.041928
v 64.231400 38.721800 -40.038600
vn -2.622489 -1.730574 -0.024327
v 65.280650 37.102600 -37.995300
vn -1.303530 -0.868444 -0.017796
v 64.206100 38.718000 -38.000000
vn -2.666497 -1.653828 -0.045904
v 67.937700 32.973200 -37.986000
vn -5.312119 -3.354918 -0.046158
v 67.285479 34.069370 -41.603339
vn -2.660989 -1.667241 -0.028899
v 67.853600 33.355200 -50.000000
vn -2.638572 -1.702753 -0.023951
v 66.536200 35.189500 -37.988100
vn -2.637573 -1.723347 -0.007778
v 64.287400 38.740800 -47.434600
vn -1.325675 -0.866086 -0.005321
v 64.312200 38.718000 -50.000000
vn -2.625702 -1.724895 -0.004938
v 64.983800 37.690300 -50.000000
vn -2.680979 -1.634635 -0.040609
v 69.349400 30.722700 -40.522400
vn -2.673589 -1.619166 -0.071200
v 69.066400 31.089000 -37.992300
vn -5.248085 -3.454699 -0.015134
v 65.255106 37.255590 -46.324502
vn -5.304235 -3.367472 -0.056772
v 67.423886 33.819377 -39.645456
vn -5.275018 -3.413023 -0.058639
v 66.369869 35.475961 -40.458501
vn -5.253154 -3.447044 -0.020988
v 64.713790 38.092228 -48.203608
vn -5.245800 -3.458126 -0.032472
v 66.397900 35.537032 -46.923536
vn -5.345434 -3.301316 -0.071380
v 68.325204 32.440955 -44.498088
vn -2.617749 -1.736842 0.000092
v 66.049900 36.067200 -50.000000
vn -2.697692 -1.609956 0.000754
v 69.162600 31.144700 -50.000000
vn -1.346254 -0.809267 -0.000073
v 69.419100 30.718000 -50.000000
vn -2.690555 -1.612535 -0.017251
v 69.419000 30.718000 -48.151100
vn -1.363014 -0.834015 -0.034370
v 69.294400 30.718000 -38.000000
vn -5.263102 -3.431472 -0.043508
v 66.290148 35.681824 -44.776283
vn -5.261192 -3.434486 -0.034034
v 65.285261 37.213245 -43.902932
vn -2.664496 -1.654661 -0.011839
v 69.397000 30.718000 -44.557800
vn -2.590562 -1.699866 -0.001532
v 64.254300 38.783300 -44.974000
vn -2.684918 -1.639554 -0.025287
v 69.397900 30.718000 -45.876300
vn -2.609999 -1.748294 -0.020228
v 66.421800 35.517100 -50.000000
vn -2.652097 -1.731193 -0.035081
v 64.279600 38.739400 -42.599300
vn -2.672696 -1.644981 -0.028806
v 69.379100 30.718000 -42.821800
vn -5.240987 -3.465533 -0.013697
v 65.654583 36.671964 -48.393876
vn -5.319513 -3.342237 -0.079869
v 67.245670 34.174694 -43.608209
vn -5.299416 -3.373534 -0.051035
v 67.502955 33.867239 -47.774045
vn -5.261321 -3.433634 -0.082121
v 65.305181 37.134728 -41.570977
vn -5.308579 -3.359223 -0.075616
v 67.339819 34.079029 -45.670615
vn -5.364795 -3.269546 -0.079762
v 68.395574 32.391682 -46.723891
vn -5.276587 -3.410462 -0.067719
v 66.282409 35.653572 -42.684560
vn -2.618727 -1.739801 -0.033023
v 64.666950 38.026250 -37.999200
vn -2.614474 -1.741512 -0.035604
v 64.218750 38.719900 -39.019300
vn -5.253398 -3.446480 -0.044785
v 66.075948 35.899412 -38.644438
vn -2.625004 -1.722235 -0.021941
v 65.984850 36.030100 -37.990150
vn -2.630414 -1.717679 -0.010343
v 64.299800 38.729400 -48.717300
vn -5.251563 -3.449480 -0.017652
v 64.790947 37.979569 -49.082367
vn -5.382604 -3.238571 -0.131018
v 69.083646 31.105229 -39.038558
vn -5.391200 -3.224393 -0.125091
v 68.715535 31.720547 -38.960568
vn -2.693724 -1.614907 -0.074356
v 68.502050 32.031100 -37.989150
vn -5.352508 -3.288269 -0.099538
v 68.198506 32.574779 -38.820149
vn -5.249812 -3.452097 -0.023445
v 64.949690 37.727566 -47.387199
vn -5.260000 -3.436664 -0.012571
v 64.716709 38.080834 -46.634407
vn -2.654919 -1.679235 -0.034381
v 67.236950 34.081350 -37.987050
vn -5.301241 -3.372249 -0.051913
v 67.035879 34.418302 -38.925277
vn -5.312365 -3.354514 -0.066240
v 67.642194 33.458050 -38.827485
vn -5.290278 -3.389527 -0.048037
v 66.914322 34.619646 -39.989301
vn -5.340911 -3.308865 -0.023492
v 67.678666 33.434308 -42.112386
vn -5.322294 -3.339366 0.003233
v 68.062541 32.825430 -41.626315
vn -5.320501 -3.341623 -0.031700
v 68.172112 32.647536 -42.607476
vn -5.335284 -3.317946 -0.025673
v 68.545329 32.060595 -41.742910
vn -5.236834 -3.471751 -0.030530
v 65.852877 36.356557 -46.596106
vn -5.237928 -3.470089 -0.031806
v 65.468199 36.944455 -47.423360
vn -5.240513 -3.466220 -0.026164
v 65.991709 36.156686 -47.641134
vn -5.245038 -3.459453 -0.003820
v 65.327235 37.168650 -49.175966
vn -5.239948 -3.467101 -0.023135
v 65.156129 37.423301 -48.287926
vn -5.251015 -3.450095 -0.045724
v 65.519954 36.746183 -38.581857
vn -5.398807 -3.214213 0.002182
v 68.978756 31.454548 -49.178003
vn -2.696511 -1.611964 0.002074
v 69.419050 30.718000 -49.075550
vn -5.391129 -3.226659 -0.035480
v 68.900134 31.587926 -48.348169
vn -5.370242 -3.260252 -0.063570
v 68.146010 32.855652 -49.157685
vn -2.701914 -1.602882 -0.005768
v 68.508100 32.249950 -50.000000
vn -2.688943 -1.623246 -0.065236
v 69.321900 30.720350 -39.261200
vn -2.630205 -1.718021 -0.005636
v 64.270850 38.762050 -46.204300
vn -5.256282 -3.442349 -0.001267
v 64.757659 38.014926 -45.628948
vn -5.335593 -3.317983 -0.027025
v 68.844456 31.603926 -44.315257
vn -5.351982 -3.290722 -0.054018
v 68.864368 31.575397 -45.207438
vn -2.619584 -1.734149 -0.010381
v 67.137700 34.436150 -50.000000
vn -5.237596 -3.470662 -0.021407
v 66.973528 34.680566 -49.361682
vn -5.277321 -3.409362 -0.064704
v 66.314758 35.582768 -41.585896
vn -5.265066 -3.428157 -0.072022
v 65.837051 36.306376 -41.021966
vn -5.267649 -3.424272 -0.068186
v 65.796965 36.390159 -42.164048
vn -5.358901 -3.278680 -0.073064
v 68.459391 32.172889 -39.705328
vn -5.363502 -3.272264 -0.058968
v 68.950304 31.385309 -41.028757
vn -5.258311 -3.438917 -0.046894
v 66.855947 34.828310 -46.266994
vn -5.270534 -3.419893 -0.057446
v 66.807191 34.893045 -45.203628
vn -5.249228 -3.452905 -0.030672
v 66.322093 35.642579 -45.850244
vn -5.356908 -3.283123 -0.053835
v 69.026519 31.274841 -41.950262
vn -2.624080 -1.727365 -0.004217
v 64.266950 38.761350 -43.786650
vn -5.251082 -3.450281 -0.001347
v 64.771664 37.996423 -44.459172
vn -5.261234 -3.434352 -0.039432
v 64.783488 37.975289 -43.280406
vn -2.674816 -1.647484 -0.027580
v 69.388050 30.718000 -43.689800
vn -5.342702 -3.306294 -0.046088
v 69.059915 31.249216 -43.598042
vn -5.322603 -3.338408 -0.050763
v 68.547707 32.072286 -43.539711
vn -5.370990 -3.259594 -0.066901
v 68.438552 32.343685 -47.716987
vn -5.350842 -3.292535 -0.077884
v 67.933731 33.154058 -47.203746
vn -5.351696 -3.291368 -0.066042
v 68.020746 33.034311 -48.203964
vn -5.353305 -3.288087 -0.094912
v 67.818917 33.282725 -45.107046
vn -5.354558 -3.286092 -0.093408
v 67.743268 33.376958 -44.070539
vn -5.316451 -3.346799 -0.087405
v 67.289797 34.131260 -44.626476
vn -5.353420 -3.288329 -0.074811
v 67.675010 33.459659 -43.081342
vn -5.322641 -3.337337 -0.069563
v 67.236254 34.168537 -42.607897
vn -5.258141 -3.438940 -0.061220
v 65.899043 36.185620 -39.878510
vn -5.260867 -3.435021 -0.028537
v 65.784944 36.452324 -44.378157
vn -5.275741 -3.411810 -0.065865
v 66.277724 35.681563 -43.733780
vn -5.268874 -3.422392 -0.067959
v 65.784206 36.432857 -43.290953
vn -5.284101 -3.398797 -0.069763
v 66.761867 34.917869 -43.151179
vn -5.280275 -3.404627 -0.074630
v 66.773093 34.920727 -44.166712
vn -5.288053 -3.392810 -0.061275
v 66.835463 34.761506 -41.056020
vn -5.286695 -3.394789 -0.068203
v 66.780862 34.866314 -42.118558
vn -5.299776 -3.374460 -0.057259
v 67.374910 33.912432 -40.578872
vn -5.319672 -3.343064 -0.056534
v 67.911549 33.050534 -39.860348
vn -5.334982 -3.317939 -0.075201
v 68.091096 32.794978 -43.548965
vn -2.628954 -1.718851 -0.061299
v 64.255500 38.730600 -41.318950
vn -5.265295 -3.427079 -0.096949
v 64.784712 37.948267 -42.078517
vn -5.249196 -3.451526 -0.103341
v 64.790217 37.897447 -40.889593
vn -5.245227 -3.459089 -0.010171
v 65.786921 36.446706 -45.491837
vn -5.242162 -3.463754 -0.023435
v 67.064901 34.535705 -48.396003
vn -5.248365 -3.454130 -0.039587
v 66.949178 34.704607 -47.329580
vn -5.243463 -3.461811 -0.019429
v 66.525027 35.350678 -47.999520
vn -2.677747 -1.642692 -0.028883
v 69.364250 30.720350 -41.672100
vn -5.241638 -3.464576 -0.002481
v 66.141536 35.935391 -48.614830
vn -5.251429 -3.448776 -0.080254
v 65.352967 37.035787 -40.447698
vn -2.625362 -1.725418 0.003660
v 65.516850 36.878750 -50.000000
vn -5.270617 -3.419656 -0.070352
v 65.288692 37.184185 -42.743489
vn -5.360467 -3.276296 -0.097242
v 68.358281 32.421468 -45.658757
vn -5.373610 -3.255247 -0.073691
v 68.888558 31.568453 -46.304077
vn -5.350870 -3.292166 -0.090408
v 67.868551 33.233739 -46.173166
vn -5.300277 -3.372259 -0.071438
v 67.407375 33.995999 -46.725165
vn -5.253219 -3.447036 0.006225
v 65.273042 37.231401 -45.057356
vn -5.280744 -3.403373 -0.048988
v 67.552749 33.803061 -49.053424
vn -5.383703 -3.238843 -0.061857
v 68.905092 31.557442 -47.370145
vn -2.689560 -1.623344 -0.024947
v 69.408450 30.718000 -47.013700
vn -5.237915 -3.470225 -0.006767
v 66.603147 35.237172 -48.935100
vn -5.378514 -3.246148 -0.106569
v 69.092652 31.126829 -39.888597
vn -5.243861 -3.460817 -0.054990
v 65.023681 37.504376 -38.923036
vn -5.334874 -3.318797 -0.042807
v 68.776520 31.694552 -42.679766
vn -5.237778 -3.469843 -0.062867
v 64.611357 38.134004 -39.192673
vn -5.242594 -3.462456 -0.069361
v 64.877085 37.741605 -39.875123
vn -5.348900 -3.295998 -0.045263
v 68.467015 32.171999 -40.549144
vn -5.324061 -3.336177 -0.022574
v 67.809120 33.233201 -41.044798
vn -5.387982 -3.231922 -0.035809
v 68.486295 32.283065 -48.853060
vn -5.273182 -3.415984 -0.041178
v 66.445932 35.345834 -39.419450
vn -5.229327 -3.483029 -0.009208
v 66.332689 35.642892 -49.464717
vn -5.243834 -3.461266 0.012546
v 65.960279 36.206073 -49.280777
# 143 vertices, 0 vertices normals

f 44//44 10//10 45//45
f 48//48 49//49 47//47
f 14//14 51//51 50//50
f 52//52 53//53 54//54
f 60//60 61//61 62//62
f 45//45 63//63 64//64
f 1//1 42//42 65//65
f 23//23 68//68 67//67
f 12//12 71//71 133//133
f 72//72 51//51 73//73
f 19//19 75//75 74//74
f 76//76 7//7 129//129
f 78//78 79//79 80//80
f 83//83 84//84 85//85
f 59//59 86//86 82//82
f 87//87 88//88 89//89
f 27//27 90//90 91//91
f 92//92 74//74 91//91
f 93//93 94//94 95//95
f 96//96 97//97 98//98
f 99//99 56//56 100//100
f 42//42 101//101 141//141
f 102//102 103//103 104//104
f 105//105 103//103 106//106
f 107//107 78//78 108//108
f 107//107 109//109 55//55
f 54//54 110//110 49//49
f 111//111 92//92 58//58
f 112//112 113//113 114//114
f 85//85 115//115 60//60
f 20//20 30//30 142//142
f 116//116 117//117 118//118
f 119//119 12//12 82//82
f 62//62 120//120 118//118
f 61//61 50//50 64//64
f 101//101 121//121 79//79
f 63//63 122//122 143//143
f 105//105 100//100 108//108
f 106//106 84//84 98//98
f 97//97 111//111 99//99
f 123//123 104//104 80//80
f 75//75 124//124 125//125
f 94//94 126//126 127//127
f 128//128 88//88 73//73
f 127//127 83//83 117//117
f 136//136 2//2 137//137
f 130//130 93//93 68//68
f 124//124 96//96 126//126
f 125//125 130//130 131//131
f 115//115 102//102 128//128
f 123//123 113//113 89//89
f 2//2 136//136 41//41
f 134//134 3//3 40//40
f 41//41 40//40 4//4
f 43//43 3//3 65//65
f 9//9 44//44 17//17
f 45//45 17//17 44//44
f 10//10 11//11 45//45
f 81//81 133//133 46//46
f 47//47 46//46 13//13
f 13//13 48//48 47//47
f 48//48 5//5 49//49
f 47//47 49//49 81//81
f 9//9 50//50 51//51
f 50//50 9//9 17//17
f 5//5 52//52 54//54
f 52//52 8//8 53//53
f 54//54 53//53 15//15
f 8//8 141//141 53//53
f 53//53 55//55 15//15
f 139//139 56//56 57//57
f 56//56 58//58 57//57
f 58//58 135//135 59//59
f 57//57 59//59 138//138
f 18//18 60//60 62//62
f 60//60 14//14 61//61
f 62//62 61//61 33//33
f 17//17 45//45 64//64
f 45//45 11//11 63//63
f 64//64 63//63 33//33
f 66//66 21//21 67//67
f 22//22 67//67 21//21
f 67//67 68//68 66//66
f 68//68 140//140 66//66
f 69//69 7//7 70//70
f 66//66 70//70 21//21
f 71//71 24//24 46//46
f 13//13 46//46 24//24
f 28//28 72//72 73//73
f 72//72 9//9 51//51
f 73//73 51//51 14//14
f 29//29 27//27 75//75
f 74//74 75//75 27//27
f 30//30 76//76 77//77
f 39//39 78//78 80//80
f 78//78 16//16 79//79
f 80//80 79//79 36//36
f 12//12 133//133 82//82
f 18//18 83//83 85//85
f 83//83 37//37 84//84
f 85//85 84//84 25//25
f 59//59 135//135 86//86
f 31//31 87//87 89//89
f 87//87 28//28 88//88
f 89//89 88//88 26//26
f 90//90 32//32 91//91
f 135//135 91//91 32//32
f 92//92 19//19 74//74
f 91//91 74//74 27//27
f 140//140 93//93 95//95
f 93//93 38//38 94//94
f 95//95 94//94 35//35
f 37//37 96//96 98//98
f 96//96 19//19 97//97
f 98//98 97//97 34//34
f 34//34 99//99 100//100
f 99//99 58//58 56//56
f 100//100 56//56 6//6
f 42//42 1//1 101//101
f 26//26 102//102 104//104
f 102//102 25//25 103//103
f 104//104 103//103 39//39
f 34//34 105//105 106//106
f 105//105 39//39 103//103
f 106//106 103//103 25//25
f 6//6 107//107 108//108
f 107//107 16//16 78//78
f 108//108 78//78 39//39
f 15//15 109//109 110//110
f 109//109 6//6 139//139
f 139//139 138//138 110//110
f 16//16 107//107 55//55
f 107//107 6//6 109//109
f 55//55 109//109 15//15
f 5//5 54//54 49//49
f 54//54 15//15 110//110
f 49//49 110//110 81//81
f 111//111 19//19 92//92
f 2//2 112//112 114//114
f 112//112 31//31 113//113
f 114//114 113//113 36//36
f 18//18 85//85 60//60
f 85//85 25//25 115//115
f 60//60 115//115 14//14
f 116//116 35//35 117//117
f 118//118 117//117 18//18
f 18//18 62//62 118//118
f 62//62 33//33 120//120
f 118//118 120//120 132//132
f 33//33 61//61 64//64
f 61//61 14//14 50//50
f 64//64 50//50 17//17
f 16//16 101//101 79//79
f 101//101 1//1 121//121
f 79//79 121//121 36//36
f 33//33 63//63 143//143
f 63//63 11//11 122//122
f 143//143 122//122 20//20
f 39//39 105//105 108//108
f 105//105 34//34 100//100
f 108//108 100//100 6//6
f 34//34 106//106 98//98
f 106//106 25//25 84//84
f 98//98 84//84 37//37
f 33//33 143//143 120//120
f 34//34 97//97 99//99
f 97//97 19//19 111//111
f 99//99 111//111 58//58
f 36//36 123//123 80//80
f 123//123 26//26 104//104
f 80//80 104//104 39//39
f 29//29 75//75 125//125
f 75//75 19//19 124//124
f 125//125 124//124 38//38
f 35//35 94//94 127//127
f 94//94 38//38 126//126
f 127//127 126//126 37//37
f 1//1 65//65 134//134
f 65//65 3//3 134//134
f 14//14 128//128 73//73
f 128//128 26//26 88//88
f 73//73 88//88 28//28
f 95//95 69//69 140//140
f 35//35 116//116 129//129
f 116//116 118//118 132//132
f 35//35 127//127 117//117
f 127//127 37//37 83//83
f 117//117 83//83 18//18
f 134//134 136//136 137//137
f 121//121 114//114 36//36
f 23//23 130//130 68//68
f 130//130 38//38 93//93
f 68//68 93//93 140//140
f 38//38 124//124 126//126
f 124//124 19//19 96//96
f 126//126 96//96 37//37
f 29//29 125//125 131//131
f 125//125 38//38 130//130
f 131//131 130//130 23//23
f 14//14 115//115 128//128
f 115//115 25//25 102//102
f 128//128 102//102 26//26
f 26//26 123//123 89//89
f 123//123 36//36 113//113
f 89//89 113//113 31//31
f 77//77 132//132 142//142
f 137//137 114//114 121//121
f 135//135 92//92 91//91
f 58//58 92//92 135//135
f 86//86 135//135 32//32
f 1//1 137//137 121//121
f 137//137 1//1 134//134
f 86//86 32//32 119//119
f 136//136 40//40 41//41
f 119//119 82//82 86//86
f 65//65 42//42 43//43
f 137//137 2//2 114//114
f 136//136 134//134 40//40
f 57//57 58//58 59//59
f 138//138 59//59 82//82
f 109//109 139//139 110//110
f 139//139 6//6 56//56
f 139//139 57//57 138//138
f 76//76 129//129 77//77
f 143//143 20//20 142//142
f 82//82 133//133 138//138
f 129//129 69//69 95//95
f 47//47 81//81 46//46
f 35//35 129//129 95//95
f 140//140 70//70 66//66
f 140//140 69//69 70//70
f 138//138 81//81 110//110
f 129//129 7//7 69//69
f 116//116 132//132 77//77
f 42//42 141//141 8//8
f 141//141 55//55 53//53
f 133//133 71//71 46//46
f 142//142 30//30 77//77
f 55//55 141//141 16//16
f 141//141 101//101 16//16
f 120//120 142//142 132//132
f 142//142 120//120 143//143
f 138//138 133//133 81//81
f 129//129 116//116 77//77
f 42//42 8//8 43//43
# 245 faces, 0 coords texture

# End of File
