####
#
# OBJ File Generated by Meshlab
#
####
# Object 481_C94_M_7.obj
#
# Vertices: 133
# Faces: 226
#
####
vn -2.362488 -2.070180 0.029139
v 27.303900 80.969800 38.000000
vn -4.702185 -4.166941 0.047241
v 27.661375 80.579259 39.487291
vn -2.284513 -2.159222 0.009142
v 31.207600 76.771200 42.451200
vn -4.620484 -4.257503 0.044977
v 29.476397 78.612016 41.901462
vn -2.277168 -2.163624 0.032221
v 30.376600 77.598100 38.000000
vn -2.409327 -2.007380 0.068794
v 25.625700 83.103000 45.409100
vn -2.325452 -2.112125 0.006784
v 28.781000 79.322400 38.000000
vn -4.563028 -4.318097 0.042838
v 30.189389 77.809483 40.263497
vn -4.573072 -4.308301 0.020808
v 29.957280 78.051842 39.143959
vn -4.584640 -4.292119 -0.170321
v 29.993574 77.998017 47.979614
vn -2.386822 -2.041267 -0.079519
v 27.606300 80.640700 50.000000
vn -2.449047 -1.955436 -0.010155
v 25.651300 83.140600 48.058200
vn -2.266389 -2.169502 -0.001408
v 31.199600 76.757200 40.228400
vn -2.263790 -2.189378 0.022759
v 31.204000 76.764800 39.046200
vn -2.327847 -2.106083 -0.059181
v 29.242300 78.740000 50.000000
vn -4.823508 -4.021325 0.108975
v 26.222959 82.220489 39.014571
vn -2.274701 -2.159639 0.023412
v 31.208600 76.772900 44.881300
vn -2.272220 -2.184864 -0.004358
v 31.216400 76.786300 45.745800
vn -4.820445 -4.027120 0.154560
v 26.053275 82.554797 44.549695
vn -1.183365 -1.037450 0.014320
v 25.557500 82.984900 38.000000
vn -2.336925 -2.113517 0.105357
v 25.558500 82.986600 38.205800
vn -2.379902 -2.049611 0.062643
v 25.770800 82.741600 38.000000
vn -2.411763 -2.035057 0.020726
v 25.590400 83.041900 42.857200
vn -4.618238 -4.260116 0.027942
v 29.283426 78.780224 39.546508
vn -2.444797 -1.933654 0.045366
v 25.609700 83.075300 40.387300
vn -2.420332 -1.995653 -0.104384
v 27.199900 81.109000 50.000000
vn -1.238598 -0.969830 -0.024182
v 25.637800 83.124000 50.000000
vn -2.273882 -2.160150 -0.057257
v 31.188800 76.738600 48.186400
vn -1.108213 -1.110936 -0.009486
v 31.183100 76.728800 50.000000
vn -2.249295 -2.192264 -0.034542
v 30.734400 77.176400 50.000000
vn -1.128847 -1.082997 0.030508
v 31.192400 76.744800 38.000000
vn -4.740126 -4.120440 -0.145519
v 28.510195 79.629147 48.304284
vn -4.627947 -4.248447 -0.085241
v 29.476976 78.608668 46.652166
vn -4.860467 -3.980047 -0.098739
v 27.055493 81.366242 48.270287
vn -4.694585 -4.175173 0.070600
v 28.035050 80.188420 41.348294
vn -4.772289 -4.085964 0.063614
v 27.470551 80.872200 44.553747
vn -4.597711 -4.281999 0.010117
v 29.860880 78.194280 43.857547
vn -4.690211 -4.180282 0.022757
v 28.425849 79.765611 43.170853
vn -4.584217 -4.296426 -0.040431
v 30.163280 77.886726 46.023671
vn -4.750729 -4.111399 0.068708
v 27.029637 81.368853 42.728689
vn -4.797986 -4.053467 0.075118
v 26.680342 81.721506 40.980292
vn -4.670429 -4.202240 0.017489
v 28.827267 79.324733 45.201540
vn -4.835972 -4.010390 0.052873
v 26.626811 81.922764 46.135908
vn -4.772122 -4.086439 -0.032319
v 27.993142 80.290418 46.556059
vn -4.522739 -4.361493 -0.005712
v 30.664106 77.320673 39.703537
vn -4.704027 -4.165076 0.031807
v 27.514425 80.738479 38.634413
vn -4.835229 -4.007106 0.102740
v 26.514805 81.896138 39.978826
vn -2.339033 -2.097235 0.011490
v 28.042450 80.146100 38.000000
vn -4.678142 -4.194387 0.022856
v 28.196420 79.978977 38.839463
vn -4.663003 -4.209836 0.009808
v 29.039122 79.089794 46.062917
vn -4.708965 -4.157849 -0.063292
v 28.717099 79.465199 46.723038
vn -4.729935 -4.135712 0.039349
v 28.408463 79.806208 45.850407
vn -4.581618 -4.299371 0.020111
v 30.211511 77.829235 42.335341
vn -4.606832 -4.272329 -0.007471
v 29.668434 78.403097 42.852641
vn -2.281553 -2.158692 -0.064519
v 31.202600 76.762450 46.966100
vn -4.550190 -4.331966 -0.073878
v 30.753585 77.260218 46.142553
vn -4.617297 -4.261232 0.006393
v 29.300040 78.759211 38.763277
vn -2.304326 -2.135340 -0.002532
v 29.578800 78.460250 38.000000
vn -4.518926 -4.364635 0.076305
v 30.694872 77.283764 38.723180
vn -2.444557 -1.972962 -0.030488
v 25.600050 83.058600 41.622250
vn -4.929597 -3.894248 0.010881
v 26.112723 82.437259 40.780012
vn -4.855228 -3.985231 0.021349
v 26.185428 82.324112 41.735209
vn -4.932752 -3.885842 0.198580
v 26.016942 82.532220 39.885924
vn -4.554614 -4.328048 0.032044
v 30.670888 77.345510 45.323126
vn -4.657725 -4.216951 0.019878
v 28.801631 79.305445 39.117097
vn -4.681572 -4.190361 0.042067
v 28.325082 79.840477 39.762724
vn -4.602680 -4.276749 -0.008509
v 29.512191 78.588545 45.568263
vn -4.750333 -4.110923 0.111482
v 26.716468 81.715119 42.156789
vn -4.701852 -4.167201 0.068446
v 27.841489 80.391386 40.432718
vn -4.720970 -4.145094 0.093069
v 27.348248 80.965344 41.147667
vn -2.280455 -2.160815 0.002450
v 31.208100 76.772050 43.666250
vn -4.565089 -4.317174 0.015345
v 30.576264 77.439565 44.279401
vn -4.590824 -4.289610 0.033017
v 30.026102 78.026569 44.917961
vn -2.273791 -2.167602 0.030686
v 31.203600 76.764200 41.339800
vn -4.594668 -4.284789 0.087376
v 30.002583 78.032280 41.246410
vn -2.481736 -1.925099 -0.067713
v 26.418850 82.116500 50.000000
vn -4.949323 -3.869295 -0.096529
v 26.157855 82.477479 49.291881
vn -4.925557 -3.898162 -0.137707
v 26.750159 81.719865 49.146818
vn -2.465747 -1.946421 -0.033782
v 25.644550 83.132300 49.029100
vn -4.930981 -3.893498 -0.063409
v 26.310153 82.302145 48.277884
vn -2.239153 -2.203419 -0.026376
v 31.185950 76.733700 49.093200
vn -4.518763 -4.364625 -0.088180
v 30.662805 77.267092 49.141683
vn -2.438111 -1.977696 0.116908
v 25.584100 83.030950 39.296550
vn -2.371608 -2.060331 0.009867
v 26.537350 81.855700 38.000000
vn -4.540322 -4.341576 -0.106793
v 30.180622 77.774114 48.845199
vn -2.272822 -2.168540 -0.036273
v 29.988350 77.958200 50.000000
vn -4.612516 -4.262872 -0.136935
v 29.585593 78.396885 49.069730
vn -4.668544 -4.204124 0.085683
v 28.508062 79.649171 40.674151
vn -4.633267 -4.242788 0.094710
v 29.203661 78.889045 40.932579
vn -4.646875 -4.228334 0.060465
v 28.739098 79.418162 41.589611
vn -4.766097 -4.093678 0.062811
v 26.612146 81.866263 43.461899
vn -4.761384 -4.099395 0.036510
v 27.266835 81.100437 43.615777
vn -4.793717 -4.060178 0.105413
v 26.796041 81.662950 44.359223
vn -2.411192 -2.012312 0.079729
v 25.608050 83.072450 44.133150
vn -4.668604 -4.201521 -0.171961
v 29.256542 78.798361 48.264520
vn -4.688838 -4.179188 -0.165495
v 28.977402 79.139218 47.515248
vn -4.828555 -4.016289 -0.176192
v 27.386911 80.936451 49.151556
vn -4.720609 -4.143750 -0.134282
v 28.842256 79.224137 49.135415
vn -4.815394 -4.033986 -0.129512
v 27.775230 80.505621 48.296028
vn -4.811565 -4.039527 -0.096664
v 27.518554 80.836143 47.375829
vn -4.758503 -4.099454 -0.141712
v 28.241331 79.970407 47.466224
vn -4.867709 -3.971130 -0.060865
v 26.809708 81.681202 47.233266
vn -4.818106 -4.031867 0.000677
v 27.294936 81.124376 46.343369
vn -4.737544 -4.127135 0.028600
v 27.932169 80.337185 43.850154
vn -4.686053 -4.184944 0.016514
v 28.613397 79.559224 44.179571
vn -4.733816 -4.131364 0.033912
v 28.142972 80.102899 44.858926
vn -4.786341 -4.069333 0.065469
v 27.717676 80.598165 45.558259
vn -4.624835 -4.252989 0.021069
v 29.321570 78.783791 44.536631
vn -4.640025 -4.236575 0.002121
v 29.136886 78.986199 43.498341
vn -4.787573 -4.066849 -0.124625
v 28.072936 80.117681 49.146542
vn -4.692232 -4.177684 0.036881
v 28.233033 79.974067 42.240669
vn -4.640398 -4.236158 0.008810
v 28.948238 79.191707 42.516304
vn -2.380789 -2.049230 -0.045904
v 28.424300 79.690350 50.000000
vn -4.736593 -4.127414 0.083350
v 27.541479 80.767972 42.039706
vn -4.611109 -4.267455 0.064172
v 29.597155 78.448526 40.216369
vn -4.743545 -4.120068 0.043424
v 27.741588 80.550523 42.912533
vn -4.825745 -4.022094 0.112923
v 26.085420 82.569768 46.015328
vn -4.879467 -3.956910 0.027595
v 26.184212 82.474891 47.048972
vn -2.411566 -2.012830 0.049662
v 25.638500 83.121800 46.733650
vn -4.816242 -4.033345 0.114423
v 27.044052 81.403209 45.310679
vn -4.818361 -4.030125 0.140229
v 26.354524 82.217765 45.186790
vn -4.570548 -4.309221 -0.135595
v 30.457148 77.550433 46.981283
vn -4.593422 -4.283653 -0.155896
v 29.900654 78.146159 47.061228
vn -4.548778 -4.333739 0.054210
v 30.647430 77.336737 40.788933
vn -4.732419 -4.132891 0.035539
v 26.864632 81.484379 39.101032
vn -4.649689 -4.225031 0.055881
v 28.899652 79.200931 40.005264
vn -4.568243 -4.313855 -0.003834
v 30.517963 77.499795 43.134277
vn -4.639550 -4.233760 -0.159295
v 29.511746 78.543192 47.501655
vn -4.723897 -4.142331 0.064831
v 27.143367 81.178445 40.016333
vn -4.797647 -4.056139 0.047325
v 26.109510 82.428535 42.478184
vn -4.791246 -4.062619 0.119002
v 26.099505 82.464170 43.622897
vn -4.551169 -4.329573 -0.138190
v 30.736851 77.226171 47.937284
vn -4.571212 -4.310409 0.041616
v 30.690626 77.316882 42.112195
# 133 vertices, 0 vertices normals

f 48//48 49//49 46//46
f 50//50 51//51 52//52
f 21//21 20//20 22//22
f 55//55 122//122 56//56
f 57//57 58//58 9//9
f 9//9 59//59 45//45
f 60//60 61//61 62//62
f 63//63 47//47 61//61
f 39//39 64//64 56//56
f 65//65 66//66 49//49
f 65//65 57//57 24//24
f 67//67 33//33 50//50
f 130//130 62//62 68//68
f 129//129 69//69 70//70
f 71//71 72//72 127//127
f 64//64 73//73 72//72
f 53//53 4//4 75//75
f 76//76 77//77 78//78
f 79//79 80//80 77//77
f 28//28 81//81 82//82
f 31//31 14//14 59//59
f 83//83 16//16 63//63
f 84//84 125//125 16//16
f 86//86 87//87 85//85
f 88//88 89//89 90//90
f 91//91 92//92 93//93
f 34//34 97//97 78//78
f 95//95 87//87 98//98
f 99//99 100//100 101//101
f 100//100 102//102 103//103
f 104//104 105//105 106//106
f 107//107 106//106 52//52
f 108//108 105//105 109//109
f 97//97 99//99 110//110
f 111//111 90//90 112//112
f 88//88 69//69 66//66
f 113//113 110//110 98//98
f 68//68 70//70 114//114
f 75//75 89//89 115//115
f 116//116 104//104 92//92
f 116//116 114//114 111//111
f 108//108 73//73 67//67
f 117//117 118//118 119//119
f 118//118 102//102 80//80
f 93//93 120//120 121//121
f 103//103 120//120 107//107
f 101//101 51//51 96//96
f 14//14 13//13 45//45
f 125//125 46//46 2//2
f 129//129 41//41 47//47
f 1//1 48//48 46//46
f 48//48 7//7 49//49
f 46//46 49//49 2//2
f 42//42 50//50 52//52
f 50//50 33//33 51//51
f 52//52 51//51 44//44
f 4//4 53//53 54//54
f 18//18 55//55 56//56
f 55//55 28//28 132//132
f 56//56 122//122 39//39
f 57//57 7//7 58//58
f 9//9 58//58 5//5
f 9//9 45//45 8//8
f 9//9 5//5 59//59
f 45//45 59//59 14//14
f 23//23 60//60 130//130
f 60//60 25//25 61//61
f 62//62 61//61 41//41
f 25//25 63//63 61//61
f 63//63 16//16 47//47
f 61//61 47//47 41//41
f 17//17 18//18 64//64
f 56//56 64//64 18//18
f 7//7 65//65 49//49
f 65//65 24//24 126//126
f 49//49 66//66 2//2
f 65//65 7//7 57//57
f 42//42 67//67 50//50
f 67//67 39//39 33//33
f 68//68 62//62 41//41
f 41//41 129//129 70//70
f 129//129 2//2 69//69
f 70//70 69//69 35//35
f 71//71 17//17 72//72
f 17//17 64//64 72//72
f 64//64 39//39 73//73
f 72//72 73//73 37//37
f 13//13 74//74 124//124
f 74//74 3//3 133//133
f 45//45 124//124 8//8
f 26//26 76//76 78//78
f 76//76 27//27 77//77
f 27//27 79//79 77//77
f 79//79 12//12 80//80
f 77//77 80//80 78//78
f 81//81 29//29 30//30
f 30//30 82//82 81//81
f 31//31 59//59 5//5
f 25//25 83//83 63//63
f 83//83 21//21 22//22
f 22//22 84//84 16//16
f 84//84 1//1 46//46
f 28//28 82//82 132//132
f 132//132 85//85 10//10
f 30//30 86//86 82//82
f 86//86 15//15 87//87
f 35//35 88//88 90//90
f 88//88 126//126 89//89
f 90//90 89//89 4//4
f 91//91 40//40 92//92
f 93//93 92//92 36//36
f 19//19 94//94 131//131
f 33//33 123//123 128//128
f 123//123 10//10 128//128
f 96//96 95//95 32//32
f 11//11 26//26 97//97
f 78//78 97//97 26//26
f 32//32 95//95 98//98
f 87//87 10//10 85//85
f 98//98 87//87 15//15
f 32//32 99//99 101//101
f 99//99 34//34 100//100
f 101//101 100//100 44//44
f 44//44 100//100 103//103
f 100//100 34//34 102//102
f 103//103 102//102 43//43
f 36//36 104//104 106//106
f 104//104 38//38 105//105
f 106//106 105//105 42//42
f 44//44 107//107 52//52
f 107//107 36//36 106//106
f 52//52 106//106 42//42
f 37//37 108//108 109//109
f 108//108 42//42 105//105
f 109//109 105//105 38//38
f 11//11 97//97 110//110
f 97//97 34//34 99//99
f 110//110 99//99 32//32
f 38//38 111//111 112//112
f 111//111 35//35 90//90
f 112//112 90//90 4//4
f 54//54 37//37 109//109
f 112//112 109//109 38//38
f 88//88 35//35 69//69
f 66//66 69//69 2//2
f 15//15 113//113 98//98
f 113//113 11//11 110//110
f 98//98 110//110 32//32
f 40//40 68//68 114//114
f 68//68 41//41 70//70
f 114//114 70//70 35//35
f 115//115 24//24 9//9
f 115//115 9//9 8//8
f 8//8 75//75 115//115
f 75//75 4//4 89//89
f 115//115 89//89 126//126
f 40//40 116//116 92//92
f 116//116 38//38 104//104
f 92//92 104//104 36//36
f 38//38 116//116 111//111
f 116//116 40//40 114//114
f 111//111 114//114 35//35
f 42//42 108//108 67//67
f 108//108 37//37 73//73
f 67//67 73//73 39//39
f 91//91 131//131 130//130
f 6//6 117//117 119//119
f 117//117 43//43 118//118
f 119//119 118//118 12//12
f 12//12 118//118 80//80
f 118//118 43//43 102//102
f 80//80 102//102 34//34
f 19//19 93//93 121//121
f 93//93 36//36 120//120
f 121//121 120//120 43//43
f 44//44 103//103 107//107
f 103//103 43//43 120//120
f 107//107 120//120 36//36
f 6//6 121//121 117//117
f 117//117 121//121 43//43
f 32//32 101//101 96//96
f 101//101 44//44 51//51
f 96//96 51//51 33//33
f 55//55 132//132 122//122
f 122//122 132//132 10//10
f 74//74 133//133 124//124
f 13//13 124//124 45//45
f 78//78 80//80 34//34
f 37//37 127//127 72//72
f 124//124 75//75 8//8
f 124//124 133//133 75//75
f 53//53 75//75 133//133
f 10//10 123//123 122//122
f 54//54 53//53 127//127
f 54//54 109//109 112//112
f 131//131 94//94 23//23
f 95//95 10//10 87//87
f 4//4 54//54 112//112
f 24//24 57//57 9//9
f 131//131 23//23 130//130
f 123//123 33//33 39//39
f 65//65 126//126 66//66
f 82//82 86//86 85//85
f 126//126 24//24 115//115
f 66//66 126//126 88//88
f 122//122 123//123 39//39
f 127//127 37//37 54//54
f 96//96 128//128 95//95
f 2//2 129//129 125//125
f 3//3 71//71 127//127
f 132//132 82//82 85//85
f 33//33 128//128 96//96
f 128//128 10//10 95//95
f 40//40 130//130 68//68
f 3//3 127//127 133//133
f 130//130 60//60 62//62
f 125//125 84//84 46//46
f 93//93 131//131 91//91
f 19//19 131//131 93//93
f 19//19 121//121 6//6
f 19//19 6//6 94//94
f 125//125 129//129 47//47
f 125//125 47//47 16//16
f 91//91 130//130 40//40
f 133//133 127//127 53//53
f 22//22 16//16 83//83
# 226 faces, 0 coords texture

# End of File
