####
#
# OBJ File Generated by Meshlab
#
####
# Object 493_C95_M_9.obj
#
# Vertices: 132
# Faces: 222
#
####
vn 2.105596 -2.340638 -0.039672
v -31.656300 77.548400 -43.377200
vn 4.211359 -4.662204 0.011106
v -30.565175 78.493223 -47.946776
vn 4.227520 -4.647101 0.030007
v -30.910242 78.227570 -45.601216
vn 2.175208 -2.266775 -0.058530
v -25.613200 83.081400 -40.384800
vn 4.349062 -4.533707 -0.037636
v -26.827228 81.977016 -44.770342
vn 2.188652 -2.236968 -0.034913
v -25.648300 83.143000 -43.355700
vn 2.166480 -2.274159 -0.059869
v -27.100800 81.596800 -38.000000
vn 2.189106 -2.246441 -0.025288
v -25.674200 83.187200 -47.989700
vn 4.364600 -4.519292 -0.053381
v -26.918391 81.988857 -49.010167
vn 1.089397 -1.137480 -0.028549
v -25.590900 83.042700 -38.000000
vn 2.087935 -2.346905 -0.003543
v -30.016700 78.931200 -38.000000
vn 2.110434 -2.326939 -0.029695
v -29.424900 79.466400 -38.000000
vn 4.270551 -4.607797 -0.075425
v -28.146572 80.650447 -39.652796
vn 2.179382 -2.262052 -0.028935
v -27.009300 81.914600 -50.000000
vn 1.083453 -1.139161 0.001743
v -25.668600 83.177400 -50.000000
vn 2.096504 -2.340143 0.024803
v -31.647400 77.532900 -47.637100
vn 2.118323 -2.319599 -0.031997
v -30.315800 78.750100 -50.000000
vn 2.220033 -2.216466 -0.070513
v -25.665200 83.171700 -46.657400
vn 4.361016 -4.521442 -0.118582
v -26.780333 82.075955 -46.991708
vn 2.098585 -2.332759 0.014376
v -31.623400 77.491300 -40.641100
vn 4.230417 -4.643838 -0.103717
v -31.141277 77.931120 -41.033522
vn 2.180977 -2.264486 -0.085108
v -25.636700 83.123000 -42.723400
vn 2.203079 -2.251428 -0.025416
v -25.641700 83.131300 -44.974000
vn 4.333382 -4.547440 -0.115028
v -26.774301 82.047554 -45.891099
vn 4.239557 -4.636904 -0.059319
v -29.424799 79.491093 -40.020684
vn 4.259582 -4.618015 -0.071525
v -28.567925 80.293986 -41.785936
vn 2.142433 -2.296335 -0.054972
v -27.571900 81.149700 -38.000000
vn 2.151579 -2.286784 0.016656
v -31.648900 77.535500 -45.142200
vn 4.336108 -4.546233 -0.083929
v -27.825730 81.069254 -46.163664
vn 4.360715 -4.523287 -0.047452
v -28.328226 80.611384 -48.186529
vn 2.146544 -2.293613 -0.023350
v -29.661400 79.342800 -50.000000
vn 2.185867 -2.256422 -0.016202
v -28.201800 80.744200 -50.000000
vn 1.028053 -1.192163 0.022927
v -31.649100 77.535900 -38.000000
vn 2.109989 -2.318576 -0.031773
v -31.623100 77.490800 -40.899000
vn 1.056070 -1.161820 -0.007085
v -31.643500 77.526100 -50.000000
vn 4.267235 -4.610384 -0.010637
v -29.372994 79.587295 -46.336976
vn 4.353326 -4.529919 -0.057314
v -27.133611 81.688002 -42.909308
vn 4.338172 -4.543812 -0.111175
v -26.769197 81.941073 -39.063380
vn 4.343939 -4.538240 -0.110699
v -26.850515 81.906963 -40.990085
vn 4.228119 -4.646631 -0.098834
v -30.077486 78.915827 -41.455893
vn 4.190145 -4.681847 -0.029444
v -30.107942 78.932931 -44.145351
vn 4.181132 -4.688976 0.024559
v -30.893718 78.147707 -39.952836
vn 4.287567 -4.591919 -0.043608
v -28.449777 80.431939 -44.152817
vn 4.277756 -4.601273 -0.032748
v -29.893283 79.108699 -48.181588
vn 2.146503 -2.293922 0.006679
v -31.648150 77.534200 -46.389650
vn 4.261129 -4.616953 0.035836
v -31.267004 77.891984 -46.204945
vn 4.322046 -4.559813 -0.052896
v -27.569299 81.270494 -44.472734
vn 4.331592 -4.550296 -0.098528
v -28.098514 80.790583 -45.277002
vn 4.301271 -4.578790 -0.108544
v -27.371176 81.484949 -45.581748
vn 2.172421 -2.268690 -0.056875
v -26.345850 82.319750 -38.000000
vn 2.173073 -2.268066 -0.056868
v -25.602050 83.062050 -39.192400
vn 4.347431 -4.534961 -0.111309
v -26.176190 82.522935 -39.634511
vn 4.336320 -4.545720 -0.103846
v -26.911588 81.826617 -40.022192
vn 2.171642 -2.270085 0.017049
v -25.671400 83.182300 -48.994850
vn 4.372200 -4.511654 -0.033179
v -26.272015 82.611554 -48.481877
vn 4.327592 -4.555054 -0.003377
v -26.301746 82.576098 -49.423505
vn 2.153967 -2.286842 -0.019611
v -26.338950 82.546000 -50.000000
vn 4.177037 -4.693152 0.053703
v -31.166351 77.957705 -47.817574
vn 2.085862 -2.349192 0.008688
v -31.645450 77.529500 -48.818550
vn 4.216378 -4.657855 -0.022217
v -31.084494 78.027623 -48.917440
vn 4.286772 -4.592484 -0.048774
v -29.761037 79.240225 -49.116975
vn 4.410314 -4.473675 -0.115298
v -26.229601 82.628831 -47.396977
vn 4.392087 -4.491810 -0.069852
v -26.172209 82.616646 -45.204828
vn 2.177819 -2.263395 -0.061234
v -25.624950 83.102200 -41.554100
vn 4.332781 -4.548898 -0.113057
v -27.504106 81.300057 -41.626277
vn 4.355727 -4.527243 -0.089798
v -27.752965 81.085635 -42.472740
vn 4.350433 -4.531628 -0.127392
v -26.917714 81.875178 -42.189736
vn 2.153570 -2.287155 0.025745
v -31.652600 77.541950 -44.259700
vn 4.239347 -4.636361 0.003644
v -31.202611 77.962697 -44.522672
vn 4.186789 -4.684218 0.084061
v -30.760540 78.339920 -46.790877
vn 2.175810 -2.266110 -0.014118
v -28.931600 80.043500 -50.000000
vn 4.367379 -4.516997 -0.026265
v -28.262944 80.680682 -49.220295
vn 4.354698 -4.529208 -0.035044
v -29.012299 79.960582 -49.130163
vn 4.229671 -4.645967 -0.057350
v -28.836530 80.024482 -39.840758
vn 4.229627 -4.645974 -0.060045
v -29.020902 79.868780 -40.794140
vn 4.277911 -4.600832 -0.075665
v -28.299698 80.524168 -40.685039
vn 4.353507 -4.530282 -0.042266
v -29.189549 79.781213 -48.239296
vn 4.349265 -4.534245 -0.054122
v -28.034543 80.879645 -47.059737
vn 4.349839 -4.533444 -0.070298
v -28.509488 80.414108 -46.221171
vn 4.354969 -4.528829 -0.047578
v -28.817359 80.131205 -47.256922
vn 4.211920 -4.661364 -0.096629
v -30.075189 78.941688 -42.406092
vn 4.391606 -4.493302 -0.043842
v -27.582416 81.344611 -49.471465
vn 4.372338 -4.511755 -0.060330
v -27.567591 81.354411 -48.609484
vn 2.041109 -2.387950 0.034240
v -30.832900 78.233550 -38.000000
vn 4.103099 -4.757383 0.093531
v -31.085923 78.004752 -38.873540
vn 4.161196 -4.706377 0.020437
v -30.388876 78.599233 -38.965760
vn 2.066662 -2.365402 0.058156
v -31.636250 77.513600 -39.320550
vn 2.105852 -2.329949 -0.079452
v -31.639700 77.519600 -42.138100
vn 4.224247 -4.649205 -0.137003
v -30.727279 78.333989 -41.756199
vn 4.172381 -4.697152 0.046323
v -30.194917 78.862435 -45.982463
vn 4.183554 -4.687702 0.004178
v -29.737673 79.263324 -45.156151
vn 4.168337 -4.701295 -0.022775
v -30.493343 78.596661 -44.891240
vn 4.241491 -4.635051 -0.062709
v -30.449058 78.614539 -49.018082
vn 4.212006 -4.662021 -0.051951
v -29.724485 79.272875 -43.339394
vn 4.212673 -4.661646 -0.005981
v -29.341477 79.625589 -44.242007
vn 4.211851 -4.662232 -0.047606
v -29.049008 79.883591 -43.455104
vn 2.199209 -2.243312 0.025188
v -25.645000 83.137150 -44.164850
vn 4.397578 -4.487652 0.022852
v -26.209412 82.584675 -44.089991
vn 4.287235 -4.591829 -0.060709
v -28.440808 80.427284 -42.942710
vn 4.347600 -4.535975 -0.021083
v -27.721350 81.127213 -43.468124
vn 4.380612 -4.503046 -0.102499
v -26.856760 82.027982 -48.051829
vn 2.112298 -2.325247 -0.032063
v -28.498400 80.308050 -38.000000
vn 4.226471 -4.648834 -0.060654
v -28.733273 80.106847 -38.881908
vn 4.256191 -4.621029 -0.083606
v -27.997991 80.772879 -38.743207
vn 2.217671 -2.223903 -0.075855
v -25.653450 83.151500 -45.815700
vn 4.420876 -4.462113 -0.144944
v -26.180365 82.639534 -46.294916
vn 2.200456 -2.242006 -0.031790
v -27.605550 81.329400 -50.000000
vn 4.319235 -4.561994 -0.087467
v -27.341758 81.539017 -46.623837
vn 4.360501 -4.523555 0.011587
v -26.961380 81.850020 -43.767033
vn 4.241360 -4.635220 -0.052697
v -30.055083 78.909309 -39.905346
vn 4.233372 -4.642684 -0.047755
v -29.543942 79.371659 -39.058782
vn 4.314224 -4.566706 -0.104428
v -27.506781 81.246392 -39.314911
vn 4.322833 -4.558734 -0.097172
v -27.588362 81.193579 -40.413236
vn 4.375890 -4.507627 -0.075839
v -26.393965 82.404960 -42.997856
vn 4.356258 -4.526048 -0.127552
v -26.325644 82.436766 -41.891848
vn 4.351820 -4.531408 -0.077376
v -27.475569 81.422856 -47.644223
vn 4.320819 -4.561208 -0.030051
v -29.463508 79.509721 -47.424677
vn 4.173934 -4.696099 -0.056719
v -30.812897 78.302591 -43.850371
vn 4.193027 -4.678985 -0.060811
v -30.370914 78.688379 -43.315248
vn 4.214132 -4.659725 -0.077915
v -29.205615 79.731411 -42.574650
vn 4.223884 -4.650766 -0.083746
v -29.419622 79.516807 -41.628896
vn 4.241318 -4.634853 -0.083297
v -30.427908 78.581745 -40.789005
vn 4.240680 -4.635704 -0.070339
v -29.729852 79.222945 -40.746616
vn 4.280882 -4.597765 -0.031598
v -28.913628 80.007293 -45.227114
vn 4.219184 -4.654844 0.048552
v -30.027233 78.986170 -47.103355
vn 2.129225 -2.309789 -0.029629
v -30.979650 78.138100 -50.000000
vn 4.222883 -4.651407 0.049957
v -31.313029 77.845130 -46.971193
vn 4.193708 -4.677397 -0.108904
v -30.884049 78.223083 -42.809797
vn 4.345054 -4.537188 -0.113357
v -26.144649 82.532549 -38.804471
vn 4.353792 -4.528762 -0.114912
v -26.221962 82.505778 -40.722910
vn 4.312858 -4.567465 -0.124478
v -27.417822 81.310458 -38.546667
vn 4.329100 -4.552805 -0.094908
v -27.982625 80.840918 -41.469146
# 132 vertices, 0 vertices normals

f 45//45 16//16 127//127
f 47//47 48//48 49//49
f 10//10 50//50 129//129
f 54//54 55//55 56//56
f 15//15 56//56 57//57
f 58//58 59//59 60//60
f 122//122 42//42 21//21
f 115//115 64//64 130//130
f 1//1 68//68 69//69
f 46//46 127//127 70//70
f 71//71 72//72 73//73
f 74//74 75//75 76//76
f 61//61 73//73 77//77
f 78//78 79//79 80//80
f 72//72 82//82 83//83
f 84//84 85//85 86//86
f 87//87 42//42 85//85
f 88//88 128//128 89//89
f 90//90 91//91 92//92
f 17//17 61//61 93//93
f 20//20 34//34 21//21
f 94//94 95//95 96//96
f 23//23 98//98 63//63
f 66//66 99//99 100//100
f 55//55 62//62 101//101
f 102//102 103//103 104//104
f 105//105 63//63 106//106
f 19//19 62//62 106//106
f 32//32 107//107 82//82
f 24//24 108//108 19//19
f 114//114 109//109 98//98
f 86//86 110//110 111//111
f 112//112 113//113 53//53
f 65//65 113//113 132//132
f 7//7 27//27 131//131
f 116//116 108//108 78//78
f 80//80 117//117 77//77
f 81//81 120//120 121//121
f 92//92 118//118 69//69
f 89//89 40//40 122//122
f 123//123 110//110 122//122
f 123//123 121//121 75//75
f 120//120 96//96 99//99
f 81//81 119//119 94//94
f 95//95 91//91 124//124
f 100//100 47//47 109//109
f 48//48 124//124 79//79
f 103//103 111//111 74//74
f 101//101 116//116 83//83
f 70//70 125//125 90//90
f 93//93 60//60 126//126
f 36//36 125//125 117//117
f 28//28 45//45 46//46
f 5//5 47//47 49//49
f 47//47 43//43 48//48
f 49//49 48//48 29//29
f 7//7 38//38 50//50
f 51//51 52//52 4//4
f 52//52 129//129 38//38
f 15//15 54//54 56//56
f 54//54 8//8 55//55
f 56//56 55//55 9//9
f 9//9 14//14 56//56
f 57//57 56//56 14//14
f 2//2 58//58 60//60
f 58//58 16//16 59//59
f 60//60 59//59 35//35
f 17//17 31//31 61//61
f 62//62 8//8 18//18
f 63//63 5//5 24//24
f 42//42 20//20 21//21
f 64//64 4//4 130//130
f 65//65 132//132 66//66
f 67//67 65//65 37//37
f 68//68 28//28 69//69
f 3//3 69//69 28//28
f 3//3 46//46 70//70
f 70//70 58//58 2//2
f 31//31 71//71 73//73
f 71//71 32//32 72//72
f 73//73 72//72 30//30
f 13//13 74//74 76//76
f 74//74 25//25 75//75
f 76//76 75//75 26//26
f 44//44 61//61 77//77
f 61//61 31//31 73//73
f 77//77 73//73 30//30
f 30//30 78//78 80//80
f 78//78 29//29 79//79
f 80//80 79//79 36//36
f 89//89 81//81 40//40
f 30//30 72//72 83//83
f 72//72 32//32 82//82
f 83//83 82//82 9//9
f 11//11 84//84 86//86
f 84//84 33//33 85//85
f 86//86 85//85 42//42
f 33//33 87//87 85//85
f 87//87 20//20 42//42
f 21//21 88//88 89//89
f 88//88 1//1 128//128
f 34//34 88//88 21//21
f 3//3 90//90 92//92
f 90//90 36//36 91//91
f 92//92 91//91 41//41
f 61//61 44//44 93//93
f 2//2 93//93 44//44
f 94//94 41//41 95//95
f 96//96 95//95 43//43
f 23//23 97//97 98//98
f 97//97 6//6 98//98
f 63//63 98//98 5//5
f 37//37 66//66 100//100
f 66//66 132//132 99//99
f 100//100 99//99 43//43
f 9//9 55//55 101//101
f 55//55 8//8 62//62
f 101//101 62//62 19//19
f 27//27 102//102 104//104
f 102//102 12//12 103//103
f 104//104 103//103 13//13
f 5//5 49//49 24//24
f 18//18 105//105 106//106
f 105//105 23//23 63//63
f 106//106 63//63 24//24
f 24//24 19//19 106//106
f 106//106 62//62 18//18
f 107//107 14//14 82//82
f 9//9 82//82 14//14
f 6//6 114//114 98//98
f 114//114 37//37 109//109
f 98//98 109//109 5//5
f 52//52 130//130 4//4
f 11//11 86//86 111//111
f 86//86 42//42 110//110
f 111//111 110//110 25//25
f 38//38 112//112 53//53
f 112//112 13//13 113//113
f 53//53 113//113 39//39
f 65//65 39//39 113//113
f 76//76 113//113 13//13
f 6//6 22//22 114//114
f 111//111 12//12 11//11
f 130//130 39//39 115//115
f 37//37 114//114 67//67
f 114//114 22//22 115//115
f 67//67 115//115 39//39
f 13//13 112//112 104//104
f 30//30 116//116 78//78
f 116//116 19//19 108//108
f 78//78 108//108 29//29
f 30//30 80//80 77//77
f 80//80 36//36 117//117
f 77//77 117//117 44//44
f 1//1 118//118 128//128
f 118//118 41//41 119//119
f 40//40 81//81 121//121
f 81//81 94//94 120//120
f 121//121 120//120 26//26
f 3//3 92//92 69//69
f 92//92 41//41 118//118
f 69//69 118//118 1//1
f 122//122 21//21 89//89
f 40//40 123//123 122//122
f 123//123 25//25 110//110
f 122//122 110//110 42//42
f 25//25 123//123 75//75
f 123//123 40//40 121//121
f 75//75 121//121 26//26
f 26//26 120//120 99//99
f 120//120 94//94 96//96
f 99//99 96//96 43//43
f 81//81 128//128 119//119
f 94//94 119//119 41//41
f 43//43 95//95 124//124
f 95//95 41//41 91//91
f 124//124 91//91 36//36
f 37//37 100//100 109//109
f 100//100 43//43 47//47
f 109//109 47//47 5//5
f 29//29 48//48 79//79
f 48//48 43//43 124//124
f 79//79 124//124 36//36
f 13//13 103//103 74//74
f 103//103 12//12 111//111
f 74//74 111//111 25//25
f 9//9 101//101 83//83
f 101//101 19//19 116//116
f 83//83 116//116 30//30
f 3//3 70//70 90//90
f 70//70 2//2 125//125
f 90//90 125//125 36//36
f 17//17 93//93 126//126
f 93//93 2//2 60//60
f 126//126 60//60 35//35
f 2//2 44//44 125//125
f 117//117 125//125 44//44
f 112//112 38//38 131//131
f 46//46 3//3 28//28
f 128//128 118//118 119//119
f 45//45 127//127 46//46
f 127//127 58//58 70//70
f 58//58 127//127 16//16
f 128//128 81//81 89//89
f 10//10 129//129 51//51
f 49//49 29//29 108//108
f 24//24 49//49 108//108
f 129//129 50//50 38//38
f 64//64 115//115 22//22
f 129//129 52//52 51//51
f 52//52 53//53 130//130
f 39//39 130//130 53//53
f 67//67 114//114 115//115
f 65//65 66//66 37//37
f 131//131 27//27 104//104
f 52//52 38//38 53//53
f 39//39 65//65 67//67
f 131//131 38//38 7//7
f 104//104 112//112 131//131
f 132//132 113//113 76//76
f 132//132 26//26 99//99
f 26//26 132//132 76//76
# 222 faces, 0 coords texture

# End of File
