####
#
# OBJ File Generated by Meshlab
#
####
# Object 502_C96_M_8.obj
#
# Vertices: 146
# Faces: 249
#
####
vn 2.687283 -1.618634 0.022488
v -68.908100 30.718000 40.734500
vn 2.684335 -1.634933 0.027385
v -68.879200 30.718000 38.076300
vn 5.340454 -3.308543 0.072190
v -67.671645 32.801801 43.296675
vn 2.700327 -1.607984 0.048830
v -68.950200 30.718000 45.199000
vn 2.645646 -1.679220 -0.011013
v -63.852600 38.725000 40.611200
vn 5.236382 -3.471961 -0.062350
v -65.738589 35.792395 48.565066
vn 5.286789 -3.394409 0.077805
v -66.680007 34.364079 43.625981
vn 5.280270 -3.404251 0.024546
v -66.842458 34.165104 45.731616
vn 5.269628 -3.421188 -0.042600
v -66.938286 33.993684 48.062404
vn 5.278186 -3.408079 0.062376
v -65.828830 35.662069 42.510971
vn 5.307241 -3.362855 0.046216
v -67.108552 33.608891 39.769508
vn 2.666812 -1.657513 0.015689
v -67.548100 32.898800 37.996900
vn 2.594805 -1.714513 -0.024218
v -63.804000 38.762800 45.628900
vn 5.238185 -3.469414 -0.037929
v -65.886860 35.611926 46.610716
vn 5.243720 -3.461362 -0.016316
v -64.867265 37.157900 45.370650
vn 2.680158 -1.638797 -0.036645
v -63.995900 38.567300 38.000000
vn 2.687627 -1.632536 -0.033735
v -63.903800 38.718200 38.035000
vn 2.630871 -1.725552 -0.011187
v -63.808500 38.729600 48.025000
vn 1.325955 -0.856711 0.002092
v -63.823000 38.720500 50.000000
vn 2.622053 -1.729981 -0.027823
v -65.504200 36.121700 50.000000
vn 2.660617 -1.669983 -0.027587
v -67.614000 32.924700 50.000000
vn 5.356642 -3.281747 -0.077188
v -68.159537 32.063083 48.786696
vn 2.702774 -1.615169 0.026723
v -68.913400 30.718000 42.955600
vn 2.668685 -1.617901 0.002157
v -68.991500 30.718000 47.309500
vn 5.331208 -3.324487 0.017535
v -67.813013 32.628814 46.672832
vn 1.357780 -0.811794 -0.031430
v -68.935200 30.718000 50.000000
vn 2.696244 -1.608938 -0.056384
v -68.961300 30.718000 48.831300
vn 2.621565 -1.731070 -0.026343
v -66.596800 34.483500 50.000000
vn 1.349460 -0.822033 -0.006869
v -63.904100 38.718000 38.000000
vn 1.345445 -0.820837 0.010580
v -68.878600 30.718000 38.000000
vn 2.651649 -1.710148 -0.004471
v -63.849600 38.738400 43.212300
vn 5.292472 -3.386306 0.026160
v -64.793297 37.256012 41.624571
vn 5.239731 -3.467135 -0.050208
v -64.790118 37.254075 47.077101
vn 5.294727 -3.382355 0.042971
v -65.664123 35.869900 40.312070
vn 2.659920 -1.672507 0.006713
v -65.348900 36.345400 37.999700
vn 2.650646 -1.685440 0.006588
v -66.756300 34.159900 37.997500
vn 5.256669 -3.441331 0.038544
v -65.909648 35.575233 44.584957
vn 5.319683 -3.342650 0.051995
v -67.328776 33.391000 45.250023
vn 5.324518 -3.335624 -0.015324
v -64.674833 37.439364 39.554907
vn 5.351853 -3.290873 0.066283
v -68.116133 31.997443 39.242334
vn 5.344926 -3.301185 0.059835
v -67.926427 32.357626 41.328099
vn 5.379876 -3.244654 0.079726
v -68.351434 31.721270 45.122718
vn 5.291922 -3.386481 0.075202
v -66.786715 34.154117 41.748076
vn 5.284213 -3.399271 0.008940
v -64.443281 37.815247 43.322074
vn 5.281567 -3.403338 0.026239
v -64.871222 37.143967 42.694765
vn 5.290556 -3.389384 0.019717
v -64.349158 37.953787 42.343395
vn 5.255462 -3.443558 -0.003593
v -64.905960 37.097547 44.556781
vn 5.234502 -3.474823 -0.061164
v -66.299020 34.952949 48.316866
vn 5.243243 -3.461585 -0.061628
v -66.367994 34.871686 47.301047
vn 5.235677 -3.472789 -0.076432
v -65.813729 35.700794 47.597880
vn 5.292036 -3.386237 0.077839
v -66.734387 34.259235 42.757741
vn 5.295227 -3.381011 0.087340
v -67.129522 33.656347 43.496143
vn 5.297642 -3.377496 0.076967
v -67.243714 33.454886 42.516709
vn 5.285816 -3.395974 0.076997
v -66.279179 34.952007 42.061671
vn 5.282002 -3.402014 0.071054
v -66.289815 34.959379 43.098514
vn 5.318188 -3.345163 0.059264
v -67.629862 32.776613 39.586161
vn 5.340209 -3.310207 0.041162
v -67.781237 32.530042 38.727068
vn 5.322186 -3.339522 0.018171
v -67.338291 33.237760 38.845893
vn 5.293430 -3.384257 0.068749
v -66.910784 33.939063 40.740324
vn 5.297883 -3.377225 0.072076
v -67.353453 33.260885 41.540622
vn 5.305275 -3.365307 0.082669
v -67.485536 33.033572 40.565272
vn 2.620836 -1.732180 -0.019341
v -63.806250 38.746200 46.826950
vn 5.244708 -3.459652 -0.046747
v -64.285140 38.014467 47.454959
vn 5.241631 -3.464388 -0.041690
v -64.424085 37.820185 46.056435
vn 5.248326 -3.454176 -0.044394
v -64.284431 38.043302 45.139087
vn 5.346516 -3.299670 -0.061427
v -64.396949 37.898188 38.955952
vn 5.274050 -3.415045 0.000942
v -64.308419 37.967715 49.390607
vn 2.641536 -1.700528 -0.007426
v -64.259850 38.040500 50.000000
vn 2.695163 -1.614205 0.006466
v -68.910750 30.718000 41.845050
vn 5.384074 -3.238425 0.041873
v -68.442616 31.496415 41.051778
vn 5.392580 -3.224592 0.020891
v -68.382465 31.601157 42.115125
vn 5.246447 -3.457137 -0.017196
v -66.369294 34.884014 46.228207
vn 5.276761 -3.410348 -0.036123
v -66.862675 34.124761 46.848256
vn 5.257615 -3.439619 0.047359
v -66.371955 34.877088 45.147731
vn 5.241780 -3.464405 0.004529
v -65.915960 35.566860 45.604006
vn 5.245936 -3.458111 0.005843
v -65.469150 36.244008 45.028990
vn 5.238871 -3.468719 -0.015292
v -65.447717 36.277012 45.963982
vn 2.699018 -1.606896 0.052817
v -68.970850 30.718000 46.254250
vn 5.377302 -3.248698 0.082649
v -68.624952 31.294050 46.104075
vn 5.370279 -3.260354 -0.051486
v -68.550767 31.435440 47.963394
vn 5.326226 -3.332674 -0.014585
v -67.992728 32.340240 47.658896
vn 5.236379 -3.472328 -0.040001
v -64.891274 37.112087 46.160454
vn 2.630856 -1.716774 -0.029760
v -67.105400 33.704100 50.000000
vn 5.281922 -3.402427 -0.035100
v -67.301770 33.418490 49.116491
vn 5.246937 -3.456099 -0.051484
v -66.740968 34.277948 49.112929
vn 2.698686 -1.607712 0.044268
v -68.931800 30.718000 44.077300
vn 5.393906 -3.221114 0.092527
v -68.574498 31.318302 44.096915
vn 5.285848 -3.395640 0.087101
v -66.884587 34.068333 44.526226
vn 5.276019 -3.411246 0.073050
v -66.331916 34.912784 44.105121
vn 5.369881 -3.261659 0.065444
v -68.517580 31.329262 38.894391
vn 2.681319 -1.636714 0.035981
v -68.213350 31.808400 37.998450
vn 2.625702 -1.724649 -0.029548
v -63.826800 38.750600 44.420600
vn 5.267209 -3.425329 -0.034927
v -64.299840 38.034811 44.088897
vn 5.268623 -3.423097 0.042925
v -65.383638 36.353853 43.080496
vn 5.254579 -3.444690 0.035067
v -65.428367 36.302991 44.079104
vn 5.268843 -3.422509 0.061950
v -65.873249 35.612933 43.556190
vn 5.312649 -3.353731 -0.049008
v -64.282014 38.053589 39.959951
vn 2.667964 -1.658121 -0.046926
v -63.878200 38.721600 39.323100
vn 5.376820 -3.249735 0.080175
v -68.028730 32.231721 44.151354
vn 5.324345 -3.334552 0.075484
v -67.493398 33.109981 44.261040
vn 5.356890 -3.283058 0.057583
v -67.833437 32.570668 45.087697
vn 2.697769 -1.608955 -0.053939
v -68.976400 30.718000 48.070400
vn 5.257664 -3.439947 -0.015897
v -64.281736 38.003735 48.456254
vn 2.635468 -1.709910 0.010815
v -63.815750 38.725050 49.012500
vn 2.633237 -1.713248 -0.015568
v -64.898575 37.050800 50.000000
vn 2.613602 -1.742981 -0.026584
v -66.050500 35.302600 50.000000
vn 5.229697 -3.482279 -0.048843
v -66.180607 35.119220 49.228015
vn 5.233116 -3.477003 -0.056907
v -65.712080 35.819953 49.356580
vn 5.338363 -3.312141 -0.052041
v -67.811651 32.616167 49.250431
vn 5.304635 -3.367307 -0.020420
v -67.593454 32.962100 48.357126
vn 5.293250 -3.384973 0.033265
v -66.557651 34.472454 39.805383
vn 5.286477 -3.395162 0.065752
v -66.271883 34.936154 40.859814
vn 5.281608 -3.402894 0.050819
v -65.319482 36.445642 42.035022
vn 5.293510 -3.384834 0.007408
v -64.302573 38.022706 41.155022
vn 5.240198 -3.466166 -0.065566
v -65.220118 36.588299 47.938496
vn 5.232598 -3.477771 -0.054770
v -65.347790 36.418637 46.878516
vn 5.344914 -3.301385 0.084168
v -68.020600 32.178646 40.299680
vn 5.344341 -3.303651 0.005658
v -64.962194 36.973607 38.872660
vn 2.682454 -1.635176 -0.015519
v -64.672400 37.456350 37.999850
vn 5.246155 -3.457333 -0.055795
v -64.694781 37.384424 47.959556
vn 5.392789 -3.223542 0.061992
v -68.239649 31.849301 43.146152
vn 2.641283 -1.700921 0.009918
v -66.052600 35.252650 37.998600
vn 5.304229 -3.367650 0.029712
v -65.512254 36.098795 39.192524
vn 5.286868 -3.395168 0.012353
v -66.327829 34.829977 38.807768
vn 5.346772 -3.299659 0.045841
v -67.794632 32.645225 45.805240
vn 2.660419 -1.670837 0.008862
v -67.152200 33.529350 37.997200
vn 5.305628 -3.365693 0.009762
v -66.864709 33.991556 38.884183
vn 5.320820 -3.341625 0.023506
v -65.133214 36.711814 39.865094
vn 5.313633 -3.352936 -0.002978
v -67.301710 33.439697 46.265668
vn 5.375617 -3.252214 0.064774
v -68.487060 31.398401 39.941922
vn 2.686465 -1.628392 0.029207
v -68.893650 30.718000 39.405400
vn 5.347445 -3.297203 0.051733
v -67.814070 32.555384 42.320048
vn 5.302793 -3.370154 -0.029198
v -67.396097 33.280780 47.314260
vn 2.693116 -1.616448 -0.061690
v -68.274600 31.821350 50.000000
vn 5.286399 -3.395095 0.075699
v -65.766297 35.736392 41.436409
vn 5.302039 -3.370908 0.042154
v -65.228150 36.563573 40.957751
vn 2.647195 -1.691724 0.005662
v -63.851100 38.731700 41.911750
vn 5.393629 -3.220717 -0.118604
v -68.626332 31.274428 48.971344
vn 5.285936 -3.396545 0.025745
v -66.028849 35.298569 39.651855
vn 5.282766 -3.401533 0.019182
v -65.852755 35.567172 38.717429
vn 5.254252 -3.445171 -0.035313
v -64.801860 37.208915 48.763196
vn 5.304962 -3.366781 0.005523
v -64.726454 37.359626 40.523757
vn 5.247871 -3.454771 -0.051651
v -65.287315 36.467848 49.047740
vn 5.272387 -3.417570 0.015165
v -64.867244 37.157369 43.701421
vn 5.352919 -3.289821 0.033947
v -68.419745 31.645118 47.022196
vn 5.358835 -3.279937 0.057452
v -68.187746 32.006964 46.062309
# 146 vertices, 0 vertices normals

f 44//44 45//45 46//46
f 48//48 49//49 50//50
f 51//51 52//52 53//53
f 51//51 54//54 55//55
f 56//56 57//57 58//58
f 59//59 60//60 61//61
f 62//62 63//63 64//64
f 67//67 19//19 68//68
f 69//69 70//70 71//71
f 72//72 49//49 73//73
f 72//72 74//74 75//75
f 76//76 77//77 75//75
f 24//24 78//78 79//79
f 83//83 84//84 85//85
f 86//86 23//23 87//87
f 88//88 89//89 74//74
f 29//29 17//17 16//16
f 57//57 40//40 91//91
f 94//94 95//95 96//96
f 95//95 47//47 76//76
f 99//99 100//100 101//101
f 80//80 22//22 138//138
f 103//103 104//104 67//67
f 105//105 20//20 143//143
f 106//106 107//107 108//108
f 85//85 48//48 107//107
f 109//109 110//110 84//84
f 111//111 112//112 59//59
f 45//45 94//94 113//113
f 115//115 50//50 116//116
f 56//56 61//61 117//117
f 87//87 121//121 99//99
f 116//116 77//77 82//82
f 55//55 96//96 89//89
f 103//103 120//120 63//63
f 58//58 126//126 127//127
f 100//100 52//52 88//88
f 118//118 128//128 123//123
f 125//125 38//38 129//129
f 145//145 79//79 146//146
f 70//70 130//130 117//117
f 90//90 130//130 131//131
f 60//60 53//53 132//132
f 132//132 121//121 71//71
f 81//81 133//133 110//110
f 129//129 73//73 133//133
f 54//54 112//112 135//135
f 113//113 135//135 136//136
f 114//114 137//137 46//46
f 31//31 44//44 46//46
f 44//44 144//144 45//45
f 46//46 45//45 32//32
f 6//6 48//48 50//50
f 48//48 9//9 49//49
f 50//50 49//49 14//14
f 43//43 51//51 53//53
f 51//51 7//7 52//52
f 53//53 52//52 3//3
f 7//7 51//51 55//55
f 51//51 43//43 54//54
f 55//55 54//54 10//10
f 11//11 56//56 58//58
f 56//56 40//40 57//57
f 58//58 57//57 12//12
f 11//11 59//59 61//61
f 59//59 43//43 60//60
f 61//61 60//60 41//41
f 13//13 62//62 64//64
f 62//62 18//18 63//63
f 64//64 63//63 33//33
f 33//33 82//82 64//64
f 64//64 65//65 13//13
f 98//98 16//16 17//17
f 141//141 67//67 105//105
f 68//68 105//105 67//67
f 23//23 69//69 71//71
f 69//69 1//1 70//70
f 71//71 70//70 41//41
f 8//8 72//72 73//73
f 72//72 14//14 49//49
f 73//73 49//49 9//9
f 14//14 72//72 75//75
f 72//72 8//8 74//74
f 75//75 74//74 37//37
f 37//37 76//76 75//75
f 76//76 15//15 77//77
f 75//75 77//77 14//14
f 78//78 4//4 79//79
f 42//42 79//79 4//4
f 80//80 24//24 145//145
f 65//65 64//64 15//15
f 28//28 83//83 85//85
f 83//83 21//21 84//84
f 85//85 84//84 9//9
f 4//4 87//87 42//42
f 87//87 4//4 86//86
f 8//8 88//88 74//74
f 88//88 7//7 89//89
f 74//74 89//89 37//37
f 12//12 57//57 91//91
f 91//91 40//40 90//90
f 91//91 90//90 2//2
f 92//92 13//13 65//65
f 31//31 92//92 93//93
f 93//93 65//65 47//47
f 10//10 94//94 96//96
f 94//94 144//144 95//95
f 96//96 95//95 37//37
f 37//37 95//95 76//76
f 95//95 144//144 47//47
f 76//76 47//47 15//15
f 5//5 97//97 98//98
f 98//98 97//97 66//66
f 98//98 66//66 16//16
f 42//42 99//99 101//101
f 99//99 3//3 100//100
f 101//101 100//100 38//38
f 24//24 80//80 102//102
f 102//102 80//80 138//138
f 141//141 103//103 67//67
f 103//103 18//18 104//104
f 67//67 104//104 19//19
f 105//105 143//143 141//141
f 20//20 106//106 108//108
f 106//106 28//28 107//107
f 108//108 107//107 6//6
f 28//28 85//85 107//107
f 85//85 9//9 48//48
f 107//107 48//48 6//6
f 21//21 109//109 84//84
f 109//109 22//22 110//110
f 84//84 110//110 9//9
f 11//11 111//111 59//59
f 111//111 139//139 112//112
f 59//59 112//112 43//43
f 32//32 45//45 113//113
f 45//45 144//144 94//94
f 113//113 94//94 10//10
f 32//32 142//142 114//114
f 142//142 39//39 97//97
f 114//114 142//142 97//97
f 33//33 115//115 116//116
f 115//115 6//6 50//50
f 116//116 50//50 14//14
f 40//40 56//56 117//117
f 56//56 11//11 61//61
f 117//117 61//61 41//41
f 39//39 118//118 66//66
f 118//118 35//35 119//119
f 66//66 119//119 16//16
f 108//108 6//6 143//143
f 33//33 120//120 115//115
f 115//115 141//141 143//143
f 115//115 143//143 6//6
f 42//42 87//87 99//99
f 87//87 23//23 121//121
f 99//99 121//121 3//3
f 36//36 122//122 124//124
f 122//122 35//35 140//140
f 25//25 146//146 125//125
f 125//125 101//101 38//38
f 33//33 116//116 82//82
f 116//116 14//14 77//77
f 82//82 77//77 15//15
f 7//7 55//55 89//89
f 55//55 10//10 96//96
f 89//89 96//96 37//37
f 18//18 103//103 63//63
f 103//103 141//141 120//120
f 63//63 120//120 33//33
f 11//11 58//58 127//127
f 58//58 12//12 126//126
f 127//127 126//126 36//36
f 8//8 38//38 88//88
f 38//38 100//100 88//88
f 100//100 3//3 52//52
f 88//88 52//52 7//7
f 35//35 118//118 123//123
f 118//118 39//39 128//128
f 123//123 128//128 34//34
f 25//25 125//125 129//129
f 129//129 38//38 8//8
f 30//30 91//91 2//2
f 41//41 70//70 117//117
f 70//70 1//1 130//130
f 117//117 130//130 40//40
f 2//2 90//90 131//131
f 90//90 40//40 130//130
f 131//131 130//130 1//1
f 41//41 60//60 132//132
f 60//60 43//43 53//53
f 132//132 53//53 3//3
f 41//41 132//132 71//71
f 132//132 3//3 121//121
f 71//71 121//121 23//23
f 81//81 25//25 133//133
f 110//110 133//133 9//9
f 109//109 21//21 134//134
f 25//25 129//129 133//133
f 129//129 8//8 73//73
f 133//133 73//73 9//9
f 10//10 54//54 135//135
f 54//54 43//43 112//112
f 135//135 112//112 34//34
f 32//32 113//113 136//136
f 113//113 10//10 135//135
f 136//136 135//135 34//34
f 32//32 114//114 46//46
f 114//114 5//5 137//137
f 46//46 137//137 31//31
f 34//34 128//128 136//136
f 128//128 39//39 142//142
f 136//136 142//142 32//32
f 111//111 127//127 124//124
f 124//124 140//140 139//139
f 111//111 11//11 127//127
f 102//102 138//138 27//27
f 27//27 138//138 26//26
f 139//139 34//34 112//112
f 138//138 134//134 26//26
f 124//124 139//139 111//111
f 139//139 123//123 34//34
f 124//124 127//127 36//36
f 143//143 20//20 108//108
f 114//114 97//97 5//5
f 66//66 118//118 119//119
f 140//140 35//35 123//123
f 140//140 123//123 139//139
f 140//140 124//124 122//122
f 120//120 141//141 115//115
f 128//128 142//142 136//136
f 22//22 80//80 81//81
f 66//66 97//97 39//39
f 22//22 81//81 110//110
f 22//22 109//109 134//134
f 138//138 22//22 134//134
f 145//145 24//24 79//79
f 93//93 47//47 144//144
f 92//92 65//65 93//93
f 31//31 93//93 44//44
f 44//44 93//93 144//144
f 80//80 145//145 81//81
f 81//81 145//145 25//25
f 146//146 25//25 145//145
f 15//15 47//47 65//65
f 15//15 64//64 82//82
f 146//146 42//42 101//101
f 101//101 125//125 146//146
f 146//146 79//79 42//42
# 249 faces, 0 coords texture

# End of File
