####
#
# OBJ File Generated by Meshlab
#
####
# Object 50_C42_M_7.obj
#
# Vertices: 140
# Faces: 238
#
####
vn -1.111238 -6.176465 -0.130971
v 7.939393 43.069509 46.200602
vn -0.707147 -6.242918 -0.047335
v 6.235822 43.293029 45.558448
vn -0.973512 -6.205939 -0.037464
v 7.656213 43.121788 44.142381
vn -0.556705 -3.091430 -0.070819
v 10.258400 42.661200 38.000000
vn -0.574295 -3.016403 -0.101938
v 11.519300 42.407900 44.565200
vn -1.177483 -6.170255 0.032473
v 9.681657 42.733012 41.004368
vn -0.375073 -3.113638 0.091776
v 5.057800 43.459200 50.000000
vn -0.487613 -6.262970 0.008311
v 4.466390 43.480232 43.121123
vn -0.576450 -3.080540 -0.024574
v 11.517000 42.415400 44.170500
vn -0.639458 -3.294679 -0.060804
v 11.342000 42.318400 47.196300
vn -1.242443 -6.152992 -0.231177
v 9.940556 42.617621 46.334626
vn -0.283782 -3.143641 0.042005
v 2.825350 43.619200 47.626900
vn -0.180870 -3.125829 0.027257
v 2.778520 43.566200 45.100700
vn -0.487918 -6.261239 -0.005308
v 4.683941 43.470029 44.249755
vn -0.985927 -6.200752 0.021026
v 7.953842 43.084250 40.135960
vn -0.972496 -6.199129 0.006471
v 7.863034 43.121197 42.106713
vn -0.138244 -1.587342 0.011123
v 2.818030 43.598900 38.000000
vn -0.248518 -3.131451 -0.041855
v 4.799730 43.444500 37.999800
vn -0.290173 -3.105232 0.010177
v 2.775250 43.635400 40.025000
vn -0.256453 -1.419156 0.007718
v 11.358000 42.292000 50.000000
vn -0.592245 -3.244803 -0.012696
v 11.339200 42.294600 49.853400
vn -0.261036 -3.123737 -0.129291
v 5.335470 43.413400 37.999800
vn -0.635672 -3.074184 -0.073569
v 9.203930 42.684200 50.000000
vn -0.564302 -3.089041 -0.026517
v 7.239420 43.127700 50.000000
vn -0.267209 -1.538368 -0.026927
v 11.439400 42.451700 38.000000
vn -0.540815 -3.136579 -0.010499
v 11.417700 42.428900 39.896100
vn -0.152704 -3.133343 0.009543
v 2.774640 43.558800 44.607700
vn -1.161727 -6.174618 0.004157
v 9.516371 42.784205 42.967384
vn -0.209569 -3.130398 -0.037500
v 2.770480 43.591100 42.672400
vn -0.537392 -3.079352 0.014641
v 11.479500 42.431900 41.770700
vn -0.446443 -3.109546 0.025868
v 5.973020 43.313700 50.000000
vn -0.487590 -3.101136 -0.021161
v 7.979530 43.082700 37.999500
vn -0.139041 -1.565933 0.024430
v 2.831070 43.645500 50.000000
vn -0.554579 -2.904171 -0.016924
v 11.406300 42.307900 47.608900
vn -1.264843 -6.152331 -0.142510
v 8.477138 42.893343 48.132130
vn -0.557001 -6.258046 -0.014151
v 4.110909 43.505337 41.421721
vn -0.559574 -6.257819 0.005140
v 4.623572 43.446863 46.583904
vn -0.847755 -6.222287 -0.013477
v 6.274493 43.283702 48.333788
vn -0.657409 -6.248517 0.034550
v 5.945575 43.322719 41.334563
vn -0.638937 -6.249202 0.113009
v 4.685741 43.459249 48.847504
vn -1.192746 -6.165482 -0.121305
v 9.323084 42.825560 44.750003
vn -0.599798 -6.254395 0.012995
v 4.473127 43.466762 39.713277
vn -0.680138 -6.245893 0.003139
v 6.167381 43.314388 43.434034
vn -0.665637 -6.247287 -0.064196
v 5.460478 43.383996 45.034883
vn -0.666903 -6.247456 -0.006743
v 5.544820 43.380584 44.080993
vn -0.716767 -6.242030 -0.039872
v 6.193898 43.304741 44.470944
vn -1.081248 -6.188426 -0.107413
v 10.679929 42.572187 38.653046
vn -1.086660 -6.188067 -0.055360
v 10.598429 42.574457 39.485777
vn -1.075787 -6.190272 0.014821
v 10.573140 42.576682 40.450722
vn -1.173673 -6.172010 -0.029494
v 9.726364 42.728152 40.019004
vn -1.175066 -6.168244 -0.154176
v 10.377847 42.627628 44.546419
vn -0.259105 -3.130096 0.070473
v 2.801935 43.592700 46.363800
vn -0.429797 -6.266795 0.030684
v 3.718322 43.506407 45.900264
vn -0.547037 -6.258392 0.091954
v 3.721799 43.532360 47.065777
vn -1.261398 -6.155057 0.022720
v 8.833574 42.907032 40.574974
vn -1.282394 -6.150607 0.053642
v 8.776121 42.930307 41.544340
vn -0.981328 -6.198668 0.073106
v 7.921283 43.101638 41.124335
vn -0.244032 -3.132095 -0.005825
v 3.808880 43.521700 37.999900
vn -0.544627 -6.259180 -0.029289
v 4.627114 43.456465 38.797489
vn -0.545406 -6.258799 0.044167
v 3.687390 43.529492 38.899869
vn -0.380811 -3.118217 -0.035372
v 6.657500 43.248050 37.999650
vn -0.754387 -6.237598 -0.028108
v 7.122168 43.183498 38.750688
vn -0.655560 -6.247489 -0.109434
v 5.560989 43.370265 38.586639
vn -0.979962 -6.201435 -0.006127
v 7.961167 43.084068 39.128554
vn -0.741600 -6.239263 -0.001186
v 7.054559 43.190835 39.671202
vn -0.690492 -3.063931 -0.071762
v 8.221675 42.905950 50.000000
vn -1.245304 -6.156263 -0.057226
v 7.838820 43.014029 49.052652
vn -1.327159 -6.138998 -0.163599
v 8.854571 42.785445 49.075162
vn -0.966266 -6.206693 -0.006745
v 6.756607 43.208180 49.074135
vn -1.075723 -6.188176 -0.110025
v 7.348919 43.099151 48.056586
vn -0.528469 -3.096523 -0.043283
v 11.428550 42.440300 38.948050
vn -0.315772 -6.274840 -0.020138
v 3.716479 43.519733 44.856747
vn -0.332700 -6.273833 -0.038383
v 3.662828 43.517638 43.885238
vn -0.633588 -6.251001 -0.026194
v 5.365048 43.377800 39.498222
vn -0.715562 -6.241979 0.044023
v 6.999414 43.198165 40.711967
vn -0.688009 -6.245169 0.006338
v 6.124636 43.301720 40.169715
vn -0.527416 -3.096923 0.022457
v 11.448600 42.430400 40.833400
vn -1.062420 -6.192429 0.057340
v 10.551377 42.587415 41.408868
vn -1.098270 -6.186197 0.020413
v 10.510103 42.605621 42.423019
vn -1.185649 -6.168949 0.058273
v 9.607781 42.757100 41.975912
vn -0.790580 -6.231852 0.070599
v 5.589805 43.354929 49.135207
vn -0.667061 -6.247588 0.024143
v 5.417844 43.373715 48.263349
vn -1.198920 -6.166011 -0.127603
v 9.886646 42.571929 49.117835
vn -1.278369 -6.150345 -0.129113
v 9.501945 42.675020 48.181219
vn -0.570698 -3.085990 -0.143431
v 11.430650 42.363150 45.880750
vn -1.166640 -6.166215 -0.306731
v 10.645840 42.526457 45.489814
vn -1.279964 -6.143093 -0.308287
v 9.640267 42.721651 45.490087
vn -1.194995 -6.167948 -0.054300
v 8.760948 42.925547 38.702146
vn -1.228178 -6.161932 -0.018558
v 8.854460 42.906589 39.583433
vn -0.567582 -3.089603 -0.039969
v 10.339783 42.476000 50.000000
vn -1.131923 -6.180273 0.020238
v 9.438886 42.802811 43.930872
vn -1.138411 -6.179144 -0.005150
v 10.471675 42.608270 43.499709
vn -0.188952 -3.135493 -0.050816
v 2.772560 43.574950 43.640050
vn -0.396027 -6.270280 -0.056715
v 3.584088 43.537451 42.909220
vn -0.577818 -3.087284 -0.066172
v 9.118965 42.871950 37.999750
vn -0.580880 -6.255802 0.070830
v 3.844024 43.529827 48.331091
vn -0.551158 -6.257508 0.128940
v 3.966942 43.535484 49.412810
vn -0.291979 -3.127743 0.039542
v 2.828210 43.632350 48.813450
vn -0.575892 -3.088126 -0.037770
v 11.372750 42.301250 48.731150
vn -1.228454 -6.160494 -0.115618
v 10.358194 42.510457 47.378818
vn -1.237322 -6.159060 -0.045295
v 8.670103 42.958511 42.524237
vn -0.248128 -3.131333 -0.052845
v 2.772865 43.613250 41.348700
vn -0.553568 -6.258037 -0.051252
v 3.505767 43.563403 40.861142
vn -0.459420 -6.265801 -0.061967
v 3.500850 43.545820 41.926125
vn -0.626362 -6.251816 0.009867
v 5.507839 43.359478 47.235285
vn -0.611938 -6.253067 0.045144
v 4.606786 43.454778 47.688898
vn -0.609935 -6.253104 0.054242
v 3.598897 43.553364 39.859488
vn -0.301375 -3.126704 0.049991
v 2.796640 43.617150 39.012500
vn -0.773392 -6.235042 -0.044580
v 6.905660 43.226160 43.779785
vn -0.716649 -6.241864 0.003755
v 6.967588 43.223478 42.741161
vn -0.987106 -6.200749 -0.092714
v 7.743097 43.124913 43.116331
vn -0.617025 -6.252805 0.008934
v 4.310034 43.484686 40.630863
vn -0.629653 -6.251154 -0.054346
v 5.472428 43.365343 46.127236
vn -0.490539 -6.261487 -0.080800
v 4.626523 43.462742 45.485615
vn -0.936792 -6.207249 -0.142387
v 7.195049 43.172053 46.989992
vn -0.695509 -6.243981 -0.013235
v 6.313878 43.282052 46.648395
vn -0.799915 -6.231915 -0.032153
v 7.040778 43.191865 45.934908
vn -0.683733 -6.245480 0.067310
v 6.979068 43.214162 41.731070
vn -1.153232 -6.175423 -0.054611
v 8.541776 42.960923 43.513343
vn -1.252390 -6.151455 -0.212306
v 8.181633 42.986719 47.184635
vn -1.332049 -6.138452 -0.134358
v 9.182730 42.756090 47.267569
vn -1.368457 -6.127737 -0.223009
v 9.027080 42.814033 46.406703
vn -0.261842 -3.129643 0.079856
v 3.944435 43.552350 50.000000
vn -0.520885 -6.260676 0.014572
v 4.302902 43.491221 42.197581
vn -0.621194 -6.252333 0.023882
v 4.883621 43.428459 41.407523
vn -0.617647 -6.252614 0.041644
v 5.194390 43.403344 42.284429
vn -0.562283 -3.090839 -0.012465
v 11.498250 42.423650 42.970600
vn -0.625692 -6.251943 0.010244
v 5.199632 43.396017 40.489584
vn -0.778723 -6.234377 -0.041577
v 6.923966 43.217052 44.858049
vn -1.236382 -6.155376 -0.146815
v 8.659283 42.943917 45.418312
vn -1.103491 -6.185484 0.012605
v 8.508992 42.971402 44.467684
vn -0.953511 -6.208337 -0.027890
v 7.735370 43.108943 45.171703
vn -0.620742 -6.252279 0.045156
v 5.350831 43.394915 43.248820
vn -0.648157 -6.249430 0.044904
v 6.105471 43.314444 42.439205
vn -1.153698 -6.175080 -0.087691
v 9.725405 42.736699 38.902786
vn -1.164124 -6.169364 -0.244040
v 10.703324 42.469317 46.490466
vn -1.142496 -6.177910 -0.080807
v 10.722339 42.415758 49.236571
vn -0.717234 -6.241944 -0.033683
v 6.293997 43.282119 39.054285
vn -1.197624 -6.167061 -0.096736
v 10.442790 42.481429 48.237199
vn -0.787979 -6.231208 -0.041771
v 6.264613 43.284601 47.689038
# 140 vertices, 0 vertices normals

f 44//44 45//45 46//46
f 48//48 49//49 50//50
f 52//52 53//53 54//54
f 55//55 56//56 57//57
f 58//58 59//59 60//60
f 21//21 20//20 90//90
f 61//61 62//62 138//138
f 64//64 65//65 62//62
f 66//66 67//67 68//68
f 69//69 70//70 67//67
f 47//47 71//71 48//48
f 73//73 14//14 72//72
f 59//59 63//63 74//74
f 65//65 75//75 76//76
f 77//77 78//78 49//49
f 79//79 80//80 78//78
f 83//83 68//68 84//84
f 87//87 51//51 86//86
f 88//88 89//89 64//64
f 50//50 55//55 89//89
f 51//51 91//91 92//92
f 93//93 94//94 73//73
f 32//32 95//95 88//88
f 139//139 34//34 99//99
f 80//80 101//101 56//56
f 102//102 103//103 104//104
f 105//105 82//82 106//106
f 60//60 107//107 108//108
f 109//109 110//110 111//111
f 103//103 107//107 112//112
f 113//113 114//114 44//44
f 72//72 114//114 53//53
f 115//115 116//116 117//117
f 75//75 57//57 118//118
f 111//111 101//101 119//119
f 70//70 115//115 120//120
f 121//121 120//120 122//122
f 124//124 125//125 126//126
f 92//92 79//79 127//127
f 94//94 104//104 124//124
f 84//84 121//121 100//100
f 76//76 128//128 74//74
f 129//129 46//46 109//109
f 87//87 122//122 130//130
f 119//119 91//91 131//131
f 128//128 125//125 112//112
f 116//116 105//105 113//113
f 131//131 130//130 132//132
f 129//129 132//132 117//117
f 133//133 126//126 134//134
f 134//134 118//118 110//110
f 45//45 14//14 133//133
f 2//2 44//44 46//46
f 44//44 14//14 45//45
f 46//46 45//45 43//43
f 47//47 4//4 25//25
f 135//135 48//48 50//50
f 48//48 26//26 49//49
f 50//50 49//49 6//6
f 9//9 5//5 51//51
f 12//12 52//52 54//54
f 52//52 13//13 53//53
f 54//54 53//53 37//37
f 15//15 55//55 57//57
f 55//55 6//6 56//56
f 57//57 56//56 16//16
f 17//17 58//58 60//60
f 58//58 18//18 59//59
f 60//60 59//59 42//42
f 22//22 61//61 63//63
f 61//61 32//32 62//62
f 63//63 61//61 138//138
f 32//32 64//64 62//62
f 64//64 15//15 65//65
f 62//62 65//65 138//138
f 23//23 66//66 68//68
f 66//66 24//24 67//67
f 68//68 67//67 35//35
f 24//24 69//69 67//67
f 69//69 38//38 70//70
f 67//67 70//70 35//35
f 135//135 47//47 48//48
f 47//47 25//25 71//71
f 48//48 71//71 26//26
f 13//13 27//27 72//72
f 27//27 73//73 72//72
f 73//73 8//8 14//14
f 42//42 59//59 74//74
f 63//63 18//18 22//22
f 74//74 63//63 138//138
f 138//138 65//65 76//76
f 65//65 15//15 75//75
f 76//76 75//75 39//39
f 26//26 77//77 49//49
f 77//77 30//30 78//78
f 49//49 78//78 6//6
f 30//30 79//79 78//78
f 79//79 28//28 80//80
f 78//78 80//80 6//6
f 24//24 31//31 69//69
f 81//81 69//69 31//31
f 139//139 83//83 84//84
f 83//83 23//23 68//68
f 84//84 68//68 35//35
f 5//5 85//85 86//86
f 85//85 10//10 136//136
f 87//87 41//41 51//51
f 32//32 88//88 64//64
f 88//88 135//135 89//89
f 64//64 89//89 15//15
f 135//135 50//50 89//89
f 50//50 6//6 55//55
f 89//89 55//55 15//15
f 139//139 137//137 83//83
f 90//90 23//23 83//83
f 9//9 51//51 92//92
f 51//51 41//41 91//91
f 92//92 91//91 28//28
f 27//27 93//93 73//73
f 93//93 29//29 94//94
f 73//73 94//94 8//8
f 95//95 135//135 88//88
f 47//47 135//135 4//4
f 12//12 96//96 98//98
f 96//96 40//40 97//97
f 100//100 34//34 139//139
f 99//99 21//21 137//137
f 34//34 100//100 10//10
f 18//18 63//63 59//59
f 6//6 80//80 56//56
f 80//80 28//28 101//101
f 56//56 101//101 16//16
f 29//29 102//102 104//104
f 102//102 19//19 103//103
f 104//104 103//103 36//36
f 37//37 105//105 106//106
f 106//106 82//82 40//40
f 10//10 100//100 136//136
f 136//136 100//100 11//11
f 17//17 60//60 108//108
f 60//60 42//42 107//107
f 108//108 107//107 19//19
f 3//3 109//109 111//111
f 109//109 43//43 110//110
f 111//111 110//110 16//16
f 36//36 103//103 112//112
f 103//103 19//19 107//107
f 112//112 107//107 42//42
f 2//2 113//113 44//44
f 113//113 37//37 114//114
f 44//44 114//114 14//14
f 13//13 72//72 53//53
f 72//72 14//14 114//114
f 53//53 114//114 37//37
f 1//1 115//115 117//117
f 117//117 116//116 2//2
f 39//39 75//75 118//118
f 75//75 15//15 57//57
f 118//118 57//57 16//16
f 3//3 111//111 119//119
f 111//111 16//16 101//101
f 119//119 101//101 28//28
f 35//35 70//70 120//120
f 70//70 38//38 140//140
f 120//120 115//115 1//1
f 121//121 35//35 120//120
f 122//122 120//120 1//1
f 8//8 124//124 126//126
f 124//124 36//36 125//125
f 126//126 125//125 39//39
f 9//9 92//92 127//127
f 92//92 28//28 79//79
f 127//127 79//79 30//30
f 8//8 94//94 124//124
f 94//94 29//29 104//104
f 124//124 104//104 36//36
f 84//84 35//35 121//121
f 11//11 121//121 122//122
f 138//138 76//76 74//74
f 76//76 39//39 128//128
f 74//74 128//128 42//42
f 3//3 129//129 109//109
f 129//129 2//2 46//46
f 109//109 46//46 43//43
f 41//41 87//87 130//130
f 87//87 11//11 122//122
f 130//130 122//122 1//1
f 7//7 40//40 81//81
f 3//3 119//119 131//131
f 119//119 28//28 91//91
f 131//131 91//91 41//41
f 37//37 106//106 54//54
f 106//106 40//40 96//96
f 42//42 128//128 112//112
f 128//128 39//39 125//125
f 112//112 125//125 36//36
f 2//2 116//116 113//113
f 116//116 140//140 105//105
f 113//113 105//105 37//37
f 3//3 131//131 132//132
f 131//131 41//41 130//130
f 132//132 130//130 1//1
f 2//2 129//129 117//117
f 129//129 3//3 132//132
f 117//117 132//132 1//1
f 43//43 133//133 134//134
f 133//133 8//8 126//126
f 134//134 126//126 39//39
f 43//43 134//134 110//110
f 134//134 39//39 118//118
f 110//110 118//118 16//16
f 43//43 45//45 133//133
f 133//133 14//14 8//8
f 135//135 95//95 4//4
f 81//81 31//31 7//7
f 38//38 69//69 81//81
f 85//85 136//136 86//86
f 38//38 81//81 82//82
f 137//137 90//90 83//83
f 98//98 96//96 97//97
f 137//137 139//139 99//99
f 137//137 21//21 90//90
f 97//97 123//123 33//33
f 115//115 140//140 116//116
f 70//70 140//140 115//115
f 86//86 51//51 5//5
f 11//11 87//87 86//86
f 11//11 86//86 136//136
f 100//100 121//121 11//11
f 97//97 7//7 123//123
f 139//139 84//84 100//100
f 81//81 40//40 82//82
f 97//97 40//40 7//7
f 105//105 140//140 82//82
f 98//98 97//97 33//33
f 140//140 38//38 82//82
f 106//106 96//96 54//54
f 12//12 54//54 96//96
# 238 faces, 0 coords texture

# End of File
