####
#
# OBJ File Generated by Meshlab
#
####
# Object 528_C99_M_3.obj
#
# Vertices: 150
# Faces: 257
#
####
vn 2.557085 -1.666215 0.013829
v -65.716000 38.921700 43.420000
vn 2.656818 -1.721293 0.032388
v -65.771500 38.788600 41.117500
vn 2.610348 -1.724768 -0.011545
v -65.739600 38.875800 45.257500
vn 5.331832 -3.323932 0.016137
v -69.114513 33.698288 45.317053
vn 2.696846 -1.611383 -0.004731
v -70.322600 31.716100 50.000000
vn 1.353777 -0.801938 -0.006252
v -70.913100 30.718000 50.000000
vn 2.703626 -1.619783 -0.008172
v -70.919200 30.718000 46.490600
vn 5.359886 -3.278059 0.017836
v -70.148574 32.025377 44.305538
vn 5.321163 -3.340390 0.067106
v -68.943948 33.926702 41.873110
vn 5.247292 -3.455718 -0.038897
v -66.597676 37.539296 48.263562
vn 5.246015 -3.457682 -0.040900
v -68.135050 35.218917 48.433868
vn 2.620138 -1.733320 -0.008964
v -67.929000 35.516300 50.000000
vn 2.691238 -1.637124 0.025039
v -70.911600 30.718100 42.162300
vn 2.667794 -1.647122 0.015988
v -70.911400 30.718000 40.035800
vn 5.348379 -3.297084 0.044510
v -70.354332 31.619916 40.023434
vn 2.620442 -1.737874 -0.021402
v -65.773900 38.800800 47.254300
vn 5.252333 -3.444529 0.115736
v -67.662619 35.889726 39.591225
vn 5.299429 -3.374979 0.055007
v -66.170167 38.135960 39.553342
vn 5.244611 -3.458790 0.084935
v -66.679261 37.394310 41.409458
vn 5.244224 -3.460219 0.055019
v -66.984738 36.976271 43.097588
vn 2.607806 -1.712948 0.067717
v -67.208900 36.493200 37.973500
vn 5.325841 -3.333042 0.067183
v -69.314505 33.297298 40.192077
vn 5.232974 -3.477317 -0.044977
v -66.317888 37.994183 46.545067
vn 2.677407 -1.670265 0.026326
v -66.240700 38.004000 37.999900
vn 2.676879 -1.681899 0.005203
v -65.795975 38.723625 39.041675
vn 1.347914 -0.832403 0.016190
v -70.887300 30.718000 38.000000
vn 2.624803 -1.726268 -0.000146
v -66.659100 37.441300 50.000000
vn 2.649139 -1.742518 -0.000006
v -65.810600 38.730300 49.336600
vn 1.320170 -0.867080 0.005209
v -65.815900 38.726900 50.000000
vn 2.660703 -1.669056 0.009349
v -69.201200 33.583900 50.000000
vn 2.688529 -1.614147 0.000529
v -70.925700 30.718000 47.614400
vn 2.654113 -1.664964 0.035003
v -69.712000 32.620300 37.983700
vn 2.664359 -1.633517 0.000089
v -70.948700 30.718000 44.402400
vn 2.648904 -1.700697 0.071146
v -68.409400 34.654900 37.986300
vn 5.285216 -3.397155 0.040945
v -68.226578 35.090658 43.819201
vn 1.344446 -0.830836 0.001123
v -65.805800 38.718000 38.000000
vn 5.354955 -3.286197 0.057678
v -69.873373 32.428591 41.995692
vn 5.238425 -3.469005 -0.057336
v -67.301830 36.497711 47.093080
vn 5.243542 -3.461319 0.006006
v -67.266850 36.576114 45.220470
vn 5.328258 -3.328997 0.001080
v -69.065022 33.791979 47.484831
vn 5.373806 -3.255810 -0.004400
v -69.998922 32.255325 46.557710
vn 5.267673 -3.423491 0.065058
v -67.887504 35.586383 41.531074
vn 5.273060 -3.415414 -0.010792
v -68.199702 35.156685 46.269266
vn 5.307636 -3.361250 0.093348
v -68.747679 34.191708 39.865691
vn 2.633773 -1.712149 0.037247
v -65.743750 38.855150 42.268750
vn 5.274112 -3.414038 0.080058
v -66.154711 38.201590 41.355456
vn 2.699340 -1.607187 -0.010488
v -70.919400 30.718000 48.807200
vn 5.394019 -3.222147 -0.011428
v -70.494644 31.431675 49.067817
vn 5.356511 -3.284178 0.000745
v -69.544655 32.997822 45.944067
vn 5.370226 -3.261411 -0.023264
v -70.048490 32.181954 45.518043
vn 5.344900 -3.303055 0.000120
v -69.611907 32.893516 44.858249
vn 5.255409 -3.443021 -0.057325
v -68.161341 35.196976 47.362787
vn 5.235463 -3.473547 -0.052648
v -67.730448 35.856507 46.763063
vn 5.344730 -3.302985 0.042129
v -69.635258 32.850446 43.763756
vn 5.325333 -3.334287 0.024685
v -69.171378 33.601802 44.253871
vn 5.308205 -3.361467 0.040534
v -68.780674 34.214448 43.665003
vn 5.310814 -3.357508 0.028192
v -68.682905 34.376262 44.646984
vn 2.673670 -1.649574 0.000329
v -70.911500 30.718050 41.099050
vn 5.360597 -3.277402 0.014924
v -70.598173 31.225894 41.075169
vn 5.220506 -3.495478 0.077658
v -67.081831 36.776006 40.539332
vn 5.255609 -3.441987 0.074561
v -67.708863 35.837150 40.515906
vn 5.263507 -3.430925 0.032693
v -66.058052 38.397203 43.472846
vn 5.247803 -3.455260 0.000669
v -66.181139 38.208896 44.441878
vn 5.249536 -3.452397 0.037780
v -66.605766 37.557989 43.771595
vn 5.251838 -3.446717 0.092738
v -66.866971 37.035855 38.780369
vn 5.233609 -3.472110 0.171089
v -67.443759 36.180783 38.801257
vn 5.332362 -3.322568 0.066196
v -69.240196 33.437468 41.156647
vn 5.341454 -3.307967 0.066521
v -69.410791 33.174602 41.950288
vn 5.340347 -3.309968 0.056237
v -69.657339 32.762999 41.068332
vn 5.236862 -3.470696 0.087914
v -66.890493 37.097702 42.202349
vn 5.240393 -3.465917 0.055772
v -67.426603 36.296386 42.361836
vn 5.368881 -3.262987 0.079021
v -70.507398 31.408884 43.214653
vn 5.373449 -3.255999 0.050283
v -70.353156 31.639346 42.092025
vn 5.364229 -3.270846 0.067589
v -70.027536 32.198197 43.048571
vn 5.306643 -3.363573 0.064207
v -68.440009 34.719866 41.703278
vn 5.278112 -3.408168 0.043207
v -68.033256 35.374680 42.602134
vn 5.305488 -3.365578 0.055662
v -68.590936 34.498412 42.763155
vn 5.310820 -3.357144 0.034627
v -66.286403 37.941191 38.663065
vn 2.652287 -1.698182 0.031763
v -65.782100 38.757050 40.253200
vn 5.258503 -3.437392 0.088165
v -66.492509 37.655094 40.489230
vn 2.672623 -1.650952 0.032356
v -70.299650 31.669150 37.991850
vn 5.345694 -3.301201 0.063587
v -70.569662 31.251737 38.996642
vn 5.247449 -3.455776 -0.002364
v -67.029676 36.877506 49.355604
vn 2.621671 -1.731021 0.003067
v -67.294050 36.478800 50.000000
vn 5.242411 -3.463035 -0.039039
v -67.036066 36.870383 48.551542
vn 5.250291 -3.451479 -0.009803
v -66.610457 37.517845 49.054749
vn 2.626960 -1.722972 0.007248
v -66.237500 38.084100 50.000000
vn 5.249079 -3.453315 0.001795
v -66.220781 38.107585 49.523146
vn 2.673228 -1.649986 0.031646
v -70.899350 30.718000 39.017900
vn 5.234780 -3.474465 -0.059722
v -67.567025 36.083661 47.871516
vn 2.624968 -1.725944 -0.016268
v -68.565100 34.550100 50.000000
vn 5.255886 -3.442852 -0.020359
v -68.614691 34.484863 48.997573
vn 5.239995 -3.466929 -0.031126
v -68.149889 35.188206 49.304023
vn 5.316695 -3.346716 0.000938
v -69.080102 33.771845 48.554546
vn 5.271245 -3.419219 -0.027020
v -68.618426 34.480733 47.968813
vn 5.384964 -3.237369 -0.001043
v -70.047270 32.174322 49.281028
vn 2.624335 -1.726922 -0.014313
v -65.792250 38.765550 48.295450
vn 2.681247 -1.636635 0.044142
v -70.930150 30.718050 43.282350
vn 5.359125 -3.279025 0.010079
v -70.654693 31.197539 44.334497
vn 5.249335 -3.452637 -0.004606
v -67.748687 35.842855 45.699948
vn 5.239762 -3.467136 -0.047218
v -67.307235 36.501335 46.238575
vn 5.299651 -3.373526 0.105050
v -68.184467 35.073151 39.718658
vn 5.301476 -3.371263 0.083619
v -68.319251 34.887898 40.682650
vn 2.682226 -1.635324 -0.030873
v -70.933950 30.718000 45.446500
vn 5.372752 -3.257026 -0.045611
v -70.474836 31.472094 45.228518
vn 2.629522 -1.716292 0.097773
v -67.809150 35.574050 37.979900
vn 5.280309 -3.401254 0.159954
v -68.017386 35.302788 38.820219
vn 5.296773 -3.377571 0.120619
v -68.598789 34.390885 38.888797
vn 5.287332 -3.394020 0.033490
v -68.205617 35.136297 45.118909
vn 5.314149 -3.352216 0.028921
v -68.646719 34.444534 45.773660
vn 2.615117 -1.740820 -0.017564
v -65.756750 38.838300 46.255900
vn 5.234234 -3.475754 -0.016108
v -66.273679 38.066836 45.532031
vn 5.339222 -3.311923 0.021503
v -69.076095 33.767391 46.404018
vn 5.298354 -3.376773 -0.015729
v -68.628488 34.481887 46.881335
vn 2.645147 -1.694815 0.020039
v -66.724800 37.248600 37.986700
vn 5.358560 -3.280522 0.039202
v -70.128305 32.001046 41.051575
vn 2.626228 -1.724089 -0.006723
v -65.727800 38.898750 44.338750
vn 5.254233 -3.445241 0.040967
v -67.576498 36.077977 43.427996
vn 5.242206 -3.463316 -0.053461
v -66.350332 37.924778 47.598311
vn 5.247052 -3.456095 0.044603
v -67.145397 36.746589 44.151706
vn 5.259155 -3.437701 0.042315
v -67.702911 35.901708 44.564622
vn 5.326441 -3.331949 0.058621
v -69.166896 33.595504 43.030596
vn 2.647195 -1.690815 0.055680
v -69.060700 33.637600 37.985000
vn 5.306383 -3.363127 0.094553
v -69.161153 33.518951 39.113406
vn 5.318050 -3.345035 0.078777
v -69.567671 32.864067 38.688344
vn 5.339457 -3.311403 0.055763
v -69.863317 32.414951 40.102140
vn 5.385147 -3.236854 -0.025665
v -70.496516 31.427960 46.096744
vn 5.347796 -3.297636 0.070051
v -69.599084 32.890388 42.775255
vn 5.238138 -3.469268 -0.067095
v -66.950511 37.017111 47.686042
vn 5.236020 -3.472892 -0.028228
v -66.824907 37.237679 45.852066
vn 5.235507 -3.473803 0.016894
v -66.743190 37.360781 44.830773
vn 5.372889 -3.257210 0.011353
v -69.536889 33.024206 49.104522
vn 5.371681 -3.259340 0.010322
v -69.522457 33.040801 48.030733
vn 5.385894 -3.235791 0.007216
v -70.470033 31.473862 47.101975
vn 5.366462 -3.267912 0.010347
v -69.517448 33.048310 47.003058
vn 2.693405 -1.617150 0.000943
v -69.761900 32.650000 50.000000
vn 5.240329 -3.466104 -0.058096
v -66.863707 37.165102 46.816769
vn 5.315584 -3.349173 0.076918
v -68.839923 34.068798 40.875870
vn 5.376445 -3.251483 -0.000401
v -70.012309 32.233417 47.576161
vn 5.235901 -3.473075 -0.024438
v -67.597778 36.017918 49.107828
vn 5.385820 -3.235916 -0.007621
v -70.503076 31.418777 48.148017
vn 5.249426 -3.452715 -0.023125
v -66.210311 38.126435 48.632863
vn 5.258947 -3.437426 0.075912
v -66.433687 37.801343 42.555527
vn 5.329928 -3.326522 0.063197
v -69.591979 32.840289 39.419432
vn 5.291004 -3.387900 -0.002061
v -69.019499 33.863502 49.378141
vn 5.380561 -3.244678 0.001334
v -70.041504 32.184385 48.522851
vn 5.255290 -3.441847 0.089233
v -66.608670 37.452314 39.596981
vn 5.211159 -3.508463 0.108672
v -67.194267 36.589057 39.740503
vn 5.226016 -3.487414 0.070731
v -67.223708 36.578435 41.392975
vn 5.342480 -3.306408 0.062885
v -70.009013 32.155287 38.790033
# 150 vertices, 0 vertices normals

f 45//45 143//143 46//46
f 49//49 50//50 51//51
f 90//90 52//52 53//53
f 51//51 54//54 55//55
f 56//56 57//57 55//55
f 13//13 58//58 59//59
f 148//148 147//147 60//60
f 62//62 63//63 64//64
f 65//65 148//148 66//66
f 67//67 68//68 69//69
f 72//72 73//73 74//74
f 75//75 76//76 77//77
f 81//81 150//150 82//82
f 140//140 83//83 84//84
f 85//85 86//86 83//83
f 27//27 88//88 87//87
f 89//89 26//26 82//82
f 91//91 92//92 93//93
f 94//94 95//95 92//92
f 88//88 86//86 142//142
f 98//98 72//72 99//99
f 100//100 101//101 53//53
f 102//102 61//61 103//103
f 104//104 99//99 105//105
f 106//106 66//66 107//107
f 102//102 108//108 107//107
f 57//57 109//109 110//110
f 113//113 110//110 114//114
f 65//65 115//115 78//78
f 59//59 116//116 73//73
f 76//76 71//71 118//118
f 16//16 119//119 23//23
f 118//118 120//120 121//121
f 122//122 77//77 56//56
f 123//123 108//108 124//124
f 150//150 125//125 144//144
f 127//127 105//105 50//50
f 122//122 128//128 68//68
f 69//69 116//116 126//126
f 128//128 54//54 74//74
f 90//90 129//129 85//85
f 130//130 131//131 112//112
f 132//132 133//133 94//94
f 41//41 134//134 127//127
f 113//113 135//135 49//49
f 139//139 135//135 133//133
f 132//132 136//136 96//96
f 130//130 137//137 101//101
f 129//129 137//137 119//119
f 121//121 100//100 109//109
f 120//120 64//64 131//131
f 124//124 22//22 144//144
f 103//103 75//75 138//138
f 52//52 95//95 114//114
f 138//138 67//67 22//22
f 2//2 45//45 46//46
f 45//45 1//1 62//62
f 46//46 143//143 19//19
f 5//5 6//6 48//48
f 47//47 48//48 6//6
f 4//4 49//49 51//51
f 49//49 41//41 50//50
f 51//51 50//50 8//8
f 38//38 90//90 53//53
f 90//90 11//11 52//52
f 53//53 52//52 43//43
f 4//4 51//51 55//55
f 51//51 8//8 54//54
f 55//55 54//54 122//122
f 122//122 56//56 55//55
f 56//56 35//35 57//57
f 55//55 57//57 4//4
f 58//58 14//14 59//59
f 15//15 59//59 14//14
f 19//19 149//149 60//60
f 149//149 42//42 61//61
f 20//20 143//143 64//64
f 21//21 65//65 66//66
f 66//66 148//148 17//17
f 22//22 67//67 69//69
f 67//67 9//9 68//68
f 69//69 68//68 37//37
f 42//42 149//149 71//71
f 71//71 70//70 20//20
f 8//8 72//72 74//74
f 72//72 13//13 73//73
f 74//74 73//73 37//37
f 9//9 75//75 77//77
f 75//75 42//42 76//76
f 77//77 76//76 35//35
f 18//18 78//78 25//25
f 25//25 79//79 18//18
f 79//79 2//2 46//46
f 26//26 81//81 82//82
f 81//81 32//32 150//150
f 84//84 83//83 27//27
f 85//85 10//10 86//86
f 83//83 86//86 27//27
f 28//28 29//29 88//88
f 87//87 88//88 29//29
f 14//14 82//82 15//15
f 82//82 14//14 89//89
f 12//12 91//91 93//93
f 91//91 30//30 145//145
f 93//93 92//92 11//11
f 94//94 40//40 95//95
f 92//92 95//95 11//11
f 5//5 48//48 96//96
f 16//16 97//97 119//119
f 97//97 28//28 142//142
f 119//119 97//97 142//142
f 28//28 88//88 142//142
f 88//88 27//27 86//86
f 142//142 86//86 10//10
f 33//33 98//98 99//99
f 98//98 13//13 72//72
f 99//99 72//72 8//8
f 43//43 100//100 53//53
f 100//100 39//39 101//101
f 53//53 101//101 38//38
f 44//44 102//102 103//103
f 102//102 17//17 61//61
f 103//103 61//61 42//42
f 90//90 140//140 11//11
f 7//7 104//104 127//127
f 104//104 33//33 99//99
f 105//105 99//99 8//8
f 78//78 36//36 25//25
f 36//36 78//78 24//24
f 34//34 106//106 107//107
f 106//106 21//21 66//66
f 107//107 66//66 17//17
f 17//17 102//102 107//107
f 102//102 44//44 108//108
f 107//107 108//108 34//34
f 4//4 57//57 110//110
f 57//57 35//35 109//109
f 110//110 109//109 43//43
f 3//3 111//111 112//112
f 111//111 16//16 23//23
f 112//112 111//111 23//23
f 3//3 112//112 63//63
f 40//40 113//113 114//114
f 113//113 4//4 110//110
f 114//114 110//110 43//43
f 65//65 21//21 115//115
f 78//78 115//115 24//24
f 13//13 59//59 73//73
f 59//59 15//15 116//116
f 73//73 116//116 37//37
f 117//117 3//3 63//63
f 35//35 76//76 118//118
f 76//76 42//42 71//71
f 118//118 71//71 20//20
f 35//35 118//118 121//121
f 118//118 20//20 120//120
f 121//121 120//120 39//39
f 122//122 9//9 77//77
f 56//56 77//77 35//35
f 18//18 80//80 147//147
f 80//80 79//79 46//46
f 32//32 123//123 125//125
f 123//123 34//34 108//108
f 124//124 108//108 44//44
f 15//15 150//150 126//126
f 41//41 127//127 50//50
f 50//50 105//105 8//8
f 9//9 122//122 68//68
f 68//68 128//128 37//37
f 22//22 69//69 126//126
f 69//69 37//37 116//116
f 126//126 116//116 15//15
f 37//37 128//128 74//74
f 128//128 122//122 54//54
f 74//74 54//54 8//8
f 90//90 38//38 129//129
f 85//85 129//129 10//10
f 23//23 130//130 112//112
f 130//130 39//39 131//131
f 112//112 131//131 63//63
f 30//30 132//132 145//145
f 132//132 146//146 133//133
f 94//94 133//133 40//40
f 31//31 7//7 134//134
f 127//127 134//134 7//7
f 41//41 139//139 134//134
f 134//134 141//141 31//31
f 4//4 113//113 49//49
f 113//113 40//40 135//135
f 49//49 135//135 41//41
f 146//146 139//139 133//133
f 139//139 41//41 135//135
f 133//133 135//135 40//40
f 146//146 132//132 96//96
f 132//132 30//30 136//136
f 96//96 136//136 5//5
f 39//39 130//130 101//101
f 130//130 23//23 137//137
f 101//101 137//137 38//38
f 10//10 129//129 119//119
f 129//129 38//38 137//137
f 119//119 137//137 23//23
f 35//35 121//121 109//109
f 121//121 39//39 100//100
f 109//109 100//100 43//43
f 39//39 120//120 131//131
f 120//120 20//20 64//64
f 131//131 64//64 63//63
f 124//124 44//44 22//22
f 44//44 103//103 138//138
f 103//103 42//42 75//75
f 138//138 75//75 9//9
f 43//43 52//52 114//114
f 52//52 11//11 95//95
f 114//114 95//95 40//40
f 44//44 138//138 22//22
f 138//138 9//9 67//67
f 19//19 143//143 70//70
f 31//31 141//141 47//47
f 12//12 93//93 140//140
f 139//139 141//141 134//134
f 45//45 62//62 143//143
f 140//140 85//85 83//83
f 96//96 48//48 146//146
f 140//140 93//93 11//11
f 140//140 90//90 85//85
f 139//139 146//146 141//141
f 143//143 62//62 64//64
f 119//119 142//142 10//10
f 125//125 123//123 124//124
f 70//70 143//143 20//20
f 141//141 48//48 47//47
f 12//12 140//140 84//84
f 150//150 144//144 126//126
f 124//124 144//144 125//125
f 91//91 145//145 92//92
f 92//92 145//145 94//94
f 146//146 48//48 141//141
f 127//127 104//104 105//105
f 126//126 144//144 22//22
f 145//145 132//132 94//94
f 18//18 79//79 80//80
f 19//19 80//80 46//46
f 65//65 147//147 148//148
f 18//18 147//147 78//78
f 147//147 65//65 78//78
f 17//17 148//148 61//61
f 62//62 1//1 117//117
f 62//62 117//117 63//63
f 149//149 70//70 71//71
f 60//60 149//149 61//61
f 149//149 19//19 70//70
f 82//82 150//150 15//15
f 60//60 61//61 148//148
f 150//150 32//32 125//125
f 80//80 19//19 60//60
f 80//80 60//60 147//147
# 257 faces, 0 coords texture

# End of File
