####
#
# OBJ File Generated by Meshlab
#
####
# Object 535_C99_M_10.obj
#
# Vertices: 165
# Faces: 284
#
####
vn -1.331329 -0.882310 -0.049272
v 67.450900 38.897300 -50.000000
vn -2.644617 -1.842369 -0.021926
v 67.386700 38.906100 -48.422900
vn -2.603118 -1.718583 -0.058019
v 68.075200 37.945800 -37.964000
vn -2.808604 -1.889635 -0.031693
v 67.511200 38.808000 -38.753000
vn -1.348281 -0.892925 -0.011977
v 67.511200 38.797900 -38.000000
vn -5.347064 -3.295399 -0.163724
v 72.008086 31.825514 -38.913596
vn -2.653235 -1.657648 -0.089258
v 72.736600 30.718200 -40.018900
vn -5.309476 -3.357338 -0.124920
v 71.746059 32.331743 -40.916718
vn -2.650067 -1.787045 -0.002185
v 67.290400 39.137800 -42.918200
vn -2.464578 -1.676823 0.031803
v 67.237800 39.234700 -45.269000
vn -2.649174 -1.665981 -0.040602
v 72.791100 30.720400 -42.110100
vn -2.370738 -1.632997 -0.008285
v 67.281400 39.156700 -40.356200
vn -5.188473 -3.543465 -0.041786
v 67.720939 38.511585 -39.836417
vn -2.684444 -1.636469 -0.103591
v 72.678700 30.718100 -38.778400
vn -5.195423 -3.533223 0.039761
v 67.750732 38.459403 -42.244031
vn -5.262396 -3.432273 -0.067833
v 70.451559 34.413050 -43.664749
vn -5.189116 -3.542359 0.030438
v 67.968453 38.158748 -41.317165
vn -5.253695 -3.441189 -0.125598
v 68.723667 37.029062 -39.445080
vn -5.264266 -3.427740 -0.013370
v 69.230286 36.286620 -41.222274
vn -2.575353 -1.803768 0.051784
v 67.319600 39.012100 -47.286500
vn -5.144652 -3.605953 0.077479
v 68.333182 37.581592 -46.715992
vn -5.192092 -3.537851 -0.015058
v 68.427318 37.484486 -44.738577
vn -5.323187 -3.337782 0.006370
v 71.249565 33.196588 -46.829064
vn -5.305706 -3.365435 -0.020152
v 71.238309 33.210405 -44.846321
vn -2.626964 -1.689564 -0.089764
v 69.293500 36.041900 -37.934100
vn -5.291021 -3.386338 -0.125000
v 69.805257 35.327099 -39.610530
vn -2.756602 -1.673722 -0.092864
v 72.415100 31.104400 -37.920000
vn -1.302317 -0.786948 -0.045774
v 72.646600 30.719500 -37.889200
vn -2.657574 -1.716526 -0.062871
v 70.158200 34.724400 -37.939300
vn -2.675932 -1.644186 0.017296
v 72.777600 30.718000 -47.176400
vn -2.637202 -1.640523 -0.066277
v 71.492100 32.621400 -37.891400
vn -2.679739 -1.638993 0.019647
v 72.775200 30.718000 -47.472000
vn -2.602287 -1.759856 0.013776
v 69.437000 35.961400 -50.000000
vn -5.316265 -3.348367 0.004926
v 71.176774 33.310937 -48.876264
vn -2.684704 -1.631516 0.012929
v 72.245100 31.565600 -50.000000
vn -2.652272 -1.682989 -0.004194
v 71.098500 33.439500 -50.000000
vn -1.351069 -0.809908 0.011758
v 72.753200 30.718000 -50.000000
vn -5.235701 -3.472544 -0.082871
v 69.456348 35.942386 -44.336136
vn -2.670370 -1.645921 0.010205
v 72.793600 30.718000 -44.713400
vn -5.278572 -3.406701 -0.038505
v 70.339736 34.637462 -45.670036
vn -5.301634 -3.369885 -0.115779
v 70.934678 33.567971 -39.541448
vn -5.201894 -3.520980 0.003799
v 69.365501 36.130702 -46.266258
vn -2.606748 -1.753253 -0.002361
v 68.269900 37.661500 -50.000000
vn -5.147605 -3.602731 0.014680
v 68.358609 37.524231 -48.610291
vn -2.624999 -1.725940 0.011837
v 70.185000 34.831600 -50.000000
vn -5.282117 -3.401619 -0.073190
v 70.461794 34.360361 -41.502893
vn -5.219959 -3.496776 0.004360
v 68.683574 37.073671 -42.848165
vn -5.272763 -3.416380 0.042178
v 70.279461 34.718268 -47.628835
vn -5.351869 -3.291717 0.021618
v 72.253877 31.567137 -47.596649
vn -5.178587 -3.556456 0.070281
v 69.274989 36.228032 -48.078808
vn -5.247539 -3.455188 -0.046784
v 69.583318 35.723324 -43.183351
vn -5.294684 -3.381824 -0.066786
v 71.469499 32.831850 -42.835791
vn -2.606750 -1.751135 -0.089152
v 67.418800 38.901700 -49.211450
vn -2.606304 -1.752738 -0.066957
v 67.860400 38.279400 -50.000000
vn -5.170832 -3.567093 -0.087625
v 67.860515 38.236277 -48.996502
vn -5.320279 -3.339494 -0.144199
v 71.850835 32.125075 -39.961947
vn -5.318001 -3.343295 -0.140213
v 72.266851 31.487124 -40.534067
vn -5.203012 -3.521961 -0.045884
v 67.576402 38.720643 -43.925106
vn -5.193822 -3.535503 -0.052448
v 68.033336 38.050891 -43.893786
vn -2.590495 -1.777276 -0.015245
v 67.396300 38.982350 -39.554600
vn -5.353911 -3.281508 -0.211906
v 72.402077 31.189028 -39.056716
vn -5.200945 -3.525005 -0.035547
v 68.265273 37.720174 -40.275492
vn -5.213459 -3.506454 0.017028
v 68.634452 37.177154 -41.174436
vn -5.261658 -3.432373 -0.066083
v 68.957450 36.688420 -40.348525
vn -5.337986 -3.314170 0.007797
v 71.689376 32.490597 -46.306968
vn -5.325611 -3.333983 0.014677
v 71.639804 32.567528 -45.375262
vn -5.323419 -3.337574 -0.007372
v 71.230451 33.224741 -45.833282
vn -2.643833 -1.693460 -0.109295
v 68.684350 36.993850 -37.949050
vn -5.211385 -3.508619 -0.090887
v 68.145425 37.874423 -39.118918
vn -5.298611 -3.370600 -0.203966
v 69.015902 36.525950 -38.719693
vn -5.307682 -3.359094 -0.146557
v 69.269209 36.172437 -39.556930
vn -5.283268 -3.396400 -0.163719
v 69.523296 35.725080 -38.759911
vn -2.626826 -1.721884 -0.067103
v 69.725850 35.383150 -37.936700
vn -5.270929 -3.417666 -0.120631
v 70.021245 34.964134 -38.772394
vn -5.164832 -3.577842 0.023750
v 68.978224 36.628059 -49.262195
vn -5.179100 -3.557068 -0.038142
v 68.352259 37.538297 -49.441867
vn -2.589231 -1.779173 -0.005497
v 68.853450 36.811450 -50.000000
vn -2.626579 -1.723568 -0.001362
v 70.641750 34.135550 -50.000000
vn -2.591131 -1.776352 0.012892
v 67.285900 39.147250 -41.637200
vn -5.336415 -3.316395 -0.026176
v 72.320889 31.486194 -43.302999
vn -5.344634 -3.303420 0.008755
v 72.388630 31.377216 -44.300276
vn -2.675238 -1.647021 -0.004526
v 72.792350 30.719200 -43.411750
vn -5.310044 -3.358773 0.008702
v 70.787162 33.929493 -46.267082
vn -5.305135 -3.366058 -0.043253
v 70.799744 33.907319 -45.272570
vn -5.294213 -3.381341 -0.125514
v 70.572825 34.105175 -38.753105
vn -5.284604 -3.397130 -0.104069
v 70.358151 34.467491 -39.615429
vn -5.311996 -3.353211 -0.129270
v 71.166243 33.167588 -38.683329
vn -2.651556 -1.683435 -0.070013
v 70.825150 33.672900 -37.915350
vn -5.245745 -3.457162 -0.092745
v 69.890217 35.302745 -45.034343
vn -5.228953 -3.482381 -0.093310
v 69.393544 36.063210 -45.316290
vn -5.255388 -3.443030 -0.034185
v 69.852965 35.384646 -45.997254
vn -5.303577 -3.367193 -0.111567
v 69.531222 35.786146 -40.429039
vn -5.295906 -3.380003 -0.041719
v 69.805450 35.386048 -41.329297
vn -5.292357 -3.384912 -0.106782
v 70.113141 34.873766 -40.501570
vn -5.263476 -3.430687 0.046315
v 69.449924 35.933371 -42.101614
vn -5.270077 -3.420585 -0.015173
v 69.979321 35.105293 -42.278765
vn -2.673913 -1.649095 0.016708
v 72.785600 30.718000 -45.944900
vn -5.347819 -3.298255 0.027342
v 72.236082 31.602939 -46.610514
vn -5.290479 -3.388287 -0.092697
v 70.714364 33.937628 -40.458779
vn -5.204104 -3.520133 0.061910
v 68.359136 37.571643 -42.034186
vn -5.201124 -3.524732 -0.001534
v 68.164993 37.841478 -42.937258
vn -2.602585 -1.759477 -0.019444
v 67.264100 39.186250 -44.093600
vn -2.658441 -1.672515 -0.070643
v 72.763850 30.719300 -41.064500
vn -5.313636 -3.350918 -0.121080
v 72.249004 31.560852 -41.620400
vn -5.351552 -3.292270 0.015059
v 71.745005 32.390165 -48.376046
vn -5.346488 -3.300483 0.015239
v 71.729523 32.418392 -47.285022
vn -5.341171 -3.306334 -0.128959
v 71.641079 32.406426 -38.553937
vn -2.682208 -1.633611 -0.081677
v 71.953600 31.862900 -37.905700
vn -5.166615 -3.574370 0.066952
v 68.354663 37.571427 -45.721593
vn -5.128579 -3.629274 0.066669
v 68.848939 36.857884 -46.498348
vn -5.170953 -3.567522 -0.013253
v 68.890327 36.817524 -45.534960
vn -5.269346 -3.420929 -0.088324
v 70.384665 34.542272 -44.672620
vn -5.248248 -3.453521 -0.086006
v 69.964232 35.162915 -44.037824
vn -5.283710 -3.399527 -0.058185
v 70.850800 33.803748 -44.251909
vn -5.216798 -3.501067 -0.074544
v 68.943899 36.711919 -44.572741
vn -5.330821 -3.325449 0.027966
v 72.020827 31.967730 -44.907101
vn -5.312060 -3.355458 0.003305
v 71.637408 32.580580 -44.504200
vn -5.318735 -3.344762 -0.020979
v 71.902323 32.158624 -43.756597
vn -5.287896 -3.393369 -0.031176
v 71.331667 33.056324 -43.854322
vn -2.585712 -1.782182 0.086653
v 67.278700 39.123400 -46.277750
vn -5.148419 -3.599628 0.104859
v 67.820711 38.305917 -46.992464
vn -5.191805 -3.536947 0.101707
v 67.876622 38.278401 -45.752490
vn -5.178648 -3.557911 -0.009189
v 67.688209 38.568337 -40.725139
vn -5.293879 -3.382540 -0.106168
v 71.135443 33.296624 -41.202896
vn -5.308285 -3.359602 -0.111293
v 71.315927 32.989810 -40.262129
vn -5.231876 -3.478353 0.010672
v 69.140048 36.385116 -42.769533
vn -5.228458 -3.483819 -0.064999
v 69.046944 36.543363 -43.609470
vn -5.285345 -3.397293 0.023125
v 70.310722 34.677299 -46.638835
vn -5.301274 -3.372611 0.015765
v 70.771840 33.945892 -47.258525
vn -5.248100 -3.454185 -0.066146
v 70.075517 34.974450 -43.163611
vn -5.209246 -3.512641 -0.056438
v 68.539839 37.302494 -43.768844
vn -5.136720 -3.618212 0.026685
v 67.847376 38.254842 -48.038209
vn -2.619484 -1.734266 0.015084
v 69.811000 35.396500 -50.000000
vn -5.204276 -3.519278 0.053416
v 69.449791 35.956537 -48.865084
vn -5.265064 -3.428846 0.011577
v 70.678377 34.079189 -49.310542
vn -5.355472 -3.285912 0.008504
v 71.550213 32.702054 -49.344031
vn -5.356943 -3.283480 0.017787
v 72.011777 31.950206 -49.257761
vn -5.256654 -3.441237 -0.059031
v 70.483565 34.346637 -42.641856
vn -5.315031 -3.349881 -0.079218
v 72.023625 31.947761 -42.574087
vn -5.228520 -3.483544 0.072987
v 68.922340 36.732971 -42.013333
vn -5.242239 -3.463164 0.061353
v 69.768503 35.485921 -48.009449
vn -5.257033 -3.440881 0.044726
v 70.225986 34.780384 -48.737581
vn -5.285564 -3.397068 0.023718
v 70.734204 34.002749 -48.274083
vn -5.143114 -3.608776 0.057013
v 68.837214 36.846617 -48.312012
vn -5.136554 -3.618351 0.041955
v 68.336936 37.564343 -47.687444
vn -5.254957 -3.443956 0.045575
v 69.822523 35.425143 -46.951549
vn -5.185518 -3.545815 0.067879
v 69.334337 36.160073 -47.210862
vn -2.678990 -1.640914 0.003927
v 71.671800 32.502550 -50.000000
vn -5.324982 -3.332602 -0.128951
v 71.487414 32.678852 -39.342235
vn -5.300778 -3.371400 -0.115421
v 71.611010 32.578030 -41.857288
vn -5.131132 -3.625832 0.055163
v 68.829958 36.867617 -47.434550
vn -5.271166 -3.419162 -0.048743
v 70.935359 33.661539 -43.209344
vn -5.280387 -3.403812 -0.091207
v 71.009611 33.529416 -42.176763
vn -2.688566 -1.625071 0.018569
v 72.764200 30.718000 -48.736000
vn -5.375129 -3.253367 0.032406
v 72.445584 31.241392 -49.295025
vn -5.327584 -3.325988 -0.176490
v 72.247027 31.483175 -39.687250
vn -5.205031 -3.519128 -0.018193
v 67.729414 38.486152 -43.154681
vn -5.325309 -3.333888 -0.052986
v 72.459702 31.254087 -42.554259
vn -5.323299 -3.337408 0.004713
v 71.242022 33.208171 -47.872756
vn -5.262993 -3.426554 -0.185683
v 68.543427 37.257544 -38.625706
vn -5.346549 -3.300262 0.033177
v 72.405003 31.340920 -45.359753
vn -5.361341 -3.276198 0.026964
v 72.327629 31.441156 -48.445219
vn -5.243828 -3.461041 0.041068
v 69.810674 35.404359 -49.153127
vn -5.198630 -3.528527 -0.000093
v 67.846870 38.336082 -44.790296
vn -5.341823 -3.307929 0.028265
v 72.207438 31.656305 -45.812993
# 165 vertices, 0 vertices normals

f 53//53 54//54 55//55
f 4//4 3//3 5//5
f 58//58 164//164 59//59
f 60//60 12//12 13//13
f 62//62 63//63 64//64
f 65//65 66//66 67//67
f 71//71 72//72 70//70
f 27//27 14//14 28//28
f 73//73 72//72 74//74
f 75//75 76//76 77//77
f 30//30 49//49 32//32
f 78//78 36//36 135//135
f 12//12 79//79 123//123
f 80//80 81//81 82//82
f 83//83 67//67 84//84
f 85//85 74//74 86//86
f 85//85 87//87 88//88
f 89//89 90//90 91//91
f 92//92 93//93 94//94
f 95//95 96//96 93//93
f 99//99 86//86 94//94
f 100//100 15//15 101//101
f 102//102 10//10 164//164
f 103//103 57//57 104//104
f 159//159 105//105 106//106
f 107//107 6//6 108//108
f 109//109 110//110 111//111
f 89//89 112//112 113//113
f 84//84 114//114 112//112
f 115//115 111//111 90//90
f 66//66 116//116 117//117
f 117//117 118//118 119//119
f 120//120 121//121 122//122
f 99//99 124//124 125//125
f 51//51 126//126 127//127
f 128//128 129//129 83//83
f 71//71 64//64 92//92
f 51//51 113//113 130//130
f 127//127 131//131 115//115
f 76//76 44//44 55//55
f 33//33 133//133 163//163
f 105//105 136//136 137//137
f 138//138 96//96 130//130
f 139//139 118//118 80//80
f 140//140 126//126 95//95
f 141//141 134//134 163//163
f 142//142 135//135 143//143
f 140//140 63//63 100//100
f 131//131 101//101 59//59
f 134//134 50//50 144//144
f 145//145 121//121 132//132
f 146//146 147//147 141//141
f 146//146 128//128 91//91
f 143//143 159//159 129//129
f 148//148 35//35 137//137
f 161//161 81//81 116//116
f 107//107 87//87 149//149
f 149//149 125//125 56//56
f 104//104 150//150 139//139
f 151//151 145//145 144//144
f 152//152 114//114 119//119
f 147//147 110//110 151//151
f 152//152 153//153 138//138
f 150//150 124//124 153//153
f 65//65 106//106 98//98
f 35//35 155//155 137//137
f 154//154 32//32 162//162
f 2//2 53//53 55//55
f 53//53 1//1 54//54
f 76//76 54//54 43//43
f 7//7 61//61 156//156
f 61//61 6//6 156//156
f 57//57 56//56 8//8
f 4//4 60//60 13//13
f 14//14 61//61 7//7
f 18//18 62//62 64//64
f 62//62 17//17 63//63
f 64//64 63//63 19//19
f 23//23 65//65 67//67
f 65//65 165//165 66//66
f 67//67 66//66 24//24
f 25//25 68//68 70//70
f 68//68 3//3 160//160
f 70//70 68//68 160//160
f 18//18 71//71 70//70
f 71//71 26//26 72//72
f 70//70 72//72 25//25
f 29//29 73//73 74//74
f 73//73 25//25 72//72
f 74//74 72//72 26//26
f 13//13 62//62 69//69
f 69//69 62//62 18//18
f 33//33 134//134 75//75
f 75//75 44//44 76//76
f 77//77 76//76 43//43
f 45//45 135//135 142//142
f 135//135 45//45 78//78
f 79//79 9//9 15//15
f 11//11 158//158 82//82
f 80//80 118//118 81//81
f 82//82 81//81 39//39
f 40//40 83//83 84//84
f 83//83 23//23 67//67
f 84//84 67//67 24//24
f 41//41 85//85 86//86
f 85//85 29//29 74//74
f 86//86 74//74 26//26
f 29//29 85//85 88//88
f 85//85 41//41 87//87
f 88//88 87//87 31//31
f 40//40 89//89 91//91
f 89//89 38//38 90//90
f 91//91 90//90 42//42
f 26//26 92//92 94//94
f 92//92 19//19 93//93
f 94//94 93//93 46//46
f 19//19 95//95 93//93
f 95//95 51//51 96//96
f 93//93 96//96 46//46
f 30//30 97//97 98//98
f 97//97 39//39 161//161
f 46//46 99//99 94//94
f 99//99 41//41 86//86
f 94//94 86//86 26//26
f 47//47 100//100 101//101
f 100//100 17//17 15//15
f 9//9 58//58 157//157
f 58//58 9//9 102//102
f 11//11 103//103 104//104
f 103//103 7//7 57//57
f 104//104 57//57 8//8
f 23//23 159//159 106//106
f 106//106 105//105 49//49
f 31//31 107//107 108//108
f 108//108 6//6 27//27
f 27//27 6//6 61//61
f 22//22 109//109 111//111
f 109//109 21//21 110//110
f 111//111 110//110 42//42
f 38//38 89//89 113//113
f 89//89 40//40 112//112
f 113//113 112//112 16//16
f 40//40 84//84 112//112
f 84//84 24//24 114//114
f 112//112 114//114 16//16
f 38//38 115//115 90//90
f 115//115 22//22 111//111
f 90//90 111//111 42//42
f 24//24 66//66 117//117
f 66//66 165//165 116//116
f 117//117 116//116 118//118
f 24//24 117//117 119//119
f 119//119 118//118 52//52
f 10//10 120//120 122//122
f 120//120 20//20 121//121
f 122//122 121//121 21//21
f 62//62 13//13 123//123
f 62//62 123//123 17//17
f 41//41 99//99 125//125
f 99//99 46//46 124//124
f 125//125 124//124 8//8
f 38//38 51//51 127//127
f 127//127 126//126 47//47
f 40//40 128//128 83//83
f 128//128 48//48 129//129
f 83//83 129//129 23//23
f 26//26 71//71 92//92
f 71//71 18//18 64//64
f 92//92 64//64 19//19
f 51//51 38//38 113//113
f 130//130 113//113 16//16
f 38//38 127//127 115//115
f 127//127 47//47 131//131
f 115//115 131//131 22//22
f 54//54 76//76 55//55
f 55//55 44//44 132//132
f 55//55 132//132 2//2
f 20//20 2//2 132//132
f 133//133 45//45 163//163
f 142//142 163//163 45//45
f 142//142 141//141 163//163
f 163//163 134//134 33//33
f 34//34 135//135 36//36
f 105//105 34//34 136//136
f 16//16 138//138 130//130
f 138//138 46//46 96//96
f 130//130 96//96 51//51
f 139//139 52//52 118//118
f 19//19 140//140 95//95
f 140//140 47//47 126//126
f 95//95 126//126 51//51
f 48//48 141//141 142//142
f 141//141 50//50 134//134
f 48//48 142//142 143//143
f 143//143 135//135 34//34
f 47//47 140//140 100//100
f 140//140 19//19 63//63
f 100//100 63//63 17//17
f 22//22 131//131 59//59
f 131//131 47//47 101//101
f 75//75 134//134 144//144
f 75//75 144//144 44//44
f 44//44 145//145 132//132
f 145//145 21//21 121//121
f 132//132 121//121 20//20
f 10//10 122//122 164//164
f 122//122 21//21 109//109
f 48//48 146//146 141//141
f 146//146 42//42 147//147
f 141//141 147//147 50//50
f 42//42 146//146 91//91
f 146//146 48//48 128//128
f 91//91 128//128 40//40
f 48//48 143//143 129//129
f 129//129 159//159 23//23
f 165//165 161//161 116//116
f 161//161 39//39 81//81
f 116//116 81//81 118//118
f 6//6 107//107 149//149
f 107//107 31//31 87//87
f 149//149 87//87 41//41
f 6//6 149//149 56//56
f 149//149 41//41 125//125
f 56//56 125//125 8//8
f 11//11 104//104 158//158
f 104//104 8//8 150//150
f 139//139 150//150 52//52
f 50//50 151//151 144//144
f 151//151 21//21 145//145
f 144//144 145//145 44//44
f 52//52 152//152 119//119
f 152//152 16//16 114//114
f 119//119 114//114 24//24
f 50//50 147//147 151//151
f 147//147 42//42 110//110
f 151//151 110//110 21//21
f 16//16 152//152 138//138
f 152//152 52//52 153//153
f 138//138 153//153 46//46
f 52//52 150//150 153//153
f 150//150 8//8 124//124
f 153//153 124//124 46//46
f 165//165 65//65 98//98
f 65//65 23//23 106//106
f 98//98 106//106 49//49
f 162//162 155//155 154//154
f 98//98 49//49 30//30
f 155//155 162//162 137//137
f 61//61 14//14 27//27
f 49//49 162//162 32//32
f 37//37 155//155 35//35
f 155//155 37//37 154//154
f 57//57 156//156 56//56
f 7//7 156//156 57//57
f 156//156 6//6 56//56
f 101//101 157//157 59//59
f 69//69 3//3 4//4
f 158//158 80//80 82//82
f 157//157 58//58 59//59
f 159//159 34//34 105//105
f 13//13 12//12 123//123
f 80//80 158//158 139//139
f 157//157 101//101 15//15
f 143//143 34//34 159//159
f 136//136 34//34 36//36
f 158//158 104//104 139//139
f 69//69 4//4 13//13
f 136//136 36//36 148//148
f 18//18 160//160 69//69
f 148//148 137//137 136//136
f 160//160 3//3 69//69
f 70//70 160//160 18//18
f 15//15 9//9 157//157
f 98//98 97//97 165//165
f 162//162 105//105 137//137
f 17//17 123//123 79//79
f 162//162 49//49 105//105
f 15//15 17//17 79//79
f 102//102 164//164 58//58
f 59//59 164//164 22//22
f 33//33 75//75 77//77
f 122//122 109//109 164//164
f 22//22 164//164 109//109
f 165//165 97//97 161//161
# 284 faces, 0 coords texture

# End of File
