####
#
# OBJ File Generated by Meshlab
#
####
# Object 559_C101_M_11.obj
#
# Vertices: 162
# Faces: 280
#
####
vn -2.570517 -1.794781 0.010046
v 68.358200 39.516800 -44.732800
vn -2.648771 -1.649461 -0.032743
v 74.185400 30.718000 -42.114900
vn -2.397372 -1.680372 -0.017216
v 68.240100 39.693100 -40.363600
vn -2.545512 -1.715895 -0.058123
v 69.351700 38.043600 -37.898800
vn -5.213003 -3.507524 -0.005686
v 70.836175 35.922869 -43.425356
vn -5.244756 -3.458247 -0.074900
v 71.601363 34.773105 -41.845006
vn -5.165879 -3.575525 -0.018502
v 69.251848 38.265946 -41.153520
vn -5.221365 -3.494612 -0.030664
v 70.376068 36.603720 -41.566920
vn -1.308788 -0.800009 -0.037790
v 74.037400 30.722900 -37.635300
vn -2.813814 -1.845875 -0.083714
v 70.463300 36.353700 -37.912700
vn -2.575134 -1.835606 0.005844
v 68.446900 39.376400 -47.349200
vn -2.672247 -1.638011 0.025910
v 74.154800 30.718000 -47.075400
vn -5.340232 -3.310149 0.028466
v 73.180228 32.322275 -45.587416
vn -2.674577 -1.663817 -0.050621
v 73.187100 32.136800 -37.729200
vn -2.659938 -1.659129 -0.080493
v 74.127900 30.718300 -40.112000
vn -2.557315 -1.787532 0.010009
v 68.289300 39.632700 -42.445900
vn -1.308611 -0.938597 0.004146
v 68.496200 39.282400 -50.000000
vn -1.496545 -1.021453 -0.010577
v 68.474100 39.342000 -38.000000
vn -2.613540 -1.743270 0.003310
v 70.665225 36.211150 -50.000000
vn -2.637849 -1.705856 -0.003692
v 71.667500 34.701500 -50.000000
vn -2.675364 -1.646627 0.006899
v 72.864400 32.797100 -50.000000
vn -1.350381 -0.811034 0.011707
v 74.113100 30.718000 -50.000000
vn -2.691518 -1.627205 0.025460
v 74.118600 30.718000 -49.365600
vn -2.397925 -1.566308 -0.081855
v 71.091100 35.385400 -37.657400
vn -2.737071 -1.747983 -0.082125
v 72.405400 33.357300 -37.799300
vn -5.268075 -3.422481 -0.003495
v 72.175073 33.930208 -44.059639
vn -5.116900 -3.646269 0.012817
v 69.454896 37.953156 -48.246958
vn -5.266096 -3.422832 -0.169506
v 71.449610 34.877607 -38.448501
vn -5.180093 -3.555335 -0.038305
v 70.008642 37.154614 -44.793561
vn -2.686285 -1.636851 0.015622
v 74.160400 30.718100 -44.588000
vn -2.576527 -1.796663 -0.009122
v 70.032300 37.154200 -50.000000
vn -2.561715 -1.826567 0.007549
v 68.409000 39.426800 -46.308100
vn -5.306765 -3.361783 -0.083352
v 72.829759 32.881608 -42.080347
vn -5.250784 -3.448831 -0.113798
v 70.993184 35.627426 -39.973455
vn -5.235050 -3.474156 -0.026690
v 71.107188 35.515392 -45.489772
vn -5.306010 -3.364901 0.004067
v 72.223978 33.824750 -48.350218
vn -5.255758 -3.443063 -0.012452
v 71.228667 35.359935 -47.861228
vn -5.330589 -3.323014 -0.140338
v 73.237212 32.089681 -38.879421
vn -5.186418 -3.542427 -0.023232
v 70.268631 36.826241 -46.742046
vn -5.283062 -3.400329 0.014805
v 72.178376 33.905787 -46.441991
vn -5.325163 -3.331450 -0.149973
v 73.688126 31.433375 -40.384061
vn -5.289370 -3.387642 -0.141850
v 72.275038 33.673098 -39.985602
vn -5.217453 -3.497410 -0.096750
v 69.884191 37.324237 -39.707150
vn -5.346460 -3.300233 0.038400
v 73.118825 32.390075 -47.774442
vn -5.177338 -3.559771 0.015771
v 69.645009 37.679105 -42.984064
vn -5.148947 -3.600879 -0.004940
v 69.437102 37.969779 -44.493341
vn -5.135141 -3.620243 -0.041600
v 69.560575 37.799271 -45.441465
vn -2.662152 -1.666361 -0.076128
v 74.156650 30.718150 -41.113450
vn -5.323432 -3.334276 -0.148586
v 73.673473 31.498940 -41.308288
vn -2.586094 -1.783687 -0.013071
v 68.357100 39.517550 -39.181800
vn -5.156023 -3.590288 -0.055074
v 68.765600 38.932208 -39.839044
vn -5.179408 -3.556424 -0.058745
v 68.966640 38.628024 -38.738854
vn -2.601488 -1.760910 -0.032604
v 68.912900 38.692800 -37.949400
vn -2.623880 -1.725534 -0.085956
v 69.907500 37.198650 -37.905750
vn -5.208232 -3.511232 -0.131754
v 69.607572 37.698390 -38.785268
vn -5.258582 -3.435020 -0.160715
v 70.172496 36.843375 -38.860148
vn -5.266569 -3.424665 -0.107419
v 70.435514 36.480794 -39.841569
vn -5.254751 -3.441819 -0.137762
v 70.708297 36.024704 -39.026990
vn -2.643848 -1.696212 -0.050367
v 72.796250 32.747050 -37.764250
vn -5.303469 -3.366310 -0.133561
v 72.796541 32.765787 -38.410520
vn -2.557406 -1.824542 0.018052
v 68.471550 39.329400 -48.674600
vn -2.690161 -1.621564 -0.056287
v 73.612250 31.429850 -37.682250
vn -5.359702 -3.275168 -0.150689
v 73.639481 31.408437 -38.366798
vn -5.384208 -3.238486 0.029544
v 73.392600 31.922688 -49.563330
vn -5.370403 -3.260823 0.052639
v 73.592760 31.597120 -48.574453
vn -2.692552 -1.618444 0.020142
v 73.488750 31.757550 -50.000000
vn -5.281395 -3.398686 -0.184672
v 71.937424 34.116027 -38.387434
vn -2.639055 -1.701476 -0.099869
v 71.748250 34.371350 -37.728350
vn -2.564868 -1.814111 -0.007614
v 68.264700 39.662900 -41.404750
vn -5.143436 -3.608578 0.015611
v 68.824475 38.872826 -41.778639
vn -5.136882 -3.617726 -0.043175
v 68.739229 38.989722 -40.812040
vn -5.245689 -3.455316 -0.145815
v 70.975256 35.599650 -38.430393
vn -5.249365 -3.450658 -0.122816
v 71.240661 35.225970 -39.199273
vn -5.245704 -3.457766 -0.042782
v 71.877190 34.367748 -42.882690
vn -5.295295 -3.381469 -0.039798
v 72.501584 33.405864 -42.985434
vn -5.274000 -3.413999 -0.086521
v 72.219634 33.821784 -41.975420
vn -5.204332 -3.520388 0.000177
v 69.799637 37.456708 -41.382098
vn -5.178367 -3.558114 0.029032
v 69.429313 38.000647 -42.073047
vn -5.201216 -3.525006 0.009351
v 70.017991 37.130980 -42.300031
vn -2.547354 -1.838638 -0.001061
v 69.264250 38.218300 -50.000000
vn -5.119016 -3.643033 -0.017634
v 69.721737 37.583962 -49.115084
vn -5.105790 -3.661734 0.017137
v 69.026068 38.547755 -49.070169
vn -5.197385 -3.530026 -0.011572
v 70.385726 36.632086 -49.103347
vn -5.154899 -3.592127 0.020992
v 70.097515 37.045069 -48.276056
vn -5.324474 -3.334438 -0.076957
v 73.451485 31.890036 -42.169258
vn -5.321784 -3.340182 -0.012915
v 73.077657 32.490278 -42.934855
vn -5.300182 -3.369925 -0.170788
v 72.337315 33.518342 -38.864824
vn -5.268934 -3.419576 -0.146815
v 71.803938 34.364440 -39.174087
vn -5.235528 -3.473126 -0.039179
v 70.133145 36.960228 -40.641004
vn -5.245937 -3.456806 -0.086774
v 70.696969 36.097391 -40.784843
vn -5.216454 -3.502421 0.006591
v 70.999568 35.677462 -44.430601
vn -5.218315 -3.499593 0.017700
v 71.602543 34.779875 -44.803517
vn -5.216125 -3.502887 -0.005778
v 71.465893 34.985672 -43.706222
vn -5.220459 -3.496416 -0.016413
v 71.233553 35.326279 -42.667418
vn -5.264064 -3.428224 -0.121274
v 71.929728 34.238069 -40.960049
vn -5.253713 -3.444022 -0.124467
v 71.593199 34.714666 -40.033917
vn -5.240779 -3.463667 -0.122284
v 71.302249 35.192157 -40.889762
vn -2.682466 -1.635219 0.006105
v 74.157600 30.718050 -45.831700
vn -5.366303 -3.268149 0.018952
v 73.680897 31.502590 -45.151289
vn -5.357756 -3.281997 0.029631
v 73.658699 31.534737 -46.294086
vn -5.124121 -3.636138 -0.002595
v 69.025587 38.562870 -46.118396
vn -5.120362 -3.641431 0.001675
v 68.826865 38.843224 -46.959221
vn -5.119554 -3.642470 0.026476
v 68.928612 38.696006 -47.994272
vn -5.115930 -3.647639 0.013511
v 69.313246 38.156527 -47.162538
vn -5.156459 -3.589929 0.041653
v 69.024872 38.573142 -42.714804
vn -5.160121 -3.584756 0.032157
v 68.742622 38.972561 -43.303291
vn -5.152571 -3.595636 0.024020
v 69.271150 38.210102 -43.597289
vn -5.117934 -3.644616 0.035101
v 69.876934 37.368870 -47.398147
vn -5.114143 -3.649866 -0.025371
v 69.712781 37.602186 -46.420485
vn -2.582239 -1.789265 0.013309
v 68.323750 39.574750 -43.589350
vn -5.324345 -3.332809 -0.148799
v 73.122025 32.378256 -41.276732
vn -5.323456 -3.334325 -0.146669
v 72.875740 32.730630 -40.366833
vn -5.298740 -3.373866 -0.128226
v 72.546047 33.289192 -41.095957
vn -2.680526 -1.638186 0.027031
v 74.172900 30.718050 -43.351450
vn -5.362236 -3.274620 0.039210
v 73.721878 31.444652 -44.041967
vn -5.232025 -3.478913 -0.006400
v 71.652431 34.696382 -45.934916
vn -5.268291 -3.422820 0.027746
v 72.170076 33.927357 -45.319812
vn -5.299224 -3.375587 -0.006147
v 71.985809 34.199815 -49.090081
vn -5.273120 -3.416433 -0.006314
v 71.790566 34.493765 -48.114607
vn -5.259240 -3.437605 -0.019885
v 71.484046 34.975962 -48.990801
vn -5.210572 -3.511099 -0.009722
v 70.421337 36.540446 -44.128164
vn -5.200970 -3.525332 -0.008549
v 70.235423 36.808372 -43.205156
vn -5.174980 -3.563044 -0.007090
v 69.849893 37.382487 -43.875376
vn -2.618459 -1.735870 -0.002791
v 71.271850 35.299150 -50.000000
vn -5.236739 -3.472019 -0.002284
v 70.971807 35.750384 -49.002377
vn -5.229847 -3.481436 -0.053667
v 70.556716 36.337076 -45.112371
vn -5.257151 -3.439846 -0.080166
v 70.673167 36.194225 -46.141423
vn -5.182464 -3.549691 -0.091727
v 70.144872 36.981758 -45.763757
vn -2.678651 -1.640936 0.041955
v 74.136700 30.718000 -48.220500
vn -5.353362 -3.288661 0.065465
v 73.634510 31.557695 -47.428612
vn -5.326442 -3.332589 0.030379
v 72.652790 33.142049 -47.055699
vn -5.335487 -3.317825 0.046782
v 73.149394 32.356655 -46.680009
vn -5.317968 -3.346078 0.035886
v 72.669123 33.130712 -45.978690
vn -5.193611 -3.534093 0.054826
v 70.348697 36.698476 -47.560676
vn -5.256260 -3.442004 -0.044014
v 71.181599 35.416431 -46.609713
vn -5.254471 -3.444888 -0.013225
v 71.705211 34.630184 -47.059457
vn -5.227545 -3.485645 0.017962
v 70.663947 36.214815 -48.163565
vn -5.261367 -3.434333 -0.013256
v 70.740353 36.105110 -47.188444
vn -2.659872 -1.671708 0.008782
v 72.265950 33.749300 -50.000000
vn -5.328339 -3.329685 0.008850
v 72.519652 33.350442 -49.084287
vn -5.300252 -3.373736 0.016032
v 72.198633 33.868695 -47.479855
vn -5.334006 -3.320641 0.010813
v 72.632106 33.170996 -48.087661
vn -5.335390 -3.314053 -0.168842
v 73.679792 31.403318 -39.416387
vn -2.670972 -1.651235 -0.094532
v 74.082650 30.720600 -38.873650
vn -5.145272 -3.606146 -0.001912
v 68.946429 38.675889 -45.093169
vn -5.159333 -3.585224 -0.075950
v 69.308990 38.149649 -39.622118
vn -5.225477 -3.488081 -0.061559
v 70.976942 35.706216 -41.711212
vn -5.325375 -3.331342 -0.144724
v 73.270601 32.077867 -39.850855
vn -5.321101 -3.341277 -0.001108
v 72.823137 32.898228 -43.836712
vn -5.211190 -3.510174 -0.003786
v 70.616389 36.248484 -42.483402
vn -5.343726 -3.304665 0.017080
v 73.237458 32.235812 -44.529043
vn -5.319469 -3.340277 -0.155161
v 72.797450 32.813751 -39.404612
vn -2.565319 -1.813418 0.015381
v 68.383600 39.471800 -45.520450
vn -5.318551 -3.345279 0.020440
v 72.700463 33.090092 -44.881678
vn -5.183104 -3.550910 -0.045549
v 69.582946 37.774047 -40.474228
vn -5.150821 -3.597373 -0.078654
v 69.122641 38.433771 -40.361880
vn -5.157131 -3.589108 0.011946
v 68.849208 38.812102 -44.130157
vn -5.324436 -3.332670 -0.148654
v 73.318022 32.036526 -40.645464
vn -5.336146 -3.317007 0.009053
v 73.336129 32.080087 -43.501203
vn -5.342533 -3.306492 0.022243
v 73.718040 31.467872 -43.015448
vn -5.362403 -3.274319 0.014183
v 73.069665 32.463856 -48.896552
vn -5.384584 -3.237783 0.036145
v 73.755646 31.318736 -49.614088
# 162 vertices, 0 vertices normals

f 46//46 145//145 47//47
f 48//48 41//41 49//49
f 50//50 51//51 52//52
f 54//54 55//55 56//56
f 57//57 58//58 56//56
f 25//25 60//60 59//59
f 17//17 82//82 61//61
f 9//9 62//62 63//63
f 64//64 65//65 161//161
f 67//67 25//25 68//68
f 69//69 70//70 71//71
f 72//72 58//58 73//73
f 74//74 75//75 76//76
f 28//28 24//24 72//72
f 77//77 78//78 79//79
f 83//83 84//84 81//81
f 160//160 86//86 159//159
f 87//87 67//67 88//88
f 89//89 90//90 57//57
f 91//91 92//92 93//93
f 94//94 93//93 74//74
f 95//95 96//96 97//97
f 98//98 99//99 100//100
f 103//103 104//104 102//102
f 105//105 106//106 107//107
f 104//104 108//108 109//109
f 16//16 110//110 106//106
f 111//111 112//112 113//113
f 116//116 117//117 92//92
f 118//118 119//119 120//120
f 11//11 103//103 102//102
f 121//121 122//122 123//123
f 124//124 120//120 125//125
f 126//126 91//91 121//121
f 127//127 126//126 128//128
f 96//96 88//88 73//73
f 65//65 129//129 130//130
f 131//131 132//132 133//133
f 130//130 100//100 132//132
f 109//109 128//128 47//47
f 84//84 134//134 108//108
f 116//116 135//135 136//136
f 137//137 138//138 134//134
f 118//118 139//139 140//140
f 119//119 141//141 136//136
f 125//125 137//137 83//83
f 63//63 143//143 144//144
f 138//138 135//135 127//127
f 49//49 111//111 85//85
f 55//55 52//52 146//146
f 97//97 90//90 147//147
f 75//75 149//149 86//86
f 147//147 150//150 94//94
f 99//99 115//115 151//151
f 107//107 46//46 123//123
f 152//152 112//112 148//148
f 152//152 60//60 87//87
f 145//145 153//153 101//101
f 113//113 95//95 76//76
f 117//117 133//133 154//154
f 155//155 77//77 89//89
f 105//105 78//78 70//70
f 146//146 156//156 155//155
f 131//131 141//141 142//142
f 156//156 51//51 71//71
f 154//154 151//151 149//149
f 79//79 122//122 150//150
f 29//29 46//46 47//47
f 46//46 157//157 145//145
f 47//47 145//145 101//101
f 2//2 48//48 49//49
f 48//48 15//15 41//41
f 18//18 50//50 52//52
f 50//50 3//3 51//51
f 52//52 51//51 146//146
f 52//52 4//4 53//53
f 52//52 53//53 18//18
f 10//10 54//54 56//56
f 54//54 4//4 55//55
f 56//56 55//55 43//43
f 43//43 57//57 56//56
f 57//57 34//34 58//58
f 56//56 58//58 10//10
f 38//38 14//14 60//60
f 59//59 60//60 14//14
f 61//61 103//103 11//11
f 62//62 14//14 63//63
f 38//38 63//63 14//14
f 64//64 162//162 65//65
f 66//66 22//22 162//162
f 28//28 68//68 24//24
f 68//68 28//28 67//67
f 3//3 69//69 71//71
f 69//69 16//16 70//70
f 71//71 70//70 7//7
f 28//28 72//72 73//73
f 72//72 10//10 58//58
f 73//73 58//58 34//34
f 6//6 74//74 76//76
f 74//74 26//26 75//75
f 76//76 75//75 33//33
f 72//72 24//24 10//10
f 8//8 77//77 79//79
f 77//77 7//7 78//78
f 79//79 78//78 45//45
f 17//17 80//80 82//82
f 80//80 31//31 81//81
f 31//31 83//83 81//81
f 81//81 84//84 27//27
f 85//85 33//33 86//86
f 160//160 85//85 86//86
f 42//42 87//87 88//88
f 87//87 25//25 67//67
f 88//88 67//67 28//28
f 43//43 89//89 57//57
f 89//89 8//8 90//90
f 57//57 90//90 34//34
f 5//5 91//91 93//93
f 91//91 35//35 92//92
f 93//93 92//92 26//26
f 6//6 94//94 74//74
f 94//94 5//5 93//93
f 74//74 93//93 26//26
f 6//6 95//95 97//97
f 95//95 42//42 96//96
f 97//97 96//96 34//34
f 12//12 98//98 100//100
f 98//98 30//30 99//99
f 100//100 99//99 13//13
f 101//101 32//32 102//102
f 103//103 27//27 104//104
f 102//102 104//104 101//101
f 45//45 105//105 107//107
f 105//105 16//16 106//106
f 107//107 106//106 157//157
f 101//101 104//104 109//109
f 104//104 27//27 108//108
f 109//109 108//108 39//39
f 103//103 82//82 27//27
f 31//31 19//19 83//83
f 110//110 157//157 106//106
f 33//33 111//111 113//113
f 113//113 112//112 42//42
f 30//30 114//114 115//115
f 114//114 2//2 160//160
f 115//115 160//160 159//159
f 35//35 116//116 92//92
f 116//116 40//40 117//117
f 92//92 117//117 26//26
f 20//20 118//118 120//120
f 118//118 36//36 119//119
f 120//120 119//119 37//37
f 11//11 102//102 32//32
f 29//29 121//121 123//123
f 121//121 5//5 122//122
f 123//123 122//122 45//45
f 19//19 124//124 125//125
f 124//124 20//20 120//120
f 125//125 120//120 37//37
f 29//29 126//126 121//121
f 126//126 35//35 91//91
f 121//121 91//91 5//5
f 39//39 127//127 128//128
f 127//127 35//35 126//126
f 128//128 126//126 29//29
f 34//34 96//96 73//73
f 96//96 42//42 88//88
f 73//73 88//88 28//28
f 44//44 65//65 130//130
f 65//65 23//23 129//129
f 130//130 129//129 12//12
f 40//40 131//131 133//133
f 131//131 44//44 132//132
f 133//133 132//132 13//13
f 44//44 130//130 132//132
f 130//130 12//12 100//100
f 132//132 100//100 13//13
f 101//101 109//109 47//47
f 109//109 39//39 128//128
f 47//47 128//128 29//29
f 27//27 84//84 108//108
f 108//108 134//134 39//39
f 40//40 116//116 136//136
f 116//116 35//35 135//135
f 136//136 135//135 37//37
f 84//84 137//137 134//134
f 137//137 37//37 138//138
f 134//134 138//138 39//39
f 36//36 118//118 140//140
f 118//118 20//20 139//139
f 140//140 139//139 21//21
f 37//37 119//119 136//136
f 119//119 36//36 141//141
f 136//136 141//141 40//40
f 19//19 125//125 83//83
f 125//125 37//37 137//137
f 83//83 137//137 84//84
f 21//21 161//161 140//140
f 140//140 142//142 36//36
f 9//9 63//63 144//144
f 63//63 38//38 143//143
f 144//144 143//143 15//15
f 39//39 138//138 127//127
f 138//138 37//37 135//135
f 127//127 135//135 35//35
f 145//145 157//157 1//1
f 49//49 41//41 158//158
f 85//85 111//111 33//33
f 43//43 55//55 146//146
f 55//55 4//4 52//52
f 6//6 97//97 147//147
f 97//97 34//34 90//90
f 147//147 90//90 8//8
f 148//148 41//41 143//143
f 148//148 143//143 38//38
f 33//33 75//75 86//86
f 75//75 26//26 149//149
f 86//86 149//149 159//159
f 6//6 147//147 94//94
f 147//147 8//8 150//150
f 94//94 150//150 5//5
f 13//13 99//99 151//151
f 99//99 30//30 115//115
f 151//151 115//115 159//159
f 45//45 107//107 123//123
f 107//107 157//157 46//46
f 123//123 46//46 29//29
f 38//38 152//152 148//148
f 152//152 42//42 112//112
f 148//148 112//112 158//158
f 42//42 152//152 87//87
f 152//152 38//38 60//60
f 87//87 60//60 25//25
f 145//145 1//1 153//153
f 101//101 153//153 32//32
f 33//33 113//113 76//76
f 113//113 42//42 95//95
f 76//76 95//95 6//6
f 26//26 117//117 154//154
f 117//117 40//40 133//133
f 154//154 133//133 13//13
f 43//43 155//155 89//89
f 155//155 7//7 77//77
f 89//89 77//77 8//8
f 16//16 105//105 70//70
f 105//105 45//45 78//78
f 70//70 78//78 7//7
f 43//43 146//146 155//155
f 155//155 156//156 7//7
f 44//44 131//131 142//142
f 131//131 40//40 141//141
f 142//142 141//141 36//36
f 7//7 156//156 71//71
f 156//156 146//146 51//51
f 71//71 51//51 3//3
f 26//26 154//154 149//149
f 154//154 13//13 151//151
f 149//149 151//151 159//159
f 8//8 79//79 150//150
f 79//79 45//45 122//122
f 150//150 122//122 5//5
f 157//157 110//110 1//1
f 82//82 80//80 81//81
f 41//41 15//15 143//143
f 82//82 81//81 27//27
f 148//148 158//158 41//41
f 49//49 158//158 111//111
f 158//158 112//112 111//111
f 114//114 160//160 115//115
f 103//103 61//61 82//82
f 161//161 142//142 140//140
f 161//161 65//65 44//44
f 142//142 161//161 44//44
f 64//64 161//161 21//21
f 64//64 21//21 66//66
f 162//162 23//23 65//65
f 23//23 162//162 22//22
f 66//66 162//162 64//64
f 2//2 49//49 85//85
f 160//160 2//2 85//85
# 280 faces, 0 coords texture

# End of File
