####
#
# OBJ File Generated by Meshlab
#
####
# Object 588_C104_M_5.obj
#
# Vertices: 190
# Faces: 329
#
####
vn 3.838442 -2.563454 -0.108774
v -69.990700 38.272400 -37.821600
vn 2.821712 -1.814779 -0.139116
v -70.349000 37.688200 -37.531700
vn 3.011004 -1.837443 -0.163410
v -73.298500 33.037700 -37.392500
vn 5.350970 -3.286161 -0.208702
v -73.962465 32.070144 -38.937424
vn 5.333358 -3.319984 -0.100762
v -74.328514 31.557667 -40.583029
vn 5.365513 -3.269322 -0.018953
v -73.221848 33.436141 -46.829817
vn 5.288641 -3.391582 -0.051661
v -71.936776 35.486641 -44.862398
vn 5.342115 -3.307337 -0.019446
v -72.909103 33.941776 -45.108319
vn 3.248963 -2.075900 -0.144082
v -71.894400 35.287100 -37.393100
vn 1.904050 -1.190971 -0.110124
v -72.483600 34.295100 -36.767300
vn 3.058511 -1.876369 -0.156800
v -74.669000 30.786300 -37.409800
vn 5.388881 -3.230607 -0.032755
v -73.761188 32.559558 -48.454327
vn 5.342567 -3.306082 -0.047654
v -72.610356 34.461518 -48.463470
vn 5.252152 -3.444304 -0.157031
v -70.934147 36.871102 -38.902829
vn 5.197351 -3.528320 -0.044618
v -70.743410 37.278909 -42.558027
vn 5.316357 -3.347252 -0.099283
v -72.539521 34.462963 -41.482563
vn 5.355254 -3.285994 -0.041521
v -74.437525 31.408247 -42.390951
vn 5.365979 -3.268543 -0.034819
v -73.821825 32.436757 -43.799578
vn 5.367275 -3.266512 -0.012989
v -74.427363 31.440319 -43.827948
vn 2.686111 -1.628463 -0.021383
v -73.169500 33.571600 -50.000000
vn 2.661578 -1.657128 -0.033137
v -74.852400 30.718200 -40.606900
vn 2.676556 -1.647504 -0.018955
v -74.868400 30.718000 -43.268300
vn 5.287234 -3.393827 -0.046631
v -71.518600 36.194301 -48.408821
vn 2.275522 -1.467229 -0.089235
v -71.295500 36.204800 -37.149600
vn 5.302747 -3.365947 -0.148904
v -72.216239 34.922047 -39.544681
vn 2.669287 -1.640820 -0.007913
v -74.870800 30.718000 -43.539100
vn 2.629956 -1.718121 -0.021724
v -70.907500 37.151100 -50.000000
vn 5.205449 -3.517418 -0.049632
v -70.934849 37.005758 -44.362618
vn 5.107772 -3.654568 -0.179187
v -69.613833 38.899881 -45.452863
vn 2.697125 -1.613624 0.011103
v -74.856100 30.718000 -45.673800
vn 2.699857 -1.616975 -0.001235
v -74.853600 30.718000 -46.274800
vn 2.649444 -1.648778 -0.082065
v -74.842300 30.718300 -40.025800
vn 2.652660 -1.682775 -0.014929
v -71.833000 35.717400 -50.000000
vn 5.349150 -3.294566 -0.084898
v -73.510410 32.925362 -41.944683
vn 1.951001 -1.429534 -0.021571
v -68.647800 40.183100 -44.264700
vn 2.920480 -2.128120 0.013549
v -68.903600 39.851400 -43.289000
vn 2.374040 -1.718971 -0.055032
v -68.789400 40.131500 -47.287300
vn 1.593657 -1.152561 -0.016559
v -69.033700 39.848900 -50.000000
vn 2.405781 -1.692132 -0.020378
v -68.823600 39.999600 -40.791000
vn 2.591694 -1.773565 -0.038051
v -70.328100 38.032200 -50.000000
vn 2.644872 -1.881621 -0.046632
v -68.916800 39.811400 -39.241500
vn 1.384462 -0.979048 -0.013693
v -68.929800 39.777500 -38.000000
vn 2.285002 -1.678783 -0.034437
v -68.933700 39.976300 -49.613100
vn 1.331935 -0.827356 -0.003191
v -74.876200 30.718000 -50.000000
vn 2.683871 -1.632520 0.000933
v -74.501000 31.319000 -50.000000
vn 2.685550 -1.628942 -0.007528
v -74.869000 30.718000 -48.644500
vn 1.721184 -1.062800 -0.094420
v -74.706900 30.723900 -37.398300
vn 1.928531 -1.194931 -0.128036
v -74.693200 30.744800 -37.387000
vn 2.907499 -2.082267 -0.111705
v -68.888400 39.915900 -45.355000
vn 1.312563 -0.848446 -0.087516
v -69.976500 38.264300 -37.530100
vn 5.227496 -3.483124 -0.082986
v -71.031995 36.914262 -46.480408
vn 5.339681 -3.309226 -0.122984
v -73.266784 33.247553 -40.161960
vn 5.372734 -3.257319 -0.014083
v -73.802809 32.482165 -45.066473
vn 5.280280 -3.404749 -0.064935
v -71.771394 35.702253 -42.933472
vn 5.323717 -3.335580 -0.060614
v -72.737832 34.205941 -43.319679
vn 5.269551 -3.419766 -0.101564
v -71.473887 36.129923 -41.004763
vn 5.130794 -3.622893 -0.137430
v -69.800971 38.718927 -46.932980
vn 5.338947 -3.302508 -0.233167
v -72.955182 33.679948 -38.265391
vn 5.319322 -3.343766 -0.042486
v -72.187756 35.105698 -46.736926
vn 5.173584 -3.562766 -0.080656
v -70.210155 38.026227 -40.858695
vn 5.329426 -3.312772 -0.317437
v -72.795847 33.862170 -37.500454
vn 5.303409 -3.358759 -0.261220
v -72.449295 34.452052 -37.899449
vn 5.127597 -3.631073 -0.032659
v -70.253239 37.969585 -42.460071
vn 5.125720 -3.633820 -0.003915
v -69.868529 38.508548 -41.893096
vn 5.180185 -3.553387 -0.064243
v -70.526419 37.582357 -41.712597
vn 5.364220 -3.271376 -0.039238
v -74.187441 31.825521 -43.050912
vn 2.672247 -1.651781 -0.017842
v -74.860400 30.718100 -41.937600
vn 5.350860 -3.293029 -0.047458
v -74.389299 31.474285 -41.495422
vn 2.666638 -1.660901 -0.007217
v -72.501250 34.644500 -50.000000
vn 5.325461 -3.334142 -0.030141
v -72.256128 35.034751 -49.240204
vn 5.353783 -3.288043 -0.042533
v -72.869946 34.049262 -49.244279
vn 2.634006 -1.708725 -0.108968
v -70.822250 36.946500 -37.340650
vn 5.275048 -3.406642 -0.216747
v -70.884128 36.885483 -37.879567
vn 5.250530 -3.446242 -0.127994
v -70.425433 37.624647 -38.271331
vn 5.349312 -3.293280 -0.129732
v -73.115025 33.461313 -39.227237
vn 5.339721 -3.309640 -0.109869
v -72.752380 34.068432 -39.871246
vn 5.316426 -3.343582 -0.170580
v -72.587739 34.300998 -38.904982
vn 2.683924 -1.632733 0.018482
v -74.863450 30.718000 -44.606450
vn 5.381897 -3.242260 0.019777
v -74.599727 31.151149 -44.638776
vn 5.334428 -3.317156 -0.136790
v -73.779219 32.432573 -40.406638
vn 5.343074 -3.302810 -0.145527
v -73.629376 32.634647 -39.524395
vn 5.330699 -3.322094 -0.159737
v -74.177466 31.766200 -39.804232
vn 5.140857 -3.612268 -0.024237
v -70.336098 37.863484 -43.275700
vn 5.105914 -3.661219 -0.037809
v -69.825502 38.582575 -43.021644
vn 5.252619 -3.445162 -0.134358
v -71.227586 36.466427 -39.995328
vn 5.233154 -3.475391 -0.118937
v -70.868511 37.037975 -40.865462
vn 5.215827 -3.500397 -0.138370
v -70.588431 37.427501 -39.917314
vn 2.690411 -1.622030 -0.017579
v -74.861300 30.718000 -47.459650
vn 2.678795 -1.635682 -0.134928
v -74.774600 30.721100 -38.712050
vn 5.360261 -3.267272 -0.266304
v -74.278789 31.506214 -38.385061
vn 5.347504 -3.290249 -0.234599
v -74.402081 31.370820 -39.192156
vn 5.256852 -3.440511 -0.081272
v -71.434520 36.249292 -44.648001
vn 5.277431 -3.408955 -0.058397
v -71.515166 36.153988 -45.652820
vn 5.196894 -3.528627 -0.086073
v -70.990409 36.947862 -45.346113
vn 5.286703 -3.393061 -0.119989
v -71.838932 35.535132 -40.245466
vn 5.322637 -3.337244 -0.098004
v -72.391703 34.671485 -40.530176
vn 5.304187 -3.367104 -0.080402
v -72.022943 35.272019 -41.234387
vn 5.366906 -3.266872 -0.047437
v -73.989620 32.139589 -42.168185
vn 5.349604 -3.293901 -0.092767
v -73.893737 32.281805 -41.276996
vn 5.360397 -3.277740 -0.031267
v -73.333624 33.242022 -44.427588
vn 5.358013 -3.281710 -0.020201
v -73.342579 33.234995 -45.255485
vn 5.372666 -3.257505 0.009348
v -73.537290 32.920004 -46.016947
vn 5.348784 -3.296750 -0.004472
v -73.039683 33.731804 -45.974645
vn 5.067424 -3.714494 0.007732
v -69.323615 39.278113 -43.715120
vn 5.263258 -3.431273 -0.049219
v -71.360496 36.343522 -43.674628
vn 5.270345 -3.419988 -0.069549
v -71.856597 35.590426 -43.896082
vn 5.172155 -3.566336 -0.088908
v -70.194839 38.165056 -47.516979
vn 5.147133 -3.602615 -0.064438
v -69.951553 38.547934 -48.988443
vn 5.384952 -3.237133 -0.004943
v -73.751461 32.554220 -46.899314
vn 5.388639 -3.231176 0.019133
v -74.055280 32.056338 -46.144263
vn 5.093270 -3.677089 -0.125028
v -69.213906 39.541619 -47.238166
vn 5.130514 -3.625693 -0.083279
v -69.732071 38.840234 -47.873810
vn 2.669216 -1.648709 -0.163240
v -72.891050 33.666400 -37.079900
vn 5.224860 -3.488704 -0.071865
v -70.627001 37.565430 -49.167110
vn 5.365727 -3.268898 -0.040209
v -73.631313 32.738148 -42.832328
vn 5.126183 -3.632631 -0.066354
v -69.260781 39.321277 -38.844623
vn 5.252530 -3.446755 -0.083655
v -71.107467 36.709050 -41.795193
vn 5.288842 -3.391405 -0.063622
v -71.649253 35.875680 -41.974546
vn 5.269707 -3.421422 -0.046542
v -71.264324 36.482841 -42.729078
vn 5.296590 -3.378962 -0.082494
v -72.158495 35.078084 -42.193938
vn 5.098071 -3.671790 -0.055137
v -69.306261 39.460072 -49.167921
vn 2.534776 -1.855627 -0.034097
v -68.861550 40.053900 -48.450200
vn 5.364812 -3.270465 -0.001338
v -74.605229 31.151422 -49.272546
vn 2.674474 -1.648209 -0.014206
v -74.872600 30.718000 -49.322250
vn 5.398497 -3.214641 -0.007393
v -74.093406 32.002969 -49.232352
vn 5.383586 -3.239519 -0.022834
v -74.385002 31.518122 -48.254797
vn 5.212007 -3.507289 -0.020013
v -70.861313 37.110952 -43.448533
vn 5.154018 -3.593659 -0.007818
v -70.479785 37.657746 -44.048764
vn 5.104410 -3.663429 0.009050
v -69.334172 39.255021 -42.611331
vn 5.362260 -3.267261 -0.215006
v -73.510006 32.781900 -38.503424
vn 2.681520 -1.631533 -0.130986
v -73.983750 31.912000 -37.401150
vn 5.328128 -3.327971 -0.118238
v -73.028049 33.689828 -41.720193
vn 5.344151 -3.303142 -0.073942
v -73.128685 33.558152 -42.615544
vn 5.308418 -3.359641 -0.102963
v -72.648099 34.320234 -42.408045
vn 5.186055 -3.546679 -0.019661
v -69.960018 38.319231 -38.440508
vn 5.207032 -3.514493 -0.085865
v -70.262636 37.869353 -39.081738
vn 5.110351 -3.654749 -0.009696
v -69.945079 38.425008 -44.138171
vn 5.082905 -3.690762 -0.086362
v -69.378421 39.194670 -44.741896
vn 5.284284 -3.392398 -0.215242
v -72.035005 35.138783 -38.510599
vn 5.361107 -3.276545 -0.034170
v -73.228899 33.404841 -43.508212
vn 5.339257 -3.311903 -0.022671
v -72.817742 34.083313 -44.221189
vn 5.316559 -3.348156 -0.049464
v -72.051400 35.349189 -48.441987
vn 5.308961 -3.359930 -0.062969
v -71.846962 35.659801 -47.575032
vn 5.328722 -3.328450 -0.062446
v -72.384130 34.807861 -47.624420
vn 2.560032 -1.820844 -0.019080
v -69.680900 38.940550 -50.000000
vn 2.568205 -1.809219 -0.025274
v -69.460250 39.024950 -37.910800
vn 2.704442 -1.598581 -0.011638
v -73.835250 32.445300 -50.000000
vn 5.392750 -3.223832 -0.045772
v -73.483742 33.034449 -49.241137
vn 5.104992 -3.658546 -0.175557
v -69.391335 39.255909 -46.214240
vn 5.144698 -3.602528 -0.175465
v -69.995212 38.397788 -46.094241
vn 5.243407 -3.461534 -0.049740
v -70.972411 37.027265 -48.374549
vn 5.266251 -3.426781 -0.037836
v -71.190404 36.707487 -49.211784
vn 5.393903 -3.222388 0.016096
v -74.350904 31.566810 -45.429169
vn 5.278919 -3.401125 -0.209212
v -71.441318 36.038833 -38.156546
vn 5.274529 -3.409343 -0.181641
v -71.616488 35.832550 -39.207984
vn 5.154585 -3.590114 -0.125857
v -70.496540 37.659051 -45.844165
vn 5.174078 -3.561739 -0.138394
v -70.401406 37.842640 -46.743045
vn 2.639510 -1.703658 -0.011876
v -71.370250 36.434250 -50.000000
vn 5.298473 -3.376697 -0.034681
v -71.701924 35.914867 -49.226019
vn 2.560943 -1.819479 0.025929
v -68.863600 39.925500 -42.040000
vn 5.132571 -3.623990 0.027674
v -69.316422 39.294692 -41.580638
vn 5.301949 -3.371047 -0.045271
v -72.337937 34.845504 -44.076840
vn 5.319137 -3.344334 -0.024292
v -72.423430 34.714427 -44.998967
vn 5.334696 -3.317499 -0.116079
v -72.905741 33.851259 -40.809280
vn 5.333087 -3.319654 -0.128343
v -73.399207 33.069395 -41.057969
vn 5.139934 -3.612798 -0.069190
v -69.391322 39.185238 -40.586381
vn 5.381494 -3.242877 -0.012675
v -74.161164 31.886999 -44.558000
vn 5.287392 -3.393311 -0.084597
v -72.257342 34.950790 -43.136251
vn 2.544894 -1.840547 -0.074182
v -68.838900 40.023700 -46.321150
vn 5.146298 -3.604204 -0.049793
v -70.436066 37.724382 -44.882182
vn 5.131113 -3.624728 -0.106213
v -69.316036 39.267545 -39.794682
vn 2.566084 -1.811313 -0.062892
v -68.870200 39.905500 -40.016250
vn 5.171354 -3.565964 -0.127840
v -69.943913 38.378298 -39.937406
vn 5.341736 -3.307839 -0.035949
v -72.702313 34.276092 -46.791368
vn 5.359158 -3.279283 -0.051248
v -72.919682 33.943491 -47.649585
vn 5.275086 -3.412590 -0.057412
v -71.301752 36.515890 -47.507384
vn 5.298303 -3.376902 -0.049044
v -71.646491 35.955009 -46.638274
vn 5.308473 -3.361157 -0.027737
v -72.040024 35.331697 -45.812000
vn 5.329617 -3.327566 -0.016743
v -72.543682 34.531623 -45.906830
vn 5.386836 -3.233937 -0.045415
v -73.992577 32.163344 -47.696263
vn 5.213031 -3.506356 -0.062223
v -70.736125 37.374635 -47.504158
vn 5.375576 -3.252524 -0.048311
v -73.178507 33.523017 -48.466490
vn 5.381678 -3.242590 -0.036889
v -73.464829 33.042616 -47.666111
vn 5.161359 -3.581996 -0.075942
v -69.691888 38.714560 -39.021797
vn 5.383674 -3.239308 -0.025633
v -74.329304 31.596134 -47.233459
vn 5.391343 -3.226602 -0.000244
v -74.561902 31.205139 -46.395796
vn 5.189209 -3.541721 -0.067397
v -70.352637 37.952921 -48.261425
vn 5.364814 -3.259981 -0.263991
v -73.848138 32.191099 -38.102466
vn 5.096524 -3.673646 -0.075956
v -69.357152 39.373590 -48.284761
vn 5.120606 -3.639706 -0.085165
v -70.002119 38.348628 -45.131684
# 190 vertices, 0 vertices normals

f 58//58 62//62 61//61
f 63//63 64//64 65//65
f 21//21 67//67 68//68
f 69//69 70//70 71//71
f 2//2 73//73 74//74
f 75//75 76//76 77//77
f 78//78 30//30 79//79
f 22//22 19//19 66//66
f 80//80 81//81 82//82
f 83//83 84//84 63//63
f 85//85 86//86 87//87
f 89//89 32//32 91//91
f 32//32 82//82 91//91
f 92//92 93//93 94//94
f 95//95 96//96 97//97
f 98//98 99//99 68//68
f 100//100 53//53 101//101
f 102//102 103//103 101//101
f 105//105 106//106 92//92
f 109//109 102//102 110//110
f 32//32 21//21 5//5
f 10//10 113//113 61//61
f 66//66 115//115 98//98
f 117//117 118//118 119//119
f 97//97 120//120 118//118
f 46//46 124//124 123//123
f 123//123 125//125 126//126
f 83//83 127//127 128//128
f 104//104 129//129 84//84
f 48//48 47//47 11//11
f 132//132 133//133 134//134
f 135//135 74//74 136//136
f 137//137 138//138 104//104
f 139//139 62//62 77//77
f 115//115 140//140 133//133
f 100//100 141//141 140//140
f 117//117 65//65 86//86
f 22//22 26//26 19//19
f 127//127 119//119 105//105
f 142//142 143//143 144//144
f 121//121 108//108 145//145
f 147//147 148//148 125//125
f 50//50 2//2 1//1
f 114//114 151//151 152//152
f 153//153 186//186 110//110
f 14//14 73//73 154//154
f 139//139 155//155 154//154
f 150//150 156//156 157//157
f 158//158 152//152 159//159
f 160//160 161//161 129//129
f 162//162 141//141 163//163
f 132//132 164//164 165//165
f 161//161 166//166 60//60
f 167//167 53//53 100//100
f 164//164 96//96 76//76
f 167//167 79//79 153//153
f 120//120 134//134 168//168
f 162//162 106//106 168//168
f 128//128 170//170 137//137
f 41//41 116//116 171//171
f 87//87 173//173 136//136
f 144//144 174//174 175//175
f 143//143 176//176 177//177
f 178//178 177//177 93//93
f 179//179 178//178 163//163
f 165//165 80//80 99//99
f 70//70 159//159 142//142
f 157//157 181//181 107//107
f 95//95 85//85 155//155
f 130//130 81//81 75//75
f 151//151 181//181 176//176
f 174//174 179//179 103//103
f 182//182 148//148 71//71
f 182//182 175//175 183//183
f 183//183 109//109 180//180
f 170//170 94//94 156//156
f 166//166 171//171 173//173
f 9//9 10//10 62//62
f 61//61 62//62 10//10
f 15//15 63//63 65//65
f 65//65 64//64 60//60
f 18//18 66//66 19//19
f 67//67 17//17 68//68
f 17//17 67//67 22//22
f 21//21 68//68 5//5
f 20//20 69//69 71//71
f 69//69 33//33 70//70
f 71//71 70//70 13//13
f 2//2 72//72 73//73
f 72//72 24//24 73//73
f 74//74 73//73 14//14
f 1//1 2//2 74//74
f 58//58 75//75 77//77
f 75//75 52//52 76//76
f 77//77 76//76 25//25
f 26//26 78//78 79//79
f 79//79 19//19 26//26
f 22//22 66//66 17//17
f 5//5 80//80 82//82
f 80//80 52//52 81//81
f 82//82 81//81 4//4
f 15//15 83//83 63//63
f 83//83 137//137 84//84
f 63//63 84//84 64//64
f 14//14 85//85 87//87
f 85//85 56//56 86//86
f 87//87 86//86 60//60
f 88//88 46//46 126//126
f 11//11 89//89 90//90
f 32//32 5//5 82//82
f 91//91 82//82 4//4
f 28//28 92//92 94//94
f 92//92 7//7 93//93
f 94//94 93//93 51//51
f 56//56 95//95 97//97
f 95//95 25//25 96//96
f 97//97 96//96 16//16
f 17//17 98//98 68//68
f 98//98 34//34 99//99
f 68//68 99//99 5//5
f 8//8 100//100 101//101
f 100//100 18//18 167//167
f 53//53 102//102 101//101
f 102//102 6//6 103//103
f 101//101 103//103 8//8
f 35//35 36//36 104//104
f 28//28 105//105 92//92
f 105//105 54//54 106//106
f 92//92 106//106 7//7
f 112//112 187//187 108//108
f 109//109 6//6 102//102
f 110//110 102//102 53//53
f 111//111 57//57 112//112
f 113//113 3//3 61//61
f 58//58 61//61 3//3
f 40//40 108//108 114//114
f 114//114 108//108 187//187
f 17//17 66//66 98//98
f 66//66 18//18 115//115
f 98//98 115//115 34//34
f 42//42 116//116 41//41
f 15//15 117//117 119//119
f 117//117 56//56 118//118
f 119//119 118//118 54//54
f 56//56 97//97 118//118
f 97//97 16//16 120//120
f 118//118 120//120 54//54
f 43//43 122//122 121//121
f 44//44 123//123 124//124
f 123//123 44//44 45//45
f 46//46 123//123 126//126
f 123//123 45//45 125//125
f 126//126 125//125 12//12
f 137//137 83//83 128//128
f 83//83 15//15 127//127
f 128//128 127//127 28//28
f 137//137 104//104 84//84
f 104//104 36//36 129//129
f 84//84 129//129 64//64
f 11//11 90//90 131//131
f 131//131 188//188 3//3
f 16//16 132//132 134//134
f 132//132 34//34 133//133
f 134//134 133//133 55//55
f 184//184 135//135 136//136
f 135//135 1//1 74//74
f 136//136 74//74 14//14
f 137//137 170//170 190//190
f 104//104 138//138 35//35
f 25//25 139//139 77//77
f 139//139 9//9 62//62
f 77//77 62//62 58//58
f 34//34 115//115 133//133
f 115//115 18//18 140//140
f 133//133 140//140 55//55
f 18//18 100//100 140//140
f 100//100 8//8 141//141
f 140//140 141//141 55//55
f 56//56 117//117 86//86
f 117//117 15//15 65//65
f 86//86 65//65 60//60
f 28//28 127//127 105//105
f 127//127 15//15 119//119
f 105//105 119//119 54//54
f 13//13 142//142 144//144
f 142//142 23//23 143//143
f 144//144 143//143 59//59
f 145//145 108//108 40//40
f 1//1 135//135 146//146
f 146//146 184//184 116//116
f 146//146 116//116 42//42
f 45//45 147//147 125//125
f 147//147 20//20 148//148
f 125//125 148//148 12//12
f 57//57 149//149 150//150
f 150//150 149//149 29//29
f 149//149 49//49 29//29
f 35//35 138//138 49//49
f 27//27 114//114 152//152
f 114//114 187//187 151//151
f 152//152 151//151 23//23
f 53//53 153//153 110//110
f 153//153 30//30 186//186
f 110//110 186//186 185//185
f 31//31 186//186 30//30
f 24//24 154//154 73//73
f 154//154 24//24 9//9
f 9//9 139//139 154//154
f 139//139 25//25 155//155
f 154//154 155//155 14//14
f 57//57 150//150 157//157
f 157//157 156//156 51//51
f 33//33 158//158 159//159
f 158//158 27//27 152//152
f 159//159 152//152 23//23
f 36//36 160//160 129//129
f 160//160 39//39 161//161
f 129//129 161//161 64//64
f 7//7 162//162 163//163
f 162//162 55//55 141//141
f 163//163 141//141 8//8
f 34//34 132//132 165//165
f 132//132 16//16 164//164
f 165//165 164//164 52//52
f 27//27 40//40 114//114
f 161//161 39//39 166//166
f 64//64 161//161 60//60
f 19//19 167//167 18//18
f 52//52 164//164 76//76
f 164//164 16//16 96//96
f 76//76 96//96 25//25
f 3//3 130//130 58//58
f 53//53 167//167 153//153
f 167//167 19//19 79//79
f 153//153 79//79 30//30
f 89//89 91//91 90//90
f 91//91 4//4 90//90
f 54//54 120//120 168//168
f 120//120 16//16 134//134
f 168//168 134//134 55//55
f 55//55 162//162 168//168
f 162//162 7//7 106//106
f 168//168 106//106 54//54
f 49//49 149//149 169//169
f 169//169 149//149 111//111
f 128//128 28//28 170//170
f 172//172 41//41 171//171
f 116//116 184//184 171//171
f 172//172 171//171 166//166
f 14//14 87//87 136//136
f 87//87 60//60 173//173
f 136//136 173//173 184//184
f 13//13 144//144 175//175
f 144//144 59//59 174//174
f 175//175 174//174 6//6
f 59//59 143//143 177//177
f 143//143 23//23 176//176
f 177//177 176//176 51//51
f 7//7 178//178 93//93
f 178//178 59//59 177//177
f 93//93 177//177 51//51
f 8//8 179//179 163//163
f 179//179 59//59 178//178
f 163//163 178//178 7//7
f 34//34 165//165 99//99
f 165//165 52//52 80//80
f 99//99 80//80 5//5
f 13//13 70//70 142//142
f 70//70 33//33 159//159
f 142//142 159//159 23//23
f 180//180 126//126 12//12
f 57//57 157//157 107//107
f 157//157 51//51 181//181
f 107//107 181//181 187//187
f 25//25 95//95 155//155
f 95//95 56//56 85//85
f 155//155 85//85 14//14
f 58//58 130//130 75//75
f 130//130 4//4 81//81
f 75//75 81//81 52//52
f 23//23 151//151 176//176
f 151//151 187//187 181//181
f 176//176 181//181 51//51
f 6//6 174//174 103//103
f 174//174 59//59 179//179
f 103//103 179//179 8//8
f 13//13 182//182 71//71
f 182//182 12//12 148//148
f 71//71 148//148 20//20
f 12//12 182//182 183//183
f 182//182 13//13 175//175
f 183//183 175//175 6//6
f 12//12 183//183 180//180
f 183//183 6//6 109//109
f 180//180 109//109 185//185
f 150//150 190//190 156//156
f 170//170 28//28 94//94
f 156//156 94//94 51//51
f 60//60 166//166 173//173
f 173//173 171//171 184//184
f 135//135 184//184 146//146
f 180//180 185//185 126//126
f 38//38 43//43 121//121
f 185//185 109//109 110//110
f 121//121 189//189 108//108
f 38//38 121//121 145//145
f 186//186 88//88 185//185
f 186//186 31//31 88//88
f 107//107 187//187 112//112
f 89//89 11//11 47//47
f 189//189 37//37 111//111
f 90//90 188//188 131//131
f 112//112 57//57 107//107
f 130//130 188//188 4//4
f 188//188 130//130 3//3
f 29//29 49//49 138//138
f 90//90 4//4 188//188
f 189//189 112//112 108//108
f 189//189 121//121 122//122
f 189//189 111//111 112//112
f 137//137 190//190 138//138
f 190//190 150//150 29//29
f 138//138 190//190 29//29
f 190//190 170//170 156//156
f 185//185 88//88 126//126
f 122//122 37//37 189//189
f 169//169 111//111 37//37
f 166//166 39//39 172//172
f 57//57 111//111 149//149
# 329 faces, 0 coords texture

# End of File
