####
#
# OBJ File Generated by Meshlab
#
####
# Object 668_C121_M_4.obj
#
# Vertices: 157
# Faces: 270
#
####
vn 5.242839 -3.462448 -0.006455
v -81.362413 39.490382 -45.229250
vn 5.261351 -3.434246 0.030379
v -80.363841 41.023195 -42.375455
vn 2.677346 -1.685744 -0.010879
v -77.914800 44.862500 -47.788100
vn 5.280576 -3.404968 -0.003100
v -80.105216 41.432015 -46.240896
vn 5.246804 -3.456291 0.053263
v -81.319294 39.584873 -41.252681
vn 5.241372 -3.464820 0.020855
v -81.366751 39.489549 -43.333315
vn 2.630287 -1.717421 0.034299
v -80.648800 40.678300 -38.000000
vn 5.258958 -3.437756 0.058779
v -81.294904 39.657482 -39.430124
vn 2.638483 -1.664762 -0.010580
v -77.798300 45.053600 -43.512100
vn 5.279181 -3.406594 0.022296
v -79.408583 42.497493 -41.696574
vn 2.602073 -1.760241 0.004168
v -81.893300 38.689900 -50.000000
vn 5.198405 -3.529105 -0.014134
v -82.989112 37.083202 -47.417694
vn 2.639353 -1.703938 -0.005235
v -80.412500 40.959600 -50.000000
vn 2.652712 -1.682855 -0.004370
v -79.194300 42.846500 -50.000000
vn 2.580380 -1.617489 -0.001853
v -77.744600 45.127300 -41.907300
vn 5.308397 -3.360690 0.037913
v -78.621096 43.732505 -40.751493
vn 2.604832 -1.752103 -0.014820
v -83.352200 36.524100 -44.897700
vn 2.607933 -1.744420 0.005062
v -83.349000 36.518700 -43.078600
vn 2.708353 -1.707237 0.005297
v -77.903600 44.896200 -45.920900
vn 5.228851 -3.483744 0.029449
v -82.365487 37.998128 -42.212774
vn 1.304358 -0.885542 0.019188
v -83.377100 36.567300 -38.000000
vn 2.599518 -1.763766 0.034796
v -82.898400 37.272400 -38.000000
vn 2.636921 -1.707439 0.039955
v -79.313500 42.712200 -38.000000
vn 2.611116 -1.632532 0.031404
v -77.802600 45.062000 -39.727900
vn 5.292018 -3.385901 0.071434
v -78.873961 43.352535 -39.756104
vn 2.606180 -1.746935 0.024710
v -83.354600 36.528300 -41.140400
vn 2.605066 -1.758812 -0.018414
v -83.355100 36.529200 -45.592100
vn 1.297690 -0.888166 -0.003890
v -83.364800 36.546000 -50.000000
vn 2.599219 -1.765075 -0.009880
v -83.359900 36.538300 -47.937000
vn 1.414956 -0.891090 0.022771
v -77.912600 44.923300 -38.000000
vn 2.618214 -1.736083 0.023887
v -81.980400 38.623400 -38.000000
vn 2.619909 -1.733467 0.006754
v -81.626800 39.087100 -50.000000
vn 1.331312 -0.825833 -0.017829
v -77.936000 44.886100 -50.000000
vn 5.256792 -3.440883 0.069738
v -80.262858 41.224817 -40.033763
vn 5.244627 -3.459875 0.002037
v -81.321260 39.557519 -47.207165
vn 5.201503 -3.524426 0.005049
v -82.145914 38.319071 -48.774507
vn 5.287118 -3.394812 -0.000830
v -79.605827 42.209339 -48.201859
vn 5.309872 -3.359021 -0.024038
v -78.669151 43.667950 -42.887786
vn 5.300990 -3.372956 0.008876
v -78.844132 43.396060 -46.825633
vn 5.221507 -3.494828 -0.005011
v -82.387661 37.956091 -44.193294
vn 5.225189 -3.488761 0.053978
v -82.366512 38.020750 -39.897170
vn 2.601534 -1.761653 0.037913
v -83.371200 36.557100 -38.871800
vn 5.213180 -3.507258 -0.009504
v -82.416978 37.926039 -46.184362
vn 5.271919 -3.418358 0.005556
v -80.730073 40.464951 -47.735267
vn 5.308597 -3.361088 -0.010474
v -78.833757 43.421426 -44.832486
vn 5.240770 -3.465699 0.039160
v -81.345662 39.532858 -42.312743
vn 5.252588 -3.447879 0.022306
v -80.861409 40.262117 -42.849088
vn 5.252828 -3.447153 0.054647
v -80.826968 40.326304 -41.791353
vn 2.636331 -1.708374 0.028688
v -81.314600 39.650850 -38.000000
vn 5.263208 -3.431436 0.041918
v -81.590860 39.211402 -38.781842
vn 5.266486 -3.426073 0.066128
v -81.007096 40.112099 -38.791105
vn 2.607837 -1.751770 -0.009656
v -83.350600 36.521400 -43.988150
vn 5.216236 -3.502682 -0.022374
v -82.881925 37.222301 -44.582109
vn 5.221911 -3.494232 -0.002036
v -82.869144 37.236221 -43.628008
vn 5.234846 -3.474675 0.037856
v -81.849041 38.781245 -41.738029
vn 5.230220 -3.481704 0.027630
v -81.864523 38.746062 -42.790574
vn 2.661467 -1.668813 0.035512
v -77.857600 44.992650 -38.863950
vn 5.314585 -3.350414 0.088383
v -78.445074 44.055985 -38.853243
vn 5.323582 -3.336553 0.072807
v -78.306862 44.257977 -39.716542
vn 2.670034 -1.655313 0.021460
v -77.773600 45.094650 -40.817600
vn 5.332381 -3.322745 0.055630
v -78.145542 44.499296 -40.463365
vn 5.326138 -3.332971 0.011429
v -78.177804 44.435371 -41.380190
vn 2.611745 -1.745889 0.016238
v -83.351800 36.523500 -42.109500
vn 5.225847 -3.488305 0.023903
v -82.863468 37.248876 -42.659238
vn 5.224330 -3.490501 0.034534
v -82.862331 37.260092 -41.641692
vn 5.212547 -3.508114 -0.029071
v -82.900669 37.201680 -45.558643
vn 5.310539 -3.357987 0.011294
v -78.379668 44.128925 -47.299023
vn 5.298706 -3.376666 -0.009253
v -78.792307 43.479239 -47.649781
vn 5.316610 -3.347925 -0.038694
v -78.463966 43.997836 -48.343885
vn 2.599370 -1.764290 -0.012759
v -83.362350 36.542150 -48.968500
vn 5.190194 -3.541124 -0.021940
v -83.145888 36.860816 -48.933501
vn 5.255572 -3.442804 0.066894
v -79.796185 41.928882 -40.459160
vn 5.257677 -3.439536 0.069620
v -80.293058 41.153690 -41.244583
vn 5.265470 -3.427901 0.034742
v -79.886350 41.760105 -41.997840
vn 5.181097 -3.554499 -0.013217
v -82.871099 37.263090 -49.286393
vn 5.188006 -3.544404 -0.011955
v -82.796104 37.368413 -48.319204
vn 5.205304 -3.518116 0.077941
v -82.920762 37.206730 -39.605850
vn 5.200820 -3.524942 0.068121
v -82.682920 37.573290 -38.878732
vn 2.598737 -1.764987 0.031453
v -82.439400 37.947900 -38.000000
vn 5.226397 -3.486914 0.044305
v -82.142305 38.370115 -38.877789
vn 2.635837 -1.709317 -0.014260
v -81.019650 40.023350 -50.000000
vn 5.266755 -3.426229 -0.010660
v -81.042601 39.983151 -49.423719
vn 5.278540 -3.408110 -0.005581
v -80.534886 40.766026 -48.849946
vn 5.181801 -3.553484 -0.010322
v -82.417128 37.924137 -49.166349
vn 5.234420 -3.475404 0.014244
v -81.649437 39.059502 -48.944010
vn 5.265558 -3.428108 -0.007290
v -80.862160 40.257310 -44.786246
vn 5.270835 -3.420012 -0.013002
v -80.848011 40.285140 -45.723755
vn 5.274507 -3.414341 -0.015078
v -80.397160 40.979268 -45.629492
vn 5.259764 -3.436318 0.070693
v -80.822898 40.374675 -39.684967
vn 5.256035 -3.441979 0.072354
v -80.416731 41.012854 -38.937057
vn 2.604002 -1.757457 -0.011215
v -83.357500 36.533750 -46.764550
vn 5.206212 -3.517577 -0.016737
v -82.919080 37.182358 -46.546712
vn 5.289441 -3.391192 -0.002735
v -79.251727 42.760988 -47.442038
vn 5.295624 -3.381529 -0.002109
v -79.066556 43.052368 -48.335103
vn 2.653409 -1.681136 0.052980
v -78.613050 43.817750 -38.000000
vn 5.283588 -3.398905 0.084257
v -79.075332 43.060654 -38.871268
vn 5.286749 -3.395300 -0.011552
v -79.765199 41.948102 -43.741396
vn 5.267580 -3.425016 0.001960
v -80.369416 41.013637 -43.385567
vn 5.289069 -3.391621 -0.009483
v -79.531573 42.307997 -42.746932
vn 5.221503 -3.494835 -0.007959
v -81.887993 38.703724 -44.726932
vn 5.216262 -3.502633 -0.024426
v -82.408880 37.931258 -45.167011
vn 5.214489 -3.505308 -0.016219
v -81.897830 38.695926 -45.697257
vn 5.223477 -3.491902 0.013114
v -81.792600 38.850172 -47.847737
vn 5.215832 -3.503340 0.002589
v -81.880756 38.723516 -46.727070
vn 5.203991 -3.520843 0.004656
v -82.417065 37.922275 -47.348858
vn 5.270552 -3.420468 0.000796
v -80.764236 40.416000 -46.566366
vn 5.276004 -3.412030 0.004403
v -80.351839 41.049267 -47.069305
vn 5.340300 -3.309726 -0.069966
v -78.344201 44.212512 -49.280510
vn 2.665023 -1.662966 -0.042407
v -77.925400 44.874300 -48.894050
vn 2.654965 -1.679502 -0.006316
v -77.850950 44.974900 -44.716500
vn 5.312222 -3.355342 -0.018551
v -78.305320 44.254916 -44.260814
vn 5.313943 -3.352642 -0.000016
v -78.358479 44.174938 -45.339484
vn 5.230124 -3.481785 0.036320
v -82.360375 38.017272 -41.114001
vn 5.216092 -3.502369 0.058804
v -82.867700 37.263403 -40.553826
vn 5.227040 -3.486578 0.015485
v -82.375859 37.977861 -43.224874
vn 5.226606 -3.487238 0.013017
v -81.878277 38.720874 -43.777144
vn 5.241151 -3.464937 0.051081
v -81.830868 38.819958 -40.650004
vn 2.657965 -1.674701 0.014215
v -77.909200 44.879350 -46.854500
vn 5.316927 -3.347863 0.022023
v -78.376600 44.141751 -46.351745
vn 5.302508 -3.370655 -0.020081
v -79.064745 43.042421 -42.363714
vn 5.308853 -3.360580 -0.021716
v -78.613441 43.746791 -41.889214
vn 5.294538 -3.383048 0.003986
v -78.985490 43.159363 -41.468185
vn 5.250389 -3.450974 0.046774
v -81.768447 38.933955 -39.651075
vn 5.242714 -3.462860 0.009620
v -81.374269 39.474909 -44.288348
vn 5.281905 -3.402913 -0.004261
v -79.980623 41.628708 -49.054530
vn 5.286278 -3.396127 0.000978
v -79.815480 41.883001 -47.197988
vn 5.259509 -3.437430 0.006077
v -80.878718 40.233629 -43.832536
vn 5.242866 -3.462331 -0.007964
v -81.351943 39.508350 -46.195324
vn 2.639355 -1.703939 0.000353
v -79.803400 41.903050 -50.000000
vn 5.287662 -3.393924 0.005765
v -79.413481 42.507235 -49.135308
vn 5.314820 -3.351194 -0.024663
v -78.241622 44.348568 -43.270664
vn 2.657770 -1.675027 -0.012126
v -77.771450 45.090450 -42.709700
vn 5.316246 -3.348916 -0.026511
v -78.197625 44.411663 -42.362402
vn 5.269155 -3.422076 0.053894
v -79.217618 42.806844 -40.701512
vn 5.304787 -3.367051 0.013360
v -78.869353 43.361637 -45.832896
vn 5.299143 -3.375933 -0.012150
v -79.381059 42.562565 -45.172013
vn 2.590173 -1.777802 -0.005490
v -82.629050 37.617950 -50.000000
vn 2.603395 -1.757910 0.041125
v -83.362900 36.542700 -40.006100
vn 5.253175 -3.446445 0.066865
v -81.300916 39.632479 -40.244936
vn 5.258341 -3.438535 0.068828
v -80.791308 40.403321 -40.699628
vn 5.290163 -3.390066 0.003211
v -79.437822 42.472119 -46.324179
vn 5.256900 -3.440781 0.066489
v -79.463342 42.449988 -39.752800
vn 2.626122 -1.723916 0.034665
v -79.981150 41.695250 -38.000000
vn 5.253397 -3.446099 0.068070
v -79.877698 41.827619 -39.249295
vn 5.311499 -3.356453 -0.024173
v -78.755711 43.537867 -43.862849
vn 5.322592 -3.338408 -0.025903
v -78.847366 43.395406 -49.188970
vn 2.673611 -1.649443 -0.027343
v -78.565150 43.866300 -50.000000
vn 5.290548 -3.389414 -0.014608
v -79.827514 41.861771 -45.407525
vn 5.282374 -3.402183 -0.002630
v -80.157346 41.351077 -47.995697
vn 5.274341 -3.414635 -0.000381
v -79.965700 41.638199 -42.939963
vn 5.304348 -3.367764 -0.019160
v -79.204521 42.825743 -43.404225
vn 5.255716 -3.443064 0.003138
v -81.151614 39.814267 -48.284191
vn 5.302367 -3.370816 -0.026803
v -79.341897 42.615277 -44.322919
vn 5.288696 -3.392219 -0.022471
v -79.876881 41.777905 -44.531857
vn 5.255219 -3.443341 0.066877
v -79.538606 42.353691 -38.788857
vn 5.272546 -3.417336 -0.009105
v -80.293624 41.130524 -44.248601
vn 5.257309 -3.440148 0.066954
v -79.721990 42.028452 -41.171386
# 157 vertices, 0 vertices normals

f 46//46 47//47 48//48
f 49//49 50//50 51//51
f 52//52 53//53 54//54
f 55//55 56//56 46//46
f 21//21 42//42 22//22
f 57//57 58//58 59//59
f 60//60 61//61 62//62
f 63//63 64//64 65//65
f 67//67 68//68 69//69
f 28//28 71//71 70//70
f 72//72 73//73 157//157
f 59//59 16//16 61//61
f 71//71 75//75 76//76
f 41//41 78//78 77//77
f 79//79 78//78 80//80
f 81//81 13//13 82//82
f 83//83 152//152 82//82
f 86//86 87//87 88//88
f 51//51 89//89 90//90
f 27//27 91//91 92//92
f 68//68 93//93 94//94
f 58//58 95//95 96//96
f 99//99 74//74 150//150
f 100//100 101//101 102//102
f 103//103 104//104 105//105
f 69//69 108//108 109//109
f 110//110 111//111 112//112
f 65//65 113//113 114//114
f 64//64 54//54 115//115
f 116//116 56//56 115//115
f 113//113 55//55 117//117
f 118//118 119//119 67//67
f 11//11 32//32 85//85
f 120//120 121//121 122//122
f 80//80 123//123 50//50
f 124//124 116//116 100//100
f 66//66 101//101 53//53
f 125//125 149//149 83//83
f 126//126 107//107 149//149
f 47//47 127//127 98//98
f 86//86 127//127 124//124
f 151//151 120//120 99//99
f 125//125 129//129 130//130
f 131//131 132//132 133//133
f 16//16 134//134 122//122
f 112//112 135//135 119//119
f 75//75 137//137 84//84
f 138//138 114//114 77//77
f 139//139 140//140 89//89
f 93//93 141//141 126//126
f 12//12 105//105 92//92
f 104//104 128//128 102//102
f 134//134 142//142 72//72
f 143//143 90//90 144//144
f 151//151 153//153 145//145
f 140//140 48//48 73//73
f 133//133 62//62 121//121
f 139//139 123//123 117//117
f 94//94 130//130 146//146
f 146//146 147//147 108//108
f 111//111 131//131 145//145
f 135//135 136//136 141//141
f 144//144 142//142 155//155
f 5//5 46//46 48//48
f 46//46 6//6 47//47
f 48//48 47//47 2//2
f 7//7 49//49 51//51
f 49//49 31//31 50//50
f 51//51 50//50 8//8
f 18//18 52//52 54//54
f 52//52 17//17 53//53
f 54//54 53//53 40//40
f 5//5 55//55 46//46
f 55//55 20//20 56//56
f 46//46 56//56 6//6
f 24//24 57//57 59//59
f 57//57 30//30 58//58
f 59//59 58//58 25//25
f 15//15 60//60 62//62
f 60//60 24//24 61//61
f 62//62 61//61 16//16
f 26//26 63//63 65//65
f 63//63 18//18 64//64
f 65//65 64//64 20//20
f 17//17 27//27 66//66
f 3//3 67//67 69//69
f 67//67 39//39 68//68
f 12//12 29//29 76//76
f 70//70 71//71 29//29
f 72//72 34//34 73//73
f 74//74 73//73 2//2
f 24//24 59//59 61//61
f 59//59 25//25 16//16
f 76//76 75//75 84//84
f 22//22 42//42 78//78
f 77//77 78//78 42//42
f 31//31 79//79 80//80
f 79//79 22//22 78//78
f 80//80 78//78 41//41
f 32//32 81//81 82//82
f 13//13 83//83 82//82
f 83//83 44//44 152//152
f 86//86 1//1 87//87
f 7//7 51//51 90//90
f 51//51 8//8 89//89
f 90//90 89//89 34//34
f 91//91 12//12 92//92
f 12//12 91//91 29//29
f 92//92 43//43 66//66
f 92//92 66//66 27//27
f 69//69 68//68 94//94
f 68//68 39//39 93//93
f 94//94 93//93 37//37
f 25//25 58//58 96//96
f 58//58 30//30 95//95
f 96//96 95//95 23//23
f 98//98 97//97 150//150
f 99//99 10//10 74//74
f 1//1 100//100 102//102
f 100//100 40//40 101//101
f 102//102 101//101 43//43
f 36//36 103//103 105//105
f 103//103 35//35 104//104
f 105//105 104//104 43//43
f 107//107 106//106 44//44
f 3//3 69//69 109//109
f 109//109 108//108 33//33
f 19//19 110//110 112//112
f 110//110 9//9 111//111
f 112//112 111//111 45//45
f 26//26 65//65 114//114
f 65//65 20//20 113//113
f 114//114 113//113 41//41
f 20//20 64//64 115//115
f 64//64 18//18 54//54
f 115//115 54//54 40//40
f 40//40 116//116 115//115
f 116//116 6//6 56//56
f 115//115 56//56 20//20
f 41//41 113//113 117//117
f 113//113 20//20 55//55
f 117//117 55//55 5//5
f 3//3 118//118 67//67
f 118//118 19//19 119//119
f 67//67 119//119 39//39
f 10//10 120//120 122//122
f 120//120 38//38 121//121
f 122//122 121//121 16//16
f 31//31 80//80 50//50
f 80//80 41//41 123//123
f 50//50 123//123 8//8
f 1//1 124//124 100//100
f 124//124 6//6 116//116
f 100//100 116//116 40//40
f 17//17 66//66 53//53
f 66//66 43//43 101//101
f 53//53 101//101 40//40
f 13//13 125//125 83//83
f 125//125 37//37 149//149
f 83//83 149//149 44//44
f 37//37 126//126 149//149
f 126//126 4//4 107//107
f 2//2 47//47 98//98
f 47//47 6//6 127//127
f 98//98 127//127 156//156
f 1//1 86//86 124//124
f 124//124 127//127 6//6
f 128//128 87//87 1//1
f 97//97 153//153 151//151
f 151//151 38//38 120//120
f 99//99 120//120 10//10
f 37//37 125//125 130//130
f 125//125 13//13 129//129
f 130//130 129//129 14//14
f 38//38 131//131 133//133
f 131//131 9//9 132//132
f 133//133 132//132 15//15
f 16//16 25//25 134//134
f 122//122 134//134 10//10
f 19//19 112//112 119//119
f 112//112 45//45 135//135
f 119//119 135//135 39//39
f 136//136 45//45 153//153
f 84//84 137//137 11//11
f 42//42 138//138 77//77
f 138//138 26//26 114//114
f 77//77 114//114 41//41
f 8//8 139//139 89//89
f 139//139 5//5 140//140
f 89//89 140//140 34//34
f 37//37 93//93 126//126
f 93//93 39//39 141//141
f 126//126 141//141 4//4
f 12//12 76//76 105//105
f 76//76 36//36 105//105
f 92//92 105//105 43//43
f 43//43 104//104 102//102
f 104//104 35//35 128//128
f 102//102 128//128 1//1
f 35//35 152//152 44//44
f 152//152 103//103 85//85
f 152//152 35//35 103//103
f 85//85 103//103 36//36
f 10//10 134//134 157//157
f 134//134 25//25 142//142
f 23//23 143//143 155//155
f 143//143 7//7 90//90
f 38//38 151//151 145//145
f 145//145 153//153 45//45
f 34//34 140//140 73//73
f 140//140 5//5 48//48
f 73//73 48//48 2//2
f 38//38 133//133 121//121
f 133//133 15//15 62//62
f 121//121 62//62 16//16
f 5//5 139//139 117//117
f 139//139 8//8 123//123
f 117//117 123//123 41//41
f 69//69 94//94 146//146
f 94//94 37//37 130//130
f 146//146 130//130 14//14
f 69//69 146//146 108//108
f 146//146 14//14 147//147
f 108//108 147//147 33//33
f 45//45 111//111 145//145
f 111//111 9//9 131//131
f 145//145 131//131 38//38
f 39//39 135//135 141//141
f 135//135 45//45 136//136
f 148//148 88//88 4//4
f 96//96 142//142 25//25
f 82//82 85//85 32//32
f 141//141 136//136 148//148
f 141//141 148//148 4//4
f 76//76 29//29 71//71
f 149//149 107//107 44//44
f 75//75 71//71 28//28
f 97//97 154//154 153//153
f 75//75 28//28 137//137
f 76//76 84//84 36//36
f 156//156 86//86 88//88
f 98//98 150//150 2//2
f 150//150 74//74 2//2
f 97//97 156//156 154//154
f 86//86 156//156 127//127
f 106//106 107//107 4//4
f 106//106 87//87 128//128
f 106//106 35//35 44//44
f 35//35 106//106 128//128
f 97//97 151//151 99//99
f 150//150 97//97 99//99
f 85//85 82//82 152//152
f 144//144 90//90 34//34
f 144//144 34//34 72//72
f 154//154 156//156 88//88
f 148//148 136//136 154//154
f 153//153 154//154 136//136
f 155//155 142//142 96//96
f 155//155 143//143 144//144
f 23//23 155//155 96//96
f 154//154 88//88 148//148
f 72//72 142//142 144//144
f 4//4 88//88 106//106
f 98//98 156//156 97//97
f 157//157 73//73 74//74
f 10//10 157//157 74//74
f 36//36 84//84 11//11
f 157//157 134//134 72//72
f 85//85 36//36 11//11
f 88//88 87//87 106//106
# 270 faces, 0 coords texture

# End of File
