####
#
# OBJ File Generated by Meshlab
#
####
# Object 679_C123_M_3.obj
#
# Vertices: 146
# Faces: 249
#
####
vn 2.929109 -1.859334 -0.021792
v -78.569900 45.108600 40.859000
vn 2.265654 -1.428591 -0.021245
v -78.409600 45.352300 41.730300
vn 5.297278 -3.378661 -0.040968
v -80.484154 41.990069 46.482253
vn 2.642789 -1.698220 -0.018441
v -80.698300 41.604500 50.000000
vn 5.255157 -3.443436 -0.039192
v -81.447408 40.469962 47.993516
vn 5.188220 -3.541142 -0.144663
v -82.710658 38.751283 41.535451
vn 2.590750 -1.774202 -0.077844
v -83.742100 37.199500 42.582100
vn 5.219179 -3.496879 -0.080773
v -82.004481 39.670696 44.636229
vn 5.337070 -3.315441 -0.041901
v -79.241268 43.928043 48.876469
vn 2.666938 -1.659844 -0.026979
v -79.298000 43.815300 50.000000
vn 5.180019 -3.554275 -0.112790
v -82.756842 38.757931 39.518971
vn 5.206032 -3.517528 -0.048829
v -82.732156 38.546957 48.354738
vn 2.590801 -1.776435 -0.019037
v -83.263000 37.739500 50.000000
vn 2.591401 -1.765632 -0.021592
v -83.695500 37.118800 48.789200
vn 2.599774 -1.769286 -0.023004
v -83.705300 37.135700 47.172000
vn 1.289851 -0.897365 -0.002485
v -83.696300 37.120100 50.000000
vn 1.299539 -0.898267 -0.028588
v -83.798900 37.297800 38.000000
vn 2.589587 -1.782490 -0.069285
v -83.771700 37.250800 40.503100
vn 2.616258 -1.738621 -0.055134
v -81.150000 41.174000 38.000000
vn 5.227734 -3.482628 -0.130718
v -81.617157 40.311513 42.734276
vn 5.273250 -3.413725 -0.089230
v -80.544216 41.976220 41.432706
vn 5.255500 -3.441744 -0.105447
v -80.673911 41.850994 39.436531
vn 2.638829 -1.659499 -0.015278
v -78.493400 45.141600 46.307800
vn 2.838608 -1.787279 -0.030228
v -78.584600 45.028700 44.333600
vn 5.319080 -3.344126 -0.044501
v -79.434440 43.634745 47.116809
vn 2.635266 -1.709875 -0.044547
v -79.875700 43.113800 38.000000
vn 2.584162 -1.606621 -0.007173
v -78.459200 45.197400 47.653000
vn 2.593090 -1.755363 -0.041678
v -83.710300 37.144600 44.915000
vn 1.317400 -0.838737 -0.029190
v -78.583000 45.138700 38.000000
vn 2.645500 -1.693860 -0.046965
v -79.325100 43.970500 38.000000
vn 2.649130 -1.695311 -0.034850
v -78.569600 45.118400 39.132100
vn 2.614191 -1.741857 -0.021180
v -82.082100 39.488300 50.000000
vn 1.379232 -0.851443 -0.009947
v -78.514100 45.093000 50.000000
vn 2.592077 -1.774608 -0.049101
v -82.565100 39.076900 38.000000
vn 5.208992 -3.511451 -0.118887
v -81.697526 40.282972 40.513124
vn 5.314257 -3.351463 -0.068657
v -79.404647 43.766578 42.235772
vn 5.303627 -3.368555 -0.041205
v -80.160765 42.464263 48.552948
vn 5.246969 -3.455868 -0.046900
v -81.645536 40.195157 45.627706
vn 5.285876 -3.395220 -0.075774
v -80.791099 41.526183 44.414614
vn 5.294621 -3.382406 -0.064591
v -79.630935 43.449851 40.265725
vn 5.313681 -3.352736 -0.048144
v -79.596489 43.407081 45.230949
vn 5.207598 -3.515272 -0.037973
v -82.459335 38.968988 46.570645
vn 2.629333 -1.719342 -0.008859
v -81.390200 40.546400 50.000000
vn 5.240642 -3.465718 -0.037600
v -81.742422 40.012658 49.048993
vn 5.271377 -3.418918 -0.034200
v -81.078372 41.027984 49.084807
vn 5.294158 -3.383511 -0.042411
v -80.513583 41.904866 49.187066
vn 5.285727 -3.396628 -0.049222
v -80.799254 41.473116 48.330380
vn 5.181822 -3.550012 -0.156587
v -83.226308 37.976424 42.035170
vn 5.190912 -3.537023 -0.148683
v -82.685252 38.746138 42.522420
vn 5.185445 -3.544974 -0.150729
v -83.214765 37.948737 43.077162
vn 5.197640 -3.527158 -0.148642
v -82.144668 39.562219 42.078076
vn 5.198937 -3.525509 -0.141811
v -82.173974 39.476932 43.050369
vn 5.320817 -3.341510 -0.039140
v -79.674035 43.235061 48.883215
vn 2.654535 -1.680107 -0.016761
v -79.998150 42.709900 50.000000
vn 5.204628 -3.519649 -0.048109
v -82.949018 38.214672 49.208847
vn 5.185269 -3.548101 -0.031599
v -83.383582 37.571486 49.316581
vn 5.200228 -3.525961 -0.059757
v -83.262148 37.761907 48.552684
vn 2.599233 -1.764208 -0.034125
v -83.700400 37.127250 47.980600
vn 5.193833 -3.535443 -0.053802
v -83.171261 37.911768 47.723885
vn 2.581375 -1.789820 -0.051480
v -83.182000 38.187350 38.000000
vn 5.171464 -3.567176 -0.096863
v -82.769620 38.762546 38.686782
vn 5.168386 -3.571168 -0.113125
v -83.259655 38.049652 38.888712
vn 2.586393 -1.782242 -0.061570
v -83.785300 37.274300 39.251550
vn 5.172063 -3.565410 -0.126589
v -83.265791 38.003872 39.956144
vn 2.625573 -1.724256 -0.053961
v -80.512850 42.143900 38.000000
vn 5.250439 -3.449465 -0.111743
v -80.628710 41.950033 38.552476
vn 5.316749 -3.347867 -0.048391
v -79.031903 44.295310 45.751451
vn 5.327014 -3.331727 -0.026349
v -78.940536 44.425981 47.018163
vn 5.313130 -3.353576 -0.048908
v -79.489948 43.560660 46.217695
vn 5.315939 -3.349088 -0.052809
v -79.707525 43.245364 44.254300
vn 5.278840 -3.406874 -0.067749
v -79.680812 43.390051 39.044258
vn 5.281674 -3.401759 -0.094938
v -80.187738 42.594802 39.873432
vn 2.599673 -1.763841 -0.013079
v -83.707800 37.140150 46.043500
vn 5.193710 -3.535911 -0.031944
v -83.311093 37.723253 46.238274
vn 5.266680 -3.424727 -0.102604
v -81.207628 40.910588 43.545885
vn 5.254217 -3.444616 -0.077828
v -81.432144 40.543506 44.522496
vn 5.228433 -3.482435 -0.109310
v -81.767474 40.053568 43.696146
vn 2.651380 -1.684291 -0.054355
v -78.954050 44.554600 38.000000
vn 5.337775 -3.314512 -0.023904
v -78.889141 44.500353 48.286822
vn 5.329332 -3.328016 -0.029568
v -79.324521 43.802744 47.987726
vn 5.291951 -3.385993 -0.090049
v -79.069710 44.350887 38.670667
vn 5.290850 -3.388699 -0.039512
v -79.123330 44.248352 39.680648
vn 2.647851 -1.690681 -0.009297
v -78.569750 45.113500 39.995550
vn 5.299677 -3.374817 -0.042895
v -79.072009 44.323483 40.592203
vn 5.346704 -3.299858 -0.039485
v -78.894038 44.485379 49.329700
vn 2.669270 -1.656646 -0.011253
v -78.486650 45.145200 48.826500
vn 2.677674 -1.642818 -0.028552
v -78.906050 44.454150 50.000000
vn 5.286771 -3.395049 -0.045924
v -80.939321 41.270662 47.230169
vn 5.296018 -3.380456 -0.052994
v -80.335457 42.206804 47.526275
vn 5.197726 -3.528015 -0.121509
v -82.281198 39.285601 43.915061
vn 5.305514 -3.365568 -0.053645
v -79.920076 42.874090 46.796964
vn 5.308679 -3.360743 -0.040490
v -80.047772 42.687412 45.804896
vn 2.589946 -1.776310 -0.080677
v -83.756900 37.225150 41.542600
vn 5.175567 -3.559549 -0.145722
v -83.250426 37.987382 41.018891
vn 5.185005 -3.546344 -0.130314
v -82.742502 38.741823 40.526565
vn 5.283430 -3.400381 -0.031247
v -81.066078 41.087203 46.163600
vn 5.271147 -3.419125 -0.038506
v -81.144688 40.968593 45.252907
vn 2.657184 -1.675722 -0.030519
v -78.497100 45.190500 43.031950
vn 5.317353 -3.346593 -0.066461
v -79.102636 44.230042 43.060178
vn 5.313996 -3.352111 -0.056509
v -78.859844 44.629343 42.270363
vn 5.190258 -3.540921 -0.038932
v -83.024598 38.136415 46.846414
vn 5.206212 -3.517339 -0.035613
v -82.587568 38.769896 47.478682
vn 2.592322 -1.773012 -0.076797
v -83.726200 37.172050 43.748550
vn 5.198787 -3.527480 -0.086976
v -82.660145 38.704678 44.712404
vn 5.314014 -3.352186 -0.046060
v -79.791466 43.059693 47.793017
vn 2.601728 -1.759768 -0.061850
v -81.857550 40.125450 38.000000
vn 5.214094 -3.505508 -0.053243
v -82.378371 39.060915 49.121693
vn 2.603535 -1.758038 -0.022701
v -82.672550 38.613900 50.000000
vn 5.221098 -3.495203 -0.044002
v -82.133455 39.442407 48.189504
vn 5.309094 -3.359831 -0.057391
v -78.962051 44.479073 41.482063
vn 2.664840 -1.663800 0.001266
v -78.476300 45.169500 46.980400
vn 5.309375 -3.359157 -0.069801
v -79.515126 43.613370 41.224699
vn 5.192014 -3.537061 -0.101636
v -82.259312 39.500685 38.946056
vn 5.206073 -3.516230 -0.100246
v -81.761483 40.216611 39.454872
vn 5.193384 -3.534739 -0.111044
v -82.246669 39.491370 40.024990
vn 5.256417 -3.441450 -0.038477
v -81.515587 40.378458 46.807837
vn 5.302324 -3.369236 -0.102943
v -80.087837 42.712353 40.869303
vn 5.255951 -3.440214 -0.123749
v -80.652459 41.848936 40.436507
vn 5.235052 -3.473005 -0.102390
v -81.077313 41.256024 38.942987
vn 5.197827 -3.527399 -0.135773
v -82.192956 39.532326 41.061980
vn 5.217395 -3.498179 -0.137071
v -81.549965 40.455755 41.665408
vn 5.317657 -3.346351 -0.053643
v -79.114859 44.181068 44.662760
vn 2.658481 -1.673724 -0.027045
v -78.539000 45.085150 45.320700
vn 5.209316 -3.512590 -0.052407
v -82.264141 39.271806 45.606242
vn 5.222272 -3.493549 -0.034512
v -81.991822 39.668418 46.357160
vn 5.309458 -3.359043 -0.068361
v -79.989281 42.847105 41.858897
vn 5.226463 -3.485911 -0.104302
v -81.208675 41.033426 39.858683
vn 5.261668 -3.432839 -0.089128
v -81.089619 41.122925 42.565518
vn 5.225705 -3.486105 -0.131042
v -81.115495 41.137709 40.969164
vn 5.302204 -3.370243 -0.075413
v -79.973472 42.851849 42.728065
vn 5.283881 -3.398316 -0.095945
v -80.665400 41.765762 43.277793
vn 5.197496 -3.530116 -0.049094
v -82.818587 38.448549 45.886406
vn 5.222660 -3.493057 -0.028078
v -82.016808 39.625065 47.242090
vn 5.318046 -3.345604 -0.061010
v -78.955143 44.449652 43.792850
vn 5.261134 -3.433700 -0.089793
v -80.225009 42.560324 38.706999
vn 5.243365 -3.460141 -0.091672
v -80.951091 41.346726 41.855782
vn 5.300894 -3.372151 -0.077806
v -80.238685 42.409323 43.851064
vn 5.319393 -3.343458 -0.060307
v -79.347067 43.825465 43.778627
vn 5.282663 -3.401354 -0.049441
v -80.583425 41.905914 42.485210
vn 5.193590 -3.533722 -0.132749
v -82.710600 38.665744 43.600257
vn 5.195889 -3.530511 -0.124065
v -83.241663 37.859328 44.240255
vn 5.202120 -3.523207 -0.053153
v -83.249472 37.820955 45.364481
vn 5.316969 -3.347178 -0.067271
v -79.665646 43.329398 43.229236
vn 5.312683 -3.354389 -0.042423
v -80.132370 42.562818 44.842189
vn 5.209999 -3.510006 -0.115397
v -81.656050 40.393323 38.808393
vn 5.297667 -3.378092 -0.027176
v -80.668726 41.707828 45.425191
# 146 vertices, 0 vertices normals

f 43//43 44//44 45//45
f 48//48 49//49 50//50
f 51//51 52//52 49//49
f 55//55 56//56 57//57
f 58//58 59//59 57//57
f 13//13 16//16 56//56
f 60//60 61//61 62//62
f 63//63 62//62 64//64
f 19//19 65//65 66//66
f 67//67 68//68 69//69
f 137//137 70//70 144//144
f 71//71 72//72 135//135
f 15//15 73//73 74//74
f 75//75 76//76 77//77
f 30//30 78//78 81//81
f 79//79 80//80 68//68
f 81//81 82//82 71//71
f 83//83 84//84 82//82
f 85//85 79//79 86//86
f 33//33 87//87 85//85
f 30//30 71//71 26//26
f 47//47 88//88 89//89
f 77//77 90//90 52//52
f 91//91 92//92 69//69
f 71//71 30//30 81//81
f 93//93 94//94 48//48
f 64//64 95//95 94//94
f 98//98 99//99 100//100
f 59//59 101//101 102//102
f 103//103 50//50 141//141
f 105//105 89//89 91//91
f 55//55 107//107 108//108
f 109//109 44//44 107//107
f 36//36 110//110 100//100
f 53//53 105//105 80//80
f 84//84 110//110 112//112
f 113//113 114//114 115//115
f 96//96 88//88 116//116
f 117//117 118//118 72//72
f 135//135 22//22 66//66
f 120//120 95//95 115//115
f 120//120 121//121 51//51
f 67//67 122//122 123//123
f 124//124 38//38 125//125
f 38//38 76//76 97//97
f 112//112 126//126 117//117
f 128//128 121//121 136//136
f 127//127 118//118 129//129
f 132//132 104//104 124//124
f 109//109 102//102 133//133
f 122//122 70//70 138//138
f 133//133 125//125 116//116
f 74//74 132//132 101//101
f 4//4 43//43 45//45
f 43//43 32//32 44//44
f 45//45 44//44 5//5
f 37//37 46//46 47//47
f 7//7 48//48 50//50
f 48//48 6//6 49//49
f 50//50 49//49 140//140
f 6//6 51//51 49//49
f 51//51 20//20 52//52
f 49//49 52//52 140//140
f 4//4 46//46 54//54
f 54//54 53//53 10//10
f 12//12 55//55 57//57
f 55//55 13//13 56//56
f 57//57 56//56 14//14
f 14//14 58//58 57//57
f 58//58 15//15 59//59
f 57//57 59//59 12//12
f 56//56 16//16 14//14
f 17//17 60//60 62//62
f 60//60 34//34 61//61
f 62//62 61//61 11//11
f 18//18 63//63 64//64
f 63//63 17//17 62//62
f 64//64 62//62 11//11
f 65//65 26//26 135//135
f 71//71 135//135 26//26
f 41//41 67//67 69//69
f 67//67 23//23 68//68
f 69//69 68//68 25//25
f 71//71 40//40 72//72
f 135//135 72//72 22//22
f 20//20 75//75 77//77
f 75//75 39//39 76//76
f 77//77 76//76 8//8
f 78//78 29//29 81//81
f 31//31 81//81 29//29
f 27//27 79//79 68//68
f 79//79 9//9 80//80
f 68//68 80//80 25//25
f 81//81 31//31 82//82
f 71//71 82//82 40//40
f 31//31 83//83 82//82
f 83//83 1//1 84//84
f 82//82 84//84 40//40
f 33//33 85//85 86//86
f 85//85 9//9 79//79
f 86//86 79//79 27//27
f 87//87 10//10 85//85
f 9//9 85//85 10//10
f 37//37 47//47 89//89
f 89//89 88//88 3//3
f 20//20 77//77 52//52
f 77//77 8//8 90//90
f 52//52 90//90 140//140
f 25//25 91//91 69//69
f 91//91 3//3 92//92
f 69//69 92//92 41//41
f 7//7 93//93 48//48
f 93//93 18//18 94//94
f 48//48 94//94 6//6
f 18//18 64//64 94//94
f 64//64 11//11 95//95
f 94//94 95//95 6//6
f 39//39 146//146 97//97
f 97//97 96//96 38//38
f 2//2 98//98 100//100
f 98//98 24//24 134//134
f 100//100 99//99 36//36
f 12//12 59//59 102//102
f 59//59 15//15 101//101
f 102//102 101//101 42//42
f 28//28 103//103 141//141
f 103//103 7//7 50//50
f 141//141 50//50 140//140
f 25//25 105//105 91//91
f 105//105 37//37 89//89
f 91//91 89//89 3//3
f 34//34 106//106 113//113
f 106//106 19//19 145//145
f 13//13 55//55 108//108
f 55//55 12//12 107//107
f 108//108 107//107 32//32
f 12//12 109//109 107//107
f 109//109 5//5 44//44
f 107//107 44//44 32//32
f 1//1 2//2 110//110
f 100//100 110//110 2//2
f 23//23 111//111 68//68
f 111//111 27//27 68//68
f 9//9 53//53 80//80
f 53//53 37//37 105//105
f 80//80 105//105 25//25
f 40//40 84//84 112//112
f 84//84 1//1 110//110
f 112//112 110//110 36//36
f 11//11 113//113 115//115
f 115//115 114//114 35//35
f 104//104 141//141 140//140
f 104//104 90//90 8//8
f 38//38 96//96 116//116
f 96//96 3//3 88//88
f 116//116 88//88 5//5
f 3//3 146//146 92//92
f 40//40 117//117 72//72
f 117//117 21//21 118//118
f 72//72 118//118 22//22
f 66//66 22//22 119//119
f 66//66 119//119 19//19
f 35//35 120//120 115//115
f 120//120 6//6 95//95
f 115//115 95//95 11//11
f 6//6 120//120 51//51
f 120//120 35//35 121//121
f 51//51 121//121 20//20
f 23//23 67//67 123//123
f 67//67 41//41 122//122
f 123//123 122//122 24//24
f 42//42 124//124 125//125
f 124//124 8//8 38//38
f 38//38 8//8 76//76
f 97//97 76//76 39//39
f 145//145 19//19 119//119
f 127//127 119//119 22//22
f 40//40 112//112 117//117
f 112//112 36//36 126//126
f 117//117 126//126 21//21
f 11//11 61//61 113//113
f 61//61 34//34 113//113
f 127//127 35//35 114//114
f 128//128 20//20 121//121
f 129//129 121//121 35//35
f 35//35 127//127 129//129
f 127//127 22//22 118//118
f 129//129 118//118 21//21
f 131//131 75//75 128//128
f 42//42 132//132 124//124
f 124//124 104//104 8//8
f 10//10 53//53 9//9
f 5//5 109//109 133//133
f 109//109 12//12 102//102
f 133//133 102//102 42//42
f 24//24 122//122 134//134
f 122//122 41//41 70//70
f 5//5 133//133 116//116
f 133//133 42//42 125//125
f 116//116 125//125 38//38
f 15//15 74//74 101//101
f 74//74 142//142 132//132
f 101//101 132//132 42//42
f 143//143 36//36 99//99
f 73//73 28//28 142//142
f 131//131 39//39 75//75
f 128//128 75//75 20//20
f 136//136 121//121 129//129
f 98//98 134//134 99//99
f 21//21 136//136 129//129
f 136//136 139//139 128//128
f 21//21 139//139 136//136
f 122//122 138//138 134//134
f 134//134 138//138 99//99
f 130//130 139//139 126//126
f 130//130 143//143 137//137
f 138//138 143//143 99//99
f 73//73 142//142 74//74
f 139//139 21//21 126//126
f 142//142 141//141 104//104
f 142//142 28//28 141//141
f 132//132 142//142 104//104
f 104//104 140//140 90//90
f 143//143 70//70 137//137
f 70//70 143//143 138//138
f 114//114 145//145 119//119
f 47//47 45//45 5//5
f 47//47 5//5 88//88
f 146//146 144//144 92//92
f 46//46 4//4 45//45
f 65//65 135//135 66//66
f 144//144 70//70 41//41
f 92//92 144//144 41//41
f 39//39 144//144 146//146
f 113//113 106//106 145//145
f 47//47 46//46 45//45
f 137//137 39//39 131//131
f 139//139 131//131 128//128
f 130//130 137//137 131//131
f 114//114 119//119 127//127
f 137//137 144//144 39//39
f 139//139 130//130 131//131
f 146//146 96//96 97//97
f 146//146 3//3 96//96
f 130//130 126//126 36//36
f 143//143 130//130 36//36
f 113//113 145//145 114//114
f 54//54 46//46 37//37
f 54//54 37//37 53//53
# 249 faces, 0 coords texture

# End of File
