####
#
# OBJ File Generated by Meshlab
#
####
# Object 684_C124_M_2.obj
#
# Vertices: 146
# Faces: 247
#
####
vn -5.223038 -3.492425 0.028404
v 82.981927 42.155874 -42.096940
vn -5.269339 -3.421105 0.053413
v 81.030867 45.170530 -41.693179
vn -5.265074 -3.428234 0.042903
v 81.897833 43.786323 -42.836450
vn -5.227720 -3.485345 0.026004
v 82.875724 42.295480 -44.208714
vn -5.251678 -3.449189 0.000442
v 81.872314 43.798361 -48.221758
vn -2.566572 -1.668085 0.013920
v 79.904400 46.835800 -47.045700
vn -5.270890 -3.419804 0.032180
v 80.756114 45.514237 -48.447264
vn -2.622403 -1.729736 0.004058
v 82.946900 42.228900 -38.000000
vn -5.268319 -3.423825 0.017146
v 81.608477 44.221201 -44.732657
vn -5.276031 -3.411381 0.047854
v 80.882673 45.344542 -43.523022
vn -2.622984 -1.697532 0.009161
v 79.929200 46.818400 -44.738200
vn -5.200765 -3.525622 0.017189
v 84.042811 40.566987 -44.499620
vn -5.197525 -3.530258 0.032359
v 84.050407 40.582943 -41.351190
vn -2.598477 -1.767794 0.006414
v 84.932200 39.260700 -43.799900
vn -2.584540 -1.785905 0.021846
v 84.873400 39.391500 -38.000000
vn -1.289444 -0.905930 0.017351
v 84.947100 39.286600 -38.000000
vn -2.585946 -1.775977 0.012670
v 84.945500 39.283800 -38.265100
vn -2.626865 -1.748606 -0.000552
v 79.989100 46.744700 -40.737100
vn -2.640323 -1.702426 0.005664
v 81.572800 44.350200 -38.000000
vn -2.584557 -1.781444 -0.000798
v 84.926100 39.250400 -48.341600
vn -2.640952 -1.721796 0.021191
v 79.965400 46.774500 -42.814900
vn -2.627753 -1.721322 0.014209
v 81.276900 44.690300 -50.000000
vn -2.638161 -1.705764 0.010696
v 80.314700 46.184100 -50.000000
vn -2.682056 -1.740452 0.010490
v 79.982000 46.700700 -49.317500
vn -2.620688 -1.732137 -0.020560
v 82.726000 42.534600 -50.000000
vn -5.198598 -3.528687 0.014748
v 84.027092 40.561441 -47.728119
vn -2.605083 -1.755274 0.002501
v 83.930900 40.691300 -50.000000
vn -1.329104 -0.860716 0.003594
v 79.985400 46.692600 -50.000000
vn -2.594541 -1.765507 0.017367
v 84.933100 39.262200 -42.809000
vn -2.597623 -1.772475 0.013185
v 84.943300 39.280000 -40.571300
vn -2.596512 -1.765516 0.009712
v 84.926900 39.251700 -46.080200
vn -2.601396 -1.761275 -0.001916
v 83.839900 40.899100 -38.000000
vn -2.606842 -1.753121 -0.005324
v 79.985800 46.730700 -38.397500
vn -2.629257 -1.718850 0.011015
v 81.262700 44.835900 -38.000000
vn -1.306184 -0.880151 -0.000549
v 79.986600 46.729200 -38.000000
vn -1.290174 -0.899935 -0.007679
v 84.930600 39.258100 -50.000000
vn -5.255055 -3.443639 0.014198
v 81.151867 44.998178 -39.618246
vn -5.232814 -3.477737 -0.010438
v 83.030441 42.044883 -48.100215
vn -5.209305 -3.512912 0.024286
v 83.516020 41.329066 -46.168123
vn -5.226870 -3.486393 0.024421
v 83.133043 41.937364 -40.132454
vn -5.273687 -3.415555 0.022487
v 81.196809 44.851031 -46.624422
vn -5.268935 -3.422577 0.048756
v 82.221515 43.339576 -39.705847
vn -5.248652 -3.453494 0.016552
v 82.322323 43.109910 -46.314148
vn -5.193577 -3.536226 0.011706
v 83.991358 40.676484 -39.373976
vn -5.271987 -3.417604 0.050201
v 82.152562 43.421637 -40.835434
vn -5.298801 -3.376208 0.044597
v 81.596503 44.289392 -41.240872
vn -5.293682 -3.383466 0.082685
v 81.478243 44.456983 -42.244170
vn -5.273155 -3.415692 0.047402
v 82.029504 43.597055 -41.851864
vn -5.249257 -3.452701 -0.048753
v 82.870790 42.300191 -49.061427
vn -5.241831 -3.464123 -0.032009
v 82.456214 42.913611 -48.158739
vn -5.227777 -3.485215 -0.032499
v 82.260769 43.223525 -49.093068
vn -5.273279 -3.416195 0.021593
v 81.534457 44.324628 -47.398867
vn -5.260250 -3.436129 0.001249
v 82.095110 43.457392 -47.279379
vn -5.277828 -3.409213 0.014719
v 81.757574 43.983572 -46.448143
vn -5.268702 -3.423215 0.028177
v 80.967974 45.195406 -47.571447
vn -5.268229 -3.423923 0.030339
v 80.606572 45.757200 -46.850197
vn -2.636739 -1.707982 0.002837
v 82.259850 43.289550 -38.000000
vn -5.275259 -3.413185 0.012617
v 81.996101 43.695509 -38.728310
vn -5.250380 -3.450570 0.053265
v 80.483737 45.994826 -42.236851
vn -5.274965 -3.412928 0.055580
v 80.446361 46.023407 -43.253790
vn -5.275311 -3.411554 0.102164
v 80.940431 45.280491 -42.688468
vn -5.258995 -3.438161 0.014477
v 81.768038 43.981049 -43.791265
vn -5.276516 -3.410395 0.062113
v 81.355101 44.619284 -43.196745
vn -5.272449 -3.417512 0.008479
v 81.206803 44.842211 -44.089784
vn -5.198451 -3.528956 0.031459
v 84.108454 40.456298 -46.181192
vn -5.206364 -3.517281 0.025639
v 83.840364 40.843317 -47.007383
vn -5.203482 -3.521544 0.014490
v 83.931842 40.730208 -43.514403
vn -5.197021 -3.531149 0.013894
v 84.465483 39.946060 -44.181832
vn -5.266051 -3.427156 0.031047
v 81.977813 43.646603 -45.478630
vn -5.237136 -3.471098 0.033666
v 82.576308 42.736226 -45.306331
vn -5.252363 -3.448177 0.029433
v 82.198505 43.323675 -44.481131
vn -2.617883 -1.736740 0.004957
v 79.977250 46.759600 -41.776000
vn -5.235822 -3.473387 0.012899
v 80.524929 45.935720 -41.193251
vn -5.197695 -3.530193 0.008537
v 83.585082 41.268878 -40.721330
vn -5.219019 -3.498371 0.012468
v 83.077587 42.016150 -41.103065
vn -5.204211 -3.520347 0.030029
v 83.532528 41.345522 -41.713297
vn -5.212309 -3.508322 0.040469
v 83.459044 41.438606 -42.705241
vn -5.228990 -3.483478 0.032123
v 82.905916 42.259808 -43.097806
vn -5.212734 -3.507882 0.017504
v 83.367423 41.567674 -43.575234
vn -5.206451 -3.517198 0.016658
v 83.554807 41.289782 -44.351006
vn -2.591958 -1.775200 0.004037
v 84.926500 39.251050 -47.210900
vn -5.179993 -3.556115 0.010246
v 84.448592 39.946782 -47.994571
vn -5.268631 -3.423265 0.034257
v 81.294893 44.685683 -48.330938
vn -2.607259 -1.752646 -0.006104
v 82.001450 43.612450 -50.000000
vn -5.240137 -3.466448 0.014713
v 81.609344 44.192741 -49.135334
vn -2.635009 -1.710612 0.011698
v 79.943200 46.768250 -48.181600
vn -5.234437 -3.475044 -0.020585
v 83.423442 41.454164 -48.924996
vn -5.212085 -3.508643 0.008218
v 83.841787 40.829352 -49.078290
vn -5.267718 -3.424694 0.032176
v 80.347035 46.163008 -46.193167
vn -5.271600 -3.418780 0.017048
v 80.458772 45.999268 -45.314166
vn -2.633353 -1.713131 0.015453
v 79.916800 46.827100 -45.891950
vn -5.273686 -3.415539 0.023616
v 80.863399 45.370943 -45.927760
vn -2.598308 -1.765710 0.025917
v 84.938200 39.271100 -41.690150
vn -5.191884 -3.538537 0.033107
v 84.504168 39.920173 -40.984160
vn -5.196314 -3.531864 0.051676
v 84.496415 39.915904 -42.050412
vn -2.641545 -1.700514 0.009739
v 79.947300 46.796450 -43.776550
vn -5.278600 -3.408028 0.006563
v 80.561992 45.839708 -44.260061
vn -5.202978 -3.522033 0.048316
v 84.006561 40.631177 -42.374436
vn -5.195330 -3.533524 0.024371
v 84.467628 39.943374 -43.122219
vn -2.599935 -1.763454 0.013073
v 84.929550 39.256200 -44.940050
vn -5.199048 -3.528105 0.028132
v 84.410488 40.018780 -45.298862
vn -5.240087 -3.466830 0.031353
v 82.445392 42.961500 -42.476821
vn -5.245149 -3.459218 0.021029
v 82.347201 43.100786 -43.481326
vn -2.626096 -1.724209 -0.017073
v 83.328450 41.612950 -50.000000
vn -5.216787 -3.501874 -0.014246
v 80.589805 45.834516 -39.089481
vn -5.244872 -3.459202 0.008045
v 81.184725 44.950680 -38.689381
vn -5.210832 -3.510790 -0.000096
v 80.614827 45.797093 -38.337373
vn -2.605102 -1.755861 0.000159
v 80.624650 45.782550 -38.000000
vn -2.591178 -1.776321 0.009163
v 84.356650 40.145300 -38.000000
vn -5.183807 -3.550547 0.011408
v 84.397325 40.084559 -38.272591
vn -2.640331 -1.702355 0.015618
v 80.795800 45.437200 -50.000000
vn -5.273769 -3.415274 0.039868
v 80.954181 45.199644 -49.194398
vn -2.610168 -1.748265 -0.014143
v 79.987450 46.737700 -39.567300
vn -5.227810 -3.485357 -0.007141
v 80.564674 45.880405 -40.123996
vn -5.278950 -3.407476 0.014603
v 81.416505 44.514815 -45.680049
vn -5.169536 -3.571172 -0.004588
v 84.419338 39.984523 -49.097509
vn -2.576981 -1.796827 -0.013589
v 84.430750 39.974700 -50.000000
vn -2.577618 -1.795904 -0.014724
v 84.928350 39.254250 -49.170800
vn -2.607688 -1.752017 -0.002111
v 83.393400 41.564000 -38.000000
vn -5.207588 -3.515521 0.014351
v 83.481486 41.433529 -38.784509
vn -5.198865 -3.528397 -0.000650
v 83.922680 40.777637 -38.563358
vn -5.231257 -3.480197 0.001627
v 82.666277 42.592477 -47.201856
vn -5.201221 -3.524862 0.032120
v 83.807371 40.907292 -45.277330
vn -5.212274 -3.508507 0.027125
v 83.198675 41.807545 -45.239230
vn -5.277500 -3.409725 0.005548
v 81.044811 45.094238 -44.992749
vn -5.265597 -3.427568 0.021922
v 81.103490 45.066327 -40.653569
vn -5.286743 -3.395049 0.043096
v 81.669804 44.182949 -40.192913
vn -5.219932 -3.497200 0.017564
v 82.913141 42.228317 -46.222703
vn -5.242836 -3.462700 0.026314
v 82.564885 42.788458 -41.479566
vn -5.218215 -3.499770 0.015659
v 83.250066 41.721315 -47.121844
vn -5.264819 -3.428946 0.034263
v 82.740495 42.545370 -39.665312
vn -5.251524 -3.449162 0.046527
v 82.669609 42.636758 -40.489498
vn -5.186230 -3.547021 0.007727
v 84.449354 40.007670 -38.947639
vn -5.186758 -3.546238 0.012553
v 84.480685 39.958820 -39.935714
vn -5.190534 -3.540699 0.012806
v 84.040828 40.600311 -40.344030
vn -2.593699 -1.772654 0.005395
v 84.944400 39.281900 -39.418200
vn -5.199481 -3.527486 0.021271
v 83.561225 41.307238 -39.736109
vn -5.237643 -3.470041 0.017539
v 83.064182 42.046638 -39.163195
vn -5.273212 -3.416271 0.026437
v 80.416240 46.034232 -48.967077
vn -5.270670 -3.420273 0.011043
v 82.515299 42.893783 -38.850228
vn -5.193686 -3.536007 0.023632
v 84.516585 39.853067 -46.397138
vn -5.278126 -3.408640 0.023499
v 81.649270 44.231168 -39.103286
vn -5.189367 -3.542317 0.021639
v 84.320104 40.135881 -47.089697
vn -5.213759 -3.506390 0.016696
v 83.685154 41.068263 -48.129011
vn -5.269136 -3.422569 0.025250
v 80.386703 46.086335 -47.997056
vn -5.188847 -3.543126 0.013417
v 84.159062 40.365978 -48.526402
# 146 vertices, 0 vertices normals

f 46//46 47//47 48//48
f 49//49 50//50 51//51
f 52//52 53//53 54//54
f 145//145 55//55 56//56
f 57//57 58//58 140//140
f 59//59 60//60 61//61
f 62//62 63//63 64//64
f 99//99 67//67 68//68
f 16//16 15//15 17//17
f 69//69 70//70 71//71
f 72//72 59//59 73//73
f 74//74 75//75 76//76
f 77//77 78//78 79//79
f 81//81 141//141 143//143
f 55//55 83//83 52//52
f 84//84 51//51 85//85
f 28//28 23//23 24//24
f 89//89 90//90 91//91
f 92//92 89//89 56//56
f 93//93 94//94 95//95
f 96//96 97//97 60//60
f 95//95 98//98 99//99
f 100//100 68//68 101//101
f 78//78 102//102 103//103
f 104//104 87//87 49//49
f 62//62 71//71 103//103
f 105//105 106//106 107//107
f 34//34 108//108 107//107
f 32//32 110//110 109//109
f 113//113 114//114 105//105
f 115//115 54//54 69//69
f 116//116 117//117 118//118
f 119//119 120//120 121//121
f 122//122 53//53 50//50
f 123//123 65//65 101//101
f 123//123 80//80 124//124
f 97//97 125//125 64//64
f 126//126 46//46 127//127
f 126//126 114//114 73//73
f 128//128 124//124 70//70
f 112//112 85//85 83//83
f 129//129 48//48 102//102
f 66//66 130//130 144//144
f 63//63 47//47 61//61
f 98//98 76//76 77//77
f 92//92 115//115 125//125
f 127//127 42//42 142//142
f 131//131 42//42 132//132
f 110//110 121//121 133//133
f 128//128 122//122 130//130
f 134//134 135//135 94//94
f 133//133 134//134 136//136
f 135//135 137//137 74//74
f 132//132 129//129 75//75
f 137//137 120//120 138//138
f 138//138 140//140 131//131
f 45//45 46//46 48//48
f 46//46 2//2 47//47
f 48//48 47//47 3//3
f 25//25 49//49 51//51
f 49//49 38//38 50//50
f 51//51 50//50 5//5
f 41//41 52//52 54//54
f 52//52 5//5 53//53
f 54//54 53//53 43//43
f 6//6 145//145 56//56
f 145//145 7//7 55//55
f 56//56 55//55 41//41
f 8//8 57//57 140//140
f 57//57 19//19 58//58
f 2//2 59//59 61//61
f 59//59 21//21 60//60
f 61//61 60//60 10//10
f 9//9 62//62 64//64
f 62//62 3//3 63//63
f 64//64 63//63 10//10
f 66//66 65//65 39//39
f 14//14 99//99 68//68
f 68//68 67//67 12//12
f 9//9 69//69 71//71
f 69//69 43//43 70//70
f 71//71 70//70 4//4
f 18//18 72//72 73//73
f 72//72 21//21 59//59
f 73//73 59//59 2//2
f 13//13 74//74 76//76
f 74//74 40//40 75//75
f 76//76 75//75 1//1
f 67//67 77//77 79//79
f 77//77 1//1 78//78
f 79//79 78//78 4//4
f 12//12 67//67 80//80
f 80//80 79//79 4//4
f 20//20 81//81 82//82
f 81//81 31//31 141//141
f 41//41 55//55 52//52
f 55//55 7//7 83//83
f 52//52 83//83 5//5
f 22//22 84//84 85//85
f 84//84 25//25 51//51
f 85//85 51//51 5//5
f 23//23 139//139 24//24
f 145//145 6//6 86//86
f 144//144 38//38 87//87
f 6//6 89//89 91//91
f 91//91 90//90 11//11
f 41//41 92//92 56//56
f 92//92 90//90 89//89
f 56//56 89//89 6//6
f 29//29 93//93 95//95
f 93//93 30//30 94//94
f 95//95 94//94 13//13
f 21//21 96//96 60//60
f 96//96 11//11 97//97
f 29//29 95//95 99//99
f 95//95 13//13 98//98
f 99//99 98//98 67//67
f 31//31 100//100 101//101
f 100//100 14//14 68//68
f 101//101 68//68 12//12
f 97//97 11//11 90//90
f 4//4 78//78 103//103
f 78//78 1//1 102//102
f 103//103 102//102 3//3
f 25//25 104//104 49//49
f 104//104 27//27 88//88
f 49//49 87//87 38//38
f 3//3 62//62 103//103
f 62//62 9//9 71//71
f 103//103 71//71 4//4
f 33//33 105//105 107//107
f 105//105 37//37 106//106
f 107//107 106//106 34//34
f 108//108 35//35 107//107
f 33//33 107//107 35//35
f 17//17 15//15 110//110
f 109//109 110//110 15//15
f 7//7 139//139 112//112
f 139//139 23//23 111//111
f 112//112 111//111 22//22
f 33//33 113//113 105//105
f 113//113 18//18 114//114
f 105//105 114//114 37//37
f 9//9 115//115 69//69
f 115//115 41//41 54//54
f 69//69 54//54 43//43
f 34//34 106//106 19//19
f 88//88 146//146 144//144
f 116//116 88//88 27//27
f 20//20 116//116 118//118
f 116//116 27//27 117//117
f 118//118 117//117 36//36
f 14//14 29//29 99//99
f 32//32 119//119 121//121
f 119//119 8//8 120//120
f 121//121 120//120 44//44
f 38//38 122//122 50//50
f 122//122 43//43 53//53
f 50//50 53//53 5//5
f 12//12 123//123 101//101
f 123//123 39//39 65//65
f 39//39 123//123 124//124
f 123//123 12//12 80//80
f 124//124 80//80 4//4
f 10//10 97//97 64//64
f 97//97 90//90 125//125
f 64//64 125//125 9//9
f 19//19 106//106 142//142
f 106//106 37//37 142//142
f 58//58 142//142 42//42
f 37//37 126//126 127//127
f 126//126 2//2 46//46
f 127//127 46//46 45//45
f 2//2 126//126 73//73
f 126//126 37//37 114//114
f 73//73 114//114 18//18
f 43//43 128//128 70//70
f 128//128 39//39 124//124
f 70//70 124//124 4//4
f 7//7 112//112 83//83
f 112//112 22//22 85//85
f 83//83 85//85 5//5
f 1//1 129//129 102//102
f 129//129 45//45 48//48
f 102//102 48//48 3//3
f 26//26 66//66 144//144
f 66//66 39//39 130//130
f 144//144 130//130 38//38
f 10//10 63//63 61//61
f 63//63 3//3 47//47
f 61//61 47//47 2//2
f 67//67 98//98 77//77
f 98//98 13//13 76//76
f 77//77 76//76 1//1
f 90//90 92//92 125//125
f 92//92 41//41 115//115
f 125//125 115//115 9//9
f 37//37 127//127 142//142
f 127//127 45//45 42//42
f 40//40 131//131 132//132
f 132//132 42//42 45//45
f 17//17 110//110 133//133
f 110//110 32//32 121//121
f 133//133 121//121 44//44
f 39//39 128//128 130//130
f 128//128 43//43 122//122
f 130//130 122//122 38//38
f 30//30 134//134 94//94
f 134//134 44//44 135//135
f 94//94 135//135 13//13
f 17//17 133//133 136//136
f 133//133 44//44 134//134
f 136//136 134//134 30//30
f 13//13 135//135 74//74
f 135//135 44//44 137//137
f 74//74 137//137 40//40
f 40//40 132//132 75//75
f 132//132 45//45 129//129
f 75//75 129//129 1//1
f 40//40 137//137 138//138
f 137//137 44//44 120//120
f 138//138 120//120 8//8
f 40//40 138//138 131//131
f 138//138 8//8 140//140
f 131//131 140//140 42//42
f 60//60 97//97 10//10
f 139//139 7//7 145//145
f 139//139 86//86 24//24
f 58//58 19//19 142//142
f 140//140 58//58 42//42
f 80//80 67//67 79//79
f 65//65 66//66 143//143
f 101//101 65//65 141//141
f 20//20 146//146 116//116
f 20//20 82//82 146//146
f 101//101 141//141 31//31
f 81//81 143//143 82//82
f 65//65 143//143 141//141
f 143//143 66//66 26//26
f 82//82 143//143 26//26
f 104//104 88//88 87//87
f 112//112 139//139 111//111
f 88//88 144//144 87//87
f 82//82 26//26 146//146
f 144//144 146//146 26//26
f 139//139 145//145 86//86
f 146//146 88//88 116//116
# 247 faces, 0 coords texture

# End of File
