####
#
# OBJ File Generated by Meshlab
#
####
# Object 69_C45_M_2.obj
#
# Vertices: 210
# Faces: 370
#
####
vn 2.075201 -2.343162 -0.022623
v -32.063400 30.718000 47.646800
vn 3.890236 -4.931341 -0.141530
v -31.049302 31.737474 40.009602
vn 3.471084 -5.234433 -0.005428
v -24.751968 36.408381 42.727321
vn 3.828829 -4.980662 -0.074360
v -29.409995 33.000024 40.638319
vn 3.307253 -5.341193 0.023690
v -23.433241 37.237445 41.468954
vn 1.617316 -2.672333 -0.001342
v -20.952700 38.718000 41.763700
vn 2.016896 -2.436565 -0.069628
v -32.131700 30.718000 43.575900
vn 4.024204 -4.822755 -0.076097
v -30.875697 31.742150 48.444861
vn 3.861928 -4.956092 0.001984
v -29.302090 32.983565 48.333656
vn 1.895984 -2.504800 -0.016620
v -28.437500 33.653400 50.000000
vn 3.610980 -5.141231 -0.036126
v -25.858901 35.637015 39.460840
vn 1.827787 -2.554626 0.008366
v -26.079500 35.483800 38.000000
vn 3.861513 -4.955582 -0.092611
v -29.142013 33.156254 42.867374
vn 1.628944 -2.735092 -0.006425
v -20.971100 38.718000 43.515200
vn 3.266979 -5.366675 0.010074
v -22.964585 37.523392 43.379258
vn 1.975032 -2.423937 -0.082892
v -32.289800 30.718000 40.449400
vn 1.969895 -2.441928 -0.072635
v -31.614600 31.362800 38.000000
vn 1.014495 -1.170886 -0.028578
v -32.358800 30.718000 38.000000
vn 3.846738 -4.967515 -0.046654
v -28.973221 33.262907 44.872861
vn 3.964048 -4.873936 -0.072227
v -30.554483 32.014408 44.334024
vn 3.932949 -4.899297 -0.007538
v -30.251548 32.250179 46.584128
vn 2.032385 -2.409507 -0.014129
v -32.082500 30.718000 45.656900
vn 1.873391 -2.521876 0.007672
v -27.597800 34.354600 38.000000
vn 3.765101 -5.029662 -0.057993
v -27.380197 34.461583 45.267655
vn 1.884351 -2.513431 -0.028088
v -29.657100 32.834500 38.000000
vn 1.977562 -2.432581 -0.093308
v -32.245000 30.718000 41.424500
vn 1.798714 -2.575539 -0.033603
v -25.195800 35.995000 50.000000
vn 3.607525 -5.143434 -0.063458
v -25.460253 35.844773 47.795204
vn 3.458085 -5.244325 -0.068210
v -24.198888 36.725000 46.447024
vn 3.657480 -5.107891 -0.075168
v -25.767902 35.648932 45.833096
vn 3.678066 -5.093409 -0.071536
v -26.761488 34.899816 48.997692
vn 3.427108 -5.263790 -0.063572
v -23.980162 36.850324 48.403586
vn 3.208475 -5.400951 -0.052315
v -22.409883 37.836340 47.203212
vn 3.680304 -5.089310 -0.031662
v -26.385923 35.281186 41.985887
vn 3.463574 -5.238272 -0.062636
v -24.467530 36.587681 44.534932
vn 3.201780 -5.405340 -0.090149
v -22.222519 37.905441 49.234177
vn 1.968867 -2.446260 0.004782
v -29.998100 32.461700 50.000000
vn 1.044048 -1.198279 -0.028015
v -32.004900 30.718000 50.000000
vn 1.648265 -2.674344 -0.026359
v -22.137750 38.024075 38.000000
vn 1.622458 -2.670899 -0.030509
v -20.980300 38.718000 39.119700
vn 0.834111 -1.360481 -0.019989
v -21.013400 38.718000 38.000000
vn 1.712060 -2.632555 -0.017750
v -23.963700 36.850200 50.000000
vn 1.833203 -2.551121 -0.035662
v -26.560900 35.030300 50.000000
vn 1.547784 -2.703414 -0.028384
v -20.874000 38.717900 46.036200
vn 1.580309 -2.747707 -0.049483
v -20.853200 38.718000 48.566600
vn 3.493450 -5.221779 0.034297
v -25.105371 36.151842 40.819985
vn 1.659424 -2.667434 -0.007280
v -23.134800 37.408400 38.000000
vn 1.725622 -2.624928 0.011751
v -25.009000 36.215700 38.000000
vn 3.265818 -5.367684 -0.007910
v -22.300892 37.913682 39.704695
vn 1.588832 -2.710093 -0.028693
v -22.199900 37.911200 50.000000
vn 0.763857 -1.331070 -0.031548
v -20.794000 38.718000 50.000000
vn 3.369599 -5.302867 0.012759
v -24.070498 36.823217 39.678172
vn 3.795623 -5.006506 -0.035870
v -27.859061 34.173623 41.377259
vn 3.705660 -5.073608 0.015797
v -26.644923 35.072653 39.771920
vn 3.688557 -5.084862 -0.098080
v -26.128057 35.425021 43.949992
vn 3.823295 -4.985732 -0.005778
v -28.454405 33.653220 46.746200
vn 3.931500 -4.898676 -0.145178
v -30.725468 31.927482 42.153593
vn 3.248322 -5.376772 -0.050019
v -22.782588 37.634301 45.138542
vn 3.800078 -5.002746 -0.095488
v -27.681749 34.272652 43.427281
vn 3.227367 -5.390711 0.002556
v -21.843453 38.179310 41.787602
vn 3.934531 -4.898054 -0.013144
v -30.519040 32.035341 47.622230
vn 3.868058 -4.951370 -0.021747
v -29.727579 32.655040 47.508153
vn 3.889642 -4.934390 0.007781
v -30.056085 32.395192 48.389108
vn 3.879430 -4.942469 -0.020052
v -28.664948 33.483839 48.297039
vn 3.796941 -5.004765 -0.049077
v -28.179983 33.861539 48.865225
vn 3.846310 -4.968083 0.001370
v -28.891660 33.301611 49.122247
vn 1.630793 -2.685112 0.017132
v -20.961900 38.718000 42.639450
vn 3.241014 -5.382526 0.043330
v -21.508285 38.386502 42.693842
vn 3.564665 -5.173741 0.049518
v -25.749500 35.716894 41.368127
vn 3.473354 -5.234705 0.058553
v -24.940810 36.272025 41.782768
vn 3.575745 -5.165890 -0.035124
v -25.589448 35.831163 42.359104
vn 4.032306 -4.814109 -0.168359
v -31.897070 31.096286 38.892002
vn 2.034495 -2.392593 -0.075649
v -32.324300 30.718000 39.224700
vn 3.883534 -4.939136 -0.024332
v -29.602434 32.765467 45.673579
vn 3.974673 -4.865308 -0.024292
v -30.440256 32.101712 45.418792
vn 3.902711 -4.923952 -0.035686
v -29.755374 32.645822 44.645580
vn 4.020242 -4.827452 -0.107588
v -31.352594 31.358422 43.954179
vn 3.998408 -4.843638 -0.165187
v -31.415463 31.333059 42.874556
vn 3.952800 -4.881815 -0.115279
v -30.633790 31.975632 43.252428
vn 4.031674 -4.818577 -0.064969
v -31.281994 31.396446 45.023099
vn 2.008747 -2.415016 -0.047272
v -32.107100 30.718000 44.616400
vn 4.108563 -4.748299 -0.064212
v -31.398172 31.311610 48.026222
vn 4.126717 -4.736419 -0.121896
v -31.299404 31.351500 49.195507
vn 1.874617 -2.520960 0.013314
v -26.838650 34.919200 38.000000
vn 3.697534 -5.079588 0.006527
v -26.344251 35.290954 38.796562
vn 3.754340 -5.038133 0.022082
v -27.152609 34.690163 38.823294
vn 1.985983 -2.431983 -0.104571
v -32.188350 30.718000 42.500200
vn 3.965860 -4.869756 -0.187974
v -31.507130 31.304627 41.794491
vn 1.812984 -2.565465 -0.032878
v -25.878350 35.512650 50.000000
vn 3.633395 -5.125509 -0.076531
v -25.973472 35.453308 49.385170
vn 3.620400 -5.134511 -0.055556
v -25.600163 35.757193 46.805333
vn 3.670022 -5.099631 -0.053206
v -26.195048 35.319529 47.436451
vn 3.701715 -5.076646 -0.033840
v -26.360559 35.212913 46.485436
vn 3.651240 -5.112903 -0.065132
v -26.092807 35.385408 48.405759
vn 3.685196 -5.088770 -0.033330
v -26.804473 34.878406 47.958904
vn 3.450775 -5.249254 -0.049711
v -24.079030 36.794725 47.439390
vn 3.337816 -5.323039 -0.045874
v -23.384138 37.237883 46.787129
vn 3.308812 -5.340333 -0.073576
v -23.288166 37.292218 47.763051
vn 3.117738 -5.455019 -0.023776
v -21.848580 38.159441 46.463160
vn 3.229944 -5.387579 -0.052087
v -22.658492 37.699283 46.139199
vn 3.132883 -5.445629 -0.082922
v -21.844327 38.170291 45.402166
vn 4.085225 -4.770992 -0.025413
v -31.644611 31.100449 46.757976
vn 4.026565 -4.822978 0.019575
v -31.119750 31.524735 46.099432
vn 4.021047 -4.827381 0.028986
v -31.002493 31.636810 47.030907
vn 4.015976 -4.829642 -0.036705
v -30.457642 32.081736 49.209598
vn 2.059678 -2.371454 -0.059465
v -31.001500 31.589850 50.000000
vn 3.277347 -5.360451 -0.051057
v -21.757689 38.248984 38.863864
vn 2.076431 -2.356595 -0.065671
v -32.034150 30.718000 48.823400
vn 3.855139 -4.957974 -0.157088
v -31.262251 31.602414 39.002880
vn 3.825878 -4.983709 -0.022886
v -28.764031 33.418957 45.801952
vn 3.867848 -4.951453 -0.033799
v -29.307187 32.987315 46.625026
vn 1.891551 -2.507652 -0.057518
v -30.635850 32.098650 38.000000
vn 1.788858 -2.582491 -0.018070
v -24.579750 36.422600 50.000000
vn 3.559643 -5.177202 -0.060189
v -24.614296 36.405796 49.122165
vn 3.410706 -5.273689 -0.038954
v -23.930738 36.875571 49.273566
vn 3.870090 -4.949206 -0.061737
v -29.075660 33.195280 43.896690
vn 3.833837 -4.977375 -0.074889
v -28.406475 33.718880 43.166461
vn 3.812135 -4.993791 -0.083152
v -28.330904 33.765460 44.141729
vn 1.544661 -2.735597 -0.011763
v -20.863600 38.717950 47.301400
vn 1.573767 -2.718304 -0.060724
v -20.922550 38.717950 44.775700
vn 3.169798 -5.424159 -0.083855
v -21.624452 38.320661 44.369308
vn 3.785015 -5.014027 -0.105189
v -27.027029 34.782287 42.696941
vn 3.816793 -4.990187 -0.089296
v -27.757634 34.232682 42.422142
vn 3.783115 -5.016133 -0.027254
v -27.124287 34.726685 41.663315
vn 3.768362 -5.026407 -0.114140
v -26.919394 34.839343 43.677049
vn 3.759200 -5.033309 -0.111510
v -26.769797 34.932174 44.604436
vn 3.781644 -5.016602 -0.105195
v -27.561946 34.343238 44.360690
vn 3.594439 -5.152581 -0.080484
v -25.337381 35.914685 48.823926
vn 3.549737 -5.183907 -0.069716
v -24.711457 36.353532 48.127906
vn 3.344035 -5.318884 -0.070814
v -23.504555 37.171133 45.781670
vn 3.587912 -5.157741 0.017414
v -25.845060 35.636283 40.338459
vn 1.906625 -2.496835 0.014178
v -29.217800 33.057550 50.000000
vn 3.853039 -4.962603 0.045886
v -29.642346 32.728719 49.182776
vn 3.765421 -5.029817 0.030450
v -27.265653 34.613591 40.605455
vn 3.677229 -5.093160 0.050598
v -26.511370 35.181424 40.927290
vn 3.267997 -5.365541 -0.088916
v -23.213151 37.316172 48.669818
vn 3.241819 -5.381881 -0.058655
v -23.141859 37.352744 49.488436
vn 1.686699 -2.650354 0.016540
v -24.071900 36.812050 38.000000
vn 3.331853 -5.326705 0.002649
v -23.587479 37.125577 38.836167
vn 3.402143 -5.282243 0.015515
v -24.534594 36.522799 38.838086
vn 3.253307 -5.375262 -0.030744
v -21.505835 38.388836 40.931040
vn 3.224960 -5.392259 -0.020332
v -22.096781 38.031870 40.754722
vn 3.293593 -5.350545 0.022497
v -23.150803 37.390375 39.678178
vn 3.291583 -5.351897 -0.029431
v -22.652164 37.699833 38.812624
vn 3.575457 -5.165718 -0.088541
v -24.976532 36.192632 46.138093
vn 3.605050 -5.144760 -0.108841
v -25.137897 36.105846 45.173488
vn 3.459312 -5.241914 -0.109849
v -24.332061 36.657276 45.469479
vn 3.327640 -5.329294 -0.047526
v -23.614551 37.117450 44.833808
vn 3.365106 -5.305572 0.030842
v -24.067017 36.839714 42.139603
vn 3.262084 -5.369331 0.001143
v -23.189846 37.387181 42.440987
vn 3.326982 -5.330042 -0.008075
v -23.855159 36.968486 43.071319
vn 3.319427 -5.334770 -0.002419
v -23.712381 37.058093 43.957674
vn 3.467799 -5.236335 -0.025528
v -24.598254 36.506382 43.638715
vn 3.166901 -5.425364 -0.119331
v -21.711905 38.213942 48.834901
vn 1.570317 -2.720287 -0.061176
v -20.823600 38.718000 49.283300
vn 1.571335 -2.719898 -0.051147
v -21.496950 38.314600 50.000000
vn 1.619236 -2.691808 -0.043002
v -23.081800 37.380700 50.000000
vn 3.874167 -4.946596 -0.018043
v -28.927130 33.280061 47.515086
vn 1.867144 -2.526533 -0.002047
v -28.627450 33.594550 38.000000
vn 3.759980 -5.033826 -0.024873
v -29.156881 33.201690 38.871893
vn 3.772706 -5.024400 -0.014126
v -28.836386 33.433880 39.956126
vn 3.808886 -4.996698 -0.038432
v -29.615719 32.852341 39.533818
vn 3.538929 -5.190413 0.003363
v -25.482183 35.902932 38.775044
vn 3.245622 -5.379488 0.023768
v -22.845359 37.589913 40.620974
vn 3.353167 -5.312921 0.035726
v -23.701613 37.061884 40.527841
vn 2.095088 -2.340899 -0.020110
v -32.072950 30.718000 46.651850
vn 3.769212 -5.027036 0.015161
v -28.049769 34.026022 40.341081
vn 3.804701 -4.999583 -0.051434
v -28.620773 33.597213 41.039054
vn 3.830638 -4.979389 -0.100936
v -28.482691 33.679238 42.122552
vn 3.854124 -4.960778 -0.115658
v -29.251274 33.097251 41.766284
vn 3.775178 -5.022590 -0.001810
v -27.932745 34.045294 45.988065
vn 3.741930 -5.047348 -0.003410
v -27.131271 34.645504 46.221452
vn 3.745587 -5.044628 0.000357
v -27.527861 34.350001 47.150930
vn 3.718375 -5.064247 -0.043877
v -27.467901 34.393644 48.391592
vn 3.739301 -5.048559 -0.060774
v -26.570138 35.058126 45.534453
vn 3.808094 -4.996744 -0.003505
v -28.166319 33.877138 47.778000
vn 3.912620 -4.913458 -0.155446
v -30.867196 31.849354 41.058540
vn 3.856201 -4.959496 -0.094351
v -30.228864 32.370843 40.272844
vn 3.876226 -4.943219 -0.132879
v -30.052165 32.476386 41.394673
vn 1.858294 -2.532700 -0.042177
v -27.499200 34.341850 50.000000
vn 3.716438 -5.065449 -0.087829
v -27.512939 34.340888 49.452422
vn 3.786935 -5.013143 -0.057260
v -28.177973 33.861524 45.057784
vn 3.954157 -4.879740 -0.176316
v -31.630413 31.240150 40.756274
vn 3.234917 -5.384838 -0.116558
v -22.489908 37.771829 48.125335
vn 3.555892 -5.179842 -0.054943
v -24.835849 36.281147 47.126464
vn 3.484391 -5.227817 -0.012687
v -25.066227 36.177950 39.755221
vn 3.417733 -5.272335 -0.000462
v -24.482272 36.556100 40.388564
vn 3.408193 -5.278137 0.045553
v -24.293734 36.678813 41.205718
vn 3.757258 -5.035966 0.020171
v -27.548988 34.396619 39.605609
vn 3.691533 -5.082708 -0.102163
v -25.957214 35.530940 44.884775
vn 3.620819 -5.134499 -0.068267
v -25.300654 36.005744 44.240567
vn 3.683723 -5.087654 -0.110822
v -26.260407 35.350731 42.989921
vn 3.883311 -4.938127 -0.114821
v -29.922649 32.550707 42.519071
vn 3.895397 -4.929110 -0.085619
v -29.836832 32.594166 43.604736
vn 3.274773 -5.362047 -0.001298
v -22.870170 37.581380 44.250642
vn 3.607004 -5.144063 -0.076612
v -25.441717 35.915846 43.317856
vn 3.208426 -5.402064 0.035974
v -22.349367 37.883278 42.650507
vn 3.199144 -5.407741 0.003822
v -22.614613 37.723722 41.661941
vn 1.627766 -2.686958 -0.015495
v -20.966500 38.718000 40.441700
vn 3.256086 -5.373565 -0.032654
v -21.600295 38.336660 39.912138
vn 3.974576 -4.863063 -0.171158
v -31.779743 31.156975 39.781546
vn 3.816186 -4.990446 -0.086994
v -30.434889 32.221185 39.213048
vn 3.744532 -5.045432 0.011028
v -27.929627 34.109710 38.750298
vn 3.220063 -5.395153 0.018244
v -22.056646 38.068802 43.648003
vn 3.750372 -5.041123 -0.000051
v -28.377520 33.779128 39.272364
vn 3.801605 -5.002062 -0.069824
v -29.861127 32.670260 38.681078
vn 3.186145 -5.414663 -0.049503
v -22.233454 37.963336 44.547048
vn 3.707593 -5.072420 -0.033489
v -26.805700 34.883454 47.100720
vn 3.141292 -5.440510 -0.064858
v -21.691772 38.248425 47.833025
vn 3.108798 -5.460146 -0.012360
v -21.424372 38.401948 47.101163
# 210 vertices, 0 vertices normals

f 61//61 62//62 63//63
f 64//64 65//65 66//66
f 67//67 14//14 68//68
f 69//69 70//70 71//71
f 72//72 201//201 73//73
f 74//74 75//75 76//76
f 77//77 78//78 79//79
f 77//77 80//80 81//81
f 84//84 85//85 86//86
f 87//87 88//88 78//78
f 27//27 89//89 90//90
f 91//91 92//92 93//93
f 94//94 95//95 92//92
f 96//96 97//97 98//98
f 102//102 103//103 104//104
f 105//105 106//106 83//83
f 40//40 107//107 41//41
f 82//82 8//8 108//108
f 109//109 201//201 72//72
f 74//74 110//110 111//111
f 109//109 112//112 202//202
f 113//113 114//114 115//115
f 116//116 117//117 118//118
f 120//120 101//101 121//121
f 122//122 123//123 124//124
f 125//125 126//126 127//127
f 114//114 128//128 129//129
f 97//97 130//130 100//100
f 11//11 186//186 131//131
f 66//66 132//132 133//133
f 134//134 135//135 124//124
f 136//136 137//137 115//115
f 138//138 139//139 140//140
f 63//63 133//133 105//105
f 141//141 142//142 200//200
f 143//143 139//139 144//144
f 145//145 146//146 147//147
f 147//147 148//148 130//130
f 149//149 150//150 151//151
f 151//151 152//152 153//153
f 51//51 156//156 155//155
f 155//155 156//156 154//154
f 42//42 137//137 157//157
f 111//111 158//158 62//62
f 161//161 162//162 160//160
f 164//164 165//165 143//143
f 8//8 82//82 61//61
f 80//80 75//75 103//103
f 166//166 22//22 102//102
f 167//167 168//168 161//161
f 128//128 90//90 94//94
f 168//168 169//169 170//170
f 171//171 172//172 173//173
f 174//174 173//173 95//95
f 175//175 93//93 172//172
f 177//177 178//178 179//179
f 180//180 10//10 181//181
f 65//65 174//174 181//181
f 182//182 171//171 110//110
f 2//2 183//183 201//201
f 136//136 98//98 184//184
f 91//91 145//145 185//185
f 185//185 96//96 129//129
f 140//140 186//186 163//163
f 187//187 165//165 188//188
f 117//117 169//169 123//123
f 118//118 127//127 182//182
f 86//86 189//189 203//203
f 189//189 134//134 167//167
f 146//146 190//190 191//191
f 126//126 190//190 175//175
f 125//125 122//122 192//192
f 79//79 193//193 194//194
f 176//176 64//64 158//158
f 194//194 116//116 76//76
f 193//193 179//179 170//170
f 177//177 88//88 183//183
f 85//85 163//163 11//11
f 121//121 207//207 204//204
f 153//153 191//191 196//196
f 135//135 131//131 69//69
f 71//71 196//196 192//192
f 149//149 70//70 188//188
f 195//195 148//148 152//152
f 68//68 204//204 197//197
f 142//142 198//198 164//164
f 150//150 198//198 197//197
f 200//200 199//199 141//141
f 144//144 39//39 107//107
f 8//8 61//61 63//63
f 61//61 21//21 62//62
f 63//63 62//62 9//9
f 9//9 64//64 66//66
f 64//64 176//176 65//65
f 66//66 65//65 10//10
f 6//6 68//68 60//60
f 68//68 6//6 67//67
f 34//34 69//69 71//71
f 69//69 46//46 70//70
f 71//71 70//70 3//3
f 17//17 72//72 18//18
f 73//73 18//18 72//72
f 19//19 74//74 76//76
f 74//74 21//21 75//75
f 76//76 75//75 20//20
f 20//20 77//77 79//79
f 77//77 7//7 78//78
f 79//79 78//78 57//57
f 7//7 77//77 81//81
f 77//77 20//20 80//80
f 81//81 80//80 22//22
f 38//38 108//108 83//83
f 83//83 108//108 8//8
f 23//23 84//84 86//86
f 84//84 12//12 85//85
f 86//86 85//85 54//54
f 7//7 87//87 78//78
f 87//87 26//26 88//88
f 78//78 88//88 57//57
f 89//89 43//43 90//90
f 31//31 90//90 43//43
f 30//30 91//91 93//93
f 91//91 28//28 92//92
f 28//28 94//94 92//92
f 94//94 31//31 95//95
f 92//92 95//95 208//208
f 32//32 96//96 98//98
f 96//96 29//29 97//97
f 98//98 97//97 33//33
f 99//99 33//33 100//100
f 101//101 100//100 58//58
f 82//82 1//1 104//104
f 102//102 22//22 103//103
f 104//104 103//103 21//21
f 8//8 105//105 83//83
f 105//105 37//37 106//106
f 83//83 106//106 38//38
f 107//107 39//39 41//41
f 108//108 1//1 82//82
f 17//17 109//109 72//72
f 109//109 2//2 201//201
f 21//21 74//74 111//111
f 74//74 19//19 110//110
f 111//111 110//110 56//56
f 109//109 17//17 112//112
f 42//42 113//113 115//115
f 113//113 27//27 114//114
f 115//115 114//114 32//32
f 19//19 116//116 118//118
f 116//116 13//13 117//117
f 118//118 117//117 59//59
f 14//14 120//120 121//121
f 120//120 44//44 101//101
f 121//121 101//101 207//207
f 34//34 122//122 124//124
f 122//122 59//59 123//123
f 124//124 123//123 53//53
f 59//59 125//125 127//127
f 125//125 55//55 126//126
f 127//127 126//126 24//24
f 32//32 114//114 129//129
f 114//114 27//27 128//128
f 129//129 128//128 28//28
f 33//33 97//97 100//100
f 97//97 29//29 130//130
f 100//100 130//130 58//58
f 54//54 11//11 131//131
f 131//131 186//186 46//46
f 9//9 66//66 133//133
f 66//66 10//10 132//132
f 133//133 132//132 37//37
f 53//53 134//134 124//124
f 134//134 54//54 135//135
f 124//124 135//135 34//34
f 32//32 136//136 115//115
f 136//136 36//36 137//137
f 115//115 137//137 42//42
f 48//48 138//138 140//140
f 138//138 47//47 139//139
f 140//140 139//139 52//52
f 8//8 63//63 105//105
f 63//63 9//9 133//133
f 105//105 133//133 37//37
f 40//40 199//199 200//200
f 40//40 200//200 107//107
f 200//200 49//49 107//107
f 49//49 143//143 144//144
f 143//143 52//52 139//139
f 144//144 139//139 47//47
f 29//29 145//145 147//147
f 145//145 30//30 146//146
f 147//147 146//146 35//35
f 29//29 147//147 130//130
f 147//147 35//35 148//148
f 130//130 148//148 58//58
f 3//3 149//149 151//151
f 149//149 5//5 150//150
f 151//151 150//150 15//15
f 3//3 151//151 153//153
f 151//151 15//15 152//152
f 153//153 152//152 35//35
f 209//209 45//45 154//154
f 155//155 154//154 45//45
f 156//156 50//50 36//36
f 137//137 50//50 157//157
f 50//50 137//137 36//36
f 21//21 111//111 62//62
f 111//111 56//56 158//158
f 62//62 158//158 9//9
f 25//25 159//159 160//160
f 159//159 23//23 203//203
f 161//161 4//4 162//162
f 12//12 48//48 163//163
f 49//49 164//164 143//143
f 164//164 5//5 165//165
f 143//143 165//165 52//52
f 61//61 82//82 104//104
f 61//61 104//104 21//21
f 22//22 80//80 103//103
f 80//80 20//20 75//75
f 103//103 75//75 21//21
f 1//1 102//102 104//104
f 102//102 1//1 166//166
f 205//205 167//167 161//161
f 167//167 53//53 168//168
f 161//161 168//168 4//4
f 28//28 128//128 94//94
f 128//128 27//27 90//90
f 94//94 90//90 31//31
f 4//4 168//168 170//170
f 168//168 53//53 169//169
f 170//170 169//169 13//13
f 56//56 171//171 173//173
f 171//171 24//24 172//172
f 31//31 174//174 95//95
f 174//174 176//176 173//173
f 24//24 175//175 172//172
f 175//175 30//30 93//93
f 172//172 93//93 208//208
f 173//173 176//176 56//56
f 57//57 177//177 179//179
f 177//177 2//2 178//178
f 179//179 178//178 4//4
f 10//10 65//65 181//181
f 65//65 176//176 174//174
f 181//181 174//174 31//31
f 19//19 182//182 110//110
f 182//182 24//24 171//171
f 110//110 171//171 56//56
f 26//26 16//16 183//183
f 201//201 183//183 16//16
f 36//36 136//136 184//184
f 136//136 32//32 98//98
f 184//184 98//98 33//33
f 184//184 209//209 154//154
f 28//28 91//91 185//185
f 91//91 30//30 145//145
f 185//185 145//145 29//29
f 178//178 162//162 4//4
f 28//28 185//185 129//129
f 185//185 29//29 96//96
f 129//129 96//96 32//32
f 48//48 140//140 163//163
f 140//140 52//52 186//186
f 163//163 186//186 11//11
f 186//186 52//52 187//187
f 186//186 187//187 46//46
f 46//46 187//187 188//188
f 187//187 52//52 165//165
f 188//188 165//165 5//5
f 59//59 117//117 123//123
f 117//117 13//13 169//169
f 123//123 169//169 53//53
f 19//19 118//118 182//182
f 118//118 59//59 127//127
f 182//182 127//127 24//24
f 23//23 86//86 203//203
f 86//86 54//54 189//189
f 203//203 189//189 205//205
f 205//205 189//189 167//167
f 189//189 54//54 134//134
f 167//167 134//134 53//53
f 35//35 146//146 191//191
f 146//146 30//30 190//190
f 191//191 190//190 55//55
f 24//24 126//126 175//175
f 126//126 55//55 190//190
f 175//175 190//190 30//30
f 55//55 125//125 192//192
f 125//125 59//59 122//122
f 192//192 122//122 34//34
f 20//20 79//79 194//194
f 79//79 57//57 193//193
f 194//194 193//193 13//13
f 56//56 176//176 158//158
f 158//158 64//64 9//9
f 20//20 194//194 76//76
f 194//194 13//13 116//116
f 76//76 116//116 19//19
f 13//13 193//193 170//170
f 193//193 57//57 179//179
f 170//170 179//179 4//4
f 2//2 177//177 183//183
f 177//177 57//57 88//88
f 183//183 88//88 26//26
f 54//54 85//85 11//11
f 85//85 12//12 163//163
f 3//3 153//153 196//196
f 153//153 35//35 191//191
f 196//196 191//191 55//55
f 34//34 135//135 69//69
f 135//135 54//54 131//131
f 69//69 131//131 46//46
f 34//34 71//71 192//192
f 71//71 3//3 196//196
f 192//192 196//196 55//55
f 5//5 149//149 188//188
f 149//149 3//3 70//70
f 188//188 70//70 46//46
f 15//15 195//195 152//152
f 195//195 58//58 148//148
f 152//152 148//148 35//35
f 60//60 68//68 197//197
f 68//68 14//14 204//204
f 49//49 142//142 164//164
f 142//142 60//60 198//198
f 164//164 198//198 5//5
f 15//15 150//150 197//197
f 150//150 5//5 198//198
f 197//197 198//198 60//60
f 6//6 141//141 199//199
f 49//49 144//144 107//107
f 144//144 47//47 39//39
f 202//202 112//112 206//206
f 141//141 60//60 142//142
f 200//200 142//142 49//49
f 162//162 206//206 160//160
f 141//141 6//6 60//60
f 201//201 16//16 73//73
f 202//202 162//162 178//178
f 2//2 109//109 202//202
f 181//181 31//31 43//43
f 2//2 202//202 178//178
f 181//181 43//43 180//180
f 204//204 195//195 15//15
f 14//14 121//121 204//204
f 160//160 159//159 205//205
f 203//203 205//205 159//159
f 205//205 161//161 160//160
f 197//197 204//204 15//15
f 206//206 112//112 25//25
f 206//206 25//25 160//160
f 202//202 206//206 162//162
f 207//207 195//195 204//204
f 207//207 101//101 58//58
f 195//195 207//207 58//58
f 99//99 100//100 101//101
f 93//93 92//92 208//208
f 208//208 95//95 173//173
f 99//99 101//101 44//44
f 172//172 208//208 173//173
f 33//33 99//99 210//210
f 210//210 119//119 209//209
f 210//210 99//99 44//44
f 119//119 210//210 44//44
f 33//33 210//210 209//209
f 209//209 119//119 45//45
f 184//184 154//154 36//36
f 33//33 209//209 184//184
f 36//36 154//154 156//156
# 370 faces, 0 coords texture

# End of File
