####
#
# OBJ File Generated by Meshlab
#
####
# Object 703_C127_M_3.obj
#
# Vertices: 138
# Faces: 234
#
####
vn 2.622210 -1.730058 -0.025924
v -82.421600 43.403700 38.000000
vn 2.602520 -1.759540 -0.009935
v -83.783200 41.348500 38.000000
vn 2.591626 -1.779826 -0.047293
v -85.049900 39.464600 40.728700
vn 5.207859 -3.513294 -0.112930
v -84.232598 40.633954 41.599863
vn 2.585702 -1.787570 -0.033646
v -85.060900 39.483700 39.232700
vn 5.280943 -3.404352 -0.018595
v -82.383134 43.359471 47.185464
vn 5.281679 -3.403186 -0.014924
v -82.080516 43.834370 45.251440
vn 2.648254 -1.689931 -0.014139
v -80.853800 45.752600 50.000000
vn 1.365266 -0.887616 -0.006243
v -80.106400 46.902300 50.000000
vn 5.301249 -3.372126 -0.015576
v -80.959567 45.594777 48.987589
vn 2.607916 -1.760041 -0.022411
v -85.008400 39.392800 47.381800
vn 2.603133 -1.757014 -0.031433
v -85.002700 39.382900 48.306300
vn 5.223456 -3.491859 -0.020053
v -84.134850 40.698266 46.378006
vn 2.628981 -1.724109 -0.000279
v -80.095100 46.922500 40.727600
vn 5.273079 -3.416055 -0.049841
v -82.642399 42.973720 43.902987
vn 5.245419 -3.458425 -0.051181
v -82.292151 43.563947 41.136147
vn 5.253159 -3.446686 -0.039202
v -83.378065 41.817963 47.706929
vn 2.639429 -1.703599 -0.026917
v -82.192500 43.624800 50.000000
vn 2.651604 -1.684192 -0.027675
v -81.866300 44.130400 50.000000
vn 2.623930 -1.726995 -0.024313
v -83.600900 41.445600 50.000000
vn 2.591289 -1.771068 -0.054414
v -85.027900 39.426600 42.809100
vn 2.597205 -1.756423 -0.014193
v -85.009500 39.395300 45.115500
vn 5.215390 -3.503552 -0.054721
v -84.391171 40.289559 48.285686
vn 1.303966 -0.885116 0.007102
v -80.087000 46.899500 38.000000
vn 1.299871 -0.873534 -0.012770
v -84.993800 39.367500 50.000000
vn 1.295073 -0.896346 -0.013913
v -85.067100 39.494400 38.000000
vn 2.572373 -1.654966 -0.006911
v -80.052600 46.998300 48.097500
vn 5.291393 -3.388009 -0.026627
v -81.999761 43.949807 48.065861
vn 2.627216 -1.710602 0.005341
v -80.075200 46.930900 43.021800
vn 2.623036 -1.728732 -0.024388
v -81.961900 44.102900 38.000000
vn 2.673741 -1.693577 0.007978
v -80.102600 46.952800 45.500000
vn 5.233089 -3.477225 -0.031216
v -82.648182 43.044900 39.066008
vn 5.257731 -3.440048 -0.013688
v -83.112771 42.241174 45.764335
vn 2.610307 -1.748261 0.011171
v -80.088800 46.905300 38.724700
vn 5.300068 -3.374511 -0.005536
v -81.189264 45.223379 46.825022
vn 5.259592 -3.437201 -0.026081
v -81.140687 45.312657 42.008567
vn 5.245521 -3.458612 -0.024110
v -81.280382 45.113111 39.682676
vn 5.245405 -3.457248 -0.098098
v -83.172210 42.192413 42.393207
vn 5.272535 -3.417071 -0.046429
v -82.106170 43.814817 43.267768
vn 5.221826 -3.493408 -0.057349
v -83.452663 41.844926 40.303710
vn 5.223659 -3.489804 -0.057683
v -83.922842 41.008921 43.994703
vn 5.285181 -3.397676 0.005197
v -81.070987 45.409472 44.310455
vn 2.586796 -1.782231 -0.041775
v -85.055400 39.474150 39.980700
vn 5.184807 -3.548301 -0.070106
v -84.631953 40.092371 39.826518
vn 5.289495 -3.391057 -0.015382
v -81.829999 44.223250 46.992118
vn 5.281182 -3.403987 -0.009371
v -82.214879 43.623278 46.221137
vn 5.289751 -3.390715 -0.002680
v -81.655281 44.496869 45.950430
vn 2.633929 -1.712271 -0.012206
v -80.480100 46.327450 50.000000
vn 5.269264 -3.422394 -0.021875
v -80.501195 46.299112 49.423194
vn 5.204127 -3.520223 -0.058767
v -84.646821 39.922030 47.670224
vn 5.212092 -3.508718 -0.027616
v -84.596303 40.008824 46.817164
vn 5.217147 -3.500980 -0.048801
v -84.229529 40.542938 47.380899
vn 5.277269 -3.410000 -0.019455
v -82.457129 43.253704 44.746063
vn 5.271919 -3.418356 -0.009390
v -82.591932 43.044886 45.540175
vn 5.266211 -3.427080 -0.014250
v -82.938975 42.510120 44.841543
vn 2.609713 -1.748997 -0.003080
v -85.008950 39.394050 46.248650
vn 5.216501 -3.502352 0.000584
v -84.550462 40.079021 45.731844
vn 5.273253 -3.416260 -0.019202
v -82.747509 42.800777 46.465422
vn 5.275497 -3.412769 -0.023722
v -82.890704 42.573221 47.401236
vn 5.252571 -3.447625 -0.033232
v -83.251577 42.020235 46.730633
vn 2.638480 -1.705106 -0.025278
v -82.896700 42.535200 50.000000
vn 5.278679 -3.407628 -0.044725
v -83.114621 42.208833 49.265350
vn 5.278510 -3.408065 -0.028564
v -82.529251 43.127299 48.119969
vn 5.277855 -3.409023 -0.033917
v -83.008619 42.383837 48.358630
vn 2.590191 -1.777219 -0.044783
v -85.018700 39.410950 43.962300
vn 5.186012 -3.545824 -0.102648
v -84.524181 40.146444 43.376473
vn 5.197358 -3.530001 -0.042094
v -84.501443 40.149640 44.564746
vn 5.249301 -3.452945 0.000901
v -83.497336 41.656352 44.973457
vn 5.261196 -3.434420 -0.044510
v -83.282100 41.989142 44.026857
vn 2.606474 -1.753707 -0.006703
v -80.683850 46.024475 38.000000
vn 5.210307 -3.511372 -0.015120
v -80.508920 46.282066 38.516608
vn 5.232704 -3.477799 0.002623
v -80.623253 46.102867 39.255502
vn 5.228406 -3.484320 -0.035742
v -81.038115 45.489557 38.715231
vn 5.214239 -3.505322 -0.052137
v -84.620751 39.935131 49.144085
vn 2.604546 -1.756435 -0.029657
v -84.998250 39.375200 49.153150
vn 5.222812 -3.492544 -0.051834
v -84.034363 40.811088 49.058219
vn 2.609540 -1.749112 -0.022623
v -84.297350 40.406550 50.000000
vn 5.166376 -3.575411 -0.058238
v -84.672099 40.053022 38.778931
vn 2.582884 -1.788187 -0.026560
v -84.425150 40.421450 38.000000
vn 5.189973 -3.541130 -0.022849
v -84.168897 40.777995 38.927211
vn 2.665031 -1.663385 -0.019115
v -81.360050 44.941500 50.000000
vn 5.326559 -3.332302 -0.043268
v -81.396647 44.888973 49.468520
vn 5.276865 -3.410631 0.000027
v -80.532065 46.257331 48.490526
vn 2.634222 -1.711827 -0.011425
v -80.079500 46.950300 49.048750
vn 5.253744 -3.445551 -0.048748
v -83.495430 41.624337 48.747824
vn 5.229955 -3.481958 -0.044196
v -83.751401 41.265578 47.040898
vn 5.228181 -3.484518 -0.051452
v -83.874279 41.067763 48.039274
vn 5.302228 -3.370968 -0.003230
v -81.512597 44.712166 47.710250
vn 5.316430 -3.348602 -0.017090
v -81.461790 44.796214 48.599230
vn 5.299796 -3.374475 -0.049627
v -81.916830 44.065683 49.165350
vn 5.231278 -3.480009 -0.027754
v -82.397561 43.414091 40.054682
vn 5.246095 -3.457606 -0.041784
v -81.923638 44.138546 39.493940
vn 5.249480 -3.452630 -0.025667
v -81.806340 44.307621 40.461790
vn 5.301240 -3.372518 0.016288
v -81.040289 45.464242 47.993017
vn 5.294850 -3.382526 -0.011394
v -80.584811 46.168522 47.402739
vn 2.652520 -1.683234 -0.021574
v -80.077600 46.975550 46.798750
vn 5.313182 -3.353707 -0.019806
v -80.614124 46.138191 46.165135
vn 5.305643 -3.365658 0.000725
v -81.106494 45.353126 45.512525
vn 5.306583 -3.363669 0.044540
v -80.590932 46.173683 44.909136
vn 5.285312 -3.397541 -0.017093
v -81.575386 44.622034 44.837379
vn 5.252784 -3.447500 0.011168
v -80.665440 46.051658 40.255638
vn 5.259381 -3.437520 -0.027073
v -80.631242 46.097165 41.366302
vn 5.256855 -3.441425 -0.020419
v -81.207260 45.217764 40.871658
vn 5.255872 -3.442757 -0.036255
v -81.710998 44.446746 41.549871
vn 5.235658 -3.473513 -0.013188
v -83.634248 41.453711 46.025158
vn 5.227129 -3.486376 0.010565
v -84.039347 40.838023 45.260460
vn 5.226404 -3.487431 -0.017021
v -83.217467 42.193867 38.721866
vn 5.216743 -3.501978 -0.005825
v -82.995523 42.526456 39.645875
vn 5.215908 -3.503231 0.006537
v -83.601204 41.621921 39.232733
vn 5.204484 -3.518485 -0.096314
v -84.376334 40.445561 40.635648
vn 5.184613 -3.547838 -0.103678
v -84.672442 39.999574 41.262574
vn 2.594343 -1.770712 -0.059733
v -85.038900 39.445600 41.768900
vn 5.190283 -3.539097 -0.119002
v -84.608527 40.060580 42.231254
vn 5.207138 -3.513950 -0.123685
v -84.097844 40.793538 42.717212
vn 5.267502 -3.424919 -0.034990
v -81.623630 44.563296 42.652045
vn 5.262074 -3.433068 -0.054918
v -82.184480 43.712108 42.199855
vn 5.249454 -3.451303 -0.090650
v -82.747864 42.854063 41.772399
vn 5.228304 -3.482528 -0.122999
v -83.314385 42.015286 41.357089
vn 5.223749 -3.490330 -0.072344
v -82.877794 42.696152 40.723474
vn 2.617839 -1.736659 -0.023115
v -83.102400 42.376100 38.000000
vn 2.628615 -1.720383 -0.016475
v -80.085150 46.926700 41.874700
vn 5.254349 -3.445227 -0.022767
v -80.596811 46.138817 42.513798
vn 5.264431 -3.429068 -0.074788
v -83.050177 42.360648 43.267129
vn 5.241048 -3.463713 -0.103389
v -83.546471 41.605049 43.087630
vn 2.621983 -1.730402 0.022781
v -80.091950 46.913900 39.726150
vn 5.243222 -3.461918 -0.045445
v -81.623568 44.604870 38.782308
vn 5.219493 -3.497183 -0.044697
v -84.004464 41.024579 39.948311
vn 5.227140 -3.484686 -0.110302
v -83.857261 41.217494 40.954852
vn 5.271580 -3.418142 0.037223
v -80.573349 46.170276 43.690677
vn 5.263374 -3.431414 -0.014801
v -81.090811 45.384426 43.152013
vn 2.617691 -1.736903 -0.017585
v -81.422350 44.917850 38.000000
vn 5.267141 -3.425050 -0.067269
v -82.643718 42.997073 42.809739
vn 5.223246 -3.489994 -0.126628
v -83.716538 41.390991 42.012813
vn 5.277800 -3.409182 -0.025038
v -81.574712 44.633640 43.752170
vn 5.282662 -3.401577 -0.034224
v -82.060814 43.874302 44.281868
vn 2.645997 -1.693042 0.043731
v -80.088900 46.941850 44.260900
vn 5.277963 -3.408752 -0.043360
v -82.529488 43.117416 49.060767
vn 5.247114 -3.455992 -0.048058
v -82.136823 43.823641 38.881338
# 138 vertices, 0 vertices normals

f 3//3 43//43 44//44
f 45//45 46//46 47//47
f 9//9 48//48 49//49
f 50//50 51//51 52//52
f 53//53 54//54 55//55
f 56//56 57//57 51//51
f 46//46 58//58 54//54
f 59//59 60//60 58//58
f 63//63 64//64 59//59
f 65//65 66//66 67//67
f 68//68 69//69 55//55
f 72//72 73//73 71//71
f 25//25 75//75 74//74
f 76//76 77//77 74//74
f 5//5 26//26 78//78
f 79//79 80//80 78//78
f 81//81 19//19 82//82
f 49//49 83//83 84//84
f 62//62 85//85 64//64
f 52//52 86//86 87//87
f 88//88 28//28 45//45
f 76//76 87//87 85//85
f 82//82 90//90 89//89
f 91//91 92//92 93//93
f 83//83 94//94 95//95
f 96//96 95//95 97//97
f 98//98 99//99 97//97
f 98//98 47//47 100//100
f 101//101 102//102 103//103
f 104//104 93//93 103//103
f 23//23 12//12 50//50
f 68//68 105//105 106//106
f 94//94 89//89 88//88
f 107//107 108//108 109//109
f 3//3 110//110 111//111
f 112//112 111//111 113//113
f 114//114 66//66 113//113
f 104//104 115//115 116//116
f 117//117 118//118 119//119
f 2//2 120//120 107//107
f 102//102 121//121 122//122
f 86//86 105//105 60//60
f 123//123 69//69 124//124
f 72//72 125//125 101//101
f 1//1 30//30 138//138
f 110//110 127//127 128//128
f 129//129 130//130 122//122
f 126//126 131//131 73//73
f 106//106 57//57 67//67
f 123//123 132//132 15//15
f 132//132 117//117 116//116
f 127//127 80//80 109//109
f 91//91 119//119 108//108
f 114//114 133//133 124//124
f 118//118 133//133 128//128
f 134//134 115//115 130//130
f 100//100 135//135 134//134
f 99//99 129//129 136//136
f 135//135 53//53 15//15
f 43//43 5//5 44//44
f 35//35 45//45 47//47
f 45//45 6//6 46//46
f 47//47 46//46 7//7
f 48//48 8//8 49//49
f 10//10 49//49 8//8
f 23//23 50//50 52//52
f 50//50 11//11 51//51
f 52//52 51//51 13//13
f 15//15 53//53 55//55
f 53//53 7//7 54//54
f 55//55 54//54 33//33
f 11//11 56//56 51//51
f 56//56 22//22 57//57
f 51//51 57//57 13//13
f 7//7 46//46 54//54
f 46//46 6//6 58//58
f 54//54 58//58 33//33
f 6//6 59//59 58//58
f 59//59 17//17 60//60
f 58//58 60//60 33//33
f 18//18 61//61 137//137
f 61//61 20//20 62//62
f 6//6 63//63 59//59
f 59//59 64//64 17//17
f 22//22 65//65 67//67
f 65//65 21//21 66//66
f 67//67 66//66 41//41
f 33//33 68//68 55//55
f 68//68 41//41 69//69
f 55//55 69//69 15//15
f 70//70 24//24 71//71
f 34//34 71//71 24//24
f 34//34 72//72 71//71
f 72//72 37//37 73//73
f 71//71 73//73 70//70
f 12//12 74//74 75//75
f 74//74 12//12 23//23
f 23//23 76//76 74//74
f 76//76 20//20 77//77
f 74//74 77//77 25//25
f 5//5 78//78 44//44
f 26//26 79//79 78//78
f 79//79 2//2 80//80
f 78//78 80//80 44//44
f 8//8 82//82 10//10
f 82//82 8//8 81//81
f 9//9 49//49 84//84
f 49//49 10//10 83//83
f 84//84 83//83 27//27
f 63//63 137//137 64//64
f 62//62 20//20 85//85
f 64//64 85//85 17//17
f 23//23 52//52 87//87
f 52//52 13//13 86//86
f 87//87 86//86 17//17
f 35//35 88//88 45//45
f 45//45 28//28 6//6
f 20//20 76//76 85//85
f 76//76 23//23 87//87
f 85//85 87//87 17//17
f 10//10 82//82 89//89
f 82//82 19//19 90//90
f 89//89 90//90 28//28
f 90//90 19//19 18//18
f 18//18 137//137 90//90
f 16//16 91//91 93//93
f 93//93 92//92 37//37
f 27//27 83//83 95//95
f 83//83 10//10 94//94
f 95//95 94//94 35//35
f 31//31 96//96 97//97
f 96//96 27//27 95//95
f 97//97 95//95 35//35
f 35//35 98//98 97//97
f 98//98 42//42 99//99
f 97//97 99//99 31//31
f 42//42 98//98 100//100
f 98//98 35//35 47//47
f 100//100 47//47 7//7
f 37//37 101//101 103//103
f 101//101 14//14 102//102
f 103//103 102//102 36//36
f 36//36 104//104 103//103
f 104//104 16//16 93//93
f 103//103 93//93 37//37
f 50//50 12//12 11//11
f 41//41 68//68 106//106
f 68//68 33//33 105//105
f 106//106 105//105 13//13
f 35//35 94//94 88//88
f 94//94 10//10 89//89
f 88//88 89//89 28//28
f 2//2 107//107 109//109
f 107//107 32//32 108//108
f 109//109 108//108 40//40
f 3//3 44//44 110//110
f 111//111 110//110 4//4
f 21//21 112//112 113//113
f 112//112 3//3 111//111
f 113//113 111//111 4//4
f 4//4 114//114 113//113
f 114//114 41//41 66//66
f 113//113 66//66 21//21
f 16//16 104//104 116//116
f 104//104 36//36 115//115
f 116//116 115//115 39//39
f 16//16 117//117 119//119
f 117//117 38//38 118//118
f 119//119 118//118 40//40
f 120//120 1//1 32//32
f 36//36 102//102 122//122
f 102//102 14//14 121//121
f 122//122 121//121 29//29
f 17//17 86//86 60//60
f 86//86 13//13 105//105
f 60//60 105//105 33//33
f 38//38 123//123 124//124
f 123//123 15//15 69//69
f 124//124 69//69 41//41
f 37//37 72//72 101//101
f 72//72 34//34 125//125
f 101//101 125//125 14//14
f 1//1 138//138 32//32
f 37//37 92//92 126//126
f 92//92 91//91 138//138
f 126//126 92//92 138//138
f 4//4 110//110 128//128
f 110//110 44//44 127//127
f 128//128 127//127 40//40
f 29//29 129//129 122//122
f 129//129 42//42 130//130
f 122//122 130//130 36//36
f 37//37 126//126 73//73
f 126//126 30//30 131//131
f 73//73 131//131 70//70
f 41//41 106//106 67//67
f 106//106 13//13 57//57
f 67//67 57//57 22//22
f 123//123 38//38 132//132
f 15//15 132//132 39//39
f 39//39 132//132 116//116
f 132//132 38//38 117//117
f 116//116 117//117 16//16
f 40//40 127//127 109//109
f 127//127 44//44 80//80
f 109//109 80//80 2//2
f 91//91 16//16 119//119
f 108//108 119//119 40//40
f 41//41 114//114 124//124
f 114//114 4//4 133//133
f 124//124 133//133 38//38
f 40//40 118//118 128//128
f 118//118 38//38 133//133
f 128//128 133//133 4//4
f 42//42 134//134 130//130
f 134//134 39//39 115//115
f 130//130 115//115 36//36
f 42//42 100//100 134//134
f 100//100 7//7 135//135
f 134//134 135//135 39//39
f 90//90 137//137 63//63
f 63//63 6//6 28//28
f 31//31 99//99 136//136
f 99//99 42//42 129//129
f 136//136 129//129 29//29
f 39//39 135//135 15//15
f 135//135 7//7 53//53
f 120//120 32//32 107//107
f 90//90 63//63 28//28
f 137//137 61//61 62//62
f 137//137 62//62 64//64
f 126//126 138//138 30//30
f 32//32 138//138 91//91
f 32//32 91//91 108//108
# 234 faces, 0 coords texture

# End of File
