####
#
# OBJ File Generated by Meshlab
#
####
# Object 728_C131_M_4.obj
#
# Vertices: 157
# Faces: 270
#
####
vn -5.052434 -3.725602 0.256294
v 48.557207 98.536932 39.924773
vn -2.465509 -1.928318 0.163690
v 47.357900 100.000000 38.721700
vn -2.690557 -2.068964 0.114928
v 48.442900 98.584200 37.994800
vn -0.991234 -0.795945 0.070726
v 47.272200 100.000000 37.520600
vn -5.135095 -3.619256 0.069820
v 49.576754 97.266177 43.212670
vn -2.509397 -1.883572 0.005479
v 47.582500 100.000000 45.970000
vn -5.168299 -3.572311 0.064289
v 50.439948 96.082780 46.509623
vn -2.531440 -1.855983 0.079714
v 48.963900 97.875300 37.994100
vn -5.083089 -3.688863 0.159277
v 49.584609 97.079912 39.430110
vn -2.658858 -1.671204 0.036932
v 52.413900 93.164900 50.000000
vn -5.310854 -3.355948 0.060886
v 52.306579 93.311806 48.931073
vn -5.037912 -3.754394 0.023791
v 48.559737 98.705521 46.466551
vn -5.118735 -3.642671 0.059739
v 49.544539 97.343606 45.291660
vn -2.601790 -1.759945 0.015925
v 51.044500 95.251000 50.000000
vn -2.575884 -1.645411 0.035999
v 53.225400 91.791900 45.854900
vn -5.299793 -3.373622 0.090701
v 52.422828 93.010944 44.688898
vn -5.125218 -3.629217 0.171921
v 49.591878 97.185451 41.167113
vn -2.753224 -1.731802 0.014732
v 53.068600 91.941800 39.768700
vn -2.630493 -1.718390 0.003687
v 52.237300 93.241900 37.998900
vn -1.227508 -0.971991 -0.006460
v 47.573400 100.000000 50.000000
vn -2.494805 -1.908569 0.006222
v 48.060700 99.387000 50.000000
vn -2.512224 -1.897208 0.003676
v 47.588500 100.000000 48.137300
vn -5.027228 -3.768923 0.014830
v 48.810082 98.369149 48.400073
vn -2.759086 -1.714837 0.027178
v 53.121700 91.976400 48.125500
vn -5.088061 -3.684677 0.016432
v 49.406689 97.574543 47.553241
vn -5.264265 -3.428901 0.080022
v 51.543033 94.362768 43.575269
vn -5.243177 -3.461420 0.053729
v 51.571436 94.290481 41.519325
vn -5.215371 -3.503659 0.049069
v 51.488564 94.374310 39.461216
vn -5.165014 -3.575700 0.103171
v 50.562847 95.756763 40.337470
vn -2.594042 -1.645224 0.012883
v 53.193000 91.763700 42.405700
vn -2.561607 -1.817791 0.026588
v 50.482100 95.841400 37.995700
vn -2.629853 -1.680701 0.032882
v 53.207300 91.757500 43.450500
vn -2.548162 -1.891049 0.133346
v 47.532600 100.000000 40.824200
vn -2.539603 -1.876642 0.021825
v 47.592400 100.000000 43.333800
vn -5.079128 -3.694854 0.125504
v 48.574031 98.646276 42.087430
vn -2.531677 -1.856990 0.048486
v 49.632700 97.285000 50.000000
vn -5.068880 -3.712454 0.028284
v 48.566674 98.679465 44.319589
vn -1.328009 -0.811930 0.014410
v 53.144800 91.959300 50.000000
vn -2.515542 -1.881756 0.030899
v 49.317700 97.696400 50.000000
vn -1.299141 -0.831652 -0.000709
v 53.096900 91.899100 38.000000
vn -5.160371 -3.584299 0.042193
v 50.295471 96.310949 48.470928
vn -5.255567 -3.439803 0.098197
v 51.491795 94.521430 45.639029
vn -5.232477 -3.475570 0.050666
v 51.351636 94.780930 47.755483
vn -2.599879 -1.762822 0.018084
v 51.074075 94.971475 37.996450
vn -5.313566 -3.352415 0.074074
v 52.352007 93.182678 46.821606
vn -5.198624 -3.527083 0.082547
v 50.581418 95.794584 42.382790
vn -5.191998 -3.537440 0.078983
v 50.542915 95.886319 44.405508
vn -4.980001 -3.816930 0.311730
v 47.982453 99.239182 39.332258
vn -4.929692 -3.887584 0.242700
v 48.017772 99.149588 38.488186
vn -2.448727 -1.961408 0.161820
v 47.857550 99.292100 37.757700
vn -2.524765 -1.869512 -0.009482
v 47.587450 100.000000 44.651900
vn -5.058964 -3.726150 0.008931
v 48.076454 99.343606 43.862682
vn -5.035373 -3.757967 0.004317
v 48.071752 99.343863 45.063989
vn -5.087525 -3.679691 0.235105
v 49.074883 97.862099 40.559334
vn -5.094706 -3.670894 0.214609
v 49.103377 97.759832 39.612086
vn -5.108194 -3.650396 0.241617
v 49.579634 97.140350 40.218622
vn -5.030833 -3.757888 0.193690
v 48.620482 98.391053 38.861243
vn -5.065667 -3.714172 0.135141
v 49.308599 97.433498 38.767469
vn -2.470904 -1.940061 -0.020030
v 47.580950 100.000000 49.068650
vn -4.987516 -3.820489 0.003211
v 47.888049 99.608744 49.081049
vn -5.280997 -3.403796 0.038616
v 51.809276 94.076905 48.466196
vn -5.305750 -3.364861 0.070847
v 51.872292 93.951289 47.292979
vn -5.317201 -3.346182 0.086795
v 52.307265 93.282336 47.882351
vn -5.163112 -3.578974 0.107739
v 50.086237 96.490730 41.769978
vn -5.166890 -3.574109 0.082966
v 50.078066 96.531836 42.784259
vn -5.141669 -3.609644 0.104560
v 49.584734 97.225361 42.182487
vn -5.155152 -3.591314 0.070907
v 49.995639 96.708745 45.889513
vn -5.164433 -3.578033 0.067545
v 50.038472 96.622966 44.824118
vn -5.176571 -3.560150 0.078898
v 50.502470 95.968135 45.447205
vn -5.210191 -3.511475 0.039283
v 51.448750 94.424474 38.643761
vn -5.201446 -3.524395 0.043609
v 50.998319 95.090700 38.855947
vn -5.151143 -3.597463 0.046527
v 49.925697 96.826931 46.993339
vn -5.106506 -3.659539 0.063634
v 49.497605 97.429547 46.393625
vn -2.662301 -1.667830 0.009542
v 53.130800 91.852750 41.087200
vn -5.293584 -3.384559 0.022115
v 52.604998 92.668354 38.886338
vn -5.018468 -3.780595 0.020808
v 48.076955 99.345128 46.186996
vn -5.050877 -3.736774 0.029528
v 48.567430 98.687721 45.411856
vn -2.515549 -1.880964 0.059942
v 47.562500 100.000000 42.079000
vn -5.053736 -3.728854 0.171681
v 48.057136 99.319718 41.490012
vn -5.050148 -3.737033 0.079946
v 48.073580 99.335419 42.672801
vn -5.043550 -3.731918 0.320251
v 48.028288 99.290959 40.368491
vn -5.079480 -3.691345 0.226310
v 48.558725 98.600222 40.982967
vn -2.580748 -1.791323 0.022550
v 50.338600 96.268000 50.000000
vn -5.161276 -3.582968 0.044639
v 50.613865 95.860648 49.142878
vn -5.102891 -3.661437 0.167592
v 49.080584 97.918021 41.591646
vn -5.110094 -3.654945 0.071457
v 49.074816 97.957016 42.651948
vn -5.146685 -3.599379 0.172702
v 50.084102 96.462615 40.770846
vn -5.192290 -3.536052 0.111782
v 50.581052 95.763410 41.365365
vn -5.082889 -3.693316 0.037989
v 48.568354 98.665590 43.204817
vn -5.093970 -3.677977 0.047315
v 49.065214 97.981272 43.718576
vn -2.503631 -1.886417 0.207048
v 47.445250 100.000000 39.772950
vn -5.345258 -3.301815 0.062193
v 52.721489 92.630819 48.473462
vn -2.675835 -1.645962 0.017960
v 53.133250 91.967850 49.062750
vn -5.361865 -3.274734 0.061876
v 52.738956 92.612651 49.410844
vn -2.686184 -1.628510 0.044443
v 52.779350 92.562100 50.000000
vn -5.030612 -3.764403 0.013329
v 48.195070 99.189462 48.188017
vn -5.035624 -3.757659 0.029535
v 48.459010 98.844243 49.101576
vn -5.052211 -3.735347 0.017679
v 49.120026 97.958394 49.387922
vn -2.520636 -1.875049 0.013766
v 48.689200 98.541700 50.000000
vn -5.263734 -3.427288 0.133298
v 51.522163 94.434427 44.598045
vn -5.203556 -3.519683 0.108111
v 51.019203 95.201279 45.026858
vn -5.227119 -3.484812 0.098525
v 51.042918 95.124833 43.997062
vn -2.647140 -1.691820 -0.000764
v 53.082750 91.920450 38.884350
vn -2.646330 -1.693086 0.000673
v 52.667100 92.570500 37.999450
vn -2.655631 -1.678392 0.015132
v 53.173550 91.884150 46.990200
vn -5.324066 -3.335883 0.057357
v 52.746878 92.563339 47.441753
vn -5.300971 -3.372351 0.063000
v 52.793540 92.479626 46.349674
vn -5.050828 -3.736558 0.066309
v 49.953925 96.569920 38.843310
vn -5.133938 -3.620045 0.046410
v 50.524425 95.797029 39.263867
vn -5.094635 -3.673224 0.135197
v 50.045850 96.454754 39.804850
vn -5.160004 -3.584884 0.036894
v 50.350023 96.223103 47.563146
vn -5.174718 -3.563067 0.063689
v 50.891312 95.438254 47.126686
vn -5.161917 -3.582092 0.040322
v 50.779789 95.609570 48.164468
vn -5.044720 -3.745068 0.033944
v 48.990445 98.130469 46.949530
vn -5.071289 -3.709080 0.051121
v 49.043461 98.037079 45.844393
vn -5.188693 -3.542425 0.083915
v 50.966434 95.301273 46.074887
vn -5.203087 -3.521746 0.059948
v 51.025714 95.066267 39.888675
vn -5.134875 -3.620646 0.021728
v 49.849623 96.948042 48.127439
vn -5.301352 -3.370988 0.095518
v 52.002007 93.657400 44.141897
vn -5.317198 -3.345627 0.109789
v 51.966147 93.753864 45.176202
vn -5.290060 -3.389292 0.078836
v 52.835965 92.355861 44.238800
vn -5.294499 -3.382688 0.064115
v 52.611347 92.696544 43.680235
vn -5.292754 -3.385625 0.051232
v 52.058364 93.551240 43.150205
vn -2.508295 -1.891564 0.006944
v 47.585500 100.000000 47.053650
vn -5.023425 -3.774038 0.003615
v 48.087712 99.334686 47.228118
vn -5.027684 -3.768389 -0.005661
v 48.533495 98.738824 47.386482
vn -5.059840 -3.724703 0.001338
v 49.202380 97.847876 48.691256
vn -5.221240 -3.494511 0.067191
v 51.531736 94.329248 40.477222
vn -5.210387 -3.510235 0.088815
v 51.058374 95.037631 40.938887
vn -2.626477 -1.723532 0.025694
v 51.729200 94.207950 50.000000
vn -5.259880 -3.436653 0.018753
v 51.588259 94.414836 49.459992
vn -2.517650 -1.878513 0.047217
v 49.723000 96.858350 37.994900
vn -2.642667 -1.698224 0.044190
v 53.216350 91.774700 44.652700
vn -5.287926 -3.392288 0.092697
v 52.815792 92.413419 45.244370
vn -5.236569 -3.471861 0.054042
v 51.063178 95.077487 42.985267
vn -5.205385 -3.517861 0.060295
v 50.566524 95.833972 43.391022
vn -5.226983 -3.485649 0.079329
v 51.073087 95.047779 41.970122
vn -5.264027 -3.429784 0.047155
v 51.568348 94.310018 42.560070
vn -5.085519 -3.689674 0.045133
v 49.060662 98.003844 44.774884
vn -5.129054 -3.628147 0.055909
v 49.564987 97.298825 44.243006
vn -5.248345 -3.451759 0.075821
v 51.434000 94.633169 46.690138
vn -5.316781 -3.347208 0.077203
v 51.929979 93.840695 46.230829
vn -5.215706 -3.502034 0.019037
v 51.214626 94.991715 48.847316
vn -2.608168 -1.750927 0.019445
v 51.754350 93.961700 37.997800
vn -5.241288 -3.464782 0.030213
v 52.003964 93.598565 38.920672
vn -5.307884 -3.360792 0.094275
v 52.387258 93.097246 45.751212
vn -5.300634 -3.373488 0.000347
v 52.626781 92.658402 41.679975
vn -5.243740 -3.461081 0.046715
v 51.998307 93.615828 40.011241
vn -5.170553 -3.569354 0.059085
v 50.062150 96.572638 43.796941
vn -5.138861 -3.614662 0.052776
v 50.006417 96.735921 49.154654
vn -5.284076 -3.398439 0.042948
v 52.447316 92.931176 39.674567
vn -5.264121 -3.429652 0.028710
v 52.074938 93.518738 40.999704
vn -5.285074 -3.397850 0.013738
v 52.110076 93.458289 42.136950
vn -5.299261 -3.375098 0.026123
v 52.556203 92.769410 40.548159
vn -5.256709 -3.441475 0.034952
v 51.976977 93.821806 49.439935
vn -5.295398 -3.381621 0.033886
v 52.641324 92.633872 42.809932
vn -5.081155 -3.695371 0.051855
v 49.571769 97.338891 49.125879
# 157 vertices, 0 vertices normals

f 48//48 49//49 57//57
f 3//3 49//49 50//50
f 51//51 52//52 53//53
f 54//54 55//55 56//56
f 55//55 57//57 58//58
f 59//59 22//22 60//60
f 61//61 62//62 63//63
f 64//64 65//65 66//66
f 67//67 68//68 69//69
f 44//44 70//70 71//71
f 72//72 73//73 67//67
f 74//74 147//147 154//154
f 75//75 18//18 151//151
f 76//76 53//53 77//77
f 78//78 79//79 80//80
f 81//81 82//82 79//79
f 85//85 66//66 86//86
f 87//87 88//88 64//64
f 80//80 89//89 52//52
f 86//86 90//90 89//89
f 48//48 81//81 91//91
f 92//92 93//93 94//94
f 38//38 95//95 94//94
f 96//96 97//97 60//60
f 98//98 99//99 97//97
f 100//100 101//101 102//102
f 103//103 75//75 104//104
f 105//105 106//106 107//107
f 108//108 109//109 110//110
f 111//111 112//112 113//113
f 114//114 115//115 73//73
f 92//92 63//63 106//106
f 69//69 101//101 116//116
f 109//109 71//71 117//117
f 72//72 111//111 118//118
f 100//100 119//119 120//120
f 119//119 123//123 122//122
f 124//124 76//76 125//125
f 114//114 23//23 126//126
f 128//128 129//129 117//117
f 130//130 14//14 131//131
f 132//132 108//108 58//58
f 133//133 134//134 121//121
f 110//110 87//87 56//56
f 135//135 102//102 136//136
f 135//135 137//137 138//138
f 139//139 90//90 140//140
f 77//77 139//139 115//115
f 141//141 142//142 62//62
f 112//112 116//116 141//141
f 113//113 143//143 84//84
f 85//85 82//82 54//54
f 143//143 61//61 131//131
f 144//144 145//145 70//70
f 126//126 96//96 125//125
f 107//107 146//146 134//134
f 142//142 120//120 146//146
f 137//137 88//88 129//129
f 152//152 147//147 153//153
f 149//149 65//65 136//136
f 68//68 140//140 149//149
f 118//118 150//150 157//157
f 1//1 48//48 57//57
f 48//48 2//2 49//49
f 57//57 49//49 3//3
f 2//2 4//4 50//50
f 50//50 49//49 2//2
f 6//6 51//51 53//53
f 51//51 34//34 52//52
f 53//53 52//52 37//37
f 17//17 54//54 56//56
f 54//54 1//1 55//55
f 56//56 55//55 9//9
f 9//9 55//55 58//58
f 55//55 1//1 57//57
f 58//58 57//57 8//8
f 20//20 60//60 21//21
f 60//60 20//20 59//59
f 61//61 43//43 62//62
f 63//63 62//62 45//45
f 17//17 64//64 66//66
f 64//64 46//46 65//65
f 66//66 65//65 5//5
f 7//7 67//67 69//69
f 67//67 13//13 68//68
f 69//69 68//68 47//47
f 31//31 44//44 71//71
f 71//71 70//70 28//28
f 7//7 72//72 67//67
f 72//72 25//25 73//73
f 67//67 73//73 13//13
f 18//18 74//74 154//154
f 74//74 30//30 147//147
f 156//156 30//30 32//32
f 12//12 76//76 77//77
f 76//76 6//6 53//53
f 77//77 53//53 37//37
f 34//34 78//78 80//80
f 78//78 33//33 79//79
f 80//80 79//79 35//35
f 33//33 81//81 79//79
f 81//81 1//1 82//82
f 79//79 82//82 35//35
f 14//14 83//83 84//84
f 83//83 36//36 150//150
f 84//84 83//83 150//150
f 35//35 85//85 86//86
f 85//85 17//17 66//66
f 86//86 66//66 5//5
f 17//17 87//87 64//64
f 87//87 29//29 88//88
f 64//64 88//88 46//46
f 34//34 80//80 52//52
f 80//80 35//35 89//89
f 52//52 89//89 37//37
f 35//35 86//86 89//89
f 86//86 5//5 90//90
f 89//89 90//90 37//37
f 2//2 48//48 91//91
f 48//48 1//1 81//81
f 91//91 81//81 33//33
f 11//11 92//92 94//94
f 92//92 24//24 93//93
f 94//94 93//93 38//38
f 95//95 10//10 94//94
f 11//11 94//94 10//10
f 22//22 96//96 60//60
f 96//96 23//23 97//97
f 60//60 97//97 21//21
f 98//98 39//39 99//99
f 97//97 99//99 21//21
f 26//26 100//100 102//102
f 100//100 42//42 101//101
f 102//102 101//101 47//47
f 40//40 103//103 104//104
f 103//103 18//18 75//75
f 104//104 75//75 19//19
f 15//15 105//105 107//107
f 105//105 24//24 106//106
f 107//107 106//106 45//45
f 9//9 108//108 110//110
f 108//108 31//31 109//109
f 110//110 109//109 29//29
f 41//41 111//111 113//113
f 111//111 7//7 112//112
f 113//113 112//112 43//43
f 25//25 114//114 73//73
f 114//114 12//12 115//115
f 73//73 115//115 13//13
f 24//24 92//92 106//106
f 106//106 63//63 45//45
f 7//7 69//69 116//116
f 69//69 47//47 101//101
f 116//116 101//101 42//42
f 29//29 109//109 117//117
f 109//109 31//31 71//71
f 117//117 71//71 28//28
f 25//25 72//72 118//118
f 72//72 7//7 111//111
f 118//118 111//111 41//41
f 42//42 100//100 120//120
f 100//100 26//26 119//119
f 120//120 119//119 16//16
f 122//122 121//121 16//16
f 16//16 119//119 122//122
f 119//119 26//26 123//123
f 122//122 123//123 156//156
f 22//22 124//124 125//125
f 124//124 6//6 76//76
f 125//125 76//76 12//12
f 12//12 114//114 126//126
f 114//114 25//25 23//23
f 28//28 128//128 117//117
f 128//128 27//27 129//129
f 117//117 129//129 29//29
f 8//8 132//132 58//58
f 132//132 31//31 108//108
f 58//58 108//108 9//9
f 32//32 133//133 121//121
f 133//133 15//15 134//134
f 121//121 134//134 16//16
f 9//9 110//110 56//56
f 110//110 29//29 87//87
f 56//56 87//87 17//17
f 46//46 135//135 136//136
f 135//135 26//26 102//102
f 136//136 102//102 47//47
f 26//26 135//135 138//138
f 135//135 46//46 137//137
f 138//138 137//137 27//27
f 13//13 139//139 140//140
f 139//139 37//37 90//90
f 140//140 90//90 5//5
f 12//12 77//77 115//115
f 77//77 37//37 139//139
f 115//115 139//139 13//13
f 43//43 141//141 62//62
f 141//141 42//42 142//142
f 62//62 142//142 45//45
f 43//43 112//112 141//141
f 112//112 7//7 116//116
f 141//141 116//116 42//42
f 41//41 113//113 84//84
f 113//113 43//43 143//143
f 84//84 143//143 14//14
f 27//27 153//153 138//138
f 138//138 123//123 26//26
f 17//17 85//85 54//54
f 85//85 35//35 82//82
f 54//54 82//82 1//1
f 14//14 143//143 131//131
f 143//143 43//43 61//61
f 131//131 61//61 155//155
f 44//44 144//144 70//70
f 144//144 19//19 145//145
f 70//70 145//145 28//28
f 12//12 126//126 125//125
f 126//126 23//23 96//96
f 125//125 96//96 22//22
f 57//57 3//3 8//8
f 15//15 107//107 134//134
f 107//107 45//45 146//146
f 134//134 146//146 16//16
f 45//45 142//142 146//146
f 142//142 42//42 120//120
f 146//146 120//120 16//16
f 27//27 137//137 129//129
f 137//137 46//46 88//88
f 129//129 88//88 29//29
f 145//145 148//148 28//28
f 28//28 148//148 128//128
f 148//148 151//151 154//154
f 47//47 149//149 136//136
f 149//149 5//5 65//65
f 136//136 65//65 46//46
f 47//47 68//68 149//149
f 68//68 13//13 140//140
f 149//149 140//140 5//5
f 25//25 118//118 127//127
f 118//118 41//41 150//150
f 39//39 157//157 36//36
f 147//147 30//30 156//156
f 11//11 61//61 63//63
f 84//84 150//150 41//41
f 92//92 11//11 63//63
f 145//145 75//75 151//151
f 145//145 19//19 75//75
f 131//131 155//155 130//130
f 154//154 147//147 152//152
f 127//127 23//23 25//25
f 151//151 148//148 145//145
f 148//148 152//152 128//128
f 18//18 154//154 151//151
f 128//128 152//152 27//27
f 153//153 27//27 152//152
f 148//148 154//154 152//152
f 153//153 123//123 138//138
f 123//123 153//153 156//156
f 155//155 61//61 11//11
f 10//10 155//155 11//11
f 155//155 10//10 130//130
f 98//98 157//157 39//39
f 153//153 147//147 156//156
f 127//127 98//98 97//97
f 122//122 156//156 32//32
f 122//122 32//32 121//121
f 118//118 157//157 127//127
f 157//157 150//150 36//36
f 98//98 127//127 157//157
f 23//23 127//127 97//97
# 270 faces, 0 coords texture

# End of File
