####
#
# OBJ File Generated by Meshlab
#
####
# Object 734_C132_M_2.obj
#
# Vertices: 144
# Faces: 244
#
####
vn -5.241136 -3.464735 0.013176
v 86.436464 45.261312 -44.222500
vn -2.619711 -1.743766 0.020554
v 87.480000 43.673600 -45.321400
vn -2.668302 -1.661108 0.016779
v 82.591200 51.206200 -45.821600
vn -5.295889 -3.380995 0.017941
v 84.485596 48.173070 -48.372118
vn -2.685535 -1.630886 0.002158
v 82.605200 51.230500 -40.581800
vn -2.674117 -1.641004 0.006050
v 82.604500 51.229400 -42.789600
vn -5.315729 -3.349365 0.037866
v 83.524382 49.684379 -48.159644
vn -2.666820 -1.660543 0.015105
v 83.470200 49.824600 -38.000000
vn -5.252659 -3.447222 0.043371
v 85.667737 46.343142 -47.940118
vn -2.606163 -1.751244 0.021672
v 87.470500 43.657200 -47.291800
vn -5.216347 -3.502366 0.038743
v 86.843456 44.578053 -48.440918
vn -5.224853 -3.489268 0.059945
v 86.588516 44.981852 -46.436096
vn -2.622620 -1.729531 0.018348
v 85.930200 45.993700 -38.000000
vn -5.265859 -3.427131 -0.020084
v 85.466754 46.679836 -40.846665
vn -5.307653 -3.362235 -0.007478
v 83.734167 49.395531 -43.254777
vn -5.274862 -3.413713 0.008930
v 84.823043 47.715590 -43.898834
vn -2.670417 -1.655355 0.024032
v 82.595000 51.212700 -44.926300
vn -2.680426 -1.638534 0.011638
v 82.889400 50.771800 -38.000000
vn -1.339438 -0.819916 0.000835
v 82.606900 51.233300 -38.000000
vn -2.682629 -1.634390 0.006252
v 82.606800 51.233100 -38.356600
vn -2.640574 -1.701939 0.007451
v 84.871700 47.608200 -38.000000
vn -5.332962 -3.321513 -0.005124
v 83.537731 49.694942 -41.282267
vn -2.617373 -1.737024 0.038137
v 87.228300 44.048500 -38.000000
vn -2.615915 -1.717766 0.003319
v 87.460500 43.640900 -40.361800
vn -2.649881 -1.687490 -0.004315
v 84.286500 48.488700 -50.000000
vn -2.640253 -1.702326 0.008076
v 85.166900 47.099000 -50.000000
vn -2.667971 -1.656942 0.019032
v 82.584900 51.195300 -48.332900
vn -2.662231 -1.667610 0.013761
v 83.111600 50.323800 -50.000000
vn -1.339054 -0.827393 0.009524
v 82.579300 51.185400 -50.000000
vn -2.603113 -1.754542 0.012959
v 87.462800 43.643900 -49.886300
vn -2.604933 -1.756033 0.013380
v 87.396000 43.742200 -50.000000
vn -1.300039 -0.881226 0.001918
v 87.462700 43.643800 -50.000000
vn -1.314582 -0.871279 0.020915
v 87.478500 43.671100 -38.000000
vn -2.625395 -1.732571 -0.026250
v 87.476200 43.667300 -42.851900
vn -5.245718 -3.458093 0.026158
v 86.348600 45.338851 -39.691920
vn -5.248346 -3.453946 -0.053396
v 86.468422 45.168682 -41.795337
vn -5.296398 -3.380109 0.009467
v 84.395489 48.345143 -39.801576
vn -5.290089 -3.389875 0.038792
v 84.107963 48.811657 -45.037734
vn -5.251697 -3.448470 0.074630
v 85.603607 46.487538 -45.577747
vn -5.336948 -3.315488 0.021749
v 83.455285 49.837376 -39.266207
vn -5.258572 -3.438472 -0.042110
v 85.527612 46.628564 -42.865481
vn -2.615657 -1.739776 0.016584
v 86.237800 45.461700 -50.000000
vn -5.280860 -3.404184 -0.036600
v 84.560777 48.096431 -41.973392
vn -5.264320 -3.429602 0.050169
v 85.239746 47.062870 -44.696912
vn -5.316467 -3.348337 0.041005
v 83.529909 49.692165 -46.962778
vn -5.281757 -3.402477 0.057412
v 84.692341 47.867311 -46.565086
vn -5.362484 -3.274380 -0.012963
v 83.097620 50.418605 -42.007291
vn -5.349646 -3.295213 0.006280
v 83.211544 50.241961 -43.037403
vn -5.325101 -3.334347 -0.023108
v 83.616414 49.575716 -42.285039
vn -5.252568 -3.447313 0.067398
v 85.659729 46.378925 -46.743070
vn -5.263890 -3.430098 0.065524
v 85.202181 47.089060 -46.349105
vn -5.271036 -3.419302 0.049791
v 85.134859 47.175061 -47.220648
vn -5.215722 -3.503306 0.038560
v 87.098378 44.206271 -47.753641
vn -5.215387 -3.503680 0.048258
v 87.048159 44.291971 -46.844579
vn -5.220447 -3.496239 0.040517
v 86.666320 44.853609 -47.472528
vn -2.627604 -1.721962 0.012129
v 85.400950 46.800950 -38.000000
vn -5.266983 -3.425882 0.012474
v 85.145966 47.184843 -38.783436
vn -5.256166 -3.442434 0.027846
v 85.664130 46.393541 -38.778852
vn -5.266976 -3.425884 0.021307
v 85.425247 46.751297 -39.717268
vn -5.250878 -3.450504 0.003393
v 85.917791 45.993493 -40.299222
vn -5.258112 -3.439435 0.030241
v 85.899420 46.027581 -39.464831
vn -5.217016 -3.501326 0.041676
v 86.531080 45.034582 -49.181954
vn -5.223419 -3.491766 0.043280
v 86.293805 45.402389 -48.211174
vn -5.241015 -3.465242 0.031891
v 85.968619 45.877600 -49.049502
vn -5.294971 -3.382527 -0.014679
v 84.050275 48.893688 -41.602558
vn -5.291604 -3.387785 -0.014790
v 84.490641 48.201405 -40.933977
vn -5.303491 -3.369102 0.001121
v 83.969216 49.015857 -40.576441
vn -2.613143 -1.743635 0.028757
v 86.579250 45.021100 -38.000000
vn -5.240109 -3.466530 0.046139
v 86.183415 45.601091 -38.809433
vn -5.233764 -3.475753 0.070316
v 86.761110 44.733337 -38.917028
vn -5.239610 -3.466693 0.083321
v 87.242712 44.000886 -39.081889
vn -5.296262 -3.380482 0.010447
v 83.941000 49.026470 -48.806280
vn -2.653344 -1.682072 -0.001534
v 84.726700 47.793850 -50.000000
vn -5.292538 -3.386183 0.017503
v 84.865150 47.575083 -49.124767
vn -5.341073 -3.309003 0.042312
v 82.877425 50.712215 -49.192033
vn -5.314354 -3.351582 0.023834
v 83.366987 49.924510 -49.151863
vn -5.337773 -3.314312 0.043907
v 83.079671 50.396390 -48.493158
vn -5.363656 -3.272444 0.018376
v 83.011102 50.565664 -38.822813
vn -5.317706 -3.346353 0.038874
v 83.258592 50.135126 -45.895513
vn -5.305124 -3.366180 0.053335
v 83.814431 49.259868 -45.938601
vn -5.304301 -3.367757 0.020920
v 83.585390 49.632918 -45.013724
vn -2.685956 -1.629487 0.003926
v 82.606000 51.231800 -39.469200
vn -5.368215 -3.265050 0.007805
v 83.027716 50.535583 -39.900328
vn -2.646201 -1.693288 -0.002050
v 83.699050 49.406250 -50.000000
vn -2.670241 -1.654932 0.024807
v 82.599750 51.221050 -43.857950
vn -5.344225 -3.303856 0.046399
v 82.898047 50.738743 -43.924811
vn -5.326416 -3.332434 0.020118
v 83.386529 49.945091 -44.052641
vn -5.231572 -3.479350 0.052799
v 86.162334 45.611168 -47.147874
vn -2.629172 -1.719592 0.007947
v 85.702350 46.280350 -50.000000
vn -5.268664 -3.423235 0.024778
v 85.409100 46.733234 -49.029168
vn -5.279885 -3.405919 0.030593
v 85.041557 47.311119 -48.167824
vn -5.246684 -3.456588 -0.031379
v 85.972563 45.958790 -43.457074
vn -5.255694 -3.443004 0.009174
v 85.429939 46.775261 -43.769295
vn -5.238343 -3.469090 0.044025
v 85.828425 46.174831 -44.461678
vn -5.267286 -3.425255 -0.019014
v 85.106746 47.278152 -43.189392
vn -5.264784 -3.428757 -0.062957
v 85.063175 47.332579 -42.390433
vn -5.269703 -3.421471 -0.044840
v 84.649813 47.974013 -42.915960
vn -2.606670 -1.753320 0.027227
v 87.475250 43.665400 -46.306600
vn -5.218620 -3.498527 0.066983
v 87.019351 44.350674 -45.826712
vn -5.286547 -3.395504 0.004674
v 83.896617 49.141221 -44.183457
vn -5.340566 -3.309634 0.013707
v 83.475848 49.798629 -40.277013
vn -5.369422 -3.263083 0.003581
v 83.057519 50.485652 -40.956415
vn -2.672349 -1.651606 0.018785
v 82.582100 51.190350 -49.166450
vn -5.312242 -3.355294 0.021949
v 83.857643 49.197104 -39.721509
vn -5.311120 -3.357018 0.029022
v 83.984348 49.002850 -38.914509
vn -2.666171 -1.661609 0.013901
v 82.588050 51.200750 -47.077250
vn -5.334126 -3.320272 0.035285
v 83.049286 50.456189 -47.612132
vn -5.331035 -3.325312 0.027831
v 83.003508 50.537766 -46.641200
vn -5.328751 -3.328784 0.036169
v 83.043328 50.489033 -44.957651
vn -5.211995 -3.508896 0.034282
v 87.083522 44.212778 -49.336474
vn -2.606504 -1.753696 0.016996
v 87.466650 43.650550 -48.589050
vn -2.628767 -1.720208 -0.008443
v 87.478100 43.670450 -44.086650
vn -5.247012 -3.456113 -0.040355
v 86.979006 44.430386 -43.524762
vn -5.241160 -3.464777 0.029694
v 86.994919 44.411968 -44.724655
vn -2.605619 -1.755004 0.017715
v 86.816900 44.601950 -50.000000
vn -2.619123 -1.734366 0.042138
v 87.469500 43.656000 -39.180900
vn -2.619495 -1.733965 -0.034899
v 87.468350 43.654100 -41.606850
vn -5.249571 -3.452180 -0.040387
v 86.960055 44.412068 -41.114352
vn -5.238445 -3.468797 -0.067516
v 86.973424 44.415882 -42.307393
vn -5.278137 -3.408335 -0.042269
v 85.009444 47.394656 -41.407581
vn -5.283100 -3.401009 0.002757
v 84.952830 47.478509 -40.357986
vn -5.278101 -3.408799 0.010399
v 84.909202 47.550792 -39.491510
vn -5.295440 -3.381628 0.017152
v 84.586391 48.051596 -38.825122
vn -5.248598 -3.454013 -0.016751
v 86.433763 45.214679 -40.700400
vn -5.249538 -3.452196 -0.045166
v 85.968257 45.922134 -41.325962
vn -5.279658 -3.405779 0.059508
v 84.653885 47.967628 -44.900488
vn -5.293518 -3.383997 0.069909
v 84.369619 48.385532 -45.826639
vn -5.272654 -3.416365 0.074236
v 84.954976 47.481013 -45.650658
vn -5.229569 -3.481886 0.079954
v 86.546530 45.068603 -45.375536
vn -5.305024 -3.366402 0.045501
v 84.133171 48.741724 -46.759963
vn -5.285935 -3.396407 -0.032873
v 84.134006 48.766657 -42.582082
vn -5.273775 -3.415279 -0.016083
v 84.255373 48.592821 -43.507294
vn -2.684864 -1.631290 0.001651
v 82.604850 51.229950 -41.685700
vn -5.272417 -3.417513 0.022688
v 84.352638 48.439199 -44.309314
vn -5.262471 -3.432119 -0.072168
v 85.512608 46.630012 -41.884891
vn -5.257726 -3.439455 -0.069680
v 85.999202 45.897756 -42.383455
vn -5.248402 -3.453734 -0.063596
v 86.478474 45.175166 -42.953263
vn -5.238490 -3.468385 0.083022
v 86.117120 45.721662 -45.119094
vn -5.238268 -3.468934 0.072886
v 86.122144 45.692091 -46.066499
vn -2.655245 -1.678996 0.015883
v 84.170950 48.716400 -38.000000
vn -5.291238 -3.388118 0.031105
v 84.575919 48.037780 -47.458247
vn -5.303135 -3.369588 0.031735
v 84.036030 48.886932 -47.715069
vn -5.298716 -3.376665 -0.005664
v 84.277278 48.501617 -49.388505
vn -5.249620 -3.451982 0.043284
v 87.075888 44.233264 -39.919130
# 144 vertices, 0 vertices normals

f 47//47 48//48 49//49
f 50//50 51//51 52//52
f 53//53 54//54 55//55
f 56//56 57//57 58//58
f 59//59 60//60 61//61
f 18//18 19//19 20//20
f 62//62 63//63 64//64
f 65//65 66//66 67//67
f 68//68 69//69 70//70
f 144//144 71//71 70//70
f 73//73 74//74 143//143
f 75//75 76//76 77//77
f 79//79 80//80 81//81
f 18//18 78//78 8//8
f 82//82 83//83 78//78
f 76//76 84//84 72//72
f 6//6 85//85 86//86
f 87//87 48//48 86//86
f 55//55 88//88 63//63
f 89//89 64//64 90//90
f 91//91 74//74 90//90
f 92//92 93//93 94//94
f 95//95 96//96 97//97
f 98//98 99//99 54//54
f 87//87 81//81 100//100
f 101//101 83//83 102//102
f 75//75 27//27 103//103
f 104//104 37//37 105//105
f 106//106 107//107 108//108
f 79//79 109//109 3//3
f 17//17 3//3 109//109
f 53//53 11//11 111//111
f 112//112 113//113 114//114
f 30//30 31//31 32//32
f 110//110 62//62 115//115
f 24//24 116//116 71//71
f 117//117 118//118 119//119
f 61//61 69//69 58//58
f 101//101 67//67 104//104
f 120//120 121//121 66//66
f 122//122 121//121 59//59
f 123//123 122//122 57//57
f 124//124 60//60 125//125
f 126//126 127//127 128//128
f 114//114 129//129 99//99
f 80//80 130//130 127//127
f 97//97 131//131 132//132
f 102//102 133//133 47//47
f 134//134 126//126 16//16
f 96//96 135//135 120//120
f 100//100 134//134 132//132
f 65//65 49//49 131//131
f 125//125 135//135 136//136
f 136//136 92//92 137//137
f 113//113 119//119 137//137
f 129//129 138//138 139//139
f 139//139 50//50 88//88
f 94//94 39//39 138//138
f 123//123 140//140 105//105
f 128//128 51//51 39//39
f 16//16 93//93 95//95
f 52//52 141//141 91//91
f 142//142 7//7 72//72
f 107//107 77//77 7//7
f 141//141 130//130 142//142
f 22//22 47//47 49//49
f 47//47 6//6 48//48
f 49//49 48//48 15//15
f 9//9 50//50 52//52
f 50//50 39//39 51//51
f 52//52 51//51 46//46
f 11//11 53//53 55//55
f 53//53 10//10 54//54
f 55//55 54//54 12//12
f 13//13 56//56 58//58
f 56//56 21//21 57//57
f 58//58 57//57 59//59
f 59//59 14//14 60//60
f 61//61 60//60 35//35
f 42//42 62//62 64//64
f 62//62 11//11 63//63
f 64//64 63//63 9//9
f 22//22 65//65 67//67
f 65//65 43//43 66//66
f 67//67 66//66 37//37
f 23//23 68//68 70//70
f 68//68 13//13 69//69
f 70//70 69//69 35//35
f 35//35 144//144 70//70
f 70//70 71//71 23//23
f 84//84 143//143 72//72
f 143//143 4//4 72//72
f 25//25 73//73 143//143
f 73//73 26//26 74//74
f 143//143 74//74 4//4
f 27//27 75//75 77//77
f 75//75 28//28 76//76
f 77//77 76//76 7//7
f 20//20 78//78 18//18
f 109//109 79//79 81//81
f 79//79 45//45 80//80
f 81//81 80//80 38//38
f 78//78 40//40 8//8
f 20//20 82//82 78//78
f 82//82 5//5 83//83
f 78//78 83//83 40//40
f 7//7 76//76 72//72
f 76//76 28//28 84//84
f 85//85 17//17 86//86
f 109//109 86//86 17//17
f 109//109 87//87 86//86
f 87//87 15//15 48//48
f 86//86 48//48 6//6
f 11//11 55//55 63//63
f 55//55 12//12 88//88
f 63//63 88//88 9//9
f 26//26 89//89 90//90
f 89//89 42//42 64//64
f 90//90 64//64 9//9
f 9//9 91//91 90//90
f 91//91 4//4 74//74
f 90//90 74//74 26//26
f 1//1 92//92 94//94
f 92//92 41//41 93//93
f 94//94 93//93 44//44
f 16//16 95//95 97//97
f 95//95 41//41 96//96
f 97//97 96//96 43//43
f 10//10 98//98 54//54
f 98//98 2//2 99//99
f 54//54 99//99 12//12
f 15//15 87//87 100//100
f 87//87 109//109 81//81
f 100//100 81//81 38//38
f 22//22 101//101 102//102
f 101//101 40//40 83//83
f 102//102 83//83 5//5
f 28//28 75//75 29//29
f 103//103 29//29 75//75
f 40//40 105//105 8//8
f 105//105 40//40 104//104
f 3//3 106//106 108//108
f 106//106 27//27 107//107
f 108//108 107//107 45//45
f 45//45 79//79 108//108
f 108//108 79//79 3//3
f 10//10 53//53 111//111
f 111//111 11//11 110//110
f 111//111 110//110 30//30
f 31//31 110//110 115//115
f 2//2 112//112 114//114
f 112//112 34//34 113//113
f 114//114 113//113 1//1
f 31//31 30//30 110//110
f 110//110 11//11 62//62
f 115//115 62//62 42//42
f 33//33 71//71 116//116
f 71//71 33//33 23//23
f 34//34 117//117 119//119
f 117//117 24//24 118//118
f 119//119 118//118 36//36
f 59//59 61//61 58//58
f 61//61 35//35 69//69
f 58//58 69//69 13//13
f 40//40 101//101 104//104
f 101//101 22//22 67//67
f 104//104 67//67 37//37
f 43//43 120//120 66//66
f 120//120 14//14 121//121
f 66//66 121//121 37//37
f 122//122 37//37 121//121
f 59//59 121//121 14//14
f 21//21 123//123 57//57
f 123//123 37//37 122//122
f 57//57 122//122 59//59
f 36//36 124//124 125//125
f 124//124 35//35 60//60
f 125//125 60//60 14//14
f 24//24 144//144 118//118
f 118//118 124//124 36//36
f 44//44 126//126 128//128
f 126//126 38//38 127//127
f 128//128 127//127 46//46
f 2//2 114//114 99//99
f 114//114 1//1 129//129
f 99//99 129//129 12//12
f 38//38 80//80 127//127
f 80//80 45//45 130//130
f 127//127 130//130 46//46
f 16//16 97//97 132//132
f 97//97 43//43 131//131
f 132//132 131//131 15//15
f 22//22 102//102 47//47
f 102//102 5//5 133//133
f 47//47 133//133 6//6
f 134//134 38//38 126//126
f 16//16 126//126 44//44
f 43//43 96//96 120//120
f 96//96 41//41 135//135
f 120//120 135//135 14//14
f 15//15 100//100 132//132
f 100//100 38//38 134//134
f 132//132 134//134 16//16
f 43//43 65//65 131//131
f 65//65 22//22 49//49
f 131//131 49//49 15//15
f 36//36 125//125 136//136
f 125//125 14//14 135//135
f 136//136 135//135 41//41
f 36//36 136//136 137//137
f 136//136 41//41 92//92
f 137//137 92//92 1//1
f 1//1 113//113 137//137
f 113//113 34//34 119//119
f 137//137 119//119 36//36
f 12//12 129//129 139//139
f 129//129 1//1 138//138
f 139//139 138//138 39//39
f 12//12 139//139 88//88
f 139//139 39//39 50//50
f 88//88 50//50 9//9
f 1//1 94//94 138//138
f 94//94 44//44 39//39
f 37//37 123//123 105//105
f 123//123 21//21 140//140
f 105//105 140//140 8//8
f 44//44 128//128 39//39
f 128//128 46//46 51//51
f 16//16 44//44 93//93
f 95//95 93//93 41//41
f 9//9 52//52 91//91
f 52//52 46//46 141//141
f 91//91 141//141 4//4
f 4//4 142//142 72//72
f 142//142 45//45 7//7
f 45//45 107//107 7//7
f 107//107 27//27 77//77
f 4//4 141//141 142//142
f 141//141 46//46 130//130
f 142//142 130//130 45//45
f 143//143 84//84 25//25
f 144//144 24//24 71//71
f 144//144 124//124 118//118
f 144//144 35//35 124//124
# 244 faces, 0 coords texture

# End of File
