####
#
# OBJ File Generated by Meshlab
#
####
# Object 73_C45_M_6.obj
#
# Vertices: 207
# Faces: 363
#
####
vn -3.827825 -4.981517 0.019364
v 30.721905 33.309391 -46.230935
vn -3.777365 -5.019390 0.013514
v 29.628313 34.155563 -42.626613
vn -3.874414 -4.946025 -0.016901
v 30.876214 33.187088 -43.888911
vn -3.448554 -5.251401 0.085005
v 26.188802 36.524443 -44.527383
vn -3.454609 -5.248121 0.017508
v 25.991718 36.638653 -46.368950
vn -3.712065 -5.068938 0.042096
v 29.280642 34.388239 -44.836993
vn -3.266603 -5.363585 0.010760
v 24.402869 37.765846 -39.848220
vn -3.911381 -4.917178 -0.020443
v 31.411792 32.753792 -42.872916
vn -3.944777 -4.890171 -0.014991
v 32.064285 32.245180 -44.733614
vn -1.504028 -2.696610 -0.019142
v 22.618300 38.718000 -48.154100
vn -1.532200 -2.786460 -0.049506
v 22.691300 38.718000 -49.780500
vn -1.617407 -2.694672 0.022743
v 22.680700 38.718000 -44.024000
vn -3.323721 -5.331046 0.040847
v 24.450965 37.642968 -45.302256
vn -3.591721 -5.153477 0.062364
v 27.901066 35.400165 -43.635330
vn -2.003433 -2.410276 0.003915
v 33.912300 30.718000 -44.844500
vn -2.020803 -2.399469 0.023109
v 33.894200 30.718000 -47.106300
vn -1.928187 -2.479527 0.011447
v 30.902800 33.153300 -50.000000
vn -2.022809 -2.403407 0.045229
v 32.860400 31.554500 -50.000000
vn -2.000083 -2.430814 0.018559
v 33.922400 30.718000 -40.167300
vn -3.924124 -4.906782 0.007140
v 32.652299 31.767884 -39.072069
vn -3.532123 -5.196206 0.042734
v 26.705996 36.145208 -49.344001
vn -3.532092 -5.196014 0.038749
v 27.309904 35.755384 -47.503789
vn -3.662617 -5.104185 0.032297
v 28.919689 34.644718 -46.864630
vn -1.950539 -2.462673 -0.002046
v 31.560500 32.624500 -38.000000
vn -1.981789 -2.436390 0.031221
v 33.206700 31.331400 -38.000000
vn -1.988778 -2.415239 0.018248
v 33.936600 30.718000 -39.188400
vn -1.008211 -1.206637 0.004304
v 33.934100 30.718000 -38.000000
vn -1.888415 -2.509640 0.007602
v 29.056100 34.604100 -38.000000
vn -3.864922 -4.953822 0.009477
v 29.817312 34.003427 -39.624619
vn -3.996877 -4.847947 -0.010894
v 33.146696 31.351721 -43.197233
vn -1.602498 -2.704380 0.004721
v 22.647600 38.718000 -46.368500
vn -3.899136 -4.926957 -0.004191
v 31.300972 32.831414 -39.051695
vn -1.954014 -2.459928 0.002799
v 31.043100 33.038700 -38.000000
vn -3.336270 -5.323309 -0.045317
v 24.335201 37.714196 -47.288566
vn -3.265116 -5.365374 -0.040602
v 23.913044 37.990177 -48.241577
vn -2.008229 -2.423769 0.001425
v 33.908400 30.718000 -42.399900
vn -1.780646 -2.587499 0.015811
v 27.145200 35.974500 -38.000000
vn -3.296276 -5.346751 0.108902
v 24.464613 37.689994 -41.976559
vn -1.600492 -2.688794 0.037649
v 22.689200 38.718000 -43.349400
vn -2.020235 -2.378551 0.039822
v 33.876000 30.718000 -48.423100
vn -0.742434 -1.384722 -0.000338
v 22.691400 38.718000 -50.000000
vn -3.465963 -5.238679 0.099996
v 26.244107 36.535585 -42.705306
vn -3.479700 -5.229758 0.061166
v 26.158309 36.625849 -40.815598
vn -1.600689 -2.745920 0.023742
v 22.751400 38.718000 -41.034200
vn -1.721294 -2.627653 0.022636
v 26.146700 36.641300 -38.000000
vn -1.566377 -2.720675 -0.031531
v 22.979000 38.563800 -50.000000
vn -1.716571 -2.630616 0.004776
v 25.006000 37.296400 -50.000000
vn -1.521392 -2.723691 0.002468
v 22.709200 38.718000 -38.406900
vn -0.766082 -1.380158 0.006856
v 22.712800 38.718000 -38.000000
vn -1.595646 -2.703573 0.037838
v 24.122200 37.935800 -38.000000
vn -1.056831 -1.202396 0.042730
v 33.811700 30.718000 -50.000000
vn -3.624011 -5.132242 0.049694
v 27.889706 35.412147 -41.627089
vn -1.771900 -2.594147 0.022811
v 27.056600 35.900700 -50.000000
vn -1.828393 -2.554296 0.012435
v 28.983700 34.578400 -50.000000
vn -3.616415 -5.136866 0.046603
v 27.692041 35.583853 -39.658323
vn -3.464117 -5.241547 0.000024
v 25.606082 36.896846 -48.127635
vn -3.550431 -5.183209 0.051642
v 27.668410 35.525549 -45.602165
vn -3.994659 -4.849114 0.061743
v 32.469347 31.900713 -48.357508
vn -3.975906 -4.864211 0.019438
v 32.450775 31.936967 -46.560782
vn -3.884768 -4.938245 -0.012544
v 30.659846 33.345291 -40.953942
vn -3.946263 -4.888935 0.005402
v 32.414906 31.955399 -41.071463
vn -3.748697 -5.041984 0.030385
v 29.917647 33.898839 -48.353462
vn -3.774439 -5.022236 0.028519
v 29.229418 34.457160 -40.249381
vn -3.416175 -5.273088 0.050757
v 25.320292 37.083834 -44.919602
vn -3.415397 -5.273765 0.027976
v 25.255514 37.119104 -45.832879
vn -3.452741 -5.249093 0.044032
v 26.109059 36.569274 -45.449369
vn -3.566378 -5.171019 0.092187
v 27.802885 35.450501 -44.623085
vn -3.639238 -5.121397 0.052492
v 28.475276 34.957829 -45.213329
vn -3.674533 -5.095969 0.074566
v 28.618576 34.876239 -44.199741
vn -3.951596 -4.884932 -0.009113
v 32.307921 32.033648 -42.914805
vn -3.929287 -4.902807 -0.035776
v 31.775695 32.469517 -43.813719
vn -3.977376 -4.863769 -0.022536
v 32.547520 31.848310 -43.959274
vn -3.086116 -5.471265 -0.136582
v 22.918409 38.572915 -49.046329
vn -1.530213 -2.742870 -0.068683
v 22.654800 38.718000 -48.967300
vn -3.227969 -5.388470 -0.041958
v 23.541209 38.218523 -49.118379
vn -3.085549 -5.472732 -0.048388
v 23.154649 38.419123 -48.206006
vn -1.618557 -2.692463 0.022851
v 22.664150 38.718000 -45.196250
vn -3.231957 -5.388093 0.033936
v 23.566409 38.170928 -45.748239
vn -3.235578 -5.385820 0.048785
v 23.579967 38.171549 -44.714791
vn -2.021528 -2.404760 0.011931
v 33.903250 30.718000 -45.975400
vn -4.027843 -4.822159 -0.001598
v 33.031568 31.452857 -45.825537
vn -4.045185 -4.807598 0.040700
v 33.179023 31.323258 -46.796132
vn -1.984497 -2.435165 0.036583
v 31.881600 32.353900 -50.000000
vn -3.958606 -4.878864 0.062847
v 31.860184 32.387969 -48.962471
vn -3.938480 -4.895076 0.009817
v 32.560586 31.840653 -39.959065
vn -3.994854 -4.849625 0.026217
v 33.214736 31.298714 -40.622543
vn -2.006500 -2.417345 -0.002521
v 33.910350 30.718000 -43.622200
vn -4.009447 -4.837636 -0.004743
v 33.201851 31.306420 -44.265128
vn -3.969105 -4.870240 0.034939
v 33.218031 31.314050 -38.634634
vn -3.910083 -4.918247 -0.010150
v 31.379706 32.789616 -44.574997
vn -3.234521 -5.386151 -0.039750
v 23.647732 38.118776 -46.608949
vn -3.176050 -5.419996 -0.040154
v 23.368253 38.302027 -47.338771
vn -3.319732 -5.333592 0.007148
v 24.419183 37.658564 -46.242331
vn -3.415841 -5.273525 -0.009159
v 25.170983 37.171622 -46.746870
vn -3.907559 -4.920300 0.006269
v 31.472557 32.714272 -45.462849
vn -3.835671 -4.975638 -0.000970
v 30.737718 33.298862 -45.075038
vn -3.871176 -4.948917 -0.010280
v 30.199737 33.707793 -41.735192
vn -3.883664 -4.939091 -0.022525
v 30.562926 33.421970 -42.748877
vn -3.893661 -4.931296 -0.005457
v 31.033764 33.051214 -41.911858
vn -3.491801 -5.223292 0.039305
v 26.539001 36.373213 -38.818891
vn -3.528619 -5.198593 0.030361
v 26.942132 36.093540 -39.458975
vn -3.593451 -5.153228 0.026404
v 27.468285 35.745180 -38.807001
vn -1.830845 -2.552950 -0.007528
v 28.100650 35.289300 -38.000000
vn -3.683707 -5.089831 0.018404
v 28.337828 35.121889 -38.909162
vn -3.917299 -4.912487 0.004513
v 31.865337 32.392768 -41.993464
vn -3.901065 -4.925433 -0.013936
v 31.469640 32.704301 -41.045842
vn -3.529820 -5.197875 0.027986
v 25.846061 36.728258 -49.502327
vn -3.518926 -5.205193 0.035295
v 26.221567 36.476460 -48.741413
vn -3.490332 -5.224524 0.013431
v 26.658187 36.192491 -46.927887
vn -3.458160 -5.245651 -0.011693
v 25.831437 36.746343 -47.265576
vn -3.504818 -5.214710 0.028216
v 26.460487 36.324366 -47.833896
vn -3.745984 -5.044351 0.022968
v 29.759055 34.023547 -46.566133
vn -3.754720 -5.037858 0.017671
v 29.951890 33.885844 -45.519776
vn -3.688360 -5.086125 0.013107
v 29.125277 34.498217 -45.861619
vn -3.213752 -5.397989 0.104818
v 23.598403 38.192563 -42.636628
vn -3.322066 -5.331429 0.109778
v 24.595743 37.578762 -43.184914
vn -4.091179 -4.766546 0.110645
v 33.344959 31.155592 -49.230207
vn -4.039041 -4.812585 0.059190
v 33.097263 31.371465 -48.581076
vn -1.944698 -2.467337 -0.000830
v 30.049600 33.821400 -38.000000
vn -3.876394 -4.944823 0.010752
v 29.683741 34.110268 -38.749601
vn -3.563719 -5.174378 0.045956
v 27.079029 35.965334 -42.189496
vn -3.524145 -5.200838 0.069868
v 27.090350 35.956694 -43.145486
vn -3.613493 -5.139526 0.008727
v 27.931467 35.381499 -42.638506
vn -3.579127 -5.163962 0.039270
v 28.117073 35.198658 -47.175845
vn -3.602516 -5.147620 0.023846
v 28.311636 35.073877 -46.210501
vn -3.532953 -5.195340 0.038726
v 27.495391 35.636239 -46.566822
vn -3.444949 -5.252415 0.136386
v 26.239039 36.515494 -43.613163
vn -3.386682 -5.290741 0.129609
v 25.498276 37.001608 -43.175304
vn -3.405429 -5.279190 0.100480
v 25.372855 37.060911 -43.995898
vn -3.287981 -5.352112 0.094676
v 24.425402 37.733696 -40.913327
vn -3.388775 -5.290127 0.095693
v 25.306893 37.161624 -41.370599
vn -3.401508 -5.282373 0.053239
v 25.259439 37.209411 -40.367552
vn -3.387243 -5.290805 0.110742
v 25.361926 37.107766 -42.349289
vn -3.485306 -5.225828 0.091968
v 26.207283 36.576799 -41.779200
vn -3.858131 -4.959134 -0.005501
v 29.941211 33.904269 -40.664433
vn -3.763153 -5.030225 0.006579
v 29.399683 34.328090 -41.380342
vn -3.193800 -5.410136 0.092005
v 23.581442 38.220515 -41.516354
vn -3.147728 -5.437084 0.020449
v 23.568873 38.247746 -40.385233
vn -1.596761 -2.705200 0.043034
v 22.720300 38.718000 -42.191800
vn -3.487934 -5.224960 0.107698
v 27.047417 35.960851 -44.094261
vn -3.484008 -5.228363 0.063936
v 26.958678 36.005504 -45.046477
vn -3.324217 -5.330381 0.063003
v 24.492184 37.627476 -44.337011
vn -3.487177 -5.226515 0.037481
v 26.831525 36.081476 -45.992035
vn -1.541912 -2.737087 0.021275
v 22.632950 38.718000 -47.261300
vn -1.695324 -2.644895 -0.002433
v 25.134450 37.288550 -38.000000
vn -3.412289 -5.275813 -0.000555
v 25.503801 37.051577 -38.742471
vn -3.410893 -5.276693 -0.008540
v 25.157082 37.278281 -39.436335
vn -1.665603 -2.663648 0.018680
v 23.992500 37.930100 -50.000000
vn -3.367167 -5.304473 0.001175
v 24.409246 37.675618 -49.122260
vn -1.551575 -2.731593 -0.024922
v 22.730300 38.718000 -39.720550
vn -3.110541 -5.459075 -0.029408
v 23.545974 38.250218 -39.230617
vn -3.074095 -5.479539 0.039695
v 23.481090 38.289712 -38.369285
vn -1.524485 -2.746880 0.014104
v 23.417500 38.326900 -38.000000
vn -1.766745 -2.597653 0.020361
v 26.031300 36.598550 -50.000000
vn -2.072637 -2.359372 0.084514
v 33.843850 30.718000 -49.211550
vn -1.997696 -2.424594 0.012527
v 33.915400 30.718000 -41.283600
vn -4.001985 -4.843774 0.012429
v 33.211239 31.296563 -41.596517
vn -3.997896 -4.847136 0.005717
v 33.054476 31.426753 -42.333091
vn -3.230696 -5.388374 0.076099
v 23.616248 38.159640 -43.694282
vn -3.636068 -5.123026 0.082568
v 27.803504 35.490442 -40.617037
vn -3.682757 -5.090418 0.052943
v 28.596747 34.908923 -40.963602
vn -3.700649 -5.077373 0.058146
v 28.476012 35.012075 -39.912655
vn -3.469940 -5.237651 0.002692
v 26.086546 36.675025 -39.739160
vn -4.043494 -4.808885 0.056505
v 33.181393 31.309874 -47.787874
vn -3.781137 -5.017927 0.030502
v 30.063550 33.804314 -44.470771
vn -3.735559 -5.051592 0.056239
v 29.431705 34.288019 -43.789573
vn -3.685221 -5.088820 0.027218
v 28.733778 34.802018 -43.152627
vn -3.406483 -5.279538 -0.027201
v 24.758269 37.445028 -48.243068
vn -3.555293 -5.180048 0.047882
v 26.966823 36.076717 -40.267128
vn -3.578709 -5.163643 0.089662
v 27.034483 36.012294 -41.228790
vn -1.776337 -2.591028 0.028393
v 28.020150 35.239550 -50.000000
vn -3.548816 -5.184687 0.057545
v 27.687502 35.476427 -49.155608
vn -3.531055 -5.196754 0.058090
v 27.113762 35.877926 -48.416032
vn -3.673637 -5.097281 0.018942
v 28.723369 34.810608 -42.072140
vn -3.905969 -4.921565 0.004747
v 31.655535 32.568265 -46.387789
vn -3.953805 -4.882795 -0.011471
v 32.273353 32.078532 -45.656920
vn -3.984069 -4.858352 0.042497
v 33.267995 31.261165 -39.596871
vn -1.945691 -2.466546 0.001081
v 32.383600 31.977950 -38.000000
vn -1.872922 -2.522157 0.022191
v 29.943250 33.865850 -50.000000
vn -3.781911 -5.017208 0.015021
v 30.389114 33.542280 -49.144984
vn -3.829402 -4.980520 0.023319
v 30.159868 33.744842 -43.515167
vn -3.783486 -5.015923 0.038211
v 30.302134 33.617440 -47.343157
vn -3.719044 -5.063939 0.043593
v 29.444460 34.253300 -47.593609
vn -3.893690 -4.931264 -0.010004
v 31.789805 32.447320 -40.089119
vn -3.411390 -5.276377 -0.024483
v 25.120749 37.208481 -47.545783
vn -3.632695 -5.125688 0.059523
v 28.682950 34.803567 -47.784631
vn -3.676586 -5.095013 0.032823
v 28.996182 34.566459 -48.529388
vn -4.019094 -4.829588 -0.003281
v 33.301050 31.225785 -45.121598
vn -3.992915 -4.850486 0.055698
v 32.489970 31.895123 -47.465791
vn -3.919655 -4.910478 0.030236
v 31.891134 32.380468 -47.145706
vn -3.914596 -4.914371 0.039928
v 31.680164 32.541302 -48.049027
vn -3.880014 -4.941994 -0.005084
v 30.373108 33.568771 -40.093152
vn -3.893292 -4.931595 -0.001598
v 30.477479 33.484181 -39.071147
vn -3.871154 -4.948452 0.040881
v 31.154270 32.965191 -47.200229
vn -3.781605 -5.016868 0.034616
v 29.108815 34.554899 -39.196839
vn -3.832409 -4.978918 0.025572
v 30.767044 33.252398 -48.180011
vn -3.900408 -4.925951 -0.015380
v 30.992169 33.078657 -40.065020
vn -3.998786 -4.845808 0.069594
v 32.530665 31.837217 -49.203057
vn -3.283440 -5.355297 -0.001964
v 24.466805 37.718457 -38.757700
vn -3.464852 -5.240919 -0.007849
v 25.294349 37.104144 -48.997936
vn -3.885251 -4.937935 -0.006292
v 32.002194 32.279221 -39.061984
vn -3.897240 -4.927616 0.019405
v 31.227501 32.898518 -49.085485
vn -4.000977 -4.844617 -0.014223
v 32.714731 31.710247 -44.913454
vn -3.615112 -5.138205 0.023314
v 28.594289 34.856720 -49.067976
vn -3.972702 -4.867534 0.016484
v 32.593546 31.808410 -41.949093
vn -3.718886 -5.064203 0.021956
v 29.564719 34.153846 -49.215378
vn -3.582773 -5.161151 0.047504
v 28.181232 35.149638 -48.237555
# 207 vertices, 0 vertices normals

f 64//64 65//65 66//66
f 67//67 68//68 69//69
f 70//70 71//71 72//72
f 73//73 10//10 74//74
f 73//73 75//75 76//76
f 77//77 78//78 79//79
f 80//80 81//81 82//82
f 177//177 85//85 86//86
f 87//87 30//30 88//88
f 25//25 89//89 27//27
f 71//71 3//3 90//90
f 34//34 91//91 92//92
f 65//65 93//93 94//94
f 95//95 90//90 96//96
f 97//97 98//98 99//99
f 100//100 101//101 102//102
f 103//103 102//102 104//104
f 200//200 107//107 108//108
f 109//109 110//110 111//111
f 112//112 113//113 114//114
f 115//115 159//159 116//116
f 117//117 118//118 198//198
f 119//119 120//120 193//193
f 11//11 41//41 46//46
f 121//121 122//122 123//123
f 124//124 125//125 126//126
f 127//127 128//128 129//129
f 130//130 131//131 132//132
f 133//133 134//134 131//131
f 97//97 135//135 136//136
f 137//137 130//130 138//138
f 139//139 115//115 137//137
f 127//127 140//140 122//122
f 141//141 67//67 140//140
f 133//133 116//116 128//128
f 78//78 91//91 93//93
f 129//129 142//142 64//64
f 109//109 126//126 143//143
f 144//144 76//76 92//92
f 37//37 45//45 100//100
f 145//145 50//50 199//199
f 148//148 149//149 75//75
f 150//150 138//138 151//151
f 50//50 153//153 152//152
f 151//151 199//199 152//152
f 155//155 40//40 117//117
f 156//156 86//86 157//157
f 79//79 142//142 159//159
f 160//160 161//161 162//162
f 147//147 132//132 163//163
f 58//58 118//118 164//164
f 96//96 165//165 113//113
f 66//66 143//143 141//141
f 69//69 166//166 167//167
f 160//160 169//169 170//170
f 171//171 54//54 204//204
f 172//172 207//207 173//173
f 174//174 123//123 167//167
f 95//95 175//175 176//176
f 170//170 134//134 121//121
f 89//89 20//20 177//177
f 201//201 20//20 178//178
f 179//179 180//180 206//206
f 163//163 169//169 101//101
f 173//173 111//111 108//108
f 181//181 166//166 165//165
f 182//182 112//112 183//183
f 197//197 106//106 184//184
f 110//110 94//94 185//185
f 124//124 207//207 186//186
f 186//186 187//187 183//183
f 81//81 188//188 203//203
f 125//125 114//114 68//68
f 164//164 82//82 189//189
f 168//168 185//185 34//34
f 189//189 190//190 191//191
f 175//175 194//194 190//190
f 98//98 181//181 3//3
f 135//135 60//60 192//192
f 28//28 195//195 120//120
f 136//136 161//161 174//174
f 194//194 182//182 196//196
f 195//195 104//104 162//162
f 4//4 64//64 66//66
f 64//64 13//13 65//65
f 66//66 65//65 5//5
f 14//14 67//67 69//69
f 67//67 57//57 68//68
f 69//69 68//68 6//6
f 30//30 70//70 72//72
f 70//70 8//8 71//71
f 72//72 71//71 9//9
f 46//46 73//73 11//11
f 74//74 11//11 73//73
f 10//10 73//73 76//76
f 73//73 46//46 75//75
f 76//76 75//75 35//35
f 12//12 77//77 79//79
f 77//77 31//31 78//78
f 79//79 78//78 13//13
f 16//16 80//80 82//82
f 80//80 15//15 188//188
f 82//82 81//81 59//59
f 17//17 83//83 202//202
f 83//83 18//18 198//198
f 19//19 177//177 86//86
f 177//177 20//20 85//85
f 86//86 85//85 61//61
f 15//15 87//87 88//88
f 87//87 36//36 30//30
f 89//89 26//26 27//27
f 9//9 71//71 90//90
f 71//71 8//8 3//3
f 35//35 34//34 92//92
f 92//92 91//91 31//31
f 5//5 65//65 94//94
f 65//65 13//13 93//93
f 94//94 93//93 34//34
f 1//1 95//95 96//96
f 95//95 9//9 90//90
f 96//96 90//90 3//3
f 60//60 97//97 99//99
f 97//97 2//2 98//98
f 99//99 98//98 8//8
f 37//37 100//100 102//102
f 102//102 101//101 55//55
f 28//28 103//103 104//104
f 103//103 37//37 102//102
f 104//104 102//102 55//55
f 105//105 61//61 106//106
f 99//99 106//106 60//60
f 56//56 200//200 108//108
f 108//108 107//107 21//21
f 22//22 109//109 111//111
f 109//109 5//5 110//110
f 111//111 110//110 56//56
f 23//23 112//112 114//114
f 112//112 1//1 113//113
f 114//114 113//113 6//6
f 38//38 115//115 116//116
f 115//115 39//39 159//159
f 18//18 117//117 198//198
f 117//117 40//40 118//118
f 198//198 118//118 58//58
f 33//33 119//119 193//193
f 119//119 28//28 120//120
f 193//193 120//120 29//29
f 52//52 121//121 123//123
f 121//121 42//42 122//122
f 123//123 122//122 14//14
f 22//22 124//124 126//126
f 124//124 23//23 125//125
f 126//126 125//125 57//57
f 4//4 127//127 129//129
f 127//127 42//42 128//128
f 129//129 128//128 116//116
f 7//7 130//130 132//132
f 130//130 38//38 131//131
f 132//132 131//131 43//43
f 38//38 133//133 131//131
f 133//133 42//42 134//134
f 131//131 134//134 43//43
f 2//2 97//97 136//136
f 97//97 60//60 135//135
f 136//136 135//135 63//63
f 44//44 137//137 138//138
f 137//137 38//38 130//130
f 138//138 130//130 7//7
f 44//44 139//139 137//137
f 139//139 39//39 115//115
f 137//137 115//115 38//38
f 42//42 127//127 122//122
f 127//127 4//4 140//140
f 122//122 140//140 14//14
f 4//4 141//141 140//140
f 141//141 57//57 67//67
f 140//140 67//67 14//14
f 42//42 133//133 128//128
f 133//133 38//38 116//116
f 13//13 78//78 93//93
f 78//78 31//31 91//91
f 93//93 91//91 34//34
f 4//4 129//129 64//64
f 129//129 116//116 142//142
f 64//64 142//142 13//13
f 5//5 109//109 143//143
f 109//109 22//22 126//126
f 143//143 126//126 57//57
f 31//31 144//144 92//92
f 144//144 10//10 76//76
f 92//92 76//76 35//35
f 100//100 45//45 146//146
f 145//145 199//199 146//146
f 199//199 7//7 147//147
f 46//46 148//148 75//75
f 148//148 47//47 149//149
f 75//75 149//149 35//35
f 48//48 150//150 151//151
f 150//150 44//44 138//138
f 151//151 138//138 7//7
f 49//49 152//152 153//153
f 152//152 49//49 48//48
f 48//48 151//151 152//152
f 151//151 7//7 199//199
f 152//152 199//199 50//50
f 154//154 53//53 21//21
f 51//51 117//117 18//18
f 117//117 51//51 155//155
f 36//36 156//156 157//157
f 156//156 19//19 86//86
f 157//157 86//86 61//61
f 61//61 205//205 157//157
f 159//159 39//39 12//12
f 12//12 79//79 159//159
f 79//79 13//13 142//142
f 159//159 142//142 116//116
f 55//55 160//160 162//162
f 160//160 52//52 161//161
f 162//162 161//161 63//63
f 146//146 147//147 163//163
f 147//147 7//7 132//132
f 163//163 132//132 43//43
f 40//40 164//164 118//118
f 164//164 40//40 16//16
f 1//1 96//96 113//113
f 96//96 3//3 165//165
f 113//113 165//165 6//6
f 4//4 66//66 141//141
f 66//66 5//5 143//143
f 141//141 143//143 57//57
f 14//14 69//69 167//167
f 69//69 6//6 166//166
f 167//167 166//166 2//2
f 35//35 149//149 168//168
f 149//149 47//47 200//200
f 168//168 200//200 56//56
f 24//24 33//33 32//32
f 52//52 160//160 170//170
f 160//160 55//55 169//169
f 170//170 169//169 43//43
f 53//53 172//172 21//21
f 172//172 53//53 171//171
f 21//21 172//172 173//173
f 173//173 207//207 22//22
f 2//2 174//174 167//167
f 174//174 52//52 123//123
f 167//167 123//123 14//14
f 9//9 95//95 176//176
f 95//95 1//1 175//175
f 176//176 175//175 59//59
f 52//52 170//170 121//121
f 170//170 43//43 134//134
f 121//121 134//134 42//42
f 26//26 177//177 19//19
f 26//26 89//89 177//177
f 24//24 32//32 201//201
f 178//178 20//20 89//89
f 54//54 179//179 206//206
f 179//179 17//17 180//180
f 163//163 43//43 169//169
f 101//101 169//169 55//55
f 21//21 173//173 108//108
f 173//173 22//22 111//111
f 108//108 111//111 56//56
f 105//105 8//8 70//70
f 158//158 70//70 30//30
f 3//3 181//181 165//165
f 181//181 2//2 166//166
f 165//165 166//166 6//6
f 62//62 182//182 183//183
f 182//182 1//1 112//112
f 183//183 112//112 23//23
f 32//32 197//197 184//184
f 197//197 60//60 106//106
f 184//184 106//106 61//61
f 56//56 110//110 185//185
f 110//110 5//5 94//94
f 185//185 94//94 34//34
f 23//23 124//124 186//186
f 124//124 22//22 207//207
f 23//23 186//186 183//183
f 183//183 187//187 62//62
f 62//62 187//187 206//206
f 59//59 81//81 176//176
f 176//176 81//81 203//203
f 30//30 72//72 88//88
f 188//188 88//88 203//203
f 88//88 188//188 15//15
f 57//57 125//125 68//68
f 125//125 23//23 114//114
f 68//68 114//114 6//6
f 58//58 164//164 189//189
f 164//164 16//16 82//82
f 189//189 82//82 59//59
f 35//35 168//168 34//34
f 168//168 56//56 185//185
f 58//58 189//189 191//191
f 189//189 59//59 190//190
f 29//29 192//192 193//193
f 192//192 60//60 197//197
f 193//193 192//192 197//197
f 59//59 175//175 190//190
f 175//175 1//1 194//194
f 190//190 194//194 191//191
f 32//32 184//184 201//201
f 184//184 61//61 85//85
f 33//33 193//193 32//32
f 8//8 98//98 3//3
f 98//98 2//2 181//181
f 63//63 135//135 29//29
f 192//192 29//29 135//135
f 195//195 29//29 120//120
f 29//29 195//195 63//63
f 2//2 136//136 174//174
f 136//136 63//63 161//161
f 174//174 161//161 52//52
f 62//62 180//180 196//196
f 196//196 202//202 191//191
f 58//58 191//191 84//84
f 191//191 194//194 196//196
f 194//194 1//1 182//182
f 196//196 182//182 62//62
f 63//63 195//195 162//162
f 195//195 28//28 104//104
f 162//162 104//104 55//55
f 100//100 146//146 163//163
f 100//100 163//163 101//101
f 193//193 197//197 32//32
f 146//146 45//45 145//145
f 83//83 198//198 84//84
f 107//107 200//200 47//47
f 149//149 200//200 168//168
f 58//58 84//84 198//198
f 24//24 201//201 178//178
f 54//54 206//206 204//204
f 107//107 47//47 154//154
f 184//184 85//85 201//201
f 20//20 201//201 85//85
f 180//180 202//202 196//196
f 80//80 188//188 81//81
f 202//202 83//83 84//84
f 154//154 21//21 107//107
f 180//180 17//17 202//202
f 202//202 84//84 191//191
f 105//105 70//70 205//205
f 171//171 204//204 172//172
f 178//178 89//89 25//25
f 176//176 203//203 9//9
f 72//72 203//203 88//88
f 203//203 72//72 9//9
f 158//158 30//30 36//36
f 157//157 158//158 36//36
f 105//105 106//106 99//99
f 8//8 105//105 99//99
f 146//146 199//199 147//147
f 205//205 158//158 157//157
f 172//172 204//204 207//207
f 187//187 207//207 204//204
f 205//205 70//70 158//158
f 205//205 61//61 105//105
f 206//206 187//187 204//204
f 206//206 180//180 62//62
f 207//207 187//187 186//186
# 363 faces, 0 coords texture

# End of File
