####
#
# OBJ File Generated by Meshlab
#
####
# Object 751_C134_M_3.obj
#
# Vertices: 150
# Faces: 254
#
####
vn 2.682415 -1.630026 -0.017184
v -82.381200 50.842500 44.048500
vn 5.335802 -3.317236 -0.027139
v -83.371959 49.221862 43.190678
vn 5.315918 -3.348312 0.006658
v -83.329446 49.271857 45.237160
vn 2.640217 -1.702569 -0.004602
v -85.696900 45.567800 38.000000
vn 2.651231 -1.685361 0.009693
v -84.444500 47.533100 38.000000
vn 5.318265 -3.345786 -0.008706
v -84.511440 47.430150 40.447025
vn 2.604788 -1.759702 0.043060
v -87.243900 43.264700 43.523200
vn 2.618328 -1.723441 0.019465
v -87.221400 43.225800 41.088500
vn 5.242495 -3.462289 0.056342
v -86.307435 44.630189 42.648799
vn 2.611052 -1.746436 -0.019001
v -87.073900 43.450000 38.000000
vn 2.679980 -1.638020 -0.027496
v -82.573400 50.477000 50.000000
vn 2.666811 -1.651212 -0.011096
v -82.373600 50.829300 48.594700
vn 1.351860 -0.806090 -0.013073
v -82.369100 50.821400 50.000000
vn 5.230217 -3.480903 0.074374
v -86.379301 44.570326 44.707484
vn 5.285978 -3.396200 0.007350
v -85.389327 46.034447 41.701032
vn 5.243609 -3.461395 -0.040569
v -86.198835 44.860826 48.625858
vn 2.621657 -1.733979 -0.023734
v -87.249900 43.275200 48.520500
vn 5.308864 -3.360447 -0.002016
v -84.438947 47.529126 42.462920
vn 2.646864 -1.692100 -0.013066
v -83.993500 48.232500 50.000000
vn 2.630895 -1.714307 0.002994
v -87.220200 43.223800 40.377200
vn 2.657052 -1.674664 0.037123
v -84.019100 48.190800 38.000000
vn 2.624130 -1.727162 -0.023503
v -86.943100 43.717700 50.000000
vn 2.620496 -1.718887 -0.006968
v -87.220300 43.223900 38.648000
vn 2.686422 -1.628632 -0.017314
v -83.041800 49.798600 38.000000
vn 2.672024 -1.663625 0.003713
v -82.370000 50.822800 46.591100
vn 2.708070 -1.590515 -0.020021
v -82.392100 50.861300 40.215000
vn 1.346642 -0.807107 -0.001984
v -82.398400 50.872100 38.000000
vn 2.696548 -1.607452 -0.016745
v -82.398200 50.871700 38.298400
vn 2.638641 -1.704952 -0.013312
v -84.285600 47.778900 50.000000
vn 5.261065 -3.434850 -0.033177
v -85.133600 46.482295 48.514148
vn 1.309271 -0.859014 -0.013805
v -87.242000 43.261500 50.000000
vn 1.291749 -0.905894 -0.024245
v -87.225800 43.233400 38.000000
vn 2.627621 -1.721828 -0.015201
v -85.572800 45.797400 50.000000
vn 2.616338 -1.752600 0.014629
v -87.258600 43.290100 46.034100
vn 5.273639 -3.415119 0.052344
v -85.373791 46.079681 43.673366
vn 2.684967 -1.635381 -0.009130
v -82.384600 50.848400 42.049300
vn 2.602806 -1.761261 0.033767
v -87.250700 43.276600 44.553800
vn 5.368554 -3.262803 -0.030407
v -82.930142 49.947382 39.989484
vn 5.259756 -3.436602 0.050612
v -85.395562 46.081221 45.511813
vn 5.254010 -3.445718 -0.020479
v -85.393927 46.095886 47.528641
vn 5.263738 -3.430942 0.000631
v -86.266783 44.686479 40.796493
vn 5.287970 -3.393278 0.028462
v -84.341636 47.695115 44.392592
vn 5.235494 -3.473533 0.004302
v -86.396077 44.587142 46.759372
vn 5.303832 -3.368528 0.001887
v -83.528907 48.987483 47.177219
vn 5.278415 -3.408214 0.016799
v -84.428011 47.583483 46.242001
vn 5.329669 -3.327502 -0.013562
v -83.594419 48.889462 41.298575
vn 5.325807 -3.333621 -0.030705
v -83.071245 49.705176 48.549699
vn 5.331292 -3.324092 -0.030883
v -83.325972 49.285023 44.205086
vn 5.367691 -3.265793 -0.028979
v -82.862268 50.054294 43.618841
vn 5.366314 -3.267921 -0.041558
v -82.845056 50.070005 44.698178
vn 2.649527 -1.688037 -0.011907
v -85.070700 46.550450 38.000000
vn 5.305529 -3.365908 -0.007605
v -84.860897 46.874321 38.795469
vn 5.293655 -3.384524 -0.012882
v -85.342177 46.117800 38.897157
vn 5.318414 -3.345562 0.004872
v -84.482944 47.473839 39.318168
vn 5.309633 -3.359481 -0.004178
v -85.001662 46.652664 39.906631
vn 2.605411 -1.754628 0.052112
v -87.232650 43.245250 42.305850
vn 5.234520 -3.474311 0.060434
v -86.757922 43.939182 41.936102
vn 5.208456 -3.513097 0.091576
v -86.784784 43.932781 43.063564
vn 2.633572 -1.712863 -0.001388
v -86.385400 44.508900 38.000000
vn 5.267772 -3.424761 -0.003057
v -86.706116 44.015070 38.988428
vn 5.353668 -3.287855 -0.061174
v -82.555220 50.520105 49.331609
vn 2.690153 -1.622457 -0.017735
v -82.371350 50.825350 49.297350
vn 5.270165 -3.421057 -0.007582
v -85.869027 45.301558 38.923049
vn 5.265557 -3.428160 -0.006624
v -85.967208 45.148340 40.008887
vn 5.323852 -3.336675 0.026232
v -84.009331 48.228393 38.873102
vn 5.242792 -3.462631 -0.040586
v -86.541897 44.333666 49.283419
vn 5.243708 -3.461079 -0.052455
v -87.008855 43.628704 49.262327
vn 5.238295 -3.469374 -0.046065
v -86.713844 44.084533 48.498278
vn 2.633619 -1.712792 -0.000868
v -87.220250 43.223850 39.512600
vn 5.265349 -3.428483 -0.004081
v -86.632193 44.127345 40.033441
vn 2.707563 -1.593238 -0.017263
v -82.395150 50.866500 39.256700
vn 5.399025 -3.213297 -0.049503
v -82.698853 50.351865 39.120065
vn 5.308681 -3.360820 -0.025542
v -83.551551 48.933048 49.243765
vn 2.656007 -1.677845 -0.008148
v -83.283450 49.354750 50.000000
vn 5.271951 -3.418254 -0.020761
v -84.710731 47.128489 49.191730
vn 2.684133 -1.632309 -0.024471
v -82.375600 50.832650 45.319800
vn 5.342328 -3.306403 0.005017
v -82.865271 50.019902 45.822984
vn 2.624433 -1.726574 -0.030001
v -87.245950 43.268350 49.260250
vn 2.684536 -1.631793 0.011010
v -83.530450 48.994700 38.000000
vn 5.246717 -3.456762 -0.034258
v -86.031933 45.106995 49.348613
vn 2.623298 -1.728473 -0.017032
v -86.257950 44.757550 50.000000
vn 2.634639 -1.711203 -0.008179
v -84.929200 46.788150 50.000000
vn 5.300684 -3.373446 0.022806
v -84.378862 47.629579 43.435819
vn 5.285530 -3.396935 0.045184
v -84.863850 46.878063 44.044582
vn 5.291654 -3.387596 0.031058
v -84.898572 46.816488 43.088662
vn 2.708416 -1.591726 -0.022268
v -82.388350 50.854850 41.132150
vn 5.376245 -3.250592 0.000494
v -82.716207 50.299013 40.986960
vn 5.360021 -3.278203 -0.037748
v -82.906980 49.986929 42.619847
vn 5.338829 -3.312403 -0.046729
v -83.468884 49.078146 42.230688
vn 5.346513 -3.300014 -0.005590
v -83.047966 49.774353 41.655313
vn 5.261044 -3.434914 -0.032685
v -84.920321 46.819553 47.732304
vn 5.260809 -3.435426 0.011911
v -86.292559 44.649447 41.650493
vn 5.321101 -3.341295 0.001805
v -84.061502 48.147094 39.924564
vn 5.268070 -3.424188 -0.000549
v -84.946534 46.785454 46.833737
vn 5.277896 -3.408878 -0.022592
v -84.470060 47.511681 47.206892
vn 5.250737 -3.450636 -0.035181
v -85.661380 45.672947 49.001576
vn 5.247831 -3.454993 -0.040427
v -85.744500 45.556111 48.103867
vn 5.278078 -3.408414 0.053327
v -84.866845 46.890609 44.955299
vn 5.265787 -3.427039 0.065632
v -85.375217 46.094353 44.598072
vn 5.247841 -3.454492 0.071118
v -85.896420 45.312650 45.132466
vn 5.251899 -3.448214 0.075635
v -85.878154 45.321649 44.186349
vn 5.209677 -3.511874 0.065943
v -86.885225 43.829766 45.288882
vn 5.231554 -3.479008 0.070846
v -86.397805 44.564107 45.729147
vn 5.228782 -3.483510 0.012576
v -86.847244 43.908147 46.432444
vn 2.602602 -1.759310 0.029934
v -87.254650 43.283350 45.293950
vn 5.328576 -3.329111 0.017586
v -83.247245 49.439659 40.691956
vn 5.317864 -3.346446 -0.001719
v -83.700135 48.721786 40.466393
vn 5.325085 -3.334868 -0.014139
v -83.515116 49.015722 39.648337
vn 5.278185 -3.408409 0.043767
v -83.877508 48.429799 45.729287
vn 5.276054 -3.411747 0.040599
v -84.369024 47.664305 45.318064
vn 5.285626 -3.396924 0.006074
v -83.827111 48.496414 44.779613
vn 5.306737 -3.363814 -0.031063
v -83.622602 48.829949 48.183055
vn 5.316160 -3.349064 -0.018821
v -83.182829 49.534532 47.742036
vn 5.324774 -3.335268 -0.033790
v -84.005018 48.228005 41.861563
vn 5.317152 -3.347436 -0.009730
v -83.914347 48.361544 42.817021
vn 5.205886 -3.517339 0.073993
v -86.818864 43.907014 44.172541
vn 5.229993 -3.480971 0.081340
v -86.340698 44.604166 43.684725
vn 5.261911 -3.433090 0.061561
v -85.852684 45.336574 43.210155
vn 2.683674 -1.633220 -0.009565
v -82.382900 50.845450 43.048900
vn 5.266472 -3.426640 0.024553
v -85.843665 45.339564 42.219500
vn 5.282004 -3.402501 0.036711
v -85.380254 46.058759 42.696184
vn 5.354243 -3.287431 -0.047096
v -83.115381 49.663925 39.071860
vn 5.252357 -3.448089 0.021073
v -85.426947 46.040916 46.480189
vn 5.274853 -3.413679 0.033122
v -84.909010 46.836392 45.870034
vn 5.238923 -3.468270 0.047112
v -85.917158 45.301980 46.104346
vn 5.240507 -3.466038 -0.045318
v -86.326815 44.678641 47.744242
vn 5.236794 -3.471772 -0.012807
v -85.906997 45.322616 47.102213
vn 5.239949 -3.466921 -0.042320
v -86.814682 43.944869 47.543304
vn 5.302525 -3.370573 -0.004420
v -83.848040 48.472009 43.793287
vn 5.287796 -3.393611 -0.028950
v -84.132197 48.026408 48.900638
vn 5.261548 -3.434297 0.008484
v -86.728965 43.978583 40.879628
vn 5.289813 -3.390321 -0.008158
v -85.431100 45.971218 40.660477
vn 5.264696 -3.429477 0.003274
v -85.851288 45.324737 41.243496
vn 2.665951 -1.661989 0.010182
v -82.371800 50.826050 47.592900
vn 5.323670 -3.337142 0.004836
v -82.699859 50.299857 47.599062
vn 2.621013 -1.731911 -0.019559
v -87.254250 43.282650 47.277300
vn 5.299802 -3.374371 0.052279
v -83.409432 49.161966 46.223191
vn 5.287851 -3.393430 0.011779
v -83.958637 48.317020 46.671687
vn 5.311340 -3.356737 -0.016334
v -84.953076 46.727917 41.080538
vn 5.317364 -3.347091 -0.026943
v -84.487359 47.460160 41.475654
vn 5.300805 -3.373232 0.005554
v -84.924813 46.764728 42.098284
vn 5.324108 -3.336443 -0.016291
v -84.067722 48.135899 40.902208
vn 5.316617 -3.348108 0.030549
v -82.998500 49.827591 46.838342
vn 5.294214 -3.383624 -0.027807
v -84.035556 48.189368 47.678585
vn 5.321602 -3.340119 -0.043753
v -82.969030 49.856513 49.369949
vn 5.275695 -3.412360 -0.025787
v -84.551099 47.379912 48.244487
vn 5.350001 -3.294674 0.002592
v -83.544585 48.975367 38.581259
vn 5.282225 -3.402236 -0.012096
v -85.570158 45.758910 39.601614
vn 5.263625 -3.431013 -0.024575
v -85.228537 46.330286 49.346696
vn 5.265951 -3.427555 -0.004493
v -86.271646 44.683199 39.046429
# 150 vertices, 0 vertices normals

f 48//48 49//49 50//50
f 51//51 52//52 53//53
f 54//54 55//55 52//52
f 56//56 57//57 58//58
f 59//59 63//63 150//150
f 61//61 12//12 62//62
f 19//19 29//29 130//130
f 66//66 67//67 68//68
f 69//69 60//60 70//70
f 11//11 145//145 61//61
f 24//24 27//27 28//28
f 28//28 71//71 72//72
f 11//11 74//74 145//145
f 47//47 145//145 73//73
f 76//76 77//77 50//50
f 78//78 17//17 67//67
f 65//65 21//21 147//147
f 23//23 32//32 10//10
f 66//66 80//80 81//81
f 29//29 82//82 75//75
f 83//83 84//84 85//85
f 86//86 36//36 87//87
f 88//88 89//89 90//90
f 131//131 92//92 57//57
f 65//65 93//93 54//54
f 94//94 95//95 91//91
f 80//80 16//16 96//96
f 98//98 99//99 84//84
f 100//100 101//101 99//99
f 102//102 103//103 104//104
f 105//105 37//37 102//102
f 106//106 107//107 108//108
f 109//109 110//110 111//111
f 47//47 112//112 113//113
f 114//114 89//89 115//115
f 116//116 58//58 117//117
f 101//101 117//117 118//118
f 119//119 49//49 88//88
f 120//120 121//121 118//118
f 38//38 122//122 72//72
f 123//123 124//124 94//94
f 125//125 103//103 100//100
f 126//126 127//127 97//97
f 126//126 68//68 128//128
f 83//83 115//115 129//129
f 64//64 132//132 133//133
f 25//25 134//134 135//135
f 110//110 124//124 98//98
f 104//104 128//128 136//136
f 137//137 138//138 109//109
f 92//92 133//133 120//120
f 55//55 139//139 132//132
f 90//90 106//106 87//87
f 140//140 141//141 139//139
f 108//108 147//147 122//122
f 142//142 93//93 107//107
f 142//142 114//114 140//140
f 135//135 113//113 143//143
f 77//77 143//143 137//137
f 112//112 130//130 144//144
f 144//144 95//95 138//138
f 123//123 127//127 125//125
f 141//141 85//85 121//121
f 129//129 48//48 111//111
f 3//3 48//48 50//50
f 48//48 2//2 49//49
f 50//50 49//49 1//1
f 4//4 51//51 53//53
f 51//51 5//5 52//52
f 5//5 54//54 52//52
f 54//54 6//6 55//55
f 7//7 56//56 58//58
f 56//56 8//8 57//57
f 58//58 57//57 9//9
f 10//10 59//59 60//60
f 59//59 4//4 63//63
f 11//11 61//61 13//13
f 62//62 13//13 61//61
f 150//150 63//63 64//64
f 70//70 64//64 41//41
f 5//5 21//21 65//65
f 16//16 66//66 68//68
f 66//66 22//22 67//67
f 68//68 67//67 17//17
f 20//20 69//69 70//70
f 69//69 23//23 60//60
f 60//60 23//23 10//10
f 145//145 47//47 12//12
f 12//12 61//61 145//145
f 71//71 26//26 72//72
f 38//38 72//72 26//26
f 130//130 29//29 75//75
f 1//1 76//76 50//50
f 76//76 25//25 77//77
f 50//50 77//77 3//3
f 31//31 67//67 22//22
f 67//67 31//31 78//78
f 108//108 65//65 147//147
f 147//147 79//79 24//24
f 22//22 66//66 81//81
f 66//66 16//16 80//80
f 81//81 80//80 33//33
f 82//82 149//149 75//75
f 18//18 83//83 85//85
f 83//83 42//42 84//84
f 85//85 84//84 35//35
f 26//26 87//87 38//38
f 87//87 26//26 86//86
f 36//36 88//88 90//90
f 88//88 2//2 89//89
f 90//90 89//89 46//46
f 75//75 30//30 146//146
f 8//8 131//131 57//57
f 131//131 41//41 92//92
f 57//57 92//92 9//9
f 148//148 63//63 53//53
f 5//5 65//65 54//54
f 65//65 108//108 93//93
f 54//54 93//93 6//6
f 40//40 94//94 91//91
f 94//94 45//45 95//95
f 91//91 95//95 146//146
f 16//16 97//97 96//96
f 42//42 98//98 84//84
f 98//98 39//39 99//99
f 84//84 99//99 35//35
f 39//39 100//100 99//99
f 100//100 14//14 101//101
f 99//99 101//101 35//35
f 34//34 102//102 104//104
f 102//102 14//14 103//103
f 104//104 103//103 43//43
f 34//34 105//105 102//102
f 102//102 37//37 116//116
f 102//102 116//116 14//14
f 38//38 106//106 108//108
f 106//106 46//46 107//107
f 3//3 109//109 111//111
f 109//109 45//45 110//110
f 111//111 110//110 42//42
f 47//47 73//73 112//112
f 113//113 112//112 44//44
f 18//18 114//114 115//115
f 114//114 46//46 89//89
f 115//115 89//89 2//2
f 14//14 116//116 117//117
f 116//116 7//7 58//58
f 117//117 58//58 9//9
f 7//7 116//116 37//37
f 35//35 101//101 118//118
f 101//101 14//14 117//117
f 118//118 117//117 9//9
f 36//36 119//119 88//88
f 119//119 1//1 49//49
f 88//88 49//49 2//2
f 9//9 120//120 118//118
f 120//120 15//15 121//121
f 118//118 121//121 35//35
f 24//24 28//28 72//72
f 40//40 123//123 94//94
f 123//123 39//39 124//124
f 94//94 124//124 45//45
f 39//39 125//125 100//100
f 125//125 43//43 103//103
f 100//100 103//103 14//14
f 16//16 126//126 97//97
f 126//126 43//43 127//127
f 97//97 127//127 40//40
f 43//43 126//126 128//128
f 126//126 16//16 68//68
f 128//128 68//68 17//17
f 42//42 83//83 129//129
f 83//83 18//18 115//115
f 129//129 115//115 2//2
f 130//130 73//73 19//19
f 20//20 70//70 131//131
f 41//41 64//64 133//133
f 64//64 148//148 132//132
f 133//133 132//132 15//15
f 20//20 131//131 8//8
f 134//134 12//12 135//135
f 47//47 135//135 12//12
f 42//42 110//110 98//98
f 110//110 45//45 124//124
f 98//98 124//124 39//39
f 34//34 104//104 136//136
f 104//104 43//43 128//128
f 136//136 128//128 17//17
f 3//3 137//137 109//109
f 137//137 44//44 138//138
f 109//109 138//138 45//45
f 9//9 92//92 120//120
f 92//92 41//41 133//133
f 120//120 133//133 15//15
f 148//148 55//55 132//132
f 55//55 6//6 139//139
f 132//132 139//139 15//15
f 36//36 90//90 87//87
f 90//90 46//46 106//106
f 87//87 106//106 38//38
f 6//6 140//140 139//139
f 140//140 18//18 141//141
f 139//139 141//141 15//15
f 38//38 108//108 122//122
f 122//122 147//147 24//24
f 46//46 142//142 107//107
f 142//142 6//6 93//93
f 107//107 93//93 108//108
f 6//6 142//142 140//140
f 142//142 46//46 114//114
f 140//140 114//114 18//18
f 25//25 135//135 143//143
f 135//135 47//47 113//113
f 143//143 113//113 44//44
f 3//3 77//77 137//137
f 77//77 25//25 143//143
f 137//137 143//143 44//44
f 44//44 112//112 144//144
f 112//112 73//73 130//130
f 144//144 130//130 146//146
f 44//44 144//144 138//138
f 144//144 146//146 95//95
f 138//138 95//95 45//45
f 39//39 123//123 125//125
f 123//123 40//40 127//127
f 125//125 127//127 43//43
f 15//15 141//141 121//121
f 141//141 18//18 85//85
f 121//121 85//85 35//35
f 42//42 129//129 111//111
f 129//129 2//2 48//48
f 111//111 48//48 3//3
f 73//73 74//74 19//19
f 24//24 72//72 122//122
f 145//145 74//74 73//73
f 146//146 130//130 75//75
f 147//147 21//21 79//79
f 96//96 30//30 149//149
f 30//30 40//40 91//91
f 53//53 55//55 148//148
f 149//149 30//30 75//75
f 30//30 91//91 146//146
f 53//53 52//52 55//55
f 33//33 149//149 82//82
f 80//80 96//96 33//33
f 97//97 40//40 30//30
f 96//96 97//97 30//30
f 96//96 149//149 33//33
f 63//63 4//4 53//53
f 59//59 150//150 60//60
f 64//64 63//63 148//148
f 60//60 150//150 70//70
f 64//64 70//70 150//150
f 131//131 70//70 41//41
# 254 faces, 0 coords texture

# End of File
