####
#
# OBJ File Generated by Meshlab
#
####
# Object 756_C135_M_0.obj
#
# Vertices: 154
# Faces: 263
#
####
vn 2.393179 -2.032781 -0.104631
v -50.759800 98.867200 -37.999400
vn 2.616954 -1.737702 -0.030280
v -56.155700 91.998900 -47.809800
vn 2.591406 -1.755075 -0.010258
v -56.178300 92.000000 -49.572200
vn 2.543960 -1.843277 -0.007449
v -54.687500 94.119200 -50.000000
vn 5.119242 -3.641576 -0.071200
v -54.583239 94.186381 -42.762457
vn 4.999158 -3.805313 -0.059128
v -53.441898 95.741336 -43.570605
vn 5.093608 -3.676582 -0.078703
v -54.500125 94.328698 -43.872184
vn 4.892580 -3.938651 -0.143987
v -52.283093 97.185775 -41.575895
vn 5.024170 -3.767976 -0.186736
v -54.049416 94.810061 -39.643796
vn 4.998162 -3.801007 -0.133071
v -53.535729 95.600995 -41.483920
vn 2.395326 -2.031380 -0.122403
v -49.879400 100.000000 -40.210700
vn 2.422711 -2.004833 -0.137346
v -49.960400 100.000000 -41.535200
vn 4.957551 -3.857479 -0.092428
v -52.432193 97.137334 -46.788073
vn 2.429429 -2.022731 -0.094281
v -50.026200 100.000000 -42.811000
vn 4.877525 -3.956280 -0.107318
v -51.134307 98.714102 -43.941033
vn 2.579691 -1.792220 -0.011096
v -55.672600 92.747500 -50.000000
vn 4.854455 -3.982859 -0.217316
v -51.509523 98.036717 -39.795344
vn 2.336127 -2.095334 -0.149794
v -49.928400 99.788200 -37.999900
vn 1.192638 -1.023887 -0.016818
v -50.106600 100.000000 -50.000000
vn 2.417334 -2.000786 -0.071482
v -51.322500 98.611400 -50.000000
vn 1.308178 -0.878360 0.011620
v -56.174500 92.000000 -50.000000
vn 1.121694 -1.015817 -0.092232
v -49.736600 100.000000 -38.000000
vn 2.341153 -2.106729 -0.166900
v -49.746500 100.000000 -38.120400
vn 2.556731 -1.823951 0.009098
v -55.597500 92.697100 -38.000000
vn 1.281902 -0.881207 0.005698
v -56.105500 91.954200 -38.000000
vn 2.558724 -1.788792 0.024532
v -56.094400 91.968100 -39.165600
vn 5.083718 -3.691128 -0.023593
v -55.255230 93.162835 -38.911228
vn 2.500266 -1.901460 -0.061666
v -54.264500 94.459600 -38.000000
vn 2.622143 -1.803696 -0.009700
v -56.057800 91.996000 -40.428500
vn 2.415075 -2.020010 -0.027036
v -50.102800 100.000000 -47.744000
vn 2.599123 -1.774527 -0.039247
v -56.088000 91.998400 -42.726900
vn 5.125054 -3.632028 -0.099695
v -54.821214 93.812969 -40.963447
vn 2.415453 -2.014137 -0.026139
v -50.072200 100.000000 -45.332800
vn 5.183011 -3.550938 -0.074860
v -55.617472 92.677580 -42.297647
vn 5.124940 -3.632563 -0.034846
v -54.814845 93.932315 -46.130542
vn 2.489387 -1.916266 -0.011573
v -52.636075 96.907450 -50.000000
vn 2.579343 -1.758773 -0.030193
v -56.132800 91.990300 -45.319600
vn 2.609034 -1.774652 -0.036180
v -56.135100 91.998800 -46.112600
vn 2.448268 -1.965956 -0.113897
v -52.119400 97.179700 -37.999900
vn 2.476748 -1.930888 -0.097713
v -53.530500 95.408200 -38.000000
vn 2.528630 -1.863392 -0.027478
v -53.356600 95.960200 -50.000000
vn 5.018150 -3.780054 -0.063521
v -53.505809 95.693728 -45.457413
vn 5.046789 -3.742536 -0.039264
v -53.648067 95.517654 -47.349180
vn 5.062406 -3.721390 -0.034024
v -53.838262 95.268065 -48.296358
vn 4.948594 -3.870487 -0.089261
v -52.289283 97.254138 -44.793100
vn 4.927145 -3.891515 -0.234622
v -52.875733 96.337299 -39.711139
vn 4.867642 -3.972055 -0.075569
v -51.181500 98.667567 -46.176317
vn 4.868987 -3.969237 -0.085297
v -51.449895 98.401829 -48.440381
vn 4.923939 -3.901252 -0.104826
v -52.291005 97.203600 -42.720646
vn 5.191381 -3.539120 -0.039658
v -55.824126 92.510456 -48.965011
vn 2.600028 -1.763030 -0.034442
v -56.167000 91.999450 -48.691000
vn 5.128053 -3.630329 -0.004750
v -55.308731 93.255628 -48.999648
vn 5.049239 -3.739084 -0.048506
v -54.001625 94.983360 -43.091932
vn 5.035746 -3.756942 -0.070982
v -53.932310 95.090984 -43.946621
vn 4.905728 -3.918474 -0.233715
v -52.576774 96.767264 -40.567685
vn 4.954271 -3.856677 -0.241719
v -53.212583 95.957470 -40.546969
vn 4.926476 -3.895639 -0.168908
v -52.914521 96.378828 -41.278058
vn 4.909777 -3.919616 -0.071785
v -51.721292 97.978441 -45.460129
vn 4.933068 -3.888562 -0.126982
v -52.340668 97.222661 -45.797404
vn 4.886000 -3.948571 -0.118986
v -51.796669 97.917727 -46.506826
vn 2.551656 -1.832662 0.002504
v -55.180050 93.433350 -50.000000
vn 5.082946 -3.693357 -0.000197
v -54.770742 94.004414 -49.063295
vn 4.758604 -4.096155 -0.209546
v -50.461374 99.262346 -39.055575
vn 4.852463 -3.986790 -0.182322
v -51.129430 98.459436 -38.933980
vn 4.849938 -3.988220 -0.134073
v -51.363102 98.542124 -49.434006
vn 2.364777 -2.066976 -0.070979
v -50.714550 99.305700 -50.000000
vn 4.771749 -4.086240 -0.073462
v -50.739194 99.249040 -49.141291
vn 4.689554 -4.171255 -0.292798
v -50.048434 99.739332 -39.180187
vn 2.332738 -2.099033 -0.148314
v -49.812950 100.000000 -39.165550
vn 5.150602 -3.598036 0.048035
v -55.750393 92.466100 -38.723365
vn 5.031885 -3.760727 -0.121541
v -54.555090 94.104621 -39.075615
vn 2.509636 -1.889379 -0.039320
v -54.931000 93.578350 -38.000000
vn 5.160382 -3.584064 0.021372
v -55.600686 92.662058 -39.644991
vn 2.400431 -2.026701 -0.004043
v -50.104700 100.000000 -48.872000
vn 4.814013 -4.037103 -0.052953
v -50.724089 99.264808 -48.077174
vn 4.990052 -3.814264 -0.168203
v -53.871675 95.004751 -38.853160
vn 5.111364 -3.651557 -0.079984
v -55.019087 93.508687 -39.959515
vn 5.064740 -3.715076 -0.155211
v -54.416787 94.333678 -40.236028
vn 2.422377 -2.000184 -0.030940
v -50.087500 100.000000 -46.538400
vn 4.841185 -4.004899 -0.041027
v -50.610842 99.354293 -45.776266
vn 4.834487 -4.012321 -0.082553
v -50.651686 99.323017 -46.939494
vn 5.052168 -3.734789 -0.067679
v -53.193637 96.148007 -48.243587
vn 5.183989 -3.549848 -0.054522
v -55.397439 92.967048 -40.704355
vn 2.592810 -1.773597 -0.035932
v -56.072900 91.997200 -41.577700
vn 5.185611 -3.547212 -0.071720
v -55.670413 92.581809 -41.391156
vn 5.178330 -3.557929 -0.065127
v -55.198653 93.277328 -41.683440
vn 2.597441 -1.766694 -0.041136
v -56.110400 91.994350 -44.023250
vn 5.182148 -3.551939 -0.084967
v -55.551681 92.802040 -43.476703
vn 4.997753 -3.806993 -0.031283
v -53.478130 95.686118 -42.581202
vn 5.073168 -3.705844 -0.062949
v -54.073633 94.880076 -42.127897
vn 5.154001 -3.591957 -0.074262
v -55.246231 93.302738 -47.022803
vn 5.189194 -3.540830 -0.092249
v -55.809854 92.501992 -46.997405
vn 5.106458 -3.658770 -0.067789
v -54.656445 94.135680 -45.049851
vn 5.167597 -3.573076 -0.085093
v -55.108879 93.465290 -44.317609
vn 5.179340 -3.556343 -0.068475
v -55.248028 93.285400 -45.275139
vn 5.082505 -3.691243 -0.141183
v -54.217088 94.653845 -41.198866
vn 5.025605 -3.763837 -0.215133
v -53.827524 95.154497 -40.476224
vn 4.936764 -3.885920 -0.070322
v -52.906788 96.412120 -42.139482
vn 2.395886 -2.031607 -0.043703
v -50.049200 100.000000 -44.071900
vn 4.821076 -4.025833 -0.148670
v -50.568393 99.373561 -43.414038
vn 4.814658 -4.036348 -0.054043
v -50.593866 99.369111 -44.603664
vn 4.884454 -3.951509 -0.020544
v -51.147207 98.703864 -45.061601
vn 4.867798 -3.965720 -0.230891
v -51.905036 97.602308 -40.615514
vn 4.854606 -3.984782 -0.170584
v -51.624743 97.985014 -41.402897
vn 4.820629 -4.023147 -0.231155
v -51.180478 98.484280 -40.722909
vn 2.455427 -1.955879 -0.122561
v -52.824950 96.293950 -37.999950
vn 4.942414 -3.873265 -0.212703
v -53.197747 95.879213 -38.850127
vn 4.899772 -3.926316 -0.232826
v -52.508971 96.744907 -38.866083
vn 4.886850 -3.941618 -0.245248
v -52.199377 97.177639 -39.736049
vn 4.888452 -3.941200 -0.219983
v -51.816395 97.605113 -38.885799
vn 5.042492 -3.747988 -0.063749
v -54.043184 94.959325 -44.791463
vn 5.048637 -3.740048 -0.039438
v -54.128699 94.857214 -45.753595
vn 5.034917 -3.758195 -0.058290
v -53.044290 96.323707 -47.077879
vn 4.985195 -3.822590 -0.065142
v -52.559577 96.991050 -47.784807
vn 5.129998 -3.626372 -0.077876
v -54.664391 94.054054 -41.869738
vn 4.965798 -3.848735 -0.080149
v -52.866635 96.496269 -44.166361
vn 4.956243 -3.860809 -0.090031
v -52.283754 97.238076 -43.769219
vn 4.955131 -3.862699 -0.063065
v -52.876293 96.461179 -43.162316
vn 2.612489 -1.744561 -0.031812
v -56.145400 91.998850 -46.961200
vn 5.164306 -3.577846 -0.084230
v -54.978273 93.632871 -43.423969
vn 4.852460 -3.989740 -0.107764
v -51.278930 98.580315 -47.287267
vn 2.444538 -1.970292 -0.108568
v -51.439600 98.023450 -37.999650
vn 4.974238 -3.832253 -0.218948
v -53.505852 95.518659 -39.675738
vn 5.046695 -3.742802 -0.026740
v -54.156710 94.833247 -47.552674
vn 5.047787 -3.741297 -0.030441
v -54.171011 94.807977 -46.701002
vn 5.096679 -3.673273 -0.032601
v -54.674133 94.133231 -47.216357
vn 5.073002 -3.706853 -0.029638
v -54.200577 94.779325 -49.159735
vn 5.037800 -3.754719 -0.030336
v -53.567671 95.618233 -46.387575
vn 4.950041 -3.869102 -0.064473
v -52.016331 97.694094 -49.191437
vn 2.485490 -1.920748 -0.049063
v -51.859200 97.917300 -50.000000
vn 5.002478 -3.800650 -0.073879
v -53.455932 95.741501 -44.518662
vn 4.883816 -3.949207 -0.162308
v -51.663940 97.961117 -42.278281
vn 4.840731 -3.998424 -0.239685
v -50.517538 99.372514 -42.237213
vn 4.875348 -3.957449 -0.214972
v -51.094357 98.703384 -42.833202
vn 4.942322 -3.879078 -0.055142
v -51.702965 97.996204 -44.394181
vn 4.925574 -3.897140 -0.155564
v -51.695489 97.980170 -43.329681
vn 2.544717 -1.842007 -0.032023
v -54.022050 95.039700 -50.000000
vn 5.081788 -3.694519 -0.065337
v -53.600178 95.607271 -49.191578
vn 5.035828 -3.756439 -0.048532
v -53.081725 96.320437 -49.255697
vn 4.927646 -3.898026 -0.045983
v -52.112379 97.563687 -48.382754
vn 4.977659 -3.832901 -0.039908
v -52.617633 96.929960 -48.822782
vn 4.905593 -3.924753 -0.085224
v -51.928362 97.785768 -47.538819
vn 5.188520 -3.543269 -0.054032
v -55.754022 92.546827 -45.453845
vn 5.180174 -3.555382 -0.054280
v -55.497353 92.932812 -46.133940
vn 4.975433 -3.835565 -0.104080
v -52.890209 96.484302 -45.143276
vn 5.004474 -3.797674 -0.084145
v -52.956372 96.432337 -46.103731
vn 4.820918 -4.020892 -0.262326
v -50.457664 99.362864 -41.033801
vn 5.187785 -3.543869 -0.075430
v -55.675066 92.649606 -44.635750
vn 5.171682 -3.567393 -0.075516
v -55.121374 93.405211 -42.614910
vn 4.848888 -3.989803 -0.214271
v -51.070271 98.675208 -41.770110
vn 4.811061 -4.036174 -0.197480
v -50.708605 99.002099 -40.010858
vn 5.060977 -3.723409 -0.011028
v -54.431984 94.466518 -48.169396
vn 5.113208 -3.650419 -0.047659
v -55.090671 93.560916 -48.061849
vn 5.177762 -3.555555 -0.067412
v -55.627943 92.801357 -47.937278
# 154 vertices, 0 vertices normals

f 53//53 7//7 54//54
f 55//55 56//56 57//57
f 58//58 59//59 60//60
f 52//52 61//61 62//62
f 63//63 64//64 151//151
f 65//65 66//66 67//67
f 16//16 3//3 21//21
f 22//22 18//18 23//23
f 11//11 69//69 68//68
f 24//24 25//25 70//70
f 27//27 71//71 72//72
f 27//27 70//70 73//73
f 74//74 75//75 67//67
f 77//77 78//78 71//71
f 79//79 80//80 81//81
f 73//73 83//83 77//77
f 29//29 84//84 85//85
f 86//86 83//83 85//85
f 31//31 87//87 88//88
f 53//53 89//89 90//90
f 93//93 94//94 95//95
f 78//78 96//96 97//97
f 98//98 8//8 57//57
f 99//99 100//100 101//101
f 102//102 80//80 101//101
f 103//103 104//104 105//105
f 106//106 107//107 108//108
f 108//108 109//109 110//110
f 111//111 93//93 112//112
f 113//113 82//82 114//114
f 115//115 86//86 149//149
f 116//116 117//117 118//118
f 38//38 119//119 92//92
f 120//120 7//7 5//5
f 115//115 90//90 96//96
f 75//75 81//81 121//121
f 64//64 122//122 110//110
f 123//123 97//97 56//56
f 124//124 125//125 126//126
f 127//127 152//152 62//62
f 124//124 152//152 44//44
f 112//112 125//125 128//128
f 65//65 129//129 130//130
f 111//111 131//131 54//54
f 8//8 132//132 104//104
f 76//76 123//123 107//107
f 133//133 134//134 100//100
f 55//55 103//103 109//109
f 117//117 135//135 136//136
f 102//102 135//135 58//58
f 137//137 138//138 127//127
f 82//82 138//138 139//139
f 140//140 141//141 129//129
f 121//121 60//60 142//142
f 95//95 143//143 144//144
f 36//36 141//141 139//139
f 116//116 131//131 145//145
f 142//142 114//114 140//140
f 59//59 145//145 146//146
f 146//146 128//128 113//113
f 88//88 94//94 120//120
f 38//38 143//143 37//37
f 132//132 136//136 134//134
f 118//118 98//98 89//89
f 51//51 3//3 50//50
f 52//52 154//154 50//50
f 52//52 50//50 16//16
f 6//6 53//53 54//54
f 53//53 5//5 7//7
f 8//8 55//55 57//57
f 55//55 46//46 56//56
f 57//57 56//56 10//10
f 47//47 58//58 60//60
f 58//58 45//45 59//59
f 60//60 59//59 13//13
f 153//153 52//52 62//62
f 52//52 16//16 61//61
f 62//62 61//61 4//4
f 63//63 1//1 64//64
f 48//48 65//65 67//67
f 65//65 20//20 66//66
f 67//67 66//66 19//19
f 68//68 18//18 63//63
f 1//1 63//63 18//18
f 18//18 68//68 23//23
f 69//69 23//23 68//68
f 70//70 25//25 26//26
f 24//24 27//27 72//72
f 72//72 71//71 28//28
f 29//29 73//73 26//26
f 27//27 24//24 70//70
f 73//73 70//70 26//26
f 19//19 74//74 67//67
f 74//74 30//30 75//75
f 67//67 75//75 48//48
f 28//28 71//71 76//76
f 27//27 77//77 71//71
f 77//77 32//32 78//78
f 71//71 78//78 9//9
f 30//30 79//79 81//81
f 79//79 33//33 80//80
f 81//81 80//80 47//47
f 44//44 82//82 43//43
f 27//27 73//73 77//77
f 73//73 29//29 83//83
f 77//77 83//83 32//32
f 84//84 31//31 34//34
f 34//34 86//86 85//85
f 86//86 32//32 83//83
f 85//85 83//83 29//29
f 87//87 148//148 88//88
f 143//143 148//148 37//37
f 5//5 53//53 90//90
f 53//53 6//6 89//89
f 90//90 89//89 10//10
f 92//92 91//91 144//144
f 35//35 93//93 95//95
f 93//93 7//7 94//94
f 95//95 94//94 148//148
f 9//9 78//78 97//97
f 78//78 32//32 96//96
f 97//97 96//96 10//10
f 10//10 98//98 57//57
f 98//98 49//49 8//8
f 33//33 99//99 101//101
f 99//99 14//14 100//100
f 101//101 100//100 15//15
f 15//15 102//102 101//101
f 102//102 47//47 80//80
f 101//101 80//80 33//33
f 17//17 103//103 105//105
f 103//103 8//8 104//104
f 105//105 104//104 150//150
f 39//39 106//106 108//108
f 106//106 40//40 107//107
f 108//108 107//107 46//46
f 39//39 108//108 110//110
f 108//108 46//46 109//109
f 110//110 109//109 17//17
f 42//42 111//111 112//112
f 111//111 7//7 93//93
f 112//112 93//93 35//35
f 13//13 113//113 114//114
f 113//113 43//43 82//82
f 114//114 82//82 141//141
f 115//115 32//32 86//86
f 5//5 115//115 149//149
f 40//40 28//28 76//76
f 6//6 116//116 118//118
f 116//116 45//45 117//117
f 118//118 117//117 49//49
f 119//119 2//2 92//92
f 154//154 92//92 2//2
f 32//32 115//115 96//96
f 115//115 5//5 90//90
f 96//96 90//90 10//10
f 48//48 75//75 121//121
f 75//75 30//30 81//81
f 121//121 81//81 47//47
f 17//17 64//64 110//110
f 64//64 1//1 122//122
f 110//110 122//122 39//39
f 46//46 123//123 56//56
f 123//123 9//9 97//97
f 56//56 97//97 10//10
f 124//124 43//43 125//125
f 126//126 125//125 35//35
f 4//4 127//127 62//62
f 127//127 44//44 152//152
f 62//62 152//152 153//153
f 43//43 124//124 44//44
f 124//124 126//126 152//152
f 42//42 112//112 128//128
f 112//112 35//35 125//125
f 128//128 125//125 43//43
f 20//20 65//65 130//130
f 65//65 48//48 129//129
f 130//130 129//129 36//36
f 7//7 111//111 54//54
f 111//111 42//42 131//131
f 54//54 131//131 6//6
f 8//8 49//49 132//132
f 104//104 132//132 150//150
f 40//40 76//76 107//107
f 76//76 9//9 123//123
f 107//107 123//123 46//46
f 14//14 133//133 100//100
f 133//133 150//150 134//134
f 100//100 134//134 15//15
f 46//46 55//55 109//109
f 55//55 8//8 103//103
f 109//109 103//103 17//17
f 49//49 117//117 136//136
f 117//117 45//45 135//135
f 136//136 135//135 15//15
f 47//47 102//102 58//58
f 102//102 15//15 135//135
f 58//58 135//135 45//45
f 4//4 137//137 127//127
f 137//137 41//41 138//138
f 127//127 138//138 44//44
f 141//141 82//82 139//139
f 82//82 44//44 138//138
f 139//139 138//138 41//41
f 48//48 140//140 129//129
f 48//48 121//121 142//142
f 121//121 47//47 60//60
f 142//142 60//60 13//13
f 35//35 95//95 144//144
f 95//95 148//148 143//143
f 144//144 143//143 38//38
f 38//38 92//92 144//144
f 91//91 153//153 126//126
f 41//41 36//36 139//139
f 45//45 116//116 145//145
f 116//116 6//6 131//131
f 145//145 131//131 42//42
f 48//48 142//142 140//140
f 142//142 13//13 114//114
f 140//140 114//114 141//141
f 150//150 147//147 105//105
f 13//13 59//59 146//146
f 59//59 45//45 145//145
f 146//146 145//145 42//42
f 13//13 146//146 113//113
f 146//146 42//42 128//128
f 113//113 128//128 43//43
f 31//31 88//88 34//34
f 34//34 88//88 149//149
f 88//88 148//148 94//94
f 120//120 94//94 7//7
f 14//14 12//12 133//133
f 132//132 49//49 136//136
f 134//134 136//136 15//15
f 6//6 118//118 89//89
f 118//118 49//49 98//98
f 89//89 98//98 10//10
f 91//91 126//126 35//35
f 76//76 71//71 9//9
f 84//84 34//34 85//85
f 148//148 87//87 37//37
f 144//144 91//91 35//35
f 63//63 11//11 68//68
f 129//129 141//141 36//36
f 2//2 51//51 50//50
f 17//17 151//151 64//64
f 149//149 86//86 34//34
f 5//5 149//149 120//120
f 105//105 151//151 17//17
f 149//149 88//88 120//120
f 150//150 132//132 134//134
f 50//50 3//3 16//16
f 147//147 151//151 105//105
f 153//153 152//152 126//126
f 147//147 150//150 133//133
f 147//147 133//133 12//12
f 147//147 12//12 11//11
f 2//2 50//50 154//154
f 151//151 147//147 11//11
f 153//153 154//154 52//52
f 154//154 91//91 92//92
f 91//91 154//154 153//153
f 151//151 11//11 63//63
# 263 faces, 0 coords texture

# End of File
