####
#
# OBJ File Generated by Meshlab
#
####
# Object 777_C137_M_5.obj
#
# Vertices: 146
# Faces: 248
#
####
vn -5.318281 -3.343599 -0.118191
v 85.348564 51.604226 47.178285
vn -5.290482 -3.387867 -0.100433
v 85.876987 50.693556 49.055133
vn -5.233569 -3.475148 -0.100452
v 87.976066 47.639612 41.071689
vn -2.669521 -1.653561 -0.035002
v 84.071800 53.771000 41.145000
vn -2.673289 -1.652439 -0.028906
v 84.058900 53.748300 43.229400
vn -5.334745 -3.318609 -0.068904
v 85.089049 52.096628 42.333183
vn -2.599152 -1.760968 -0.022287
v 88.957500 46.232700 38.489800
vn -2.607175 -1.761046 -0.042353
v 88.948900 46.218000 40.414000
vn -2.605456 -1.755191 -0.024846
v 88.741200 46.556300 38.000000
vn -5.244041 -3.459586 -0.073529
v 87.972148 47.549111 44.258314
vn -2.615916 -1.740735 -0.049267
v 88.907300 46.146000 44.531300
vn -2.665545 -1.653682 -0.058248
v 84.031600 53.701000 47.685600
vn -5.271013 -3.418451 -0.091152
v 86.948551 49.242053 39.781619
vn -2.636268 -1.708470 -0.037114
v 87.169800 48.940600 38.000000
vn -2.663715 -1.669034 -0.042511
v 84.039550 53.714650 46.527000
vn -5.328151 -3.329741 -0.036892
v 85.033896 52.155754 44.387388
vn -2.624866 -1.725142 -0.043454
v 88.450600 46.692300 50.000000
vn -2.631163 -1.715083 -0.040288
v 88.875100 46.090100 48.234000
vn -1.301593 -0.870271 -0.016741
v 88.865200 46.072900 50.000000
vn -1.297337 -0.895489 -0.018714
v 88.960700 46.238300 38.000000
vn -2.639915 -1.702469 -0.045961
v 86.890200 49.101000 50.000000
vn -2.644090 -1.695892 -0.047786
v 85.496400 51.264600 50.000000
vn -5.283854 -3.398934 -0.080034
v 87.006257 48.997707 47.240658
vn -5.270195 -3.419973 -0.084006
v 88.097591 47.290740 48.093488
vn -5.284556 -3.397912 -0.063254
v 86.999725 49.054648 43.886486
vn -2.663575 -1.658165 -0.035147
v 84.046500 53.726700 45.755700
vn -5.295869 -3.379616 -0.081546
v 86.051877 50.583362 41.346608
vn -2.606156 -1.753683 -0.054950
v 88.927700 46.181400 42.519700
vn -2.624705 -1.726067 -0.036423
v 87.318900 48.713700 38.000000
vn -2.638176 -1.704871 -0.050581
v 87.268800 48.512300 50.000000
vn -5.313399 -3.353115 -0.051661
v 86.010811 50.595004 45.336334
vn -2.630636 -1.708283 -0.047977
v 88.886800 46.110300 46.367600
vn -2.659072 -1.678581 -0.038323
v 84.082700 53.789900 38.977100
vn -2.658148 -1.672429 -0.058728
v 85.049000 51.959700 50.000000
vn -1.347480 -0.827262 -0.030022
v 84.005800 53.656200 50.000000
vn -2.657089 -1.675727 -0.045274
v 85.419200 51.683400 38.000000
vn -1.323453 -0.830908 -0.022031
v 84.091500 53.804600 38.000000
vn -5.330934 -3.322429 -0.135456
v 84.910520 52.220684 48.949539
vn -5.293758 -3.383035 -0.094915
v 86.478752 49.821592 47.203976
vn -5.268720 -3.421933 -0.095333
v 87.123081 48.915242 42.067072
vn -2.646181 -1.692558 -0.050036
v 86.070800 50.663500 38.000000
vn -5.280545 -3.404509 -0.057577
v 87.343506 48.494679 46.243634
vn -5.336378 -3.315701 -0.084925
v 84.966271 52.319840 41.309089
vn -5.301647 -3.371573 -0.050332
v 86.070596 50.523223 43.215923
vn -5.235152 -3.473453 -0.077069
v 88.093956 47.511009 39.126055
vn -5.308927 -3.358963 -0.100777
v 85.741360 51.127676 39.651133
vn -5.327361 -3.330377 -0.077790
v 85.015285 52.161307 46.323309
vn -5.266966 -3.425238 -0.067754
v 87.928583 47.587661 46.155252
vn -2.673131 -1.650072 -0.035182
v 84.065350 53.759650 42.187200
vn -5.344545 -3.302786 -0.076200
v 84.479974 53.108222 41.239070
vn -5.346720 -3.299341 -0.073018
v 84.598668 52.899363 42.031849
vn -2.606895 -1.753025 -0.024623
v 88.953200 46.225350 39.451900
vn -5.224025 -3.490654 -0.053490
v 88.541820 46.846388 38.772567
vn -5.326604 -3.331400 -0.085865
v 84.473036 53.017089 46.810543
vn -5.304674 -3.366762 -0.060913
v 86.251520 50.197447 46.286166
vn -5.302392 -3.370625 -0.043233
v 86.545006 49.761640 44.601173
vn -5.300962 -3.372677 -0.052035
v 86.571515 49.703867 45.517082
vn -5.268587 -3.422087 -0.098643
v 88.221935 47.071899 49.044987
vn -5.269050 -3.421720 -0.084544
v 88.531333 46.621513 48.152051
vn -5.247764 -3.454118 -0.082435
v 88.638143 46.429979 49.090852
vn -2.613817 -1.742574 -0.031625
v 88.870150 46.081500 49.117000
vn -5.342734 -3.306216 -0.050109
v 84.548453 52.947213 43.897529
vn -5.346001 -3.300732 -0.060875
v 84.548493 52.962061 42.859011
vn -5.331626 -3.324041 -0.044733
v 85.073974 52.103091 43.400206
vn -2.640241 -1.702151 -0.037584
v 86.193300 50.182800 50.000000
vn -5.276600 -3.409921 -0.090475
v 86.440452 49.820166 49.090402
vn -5.276666 -3.409476 -0.103052
v 86.678279 49.481266 48.117992
vn -5.329621 -3.326991 -0.065134
v 84.500837 52.993825 45.944944
vn -5.302439 -3.368414 -0.126599
v 85.352238 51.520380 49.023079
vn -5.317097 -3.346683 -0.078082
v 85.660151 51.129981 46.301538
vn -5.304922 -3.365021 -0.106574
v 85.923104 50.697698 47.173405
vn -2.608072 -1.750515 -0.057143
v 88.917500 46.163700 43.525500
vn -5.220109 -3.495828 -0.084416
v 88.442353 46.843884 44.378003
vn -5.214787 -3.503159 -0.110812
v 88.408621 46.925219 43.421269
vn -5.272359 -3.416598 -0.076578
v 87.125227 48.994269 38.695525
vn -5.321446 -3.340081 -0.058030
v 85.436488 51.506199 45.613341
vn -5.324348 -3.335873 -0.039308
v 84.991439 52.216102 45.325067
vn -5.317235 -3.347298 -0.031474
v 85.514358 51.388757 44.800728
vn -5.274933 -3.412282 -0.099102
v 87.045677 48.889102 48.974215
vn -5.243397 -3.459811 -0.108611
v 87.837974 47.810879 42.198111
vn -5.210757 -3.509220 -0.108342
v 88.421078 46.956769 41.755636
vn -5.212701 -3.506422 -0.105624
v 88.299074 47.112908 42.622165
vn -2.635369 -1.709737 -0.035140
v 88.880950 46.100200 47.300800
vn -5.269277 -3.421737 -0.069609
v 88.479436 46.720616 47.228643
vn -5.242858 -3.462215 -0.050117
v 88.066154 47.395057 45.123362
vn -5.243332 -3.460651 -0.086554
v 88.446534 46.822277 45.366708
vn -2.662649 -1.667016 -0.030979
v 84.077250 53.780450 40.061050
vn -5.336328 -3.316093 -0.072354
v 84.415035 53.232997 40.453170
vn -2.631926 -1.714286 -0.061589
v 88.897050 46.128150 45.449450
vn -5.265013 -3.427674 -0.092659
v 88.443203 46.794643 46.320060
vn -2.603529 -1.757281 -0.056613
v 88.938300 46.199700 41.466850
vn -5.205776 -3.516917 -0.096878
v 88.486020 46.893237 40.735758
vn -2.670398 -1.654641 -0.027255
v 84.052700 53.737500 44.492550
vn -5.336458 -3.316374 -0.046414
v 84.524907 52.967411 44.978350
vn -5.272590 -3.416251 -0.084091
v 87.623943 48.023038 48.050464
vn -5.271362 -3.417745 -0.100752
v 87.689399 47.893424 48.995996
vn -2.675696 -1.645320 -0.056374
v 84.527400 52.807950 50.000000
vn -5.353241 -3.287438 -0.118053
v 84.504416 52.867209 49.361390
vn -5.316864 -3.347601 -0.050085
v 85.594934 51.281017 42.843651
vn -5.315871 -3.349431 -0.035225
v 85.565411 51.318297 43.833733
vn -5.289725 -3.389146 -0.104152
v 86.038141 50.684329 38.971249
vn -5.310053 -3.357360 -0.094001
v 85.584223 51.399462 38.818523
vn -5.325755 -3.332894 -0.080995
v 85.010180 52.317439 38.808052
vn -5.321387 -3.339924 -0.078014
v 84.419929 53.256374 38.947050
vn -2.662545 -1.666973 -0.040716
v 84.755350 52.744000 38.000000
vn -5.334696 -3.318312 -0.089055
v 84.834867 52.555250 40.404545
vn -5.326551 -3.331436 -0.088194
v 85.205262 51.986027 39.594535
vn -5.326874 -3.330737 -0.094941
v 85.361316 51.712107 40.466269
vn -5.346459 -3.297279 -0.145002
v 84.526446 52.868282 48.375768
vn -2.677497 -1.642199 -0.061636
v 84.018700 53.678600 48.842800
vn -5.239730 -3.465772 -0.097998
v 87.889137 47.701416 43.300118
vn -5.270609 -3.419748 -0.062493
v 87.489745 48.294642 44.134346
vn -5.269197 -3.421206 -0.095255
v 87.400039 48.458867 43.056804
vn -5.271194 -3.418672 -0.074196
v 86.536522 49.831517 41.592635
vn -5.281144 -3.403153 -0.077426
v 86.554497 49.786091 42.561558
vn -5.293658 -3.383843 -0.058874
v 86.062702 50.550618 42.241336
vn -5.324011 -3.333051 -0.152505
v 85.065894 52.013465 48.067199
vn -5.305973 -3.362334 -0.140123
v 85.631846 51.117457 48.072722
vn -5.259993 -3.435157 -0.100976
v 87.490923 48.372701 41.409609
vn -5.336156 -3.314306 -0.133712
v 84.592779 52.804507 47.523643
vn -5.276652 -3.409484 -0.101100
v 86.464567 49.966319 40.609702
vn -5.262293 -3.432049 -0.087240
v 87.015708 49.110560 40.916476
vn -2.648078 -1.689847 -0.041297
v 86.620300 49.802050 38.000000
vn -5.290674 -3.387906 -0.095271
v 86.525337 49.929824 38.850286
vn -5.283834 -3.399608 -0.043632
v 87.076393 48.921464 45.122094
vn -5.273341 -3.415857 -0.046619
v 87.642826 48.045070 45.202374
vn -5.248659 -3.453151 -0.075491
v 87.661555 48.178714 38.658139
vn -5.252997 -3.446432 -0.080278
v 87.584759 48.279184 39.459625
vn -5.306588 -3.362318 -0.107440
v 85.905750 50.838936 40.525863
vn -5.309692 -3.359189 -0.036136
v 86.046127 50.551032 44.230960
vn -5.323268 -3.336847 -0.079579
v 85.568020 51.347838 41.631005
vn -5.288686 -3.391927 -0.053772
v 86.820342 49.304936 46.276987
vn -5.296007 -3.380142 -0.065533
v 86.533870 49.790518 43.549088
vn -5.286547 -3.393854 -0.112046
v 86.293718 50.263782 39.702989
vn -5.282922 -3.399931 -0.097265
v 86.955946 49.149084 42.943341
vn -5.229731 -3.481243 -0.086196
v 88.046127 47.559311 40.080331
vn -2.621208 -1.731296 -0.038444
v 88.030050 47.635000 38.000000
vn -5.255489 -3.442439 -0.088610
v 87.518451 48.355039 40.418999
vn -2.634519 -1.710700 -0.049170
v 87.859700 47.602300 50.000000
vn -5.278416 -3.407594 -0.070350
v 87.511652 48.212935 47.194756
vn -5.270103 -3.420544 -0.065423
v 88.018058 47.431121 47.187496
vn -5.275085 -3.412271 -0.090635
v 87.153060 48.747911 48.115530
vn -5.329264 -3.327301 -0.079792
v 84.657212 52.861271 39.654524
vn -5.210719 -3.510336 -0.064092
v 88.526049 46.856996 39.718226
vn -5.289558 -3.388578 -0.123209
v 86.175238 50.258445 48.143586
vn -5.332351 -3.321161 -0.116118
v 84.885931 52.346895 47.134935
# 146 vertices, 0 vertices normals

f 49//49 50//50 51//51
f 15//15 68//68 54//54
f 55//55 31//31 57//57
f 58//58 59//59 60//60
f 60//60 18//18 61//61
f 20//20 7//7 9//9
f 62//62 63//63 64//64
f 65//65 2//2 66//66
f 67//67 79//79 66//66
f 70//70 55//55 71//71
f 72//72 73//73 74//74
f 70//70 47//47 76//76
f 76//76 77//77 78//78
f 80//80 81//81 82//82
f 83//83 59//59 84//84
f 85//85 73//73 86//86
f 4//4 87//87 88//88
f 89//89 90//90 86//86
f 91//91 81//81 92//92
f 93//93 62//62 94//94
f 77//77 68//68 94//94
f 142//142 96//96 79//79
f 97//97 35//35 98//98
f 22//22 34//34 69//69
f 64//64 99//99 100//100
f 101//101 46//46 102//102
f 103//103 104//104 105//105
f 106//106 107//107 108//108
f 109//109 98//98 110//110
f 82//82 74//74 111//111
f 111//111 112//112 113//113
f 114//114 115//115 116//116
f 117//117 118//118 69//69
f 71//71 145//145 118//118
f 80//80 113//113 119//119
f 51//51 6//6 63//63
f 117//117 109//109 120//120
f 121//121 122//122 114//114
f 47//47 146//146 54//54
f 123//123 75//75 124//124
f 125//125 112//112 126//126
f 127//127 128//128 75//75
f 50//50 88//88 106//106
f 131//131 108//108 129//129
f 10//10 85//85 126//126
f 78//78 100//100 130//130
f 99//99 131//131 116//116
f 145//145 39//39 67//67
f 133//133 56//56 130//130
f 103//103 102//102 107//107
f 134//134 101//101 124//124
f 135//135 133//133 115//115
f 135//135 40//40 113//113
f 144//144 92//92 136//136
f 53//53 45//45 137//137
f 128//128 136//136 138//138
f 138//138 119//119 122//122
f 129//129 134//134 121//121
f 58//58 139//139 96//96
f 141//141 95//95 140//140
f 84//84 141//141 90//90
f 5//5 49//49 63//63
f 49//49 4//4 50//50
f 51//51 50//50 43//43
f 7//7 52//52 53//53
f 52//52 8//8 144//144
f 53//53 52//52 144//144
f 12//12 15//15 54//54
f 54//54 68//68 47//47
f 132//132 55//55 57//57
f 57//57 31//31 56//56
f 125//125 56//56 25//25
f 17//17 58//58 60//60
f 58//58 24//24 59//59
f 60//60 59//59 18//18
f 17//17 60//60 19//19
f 61//61 19//19 60//60
f 16//16 62//62 64//64
f 62//62 5//5 63//63
f 64//64 63//63 6//6
f 21//21 65//65 66//66
f 65//65 22//22 2//2
f 66//66 79//79 21//21
f 15//15 26//26 68//68
f 22//22 69//69 2//2
f 1//1 70//70 71//71
f 70//70 31//31 55//55
f 71//71 55//55 39//39
f 28//28 72//72 74//74
f 72//72 11//11 73//73
f 74//74 73//73 10//10
f 75//75 14//14 29//29
f 31//31 70//70 76//76
f 70//70 1//1 47//47
f 31//31 76//76 78//78
f 76//76 47//47 77//77
f 78//78 77//77 16//16
f 30//30 21//21 79//79
f 80//80 3//3 81//81
f 82//82 81//81 28//28
f 32//32 83//83 84//84
f 83//83 18//18 59//59
f 84//84 59//59 24//24
f 48//48 85//85 86//86
f 85//85 10//10 73//73
f 86//86 73//73 11//11
f 53//53 9//9 7//7
f 87//87 143//143 88//88
f 11//11 89//89 86//86
f 89//89 32//32 90//90
f 86//86 90//90 48//48
f 8//8 91//91 92//92
f 91//91 28//28 81//81
f 92//92 81//81 3//3
f 26//26 93//93 94//94
f 93//93 5//5 62//62
f 94//94 62//62 16//16
f 16//16 77//77 94//94
f 77//77 47//47 68//68
f 94//94 68//68 26//26
f 23//23 140//140 142//142
f 95//95 24//24 96//96
f 79//79 96//96 30//30
f 34//34 98//98 38//38
f 98//98 34//34 97//97
f 69//69 34//34 38//38
f 16//16 64//64 100//100
f 64//64 6//6 99//99
f 100//100 99//99 44//44
f 41//41 102//102 36//36
f 102//102 41//41 101//101
f 36//36 103//103 105//105
f 103//103 143//143 104//104
f 105//105 104//104 37//37
f 43//43 106//106 108//108
f 108//108 107//107 46//46
f 12//12 109//109 110//110
f 109//109 38//38 98//98
f 110//110 98//98 35//35
f 80//80 82//82 111//111
f 82//82 28//28 74//74
f 111//111 74//74 10//10
f 80//80 111//111 113//113
f 111//111 10//10 112//112
f 113//113 112//112 25//25
f 27//27 114//114 116//116
f 114//114 40//40 115//115
f 116//116 115//115 44//44
f 38//38 117//117 69//69
f 117//117 1//1 118//118
f 69//69 118//118 2//2
f 1//1 71//71 118//118
f 71//71 39//39 145//145
f 118//118 145//145 2//2
f 3//3 80//80 119//119
f 51//51 43//43 6//6
f 1//1 117//117 146//146
f 117//117 38//38 109//109
f 27//27 121//121 114//114
f 121//121 13//13 122//122
f 114//114 122//122 40//40
f 41//41 123//123 124//124
f 123//123 14//14 75//75
f 124//124 75//75 13//13
f 42//42 125//125 126//126
f 125//125 25//25 112//112
f 126//126 112//112 10//10
f 29//29 127//127 75//75
f 127//127 45//45 128//128
f 75//75 128//128 13//13
f 43//43 50//50 106//106
f 50//50 4//4 88//88
f 106//106 88//88 143//143
f 27//27 131//131 129//129
f 131//131 43//43 108//108
f 129//129 108//108 46//46
f 48//48 126//126 85//85
f 126//126 48//48 42//42
f 31//31 78//78 130//130
f 78//78 16//16 100//100
f 130//130 100//100 44//44
f 44//44 99//99 116//116
f 99//99 6//6 131//131
f 116//116 131//131 27//27
f 66//66 145//145 67//67
f 142//142 67//67 23//23
f 132//132 39//39 55//55
f 125//125 57//57 56//56
f 44//44 133//133 130//130
f 133//133 25//25 56//56
f 130//130 56//56 31//31
f 104//104 33//33 37//37
f 103//103 36//36 102//102
f 107//107 102//102 46//46
f 43//43 131//131 6//6
f 13//13 134//134 124//124
f 134//134 46//46 101//101
f 124//124 101//101 41//41
f 40//40 135//135 115//115
f 135//135 25//25 133//133
f 115//115 133//133 44//44
f 25//25 135//135 113//113
f 113//113 40//40 119//119
f 45//45 144//144 136//136
f 144//144 8//8 92//92
f 136//136 92//92 3//3
f 9//9 53//53 137//137
f 137//137 45//45 127//127
f 137//137 127//127 29//29
f 13//13 128//128 138//138
f 128//128 45//45 136//136
f 138//138 136//136 3//3
f 13//13 138//138 122//122
f 138//138 3//3 119//119
f 122//122 119//119 40//40
f 27//27 129//129 121//121
f 129//129 46//46 134//134
f 121//121 134//134 13//13
f 24//24 58//58 96//96
f 58//58 17//17 139//139
f 96//96 139//139 30//30
f 23//23 39//39 132//132
f 23//23 132//132 42//42
f 23//23 42//42 140//140
f 48//48 140//140 42//42
f 48//48 141//141 140//140
f 141//141 24//24 95//95
f 140//140 95//95 142//142
f 32//32 84//84 90//90
f 84//84 24//24 141//141
f 90//90 141//141 48//48
f 132//132 57//57 125//125
f 67//67 142//142 79//79
f 142//142 95//95 96//96
f 42//42 132//132 125//125
f 106//106 143//143 107//107
f 67//67 39//39 23//23
f 143//143 103//103 107//107
f 63//63 49//49 51//51
f 53//53 144//144 45//45
f 2//2 145//145 66//66
f 104//104 143//143 87//87
f 104//104 87//87 33//33
f 120//120 109//109 12//12
f 54//54 120//120 12//12
f 146//146 120//120 54//54
f 146//146 117//117 120//120
f 146//146 47//47 1//1
# 248 faces, 0 coords texture

# End of File
