####
#
# OBJ File Generated by Meshlab
#
####
# Object 796_C140_M_0.obj
#
# Vertices: 135
# Faces: 228
#
####
vn -5.321312 -3.339046 -0.093655
v 87.277537 51.791721 46.149042
vn -5.280752 -3.403818 -0.073001
v 88.858569 49.339954 42.776223
vn -2.627253 -1.719645 -0.044285
v 89.874100 47.820500 41.208000
vn -5.257364 -3.439088 -0.094517
v 88.988595 49.208314 39.540655
vn -2.618598 -1.737602 -0.053087
v 89.894200 47.855200 39.192500
vn -2.622638 -1.728734 -0.055744
v 89.447800 48.564400 38.000000
vn -2.631674 -1.712643 -0.015166
v 89.847900 47.775000 45.301100
vn -2.630056 -1.711121 -0.038810
v 89.857400 47.791500 43.178000
vn -5.275807 -3.411681 -0.037730
v 89.080877 48.952485 44.823405
vn -2.634228 -1.710219 -0.059236
v 88.154000 50.254100 50.000000
vn -5.286305 -3.394898 -0.076606
v 88.381312 50.032919 46.450567
vn -5.377362 -3.249208 -0.066678
v 86.038265 53.817010 44.352706
vn -2.640199 -1.702138 -0.051636
v 88.284600 50.339700 38.000000
vn -2.682741 -1.631074 -0.063043
v 86.802400 52.378200 50.000000
vn -1.357474 -0.793986 -0.006067
v 85.025300 55.422100 50.000000
vn -5.352168 -3.290765 -0.053764
v 86.520180 53.061237 42.123789
vn -5.311979 -3.355074 -0.058666
v 87.704769 51.158046 42.035697
vn -2.638654 -1.720688 -0.048217
v 89.841200 47.763500 47.791000
vn -1.305510 -0.852162 -0.034472
v 89.813400 47.715300 50.000000
vn -2.628293 -1.719751 -0.066910
v 88.759900 49.330500 50.000000
vn -5.291992 -3.386353 -0.071008
v 88.151393 50.490999 40.197459
vn -2.710561 -1.598948 -0.031398
v 85.029400 55.429100 47.839700
vn -5.308738 -3.360520 -0.043235
v 88.030005 50.608757 44.396803
vn -2.702535 -1.599929 -0.036686
v 85.048600 55.462100 45.337500
vn -2.706691 -1.594323 -0.038859
v 86.343000 53.166200 50.000000
vn -5.335175 -3.317839 -0.073405
v 87.072692 52.206791 40.004252
vn -2.668307 -1.657671 -0.039875
v 86.700700 52.860900 38.000000
vn -2.692959 -1.617321 -0.030369
v 85.755000 54.373300 38.000000
vn -2.704766 -1.593945 -0.030309
v 85.055600 55.474600 44.261000
vn -1.317222 -0.868865 -0.023951
v 89.903900 47.872100 38.000000
vn -1.354602 -0.777395 -0.023599
v 85.089400 55.533100 38.000000
vn -2.710507 -1.599769 -0.021785
v 85.073100 55.504800 39.867900
vn -2.708317 -1.587743 -0.026095
v 85.068200 55.496200 41.691600
vn -5.297834 -3.374210 -0.135817
v 87.658320 51.081180 48.133883
vn -5.255667 -3.441053 -0.123405
v 88.881814 49.206223 48.415710
vn -5.368714 -3.263441 -0.052141
v 86.030581 53.893416 40.106208
vn -5.338545 -3.312726 -0.046034
v 86.912324 52.389300 44.127295
vn -5.400908 -3.209513 -0.064403
v 85.809975 54.093080 48.376313
vn -5.352099 -3.288789 -0.127013
v 86.648412 52.723613 47.881227
vn -5.405988 -3.201259 -0.051382
v 85.526994 54.694997 42.447294
vn -5.375131 -3.251986 -0.091442
v 86.026367 53.789632 46.318494
vn -5.248918 -3.452381 -0.085620
v 89.376280 48.599667 40.327631
vn -5.260861 -3.434604 -0.072050
v 89.210008 48.838895 41.162022
vn -5.273189 -3.415691 -0.067550
v 88.748319 49.557032 40.606246
vn -2.617429 -1.736553 -0.055243
v 89.884150 47.837850 40.200250
vn -5.234162 -3.474189 -0.109378
v 89.489168 48.457671 39.412292
vn -5.245878 -3.456070 -0.119498
v 89.178881 48.947539 38.716968
vn -5.238253 -3.468209 -0.102692
v 89.596211 48.320642 38.650147
vn -2.627960 -1.721274 -0.025435
v 89.852650 47.783250 44.239550
vn -5.258521 -3.438728 -0.033933
v 89.503374 48.306801 44.885096
vn -5.263591 -3.430553 -0.063406
v 89.438659 48.418946 44.001999
vn -5.284365 -3.398300 -0.069468
v 88.957904 49.164451 43.803192
vn -5.269474 -3.421082 -0.084564
v 89.382690 48.527244 42.994520
vn -2.650248 -1.686397 -0.043098
v 87.478200 51.316150 50.000000
vn -5.324287 -3.333605 -0.119268
v 87.251853 51.696580 49.032871
vn -5.277511 -3.407684 -0.108312
v 87.882853 50.703418 49.092263
vn -5.256412 -3.440622 -0.103137
v 89.047528 48.979466 47.536525
vn -5.256713 -3.440009 -0.108059
v 88.595258 49.675330 47.425416
vn -5.267394 -3.424537 -0.051826
v 88.911499 49.214400 46.657475
vn -2.627527 -1.720920 -0.064350
v 88.866200 49.452050 38.000000
vn -5.268170 -3.422323 -0.107851
v 88.631478 49.781198 38.788627
vn -2.710698 -1.587957 -0.010580
v 85.027350 55.425600 48.919850
vn -5.414339 -3.187202 -0.059704
v 85.450027 54.709761 48.104565
vn -5.423620 -3.172084 -0.024997
v 85.491980 54.631108 49.098509
vn -2.629462 -1.717717 -0.070572
v 89.827300 47.739400 48.895500
vn -5.260006 -3.433873 -0.138774
v 89.357993 48.448200 49.129390
vn -5.255336 -3.441617 -0.121151
v 89.397474 48.428714 48.132678
vn -2.630711 -1.715895 -0.068320
v 89.286650 48.522900 50.000000
vn -5.258591 -3.436179 -0.135176
v 88.944278 49.074691 49.324200
vn -5.350747 -3.291578 -0.107736
v 86.388192 53.172897 47.116564
vn -5.376153 -3.250554 -0.095747
v 86.228543 53.407959 48.143590
vn -5.389760 -3.227895 -0.091584
v 85.901189 53.966510 47.457866
vn -5.280568 -3.403980 -0.082442
v 88.480624 49.992932 39.623722
vn -5.268318 -3.423105 -0.058309
v 89.402139 48.451924 47.077249
vn -5.374737 -3.251742 -0.123019
v 86.624585 52.723889 48.906628
vn -5.405294 -3.202426 -0.057336
v 86.026787 53.715455 49.105667
vn -2.639422 -1.703788 -0.012574
v 89.844550 47.769250 46.546050
vn -5.271620 -3.418797 -0.012001
v 89.333244 48.564878 45.862111
vn -5.285877 -3.396523 -0.018152
v 88.736013 49.484676 45.645329
vn -2.700976 -1.603926 -0.041878
v 85.039000 55.445600 46.588600
vn -5.403997 -3.204609 -0.074981
v 85.529819 54.638884 45.829789
vn -5.404565 -3.203270 -0.089925
v 85.503656 54.652570 46.993027
vn -5.404918 -3.203285 -0.064147
v 85.507936 54.697877 44.728695
vn -5.329166 -3.327836 -0.061088
v 87.347628 51.748256 40.995220
vn -5.316637 -3.347497 -0.076120
v 87.597194 51.371620 39.946710
vn -5.306197 -3.364125 -0.065150
v 87.825046 50.989848 40.847753
vn -2.633964 -1.711605 -0.047430
v 89.865750 47.806000 42.193000
vn -5.264429 -3.428783 -0.086913
v 89.330414 48.634660 42.016426
vn -5.253341 -3.444271 -0.133505
v 88.489020 49.775449 49.174742
vn -5.337551 -3.314069 -0.073493
v 86.373197 53.364989 39.053920
vn -5.363752 -3.271303 -0.044226
v 85.884738 54.146529 39.037325
vn -2.663596 -1.665502 -0.031035
v 86.227850 53.617100 38.000000
vn -5.398566 -3.214148 -0.051405
v 85.648814 54.516753 41.196280
vn -5.363354 -3.272434 -0.054068
v 86.252941 53.513240 41.137929
vn -5.374946 -3.253510 -0.051961
v 86.008518 53.899958 42.201053
vn -2.666442 -1.660661 -0.046748
v 87.129750 52.169950 38.000000
vn -5.325336 -3.333311 -0.088591
v 87.378329 51.743486 38.982025
vn -5.341928 -3.306723 -0.087602
v 86.862100 52.572971 39.017966
vn -5.299109 -3.374800 -0.086824
v 88.007613 50.743832 39.016212
vn -5.311017 -3.357093 -0.032839
v 88.197860 50.332897 45.439919
vn -5.299283 -3.375380 -0.051357
v 88.567724 49.760889 44.615941
vn -5.312542 -3.352304 -0.105414
v 87.838774 50.897679 46.286514
vn -5.319932 -3.343053 -0.027117
v 87.652901 51.201986 45.272850
vn -5.306121 -3.364563 -0.051745
v 87.866974 50.882704 43.290533
vn -5.293047 -3.384997 -0.062022
v 88.301604 50.216615 42.474139
vn -5.295960 -3.380453 -0.061154
v 88.430918 49.995639 43.559244
vn -5.278622 -3.404302 -0.147289
v 88.028150 50.544887 47.278076
vn -5.322162 -3.334951 -0.172553
v 87.469573 51.432562 47.151306
vn -5.289193 -3.391027 -0.061392
v 88.244808 50.326297 41.381944
vn -2.723851 -1.564695 -0.044349
v 85.422200 54.953200 38.000000
vn -5.421637 -3.174650 -0.057062
v 85.448959 54.879962 38.971243
vn -2.722075 -1.567730 -0.046158
v 85.081250 55.518950 38.933950
vn -5.401034 -3.210292 -0.035005
v 85.526728 54.740066 39.999310
vn -2.656520 -1.676563 -0.047723
v 87.740250 51.194175 38.000000
vn -2.711505 -1.586456 -0.022037
v 85.061900 55.485400 42.976300
vn -5.402808 -3.207114 -0.045603
v 85.589231 54.577150 43.737198
vn -5.318982 -3.344470 -0.035525
v 87.474631 51.493591 44.230006
vn -5.324735 -3.335405 -0.024559
v 87.082379 52.110630 45.143472
vn -5.334861 -3.318703 -0.062125
v 87.241880 51.896678 42.281157
vn -5.326606 -3.331981 -0.056289
v 87.298931 51.787461 43.144254
vn -5.349866 -3.294419 -0.057573
v 86.737417 52.691274 43.110852
vn -2.703878 -1.599482 -0.017421
v 85.070650 55.500500 40.779750
vn -5.342993 -3.302807 -0.148688
v 87.101058 51.984864 48.035317
vn -5.253012 -3.445229 -0.120737
v 88.265008 50.152419 48.248551
vn -5.276128 -3.410986 -0.072823
v 88.770007 49.498705 41.776735
vn -5.346933 -3.298967 -0.073541
v 86.555519 53.043070 40.074084
vn -5.341437 -3.308154 -0.058911
v 86.804021 52.621429 41.074526
vn -5.363603 -3.272055 -0.060380
v 86.398997 53.233798 43.975560
vn -5.349524 -3.295016 -0.045474
v 86.509250 53.030411 44.963968
vn -5.379568 -3.245198 -0.069283
v 85.981431 53.888768 45.256989
vn -5.365082 -3.269884 -0.046520
v 86.245057 53.499478 43.054998
vn -5.331291 -3.321786 -0.144622
v 86.927399 52.312829 47.056407
vn -2.712694 -1.584519 -0.013996
v 85.684150 54.294150 50.000000
vn -5.335589 -3.317120 -0.072714
v 86.528971 52.991531 45.861768
vn -5.376785 -3.250533 -0.046607
v 85.963848 53.956885 43.343927
# 135 vertices, 0 vertices normals

f 42//42 43//43 44//44
f 45//45 42//42 46//46
f 47//47 48//48 46//46
f 49//49 50//50 51//51
f 52//52 53//53 51//51
f 54//54 55//55 56//56
f 57//57 58//58 59//59
f 60//60 47//47 61//61
f 62//62 63//63 64//64
f 65//65 66//66 67//67
f 68//68 69//69 66//66
f 70//70 71//71 72//72
f 61//61 73//73 99//99
f 44//44 21//21 73//73
f 67//67 57//57 74//74
f 75//75 76//76 71//71
f 77//77 74//74 78//78
f 59//59 79//79 78//78
f 80//80 81//81 82//82
f 12//12 83//83 116//116
f 84//84 85//85 86//86
f 87//87 53//53 88//88
f 89//89 35//35 69//69
f 90//90 91//91 92//92
f 93//93 94//94 95//95
f 96//96 97//97 98//98
f 99//99 85//85 97//97
f 79//79 100//100 101//101
f 102//102 103//103 100//100
f 104//104 105//105 106//106
f 107//107 108//108 102//102
f 30//30 5//5 48//48
f 86//86 21//21 109//109
f 110//110 111//111 112//112
f 91//91 113//113 111//111
f 29//29 115//115 116//116
f 117//117 103//103 118//118
f 119//119 120//120 121//121
f 104//104 117//117 120//120
f 122//122 113//113 93//93
f 55//55 75//75 123//123
f 124//124 89//89 56//56
f 107//107 58//58 124//124
f 52//52 101//101 106//106
f 125//125 105//105 109//109
f 90//90 98//98 126//126
f 127//127 94//94 126//126
f 127//127 84//84 119//119
f 125//125 43//43 88//88
f 131//131 121//121 128//128
f 82//82 72//72 63//63
f 131//131 135//135 95//95
f 132//132 108//108 123//123
f 64//64 76//76 133//133
f 134//134 129//129 118//118
f 70//70 134//134 132//132
f 4//4 42//42 44//44
f 42//42 3//3 43//43
f 5//5 45//45 46//46
f 45//45 3//3 42//42
f 46//46 42//42 4//4
f 4//4 47//47 46//46
f 47//47 6//6 48//48
f 46//46 48//48 5//5
f 8//8 49//49 51//51
f 49//49 7//7 50//50
f 51//51 50//50 9//9
f 9//9 52//52 51//51
f 52//52 2//2 53//53
f 51//51 53//53 8//8
f 10//10 54//54 56//56
f 54//54 14//14 55//55
f 56//56 55//55 34//34
f 74//74 57//57 59//59
f 57//57 35//35 58//58
f 59//59 58//58 11//11
f 13//13 60//60 61//61
f 60//60 6//6 47//47
f 61//61 47//47 4//4
f 15//15 62//62 64//64
f 62//62 22//22 63//63
f 64//64 63//63 38//38
f 18//18 65//65 67//67
f 65//65 19//19 66//66
f 67//67 66//66 35//35
f 19//19 68//68 66//66
f 68//68 20//20 69//69
f 66//66 69//69 35//35
f 41//41 70//70 72//72
f 70//70 39//39 71//71
f 72//72 71//71 38//38
f 13//13 61//61 99//99
f 61//61 4//4 73//73
f 99//99 73//73 21//21
f 4//4 44//44 73//73
f 18//18 67//67 74//74
f 67//67 35//35 57//57
f 39//39 75//75 71//71
f 75//75 25//25 76//76
f 71//71 76//76 38//38
f 7//7 77//77 78//78
f 77//77 18//18 74//74
f 74//74 59//59 78//78
f 59//59 11//11 79//79
f 78//78 79//79 9//9
f 22//22 80//80 82//82
f 80//80 24//24 81//81
f 82//82 81//81 41//41
f 24//24 29//29 83//83
f 116//116 83//83 29//29
f 17//17 84//84 86//86
f 84//84 26//26 85//85
f 86//86 85//85 21//21
f 3//3 87//87 88//88
f 87//87 8//8 53//53
f 88//88 53//53 2//2
f 10//10 89//89 20//20
f 69//69 20//20 89//89
f 27//27 90//90 92//92
f 90//90 36//36 91//91
f 92//92 91//91 28//28
f 40//40 93//93 95//95
f 95//95 94//94 16//16
f 27//27 96//96 98//98
f 96//96 114//114 97//97
f 98//98 97//97 26//26
f 114//114 99//99 97//97
f 99//99 21//21 85//85
f 97//97 85//85 26//26
f 9//9 79//79 101//101
f 79//79 11//11 100//100
f 101//101 100//100 23//23
f 11//11 102//102 100//100
f 102//102 1//1 103//103
f 100//100 103//103 23//23
f 23//23 104//104 106//106
f 104//104 17//17 105//105
f 106//106 105//105 2//2
f 11//11 107//107 102//102
f 107//107 34//34 108//108
f 102//102 108//108 1//1
f 7//7 78//78 50//50
f 50//50 78//78 9//9
f 30//30 48//48 6//6
f 17//17 86//86 109//109
f 109//109 21//21 44//44
f 31//31 110//110 112//112
f 110//110 28//28 111//111
f 112//112 111//111 32//32
f 33//33 122//122 93//93
f 28//28 91//91 111//111
f 91//91 36//36 113//113
f 111//111 113//113 32//32
f 114//114 13//13 99//99
f 115//115 40//40 116//116
f 40//40 115//115 33//33
f 37//37 117//117 118//118
f 117//117 23//23 103//103
f 118//118 103//103 1//1
f 16//16 119//119 121//121
f 121//121 120//120 37//37
f 17//17 104//104 120//120
f 104//104 23//23 117//117
f 120//120 117//117 37//37
f 122//122 32//32 113//113
f 93//93 113//113 36//36
f 34//34 55//55 123//123
f 55//55 14//14 75//75
f 123//123 75//75 39//39
f 34//34 124//124 56//56
f 124//124 35//35 89//89
f 56//56 89//89 10//10
f 34//34 107//107 124//124
f 107//107 11//11 58//58
f 124//124 58//58 35//35
f 2//2 52//52 106//106
f 52//52 9//9 101//101
f 106//106 101//101 23//23
f 44//44 125//125 109//109
f 125//125 2//2 105//105
f 109//109 105//105 17//17
f 36//36 90//90 126//126
f 90//90 27//27 98//98
f 126//126 98//98 26//26
f 26//26 127//127 126//126
f 127//127 16//16 94//94
f 126//126 94//94 36//36
f 16//16 127//127 119//119
f 127//127 26//26 84//84
f 119//119 84//84 17//17
f 75//75 14//14 25//25
f 2//2 125//125 88//88
f 125//125 44//44 43//43
f 88//88 43//43 3//3
f 128//128 37//37 129//129
f 131//131 16//16 121//121
f 128//128 121//121 37//37
f 22//22 82//82 63//63
f 82//82 41//41 72//72
f 63//63 72//72 38//38
f 16//16 131//131 95//95
f 131//131 128//128 135//135
f 95//95 135//135 40//40
f 39//39 132//132 123//123
f 132//132 1//1 108//108
f 123//123 108//108 34//34
f 15//15 64//64 133//133
f 64//64 38//38 76//76
f 133//133 76//76 25//25
f 1//1 134//134 118//118
f 118//118 129//129 37//37
f 39//39 70//70 132//132
f 70//70 41//41 134//134
f 130//130 41//41 81//81
f 83//83 81//81 24//24
f 93//93 40//40 33//33
f 93//93 36//36 94//94
f 116//116 40//40 135//135
f 132//132 134//134 1//1
f 12//12 128//128 129//129
f 130//130 12//12 129//129
f 130//130 81//81 83//83
f 130//130 83//83 12//12
f 116//116 135//135 12//12
f 119//119 17//17 120//120
f 12//12 135//135 128//128
f 134//134 41//41 130//130
f 134//134 130//130 129//129
# 228 faces, 0 coords texture

# End of File
