####
#
# OBJ File Generated by Meshlab
#
####
# Object 79_C46_M_4.obj
#
# Vertices: 135
# Faces: 227
#
####
vn 0.643178 -3.078388 0.023262
v -13.141000 45.475700 -48.215900
vn 0.329732 -1.540459 -0.022817
v -13.164800 45.520000 -38.000000
vn 0.636083 -3.076489 -0.004891
v -11.452100 45.886600 -38.000000
vn 0.621435 -3.079420 0.011756
v -10.987200 45.903100 -50.000000
vn 0.312735 -1.540761 0.007732
v -13.138100 45.473900 -50.000000
vn 0.482079 -3.103497 0.023308
v -6.860270 46.719500 -50.000000
vn 0.196179 -1.551305 0.023200
v -4.770200 46.980200 -50.000000
vn 0.381683 -3.118474 0.002477
v -4.721520 46.895900 -40.156300
vn 0.388921 -3.108779 -0.033966
v -4.722700 46.898300 -42.060700
vn 1.181713 -6.170768 0.034735
v -9.320638 46.264218 -46.507995
vn 0.975502 -6.205474 -0.060219
v -7.173469 46.654425 -46.177389
vn 0.387124 -3.124793 -0.045930
v -4.750790 46.947200 -44.559200
vn 1.127746 -6.178795 -0.005991
v -7.888346 46.552544 -48.133289
vn 0.447826 -3.109030 -0.003953
v -8.025860 46.490200 -38.000000
vn 0.959265 -6.208071 -0.010507
v -8.586606 46.407732 -42.144643
vn 0.373378 -3.106381 -0.042916
v -4.751960 46.949200 -45.320900
vn 0.424990 -3.131793 -0.027109
v -4.791490 47.017200 -47.624700
vn 0.377324 -3.118802 0.015925
v -4.725140 46.892300 -38.000000
vn 0.372733 -3.114786 0.011126
v -4.719810 46.892900 -38.007200
vn 1.252690 -6.156512 0.041221
v -10.019535 46.103066 -48.296580
vn 0.623090 -3.079057 0.011454
v -8.944100 46.330900 -50.000000
vn 0.629909 -3.075235 0.028466
v -13.173300 45.528000 -42.228600
vn 0.206521 -1.560711 0.022824
v -4.719850 46.893000 -38.000000
vn 1.047337 -6.194535 -0.012800
v -8.649672 46.396874 -44.444259
vn 1.288328 -6.149581 0.029890
v -12.075451 45.741245 -44.135306
vn 1.215037 -6.163775 0.054347
v -10.939450 45.971316 -45.202951
vn 0.633708 -3.070876 -0.007304
v -13.179200 45.544800 -39.882400
vn 0.639535 -3.072968 0.032419
v -13.156900 45.501500 -46.070000
vn 0.585886 -3.085483 0.020163
v -10.499600 46.085000 -38.000000
vn 0.649382 -3.074833 0.020396
v -13.163200 45.510300 -44.092700
vn 0.373531 -3.119301 -0.007286
v -5.831285 46.761650 -38.000000
vn 0.925250 -6.213694 0.013052
v -8.330220 46.443641 -40.125265
vn 0.785710 -6.233706 -0.007036
v -6.612004 46.658683 -41.191834
vn 1.246753 -6.157989 0.052680
v -12.290595 45.711549 -41.912113
vn 1.130043 -6.180520 0.017629
v -10.266957 46.111363 -41.039434
vn 1.184867 -6.169921 0.016093
v -10.610821 46.046501 -43.035188
vn 0.833971 -6.226489 -0.103801
v -6.673446 46.675339 -43.269059
vn 0.846819 -6.223448 -0.169183
v -5.570224 46.891014 -46.902397
vn 1.248917 -6.157480 0.058000
v -12.013351 45.711863 -48.185556
vn 0.865427 -6.222437 0.030089
v -6.312598 46.799711 -49.090233
vn 0.653148 -3.072635 -0.043773
v -13.172000 45.532400 -38.941200
vn 1.273278 -6.152418 -0.056822
v -12.413443 45.697076 -39.209867
vn 0.651161 -3.073152 -0.036050
v -12.308450 45.703300 -38.000000
vn 1.220761 -6.163310 0.040749
v -11.514133 45.804520 -49.115082
vn 1.255434 -6.156337 0.028666
v -12.511490 45.605576 -49.105150
vn 0.614751 -3.080773 0.022860
v -12.062650 45.688500 -50.000000
vn 0.640397 -3.075627 0.004144
v -13.139550 45.474800 -49.107950
vn 0.392959 -3.116917 -0.003897
v -4.722110 46.897100 -41.108500
vn 0.771321 -6.235591 0.014835
v -5.665594 46.777672 -40.647445
vn 0.772782 -6.235231 -0.041595
v -5.677047 46.777293 -41.658842
vn 0.850994 -6.225019 -0.032942
v -7.652529 46.538200 -42.714401
vn 0.794715 -6.232202 -0.074276
v -6.654661 46.664559 -42.206419
vn 0.805709 -6.231035 -0.027954
v -7.586467 46.534528 -41.674222
vn 0.412696 -3.112793 -0.099016
v -4.771725 46.983200 -46.472800
vn 0.802068 -6.229740 -0.148174
v -5.369565 46.887871 -45.968118
vn 0.818339 -6.228266 -0.111326
v -6.122232 46.791157 -46.068428
vn 0.908749 -6.215680 -0.091084
v -6.474243 46.769273 -47.000258
vn 0.746101 -6.238690 0.008870
v -5.652822 46.784928 -39.505838
vn 0.736946 -6.239811 -0.009073
v -5.357890 46.818241 -38.469986
vn 1.292029 -6.148903 -0.006689
v -9.471683 46.219062 -49.133894
vn 1.222623 -6.162349 0.040134
v -8.413224 46.442175 -49.099714
vn 1.294482 -6.148303 0.021561
v -8.987940 46.320529 -48.236384
vn 1.212752 -6.164077 -0.024245
v -8.591351 46.410915 -47.295436
vn 1.249571 -6.157149 0.066029
v -9.628534 46.192150 -47.431640
vn 1.057376 -6.193415 0.008399
v -9.286561 46.279889 -40.571334
vn 1.023785 -6.199091 0.018319
v -9.147823 46.310831 -39.579493
vn 1.100229 -6.185651 0.035758
v -10.104520 46.146834 -40.052249
vn 0.768072 -6.235344 -0.083015
v -5.714704 46.834898 -45.032984
vn 0.881724 -6.219622 -0.069175
v -6.835896 46.695749 -45.276908
vn 0.634169 -3.076771 0.030098
v -13.168250 45.519150 -43.160650
vn 1.265392 -6.154230 0.049564
v -12.340639 45.692178 -42.830443
vn 0.773944 -6.235161 0.036323
v -6.582985 46.669959 -40.166495
vn 0.368478 -3.119905 -0.004622
v -4.720665 46.894400 -39.081750
vn 1.126533 -6.180959 -0.025992
v -8.255378 46.458027 -46.324886
vn 1.053888 -6.193508 -0.020781
v -7.922593 46.524120 -45.383311
vn 1.128965 -6.180818 0.032089
v -9.027407 46.323785 -45.529891
vn 1.141980 -6.178442 0.033393
v -9.886637 46.168452 -44.807273
vn 1.169868 -6.172832 0.064846
v -10.105961 46.122598 -45.809715
vn 1.297503 -6.147636 0.036858
v -12.540889 45.638034 -44.978997
vn 1.277531 -6.151494 0.068367
v -11.934491 45.760757 -45.602580
vn 1.280268 -6.151248 0.036261
v -11.667064 45.822532 -44.791914
vn 0.929475 -6.212284 -0.007358
v -8.458512 46.426313 -41.118739
vn 1.087449 -6.188283 -0.009477
v -9.441192 46.258393 -41.570508
vn 1.215973 -6.164231 0.019470
v -10.833356 46.009508 -38.665412
vn 0.641896 -3.075034 0.041727
v -13.148950 45.488600 -47.142950
vn 1.271731 -6.152650 0.076247
v -12.497764 45.623721 -47.202629
vn 0.796327 -6.232425 0.030682
v -7.496996 46.548908 -40.673735
vn 1.249949 -6.157423 0.012795
v -10.496181 46.004511 -49.137746
vn 1.212890 -6.164575 0.066210
v -10.995533 45.911436 -48.254423
vn 1.209365 -6.165030 0.090640
v -10.491316 46.021308 -47.575598
vn 1.232998 -6.160349 0.086387
v -11.365962 45.855129 -47.206337
vn 1.103435 -6.185531 0.004649
v -9.587393 46.230518 -42.621056
vn 1.125129 -6.181495 0.023889
v -9.715384 46.207394 -43.724378
vn 0.990378 -6.203543 0.003099
v -8.660902 46.395747 -43.243115
vn 1.054686 -6.193121 -0.061684
v -7.517305 46.605637 -47.132392
vn 0.957638 -6.209723 -0.019023
v -6.748354 46.730276 -47.995100
vn 0.575512 -3.088150 0.041472
v -7.902185 46.525200 -50.000000
vn 1.052559 -6.193309 0.029022
v -7.346515 46.641225 -49.061688
vn 1.265811 -6.153794 0.082443
v -12.040023 45.726154 -46.440420
vn 1.212993 -6.164630 0.031912
v -10.913230 45.981070 -44.135256
vn 0.653179 -3.072900 0.015757
v -13.160050 45.505900 -45.081350
vn 0.643887 -3.074897 -0.004928
v -9.965650 46.117000 -50.000000
vn 1.254977 -6.156439 0.017329
v -12.506479 45.681578 -40.174480
vn 1.241680 -6.159033 -0.036773
v -11.651762 45.850090 -38.884712
vn 1.182055 -6.170879 0.004253
v -10.897940 45.999869 -39.559241
vn 0.863063 -6.220868 -0.135141
v -6.665844 46.705209 -44.325677
vn 0.921188 -6.214127 -0.072979
v -7.653456 46.536567 -43.783661
vn 0.976889 -6.205600 -0.114972
v -7.550547 46.573871 -44.642380
vn 1.163187 -6.174311 0.004018
v -10.432080 46.080227 -42.024224
vn 1.205229 -6.166371 0.034739
v -11.294648 45.910764 -41.494016
vn 0.633975 -3.076860 0.024734
v -13.176250 45.536400 -41.055500
vn 0.396786 -3.115748 -0.065442
v -4.736745 46.922750 -43.309950
vn 0.777805 -6.233900 -0.104809
v -5.696896 46.788074 -42.719455
vn 0.781776 -6.232814 -0.137943
v -5.699639 46.811880 -43.869532
vn 0.386009 -3.117771 -0.012070
v -7.112930 46.604150 -38.000000
vn 1.201886 -6.166482 0.091343
v -10.330433 46.064221 -46.749315
vn 0.915375 -6.215480 0.003519
v -8.196077 46.464301 -39.135723
vn 0.808183 -6.230858 0.026797
v -7.415462 46.566933 -39.685181
vn 1.009045 -6.201604 -0.016406
v -8.965367 46.339077 -38.692737
vn 1.233038 -6.160173 0.095047
v -11.120913 45.920291 -46.140796
vn 1.180370 -6.171141 0.040506
v -11.057106 45.964893 -40.555953
vn 1.270577 -6.153313 0.025103
v -11.653960 45.832296 -43.297457
vn 0.507112 -3.100365 -0.013448
v -9.262730 46.287600 -38.000000
vn 0.788456 -6.232791 0.094076
v -5.464357 46.903718 -49.244306
vn 0.400643 -3.115511 0.051773
v -4.780845 46.998700 -48.812350
vn 0.858893 -6.223531 0.045498
v -5.686535 46.889913 -48.343272
vn 0.389075 -3.117134 0.041239
v -5.815235 46.849850 -50.000000
vn 1.083225 -6.188481 0.006511
v -9.948385 46.179591 -38.891809
vn 1.241489 -6.159257 0.019605
v -11.395075 45.888471 -42.396600
vn 0.905707 -6.216836 -0.046805
v -5.935890 46.854432 -47.603698
vn 1.221070 -6.163194 0.004082
v -11.787740 45.827127 -39.909890
vn 1.229085 -6.161432 0.050553
v -12.037936 45.772239 -40.924514
vn 1.286103 -6.149995 0.040975
v -12.531639 45.647288 -43.546877
vn 0.762990 -6.236583 -0.000437
v -6.483289 46.686184 -39.073096
vn 0.791729 -6.233003 -0.001166
v -7.175577 46.599770 -38.872233
# 135 vertices, 0 vertices normals

f 41//41 42//42 43//43
f 44//44 45//45 46//46
f 5//5 45//45 47//47
f 48//48 49//49 50//50
f 51//51 52//52 53//53
f 54//54 16//16 55//55
f 60//60 61//61 62//62
f 63//63 64//64 62//62
f 65//65 66//66 67//67
f 69//69 56//56 68//68
f 70//70 30//30 133//133
f 58//58 72//72 49//49
f 58//58 73//73 59//59
f 23//23 18//18 19//19
f 74//74 75//75 76//76
f 76//76 77//77 78//78
f 79//79 80//80 81//81
f 82//82 65//65 83//83
f 29//29 3//3 84//84
f 28//28 85//85 86//86
f 82//82 53//53 87//87
f 44//44 88//88 89//89
f 90//90 91//91 89//89
f 92//92 93//93 94//94
f 95//95 96//96 57//57
f 97//97 98//98 61//61
f 86//86 91//91 99//99
f 100//100 77//77 93//93
f 101//101 28//28 79//79
f 102//102 60//60 88//88
f 42//42 103//103 131//131
f 105//105 84//84 104//104
f 63//63 95//95 74//74
f 92//92 83//83 109//109
f 121//121 132//132 110//110
f 112//112 113//113 114//114
f 40//40 96//96 98//98
f 90//90 64//64 116//116
f 135//135 117//117 118//118
f 66//66 117//117 119//119
f 51//51 94//94 107//107
f 116//116 78//78 120//120
f 121//121 67//67 105//105
f 99//99 120//120 80//80
f 118//118 87//87 72//72
f 69//69 108//108 75//75
f 110//110 129//129 109//109
f 100//100 122//122 25//25
f 113//113 50//50 52//52
f 119//119 14//14 123//123
f 126//126 124//124 125//125
f 126//126 17//17 130//130
f 40//40 127//127 124//124
f 2//2 41//41 43//43
f 41//41 27//27 42//42
f 43//43 42//42 104//104
f 4//4 44//44 46//46
f 44//44 39//39 45//45
f 46//46 45//45 5//5
f 39//39 1//1 45//45
f 47//47 45//45 1//1
f 9//9 48//48 50//50
f 48//48 8//8 49//49
f 50//50 49//49 33//33
f 15//15 51//51 53//53
f 51//51 37//37 52//52
f 53//53 52//52 33//33
f 17//17 54//54 38//38
f 56//56 11//11 57//57
f 55//55 56//56 38//38
f 58//58 59//59 134//134
f 59//59 18//18 31//31
f 18//18 59//59 19//19
f 20//20 60//60 62//62
f 60//60 21//21 61//61
f 62//62 61//61 13//13
f 13//13 63//63 62//62
f 63//63 10//10 64//64
f 62//62 64//64 20//20
f 35//35 65//65 67//67
f 65//65 32//32 66//66
f 67//67 66//66 128//128
f 16//16 12//12 68//68
f 114//114 68//68 12//12
f 106//106 69//69 68//68
f 69//69 11//11 56//56
f 68//68 56//56 55//55
f 22//22 71//71 34//34
f 71//71 22//22 70//70
f 8//8 58//58 49//49
f 49//49 72//72 33//33
f 31//31 134//134 59//59
f 58//58 8//8 73//73
f 59//59 73//73 19//19
f 10//10 74//74 76//76
f 74//74 11//11 75//75
f 76//76 75//75 24//24
f 10//10 76//76 78//78
f 76//76 24//24 77//77
f 78//78 77//77 26//26
f 25//25 79//79 81//81
f 79//79 28//28 80//80
f 81//81 80//80 26//26
f 15//15 82//82 83//83
f 82//82 32//32 65//65
f 83//83 65//65 35//35
f 85//85 1//1 86//86
f 39//39 86//86 1//1
f 32//32 82//82 87//87
f 82//82 15//15 53//53
f 87//87 53//53 33//33
f 39//39 44//44 89//89
f 44//44 4//4 88//88
f 89//89 88//88 20//20
f 20//20 90//90 89//89
f 89//89 91//91 39//39
f 15//15 92//92 94//94
f 92//92 36//36 93//93
f 94//94 93//93 24//24
f 11//11 95//95 57//57
f 95//95 13//13 96//96
f 21//21 97//97 61//61
f 97//97 6//6 98//98
f 61//61 98//98 13//13
f 28//28 86//86 99//99
f 86//86 39//39 91//91
f 36//36 100//100 93//93
f 100//100 26//26 77//77
f 93//93 77//77 24//24
f 30//30 79//79 25//25
f 79//79 30//30 101//101
f 4//4 102//102 88//88
f 102//102 21//21 60//60
f 88//88 60//60 20//20
f 42//42 27//27 103//103
f 105//105 128//128 84//84
f 104//104 84//84 3//3
f 108//108 107//107 24//24
f 10//10 63//63 74//74
f 63//63 13//13 95//95
f 74//74 95//95 11//11
f 36//36 92//92 109//109
f 92//92 15//15 83//83
f 109//109 83//83 35//35
f 34//34 110//110 132//132
f 22//22 34//34 111//111
f 111//111 103//103 27//27
f 12//12 112//112 114//114
f 112//112 9//9 113//113
f 114//114 113//113 37//37
f 6//6 40//40 98//98
f 98//98 96//96 13//13
f 68//68 114//114 106//106
f 114//114 37//37 106//106
f 31//31 115//115 135//135
f 115//115 14//14 135//135
f 91//91 90//90 116//116
f 90//90 20//20 64//64
f 116//116 64//64 10//10
f 135//135 14//14 117//117
f 118//118 117//117 32//32
f 128//128 66//66 119//119
f 66//66 32//32 117//117
f 119//119 117//117 14//14
f 25//25 122//122 133//133
f 37//37 51//51 107//107
f 51//51 15//15 94//94
f 107//107 94//94 24//24
f 91//91 116//116 120//120
f 116//116 10//10 78//78
f 120//120 78//78 26//26
f 131//131 121//121 105//105
f 121//121 35//35 67//67
f 105//105 67//67 128//128
f 28//28 99//99 80//80
f 99//99 91//91 120//120
f 80//80 120//120 26//26
f 118//118 32//32 87//87
f 72//72 87//87 33//33
f 11//11 69//69 75//75
f 75//75 108//108 24//24
f 110//110 35//35 121//121
f 35//35 110//110 109//109
f 109//109 129//129 36//36
f 122//122 36//36 129//129
f 26//26 100//100 81//81
f 100//100 36//36 122//122
f 81//81 100//100 25//25
f 37//37 113//113 52//52
f 113//113 9//9 50//50
f 52//52 50//50 33//33
f 84//84 128//128 29//29
f 123//123 128//128 119//119
f 17//17 126//126 125//125
f 126//126 40//40 124//124
f 125//125 124//124 7//7
f 17//17 38//38 130//130
f 40//40 126//126 96//96
f 40//40 6//6 127//127
f 124//124 127//127 7//7
f 108//108 106//106 107//107
f 106//106 37//37 107//107
f 69//69 106//106 108//108
f 122//122 129//129 71//71
f 128//128 123//123 29//29
f 132//132 103//103 111//111
f 132//132 131//131 103//103
f 130//130 38//38 57//57
f 38//38 54//54 55//55
f 68//68 55//55 16//16
f 34//34 129//129 110//110
f 126//126 130//130 96//96
f 43//43 104//104 3//3
f 56//56 57//57 38//38
f 57//57 96//96 130//130
f 104//104 42//42 131//131
f 131//131 105//105 104//104
f 34//34 132//132 111//111
f 132//132 121//121 131//131
f 71//71 129//129 34//34
f 70//70 133//133 71//71
f 134//134 31//31 135//135
f 71//71 133//133 122//122
f 25//25 133//133 30//30
f 58//58 134//134 72//72
f 135//135 118//118 134//134
f 72//72 134//134 118//118
# 227 faces, 0 coords texture

# End of File
