####
#
# OBJ File Generated by Meshlab
#
####
# Object 813_C142_M_1.obj
#
# Vertices: 141
# Faces: 239
#
####
vn 1.354757 -0.777932 -0.027717
v -85.100100 55.551500 38.000000
vn 5.436558 -3.148631 -0.074175
v -85.701985 54.444163 39.776060
vn 5.413179 -3.189279 -0.063983
v -87.163114 51.875362 44.125920
vn 2.649172 -1.685383 0.013196
v -89.752300 47.609600 47.091500
vn 5.425595 -3.167994 -0.067892
v -85.591699 54.473606 47.249946
vn 5.410233 -3.194596 -0.043488
v -86.610079 52.729873 47.844172
vn 2.650599 -1.687141 -0.013074
v -89.788200 47.671700 38.231500
vn 2.653602 -1.681534 -0.019371
v -89.705100 47.803000 38.000000
vn 5.330760 -3.325098 -0.062363
v -89.408011 48.267736 38.707330
vn 2.716347 -1.581105 -0.041314
v -85.048400 55.462100 45.073400
vn 5.418204 -3.180429 -0.075384
v -86.311746 53.276651 45.666661
vn 2.680519 -1.637336 -0.031704
v -87.830300 50.651800 50.000000
vn 5.374639 -3.253863 -0.027652
v -87.679684 50.921578 48.487194
vn 5.388547 -3.230601 -0.058581
v -88.113424 50.281263 42.857092
vn 2.709863 -1.595055 -0.031939
v -85.021200 55.414900 48.719800
vn 2.705301 -1.597076 -0.023793
v -87.418000 51.556600 38.000000
vn 5.434061 -3.153310 -0.063000
v -85.864428 54.131201 41.408142
vn 5.348622 -3.295991 -0.065524
v -88.726026 49.272785 42.787727
vn 1.322169 -0.853964 -0.009733
v -89.789000 47.673100 38.000000
vn 2.731038 -1.558015 -0.035914
v -85.084200 55.524100 39.891500
vn 2.641413 -1.700629 0.001566
v -89.467000 48.071300 50.000000
vn 2.660740 -1.670010 -0.024286
v -88.143300 50.151000 50.000000
vn 2.645081 -1.694818 0.006559
v -89.758000 47.619400 49.099100
vn 5.311736 -3.356085 0.009270
v -88.875916 49.002380 48.569173
vn 2.701991 -1.602424 -0.031061
v -86.321500 53.192900 50.000000
vn 2.703070 -1.600794 -0.021911
v -86.565300 52.782500 50.000000
vn 2.711334 -1.586418 -0.041712
v -86.383500 53.332200 38.000000
vn 1.356533 -0.802522 -0.015072
v -85.014200 55.402700 50.000000
vn 2.651841 -1.687473 -0.029101
v -89.780000 47.657400 40.313800
vn 5.391331 -3.225422 -0.081730
v -88.066174 50.400047 41.084902
vn 1.315221 -0.863582 0.008351
v -89.760700 47.624000 50.000000
vn 5.426741 -3.166077 -0.067503
v -86.059332 53.766909 43.455730
vn 2.716638 -1.573384 -0.041222
v -85.034700 55.438200 47.157500
vn 2.648650 -1.689213 -0.036132
v -89.765900 47.633000 42.704100
vn 2.635666 -1.697824 -0.011078
v -89.750600 47.606600 45.248500
vn 2.681553 -1.636499 -0.035984
v -88.609400 49.578600 38.000000
vn 2.720508 -1.565172 -0.031886
v -85.070200 55.499000 42.548000
vn 5.347910 -3.296992 -0.008954
v -88.494117 49.589865 46.730748
vn 5.387997 -3.231772 -0.053475
v -88.183048 50.140039 44.684442
vn 5.400134 -3.211294 -0.060669
v -87.398695 51.422955 46.267262
vn 5.330664 -3.324549 -0.077418
v -89.027008 48.831859 40.700516
vn 5.412749 -3.189919 -0.068192
v -87.269885 51.788537 39.685593
vn 5.416092 -3.184256 -0.068049
v -86.970517 52.241099 41.810409
vn 2.730379 -1.553244 -0.045452
v -85.092150 55.537800 38.945750
vn 5.448344 -3.127591 -0.105873
v -85.444005 54.921088 38.884295
vn 2.717534 -1.575830 -0.037065
v -85.041550 55.450150 46.115450
vn 5.433296 -3.154625 -0.077427
v -85.427556 54.782327 46.187953
vn 5.423939 -3.170828 -0.069910
v -85.929803 53.912912 46.443921
vn 5.429848 -3.160475 -0.081076
v -85.752790 54.244606 45.360351
vn 5.413561 -3.188955 -0.047288
v -85.762577 54.168579 48.207559
vn 5.421705 -3.174463 -0.071526
v -85.316368 54.925846 48.045376
vn 5.404921 -3.203203 -0.063818
v -87.769131 50.950220 39.405440
vn 5.390339 -3.227682 -0.057472
v -87.828724 50.858766 38.571308
vn 5.416056 -3.184764 -0.037845
v -87.344444 51.672752 38.775664
vn 5.415596 -3.185045 -0.069835
v -86.624334 52.798670 43.786752
vn 5.421756 -3.174188 -0.084944
v -86.164108 53.558029 44.576135
vn 5.410464 -3.193441 -0.084827
v -86.734949 52.580430 44.888093
vn 5.409670 -3.195114 -0.070933
v -86.859821 52.341915 45.970252
vn 5.406278 -3.200613 -0.081438
v -87.275456 51.658338 45.197440
vn 5.330659 -3.324667 -0.070231
v -89.032468 48.755818 43.845664
vn 5.370906 -3.260271 -0.048353
v -88.486021 49.653036 43.789398
vn 5.367301 -3.266121 -0.053599
v -88.686149 49.307234 44.837587
vn 5.396611 -3.217452 -0.040673
v -88.029248 50.408421 43.799812
vn 5.414778 -3.186897 -0.043888
v -87.585565 51.164542 43.439820
vn 5.414900 -3.186337 -0.063312
v -87.526033 51.282409 42.410263
vn 5.420283 -3.177473 -0.050900
v -87.063200 52.063534 43.028070
vn 5.371257 -3.259112 -0.077854
v -88.415991 49.804271 41.872320
vn 5.397607 -3.215205 -0.074326
v -87.958012 50.560864 41.958244
vn 5.408690 -3.196966 -0.055765
v -87.682271 50.991362 44.449476
vn 5.449143 -3.127545 -0.059224
v -85.521086 54.743236 40.759407
vn 2.727642 -1.558437 -0.029098
v -85.077200 55.511550 41.219750
vn 5.450919 -3.124627 -0.049469
v -85.497885 54.762869 41.882798
vn 2.650292 -1.686874 -0.003618
v -88.805150 49.111150 50.000000
vn 5.299178 -3.375957 -0.005311
v -89.134277 48.595586 49.283588
vn 5.314598 -3.351322 -0.030017
v -88.533143 49.540046 49.282431
vn 5.300490 -3.373823 0.019136
v -89.354410 48.249990 48.626366
vn 5.409592 -3.195668 -0.047799
v -86.235664 53.349042 49.411600
vn 5.424859 -3.168243 -0.100072
v -85.991969 53.972406 38.913158
vn 2.719026 -1.572410 -0.063477
v -85.741800 54.441850 38.000000
vn 5.407903 -3.198421 -0.055499
v -85.454208 54.677359 49.019156
vn 2.703747 -1.599516 -0.030060
v -85.667850 54.297800 50.000000
vn 2.654222 -1.680515 -0.024043
v -89.784100 47.664550 39.272650
vn 5.322718 -3.337806 -0.069349
v -89.278033 48.456011 39.737758
vn 5.298838 -3.375872 -0.064987
v -89.441362 48.180869 40.728120
vn 5.413284 -3.188701 -0.083412
v -87.558540 51.253643 41.397736
vn 5.417866 -3.181576 -0.051304
v -86.098077 53.606604 47.494133
vn 5.414018 -3.187985 -0.059454
v -86.463356 52.998966 46.741203
vn 5.421447 -3.175027 -0.072343
v -86.032024 53.863074 40.680967
vn 5.411724 -3.191503 -0.077209
v -86.250503 53.510656 39.894769
vn 5.402670 -3.207559 -0.033744
v -87.155916 51.795927 49.202526
vn 5.402082 -3.208505 -0.037481
v -87.124199 51.860204 48.177520
vn 5.394735 -3.220725 -0.044684
v -87.536349 51.177197 47.350415
vn 5.406382 -3.201041 -0.051019
v -86.994813 52.092466 47.050669
vn 5.300618 -3.373091 -0.064169
v -89.363485 48.285053 41.659264
vn 5.334781 -3.318093 -0.070632
v -88.898123 49.015835 41.739301
vn 5.306072 -3.364257 -0.075046
v -89.228200 48.478047 42.706630
vn 5.284819 -3.397507 -0.075498
v -89.461502 48.072812 44.281367
vn 5.410196 -3.194055 -0.078764
v -86.444539 53.201107 39.123826
vn 5.410947 -3.192739 -0.080483
v -86.775297 52.621938 39.880707
vn 5.419683 -3.178235 -0.060501
v -86.854191 52.512146 38.908628
vn 2.643801 -1.697025 0.005201
v -89.751450 47.608100 46.170000
vn 5.296375 -3.380245 0.020746
v -89.407740 48.143224 46.058027
vn 2.639713 -1.703015 -0.035467
v -89.758250 47.619800 43.976300
vn 2.690850 -1.620768 -0.045212
v -88.013700 50.567600 38.000000
vn 2.717119 -1.576310 -0.045966
v -85.059300 55.480550 43.810700
vn 5.440241 -3.142739 -0.068145
v -85.534345 54.683889 43.053159
vn 2.714351 -1.581600 -0.021029
v -86.900750 52.444400 38.000000
vn 2.717614 -1.575427 -0.046979
v -85.027950 55.426550 47.938650
vn 5.335000 -3.318250 -0.012722
v -88.862100 49.001404 45.888415
vn 5.305326 -3.366170 0.028752
v -89.085456 48.658527 46.897368
vn 5.340115 -3.310265 -0.057096
v -88.001268 50.392041 49.267444
vn 5.387101 -3.233383 -0.040317
v -87.590325 51.062507 49.369699
vn 5.366191 -3.267383 -0.081283
v -88.547713 49.613791 40.848795
vn 5.303811 -3.368552 0.029387
v -89.259171 48.392689 47.848783
vn 5.319831 -3.342984 0.036620
v -88.684164 49.297329 47.700247
vn 5.361349 -3.275599 -0.002123
v -88.097148 50.239036 47.565471
vn 5.332013 -3.323506 -0.002791
v -88.304480 49.918503 48.495740
vn 5.388048 -3.230895 -0.084196
v -88.166266 50.260150 40.060305
vn 5.358517 -3.279834 -0.083804
v -88.660628 49.454648 39.758277
vn 2.649482 -1.687830 -0.032820
v -89.772950 47.645200 41.508950
vn 2.651438 -1.685002 0.015692
v -89.755150 47.614500 48.095300
vn 2.701333 -1.603786 -0.016552
v -87.197800 51.717150 50.000000
vn 5.378552 -3.247509 -0.053740
v -88.332620 49.874479 45.709018
vn 2.673366 -1.649610 -0.038809
v -89.157250 48.690800 38.000000
vn 5.351803 -3.291015 -0.075306
v -88.881897 49.117492 38.832675
vn 5.396277 -3.217725 -0.065983
v -87.804877 50.758027 45.482426
vn 5.415351 -3.186052 -0.037439
v -86.226162 53.374924 48.508695
vn 5.411472 -3.191687 -0.086626
v -87.672080 51.087277 40.391330
vn 5.412437 -3.190148 -0.083028
v -87.149375 51.966914 40.686949
vn 5.412961 -3.189360 -0.078998
v -86.607358 52.882829 40.808310
vn 5.416497 -3.183686 -0.063101
v -86.343434 53.312061 41.618811
vn 5.418177 -3.181064 -0.051014
v -86.514730 53.003370 42.670346
vn 5.388006 -3.231936 -0.049030
v -87.944112 50.509733 46.528185
vn 5.431572 -3.158099 -0.045507
v -85.972411 53.932137 42.347839
vn 5.315045 -3.349289 -0.037460
v -89.198412 48.464921 45.035756
vn 5.292813 -3.384963 -0.078977
v -89.468199 48.080382 43.485061
vn 5.410858 -3.193490 -0.050014
v -85.867104 53.979551 49.012895
vn 5.431129 -3.158231 -0.082412
v -85.311065 55.010757 45.076540
vn 5.379476 -3.245485 -0.075845
v -88.243064 50.166490 38.728126
vn 5.406392 -3.201266 -0.034553
v -86.767544 52.450848 49.142918
vn 5.433239 -3.154473 -0.087026
v -85.447781 54.795965 44.313260
# 141 vertices, 0 vertices normals

f 1//1 44//44 45//45
f 7//7 8//8 9//9
f 138//138 46//46 47//47
f 48//48 49//49 47//47
f 80//80 50//50 51//51
f 52//52 53//53 54//54
f 55//55 56//56 57//57
f 58//58 59//59 57//57
f 60//60 61//61 62//62
f 14//14 63//63 61//61
f 64//64 65//65 66//66
f 14//14 67//67 68//68
f 69//69 63//63 64//64
f 19//19 8//8 7//7
f 70//70 71//71 72//72
f 73//73 74//74 75//75
f 24//24 74//74 76//76
f 45//45 78//78 79//79
f 77//77 137//137 81//81
f 29//29 82//82 83//83
f 85//85 65//65 68//68
f 17//17 88//88 70//70
f 21//21 31//31 23//23
f 48//48 86//86 87//87
f 140//140 90//90 91//91
f 92//92 93//93 91//91
f 94//94 95//95 96//96
f 60//60 97//97 136//136
f 78//78 89//89 98//98
f 99//99 100//100 98//98
f 4//4 101//101 102//102
f 103//103 34//34 136//136
f 105//105 141//141 106//106
f 107//107 100//100 54//54
f 15//15 51//51 108//108
f 102//102 109//109 110//110
f 13//13 112//112 111//111
f 113//113 67//67 95//95
f 114//114 110//110 115//115
f 116//116 117//117 115//115
f 75//75 117//117 111//111
f 118//118 113//113 119//119
f 120//120 84//84 94//94
f 76//76 121//121 114//114
f 122//122 112//112 90//90
f 109//109 62//62 123//123
f 124//124 36//36 125//125
f 126//126 69//69 59//59
f 86//86 50//50 127//127
f 83//83 125//125 119//119
f 52//52 128//128 118//118
f 93//93 58//58 87//87
f 129//129 99//99 130//130
f 130//130 88//88 131//131
f 132//132 55//55 66//66
f 123//123 126//126 133//133
f 116//116 133//133 92//92
f 85//85 128//128 129//129
f 72//72 106//106 134//134
f 131//131 134//134 132//132
f 44//44 20//20 45//45
f 2//2 45//45 20//20
f 46//46 33//33 47//47
f 48//48 11//11 49//49
f 15//15 80//80 51//51
f 51//51 50//50 5//5
f 42//42 52//52 54//54
f 52//52 139//139 53//53
f 54//54 53//53 16//16
f 3//3 55//55 57//57
f 55//55 32//32 56//56
f 57//57 56//56 11//11
f 11//11 58//58 57//57
f 58//58 40//40 59//59
f 57//57 59//59 3//3
f 135//135 60//60 62//62
f 60//60 18//18 61//61
f 62//62 61//61 39//39
f 18//18 14//14 61//61
f 61//61 63//63 39//39
f 3//3 64//64 66//66
f 64//64 14//14 65//65
f 66//66 65//65 43//43
f 14//14 18//18 67//67
f 68//68 67//67 30//30
f 3//3 69//69 64//64
f 69//69 39//39 63//63
f 64//64 63//63 14//14
f 17//17 70//70 72//72
f 70//70 20//20 71//71
f 72//72 71//71 37//37
f 22//22 73//73 75//75
f 73//73 21//21 74//74
f 75//75 74//74 24//24
f 21//21 23//23 74//74
f 76//76 74//74 23//23
f 26//26 77//77 25//25
f 1//1 45//45 79//79
f 45//45 2//2 78//78
f 79//79 78//78 27//27
f 25//25 77//77 81//81
f 81//81 80//80 28//28
f 82//82 9//9 83//83
f 9//9 82//82 7//7
f 83//83 41//41 84//84
f 83//83 84//84 29//29
f 30//30 85//85 68//68
f 85//85 43//43 65//65
f 68//68 65//65 14//14
f 2//2 70//70 88//88
f 70//70 2//2 20//20
f 11//11 48//48 87//87
f 48//48 5//5 86//86
f 87//87 86//86 6//6
f 2//2 88//88 89//89
f 6//6 140//140 91//91
f 91//91 90//90 13//13
f 13//13 92//92 91//91
f 92//92 40//40 93//93
f 91//91 93//93 6//6
f 34//34 94//94 96//96
f 94//94 41//41 95//95
f 96//96 95//95 18//18
f 18//18 60//60 96//96
f 60//60 135//135 97//97
f 27//27 78//78 98//98
f 78//78 2//2 89//89
f 89//89 99//99 98//98
f 99//99 42//42 100//100
f 98//98 100//100 27//27
f 101//101 35//35 102//102
f 135//135 102//102 35//35
f 36//36 104//104 139//139
f 104//104 16//16 53//53
f 49//49 138//138 47//47
f 56//56 49//49 11//11
f 37//37 105//105 106//106
f 105//105 10//10 138//138
f 16//16 107//107 54//54
f 107//107 27//27 100//100
f 54//54 100//100 42//42
f 51//51 33//33 108//108
f 33//33 51//51 5//5
f 4//4 102//102 110//110
f 110//110 109//109 38//38
f 12//12 111//111 112//112
f 111//111 12//12 22//22
f 41//41 113//113 95//95
f 113//113 30//30 67//67
f 95//95 67//67 18//18
f 24//24 114//114 115//115
f 114//114 4//4 110//110
f 115//115 110//110 38//38
f 38//38 116//116 115//115
f 116//116 13//13 117//117
f 115//115 117//117 24//24
f 22//22 75//75 111//111
f 75//75 24//24 117//117
f 111//111 117//117 13//13
f 118//118 30//30 113//113
f 119//119 113//113 41//41
f 34//34 120//120 94//94
f 120//120 29//29 84//84
f 94//94 84//84 41//41
f 24//24 76//76 114//114
f 76//76 23//23 121//121
f 114//114 121//121 4//4
f 26//26 122//122 90//90
f 122//122 12//12 112//112
f 90//90 112//112 13//13
f 38//38 109//109 123//123
f 109//109 135//135 62//62
f 123//123 62//62 39//39
f 8//8 124//124 9//9
f 125//125 9//9 124//124
f 36//36 139//139 125//125
f 40//40 126//126 59//59
f 126//126 39//39 69//69
f 59//59 69//69 3//3
f 6//6 86//86 127//127
f 86//86 5//5 50//50
f 127//127 50//50 137//137
f 41//41 83//83 119//119
f 83//83 9//9 125//125
f 52//52 42//42 128//128
f 118//118 128//128 30//30
f 26//26 140//140 77//77
f 6//6 93//93 87//87
f 93//93 40//40 58//58
f 87//87 58//58 11//11
f 43//43 129//129 130//130
f 129//129 42//42 99//99
f 130//130 99//99 89//89
f 43//43 130//130 131//131
f 130//130 89//89 88//88
f 131//131 88//88 17//17
f 43//43 132//132 66//66
f 132//132 32//32 55//55
f 66//66 55//55 3//3
f 38//38 123//123 133//133
f 123//123 39//39 126//126
f 133//133 126//126 40//40
f 13//13 116//116 92//92
f 116//116 38//38 133//133
f 92//92 133//133 40//40
f 43//43 85//85 129//129
f 85//85 30//30 128//128
f 129//129 128//128 42//42
f 28//28 80//80 15//15
f 17//17 72//72 134//134
f 72//72 37//37 106//106
f 134//134 106//106 32//32
f 43//43 131//131 132//132
f 131//131 17//17 134//134
f 132//132 134//134 32//32
f 97//97 135//135 35//35
f 102//102 135//135 109//109
f 97//97 35//35 103//103
f 60//60 136//136 96//96
f 103//103 136//136 97//97
f 96//96 136//136 34//34
f 77//77 140//140 127//127
f 137//137 80//80 81//81
f 47//47 33//33 5//5
f 47//47 5//5 48//48
f 127//127 137//137 77//77
f 138//138 10//10 46//46
f 137//137 50//50 80//80
f 119//119 125//125 139//139
f 141//141 138//138 49//49
f 139//139 118//118 119//119
f 139//139 52//52 118//118
f 139//139 104//104 53//53
f 141//141 105//105 138//138
f 140//140 26//26 90//90
f 141//141 49//49 56//56
f 32//32 141//141 56//56
f 106//106 141//141 32//32
f 140//140 6//6 127//127
# 239 faces, 0 coords texture

# End of File
