####
#
# OBJ File Generated by Meshlab
#
####
# Object 852_C147_M_0.obj
#
# Vertices: 141
# Faces: 236
#
####
vn 2.703767 -1.599678 -0.008618
v -90.052900 52.693200 38.000000
vn 2.685935 -1.629418 -0.022450
v -91.304400 50.619700 38.000000
vn 5.414967 -3.185911 -0.069154
v -89.452936 53.558054 46.091655
vn 2.694099 -1.628211 -0.042703
v -91.386500 50.439900 40.756800
vn 2.697756 -1.602690 -0.048908
v -91.365200 50.403100 42.555900
vn 5.466091 -3.096104 -0.114391
v -87.845870 56.437731 43.299089
vn 2.714375 -1.580424 -0.035700
v -88.108500 55.788200 50.000000
vn 2.721159 -1.569946 -0.006301
v -89.064500 54.387100 38.000000
vn 5.446296 -3.131811 -0.081198
v -88.841508 54.746858 42.209119
vn 5.454003 -3.119504 -0.024216
v -88.417431 55.507550 39.941540
vn 2.701181 -1.594101 -0.034913
v -91.358900 50.392300 43.290900
vn 2.754028 -1.509570 -0.042451
v -86.878900 57.960000 50.000000
vn 5.476642 -3.079003 -0.058043
v -87.699664 56.755764 41.432546
vn 2.694475 -1.616029 -0.024346
v -91.350900 50.378400 45.609500
vn 2.677244 -1.623595 -0.024749
v -91.330500 50.343000 49.467900
vn 2.685941 -1.628358 -0.007902
v -91.148800 50.635100 50.000000
vn 5.409442 -3.195679 -0.038938
v -90.856007 51.138643 49.288747
vn 2.742531 -1.532218 -0.018746
v -87.755100 56.690000 38.000000
vn 2.750411 -1.517468 -0.045381
v -86.710000 58.340100 47.793800
vn 5.486034 -3.061733 -0.082544
v -87.498221 56.930938 47.166188
vn 2.751157 -1.512100 -0.024814
v -86.772600 58.448500 40.465800
vn 2.749828 -1.518940 -0.054850
v -86.748300 58.406400 43.561600
vn 2.685980 -1.630111 -0.023019
v -91.399000 50.461700 38.182100
vn 2.695870 -1.618644 -0.030518
v -91.342500 50.363800 47.765600
vn 5.392719 -3.223868 -0.054713
v -90.818194 51.258272 45.980566
vn 1.328075 -0.845055 0.010392
v -91.332500 50.346400 50.000000
vn 1.374885 -0.748584 -0.014069
v -86.785100 58.470100 38.000000
vn 2.764127 -1.502583 -0.046658
v -86.695200 58.314400 49.554100
vn 1.392860 -0.734669 -0.010088
v -86.693500 58.311500 50.000000
vn 5.441376 -3.139901 -0.076609
v -88.430270 55.291856 46.605007
vn 5.407282 -3.198623 -0.080926
v -90.567067 51.772927 41.540830
vn 2.744844 -1.521731 -0.046975
v -86.756200 58.420200 42.749600
vn 2.752531 -1.515951 -0.046528
v -86.725700 58.367200 45.940300
vn 1.345089 -0.819422 -0.012209
v -91.399800 50.463100 38.000000
vn 5.389975 -3.228470 -0.052197
v -90.774491 51.471936 39.547806
vn 5.411180 -3.193232 -0.027479
v -89.205776 53.956547 48.197175
vn 5.430749 -3.159672 -0.036303
v -89.637986 53.394270 40.172007
vn 5.441279 -3.139610 -0.114916
v -88.663145 54.965727 44.497413
vn 5.407111 -3.199929 -0.036792
v -90.257363 52.173882 47.848935
vn 2.702078 -1.602567 -0.014493
v -88.908000 54.445800 50.000000
vn 5.438903 -3.144787 -0.051123
v -88.196833 55.659819 48.569168
vn 2.709197 -1.590532 -0.006847
v -90.081600 52.465100 50.000000
vn 5.504832 -3.028607 -0.036707
v -87.298332 57.494038 39.799419
vn 5.480518 -3.070516 -0.103816
v -87.639380 56.730724 45.153260
vn 5.412850 -3.189778 -0.064383
v -90.591542 51.678561 43.906676
vn 2.689961 -1.622679 -0.025051
v -90.678650 51.656450 38.000000
vn 5.394989 -3.220347 -0.025534
v -90.415494 52.080448 38.818338
vn 5.378228 -3.248124 -0.052512
v -90.973377 51.157048 38.676412
vn 2.693115 -1.616347 -0.064501
v -91.375850 50.421500 41.656350
vn 5.378773 -3.245983 -0.098777
v -90.998171 51.071789 41.123671
vn 5.396625 -3.216196 -0.098928
v -90.972204 51.076625 42.098543
vn 5.434066 -3.154221 -0.006740
v -89.311865 53.959295 39.035978
vn 5.451343 -3.124168 -0.014089
v -88.725685 54.973931 39.000331
vn 5.439864 -3.144143 -0.018539
v -89.000596 54.497887 40.052583
vn 5.447682 -3.130479 -0.030589
v -88.640340 55.109775 40.997418
vn 5.444613 -3.135636 -0.046269
v -89.214413 54.115337 41.166714
vn 2.713488 -1.583208 -0.006098
v -89.558700 53.540150 38.000000
vn 5.417757 -3.182126 -0.007393
v -89.861196 53.017856 38.975519
vn 5.450921 -3.124061 -0.064585
v -88.238335 55.808325 41.784952
vn 5.460117 -3.108813 -0.026782
v -88.087370 56.079844 40.761003
vn 5.469996 -3.090785 -0.066853
v -87.693627 56.542269 48.874686
vn 5.487816 -3.058439 -0.084174
v -87.129399 57.538849 49.108673
vn 2.734715 -1.545930 -0.032177
v -87.493700 56.874100 50.000000
vn 5.500857 -3.034889 -0.091831
v -87.041780 57.739187 47.779184
vn 5.485141 -3.063237 -0.083583
v -87.374153 57.125995 48.124524
vn 2.745787 -1.526042 -0.038101
v -86.764400 58.434350 41.607700
vn 5.493895 -3.047636 -0.085360
v -87.251667 57.546355 42.073432
vn 5.499788 -3.037704 -0.044118
v -87.225095 57.622371 40.912539
vn 5.452888 -3.119400 -0.117314
v -88.148799 55.852310 44.831122
vn 5.462661 -3.102747 -0.099698
v -88.046492 55.991308 45.862530
vn 5.439183 -3.143202 -0.114505
v -88.550909 55.120904 45.559458
vn 2.687944 -1.625987 -0.026979
v -91.392750 50.450800 39.469450
vn 5.374341 -3.254423 -0.059887
v -91.042705 51.016336 40.241071
vn 2.690793 -1.621029 -0.038775
v -91.336500 50.353400 48.616750
vn 5.387777 -3.231716 -0.077990
v -91.042313 50.843366 48.548301
vn 5.390222 -3.227983 -0.058379
v -90.779649 51.303161 47.761361
vn 5.410018 -3.194564 -0.048419
v -90.578855 51.617475 48.584928
vn 2.758498 -1.503142 -0.029261
v -87.270100 57.580050 38.000000
vn 5.517953 -3.004569 -0.056266
v -87.153839 57.777453 38.819555
vn 5.492690 -3.050298 -0.036527
v -87.592928 56.970262 38.891242
vn 5.469789 -3.091707 -0.031468
v -87.878009 56.458818 39.812438
vn 5.463674 -3.102573 -0.026729
v -88.132095 56.018379 38.947960
vn 5.487734 -3.058695 -0.081155
v -87.571843 56.824962 46.173888
vn 5.472276 -3.086582 -0.074877
v -87.955140 56.127376 46.872303
vn 5.446150 -3.131149 -0.116916
v -88.289362 55.684576 42.813094
vn 5.450278 -3.123843 -0.120164
v -88.239126 55.731159 43.828148
vn 5.441805 -3.138402 -0.124198
v -88.752876 54.852480 43.419114
vn 5.396854 -3.217192 -0.041882
v -90.477155 51.816463 46.933026
vn 5.409301 -3.196202 -0.044396
v -89.900183 52.790482 46.891738
vn 5.409147 -3.195925 -0.074703
v -90.984208 51.034114 43.074105
vn 5.418244 -3.180483 -0.072320
v -90.537486 51.799061 42.668173
vn 2.702789 -1.601373 -0.011836
v -89.494800 53.455450 50.000000
vn 5.409258 -3.196556 -0.016706
v -89.620196 53.250815 49.046660
vn 5.406487 -3.201207 -0.024346
v -89.076590 54.167698 49.142376
vn 5.405199 -3.203018 -0.052516
v -91.034774 50.931370 43.873189
vn 2.730975 -1.552798 -0.014059
v -88.409800 55.538550 38.000000
vn 2.750235 -1.517804 -0.045618
v -86.717850 58.353650 46.867050
vn 5.501480 -3.033868 -0.088089
v -87.127869 57.620919 46.529183
vn 5.423779 -3.170914 -0.079296
v -90.113229 52.509573 43.380857
vn 5.420724 -3.176116 -0.070523
v -88.938903 54.429282 46.357113
vn 5.428372 -3.162379 -0.102442
v -89.065115 54.249661 45.284480
vn 5.494903 -3.045035 -0.109991
v -87.316746 57.391049 43.247064
vn 2.691777 -1.619722 -0.021069
v -91.346700 50.371100 46.687550
vn 5.387136 -3.233534 -0.037445
v -90.957004 51.015442 46.954748
vn 2.751227 -1.515990 -0.046154
v -86.702600 58.327250 48.673950
vn 5.420308 -3.177782 -0.012520
v -90.125118 52.394855 48.830962
vn 5.428534 -3.163748 -0.011314
v -90.451802 51.832116 49.357136
vn 2.759603 -1.501152 -0.027174
v -86.778850 58.459300 39.232900
vn 5.504522 -3.028163 -0.093845
v -87.169589 57.574231 45.496169
vn 5.451643 -3.122804 -0.074839
v -89.395999 53.780167 42.209052
vn 5.439840 -3.143612 -0.061300
v -89.718449 53.230597 41.465918
vn 2.753061 -1.512498 -0.051082
v -86.737000 58.386800 44.750950
vn 5.501319 -3.033315 -0.112710
v -87.214946 57.528818 44.396261
vn 2.700032 -1.605935 -0.020054
v -91.354900 50.385350 44.450200
vn 5.406881 -3.200469 -0.031833
v -88.571269 55.020665 49.256014
vn 2.701233 -1.603846 -0.024700
v -88.508250 55.117000 50.000000
vn 5.470550 -3.089649 -0.074548
v -87.849721 56.291484 47.857802
vn 5.440287 -3.142338 -0.058011
v -88.319706 55.464669 47.603741
vn 5.473929 -3.081854 -0.120985
v -87.722593 56.622085 44.142714
vn 5.413379 -3.189540 -0.021228
v -89.733075 53.062519 48.019206
vn 5.408903 -3.197004 -0.035205
v -88.694987 54.818742 48.360931
vn 5.469700 -3.090015 -0.099660
v -87.766025 56.606131 42.442901
vn 2.714009 -1.582322 -0.003937
v -90.615200 51.550100 50.000000
vn 5.414354 -3.187407 -0.042187
v -90.237249 52.381459 39.797918
vn 5.424253 -3.170224 -0.073525
v -90.143851 52.512169 40.885405
vn 5.398201 -3.214050 -0.076016
v -90.627894 51.696472 40.500067
vn 5.485388 -3.063576 -0.031164
v -87.619088 56.906705 40.532553
vn 5.420083 -3.176866 -0.090156
v -89.573038 53.385808 44.966289
vn 5.433761 -3.152867 -0.109020
v -89.170835 54.100885 44.197675
vn 5.415171 -3.186417 -0.032664
v -89.334335 53.747906 47.175051
vn 5.413095 -3.189860 -0.038935
v -88.817084 54.625897 47.388329
vn 5.441806 -3.138893 -0.110362
v -89.260981 53.986669 43.140242
vn 5.399131 -3.213257 -0.051989
v -90.912270 51.124188 44.831991
vn 5.405991 -3.201496 -0.061357
v -90.261568 52.191373 46.169644
vn 5.440448 -3.142278 -0.054952
v -88.071032 55.864716 49.461464
vn 5.407477 -3.198748 -0.074659
v -89.937462 52.751487 45.657621
vn 5.407277 -3.199229 -0.068047
v -90.422163 51.943795 45.149495
vn 5.426776 -3.165251 -0.095209
v -89.677085 53.240317 43.847766
vn 5.415188 -3.185628 -0.076379
v -90.080485 52.539027 44.473204
vn 5.428546 -3.162981 -0.069425
v -90.087846 52.582745 42.157205
vn 5.438998 -3.144602 -0.082688
v -89.702960 53.232592 42.631521
# 141 vertices, 0 vertices normals

f 46//46 47//47 48//48
f 49//49 50//50 51//51
f 52//52 53//53 54//54
f 55//55 56//56 54//54
f 57//57 52//52 58//58
f 59//59 55//55 60//60
f 61//61 62//62 63//63
f 16//16 15//15 17//17
f 66//66 67//67 68//68
f 69//69 70//70 71//71
f 72//72 48//48 35//35
f 74//74 24//24 75//75
f 76//76 77//77 75//75
f 16//16 26//26 15//15
f 78//78 79//79 80//80
f 80//80 81//81 82//82
f 12//12 28//28 29//29
f 83//83 84//84 70//70
f 85//85 86//86 87//87
f 90//90 51//51 91//91
f 92//92 93//93 94//94
f 45//45 95//95 90//90
f 96//96 82//82 53//53
f 97//97 64//64 98//98
f 71//71 100//100 101//101
f 103//103 25//25 104//104
f 65//65 105//105 62//62
f 77//77 106//106 107//107
f 79//79 108//108 43//43
f 83//83 109//109 98//98
f 110//110 111//111 56//56
f 112//112 109//109 113//113
f 34//34 2//2 23//23
f 114//114 95//95 133//133
f 115//115 135//135 116//116
f 117//117 118//118 84//84
f 61//61 117//117 65//65
f 69//69 86//86 119//119
f 120//120 93//93 106//106
f 115//115 94//94 121//121
f 122//122 67//67 102//102
f 42//42 123//123 107//107
f 124//124 125//125 126//126
f 124//124 47//47 58//58
f 102//102 113//113 119//119
f 127//127 60//60 81//81
f 43//43 21//21 68//68
f 85//85 59//59 122//122
f 128//128 129//129 101//101
f 120//120 89//89 130//130
f 131//131 118//118 121//121
f 131//131 130//130 100//100
f 50//50 73//73 126//126
f 129//129 132//132 87//87
f 140//140 125//125 111//111
f 88//88 76//76 104//104
f 141//141 110//110 132//132
f 2//2 46//46 48//48
f 46//46 1//1 47//47
f 5//5 49//49 51//51
f 49//49 4//4 50//50
f 51//51 50//50 31//31
f 37//37 52//52 54//54
f 52//52 8//8 53//53
f 54//54 53//53 10//10
f 10//10 55//55 54//54
f 55//55 9//9 56//56
f 54//54 56//56 37//37
f 1//1 57//57 58//58
f 57//57 8//8 52//52
f 58//58 52//52 37//37
f 13//13 59//59 60//60
f 59//59 9//9 55//55
f 60//60 55//55 10//10
f 63//63 62//62 12//12
f 64//64 105//105 65//65
f 64//64 65//65 20//20
f 21//21 66//66 68//68
f 66//66 32//32 67//67
f 68//68 67//67 13//13
f 38//38 69//69 71//71
f 69//69 44//44 70//70
f 71//71 70//70 30//30
f 4//4 72//72 73//73
f 72//72 23//23 48//48
f 73//73 72//72 35//35
f 15//15 74//74 75//75
f 75//75 17//17 15//15
f 24//24 76//76 75//75
f 76//76 39//39 77//77
f 75//75 77//77 17//17
f 18//18 78//78 80//80
f 78//78 27//27 79//79
f 80//80 79//79 43//43
f 18//18 80//80 82//82
f 80//80 43//43 81//81
f 82//82 81//81 10//10
f 44//44 83//83 70//70
f 83//83 20//20 84//84
f 70//70 84//84 30//30
f 61//61 63//63 135//135
f 61//61 135//135 41//41
f 9//9 85//85 87//87
f 85//85 6//6 86//86
f 87//87 86//86 38//38
f 39//39 88//88 89//89
f 88//88 25//25 134//134
f 45//45 90//90 91//91
f 90//90 5//5 51//51
f 91//91 51//51 31//31
f 40//40 92//92 94//94
f 92//92 42//42 93//93
f 94//94 93//93 36//36
f 11//11 90//90 95//95
f 90//90 11//11 5//5
f 8//8 96//96 53//53
f 96//96 18//18 82//82
f 53//53 82//82 10//10
f 33//33 97//97 98//98
f 97//97 19//19 64//64
f 98//98 64//64 20//20
f 141//141 99//99 140//140
f 38//38 71//71 101//101
f 71//71 30//30 100//100
f 101//101 100//100 3//3
f 48//48 23//23 2//2
f 32//32 22//22 102//102
f 24//24 103//103 104//104
f 103//103 14//14 25//25
f 64//64 19//19 105//105
f 62//62 105//105 28//28
f 62//62 28//28 12//12
f 17//17 77//77 107//107
f 77//77 39//39 106//106
f 107//107 106//106 42//42
f 79//79 27//27 108//108
f 43//43 108//108 21//21
f 20//20 83//83 98//98
f 83//83 44//44 109//109
f 98//98 109//109 33//33
f 9//9 110//110 56//56
f 56//56 111//111 37//37
f 22//22 112//112 113//113
f 112//112 33//33 109//109
f 113//113 109//109 44//44
f 14//14 114//114 133//133
f 114//114 11//11 95//95
f 133//133 95//95 45//45
f 40//40 115//115 116//116
f 115//115 41//41 135//135
f 116//116 135//135 7//7
f 20//20 117//117 84//84
f 117//117 41//41 118//118
f 84//84 118//118 30//30
f 62//62 61//61 65//65
f 61//61 41//41 117//117
f 65//65 117//117 20//20
f 44//44 69//69 119//119
f 69//69 38//38 86//86
f 119//119 86//86 6//6
f 39//39 120//120 106//106
f 120//120 36//36 93//93
f 106//106 93//93 42//42
f 41//41 115//115 121//121
f 115//115 40//40 94//94
f 121//121 94//94 36//36
f 6//6 122//122 102//102
f 122//122 13//13 67//67
f 102//102 67//67 32//32
f 123//123 17//17 107//107
f 17//17 123//123 16//16
f 35//35 124//124 126//126
f 124//124 37//37 125//125
f 126//126 125//125 31//31
f 37//37 124//124 58//58
f 124//124 35//35 47//47
f 58//58 47//47 1//1
f 6//6 102//102 119//119
f 102//102 22//22 113//113
f 119//119 113//113 44//44
f 43//43 127//127 81//81
f 127//127 13//13 60//60
f 81//81 60//60 10//10
f 127//127 68//68 13//13
f 6//6 85//85 122//122
f 85//85 9//9 59//59
f 122//122 59//59 13//13
f 3//3 128//128 101//101
f 128//128 138//138 129//129
f 101//101 129//129 38//38
f 36//36 120//120 130//130
f 120//120 39//39 89//89
f 130//130 89//89 3//3
f 36//36 131//131 121//121
f 131//131 30//30 118//118
f 121//121 118//118 41//41
f 30//30 131//131 100//100
f 131//131 36//36 130//130
f 100//100 130//130 3//3
f 31//31 50//50 126//126
f 50//50 4//4 73//73
f 126//126 73//73 35//35
f 38//38 129//129 87//87
f 129//129 138//138 132//132
f 87//87 132//132 9//9
f 140//140 31//31 125//125
f 111//111 125//125 37//37
f 31//31 140//140 91//91
f 91//91 99//99 45//45
f 25//25 88//88 104//104
f 88//88 39//39 76//76
f 104//104 76//76 24//24
f 133//133 45//45 137//137
f 133//133 137//137 25//25
f 133//133 25//25 14//14
f 138//138 141//141 132//132
f 132//132 110//110 9//9
f 136//136 137//137 139//139
f 3//3 136//136 128//128
f 128//128 139//139 138//138
f 136//136 134//134 137//137
f 137//137 45//45 139//139
f 48//48 47//47 35//35
f 88//88 134//134 89//89
f 7//7 135//135 63//63
f 134//134 25//25 137//137
f 89//89 136//136 3//3
f 136//136 89//89 134//134
f 138//138 99//99 141//141
f 99//99 138//138 139//139
f 139//139 45//45 99//99
f 136//136 139//139 128//128
f 140//140 99//99 91//91
f 43//43 68//68 127//127
f 110//110 141//141 111//111
f 141//141 140//140 111//111
# 236 faces, 0 coords texture

# End of File
