####
#
# OBJ File Generated by Meshlab
#
####
# Object 853_C147_M_1.obj
#
# Vertices: 145
# Faces: 248
#
####
vn 2.842664 -1.332866 0.048478
v -65.548600 92.000000 48.089000
vn 5.667194 -2.709879 0.118490
v -64.770881 93.693458 48.807642
vn 5.636931 -2.774271 0.074110
v -64.092747 94.974056 46.041041
vn 2.806517 -1.399624 0.019870
v -65.493000 92.000000 40.474800
vn 2.813513 -1.396527 0.051072
v -64.101100 95.100100 50.000000
vn 5.583514 -2.879477 0.100619
v -63.245572 96.657495 46.395471
vn 5.571287 -2.903981 0.050294
v -63.259076 96.608808 45.343659
vn 2.790602 -1.439905 0.059111
v -63.114700 97.073600 50.000000
vn 5.659419 -2.728133 0.052021
v -64.585433 93.903201 43.075340
vn 5.668890 -2.708409 0.066128
v -64.747955 93.602990 44.986247
vn 5.564982 -2.913949 0.134510
v -63.084170 96.735256 39.605313
vn 5.502809 -3.024585 0.143319
v -62.340714 98.246394 41.208265
vn 2.816112 -1.378520 0.005069
v -65.494600 92.000000 40.913300
vn 2.837400 -1.346347 0.044409
v -64.850200 93.573600 50.000000
vn 2.857461 -1.334644 0.016723
v -65.469500 92.000000 43.365300
vn 1.416111 -0.695115 0.021737
v -65.454400 92.000000 38.000000
vn 2.778962 -1.463891 0.072605
v -62.922100 96.969600 38.000000
vn 1.424745 -0.650714 0.015135
v -65.568900 92.000000 50.000000
vn 2.801318 -1.421403 0.053591
v -64.328000 94.296000 38.000000
vn 2.766185 -1.509688 0.014901
v -61.535400 100.000000 49.734600
vn 1.375463 -0.753323 -0.007256
v -61.534000 100.000000 50.000000
vn 2.730041 -1.553608 0.062108
v -61.883600 98.909800 38.000000
vn 1.337818 -0.799080 0.031521
v -61.232200 100.000000 38.000000
vn 5.581495 -2.882689 0.119349
v -63.359664 96.264336 41.166937
vn 2.707019 -1.584304 0.071403
v -61.283100 100.000000 40.142600
vn 5.497621 -3.037202 0.134387
v -62.184086 98.409234 39.013820
vn 5.539353 -2.958318 0.161397
v -62.357691 98.408303 46.988874
vn 5.487223 -3.058679 0.074393
v -61.944699 99.018962 43.309091
vn 5.624974 -2.798481 0.066269
v -63.935608 95.253170 44.233254
vn 2.752398 -1.547815 0.062035
v -61.391400 100.000000 43.177100
vn 5.567299 -2.909290 0.083159
v -63.029271 97.021489 43.246739
vn 5.524027 -2.992041 0.085178
v -62.512429 97.997921 45.109904
vn 2.767884 -1.517530 0.086789
v -61.499100 100.000000 47.375600
vn 2.723738 -1.518435 0.069662
v -61.402600 100.000000 45.439400
vn 2.836671 -1.344542 0.041943
v -65.515300 92.000500 45.689900
vn 2.775453 -1.468699 0.086136
v -63.916900 95.064400 38.000000
vn 5.624144 -2.798818 0.111191
v -64.004517 95.222461 48.031186
vn 5.592596 -2.860970 0.118794
v -63.180783 96.872171 48.423916
vn 2.761998 -1.496707 0.020354
v -61.957800 99.226200 50.000000
vn 5.562102 -2.919667 0.124320
v -63.817897 95.304402 38.886795
vn 5.535477 -2.971089 0.074241
v -62.199186 98.764558 48.910629
vn 5.665129 -2.715599 0.095830
v -64.773016 93.590186 46.955742
vn 5.616549 -2.814873 0.073577
v -64.250533 94.545667 41.294427
vn 5.604913 -2.838723 0.069405
v -63.687164 95.779413 45.968440
vn 2.834295 -1.354566 0.039058
v -65.531950 92.000250 46.889450
vn 5.672249 -2.701715 0.067538
v -65.147789 92.789595 46.387463
vn 5.676537 -2.691124 0.108902
v -65.142637 92.830664 47.437933
vn 5.619698 -2.808241 0.104947
v -63.956977 95.354615 49.099824
vn 5.609318 -2.828587 0.113367
v -63.606925 96.018386 48.205241
vn 5.614152 -2.818972 0.113429
v -63.558597 96.145099 49.075364
vn 5.637158 -2.773297 0.095884
v -64.421905 94.427974 49.364521
vn 2.820076 -1.383897 0.040064
v -64.475650 94.336850 50.000000
vn 5.701788 -2.637909 0.090046
v -65.174069 92.840721 49.038306
vn 5.687109 -2.667951 0.130758
v -65.082338 93.002925 48.273273
vn 5.634263 -2.779785 0.077726
v -64.597420 93.773213 38.855834
vn 5.639750 -2.768419 0.086557
v -65.098430 92.753526 38.905962
vn 2.820199 -1.383568 0.042658
v -64.891200 93.148000 38.000000
vn 2.857298 -1.305544 0.031712
v -65.209550 92.786800 50.000000
vn 2.856888 -1.306463 0.030825
v -65.558750 92.000000 49.044500
vn 5.418941 -3.178081 0.101061
v -61.608088 99.410689 39.014010
vn 2.696936 -1.609979 0.064069
v -61.257650 100.000000 39.071300
vn 2.768531 -1.484734 0.020068
v -62.536250 98.149900 50.000000
vn 5.544013 -2.955775 0.064555
v -62.457070 98.291158 49.459904
vn 5.423250 -3.168233 0.170503
v -61.800600 99.142110 40.640610
vn 5.487137 -3.053720 0.167067
v -62.263279 98.321482 40.102850
vn 5.429658 -3.158906 0.126562
v -61.817551 99.066915 39.793528
vn 5.431639 -3.154610 0.153984
v -61.782057 99.225668 41.607655
vn 5.453878 -3.115150 0.163296
v -61.710396 99.387207 42.507834
vn 5.477507 -3.075312 0.098616
v -62.153532 98.615133 42.336927
vn 2.711137 -1.582429 0.088217
v -61.309250 100.000000 40.958300
vn 5.631125 -2.786363 0.068551
v -64.226351 94.623445 42.884191
vn 5.620479 -2.807372 0.081451
v -63.895159 95.306050 43.286396
vn 5.639112 -2.770210 0.064700
v -64.279806 94.540041 43.699063
vn 5.562691 -2.918250 0.136525
v -63.019500 96.818799 38.757680
vn 5.547310 -2.946460 0.152249
v -62.628627 97.556576 38.651715
vn 5.554630 -2.932708 0.153430
v -62.644849 97.561314 39.426112
vn 5.570124 -2.903110 0.149569
v -62.725375 97.461653 40.336308
vn 5.513747 -3.011892 0.072916
v -61.826505 99.450699 49.106546
vn 5.601469 -2.843782 0.116729
v -63.505597 96.063004 42.782388
vn 5.607237 -2.834039 0.073447
v -63.508872 96.086231 43.776687
vn 5.674927 -2.695394 0.058120
v -64.686315 93.713147 44.009899
vn 5.647040 -2.754287 0.055946
v -64.340880 94.430289 44.631983
vn 5.604823 -2.839205 0.056012
v -63.595289 95.938360 44.785065
vn 5.629384 -2.789784 0.059547
v -64.002795 95.138595 45.203205
vn 2.755309 -1.508667 0.042398
v -61.517250 100.000000 48.555100
vn 5.515197 -3.008681 0.093257
v -61.876015 99.334264 48.180936
vn 2.768809 -1.481713 0.088482
v -62.402850 97.939700 38.000000
vn 2.747429 -1.517433 0.136505
v -61.450850 100.000000 46.407500
vn 5.507786 -3.016653 0.186283
v -61.906164 99.245370 47.187418
vn 5.485708 -3.053677 0.243669
v -61.911292 99.150104 46.224083
vn 2.842686 -1.336261 0.056106
v -65.492400 92.000250 44.527600
vn 5.694639 -2.653408 0.089486
v -65.093127 92.838204 44.252137
vn 5.680929 -2.682800 0.085002
v -65.135558 92.792433 45.319298
vn 5.700922 -2.641129 0.032262
v -64.986732 93.043098 43.263148
vn 5.631657 -2.783849 0.093368
v -64.037274 95.116272 46.873761
vn 5.602990 -2.841373 0.105128
v -63.631417 95.923760 47.163525
vn 5.582400 -2.879661 0.150077
v -62.806406 97.522468 46.754791
vn 5.578870 -2.888158 0.109690
v -62.761652 97.655794 47.724471
vn 5.596505 -2.853297 0.126024
v -63.209498 96.771102 47.458648
vn 2.737442 -1.541373 0.013552
v -61.397000 100.000000 44.308250
vn 5.484529 -3.065550 0.016040
v -61.718739 99.428554 44.303012
vn 5.528011 -2.978292 0.193909
v -62.412136 98.243940 46.040816
vn 5.485913 -3.059420 0.109865
v -62.005882 98.912659 45.244410
vn 5.615914 -2.816273 0.086976
v -64.338043 94.315516 39.612400
vn 5.563190 -2.917323 0.135933
v -63.476962 95.954345 38.959441
vn 5.569580 -2.905910 0.109415
v -63.545800 95.877872 40.099084
vn 2.721853 -1.560742 0.089039
v -61.349400 100.000000 42.124775
vn 5.650724 -2.746643 0.060302
v -64.393140 94.345698 45.572276
vn 5.506232 -3.026297 0.020338
v -62.222439 98.520786 44.247225
vn 5.528749 -2.984949 0.028428
v -62.718518 97.608952 44.204255
vn 5.520059 -3.000730 0.051678
v -62.456644 98.078516 43.262131
vn 5.558411 -2.926449 0.114651
v -62.854765 97.373554 45.795296
vn 5.537097 -2.969438 0.032091
v -62.906479 97.261990 44.985200
vn 5.665923 -2.711533 0.146369
v -64.757990 93.672137 47.883095
vn 5.639481 -2.767107 0.126349
v -64.385640 94.466520 48.398738
vn 5.652930 -2.739800 0.122798
v -64.393626 94.394918 47.435559
vn 5.657027 -2.733257 0.072860
v -64.407339 94.334749 46.497837
vn 5.664771 -2.717528 0.054947
v -64.773461 93.569992 45.977267
vn 2.808615 -1.406348 0.058892
v -63.607900 96.086850 50.000000
vn 5.593166 -2.859078 0.131372
v -63.169621 96.932808 49.292958
vn 5.672261 -2.701588 0.022502
v -64.838364 93.365758 42.322913
vn 5.645413 -2.757601 0.057699
v -64.685028 93.659994 41.405637
vn 5.636904 -2.774859 0.058089
v -64.425508 94.209326 42.187271
vn 2.835659 -1.351999 -0.027181
v -65.482050 92.000000 42.139300
vn 5.660542 -2.726614 -0.000109
v -65.137218 92.733933 41.541044
vn 5.688938 -2.666780 -0.032411
v -65.188963 92.608289 42.507468
vn 5.637591 -2.773129 0.074373
v -65.196313 92.587574 39.957746
vn 2.819532 -1.384887 0.043943
v -65.473700 92.000000 39.237400
vn 5.563637 -2.917663 0.105286
v -62.698350 97.806729 48.740763
vn 5.570903 -2.904475 0.039232
v -63.173139 96.761703 44.358760
vn 5.544651 -2.953679 0.091232
v -62.301985 98.542516 47.950483
vn 5.552432 -2.937468 0.111906
v -62.673311 97.657494 42.229541
vn 5.590179 -2.864258 0.155492
v -63.165814 96.693795 42.112809
vn 5.588494 -2.868237 0.141044
v -63.563952 95.901714 41.901020
vn 2.782436 -1.456786 0.073628
v -63.419500 96.017000 38.000000
vn 5.574082 -2.897387 0.110530
v -63.148504 96.643285 40.431205
vn 5.594205 -2.858176 0.093278
v -64.059490 94.897195 40.310607
vn 5.634359 -2.779567 0.076209
v -64.526328 93.965673 40.525363
vn 5.607090 -2.833257 0.093315
v -63.955993 95.155108 42.215598
vn 5.579174 -2.888237 0.091519
v -63.802156 95.409433 41.177877
vn 5.585385 -2.874204 0.143145
v -62.892658 97.175452 41.238576
vn 5.640990 -2.766705 0.053467
v -65.020393 92.960916 40.657383
vn 5.549349 -2.944400 0.102967
v -62.805015 97.640724 49.517635
vn 5.636403 -2.775426 0.078947
v -64.820075 93.345608 39.706976
vn 5.576437 -2.891065 0.090702
v -64.143576 94.684017 38.735455
# 145 vertices, 0 vertices normals

f 45//45 46//46 47//47
f 48//48 49//49 50//50
f 5//5 52//52 51//51
f 1//1 54//54 53//53
f 55//55 56//56 57//57
f 58//58 59//59 53//53
f 39//39 20//20 21//21
f 25//25 60//60 61//61
f 62//62 8//8 143//143
f 64//64 65//65 66//66
f 67//67 68//68 69//69
f 67//67 64//64 70//70
f 71//71 72//72 73//73
f 74//74 75//75 76//76
f 65//65 77//77 76//76
f 20//20 39//39 78//78
f 79//79 80//80 72//72
f 81//81 73//73 82//82
f 83//83 44//44 84//84
f 85//85 78//78 86//86
f 87//87 26//26 75//75
f 88//88 89//89 90//90
f 91//91 92//92 93//93
f 94//94 81//81 92//92
f 95//95 44//44 96//96
f 97//97 98//98 99//99
f 100//100 34//34 101//101
f 90//90 102//102 103//103
f 104//104 55//55 145//145
f 60//60 66//66 26//26
f 137//137 105//105 106//106
f 108//108 82//82 84//84
f 101//101 103//103 109//109
f 110//110 111//111 109//109
f 112//112 6//6 7//7
f 114//114 54//54 47//47
f 51//51 115//115 48//48
f 116//116 117//117 95//95
f 118//118 108//108 117//117
f 119//119 50//50 120//120
f 121//121 122//122 123//123
f 124//124 125//125 126//126
f 127//127 128//128 56//56
f 63//63 143//143 129//129
f 130//130 110//110 113//113
f 80//80 130//130 83//83
f 131//131 129//129 98//98
f 131//131 89//89 86//86
f 111//111 132//132 69//69
f 133//133 79//79 134//134
f 49//49 96//96 99//99
f 105//105 135//135 74//74
f 97//97 112//112 102//102
f 104//104 137//137 138//138
f 46//46 93//93 118//118
f 134//134 139//139 140//140
f 114//114 116//116 115//115
f 126//126 121//121 94//94
f 136//136 77//77 141//141
f 141//141 132//132 133//133
f 139//139 71//71 123//123
f 13//13 142//142 125//125
f 140//140 137//137 106//106
f 138//138 122//122 142//142
f 6//6 44//44 7//7
f 1//1 45//45 47//47
f 45//45 35//35 46//46
f 47//47 46//46 42//42
f 48//48 37//37 49//49
f 50//50 49//49 38//38
f 14//14 51//51 52//52
f 51//51 14//14 2//2
f 2//2 53//53 54//54
f 53//53 2//2 14//14
f 19//19 55//55 57//57
f 14//14 58//58 53//53
f 58//58 18//18 59//59
f 53//53 59//59 1//1
f 60//60 23//23 61//61
f 23//23 60//60 22//22
f 39//39 62//62 63//63
f 25//25 64//64 66//66
f 64//64 12//12 65//65
f 66//66 65//65 26//26
f 12//12 67//67 69//69
f 67//67 107//107 68//68
f 69//69 68//68 28//28
f 107//107 67//67 70//70
f 67//67 12//12 64//64
f 70//70 64//64 25//25
f 9//9 71//71 73//73
f 71//71 139//139 72//72
f 73//73 72//72 29//29
f 11//11 74//74 76//76
f 74//74 17//17 75//75
f 76//76 75//75 26//26
f 26//26 65//65 76//76
f 65//65 12//12 77//77
f 76//76 77//77 11//11
f 78//78 39//39 41//41
f 139//139 79//79 72//72
f 79//79 31//31 80//80
f 72//72 80//80 29//29
f 10//10 81//81 82//82
f 81//81 9//9 73//73
f 82//82 73//73 29//29
f 29//29 83//83 84//84
f 83//83 7//7 44//44
f 84//84 44//44 3//3
f 33//33 85//85 86//86
f 85//85 20//20 78//78
f 86//86 78//78 41//41
f 17//17 87//87 75//75
f 87//87 22//22 26//26
f 34//34 88//88 90//90
f 88//88 33//33 89//89
f 90//90 89//89 27//27
f 35//35 91//91 93//93
f 91//91 15//15 92//92
f 93//93 92//92 10//10
f 15//15 94//94 92//92
f 94//94 9//9 81//81
f 92//92 81//81 10//10
f 37//37 95//95 96//96
f 95//95 3//3 44//44
f 96//96 44//44 6//6
f 6//6 97//97 99//99
f 97//97 27//27 98//98
f 99//99 98//98 38//38
f 30//30 101//101 28//28
f 101//101 30//30 100//100
f 34//34 90//90 103//103
f 90//90 27//27 102//102
f 103//103 102//102 32//32
f 40//40 104//104 145//145
f 104//104 144//144 55//55
f 145//145 55//55 19//19
f 22//22 60//60 26//26
f 60//60 25//25 66//66
f 40//40 145//145 36//36
f 106//106 105//105 11//11
f 107//107 30//30 68//68
f 28//28 68//68 30//30
f 3//3 108//108 84//84
f 108//108 10//10 82//82
f 84//84 82//82 29//29
f 28//28 101//101 109//109
f 101//101 34//34 103//103
f 109//109 103//103 32//32
f 32//32 110//110 109//109
f 110//110 31//31 111//111
f 109//109 111//111 28//28
f 32//32 112//112 113//113
f 113//113 112//112 7//7
f 42//42 114//114 47//47
f 114//114 2//2 54//54
f 47//47 54//54 1//1
f 5//5 51//51 48//48
f 51//51 2//2 115//115
f 48//48 115//115 37//37
f 37//37 116//116 95//95
f 116//116 42//42 117//117
f 95//95 117//117 3//3
f 42//42 118//118 117//117
f 118//118 10//10 108//108
f 117//117 108//108 3//3
f 8//8 119//119 120//120
f 119//119 5//5 48//48
f 120//120 50//50 38//38
f 9//9 121//121 123//123
f 121//121 125//125 122//122
f 123//123 122//122 43//43
f 15//15 124//124 126//126
f 124//124 13//13 125//125
f 127//127 4//4 128//128
f 41//41 63//63 129//129
f 129//129 120//120 38//38
f 7//7 130//130 113//113
f 130//130 31//31 110//110
f 113//113 110//110 32//32
f 29//29 80//80 83//83
f 80//80 31//31 130//130
f 83//83 130//130 7//7
f 27//27 131//131 98//98
f 131//131 41//41 129//129
f 98//98 129//129 38//38
f 41//41 131//131 86//86
f 131//131 27//27 89//89
f 86//86 89//89 33//33
f 28//28 111//111 69//69
f 111//111 31//31 132//132
f 69//69 132//132 12//12
f 24//24 133//133 134//134
f 133//133 31//31 79//79
f 134//134 79//79 139//139
f 38//38 49//49 99//99
f 49//49 37//37 96//96
f 99//99 96//96 6//6
f 11//11 105//105 74//74
f 105//105 40//40 135//135
f 74//74 135//135 17//17
f 106//106 11//11 136//136
f 106//106 136//136 24//24
f 19//19 36//36 145//145
f 27//27 97//97 102//102
f 97//97 6//6 112//112
f 102//102 112//112 32//32
f 13//13 4//4 127//127
f 144//144 104//104 138//138
f 104//104 40//40 137//137
f 138//138 137//137 43//43
f 42//42 46//46 118//118
f 46//46 35//35 93//93
f 118//118 93//93 10//10
f 24//24 134//134 140//140
f 140//140 139//139 43//43
f 2//2 114//114 115//115
f 114//114 42//42 116//116
f 115//115 116//116 37//37
f 15//15 126//126 94//94
f 126//126 125//125 121//121
f 94//94 121//121 9//9
f 24//24 136//136 141//141
f 136//136 11//11 77//77
f 141//141 77//77 12//12
f 24//24 141//141 133//133
f 141//141 12//12 132//132
f 133//133 132//132 31//31
f 43//43 139//139 123//123
f 123//123 71//71 9//9
f 142//142 13//13 127//127
f 127//127 144//144 142//142
f 24//24 140//140 106//106
f 140//140 43//43 137//137
f 105//105 137//137 40//40
f 144//144 138//138 142//142
f 138//138 43//43 122//122
f 142//142 122//122 125//125
f 63//63 41//41 39//39
f 62//62 143//143 63//63
f 143//143 120//120 129//129
f 120//120 143//143 8//8
f 57//57 56//56 16//16
f 56//56 128//128 16//16
f 55//55 144//144 56//56
f 144//144 127//127 56//56
f 119//119 48//48 50//50
f 40//40 36//36 135//135
# 248 faces, 0 coords texture

# End of File
