####
#
# OBJ File Generated by Meshlab
#
####
# Object 886_C151_M_2.obj
#
# Vertices: 148
# Faces: 256
#
####
vn -2.745288 -1.527179 -0.030212
v 90.935800 58.034900 50.000000
vn -5.492606 -3.050770 -0.014199
v 91.257464 57.522604 46.530878
vn -5.484384 -3.065290 -0.058847
v 91.521644 57.008412 48.421766
vn -2.753575 -1.518385 -0.049043
v 88.795000 61.951400 47.371800
vn -2.768766 -1.481215 -0.044728
v 88.850100 62.042400 42.718000
vn -5.510681 -3.017022 -0.086234
v 89.630918 60.457791 46.476130
vn -2.770914 -1.480090 -0.037349
v 90.400800 59.255500 38.000000
vn -5.519888 -3.000157 -0.077860
v 90.891619 58.238874 41.899962
vn -5.530416 -2.981291 -0.067708
v 90.643269 58.657920 43.830822
vn -2.707599 -1.583167 -0.019525
v 93.345600 53.833200 45.169500
vn -2.725628 -1.561750 -0.036697
v 92.951400 54.458600 50.000000
vn -1.356060 -0.778074 -0.019203
v 93.327800 53.802400 50.000000
vn -2.726663 -1.567486 -0.029336
v 93.336300 53.817200 48.813200
vn -5.443061 -3.137254 -0.045697
v 92.535068 55.232306 43.943566
vn -2.754816 -1.509984 -0.029423
v 91.531600 57.156000 38.000000
vn -2.705314 -1.603378 -0.031018
v 93.361500 53.860700 42.931400
vn -2.708207 -1.584214 -0.034967
v 93.369800 53.875200 40.648600
vn -5.451709 -3.121809 -0.077690
v 92.568051 55.218244 42.039992
vn -2.741346 -1.534041 -0.042127
v 90.426800 58.945100 50.000000
vn -2.759044 -1.496039 -0.058862
v 88.824800 62.003000 44.924200
vn -2.736555 -1.542195 -0.035460
v 91.829400 56.423200 50.000000
vn -2.725318 -1.565817 -0.012703
v 93.340600 53.824600 47.618600
vn -5.471066 -3.089468 -0.016109
v 92.200902 55.818566 47.064495
vn -2.773221 -1.476020 -0.042164
v 88.868200 62.078100 40.210100
vn -5.482859 -3.068299 -0.002585
v 91.902273 56.344290 45.194241
vn -5.461239 -3.105757 -0.077336
v 92.557688 55.292306 39.965504
vn -2.732053 -1.550695 -0.021181
v 92.295500 55.774700 38.000000
vn -1.361813 -0.797518 -0.019417
v 93.389800 53.909900 38.000000
vn -1.380009 -0.725765 -0.026062
v 88.890100 62.116100 38.000000
vn -2.778460 -1.465526 -0.048393
v 89.305700 61.323700 38.000000
vn -2.777668 -1.470747 -0.050761
v 88.876000 62.091700 39.325200
vn -2.757992 -1.496989 -0.113614
v 89.120400 61.247600 50.000000
vn -1.388987 -0.752800 -0.043002
v 88.771300 61.910400 50.000000
vn -5.535591 -2.971527 -0.074737
v 90.636025 58.796595 38.842760
vn -5.493517 -3.049010 -0.056026
v 90.505315 58.849221 47.945862
vn -5.510118 -3.018302 -0.062991
v 91.199496 57.716702 40.116238
vn -5.489365 -3.055717 -0.081882
v 91.802533 56.618885 41.328798
vn -5.541219 -2.960935 -0.078362
v 90.270729 59.437605 40.558444
vn -5.542661 -2.958237 -0.077686
v 89.930028 60.025369 42.320624
vn -5.533124 -2.975593 -0.090459
v 89.706950 60.396164 44.308096
vn -5.495312 -3.044848 -0.071519
v 91.619380 56.873168 43.275073
vn -5.514472 -3.010948 -0.038988
v 90.911571 58.139918 44.817103
vn -5.490839 -3.052594 -0.098370
v 89.581041 60.500309 48.651811
vn -5.544468 -2.954784 -0.080772
v 89.317418 61.216053 40.928562
vn -5.448363 -3.128718 -0.069441
v 93.019922 54.358431 49.211987
vn -2.765710 -1.489603 -0.039234
v 90.966200 58.205750 38.000000
vn -5.530630 -2.980699 -0.077297
v 91.070028 57.994631 38.696173
vn -5.509172 -3.020204 -0.062995
v 91.373289 57.420861 39.154829
vn -5.533195 -2.976008 -0.074060
v 90.895460 58.297140 39.512970
vn -2.704361 -1.598344 -0.036415
v 93.353550 53.846950 44.050450
vn -5.430508 -3.159831 -0.031115
v 92.801832 54.768122 44.674167
vn -5.405723 -3.201852 -0.068522
v 92.936075 54.562718 43.573387
vn -2.704914 -1.597700 -0.019983
v 93.365650 53.867950 41.790000
vn -5.408505 -3.197391 -0.054784
v 92.967129 54.534050 42.477356
vn -5.422649 -3.173092 -0.060503
v 92.977757 54.529932 41.368103
vn -5.440432 -3.141750 -0.070691
v 92.547873 55.229534 43.072814
vn -2.757463 -1.503909 -0.065278
v 88.809900 61.977200 46.148000
vn -5.519499 -2.999828 -0.119915
v 89.232884 61.219709 45.731827
vn -5.507512 -3.022329 -0.100377
v 89.206926 61.216957 46.891772
vn -2.728133 -1.557496 -0.033199
v 92.390400 55.440900 50.000000
vn -5.460244 -3.107711 -0.078308
v 92.109411 55.946446 49.386548
vn -5.456079 -3.115416 -0.060706
v 92.553175 55.175394 49.066617
vn -5.448940 -3.128135 -0.046993
v 92.900571 54.582514 48.312044
vn -5.459696 -3.109404 -0.036989
v 92.376165 55.500748 48.003876
vn -5.453083 -3.121112 -0.015376
v 92.724880 54.901699 47.340175
vn -5.466840 -3.096467 -0.056196
v 92.020239 56.124291 48.636146
vn -5.478771 -3.075487 -0.046235
v 91.861401 56.413391 47.735468
vn -2.716952 -1.577237 -0.009949
v 93.343100 53.828900 46.394050
vn -5.446696 -3.132291 -0.004474
v 92.966343 54.476569 46.697803
vn -5.441848 -3.140723 -0.011349
v 92.882822 54.624793 45.778558
vn -5.457363 -3.113749 0.001628
v 92.518426 55.259935 46.403618
vn -5.494380 -3.047444 -0.057363
v 91.212412 57.551792 49.163575
vn -5.490210 -3.054850 -0.061717
v 90.741859 58.402474 49.035916
vn -5.493841 -3.048380 -0.059190
v 91.032677 57.893532 48.212342
vn -2.763007 -1.493991 -0.058198
v 88.837450 62.022700 43.821100
vn -5.535487 -2.971072 -0.093063
v 89.308464 61.162572 43.536646
vn -5.525038 -2.989930 -0.112612
v 89.259950 61.210680 44.611670
vn -5.523562 -2.992815 -0.108323
v 89.659957 60.444107 45.375738
vn -5.480277 -3.071740 -0.093208
v 92.129555 55.981796 42.648362
vn -5.476717 -3.079050 -0.056596
v 92.135519 55.948515 43.638608
vn -5.545784 -2.952421 -0.076352
v 90.148382 59.708263 38.878033
vn -5.539591 -2.964150 -0.071209
v 90.433880 59.152717 39.700747
vn -5.544690 -2.954540 -0.074273
v 89.968777 60.022567 39.799472
vn -5.486596 -3.061415 -0.055532
v 92.083920 56.128115 40.574842
vn -5.477289 -3.078322 -0.036675
v 92.171441 55.983536 39.620393
vn -2.709352 -1.589899 -0.035204
v 92.842650 54.842300 38.000000
vn -5.450957 -3.123904 -0.028952
v 92.454486 55.484359 38.920419
vn -2.712754 -1.583967 -0.040261
v 93.379800 53.892550 39.324300
vn -5.432737 -3.155534 -0.079071
v 92.980444 54.553405 40.243838
vn -5.552284 -2.939583 -0.096371
v 89.185952 61.515138 39.069755
vn -2.732133 -1.549126 -0.072561
v 89.773600 60.096350 50.000000
vn -5.480154 -3.071325 -0.105252
v 89.969994 59.786408 49.212557
vn -5.515269 -3.008962 -0.069387
v 90.060674 59.679687 46.087654
vn -5.531311 -2.979053 -0.087349
v 90.094875 59.653930 45.032518
vn -5.486888 -3.061253 -0.008708
v 90.851623 58.251193 46.284835
vn -5.510570 -3.017997 -0.037457
v 90.571970 58.752280 45.603704
vn -5.498876 -3.039788 0.017623
v 91.115945 57.769279 45.636279
vn -5.498825 -3.035399 -0.153287
v 89.153396 61.249060 49.235616
vn -2.775297 -1.471537 -0.043710
v 89.853250 60.289600 38.000000
vn -5.548923 -2.946253 -0.085865
v 89.632195 60.677515 38.935664
vn -2.747379 -1.523377 -0.028891
v 91.382600 57.229050 50.000000
vn -5.479670 -3.073350 -0.071150
v 91.677168 56.711824 49.263735
vn -5.494111 -3.048050 -0.020573
v 91.719349 56.688201 46.798564
vn -5.498825 -3.039833 0.027039
v 91.582440 56.928818 45.863199
vn -5.482164 -3.069620 0.012730
v 92.039491 56.102997 46.123743
vn -2.749138 -1.520355 -0.019041
v 91.913550 56.465350 38.000000
vn -5.490552 -3.054620 -0.038454
v 91.919327 56.444917 38.797388
vn -5.487805 -3.059526 -0.037509
v 91.768502 56.594004 44.278602
vn -5.468095 -3.094636 -0.020252
v 92.243922 55.742628 44.546610
vn -5.457888 -3.112829 -0.002297
v 92.378100 55.506351 45.452767
vn -5.545250 -2.953385 -0.077980
v 89.441853 60.936251 42.531861
vn -5.542743 -2.958290 -0.070084
v 89.791645 60.261721 43.286404
vn -5.490813 -3.053743 -0.063317
v 91.375149 57.291129 47.485789
vn -5.488932 -3.056370 -0.085746
v 91.381819 57.366496 41.613401
vn -5.490562 -3.052574 -0.117797
v 91.733674 56.709541 42.182089
vn -5.506886 -3.023756 -0.088933
v 91.242413 57.580832 42.557223
vn -5.463969 -3.100665 -0.080777
v 92.575863 55.234092 40.974797
vn -5.529782 -2.982506 -0.064318
v 90.743671 58.493071 42.825414
vn -5.520893 -2.998968 -0.065541
v 91.088683 57.846442 43.436237
vn -5.491471 -3.052473 -0.067262
v 90.346967 59.113400 48.906483
vn -5.485918 -3.062890 -0.042186
v 91.695065 56.832352 39.840744
vn -5.537156 -2.968525 -0.077929
v 90.731133 58.583541 40.375105
vn -5.496970 -3.042565 -0.067167
v 89.606589 60.477605 47.580044
vn -5.493284 -3.048769 -0.083313
v 89.186557 61.226927 48.059727
vn -5.495155 -3.046331 -0.032496
v 90.472813 58.922497 46.739456
vn -5.500378 -3.036658 -0.050727
v 90.046875 59.692195 47.192595
vn -5.494459 -3.047104 -0.067035
v 90.012056 59.731790 48.257460
vn -5.488495 -3.058113 -0.050388
v 90.903418 58.146915 47.201185
vn -5.484161 -3.065974 -0.046562
v 91.534960 57.107448 40.737312
vn -5.511065 -3.016324 -0.068730
v 91.044098 57.980514 41.004744
vn -5.539226 -2.964472 -0.085373
v 90.571027 58.856916 41.239044
vn -5.539786 -2.963842 -0.069435
v 90.152587 59.569153 44.034272
vn -5.534424 -2.973908 -0.064694
v 90.486528 58.928962 44.707133
vn -5.490740 -3.052948 -0.096313
v 92.170399 55.947071 41.628843
vn -5.498937 -3.039456 -0.008931
v 91.439900 57.177466 44.968243
vn -5.511780 -3.015756 -0.055246
v 91.214074 57.598498 44.126912
vn -5.542546 -2.958269 -0.084921
v 90.102796 59.727282 41.425334
vn -5.539729 -2.963754 -0.077095
v 90.407920 59.137122 42.121717
vn -2.743895 -1.529145 -0.048598
v 88.783150 61.930900 48.685900
vn -5.539455 -2.964465 -0.069227
v 90.262415 59.386583 43.054321
vn -5.544383 -2.954957 -0.080111
v 89.810451 60.296883 40.715408
vn -5.544907 -2.953872 -0.084040
v 89.215834 61.381365 41.824574
vn -2.771734 -1.478309 -0.041185
v 88.859150 62.060250 41.464050
vn -5.545322 -2.953044 -0.085724
v 89.641887 60.587182 41.605244
vn -5.545799 -2.952320 -0.079361
v 89.463694 60.965960 39.971126
vn -5.434717 -3.152369 -0.065112
v 92.811041 54.865820 39.370448
vn -5.476676 -3.075310 -0.161019
v 89.549611 60.516848 49.465324
vn -5.421631 -3.174725 -0.073628
v 92.932314 54.673596 38.718411
# 148 vertices, 0 vertices normals

f 12//12 11//11 45//45
f 46//46 15//15 47//47
f 48//48 49//49 47//47
f 50//50 51//51 52//52
f 53//53 54//54 55//55
f 52//52 56//56 54//54
f 57//57 58//58 59//59
f 60//60 61//61 62//62
f 63//63 64//64 65//65
f 66//66 67//67 64//64
f 68//68 69//69 70//70
f 65//65 71//71 69//69
f 72//72 73//73 74//74
f 75//75 76//76 77//77
f 78//78 58//58 77//77
f 79//79 56//56 80//80
f 81//81 82//82 83//83
f 29//29 30//30 90//90
f 45//45 62//62 63//63
f 93//93 78//78 94//94
f 95//95 96//96 97//97
f 99//99 81//81 100//100
f 101//101 72//72 102//102
f 103//103 104//104 105//105
f 108//108 80//80 109//109
f 71//71 105//105 110//110
f 109//109 51//51 110//110
f 61//61 102//102 66//66
f 76//76 111//111 112//112
f 103//103 67//67 113//113
f 114//114 115//115 116//116
f 89//89 55//55 117//117
f 118//118 116//116 119//119
f 120//120 35//35 73//73
f 107//107 121//121 48//48
f 107//107 87//87 85//85
f 82//82 49//49 122//122
f 59//59 123//123 124//124
f 93//93 125//125 126//126
f 126//126 127//127 123//123
f 113//113 74//74 128//128
f 129//129 121//121 84//84
f 129//129 114//114 130//130
f 122//122 130//130 131//131
f 94//94 132//132 133//133
f 134//134 79//79 115//115
f 134//134 84//84 117//117
f 108//108 135//135 136//136
f 137//137 131//131 138//138
f 98//98 139//139 124//124
f 132//132 112//112 140//140
f 141//141 145//145 83//83
f 44//44 142//142 143//143
f 118//118 140//140 138//138
f 97//97 135//135 104//104
f 125//125 95//95 128//128
f 127//127 120//120 92//92
f 137//137 144//144 141//141
f 44//44 24//24 145//145
f 144//144 111//111 142//142
f 12//12 45//45 13//13
f 7//7 46//46 34//34
f 47//47 34//34 46//46
f 15//15 48//48 47//47
f 48//48 36//36 49//49
f 47//47 49//49 34//34
f 16//16 50//50 52//52
f 50//50 10//10 51//51
f 17//17 53//53 55//55
f 53//53 16//16 54//54
f 55//55 54//54 18//18
f 16//16 52//52 54//54
f 52//52 14//14 56//56
f 54//54 56//56 18//18
f 4//4 57//57 59//59
f 57//57 20//20 58//58
f 59//59 58//58 6//6
f 11//11 60//60 62//62
f 60//60 21//21 61//61
f 62//62 45//45 11//11
f 22//22 63//63 65//65
f 63//63 62//62 64//64
f 65//65 64//64 23//23
f 62//62 66//66 64//64
f 66//66 3//3 67//67
f 64//64 67//67 23//23
f 10//10 68//68 70//70
f 68//68 22//22 69//69
f 22//22 65//65 69//69
f 65//65 23//23 71//71
f 69//69 71//71 70//70
f 3//3 72//72 74//74
f 72//72 1//1 73//73
f 74//74 73//73 35//35
f 20//20 75//75 77//77
f 75//75 5//5 76//76
f 77//77 76//76 40//40
f 40//40 78//78 77//77
f 78//78 6//6 58//58
f 77//77 58//58 20//20
f 41//41 79//79 80//80
f 79//79 18//18 56//56
f 80//80 56//56 14//14
f 100//100 81//81 83//83
f 81//81 34//34 82//82
f 83//83 82//82 38//38
f 26//26 84//84 85//85
f 27//27 86//86 148//148
f 86//86 28//28 148//148
f 87//87 27//27 148//148
f 28//28 88//88 148//148
f 88//88 17//17 89//89
f 148//148 88//88 146//146
f 29//29 90//90 31//31
f 13//13 63//63 22//22
f 63//63 13//13 45//45
f 19//19 91//91 92//92
f 91//91 32//32 147//147
f 96//96 93//93 94//94
f 93//93 6//6 78//78
f 94//94 78//78 40//40
f 2//2 95//95 97//97
f 97//97 96//96 42//42
f 24//24 31//31 90//90
f 139//139 98//98 33//33
f 30//30 99//99 100//100
f 99//99 7//7 81//81
f 21//21 101//101 102//102
f 101//101 1//1 72//72
f 102//102 72//72 3//3
f 23//23 103//103 105//105
f 103//103 2//2 104//104
f 105//105 104//104 25//25
f 15//15 106//106 107//107
f 106//106 27//27 107//107
f 25//25 108//108 109//109
f 108//108 41//41 80//80
f 109//109 80//80 14//14
f 70//70 71//71 110//110
f 71//71 23//23 105//105
f 110//110 105//105 25//25
f 25//25 109//109 110//110
f 109//109 14//14 51//51
f 110//110 51//51 70//70
f 62//62 61//61 66//66
f 61//61 21//21 102//102
f 66//66 102//102 3//3
f 40//40 76//76 112//112
f 76//76 5//5 111//111
f 112//112 111//111 39//39
f 2//2 103//103 113//113
f 103//103 23//23 67//67
f 113//113 67//67 3//3
f 8//8 114//114 116//116
f 114//114 37//37 115//115
f 116//116 115//115 41//41
f 10//10 70//70 51//51
f 26//26 89//89 117//117
f 89//89 17//17 55//55
f 117//117 55//55 18//18
f 9//9 118//118 119//119
f 118//118 8//8 116//116
f 119//119 116//116 41//41
f 19//19 73//73 1//1
f 73//73 19//19 120//120
f 15//15 107//107 48//48
f 107//107 85//85 121//121
f 48//48 121//121 36//36
f 107//107 27//27 87//87
f 85//85 87//87 146//146
f 38//38 82//82 122//122
f 82//82 34//34 49//49
f 122//122 49//49 36//36
f 4//4 59//59 124//124
f 59//59 6//6 123//123
f 124//124 123//123 43//43
f 6//6 93//93 126//126
f 93//93 96//96 125//125
f 126//126 125//125 35//35
f 6//6 126//126 123//123
f 126//126 35//35 127//127
f 123//123 127//127 43//43
f 2//2 113//113 128//128
f 113//113 3//3 74//74
f 128//128 74//74 35//35
f 37//37 129//129 84//84
f 129//129 36//36 121//121
f 84//84 121//121 85//85
f 36//36 129//129 130//130
f 129//129 37//37 114//114
f 130//130 114//114 8//8
f 38//38 122//122 131//131
f 122//122 36//36 130//130
f 131//131 130//130 8//8
f 96//96 94//94 133//133
f 94//94 40//40 132//132
f 133//133 132//132 9//9
f 37//37 134//134 115//115
f 134//134 18//18 79//79
f 115//115 79//79 41//41
f 18//18 134//134 117//117
f 134//134 37//37 84//84
f 117//117 84//84 26//26
f 41//41 108//108 136//136
f 108//108 25//25 135//135
f 136//136 135//135 42//42
f 39//39 137//137 138//138
f 137//137 38//38 131//131
f 138//138 131//131 8//8
f 100//100 90//90 30//30
f 43//43 98//98 124//124
f 124//124 139//139 4//4
f 9//9 132//132 140//140
f 132//132 40//40 112//112
f 140//140 112//112 39//39
f 38//38 141//141 83//83
f 141//141 44//44 145//145
f 83//83 145//145 100//100
f 24//24 44//44 143//143
f 143//143 142//142 5//5
f 8//8 118//118 138//138
f 118//118 9//9 140//140
f 138//138 140//140 39//39
f 2//2 97//97 104//104
f 97//97 42//42 135//135
f 104//104 135//135 25//25
f 42//42 133//133 9//9
f 35//35 125//125 128//128
f 125//125 96//96 95//95
f 128//128 95//95 2//2
f 41//41 136//136 119//119
f 119//119 136//136 9//9
f 43//43 127//127 92//92
f 127//127 35//35 120//120
f 92//92 120//120 19//19
f 38//38 137//137 141//141
f 137//137 39//39 144//144
f 141//141 144//144 44//44
f 145//145 90//90 100//100
f 44//44 144//144 142//142
f 144//144 39//39 111//111
f 142//142 111//111 5//5
f 34//34 81//81 7//7
f 52//52 51//51 14//14
f 145//145 24//24 90//90
f 42//42 96//96 133//133
f 92//92 91//91 147//147
f 98//98 32//32 33//33
f 136//136 42//42 9//9
f 85//85 146//146 26//26
f 88//88 89//89 146//146
f 26//26 146//146 89//89
f 147//147 32//32 98//98
f 43//43 147//147 98//98
f 92//92 147//147 43//43
f 87//87 148//148 146//146
# 256 faces, 0 coords texture

# End of File
