####
#
# OBJ File Generated by Meshlab
#
####
# Object 900_C153_M_0.obj
#
# Vertices: 141
# Faces: 237
#
####
vn 2.906381 -1.183402 0.099100
v -70.178000 92.584900 50.000000
vn 5.807889 -2.394827 0.095807
v -70.032190 92.776995 47.268798
vn 2.921137 -1.168762 0.041445
v -70.342200 92.000000 47.217600
vn 2.915382 -1.164733 0.077570
v -70.389900 92.000000 49.448800
vn 2.842403 -1.334722 0.061305
v -68.064000 97.409300 50.000000
vn 2.828232 -1.354454 0.027989
v -66.757200 100.000000 46.778900
vn 2.841283 -1.354486 0.020864
v -66.755700 100.000000 44.934400
vn 2.867311 -1.315397 0.001241
v -66.791800 100.000000 41.661800
vn 2.819869 -1.350362 -0.000877
v -66.744100 100.000000 44.168000
vn 2.884003 -1.244352 0.055810
v -69.233400 94.780900 50.000000
vn 2.864151 -1.289119 0.054671
v -68.496375 96.458225 50.000000
vn 2.910512 -1.173471 0.034957
v -70.311500 92.000000 44.202600
vn 5.808253 -2.394533 0.049513
v -69.675432 93.563355 43.544285
vn 2.828104 -1.367948 0.016599
v -67.057800 99.465400 50.000000
vn 2.823382 -1.377915 0.036849
v -66.783500 100.000000 48.700200
vn 2.864764 -1.288685 0.042752
v -67.204700 98.969400 38.000000
vn 1.430102 -0.640674 0.012908
v -66.743000 100.000000 38.000000
vn 2.863848 -1.285802 0.035089
v -66.744900 100.000000 38.210500
vn 2.901221 -1.204730 0.015252
v -69.430000 93.943800 38.000000
vn 1.463038 -0.587100 0.024597
v -70.212500 92.000000 38.000000
vn 5.811759 -2.384031 0.121384
v -69.635014 93.484301 39.040200
vn 5.719100 -2.600008 0.097760
v -67.211529 99.005673 39.521340
vn 1.418191 -0.688257 0.014107
v -66.800400 100.000000 50.000000
vn 2.882736 -1.248209 0.038604
v -69.163900 94.557000 38.000000
vn 1.462280 -0.555012 0.026794
v -70.400000 92.000000 50.000000
vn 2.926604 -1.147850 0.041341
v -70.272400 92.000000 42.170000
vn 2.921123 -1.152229 0.049313
v -70.248500 92.000000 40.303200
vn 5.799959 -2.410067 0.096884
v -69.500506 93.944519 41.208548
vn 5.706378 -2.628797 0.049517
v -68.001523 97.372730 42.507659
vn 5.683325 -2.678968 -0.002407
v -67.541175 98.356443 42.931684
vn 5.761362 -2.506215 0.054449
v -68.902112 95.361261 42.957185
vn 2.854372 -1.310355 0.055940
v -67.978700 97.251700 38.000000
vn 5.733232 -2.567811 0.115004
v -68.106412 97.017375 38.960503
vn 2.911252 -1.177468 0.033236
v -70.337900 92.000000 46.671400
vn 2.864267 -1.290005 0.048344
v -68.154700 96.875300 38.000000
vn 5.750577 -2.528819 0.102172
v -68.821927 95.667431 48.420775
vn 5.771833 -2.482324 0.021855
v -69.070583 95.006909 44.981532
vn 2.864672 -1.290306 0.039016
v -66.768000 100.000000 39.833000
vn 5.717590 -2.602684 0.028595
v -68.310311 96.741974 44.228156
vn 5.714547 -2.610520 0.073213
v -67.711982 97.969545 40.795322
vn 5.748991 -2.532562 0.104662
v -68.572780 96.056182 40.909312
vn 5.670442 -2.705029 0.057497
v -67.496128 98.446558 46.659398
vn 5.680883 -2.681812 0.112900
v -67.887261 97.701669 48.298681
vn 5.773041 -2.478602 0.072915
v -69.250888 94.595455 46.870792
vn 5.717797 -2.603165 0.042549
v -68.390173 96.568101 46.428162
vn 5.657497 -2.731407 0.096219
v -67.407009 98.717109 48.530875
vn 5.667614 -2.712253 -0.005111
v -67.674679 98.077791 44.956146
vn 5.787303 -2.444042 0.107238
v -69.795270 93.376330 48.070594
vn 5.793868 -2.426505 0.141552
v -69.961004 93.025463 49.128210
vn 5.814612 -2.377953 0.110810
v -70.154397 92.523374 48.263771
vn 2.914746 -1.170461 0.062313
v -70.366050 92.000000 48.333200
vn 2.912062 -1.177651 0.050864
v -69.821250 92.971900 38.000000
vn 5.831549 -2.337054 0.097835
v -69.949625 92.686023 38.738611
vn 2.864121 -1.290253 0.040777
v -66.756450 100.000000 39.021750
vn 5.729270 -2.578129 0.084353
v -66.997610 99.460416 38.887135
vn 5.647593 -2.752817 0.071455
v -67.031561 99.497101 48.915128
vn 5.786442 -2.446936 0.077274
v -69.373820 94.085497 38.505886
vn 2.918866 -1.160501 0.055368
v -70.291950 92.000000 43.186300
vn 5.844231 -2.305516 0.085271
v -69.962863 92.811404 42.832322
vn 5.830088 -2.341289 0.070064
v -70.006776 92.750384 43.896049
vn 5.851839 -2.286764 0.071035
v -69.915471 92.902234 41.758950
vn 5.813629 -2.380640 0.046932
v -69.604494 93.716673 42.445195
vn 2.926780 -1.141116 0.037653
v -70.260450 92.000000 41.236600
vn 5.847620 -2.296087 0.103473
v -69.899145 92.909206 40.712307
vn 5.838556 -2.318739 0.111675
v -69.911691 92.817037 39.664651
vn 2.916572 -1.166676 0.045587
v -70.230500 92.000000 39.151600
vn 5.776266 -2.469884 0.113307
v -69.405753 94.277946 47.841568
vn 5.770557 -2.482838 0.119977
v -69.020142 95.169957 47.645974
vn 5.766277 -2.493362 0.104468
v -69.045101 95.176290 49.049860
vn 2.862921 -1.292592 0.049861
v -67.591700 98.110550 38.000000
vn 5.725429 -2.586371 0.091917
v -67.320868 98.735264 38.701796
vn 5.718135 -2.601342 0.118930
v -67.665252 97.989165 39.029422
vn 5.805533 -2.396373 0.147245
v -69.564372 93.719109 40.044519
vn 5.663349 -2.721119 0.011879
v -67.230974 98.999699 44.740248
vn 2.880148 -1.253856 0.046892
v -68.659300 95.716150 38.000000
vn 5.764088 -2.498987 0.093203
v -68.949810 95.074476 38.684204
vn 5.759219 -2.509706 0.105050
v -68.495724 96.122570 38.821479
vn 5.703855 -2.634117 -0.044626
v -67.174295 99.156506 42.304879
vn 2.843411 -1.334882 -0.051981
v -66.767950 100.000000 42.914900
vn 5.669647 -2.706908 -0.050434
v -67.149836 99.165462 43.498547
vn 5.733174 -2.568857 0.099340
v -68.116963 97.068095 40.717747
vn 5.713888 -2.611974 0.059807
v -67.944617 97.478944 41.468758
vn 5.737580 -2.559949 0.066910
v -68.323862 96.639565 41.699128
vn 5.757267 -2.513832 0.107311
v -69.010747 95.061578 41.105541
vn 5.751861 -2.527817 0.067203
v -68.758696 95.660775 41.928487
vn 5.765872 -2.495936 0.049407
v -69.192106 94.675900 42.145373
vn 5.722262 -2.593115 0.070554
v -68.258581 96.833281 43.350169
vn 5.755535 -2.519603 0.057353
v -68.610883 96.043019 43.663121
vn 5.743381 -2.546883 0.071946
v -68.484472 96.301216 42.696606
vn 2.907507 -1.189514 0.032554
v -70.324700 92.000000 45.437000
vn 5.801039 -2.412356 0.072046
v -69.955994 92.925996 46.256186
vn 5.805492 -2.402454 0.022435
v -69.728755 93.446064 44.583620
vn 5.770520 -2.482496 0.125823
v -69.244990 94.414220 39.321819
vn 5.776501 -2.471627 0.038055
v -69.297524 94.442743 43.233600
vn 5.789964 -2.440157 0.016264
v -69.438829 94.138029 45.249190
vn 5.782971 -2.456465 0.033546
v -69.374072 94.282979 44.271357
vn 5.671980 -2.703149 0.004616
v -67.152924 99.166792 45.794201
vn 2.836722 -1.350039 0.002341
v -66.756450 100.000000 45.856650
vn 5.671605 -2.702564 0.063670
v -67.111731 99.255047 46.738329
vn 5.735782 -2.562539 0.104256
v -68.661474 96.057220 49.199261
vn 2.876875 -1.261109 0.047657
v -68.936950 95.461050 50.000000
vn 5.763210 -2.501118 0.064354
v -68.847321 95.520190 46.678528
vn 5.741952 -2.548488 0.095749
v -68.620746 96.086096 47.502080
vn 5.780036 -2.461893 0.091154
v -69.646768 93.678379 47.068314
vn 5.785724 -2.449841 0.040832
v -69.526342 93.936897 46.152394
vn 5.668183 -2.708395 0.121265
v -67.787537 97.867978 47.365524
vn 5.668720 -2.707251 0.121747
v -67.457096 98.569449 47.585836
vn 2.864104 -1.290396 0.037273
v -66.779900 100.000000 40.747400
vn 5.715380 -2.608420 0.088788
v -67.044686 99.405544 40.513724
vn 5.778856 -2.463552 0.118334
v -69.511182 94.084259 48.987440
vn 2.888273 -1.233680 0.073971
v -69.705700 93.682900 50.000000
vn 5.769835 -2.486966 0.044275
v -68.997326 95.159568 43.978643
vn 5.760102 -2.505703 0.145207
v -68.782238 95.537550 40.264740
vn 5.749601 -2.530715 0.122792
v -68.366072 96.471013 39.834226
vn 5.713029 -2.614307 0.052492
v -67.288482 98.902141 41.163319
vn 5.708655 -2.622278 0.112187
v -67.475242 98.460254 40.118924
vn 5.704789 -2.632788 0.020623
v -67.588713 98.242649 41.816085
vn 5.713811 -2.611677 0.097055
v -68.409410 96.574126 48.368039
vn 5.725101 -2.585933 0.115581
v -67.910183 97.496879 39.894701
vn 5.759096 -2.512035 0.024069
v -68.686832 95.884475 44.660796
vn 5.762277 -2.500160 0.153731
v -69.162292 94.663323 40.237177
vn 5.772667 -2.480606 0.010009
v -69.142945 94.841920 45.940049
vn 2.822223 -1.379742 0.031200
v -67.560900 98.437350 50.000000
vn 5.661753 -2.722318 0.096813
v -67.734104 98.065510 49.251975
vn 5.647211 -2.753801 0.062935
v -67.282531 98.993044 49.361730
vn 5.670478 -2.704955 0.054717
v -67.910963 97.574845 46.576545
vn 5.690757 -2.661259 0.088428
v -68.182178 97.045795 47.449851
vn 5.674726 -2.697368 -0.009976
v -67.996161 97.399566 45.633484
vn 5.669990 -2.707304 -0.005694
v -67.583994 98.265277 45.751557
vn 5.758452 -2.513685 0.004267
v -68.747582 95.748302 45.686660
vn 5.717749 -2.603130 0.000662
v -68.362038 96.629522 45.260184
vn 5.705186 -2.628931 0.129309
v -68.214551 97.041288 49.203277
vn 5.656789 -2.732795 0.097475
v -67.074595 99.378297 47.748800
vn 2.821830 -1.380357 0.038627
v -66.770350 100.000000 47.739550
vn 5.664403 -2.718957 0.001145
v -67.575782 98.284503 44.030954
vn 5.674261 -2.698334 -0.003859
v -67.978904 97.440201 44.632030
vn 5.680821 -2.684242 0.023599
v -67.928090 97.545510 43.610282
vn 5.819769 -2.367693 0.047788
v -70.033845 92.697294 44.951840
vn 5.762638 -2.500732 0.127682
v -68.779627 95.500539 39.528697
vn 5.774922 -2.473004 0.113782
v -69.135264 94.934630 48.385883
vn 5.805635 -2.402078 0.047597
v -69.897390 93.043920 45.470988
# 141 vertices, 0 vertices normals

f 48//48 49//49 50//50
f 4//4 51//51 50//50
f 16//16 17//17 18//18
f 20//20 52//52 53//53
f 18//18 54//54 55//55
f 56//56 23//23 125//125
f 19//19 24//24 57//57
f 1//1 25//25 4//4
f 58//58 59//59 60//60
f 61//61 62//62 59//59
f 63//63 64//64 61//61
f 53//53 65//65 66//66
f 70//70 71//71 72//72
f 64//64 65//65 73//73
f 3//3 34//34 2//2
f 75//75 77//77 76//76
f 78//78 79//79 80//80
f 35//35 32//32 33//33
f 84//84 85//85 86//86
f 87//87 88//88 89//89
f 60//60 92//92 138//138
f 57//57 76//76 93//93
f 62//62 86//86 94//94
f 95//95 92//92 96//96
f 97//97 98//98 99//99
f 102//102 103//103 68//68
f 104//104 91//91 105//105
f 106//106 107//107 43//43
f 55//55 22//22 71//71
f 8//8 109//109 108//108
f 110//110 111//111 49//49
f 48//48 104//104 67//67
f 96//96 94//94 112//112
f 109//109 115//115 116//116
f 117//117 29//29 82//82
f 132//132 100//100 118//118
f 88//88 120//120 112//112
f 84//84 121//121 113//113
f 83//83 89//89 85//85
f 105//105 95//95 122//122
f 123//123 124//124 125//125
f 126//126 106//106 127//127
f 103//103 127//127 118//118
f 121//121 73//73 93//93
f 126//126 128//128 129//129
f 122//122 130//130 102//102
f 131//131 130//130 120//120
f 56//56 133//133 15//15
f 43//43 124//124 132//132
f 74//74 97//97 129//129
f 107//107 99//99 133//133
f 80//80 74//74 135//135
f 136//136 137//137 135//135
f 137//137 87//87 29//29
f 78//78 117//117 115//115
f 128//128 131//131 136//136
f 72//72 116//116 119//119
f 2//2 48//48 50//50
f 48//48 110//110 49//49
f 50//50 49//49 4//4
f 51//51 3//3 50//50
f 2//2 50//50 3//3
f 52//52 21//21 53//53
f 57//57 52//52 19//19
f 54//54 38//38 55//55
f 22//22 55//55 38//38
f 23//23 56//56 15//15
f 4//4 49//49 1//1
f 52//52 57//57 21//21
f 12//12 58//58 60//60
f 58//58 26//26 59//59
f 60//60 59//59 13//13
f 26//26 61//61 59//59
f 61//61 28//28 62//62
f 59//59 62//62 13//13
f 26//26 63//63 61//61
f 63//63 27//27 64//64
f 61//61 64//64 28//28
f 20//20 53//53 66//66
f 53//53 21//21 65//65
f 66//66 65//65 27//27
f 110//110 67//67 140//140
f 67//67 44//44 68//68
f 69//69 140//140 36//36
f 32//32 70//70 72//72
f 70//70 16//16 71//71
f 72//72 71//71 22//22
f 28//28 64//64 73//73
f 64//64 27//27 65//65
f 73//73 65//65 21//21
f 9//9 7//7 74//74
f 24//24 75//75 76//76
f 75//75 35//35 77//77
f 35//35 33//33 77//77
f 30//30 78//78 80//80
f 78//78 8//8 79//79
f 80//80 79//79 9//9
f 83//83 82//82 29//29
f 28//28 84//84 86//86
f 84//84 41//41 85//85
f 86//86 85//85 31//31
f 29//29 87//87 89//89
f 87//87 39//39 88//88
f 89//89 88//88 31//31
f 34//34 90//90 91//91
f 90//90 12//12 138//138
f 34//34 91//91 2//2
f 12//12 60//60 138//138
f 60//60 13//13 92//92
f 138//138 92//92 141//141
f 21//21 57//57 93//93
f 57//57 24//24 76//76
f 93//93 76//76 139//139
f 13//13 62//62 94//94
f 62//62 28//28 86//86
f 94//94 86//86 31//31
f 37//37 95//95 96//96
f 95//95 141//141 92//92
f 96//96 92//92 13//13
f 42//42 97//97 99//99
f 97//97 7//7 98//98
f 99//99 98//98 6//6
f 36//36 100//100 69//69
f 100//100 11//11 101//101
f 69//69 101//101 10//10
f 44//44 102//102 68//68
f 102//102 45//45 103//103
f 68//68 103//103 36//36
f 44//44 104//104 105//105
f 104//104 2//2 91//91
f 105//105 91//91 141//141
f 106//106 42//42 107//107
f 43//43 107//107 46//46
f 18//18 55//55 16//16
f 71//71 16//16 55//55
f 22//22 38//38 109//109
f 108//108 109//109 38//38
f 110//110 10//10 111//111
f 49//49 111//111 1//1
f 10//10 110//110 69//69
f 110//110 48//48 67//67
f 48//48 2//2 104//104
f 67//67 104//104 44//44
f 37//37 96//96 112//112
f 96//96 13//13 94//94
f 112//112 94//94 31//31
f 41//41 113//113 114//114
f 114//114 77//77 33//33
f 22//22 109//109 116//116
f 109//109 8//8 115//115
f 116//116 115//115 40//40
f 40//40 117//117 82//82
f 117//117 30//30 29//29
f 43//43 132//132 118//118
f 132//132 11//11 100//100
f 118//118 100//100 36//36
f 72//72 22//22 116//116
f 119//119 116//116 40//40
f 41//41 114//114 81//81
f 82//82 81//81 40//40
f 31//31 88//88 112//112
f 88//88 39//39 120//120
f 112//112 120//120 37//37
f 41//41 84//84 113//113
f 84//84 28//28 121//121
f 113//113 121//121 139//139
f 41//41 83//83 85//85
f 83//83 29//29 89//89
f 85//85 89//89 31//31
f 44//44 105//105 122//122
f 105//105 141//141 95//95
f 122//122 95//95 37//37
f 14//14 123//123 125//125
f 123//123 5//5 124//124
f 125//125 124//124 46//46
f 45//45 126//126 127//127
f 126//126 42//42 106//106
f 127//127 106//106 43//43
f 36//36 103//103 118//118
f 103//103 45//45 127//127
f 118//118 127//127 43//43
f 139//139 121//121 93//93
f 121//121 28//28 73//73
f 93//93 73//73 21//21
f 42//42 126//126 129//129
f 126//126 45//45 128//128
f 129//129 128//128 47//47
f 44//44 122//122 102//102
f 122//122 37//37 130//130
f 102//102 130//130 45//45
f 39//39 131//131 120//120
f 131//131 45//45 130//130
f 120//120 130//130 37//37
f 11//11 132//132 5//5
f 46//46 133//133 56//56
f 133//133 6//6 134//134
f 15//15 133//133 134//134
f 43//43 46//46 124//124
f 132//132 124//124 5//5
f 47//47 74//74 129//129
f 74//74 7//7 97//97
f 129//129 97//97 42//42
f 46//46 107//107 133//133
f 107//107 42//42 99//99
f 133//133 99//99 6//6
f 23//23 14//14 125//125
f 125//125 46//46 56//56
f 30//30 80//80 135//135
f 80//80 9//9 74//74
f 135//135 74//74 47//47
f 47//47 136//136 135//135
f 136//136 39//39 137//137
f 135//135 137//137 30//30
f 30//30 137//137 29//29
f 137//137 39//39 87//87
f 8//8 78//78 115//115
f 78//78 30//30 117//117
f 115//115 117//117 40//40
f 47//47 128//128 136//136
f 128//128 45//45 131//131
f 136//136 131//131 39//39
f 32//32 72//72 33//33
f 119//119 33//33 72//72
f 76//76 77//77 139//139
f 114//114 139//139 77//77
f 91//91 90//90 141//141
f 81//81 82//82 83//83
f 41//41 81//81 83//83
f 81//81 119//119 40//40
f 114//114 33//33 119//119
f 81//81 114//114 119//119
f 113//113 139//139 114//114
f 69//69 100//100 101//101
f 67//67 68//68 140//140
f 110//110 140//140 69//69
f 140//140 68//68 36//36
f 141//141 90//90 138//138
# 237 faces, 0 coords texture

# End of File
