####
#
# OBJ File Generated by Meshlab
#
####
# Object 922_C155_M_6.obj
#
# Vertices: 142
# Faces: 241
#
####
vn -2.732374 -1.550075 0.038258
v 69.575100 98.755400 -50.000000
vn -5.513619 -3.010054 0.058678
v 70.297164 97.514606 -47.995858
vn -2.729589 -1.538586 0.034355
v 68.900300 100.000000 -45.732700
vn -5.484709 -3.063813 0.087160
v 69.801673 98.419926 -44.861615
vn -2.799606 -1.425239 0.031187
v 71.839700 94.489100 -50.000000
vn -2.777725 -1.467185 0.046540
v 70.703300 96.686900 -50.000000
vn -5.587396 -2.873082 0.062377
v 71.190948 95.801085 -47.900163
vn -2.809646 -1.405074 0.031276
v 72.257100 93.919500 -38.000000
vn -1.402855 -0.697515 0.013082
v 73.211000 92.000000 -38.000000
vn -2.776222 -1.492833 0.019158
v 69.025300 100.000000 -40.493600
vn -5.620816 -2.806935 0.071479
v 71.837115 94.603831 -44.002332
vn -2.739644 -1.520049 0.086514
v 68.945400 100.000000 -43.901700
vn -2.728822 -1.563003 0.031415
v 68.883400 100.000000 -47.746400
vn -5.613941 -2.821456 0.036416
v 72.354015 93.535742 -45.745800
vn -5.549686 -2.943532 0.073316
v 70.804142 96.641929 -43.856701
vn -2.758676 -1.502951 0.016781
v 70.210400 97.819400 -38.000000
vn -5.617788 -2.813395 0.059446
v 72.413820 93.570111 -39.657457
vn -5.529666 -2.983252 0.017048
v 69.701774 98.745399 -39.523976
vn -1.406631 -0.708346 0.014752
v 73.094300 92.000000 -50.000000
vn -2.805920 -1.412383 0.037388
v 72.210900 93.749500 -50.000000
vn -2.795142 -1.414920 0.039651
v 73.186800 92.000000 -41.333800
vn -2.813765 -1.403210 0.019715
v 73.189800 92.000000 -40.330900
vn -2.762631 -1.495427 0.024685
v 70.365500 97.535300 -38.000000
vn -1.375233 -0.753084 -0.004930
v 69.010500 100.000000 -38.000000
vn -2.717342 -1.575200 0.035312
v 68.858500 100.000000 -49.396700
vn -5.620262 -2.808784 0.030774
v 72.510419 93.231640 -44.785835
vn -2.790469 -1.441476 0.039496
v 71.605100 95.218900 -38.000000
vn -2.811470 -1.419156 0.033365
v 73.136700 92.000000 -43.658900
vn -1.351408 -0.786468 0.018359
v 68.850000 100.000000 -50.000000
vn -5.510051 -3.017133 0.084496
v 69.786284 98.548383 -42.793781
vn -2.803744 -1.414796 0.013062
v 73.129600 92.000000 -45.545900
vn -2.766626 -1.509388 0.071429
v 68.985000 100.000000 -42.902100
vn -2.804529 -1.412419 0.020530
v 73.117600 92.000000 -47.493400
vn -5.455778 -3.116066 0.049092
v 69.382804 99.126550 -47.828522
vn -5.602069 -2.844652 0.055098
v 71.478276 95.271886 -45.865140
vn -5.548430 -2.947806 0.046446
v 71.014869 96.298613 -39.821644
vn -5.533516 -2.975717 0.058505
v 69.484217 99.128001 -41.095943
vn -5.623694 -2.799765 0.094571
v 72.376094 93.537046 -42.688830
vn -5.536696 -2.970182 0.035354
v 70.489407 97.246098 -41.576099
vn -5.606657 -2.835783 0.044037
v 72.059776 94.096677 -47.660917
vn -5.593315 -2.859394 0.063968
v 71.528122 95.303061 -41.841601
vn -5.617747 -2.813165 0.070803
v 72.390425 93.595926 -40.619760
vn -5.531190 -2.980275 0.047933
v 70.525444 97.205397 -39.863995
vn -5.450483 -3.125214 0.052610
v 69.521108 98.868423 -48.835775
vn -5.490809 -3.052441 0.088945
v 69.980836 98.055361 -48.966684
vn -5.464176 -3.101549 0.037782
v 69.837410 98.325200 -47.937751
vn -5.480295 -3.073044 0.016278
v 70.126516 97.822617 -47.018967
vn -5.467185 -3.096370 0.027994
v 69.668009 98.632410 -46.939358
vn -5.468910 -3.093228 0.036707
v 69.511877 98.918636 -45.886428
vn -5.479269 -3.074911 0.027009
v 69.981497 98.085611 -46.013919
vn -5.479987 -3.071883 0.093917
v 69.333261 99.244771 -45.150602
vn -2.790401 -1.442812 0.039523
v 71.271500 95.588000 -50.000000
vn -5.587742 -2.872376 0.068089
v 71.494451 95.179276 -49.179956
vn -5.578002 -2.891104 0.075818
v 71.005674 96.130592 -48.960202
vn -2.807762 -1.408851 0.034908
v 71.931100 94.569200 -38.000000
vn -5.602407 -2.843284 0.079868
v 71.847854 94.716342 -38.757264
vn -5.495571 -3.043582 0.100564
v 70.270575 97.589122 -44.325343
vn -5.485287 -3.064059 0.038348
v 70.250172 97.610840 -45.289329
vn -5.534596 -2.971631 0.064563
v 70.693347 96.822262 -45.049918
vn -5.595355 -2.857549 0.067936
v 71.166693 95.905678 -44.908950
vn -5.606714 -2.835307 0.063779
v 71.634280 94.985313 -44.906182
vn -5.600683 -2.846277 0.092604
v 71.361060 95.544356 -43.931918
vn -5.582920 -2.881881 0.060858
v 71.030652 96.145712 -45.949790
vn -2.726697 -1.560194 0.022884
v 68.891850 100.000000 -46.739550
vn -5.460686 -3.107669 0.038012
v 69.200700 99.459080 -46.818224
vn -5.537592 -2.968670 0.022129
v 70.643125 96.951273 -42.635047
vn -5.568766 -2.907791 0.070581
v 71.162920 95.979839 -42.857687
vn -5.538316 -2.967136 0.037384
v 70.974436 96.340059 -41.734872
vn -5.519948 -3.001114 0.018788
v 69.892935 98.397788 -38.830104
vn -2.752550 -1.514287 -0.003237
v 69.610450 98.909700 -38.000000
vn -5.511985 -3.015933 -0.017734
v 69.427468 99.244400 -38.892250
vn -5.611126 -2.826060 0.074912
v 72.778197 92.816969 -40.963910
vn -5.622970 -2.803199 0.051680
v 72.802162 92.786677 -39.909595
vn -5.523761 -2.993347 0.036509
v 70.502008 97.150395 -46.171004
vn -5.540960 -2.960903 0.034514
v 70.518014 97.114557 -47.156466
vn -5.539970 -2.963993 0.043467
v 69.783080 98.582153 -40.323725
vn -5.531438 -2.979827 0.007484
v 69.395332 99.313937 -39.948732
vn -2.757462 -1.503973 0.063836
v 70.139200 97.721150 -50.000000
vn -5.543012 -2.956207 0.099530
v 70.485951 97.128486 -48.984852
vn -2.747072 -1.522703 0.067664
v 68.922850 100.000000 -44.817200
vn -5.486893 -3.057579 0.151511
v 69.365603 99.225224 -44.277463
vn -5.611593 -2.825787 0.057411
v 72.677185 92.846351 -49.133522
vn -2.807178 -1.410203 0.026094
v 73.105950 92.000000 -48.746700
vn -5.612364 -2.824430 0.048476
v 72.752719 92.712108 -48.262568
vn -5.431880 -3.157388 0.062734
v 69.194954 99.418658 -49.511616
vn -5.442313 -3.139151 0.070281
v 69.123833 99.556660 -48.653088
vn -2.725375 -1.562128 0.041121
v 68.870950 100.000000 -48.571550
vn -5.621775 -2.805462 0.052136
v 72.081008 94.098921 -44.868472
vn -2.812615 -1.399335 0.025695
v 73.200400 92.000000 -39.165450
vn -5.625150 -2.798794 0.053434
v 72.799067 92.811924 -38.883145
vn -2.714344 -1.581368 0.034823
v 69.212550 99.377700 -50.000000
vn -5.608636 -2.830590 0.089392
v 72.766732 92.750405 -43.115161
vn -5.627831 -2.793419 0.048891
v 72.331326 93.606587 -43.838531
vn -5.614655 -2.819899 0.039998
v 72.797370 92.668144 -44.104435
vn -5.530956 -2.980683 0.049155
v 70.295515 97.647174 -38.937147
vn -5.536868 -2.969769 0.044099
v 70.062409 98.068559 -39.729608
vn -5.642074 -2.764052 0.071433
v 72.050946 94.187559 -43.234107
vn -2.769864 -1.482267 0.018589
v 70.985300 96.377100 -38.000000
vn -5.534695 -2.973781 0.044985
v 70.736808 96.829780 -38.930449
vn -5.560583 -2.924308 0.063138
v 71.283221 95.809310 -38.883157
vn -5.572819 -2.901133 0.073972
v 70.740351 96.666590 -47.979706
vn -2.803872 -1.416966 0.010550
v 73.133150 92.000000 -44.602400
vn -5.608592 -2.832264 0.019725
v 72.861273 92.535622 -44.919911
vn -5.609855 -2.829696 0.026350
v 72.769467 92.712729 -45.678412
vn -5.609162 -2.830521 0.061309
v 72.235027 93.718304 -49.367788
vn -2.805225 -1.414219 0.017281
v 73.123600 92.000000 -46.519650
vn -5.610524 -2.828299 0.034148
v 72.689452 92.859977 -46.617388
vn -5.610707 -2.827939 0.033848
v 72.217705 93.794952 -46.698080
vn -5.610807 -2.827674 0.038656
v 72.534232 93.157002 -47.526486
vn -5.578631 -2.890338 0.046699
v 70.905041 96.373774 -46.979024
vn -2.804576 -1.415205 0.033942
v 72.652600 92.874750 -50.000000
vn -5.495949 -3.041061 0.154488
v 69.374422 99.267580 -43.275155
vn -5.496891 -3.039507 0.153937
v 69.807078 98.460742 -43.781394
vn -5.611123 -2.826816 0.050572
v 71.915475 94.405193 -45.816485
vn -5.557872 -2.930009 0.031757
v 71.252047 95.839343 -40.772800
vn -2.799668 -1.424016 0.060326
v 73.161750 92.000000 -42.496350
vn -5.601522 -2.843723 0.120731
v 72.770451 92.788886 -42.034203
vn -5.538821 -2.966340 0.025803
v 70.158770 97.857377 -42.248387
vn -5.539043 -2.965834 0.035073
v 70.017252 98.132828 -41.198255
vn -5.526440 -2.989052 0.038228
v 69.759674 98.607119 -41.894208
vn -5.605750 -2.837617 0.041765
v 71.772636 94.676903 -46.782981
vn -5.596604 -2.855530 0.047915
v 71.342168 95.522082 -46.876521
vn -5.600623 -2.847630 0.049432
v 71.624813 94.950110 -47.798189
vn -5.521199 -2.996902 0.088304
v 70.253878 97.672556 -43.293128
vn -5.609028 -2.831015 0.050101
v 72.336754 93.535150 -48.421533
vn -5.621792 -2.803529 0.103792
v 71.653035 95.009357 -43.041281
vn -5.643189 -2.760744 0.103680
v 71.979882 94.361940 -42.310353
vn -5.599737 -2.849314 0.023099
v 71.700634 94.973668 -40.661046
vn -5.582565 -2.882792 0.044231
v 71.492774 95.378581 -39.775365
vn -2.763704 -1.493220 0.042783
v 69.005150 100.000000 -41.697850
vn -5.512664 -3.013666 0.078862
v 69.382973 99.287765 -42.224537
vn -2.813075 -1.398380 0.027325
v 72.734050 92.959750 -38.000000
vn -5.619507 -2.809912 0.061104
v 72.350898 93.714422 -38.805033
vn -5.622813 -2.801314 0.118493
v 72.362695 93.611337 -41.662848
vn -5.629720 -2.788625 0.078609
v 71.983641 94.398925 -41.278338
vn -5.605375 -2.838053 0.056938
v 71.977260 94.436698 -39.670838
vn -5.617092 -2.814988 0.048122
v 72.077433 94.223725 -40.366142
vn -2.759014 -1.502397 -0.015873
v 69.017900 100.000000 -39.246800
vn -5.533580 -2.975804 0.049479
v 70.795732 96.691336 -40.698167
vn -5.535690 -2.971966 0.043162
v 70.265071 97.678158 -40.558911
vn -5.602332 -2.844204 0.052304
v 71.872794 94.446445 -48.708549
vn -5.593038 -2.862152 0.062550
v 71.450187 95.281210 -48.513528
# 142 vertices, 0 vertices normals

f 44//44 45//45 46//46
f 47//47 48//48 46//46
f 52//52 53//53 54//54
f 57//57 58//58 59//59
f 60//60 61//61 62//62
f 60//60 59//59 63//63
f 3//3 64//64 65//65
f 66//66 67//67 68//68
f 69//69 70//70 71//71
f 72//72 73//73 42//42
f 74//74 47//47 75//75
f 78//78 79//79 45//45
f 80//80 51//51 81//81
f 82//82 83//83 84//84
f 85//85 44//44 86//86
f 25//25 86//86 87//87
f 26//26 93//93 88//88
f 89//89 90//90 73//73
f 1//1 85//85 91//91
f 92//92 93//93 94//94
f 95//95 69//69 96//96
f 98//98 99//99 100//100
f 54//54 101//101 79//79
f 102//102 94//94 103//103
f 26//26 104//104 103//103
f 5//5 20//20 105//105
f 106//106 104//104 107//107
f 107//107 108//108 109//109
f 101//101 110//110 75//75
f 111//111 19//19 82//82
f 81//81 113//113 112//112
f 65//65 48//48 49//49
f 114//114 88//88 61//61
f 68//68 115//115 139//139
f 92//92 116//116 117//117
f 118//118 119//119 120//120
f 121//121 122//122 123//123
f 113//113 57//57 124//124
f 118//118 124//124 66//66
f 110//110 122//122 63//63
f 109//109 125//125 84//84
f 108//108 114//114 121//121
f 126//126 97//97 127//127
f 115//115 128//128 129//129
f 67//67 62//62 126//126
f 131//131 112//112 30//30
f 123//123 142//142 141//141
f 125//125 141//141 105//105
f 99//99 95//95 43//43
f 90//90 132//132 133//133
f 72//72 134//134 117//117
f 134//134 135//135 127//127
f 56//56 136//136 133//133
f 128//128 135//135 137//137
f 129//129 56//56 100//100
f 137//137 42//42 17//17
f 77//77 71//71 138//138
f 34//34 44//44 46//46
f 44//44 1//1 45//45
f 46//46 45//45 2//2
f 2//2 47//47 46//46
f 47//47 50//50 48//48
f 46//46 48//48 34//34
f 3//3 49//49 51//51
f 51//51 49//49 4//4
f 6//6 52//52 54//54
f 52//52 5//5 53//53
f 54//54 53//53 142//142
f 8//8 55//55 56//56
f 55//55 27//27 56//56
f 15//15 57//57 59//59
f 57//57 4//4 58//58
f 59//59 58//58 74//74
f 15//15 60//60 62//62
f 60//60 35//35 61//61
f 62//62 61//61 11//11
f 35//35 60//60 63//63
f 60//60 15//15 59//59
f 63//63 59//59 74//74
f 64//64 13//13 65//65
f 34//34 65//65 13//13
f 39//39 66//66 68//68
f 66//66 15//15 67//67
f 68//68 67//67 41//41
f 18//18 69//69 71//71
f 69//69 16//16 70//70
f 71//71 70//70 24//24
f 72//72 22//22 73//73
f 42//42 73//73 17//17
f 140//140 139//139 43//43
f 74//74 58//58 50//50
f 75//75 47//47 2//2
f 10//10 37//37 77//77
f 77//77 76//76 18//18
f 1//1 78//78 45//45
f 78//78 6//6 79//79
f 45//45 79//79 2//2
f 12//12 80//80 81//81
f 80//80 3//3 51//51
f 81//81 51//51 4//4
f 82//82 19//19 83//83
f 84//84 83//83 33//33
f 25//25 85//85 86//86
f 85//85 1//1 44//44
f 86//86 44//44 34//34
f 34//34 13//13 86//86
f 87//87 86//86 13//13
f 14//14 26//26 88//88
f 88//88 93//93 11//11
f 72//72 21//21 22//22
f 22//22 89//89 73//73
f 89//89 9//9 90//90
f 73//73 90//90 17//17
f 25//25 29//29 85//85
f 91//91 85//85 29//29
f 28//28 92//92 94//94
f 92//92 38//38 93//93
f 94//94 93//93 26//26
f 43//43 95//95 96//96
f 95//95 16//16 69//69
f 96//96 69//69 18//18
f 93//93 38//38 97//97
f 93//93 97//97 11//11
f 27//27 98//98 100//100
f 98//98 23//23 99//99
f 100//100 99//99 36//36
f 6//6 54//54 79//79
f 54//54 7//7 101//101
f 79//79 101//101 2//2
f 31//31 102//102 103//103
f 102//102 28//28 94//94
f 103//103 94//94 26//26
f 26//26 14//14 104//104
f 103//103 104//104 31//31
f 105//105 20//20 111//111
f 33//33 106//106 107//107
f 106//106 31//31 104//104
f 107//107 104//104 14//14
f 33//33 107//107 109//109
f 107//107 14//14 108//108
f 109//109 108//108 40//40
f 2//2 101//101 75//75
f 101//101 7//7 110//110
f 75//75 110//110 74//74
f 105//105 111//111 82//82
f 12//12 112//112 32//32
f 12//12 81//81 112//112
f 81//81 4//4 113//113
f 112//112 113//113 30//30
f 3//3 65//65 49//49
f 65//65 34//34 48//48
f 49//49 48//48 50//50
f 35//35 114//114 61//61
f 114//114 14//14 88//88
f 61//61 88//88 11//11
f 39//39 68//68 139//139
f 68//68 41//41 115//115
f 38//38 92//92 117//117
f 92//92 28//28 116//116
f 117//117 116//116 21//21
f 30//30 118//118 120//120
f 118//118 39//39 119//119
f 120//120 119//119 37//37
f 40//40 121//121 123//123
f 121//121 35//35 122//122
f 123//123 122//122 7//7
f 30//30 113//113 124//124
f 113//113 4//4 57//57
f 124//124 57//57 15//15
f 39//39 118//118 66//66
f 118//118 30//30 124//124
f 66//66 124//124 15//15
f 74//74 110//110 63//63
f 110//110 7//7 122//122
f 63//63 122//122 35//35
f 33//33 109//109 84//84
f 109//109 40//40 125//125
f 84//84 125//125 82//82
f 40//40 108//108 121//121
f 108//108 14//14 114//114
f 121//121 114//114 35//35
f 4//4 50//50 58//58
f 41//41 126//126 127//127
f 126//126 11//11 97//97
f 127//127 97//97 38//38
f 36//36 115//115 129//129
f 115//115 41//41 128//128
f 129//129 128//128 136//136
f 41//41 67//67 126//126
f 67//67 15//15 62//62
f 126//126 62//62 11//11
f 131//131 37//37 130//130
f 131//131 130//130 32//32
f 37//37 131//131 120//120
f 131//131 32//32 112//112
f 120//120 131//131 30//30
f 40//40 123//123 141//141
f 82//82 125//125 105//105
f 125//125 40//40 141//141
f 105//105 141//141 5//5
f 36//36 99//99 43//43
f 99//99 23//23 95//95
f 17//17 90//90 133//133
f 90//90 9//9 132//132
f 133//133 132//132 8//8
f 21//21 72//72 117//117
f 72//72 42//42 134//134
f 117//117 134//134 38//38
f 38//38 134//134 127//127
f 134//134 42//42 135//135
f 127//127 135//135 41//41
f 8//8 56//56 133//133
f 133//133 136//136 17//17
f 136//136 128//128 137//137
f 128//128 41//41 135//135
f 137//137 135//135 42//42
f 36//36 129//129 100//100
f 129//129 136//136 56//56
f 100//100 56//56 27//27
f 136//136 137//137 17//17
f 10//10 77//77 138//138
f 77//77 18//18 71//71
f 138//138 71//71 24//24
f 39//39 140//140 119//119
f 95//95 23//23 16//16
f 76//76 96//96 18//18
f 39//39 139//139 140//140
f 139//139 36//36 43//43
f 77//77 37//37 76//76
f 36//36 139//139 115//115
f 37//37 10//10 130//130
f 37//37 119//119 76//76
f 74//74 50//50 47//47
f 140//140 43//43 96//96
f 76//76 140//140 96//96
f 119//119 140//140 76//76
f 49//49 50//50 4//4
f 53//53 5//5 141//141
f 142//142 53//53 141//141
f 54//54 142//142 7//7
f 142//142 123//123 7//7
# 241 faces, 0 coords texture

# End of File
