####
#
# OBJ File Generated by Meshlab
#
####
# Object 931_C156_M_7.obj
#
# Vertices: 141
# Faces: 240
#
####
vn 5.615858 -2.817079 0.056710
v -72.011449 94.713375 -47.162606
vn 5.564668 -2.917476 0.009130
v -70.967189 96.797788 -44.694607
vn 5.571365 -2.904409 0.045431
v -71.803031 95.203534 -43.743495
vn 5.526275 -2.987913 0.019530
v -70.080677 98.506346 -41.663247
vn 5.610940 -2.827401 0.005762
v -71.448833 95.835715 -48.530806
vn 2.774326 -1.473629 -0.011998
v -69.991400 98.668600 -50.000000
vn 2.768379 -1.481584 -0.003508
v -69.267800 100.000000 -48.268800
vn 2.780625 -1.462097 0.000464
v -70.678400 97.347600 -38.000000
vn 2.810280 -1.404132 -0.011475
v -72.917700 93.016800 -38.000000
vn 1.415138 -0.690172 -0.012006
v -73.413600 92.000000 -38.000000
vn 5.565307 -2.916294 -0.007645
v -70.356383 97.957127 -48.093534
vn 2.790480 -1.443050 -0.017403
v -71.811100 95.194100 -38.000000
vn 2.754666 -1.513287 -0.000487
v -69.252700 100.000000 -40.172900
vn 5.556343 -2.933273 -0.004507
v -70.939094 96.877187 -40.787862
vn 5.514103 -3.011455 0.030401
v -70.046521 98.521820 -43.752008
vn 2.747450 -1.535626 0.030918
v -69.240400 100.000000 -42.592800
vn 5.535835 -2.971863 -0.018981
v -70.099004 98.444733 -39.575986
vn 5.589033 -2.870396 0.024619
v -71.125141 96.482367 -46.611715
vn 5.597896 -2.851240 0.045241
v -72.679009 93.545264 -43.002711
vn 2.814930 -1.394889 0.009012
v -71.930000 94.856800 -50.000000
vn 2.798748 -1.426686 -0.008509
v -70.988900 96.752400 -50.000000
vn 5.558283 -2.929640 0.029489
v -70.931795 96.868693 -42.731623
vn 5.566235 -2.914574 0.020793
v -71.833162 95.165977 -41.772915
vn 1.381555 -0.748679 -0.001676
v -69.269900 100.000000 -50.000000
vn 5.603355 -2.840689 0.099924
v -72.567418 93.680953 -45.342665
vn 2.710817 -1.542240 -0.014953
v -69.199200 100.000000 -44.988900
vn 1.382089 -0.748686 0.000205
v -69.257500 100.000000 -38.000000
vn 2.774289 -1.473982 0.001217
v -70.327100 98.016800 -38.000000
vn 2.815684 -1.381497 0.002448
v -73.442200 92.000000 -42.491100
vn 2.776150 -1.501075 -0.017381
v -69.269700 100.000000 -47.455900
vn 2.738334 -1.538014 0.046494
v -69.211300 100.000000 -44.251600
vn 2.805416 -1.398082 0.046785
v -73.428200 92.000000 -44.462100
vn 2.813793 -1.393287 -0.020401
v -73.430200 92.000000 -39.956600
vn 2.819110 -1.399129 0.045275
v -73.355700 92.000000 -47.660600
vn 2.818059 -1.388562 0.009060
v -72.242600 94.225000 -50.000000
vn 1.412973 -0.695655 0.010886
v -73.333500 92.000000 -50.000000
vn 2.809641 -1.403315 0.061611
v -73.401600 92.000000 -45.664300
vn 5.591074 -2.866184 0.053665
v -71.738669 95.295981 -45.500790
vn 5.577026 -2.892994 -0.021964
v -71.822361 95.202003 -39.932751
vn 5.527006 -2.986541 -0.029666
v -70.161870 98.332366 -45.910046
vn 5.625262 -2.797543 0.086395
v -72.875963 92.971108 -47.539956
vn 5.607980 -2.832512 -0.034503
v -72.688430 93.518376 -41.072290
vn 5.600600 -2.846978 0.079020
v -71.869862 95.018926 -46.235912
vn 5.611834 -2.825399 0.039603
v -71.575498 95.583554 -46.901098
vn 5.596485 -2.855610 0.042172
v -71.460283 95.834521 -46.010355
vn 5.531196 -2.980134 -0.039060
v -70.083631 98.486950 -40.612300
vn 5.496838 -3.043192 -0.004654
v -69.664475 99.257886 -40.975047
vn 5.516462 -3.007696 -0.013605
v -69.668082 99.237511 -39.889589
vn 2.779461 -1.464300 -0.004732
v -71.244750 96.270850 -38.000000
vn 5.555607 -2.934747 -0.021334
v -71.035267 96.669870 -38.786050
vn 5.580933 -2.885270 -0.045141
v -71.818858 95.195954 -39.023539
vn 5.550049 -2.945099 -0.041777
v -71.394949 96.000646 -39.399474
vn 5.631391 -2.786289 -0.027132
v -73.175130 92.505158 -38.931057
vn 2.823592 -1.377084 -0.023956
v -73.421900 92.000000 -38.978300
vn 5.623012 -2.803518 0.011966
v -71.747775 95.238767 -47.905646
vn 5.600009 -2.849004 0.016475
v -71.276817 96.177490 -47.558358
vn 5.561135 -2.923859 0.052213
v -70.496624 97.705942 -42.232774
vn 5.557954 -2.930188 -0.003253
v -70.504751 97.701487 -41.230205
vn 5.563559 -2.919602 0.033555
v -70.935747 96.872756 -41.755400
vn 5.614953 -2.818922 -0.064663
v -72.649613 93.569980 -40.123435
vn 5.594301 -2.859802 -0.024175
v -72.259077 94.353241 -40.498509
vn 5.607302 -2.834339 -0.054001
v -72.228582 94.391393 -39.588666
vn 5.488047 -3.058237 0.080065
v -69.630370 99.287130 -43.151587
vn 5.487823 -3.059353 0.045201
v -69.652706 99.268720 -42.096024
vn 5.525502 -2.989677 0.068065
v -70.060702 98.520415 -42.709326
vn 5.550787 -2.943778 -0.036297
v -70.948216 96.846743 -39.795606
vn 5.550097 -2.945097 -0.035022
v -70.508863 97.680188 -40.201368
vn 5.570921 -2.905699 0.010994
v -70.644165 97.406508 -46.282619
vn 5.559705 -2.926890 -0.011525
v -70.563911 97.566318 -45.271761
vn 5.577542 -2.892898 0.015988
v -71.026526 96.678132 -45.659852
vn 5.562022 -2.922574 0.029287
v -71.384300 96.025341 -41.277541
vn 5.560336 -2.925763 0.031326
v -71.380805 96.020703 -42.232419
vn 5.560021 -2.926378 0.029914
v -71.820334 95.181061 -42.740663
vn 5.562603 -2.921544 0.017110
v -71.374073 96.024164 -43.209248
vn 5.552619 -2.940430 0.005992
v -70.939342 96.852525 -43.715593
vn 5.571449 -2.904440 0.028455
v -71.379398 96.012322 -44.182562
vn 5.535480 -2.972470 -0.027414
v -69.688570 99.223797 -49.136145
vn 2.762466 -1.496114 -0.005370
v -69.630650 99.334300 -50.000000
vn 2.763145 -1.494863 -0.004031
v -69.268850 100.000000 -49.134400
vn 5.556077 -2.933782 -0.007753
v -71.382827 96.036003 -40.340611
vn 5.571993 -2.903511 0.024019
v -71.831953 95.176171 -40.845454
vn 5.576837 -2.894268 0.001624
v -72.272567 94.319902 -41.405795
vn 5.581419 -2.884331 0.077329
v -72.193420 94.429147 -44.443970
vn 5.566860 -2.912575 0.065332
v -72.242107 94.372126 -43.358356
vn 5.592852 -2.861141 0.100795
v -72.634420 93.593725 -44.108988
vn 5.539409 -2.965278 -0.003735
v -70.117000 98.409070 -38.713116
vn 5.525185 -2.991734 0.001180
v -69.697529 99.187457 -38.877208
vn 2.765074 -1.491288 -0.005674
v -69.792300 99.008400 -38.000000
vn 5.567041 -2.912971 0.008098
v -72.267649 94.335738 -42.342266
vn 2.737867 -1.538690 -0.078241
v -69.234450 100.000000 -46.222400
vn 5.461635 -3.104165 -0.082103
v -69.659678 99.205120 -45.470151
vn 5.510478 -3.015902 -0.072556
v -69.734621 99.130478 -46.624689
vn 2.739493 -1.537050 0.047524
v -69.225850 100.000000 -43.422200
vn 5.466408 -3.097072 0.047341
v -69.576480 99.349519 -44.261617
vn 2.820292 -1.383872 0.021297
v -73.435200 92.000000 -43.476600
vn 5.626059 -2.796181 0.074744
v -73.051479 92.777105 -43.745123
vn 5.636277 -2.776549 0.016969
v -73.071685 92.753624 -42.719281
vn 5.554449 -2.937032 -0.011663
v -70.534898 97.619788 -39.004403
vn 5.605839 -2.835720 0.103690
v -72.287367 94.198494 -46.334559
vn 5.592654 -2.862782 0.069761
v -72.096105 94.599925 -45.429015
vn 2.740610 -1.535731 0.013930
v -69.246550 100.000000 -41.382850
vn 5.558820 -2.928479 -0.028626
v -70.177645 98.306002 -49.094180
vn 5.544381 -2.955899 -0.025487
v -69.848803 98.912964 -48.404657
vn 5.621473 -2.806136 -0.039727
v -72.986283 92.882993 -39.659046
vn 5.610925 -2.827561 -0.023773
v -72.729105 93.393713 -38.973480
vn 2.820159 -1.384236 0.014004
v -72.788050 93.112500 -50.000000
vn 5.636412 -2.776252 0.039981
v -72.955339 92.780472 -49.209273
vn 2.815224 -1.394091 0.025018
v -73.344600 92.000000 -48.830300
vn 5.631964 -2.785090 0.050144
v -73.044494 92.612193 -48.428798
vn 5.630611 -2.788178 0.026104
v -72.212981 94.297009 -48.283918
vn 5.618301 -2.810465 0.120008
v -72.964879 92.869550 -45.760372
vn 5.622276 -2.802285 0.124700
v -73.112727 92.536722 -46.628418
vn 5.617643 -2.811776 0.120009
v -72.705916 93.356293 -46.493658
vn 5.545745 -2.953340 -0.016460
v -70.503555 97.666179 -44.252172
vn 5.500535 -3.035009 -0.024991
v -70.088719 98.455628 -44.823509
vn 5.545195 -2.954511 0.006603
v -69.789895 99.022327 -47.644757
vn 5.558109 -2.930011 0.008358
v -70.245649 98.169985 -46.978074
vn 2.820862 -1.382809 -0.013356
v -73.436200 92.000000 -41.223850
vn 5.637006 -2.775237 -0.022213
v -73.074993 92.741441 -41.699766
vn 5.630903 -2.787029 -0.050648
v -73.053806 92.774270 -40.623941
vn 5.615830 -2.815649 0.113463
v -73.011747 92.815459 -44.844827
vn 5.586658 -2.875127 -0.004367
v -70.955641 96.792989 -48.274244
vn 5.578413 -2.891197 0.017016
v -70.765635 97.172266 -47.295083
vn 5.548779 -2.947290 0.039388
v -70.483964 97.705012 -43.241477
vn 2.786625 -1.450610 -0.007720
v -70.490150 97.710500 -50.000000
vn 5.581354 -2.885417 -0.028179
v -70.694886 97.312367 -49.091361
vn 5.581655 -2.884785 0.032693
v -71.392872 95.969224 -45.116800
vn 5.584217 -2.879564 0.053374
v -71.779768 95.230540 -44.711323
vn 2.813060 -1.398655 0.007569
v -71.459450 95.804600 -50.000000
vn 5.605223 -2.838632 -0.015189
v -71.186025 96.357009 -49.191764
vn 5.632687 -2.783801 0.040463
v -72.672024 93.368348 -48.411816
vn 5.622091 -2.804022 0.076119
v -72.443171 93.842337 -47.381085
vn 2.812791 -1.397723 0.064673
v -73.378650 92.000000 -46.662450
vn 2.759744 -1.501127 0.006083
v -69.255100 100.000000 -39.086450
vn 5.606343 -2.836495 -0.035755
v -72.185820 94.462164 -38.745379
vn 2.800826 -1.422986 -0.009495
v -72.364400 94.105450 -38.000000
vn 5.603298 -2.841878 -0.014206
v -72.694678 93.513496 -42.019505
vn 5.628525 -2.792444 0.019084
v -71.739224 95.247343 -49.097042
vn 5.553971 -2.937758 -0.033098
v -71.467486 95.850995 -38.592067
vn 5.637196 -2.774821 0.027384
v -72.502592 93.701112 -49.202702
vn 5.633225 -2.782950 0.018760
v -72.136631 94.444233 -49.215122
# 141 vertices, 0 vertices normals

f 43//43 44//44 45//45
f 46//46 47//47 48//48
f 49//49 12//12 139//139
f 51//51 52//52 139//139
f 33//33 53//53 54//54
f 44//44 55//55 56//56
f 57//57 58//58 59//59
f 60//60 61//61 62//62
f 63//63 64//64 65//65
f 66//66 67//67 98//98
f 68//68 69//69 70//70
f 59//59 71//71 72//72
f 73//73 74//74 72//72
f 75//75 74//74 76//76
f 58//58 46//46 67//67
f 77//77 78//78 79//79
f 80//80 81//81 71//71
f 61//61 82//82 81//81
f 83//83 84//84 85//85
f 86//86 87//87 88//88
f 73//73 89//89 84//84
f 90//90 91//91 92//92
f 93//93 63//63 94//94
f 95//95 96//96 97//97
f 50//50 98//98 8//8
f 99//99 43//43 100//100
f 101//101 47//47 64//64
f 102//102 77//77 103//103
f 36//36 106//106 107//107
f 108//108 36//36 107//107
f 111//111 112//112 113//113
f 114//114 69//69 115//115
f 11//11 103//103 116//116
f 92//92 117//117 116//116
f 118//118 119//119 120//120
f 25//25 121//121 111//111
f 85//85 96//96 121//121
f 56//56 122//122 123//123
f 114//114 124//124 75//75
f 65//65 57//57 124//124
f 125//125 102//102 126//126
f 127//127 76//76 128//128
f 127//127 45//45 70//70
f 5//5 138//138 129//129
f 68//68 123//123 117//117
f 100//100 128//128 83//83
f 80//80 66//66 52//52
f 131//131 110//110 132//132
f 99//99 113//113 132//132
f 112//112 37//37 133//133
f 115//115 91//91 94//94
f 130//130 126//126 122//122
f 48//48 134//134 87//87
f 105//105 135//135 136//136
f 62//62 51//51 135//135
f 137//137 89//89 82//82
f 119//119 97//97 137//137
f 60//60 104//104 120//120
f 38//38 43//43 45//45
f 43//43 1//1 44//44
f 45//45 44//44 18//18
f 17//17 46//46 48//48
f 46//46 4//4 47//47
f 48//48 47//47 13//13
f 8//8 49//49 50//50
f 51//51 39//39 52//52
f 53//53 10//10 54//54
f 10//10 53//53 9//9
f 18//18 44//44 56//56
f 44//44 1//1 55//55
f 56//56 55//55 5//5
f 22//22 57//57 59//59
f 57//57 4//4 58//58
f 59//59 58//58 14//14
f 60//60 42//42 61//61
f 62//62 61//61 39//39
f 15//15 63//63 65//65
f 63//63 16//16 64//64
f 65//65 64//64 4//4
f 50//50 66//66 98//98
f 66//66 14//14 67//67
f 98//98 67//67 17//17
f 18//18 68//68 70//70
f 68//68 40//40 69//69
f 70//70 69//69 2//2
f 22//22 59//59 72//72
f 59//59 14//14 71//71
f 72//72 71//71 23//23
f 23//23 73//73 72//72
f 73//73 3//3 74//74
f 72//72 74//74 22//22
f 2//2 75//75 76//76
f 75//75 22//22 74//74
f 76//76 74//74 3//3
f 14//14 58//58 67//67
f 58//58 4//4 46//46
f 67//67 46//46 17//17
f 7//7 77//77 79//79
f 77//77 6//6 78//78
f 79//79 78//78 24//24
f 14//14 80//80 71//71
f 80//80 39//39 81//81
f 71//71 81//81 23//23
f 39//39 61//61 81//81
f 61//61 42//42 82//82
f 81//81 82//82 23//23
f 25//25 83//83 85//85
f 83//83 3//3 84//84
f 85//85 84//84 19//19
f 28//28 86//86 88//88
f 86//86 17//17 87//87
f 88//88 87//87 27//27
f 3//3 73//73 84//84
f 73//73 23//23 89//89
f 84//84 89//89 19//19
f 30//30 90//90 92//92
f 90//90 26//26 91//91
f 92//92 91//91 40//40
f 31//31 93//93 94//94
f 93//93 16//16 63//63
f 94//94 63//63 15//15
f 29//29 95//95 97//97
f 95//95 32//32 96//96
f 97//97 96//96 19//19
f 98//98 28//28 8//8
f 25//25 99//99 100//100
f 99//99 1//1 43//43
f 100//100 43//43 38//38
f 16//16 101//101 64//64
f 101//101 13//13 47//47
f 64//64 47//47 4//4
f 28//28 98//98 86//86
f 86//86 98//98 17//17
f 11//11 102//102 103//103
f 102//102 6//6 77//77
f 103//103 77//77 7//7
f 53//53 33//33 104//104
f 20//20 138//138 141//141
f 106//106 35//35 140//140
f 34//34 109//109 41//41
f 109//109 34//34 108//108
f 110//110 55//55 1//1
f 25//25 111//111 113//113
f 111//111 37//37 112//112
f 113//113 112//112 41//41
f 26//26 31//31 94//94
f 15//15 114//114 115//115
f 114//114 2//2 69//69
f 115//115 69//69 40//40
f 7//7 116//116 103//103
f 116//116 7//7 30//30
f 30//30 92//92 116//116
f 92//92 40//40 117//117
f 116//116 117//117 11//11
f 33//33 118//118 120//120
f 118//118 29//29 119//119
f 120//120 119//119 42//42
f 32//32 37//37 121//121
f 111//111 121//121 37//37
f 25//25 85//85 121//121
f 85//85 19//19 96//96
f 121//121 96//96 32//32
f 18//18 56//56 123//123
f 56//56 5//5 122//122
f 123//123 122//122 11//11
f 2//2 114//114 75//75
f 114//114 15//15 124//124
f 75//75 124//124 22//22
f 15//15 65//65 124//124
f 65//65 4//4 57//57
f 124//124 57//57 22//22
f 21//21 125//125 126//126
f 125//125 6//6 102//102
f 126//126 102//102 11//11
f 38//38 127//127 128//128
f 127//127 2//2 76//76
f 128//128 76//76 3//3
f 2//2 127//127 70//70
f 127//127 38//38 45//45
f 70//70 45//45 18//18
f 130//130 129//129 21//21
f 40//40 68//68 117//117
f 68//68 18//18 123//123
f 117//117 123//123 11//11
f 25//25 100//100 83//83
f 100//100 38//38 128//128
f 83//83 128//128 3//3
f 39//39 80//80 52//52
f 80//80 14//14 66//66
f 52//52 66//66 50//50
f 41//41 131//131 132//132
f 132//132 110//110 1//1
f 1//1 99//99 132//132
f 99//99 25//25 113//113
f 132//132 113//113 41//41
f 41//41 112//112 34//34
f 133//133 34//34 112//112
f 15//15 115//115 94//94
f 115//115 40//40 91//91
f 94//94 91//91 26//26
f 5//5 130//130 122//122
f 130//130 21//21 126//126
f 122//122 126//126 11//11
f 131//131 41//41 109//109
f 17//17 48//48 87//87
f 48//48 13//13 134//134
f 87//87 134//134 27//27
f 9//9 105//105 136//136
f 136//136 135//135 12//12
f 62//62 39//39 51//51
f 135//135 51//51 12//12
f 42//42 137//137 82//82
f 137//137 19//19 89//89
f 82//82 89//89 23//23
f 42//42 119//119 137//137
f 119//119 29//29 97//97
f 137//137 97//97 19//19
f 42//42 60//60 120//120
f 60//60 105//105 104//104
f 120//120 104//104 33//33
f 108//108 107//107 109//109
f 5//5 129//129 130//130
f 138//138 20//20 129//129
f 49//49 139//139 50//50
f 139//139 52//52 50//50
f 131//131 109//109 107//107
f 139//139 12//12 51//51
f 140//140 141//141 110//110
f 131//131 140//140 110//110
f 106//106 140//140 107//107
f 138//138 5//5 55//55
f 140//140 131//131 107//107
f 110//110 141//141 55//55
f 20//20 141//141 35//35
f 35//35 141//141 140//140
f 141//141 138//138 55//55
f 105//105 60//60 62//62
f 105//105 62//62 135//135
f 104//104 105//105 53//53
f 105//105 9//9 53//53
# 240 faces, 0 coords texture

# End of File
