####
#
# OBJ File Generated by Meshlab
#
####
# Object 940_C158_M_0.obj
#
# Vertices: 130
# Faces: 221
#
####
vn 2.940093 -1.101776 0.093382
v -73.663800 93.983100 50.000000
vn 1.465402 -0.542756 0.038315
v -74.390500 92.000000 50.000000
vn 5.825447 -2.348638 0.153079
v -72.156614 97.299795 41.370591
vn 2.897482 -1.208524 0.087900
v -72.169300 97.780300 50.000000
vn 2.888076 -1.239428 0.059803
v -71.079900 100.000000 42.531400
vn 2.900964 -1.202885 0.063311
v -71.034200 99.999900 40.279500
vn 2.886590 -1.253562 0.030827
v -71.129400 100.000000 44.943400
vn 5.799348 -2.416262 0.064568
v -71.786163 98.469395 46.621148
vn 5.788630 -2.435581 0.046994
v -71.698138 98.707722 44.942793
vn 2.883319 -1.236641 0.052575
v -71.151300 99.997700 47.576400
vn 2.904557 -1.195824 -0.000992
v -71.782400 98.177200 38.000000
vn 1.438652 -0.611499 0.014983
v -70.991300 100.000000 38.000000
vn 2.871245 -1.264257 0.065066
v -71.097300 100.000000 43.642500
vn 1.448128 -0.627847 0.033839
v -71.204900 100.000000 50.000000
vn 2.940193 -1.095879 0.060493
v -74.304450 92.000000 44.272075
vn 2.954229 -1.088432 0.050654
v -74.281100 92.000000 43.405100
vn 5.828015 -2.341772 0.139941
v -72.877568 95.653583 42.719962
vn 2.919907 -1.137530 0.078089
v -74.259100 92.000000 40.466100
vn 5.864243 -2.252863 0.090146
v -73.912205 92.956404 41.558248
vn 2.926583 -1.129735 0.021281
v -74.325300 92.000000 45.445600
vn 2.932205 -1.126668 0.054289
v -73.450700 93.922100 38.000000
vn 1.479992 -0.561811 0.045521
v -74.168200 92.000000 38.000000
vn 2.927850 -1.125747 0.046548
v -74.266500 92.000000 40.877800
vn 5.825382 -2.348617 0.144586
v -72.856108 95.516327 40.722361
vn 2.926892 -1.141392 0.013930
v -73.142300 94.725500 38.000000
vn 2.924227 -1.148052 0.015406
v -72.167900 97.187500 38.000000
vn 2.942267 -1.116645 0.048999
v -74.337300 92.000000 47.606500
vn 2.922812 -1.145470 0.099506
v -72.987900 95.755200 50.000000
vn 5.861567 -2.260649 0.061010
v -73.616229 93.824914 44.049909
vn 5.846103 -2.298305 0.125227
v -73.549464 93.904538 41.969788
vn 5.830662 -2.334868 0.168226
v -72.550016 96.691379 48.073410
vn 5.830642 -2.336957 0.138683
v -72.167278 97.437079 43.546100
vn 5.844870 -2.300092 0.149691
v -73.623109 93.588033 39.882362
vn 5.857258 -2.269842 0.123681
v -73.173568 94.998334 46.857110
vn 5.782613 -2.452390 0.151525
v -71.788337 98.570111 48.437818
vn 5.844109 -2.306766 0.049575
v -72.999056 95.404920 44.841361
vn 5.858608 -2.269105 0.054932
v -73.679717 93.659710 46.168063
vn 5.839852 -2.316683 0.079724
v -72.407793 96.923467 45.811114
vn 5.886517 -2.189616 0.179356
v -73.815823 93.493477 49.058532
vn 2.948676 -1.080532 0.085809
v -74.027150 92.991550 50.000000
vn 5.889859 -2.182766 0.149714
v -74.141664 92.614121 49.182357
vn 2.940116 -1.104989 0.065726
v -74.363900 92.000000 48.803250
vn 5.800167 -2.410878 0.148080
v -71.453545 99.096718 42.043875
vn 5.786739 -2.442254 0.149676
v -71.481116 99.095369 43.043945
vn 5.810754 -2.385438 0.144618
v -71.440438 99.064965 40.975901
vn 5.806583 -2.398133 0.089269
v -71.444281 98.980014 39.804430
vn 2.894386 -1.221339 0.021524
v -71.140350 99.998850 46.259900
vn 5.782061 -2.456914 0.085727
v -71.463198 99.245562 46.998949
vn 5.773924 -2.477388 0.001449
v -71.469258 99.211458 45.751978
vn 2.881873 -1.250740 0.007952
v -71.386850 99.088600 38.000000
vn 5.781514 -2.458684 0.057029
v -71.291854 99.312595 38.803903
vn 5.794989 -2.427039 -0.004197
v -71.655595 98.474852 38.861174
vn 5.783262 -2.449198 0.171257
v -71.958336 98.218933 49.157671
vn 5.763374 -2.498751 0.134666
v -71.544624 99.167473 49.091705
vn 2.880677 -1.251577 0.069731
v -71.687100 98.890150 50.000000
vn 5.767173 -2.490028 0.133613
v -71.485034 99.252334 48.076193
vn 2.882699 -1.247172 0.064937
v -71.178100 99.998850 48.788200
vn 2.894186 -1.220381 0.062829
v -71.057050 99.999950 41.405450
vn 5.873172 -2.226156 0.167278
v -73.688453 93.741512 48.003647
vn 5.867643 -2.238353 0.196034
v -73.410647 94.557124 48.927174
vn 5.792528 -2.429563 0.140127
v -71.801927 98.489164 47.610167
vn 2.928216 -1.132918 0.107934
v -74.213650 92.000000 39.233050
vn 5.870522 -2.231484 0.182750
v -73.885326 92.825087 38.986161
vn 5.854812 -2.271474 0.199124
v -73.972924 92.685631 39.898894
vn 5.818486 -2.367767 0.123470
v -73.224852 94.590919 40.343961
vn 5.820341 -2.358983 0.190151
v -73.196258 94.729708 41.335729
vn 5.829515 -2.338742 0.151042
v -73.564933 93.804194 40.958349
vn 5.748836 -2.533213 0.082563
v -71.385345 99.408128 44.646864
vn 5.781152 -2.453393 0.164994
v -71.564567 98.965674 44.003465
vn 5.837537 -2.322961 0.072719
v -72.543270 96.280665 40.091408
vn 5.832182 -2.336392 0.070367
v -72.890451 95.399455 39.767907
vn 5.886658 -2.194232 0.102883
v -73.939553 92.945828 43.660702
vn 5.869674 -2.240256 0.051354
v -73.977325 92.894070 44.727854
vn 2.920952 -1.156456 0.015938
v -72.655100 95.956500 38.000000
vn 5.839601 -2.318505 0.042771
v -72.528947 96.287800 38.940938
vn 5.834530 -2.331111 0.043522
v -72.272421 96.940448 39.385522
vn 5.846339 -2.299974 0.079647
v -73.247223 94.461354 38.588702
vn 2.943321 -1.098223 0.019193
v -74.273800 92.000000 42.141450
vn 5.803618 -2.405963 -0.036400
v -71.804279 98.436581 45.752378
vn 5.820784 -2.359076 0.176899
v -71.799917 98.344148 43.492545
vn 5.823471 -2.353217 0.164528
v -71.823004 98.235923 42.690288
vn 5.880956 -2.210820 0.065701
v -73.917092 92.966858 42.628141
vn 5.863086 -2.256490 0.098605
v -73.569478 93.898470 43.000782
vn 5.816819 -2.371709 0.117204
v -72.537112 96.508936 43.112278
vn 5.811268 -2.380258 0.202090
v -72.508513 96.500819 42.056492
vn 5.819232 -2.362700 0.176834
v -72.161056 97.367963 42.408395
vn 5.822045 -2.351970 0.224085
v -72.851570 95.622401 41.702177
vn 5.827407 -2.342890 0.157515
v -72.503891 96.414957 41.055942
vn 5.864372 -2.251266 0.137492
v -73.569391 93.994178 47.120975
vn 5.862822 -2.258088 0.078204
v -73.400660 94.393655 46.370005
vn 5.835217 -2.325086 0.129441
v -72.490973 96.774801 46.890649
vn 5.856136 -2.270935 0.162167
v -72.880271 95.795526 47.409999
vn 5.854801 -2.277720 0.094188
v -72.790517 95.963150 46.366041
vn 5.809707 -2.389239 0.130714
v -72.146881 97.629325 47.302534
vn 5.809038 -2.388169 0.171054
v -72.115427 97.763907 48.276121
vn 5.820199 -2.365380 0.048304
v -72.102344 97.685755 46.274752
vn 5.814751 -2.372753 0.191178
v -72.367296 97.221738 49.096174
vn 5.829138 -2.339322 0.164114
v -71.813907 98.182974 41.679008
vn 5.823829 -2.354771 0.123500
v -71.823593 98.089120 40.648166
vn 2.903077 -1.199635 0.051141
v -71.012750 99.999950 39.139750
vn 5.839584 -2.312558 0.159243
v -73.207025 94.796672 42.344135
vn 5.845682 -2.302002 0.081565
v -73.242671 94.750710 43.382561
vn 2.942376 -1.098366 0.074950
v -73.809450 92.961050 38.000000
vn 5.861117 -2.258911 0.135564
v -73.546832 93.720891 38.825520
vn 5.819971 -2.366954 0.034776
v -71.904206 97.853814 39.650699
vn 5.851746 -2.282989 0.152282
v -73.915657 92.889225 40.640497
vn 5.831886 -2.336086 0.098415
v -73.243898 94.510470 39.379348
vn 5.847164 -2.299277 0.029228
v -73.302063 94.629805 44.436749
vn 5.859463 -2.267878 0.023188
v -73.358451 94.482221 45.475051
vn 5.854923 -2.279967 -0.002728
v -73.658221 93.715623 45.110005
vn 5.858322 -2.261292 0.210662
v -73.114462 95.359787 49.271940
vn 5.851394 -2.280060 0.201859
v -72.997648 95.576503 48.408467
vn 5.835996 -2.319083 0.199089
v -72.774753 96.215703 49.121907
vn 2.933560 -1.120165 0.095169
v -73.325850 94.869150 50.000000
vn 5.828083 -2.346054 0.085385
v -72.195531 97.165511 40.376811
vn 2.911448 -1.176886 0.089519
v -72.578600 96.767750 50.000000
vn 5.839055 -2.314180 0.148079
v -71.937507 98.072802 44.298552
vn 5.846442 -2.299750 0.043239
v -72.046348 97.837211 45.284488
vn 5.848594 -2.293611 0.100308
v -72.304829 97.138649 44.725231
vn 5.833869 -2.332468 0.060437
v -72.923679 95.566037 43.775656
vn 5.860002 -2.259264 0.184224
v -73.283606 94.792560 47.797587
vn 5.840089 -2.316555 0.067808
v -72.701979 96.166911 45.304302
vn 5.830840 -2.339635 0.073823
v -72.599493 96.380731 44.206645
vn 5.856436 -2.275406 0.048673
v -73.082090 95.212339 45.877740
vn 2.928152 -1.138021 0.020636
v -74.331300 92.000000 46.526050
vn 5.853743 -2.282704 0.024475
v -73.998388 92.839630 45.827861
vn 5.864941 -2.251791 0.093250
v -73.972275 92.937319 47.052118
vn 5.840107 -2.316917 0.054341
v -72.928993 95.275898 38.785013
vn 5.840111 -2.317222 0.002210
v -72.047830 97.505849 38.748220
vn 5.880852 -2.207463 0.144242
v -74.025765 92.865961 48.242224
# 130 vertices, 0 vertices normals

f 39//39 40//40 41//41
f 47//47 48//48 49//49
f 50//50 51//51 52//52
f 5//5 13//13 44//44
f 53//53 54//54 55//55
f 56//56 57//57 54//54
f 58//58 43//43 45//45
f 15//15 16//16 72//72
f 39//39 59//59 60//60
f 61//61 48//48 56//56
f 62//62 63//63 64//64
f 65//65 66//66 67//67
f 9//9 69//69 68//68
f 70//70 71//71 75//75
f 74//74 26//26 75//75
f 106//106 18//18 64//64
f 21//21 25//25 77//77
f 16//16 78//78 82//82
f 68//68 49//49 9//9
f 44//44 80//80 81//81
f 84//84 85//85 86//86
f 87//87 88//88 85//85
f 91//91 92//92 93//93
f 94//94 61//61 95//95
f 94//94 91//91 96//96
f 95//95 53//53 97//97
f 98//98 99//99 45//45
f 51//51 100//100 46//46
f 83//83 101//101 102//102
f 63//63 103//103 104//104
f 52//52 105//105 129//129
f 67//67 19//19 106//106
f 87//87 101//101 66//66
f 71//71 65//65 107//107
f 72//72 73//73 15//15
f 108//108 109//109 110//110
f 111//111 112//112 113//113
f 111//111 114//114 60//60
f 81//81 86//86 98//98
f 115//115 105//105 99//99
f 115//115 88//88 70//70
f 116//116 113//113 97//97
f 117//117 118//118 119//119
f 107//107 104//104 77//77
f 64//64 33//33 106//106
f 9//9 117//117 69//69
f 102//102 120//120 108//108
f 27//27 127//127 130//130
f 92//92 112//112 121//121
f 122//122 123//123 119//119
f 122//122 93//93 124//124
f 127//127 125//125 126//126
f 110//110 126//126 73//73
f 120//120 84//84 123//123
f 89//89 121//121 59//59
f 109//109 124//124 90//90
f 96//96 118//118 79//79
f 130//130 39//39 41//41
f 39//39 1//1 40//40
f 2//2 42//42 41//41
f 42//42 27//27 130//130
f 43//43 5//5 44//44
f 6//6 45//45 46//46
f 7//7 47//47 49//49
f 47//47 10//10 48//48
f 49//49 48//48 8//8
f 11//11 50//50 52//52
f 50//50 12//12 51//51
f 52//52 51//51 46//46
f 4//4 53//53 55//55
f 53//53 35//35 54//54
f 55//55 54//54 14//14
f 35//35 56//56 54//54
f 56//56 10//10 57//57
f 54//54 57//57 14//14
f 6//6 58//58 45//45
f 58//58 5//5 43//43
f 1//1 39//39 60//60
f 35//35 61//61 56//56
f 61//61 8//8 48//48
f 56//56 48//48 10//10
f 18//18 62//62 64//64
f 62//62 22//22 63//63
f 64//64 63//63 33//33
f 33//33 65//65 67//67
f 65//65 24//24 66//66
f 67//67 66//66 30//30
f 13//13 7//7 68//68
f 13//13 69//69 44//44
f 76//76 70//70 75//75
f 70//70 24//24 71//71
f 75//75 71//71 128//128
f 20//20 15//15 73//73
f 73//73 72//72 29//29
f 25//25 74//74 128//128
f 74//74 75//75 128//128
f 77//77 25//25 128//128
f 78//78 19//19 82//82
f 19//19 78//78 23//23
f 68//68 7//7 49//49
f 79//79 49//49 8//8
f 43//43 44//44 81//81
f 81//81 80//80 32//32
f 83//83 82//82 30//30
f 75//75 26//26 76//76
f 129//129 26//26 11//11
f 32//32 84//84 86//86
f 84//84 17//17 85//85
f 86//86 85//85 3//3
f 17//17 87//87 85//85
f 87//87 24//24 88//88
f 85//85 88//88 3//3
f 89//89 37//37 90//90
f 89//89 90//90 34//34
f 38//38 91//91 93//93
f 91//91 31//31 92//92
f 93//93 92//92 34//34
f 31//31 94//94 95//95
f 94//94 8//8 61//61
f 95//95 61//61 35//35
f 8//8 94//94 96//96
f 94//94 31//31 91//91
f 96//96 91//91 38//38
f 31//31 95//95 97//97
f 95//95 35//35 53//53
f 97//97 53//53 4//4
f 43//43 98//98 45//45
f 98//98 3//3 99//99
f 45//45 99//99 46//46
f 51//51 12//12 100//100
f 46//46 100//100 6//6
f 29//29 83//83 102//102
f 83//83 30//30 101//101
f 102//102 101//101 17//17
f 33//33 63//63 104//104
f 63//63 22//22 103//103
f 104//104 103//103 21//21
f 11//11 52//52 129//129
f 52//52 46//46 105//105
f 129//129 105//105 76//76
f 33//33 67//67 106//106
f 67//67 30//30 19//19
f 24//24 87//87 66//66
f 87//87 17//17 101//101
f 66//66 101//101 30//30
f 128//128 71//71 107//107
f 71//71 24//24 65//65
f 107//107 65//65 33//33
f 29//29 108//108 110//110
f 108//108 36//36 109//109
f 110//110 109//109 37//37
f 28//28 111//111 113//113
f 111//111 60//60 112//112
f 113//113 112//112 31//31
f 111//111 28//28 114//114
f 60//60 114//114 1//1
f 43//43 81//81 98//98
f 81//81 32//32 86//86
f 98//98 86//86 3//3
f 3//3 115//115 99//99
f 115//115 76//76 105//105
f 99//99 105//105 46//46
f 76//76 115//115 70//70
f 115//115 3//3 88//88
f 70//70 88//88 24//24
f 4//4 116//116 97//97
f 116//116 28//28 113//113
f 97//97 113//113 31//31
f 32//32 117//117 119//119
f 117//117 9//9 118//118
f 119//119 118//118 38//38
f 128//128 107//107 77//77
f 107//107 33//33 104//104
f 77//77 104//104 21//21
f 23//23 106//106 19//19
f 106//106 23//23 18//18
f 30//30 82//82 19//19
f 69//69 117//117 80//80
f 117//117 32//32 80//80
f 69//69 80//80 44//44
f 29//29 102//102 108//108
f 102//102 17//17 120//120
f 108//108 120//120 36//36
f 127//127 37//37 89//89
f 34//34 92//92 121//121
f 92//92 31//31 112//112
f 121//121 112//112 60//60
f 38//38 122//122 119//119
f 122//122 36//36 123//123
f 119//119 123//123 32//32
f 36//36 122//122 124//124
f 122//122 38//38 93//93
f 124//124 93//93 34//34
f 37//37 127//127 126//126
f 127//127 27//27 125//125
f 126//126 125//125 20//20
f 29//29 110//110 73//73
f 110//110 37//37 126//126
f 73//73 126//126 20//20
f 36//36 120//120 123//123
f 120//120 17//17 84//84
f 123//123 84//84 32//32
f 89//89 34//34 121//121
f 59//59 121//121 60//60
f 37//37 109//109 90//90
f 109//109 36//36 124//124
f 90//90 124//124 34//34
f 8//8 96//96 79//79
f 96//96 38//38 118//118
f 79//79 118//118 9//9
f 127//127 89//89 59//59
f 68//68 69//69 13//13
f 9//9 49//49 79//79
f 83//83 72//72 82//82
f 26//26 129//129 76//76
f 29//29 72//72 83//83
f 16//16 82//82 72//72
f 41//41 40//40 2//2
f 42//42 130//130 41//41
f 39//39 130//130 59//59
f 59//59 130//130 127//127
# 221 faces, 0 coords texture

# End of File
