####
#
# OBJ File Generated by Meshlab
#
####
# Object 948_C159_M_0.obj
#
# Vertices: 132
# Faces: 224
#
####
vn 2.939819 -1.103923 0.069184
v -74.403700 94.168400 50.000000
vn 1.470235 -0.530816 0.029531
v -75.190300 92.000000 50.000000
vn 5.812526 -2.378168 0.191428
v -72.270590 99.212348 43.402047
vn 5.827741 -2.341840 0.169243
v -73.075088 97.030241 41.250928
vn 5.839832 -2.315761 0.102244
v -72.876448 97.832757 45.535064
vn 2.910787 -1.180945 0.083653
v -71.926100 100.000000 42.639200
vn 5.854806 -2.278279 0.091129
v -73.603118 95.933756 44.639293
vn 2.897979 -1.226343 0.050842
v -71.985200 100.000000 45.000000
vn 2.898960 -1.204848 0.038588
v -72.001700 100.000000 46.567900
vn 2.906757 -1.190559 0.003401
v -72.222400 99.108400 38.000000
vn 1.437289 -0.614518 0.018444
v -71.835400 100.000000 38.000000
vn 2.911899 -1.192241 0.020710
v -71.855600 100.000000 39.064700
vn 2.892448 -1.219399 0.060704
v -72.021700 100.000000 47.848300
vn 2.898499 -1.206544 0.073812
v -72.601700 98.772500 50.000000
vn 1.447189 -0.631104 0.030064
v -72.066400 100.000000 50.000000
vn 2.934574 -1.097795 0.067367
v -75.117500 92.000400 45.369200
vn 2.962957 -1.064841 0.054963
v -75.049400 92.000000 43.268300
vn 5.860249 -2.262034 0.137096
v -73.544280 96.189157 46.717068
vn 2.940046 -1.084106 0.092123
v -74.986700 92.000000 38.818100
vn 5.874217 -2.220834 0.140819
v -74.491152 93.433913 39.783794
vn 2.941507 -1.097057 0.114222
v -74.756900 92.531900 38.000000
vn 1.481907 -0.556098 0.054704
v -74.956500 92.000000 38.000000
vn 2.955223 -1.056723 0.041889
v -75.030100 92.000000 41.242500
vn 2.960085 -1.062449 0.048596
v -75.140900 92.000000 47.722300
vn 2.926771 -1.141161 0.045951
v -73.836600 95.002300 38.000000
vn 5.839534 -2.317720 0.062479
v -72.575349 98.210028 39.728882
vn 2.905661 -1.171882 0.047437
v -71.862400 100.000000 40.284000
vn 2.923007 -1.151197 0.012540
v -72.971800 97.184500 38.000000
vn 2.924420 -1.144994 0.068520
v -73.462600 96.608200 50.000000
vn 5.878997 -2.211193 0.107052
v -74.426819 93.710502 41.919367
vn 5.879794 -2.212707 0.078807
v -74.361956 93.950268 43.993218
vn 5.828482 -2.341548 0.139258
v -73.779197 95.222913 40.524425
vn 5.838850 -2.313696 0.147771
v -73.706338 95.607461 42.631431
vn 5.831705 -2.332318 0.167493
v -72.897949 97.653665 43.337766
vn 5.865214 -2.249744 0.114696
v -74.243249 94.305411 45.939097
vn 5.906213 -2.139954 0.123669
v -74.865158 92.808541 48.395711
vn 5.867183 -2.243179 0.150240
v -74.212185 94.519677 47.782024
vn 5.895565 -2.168313 0.132644
v -74.628119 93.505314 49.125762
vn 2.952839 -1.071160 0.054445
v -74.797000 93.084200 50.000000
vn 5.908262 -2.134578 0.119347
v -74.927414 92.688287 49.283811
vn 5.822609 -2.352001 0.209057
v -72.542991 98.516963 43.143959
vn 5.824977 -2.346701 0.202597
v -72.630244 98.237672 42.417622
vn 2.891147 -1.228799 0.030425
v -71.993450 100.000000 45.783950
vn 5.806687 -2.399187 0.020363
v -72.093119 99.418352 38.703928
vn 5.779696 -2.458965 0.154313
v -72.304016 99.396954 48.823440
vn 2.880423 -1.252631 0.060687
v -72.044050 100.000000 48.924150
vn 2.879389 -1.254974 0.061358
v -72.334050 99.386250 50.000000
vn 5.813992 -2.376798 0.156054
v -72.749689 98.348708 49.112173
vn 5.796018 -2.421068 0.146886
v -72.482409 98.915683 48.129426
vn 5.846004 -2.298617 0.136905
v -73.254835 97.072004 48.952263
vn 5.857950 -2.267654 0.142479
v -73.681908 95.980063 48.985068
vn 5.848313 -2.293531 0.123643
v -73.208542 97.017040 46.146592
vn 5.862327 -2.257874 0.111188
v -73.569360 96.070159 45.645440
vn 5.847614 -2.295335 0.123139
v -73.237141 96.888959 45.051876
vn 5.852005 -2.278726 0.160834
v -74.209329 94.111132 39.050533
vn 5.887016 -2.184636 0.219921
v -74.586218 93.080851 38.844568
vn 2.939399 -1.103264 0.110882
v -74.296750 93.767100 38.000000
vn 5.907047 -2.136136 0.142039
v -74.763303 92.661105 39.546113
vn 2.955994 -1.061895 0.063890
v -75.165600 92.000000 48.861150
vn 5.842289 -2.311921 -0.004314
v -72.402762 98.648187 38.839921
vn 5.827982 -2.347063 0.044881
v -72.187616 99.180238 39.741330
vn 5.802298 -2.405017 0.146563
v -72.289530 99.253383 44.457127
vn 2.919815 -1.159284 0.018445
v -73.404200 96.093400 38.000000
vn 5.832430 -2.336070 0.059198
v -73.621258 95.561708 38.830500
vn 5.798934 -2.415965 0.116050
v -72.430973 98.995770 47.132672
vn 5.844342 -2.302421 0.144298
v -73.184669 97.167243 47.645533
vn 5.814401 -2.379381 0.068093
v -72.482000 98.813399 46.061725
vn 2.930544 -1.130061 0.066935
v -73.933150 95.388300 50.000000
vn 2.957676 -1.057809 0.052915
v -75.008400 92.000000 40.030300
vn 5.913634 -2.120623 0.101313
v -74.747761 92.751695 40.489361
vn 5.835574 -2.326442 0.109194
v -73.150715 96.789732 40.276851
vn 5.827450 -2.342060 0.175328
v -73.430115 96.122965 40.925782
vn 5.833743 -2.331780 0.088187
v -73.497572 95.901024 39.889705
vn 2.959369 -1.054010 0.028301
v -75.039750 92.000000 42.255400
vn 5.915157 -2.117241 0.077916
v -74.739384 92.824642 41.563455
vn 5.918734 -2.107991 0.058147
v -74.729564 92.880460 42.607174
vn 5.863946 -2.249922 0.114279
v -74.451048 93.592597 40.844585
vn 5.833210 -2.331363 0.083953
v -72.585308 98.556791 45.024528
vn 5.836989 -2.322571 0.116737
v -72.808774 97.663074 40.528672
vn 5.830844 -2.338077 0.113505
v -72.459206 98.548318 40.693014
vn 5.830820 -2.334899 0.161275
v -72.717345 97.940015 41.488786
vn 5.839934 -2.315518 0.104748
v -73.260572 96.769793 44.010248
vn 5.850115 -2.288462 0.131787
v -72.908512 97.692002 44.485620
vn 2.897072 -1.212350 0.082001
v -71.955650 100.000000 43.819600
vn 5.862151 -2.260186 0.071359
v -74.029523 94.791545 43.314250
vn 5.891466 -2.181277 0.067949
v -74.398152 93.821478 42.969926
vn 5.853229 -2.278339 0.147485
v -74.072675 94.643830 42.280811
vn 2.927071 -1.140978 0.005180
v -72.597100 98.146450 38.000000
vn 5.847661 -2.298357 0.022214
v -72.800369 97.629561 38.864571
vn 5.837460 -2.322588 0.076573
v -72.904728 97.377198 39.666592
vn 5.863566 -2.254835 0.099154
v -74.601280 93.358884 45.615025
vn 5.866184 -2.250205 0.052368
v -74.306293 94.118198 44.975324
vn 5.871203 -2.233570 0.133164
v -73.889808 95.253893 46.266300
vn 5.865801 -2.246407 0.156204
v -73.881895 95.345751 47.257105
vn 5.863912 -2.250864 0.162662
v -74.204056 94.474655 46.870040
vn 5.851574 -2.284026 0.143732
v -73.440413 96.527688 47.845452
vn 2.951778 -1.074933 0.033422
v -75.129200 92.000200 46.545750
vn 5.879473 -2.212679 0.102702
v -74.860700 92.722488 46.164688
vn 5.896179 -2.168386 0.100780
v -74.814393 92.891927 47.271305
vn 5.819669 -2.359078 0.210735
v -72.999693 97.306093 42.253849
vn 5.824104 -2.351884 0.147158
v -73.316142 96.595942 42.975492
vn 5.816778 -2.365162 0.222312
v -73.378072 96.350438 41.944963
vn 2.916168 -1.165833 0.079962
v -71.894250 100.000000 41.461600
vn 5.830247 -2.336491 0.162001
v -72.336794 98.900780 41.629759
vn 5.826290 -2.348520 0.128047
v -72.143531 99.334224 40.826596
vn 2.948206 -1.081493 0.089559
v -75.083450 92.000200 44.318750
vn 5.909471 -2.129915 0.123532
v -74.714052 92.952860 43.644449
vn 5.847250 -2.298130 0.072477
v -73.650174 95.782951 43.642018
vn 5.861524 -2.262164 0.059481
v -73.980270 94.947399 44.308499
vn 5.826338 -2.350935 0.072883
v -73.844179 95.027861 39.433266
vn 5.822277 -2.359749 0.101080
v -74.135368 94.327434 40.117742
vn 5.831011 -2.329536 0.223555
v -73.744503 95.411845 41.589656
vn 5.829882 -2.336096 0.173602
v -74.096029 94.483565 41.215114
vn 5.832519 -2.329369 0.173541
v -72.600559 98.452699 43.987135
vn 5.868446 -2.243278 0.079955
v -73.927202 95.108280 45.284323
vn 5.884308 -2.198975 0.131633
v -74.546215 93.659885 48.121002
vn 5.872753 -2.228765 0.141258
v -74.468752 93.822964 47.346483
vn 5.871957 -2.230570 0.150756
v -74.287595 94.389785 48.787716
vn 5.864319 -2.250786 0.148793
v -73.930636 95.286943 48.279819
vn 5.866636 -2.244960 0.143129
v -74.546743 93.565440 46.581234
vn 2.918299 -1.161493 0.063766
v -73.032150 97.690350 50.000000
vn 5.813867 -2.378707 0.130053
v -72.792230 98.146566 47.534086
vn 5.822458 -2.357544 0.129054
v -72.824912 98.014598 46.574249
vn 5.863007 -2.254537 0.143280
v -74.047197 95.048301 49.256840
vn 5.825907 -2.345550 0.188101
v -72.256182 99.164817 42.422010
vn 5.878428 -2.214908 0.122158
v -74.863110 92.663456 45.196405
vn 5.837687 -2.323003 0.053034
v -73.207025 96.605493 39.102836
vn 5.887078 -2.191042 0.114108
v -74.682401 93.124798 44.629260
vn 5.805501 -2.401443 0.046154
v -72.236992 99.419775 45.492626
vn 5.846749 -2.296321 0.120672
v -73.945588 94.751266 38.615825
vn 5.825955 -2.347327 0.148554
v -72.954425 97.798704 48.321470
vn 5.859956 -2.262159 0.147520
v -73.676850 95.917908 47.818805
# 132 vertices, 0 vertices normals

f 38//38 39//39 40//40
f 41//41 42//42 125//125
f 43//43 9//9 129//129
f 10//10 11//11 44//44
f 45//45 46//46 47//47
f 48//48 49//49 45//45
f 52//52 53//53 54//54
f 55//55 56//56 57//57
f 20//20 58//58 56//56
f 19//19 22//22 21//21
f 36//36 40//40 59//59
f 44//44 61//61 60//60
f 67//67 65//65 123//123
f 69//69 58//58 70//70
f 71//71 72//72 73//73
f 74//74 75//75 76//76
f 70//70 77//77 75//75
f 67//67 78//78 129//129
f 79//79 80//80 81//81
f 82//82 83//83 54//54
f 8//8 62//62 84//84
f 85//85 86//86 87//87
f 88//88 60//60 89//89
f 90//90 127//127 89//89
f 91//91 126//126 128//128
f 93//93 94//94 95//95
f 100//100 101//101 102//102
f 103//103 104//104 105//105
f 100//100 81//81 42//42
f 106//106 107//107 128//128
f 79//79 71//71 90//90
f 85//85 108//108 109//109
f 110//110 64//64 73//73
f 110//110 111//111 55//55
f 102//102 112//112 72//72
f 112//112 87//87 113//113
f 105//105 80//80 61//61
f 101//101 82//82 108//108
f 83//83 114//114 78//78
f 41//41 3//3 114//114
f 107//107 76//76 86//86
f 93//93 115//115 53//53
f 109//109 115//115 92//92
f 118//118 119//119 124//124
f 118//118 38//38 116//116
f 77//77 111//111 113//113
f 98//98 91//91 120//120
f 117//117 120//120 95//95
f 116//116 36//36 99//99
f 131//131 121//121 50//50
f 36//36 38//38 40//40
f 38//38 1//1 39//39
f 40//40 39//39 2//2
f 3//3 41//41 125//125
f 41//41 34//34 42//42
f 125//125 42//42 104//104
f 129//129 8//8 43//43
f 44//44 11//11 12//12
f 14//14 45//45 47//47
f 47//47 46//46 15//15
f 14//14 48//48 45//45
f 5//5 52//52 54//54
f 52//52 18//18 53//53
f 54//54 53//53 7//7
f 25//25 130//130 57//57
f 55//55 20//20 56//56
f 57//57 56//56 21//21
f 58//58 19//19 56//56
f 21//21 56//56 19//19
f 24//24 36//36 59//59
f 59//59 40//40 2//2
f 10//10 44//44 60//60
f 44//44 12//12 61//61
f 60//60 61//61 26//26
f 12//12 27//27 61//61
f 25//25 63//63 64//64
f 63//63 28//28 127//127
f 64//64 63//63 127//127
f 9//9 13//13 65//65
f 1//1 124//124 68//68
f 68//68 51//51 29//29
f 23//23 69//69 70//70
f 69//69 19//19 58//58
f 70//70 58//58 20//20
f 127//127 71//71 73//73
f 71//71 4//4 72//72
f 73//73 72//72 32//32
f 17//17 74//74 76//76
f 74//74 23//23 75//75
f 76//76 75//75 30//30
f 23//23 70//70 75//75
f 70//70 20//20 77//77
f 75//75 77//77 30//30
f 67//67 5//5 78//78
f 4//4 79//79 81//81
f 79//79 26//26 80//80
f 81//81 80//80 104//104
f 7//7 82//82 54//54
f 82//82 34//34 83//83
f 54//54 83//83 5//5
f 3//3 84//84 62//62
f 84//84 3//3 6//6
f 33//33 85//85 87//87
f 85//85 31//31 86//86
f 87//87 86//86 30//30
f 28//28 88//88 89//89
f 88//88 10//10 60//60
f 89//89 60//60 26//26
f 26//26 90//90 89//89
f 35//35 91//91 92//92
f 35//35 93//93 95//95
f 93//93 18//18 94//94
f 95//95 94//94 37//37
f 18//18 52//52 96//96
f 96//96 50//50 51//51
f 24//24 97//97 99//99
f 97//97 16//16 98//98
f 5//5 123//123 52//52
f 52//52 66//66 96//96
f 4//4 100//100 102//102
f 100//100 34//34 101//101
f 102//102 101//101 33//33
f 27//27 103//103 105//105
f 103//103 6//6 125//125
f 34//34 100//100 42//42
f 100//100 4//4 81//81
f 42//42 81//81 104//104
f 16//16 106//106 126//126
f 106//106 17//17 107//107
f 26//26 79//79 90//90
f 79//79 4//4 71//71
f 90//90 71//71 127//127
f 31//31 85//85 109//109
f 85//85 33//33 108//108
f 109//109 108//108 7//7
f 32//32 110//110 73//73
f 73//73 64//64 127//127
f 110//110 32//32 111//111
f 55//55 111//111 20//20
f 4//4 102//102 72//72
f 102//102 33//33 112//112
f 72//72 112//112 32//32
f 32//32 112//112 113//113
f 112//112 33//33 87//87
f 113//113 87//87 30//30
f 27//27 105//105 61//61
f 105//105 104//104 80//80
f 61//61 80//80 26//26
f 3//3 125//125 6//6
f 104//104 103//103 125//125
f 33//33 101//101 108//108
f 101//101 34//34 82//82
f 108//108 82//82 7//7
f 5//5 83//83 78//78
f 83//83 34//34 114//114
f 78//78 114//114 62//62
f 34//34 41//41 114//114
f 114//114 3//3 62//62
f 31//31 107//107 86//86
f 107//107 17//17 76//76
f 86//86 76//76 30//30
f 18//18 93//93 53//53
f 93//93 35//35 115//115
f 53//53 115//115 7//7
f 31//31 109//109 92//92
f 109//109 7//7 115//115
f 92//92 115//115 35//35
f 37//37 116//116 117//117
f 117//117 116//116 99//99
f 1//1 118//118 124//124
f 118//118 37//37 119//119
f 37//37 118//118 116//116
f 118//118 1//1 38//38
f 116//116 38//38 36//36
f 30//30 77//77 113//113
f 77//77 20//20 111//111
f 113//113 111//111 32//32
f 96//96 51//51 132//132
f 94//94 119//119 37//37
f 120//120 91//91 35//35
f 37//37 117//117 95//95
f 117//117 99//99 120//120
f 95//95 120//120 35//35
f 99//99 36//36 24//24
f 131//131 48//48 121//121
f 48//48 14//14 121//121
f 50//50 121//121 29//29
f 122//122 65//65 49//49
f 123//123 65//65 122//122
f 123//123 122//122 66//66
f 67//67 123//123 5//5
f 99//99 97//97 98//98
f 123//123 66//66 52//52
f 68//68 124//124 51//51
f 124//124 119//119 51//51
f 120//120 99//99 98//98
f 98//98 16//16 126//126
f 91//91 128//128 92//92
f 92//92 128//128 31//31
f 126//126 106//106 128//128
f 31//31 128//128 107//107
f 98//98 126//126 91//91
f 8//8 129//129 62//62
f 129//129 78//78 62//62
f 25//25 64//64 130//130
f 89//89 127//127 28//28
f 51//51 50//50 29//29
f 130//130 55//55 57//57
f 49//49 65//65 13//13
f 130//130 64//64 110//110
f 55//55 130//130 110//110
f 131//131 122//122 49//49
f 48//48 131//131 49//49
f 18//18 96//96 132//132
f 122//122 131//131 66//66
f 132//132 51//51 119//119
f 45//45 13//13 46//46
f 45//45 49//49 13//13
f 94//94 132//132 119//119
f 66//66 131//131 50//50
f 96//96 66//66 50//50
f 18//18 132//132 94//94
f 9//9 65//65 67//67
f 129//129 9//9 67//67
# 224 faces, 0 coords texture

# End of File
