####
#
# OBJ File Generated by Meshlab
#
####
# Object 0S.obj
#
# Vertices: 139
# Faces: 234
#
####
vn -0.165152 0.148103 -6.279046
v 2.491168 24.391609 0.367347
vn -0.314037 0.112102 -6.273668
v 4.115137 15.265967 0.114414
vn 0.230592 0.162985 -6.276600
v -1.762503 16.570721 0.166936
vn 0.298629 0.147129 -6.273616
v -2.684869 23.577984 0.300742
vn -0.136506 0.106434 -6.279907
v 2.363043 34.518575 0.629924
vn -0.478477 0.150837 -6.262253
v 6.398060 25.819149 0.212864
vn 0.293831 0.147233 -6.273431
v -2.456036 18.498588 0.196734
vn -0.006059 0.098323 -6.281708
v 1.125738 35.683502 0.660647
vn 0.195069 0.145191 -6.277488
v -1.509320 25.764046 0.400329
vn 0.506283 0.112785 -6.261151
v -4.860312 28.689738 0.269530
vn -0.170731 0.105855 -6.279706
v 2.907751 9.598102 0.052555
vn 0.040628 0.063508 -3.604817
v -0.830608 6.481950 0.000000
vn 0.000000 0.000000 -1.566344
v -0.443735 4.744610 0.000000
vn 0.184609 0.130381 -6.278754
v -1.299504 28.256907 0.454923
vn -0.152885 0.146000 -6.279234
v 2.366984 26.274670 0.416796
vn 0.011710 0.145295 -6.280903
v 0.477459 27.235311 0.462034
vn 0.484398 0.145186 -6.262357
v -4.464243 32.739504 0.387190
vn 0.360913 0.160168 -6.270273
v -2.940774 31.691525 0.465308
vn 0.192452 0.097721 -6.278978
v -1.037160 34.918765 0.613883
vn 0.643850 0.109430 -6.248871
v -6.533143 29.011516 0.118015
vn 0.006663 0.125088 -6.281515
v 0.640609 19.646771 0.285537
vn -0.110034 0.135542 -6.280070
v 1.953463 21.134268 0.307887
vn -0.304566 0.152693 -6.273323
v 4.434666 29.445500 0.425830
vn 0.213826 0.142834 -6.276513
v -1.295732 32.740011 0.573660
vn 0.312122 0.060044 -3.152585
v -7.078800 26.034200 0.001461
vn -0.009830 0.148768 -6.280706
v 0.696937 25.100218 0.414801
vn -0.208271 0.063799 -3.117312
v 5.862880 15.253200 0.000000
vn 0.203302 0.163663 -6.277534
v -1.271312 30.524593 0.504928
vn -0.101749 0.045188 -3.073700
v 4.106793 8.868770 0.000000
vn -0.033600 0.035039 -2.522658
v 2.649960 5.778580 0.000000
vn -0.410749 0.110391 -6.268316
v 5.160880 17.175798 0.089162
vn 0.413730 0.148296 -6.267731
v -4.102303 19.426419 0.112660
vn 0.453396 0.080551 -3.890029
v -7.763060 33.359800 0.059159
vn 0.258471 0.074854 -2.849383
v -6.056720 36.951900 0.322834
vn 0.043340 0.056113 -2.729045
v -0.101758 39.870177 0.742081
vn 0.224903 0.032827 -1.853407
v -8.218970 33.143200 0.000000
vn -0.257220 0.074209 -3.041446
v 8.091221 32.810557 0.234369
vn -0.310965 0.083613 -3.130686
v 9.051900 31.218000 0.100277
vn -0.236802 0.059665 -2.343402
v 9.734900 30.099300 0.000000
vn -0.040590 0.079665 -2.819377
v 2.339955 39.069750 0.729299
vn 0.312876 0.059431 -2.954445
v -7.143602 35.056661 0.174899
vn -0.303479 0.150178 -6.273608
v 4.382822 24.760923 0.308371
vn 0.045266 0.157576 -6.280547
v 0.463987 38.322981 0.714379
vn -0.009622 0.117083 -6.281260
v 0.792643 10.239033 0.102295
vn 0.088468 0.113993 -6.281049
v 0.210345 13.850116 0.163472
vn 0.483967 0.150492 -6.262195
v -4.532740 26.618937 0.253623
vn -0.341209 0.159482 -6.271597
v 4.413081 31.471009 0.470370
vn 0.108639 0.068246 -2.752026
v -2.204385 39.671850 0.678821
vn 0.077278 0.136041 -6.280788
v 0.055590 16.028638 0.200636
vn 0.593506 0.120662 -6.252658
v -5.612532 34.004576 0.321196
vn 0.115001 0.141285 -6.280261
v -0.263390 36.797550 0.663800
vn 0.100542 0.050419 -2.839575
v -2.661805 9.041900 0.000000
vn 0.176450 0.137995 -2.842539
v -4.475953 38.487602 0.539278
vn -0.223581 0.147829 -6.277136
v 3.278321 22.698634 0.304577
vn -0.391537 0.169485 -6.268034
v 5.163875 22.371378 0.207645
vn -0.465746 0.171515 -6.263249
v 5.654055 20.674333 0.124944
vn 0.378748 0.202982 -6.268000
v -3.611463 37.579522 0.548857
vn -0.339585 0.143477 -6.271022
v 4.445037 33.897994 0.541914
vn -0.297373 0.159538 -6.273577
v 4.356080 27.356022 0.373197
vn 0.214899 0.066827 -3.202778
v -5.104640 17.656700 0.003381
vn 0.401502 0.153796 -6.267802
v -4.051020 21.702554 0.178706
vn 0.230643 0.072009 -3.092920
v -5.872520 20.112800 0.002025
vn 0.511315 0.111893 -6.260697
v -4.753424 35.728403 0.422721
vn 0.210332 0.161237 -6.276850
v -1.396753 38.109831 0.673522
vn 0.304556 0.135348 -6.274012
v -2.449990 36.259260 0.579474
vn 0.142672 0.047288 -3.117658
v -3.244470 11.102400 0.000000
vn 0.377391 0.112574 -6.270267
v -3.201466 34.089990 0.502229
vn 0.252773 0.062923 -3.039373
v -6.479065 22.359850 0.000560
vn -0.136513 0.096904 -6.280877
v 2.633927 7.800942 0.027552
vn 0.090612 0.066185 -3.031875
v -1.669120 7.511960 0.000000
vn 0.356831 0.062447 -3.087112
v -8.067520 32.105600 0.000000
vn -0.149922 0.156913 -6.278356
v 2.404660 32.600012 0.588231
vn -0.193154 0.143886 -6.278419
v 3.151947 11.664830 0.082862
vn 0.604238 0.128663 -6.252582
v -6.002969 27.227965 0.135196
vn 0.040159 0.121628 -6.281128
v 0.579450 33.740991 0.627150
vn -0.135683 0.055599 -3.005196
v 4.850685 11.027750 0.000000
vn 0.087858 0.108055 -6.281520
v 0.182943 11.796610 0.121656
vn -0.217177 0.106615 -6.278179
v 3.292331 36.062376 0.622844
vn -0.485993 0.170814 -6.261200
v 6.423722 23.699814 0.158138
vn 0.038888 0.165765 -6.280264
v 0.562962 31.607942 0.575378
vn -0.284535 0.077231 -3.069123
v 8.228500 24.036900 0.000662
vn 0.239331 0.094444 -6.277303
v -1.913289 12.653855 0.088998
vn 0.356693 0.056122 -3.164461
v -7.776270 30.490950 0.000000
vn 0.166364 0.060308 -3.020569
v -4.523650 15.217800 0.000923
vn 0.365364 0.146917 -6.270695
v -3.558931 17.200623 0.095693
vn 0.161105 0.052119 -3.231589
v -3.802880 13.242350 0.000000
vn 0.297328 0.138304 -6.274567
v -3.066664 14.897030 0.070367
vn 0.332058 0.056071 -3.085183
v -7.495147 28.415371 0.002551
vn 0.177700 0.104113 -6.279263
v -1.279779 10.372918 0.073423
vn -0.299456 0.081345 -3.143582
v 8.822415 26.465200 0.000313
vn -0.237469 0.079635 -3.128686
v 6.909450 34.425750 0.373678
vn 0.546377 0.128571 -6.257858
v -5.543800 25.430297 0.138932
vn 0.286419 0.052036 -3.101698
v -6.862260 24.561700 0.000366
vn -0.504275 0.168391 -6.260153
v 6.758532 27.855793 0.232928
vn -0.313743 0.078684 -3.102106
v 9.305980 28.303400 0.000209
vn -0.587710 0.157930 -6.253430
v 7.844616 28.820320 0.161121
vn -0.267216 0.079807 -3.307657
v 6.684889 19.363746 0.000000
vn 0.113204 0.164818 -6.279565
v -0.706176 23.557777 0.362062
vn 0.059595 0.144838 -6.281102
v 0.025258 21.641467 0.318291
vn 0.210233 0.156017 -6.277314
v -1.809130 21.879105 0.289658
vn 0.341632 0.127228 -6.272264
v -2.964655 29.487562 0.408685
vn 0.496596 0.142221 -6.261686
v -4.583812 30.904013 0.329570
vn -0.466447 0.132373 -6.264277
v 6.514461 31.052519 0.323237
vn -0.097025 0.096497 -6.280600
v 1.902341 14.662833 0.181033
vn -0.209846 0.053485 -3.216504
v 5.331932 13.415558 0.000000
vn -0.275340 0.118302 -6.274738
v 3.693052 13.105868 0.101975
vn -0.571733 0.148611 -6.255131
v 7.818394 30.541583 0.204733
vn -0.460261 0.159509 -6.264181
v 6.095776 32.633150 0.390322
vn 0.031498 0.164112 -6.280137
v 0.512105 29.424451 0.518535
vn -0.156968 0.175228 -6.277735
v 2.460258 30.435193 0.529853
vn -0.145767 0.171719 -6.278932
v 2.362234 28.400773 0.465007
vn -0.258745 0.092799 -3.091258
v 7.557850 21.856750 0.001985
vn -0.174904 0.062450 -3.017331
v 5.639860 36.149500 0.510054
vn -0.112582 0.075006 -2.958371
v 4.164672 37.720799 0.623766
vn -0.061036 0.039001 -3.015194
v 3.233410 6.789880 0.000000
vn 0.004365 0.034293 -2.935957
v 1.212741 5.121225 0.000000
vn -0.224729 0.049435 -3.026818
v 6.267065 16.745200 0.000000
vn -0.377130 0.129047 -6.269771
v 4.544842 18.943009 0.162617
vn -0.066444 0.132922 -6.280665
v 1.505555 12.321717 0.139296
vn -0.236958 0.129478 -6.276961
v 3.354122 17.162004 0.181916
vn 0.221602 0.121469 -6.277933
v -1.601799 14.662611 0.128290
vn -0.298045 0.141601 -6.274185
v 3.988758 20.736775 0.228381
vn -0.177279 0.132453 -6.278629
v 2.615957 19.159399 0.251212
vn -0.059365 0.143439 -6.280758
v 1.370704 17.594481 0.239262
vn 0.112134 0.145692 -6.279791
v -0.574042 18.149415 0.245800
vn -0.052509 0.154914 -6.280524
v 1.269863 23.076622 0.360110
vn 0.160664 0.121919 -6.279584
v -1.181498 20.079891 0.268685
vn 0.306661 0.136158 -6.274067
v -2.799501 20.334761 0.210168
vn -0.084270 0.155155 -6.280228
v 1.843550 37.356650 0.684837
vn 0.394302 0.142450 -6.269005
v -3.635687 25.214434 0.276343
vn -0.028844 0.129298 -6.281265
v 1.211793 8.026314 0.055555
vn 0.640786 0.122786 -6.248954
v -6.347288 30.583974 0.163198
vn 0.643959 0.147404 -6.247776
v -6.135412 32.321070 0.227400
vn 0.477438 0.122470 -6.263204
v -4.826252 23.694698 0.169299
vn 0.342386 0.131768 -6.271541
v -3.084225 27.241315 0.366191
vn -0.030813 0.108390 -6.281771
v 1.655044 6.549796 0.023963
vn 0.113072 0.138783 -6.280066
v -0.537259 8.415286 0.053547
vn -0.435666 0.142750 -6.265429
v 5.946884 29.246625 0.334208
vn -0.122131 0.112513 -6.280622
v 2.133429 16.050559 0.193049
# 139 vertices, 0 vertices normals

f 1//1 26//26 15//15
f 115//115 69//69 29//29
f 75//75 5//5 72//72
f 5//5 78//78 58//58
f 126//126 1//1 54//54
f 110//110 72//72 47//47
f 83//83 132//132 20//20
f 86//86 87//87 121//121
f 80//80 24//24 75//75
f 20//20 74//74 88//88
f 98//98 26//26 126//126
f 101//101 102//102 18//18
f 109//109 80//80 110//110
f 109//109 14//14 28//28
f 30//30 116//116 136//136
f 65//65 63//63 57//57
f 85//85 3//3 87//87
f 125//125 124//124 49//49
f 118//118 120//120 123//123
f 10//10 101//101 135//135
f 79//79 42//42 6//6
f 52//52 89//89 137//137
f 43//43 64//64 35//35
f 64//64 48//48 35//35
f 45//45 121//121 49//49
f 49//49 121//121 3//3
f 50//50 33//33 41//41
f 8//8 51//51 129//129
f 52//52 66//66 89//89
f 12//12 70//70 137//137
f 57//57 53//53 48//48
f 15//15 42//42 1//1
f 55//55 54//54 42//42
f 63//63 34//34 57//57
f 53//53 57//57 34//34
f 112//112 56//56 55//55
f 55//55 42//42 79//79
f 15//15 111//111 59//59
f 8//8 19//19 51//51
f 60//60 62//62 32//32
f 62//62 68//68 61//61
f 50//50 63//63 67//67
f 64//64 57//57 48//48
f 51//51 65//65 64//64
f 64//64 65//65 57//57
f 19//19 65//65 51//51
f 51//51 64//64 43//43
f 51//51 43//43 129//129
f 66//66 86//86 82//82
f 50//50 67//67 17//17
f 68//68 134//134 61//61
f 68//68 93//93 134//134
f 111//111 15//15 16//16
f 26//26 16//16 15//15
f 33//33 71//71 36//36
f 33//33 133//133 71//71
f 67//67 18//18 17//17
f 10//10 46//46 74//74
f 75//75 19//19 8//8
f 76//76 29//29 11//11
f 15//15 59//59 42//42
f 42//42 59//59 6//6
f 11//11 69//69 131//131
f 75//75 8//8 5//5
f 5//5 8//8 78//78
f 58//58 78//78 113//113
f 7//7 3//3 85//85
f 79//79 112//112 55//55
f 65//65 19//19 67//67
f 81//81 112//112 79//79
f 22//22 126//126 54//54
f 110//110 80//80 72//72
f 47//47 72//72 58//58
f 45//45 82//82 121//121
f 83//83 71//71 132//132
f 102//102 17//17 18//18
f 50//50 17//17 133//133
f 84//84 60//60 85//85
f 86//86 84//84 87//87
f 82//82 86//86 121//121
f 19//19 24//24 67//67
f 24//24 18//18 67//67
f 28//28 18//18 24//24
f 75//75 24//24 19//19
f 28//28 24//24 80//80
f 80//80 75//75 72//72
f 20//20 10//10 74//74
f 88//88 74//74 25//25
f 88//88 83//83 20//20
f 25//25 74//74 92//92
f 92//92 74//74 46//46
f 77//77 89//89 82//82
f 73//73 11//11 44//44
f 81//81 79//79 6//6
f 90//90 81//81 6//6
f 91//91 37//37 108//108
f 92//92 46//46 130//130
f 93//93 25//25 92//92
f 116//116 12//12 136//136
f 39//39 95//95 96//96
f 95//95 90//90 96//96
f 97//97 117//117 31//31
f 26//26 9//9 16//16
f 99//99 98//98 126//126
f 98//98 9//9 26//26
f 126//126 26//26 1//1
f 28//28 14//14 101//101
f 101//101 14//14 135//135
f 28//28 101//101 18//18
f 101//101 10//10 102//102
f 102//102 10//10 132//132
f 23//23 103//103 138//138
f 105//105 76//76 106//106
f 2//2 27//27 105//105
f 105//105 106//106 2//2
f 23//23 138//138 59//59
f 94//94 6//6 59//59
f 90//90 6//6 94//94
f 39//39 96//96 107//107
f 38//38 107//107 37//37
f 107//107 38//38 39//39
f 103//103 47//47 108//108
f 40//40 43//43 35//35
f 16//16 109//109 111//111
f 16//16 9//9 14//14
f 109//109 16//16 14//14
f 111//111 109//109 110//110
f 80//80 109//109 28//28
f 112//112 97//97 56//56
f 113//113 91//91 58//58
f 114//114 113//113 78//78
f 40//40 114//114 129//129
f 104//104 139//139 2//2
f 116//116 13//13 12//12
f 117//117 27//27 31//31
f 2//2 120//120 31//31
f 97//97 118//118 56//56
f 127//127 128//128 100//100
f 65//65 67//67 63//63
f 73//73 119//119 106//106
f 47//47 23//23 110//110
f 110//110 23//23 111//111
f 23//23 59//59 111//111
f 87//87 3//3 121//121
f 84//84 85//85 87//87
f 41//41 63//63 50//50
f 63//63 41//41 34//34
f 100//100 99//99 127//127
f 122//122 118//118 123//123
f 54//54 55//55 122//122
f 55//55 56//56 122//122
f 124//124 125//125 21//21
f 21//21 123//123 124//124
f 108//108 47//47 58//58
f 91//91 108//108 58//58
f 7//7 125//125 3//3
f 3//3 125//125 49//49
f 118//118 31//31 120//120
f 21//21 125//125 127//127
f 127//127 125//125 7//7
f 4//4 98//98 100//100
f 100//100 98//98 99//99
f 78//78 8//8 129//129
f 78//78 129//129 114//114
f 32//32 128//128 7//7
f 99//99 21//21 127//127
f 46//46 10//10 135//135
f 49//49 124//124 139//139
f 22//22 99//99 126//126
f 128//128 127//127 7//7
f 54//54 122//122 22//22
f 22//22 21//21 99//99
f 122//122 123//123 22//22
f 115//115 30//30 136//136
f 128//128 32//32 61//61
f 21//21 22//22 123//123
f 5//5 58//58 72//72
f 14//14 9//9 135//135
f 129//129 43//43 40//40
f 71//71 133//133 132//132
f 9//9 98//98 4//4
f 50//50 133//133 33//33
f 132//132 10//10 20//20
f 94//94 138//138 96//96
f 42//42 54//54 1//1
f 134//134 93//93 92//92
f 76//76 11//11 73//73
f 132//132 133//133 102//102
f 133//133 17//17 102//102
f 92//92 130//130 134//134
f 31//31 118//118 97//97
f 89//89 66//66 82//82
f 2//2 31//31 27//27
f 134//134 4//4 61//61
f 134//134 130//130 4//4
f 9//9 4//4 130//130
f 106//106 119//119 104//104
f 124//124 123//123 120//120
f 128//128 61//61 100//100
f 104//104 45//45 49//49
f 46//46 135//135 130//130
f 106//106 104//104 2//2
f 100//100 61//61 4//4
f 135//135 9//9 130//130
f 56//56 118//118 122//122
f 32//32 62//62 61//61
f 69//69 11//11 29//29
f 44//44 77//77 119//119
f 131//131 44//44 11//11
f 115//115 136//136 69//69
f 137//137 44//44 131//131
f 89//89 77//77 44//44
f 136//136 12//12 131//131
f 136//136 131//131 69//69
f 52//52 137//137 70//70
f 119//119 73//73 44//44
f 103//103 108//108 37//37
f 12//12 137//137 131//131
f 90//90 94//94 96//96
f 107//107 103//103 37//37
f 85//85 60//60 32//32
f 104//104 119//119 45//45
f 77//77 82//82 45//45
f 85//85 32//32 7//7
f 119//119 77//77 45//45
f 44//44 137//137 89//89
f 47//47 103//103 23//23
f 106//106 76//76 73//73
f 138//138 94//94 59//59
f 139//139 120//120 2//2
f 49//49 139//139 104//104
f 103//103 107//107 138//138
f 96//96 138//138 107//107
f 120//120 139//139 124//124
# 234 faces, 0 coords texture

# End of File
