####
#
# OBJ File Generated by Meshlab
#
####
# Object 1002S.obj
#
# Vertices: 43
# Faces: 66
#
####
vn 4.713123 0.052666 -4.154739
v -49.324323 -21.533122 47.292849
vn 4.747841 0.088400 -4.114404
v -50.671651 -27.257176 45.667648
vn 4.693459 0.040025 -4.177098
v -50.113162 -17.774827 46.450602
vn 4.705831 0.041928 -4.163130
v -48.010283 -22.113653 48.778011
vn 4.732383 0.081314 -4.132332
v -49.536769 -26.907771 46.978811
vn 4.739374 0.074315 -4.124452
v -50.673576 -25.668928 45.695540
vn 4.717591 0.075891 -4.149263
v -48.422890 -26.096698 48.267456
vn 2.097946 0.033255 -1.850961
v -47.119750 -26.478900 49.736550
vn 2.140520 0.040559 -1.881260
v -48.517650 -28.076900 48.116800
vn 2.073562 0.042310 -1.794546
v -51.312190 -28.236562 44.902339
vn 2.060939 0.015972 -1.814995
v -46.466300 -24.629800 50.507200
vn 2.066393 0.022695 -1.818657
v -46.291775 -21.989539 50.723142
vn 2.163376 0.014674 -1.932454
v -50.249499 -16.507502 46.307596
vn 2.152748 0.049957 -1.871080
v -53.282346 -25.672768 42.692998
vn 2.106001 0.041583 -1.831547
v -52.525600 -27.106900 43.532700
vn 2.110357 0.045756 -1.843211
v -53.930100 -21.718300 42.061600
vn 2.023845 0.016744 -1.789211
v -47.735913 -17.791825 49.135365
vn 2.106991 0.035878 -1.869587
v -52.781500 -18.222965 43.457724
vn 1.977039 0.023215 -1.768134
v -51.548800 -16.816200 44.857000
vn 2.139372 0.043315 -1.872211
v -53.627100 -20.149400 42.445550
vn 2.040160 0.012556 -1.808609
v -49.129900 -16.648600 47.566100
vn 2.212109 0.044094 -1.953164
v -47.837400 -27.459600 48.899800
vn 4.702890 0.053948 -4.166325
v -49.733403 -19.499942 46.860933
vn 4.734709 0.065735 -4.129941
v -49.561833 -25.331742 46.978576
vn 4.725351 0.064642 -4.140643
v -50.387099 -23.452403 46.056034
vn 4.703994 0.074828 -4.164754
v -50.752009 -21.071873 45.686447
vn 4.707293 0.055711 -4.161311
v -47.208990 -21.231680 49.696822
vn 2.093305 0.019936 -1.850183
v -46.712034 -19.883550 50.273842
vn 4.708413 0.036527 -4.159979
v -47.070279 -22.804929 49.825920
vn 4.723116 0.099738 -4.142500
v -52.872100 -21.428584 43.280247
vn 4.690975 0.062722 -4.179614
v -51.195898 -18.898681 45.221076
vn 2.067543 0.038696 -1.800936
v -49.847150 -28.583800 46.589050
vn 4.736639 0.108332 -4.126840
v -52.695189 -25.028874 43.385736
vn 4.742871 0.092128 -4.120076
v -51.677556 -26.323563 44.524556
vn 4.706085 0.039756 -4.162812
v -47.625947 -24.255313 49.197181
vn 2.108503 0.050161 -1.842420
v -53.860604 -23.581445 42.093557
vn 4.708828 0.047606 -4.159695
v -48.211812 -19.917527 48.575069
vn 4.706243 0.087979 -4.161872
v -52.154829 -20.333005 44.121470
vn 4.722042 0.044720 -4.144605
v -48.880066 -23.738062 47.782501
vn 4.725467 0.106477 -4.139675
v -52.865395 -23.073710 43.245524
vn 4.713231 0.093207 -4.153928
v -51.795711 -22.425240 44.476363
vn 4.728952 0.090907 -4.136060
v -51.728920 -24.367522 44.510981
vn 4.704232 0.037009 -4.164997
v -48.961608 -18.241754 47.745793
# 43 vertices, 0 vertices normals

f 25//25 41//41 26//26
f 5//5 9//9 32//32
f 26//26 23//23 1//1
f 6//6 34//34 42//42
f 42//42 41//41 25//25
f 38//38 20//20 18//18
f 24//24 25//25 39//39
f 43//43 23//23 3//3
f 23//23 31//31 3//3
f 25//25 24//24 6//6
f 23//23 43//43 37//37
f 28//28 27//27 37//37
f 27//27 28//28 12//12
f 7//7 35//35 8//8
f 26//26 38//38 31//31
f 29//29 4//4 27//27
f 29//29 27//27 12//12
f 40//40 30//30 41//41
f 40//40 33//33 36//36
f 3//3 31//31 19//19
f 2//2 5//5 32//32
f 32//32 10//10 2//2
f 1//1 25//25 26//26
f 26//26 41//41 38//38
f 15//15 33//33 34//34
f 9//9 5//5 7//7
f 26//26 31//31 23//23
f 6//6 24//24 5//5
f 6//6 2//2 34//34
f 42//42 34//34 33//33
f 39//39 1//1 4//4
f 6//6 5//5 2//2
f 1//1 39//39 25//25
f 2//2 10//10 34//34
f 15//15 34//34 10//10
f 4//4 35//35 39//39
f 39//39 35//35 7//7
f 29//29 12//12 11//11
f 29//29 11//11 35//35
f 29//29 35//35 4//4
f 6//6 42//42 25//25
f 33//33 15//15 14//14
f 19//19 31//31 18//18
f 38//38 41//41 30//30
f 20//20 30//30 16//16
f 30//30 40//40 16//16
f 36//36 16//16 40//40
f 21//21 3//3 13//13
f 21//21 43//43 3//3
f 43//43 21//21 17//17
f 23//23 37//37 1//1
f 7//7 8//8 22//22
f 9//9 7//7 22//22
f 37//37 27//27 4//4
f 37//37 17//17 28//28
f 1//1 37//37 4//4
f 13//13 3//3 19//19
f 39//39 7//7 24//24
f 33//33 14//14 36//36
f 40//40 42//42 33//33
f 11//11 8//8 35//35
f 31//31 38//38 18//18
f 41//41 42//42 40//40
f 43//43 17//17 37//37
f 38//38 30//30 20//20
f 5//5 24//24 7//7
# 66 faces, 0 coords texture

# End of File
