####
#
# OBJ File Generated by Meshlab
#
####
# Object 1009.obj
#
# Vertices: 39
# Faces: 55
#
####
vn -3.608645 -0.037661 -5.143305
v 26.331748 47.909251 72.559976
vn -3.646157 0.015130 -5.114948
v 22.709203 45.189610 75.096762
vn -1.842281 -0.022193 -2.544622
v 21.513575 48.697150 75.980550
vn -1.784370 -0.033717 -2.587724
v 21.499400 40.644700 75.956100
vn -1.800609 -0.027000 -2.574178
v 23.574700 38.000000 74.542150
vn -3.570665 -0.058034 -5.169630
v 24.466039 39.630694 73.919953
vn -0.882400 -0.019563 -1.298298
v 28.064800 50.000000 71.327700
vn -0.921999 -0.009503 -1.272445
v 21.509600 50.000000 75.973700
vn -0.912810 -0.034405 -1.274288
v 21.536800 38.000000 76.020900
vn -1.771994 -0.003093 -2.596502
v 28.113900 38.645100 71.412600
vn -0.896986 0.030508 -1.287133
v 28.107600 38.000000 71.401700
vn -1.779653 -0.018972 -2.588660
v 28.081900 46.813200 71.357200
vn -3.590555 -0.052534 -5.155893
v 25.798190 40.397645 72.984637
vn -3.617854 -0.009568 -5.137021
v 24.500383 46.990155 73.856367
vn -3.609447 -0.077835 -5.142076
v 22.766201 39.613746 75.096674
vn -1.816885 0.004660 -2.563892
v 21.504050 43.809950 75.963800
vn -1.771033 0.006602 -2.595358
v 21.497900 41.911200 75.953600
vn -1.815182 -0.020839 -2.564057
v 25.290350 50.000000 73.286050
vn -3.598306 -0.021484 -5.150704
v 23.448111 43.489975 74.601949
vn -1.795762 -0.039867 -2.576769
v 27.178400 50.000000 71.930150
vn -1.754689 -0.024514 -2.606185
v 28.091910 44.817306 71.374574
vn -1.789930 -0.031122 -2.581610
v 26.845200 38.000000 72.281450
vn -3.601136 -0.021935 -5.148482
v 26.090294 45.843206 72.731406
vn -3.590297 -0.038424 -5.156146
v 24.395745 41.614207 73.943921
vn -3.572345 -0.044135 -5.168627
v 26.255991 42.364935 72.651571
vn -3.589516 -0.024938 -5.156300
v 24.178291 45.211661 74.095234
vn -3.603812 -0.026350 -5.146792
v 25.206261 43.749172 73.367532
vn -1.772522 -0.021196 -2.593708
v 28.097050 42.769150 71.383500
vn -3.553431 -0.047227 -5.181411
v 26.938220 44.567977 72.153675
vn -1.784879 -0.039677 -2.585361
v 28.075550 48.284050 71.346250
vn -1.792363 -0.035069 -2.579561
v 25.423150 38.000000 73.283100
vn -1.864797 0.023653 -2.524972
v 21.523850 46.193000 75.997350
vn -3.564038 -0.025488 -5.174453
v 27.068145 41.177636 72.097114
vn -3.657100 -0.007899 -5.109006
v 23.041837 47.560852 74.885158
vn -3.617128 -0.031505 -5.137444
v 24.671441 48.556357 73.731292
vn -1.766323 -0.019571 -2.597358
v 28.102800 40.571650 71.393400
vn -1.820335 -0.024042 -2.560092
v 23.279875 49.999971 74.690979
vn -3.578564 -0.010492 -5.164404
v 22.593976 41.853426 75.205508
vn -3.566249 -0.061044 -5.171984
v 26.932822 39.445567 72.195848
# 39 vertices, 0 vertices normals

f 17//17 16//16 38//38
f 3//3 8//8 37//37
f 22//22 10//10 11//11
f 27//27 19//19 26//26
f 28//28 33//33 25//25
f 24//24 25//25 13//13
f 32//32 34//34 2//2
f 34//34 37//37 35//35
f 2//2 14//14 26//26
f 16//16 32//32 2//2
f 4//4 17//17 38//38
f 18//18 20//20 1//1
f 1//1 14//14 35//35
f 19//19 16//16 2//2
f 30//30 1//1 20//20
f 20//20 7//7 30//30
f 21//21 28//28 29//29
f 22//22 31//31 39//39
f 26//26 19//19 2//2
f 34//34 3//3 37//37
f 24//24 19//19 27//27
f 34//34 14//14 2//2
f 23//23 29//29 27//27
f 28//28 36//36 33//33
f 29//29 28//28 25//25
f 29//29 12//12 21//21
f 30//30 12//12 1//1
f 6//6 24//24 13//13
f 24//24 27//27 25//25
f 31//31 5//5 6//6
f 29//29 25//25 27//27
f 32//32 3//3 34//34
f 13//13 25//25 33//33
f 27//27 26//26 23//23
f 1//1 35//35 18//18
f 9//9 4//4 15//15
f 26//26 14//14 23//23
f 23//23 14//14 1//1
f 5//5 15//15 6//6
f 31//31 13//13 39//39
f 6//6 13//13 31//31
f 22//22 39//39 10//10
f 36//36 39//39 33//33
f 33//33 39//39 13//13
f 14//14 34//34 35//35
f 35//35 37//37 18//18
f 15//15 4//4 38//38
f 9//9 15//15 5//5
f 16//16 19//19 38//38
f 38//38 19//19 24//24
f 39//39 36//36 10//10
f 23//23 1//1 12//12
f 29//29 23//23 12//12
f 15//15 38//38 24//24
f 15//15 24//24 6//6
# 55 faces, 0 coords texture

# End of File
