####
#
# OBJ File Generated by Meshlab
#
####
# Object 101.obj
#
# Vertices: 44
# Faces: 62
#
####
vn -0.991048 0.115171 -6.197221
v 7.781631 -45.444540 43.099492
vn -0.554566 0.044865 -3.092248
v 10.258400 -38.000000 42.661200
vn -0.575281 0.036690 -3.041011
v 11.508467 -43.669230 42.418957
vn -0.362926 -0.059635 -3.116882
v 5.057800 -50.000000 43.459200
vn -1.025044 -0.007823 -6.196618
v 8.328742 -42.990794 43.014121
vn -0.123748 -0.025936 -1.588324
v 2.818030 -38.000000 43.598900
vn -0.293893 0.014828 -3.127548
v 4.799730 -37.999800 43.444500
vn -0.270680 0.004982 -3.115484
v 2.774060 -40.686850 43.624350
vn -0.256457 -0.007719 -1.419156
v 11.358000 -50.000000 42.292000
vn -0.594127 0.016912 -3.226416
v 11.339200 -49.853400 42.294600
vn -0.273531 0.018057 -1.541959
v 11.439400 -38.000000 42.451700
vn -0.178027 0.007392 -3.123715
v 2.776580 -44.854200 43.562500
vn -0.196678 0.027439 -3.131548
v 2.771520 -43.156200 43.583050
vn -0.535842 -0.013263 -3.079252
v 11.479500 -41.770700 42.431900
vn -0.519677 0.002908 -3.097458
v 6.606220 -50.000000 43.220700
vn -0.137835 -0.025112 -1.566032
v 2.831070 -50.000000 43.645500
vn -0.545417 0.007687 -6.258697
v 4.476488 -42.348157 43.474838
vn -0.689451 0.054177 -6.244115
v 5.742605 -46.028936 43.339397
vn -1.188061 0.143939 -6.166705
v 9.769664 -44.746902 42.737153
vn -0.710590 0.009131 -6.241374
v 6.111974 -43.884612 43.317751
vn -0.272847 -0.049846 -3.138091
v 2.813640 -46.995350 43.605950
vn -0.532843 -0.035207 -6.260183
v 4.075140 -46.499441 43.490383
vn -1.039981 -0.002946 -6.193818
v 8.329896 -40.455080 43.009915
vn -0.753188 -0.017397 -6.236871
v 6.504697 -41.582303 43.264272
vn -0.612837 -0.005371 -6.253133
v 4.735656 -40.121512 43.441450
vn -0.344727 0.043274 -3.120992
v 5.996485 -37.999700 43.330750
vn -0.618415 0.058203 -3.079454
v 8.712800 -50.000000 42.795050
vn -0.460697 0.033538 -6.264628
v 4.222592 -44.469137 43.493362
vn -0.547643 0.010802 -3.130784
v 11.425348 -40.128101 42.429271
vn -0.602241 0.113658 -3.081129
v 11.430600 -45.880700 42.363200
vn -1.158772 0.047392 -6.174392
v 9.672304 -39.507787 42.742864
vn -0.582332 0.048983 -3.086457
v 10.339800 -50.000000 42.476000
vn -1.137801 -0.012892 -6.179225
v 10.123924 -43.025844 42.673449
vn -0.516384 0.018914 -3.097322
v 8.549250 -37.999600 42.977300
vn -0.578263 -0.101576 -6.255625
v 3.879392 -48.475811 43.528790
vn -0.295798 -0.040389 -3.132641
v 2.828210 -48.813400 43.632400
vn -0.595168 0.070111 -3.103444
v 11.366345 -47.683210 42.314541
vn -1.210597 0.108022 -6.164345
v 9.860310 -48.658878 42.589302
vn -0.759906 -0.054674 -6.235563
v 5.533910 -48.111685 43.361130
vn -0.268641 -0.016862 -3.121152
v 2.796640 -39.012500 43.617100
vn -1.082809 0.099341 -6.185904
v 7.637480 -47.803004 43.058148
vn -1.224673 0.198996 -6.158745
v 9.574640 -46.739809 42.685742
vn -0.771342 0.006600 -6.235037
v 6.671760 -39.401337 43.236729
vn -1.142629 -0.024033 -6.177659
v 9.894324 -41.277826 42.699434
# 44 vertices, 0 vertices normals

f 10//10 9//9 32//32
f 13//13 17//17 28//28
f 44//44 5//5 23//23
f 8//8 25//25 17//17
f 28//28 18//18 22//22
f 33//33 44//44 14//14
f 41//41 39//39 18//18
f 5//5 19//19 1//1
f 20//20 28//28 17//17
f 29//29 2//2 11//11
f 21//21 12//12 22//22
f 24//24 23//23 5//5
f 40//40 7//7 25//25
f 26//26 34//34 43//43
f 26//26 43//43 7//7
f 27//27 15//15 41//41
f 15//15 39//39 41//41
f 31//31 2//2 29//29
f 7//7 43//43 25//25
f 43//43 23//23 24//24
f 29//29 14//14 44//44
f 38//38 27//27 41//41
f 3//3 30//30 19//19
f 30//30 37//37 42//42
f 34//34 31//31 23//23
f 43//43 34//34 23//23
f 31//31 29//29 44//44
f 32//32 27//27 38//38
f 3//3 19//19 33//33
f 12//12 13//13 28//28
f 21//21 35//35 36//36
f 37//37 10//10 38//38
f 13//13 8//8 17//17
f 37//37 38//38 42//42
f 6//6 7//7 40//40
f 40//40 25//25 8//8
f 20//20 18//18 28//28
f 12//12 28//28 22//22
f 1//1 41//41 18//18
f 42//42 41//41 1//1
f 33//33 5//5 44//44
f 3//3 33//33 14//14
f 38//38 41//41 42//42
f 43//43 24//24 25//25
f 19//19 42//42 1//1
f 4//4 35//35 39//39
f 5//5 33//33 19//19
f 18//18 39//39 22//22
f 18//18 20//20 1//1
f 20//20 5//5 1//1
f 20//20 17//17 24//24
f 20//20 24//24 5//5
f 31//31 34//34 2//2
f 39//39 15//15 4//4
f 30//30 42//42 19//19
f 38//38 10//10 32//32
f 35//35 4//4 16//16
f 36//36 35//35 16//16
f 39//39 35//35 22//22
f 21//21 22//22 35//35
f 31//31 44//44 23//23
f 25//25 24//24 17//17
# 62 faces, 0 coords texture

# End of File
