####
#
# OBJ File Generated by Meshlab
#
####
# Object 1011.obj
#
# Vertices: 39
# Faces: 57
#
####
vn 0.210659 -0.012990 -3.102103
v -3.009825 -41.566150 92.000000
vn 0.246767 -0.039898 -3.135976
v -3.150510 -43.858150 92.000000
vn 0.206186 -0.026085 -3.132087
v -1.863610 -50.000000 92.165050
vn -0.228859 -0.014623 -3.120769
v 4.119375 -40.185772 92.000000
vn 0.156367 -0.006400 -1.532573
v -3.465070 -50.000000 92.000000
vn -0.007757 -0.021779 -3.139898
v 0.712909 -50.000000 92.234350
vn 0.120945 -0.024625 -1.723400
v -2.552710 -38.000000 92.000000
vn -0.257343 -0.032709 -3.121279
v 4.720330 -48.377350 92.000000
vn -0.195104 -0.024135 -3.134228
v 3.083980 -50.000000 92.152000
vn -0.126665 -0.010557 -1.474940
v 4.867940 -50.000000 92.000000
vn -0.109002 -0.015517 -1.630366
v 3.980630 -38.000000 92.000000
vn 0.261543 -0.054391 -6.275952
v -1.142646 -43.215338 92.132747
vn -0.090955 -0.007384 -6.281554
v 1.105458 -40.231387 92.156968
vn -0.068240 -0.020078 -6.280430
v 1.049516 -42.296359 92.170663
vn -0.047898 -0.055645 -6.281277
v 0.695013 -47.220353 92.205103
vn -0.090958 -0.043012 -6.279936
v 1.147536 -44.201224 92.179349
vn -0.226793 -0.017606 -3.225883
v 4.263490 -44.086600 92.000000
vn 0.499631 -0.038546 -6.261645
v -2.258609 -48.624764 92.117351
vn -0.085040 -0.016849 -3.139217
v 1.494861 -38.000000 92.153450
vn -0.231344 -0.030347 -3.122170
v 4.520610 -46.392700 92.000000
vn 0.437036 -0.044289 -6.267664
v -1.945033 -39.966468 92.067644
vn -0.339975 -0.017730 -6.272568
v 2.726904 -41.340147 92.108072
vn -0.220838 -0.002819 -3.101358
v 4.232310 -42.400500 92.000000
vn 0.296618 -0.019946 -3.094486
v -3.391280 -47.574600 92.000000
vn 0.365628 -0.094357 -6.267136
v -1.712632 -44.809923 92.140298
vn -0.348296 -0.029732 -6.272433
v 2.683821 -39.531370 92.101276
vn 0.226431 -0.028409 -3.069618
v -2.851895 -39.885500 92.000000
vn 0.216646 -0.041605 -6.274554
v -0.542806 -39.251987 92.157678
vn 0.108762 -0.049388 -3.138829
v -0.429644 -38.000000 92.141900
vn 0.047758 -0.073832 -6.280534
v -0.001685 -45.543197 92.194496
vn 0.291841 -0.018701 -3.125649
v -3.286090 -45.918150 92.000000
vn -0.181372 -0.061890 -6.277905
v 1.678576 -48.770597 92.208914
vn -0.300826 -0.047649 -6.274196
v 2.393979 -45.541533 92.144617
vn 0.153781 -0.039630 -6.279982
v -0.522088 -48.604475 92.203970
vn 0.354341 -0.031453 -6.268927
v -1.591954 -46.898994 92.163895
vn -0.460195 -0.072842 -6.265168
v 3.505567 -48.890567 92.109057
vn -0.366594 -0.071201 -6.270956
v 2.914847 -47.514221 92.133406
vn 0.240853 -0.007578 -6.276253
v -0.843413 -41.312704 92.142987
vn -0.354362 -0.028851 -6.272696
v 2.717509 -43.497514 92.105523
# 39 vertices, 0 vertices normals

f 39//39 22//22 23//23
f 24//24 35//35 18//18
f 7//7 21//21 27//27
f 28//28 29//29 19//19
f 22//22 14//14 13//13
f 31//31 25//25 35//35
f 16//16 30//30 25//25
f 30//30 33//33 15//15
f 1//1 12//12 2//2
f 17//17 20//20 33//33
f 3//3 18//18 34//34
f 19//19 11//11 26//26
f 37//37 8//8 36//36
f 5//5 18//18 3//3
f 10//10 36//36 8//8
f 17//17 39//39 23//23
f 23//23 22//22 4//4
f 22//22 13//13 26//26
f 33//33 16//16 39//39
f 14//14 39//39 16//16
f 14//14 16//16 12//12
f 5//5 24//24 18//18
f 24//24 31//31 35//35
f 4//4 26//26 11//11
f 19//19 26//26 13//13
f 28//28 38//38 21//21
f 28//28 7//7 29//29
f 13//13 28//28 19//19
f 22//22 26//26 4//4
f 22//22 39//39 14//14
f 13//13 14//14 38//38
f 13//13 38//38 28//28
f 38//38 14//14 12//12
f 7//7 28//28 21//21
f 33//33 20//20 37//37
f 31//31 2//2 25//25
f 6//6 32//32 9//9
f 12//12 16//16 25//25
f 30//30 16//16 33//33
f 15//15 33//33 37//37
f 12//12 1//1 38//38
f 15//15 35//35 30//30
f 30//30 35//35 25//25
f 3//3 34//34 6//6
f 34//34 15//15 32//32
f 37//37 36//36 32//32
f 37//37 32//32 15//15
f 37//37 20//20 8//8
f 18//18 35//35 34//34
f 34//34 35//35 15//15
f 12//12 25//25 2//2
f 36//36 10//10 9//9
f 21//21 1//1 27//27
f 34//34 32//32 6//6
f 32//32 36//36 9//9
f 38//38 1//1 21//21
f 33//33 39//39 17//17
# 57 faces, 0 coords texture

# End of File
