####
#
# OBJ File Generated by Meshlab
#
####
# Object 1012.obj
#
# Vertices: 42
# Faces: 60
#
####
vn 0.923078 -0.003817 -1.270594
v -27.885000 50.000000 71.016200
vn 1.855813 -0.000753 -2.532909
v -27.898509 39.616775 71.039587
vn 1.919466 -0.000429 -2.485155
v -21.439225 48.012100 75.851600
vn 0.889589 -0.011774 -1.295261
v -27.904600 38.000000 71.050100
vn 1.823209 0.000312 -2.558067
v -27.581800 38.000000 71.271800
vn 0.937169 0.032419 -1.263140
v -21.420600 38.000000 75.819600
vn 1.886681 0.031086 -2.511830
v -22.497850 38.000000 75.020350
vn 0.947436 0.002897 -1.253597
v -21.433700 50.000000 75.842300
vn 3.712756 -0.055067 -5.068533
v -25.746533 41.137177 72.607836
vn 1.829304 -0.022941 -2.554123
v -27.895588 43.920324 71.034558
vn 1.915191 -0.012747 -2.489381
v -21.441500 42.589500 75.855700
vn 1.910061 0.010548 -2.492326
v -21.442350 41.054900 75.857150
vn 3.736672 0.002280 -5.051211
v -26.474613 47.488644 72.050100
vn 1.850174 -0.004433 -2.539541
v -27.886400 48.829300 71.018700
vn 1.894556 0.018893 -2.505954
v -25.151050 50.000000 73.043950
vn 3.691995 -0.036105 -5.083703
v -26.199569 43.262265 72.253572
vn 1.891452 0.038694 -2.506425
v -21.432150 39.113150 75.839600
vn 1.890151 0.023357 -2.509222
v -23.231349 49.999927 74.501890
vn 3.711380 0.005585 -5.069543
v -26.681342 39.554759 71.942120
vn 1.850639 0.031228 -2.538346
v -26.244300 38.000000 72.239850
vn 1.864459 -0.001922 -2.528359
v -26.625800 50.000000 71.931000
vn 1.846768 -0.003283 -2.540060
v -27.884142 46.401674 71.014918
vn 3.757506 -0.018240 -5.035520
v -24.279771 40.476465 73.706798
vn 3.770263 -0.029150 -5.025095
v -24.434319 42.820380 73.548499
vn 3.761024 0.012973 -5.032897
v -25.210842 46.868573 73.000152
vn 1.823376 -0.001072 -2.559870
v -27.904600 41.467800 71.050200
vn 3.674056 -0.029341 -5.096871
v -27.110296 41.475037 71.615974
vn 1.912344 -0.011170 -2.493075
v -21.435800 44.328900 75.845900
vn 3.762672 0.020413 -5.031793
v -24.984138 44.905910 73.148615
vn 3.785052 0.036279 -5.014963
v -22.827071 39.735744 74.787139
vn 1.870395 0.023764 -2.523882
v -24.360800 38.000000 73.623900
vn 3.718931 0.021693 -5.064194
v -25.398436 39.387676 72.876879
vn 3.805749 -0.002804 -4.999439
v -22.403674 45.755025 75.101847
vn 1.909551 0.002607 -2.495965
v -21.433600 46.156000 75.842000
vn 3.778163 0.010072 -5.020216
v -23.702466 46.452409 74.116288
vn 3.797725 0.011287 -5.005498
v -23.619274 44.697408 74.183091
vn 3.778409 0.019579 -5.019996
v -24.422723 48.333120 73.581503
vn 3.816094 -0.024333 -4.991444
v -22.924756 41.771624 74.717701
vn 3.720340 -0.003490 -5.062672
v -26.394329 45.436574 72.096976
vn 3.820136 -0.012554 -4.988393
v -22.710782 43.744912 74.869724
vn 3.768872 -0.002684 -5.027165
v -25.500617 48.570125 72.770851
vn 3.803003 0.021392 -5.001398
v -22.551861 47.852240 74.992258
# 42 vertices, 0 vertices normals

f 1//1 21//21 14//14
f 4//4 2//2 5//5
f 17//17 7//7 30//30
f 31//31 23//23 30//30
f 15//15 18//18 37//37
f 17//17 6//6 7//7
f 8//8 3//3 42//42
f 2//2 19//19 5//5
f 19//19 20//20 5//5
f 21//21 15//15 41//41
f 21//21 13//13 14//14
f 30//30 7//7 31//31
f 10//10 16//16 27//27
f 27//27 16//16 9//9
f 22//22 39//39 10//10
f 10//10 39//39 16//16
f 2//2 26//26 27//27
f 26//26 10//10 27//27
f 28//28 11//11 40//40
f 12//12 17//17 30//30
f 31//31 20//20 32//32
f 33//33 36//36 35//35
f 25//25 41//41 37//37
f 33//33 35//35 42//42
f 33//33 34//34 28//28
f 16//16 24//24 9//9
f 9//9 32//32 19//19
f 32//32 20//20 19//19
f 29//29 36//36 24//24
f 31//31 32//32 23//23
f 36//36 29//29 35//35
f 9//9 19//19 27//27
f 27//27 19//19 2//2
f 35//35 37//37 42//42
f 38//38 12//12 30//30
f 39//39 29//29 16//16
f 29//29 24//24 16//16
f 42//42 37//37 18//18
f 38//38 30//30 23//23
f 11//11 12//12 38//38
f 40//40 11//11 38//38
f 32//32 9//9 23//23
f 23//23 9//9 24//24
f 37//37 35//35 25//25
f 13//13 22//22 14//14
f 36//36 40//40 24//24
f 35//35 29//29 25//25
f 40//40 38//38 24//24
f 38//38 23//23 24//24
f 33//33 42//42 34//34
f 29//29 39//39 25//25
f 39//39 22//22 13//13
f 28//28 40//40 33//33
f 40//40 36//36 33//33
f 8//8 42//42 18//18
f 39//39 13//13 25//25
f 21//21 41//41 13//13
f 41//41 15//15 37//37
f 34//34 42//42 3//3
f 13//13 41//41 25//25
# 60 faces, 0 coords texture

# End of File
