####
#
# OBJ File Generated by Meshlab
#
####
# Object 1069S.obj
#
# Vertices: 150
# Faces: 248
#
####
vn 4.750842 0.049579 -4.111596
v -53.136925 3.695971 46.045357
vn 4.751232 0.067644 -4.110892
v -50.239873 -0.205024 49.338323
vn 4.806244 -0.048262 -4.046652
v -54.497329 22.235695 44.531940
vn 4.729130 0.046665 -4.136580
v -48.151693 -8.076886 51.611317
vn 4.731584 0.056544 -4.133618
v -48.419818 -6.148475 51.320257
vn 4.729882 0.053801 -4.135623
v -49.049652 7.033113 50.801682
vn 4.739543 0.043519 -4.124697
v -50.298631 7.749971 49.383787
vn 4.725213 0.050092 -4.141029
v -46.757612 -8.087357 53.197606
vn 4.726130 0.045990 -4.140040
v -47.740675 -9.749056 52.057442
vn 4.789195 0.011609 -4.067118
v -51.432167 20.252254 48.158023
vn 4.804230 -0.003218 -4.049414
v -51.384558 22.085620 48.213810
vn 4.784924 0.037623 -4.072026
v -50.258571 19.400220 49.531770
vn 4.722822 0.063793 -4.143570
v -47.901149 6.057525 52.104313
vn 4.757773 0.035026 -4.103718
v -51.795768 11.362209 47.691789
vn 4.751073 0.052097 -4.111325
v -52.186141 -5.233936 47.015432
vn 4.836283 -0.065595 -4.010528
v -53.838955 26.640790 45.250708
vn 4.747898 0.067480 -4.114764
v -50.968363 2.729647 48.542687
vn 4.750802 0.060411 -4.111509
v -51.368652 -1.707907 48.004167
vn 4.790297 -0.028419 -4.065783
v -53.700447 20.721552 45.484704
vn 4.788232 -0.019375 -4.068252
v -53.965411 18.775334 45.185266
vn 4.760420 0.027982 -4.100699
v -51.239276 12.919864 48.349374
vn 4.736288 0.065589 -4.128029
v -50.533090 -7.642339 48.875617
vn 4.778665 0.030153 -4.079429
v -49.317333 20.685166 50.646515
vn 4.735948 0.062826 -4.128586
v -49.620350 2.862618 50.094367
vn 4.740460 0.051348 -4.123550
v -49.435339 -7.874362 50.140873
vn 4.766485 0.045797 -4.093510
v -48.864944 16.164988 51.127063
vn 4.752344 0.070862 -4.109561
v -51.507531 0.464722 47.878467
vn 2.120017 -0.023846 -1.771675
v -51.193850 28.994350 48.399400
vn 2.053805 0.028141 -1.812643
v -46.827150 4.110235 53.289750
vn 2.150134 0.025849 -1.864496
v -53.592580 1.793401 45.500809
vn 2.141124 -0.018661 -1.790885
v -50.149800 27.992750 49.661150
vn 2.042426 0.018514 -1.785775
v -47.436450 -11.526550 52.388450
vn 2.554795 0.018244 -2.193346
v -53.379300 11.308800 45.849550
vn 2.095320 0.018020 -1.833136
v -46.480200 -10.144680 53.494000
vn 2.144853 -0.007160 -1.802724
v -49.463650 26.637250 50.492200
vn 2.526758 0.018014 -2.171249
v -48.147801 19.923496 52.004224
vn 2.250341 0.029359 -1.984118
v -47.372899 1.589864 52.640494
vn 2.106383 0.025445 -1.831116
v -52.603500 -9.742420 46.472900
vn 2.083727 0.025379 -1.810574
v -51.625350 -11.250000 47.577150
vn 2.322538 0.022839 -2.006160
v -47.591700 18.645900 52.637400
vn 2.051905 -0.029981 -1.721468
v -56.022400 21.607500 42.725400
vn 2.771285 0.037147 -2.431196
v -47.533900 -1.413260 52.419200
vn 2.830445 0.036514 -2.505083
v -47.752500 0.414297 52.187200
vn 2.684088 0.026425 -2.354987
v -47.409946 9.531281 52.713054
vn 2.242867 -0.033429 -1.851499
v -54.493350 28.257400 44.428800
vn 2.286994 0.018892 -1.986650
v -53.815050 7.057295 45.310150
vn 2.009575 0.034446 -1.742876
v -46.502000 14.026700 53.826500
vn 2.917739 0.034968 -2.527814
v -52.266600 -1.743390 46.967400
vn 2.176752 0.026468 -1.891489
v -54.127300 5.172965 44.926950
vn 2.421286 0.033967 -2.123872
v -47.170400 7.080340 52.955050
vn 2.252610 0.034993 -1.984072
v -46.902100 5.351770 53.227100
vn 2.556563 -0.012841 -2.170101
v -54.699200 18.345500 44.321800
vn 2.597217 0.041540 -2.250965
v -52.797700 0.281532 46.385600
vn 2.240000 0.034088 -1.960713
v -46.859343 -2.570346 53.171350
vn 2.273793 -0.022332 -1.935339
v -55.353421 19.665745 43.547044
vn 2.308538 0.006689 -1.988135
v -53.759350 13.471000 45.419650
vn 2.123123 0.030865 -1.864765
v -46.005400 -4.619200 54.105600
vn 2.175897 -0.035993 -1.803301
v -55.283500 27.155800 43.495300
vn 2.013533 0.023609 -1.744356
v -53.208500 -7.743810 45.803300
vn 2.093869 0.024765 -1.816237
v -54.115300 3.804070 44.918900
vn 4.736713 0.059988 -4.127745
v -51.464407 -8.506783 47.798700
vn 2.139415 0.023835 -1.852583
v -53.140858 -5.395484 45.910848
vn 4.767884 0.011070 -4.092136
v -51.793211 14.768738 47.710270
vn 4.766017 0.022045 -4.094258
v -49.881391 15.692565 49.938698
vn 4.754722 0.051132 -4.107070
v -52.746656 5.667394 46.521162
vn 4.746455 0.061560 -4.116491
v -50.272326 1.480437 49.327561
vn 4.761206 0.019114 -4.099829
v -50.527451 14.360119 49.184734
vn 4.748040 0.039922 -4.114964
v -50.755714 9.810261 48.875849
vn 4.723641 0.057034 -4.142703
v -48.904364 4.704742 50.945005
vn 4.737260 0.068515 -4.126959
v -49.769886 -3.774477 49.812968
vn 4.792181 0.013939 -4.063601
v -50.416385 21.505702 49.360877
vn 4.756803 0.048948 -4.104636
v -51.291261 6.307857 48.227189
vn 4.804848 0.000580 -4.048681
v -50.738007 23.468813 48.980567
vn 4.822372 -0.060929 -4.027242
v -54.241594 24.303020 44.808608
vn 4.813560 -0.016356 -4.038248
v -51.212772 25.335678 48.415317
vn 4.746951 0.072053 -4.115776
v -50.141076 -2.178201 49.415762
vn 4.720493 0.058730 -4.146277
v -48.374561 2.377321 51.514902
vn 4.756280 0.040540 -4.105391
v -51.413186 8.200027 48.103754
vn 4.764807 0.046578 -4.095413
v -52.189172 9.612866 47.218501
vn 2.690093 0.023432 -2.306916
v -53.313566 9.049434 45.893652
vn 4.729168 0.057965 -4.136402
v -48.145318 8.229830 51.858989
vn 2.160078 -0.027453 -1.793277
v -52.447800 29.331600 46.890850
vn 4.765310 0.016492 -4.095112
v -52.550743 13.135074 46.822779
vn 4.772108 0.045087 -4.086883
v -48.890074 18.383287 51.128867
vn 4.729377 0.071948 -4.135951
v -47.382823 -4.516232 52.539772
vn 4.795345 -0.016953 -4.059866
v -52.447486 21.367217 46.953338
vn 4.762966 0.041211 -4.097621
v -52.503072 7.637672 46.825706
vn 2.163240 -0.029159 -1.785571
v -53.578000 29.038900 45.527100
vn 4.735244 0.080835 -4.129029
v -48.865476 -2.524437 50.881113
vn 4.734190 0.063234 -4.130496
v -49.082340 -0.754235 50.664691
vn 4.729608 0.074203 -4.135660
v -47.796804 -3.024706 52.090776
vn 4.732067 0.057343 -4.133099
v -49.241203 1.072777 50.505860
vn 4.715173 0.056789 -4.152376
v -48.230657 0.465687 51.647689
vn 4.728909 0.040726 -4.136907
v -48.253001 10.318603 51.760513
vn 4.725978 0.059469 -4.140042
v -47.035661 -6.448798 52.903854
vn 4.747882 0.049584 -4.114977
v -49.042250 14.106238 50.902242
vn 4.731197 0.051095 -4.134185
v -48.486938 12.163098 51.509055
vn 2.392808 0.030304 -2.089302
v -46.975577 11.781294 53.229984
vn 4.746182 0.046651 -4.117002
v -49.914360 12.561155 49.878931
vn 2.108125 0.020197 -1.842743
v -45.855700 -8.179145 54.228400
vn 4.768635 0.013616 -4.091239
v -50.952027 16.239160 48.692127
vn 4.762899 0.016498 -4.097915
v -52.199575 16.765939 47.242717
vn 4.773095 0.029082 -4.085916
v -51.312150 18.208289 48.280732
vn 4.749369 0.045328 -4.113374
v -50.669382 11.489688 48.993456
vn 4.809299 -0.013713 -4.043365
v -52.099851 23.645145 47.361155
vn 4.742146 0.065637 -4.121376
v -50.393282 4.519707 49.237474
vn 4.776532 -0.001786 -4.081966
v -52.681552 19.002254 46.692624
vn 4.803531 -0.002647 -4.050216
v -50.038131 24.904015 49.812504
vn 4.749468 0.066320 -4.112944
v -52.300521 2.126054 46.996159
vn 4.731870 0.061501 -4.133269
v -49.938907 -5.738277 49.594121
vn 4.739122 0.065142 -4.124803
v -51.323606 -6.420735 47.999278
vn 4.742351 0.047288 -4.121437
v -50.291143 -9.355494 49.135226
vn 2.387032 0.026357 -2.067953
v -52.558900 -3.004655 46.615000
vn 4.824541 -0.033458 -4.025040
v -52.404273 25.765041 46.986549
vn 4.741723 0.053482 -4.122088
v -51.093472 -10.378785 48.201482
vn 2.097431 0.025904 -1.839005
v -45.724300 -6.299620 54.400400
vn 4.741195 0.042110 -4.122823
v -49.539459 10.819784 50.288506
vn 2.241119 0.003822 -1.899467
v -48.949961 24.333950 51.097591
vn 2.592617 0.014343 -2.209637
v -48.764300 22.169700 51.305800
vn 4.733405 0.075614 -4.131281
v -48.670231 -4.271864 51.066737
vn 4.743266 0.052417 -4.120319
v -49.807631 -10.951043 49.674802
vn 2.055020 0.025676 -1.784170
v -50.218750 -12.191300 49.183200
vn 4.815262 -0.042885 -4.036035
v -53.226237 24.685870 46.014341
vn 4.747091 0.068081 -4.115620
v -47.663574 14.983763 52.506640
vn 2.102385 0.024901 -1.827222
v -46.766513 16.438750 53.558358
vn 4.736481 0.049554 -4.128147
v -48.842089 -10.183543 50.794615
vn 2.124645 0.024057 -1.850314
v -48.692332 -12.180306 50.941387
vn 4.831511 -0.080878 -4.015995
v -55.225294 23.408146 43.639251
vn 2.222805 -0.039410 -1.841154
v -56.047073 23.955918 42.634342
vn 4.836941 -0.075844 -4.009570
v -55.097488 25.309769 43.757057
vn 2.182639 -0.034098 -1.813415
v -55.754000 25.912050 42.955550
vn 2.484632 0.007886 -2.138111
v -53.947150 15.181750 45.206750
vn 2.499596 -0.003069 -2.129791
v -54.365650 17.250950 44.720050
vn 4.794382 -0.037288 -4.060888
v -54.726776 20.402551 44.274776
vn 4.747703 0.058468 -4.115124
v -52.374620 -7.182418 46.773456
vn 4.762454 0.015040 -4.098421
v -52.980078 15.074796 46.327270
vn 4.753920 0.054805 -4.107973
v -47.890784 16.819729 52.268577
vn 4.769850 0.009550 -4.089782
v -53.400459 17.010732 45.851093
vn 4.799573 -0.030540 -4.054808
v -53.385010 22.837015 45.840081
vn 4.742863 0.054146 -4.120754
v -51.122092 -4.058646 48.259932
vn 4.758123 0.058607 -4.103070
v -51.800282 4.178037 47.603390
vn 4.820979 -0.041860 -4.029189
v -51.641733 26.976795 47.891738
vn 4.732302 0.045991 -4.132944
v -50.000074 6.066999 49.709882
vn 4.791742 0.013295 -4.064143
v -49.655643 22.829961 50.261460
vn 4.814431 -0.033274 -4.037130
v -50.609083 26.799871 49.124476
vn 4.711182 0.059180 -4.156871
v -47.612707 3.974011 52.397564
vn 4.738478 0.048963 -4.125819
v -49.344306 9.063017 50.497798
vn 4.778911 0.038759 -4.079054
v -50.027309 17.376448 49.778932
vn 4.833587 -0.054052 -4.013920
v -52.532831 27.759175 46.812499
vn 4.739665 0.081195 -4.123942
v -47.701815 13.352102 52.425070
# 150 vertices, 0 vertices normals

f 25//25 4//4 126//126
f 99//99 117//117 104//104
f 83//83 33//33 56//56
f 139//139 19//19 3//3
f 109//109 1//1 141//141
f 27//27 18//18 48//48
f 10//10 107//107 86//86
f 72//72 106//106 141//141
f 114//114 75//75 105//105
f 29//29 146//146 51//51
f 117//117 99//99 97//97
f 76//76 18//18 2//2
f 144//144 108//108 118//118
f 1//1 109//109 30//30
f 27//27 48//48 53//53
f 121//121 122//122 115//115
f 128//128 3//3 41//41
f 91//91 42//42 54//54
f 89//89 76//76 90//90
f 120//120 89//89 91//91
f 91//91 89//89 42//42
f 126//126 127//127 121//121
f 78//78 79//79 68//68
f 67//67 63//63 101//101
f 21//21 104//104 14//14
f 130//130 74//74 128//128
f 4//4 95//95 8//8
f 81//81 44//44 50//50
f 116//116 95//95 57//57
f 108//108 145//145 35//35
f 128//128 129//129 130//130
f 24//24 106//106 69//69
f 22//22 61//61 111//111
f 15//15 113//113 140//140
f 148//148 64//64 101//101
f 4//4 25//25 5//5
f 143//143 7//7 6//6
f 135//135 15//15 111//111
f 96//96 67//67 64//64
f 64//64 67//67 101//101
f 29//29 37//37 146//146
f 6//6 69//69 143//143
f 139//139 105//105 86//86
f 11//11 71//71 10//10
f 110//110 5//5 25//25
f 110//110 25//25 22//22
f 72//72 87//87 78//78
f 34//34 9//9 8//8
f 9//9 34//34 32//32
f 118//118 108//108 35//35
f 16//16 74//74 130//130
f 61//61 22//22 112//112
f 84//84 36//36 40//40
f 145//145 28//28 31//31
f 6//6 13//13 69//69
f 69//69 77//77 24//24
f 80//80 33//33 79//79
f 12//12 84//84 148//148
f 33//33 83//83 14//14
f 6//6 7//7 147//147
f 82//82 28//28 149//149
f 119//119 23//23 144//144
f 73//73 144//144 71//71
f 84//84 12//12 23//23
f 12//12 71//71 23//23
f 84//84 23//23 36//36
f 137//137 84//84 40//40
f 5//5 85//85 95//95
f 3//3 134//134 41//41
f 128//128 41//41 129//129
f 62//62 113//113 15//15
f 5//5 110//110 120//120
f 120//120 110//110 70//70
f 74//74 139//139 3//3
f 19//19 139//139 86//86
f 79//79 87//87 80//80
f 78//78 87//87 79//79
f 126//126 4//4 9//9
f 66//66 27//27 17//17
f 88//88 149//149 16//16
f 88//88 82//82 149//149
f 2//2 27//27 66//66
f 92//92 90//90 2//2
f 90//90 92//92 93//93
f 81//81 94//94 44//44
f 13//13 6//6 81//81
f 94//94 97//97 98//98
f 94//94 98//98 44//44
f 67//67 96//96 99//99
f 100//100 34//34 8//8
f 148//148 101//101 103//103
f 101//101 63//63 102//102
f 101//101 102//102 103//103
f 104//104 117//117 68//68
f 104//104 68//68 14//14
f 74//74 16//16 123//123
f 11//11 105//105 73//73
f 42//42 90//90 93//93
f 42//42 93//93 43//43
f 84//84 26//26 148//148
f 141//141 1//1 65//65
f 17//17 109//109 141//141
f 110//110 22//22 111//111
f 146//146 77//77 69//69
f 112//112 25//25 126//126
f 110//110 140//140 70//70
f 70//70 140//140 76//76
f 18//18 140//140 113//113
f 113//113 48//48 18//18
f 140//140 110//110 111//111
f 103//103 102//102 107//107
f 103//103 107//107 10//10
f 10//10 12//12 103//103
f 103//103 12//12 148//148
f 71//71 12//12 10//10
f 86//86 107//107 19//19
f 50//50 13//13 81//81
f 11//11 86//86 105//105
f 86//86 11//11 10//10
f 75//75 114//114 142//142
f 105//105 75//75 73//73
f 51//51 13//13 50//50
f 146//146 13//13 51//51
f 52//52 55//55 134//134
f 107//107 20//20 19//19
f 20//20 52//52 134//134
f 83//83 21//21 14//14
f 33//33 14//14 79//79
f 61//61 112//112 115//115
f 115//115 38//38 61//61
f 38//38 115//115 39//39
f 112//112 22//22 25//25
f 76//76 89//89 70//70
f 116//116 100//100 8//8
f 117//117 94//94 147//147
f 94//94 117//117 97//97
f 13//13 146//146 69//69
f 37//37 93//93 77//77
f 37//37 43//43 93//93
f 18//18 76//76 140//140
f 108//108 144//144 73//73
f 118//118 119//119 144//144
f 119//119 36//36 23//23
f 109//109 53//53 30//30
f 54//54 85//85 91//91
f 91//91 85//85 120//120
f 85//85 5//5 120//120
f 75//75 142//142 145//145
f 28//28 142//142 149//149
f 112//112 126//126 121//121
f 112//112 121//121 115//115
f 115//115 122//122 39//39
f 123//123 114//114 105//105
f 123//123 105//105 139//139
f 80//80 87//87 46//46
f 9//9 32//32 126//126
f 127//127 126//126 32//32
f 56//56 136//136 83//83
f 138//138 107//107 102//102
f 104//104 21//21 99//99
f 90//90 76//76 2//2
f 120//120 70//70 89//89
f 42//42 89//89 90//90
f 121//121 127//127 122//122
f 15//15 135//135 62//62
f 59//59 62//62 135//135
f 7//7 78//78 68//68
f 68//68 79//79 14//14
f 97//97 99//99 96//96
f 136//136 102//102 63//63
f 26//26 137//137 124//124
f 26//26 124//124 96//96
f 74//74 3//3 128//128
f 9//9 4//4 8//8
f 4//4 5//5 95//95
f 106//106 72//72 143//143
f 64//64 26//26 96//96
f 57//57 85//85 54//54
f 95//95 85//85 57//57
f 135//135 61//61 38//38
f 135//135 38//38 59//59
f 61//61 135//135 111//111
f 130//130 129//129 131//131
f 16//16 130//130 58//58
f 24//24 66//66 17//17
f 45//45 16//16 58//58
f 123//123 16//16 114//114
f 27//27 2//2 18//18
f 53//53 109//109 27//27
f 27//27 109//109 17//17
f 130//130 131//131 58//58
f 49//49 1//1 60//60
f 49//49 65//65 1//1
f 60//60 1//1 30//30
f 24//24 92//92 66//66
f 132//132 133//133 138//138
f 20//20 138//138 133//133
f 133//133 52//52 20//20
f 107//107 138//138 20//20
f 24//24 17//17 106//106
f 69//69 106//106 143//143
f 24//24 77//77 92//92
f 65//65 49//49 46//46
f 134//134 55//55 41//41
f 145//145 31//31 35//35
f 46//46 87//87 65//65
f 93//93 92//92 77//77
f 125//125 137//137 40//40
f 63//63 83//83 136//136
f 136//136 138//138 102//102
f 136//136 56//56 132//132
f 83//83 63//63 21//21
f 134//134 3//3 19//19
f 63//63 67//67 21//21
f 26//26 84//84 137//137
f 138//138 136//136 132//132
f 123//123 139//139 74//74
f 140//140 111//111 15//15
f 7//7 143//143 72//72
f 145//145 142//142 28//28
f 6//6 147//147 81//81
f 144//144 23//23 71//71
f 17//17 141//141 106//106
f 73//73 75//75 108//108
f 147//147 94//94 81//81
f 142//142 114//114 149//149
f 16//16 45//45 88//88
f 77//77 146//146 37//37
f 147//147 68//68 117//117
f 71//71 11//11 73//73
f 2//2 66//66 92//92
f 148//148 26//26 64//64
f 75//75 145//145 108//108
f 21//21 67//67 99//99
f 47//47 124//124 125//125
f 7//7 72//72 78//78
f 147//147 7//7 68//68
f 65//65 87//87 72//72
f 98//98 97//97 150//150
f 124//124 150//150 96//96
f 65//65 72//72 141//141
f 149//149 114//114 16//16
f 124//124 137//137 125//125
f 47//47 150//150 124//124
f 98//98 150//150 47//47
f 150//150 97//97 96//96
f 8//8 95//95 116//116
f 20//20 134//134 19//19
# 248 faces, 0 coords texture

# End of File
