####
#
# OBJ File Generated by Meshlab
#
####
# Object 1082.obj
#
# Vertices: 120
# Faces: 197
#
####
vn 0.658226 0.008672 -3.071126
v -6.345620 -50.000000 94.126500
vn -1.630143 -0.050096 -6.063462
v 9.374571 -39.455966 93.693475
vn -1.123831 0.023665 -2.930651
v 11.648750 -50.000000 93.041000
vn -1.666484 -0.072734 -6.053818
v 9.554611 -43.270510 93.674560
vn -0.347846 0.002696 -6.273240
v 2.571933 -39.352674 94.706758
vn -0.697084 -0.058552 -3.062166
v 8.287152 -38.000000 93.939799
vn -2.080279 -0.046059 -5.924200
v 11.171332 -48.269840 93.212181
vn -1.201970 -0.047025 -2.902160
v 13.031800 -38.000000 92.411400
vn -0.125038 -0.010513 -3.138536
v 1.893820 -38.000000 94.743150
vn -0.319816 -0.067984 -6.272538
v 2.486388 -43.455462 94.734269
vn 0.425496 -0.018448 -3.108858
v -4.010715 -50.000000 94.564200
vn 1.011566 -0.068000 -6.195326
v -4.846427 -45.016182 94.396354
vn 1.174249 0.000235 -2.867486
v -12.852000 -48.507450 92.000000
vn 0.631345 0.021954 -1.472992
v -12.800100 -50.000000 92.000000
vn 1.040716 -0.036395 -2.960145
v -10.227224 -50.000000 93.062300
vn 1.135085 -0.034169 -2.913776
v -12.711600 -40.589500 92.000000
vn 1.180806 0.006727 -2.891855
v -12.714800 -41.515450 92.000000
vn 1.218194 -0.014367 -2.947463
v -12.687400 -43.238000 92.000000
vn -0.895781 -0.025865 -6.215657
v 5.924507 -43.055811 94.415219
vn 0.553363 -0.016059 -1.488861
v -12.662900 -38.000000 92.000000
vn -0.018056 -0.022331 -3.140036
v 0.812109 -50.000000 94.829150
vn -1.159028 -0.031776 -6.173976
v 7.018942 -41.481008 94.219524
vn -0.966427 -0.052540 -2.987337
v 10.771950 -38.000000 93.267250
vn -0.622176 -0.006682 -1.453054
v 13.992600 -38.000000 92.000000
vn -0.295585 -0.006407 -3.125872
v 4.213883 -38.000002 94.604005
vn -0.663225 0.041074 -1.490430
v 13.976500 -50.000000 92.000000
vn -0.840187 -0.017954 -3.023586
v 9.672065 -50.000000 93.696150
vn 1.082635 -0.044836 -6.185989
v -5.184192 -46.981472 94.347085
vn 0.244177 -0.015430 -6.277516
v -0.965562 -43.544918 94.745250
vn -0.090647 -0.039849 -6.280883
v 1.336832 -46.058510 94.790050
vn -0.625436 -0.067037 -6.250074
v 4.575129 -44.561168 94.584990
vn 0.009197 -0.031683 -3.141351
v 0.878780 -38.000000 94.757800
vn -0.625559 -0.041397 -6.249055
v 4.478055 -48.451533 94.631546
vn 0.455892 -0.045611 -6.264941
v -1.735760 -39.353971 94.686964
vn 1.745550 -0.085466 -6.032363
v -8.393937 -40.985477 93.528260
vn -2.326796 -0.043868 -5.833612
v 12.562248 -40.589221 92.631561
vn 0.179726 -0.015647 -3.134495
v -1.735405 -50.000000 94.769250
vn -2.036461 -0.026609 -5.940375
v 11.202008 -44.449912 93.173492
vn -0.421540 -0.041425 -6.267116
v 3.290955 -46.546985 94.713532
vn 0.939135 -0.081924 -6.208529
v -4.421566 -43.196395 94.432138
vn 1.857372 -0.055341 -6.000036
v -9.052616 -48.348814 93.415040
vn -1.893753 -0.049949 -5.989075
v 10.446526 -46.594712 93.422967
vn 0.786902 -0.034230 -6.232275
v -3.389002 -39.571004 94.521727
vn -1.217587 -0.017429 -2.842999
v 14.135400 -43.679250 92.000000
vn 0.476883 -0.044485 -6.262660
v -1.917375 -40.976131 94.686625
vn 0.505648 -0.043899 -6.259460
v -2.251695 -42.486890 94.674751
vn 0.342826 -0.005850 -3.120593
v -2.933465 -38.000000 94.585650
vn 1.156185 -0.073870 -6.173049
v -5.383083 -40.019248 94.222296
vn -2.260829 -0.025405 -5.860524
v 12.132743 -46.453214 92.830407
vn 0.827503 -0.015229 -3.029051
v -8.119570 -50.000000 93.702100
vn 1.005144 -0.058698 -2.976055
v -9.992995 -38.000000 92.960750
vn 1.773052 -0.077475 -6.025551
v -8.626229 -42.904055 93.473659
vn 1.198613 -0.043727 -2.908452
v -12.739150 -44.679350 92.000000
vn -2.330783 -0.061699 -5.831353
v 12.703975 -42.825140 92.603983
vn 1.150231 -0.027642 -2.894132
v -12.834850 -47.028250 92.000000
vn -1.040796 -0.030607 -6.193963
v 6.731491 -48.069942 94.324679
vn -1.976742 -0.071897 -5.960837
v 11.027803 -42.034824 93.206618
vn -0.439381 -0.014305 -3.108564
v 5.833010 -49.999960 94.481132
vn 2.274328 -0.052882 -5.855168
v -11.811076 -41.594296 92.368826
vn -1.232421 0.007397 -2.888954
v 14.114500 -45.942300 92.000000
vn -2.365611 0.011909 -5.819308
v 12.843292 -44.898247 92.549915
vn 2.156102 -0.085246 -5.900730
v -11.485213 -39.483849 92.453714
vn -0.025409 -0.038575 -6.281339
v 0.801990 -43.755655 94.779445
vn -1.265340 -0.034896 -2.908891
v 14.025100 -41.155700 92.000000
vn 0.418678 -0.066241 -6.267017
v -2.068650 -47.727786 94.727355
vn -1.285906 -0.070235 -6.147808
v 7.968801 -43.072976 94.047428
vn 1.454471 -0.076032 -6.109402
v -6.954581 -41.644672 93.914039
vn 0.656531 -0.065076 -6.246247
v -3.236631 -46.340311 94.609306
vn -1.551917 -0.044056 -6.085519
v 9.033513 -41.333995 93.782452
vn 1.903523 -0.122616 -5.984098
v -9.266238 -39.518434 93.234811
vn -2.448000 0.037088 -5.784038
v 12.888036 -48.143234 92.535525
vn 2.236513 -0.015240 -5.868536
v -11.096608 -45.604395 92.689897
vn 2.025806 -0.088986 -5.945703
v -10.091842 -41.278462 92.987676
vn -1.953470 -0.014819 -5.969523
v 10.845995 -40.052956 93.249200
vn -0.501496 -0.041561 -3.100716
v 6.248720 -38.000000 94.328800
vn -1.251167 0.049821 -2.824255
v 14.091000 -48.290750 92.000000
vn -2.274666 -0.077237 -5.851471
v 12.302288 -39.063117 92.731516
vn -0.645563 -0.011927 -3.073075
v 7.952430 -50.000000 94.102400
vn -1.608274 -0.043611 -6.069341
v 9.234128 -45.181059 93.779424
vn -1.459329 -0.033197 -6.107754
v 8.658326 -47.529837 93.937073
vn 0.748808 -0.061737 -6.234536
v -3.615888 -48.472638 94.596112
vn 0.570010 -0.046216 -6.254377
v -2.753608 -44.408757 94.643706
vn 2.232158 -0.096701 -5.869994
v -11.115777 -48.199579 92.701630
vn 0.850071 -0.065297 -3.023908
v -8.060505 -38.000000 93.560200
vn 0.136377 -0.021213 -6.278076
v -0.176329 -40.178508 94.775237
vn -0.092039 -0.025878 -6.280158
v 1.084813 -39.227518 94.770784
vn -0.515908 -0.025400 -6.261510
v 4.041403 -42.440998 94.605828
vn 0.512660 -0.021443 -3.099080
v -4.687340 -38.000000 94.324400
vn 1.193830 0.008754 -2.905790
v -11.793600 -50.000000 92.431400
vn 0.676552 -0.040533 -3.067048
v -6.188110 -38.000000 94.039650
vn -1.159756 -0.050266 -6.170833
v 7.342737 -45.869903 94.212922
vn -0.203995 -0.031331 -3.132432
v 3.204375 -50.000000 94.753600
vn 1.067469 -0.042030 -2.954488
v -11.566600 -38.000000 92.403200
vn 0.852751 -0.081587 -6.221382
v -3.933513 -41.328656 94.479792
vn 0.122633 -0.041026 -3.138676
v -0.677387 -38.000000 94.731400
vn -0.762817 -0.020394 -6.230332
v 5.344246 -41.420257 94.499268
vn -1.245122 -0.035964 -6.155365
v 7.635128 -39.743398 94.100328
vn 1.537887 -0.105881 -6.089267
v -7.331066 -39.684309 93.786638
vn -0.762072 -0.045815 -6.234387
v 5.242680 -46.539643 94.532210
vn 1.896602 -0.093408 -5.985616
v -9.327642 -44.941544 93.305827
vn 0.105078 -0.007111 -6.279378
v -0.147556 -41.984298 94.774539
vn -0.232833 -0.054431 -6.277420
v 2.124495 -48.412489 94.781782
vn -1.241932 -0.016428 -2.884948
v 14.005000 -39.154600 92.000000
vn -0.241249 -0.004852 -6.276852
v 1.897184 -41.359337 94.744333
vn 0.241922 -0.061243 -6.275850
v -0.993033 -45.710959 94.764341
vn 0.092518 -0.049298 -6.280495
v -0.123782 -48.005141 94.808320
vn -0.880138 -0.046530 -6.218504
v 5.750737 -39.820174 94.422787
vn 1.448562 -0.031058 -6.111019
v -6.991799 -48.007979 93.980865
vn 2.053089 -0.034036 -5.936866
v -9.840374 -46.824766 93.141302
vn 2.182420 -0.077215 -5.887630
v -10.917651 -43.411320 92.734353
vn -0.501120 -0.003211 -6.262290
v 3.917928 -40.367265 94.617429
vn 1.682113 -0.064370 -6.048842
v -8.175025 -46.479126 93.672749
vn 1.172431 -0.079716 -6.171581
v -5.488762 -42.075324 94.223990
vn 1.596476 -0.111482 -6.075666
v -7.723030 -44.730489 93.745898
vn -0.936870 -0.065791 -6.211268
v 6.256034 -44.740139 94.374385
vn 1.394218 -0.082985 -6.122832
v -6.541478 -43.602029 94.034474
vn -1.700817 -0.056581 -6.045293
v 9.741359 -48.429443 93.661427
vn 1.373338 -0.075682 -6.129514
v -6.494596 -45.666344 94.066746
vn 1.145431 -0.022052 -6.176139
v -5.389410 -48.767101 94.317968
vn -0.307667 -0.054481 -6.273094
v 2.458771 -44.920373 94.752204
# 120 vertices, 0 vertices normals

f 4//4 57//57 38//38
f 47//47 34//34 43//43
f 79//79 91//91 66//66
f 66//66 19//19 22//22
f 8//8 24//24 103//103
f 68//68 12//12 82//82
f 28//28 118//118 12//12
f 82//82 29//29 105//105
f 108//108 112//112 118//118
f 98//98 90//90 48//48
f 29//29 101//101 63//63
f 31//31 39//39 120//120
f 111//111 96//96 87//87
f 91//91 56//56 99//99
f 45//45 94//94 43//43
f 36//36 57//57 74//74
f 73//73 35//35 52//52
f 5//5 104//104 86//86
f 65//65 105//105 106//106
f 28//28 119//119 108//108
f 108//108 41//41 112//112
f 7//7 42//42 49//49
f 88//88 43//43 48//48
f 44//44 60//60 61//61
f 10//10 87//87 31//31
f 47//47 95//95 34//34
f 81//81 11//11 119//119
f 108//108 50//50 41//41
f 50//50 15//15 41//41
f 70//70 51//51 84//84
f 59//59 16//16 62//62
f 110//110 53//53 18//18
f 55//55 53//53 72//72
f 58//58 92//92 33//33
f 17//17 59//59 18//18
f 60//60 76//76 71//71
f 59//59 17//17 16//16
f 64//64 44//44 54//54
f 21//21 37//37 106//106
f 4//4 79//79 66//66
f 66//66 91//91 115//115
f 22//22 19//19 96//96
f 57//57 4//4 69//69
f 35//35 73//73 70//70
f 68//68 65//65 81//81
f 74//74 2//2 23//23
f 97//97 75//75 6//6
f 76//76 26//26 71//71
f 36//36 74//74 77//77
f 77//77 74//74 23//23
f 7//7 27//27 117//117
f 9//9 25//25 5//5
f 80//80 79//79 42//42
f 42//42 79//79 38//38
f 49//49 38//38 61//61
f 49//49 71//71 7//7
f 2//2 74//74 69//69
f 28//28 12//12 68//68
f 111//111 87//87 104//104
f 84//84 90//90 98//98
f 54//54 38//38 57//57
f 31//31 87//87 19//19
f 19//19 87//87 96//96
f 82//82 46//46 29//29
f 28//28 108//108 118//118
f 118//118 112//112 114//114
f 88//88 47//47 43//43
f 14//14 13//13 89//89
f 29//29 63//63 30//30
f 105//105 29//29 30//30
f 92//92 21//21 102//102
f 93//93 51//51 62//62
f 10//10 101//101 104//104
f 40//40 94//94 46//46
f 10//10 120//120 63//63
f 95//95 32//32 86//86
f 9//9 86//86 32//32
f 60//60 49//49 61//61
f 71//71 49//49 60//60
f 96//96 107//107 22//22
f 69//69 97//97 2//2
f 102//102 21//21 106//106
f 111//111 107//107 96//96
f 68//68 81//81 28//28
f 70//70 98//98 35//35
f 98//98 70//70 84//84
f 70//70 73//73 62//62
f 31//31 115//115 99//99
f 99//99 39//39 31//31
f 62//62 73//73 59//59
f 100//100 112//112 109//109
f 92//92 102//102 33//33
f 102//102 39//39 33//33
f 86//86 104//104 85//85
f 34//34 45//45 43//43
f 45//45 46//46 94//94
f 43//43 94//94 48//48
f 45//45 34//34 85//85
f 35//35 98//98 67//67
f 56//56 33//33 99//99
f 99//99 33//33 39//39
f 64//64 36//36 103//103
f 36//36 54//54 57//57
f 98//98 48//48 67//67
f 97//97 107//107 75//75
f 83//83 13//13 55//55
f 67//67 116//116 52//52
f 52//52 100//100 110//110
f 52//52 35//35 67//67
f 8//8 77//77 23//23
f 103//103 77//77 8//8
f 77//77 103//103 36//36
f 5//5 111//111 104//104
f 85//85 104//104 101//101
f 65//65 68//68 105//105
f 106//106 105//105 30//30
f 70//70 62//62 51//51
f 89//89 83//83 15//15
f 9//9 5//5 86//86
f 13//13 83//83 89//89
f 101//101 45//45 85//85
f 95//95 86//86 85//85
f 48//48 90//90 88//88
f 37//37 65//65 106//106
f 97//97 6//6 2//2
f 59//59 110//110 18//18
f 34//34 95//95 85//85
f 73//73 110//110 59//59
f 3//3 71//71 26//26
f 37//37 11//11 81//81
f 100//100 72//72 110//110
f 7//7 71//71 3//3
f 68//68 82//82 105//105
f 54//54 44//44 61//61
f 78//78 117//117 27//27
f 102//102 106//106 30//30
f 56//56 58//58 33//33
f 69//69 22//22 97//97
f 56//56 80//80 78//78
f 78//78 58//58 56//56
f 25//25 111//111 5//5
f 22//22 69//69 66//66
f 107//107 25//25 75//75
f 36//36 64//64 54//54
f 108//108 1//1 50//50
f 48//48 94//94 113//113
f 109//109 41//41 83//83
f 54//54 61//61 38//38
f 40//40 46//46 82//82
f 52//52 110//110 73//73
f 40//40 82//82 12//12
f 107//107 97//97 22//22
f 107//107 111//111 25//25
f 109//109 72//72 100//100
f 109//109 112//112 41//41
f 2//2 6//6 23//23
f 80//80 42//42 117//117
f 39//39 102//102 30//30
f 67//67 113//113 116//116
f 72//72 53//53 110//110
f 113//113 94//94 40//40
f 113//113 67//67 48//48
f 20//20 93//93 62//62
f 74//74 57//57 69//69
f 116//116 113//113 40//40
f 41//41 15//15 83//83
f 38//38 49//49 42//42
f 116//116 40//40 12//12
f 112//112 100//100 114//114
f 79//79 4//4 38//38
f 12//12 118//118 116//116
f 91//91 79//79 80//80
f 114//114 100//100 52//52
f 91//91 80//80 56//56
f 27//27 7//7 3//3
f 66//66 115//115 19//19
f 19//19 115//115 31//31
f 115//115 91//91 99//99
f 116//116 114//114 52//52
f 80//80 117//117 78//78
f 117//117 42//42 7//7
f 118//118 114//114 116//116
f 119//119 1//1 108//108
f 81//81 119//119 28//28
f 119//119 11//11 1//1
f 46//46 45//45 101//101
f 29//29 46//46 101//101
f 37//37 81//81 65//65
f 20//20 62//62 16//16
f 10//10 63//63 101//101
f 83//83 55//55 109//109
f 87//87 10//10 104//104
f 109//109 55//55 72//72
f 31//31 120//120 10//10
f 120//120 30//30 63//63
f 30//30 120//120 39//39
f 66//66 69//69 4//4
# 197 faces, 0 coords texture

# End of File
