####
#
# OBJ File Generated by Meshlab
#
####
# Object 1084.obj
#
# Vertices: 75
# Faces: 116
#
####
vn -0.434853 -0.035097 -3.107975
v 4.545800 38.000000 92.720300
vn 0.539809 -0.026805 -3.094612
v -6.498240 50.000000 92.286800
vn 0.653995 -0.087759 -2.926445
v -8.606300 38.097000 92.000000
vn 0.698144 -0.121245 -3.056150
v -8.526840 38.000000 92.022000
vn 0.428859 0.005615 -1.524205
v -8.605030 38.000000 92.000000
vn -0.499308 -0.090788 -6.261004
v 2.658279 46.214332 92.821470
vn 0.377211 -0.035383 -3.118104
v -4.122015 50.000000 92.647650
vn 0.581634 -0.035954 -3.132129
v -8.067135 48.689400 92.000000
vn 0.275448 -0.054921 -3.125875
v -3.251280 38.000000 92.894500
vn 0.655004 -0.046392 -3.189900
v -8.374965 39.844200 92.000000
vn 0.559851 -0.064158 -6.255441
v -3.116745 40.942612 92.855958
vn 0.299646 -0.012302 -1.582952
v -8.013330 50.000000 92.000000
vn 0.162284 -0.020120 -3.135989
v -1.650470 50.000000 92.869900
vn -0.024622 -0.001535 -3.139605
v 0.131960 50.000000 92.908700
vn -0.189181 -0.009074 -3.134606
v 2.397115 38.000000 92.920250
vn -0.223437 -0.027591 -3.133066
v 1.982110 50.000000 92.818450
vn -0.215625 -0.070588 -6.275447
v 1.086407 44.590532 92.938916
vn -0.686459 -0.021406 -3.026502
v 8.230160 38.551400 92.000000
vn -0.595524 -0.051233 -2.962099
v 7.837240 47.695100 92.000000
vn -0.354458 0.000309 -1.531139
v 8.229680 38.000000 92.000000
vn -0.328259 -0.047270 -1.670950
v 7.523580 50.000000 92.000000
vn -0.653453 -0.031712 -3.115815
v 7.860405 45.948700 92.000000
vn -0.691175 -0.036021 -3.055809
v 7.992510 43.609400 92.000000
vn 0.931056 -0.065869 -6.212374
v -5.241711 41.174908 92.588803
vn -1.002749 -0.095260 -6.200948
v 5.307011 39.799412 92.564409
vn -0.192078 -0.082732 -6.276556
v 0.891083 46.885721 92.916091
vn 1.062612 -0.105047 -6.189733
v -5.996105 39.337865 92.497126
vn 0.087889 -0.011610 -3.139489
v -1.367835 38.000000 92.985700
vn -0.712682 -0.083732 -6.239399
v 3.775670 41.249496 92.761498
vn -0.515908 -0.099374 -6.260197
v 2.654232 48.223212 92.781591
vn 0.565992 -0.020831 -2.986869
v -8.424860 44.173850 92.000000
vn 1.052859 -0.084211 -6.192900
v -6.422289 45.358854 92.357832
vn -0.238797 -0.049270 -6.276194
v 1.259146 40.337855 92.958666
vn 0.341029 -0.078488 -6.271506
v -2.133970 39.336535 92.945578
vn -0.077408 -0.023385 -3.139661
v 0.546460 38.000000 92.990200
vn -0.008195 -0.055085 -6.279956
v -0.242143 39.306653 92.999910
vn -0.667500 -0.032658 -3.051152
v 8.156200 40.486450 92.000000
vn -0.008150 -0.041204 -6.280450
v -0.065339 42.557483 92.975075
vn -0.620955 -0.036388 -3.077787
v 6.956247 38.000017 92.294799
vn -0.522898 -0.080346 -3.097097
v 5.663885 50.000000 92.362000
vn -1.218022 -0.050655 -6.160904
v 6.771085 43.566732 92.276770
vn 1.091423 -0.094705 -6.186474
v -6.657470 47.069193 92.290867
vn 0.175184 -0.054437 -6.278849
v -1.215286 40.886316 92.963656
vn 0.150902 -0.059442 -6.279481
v -0.874084 45.640914 92.925967
vn 0.574812 -0.044331 -3.073911
v -8.264535 46.403050 92.000000
vn -0.853824 -0.049822 -6.223325
v 4.610513 43.081399 92.631601
vn -1.045008 -0.061614 -6.192178
v 5.670875 45.040300 92.464318
vn -0.652381 -0.026128 -3.081861
v 8.065710 42.079700 92.000000
vn 0.967764 -0.076805 -6.206284
v -5.577521 48.449131 92.457402
vn -0.438448 -0.043904 -6.263677
v 2.183921 42.599060 92.902832
vn -0.651255 -0.046737 -6.247081
v 3.428004 44.584092 92.767297
vn 0.703478 -0.070046 -6.240358
v -3.905046 42.834131 92.761618
vn 0.450682 -0.079334 -6.265239
v -2.520007 44.399737 92.858438
vn 0.736122 -0.107012 -6.237153
v -3.996020 39.365776 92.785322
vn -0.604613 -0.091501 -6.247791
v 3.370246 39.426513 92.844103
vn 0.776876 -0.080247 -6.233057
v -4.353952 44.861443 92.673554
vn 0.505320 -0.067835 -6.259101
v -2.788751 46.388864 92.828034
vn 0.855524 -0.079594 -6.222649
v -4.827896 46.710267 92.590908
vn 0.206058 -0.053055 -6.277041
v -1.123852 47.711980 92.904345
vn 0.578278 -0.092617 -3.083682
v -6.607794 38.000144 92.422261
vn -0.376370 -0.067910 -3.118312
v 3.821410 50.000000 92.635600
vn -0.839131 -0.137110 -6.221941
v 4.530011 48.015331 92.596165
vn 0.162506 -0.086152 -6.278984
v -0.919731 43.964552 92.944773
vn 0.426703 -0.046031 -3.111469
v -4.410930 38.000000 92.751000
vn -1.142029 -0.090948 -6.175790
v 6.140995 46.878406 92.354341
vn -0.787791 -0.088823 -6.229922
v 4.266605 46.477026 92.657270
vn 0.638265 0.004447 -3.121249
v -8.348680 41.748250 92.000000
vn -0.137823 -0.045925 -6.278269
v 0.412535 48.908540 92.907033
vn -1.247673 -0.077652 -6.156622
v 7.121674 40.171754 92.229692
vn 1.190597 -0.014457 -6.169027
v -7.130191 41.914762 92.249406
vn -1.077089 -0.060176 -6.188213
v 5.932464 41.700472 92.439480
vn 0.346546 -0.066860 -6.271095
v -2.007683 42.606379 92.920291
vn 0.617593 -0.072022 -6.250421
v -3.335669 48.216123 92.749320
vn -1.095586 -0.167767 -6.183324
v 5.888080 48.783911 92.355696
vn 1.023409 -0.054289 -6.197027
v -5.998262 43.411940 92.458645
# 75 vertices, 0 vertices normals

f 3//3 4//4 5//5
f 35//35 28//28 36//36
f 18//18 20//20 39//39
f 38//38 17//17 50//50
f 56//56 57//57 53//53
f 52//52 56//56 53//53
f 56//56 58//58 57//57
f 54//54 64//64 27//27
f 17//17 63//63 44//44
f 62//62 74//74 65//65
f 70//70 75//75 24//24
f 6//6 26//26 30//30
f 7//7 13//13 73//73
f 8//8 12//12 2//2
f 2//2 49//49 8//8
f 27//27 3//3 10//10
f 34//34 28//28 9//9
f 31//31 45//45 32//32
f 33//33 55//55 15//15
f 15//15 35//35 36//36
f 36//36 28//28 34//34
f 37//37 18//18 69//69
f 1//1 25//25 39//39
f 21//21 19//19 74//74
f 40//40 21//21 74//74
f 19//19 22//22 65//65
f 59//59 26//26 44//44
f 44//44 26//26 17//17
f 17//17 26//26 6//6
f 44//44 57//57 59//59
f 45//45 8//8 42//42
f 49//49 42//42 8//8
f 23//23 48//48 41//41
f 48//48 37//37 69//69
f 71//71 41//41 48//48
f 32//32 45//45 42//42
f 46//46 50//50 51//51
f 51//51 50//50 17//17
f 50//50 46//46 29//29
f 50//50 33//33 38//38
f 46//46 47//47 41//41
f 6//6 30//30 62//62
f 66//66 51//51 6//6
f 72//72 11//11 52//52
f 6//6 51//51 17//17
f 53//53 57//57 44//44
f 23//23 41//41 22//22
f 71//71 48//48 69//69
f 46//46 41//41 71//71
f 11//11 34//34 54//54
f 34//34 9//9 54//54
f 24//24 11//11 54//54
f 25//25 55//55 29//29
f 29//29 55//55 33//33
f 75//75 32//32 56//56
f 72//72 52//52 53//53
f 52//52 75//75 56//56
f 53//53 44//44 63//63
f 53//53 63//63 72//72
f 43//43 33//33 36//36
f 38//38 33//33 43//43
f 67//67 70//70 10//10
f 73//73 59//59 57//57
f 24//24 75//75 52//52
f 24//24 52//52 11//11
f 60//60 4//4 3//3
f 27//27 60//60 3//3
f 39//39 69//69 18//18
f 61//61 62//62 30//30
f 38//38 72//72 63//63
f 24//24 54//54 27//27
f 54//54 9//9 64//64
f 27//27 64//64 60//60
f 36//36 34//34 43//43
f 34//34 11//11 43//43
f 17//17 38//38 63//63
f 58//58 32//32 42//42
f 19//19 65//65 74//74
f 32//32 58//58 56//56
f 66//66 65//65 47//47
f 66//66 62//62 65//65
f 73//73 13//13 59//59
f 26//26 68//68 30//30
f 33//33 15//15 36//36
f 31//31 70//70 67//67
f 49//49 58//58 42//42
f 68//68 26//26 59//59
f 68//68 14//14 16//16
f 62//62 61//61 74//74
f 30//30 68//68 16//16
f 25//25 69//69 39//39
f 27//27 10//10 70//70
f 55//55 25//25 1//1
f 55//55 1//1 15//15
f 25//25 71//71 69//69
f 61//61 30//30 16//16
f 7//7 49//49 2//2
f 49//49 7//7 73//73
f 72//72 43//43 11//11
f 72//72 38//38 43//43
f 58//58 73//73 57//57
f 47//47 46//46 51//51
f 47//47 51//51 66//66
f 31//31 32//32 75//75
f 70//70 31//31 75//75
f 73//73 58//58 49//49
f 40//40 74//74 61//61
f 47//47 65//65 22//22
f 41//41 47//47 22//22
f 68//68 59//59 13//13
f 66//66 6//6 62//62
f 68//68 13//13 14//14
f 29//29 33//33 50//50
f 29//29 46//46 71//71
f 25//25 29//29 71//71
f 27//27 70//70 24//24
# 116 faces, 0 coords texture

# End of File
