####
#
# OBJ File Generated by Meshlab
#
####
# Object 1098.obj
#
# Vertices: 46
# Faces: 66
#
####
vn 3.995678 -0.005242 -4.848972
v -26.592690 44.289728 76.817745
vn 2.049427 -0.016953 -2.378334
v -23.504750 42.344450 79.429400
vn 4.005645 -0.015830 -4.840756
v -26.128320 42.110668 77.210803
vn 1.013383 -0.002621 -1.199658
v -29.771500 50.000000 74.283700
vn 1.989508 0.043180 -2.430402
v -29.669100 50.000000 74.370200
vn 1.981973 0.027418 -2.438113
v -29.771600 49.869800 74.283900
vn 1.980252 0.004989 -2.438694
v -27.533000 38.000000 76.062400
vn 2.069881 -0.007002 -2.363264
v -23.509100 40.050300 79.436950
vn 2.047846 -0.044986 -2.382071
v -24.284100 38.000000 78.782500
vn 2.009258 -0.021041 -2.413045
v -25.334400 50.000000 77.820850
vn 1.025134 0.010383 -1.186049
v -23.505400 50.000000 79.430600
vn 1.022762 -0.007404 -1.191058
v -23.513400 38.000000 79.444300
vn 1.955135 -0.016472 -2.457806
v -29.757350 42.194450 74.259150
vn 1.954296 0.010378 -2.458077
v -29.755800 44.422550 74.256650
vn 1.961839 -0.005860 -2.456086
v -29.765700 39.887350 74.273700
vn 0.986212 0.003378 -1.221533
v -29.760600 38.000000 74.264900
vn 2.008183 -0.029205 -2.415826
v -25.549836 38.000000 77.708842
vn 3.955464 0.012655 -4.881622
v -28.117477 44.557498 75.566160
vn 4.060821 -0.037622 -4.792512
v -24.750322 39.524457 78.348188
vn 2.034449 -0.026757 -2.397085
v -23.493250 43.935800 79.409500
vn 4.044606 0.011239 -4.807720
v -24.271033 45.849306 78.740391
vn 3.971174 0.014264 -4.869024
v -27.232683 46.252954 76.295339
vn 2.061810 -0.023837 -2.370441
v -23.511700 38.701300 79.441400
vn 3.931918 -0.020963 -4.900745
v -28.667172 39.544962 75.151957
vn 3.923218 0.061194 -4.907012
v -29.137241 49.256271 74.783170
vn 3.925584 -0.035051 -4.905778
v -28.817600 41.505457 75.014219
vn 3.968432 -0.025702 -4.870729
v -27.548527 40.795000 76.033713
vn 1.974218 0.000047 -2.443759
v -28.552200 38.000000 75.246700
vn 3.928979 -0.011438 -4.902940
v -28.883217 43.276925 74.948050
vn 1.947718 0.014963 -2.465982
v -29.769950 48.068850 74.281050
vn 2.050103 -0.008242 -2.379095
v -23.493500 45.979950 79.409950
vn 1.947131 0.024038 -2.465261
v -29.762800 46.240400 74.268700
vn 3.918389 0.036532 -4.911434
v -28.747654 46.374079 75.071794
vn 2.022089 0.013249 -2.408899
v -23.488650 47.867500 79.401500
vn 1.961607 0.026549 -2.453602
v -27.089900 50.000000 76.443950
vn 4.011305 0.013905 -4.836006
v -25.649485 45.949533 77.597815
vn 1.970441 0.054126 -2.446084
v -28.496500 50.000000 75.319100
vn 3.934825 0.051607 -4.897925
v -28.038985 48.282584 75.649816
vn 3.975205 -0.012582 -4.865718
v -27.720351 42.774273 75.894144
vn 4.033499 -0.021250 -4.817305
v -24.961943 43.902224 78.166785
vn 3.983723 -0.007945 -4.858484
v -26.159777 47.970353 77.173963
vn 4.017760 0.004951 -4.830014
v -24.813503 47.192279 78.310224
vn 4.062443 -0.033581 -4.792724
v -24.663229 48.549785 78.417161
vn 3.979288 -0.022400 -4.862265
v -27.260063 39.024675 76.286125
vn 4.001258 -0.020045 -4.844344
v -26.005681 40.149972 77.319258
vn 4.065408 -0.009389 -4.790090
v -24.696675 41.546425 78.397139
# 46 vertices, 0 vertices normals

f 4//4 5//5 6//6
f 23//23 9//9 19//19
f 22//22 18//18 33//33
f 36//36 1//1 22//22
f 24//24 27//27 44//44
f 37//37 38//38 25//25
f 26//26 29//29 39//39
f 27//27 24//24 26//26
f 2//2 8//8 46//46
f 1//1 18//18 22//22
f 24//24 44//44 28//28
f 10//10 11//11 43//43
f 12//12 9//9 23//23
f 8//8 23//23 19//19
f 19//19 9//9 17//17
f 6//6 5//5 25//25
f 25//25 5//5 37//37
f 15//15 13//13 26//26
f 28//28 16//16 24//24
f 15//15 24//24 16//16
f 13//13 14//14 29//29
f 39//39 3//3 27//27
f 25//25 30//30 6//6
f 31//31 20//20 21//21
f 14//14 32//32 33//33
f 32//32 30//30 33//33
f 14//14 18//18 29//29
f 33//33 18//18 14//14
f 34//34 31//31 21//21
f 41//41 35//35 10//10
f 1//1 40//40 3//3
f 43//43 11//11 34//34
f 7//7 28//28 44//44
f 21//21 40//40 36//36
f 37//37 35//35 38//38
f 26//26 13//13 29//29
f 39//39 29//29 18//18
f 39//39 27//27 26//26
f 26//26 24//24 15//15
f 41//41 10//10 43//43
f 38//38 30//30 25//25
f 20//20 40//40 21//21
f 40//40 20//20 2//2
f 39//39 1//1 3//3
f 1//1 39//39 18//18
f 3//3 40//40 46//46
f 40//40 1//1 36//36
f 44//44 27//27 45//45
f 35//35 41//41 38//38
f 34//34 42//42 43//43
f 42//42 34//34 21//21
f 21//21 36//36 42//42
f 41//41 36//36 22//22
f 22//22 33//33 38//38
f 41//41 42//42 36//36
f 38//38 41//41 22//22
f 41//41 43//43 42//42
f 17//17 45//45 19//19
f 45//45 27//27 3//3
f 44//44 17//17 7//7
f 44//44 45//45 17//17
f 46//46 40//40 2//2
f 33//33 30//30 38//38
f 46//46 8//8 19//19
f 46//46 19//19 45//45
f 45//45 3//3 46//46
# 66 faces, 0 coords texture

# End of File
