####
#
# OBJ File Generated by Meshlab
#
####
# Object 1122.obj
#
# Vertices: 47
# Faces: 67
#
####
vn -4.606799 -0.076255 -4.271709
v 25.142209 -40.734204 79.766376
vn -2.314564 -0.052975 -2.121447
v 24.377000 -50.000000 80.661200
vn -2.327903 0.026504 -2.121576
v 24.276200 -49.772700 80.765500
vn -2.256973 -0.019159 -2.184816
v 27.455900 -38.000000 77.293400
vn -2.170383 0.046437 -2.271151
v 30.028200 -40.480300 74.728300
vn -2.207235 -0.016343 -2.227206
v 30.008150 -43.941900 74.693600
vn -4.609410 -0.004598 -4.269820
v 26.543646 -44.386022 78.308078
vn -2.307065 -0.027790 -2.133633
v 24.271800 -43.658100 80.758000
vn -2.270017 -0.037617 -2.171445
v 26.967700 -50.000000 77.860750
vn -2.214402 -0.028102 -2.230482
v 30.023400 -46.284300 74.720050
vn -1.106881 -0.005481 -1.113994
v 30.028600 -50.000000 74.729000
vn -2.307960 -0.022124 -2.120724
v 24.252300 -38.252500 80.724200
vn -1.151941 -0.039396 -1.078262
v 24.249000 -38.000000 80.718500
vn -1.126028 0.003414 -1.095683
v 24.275900 -50.000000 80.765100
vn -1.091696 0.019850 -1.133370
v 30.043400 -38.000000 74.754700
vn -4.476068 -0.063935 -4.407982
v 28.925198 -45.111989 75.786175
vn -4.537965 -0.046497 -4.345397
v 27.180865 -39.539678 77.605333
vn -2.362128 -0.002882 -2.054367
v 24.301400 -47.278250 80.809200
vn -2.318344 0.008129 -2.119188
v 25.630100 -50.000000 79.255000
vn -2.156079 0.033791 -2.283535
v 30.015800 -42.363700 74.706800
vn -4.426347 0.041973 -4.455601
v 29.221500 -41.994703 75.462226
vn -4.709603 0.042441 -4.158301
v 25.232578 -48.233457 79.716066
vn -4.602837 -0.050673 -4.276592
v 25.587838 -42.811987 79.330302
vn -4.592300 -0.012729 -4.288194
v 27.085508 -42.971376 77.717686
vn -2.307774 -0.034613 -2.131568
v 24.264750 -42.141450 80.745700
vn -4.567242 -0.048253 -4.314594
v 26.438158 -41.072062 78.398917
vn -4.625530 -0.010180 -4.252273
v 25.501506 -44.860911 79.440436
vn -2.331386 -0.028260 -2.108514
v 24.282200 -45.317150 80.776150
vn -4.519205 -0.019418 -4.364122
v 27.720323 -48.095936 77.036526
vn -2.241151 -0.026491 -2.201436
v 28.524950 -50.000000 76.236300
vn -4.634124 -0.005493 -4.241493
v 24.809307 -39.196754 80.101714
vn -2.305144 0.020025 -2.134278
v 24.917800 -38.000000 80.004000
vn -2.354226 0.046583 -2.071605
v 24.291400 -48.760200 80.791800
vn -2.332309 -0.028793 -2.107233
v 24.254800 -39.912600 80.728500
vn -2.202668 0.039061 -2.239899
v 28.657717 -38.000029 76.091343
vn -4.555889 0.012459 -4.326866
v 27.969191 -41.323818 76.781647
vn -4.574945 -0.033976 -4.305889
v 25.768651 -39.410612 79.073372
vn -4.439283 0.048019 -4.444556
v 28.758595 -39.608072 75.964098
vn -2.279429 -0.018757 -2.161482
v 26.460200 -38.000000 78.333400
vn -4.569677 -0.022662 -4.312166
v 27.666707 -44.863796 77.102230
vn -4.587743 0.028698 -4.292751
v 26.803835 -46.279943 78.015428
vn -4.437280 -0.019249 -4.448194
v 29.131044 -48.087624 75.611416
vn -2.199648 -0.007526 -2.245873
v 30.029950 -48.188600 74.731350
vn -4.595453 0.004672 -4.283610
v 26.358203 -48.248104 78.471046
vn -4.530934 -0.017994 -4.351738
v 28.456745 -43.461435 76.250417
vn -4.672811 0.016064 -4.199822
v 25.445016 -46.755463 79.490683
vn -4.495084 -0.022042 -4.389660
v 28.443587 -46.410566 76.300269
# 47 vertices, 0 vertices normals

f 38//38 5//5 21//21
f 25//25 1//1 23//23
f 30//30 9//9 29//29
f 32//32 12//12 13//13
f 2//2 14//14 3//3
f 38//38 21//21 36//36
f 26//26 1//1 37//37
f 7//7 27//27 23//23
f 17//17 36//36 26//26
f 17//17 38//38 36//36
f 18//18 28//28 46//46
f 33//33 19//19 3//3
f 20//20 6//6 21//21
f 22//22 18//18 46//46
f 25//25 34//34 1//1
f 24//24 23//23 26//26
f 23//23 1//1 26//26
f 46//46 28//28 27//27
f 28//28 8//8 27//27
f 24//24 36//36 45//45
f 6//6 10//10 16//16
f 43//43 42//42 10//10
f 32//32 39//39 37//37
f 22//22 19//19 33//33
f 22//22 33//33 18//18
f 34//34 12//12 31//31
f 5//5 38//38 15//15
f 35//35 15//15 38//38
f 21//21 5//5 20//20
f 24//24 7//7 23//23
f 39//39 17//17 37//37
f 37//37 17//17 26//26
f 17//17 4//4 38//38
f 35//35 38//38 4//4
f 39//39 4//4 17//17
f 21//21 45//45 36//36
f 47//47 42//42 29//29
f 26//26 36//36 24//24
f 30//30 42//42 11//11
f 42//42 30//30 29//29
f 27//27 8//8 23//23
f 25//25 23//23 8//8
f 44//44 46//46 41//41
f 46//46 27//27 41//41
f 27//27 7//7 41//41
f 41//41 7//7 40//40
f 41//41 40//40 47//47
f 42//42 43//43 11//11
f 47//47 40//40 16//16
f 44//44 19//19 22//22
f 31//31 32//32 37//37
f 19//19 44//44 9//9
f 34//34 31//31 1//1
f 47//47 29//29 41//41
f 45//45 6//6 16//16
f 6//6 45//45 21//21
f 44//44 29//29 9//9
f 1//1 31//31 37//37
f 24//24 45//45 40//40
f 45//45 16//16 40//40
f 7//7 24//24 40//40
f 2//2 3//3 19//19
f 31//31 12//12 32//32
f 22//22 46//46 44//44
f 29//29 44//44 41//41
f 47//47 10//10 42//42
f 47//47 16//16 10//10
# 67 faces, 0 coords texture

# End of File
