####
#
# OBJ File Generated by Meshlab
#
####
# Object 1132.obj
#
# Vertices: 52
# Faces: 75
#
####
vn -2.669009 0.027496 -1.651182
v 66.861700 37.994100 32.581000
vn -5.339780 0.069785 -3.310195
v 67.132652 39.873459 32.173201
vn -2.631535 0.020328 -1.730561
v 62.961350 44.742950 38.731800
vn -2.626969 -0.011963 -1.722946
v 63.064100 50.000000 38.559700
vn -2.623222 0.049826 -1.728949
v 62.949200 38.000000 38.573800
vn -2.621643 0.038531 -1.729612
v 62.858100 38.207500 38.718000
vn -5.250191 -0.012500 -3.451601
v 64.392191 47.042147 36.547437
vn -2.675203 0.041205 -1.637054
v 68.095000 45.422250 30.718000
vn -2.623077 -0.002590 -1.728830
v 64.152500 50.000000 36.894350
vn -1.313931 0.013931 -0.850137
v 62.855900 38.000000 38.718000
vn -2.636673 -0.014303 -1.730398
v 62.961000 49.842400 38.718100
vn -1.348825 -0.006435 -0.809784
v 68.113600 50.000000 30.718000
vn -2.644263 -0.002490 -1.695789
v 66.458900 50.000000 33.421450
vn -1.357957 0.027687 -0.821609
v 67.974900 38.000000 30.718000
vn -2.663944 0.037058 -1.636027
v 68.037800 40.324200 30.718000
vn -1.301096 -0.019538 -0.866301
v 62.958700 50.000000 38.718000
vn -5.296864 0.067890 -3.378653
v 66.261864 45.448484 33.668895
vn -2.616438 0.042268 -1.739941
v 62.881550 40.128500 38.718750
vn -2.644606 0.025624 -1.694174
v 65.850650 37.994550 34.173400
vn -5.236594 0.095556 -3.470860
v 63.886174 41.671774 37.255411
vn -5.311876 0.070237 -3.355019
v 66.260616 41.459385 33.591529
vn -5.351685 0.057465 -3.291480
v 67.309346 42.203449 31.917376
vn -2.626240 -0.008017 -1.717311
v 62.958450 48.039200 38.726750
vn -5.257409 0.074670 -3.439353
v 64.993627 39.101563 35.521266
vn -5.285714 0.060875 -3.396329
v 65.532752 42.821877 34.762050
vn -2.617736 0.037923 -1.737470
v 63.939200 37.998600 37.082450
vn -5.267468 0.077689 -3.424058
v 65.072444 41.074807 35.440081
vn -2.694014 0.016998 -1.632476
v 68.035250 42.074400 30.718100
vn -5.343049 0.019304 -3.304791
v 67.193765 48.472708 32.252809
vn -2.678336 0.020604 -1.629618
v 68.119500 47.567650 30.718000
vn -5.299712 0.057234 -3.374606
v 66.046797 39.542284 33.883681
vn -2.624444 0.050002 -1.725861
v 64.891400 37.996400 35.644700
vn -2.626360 -0.004111 -1.722739
v 62.961200 46.230500 38.730900
vn -5.257227 0.024024 -3.440773
v 65.225944 46.303195 35.275943
vn -5.259152 0.022699 -3.437821
v 64.272683 45.055528 36.729994
vn -5.313286 0.067268 -3.352724
v 66.352804 43.530469 33.490938
vn -2.687051 0.046256 -1.632967
v 68.060700 43.774700 30.718100
vn -2.614943 0.000841 -1.741166
v 65.157100 50.000000 35.386200
vn -5.236242 0.003321 -3.472738
v 65.175132 48.181073 35.355084
vn -2.689540 -0.006052 -1.619555
v 68.118400 48.993900 30.718000
vn -5.345268 0.081529 -3.301271
v 67.237196 44.486866 32.093583
vn -2.610642 0.048852 -1.741325
v 62.915430 42.303728 38.726711
vn -5.243839 0.075486 -3.460287
v 63.771238 43.370674 37.473685
vn -5.260402 0.061164 -3.435352
v 64.645807 43.030034 36.135303
vn -2.683380 -0.012235 -1.633657
v 67.484300 50.000000 31.766200
vn -5.340013 0.073505 -3.309985
v 67.194608 46.494348 32.208729
vn -5.234122 0.082220 -3.474952
v 64.011962 39.831816 37.009595
vn -5.275117 0.041452 -3.413133
v 65.323268 44.462502 35.109059
vn -5.254619 -0.012000 -3.444868
v 63.581986 46.511272 37.783825
vn -5.281570 0.049098 -3.401808
v 66.273270 47.273155 33.697105
vn -5.258281 0.012074 -3.438578
v 66.107116 48.704226 33.960547
vn -5.250830 -0.018079 -3.450554
v 63.989693 48.357410 37.146726
# 52 vertices, 0 vertices normals

f 6//6 5//5 10//10
f 4//4 11//11 16//16
f 28//28 15//15 22//22
f 37//37 22//22 41//41
f 17//17 41//41 36//36
f 27//27 21//21 31//31
f 46//46 50//50 29//29
f 30//30 46//46 29//29
f 6//6 18//18 47//47
f 23//23 11//11 4//4
f 14//14 1//1 2//2
f 14//14 2//2 15//15
f 1//1 19//19 31//31
f 31//31 2//2 1//1
f 31//31 19//19 24//24
f 26//26 5//5 6//6
f 36//36 25//25 48//48
f 18//18 42//42 20//20
f 22//22 15//15 2//2
f 30//30 8//8 46//46
f 21//21 22//22 2//2
f 2//2 31//31 21//21
f 19//19 32//32 24//24
f 32//32 26//26 24//24
f 3//3 33//33 49//49
f 33//33 23//23 49//49
f 3//3 49//49 35//35
f 13//13 29//29 51//51
f 17//17 34//34 50//50
f 20//20 27//27 47//47
f 22//22 21//21 36//36
f 8//8 37//37 41//41
f 37//37 28//28 22//22
f 21//21 27//27 25//25
f 9//9 38//38 39//39
f 38//38 13//13 51//51
f 30//30 29//29 40//40
f 40//40 29//29 45//45
f 47//47 18//18 20//20
f 7//7 39//39 34//34
f 46//46 8//8 41//41
f 24//24 47//47 27//27
f 17//17 46//46 41//41
f 36//36 41//41 22//22
f 3//3 43//43 42//42
f 48//48 17//17 36//36
f 36//36 21//21 25//25
f 20//20 42//42 43//43
f 44//44 20//20 43//43
f 43//43 35//35 44//44
f 35//35 48//48 44//44
f 27//27 44//44 25//25
f 29//29 13//13 45//45
f 40//40 45//45 12//12
f 9//9 52//52 4//4
f 44//44 27//27 20//20
f 24//24 26//26 47//47
f 31//31 24//24 27//27
f 43//43 3//3 35//35
f 49//49 23//23 52//52
f 48//48 34//34 17//17
f 7//7 34//34 35//35
f 48//48 25//25 44//44
f 49//49 7//7 35//35
f 38//38 51//51 39//39
f 50//50 34//34 39//39
f 50//50 46//46 17//17
f 51//51 29//29 50//50
f 34//34 48//48 35//35
f 50//50 39//39 51//51
f 7//7 52//52 39//39
f 52//52 23//23 4//4
f 49//49 52//52 7//7
f 26//26 6//6 47//47
f 52//52 9//9 39//39
# 75 faces, 0 coords texture

# End of File
