####
#
# OBJ File Generated by Meshlab
#
####
# Object 1151.obj
#
# Vertices: 166
# Faces: 277
#
####
vn -0.497480 -0.021609 -6.260110
v 3.786385 -42.355664 97.265405
vn 2.863660 -0.064200 -5.591333
v -15.095056 -43.812002 93.696646
vn 0.809789 -0.092256 -6.226380
v -4.047622 -42.864962 97.119632
vn 1.306756 -0.064279 -6.143221
v -6.784359 -45.050060 96.666559
vn 0.924316 -0.035580 -2.999856
v -9.616560 -50.000000 95.996500
vn 0.217090 0.000884 -3.132841
v -2.226475 -50.000000 97.345350
vn 2.338923 -0.095730 -5.827217
v -12.585619 -39.560316 94.804898
vn 1.435695 -0.051579 -6.115965
v -7.525145 -47.006494 96.506522
vn 1.755172 -0.091200 -6.030685
v -9.120587 -47.559823 96.101359
vn -2.010614 -0.077812 -5.950134
v 11.739476 -44.017883 95.721819
vn -1.677849 0.007248 -2.660614
v 19.143050 -39.726850 91.999900
vn -1.665250 0.006716 -2.663499
v 18.622400 -38.000000 92.339400
vn -0.948387 -0.026692 -2.992361
v 11.099497 -49.999776 95.994265
vn -1.417003 -0.029477 -2.801884
v 15.726165 -38.000000 94.003880
vn -0.844263 0.004341 -1.327812
v 19.112700 -50.000000 92.000000
vn -3.244119 0.023597 -5.378656
v 17.720077 -48.535030 92.890261
vn -1.618059 0.003629 -2.692000
v 17.571900 -50.000000 92.977350
vn -1.675293 -0.007581 -2.643303
v 19.155100 -42.663200 91.999800
vn -2.916756 -0.015947 -5.563322
v 15.901637 -44.652594 93.936818
vn -0.849552 0.002954 -1.317883
v 19.148900 -38.000000 92.000000
vn 2.985264 -0.095380 -5.524066
v -15.862432 -48.435275 93.377880
vn -1.276225 -0.058867 -6.148759
v 8.418538 -48.471260 96.676746
vn -2.403792 -0.032634 -5.801654
v 13.278386 -48.043728 95.170016
vn 2.867257 -0.033767 -5.588672
v -15.095658 -41.842811 93.685337
vn 1.903224 -0.079615 -5.985541
v -9.860306 -42.390802 95.805837
vn 1.340928 -0.044242 -2.839882
v -14.501800 -38.000000 93.944850
vn -3.045767 0.032741 -5.491782
v 16.530011 -46.450414 93.606175
vn -0.159700 -0.053503 -6.280274
v 1.590382 -48.844453 97.398697
vn 1.605765 -0.032634 -2.689555
v -18.065900 -41.973800 92.000000
vn -0.910614 -0.086227 -6.213914
v 6.485257 -48.130664 97.009753
vn -0.007742 0.027137 -3.138404
v 0.936011 -38.000000 97.390400
vn 0.863006 -0.033356 -1.349201
v -17.935100 -38.000000 92.000000
vn 0.035522 -0.020393 -3.139922
v -0.135000 -50.000000 97.429700
vn 1.152844 -0.049208 -2.921454
v -12.453000 -38.000000 94.830950
vn 1.443325 -0.049516 -2.785838
v -15.473300 -50.000000 93.617300
vn -0.368182 -0.029253 -3.117443
v 5.592225 -50.000000 97.153700
vn -0.198964 -0.026294 -3.134379
v 3.554990 -50.000000 97.323450
vn 0.482931 -0.042569 -3.102990
v -4.667460 -38.000000 96.966950
vn 0.644312 -0.056471 -3.074367
v -6.469400 -38.000000 96.620550
vn 0.457559 -0.075898 -6.265578
v -2.290565 -42.680548 97.274803
vn -0.221986 -0.013624 -3.133050
v 3.323504 -38.000000 97.280282
vn 1.644161 -0.022527 -2.690545
v -18.113100 -45.708450 92.000000
vn 1.633380 -0.020355 -2.658530
v -18.163700 -48.158750 92.000000
vn 0.578425 -0.066708 -6.252677
v -2.990569 -44.860111 97.264609
vn 1.624036 -0.034616 -2.687468
v -16.925100 -50.000000 92.785200
vn 0.839379 -0.005652 -1.332003
v -18.155800 -50.000000 92.000000
vn 1.565886 -0.031341 -2.721070
v -16.542045 -38.000000 92.891057
vn -1.169449 -0.027368 -2.912604
v 12.913200 -50.000000 95.345000
vn 0.819428 -0.020476 -3.030702
v -8.479265 -38.000000 96.165850
vn -2.160350 -0.039836 -5.897411
v 12.478009 -40.319981 95.422017
vn 0.374257 -0.032609 -6.269431
v -2.007913 -48.547543 97.356386
vn 0.972125 -0.076097 -6.203704
v -4.737080 -39.476907 96.975524
vn 0.602086 -0.083548 -6.251937
v -2.858912 -39.489371 97.205468
vn -0.125013 -0.028838 -6.280931
v 1.114501 -45.174185 97.386369
vn -0.026808 -0.024716 -6.282684
v 0.713843 -40.941262 97.363096
vn 3.101375 -0.063994 -5.462746
v -16.689564 -42.701445 92.826106
vn 1.125483 -0.041957 -6.178468
v -5.641140 -46.914960 96.912226
vn 1.540293 -0.104271 -6.086522
v -7.972969 -43.212558 96.373114
vn 0.387276 0.037838 -3.116975
v -4.060950 -50.000000 97.161900
vn -2.889363 -0.031691 -5.575436
v 15.882916 -41.607470 93.947317
vn 1.000584 -0.047202 -2.977394
v -10.541450 -38.000000 95.521850
vn 1.945202 -0.086953 -5.970559
v -10.292639 -40.272111 95.647936
vn 1.980977 -0.088058 -5.960452
v -10.211400 -45.987682 95.742174
vn -1.044018 -0.064425 -6.191155
v 7.517359 -44.350605 96.811048
vn -0.738120 -0.007543 -3.052263
v 9.312070 -50.000000 96.481000
vn -1.700374 0.017315 -2.646692
v 19.120550 -47.542100 92.000000
vn -3.135234 -0.014908 -5.439976
v 17.116320 -43.074402 93.282759
vn -3.250888 -0.035898 -5.374889
v 17.713656 -41.455593 92.907785
vn 1.095792 -0.028572 -2.942651
v -11.293900 -50.000000 95.418950
vn 2.143290 -0.075747 -5.905582
v -11.367595 -44.074081 95.291836
vn 3.124902 -0.037553 -5.449222
v -16.641235 -40.523654 92.834828
vn 0.684120 -0.045517 -6.242169
v -3.543684 -46.991494 97.223237
vn -0.537846 -0.032107 -3.094009
v 7.214881 -38.000000 96.808485
vn -3.030452 -0.033996 -5.500432
v 16.584065 -39.804748 93.557522
vn -0.106812 -0.038361 -3.138678
v 1.936255 -50.000000 97.401050
vn 1.324283 -0.100493 -6.139199
v -6.789626 -41.557252 96.614640
vn 0.158600 -0.025079 -3.136985
v -1.078307 -38.000000 97.318950
vn -0.557782 -0.014987 -3.090299
v 7.588160 -50.000000 96.845950
vn 1.643567 -0.034150 -2.669851
v -17.999871 -39.728217 92.001296
vn 2.784129 -0.055193 -5.627604
v -14.873261 -39.817425 93.791811
vn -1.092507 -0.056621 -6.185939
v 7.684255 -46.520091 96.785203
vn 1.260142 -0.036352 -2.875730
v -13.705400 -50.000000 94.446350
vn 2.633199 -0.083280 -5.702914
v -14.205762 -48.579244 94.195145
vn -2.178424 -0.020004 -5.889980
v 12.450530 -45.760074 95.491579
vn -1.702894 0.010735 -2.637684
v 19.141162 -45.158512 92.001299
vn -3.326890 0.037847 -5.328894
v 18.082434 -46.513931 92.678623
vn 2.502428 -0.065829 -5.754803
v -13.421289 -44.824365 94.534478
vn -2.651752 0.017712 -5.690459
v 14.552500 -46.244926 94.624675
vn -0.812808 -0.000244 -6.227692
v 5.818445 -41.439892 97.048346
vn -0.363001 -0.028576 -3.120056
v 5.001070 -38.000000 97.119600
vn -0.749910 -0.051144 -6.236310
v 5.161275 -39.290517 97.112781
vn -1.683929 -0.010737 -2.659221
v 19.145200 -41.476700 91.999800
vn 2.658244 -0.056454 -5.689760
v -14.255744 -46.814687 94.159393
vn -0.263350 -0.016775 -6.276683
v 2.435188 -40.654770 97.328425
vn 0.197392 -0.043808 -6.275788
v -0.962125 -44.648654 97.390733
vn 0.131357 -0.053222 -6.279138
v -0.391779 -42.413398 97.377843
vn -0.156724 -0.027726 -6.279986
v 1.622158 -42.255735 97.364241
vn -1.506895 -0.038083 -6.096219
v 9.459999 -46.922487 96.425061
vn 2.489330 -0.059617 -5.762214
v -13.340169 -43.014450 94.544205
vn 0.830729 -0.006867 -6.222003
v -4.212908 -48.683200 97.159005
vn 2.259159 -0.075019 -5.859863
v -12.043152 -46.255650 95.095140
vn 1.613215 -0.031567 -2.683267
v -18.098950 -43.686950 92.000000
vn -0.008960 0.031001 -6.281363
v 0.796842 -39.439897 97.371587
vn 0.299546 -0.044399 -6.272774
v -1.244818 -40.517240 97.337919
vn 0.071014 -0.055463 -6.281141
v -0.201541 -47.953907 97.409888
vn 0.326985 -0.028750 -6.273572
v -1.838299 -46.757229 97.347294
vn -0.147583 -0.048366 -6.280724
v 1.397782 -47.034033 97.386791
vn -1.344286 -0.018575 -2.838088
v 14.518200 -50.000000 94.628500
vn -1.393778 -0.050780 -6.125210
v 8.840279 -39.368978 96.486317
vn 3.148480 -0.080173 -5.434982
v -16.719153 -46.821238 92.863871
vn 2.190455 -0.049943 -5.886137
v -11.835464 -41.788252 95.125166
vn -2.084459 -0.087710 -5.924857
v 11.836123 -48.849081 95.727551
vn -1.500059 -0.014002 -2.759068
v 16.055700 -50.000000 93.846400
vn -0.697918 -0.059005 -6.240757
v 5.112574 -45.933492 97.162119
vn -1.747468 -0.010539 -6.033378
v 10.552541 -39.695080 96.048734
vn -1.115869 -0.070841 -6.180014
v 7.480052 -40.315775 96.783006
vn 1.896982 -0.090026 -5.985834
v -9.536675 -44.225092 95.944163
vn -2.148646 -0.068977 -5.903172
v 12.526876 -42.669559 95.423990
vn -0.308885 0.008617 -6.274648
v 2.674908 -39.158977 97.318752
vn 1.622561 -0.089974 -6.068415
v -8.302431 -40.939880 96.230712
vn -2.595553 -0.058310 -5.717847
v 14.579304 -39.964669 94.565535
vn -1.196977 -0.024350 -2.903656
v 13.441050 -38.000000 95.037950
vn 2.546804 -0.078757 -5.740645
v -13.567521 -41.312142 94.414787
vn 2.083634 -0.079572 -5.925073
v -10.848940 -48.093805 95.556407
vn 0.957242 -0.064329 -6.207690
v -4.665243 -44.891208 97.050985
vn 1.639724 -0.046908 -6.062944
v -8.517924 -45.441317 96.251883
vn -0.540178 -0.024982 -6.258878
v 4.188554 -40.298758 97.215295
vn -2.482652 -0.068246 -5.766217
v 13.989020 -42.019632 94.855351
vn -2.806333 -0.014303 -5.620781
v 15.346138 -43.126410 94.212359
vn 1.045291 -0.078889 -6.194358
v -5.154351 -41.181982 96.914957
vn -0.988202 0.001727 -2.979378
v 11.584850 -38.000000 95.745300
vn -2.851401 0.018758 -5.595995
v 15.384633 -48.204577 94.195366
vn -1.388248 -0.072131 -6.122341
v 9.065471 -45.112560 96.515789
vn -1.794333 -0.057451 -6.017735
v 10.542384 -45.281290 96.124801
vn -0.258431 -0.017960 -6.277328
v 2.471172 -43.919312 97.337051
vn 0.583089 -0.023644 -3.085058
v -5.933975 -50.000000 96.876300
vn 1.527945 -0.068945 -6.091348
v -8.280990 -48.717503 96.352935
vn -0.075857 -0.029914 -6.282425
v 0.742025 -43.585210 97.378725
vn -0.762299 -0.006585 -3.046068
v 9.669715 -38.000000 96.292900
vn 0.747250 -0.011362 -3.050355
v -8.242365 -50.000000 96.367650
vn 0.315140 -0.049973 -3.125341
v -3.003240 -38.000000 97.167100
vn 1.624487 -0.067912 -6.065716
v -8.420112 -39.095778 96.189247
vn 2.378107 -0.061680 -5.814243
v -12.650013 -48.478939 94.869103
vn 0.051301 -0.017001 -6.282271
v -0.126180 -46.341776 97.395812
vn -0.568278 -0.048133 -6.253010
v 4.215228 -44.394542 97.242868
vn -3.287976 -0.008397 -5.353855
v 18.156864 -39.797014 92.619910
vn -1.592311 -0.012585 -2.707820
v 17.642300 -38.000000 92.932300
vn 3.110913 -0.064766 -5.455165
v -16.735992 -44.670569 92.835749
vn 1.308317 -0.094640 -6.142085
v -6.610144 -39.802490 96.630436
vn -1.954370 -0.037873 -5.969004
v 11.276398 -47.259888 95.900549
vn -1.695920 -0.056905 -6.046354
v 10.248678 -48.647778 96.232693
vn -0.308068 -0.058728 -6.274690
v 2.800782 -47.929999 97.346129
vn -3.260909 0.014651 -5.367795
v 17.762166 -44.740083 92.892158
vn -0.342614 -0.031371 -6.273209
v 3.079557 -45.993883 97.312134
vn 3.258162 -0.056221 -5.371501
v -17.193583 -48.638294 92.600575
vn 2.878717 -0.086645 -5.583550
v -15.175460 -45.588923 93.677938
vn -1.597025 -0.083157 -6.072931
v 9.784400 -43.349983 96.305033
vn -1.506651 -0.077458 -6.097261
v 9.256754 -41.156549 96.410699
vn 1.271825 -0.043641 -6.152075
v -6.611267 -48.595397 96.722590
vn -0.542860 -0.062435 -6.257948
v 4.451968 -47.858984 97.238501
vn -2.473772 -0.036075 -5.767116
v 13.862619 -44.133984 94.937703
vn -1.868104 -0.069178 -5.996607
v 11.074880 -41.852480 95.910677
vn -0.805527 -0.040206 -6.230659
v 5.667830 -43.431011 97.038938
vn 0.687270 -0.068555 -6.242299
v -3.386343 -40.969706 97.171081
vn 1.154791 -0.084867 -6.174182
v -5.798364 -43.368766 96.837673
vn -1.166937 -0.029593 -6.167427
v 7.904199 -42.441981 96.734424
# 166 vertices, 0 vertices normals

f 20//20 11//11 12//12
f 73//73 139//139 109//109
f 71//71 79//79 47//47
f 34//34 61//61 7//7
f 11//11 92//92 146//146
f 97//97 1//1 135//135
f 80//80 71//71 47//47
f 132//132 108//108 23//23
f 70//70 111//111 25//25
f 161//161 129//129 19//19
f 116//116 109//109 158//158
f 25//25 117//117 70//70
f 37//37 75//75 28//28
f 87//87 70//70 101//101
f 126//126 63//63 117//117
f 91//91 89//89 127//127
f 4//4 8//8 126//126
f 115//115 131//131 50//50
f 4//4 58//58 165//165
f 54//54 135//135 154//154
f 127//127 94//94 119//119
f 130//130 3//3 165//165
f 139//139 115//115 109//109
f 107//107 152//152 28//28
f 9//9 137//137 5//5
f 130//130 52//52 164//164
f 44//44 106//106 72//72
f 95//95 138//138 54//54
f 114//114 145//145 163//163
f 98//98 151//151 22//22
f 59//59 136//136 100//100
f 94//94 97//97 55//55
f 61//61 49//49 142//142
f 65//65 78//78 22//22
f 66//66 15//15 16//16
f 68//68 67//67 60//60
f 69//69 82//82 143//143
f 57//57 72//72 100//100
f 14//14 74//74 121//121
f 75//75 33//33 28//28
f 103//103 77//77 31//31
f 78//78 30//30 22//22
f 30//30 78//78 36//36
f 47//47 79//79 32//32
f 153//153 18//18 85//85
f 18//18 153//153 67//67
f 26//26 34//34 7//7
f 82//82 35//35 83//83
f 36//36 37//37 160//160
f 85//85 66//66 86//86
f 71//71 80//80 24//24
f 88//88 23//23 84//84
f 88//88 84//84 161//161
f 41//41 90//90 91//91
f 90//90 73//73 91//91
f 8//8 159//159 137//137
f 92//92 18//18 68//68
f 67//67 68//68 18//18
f 120//120 25//25 62//62
f 22//22 30//30 81//81
f 96//96 55//55 97//97
f 97//97 94//94 1//1
f 81//81 64//64 133//133
f 110//110 148//148 156//156
f 70//70 99//99 111//111
f 93//93 101//101 143//143
f 102//102 29//29 56//56
f 161//161 19//19 88//88
f 88//88 19//19 27//27
f 19//19 129//129 67//67
f 45//45 46//46 155//155
f 43//43 155//155 46//46
f 35//35 45//45 21//21
f 45//45 155//155 21//21
f 100//100 51//51 6//6
f 26//26 7//7 80//80
f 70//70 87//87 99//99
f 99//99 87//87 2//2
f 2//2 156//156 148//148
f 23//23 108//108 48//48
f 116//116 73//73 109//109
f 43//43 42//42 110//110
f 8//8 4//4 57//57
f 25//25 111//111 62//62
f 42//42 102//102 148//148
f 13//13 112//112 48//48
f 16//16 17//17 113//113
f 132//132 113//113 108//108
f 64//64 81//81 114//114
f 81//81 30//30 114//114
f 23//23 48//48 112//112
f 163//163 89//89 166//166
f 91//91 73//73 116//116
f 25//25 58//58 117//117
f 58//58 126//126 117//117
f 39//39 52//52 149//149
f 166//166 116//116 158//158
f 91//91 127//127 41//41
f 93//93 87//87 101//101
f 101//101 70//70 63//63
f 58//58 25//25 120//120
f 58//58 120//120 76//76
f 71//71 29//29 79//79
f 14//14 121//121 122//122
f 7//7 123//123 80//80
f 80//80 123//123 24//24
f 143//143 101//101 124//124
f 101//101 63//63 124//124
f 96//96 104//104 55//55
f 126//126 9//9 63//63
f 117//117 63//63 70//70
f 111//111 123//123 7//7
f 69//69 124//124 5//5
f 93//93 83//83 21//21
f 60//60 121//121 74//74
f 128//128 60//60 129//129
f 128//128 121//121 60//60
f 121//121 50//50 122//122
f 126//126 8//8 9//9
f 77//77 103//103 104//104
f 165//165 76//76 130//130
f 50//50 131//131 122//122
f 123//123 111//111 99//99
f 24//24 123//123 99//99
f 35//35 21//21 83//83
f 132//132 27//27 16//16
f 39//39 38//38 52//52
f 4//4 126//126 58//58
f 142//142 120//120 62//62
f 40//40 164//164 104//104
f 41//41 127//127 119//119
f 136//136 140//140 159//159
f 9//9 8//8 137//137
f 63//63 9//9 124//124
f 94//94 127//127 1//1
f 1//1 127//127 89//89
f 138//138 96//96 97//97
f 135//135 54//54 138//138
f 135//135 138//138 97//97
f 139//139 131//131 115//115
f 159//159 8//8 57//57
f 94//94 103//103 119//119
f 44//44 3//3 40//40
f 31//31 41//41 119//119
f 57//57 4//4 125//125
f 140//140 5//5 137//137
f 124//124 9//9 5//5
f 115//115 158//158 109//109
f 53//53 52//52 38//38
f 53//53 38//38 141//141
f 104//104 53//53 77//77
f 129//129 161//161 128//128
f 162//162 118//118 10//10
f 50//50 128//128 118//118
f 128//128 50//50 121//121
f 153//153 27//27 19//19
f 27//27 153//153 86//86
f 86//86 153//153 85//85
f 2//2 56//56 24//24
f 144//144 105//105 106//106
f 87//87 156//156 2//2
f 145//145 135//135 1//1
f 95//95 40//40 96//96
f 134//134 98//98 133//133
f 83//83 93//93 143//143
f 106//106 44//44 95//95
f 144//144 95//95 54//54
f 145//145 1//1 163//163
f 51//51 106//106 105//105
f 21//21 155//155 110//110
f 156//156 21//21 110//110
f 66//66 16//16 86//86
f 86//86 16//16 27//27
f 74//74 146//146 68//68
f 134//134 10//10 84//84
f 134//134 84//84 150//150
f 64//64 114//114 163//163
f 146//146 147//147 12//12
f 43//43 110//110 155//155
f 72//72 57//57 125//125
f 74//74 68//68 60//60
f 21//21 156//156 93//93
f 81//81 98//98 22//22
f 13//13 151//151 112//112
f 150//150 98//98 134//134
f 151//151 13//13 65//65
f 26//26 80//80 47//47
f 62//62 7//7 61//61
f 142//142 62//62 61//61
f 148//148 56//56 2//2
f 105//105 107//107 28//28
f 154//154 160//160 152//152
f 160//160 114//114 30//30
f 148//148 102//102 56//56
f 76//76 149//149 130//130
f 124//124 69//69 143//143
f 36//36 160//160 30//30
f 42//42 148//148 110//110
f 152//152 160//160 37//37
f 76//76 120//120 149//149
f 145//145 154//154 135//135
f 132//132 88//88 27//27
f 23//23 88//88 132//132
f 94//94 55//55 103//103
f 104//104 103//103 55//55
f 105//105 144//144 107//107
f 112//112 151//151 150//150
f 150//150 23//23 112//112
f 151//151 98//98 150//150
f 23//23 150//150 84//84
f 33//33 105//105 28//28
f 146//146 74//74 147//147
f 119//119 103//103 31//31
f 147//147 74//74 14//14
f 71//71 24//24 56//56
f 107//107 144//144 54//54
f 107//107 54//54 154//154
f 29//29 71//71 56//56
f 152//152 107//107 154//154
f 37//37 28//28 152//152
f 146//146 12//12 11//11
f 146//146 92//92 68//68
f 67//67 153//153 19//19
f 22//22 151//151 65//65
f 6//6 51//51 33//33
f 93//93 156//156 87//87
f 7//7 62//62 111//111
f 100//100 136//136 159//159
f 51//51 105//105 33//33
f 129//129 60//60 67//67
f 58//58 76//76 165//165
f 162//162 157//157 158//158
f 10//10 134//134 157//157
f 159//159 140//140 137//137
f 44//44 40//40 95//95
f 133//133 98//98 81//81
f 145//145 114//114 154//154
f 120//120 142//142 149//149
f 161//161 118//118 128//128
f 142//142 49//49 39//39
f 51//51 100//100 72//72
f 59//59 100//100 6//6
f 64//64 163//163 166//166
f 130//130 149//149 52//52
f 149//149 142//142 39//39
f 100//100 159//159 57//57
f 64//64 157//157 133//133
f 50//50 162//162 115//115
f 89//89 91//91 116//116
f 24//24 99//99 2//2
f 106//106 95//95 144//144
f 166//166 89//89 116//116
f 162//162 158//158 115//115
f 104//104 96//96 40//40
f 118//118 162//162 50//50
f 95//95 96//96 138//138
f 163//163 1//1 89//89
f 161//161 84//84 10//10
f 53//53 141//141 77//77
f 72//72 106//106 51//51
f 164//164 52//52 53//53
f 164//164 53//53 104//104
f 164//164 40//40 3//3
f 125//125 44//44 72//72
f 3//3 130//130 164//164
f 161//161 10//10 118//118
f 143//143 82//82 83//83
f 165//165 3//3 125//125
f 165//165 125//125 4//4
f 125//125 3//3 44//44
f 157//157 162//162 10//10
f 157//157 134//134 133//133
f 16//16 113//113 132//132
f 166//166 157//157 64//64
f 166//166 158//158 157//157
f 16//16 15//15 17//17
f 114//114 160//160 154//154
# 277 faces, 0 coords texture

# End of File
