####
#
# OBJ File Generated by Meshlab
#
####
# Object 1166.obj
#
# Vertices: 39
# Faces: 56
#
####
vn -2.057743 -0.060196 -2.373173
v 28.807700 38.000000 79.705450
vn -4.046359 -0.143329 -4.804450
v 27.733152 48.278133 80.261769
vn -4.036136 -0.126791 -4.813672
v 30.139123 47.963589 78.265960
vn -2.047843 -0.051757 -2.381339
v 26.817098 50.000000 80.998327
vn -4.089131 -0.180916 -4.767022
v 27.725481 43.916608 80.431634
vn -0.985519 -0.011784 -1.221599
v 31.428500 50.000000 77.153800
vn -4.050050 -0.129791 -4.801928
v 30.082012 46.007874 78.363377
vn -1.037074 -0.024640 -1.183672
v 25.219000 50.000000 82.398500
vn -2.074214 -0.104784 -2.359255
v 25.352000 40.529200 82.629000
vn -1.037175 -0.057096 -1.167818
v 25.401200 38.000000 82.714100
vn -2.036404 -0.068363 -2.395973
v 31.526686 40.305075 77.323737
vn -1.025742 -0.015647 -1.192068
v 31.538300 38.000000 77.344000
vn -4.141729 -0.196335 -4.720609
v 26.642600 39.351986 81.545475
vn -2.049838 -0.041901 -2.380396
v 30.435650 38.000000 78.292800
vn -2.074434 -0.092160 -2.356935
v 25.321672 42.517269 82.576376
vn -4.108974 -0.196524 -4.749295
v 27.099207 40.730838 81.096166
vn -4.061110 -0.161012 -4.791562
v 28.799900 45.159377 79.466463
vn -2.032006 -0.066209 -2.394555
v 31.468700 44.660750 77.223600
vn -4.037945 -0.147707 -4.811579
v 28.701448 47.089314 79.490660
vn -2.001797 -0.058277 -2.420036
v 30.561250 50.000000 77.853450
vn -2.027127 -0.055276 -2.398178
v 31.445550 47.012450 77.183350
vn -2.034344 -0.082818 -2.390303
v 31.494000 42.398650 77.267150
vn -4.108639 -0.151366 -4.750273
v 26.395798 47.813498 81.408799
vn -2.076406 -0.056392 -2.358852
v 25.231650 48.413100 82.420450
vn -4.076458 -0.167392 -4.778342
v 30.186537 41.957379 78.396953
vn -2.008451 -0.050386 -2.413636
v 31.433600 48.656050 77.162650
vn -4.118888 -0.192415 -4.740865
v 26.210106 44.414497 81.723894
vn -4.077707 -0.173590 -4.777078
v 29.096193 43.467660 79.276359
vn -4.117504 -0.187707 -4.741866
v 26.683022 42.348132 81.381123
vn -4.083328 -0.191280 -4.771457
v 27.191273 46.116006 80.799891
vn -2.059638 -0.105490 -2.369306
v 25.283300 44.856200 82.509900
vn -2.068717 -0.083911 -2.363143
v 27.387800 38.000000 80.944000
vn -4.107900 -0.156753 -4.751695
v 28.159745 39.561301 80.225235
vn -4.065674 -0.147245 -4.788207
v 30.205338 43.946428 78.317122
vn -4.021256 -0.144852 -4.825648
v 29.099687 48.746972 79.110451
vn -2.015296 -0.068683 -2.408794
v 28.727798 50.000000 79.381312
vn -4.089716 -0.179755 -4.766574
v 28.472311 41.711470 79.877130
vn -2.065039 -0.098326 -2.368372
v 25.253850 46.532150 82.458900
vn -4.084443 -0.129315 -4.772646
v 30.132473 39.725466 78.519955
# 39 vertices, 0 vertices normals

f 23//23 4//4 2//2
f 9//9 29//29 16//16
f 30//30 5//5 27//27
f 32//32 13//13 33//33
f 2//2 36//36 35//35
f 33//33 13//13 16//16
f 34//34 17//17 7//7
f 17//17 19//19 7//7
f 18//18 22//22 34//34
f 20//20 6//6 26//26
f 21//21 18//18 7//7
f 22//22 11//11 25//25
f 39//39 25//25 11//11
f 9//9 16//16 13//13
f 4//4 23//23 24//24
f 24//24 8//8 4//4
f 20//20 26//26 3//3
f 26//26 21//21 3//3
f 38//38 30//30 27//27
f 3//3 21//21 7//7
f 15//15 27//27 29//29
f 16//16 29//29 37//37
f 5//5 28//28 37//37
f 9//9 15//15 29//29
f 39//39 14//14 1//1
f 5//5 37//37 29//29
f 27//27 5//5 29//29
f 15//15 31//31 27//27
f 31//31 38//38 27//27
f 1//1 32//32 33//33
f 32//32 10//10 13//13
f 34//34 22//22 25//25
f 2//2 4//4 36//36
f 3//3 35//35 20//20
f 36//36 20//20 35//35
f 3//3 19//19 35//35
f 18//18 34//34 7//7
f 25//25 28//28 34//34
f 28//28 5//5 17//17
f 38//38 24//24 23//23
f 28//28 25//25 37//37
f 30//30 17//17 5//5
f 34//34 28//28 17//17
f 19//19 2//2 35//35
f 19//19 3//3 7//7
f 17//17 30//30 19//19
f 1//1 33//33 39//39
f 9//9 13//13 10//10
f 38//38 23//23 30//30
f 30//30 2//2 19//19
f 2//2 30//30 23//23
f 33//33 16//16 37//37
f 14//14 39//39 11//11
f 37//37 39//39 33//33
f 14//14 11//11 12//12
f 39//39 37//37 25//25
# 56 faces, 0 coords texture

# End of File
