####
#
# OBJ File Generated by Meshlab
#
####
# Object 1181S.obj
#
# Vertices: 37
# Faces: 55
#
####
vn -4.870225 -0.026245 -3.969670
v 54.478555 20.962273 52.648558
vn -4.902616 -0.077435 -3.928902
v 57.832863 23.120736 48.472192
vn -4.898634 -0.076689 -3.933938
v 55.870662 24.294386 50.891337
vn -4.901845 -0.092453 -3.929541
v 56.514998 25.957675 50.056745
vn -2.118999 0.000554 -1.745985
v 52.838100 18.181500 54.662450
vn -2.214948 -0.040824 -1.774168
v 54.651700 28.212200 52.320550
vn -2.180200 -0.035144 -1.749977
v 53.560350 27.719450 53.698200
vn -2.148904 -0.040703 -1.715575
v 58.044500 25.446650 48.152500
vn -2.136826 -0.027934 -1.728274
v 52.630950 26.653700 54.870100
vn -2.141522 -0.041057 -1.719856
v 55.618800 28.165900 51.117350
vn -2.093515 -0.003727 -1.708963
v 55.429875 16.685841 51.508979
vn -2.126546 -0.001048 -1.746375
v 53.970100 17.073750 53.289300
vn -2.171644 -0.027139 -1.759822
v 58.373182 20.105905 47.853605
vn -2.208741 -0.040830 -1.760522
v 58.580400 23.271050 47.530850
vn -4.879823 -0.025645 -3.957862
v 55.836424 18.661205 51.003881
vn -2.102251 -0.005741 -1.719361
v 51.647150 22.406450 56.117250
vn -2.141713 -0.014666 -1.738373
v 51.908800 24.786350 55.786650
vn -4.898060 -0.089831 -3.934373
v 55.265699 26.243429 51.600434
vn -2.141789 0.002907 -1.762830
v 52.044975 19.937425 55.626643
vn -4.868256 -0.016371 -3.972025
v 53.169463 21.468068 54.263190
vn -2.146862 -0.046280 -1.713972
v 57.024213 27.157898 49.386511
vn -4.885277 -0.061624 -3.950745
v 53.311804 25.698826 54.043730
vn -4.901225 -0.078483 -3.930657
v 57.047718 24.245535 49.427357
vn -2.170826 -0.020383 -1.760442
v 57.702450 18.400450 48.700050
vn -4.895859 -0.056078 -3.937736
v 56.651942 22.181575 49.954016
vn -4.884221 -0.045274 -3.952084
v 55.208323 22.597221 51.748404
vn -4.887567 -0.065242 -3.947739
v 54.430220 24.548405 52.681798
vn -4.882151 -0.034932 -3.954882
v 55.623128 20.513158 51.253059
vn -4.887673 -0.057561 -3.947865
v 57.684359 20.926798 48.690963
vn -2.245664 -0.033756 -1.802187
v 58.626900 22.063800 47.500400
vn -2.138992 -0.013767 -1.734697
v 56.812400 17.297400 49.809150
vn -4.864592 -0.019537 -3.976599
v 54.760791 18.866875 52.323564
vn -4.874897 -0.031944 -3.963922
v 54.036962 22.672623 53.181528
vn -4.875553 -0.035151 -3.963092
v 53.039312 23.647768 54.402017
vn -4.900614 -0.085745 -3.931281
v 54.267574 26.517755 52.840342
vn -4.888641 -0.043038 -3.946855
v 56.712754 19.689027 49.906488
vn -4.859257 -0.008639 -3.983167
v 53.603179 19.445467 53.734321
# 37 vertices, 0 vertices normals

f 27//27 22//22 35//35
f 29//29 13//13 24//24
f 1//1 33//33 26//26
f 19//19 37//37 5//5
f 16//16 17//17 34//34
f 26//26 28//28 1//1
f 17//17 9//9 22//22
f 19//19 16//16 20//20
f 4//4 21//21 8//8
f 24//24 36//36 29//29
f 24//24 31//31 36//36
f 14//14 2//2 8//8
f 20//20 16//16 34//34
f 2//2 25//25 23//23
f 23//23 25//25 3//3
f 26//26 3//3 25//25
f 26//26 25//25 28//28
f 27//27 26//26 33//33
f 23//23 4//4 8//8
f 37//37 19//19 20//20
f 4//4 18//18 10//10
f 4//4 10//10 21//21
f 11//11 32//32 15//15
f 10//10 18//18 6//6
f 33//33 1//1 20//20
f 3//3 4//4 23//23
f 28//28 36//36 15//15
f 8//8 2//2 23//23
f 25//25 2//2 29//29
f 29//29 2//2 30//30
f 14//14 30//30 2//2
f 30//30 13//13 29//29
f 11//11 15//15 31//31
f 7//7 22//22 9//9
f 18//18 35//35 6//6
f 5//5 37//37 12//12
f 32//32 11//11 12//12
f 31//31 15//15 36//36
f 1//1 28//28 32//32
f 17//17 22//22 34//34
f 37//37 32//32 12//12
f 34//34 22//22 27//27
f 33//33 34//34 27//27
f 34//34 33//33 20//20
f 3//3 26//26 27//27
f 27//27 35//35 18//18
f 18//18 4//4 3//3
f 3//3 27//27 18//18
f 22//22 7//7 35//35
f 35//35 7//7 6//6
f 28//28 15//15 32//32
f 36//36 25//25 29//29
f 36//36 28//28 25//25
f 32//32 37//37 1//1
f 37//37 20//20 1//1
# 55 faces, 0 coords texture

# End of File
