####
#
# OBJ File Generated by Meshlab
#
####
# Object 1187.obj
#
# Vertices: 164
# Faces: 275
#
####
vn 2.447781 -0.068061 -5.780555
v -14.167630 39.463475 94.206167
vn 1.264294 -0.036764 -2.874804
v -14.585950 50.000000 93.897500
vn -0.330217 -0.062858 -6.272799
v 1.932752 45.178223 96.785682
vn 0.172953 -0.013014 -3.135402
v -2.123549 38.000011 96.855920
vn 0.355663 -0.014612 -3.120078
v -4.765590 38.000000 96.630650
vn -2.059395 -0.026510 -5.934060
v 12.241944 43.121241 94.767580
vn 0.775936 -0.023289 -1.391159
v -18.303600 50.000000 92.000000
vn -0.585140 -0.029029 -3.085839
v 7.057450 50.000000 96.111700
vn -1.095827 -0.019097 -2.942801
v 12.789450 50.000000 94.503850
vn 0.583525 -0.052342 -6.254612
v -3.817517 46.207679 96.638730
vn 0.448602 -0.035523 -6.265544
v -2.715368 48.083297 96.717077
vn 2.251407 -0.084162 -5.859965
v -13.043820 47.629179 94.574837
vn -1.355908 -0.000723 -2.831877
v 15.512845 38.000000 93.475514
vn -1.258600 -0.059761 -6.154159
v 7.460241 40.790173 96.120460
vn -0.146718 -0.043677 -3.135650
v 1.687300 38.000000 96.884700
vn -1.486184 -0.026158 -2.774105
v 18.211400 44.730800 92.000000
vn 2.871687 -0.064223 -5.587382
v -16.509483 40.813935 93.052521
vn -0.957498 -0.025693 -2.989992
v 11.173293 38.000000 95.179727
vn 2.088910 -0.060232 -5.922640
v -12.327458 44.026460 94.859742
vn 1.728958 -0.047390 -6.037648
v -10.525378 45.461052 95.418244
vn 2.595145 -0.076506 -5.719356
v -14.897186 46.641041 93.792422
vn 1.066201 -0.059926 -2.954509
v -12.367200 50.000000 94.769500
vn 0.852918 -0.046386 -3.022184
v -10.273450 50.000000 95.454650
vn -2.603195 -0.057153 -5.716369
v 15.071845 48.017872 93.560908
vn 1.430606 -0.041285 -6.116926
v -8.954932 43.854101 95.830473
vn 2.750438 -0.093503 -5.646716
v -15.685296 39.417198 93.500137
vn -0.736820 -0.046408 -3.053607
v 8.364815 50.000000 95.823100
vn 1.877519 -0.069167 -5.992922
v -11.207693 39.878350 95.271532
vn 0.009376 -0.033048 -3.140301
v -0.031637 38.000000 96.912875
vn 1.459404 -0.015420 -2.780228
v -16.797519 38.000000 92.957090
vn 0.772624 -0.003287 -1.358576
v -18.490400 38.000000 92.000000
vn 2.912038 -0.100754 -5.563951
v -16.562829 45.685905 93.001065
vn -1.506765 -0.032579 -2.755967
v 17.874150 50.000000 92.146100
vn -0.750624 -0.006107 -1.372452
v 18.295400 38.000000 92.000000
vn -0.808172 -0.028101 -1.381526
v 18.123900 50.000000 92.000000
vn 0.646923 -0.026512 -3.072218
v -8.106620 38.000000 96.097500
vn 0.414137 -0.042468 -3.113827
v -5.263280 50.000000 96.438000
vn -2.907262 -0.060796 -5.568814
v 16.790516 42.852159 92.788292
vn 1.515567 -0.034270 -2.733990
v -18.468300 40.432300 91.999900
vn 0.112015 -0.015963 -3.138035
v -1.418960 50.000000 96.790800
vn 0.487926 -0.092327 -6.262049
v -3.283345 42.426493 96.730591
vn 0.448652 -0.068290 -6.266644
v -2.932643 44.425618 96.713197
vn -0.214505 -0.056374 -3.133613
v 2.388655 50.000000 96.711250
vn 1.513303 -0.048497 -6.095645
v -9.441644 47.386701 95.694868
vn -1.791858 -0.028911 -6.021340
v 10.484347 43.694446 95.323728
vn -1.296526 -0.043581 -6.145467
v 7.625623 48.474937 96.009158
vn 2.433139 -0.065190 -5.791185
v -14.184005 44.420978 94.129473
vn -0.975520 -0.050531 -6.204378
v 5.771923 39.494207 96.444442
vn -2.668097 -0.059771 -5.684794
v 15.335166 41.667298 93.535763
vn 2.411340 -0.103331 -5.798209
v -13.883460 48.685263 94.212651
vn -0.909762 -0.048504 -3.006304
v 10.678150 50.000000 95.203300
vn -1.982178 -0.045892 -5.961188
v 11.545423 48.719047 94.937366
vn 1.077040 0.001325 -2.949583
v -12.773800 38.000000 94.750300
vn -0.401370 -0.029260 -3.115099
v 4.721420 50.000000 96.484345
vn -1.374783 -0.014643 -2.823949
v 16.058750 50.000000 93.087100
vn -1.468051 -0.021389 -2.776723
v 18.189950 46.602150 92.000000
vn -2.266658 -0.039106 -5.857652
v 13.125746 48.425677 94.378939
vn 2.979024 -0.039629 -5.530445
v -17.327780 48.835147 92.563776
vn 1.512790 -0.009068 -2.721186
v -18.345850 48.343300 92.000000
vn 0.241264 -0.077774 -6.277280
v -1.581418 41.276938 96.840914
vn -2.356410 -0.053657 -5.822212
v 13.862925 42.484059 94.163748
vn 1.888121 -0.049910 -5.990126
v -11.366978 47.474374 95.152237
vn -0.462087 -0.052898 -6.264594
v 2.621612 46.984569 96.726269
vn -0.182890 -0.046597 -6.279689
v 1.011774 46.720179 96.805936
vn -0.786466 -0.073963 -6.230999
v 4.573911 47.115822 96.535646
vn -1.254758 -0.072760 -6.154012
v 7.352743 45.253810 96.100502
vn -0.607935 -0.077830 -6.251762
v 3.415693 48.675005 96.641408
vn -1.937837 -0.093722 -5.975765
v 11.331947 39.836785 95.093434
vn -2.086420 -0.060401 -5.925326
v 12.485860 41.061927 94.691230
vn -0.524362 -0.016424 -3.095653
v 6.230930 38.000006 96.381070
vn 2.032226 -0.117542 -5.942529
v -11.912201 48.863716 94.949794
vn 1.713200 -0.056758 -6.042196
v -10.359610 48.676424 95.443089
vn -2.635641 -0.092930 -5.701526
v 15.171304 45.827983 93.542933
vn 2.209633 -0.073351 -5.878904
v -12.978258 40.528767 94.654805
vn -1.497181 -0.022402 -2.757503
v 18.252450 42.308550 92.000000
vn 1.293668 -0.052022 -6.143582
v -8.152030 45.806552 96.015029
vn 0.844102 -0.085113 -6.223148
v -5.479455 42.587155 96.501765
vn 1.067416 -0.056811 -6.189134
v -6.761467 44.200736 96.284161
vn 0.788295 -0.063455 -6.230944
v -5.053926 48.319828 96.488759
vn 1.538717 -0.081517 -6.088628
v -9.516727 39.514985 95.755396
vn 0.321835 -0.044358 -6.273319
v -1.867734 45.911807 96.783156
vn 1.295999 0.005826 -2.860285
v -14.912350 38.000000 93.876850
vn 2.990940 -0.083181 -5.522398
v -17.212868 39.248467 92.723514
vn 2.347373 -0.047631 -5.824831
v -13.643426 42.520910 94.378574
vn -1.458798 -0.017658 -2.759673
v 18.162000 48.904250 92.000000
vn -1.501767 -0.016192 -2.754657
v 18.281100 39.936800 92.000000
vn -2.931899 -0.023913 -5.556315
v 16.919382 39.013018 92.748066
vn -1.484721 -0.005041 -2.768361
v 17.223700 38.000000 92.586700
vn -0.949899 -0.067898 -6.209278
v 5.585302 48.652589 96.370456
vn 1.739108 -0.049429 -6.034026
v -10.670471 43.496923 95.399574
vn -1.997357 -0.093760 -5.955731
v 11.523061 47.096193 94.958524
vn 0.871260 -0.011813 -3.015842
v -10.458510 38.000000 95.517250
vn 2.581868 -0.067553 -5.726596
v -14.729900 40.994908 93.913375
vn 1.574393 -0.034766 -2.730299
v -18.366550 44.039100 91.999850
vn 1.553436 -0.022759 -2.755061
v -18.330550 46.044250 91.999850
vn 1.438256 -0.029290 -2.792130
v -16.733300 50.000000 92.871350
vn 1.567453 -0.072731 -6.082361
v -9.707624 41.633272 95.666356
vn -0.391539 -0.064124 -6.268540
v 2.391108 41.461580 96.795373
vn 0.160617 -0.072666 -6.279077
v -1.124913 39.610262 96.881235
vn -2.920779 -0.038069 -5.562113
v 16.830554 40.827003 92.783715
vn -0.696292 -0.065841 -6.242276
v 4.112220 40.247532 96.659692
vn 0.088972 -0.041793 -6.280582
v -0.530728 47.804495 96.814267
vn -1.491742 -0.029081 -2.763191
v 18.227900 43.807400 92.000000
vn -2.878873 -0.075951 -5.583245
v 16.722727 44.677419 92.800681
vn 2.720028 -0.019167 -5.659297
v -15.640624 42.799229 93.501548
vn -1.144061 -0.004966 -2.924128
v 13.405300 38.000000 94.386100
vn -2.115766 -0.060305 -5.914938
v 12.615331 39.253023 94.667929
vn -1.867461 -0.060775 -5.998557
v 10.806472 41.648332 95.235685
vn 0.899704 -0.075712 -6.216466
v -5.871535 46.095047 96.398277
vn -1.239811 -0.024294 -2.886354
v 14.287700 50.000000 93.886800
vn 2.177287 -0.037447 -5.889483
v -12.741978 45.992247 94.696685
vn 0.529950 -0.034459 -3.096184
v -6.841520 50.000000 96.199600
vn 0.706808 -0.059165 -6.241453
v -4.706542 40.659368 96.618749
vn -0.142977 -0.096954 -6.279540
v 0.865047 39.711542 96.880570
vn -0.327010 -0.019387 -3.123019
v 3.642220 38.000000 96.730100
vn -0.436609 -0.083083 -6.266358
v 2.563295 39.426635 96.806087
vn -1.487951 -0.057646 -6.102365
v 8.753116 44.464764 95.793081
vn -1.724159 -0.066103 -6.038237
v 10.176977 45.770947 95.411548
vn -0.011704 -0.053862 -6.281010
v 0.046391 45.388440 96.838569
vn 1.002555 -0.049263 -6.200753
v -6.410716 39.359752 96.393909
vn 0.284105 -0.027013 -3.128414
v -3.350090 50.000000 96.652050
vn 2.710732 -0.073217 -5.665106
v -15.643620 44.682878 93.478579
vn 3.021865 -0.040068 -5.507325
v -17.426237 42.388219 92.565545
vn -0.848685 -0.066022 -6.223305
v 4.882428 43.930369 96.528655
vn 1.557211 -0.043886 -2.724922
v -18.418600 42.297500 91.999900
vn 0.197267 -0.063134 -6.277147
v -1.171035 43.457135 96.839350
vn -0.519176 -0.058509 -6.259071
v 3.127502 43.587026 96.726273
vn 1.014505 -0.073106 -6.197232
v -6.340361 41.137181 96.396149
vn 1.243002 -0.076989 -6.156986
v -7.592907 42.354757 96.142327
vn -0.248662 -0.069356 -6.274355
v 1.416371 48.424688 96.791741
vn 1.960462 -0.049389 -5.966939
v -11.765564 42.038743 95.065295
vn -2.324806 -0.101392 -5.833765
v 13.492186 46.535837 94.260397
vn -1.425617 -0.070530 -6.118482
v 8.487836 46.632248 95.820891
vn 0.496172 -0.021947 -3.101115
v -6.447170 38.000000 96.397700
vn -2.039247 -0.073080 -5.938926
v 11.971165 45.089441 94.855815
vn 0.681475 -0.081930 -6.243201
v -4.614256 44.293679 96.585321
vn -0.043915 -0.050302 -3.141033
v 0.240565 50.000000 96.787450
vn -2.660922 -0.084660 -5.688789
v 15.282455 43.799285 93.530818
vn 0.656181 -0.050348 -3.071810
v -8.564800 50.000000 95.866500
vn 1.364982 -0.072723 -6.130190
v -8.794241 48.995487 95.833953
vn 1.125477 -0.076224 -6.179491
v -7.332488 47.742832 96.138902
vn 1.289290 -0.089168 -6.147749
v -7.976020 40.346188 96.089075
vn -2.631021 -0.029391 -5.701065
v 15.119112 39.483359 93.659055
vn -2.366057 -0.077419 -5.816959
v 13.720757 44.564230 94.205171
vn -0.730183 -0.018487 -3.052951
v 8.644935 38.000000 95.895150
vn -1.264056 -0.057959 -6.153554
v 7.550773 39.161817 96.115073
vn -0.993113 -0.069939 -6.202557
v 5.787524 41.212669 96.420438
vn -0.968077 -0.067557 -6.206667
v 5.735143 45.266065 96.385452
vn -1.124875 -0.072238 -6.179518
v 6.578961 46.975980 96.225114
vn 3.008523 -0.059348 -5.513599
v -17.023249 44.210842 92.774092
vn -2.846971 -0.067172 -5.599596
v 16.710107 46.451061 92.785777
vn -2.856953 -0.036802 -5.595580
v 16.955905 48.360743 92.634459
vn 2.737900 -0.045891 -5.653851
v -15.865885 48.606016 93.309992
vn 2.930196 -0.034301 -5.556460
v -16.926831 47.340111 92.781883
vn -0.650537 -0.070513 -6.247591
v 3.815806 45.370920 96.636217
vn -1.538276 -0.075142 -6.087655
v 8.970807 42.238873 95.769805
vn 0.452415 -0.056804 -6.264878
v -2.961803 39.953154 96.787569
vn -0.175924 -0.048679 -6.278874
v 1.084315 43.395011 96.837069
vn -1.156556 -0.061255 -6.173714
v 6.800606 43.111645 96.224463
vn -1.628612 -0.065940 -6.063441
v 9.433824 39.848913 95.681120
vn -0.787969 -0.060807 -6.230932
v 4.625495 42.294197 96.578866
vn -0.032572 -0.069680 -6.281453
v 0.037742 41.346196 96.869759
vn -2.338552 -0.060734 -5.829651
v 13.815385 40.164334 94.205733
vn -1.665826 -0.074021 -6.054274
v 9.765901 48.019151 95.499557
# 164 vertices, 0 vertices normals

f 22//22 71//71 50//50
f 23//23 72//72 71//71
f 61//61 163//163 69//69
f 100//100 86//86 87//87
f 85//85 33//33 35//35
f 92//92 28//28 80//80
f 95//95 154//154 32//32
f 25//25 76//76 78//78
f 103//103 38//38 104//104
f 150//150 105//105 123//123
f 93//93 1//1 26//26
f 97//97 80//80 28//28
f 161//161 98//98 127//127
f 110//110 24//24 57//57
f 10//10 109//109 79//79
f 101//101 48//48 115//115
f 157//157 99//99 4//4
f 127//127 155//155 124//124
f 111//111 47//47 21//21
f 91//91 164//164 52//52
f 113//113 128//128 77//77
f 10//10 136//136 109//109
f 54//54 89//89 67//67
f 62//62 44//44 20//20
f 63//63 64//64 130//130
f 68//68 69//69 107//107
f 42//42 81//81 126//126
f 140//140 44//44 72//72
f 60//60 126//126 162//162
f 102//102 119//119 81//81
f 27//27 164//164 46//46
f 93//93 17//17 105//105
f 140//140 112//112 141//141
f 105//105 150//150 122//122
f 135//135 91//91 132//132
f 84//84 47//47 19//19
f 97//97 90//90 25//25
f 131//131 74//74 84//84
f 49//49 61//61 138//138
f 87//87 143//143 100//100
f 160//160 145//145 146//146
f 116//116 98//98 101//101
f 73//73 138//138 144//144
f 73//73 132//132 24//24
f 49//49 100//100 143//143
f 51//51 9//9 52//52
f 53//53 82//82 1//1
f 4//4 5//5 157//157
f 54//54 8//8 89//89
f 152//152 33//33 85//85
f 56//56 16//16 151//151
f 52//52 57//57 91//91
f 7//7 58//58 59//59
f 58//58 7//7 96//96
f 9//9 57//57 52//52
f 3//3 64//64 63//63
f 130//130 67//67 63//63
f 63//63 67//67 65//65
f 137//137 130//130 102//102
f 40//40 102//102 11//11
f 70//70 115//115 48//48
f 2//2 22//22 50//50
f 50//50 71//71 12//12
f 71//71 62//62 12//12
f 22//22 23//23 71//71
f 71//71 72//72 62//62
f 75//75 86//86 100//100
f 100//100 38//38 75//75
f 11//11 81//81 10//10
f 128//128 129//129 77//77
f 101//101 161//161 147//147
f 42//42 10//10 81//81
f 53//53 1//1 74//74
f 30//30 83//83 26//26
f 82//82 30//30 26//26
f 82//82 26//26 1//1
f 26//26 83//83 17//17
f 31//31 83//83 30//30
f 31//31 39//39 83//83
f 83//83 39//39 17//17
f 58//58 96//96 153//153
f 85//85 56//56 152//152
f 87//87 86//86 34//34
f 34//34 88//88 87//87
f 88//88 13//13 87//87
f 2//2 50//50 153//153
f 50//50 21//21 153//153
f 131//131 90//90 97//97
f 135//135 118//118 91//91
f 92//92 53//53 28//28
f 94//94 95//95 150//150
f 95//95 32//32 150//150
f 95//95 59//59 154//154
f 96//96 2//2 153//153
f 36//36 92//92 80//80
f 29//29 99//99 114//114
f 11//11 102//102 81//81
f 16//16 103//103 104//104
f 103//103 75//75 38//38
f 17//17 93//93 26//26
f 106//106 18//18 107//107
f 1//1 93//93 74//74
f 28//28 74//74 131//131
f 97//97 142//142 80//80
f 131//131 97//97 28//28
f 117//117 156//156 159//159
f 91//91 118//118 164//164
f 9//9 110//110 57//57
f 110//110 55//55 24//24
f 11//11 10//10 79//79
f 19//19 111//111 20//20
f 130//130 43//43 67//67
f 112//112 37//37 79//79
f 115//115 15//15 116//116
f 116//116 101//101 115//115
f 40//40 137//137 102//102
f 64//64 3//3 119//119
f 41//41 60//60 157//157
f 4//4 99//99 29//29
f 121//121 40//40 11//11
f 154//154 21//21 32//32
f 32//32 21//21 122//122
f 94//94 150//150 123//123
f 78//78 76//76 109//109
f 28//28 53//53 74//74
f 131//131 19//19 90//90
f 19//19 20//20 90//90
f 159//159 147//147 161//161
f 39//39 125//125 123//123
f 125//125 94//94 123//123
f 161//161 127//127 124//124
f 127//127 3//3 155//155
f 120//120 128//128 113//113
f 3//3 63//63 155//155
f 15//15 114//114 116//116
f 114//114 15//15 29//29
f 121//121 79//79 37//37
f 79//79 121//121 11//11
f 65//65 155//155 63//63
f 12//12 111//111 21//21
f 111//111 19//19 47//47
f 78//78 77//77 129//129
f 130//130 64//64 102//102
f 52//52 164//164 51//51
f 41//41 77//77 136//136
f 136//136 77//77 78//78
f 41//41 113//113 77//77
f 8//8 46//46 89//89
f 89//89 46//46 149//149
f 24//24 132//132 57//57
f 57//57 132//132 91//91
f 149//149 65//65 89//89
f 5//5 134//134 120//120
f 134//134 36//36 120//120
f 18//18 145//145 160//160
f 68//68 18//18 160//160
f 10//10 42//42 136//136
f 109//109 136//136 78//78
f 137//137 43//43 130//130
f 69//69 68//68 108//108
f 48//48 101//101 147//147
f 43//43 54//54 67//67
f 67//67 89//89 65//65
f 111//111 62//62 20//20
f 27//27 51//51 164//164
f 69//69 6//6 61//61
f 107//107 69//69 163//163
f 41//41 42//42 126//126
f 126//126 81//81 119//119
f 23//23 139//139 140//140
f 139//139 112//112 140//140
f 44//44 141//141 76//76
f 42//42 41//41 136//136
f 149//149 46//46 133//133
f 141//141 112//112 79//79
f 23//23 140//140 72//72
f 72//72 44//44 62//62
f 60//60 41//41 126//126
f 162//162 126//126 158//158
f 58//58 154//154 59//59
f 102//102 64//64 119//119
f 126//126 119//119 158//158
f 45//45 6//6 108//108
f 6//6 69//69 108//108
f 160//160 108//108 68//68
f 8//8 27//27 46//46
f 133//133 46//46 164//164
f 3//3 158//158 119//119
f 109//109 141//141 79//79
f 65//65 148//148 155//155
f 128//128 120//120 142//142
f 105//105 17//17 123//123
f 104//104 38//38 138//138
f 135//135 6//6 45//45
f 44//44 140//140 141//141
f 142//142 36//36 80//80
f 49//49 143//143 163//163
f 93//93 105//105 84//84
f 84//84 105//105 47//47
f 129//129 128//128 142//142
f 47//47 122//122 21//21
f 47//47 105//105 122//122
f 122//122 150//150 32//32
f 129//129 142//142 97//97
f 99//99 162//162 114//114
f 129//129 97//97 25//25
f 19//19 131//131 84//84
f 84//84 74//74 93//93
f 38//38 49//49 138//138
f 6//6 144//144 61//61
f 61//61 144//144 138//138
f 87//87 13//13 143//143
f 146//146 145//145 70//70
f 116//116 114//114 98//98
f 114//114 162//162 98//98
f 101//101 98//98 161//161
f 33//33 152//152 55//55
f 73//73 104//104 138//138
f 143//143 106//106 163//163
f 48//48 147//147 14//14
f 70//70 48//48 146//146
f 146//146 48//48 14//14
f 24//24 151//151 73//73
f 73//73 151//151 104//104
f 152//152 151//151 24//24
f 49//49 38//38 100//100
f 50//50 12//12 21//21
f 163//163 61//61 49//49
f 149//149 148//148 65//65
f 117//117 159//159 66//66
f 117//117 133//133 118//118
f 148//148 149//149 66//66
f 45//45 156//156 117//117
f 152//152 56//56 151//151
f 118//118 45//45 117//117
f 66//66 133//133 117//117
f 118//118 135//135 45//45
f 155//155 148//148 124//124
f 133//133 66//66 149//149
f 24//24 55//55 152//152
f 66//66 159//159 148//148
f 153//153 154//154 58//58
f 144//144 135//135 132//132
f 108//108 156//156 45//45
f 21//21 154//154 153//153
f 156//156 108//108 160//160
f 6//6 135//135 144//144
f 17//17 39//39 123//123
f 14//14 156//156 160//160
f 3//3 127//127 158//158
f 111//111 12//12 62//62
f 132//132 73//73 144//144
f 151//151 16//16 104//104
f 156//156 14//14 159//159
f 158//158 127//127 98//98
f 158//158 98//98 162//162
f 157//157 60//60 99//99
f 41//41 157//157 113//113
f 25//25 78//78 129//129
f 159//159 14//14 147//147
f 76//76 141//141 109//109
f 14//14 160//160 146//146
f 148//148 159//159 124//124
f 25//25 20//20 76//76
f 159//159 161//161 124//124
f 20//20 44//44 76//76
f 90//90 20//20 25//25
f 120//120 36//36 142//142
f 107//107 18//18 68//68
f 60//60 162//162 99//99
f 163//163 106//106 107//107
f 133//133 164//164 118//118
f 143//143 13//13 106//106
f 5//5 120//120 113//113
f 5//5 113//113 157//157
# 275 faces, 0 coords texture

# End of File
