####
#
# OBJ File Generated by Meshlab
#
####
# Object 1233.obj
#
# Vertices: 48
# Faces: 71
#
####
vn -2.633505 -0.007247 -1.694642
v 71.884700 -42.142750 30.718000
vn -1.377975 -0.031556 -0.859439
v 71.805100 -38.000000 30.718000
vn -5.206766 0.045834 -3.515964
v 69.096308 -45.290619 34.981391
vn -2.590089 0.036277 -1.777704
v 68.290700 -50.000000 36.050800
vn -1.337831 0.011571 -0.831771
v 71.806300 -50.000000 30.718000
vn -1.302669 0.014874 -0.900722
v 66.448600 -50.000000 38.718000
vn -1.345317 -0.000167 -0.897516
v 66.582200 -38.000000 38.749000
vn -5.209667 -0.041567 -3.512147
v 68.024112 -39.732011 36.609883
vn -5.268457 -0.001496 -3.423529
v 69.850373 -41.812229 33.861906
vn -5.173860 0.085215 -3.563924
v 68.512314 -46.778455 35.800595
vn -5.255956 -0.064891 -3.441457
v 69.175944 -39.794172 34.891678
vn -5.213133 -0.011995 -3.507293
v 67.089322 -39.707491 37.989174
vn -5.195653 0.017220 -3.533045
v 67.593561 -41.660825 37.249933
vn -2.635444 0.042533 -1.709689
v 70.740600 -50.000000 32.400000
vn -5.244384 0.085282 -3.458459
v 70.149166 -48.324607 33.351604
vn -2.642353 0.016297 -1.696298
v 71.876300 -43.619800 30.718000
vn -2.658553 0.026179 -1.673708
v 71.437800 -50.000000 31.310700
vn -5.304681 0.063303 -3.366570
v 71.120586 -48.175617 31.841306
vn -2.666911 0.029627 -1.666077
v 71.819700 -48.450750 30.718000
vn -2.515609 0.065803 -1.748899
v 66.457750 -43.949900 38.859850
vn -2.632906 0.015382 -1.777694
v 66.552900 -41.607700 38.800300
vn -2.603079 -0.050997 -1.685347
v 69.732050 -37.880000 33.974350
vn -5.279788 -0.068520 -3.405391
v 70.275624 -39.562880 33.180630
vn -2.582811 0.034331 -1.787734
v 66.447964 -47.693213 38.754051
vn -5.222775 0.062679 -3.491849
v 69.607688 -46.597229 34.199320
vn -2.645941 -0.039749 -1.681494
v 71.862650 -40.360850 30.718200
vn -5.302993 -0.090007 -3.368310
v 71.175182 -39.403626 31.779511
vn -5.175587 0.110079 -3.560437
v 67.255104 -43.930937 37.713652
vn -5.200920 0.079312 -3.524176
v 68.127783 -43.329027 36.450328
vn -2.621614 -0.012083 -1.752210
v 67.260600 -37.980100 37.728500
vn -5.223410 0.016199 -3.489870
v 68.618365 -41.672847 35.760631
vn -5.230335 0.052199 -3.481131
v 68.977028 -43.642790 35.167797
vn -5.162710 0.100780 -3.579594
v 67.426601 -46.275761 37.370904
vn -5.278881 0.006053 -3.407511
v 70.993130 -42.809070 32.098942
vn -5.167339 0.069258 -3.573815
v 67.696173 -48.489085 36.938648
vn -2.584585 0.033164 -1.785601
v 67.689600 -50.000000 36.920100
vn -2.605085 0.053842 -1.755259
v 69.388550 -50.000000 34.429750
vn -5.191610 0.089548 -3.537942
v 68.996070 -48.442144 35.052783
vn -2.648813 0.023490 -1.683079
v 71.857798 -45.917022 30.718800
vn -5.256342 0.019077 -3.441914
v 70.054990 -44.329479 33.543357
vn -5.280609 0.041207 -3.404283
v 70.665422 -46.304560 32.589143
vn -2.597283 0.063030 -1.802074
v 66.456300 -45.602650 38.792300
vn -2.609448 -0.040031 -1.727411
v 68.573673 -37.913819 35.753966
vn -5.288524 0.026343 -3.392514
v 71.110183 -44.485850 31.903647
vn -2.590494 -0.000095 -1.738364
v 66.558050 -39.321100 38.780850
vn -5.185038 0.091719 -3.547453
v 68.221825 -45.005080 36.262955
vn -5.282250 -0.040800 -3.402056
v 71.018512 -41.003814 32.049366
vn -2.637496 -0.051228 -1.675856
v 70.960900 -37.934950 32.072900
# 48 vertices, 0 vertices normals

f 16//16 39//39 44//44
f 21//21 12//12 13//13
f 13//13 31//31 29//29
f 7//7 30//30 12//12
f 39//39 18//18 41//41
f 8//8 31//31 13//13
f 28//28 33//33 42//42
f 44//44 41//41 40//40
f 40//40 9//9 34//34
f 23//23 48//48 27//27
f 38//38 35//35 10//10
f 31//31 11//11 9//9
f 46//46 32//32 3//3
f 23//23 47//47 9//9
f 21//21 13//13 28//28
f 14//14 37//37 15//15
f 34//34 1//1 16//16
f 5//5 17//17 19//19
f 17//17 14//14 18//18
f 20//20 21//21 28//28
f 21//21 45//45 12//12
f 22//22 48//48 23//23
f 24//24 42//42 33//33
f 3//3 25//25 10//10
f 26//26 1//1 47//47
f 28//28 29//29 46//46
f 28//28 13//13 29//29
f 43//43 11//11 8//8
f 12//12 30//30 8//8
f 29//29 31//31 32//32
f 32//32 31//31 9//9
f 35//35 24//24 33//33
f 35//35 4//4 36//36
f 35//35 36//36 6//6
f 37//37 4//4 38//38
f 39//39 19//19 18//18
f 8//8 13//13 12//12
f 8//8 11//11 31//31
f 20//20 28//28 42//42
f 43//43 22//22 11//11
f 10//10 25//25 38//38
f 41//41 25//25 40//40
f 40//40 25//25 3//3
f 44//44 39//39 41//41
f 44//44 40//40 34//34
f 12//12 45//45 7//7
f 33//33 28//28 46//46
f 32//32 9//9 40//40
f 32//32 40//40 3//3
f 38//38 4//4 35//35
f 10//10 46//46 3//3
f 46//46 29//29 32//32
f 11//11 23//23 9//9
f 23//23 27//27 47//47
f 35//35 33//33 10//10
f 27//27 2//2 26//26
f 34//34 9//9 47//47
f 27//27 48//48 2//2
f 16//16 44//44 34//34
f 26//26 47//47 27//27
f 43//43 8//8 30//30
f 1//1 34//34 47//47
f 35//35 6//6 24//24
f 23//23 11//11 22//22
f 38//38 25//25 15//15
f 15//15 41//41 18//18
f 41//41 15//15 25//25
f 18//18 14//14 15//15
f 18//18 19//19 17//17
f 38//38 15//15 37//37
f 33//33 46//46 10//10
# 71 faces, 0 coords texture

# End of File
