####
#
# OBJ File Generated by Meshlab
#
####
# Object 1234.obj
#
# Vertices: 46
# Faces: 66
#
####
vn 2.548284 -0.083911 -1.823316
v -26.936200 -39.654550 85.374450
vn 5.035710 -0.144806 -3.753667
v -27.625691 -41.414953 84.476012
vn 4.772202 -0.193408 -4.081896
v -30.418821 -46.245396 81.218254
vn 2.561364 -0.071566 -1.813001
v -26.925000 -38.000000 85.296000
vn 1.316754 -0.039006 -0.884461
v -26.907200 -38.000000 85.322500
vn 2.599152 -0.094621 -1.762695
v -26.907500 -38.026000 85.323200
vn 4.762741 -0.165178 -4.094729
v -31.034687 -44.471672 80.436043
vn 2.525456 -0.030066 -1.846873
v -27.042809 -49.085675 85.570638
vn 2.513339 -0.049877 -1.883208
v -27.301800 -50.000000 85.220100
vn 4.868841 -0.221743 -3.965204
v -29.015995 -48.506012 83.028018
vn 1.285513 -0.015906 -0.908298
v -27.052100 -50.000000 85.573500
vn 4.816599 -0.148390 -4.031236
v -29.888444 -41.313831 81.641505
vn 1.175100 -0.007780 -1.039785
v -32.345200 -38.000000 78.741600
vn 4.940228 -0.161620 -3.876371
v -28.408073 -44.836697 83.580900
vn 2.520202 -0.082995 -1.881217
v -26.995350 -45.017250 85.476200
vn 2.530068 -0.072525 -1.866936
v -26.967400 -42.887750 85.427800
vn 1.176489 -0.031247 -1.050163
v -32.504100 -50.000000 79.016800
vn 4.865513 -0.211470 -3.968717
v -29.042979 -46.661024 82.879141
vn 4.987576 -0.120793 -3.813789
v -27.902949 -39.568783 84.016538
vn 4.954968 -0.157752 -3.857734
v -27.862465 -48.356680 84.444376
vn 2.354802 -0.093895 -2.066407
v -32.411850 -44.700800 78.856900
vn 2.448291 -0.033508 -1.966976
v -28.508558 -38.000182 83.225736
vn 2.420839 -0.105263 -2.000301
v -29.681648 -50.000000 82.291485
vn 4.841017 -0.102894 -4.003740
v -29.258530 -39.593445 82.353195
vn 2.349308 -0.045673 -2.072686
v -32.350200 -39.931350 78.750400
vn 4.771147 -0.078889 -4.087156
v -30.707153 -39.619968 80.629803
vn 2.545049 -0.054496 -1.839017
v -26.954300 -41.429700 85.405600
vn 2.436191 -0.109783 -1.980322
v -28.132000 -50.000000 84.203500
vn 2.342531 -0.083989 -2.096217
v -32.385250 -42.184250 78.810900
vn 4.742722 -0.154530 -4.116246
v -31.166325 -41.332727 80.128874
vn 2.513442 -0.072728 -1.873650
v -27.019800 -46.864400 85.528500
vn 2.345891 -0.113416 -2.091718
v -32.464550 -47.129700 78.948150
vn 4.744715 -0.180833 -4.114397
v -31.356780 -43.044614 79.995847
vn 2.366496 -0.079852 -2.065339
v -31.334450 -50.000000 80.327150
vn 4.717886 -0.192599 -4.145032
v -31.333869 -47.830754 80.251376
vn 2.345033 -0.077429 -2.094390
v -32.492200 -48.859600 78.996200
vn 2.394881 -0.039482 -2.032078
v -30.205150 -38.000000 81.185250
vn 4.809563 -0.154497 -4.039551
v -29.699241 -44.723847 82.004521
vn 4.899980 -0.149056 -3.929322
v -28.670496 -41.323559 83.124528
vn 2.363753 -0.025137 -2.069071
v -31.481500 -38.000000 79.717700
vn 4.718452 -0.212630 -4.143213
v -31.534423 -46.032807 79.924786
vn 4.800170 -0.207362 -4.048585
v -30.121623 -48.209748 81.672778
vn 4.847536 -0.155634 -3.993662
v -29.206926 -43.065753 82.532905
vn 4.982805 -0.148486 -3.823325
v -27.987297 -43.084318 84.061486
vn 4.787895 -0.176335 -4.064605
v -30.332793 -43.111274 81.212208
vn 4.968701 -0.180720 -3.840362
v -28.114858 -46.893739 84.061860
# 46 vertices, 0 vertices normals

f 4//4 5//5 6//6
f 9//9 8//8 11//11
f 1//1 2//2 19//19
f 31//31 20//20 46//46
f 41//41 35//35 32//32
f 37//37 24//24 26//26
f 30//30 26//26 12//12
f 39//39 12//12 24//24
f 20//20 9//9 28//28
f 9//9 20//20 8//8
f 6//6 1//1 4//4
f 28//28 10//10 20//20
f 21//21 29//29 33//33
f 4//4 1//1 19//19
f 22//22 19//19 24//24
f 23//23 34//34 42//42
f 25//25 13//13 40//40
f 1//1 27//27 2//2
f 27//27 16//16 2//2
f 29//29 25//25 30//30
f 15//15 31//31 46//46
f 31//31 8//8 20//20
f 32//32 21//21 41//41
f 36//36 34//34 17//17
f 34//34 36//36 35//35
f 36//36 32//32 35//35
f 37//37 22//22 24//24
f 3//3 38//38 18//18
f 18//18 38//38 14//14
f 39//39 24//24 19//19
f 39//39 19//19 2//2
f 26//26 25//25 40//40
f 26//26 40//40 37//37
f 12//12 45//45 30//30
f 14//14 38//38 43//43
f 26//26 30//30 25//25
f 35//35 41//41 3//3
f 38//38 3//3 7//7
f 43//43 39//39 44//44
f 44//44 2//2 16//16
f 12//12 43//43 45//45
f 24//24 12//12 26//26
f 21//21 7//7 41//41
f 23//23 42//42 10//10
f 15//15 44//44 16//16
f 43//43 44//44 14//14
f 15//15 14//14 44//44
f 15//15 46//46 14//14
f 10//10 46//46 20//20
f 46//46 18//18 14//14
f 10//10 28//28 23//23
f 42//42 34//34 35//35
f 35//35 3//3 42//42
f 30//30 33//33 29//29
f 3//3 41//41 7//7
f 10//10 42//42 18//18
f 42//42 3//3 18//18
f 43//43 12//12 39//39
f 43//43 38//38 45//45
f 2//2 44//44 39//39
f 4//4 19//19 22//22
f 21//21 33//33 7//7
f 33//33 45//45 7//7
f 30//30 45//45 33//33
f 45//45 38//38 7//7
f 46//46 10//10 18//18
# 66 faces, 0 coords texture

# End of File
