####
#
# OBJ File Generated by Meshlab
#
####
# Object 1248S.obj
#
# Vertices: 40
# Faces: 59
#
####
vn 4.928475 0.125807 -3.895157
v -55.857918 -25.866731 52.534727
vn 4.931066 0.129665 -3.891784
v -56.872513 -24.854246 51.280928
vn 2.165988 0.047928 -1.697663
v -58.680300 -21.060550 49.106500
vn 2.173702 0.045936 -1.732981
v -52.921600 -24.100450 56.271650
vn 2.171333 0.063774 -1.712103
v -55.116500 -30.847900 53.287900
vn 2.170878 0.041892 -1.731341
v -53.466600 -22.158850 55.634250
vn 2.142304 0.056853 -1.673044
v -59.373600 -22.739150 48.165500
vn 2.187556 0.046761 -1.740494
v -56.572100 -19.605650 51.811400
vn 2.096927 0.061075 -1.637456
v -59.468900 -27.044400 47.879300
vn 2.376606 0.053250 -1.904063
v -52.846900 -25.839600 56.315000
vn 2.163034 0.044141 -1.727607
v -54.432478 -20.598590 54.461355
vn 2.243847 0.064928 -1.763292
v -58.847900 -28.709900 48.622700
vn 2.272092 0.070969 -1.781839
v -56.103650 -30.997800 52.027400
vn 2.211831 0.046142 -1.750086
v -57.785300 -20.113300 50.267600
vn 2.118962 0.051918 -1.697322
v -52.862100 -26.756000 56.268900
vn 2.275443 0.079522 -1.783555
v -58.055003 -29.878735 49.573066
vn 4.912577 0.096452 -3.916081
v -54.636411 -22.978903 54.148015
vn 2.237316 0.066326 -1.767071
v -54.397200 -30.251500 54.219450
vn 4.949919 0.146597 -3.867194
v -58.838410 -24.776247 48.777677
vn 4.946231 0.147530 -3.871852
v -57.985501 -25.947583 49.826091
vn 4.943839 0.158373 -3.874469
v -56.717472 -29.044063 51.323362
vn 4.930982 0.148530 -3.891241
v -55.280920 -29.122187 53.143659
vn 2.290011 0.068756 -1.794730
v -59.577655 -24.807310 47.833236
vn 4.922512 0.132592 -3.902477
v -54.066475 -28.069254 54.721409
vn 4.916915 0.106708 -3.910351
v -56.699960 -20.863391 51.616908
vn 2.199040 0.056884 -1.741395
v -53.505329 -28.845390 55.404673
vn 4.918686 0.107108 -3.908122
v -55.804513 -23.824853 52.658938
vn 4.919961 0.114585 -3.906281
v -56.828614 -22.724572 51.403638
vn 4.909209 0.115498 -3.919706
v -53.811730 -26.181007 55.102873
vn 4.910385 0.098900 -3.918767
v -53.750960 -24.382485 55.223896
vn 4.917405 0.106595 -3.909722
v -54.808520 -25.037836 53.881877
vn 4.932495 0.146399 -3.889377
v -55.870522 -27.584387 52.457273
vn 2.202578 0.075412 -1.716694
v -57.081500 -30.742300 50.781700
vn 4.937123 0.115292 -3.884473
v -58.142600 -21.982299 49.766510
vn 4.939905 0.144337 -3.880062
v -56.873557 -26.949718 51.204463
vn 2.193833 0.048688 -1.752659
v -55.616500 -19.747700 53.005600
vn 4.945003 0.153731 -3.873186
v -57.942586 -27.909035 49.804231
vn 4.910428 0.104905 -3.918557
v -55.645657 -21.758835 52.912888
vn 4.924003 0.133194 -3.900605
v -54.869451 -26.988713 53.744374
vn 4.941198 0.133694 -3.878719
v -58.103396 -23.543998 49.765670
# 40 vertices, 0 vertices normals

f 30//30 4//4 10//10
f 38//38 27//27 28//28
f 20//20 2//2 35//35
f 14//14 34//34 3//3
f 22//22 18//18 5//5
f 6//6 4//4 30//30
f 23//23 19//19 9//9
f 17//17 27//27 38//38
f 19//19 7//7 40//40
f 1//1 31//31 39//39
f 25//25 14//14 8//8
f 26//26 18//18 24//24
f 27//27 1//1 2//2
f 29//29 31//31 30//30
f 22//22 21//21 32//32
f 6//6 17//17 11//11
f 20//20 19//19 40//40
f 10//10 29//29 30//30
f 15//15 29//29 10//10
f 13//13 33//33 21//21
f 33//33 16//16 21//21
f 30//30 31//31 17//17
f 24//24 29//29 15//15
f 24//24 15//15 26//26
f 7//7 19//19 23//23
f 29//29 24//24 39//39
f 1//1 39//39 32//32
f 34//34 28//28 40//40
f 38//38 28//28 25//25
f 28//28 34//34 25//25
f 25//25 34//34 14//14
f 32//32 21//21 35//35
f 32//32 35//35 1//1
f 28//28 27//27 2//2
f 22//22 5//5 13//13
f 24//24 18//18 22//22
f 8//8 36//36 25//25
f 36//36 11//11 38//38
f 12//12 37//37 16//16
f 37//37 12//12 9//9
f 37//37 20//20 35//35
f 35//35 2//2 1//1
f 21//21 16//16 37//37
f 38//38 25//25 36//36
f 17//17 38//38 11//11
f 6//6 30//30 17//17
f 21//21 22//22 13//13
f 31//31 1//1 27//27
f 39//39 24//24 22//22
f 17//17 31//31 27//27
f 29//29 39//39 31//31
f 39//39 22//22 32//32
f 40//40 28//28 2//2
f 20//20 40//40 2//2
f 21//21 37//37 35//35
f 34//34 40//40 7//7
f 34//34 7//7 3//3
f 9//9 19//19 20//20
f 37//37 9//9 20//20
# 59 faces, 0 coords texture

# End of File
