####
#
# OBJ File Generated by Meshlab
#
####
# Object 1266.obj
#
# Vertices: 49
# Faces: 71
#
####
vn 5.087187 -0.142235 -3.684359
v -29.240314 -40.542024 85.095058
vn 2.427046 -0.057004 -1.993458
v -31.582320 -38.000029 81.980181
vn 2.415829 -0.037524 -2.015146
v -33.208850 -44.233250 80.237450
vn 2.410944 -0.069383 -2.019366
v -33.190750 -42.195650 80.206000
vn 2.619813 -0.057239 -1.790152
v -27.905150 -44.623450 87.092550
vn 2.414488 -0.065175 -2.008910
v -32.901300 -38.000000 80.394900
vn 2.390641 -0.060965 -2.025998
v -33.136900 -38.033100 80.112800
vn 2.547024 -0.116648 -1.829092
v -29.107000 -38.000000 85.126950
vn 1.312283 -0.036682 -0.887351
v -27.864900 -38.000000 86.981500
vn 2.583595 -0.076575 -1.760749
v -27.935900 -46.926250 87.158350
vn 2.584107 -0.037420 -1.723671
v -27.864950 -41.846450 87.096250
vn 2.606524 -0.057867 -1.785225
v -27.877900 -39.521450 87.015400
vn 5.146214 -0.055939 -3.601716
v -28.544073 -41.816961 86.077477
vn 2.534771 -0.084789 -1.854616
v -29.414650 -50.000000 85.163150
vn 2.458912 -0.088106 -1.954286
v -30.902450 -50.000000 83.231100
vn 2.406326 -0.078204 -1.992413
v -33.212100 -45.618100 80.242900
vn 1.288503 -0.027064 -0.907808
v -27.984000 -50.000000 87.187600
vn 1.207045 -0.034568 -1.016868
v -33.286600 -50.000000 80.372000
vn 1.167312 0.000000 -1.051087
v -33.136900 -38.000000 80.112800
vn 2.394553 -0.088685 -2.029057
v -33.116100 -38.000000 80.135900
vn 5.119316 -0.201205 -3.634490
v -29.066304 -38.942836 85.243747
vn 5.138213 -0.156913 -3.612603
v -28.876239 -48.817081 85.885929
vn 4.930546 -0.074494 -3.891830
v -30.307542 -43.565351 83.734771
vn 4.970050 -0.154736 -3.838402
v -30.277077 -39.651649 83.645303
vn 2.412468 -0.073545 -2.006285
v -33.158000 -39.998400 80.149150
vn 4.823078 -0.148664 -4.024174
v -32.382269 -40.349210 81.094938
vn 4.810705 -0.199178 -4.035497
v -32.070909 -48.588420 81.731685
vn 4.849125 -0.160960 -3.990030
v -31.627048 -47.249117 82.199594
vn 2.589455 -0.044704 -1.755700
v -27.879100 -43.307800 87.100200
vn 2.394458 -0.099818 -2.042708
v -33.248650 -47.086900 80.306250
vn 2.402457 -0.111847 -2.021598
v -32.293400 -50.000000 81.550950
vn 2.478627 -0.070698 -1.927224
v -30.212900 -38.000000 83.674100
vn 2.389436 -0.085253 -2.039969
v -33.276850 -49.165350 80.355200
vn 4.889604 -0.102529 -3.944178
v -31.089750 -45.371635 82.816876
vn 4.875608 -0.121225 -3.961032
v -31.290934 -42.885829 82.510405
vn 4.823251 -0.138473 -4.024295
v -32.275334 -42.383297 81.303815
vn 5.144035 -0.163218 -3.603650
v -28.794167 -47.132195 85.909573
vn 4.824462 -0.124704 -4.022476
v -32.408575 -45.648612 81.214550
vn 5.016280 -0.138467 -3.778700
v -29.716769 -45.590758 84.562362
vn 5.023714 -0.180831 -3.764547
v -29.759614 -47.976766 84.586671
vn 2.569357 -0.066266 -1.793792
v -27.964100 -48.770200 87.182000
vn 4.857553 -0.120723 -3.983111
v -31.484898 -39.109156 82.130508
vn 4.992321 -0.098909 -3.813083
v -29.976196 -41.833958 84.148348
vn 5.088129 -0.082885 -3.680093
v -29.069453 -43.513696 85.354636
vn 4.876243 -0.160179 -3.957833
v -31.331068 -40.914642 82.373900
vn 5.159278 -0.153055 -3.581688
v -28.526703 -45.154832 86.199924
vn 4.842228 -0.091378 -4.002798
v -31.994877 -44.077660 81.686769
vn 4.923813 -0.190827 -3.898234
v -30.719405 -48.789555 83.414768
vn 4.926214 -0.146179 -3.897045
v -30.583944 -47.126304 83.505177
# 49 vertices, 0 vertices normals

f 21//21 9//9 12//12
f 1//1 13//13 43//43
f 29//29 46//46 44//44
f 6//6 2//2 42//42
f 7//7 19//19 20//20
f 6//6 7//7 20//20
f 1//1 24//24 21//21
f 23//23 47//47 35//35
f 25//25 7//7 6//6
f 12//12 11//11 13//13
f 8//8 9//9 21//21
f 27//27 28//28 48//48
f 16//16 3//3 38//38
f 11//11 29//29 13//13
f 29//29 5//5 46//46
f 30//30 16//16 38//38
f 15//15 31//31 27//27
f 18//18 33//33 31//31
f 27//27 31//31 33//33
f 42//42 32//32 24//24
f 32//32 8//8 21//21
f 1//1 12//12 13//13
f 33//33 30//30 27//27
f 4//4 25//25 26//26
f 26//26 36//36 4//4
f 1//1 43//43 24//24
f 21//21 24//24 32//32
f 1//1 21//21 12//12
f 35//35 47//47 36//36
f 34//34 39//39 49//49
f 10//10 41//41 37//37
f 40//40 39//39 37//37
f 39//39 46//46 37//37
f 5//5 10//10 46//46
f 36//36 26//26 45//45
f 45//45 26//26 42//42
f 28//28 38//38 34//34
f 39//39 34//34 23//23
f 6//6 26//26 25//25
f 30//30 28//28 27//27
f 40//40 37//37 22//22
f 40//40 48//48 49//49
f 17//17 14//14 22//22
f 41//41 22//22 37//37
f 43//43 23//23 35//35
f 46//46 39//39 44//44
f 44//44 39//39 23//23
f 36//36 3//3 4//4
f 42//42 26//26 6//6
f 32//32 42//42 2//2
f 43//43 13//13 44//44
f 17//17 22//22 41//41
f 23//23 43//43 44//44
f 24//24 43//43 45//45
f 45//45 35//35 36//36
f 43//43 35//35 45//45
f 44//44 13//13 29//29
f 24//24 45//45 42//42
f 34//34 47//47 23//23
f 46//46 10//10 37//37
f 47//47 3//3 36//36
f 38//38 47//47 34//34
f 38//38 28//28 30//30
f 3//3 47//47 38//38
f 48//48 15//15 27//27
f 40//40 14//14 48//48
f 15//15 48//48 14//14
f 40//40 22//22 14//14
f 34//34 49//49 28//28
f 49//49 39//39 40//40
f 49//49 48//48 28//28
# 71 faces, 0 coords texture

# End of File
