####
#
# OBJ File Generated by Meshlab
#
####
# Object 127.obj
#
# Vertices: 67
# Faces: 104
#
####
vn -1.971299 0.003278 -2.426637
v 33.020800 44.678700 30.718000
vn -3.224861 0.020238 -5.389484
v 23.471787 48.336991 37.542599
vn -1.507859 0.019893 -2.753729
v 22.363400 50.000000 38.191100
vn -3.156283 -0.053471 -5.432359
v 22.731531 44.790381 37.968134
vn -0.739212 0.018364 -1.366599
v 21.411900 38.000000 38.718000
vn -2.000428 -0.040430 -2.422170
v 32.313200 50.000000 31.249700
vn -2.004348 -0.030914 -2.407935
v 32.970635 48.755975 30.718012
vn -1.511129 0.004682 -2.780039
v 21.459550 40.465250 38.718000
vn -3.593240 -0.034910 -5.152825
v 27.905636 47.382945 34.628946
vn -1.538911 -0.030164 -2.747825
v 21.443800 42.903700 38.718000
vn -1.546449 -0.020846 -2.744197
v 21.404700 45.409500 38.718000
vn -3.884724 0.014233 -4.938069
v 30.552925 40.124285 32.689189
vn -3.247481 -0.075715 -5.377411
v 23.788424 41.972831 37.389199
vn -1.744502 -0.025243 -2.612656
v 25.859850 50.000000 35.983100
vn -0.708300 -0.000378 -1.400603
v 21.321500 50.000000 38.718000
vn -1.634067 -0.021623 -2.680964
v 24.299000 38.000000 37.129600
vn -1.666203 -0.014889 -2.662716
v 23.864700 50.000000 37.296500
vn -1.028269 -0.025417 -1.211992
v 32.939900 50.000000 30.718000
vn -0.969363 -0.007351 -1.221789
v 33.038600 38.000000 30.718000
vn -1.788670 -0.029196 -2.582507
v 27.722850 50.000000 34.724300
vn -3.488146 -0.091830 -5.224773
v 26.527608 43.827415 35.598951
vn -1.892429 0.018510 -2.507343
v 29.042003 38.000000 33.850779
vn -3.524681 -0.034907 -5.200960
v 26.395190 39.937735 35.738848
vn -3.437065 -0.013739 -5.259132
v 25.075477 48.198998 36.520749
vn -3.776940 -0.007642 -5.020786
v 29.201411 41.155143 33.733521
vn -3.917830 0.009381 -4.911825
v 31.588218 43.578545 31.871608
vn -3.623596 -0.059809 -5.131522
v 28.061124 44.991044 34.536522
vn -3.798938 -0.035215 -5.003808
v 29.812010 44.036187 33.259529
vn -3.202075 -0.039362 -5.404461
v 23.716566 39.826388 37.457078
vn -1.993322 -0.020186 -2.424769
v 33.003300 46.371900 30.718000
vn -3.033804 0.033198 -5.501479
v 22.434437 39.462361 38.184546
vn -3.470118 -0.037514 -5.237721
v 26.264897 46.240238 35.735334
vn -3.133427 -0.077894 -5.445178
v 22.769365 43.005803 37.971693
vn -3.947177 -0.050956 -4.887624
v 31.769961 48.283674 31.718340
vn -3.822691 -0.035941 -4.985836
v 30.476415 48.091238 32.736877
vn -3.912083 -0.012006 -4.915748
v 31.591574 46.140938 31.877682
vn -1.512634 -0.033519 -2.751094
v 21.359300 47.198100 38.717700
vn -3.865107 -0.002958 -4.953219
v 30.333873 42.115135 32.865904
vn -3.936518 -0.000576 -4.897135
v 31.762260 41.137747 31.722966
vn -3.503939 -0.040139 -5.215259
v 26.539199 48.351716 35.540123
vn -3.288391 -0.085787 -5.352114
v 23.962187 43.923020 37.254065
vn -1.461396 0.008732 -2.759173
v 21.323050 48.761750 38.717550
vn -3.389181 -0.063933 -5.289129
v 25.122086 40.916302 36.576654
vn -3.397131 -0.104820 -5.284282
v 25.175491 42.793706 36.504261
vn -3.335978 -0.011889 -5.323736
v 24.252746 46.200789 37.043167
vn -3.083141 -0.037068 -5.473731
v 22.485752 41.281636 38.156260
vn -3.122432 -0.016450 -5.451291
v 22.628860 46.822223 38.022648
vn -3.011684 0.015481 -5.513874
v 22.227176 48.303426 38.229707
vn -1.746291 -0.016441 -2.611050
v 25.900050 38.000000 36.086650
vn -3.401006 -0.052398 -5.282351
v 25.080465 39.305327 36.614255
vn -1.534802 0.010188 -2.741097
v 23.481800 38.000000 37.591800
vn -1.987212 0.004729 -2.448299
v 32.999190 42.311822 30.718000
vn -1.941306 0.016390 -2.469968
v 30.762769 38.000002 32.507426
vn -1.941808 0.002262 -2.469609
v 32.007100 38.000000 31.529100
vn -3.661158 -0.048573 -5.104278
v 28.237734 42.692930 34.444740
vn -1.970835 -0.014996 -2.454684
v 33.015000 39.662100 30.718000
vn -1.922753 -0.028208 -2.484153
v 30.665600 50.000000 32.576100
vn -1.852976 -0.028510 -2.536766
v 29.191900 50.000000 33.679200
vn -3.709808 -0.040937 -5.070141
v 29.186158 48.364442 33.702484
vn -3.413101 -0.084029 -5.274587
v 25.230309 44.619605 36.425437
vn -1.809574 -0.000554 -2.567668
v 27.322200 38.000000 35.109100
vn -3.641501 -0.006576 -5.119288
v 27.589210 38.978125 34.920712
vn -3.514979 -0.067141 -5.206671
v 26.521009 41.803181 35.641719
vn -3.644328 -0.021535 -5.117715
v 27.817818 40.653202 34.748192
vn -3.785302 -0.015211 -5.014226
v 30.044794 45.821771 33.074748
vn -3.909850 -0.003060 -4.918424
v 31.923034 39.137451 31.596242
vn -3.787889 0.010298 -5.011695
v 29.167319 39.429190 33.766265
# 67 vertices, 0 vertices normals

f 10//10 11//11 4//4
f 42//42 3//3 48//48
f 29//29 13//13 43//43
f 33//33 46//46 10//10
f 51//51 31//31 29//29
f 24//24 14//14 40//40
f 18//18 7//7 6//6
f 19//19 54//54 66//66
f 9//9 20//20 59//59
f 38//38 25//25 28//28
f 19//19 66//66 56//56
f 58//58 35//35 59//59
f 2//2 45//45 47//47
f 63//63 21//21 55//55
f 44//44 41//41 60//60
f 23//23 63//63 64//64
f 31//31 46//46 29//29
f 48//48 2//2 47//47
f 55//55 27//27 28//28
f 1//1 26//26 36//36
f 5//5 8//8 31//31
f 30//30 1//1 36//36
f 40//40 9//9 32//32
f 52//52 39//39 26//26
f 32//32 60//60 45//45
f 11//11 37//37 47//47
f 37//37 42//42 48//48
f 25//25 38//38 12//12
f 12//12 38//38 39//39
f 9//9 40//40 20//20
f 42//42 15//15 3//3
f 26//26 1//1 52//52
f 33//33 41//41 13//13
f 43//43 13//13 44//44
f 47//47 45//45 4//4
f 4//4 45//45 41//41
f 32//32 9//9 27//27
f 32//32 27//27 21//21
f 33//33 13//13 46//46
f 10//10 46//46 8//8
f 49//49 16//16 50//50
f 43//43 50//50 29//29
f 50//50 16//16 29//29
f 16//16 51//51 29//29
f 51//51 5//5 31//31
f 2//2 3//3 17//17
f 17//17 24//24 2//2
f 24//24 17//17 14//14
f 52//52 56//56 39//39
f 66//66 39//39 56//56
f 60//60 32//32 21//21
f 35//35 65//65 59//59
f 65//65 9//9 59//59
f 14//14 20//20 40//40
f 12//12 39//39 66//66
f 53//53 22//22 67//67
f 49//49 50//50 23//23
f 26//26 38//38 28//28
f 28//28 25//25 55//55
f 55//55 21//21 27//27
f 34//34 57//57 6//6
f 20//20 58//58 59//59
f 58//58 57//57 35//35
f 22//22 61//61 62//62
f 61//61 49//49 62//62
f 63//63 43//43 44//44
f 63//63 44//44 21//21
f 21//21 44//44 60//60
f 44//44 13//13 41//41
f 25//25 64//64 55//55
f 45//45 24//24 32//32
f 24//24 40//40 32//32
f 43//43 23//23 50//50
f 23//23 43//43 63//63
f 64//64 63//63 55//55
f 31//31 8//8 46//46
f 29//29 46//46 13//13
f 39//39 38//38 26//26
f 9//9 65//65 27//27
f 27//27 65//65 28//28
f 35//35 36//36 65//65
f 64//64 25//25 67//67
f 2//2 24//24 45//45
f 48//48 3//3 2//2
f 45//45 60//60 41//41
f 35//35 57//57 34//34
f 67//67 12//12 53//53
f 54//54 53//53 66//66
f 37//37 48//48 47//47
f 66//66 53//53 12//12
f 12//12 67//67 25//25
f 47//47 4//4 11//11
f 67//67 22//22 62//62
f 64//64 62//62 23//23
f 64//64 67//67 62//62
f 62//62 49//49 23//23
f 4//4 33//33 10//10
f 41//41 33//33 4//4
f 35//35 34//34 36//36
f 34//34 6//6 7//7
f 34//34 7//7 30//30
f 28//28 65//65 26//26
f 36//36 34//34 30//30
f 65//65 36//36 26//26
# 104 faces, 0 coords texture

# End of File
