####
#
# OBJ File Generated by Meshlab
#
####
# Object 1270.obj
#
# Vertices: 52
# Faces: 77
#
####
vn -1.314854 0.048662 -0.907644
v 68.049200 50.000000 38.955100
vn -2.636437 0.023627 -1.853830
v 68.031300 49.561100 38.957500
vn -2.652744 0.023242 -1.652982
v 73.488450 42.712950 30.718000
vn -2.595795 -0.014276 -1.718623
v 68.246200 37.978900 38.696400
vn -2.659373 0.073010 -1.657456
v 73.440050 40.531600 30.718500
vn -5.202811 0.072894 -3.520210
v 68.751891 39.801938 37.992252
vn -5.240210 0.021910 -3.466603
v 70.309555 42.431681 35.669815
vn -1.325398 0.047471 -0.806057
v 73.342000 37.762200 30.721200
vn -5.267611 0.076555 -3.423472
v 71.213023 41.769265 34.292575
vn -2.680898 -0.019201 -1.635226
v 73.450950 48.275300 30.718000
vn -1.521101 0.003472 -1.031198
v 68.074800 38.000000 38.949300
vn -2.595937 0.002543 -1.768832
v 69.946050 50.000000 36.242750
vn -5.306088 -0.007566 -3.364546
v 71.676921 47.815849 33.602727
vn -1.348548 -0.011000 -0.815783
v 73.433100 50.000000 30.718000
vn -5.253958 0.021342 -3.445729
v 71.152150 43.945426 34.404123
vn -5.343678 -0.023475 -3.304736
v 72.777470 45.049037 31.855760
vn -2.679925 -0.012797 -1.640864
v 73.473293 44.859150 30.718011
vn -2.585405 0.026901 -1.756194
v 67.991700 38.748750 39.074400
vn -2.672215 0.084576 -1.647322
v 73.382300 38.865300 30.719900
vn -2.641823 0.065282 -1.720094
v 70.122300 37.931700 35.834250
vn -2.584007 0.053670 -1.710280
v 68.929700 37.928100 37.653600
vn -2.541795 -0.017973 -1.792587
v 67.914050 47.575000 39.142900
vn -5.355362 -0.022820 -3.285816
v 72.548729 48.881042 32.195019
vn -2.412035 0.005092 -1.674148
v 67.769550 40.945650 39.412250
vn -5.181582 -0.006499 -3.553632
v 68.634497 41.914594 38.165247
vn -5.298243 0.033767 -3.376259
v 72.072898 43.259664 32.986789
vn -5.263150 0.010806 -3.431449
v 71.063621 46.242657 34.558200
vn -5.210980 -0.006804 -3.510531
v 69.460081 43.136052 36.940446
vn -2.671034 0.068666 -1.705876
v 71.304000 37.910450 34.003350
vn -5.331824 0.043523 -3.323108
v 72.952833 42.858196 31.579612
vn -5.262101 0.095237 -3.432027
v 70.400892 40.682783 35.503159
vn -5.346881 -0.027130 -3.299747
v 72.639365 47.071769 32.053904
vn -2.676345 -0.020014 -1.642758
v 73.462300 46.837900 30.718000
vn -5.181360 -0.020124 -3.553925
v 68.625857 44.053870 38.169838
vn -5.305763 -0.005897 -3.365175
v 71.908599 45.513795 33.242582
vn -2.578254 -0.006624 -1.784764
v 67.799250 43.156300 39.369550
vn -2.542316 -0.021612 -1.760073
v 67.825500 45.115400 39.317700
vn -5.155171 -0.026034 -3.591834
v 68.738076 46.157187 37.984037
vn -5.196580 0.006076 -3.530003
v 69.888484 46.496649 36.342440
vn -2.645789 -0.002651 -1.693416
v 71.415150 50.000000 34.017307
vn -5.233602 0.040503 -3.475115
v 69.558120 41.103244 36.808612
vn -2.667205 0.068517 -1.660553
v 72.469831 37.827435 32.159148
vn -5.225579 0.031016 -3.488606
v 70.253955 44.611633 35.762005
vn -2.682055 -0.013164 -1.635839
v 72.590700 50.000000 32.117200
vn -5.187549 0.013931 -3.544925
v 69.404486 45.015179 37.024100
vn -2.566987 -0.008345 -1.811016
v 68.722450 50.000000 37.979800
vn -5.230932 -0.008992 -3.480289
v 70.482890 48.317116 35.438004
vn -5.283568 0.131240 -3.397619
v 71.135504 39.722999 34.339999
vn -5.319592 0.144758 -3.340493
v 72.309620 39.326748 32.471042
vn -5.311053 0.122554 -3.354550
v 72.220898 41.164691 32.698088
vn -5.258337 0.121687 -3.437038
v 69.806122 39.440444 36.373962
vn -5.142934 -0.025823 -3.609142
v 68.886785 48.442666 37.765909
# 52 vertices, 0 vertices normals

f 2//2 1//1 46//46
f 18//18 24//24 6//6
f 4//4 18//18 21//21
f 49//49 19//19 42//42
f 11//11 18//18 4//4
f 51//51 41//41 31//31
f 25//25 28//28 41//41
f 3//3 5//5 30//30
f 42//42 19//19 8//8
f 20//20 21//21 51//51
f 21//21 6//6 51//51
f 21//21 18//18 6//6
f 22//22 2//2 52//52
f 10//10 23//23 14//14
f 24//24 36//36 25//25
f 25//25 34//34 28//28
f 48//48 29//29 20//20
f 15//15 9//9 7//7
f 7//7 9//9 31//31
f 31//31 48//48 20//20
f 10//10 33//33 32//32
f 33//33 17//17 16//16
f 32//32 23//23 10//10
f 28//28 34//34 45//45
f 36//36 37//37 34//34
f 35//35 32//32 16//16
f 37//37 22//22 38//38
f 6//6 24//24 25//25
f 17//17 30//30 16//16
f 30//30 17//17 3//3
f 40//40 44//44 23//23
f 51//51 6//6 41//41
f 31//31 41//41 7//7
f 47//47 12//12 40//40
f 7//7 28//28 43//43
f 15//15 7//7 43//43
f 25//25 36//36 34//34
f 6//6 25//25 41//41
f 41//41 28//28 7//7
f 27//27 43//43 39//39
f 50//50 48//48 9//9
f 40//40 23//23 13//13
f 23//23 32//32 13//13
f 13//13 32//32 35//35
f 23//23 44//44 14//14
f 45//45 34//34 38//38
f 38//38 34//34 37//37
f 28//28 45//45 43//43
f 39//39 45//45 38//38
f 16//16 26//26 35//35
f 47//47 13//13 27//27
f 39//39 47//47 27//27
f 52//52 38//38 22//22
f 47//47 40//40 13//13
f 49//49 5//5 19//19
f 52//52 46//46 12//12
f 29//29 49//49 42//42
f 30//30 5//5 50//50
f 39//39 38//38 52//52
f 26//26 50//50 9//9
f 26//26 9//9 15//15
f 31//31 9//9 48//48
f 48//48 50//50 49//49
f 49//49 29//29 48//48
f 49//49 50//50 5//5
f 16//16 30//30 26//26
f 50//50 26//26 30//30
f 16//16 32//32 33//33
f 51//51 31//31 20//20
f 35//35 26//26 15//15
f 39//39 43//43 45//45
f 27//27 13//13 35//35
f 27//27 35//35 15//15
f 27//27 15//15 43//43
f 12//12 47//47 52//52
f 39//39 52//52 47//47
f 52//52 2//2 46//46
# 77 faces, 0 coords texture

# End of File
