####
#
# OBJ File Generated by Meshlab
#
####
# Object 1289.obj
#
# Vertices: 48
# Faces: 71
#
####
vn 5.310796 -0.059974 -3.356491
v -70.313249 -42.912210 33.940390
vn 2.682032 -0.001654 -1.635557
v -70.898300 -50.000000 32.992600
vn 1.356610 0.015033 -0.802837
v -72.244400 -50.000000 30.718000
vn 2.685391 0.023282 -1.628658
v -72.276650 -47.191050 30.718000
vn 5.350796 0.004640 -3.293459
v -71.489938 -43.926693 32.043111
vn 5.231645 0.007162 -3.479579
v -68.715734 -46.582738 36.425762
vn 2.634082 -0.052474 -1.662000
v -70.607650 -37.961550 33.345750
vn 2.673580 0.016366 -1.641961
v -72.300500 -44.925450 30.718450
vn 2.588627 -0.065195 -1.732234
v -68.706800 -37.964900 36.240350
vn 2.600325 -0.007116 -1.724019
v -66.998100 -45.384750 39.000850
vn 2.666438 -0.046925 -1.737687
v -69.706200 -37.998900 34.765200
vn 1.325547 0.003028 -0.887451
v -67.087800 -50.000000 38.843800
vn 1.335793 -0.004280 -0.853266
v -67.075000 -38.000000 38.765200
vn 2.510248 -0.032066 -1.654815
v -66.953400 -43.356900 39.049000
vn 1.344786 -0.034028 -0.821383
v -72.230100 -37.965200 30.718400
vn 5.257662 0.024158 -3.439505
v -69.109661 -48.432221 35.828707
vn 5.317967 -0.108367 -3.344118
v -70.822076 -39.229504 33.048884
vn 5.232444 -0.068471 -3.477763
v -67.591757 -43.362208 38.080756
vn 5.343011 -0.035468 -3.305840
v -71.332824 -42.247303 32.290821
vn 5.319797 -0.023308 -3.341967
v -70.159481 -44.343019 34.209608
vn 2.675057 -0.044197 -1.770657
v -67.055700 -40.991600 38.824100
vn 5.223054 -0.096168 -3.491238
v -68.189513 -41.829978 37.147533
vn 2.670464 -0.023652 -1.731357
v -67.080800 -39.172200 38.762000
vn 5.220294 -0.031230 -3.496367
v -68.461172 -44.588929 36.804583
vn 5.238011 -0.073435 -3.468103
v -69.004062 -43.363448 35.982135
vn 5.359219 0.034678 -3.279618
v -71.566456 -45.932330 31.900334
vn 2.649311 0.011366 -1.688294
v -69.844600 -50.000000 34.675000
vn 5.333744 0.010409 -3.320705
v -70.272633 -48.472745 34.001170
vn 5.221595 0.011307 -3.494742
v -67.965253 -48.082426 37.539730
vn 5.297908 0.022497 -3.376990
v -69.695335 -47.105931 34.932510
vn 5.226181 -0.113430 -3.485656
v -68.835521 -39.702972 36.126165
vn 2.616257 0.011481 -1.739143
v -68.443900 -50.000000 36.821050
vn 2.697820 0.024740 -1.610281
v -72.258000 -48.772700 30.718000
vn 2.637162 0.006913 -1.760428
v -67.061521 -47.703560 38.893656
vn 5.224827 -0.008855 -3.489868
v -67.752314 -45.598432 37.865225
vn 2.625596 -0.027762 -1.701554
v -67.724300 -37.976800 37.748600
vn 2.684342 -0.061809 -1.653690
v -71.776900 -37.971500 31.460650
vn 2.672121 -0.027147 -1.641622
v -72.293900 -41.355550 30.718250
vn 2.673246 -0.054743 -1.641417
v -72.258000 -39.081100 30.718950
vn 5.239841 -0.090081 -3.465847
v -67.835001 -39.761991 37.614132
vn 5.255972 -0.093593 -3.441423
v -69.414706 -41.389521 35.292194
vn 5.282746 0.002220 -3.400056
v -69.630750 -45.391676 35.046642
vn 2.672308 -0.005663 -1.643141
v -72.304800 -43.139000 30.718300
vn 5.352928 0.021299 -3.289953
v -70.621475 -46.638204 33.440073
vn 5.273979 -0.087570 -3.413967
v -69.852157 -39.437360 34.568219
vn 5.302649 -0.079221 -3.368915
v -70.494311 -40.855162 33.614998
vn 5.377945 0.012704 -3.248912
v -71.496312 -48.510028 31.991544
vn 5.343933 -0.081667 -3.303392
v -71.480557 -40.279834 32.020751
# 48 vertices, 0 vertices normals

f 13//13 23//23 36//36
f 48//48 37//37 17//17
f 35//35 34//34 29//29
f 44//44 30//30 28//28
f 35//35 6//6 24//24
f 30//30 16//16 28//28
f 4//4 8//8 26//26
f 21//21 14//14 18//18
f 40//40 31//31 9//9
f 40//40 23//23 21//21
f 27//27 2//2 28//28
f 28//28 2//2 47//47
f 32//32 27//27 16//16
f 8//8 5//5 26//26
f 26//26 5//5 20//20
f 33//33 4//4 47//47
f 34//34 12//12 29//29
f 12//12 32//32 29//29
f 40//40 36//36 23//23
f 36//36 40//40 9//9
f 37//37 7//7 17//17
f 38//38 39//39 48//48
f 39//39 15//15 37//37
f 37//37 48//48 39//39
f 40//40 21//21 22//22
f 7//7 11//11 45//45
f 14//14 10//10 18//18
f 29//29 32//32 16//16
f 46//46 45//45 41//41
f 41//41 31//31 22//22
f 6//6 29//29 16//16
f 6//6 16//16 30//30
f 31//31 40//40 22//22
f 8//8 43//43 5//5
f 43//43 38//38 19//19
f 20//20 44//44 26//26
f 44//44 20//20 42//42
f 6//6 35//35 29//29
f 35//35 10//10 34//34
f 44//44 42//42 30//30
f 41//41 1//1 46//46
f 5//5 19//19 1//1
f 24//24 6//6 42//42
f 28//28 16//16 27//27
f 30//30 42//42 6//6
f 41//41 22//22 25//25
f 41//41 25//25 1//1
f 46//46 17//17 45//45
f 48//48 17//17 46//46
f 31//31 11//11 9//9
f 26//26 47//47 4//4
f 41//41 45//45 31//31
f 45//45 11//11 31//31
f 25//25 24//24 42//42
f 1//1 19//19 46//46
f 5//5 1//1 20//20
f 46//46 19//19 48//48
f 45//45 17//17 7//7
f 19//19 5//5 43//43
f 18//18 22//22 21//21
f 26//26 44//44 47//47
f 47//47 44//44 28//28
f 18//18 10//10 35//35
f 48//48 19//19 38//38
f 33//33 47//47 2//2
f 24//24 22//22 18//18
f 25//25 22//22 24//24
f 18//18 35//35 24//24
f 33//33 2//2 3//3
f 20//20 1//1 25//25
f 42//42 20//20 25//25
# 71 faces, 0 coords texture

# End of File
