####
#
# OBJ File Generated by Meshlab
#
####
# Object 1291.obj
#
# Vertices: 50
# Faces: 75
#
####
vn -2.400998 0.009388 -1.675261
v 68.240100 40.363600 39.693100
vn -5.275538 0.096325 -3.410672
v 72.157462 41.462128 33.901693
vn -1.307594 0.042466 -0.806102
v 74.037400 37.635300 30.722900
vn -2.593347 0.076812 -1.692176
v 70.777200 37.785050 35.869550
vn -2.659961 0.080971 -1.659076
v 74.127900 40.112000 30.718300
vn -1.308012 -0.004818 -0.939439
v 68.496200 50.000000 39.282400
vn -1.472550 0.020376 -1.006939
v 68.474100 38.000000 39.342000
vn -2.673697 -0.009331 -1.649363
v 72.864400 50.000000 32.797100
vn -1.351841 -0.016297 -0.811911
v 74.113100 50.000000 30.718000
vn -2.718344 0.078542 -1.704656
v 72.893944 37.755523 32.594495
vn -2.568075 -0.005639 -1.809259
v 69.648300 50.000000 37.686250
vn -2.569748 -0.012397 -1.829267
v 68.409000 46.308100 39.426800
vn -5.259136 0.140330 -3.435086
v 71.026635 39.186616 35.549132
vn -5.315241 -0.009232 -3.350381
v 72.395877 48.538111 33.549177
vn -5.150183 0.011250 -3.598702
v 69.537002 46.094473 37.843690
vn -2.651437 0.042426 -1.653498
v 74.171000 41.614150 30.718050
vn -5.313847 0.103484 -3.350633
v 73.156634 41.502939 32.332809
vn -2.650034 0.087857 -1.757699
v 69.907500 37.905800 37.198700
vn -5.224314 0.128507 -3.487491
v 69.895779 38.870144 37.264573
vn -2.568884 -0.009726 -1.830398
v 68.459200 48.011900 39.352900
vn -2.597658 0.083637 -1.684437
v 71.748300 37.728400 34.371300
vn -2.565306 0.008217 -1.800241
v 68.264700 41.404800 39.662900
vn -5.166449 0.003726 -3.575138
v 69.170426 41.725218 38.376412
vn -5.206181 0.007571 -3.517453
v 70.224312 42.351586 36.826750
vn -5.229622 0.028788 -3.482349
v 71.309905 43.123756 35.215054
vn -5.247852 0.085901 -3.453799
v 71.232946 40.886615 35.296060
vn -2.676973 -0.021716 -1.636055
v 74.156200 46.453550 30.718050
vn -5.345606 -0.032781 -3.301565
v 73.408644 45.897725 31.946388
vn -5.166541 -0.008333 -3.575563
v 69.302273 43.768207 38.164965
vn -2.563847 -0.011817 -1.789420
v 68.306550 43.017650 39.603700
vn -2.679965 -0.008052 -1.637012
v 74.166650 43.969750 30.718100
vn -5.247331 0.011964 -3.455859
v 71.639527 45.237455 34.721136
vn -2.614446 -0.004933 -1.741689
v 70.968550 50.000000 35.755150
vn -5.217395 0.028042 -3.500190
v 70.741350 46.495995 36.093999
vn -2.688763 -0.027014 -1.624738
v 74.127650 48.793050 30.718000
vn -5.283464 -0.000740 -3.399954
v 72.072100 46.731036 34.067658
vn -5.120500 -0.008794 -3.641221
v 69.246606 48.164330 38.247000
vn -2.645174 -0.001990 -1.694725
v 71.966750 50.000000 34.225400
vn -5.281859 0.021252 -3.401354
v 72.389790 43.573341 33.586435
vn -5.328491 0.150840 -3.325952
v 73.266429 39.270444 32.059648
vn -2.564629 -0.008099 -1.805270
v 68.370900 45.126650 39.494300
vn -5.307999 -0.023986 -3.361560
v 72.719458 45.151341 33.057714
vn -5.217543 0.065473 -3.498853
v 70.086759 40.433993 37.027334
vn -5.169219 0.046818 -3.571286
v 69.024456 40.069119 38.567304
vn -5.340143 0.005220 -3.310368
v 73.387409 43.741464 31.994630
vn -5.199729 0.022752 -3.527017
v 70.434875 44.540103 36.519551
vn -5.286359 0.141815 -3.392440
v 72.188737 39.407710 33.777528
vn -5.185190 0.000486 -3.547503
v 70.303789 48.054378 36.748573
vn -5.261376 0.000547 -3.434346
v 71.515906 48.430610 34.921376
vn -5.359751 -0.044583 -3.278595
v 73.507772 47.797936 31.755155
# 50 vertices, 0 vertices normals

f 6//6 11//11 37//37
f 47//47 10//10 21//21
f 33//33 38//38 49//49
f 34//34 32//32 46//46
f 26//26 24//24 25//25
f 29//29 24//24 23//23
f 36//36 49//49 14//14
f 42//42 45//45 39//39
f 16//16 5//5 17//17
f 7//7 1//1 44//44
f 4//4 18//18 19//19
f 18//18 7//7 19//19
f 43//43 13//13 19//19
f 19//19 13//13 4//4
f 3//3 10//10 40//40
f 13//13 21//21 4//4
f 21//21 13//13 47//47
f 44//44 22//22 23//23
f 22//22 30//30 23//23
f 2//2 39//39 17//17
f 11//11 48//48 37//37
f 2//2 25//25 39//39
f 27//27 31//31 28//28
f 37//37 12//12 20//20
f 11//11 33//33 48//48
f 31//31 16//16 45//45
f 25//25 32//32 39//39
f 12//12 37//37 15//15
f 15//15 34//34 46//46
f 36//36 28//28 42//42
f 14//14 38//38 8//8
f 3//3 40//40 5//5
f 34//34 49//49 36//36
f 15//15 29//29 41//41
f 43//43 19//19 44//44
f 19//19 7//7 44//44
f 26//26 13//13 43//43
f 26//26 43//43 24//24
f 2//2 26//26 25//25
f 42//42 28//28 45//45
f 28//28 31//31 45//45
f 29//29 15//15 46//46
f 40//40 47//47 2//2
f 40//40 10//10 47//47
f 15//15 41//41 12//12
f 17//17 40//40 2//2
f 39//39 32//32 42//42
f 32//32 36//36 42//42
f 43//43 23//23 24//24
f 30//30 29//29 23//23
f 43//43 44//44 23//23
f 22//22 44//44 1//1
f 39//39 45//45 17//17
f 24//24 29//29 46//46
f 24//24 46//46 25//25
f 29//29 30//30 41//41
f 17//17 5//5 40//40
f 8//8 50//50 14//14
f 45//45 16//16 17//17
f 47//47 13//13 26//26
f 46//46 32//32 25//25
f 14//14 50//50 28//28
f 33//33 49//49 48//48
f 15//15 37//37 48//48
f 6//6 37//37 20//20
f 26//26 2//2 47//47
f 15//15 48//48 34//34
f 48//48 49//49 34//34
f 35//35 50//50 8//8
f 49//49 38//38 14//14
f 35//35 8//8 9//9
f 36//36 32//32 34//34
f 28//28 50//50 27//27
f 50//50 35//35 27//27
f 14//14 28//28 36//36
# 75 faces, 0 coords texture

# End of File
