####
#
# OBJ File Generated by Meshlab
#
####
# Object 1307S.obj
#
# Vertices: 39
# Faces: 58
#
####
vn 4.911749 0.068158 -3.917682
v -54.514878 -6.845722 57.582461
vn 4.911531 0.070673 -3.917889
v -56.170214 -11.152284 55.436525
vn 4.912554 0.083004 -3.916413
v -56.034432 -4.601792 55.717530
vn 2.163194 0.030083 -1.740893
v -52.940950 -4.075705 59.587950
vn 1.589573 0.022442 -1.257722
v -55.507900 -1.458480 56.447700
vn 1.319410 0.018152 -1.045051
v -56.648300 -0.648425 55.020500
vn 2.160632 0.029644 -1.700386
v -58.759950 -5.745215 52.262350
vn 3.379585 0.056671 -2.691910
v -55.497000 -1.789330 56.455500
vn 2.650605 0.040501 -2.101559
v -57.423834 -2.829193 54.005322
vn 2.180908 0.030670 -1.753587
v -54.025800 -2.644985 58.259450
vn 2.119090 0.033203 -1.680290
v -56.924600 -12.399500 54.463400
vn 2.136262 0.036007 -1.670593
v -58.883840 -8.126543 52.055984
vn 2.180294 0.028550 -1.757069
v -52.525600 -5.226610 60.081700
vn 2.218623 0.038834 -1.738628
v -58.488400 -9.908720 52.520400
vn 4.902175 0.081023 -3.929435
v -54.965116 -11.560774 56.932386
vn 2.104076 0.035038 -1.687162
v -53.722650 -12.037000 58.471850
vn 2.170853 0.040160 -1.740876
v -54.799250 -12.714650 57.112600
vn 4.917782 0.080193 -3.909882
v -56.171197 -2.733561 55.586641
vn 4.911412 0.058709 -3.918284
v -56.326267 -9.518230 55.264725
vn 4.908160 0.064468 -3.922261
v -55.232461 -9.922480 56.628563
vn 4.918015 0.075884 -3.909695
v -57.027508 -4.420669 54.473070
vn 4.896738 0.065972 -3.936483
v -53.459927 -6.958425 58.896677
vn 4.929406 0.073282 -3.895332
v -57.311259 -10.130984 54.016611
vn 2.081439 0.028229 -1.674307
v -52.230784 -7.798510 60.409650
vn 4.913413 0.064108 -3.915648
v -55.602582 -7.906695 56.191663
vn 4.902635 0.080282 -3.928873
v -55.141270 -3.654469 56.853811
vn 4.907474 0.070974 -3.922979
v -54.323555 -8.479393 57.793271
vn 4.913270 0.074803 -3.915681
v -55.289556 -5.715782 56.628445
vn 4.900419 0.064201 -3.931929
v -53.974721 -4.955090 58.288214
vn 4.901842 0.076271 -3.929953
v -54.006051 -10.203821 58.155254
vn 2.096832 0.030933 -1.682254
v -52.683875 -10.238264 59.803371
vn 2.244573 0.029911 -1.775911
v -58.286300 -4.281730 52.887500
vn 2.272569 0.035051 -1.784120
v -57.851679 -11.233477 53.306576
vn 4.898284 0.072245 -3.934464
v -53.282181 -8.715989 59.084611
vn 2.263134 0.039010 -1.809970
v -56.008000 -12.741650 55.605850
vn 4.934982 0.078464 -3.888115
v -58.048875 -8.054237 53.125248
vn 4.919816 0.066050 -3.907540
v -57.656046 -6.145764 53.656081
vn 4.909075 0.073347 -3.920941
v -56.482781 -6.214940 55.119229
vn 4.910617 0.065687 -3.919163
v -56.971444 -8.074362 54.479835
# 39 vertices, 0 vertices normals

f 5//5 18//18 6//6
f 18//18 5//5 8//8
f 20//20 25//25 27//27
f 22//22 29//29 13//13
f 37//37 32//32 21//21
f 36//36 23//23 14//14
f 20//20 19//19 25//25
f 16//16 17//17 15//15
f 17//17 35//35 15//15
f 2//2 23//23 19//19
f 15//15 20//20 30//30
f 15//15 30//30 16//16
f 29//29 10//10 4//4
f 27//27 22//22 34//34
f 19//19 20//20 2//2
f 2//2 15//15 35//35
f 6//6 18//18 9//9
f 36//36 39//39 23//23
f 34//34 24//24 31//31
f 2//2 11//11 23//23
f 33//33 23//23 11//11
f 22//22 13//13 24//24
f 24//24 34//34 22//22
f 1//1 25//25 28//28
f 8//8 26//26 18//18
f 10//10 29//29 26//26
f 8//8 10//10 26//26
f 30//30 20//20 27//27
f 27//27 25//25 1//1
f 3//3 28//28 38//38
f 36//36 7//7 37//37
f 39//39 37//37 38//38
f 3//3 38//38 21//21
f 31//31 30//30 34//34
f 30//30 31//31 16//16
f 37//37 7//7 32//32
f 21//21 32//32 9//9
f 12//12 36//36 14//14
f 33//33 14//14 23//23
f 28//28 29//29 1//1
f 29//29 22//22 1//1
f 1//1 22//22 27//27
f 27//27 34//34 30//30
f 35//35 11//11 2//2
f 3//3 21//21 18//18
f 21//21 38//38 37//37
f 38//38 28//28 25//25
f 38//38 25//25 39//39
f 39//39 25//25 19//19
f 20//20 15//15 2//2
f 29//29 4//4 13//13
f 21//21 9//9 18//18
f 29//29 28//28 26//26
f 7//7 36//36 12//12
f 39//39 36//36 37//37
f 26//26 3//3 18//18
f 26//26 28//28 3//3
f 39//39 19//19 23//23
# 58 faces, 0 coords texture

# End of File
