####
#
# OBJ File Generated by Meshlab
#
####
# Object 1308S.obj
#
# Vertices: 46
# Faces: 71
#
####
vn -4.945280 -0.057479 -3.875460
v 56.261921 24.249669 57.288941
vn -4.993923 -0.133203 -3.810449
v 59.959991 27.131356 52.457189
vn -4.959969 -0.073031 -3.856274
v 58.321562 24.032084 54.660069
vn -4.947264 -0.052247 -3.873012
v 57.310401 23.108877 55.965028
vn -4.981255 -0.074928 -3.828822
v 60.733560 22.428136 51.567072
vn -4.946105 -0.033628 -3.874702
v 58.250245 19.552314 54.802147
vn -4.964605 -0.101677 -3.849754
v 56.740505 28.202066 56.594414
vn -2.139977 -0.067254 -1.631961
v 59.536840 29.304663 52.920874
vn -2.213906 -0.030718 -1.740497
v 54.859954 26.255478 59.041506
vn -2.371145 -0.010419 -1.875020
v 55.910200 18.599550 57.786900
vn -2.169744 -0.009115 -1.720519
v 55.109650 19.955700 58.786800
vn -2.246941 -0.074097 -1.700943
v 60.627400 28.041400 51.535900
vn -2.206182 -0.037967 -1.721888
v 55.611800 28.131400 58.047800
vn -2.058682 -0.010797 -1.620504
v 56.598700 17.676900 56.921400
vn -2.117733 -0.013652 -1.652927
v 59.668200 17.780500 53.006800
vn -2.156337 -0.043127 -1.668174
v 56.478950 29.202300 56.906650
vn -2.298720 -0.011809 -1.802336
v 57.616800 17.387800 55.626000
vn -2.238242 -0.019236 -1.733607
v 60.584500 18.893300 51.816800
vn -2.196616 -0.036273 -1.680841
v 61.755293 22.850004 50.226992
vn -4.974768 -0.096129 -3.836776
v 59.201620 25.601229 53.481995
vn -4.948265 -0.040361 -3.871878
v 57.326453 21.165193 55.966380
vn -2.235769 -0.055146 -1.705061
v 61.647200 25.147050 50.307450
vn -4.943807 -0.025847 -3.877676
v 57.130298 19.089340 56.236649
vn -4.983231 -0.109551 -3.825359
v 60.187182 25.418243 52.209041
vn -4.978793 -0.123723 -3.830599
v 58.787995 27.621610 53.968451
vn -4.950080 -0.078681 -3.868927
v 56.181882 26.504825 57.353068
vn -2.235540 -0.021038 -1.761344
v 54.486135 23.886303 59.552400
vn -4.939452 -0.042791 -3.883051
v 56.245082 22.211028 57.337388
vn -2.191483 -0.012322 -1.729472
v 54.527700 22.257200 59.513500
vn -4.936920 -0.031394 -3.886266
v 56.454435 20.490535 57.090983
vn -4.939744 -0.060704 -3.882461
v 55.398496 25.078943 58.376789
vn -4.970518 -0.077101 -3.842655
v 59.625591 23.308986 52.989405
vn -4.953101 -0.047621 -3.865557
v 58.415698 21.945495 54.569252
vn -2.308080 -0.063021 -1.756044
v 61.232300 26.719500 50.794000
vn -4.952576 -0.038100 -3.866344
v 59.372017 19.366056 53.373174
vn -2.365212 -0.014037 -1.854860
v 58.609250 17.463150 54.360500
vn -4.968333 -0.058925 -3.845766
v 60.095252 20.991307 52.424420
vn -4.925595 -0.025845 -3.900797
v 55.580511 21.021025 58.187354
vn -2.172199 -0.056516 -1.673201
v 57.944144 29.759091 54.988496
vn -4.987257 -0.102330 -3.820183
v 60.870490 24.338923 51.352051
vn -2.249219 -0.029591 -1.730269
v 61.327487 20.613313 50.830138
vn -4.954623 -0.076899 -3.863146
v 57.362104 25.329062 55.864310
vn -4.968432 -0.093216 -3.845036
v 58.294708 26.016859 54.647290
vn -4.963589 -0.104461 -3.850961
v 57.523414 27.295906 55.611281
vn -4.936080 -0.040836 -3.887379
v 55.417846 23.076443 58.378422
vn -4.954901 -0.049529 -3.863260
v 59.127704 21.045442 53.665872
# 46 vertices, 0 vertices normals

f 20//20 25//25 2//2
f 23//23 14//14 10//10
f 4//4 1//1 42//42
f 25//25 44//44 39//39
f 40//40 19//19 5//5
f 44//44 7//7 39//39
f 4//4 21//21 28//28
f 8//8 2//2 25//25
f 10//10 38//38 30//30
f 38//38 10//10 11//11
f 22//22 19//19 40//40
f 23//23 21//21 6//6
f 12//12 34//34 2//2
f 26//26 42//42 1//1
f 45//45 29//29 27//27
f 1//1 31//31 26//26
f 6//6 35//35 36//36
f 6//6 21//21 33//33
f 37//37 5//5 41//41
f 40//40 34//34 22//22
f 34//34 40//40 24//24
f 33//33 32//32 46//46
f 35//35 15//15 36//36
f 10//10 30//30 23//23
f 38//38 45//45 28//28
f 28//28 30//30 38//38
f 23//23 17//17 14//14
f 6//6 36//36 17//17
f 23//23 30//30 21//21
f 35//35 37//37 18//18
f 15//15 35//35 18//18
f 33//33 46//46 6//6
f 29//29 38//38 11//11
f 31//31 1//1 45//45
f 39//39 8//8 25//25
f 37//37 41//41 18//18
f 5//5 19//19 41//41
f 7//7 13//13 16//16
f 9//9 13//13 26//26
f 7//7 26//26 13//13
f 28//28 21//21 30//30
f 32//32 33//33 3//3
f 40//40 32//32 24//24
f 5//5 32//32 40//40
f 32//32 5//5 37//37
f 7//7 16//16 39//39
f 44//44 43//43 42//42
f 3//3 42//42 43//43
f 43//43 25//25 20//20
f 25//25 43//43 44//44
f 2//2 8//8 12//12
f 3//3 20//20 32//32
f 32//32 20//20 24//24
f 43//43 20//20 3//3
f 24//24 2//2 34//34
f 24//24 20//20 2//2
f 23//23 6//6 17//17
f 7//7 44//44 26//26
f 31//31 27//27 9//9
f 31//31 45//45 27//27
f 3//3 4//4 42//42
f 9//9 26//26 31//31
f 44//44 42//42 26//26
f 1//1 4//4 28//28
f 1//1 28//28 45//45
f 33//33 21//21 4//4
f 33//33 4//4 3//3
f 29//29 45//45 38//38
f 46//46 32//32 37//37
f 46//46 35//35 6//6
f 46//46 37//37 35//35
# 71 faces, 0 coords texture

# End of File
