####
#
# OBJ File Generated by Meshlab
#
####
# Object 1327.obj
#
# Vertices: 54
# Faces: 82
#
####
vn 5.284992 -0.047137 -3.397156
v -71.932276 -43.005625 34.656848
vn 2.708762 -0.031896 -1.903919
v -68.682400 -45.217900 39.502700
vn 5.213437 -0.074529 -3.505148
v -70.731590 -43.062006 36.489267
vn 5.316447 0.017210 -3.347994
v -72.260673 -44.934917 34.149122
vn 2.431253 0.004531 -1.759467
v -68.571350 -47.068850 39.640850
vn 2.638959 0.013140 -1.704423
v -70.885900 -50.000000 36.263000
vn 5.233101 -0.081449 -3.475310
v -70.819257 -39.524242 36.291272
vn 2.690828 -0.093161 -1.638383
v -74.265600 -37.881100 30.723300
vn 1.378281 -0.009923 -0.978517
v -68.706400 -50.000000 39.468100
vn 2.672907 0.016208 -1.639830
v -74.382600 -43.461900 30.718000
vn 5.156892 -0.099022 -3.588174
v -69.569799 -43.348930 38.175436
vn 1.340831 0.002955 -0.821254
v -74.335800 -50.000000 30.718000
vn 1.307189 -0.034168 -0.796129
v -74.258000 -37.595000 30.723500
vn 1.408908 -0.012383 -0.976004
v -68.623200 -38.000000 39.488600
vn 5.283240 0.027545 -3.400492
v -71.180235 -48.446028 35.815376
vn 5.340197 -0.155923 -3.305949
v -73.447930 -39.285460 32.163617
vn 5.255265 -0.071402 -3.442605
v -71.436681 -41.104865 35.380903
vn 5.336185 -0.067175 -3.316266
v -73.540889 -41.284147 32.068418
vn 5.350171 0.005636 -3.294265
v -73.780523 -43.213186 31.701839
vn 5.203779 -0.069651 -3.519582
v -69.863387 -38.992191 37.703540
vn 5.352256 0.032261 -3.290976
v -72.881284 -48.241077 33.102753
vn 2.539903 -0.004528 -1.756170
v -68.548650 -41.096300 39.610300
vn 5.168579 -0.040277 -3.571887
v -69.185540 -41.803024 38.685479
vn 2.661163 -0.070292 -1.635612
v -74.351800 -39.828400 30.719550
vn 2.667655 -0.019604 -1.644203
v -74.382600 -42.045300 30.718050
vn 2.797049 -0.105927 -1.724377
v -73.168118 -37.709044 32.517907
vn 5.318423 -0.147825 -3.341867
v -72.609771 -38.831100 33.480949
vn 2.627606 -0.086356 -1.669120
v -72.128100 -37.529300 34.180300
vn 5.283846 -0.123504 -3.396939
v -71.751210 -39.165967 34.849123
vn 5.344778 0.042877 -3.302953
v -72.604986 -46.413467 33.571536
vn 5.351865 0.038255 -3.291411
v -73.220546 -44.682230 32.599760
vn 2.586202 -0.011099 -1.782542
v -69.662568 -50.000000 38.121300
vn 5.209460 0.005090 -3.511460
v -70.048629 -48.491842 37.549405
vn 2.680541 0.026171 -1.640400
v -74.362650 -45.322850 30.718100
vn 2.529731 -0.045330 -1.758439
v -68.581550 -43.445700 39.593300
vn 2.676940 0.008840 -1.644243
v -73.412150 -50.000000 32.228250
vn 5.359555 0.019339 -3.279183
v -73.687764 -48.427690 31.781682
vn 2.681028 0.015771 -1.643104
v -74.343050 -47.596900 30.718050
vn 5.359319 0.045553 -3.279299
v -73.474833 -46.625187 32.146991
vn 2.557944 -0.008693 -1.797154
v -68.586100 -39.255100 39.547200
vn 2.705029 -0.051151 -1.829644
v -69.542400 -37.856450 38.146350
vn 2.394817 -0.069215 -1.572605
v -70.776600 -37.371200 36.264100
vn 5.260902 -0.014813 -3.434870
v -71.204034 -44.849454 35.793264
vn 5.194808 -0.051408 -3.532809
v -70.067767 -45.073805 37.510125
vn 5.326972 -0.029321 -3.331371
v -72.823312 -42.987819 33.247458
vn 2.663211 0.022125 -1.666307
v -72.145707 -50.000000 34.270101
vn 5.309768 -0.082404 -3.358104
v -72.626309 -41.000322 33.520433
vn 5.244433 0.001703 -3.460186
v -70.592030 -46.751994 36.723929
vn 2.500533 -0.005629 -1.776085
v -68.620400 -48.842900 39.577500
vn 5.166463 -0.008060 -3.575389
v -69.194563 -40.040124 38.684953
vn 5.187125 -0.043755 -3.545244
v -70.127894 -41.175112 37.319011
vn 5.153861 0.000793 -3.592218
v -69.456543 -46.965138 38.417946
vn 5.323129 0.039950 -3.337438
v -72.017550 -48.081469 34.504892
vn 5.293153 0.020701 -3.384915
v -71.592450 -46.705507 35.188416
# 54 vertices, 0 vertices normals

f 20//20 41//41 14//14
f 42//42 20//20 7//7
f 21//21 53//53 46//46
f 48//48 33//33 15//15
f 27//27 29//29 47//47
f 44//44 48//48 43//43
f 52//52 5//5 49//49
f 25//25 18//18 19//19
f 22//22 35//35 23//23
f 24//24 8//8 16//16
f 25//25 24//24 18//18
f 10//10 25//25 19//19
f 26//26 28//28 27//27
f 28//28 42//42 29//29
f 29//29 27//27 28//28
f 2//2 5//5 52//52
f 4//4 54//54 30//30
f 54//54 53//53 30//30
f 32//32 6//6 33//33
f 34//34 10//10 19//19
f 35//35 2//2 11//11
f 16//16 26//26 27//27
f 36//36 12//12 37//37
f 39//39 21//21 37//37
f 38//38 34//34 39//39
f 8//8 13//13 26//26
f 26//26 16//16 8//8
f 14//14 40//40 50//50
f 50//50 22//22 23//23
f 50//50 20//20 14//14
f 42//42 41//41 20//20
f 7//7 29//29 42//42
f 43//43 54//54 4//4
f 24//24 16//16 18//18
f 43//43 3//3 44//44
f 11//11 44//44 3//3
f 46//46 53//53 15//15
f 46//46 15//15 6//6
f 18//18 45//45 19//19
f 21//21 36//36 37//37
f 36//36 21//21 46//46
f 31//31 4//4 30//30
f 27//27 47//47 16//16
f 16//16 47//47 18//18
f 53//53 54//54 15//15
f 48//48 44//44 52//52
f 3//3 1//1 17//17
f 47//47 29//29 17//17
f 7//7 17//17 29//29
f 48//48 52//52 33//33
f 3//3 43//43 1//1
f 49//49 32//32 33//33
f 49//49 33//33 52//52
f 43//43 48//48 54//54
f 39//39 34//34 31//31
f 45//45 31//31 19//19
f 50//50 40//40 22//22
f 50//50 23//23 51//51
f 37//37 12//12 38//38
f 21//21 39//39 30//30
f 21//21 30//30 53//53
f 51//51 23//23 11//11
f 23//23 35//35 11//11
f 3//3 51//51 11//11
f 20//20 51//51 7//7
f 3//3 17//17 51//51
f 17//17 7//7 51//51
f 20//20 50//50 51//51
f 9//9 32//32 49//49
f 2//2 44//44 11//11
f 38//38 39//39 37//37
f 31//31 34//34 19//19
f 2//2 52//52 44//44
f 15//15 33//33 6//6
f 54//54 48//48 15//15
f 45//45 4//4 31//31
f 30//30 39//39 31//31
f 1//1 45//45 47//47
f 17//17 1//1 47//47
f 43//43 4//4 1//1
f 1//1 4//4 45//45
f 47//47 45//45 18//18
# 82 faces, 0 coords texture

# End of File
