####
#
# OBJ File Generated by Meshlab
#
####
# Object 1347.obj
#
# Vertices: 110
# Faces: 179
#
####
vn 3.394176 -0.067754 -5.281347
v -22.130627 49.025351 97.206094
vn 1.368089 -0.039742 -2.844225
v -16.933100 48.198700 100.000000
vn 1.995910 -0.005318 -2.425004
v -25.282800 38.000000 95.064300
vn 4.506997 -0.139312 -4.370626
v -27.927742 45.399515 92.544305
vn 2.258030 -0.026925 -2.176504
v -35.407000 48.978900 84.044800
vn 3.268241 -0.069883 -5.362787
v -21.645518 43.932199 97.586372
vn 3.792178 -0.066455 -5.004988
v -24.327671 48.030561 95.683127
vn 4.687127 -0.097540 -4.182208
v -31.922191 47.080714 87.786044
vn 4.764586 -0.019325 -4.094715
v -31.764266 41.484940 88.067252
vn 2.440479 -0.006679 -1.977195
v -29.324050 50.000000 90.834850
vn 1.465435 -0.008105 -2.777688
v -19.419700 50.000000 98.775900
vn 4.480191 0.061292 -4.386935
v -27.667921 39.877787 92.956032
vn 1.295105 0.132826 -2.856348
v -16.990100 50.000000 99.943000
vn 1.270583 -0.024750 -2.879318
v -16.855300 49.911400 100.000000
vn 0.576229 -0.029917 -1.409235
v -16.850700 50.000000 100.000000
vn 3.145484 -0.046947 -5.436641
v -20.747841 48.246650 98.047067
vn 3.319508 -0.109753 -5.330182
v -21.791117 45.984939 97.458457
vn 2.280060 -0.015832 -2.162844
v -35.438400 40.235200 84.098600
vn 2.364451 -0.027948 -2.064077
v -30.917500 50.000000 88.829150
vn 1.597468 -0.019725 -2.703355
v -21.293400 38.000000 97.858500
vn 3.660892 -0.085694 -5.101456
v -23.605162 40.998924 96.334829
vn 3.310021 -0.066580 -5.338353
v -21.917274 41.776085 97.437500
vn 2.996756 -0.055376 -5.521559
v -19.850184 39.926993 98.648478
vn 0.669678 -0.002324 -1.424268
v -17.148200 38.000000 100.000000
vn 1.336416 -0.008981 -2.862545
v -17.146200 38.576400 100.000000
vn 1.369245 -0.018391 -2.830623
v -17.032010 44.232125 99.998095
vn 2.312709 -0.024091 -2.126188
v -32.346600 50.000000 87.297150
vn 2.270296 -0.022264 -2.168753
v -35.427740 42.612799 84.081768
vn 2.262847 -0.007933 -2.182271
v -35.428600 45.082500 84.081750
vn 4.545715 -0.035340 -4.337408
v -34.154074 46.317054 85.398417
vn 2.778159 -0.067913 -5.633789
v -18.100462 46.153353 99.476597
vn 1.120624 0.007387 -1.102536
v -35.409500 50.000000 84.049100
vn 4.829715 -0.157746 -4.014156
v -29.345159 45.843574 90.927196
vn 2.275629 -0.030543 -2.164992
v -34.449537 50.000000 85.024813
vn 2.282904 0.010803 -2.158114
v -34.244900 37.999900 85.352200
vn 1.137718 0.000124 -1.084414
v -35.441300 38.000000 84.104100
vn 4.315811 -0.100119 -4.563234
v -26.965539 46.850423 93.443759
vn 4.635445 -0.061673 -4.240703
v -33.151004 42.202127 86.502751
vn 4.569855 -0.040189 -4.310956
v -34.011145 43.825603 85.546620
vn 3.579892 -0.074538 -5.158178
v -23.231517 42.946747 96.575287
vn 2.982455 -0.072277 -5.528048
v -19.791959 46.000651 98.607314
vn 4.858117 -0.120995 -3.982517
v -30.113263 44.509570 90.031700
vn 4.811183 -0.107046 -4.035330
v -28.945381 48.783537 91.315174
vn 2.269989 -0.033695 -2.173613
v -35.419050 47.333950 84.065100
vn 4.557286 -0.070029 -4.324828
v -34.267102 48.411493 85.249291
vn 1.439588 -0.027325 -2.789761
v -19.117458 38.000181 99.074072
vn 4.645486 -0.055939 -4.228594
v -32.819732 45.540895 86.810830
vn 2.333304 0.010419 -2.103390
v -32.893014 37.999662 86.801656
vn 4.823045 -0.025104 -4.023986
v -29.100623 40.997341 91.321694
vn 2.288073 -0.015065 -2.150154
v -27.875300 50.000000 92.510050
vn 3.850730 -0.097754 -4.959259
v -24.642282 44.297977 95.514652
vn 3.534900 -0.114796 -5.191190
v -22.946078 44.601845 96.731138
vn 2.140014 0.030909 -2.298286
v -26.745250 37.999950 93.793850
vn 1.302100 -0.027882 -2.854243
v -17.108400 40.228500 100.000000
vn 2.736513 -0.059632 -5.653680
v -18.208621 39.964363 99.500661
vn 1.362939 -0.014444 -2.830337
v -18.070350 50.000000 99.442900
vn 4.747319 -0.021459 -4.109254
v -28.745541 39.276247 91.755186
vn 4.455686 -0.049293 -4.425771
v -27.532803 48.621882 92.866949
vn 1.614967 -0.055092 -2.694066
v -21.160535 50.000000 97.785408
vn 4.740204 -0.032530 -4.123566
v -31.852794 39.654140 87.979651
vn 2.392691 -0.020369 -2.034543
v -31.337650 37.998300 88.591650
vn 4.730154 -0.132982 -4.129434
v -31.021880 48.349954 88.751332
vn 4.713354 -0.108930 -4.143104
v -28.757321 44.058928 91.707107
vn 4.604529 -0.069017 -4.266075
v -28.221445 42.272547 92.327545
vn 3.026526 -0.077536 -5.504235
v -20.234786 43.048622 98.403162
vn 1.350040 -0.043916 -2.837605
v -17.073500 42.107300 99.998500
vn 2.841535 -0.089958 -5.600905
v -18.928872 41.708590 99.122490
vn 3.937971 -0.069252 -4.895116
v -25.043338 40.308035 95.226806
vn 1.811576 -0.049176 -2.565708
v -23.390650 50.000000 96.337250
vn 3.480691 -0.054811 -5.229628
v -22.621044 47.791743 96.876355
vn 2.126852 -0.004519 -2.310194
v -26.596000 50.000000 93.769200
vn 4.833023 -0.043648 -4.014513
v -30.935975 43.205240 89.064136
vn 4.788136 -0.122050 -4.066198
v -31.463950 45.020101 88.380527
vn 4.005654 -0.097836 -4.835449
v -25.340556 46.424675 94.906490
vn 4.643190 -0.026981 -4.232392
v -32.990331 40.509658 86.695392
vn 4.894819 -0.065400 -3.933552
v -30.040211 48.984221 89.903655
vn 2.304121 -0.023928 -2.135227
v -33.168500 50.000000 86.397500
vn 4.193661 -0.137983 -4.674189
v -26.382556 44.923887 94.034884
vn 4.677556 -0.122900 -4.180873
v -28.532317 47.228467 91.865876
vn 1.805457 -0.019223 -2.565601
v -23.496715 38.000146 96.470835
vn 3.765537 -0.084654 -5.023171
v -23.963449 39.317075 96.109871
vn 3.881063 -0.044407 -4.939828
v -24.809780 42.260216 95.396811
vn 4.173998 -0.071064 -4.688425
v -26.526411 41.699041 93.999463
vn 4.373755 -0.124322 -4.504696
v -27.318303 43.572898 93.213676
vn 4.859385 0.007544 -3.982807
v -30.314974 41.427438 89.808344
vn 4.661839 -0.002823 -4.211618
v -32.859326 38.926723 86.843618
vn 3.183516 -0.055130 -5.415588
v -21.233407 40.243427 97.868543
vn 2.436364 -0.022535 -1.982791
v -29.885900 37.998550 90.350250
vn 1.970085 -0.025167 -2.445645
v -25.057150 50.000000 95.089550
vn 2.871980 -0.054734 -5.587490
v -19.057276 48.004822 98.958340
vn 4.572221 -0.009454 -4.309591
v -34.230577 39.496245 85.374507
vn 3.647639 -0.106370 -5.112436
v -23.598080 46.182814 96.241547
vn 4.825302 -0.183684 -4.019109
v -30.637918 46.329237 89.302613
vn 3.408309 -0.070507 -5.275680
v -22.591880 39.692271 97.042230
vn 4.078022 -0.109148 -4.774684
v -25.986212 43.307611 94.434854
vn 4.572038 -0.056660 -4.309441
v -34.263869 41.489574 85.325116
vn 2.292380 -0.088479 -2.134259
v -28.470950 37.999500 92.103050
vn 1.342577 -0.034498 -2.846341
v -16.979500 46.593800 100.000000
vn 4.828930 -0.021551 -4.019227
v -30.781866 39.714930 89.237230
vn 3.644696 -0.046783 -5.116106
v -23.521021 49.067534 96.254433
vn 4.888029 -0.178023 -3.943441
v -29.850892 47.604683 90.208020
vn 4.123516 -0.005488 -4.737437
v -26.381742 39.568267 94.135179
vn 4.849394 -0.031501 -3.994959
v -29.581451 42.785394 90.705196
vn 4.888241 -0.005198 -3.947110
v -29.772126 39.842845 90.470793
vn 2.816524 -0.065863 -5.615744
v -18.590013 43.910276 99.241753
vn 4.141388 -0.045030 -4.722570
v -25.993936 48.371341 94.307038
vn 4.719794 -0.062178 -4.145430
v -32.385100 43.602003 87.327543
vn 4.600471 -0.040959 -4.278936
v -33.068911 47.804642 86.524641
vn 3.080257 -0.072467 -5.474321
v -20.421739 41.437670 98.324072
vn 3.037622 -0.081461 -5.497291
v -20.369870 44.708313 98.311876
# 110 vertices, 0 vertices normals

f 14//14 13//13 15//15
f 86//86 60//60 61//61
f 69//69 59//59 1//1
f 71//71 106//106 58//58
f 28//28 29//29 39//39
f 34//34 5//5 32//32
f 3//3 53//53 102//102
f 58//58 37//37 79//79
f 83//83 64//64 84//84
f 37//37 78//78 4//4
f 16//16 70//70 1//1
f 103//103 49//49 85//85
f 58//58 43//43 50//50
f 80//80 81//81 94//94
f 82//82 21//21 68//68
f 82//82 83//83 95//95
f 78//78 51//51 95//95
f 40//40 51//51 52//52
f 57//57 49//49 12//12
f 75//75 96//96 38//38
f 33//33 63//63 42//42
f 45//45 5//5 34//34
f 63//63 103//103 42//42
f 46//46 20//20 23//23
f 86//86 35//35 91//91
f 88//88 104//104 57//57
f 50//50 71//71 58//58
f 17//17 52//52 92//92
f 92//92 52//52 51//51
f 2//2 90//90 56//56
f 53//53 97//97 57//57
f 25//25 24//24 46//46
f 25//25 46//46 55//55
f 23//23 55//55 46//46
f 54//54 25//25 55//55
f 13//13 14//14 56//56
f 53//53 57//57 12//12
f 16//16 59//59 11//11
f 48//48 86//86 61//61
f 7//7 74//74 106//106
f 99//99 60//60 9//9
f 26//26 66//66 105//105
f 67//67 66//66 55//55
f 1//1 100//100 69//69
f 71//71 89//89 106//106
f 85//85 72//72 103//103
f 103//103 72//72 42//42
f 107//107 73//73 72//72
f 72//72 73//73 42//42
f 72//72 9//9 107//107
f 33//33 79//79 4//4
f 29//29 30//30 39//39
f 30//30 29//29 44//44
f 36//36 18//18 91//91
f 60//60 75//75 9//9
f 45//45 77//77 108//108
f 77//77 27//27 108//108
f 23//23 20//20 87//87
f 4//4 78//78 84//84
f 84//84 78//78 95//95
f 79//79 37//37 4//4
f 80//80 3//3 81//81
f 82//82 40//40 21//21
f 40//40 22//22 21//21
f 58//58 106//106 37//37
f 4//4 84//84 63//63
f 63//63 84//84 64//64
f 95//95 83//83 84//84
f 83//83 12//12 64//64
f 74//74 78//78 37//37
f 101//101 33//33 93//93
f 93//93 33//33 42//42
f 63//63 33//33 4//4
f 9//9 38//38 107//107
f 16//16 17//17 70//70
f 20//20 94//94 87//87
f 103//103 63//63 64//64
f 103//103 64//64 49//49
f 48//48 35//35 86//86
f 65//65 109//109 22//22
f 62//62 27//27 19//19
f 57//57 104//104 49//49
f 76//76 19//19 10//10
f 58//58 79//79 43//43
f 50//50 43//43 10//10
f 61//61 60//60 99//99
f 60//60 86//86 75//75
f 75//75 86//86 91//91
f 100//100 7//7 89//89
f 96//96 28//28 39//39
f 56//56 90//90 11//11
f 16//16 11//11 90//90
f 38//38 39//39 107//107
f 107//107 47//47 73//73
f 9//9 75//75 38//38
f 75//75 91//91 96//96
f 20//20 80//80 94//94
f 12//12 83//83 102//102
f 102//102 68//68 3//3
f 90//90 2//2 31//31
f 102//102 83//83 68//68
f 44//44 45//45 30//30
f 62//62 93//93 8//8
f 8//8 93//93 73//73
f 73//73 47//47 8//8
f 101//101 93//93 62//62
f 3//3 68//68 81//81
f 68//68 21//21 81//81
f 22//22 94//94 21//21
f 51//51 82//82 95//95
f 82//82 68//68 83//83
f 42//42 73//73 93//93
f 94//94 22//22 87//87
f 18//18 96//96 91//91
f 96//96 18//18 28//28
f 77//77 45//45 34//34
f 30//30 47//47 39//39
f 40//40 82//82 51//51
f 96//96 39//39 38//38
f 94//94 81//81 21//21
f 88//88 57//57 97//97
f 8//8 47//47 108//108
f 101//101 43//43 79//79
f 101//101 79//79 33//33
f 67//67 55//55 23//23
f 66//66 54//54 55//55
f 31//31 2//2 98//98
f 31//31 98//98 26//26
f 17//17 6//6 52//52
f 52//52 6//6 40//40
f 92//92 51//51 74//74
f 92//92 74//74 7//7
f 74//74 51//51 78//78
f 41//41 105//105 110//110
f 7//7 70//70 92//92
f 17//17 92//92 70//70
f 67//67 23//23 109//109
f 105//105 66//66 67//67
f 70//70 7//7 100//100
f 16//16 1//1 59//59
f 61//61 99//99 88//88
f 64//64 12//12 49//49
f 88//88 99//99 104//104
f 70//70 100//100 1//1
f 85//85 49//49 104//104
f 85//85 104//104 99//99
f 89//89 69//69 100//100
f 7//7 106//106 89//89
f 85//85 9//9 72//72
f 85//85 99//99 9//9
f 76//76 101//101 62//62
f 19//19 76//76 62//62
f 76//76 10//10 43//43
f 101//101 76//76 43//43
f 45//45 44//44 5//5
f 102//102 53//53 12//12
f 31//31 26//26 105//105
f 106//106 74//74 37//37
f 2//2 56//56 14//14
f 36//36 91//91 35//35
f 17//17 16//16 41//41
f 107//107 39//39 47//47
f 17//17 41//41 110//110
f 105//105 67//67 65//65
f 6//6 65//65 22//22
f 40//40 6//6 22//22
f 31//31 105//105 41//41
f 109//109 87//87 22//22
f 87//87 109//109 23//23
f 108//108 30//30 45//45
f 108//108 47//47 30//30
f 67//67 109//109 65//65
f 41//41 16//16 90//90
f 41//41 90//90 31//31
f 110//110 105//105 65//65
f 17//17 110//110 6//6
f 6//6 110//110 65//65
f 27//27 62//62 8//8
f 108//108 27//27 8//8
# 179 faces, 0 coords texture

# End of File
