####
#
# OBJ File Generated by Meshlab
#
####
# Object 1359S.obj
#
# Vertices: 49
# Faces: 75
#
####
vn -5.021762 -0.142629 -3.773584
v 62.220063 26.968892 53.468033
vn -4.985688 -0.055967 -3.823364
v 60.035563 21.448921 56.478960
vn -4.978918 -0.043028 -3.832320
v 58.758277 21.482105 58.143202
vn -4.998154 -0.063303 -3.806926
v 61.182527 21.646462 54.976635
vn -5.006135 -0.083787 -3.796014
v 61.642350 23.649467 54.334465
vn -4.974016 -0.040138 -3.838739
v 59.464104 19.782941 57.241400
vn -4.995243 -0.076741 -3.810473
v 60.527802 23.594986 55.801472
vn -4.969112 -0.021267 -3.845219
v 58.239773 19.643340 58.829836
vn -4.996597 -0.111368 -3.807805
v 58.869738 27.392142 57.882567
vn -5.019746 -0.143341 -3.776211
v 61.340262 28.246117 54.592441
vn -2.320026 -0.030133 -1.754171
v 63.265300 21.003500 52.240000
vn -2.117010 -0.005704 -1.642115
v 56.423100 20.578900 61.166000
vn -2.212228 -0.066264 -1.658688
v 62.631995 28.757216 52.846984
vn -2.385018 -0.016182 -1.842956
v 56.243950 22.248350 61.394200
vn -2.252374 -0.063748 -1.692593
v 63.295700 26.946575 52.038498
vn -2.311815 -0.023128 -1.752740
v 62.682050 19.438600 53.032700
vn -2.268581 -0.060357 -1.718726
v 59.180800 30.536500 57.363350
vn -2.290980 -0.056412 -1.738804
v 58.341300 29.903900 58.492700
vn -2.240240 -0.010807 -1.732193
v 59.562600 17.138750 57.135200
vn -2.195842 -0.009637 -1.681363
v 60.893050 17.404750 55.406850
vn -2.021608 -0.004988 -1.568518
v 58.057100 17.606200 59.070600
vn -2.285701 -0.018526 -1.735122
v 62.089700 18.481500 53.824500
vn -2.157610 -0.028803 -1.663537
v 56.166200 24.540900 61.463500
vn -5.008837 -0.068188 -3.792771
v 62.328924 21.982620 53.461383
vn -5.014874 -0.087705 -3.784379
v 62.681111 23.504165 52.964449
vn -2.332589 -0.036944 -1.757982
v 63.533350 22.373500 51.857300
vn -5.007686 -0.113659 -3.793091
v 61.137633 25.912701 54.945049
vn -2.264320 -0.048183 -1.702971
v 63.644450 24.428150 51.662100
vn -2.351611 -0.007469 -1.824576
v 57.044350 19.209650 60.372650
vn -4.994744 -0.095932 -3.810722
v 59.835739 25.610069 56.660590
vn -4.985689 -0.038363 -3.823366
v 60.551272 19.152824 55.844229
vn -4.984063 -0.092985 -3.824737
v 57.811738 26.802108 59.280547
vn -2.320265 -0.043269 -1.787967
v 56.791450 27.050150 60.598900
vn -2.221392 -0.065637 -1.669051
v 61.530600 30.182300 54.262200
vn -2.301560 -0.052274 -1.758784
v 57.589500 28.862000 59.515250
vn -5.004990 -0.128879 -3.796255
v 60.182833 27.733834 56.143128
vn -4.988499 -0.082487 -3.819218
v 58.608343 25.400536 58.270835
vn -2.158486 -0.062328 -1.628364
v 60.373200 30.791350 55.776550
vn -4.969109 -0.024536 -3.845211
v 59.414479 18.380447 57.319017
vn -5.003489 -0.132433 -3.798152
v 59.118142 29.049432 57.496885
vn -4.980231 -0.059907 -3.830396
v 58.095369 23.448395 58.977452
vn -4.986931 -0.069373 -3.821488
v 59.339311 23.460223 57.358298
vn -2.444607 -0.038698 -1.885168
v 56.431900 25.701300 61.096000
vn -4.979554 -0.076756 -3.830962
v 57.417354 25.314233 59.826975
vn -4.975395 -0.056138 -3.836729
v 56.963062 23.666586 60.445107
vn -4.970839 -0.030295 -3.842917
v 57.398174 21.416858 59.906026
vn -5.005451 -0.053073 -3.797498
v 62.019324 20.271028 53.895833
vn -5.011396 -0.142649 -3.787331
v 60.312167 29.565445 55.904376
vn -5.017564 -0.117489 -3.779966
v 62.382506 25.305190 53.312848
# 49 vertices, 0 vertices normals

f 24//24 26//26 11//11
f 24//24 5//5 25//25
f 46//46 12//12 14//14
f 5//5 7//7 27//27
f 13//13 15//15 1//1
f 10//10 27//27 36//36
f 1//1 15//15 49//49
f 8//8 3//3 6//6
f 37//37 30//30 42//42
f 45//45 23//23 43//43
f 44//44 37//37 41//41
f 41//41 45//45 44//44
f 24//24 25//25 26//26
f 31//31 4//4 47//47
f 5//5 27//27 49//49
f 3//3 42//42 2//2
f 25//25 5//5 49//49
f 25//25 28//28 26//26
f 25//25 49//49 28//28
f 29//29 12//12 46//46
f 27//27 7//7 30//30
f 13//13 1//1 10//10
f 33//33 35//35 32//32
f 35//35 9//9 32//32
f 10//10 48//48 34//34
f 34//34 13//13 10//10
f 35//35 18//18 40//40
f 10//10 1//1 27//27
f 37//37 32//32 9//9
f 9//9 30//30 37//37
f 45//45 14//14 23//23
f 17//17 48//48 40//40
f 38//38 34//34 48//48
f 30//30 9//9 36//36
f 18//18 17//17 40//40
f 20//20 39//39 31//31
f 39//39 20//20 19//19
f 2//2 7//7 4//4
f 7//7 5//5 4//4
f 21//21 8//8 39//39
f 21//21 29//29 8//8
f 31//31 47//47 22//22
f 31//31 22//22 20//20
f 22//22 47//47 16//16
f 33//33 32//32 44//44
f 3//3 2//2 6//6
f 39//39 19//19 21//21
f 24//24 47//47 4//4
f 9//9 35//35 40//40
f 48//48 10//10 36//36
f 48//48 36//36 40//40
f 5//5 24//24 4//4
f 39//39 8//8 6//6
f 42//42 7//7 2//2
f 42//42 30//30 7//7
f 37//37 42//42 41//41
f 41//41 42//42 3//3
f 43//43 33//33 44//44
f 44//44 32//32 37//37
f 43//43 44//44 45//45
f 40//40 36//36 9//9
f 46//46 14//14 45//45
f 46//46 3//3 8//8
f 3//3 46//46 41//41
f 2//2 4//4 31//31
f 2//2 31//31 6//6
f 47//47 11//11 16//16
f 47//47 24//24 11//11
f 36//36 27//27 30//30
f 46//46 8//8 29//29
f 49//49 15//15 28//28
f 45//45 41//41 46//46
f 48//48 17//17 38//38
f 49//49 27//27 1//1
f 31//31 39//39 6//6
# 75 faces, 0 coords texture

# End of File
