####
#
# OBJ File Generated by Meshlab
#
####
# Object 1369.obj
#
# Vertices: 93
# Faces: 147
#
####
vn 2.497873 -0.050291 -1.904849
v -35.918800 -50.000000 85.394500
vn 2.493508 -0.058686 -1.905976
v -36.070100 -49.874100 85.193300
vn 1.251173 -0.039130 -0.965353
v -36.071800 -50.000000 85.196200
vn 2.500366 -0.043926 -1.892522
v -36.052850 -48.048950 85.162650
vn 1.781989 -0.037704 -2.568382
v -22.503900 -47.216100 100.000000
vn 2.486859 -0.045270 -1.931818
v -36.048122 -46.011300 85.153228
vn 1.795740 -0.032065 -2.591421
v -22.471850 -42.913850 100.000000
vn 5.116799 -0.015104 -3.646109
v -32.132032 -43.423064 90.443481
vn 2.504494 -0.047797 -1.913913
v -36.008800 -38.395800 85.086600
vn 3.993124 -0.001613 -4.846208
v -25.490990 -41.493579 97.773793
vn 5.108083 -0.019844 -3.658041
v -33.666121 -41.453373 88.242624
vn 0.908857 -0.021950 -1.313493
v -22.582700 -50.000000 100.000000
vn 1.866013 -0.046481 -2.524707
v -23.921300 -50.000000 99.065100
vn 2.077207 -0.044372 -2.354219
v -26.312000 -50.000000 97.127700
vn 1.243605 -0.037619 -0.943026
v -36.003500 -38.000000 85.077800
vn 4.517904 0.022798 -4.365222
v -28.371245 -39.655434 95.074515
vn 4.893526 -0.015965 -3.937940
v -30.300032 -42.272768 92.904359
vn 1.973090 -0.006713 -2.443084
v -25.426400 -38.000000 97.809000
vn 5.102694 0.008505 -3.666096
v -31.845510 -45.378622 90.840028
vn 2.211971 -0.020512 -2.228317
v -27.913600 -50.000000 95.630300
vn 1.787253 -0.002805 -2.585060
v -22.490350 -45.194500 100.000000
vn 0.871451 -0.018675 -1.285389
v -22.372300 -38.000000 100.000000
vn 2.474654 0.008271 -1.934621
v -30.273700 -50.000000 92.960000
vn 2.487966 -0.040612 -1.907840
v -36.016350 -43.599700 85.097600
vn 5.079856 -0.081609 -3.695828
v -34.123955 -44.733009 87.642968
vn 4.420780 -0.032266 -4.462296
v -27.838041 -43.229724 95.641838
vn 5.072343 -0.038720 -3.707687
v -34.387496 -42.742084 87.263354
vn 5.119917 0.004611 -3.642011
v -33.400355 -39.747840 88.620843
vn 5.032277 -0.090286 -3.761122
v -34.926438 -48.048853 86.666392
vn 5.136009 -0.022866 -3.619252
v -32.649795 -41.446115 89.684948
vn 4.477228 -0.025138 -4.406035
v -28.100593 -41.636887 95.365015
vn 5.013121 -0.107773 -3.785595
v -35.102516 -46.289358 86.373893
vn 4.659327 -0.016758 -4.211908
v -29.058641 -42.886039 94.364214
vn 2.505129 -0.023538 -1.895517
v -35.427950 -38.000000 85.836800
vn 2.564410 0.006793 -1.814805
v -32.910450 -37.997750 89.320500
vn 5.112706 -0.002762 -3.652039
v -32.115018 -39.779486 90.438046
vn 2.490362 -0.007018 -1.913648
v -36.023850 -40.142600 85.095050
vn 5.053764 -0.043191 -3.732987
v -31.426513 -48.931476 91.418167
vn 2.511155 -0.044531 -1.886699
v -31.247800 -50.000000 91.681250
vn 3.643725 -0.095996 -5.116462
v -23.407118 -48.593823 99.406055
vn 5.046962 -0.009371 -3.741591
v -34.654669 -40.321022 86.877740
vn 1.987547 -0.041422 -2.431316
v -25.213600 -50.000000 98.053800
vn 3.913196 -0.091489 -4.912388
v -24.885226 -48.519109 98.296881
vn 3.742119 -0.024499 -5.040184
v -23.928662 -44.203154 99.011641
vn 4.011414 0.008795 -4.835564
v -25.425124 -43.498173 97.796337
vn 3.779410 -0.032766 -5.015622
v -24.260582 -42.541477 98.740740
vn 4.223921 0.000342 -4.649159
v -26.760743 -42.406770 96.657873
vn 5.076492 -0.036160 -3.701073
v -32.812696 -46.912288 89.477843
vn 3.751970 -0.039356 -5.037001
v -23.954299 -46.521163 98.980241
vn 5.107442 -0.025856 -3.659299
v -32.975276 -45.056572 89.258087
vn 3.980908 -0.023284 -4.860426
v -25.293165 -45.177704 97.915145
vn 5.009972 -0.015642 -3.789693
v -30.980839 -43.877892 92.032367
vn 5.013380 -0.091998 -3.785200
v -35.184501 -44.264459 86.201318
vn 5.068850 -0.028394 -3.710999
v -31.436651 -41.759670 91.410470
vn 3.969026 -0.018079 -4.867753
v -25.485365 -39.628958 97.761946
vn 4.273809 -0.000414 -4.601343
v -26.928257 -40.395862 96.513246
vn 4.718877 -0.011683 -4.144266
v -29.416869 -40.998628 93.955839
vn 2.531495 -0.041683 -1.859925
v -32.275300 -50.000000 90.285900
vn 5.067970 -0.079830 -3.713127
v -32.647577 -48.627387 89.746958
vn 2.525937 -0.041610 -1.867597
v -33.555700 -50.000000 88.543800
vn 5.042065 -0.076758 -3.748289
v -33.817185 -48.388208 88.155538
vn 4.800883 -0.027297 -4.050959
v -29.810128 -44.283991 93.501343
vn 5.055147 -0.086600 -3.730292
v -33.976415 -46.574652 87.909639
vn 2.534370 0.013272 -1.853281
v -31.483400 -37.995400 91.334950
vn 2.448084 -0.011541 -1.967425
v -30.145850 -37.996400 93.100150
vn 2.287256 0.026598 -2.148067
v -28.766100 -37.996700 94.699150
vn 2.135581 0.008284 -2.302598
v -26.959873 -37.999839 96.492259
vn 1.779598 -0.032333 -2.584076
v -22.425200 -40.791350 100.000000
vn 4.972275 -0.014602 -3.835157
v -30.684245 -45.887157 92.448379
vn 4.056548 -0.057518 -4.795778
v -25.813400 -46.952811 97.503268
vn 4.208248 -0.023753 -4.661390
v -26.785284 -44.805379 96.652389
vn 1.768665 -0.051924 -2.588731
v -22.544900 -48.836300 100.000000
vn 1.773904 -0.029431 -2.596793
v -22.396100 -39.110600 100.000000
vn 1.829214 -0.023543 -2.553298
v -23.870820 -38.000000 98.984053
vn 2.364135 0.000865 -2.066177
v -29.278950 -50.000000 94.181150
vn 4.939594 0.000694 -3.877785
v -30.329868 -48.408674 92.904597
vn 2.484312 0.006242 -1.914797
v -36.017300 -41.849500 85.088700
vn 5.009012 -0.013259 -3.792331
v -35.387345 -42.127288 85.905116
vn 2.547227 0.001848 -1.839951
v -34.127800 -37.999700 87.599900
vn 4.526166 -0.025803 -4.353985
v -28.377312 -44.758241 95.106188
vn 4.694075 -0.045247 -4.171077
v -29.261336 -46.431980 94.169224
vn 5.087493 -0.005372 -3.687125
v -31.663108 -47.334566 91.083747
vn 5.122148 -0.039405 -3.638629
v -33.312681 -43.191950 88.761763
vn 4.346134 -0.058595 -4.534989
v -27.515867 -48.591624 95.995053
vn 4.636984 -0.046176 -4.232530
v -28.969901 -48.473580 94.523744
vn 2.512914 -0.039379 -1.885173
v -34.802750 -50.000000 86.867050
vn 5.013649 -0.092787 -3.785881
v -35.566055 -49.203136 85.838931
vn 4.146139 -0.086353 -4.718990
v -26.296885 -48.479065 97.106262
vn 3.695863 -0.053943 -5.078676
v -23.970434 -41.034916 98.937169
vn 4.800054 0.040143 -4.046698
v -29.788128 -39.293944 93.540718
vn 3.687644 -0.037153 -5.084630
v -23.967311 -39.311773 98.924678
vn 4.990009 0.009929 -3.816645
v -30.688189 -39.583285 92.391604
vn 4.362956 -0.037188 -4.517059
v -27.591360 -46.860251 95.908691
# 93 vertices, 0 vertices normals

f 2//2 1//1 3//3
f 21//21 49//49 44//44
f 34//34 9//9 15//15
f 47//47 71//71 26//26
f 58//58 60//60 59//59
f 17//17 62//62 52//52
f 67//67 55//55 56//56
f 19//19 52//52 69//69
f 27//27 53//53 78//78
f 79//79 28//28 41//41
f 23//23 39//39 38//38
f 26//26 71//71 80//80
f 11//11 83//83 27//27
f 82//82 76//76 38//38
f 48//48 63//63 50//50
f 85//85 76//76 81//81
f 28//28 30//30 11//11
f 62//62 81//81 69//69
f 18//18 74//74 91//91
f 7//7 21//21 44//44
f 34//34 79//79 41//41
f 35//35 64//64 36//36
f 37//37 9//9 34//34
f 58//58 38//38 39//39
f 38//38 58//58 59//59
f 37//37 41//41 78//78
f 13//13 42//42 43//43
f 44//44 45//45 46//46
f 10//10 47//47 56//56
f 47//47 45//45 71//71
f 44//44 51//51 45//45
f 47//47 26//26 31//31
f 53//53 27//27 25//25
f 10//10 45//45 47//47
f 54//54 52//52 8//8
f 6//6 24//24 53//53
f 53//53 32//32 6//6
f 42//42 14//14 88//88
f 54//54 17//17 52//52
f 16//16 56//56 31//31
f 56//56 47//47 31//31
f 30//30 54//54 8//8
f 60//60 86//86 61//61
f 19//19 50//50 8//8
f 85//85 20//20 75//75
f 17//17 33//33 62//62
f 52//52 62//62 69//69
f 76//76 23//23 38//38
f 25//25 63//63 32//32
f 64//64 65//65 92//92
f 60//60 61//61 59//59
f 49//49 43//43 70//70
f 16//16 90//90 66//66
f 66//66 67//67 16//16
f 67//67 18//18 55//55
f 57//57 33//33 17//17
f 44//44 46//46 7//7
f 68//68 7//7 89//89
f 13//13 43//43 40//40
f 19//19 8//8 52//52
f 51//51 70//70 71//71
f 49//49 5//5 40//40
f 49//49 70//70 51//51
f 18//18 91//91 55//55
f 73//73 68//68 91//91
f 74//74 22//22 73//73
f 75//75 23//23 76//76
f 24//24 77//77 78//78
f 77//77 37//37 78//78
f 41//41 27//27 78//78
f 78//78 53//53 24//24
f 28//28 11//11 41//41
f 79//79 35//35 28//28
f 61//61 29//29 63//63
f 80//80 81//81 62//62
f 69//69 82//82 19//19
f 50//50 25//25 83//83
f 50//50 83//83 8//8
f 53//53 25//25 32//32
f 41//41 11//11 27//27
f 8//8 83//83 30//30
f 30//30 83//83 11//11
f 55//55 10//10 56//56
f 82//82 69//69 76//76
f 50//50 63//63 25//25
f 29//29 32//32 63//63
f 63//63 48//48 61//61
f 25//25 27//27 83//83
f 16//16 31//31 57//57
f 31//31 33//33 57//57
f 84//84 20//20 85//85
f 33//33 31//31 26//26
f 81//81 76//76 69//69
f 36//36 64//64 92//92
f 36//36 28//28 35//35
f 80//80 93//93 81//81
f 61//61 86//86 29//29
f 1//1 2//2 87//87
f 87//87 29//29 86//86
f 48//48 19//19 82//82
f 30//30 36//36 54//54
f 28//28 36//36 30//30
f 62//62 33//33 80//80
f 33//33 26//26 80//80
f 44//44 49//49 51//51
f 85//85 75//75 76//76
f 29//29 87//87 4//4
f 1//1 87//87 86//86
f 4//4 87//87 2//2
f 40//40 43//43 49//49
f 37//37 34//34 41//41
f 49//49 21//21 5//5
f 50//50 19//19 48//48
f 40//40 5//5 72//72
f 40//40 12//12 13//13
f 40//40 72//72 12//12
f 59//59 61//61 48//48
f 38//38 59//59 82//82
f 82//82 59//59 48//48
f 67//67 56//56 16//16
f 10//10 89//89 46//46
f 84//84 93//93 88//88
f 46//46 45//45 10//10
f 55//55 89//89 10//10
f 32//32 4//4 6//6
f 32//32 29//29 4//4
f 57//57 90//90 16//16
f 90//90 57//57 92//92
f 90//90 65//65 66//66
f 89//89 7//7 46//46
f 43//43 42//42 88//88
f 91//91 89//89 55//55
f 89//89 91//91 68//68
f 73//73 91//91 74//74
f 84//84 88//88 14//14
f 84//84 14//14 20//20
f 43//43 88//88 70//70
f 85//85 81//81 93//93
f 36//36 92//92 54//54
f 80//80 71//71 93//93
f 54//54 92//92 17//17
f 92//92 57//57 17//17
f 51//51 71//71 45//45
f 85//85 93//93 84//84
f 70//70 93//93 71//71
f 93//93 70//70 88//88
f 92//92 65//65 90//90
# 147 faces, 0 coords texture

# End of File
