####
#
# OBJ File Generated by Meshlab
#
####
# Object 136S.obj
#
# Vertices: 166
# Faces: 281
#
####
vn 3.065673 0.044459 -5.484164
v -48.406875 3.075482 15.976209
vn 3.060249 -0.011920 -5.487451
v -48.238485 -1.315975 16.060625
vn 3.219793 0.023929 -5.395407
v -45.736343 0.710509 17.516912
vn 2.880184 0.004056 -5.583752
v -50.715514 0.909724 14.716037
vn 3.224893 0.018967 -5.392226
v -45.333430 2.726725 17.755342
vn 3.474486 0.053635 -5.234678
v -41.971457 12.460122 19.906213
vn 3.079388 -0.051745 -5.476362
v -48.276345 14.110396 16.023526
vn 3.044910 -0.016735 -5.495578
v -49.300568 12.661255 15.454955
vn 3.336662 0.030053 -5.323280
v -45.386018 26.447944 17.726686
vn 3.192695 -0.034817 -5.411292
v -47.184135 18.948879 16.653249
vn 2.771149 -0.003105 -5.638851
v -52.350312 1.088943 13.895615
vn 3.212153 0.024546 -5.399710
v -45.449623 5.995908 17.696788
vn 3.064446 -0.004239 -5.485112
v -48.614795 6.712990 15.883622
vn 3.278765 0.029517 -5.359458
v -43.753155 1.479078 18.704390
vn 3.197651 0.008734 -5.408504
v -45.997413 7.900392 17.383603
vn 3.117630 -0.021534 -5.455022
v -47.833537 8.171864 16.317013
vn 3.157672 0.032964 -5.431753
v -47.065916 1.924351 16.730761
vn 3.289289 -0.000117 -5.351620
v -46.189886 23.034487 17.199715
vn 3.202075 -0.046291 -5.405459
v -46.611111 13.894420 16.984732
vn 2.966245 0.046191 -5.538524
v -49.787869 2.305356 15.211601
vn 3.425335 0.007064 -5.267269
v -43.845860 17.790494 18.708864
vn 3.487824 0.048339 -5.225560
v -42.057910 14.402824 19.860086
vn 3.006343 -0.028052 -5.517016
v -50.349660 19.763480 14.833507
vn 3.326668 -0.013950 -5.329475
v -45.232663 19.428692 17.814767
vn 3.158593 0.026688 -5.431213
v -46.677034 4.219425 16.967564
vn 3.259479 0.002900 -5.371200
v -46.051226 15.730915 17.313107
vn 3.556742 0.107399 -5.178374
v -39.008892 12.605448 21.914367
vn 3.435489 0.015143 -5.260650
v -44.687375 23.308441 18.168946
vn 2.827345 -0.020574 -5.610911
v -51.535642 -0.554334 14.303064
vn 3.026251 0.014646 -5.505008
v -48.853470 0.796005 15.699250
vn 3.284773 0.018298 -5.356089
v -43.827950 3.638939 18.675406
vn 3.156128 -0.010009 -5.431404
v -47.467780 15.375158 16.463329
vn 3.478341 0.012173 -5.231766
v -43.262758 19.568826 19.084701
vn 3.203900 0.026048 -5.404298
v -47.403577 24.761808 16.482990
vn 2.088711 0.083693 -3.006248
v -38.327500 11.096400 22.344600
vn 1.263606 -0.014285 -2.547238
v -51.547800 -5.118390 14.338700
vn 1.678701 0.043511 -2.405014
v -41.110450 24.102250 20.615350
vn 1.158635 -0.017654 -2.412482
v -54.161400 -1.173870 13.022300
vn 1.215902 -0.040793 -2.520590
v -53.160485 -3.412833 13.552494
vn 1.529544 0.008592 -2.399970
v -39.621400 2.048545 21.324550
vn 1.722939 0.037643 -2.431210
v -41.897500 25.350700 20.095000
vn 1.507375 0.008758 -2.419189
v -42.035600 -5.558740 19.731250
vn 1.510622 0.034461 -2.173139
v -38.094000 14.837400 22.583400
vn 2.034011 0.010719 -3.152399
v -40.575050 5.730445 20.740600
vn 1.443682 0.059680 -2.075636
v -38.182800 11.244000 22.449800
vn 1.809683 0.043940 -2.621575
v -38.869200 16.940850 22.076950
vn 1.336995 0.035804 -1.922449
v -37.823900 12.928300 22.744500
vn 1.394545 -0.001013 -2.369418
v -48.428667 27.743448 15.882095
vn 1.863426 0.002563 -3.395260
v -50.034600 6.028690 15.103100
vn 1.177300 0.002209 -2.458381
v -54.167950 0.376289 13.025600
vn 1.484725 0.001922 -2.237438
v -39.510450 -2.207600 21.387750
vn 1.362544 -0.007123 -2.525466
v -50.694906 25.815552 14.633870
vn 1.817239 0.046154 -2.625859
v -39.270400 18.161800 21.823700
vn 1.816170 0.032013 -2.606978
v -39.699350 19.707200 21.549000
vn 1.410805 -0.029869 -2.671214
v -52.065200 16.924600 13.942450
vn 2.142422 0.042511 -3.081471
v -38.164700 13.627500 22.514600
vn 1.449290 0.020242 -2.502732
v -46.870550 -6.962260 16.803500
vn 1.562565 0.010975 -2.383160
v -44.235482 27.426177 18.465162
vn 1.413302 -0.008844 -2.680515
v -51.628250 11.160433 14.208478
vn 1.292246 -0.010351 -2.477812
v -52.184500 12.868400 13.928800
vn 1.399995 -0.023933 -2.595232
v -51.031500 9.780780 14.544800
vn 1.437714 0.002983 -2.350376
v -46.318050 28.068100 17.159500
vn 1.395041 -0.005991 -2.597097
v -51.676100 22.792800 14.109200
vn 1.712963 0.026244 -2.444817
v -40.201513 21.775522 21.220155
vn 1.442186 0.009710 -2.647783
v -48.595100 -6.542295 15.838900
vn 1.328085 -0.006860 -2.416891
v -50.142700 26.612400 14.924800
vn 1.891175 -0.021037 -3.406093
v -49.847100 8.023990 15.182300
vn 1.514149 -0.014133 -2.802703
v -51.693509 20.799487 14.101051
vn 1.345018 -0.008877 -2.654320
v -52.026200 4.190645 14.047400
vn 3.542440 0.141344 -5.187191
v -39.203245 10.835952 21.730246
vn 3.228387 0.021926 -5.390178
v -45.343309 -2.353643 17.728957
vn 1.569772 0.006816 -2.426527
v -40.499670 -3.951916 20.725979
vn 3.428642 0.081891 -5.264207
v -41.703016 10.335145 20.048560
vn 3.585360 0.066351 -5.159298
v -42.419820 24.378676 19.709794
vn 3.391065 0.022534 -5.288689
v -43.564823 13.194706 18.861292
vn 1.677086 0.015877 -2.397435
v -42.700600 26.289450 19.528800
vn 3.141470 0.007433 -5.440611
v -47.368738 0.160910 16.539228
vn 2.950970 -0.016474 -5.546918
v -50.860204 13.507024 14.614290
vn 2.956302 -0.005642 -5.543425
v -49.306137 -3.033233 15.465627
vn 3.365374 0.031698 -5.305484
v -42.125031 6.821282 19.743520
vn 3.506503 0.118407 -5.212306
v -40.402244 11.624871 20.947288
vn 3.001502 -0.049536 -5.519483
v -49.787399 14.671807 15.194101
vn 3.177376 -0.027067 -5.420360
v -46.729643 10.021532 16.947061
vn 3.276279 0.034649 -5.361190
v -44.169703 7.451384 18.482315
vn 1.234200 -0.008010 -2.517048
v -53.216401 2.774412 13.471250
vn 3.361020 0.074615 -5.308083
v -41.814819 1.418858 19.920303
vn 3.426199 0.049961 -5.264689
v -40.756715 -0.354581 20.553012
vn 1.528212 0.006735 -2.840649
v -50.707450 5.329255 14.731100
vn 3.407545 0.055679 -5.278179
v -41.391506 8.477080 20.223216
vn 3.301792 0.039014 -5.345221
v -42.595011 -0.378120 19.403107
vn 2.811522 -0.063046 -5.618168
v -51.309350 -2.389787 14.428937
vn 3.486907 0.107829 -5.225364
v -40.201896 9.513956 21.021357
vn 2.972428 -0.030703 -5.535053
v -50.676253 18.173797 14.662202
vn 3.254454 0.026626 -5.374403
v -46.929222 26.515474 16.794136
vn 3.532230 0.062158 -5.195926
v -40.518845 13.716981 20.903132
vn 2.748603 -0.047852 -5.649164
v -52.811280 -1.025070 13.669628
vn 3.227324 -0.046334 -5.389733
v -46.764094 21.063541 16.864055
vn 1.796810 0.024397 -2.738965
v -39.992750 7.092185 21.126550
vn 3.498526 0.016528 -5.218133
v -43.980038 25.077608 18.633449
vn 1.844734 0.016254 -2.919092
v -40.353300 3.836485 20.875350
vn 2.969433 -0.030425 -5.536416
v -50.571685 11.615179 14.764052
vn 2.960104 -0.067742 -5.541756
v -51.069241 15.294931 14.492006
vn 1.444750 -0.028381 -2.736537
v -52.179917 14.316215 13.911947
vn 3.371281 0.003860 -5.301844
v -42.288504 4.639623 19.632014
vn 3.354376 0.027975 -5.312594
v -42.586145 2.950068 19.441358
vn 2.929816 -0.024196 -5.557595
v -50.046053 -1.070399 15.067318
vn 3.069844 -0.036348 -5.481340
v -48.755691 16.013211 15.733173
vn 3.277610 0.006805 -5.359336
v -45.691063 17.540166 17.528586
vn 3.242475 0.027511 -5.381805
v -44.510939 -0.625372 18.241749
vn 3.201128 0.018342 -5.406292
v -46.106327 -4.085489 17.266467
vn 3.238132 0.013710 -5.384485
v -45.050798 -5.384623 17.900657
vn 3.072464 -0.009991 -5.480359
v -49.203727 24.816950 15.445624
vn 3.108643 -0.035396 -5.459584
v -48.708146 20.396270 15.739908
vn 3.578809 0.046853 -5.164104
v -41.331688 20.028723 20.413728
vn 3.370386 0.004358 -5.302062
v -41.512428 -2.119162 20.069696
vn 3.529905 0.040494 -5.197460
v -41.919888 17.920841 19.986041
vn 3.521816 0.042393 -5.202891
v -42.843564 21.233128 19.379130
vn 3.577452 0.062266 -5.164616
v -41.759182 22.324727 20.132477
vn 3.151461 0.005933 -5.434603
v -48.467049 26.124570 15.858851
vn 3.166109 0.019098 -5.426766
v -46.710572 -5.752340 16.905926
vn 3.407791 0.009348 -5.278118
v -44.640777 21.391650 18.188406
vn 3.249726 0.014808 -5.377492
v -44.367641 -3.800101 18.315286
vn 3.267705 0.022699 -5.366537
v -43.464129 -2.160506 18.868743
vn 3.259479 0.012125 -5.371558
v -43.547167 -5.068085 18.806955
vn 3.059346 0.032593 -5.487601
v -48.414897 5.086027 15.981026
vn 3.388145 0.011823 -5.291067
v -44.355858 16.110187 18.371709
vn 3.418985 0.038930 -5.271298
v -43.424788 14.838765 18.976427
vn 3.332995 0.031265 -5.326113
v -42.976851 8.980549 19.227076
vn 3.265999 -0.005561 -5.367512
v -44.807543 9.575689 18.097438
vn 2.992940 0.024731 -5.524457
v -49.772703 4.194485 15.236681
vn 3.546540 0.064170 -5.186103
v -40.698693 16.003838 20.802357
vn 3.469635 0.035656 -5.237993
v -42.623476 16.157694 19.502691
vn 2.988284 -0.066611 -5.526174
v -50.242149 16.627112 14.909154
vn 2.895850 0.003639 -5.575839
v -49.505209 -4.826991 15.369119
vn 1.374055 0.015029 -2.683519
v -49.934300 -6.016070 15.142750
vn 1.585589 0.017022 -2.364581
v -39.303281 -0.437840 21.534492
vn 3.386320 0.029123 -5.292179
v -41.260684 3.368606 20.299922
vn 3.175140 0.025930 -5.421779
v -47.407590 16.955102 16.519244
vn 1.519197 -0.018391 -2.876055
v -51.806200 18.649800 14.066700
vn 3.117914 0.031914 -5.454518
v -47.202705 -2.766337 16.633914
vn 3.062134 0.020458 -5.485371
v -47.858179 -4.485416 16.247537
vn 1.515932 0.007235 -2.502329
v -43.688850 -6.447220 18.717550
vn 1.526460 0.012433 -2.544618
v -45.464100 -6.897390 17.645450
vn 3.101414 -0.022808 -5.463830
v -49.050785 18.159816 15.559382
vn 3.258665 -0.030154 -5.371650
v -45.369181 11.950089 17.743295
vn 3.289108 0.020607 -5.352956
v -43.708245 5.519865 18.744328
vn 3.130195 0.023034 -5.447818
v -47.130964 6.320895 16.719123
vn 3.119415 -0.017105 -5.453799
v -48.359696 22.674232 15.930954
vn 3.072454 -0.039495 -5.480212
v -48.893639 10.317322 15.699373
vn 3.235330 0.009096 -5.386158
v -44.977157 4.546534 17.980947
vn 1.623960 0.046874 -2.394295
v -39.006253 8.819296 21.815906
vn 1.386286 0.003437 -2.606567
v -51.555400 23.459000 14.174500
vn 2.871122 0.003691 -5.588307
v -51.258208 3.043945 14.440398
vn 3.576423 0.074676 -5.165447
v -40.197142 18.042839 21.180252
vn 3.180427 0.019111 -5.418301
v -46.430884 -1.071729 17.085903
vn 3.310446 0.018437 -5.339876
v -42.549485 -3.821876 19.416447
vn 3.562547 0.073082 -5.174984
v -39.207638 14.687947 21.806903
vn 3.394682 0.057410 -5.286742
v -40.407678 1.607779 20.821863
vn 3.334960 0.039977 -5.324019
v -45.715211 24.947817 17.509000
vn 3.022780 -0.022136 -5.508147
v -50.146389 21.824095 14.938530
vn 3.358014 0.014139 -5.310219
v -43.404013 11.115066 18.964398
vn 3.323509 0.000939 -5.331571
v -44.920854 14.207524 18.007228
vn 3.148783 -0.043662 -5.436910
v -47.451145 12.116727 16.512047
vn 3.510856 0.039674 -5.210504
v -43.363871 22.816537 19.046303
vn 3.009447 -0.016547 -5.515028
v -50.174494 23.627961 14.909149
vn 2.794089 -0.050017 -5.627031
v -51.266561 -3.930731 14.466584
# 166 vertices, 0 vertices normals

f 70//70 35//35 151//151
f 100//100 137//137 44//44
f 35//35 70//70 27//27
f 77//77 3//3 155//155
f 94//94 48//48 62//62
f 30//30 77//77 2//2
f 107//107 7//7 82//82
f 86//86 14//14 105//105
f 10//10 108//108 138//138
f 2//2 79//79 106//106
f 27//27 157//157 56//56
f 163//163 8//8 7//7
f 122//122 123//123 156//156
f 75//75 127//127 22//22
f 27//27 56//56 47//47
f 71//71 123//123 122//122
f 108//108 21//21 126//126
f 133//133 82//82 102//102
f 99//99 159//159 9//9
f 28//28 99//99 164//164
f 116//116 21//21 33//33
f 126//126 21//21 132//132
f 104//104 137//137 105//105
f 95//95 27//27 81//81
f 141//141 79//79 140//140
f 71//71 110//110 140//140
f 110//110 120//120 141//141
f 124//124 142//142 111//111
f 111//111 143//143 120//120
f 115//115 90//90 87//87
f 29//29 4//4 106//106
f 114//114 118//118 64//64
f 145//145 161//161 129//129
f 3//3 14//14 109//109
f 12//12 84//84 146//146
f 80//80 128//128 89//89
f 13//13 49//49 67//67
f 5//5 25//25 150//150
f 130//130 153//153 88//88
f 149//149 101//101 8//8
f 72//72 42//42 156//156
f 41//41 74//74 76//76
f 17//17 77//77 30//30
f 156//156 115//115 72//72
f 64//64 118//118 37//37
f 26//26 162//162 19//19
f 73//73 6//6 81//81
f 19//19 7//7 32//32
f 81//81 70//70 92//92
f 92//92 70//70 151//151
f 5//5 3//3 17//17
f 104//104 80//80 44//44
f 118//118 164//164 74//74
f 77//77 17//17 3//3
f 85//85 69//69 153//153
f 153//153 11//11 85//85
f 87//87 51//51 115//115
f 45//45 27//27 47//47
f 35//35 27//27 45//45
f 13//13 125//125 49//49
f 88//88 49//49 130//130
f 86//86 90//90 14//14
f 79//79 91//91 106//106
f 106//106 91//91 29//29
f 73//73 92//92 89//89
f 18//18 34//34 159//159
f 6//6 22//22 95//95
f 18//18 159//159 28//28
f 28//28 121//121 18//18
f 11//11 96//96 50//50
f 85//85 11//11 50//50
f 7//7 8//8 82//82
f 89//89 98//98 80//80
f 80//80 98//98 44//44
f 101//101 78//78 8//8
f 103//103 55//55 102//102
f 107//107 32//32 7//7
f 4//4 11//11 153//153
f 144//144 10//10 138//138
f 30//30 2//2 106//106
f 55//55 93//93 133//133
f 93//93 55//55 139//139
f 157//157 43//43 56//56
f 95//95 131//131 157//157
f 91//91 96//96 29//29
f 25//25 17//17 1//1
f 36//36 39//39 166//166
f 71//71 155//155 109//109
f 26//26 19//19 32//32
f 115//115 51//51 72//72
f 161//161 75//75 6//6
f 10//10 113//113 97//97
f 53//53 154//154 54//54
f 20//20 4//4 153//153
f 33//33 117//117 114//114
f 118//118 114//114 117//117
f 118//118 117//117 164//164
f 34//34 119//119 94//94
f 94//94 119//119 48//48
f 121//121 33//33 24//24
f 58//58 99//99 9//9
f 59//59 60//60 101//101
f 78//78 101//101 60//60
f 19//19 163//163 7//7
f 101//101 149//149 61//61
f 101//101 61//61 59//59
f 92//92 73//73 81//81
f 70//70 81//81 27//27
f 10//10 97//97 24//24
f 111//111 122//122 124//124
f 115//115 156//156 123//123
f 124//124 122//122 156//156
f 17//17 25//25 5//5
f 26//26 126//126 162//162
f 162//162 126//126 127//127
f 130//130 20//20 153//153
f 6//6 75//75 22//22
f 42//42 124//124 156//156
f 142//142 124//124 42//42
f 146//146 84//84 80//80
f 84//84 129//129 128//128
f 109//109 14//14 90//90
f 109//109 90//90 123//123
f 33//33 121//121 117//117
f 117//117 121//121 164//164
f 62//62 9//9 94//94
f 9//9 62//62 58//58
f 26//26 108//108 126//126
f 116//116 131//131 132//132
f 132//132 131//131 22//22
f 95//95 22//22 131//131
f 133//133 107//107 82//82
f 107//107 133//133 144//144
f 20//20 1//1 30//30
f 50//50 96//96 38//38
f 34//34 94//94 159//159
f 99//99 28//28 159//159
f 164//164 99//99 74//74
f 99//99 58//58 76//76
f 103//103 78//78 60//60
f 29//29 11//11 4//4
f 29//29 96//96 11//11
f 18//18 121//121 97//97
f 121//121 24//24 97//97
f 127//127 126//126 132//132
f 132//132 21//21 116//116
f 36//36 134//134 135//135
f 134//134 36//36 166//166
f 136//136 51//51 87//87
f 82//82 78//78 102//102
f 102//102 78//78 103//103
f 105//105 137//137 86//86
f 10//10 24//24 108//108
f 31//31 105//105 14//14
f 63//63 165//165 160//160
f 144//144 133//133 93//93
f 133//133 102//102 55//55
f 23//23 93//93 139//139
f 139//139 68//68 23//23
f 157//157 27//27 95//95
f 6//6 95//95 81//81
f 140//140 2//2 155//155
f 141//141 134//134 79//79
f 140//140 79//79 2//2
f 120//120 65//65 141//141
f 71//71 122//122 110//110
f 140//140 110//110 141//141
f 110//110 111//111 120//120
f 122//122 111//111 110//110
f 111//111 142//142 143//143
f 120//120 143//143 57//57
f 115//115 123//123 90//90
f 87//87 90//90 86//86
f 137//137 104//104 44//44
f 4//4 20//20 30//30
f 23//23 113//113 144//144
f 113//113 10//10 144//144
f 166//166 91//91 79//79
f 134//134 166//166 79//79
f 23//23 144//144 93//93
f 118//118 74//74 37//37
f 119//119 66//66 48//48
f 106//106 4//4 30//30
f 32//32 107//107 138//138
f 138//138 107//107 144//144
f 26//26 32//32 138//138
f 26//26 138//138 108//108
f 54//54 114//114 64//64
f 78//78 82//82 8//8
f 120//120 57//57 65//65
f 19//19 145//145 163//163
f 129//129 84//84 15//15
f 31//31 104//104 105//105
f 146//146 104//104 31//31
f 1//1 17//17 30//30
f 108//108 24//24 21//21
f 24//24 33//33 21//21
f 129//129 161//161 128//128
f 127//127 132//132 22//22
f 146//146 80//80 104//104
f 75//75 145//145 162//162
f 3//3 5//5 14//14
f 148//148 112//112 34//34
f 148//148 34//34 18//18
f 97//97 148//148 18//18
f 125//125 147//147 25//25
f 147//147 125//125 13//13
f 75//75 162//162 127//127
f 20//20 130//130 1//1
f 130//130 125//125 1//1
f 67//67 149//149 16//16
f 15//15 83//83 129//129
f 145//145 129//129 83//83
f 31//31 14//14 5//5
f 66//66 119//119 112//112
f 83//83 15//15 16//16
f 12//12 15//15 84//84
f 150//150 12//12 146//146
f 98//98 89//89 92//92
f 112//112 148//148 165//165
f 151//151 98//98 92//92
f 80//80 84//84 128//128
f 89//89 128//128 73//73
f 67//67 16//16 13//13
f 152//152 52//52 165//165
f 134//134 141//141 65//65
f 135//135 134//134 65//65
f 147//147 12//12 25//25
f 119//119 34//34 112//112
f 68//68 160//160 23//23
f 31//31 5//5 150//150
f 150//150 25//25 12//12
f 16//16 147//147 13//13
f 15//15 147//147 16//16
f 160//160 113//113 23//23
f 31//31 150//150 146//146
f 152//152 165//165 63//63
f 153//153 69//69 88//88
f 149//149 67//67 61//61
f 163//163 149//149 8//8
f 66//66 112//112 52//52
f 1//1 125//125 25//25
f 154//154 114//114 54//54
f 131//131 116//116 154//154
f 15//15 12//12 147//147
f 74//74 41//41 37//37
f 76//76 74//74 99//99
f 154//154 116//116 114//114
f 87//87 86//86 158//158
f 40//40 158//158 100//100
f 96//96 91//91 39//39
f 131//131 154//154 46//46
f 154//154 53//53 46//46
f 125//125 130//130 49//49
f 158//158 86//86 137//137
f 160//160 148//148 113//113
f 136//136 158//158 40//40
f 158//158 137//137 100//100
f 96//96 39//39 38//38
f 97//97 113//113 148//148
f 155//155 3//3 109//109
f 77//77 155//155 2//2
f 157//157 131//131 46//46
f 109//109 123//123 71//71
f 116//116 33//33 114//114
f 140//140 155//155 71//71
f 87//87 158//158 136//136
f 157//157 46//46 43//43
f 9//9 159//159 94//94
f 161//161 145//145 75//75
f 160//160 68//68 63//63
f 128//128 161//161 73//73
f 19//19 162//162 145//145
f 161//161 6//6 73//73
f 149//149 83//83 16//16
f 163//163 145//145 83//83
f 83//83 149//149 163//163
f 160//160 165//165 148//148
f 164//164 121//121 28//28
f 112//112 165//165 52//52
f 91//91 166//166 39//39
# 281 faces, 0 coords texture

# End of File
