####
#
# OBJ File Generated by Meshlab
#
####
# Object 1376.obj
#
# Vertices: 83
# Faces: 134
#
####
vn -4.052046 0.046626 -4.796379
v 26.840979 -46.953081 98.319961
vn -2.567927 0.097565 -1.812481
v 33.432200 -37.976650 91.353600
vn -2.517164 -0.019364 -1.853764
v 36.832200 -47.717100 86.461100
vn -2.409906 -0.000601 -2.013247
v 30.916000 -50.000000 94.221600
vn -1.899935 0.022337 -2.519991
v 24.755675 -39.776075 100.000000
vn -2.105794 0.009780 -2.329682
v 27.722388 -49.999991 97.519503
vn -5.051337 -0.003846 -3.736488
v 35.881591 -45.024096 87.733737
vn -2.484208 0.039285 -1.922437
v 34.099209 -50.000000 90.117463
vn -5.029364 -0.056193 -3.765584
v 34.985392 -47.974842 88.965669
vn -2.308029 0.059222 -2.078120
v 30.823300 -37.934200 94.633550
vn -2.196356 0.051078 -2.267321
v 29.098000 -37.987900 96.380800
vn -0.961380 0.007538 -1.250259
v 24.769600 -38.000000 100.000000
vn -0.937337 0.025446 -1.225280
v 24.629800 -50.000000 100.000000
vn -4.352892 0.096130 -4.529761
v 28.731123 -39.748016 96.681319
vn -4.467866 0.114062 -4.415668
v 29.469843 -41.479928 95.914662
vn -1.283073 0.005769 -0.914178
v 36.828000 -38.000100 86.505900
vn -2.559221 0.026641 -1.825129
v 36.090150 -37.998750 87.541500
vn -2.254927 0.028427 -2.185610
v 29.467050 -50.000000 95.834900
vn -2.571232 0.071867 -1.810849
v 34.665700 -37.991550 89.562550
vn -1.939131 0.033317 -2.512983
v 24.687550 -48.350900 100.000000
vn -4.121029 0.060046 -4.737643
v 27.389978 -39.891835 97.941328
vn -2.064101 0.028303 -2.369885
v 27.537500 -37.999025 97.842699
vn -2.512271 -0.017693 -1.885388
v 35.287300 -50.000000 88.597900
vn -1.279742 -0.010973 -0.937057
v 36.823600 -50.000000 86.498300
vn -2.472928 0.081924 -1.928369
v 32.499000 -37.959050 92.625950
vn -4.965847 0.030958 -3.849165
v 32.874809 -48.601420 91.735035
vn -4.687434 0.050000 -4.180043
v 30.316644 -45.046231 94.968253
vn -4.974875 0.114968 -3.835085
v 32.164510 -44.089603 92.737244
vn -5.078117 0.076258 -3.699210
v 35.727688 -41.101478 87.994693
vn -4.600380 0.040425 -4.271741
v 29.859510 -48.279523 95.442296
vn -5.034020 -0.026959 -3.759510
v 34.867093 -46.080437 89.086395
vn -2.531332 -0.015533 -1.869643
v 36.827850 -45.747450 86.458050
vn -4.726027 0.175814 -4.130557
v 30.876327 -41.592795 94.434755
vn -4.986380 0.025924 -3.822534
v 34.126609 -48.912324 90.104283
vn -2.489450 0.031767 -1.916095
v 33.181000 -50.000000 91.315900
vn -3.894856 0.054999 -4.929028
v 25.783279 -48.470638 99.149351
vn -4.551571 0.142070 -4.321686
v 30.237275 -39.704344 95.214958
vn -1.915697 -0.014008 -2.490091
v 25.787100 -37.999800 99.217600
vn -3.857565 -0.004628 -4.957987
v 26.145386 -39.170407 98.954321
vn -5.008349 -0.011594 -3.793562
v 33.727611 -47.002567 90.632657
vn -5.077224 0.124587 -3.698504
v 33.921572 -42.528208 90.403485
vn -5.103826 0.106908 -3.662854
v 35.330806 -39.364122 88.582234
vn -5.055049 0.136208 -3.728910
v 33.120168 -43.321800 91.479954
vn -3.834086 -0.014533 -4.977327
v 25.471292 -46.626546 99.397669
vn -3.875413 0.077459 -4.940946
v 25.995157 -42.975091 99.030575
vn -2.476106 0.017347 -1.933478
v 32.250150 -50.000000 92.522800
vn -2.557570 0.025037 -1.834458
v 36.826850 -39.278000 86.499450
vn -5.141093 0.201195 -3.606294
v 34.047765 -39.207680 90.386092
vn -5.012946 0.066864 -3.787129
v 32.831169 -45.364967 91.814197
vn -1.863159 0.034063 -2.519558
v 24.690500 -42.254200 99.999100
vn -5.074528 0.223998 -3.695034
v 33.055530 -39.055701 91.827104
vn -4.228836 0.038274 -4.643007
v 27.929672 -45.512978 97.371612
vn -4.235692 0.104529 -4.632572
v 27.942438 -41.598499 97.425768
vn -4.959669 0.050726 -3.857028
v 32.263872 -47.076585 92.525838
vn -1.872698 0.014726 -2.493072
v 24.651400 -44.672150 99.999700
vn -1.900317 -0.019187 -2.507774
v 24.675500 -46.535500 100.000000
vn -2.552563 0.033789 -1.838442
v 36.821850 -41.629700 86.468250
vn -1.965848 0.022264 -2.449609
v 26.152700 -50.000000 98.846200
vn -4.492763 0.062182 -4.386366
v 29.392958 -46.239886 95.953747
vn -4.410131 0.024225 -4.471985
v 28.958608 -44.368091 96.401131
vn -5.044518 -0.039234 -3.745572
v 35.910689 -46.908643 87.701152
vn -4.806306 0.076083 -4.041683
v 30.840916 -46.815607 94.340563
vn -4.344181 0.005935 -4.537836
v 28.496517 -48.896995 96.792113
vn -4.129551 0.033395 -4.733228
v 27.223898 -48.629473 97.959337
vn -4.913853 0.089296 -3.912946
v 31.595922 -45.485077 93.429398
vn -2.532016 0.013732 -1.826675
v 36.817600 -43.405200 86.434950
vn -4.579715 0.080505 -4.298975
v 29.921686 -43.208409 95.417482
vn -4.381851 0.081569 -4.500919
v 28.750838 -42.851914 96.611129
vn -4.157914 0.067641 -4.708934
v 27.578218 -43.558978 97.680166
vn -5.076143 0.054760 -3.702258
v 35.839152 -43.068176 87.804880
vn -5.049092 0.077543 -3.738854
v 34.860429 -42.376386 89.142972
vn -4.900049 0.029173 -3.932042
v 31.494255 -48.397320 93.495382
vn -5.060040 -0.055243 -3.724383
v 35.967816 -48.592566 87.650566
vn -4.310371 0.064746 -4.570528
v 28.288712 -47.420771 96.987126
vn -4.959666 0.193422 -3.851898
v 32.177574 -42.081832 92.791606
vn -4.876915 0.195842 -3.951632
v 31.889952 -39.740568 93.311057
vn -3.906262 0.083940 -4.916628
v 26.338365 -41.057838 98.794558
vn -4.822378 0.115363 -4.024440
v 31.169969 -43.693924 93.991816
vn -5.041175 0.038026 -3.749410
v 33.930405 -44.774519 90.337939
vn -5.089979 0.143274 -3.679907
v 34.443464 -40.855994 89.739609
vn -5.035699 0.053849 -3.757229
v 34.818921 -44.040202 89.165817
vn -5.068596 0.215841 -3.705652
v 33.079635 -40.845360 91.671087
vn -3.950772 0.013012 -4.883055
v 26.454982 -45.122571 98.633446
# 83 vertices, 0 vertices normals

f 17//17 16//16 47//47
f 40//40 31//31 9//9
f 33//33 15//15 37//37
f 54//54 40//40 26//26
f 64//64 58//58 36//36
f 62//62 54//54 72//72
f 7//7 70//70 66//66
f 33//33 67//67 15//15
f 60//60 68//68 67//67
f 30//30 63//63 74//74
f 55//55 83//83 44//44
f 32//32 3//3 61//61
f 3//3 73//73 61//61
f 34//34 35//35 26//26
f 35//35 46//46 26//26
f 35//35 34//34 8//8
f 11//11 10//10 37//37
f 5//5 38//38 39//39
f 38//38 22//22 39//39
f 38//38 5//5 12//12
f 36//36 13//13 20//20
f 30//30 74//74 59//59
f 21//21 14//14 53//53
f 4//4 18//18 30//30
f 22//22 14//14 21//21
f 14//14 22//22 11//11
f 11//11 37//37 14//14
f 26//26 40//40 34//34
f 34//34 40//40 9//9
f 22//22 21//21 39//39
f 17//17 47//47 42//42
f 29//29 42//42 47//47
f 47//47 57//57 29//29
f 19//19 17//17 42//42
f 24//24 23//23 73//73
f 42//42 80//80 48//48
f 23//23 8//8 34//34
f 15//15 53//53 14//14
f 50//50 5//5 77//77
f 37//37 15//15 14//14
f 10//10 25//25 76//76
f 33//33 75//75 78//78
f 51//51 2//2 48//48
f 48//48 82//82 51//51
f 59//59 52//52 60//60
f 52//52 59//59 74//74
f 1//1 74//74 64//64
f 54//54 49//49 40//40
f 55//55 50//50 45//45
f 31//31 40//40 79//79
f 20//20 56//56 44//44
f 56//56 55//55 44//44
f 2//2 19//19 48//48
f 51//51 25//25 2//2
f 57//57 66//66 70//70
f 7//7 32//32 61//61
f 82//82 80//80 41//41
f 43//43 79//79 49//49
f 43//43 49//49 28//28
f 64//64 36//36 1//1
f 64//64 6//6 58//58
f 36//36 58//58 13//13
f 62//62 72//72 30//30
f 67//67 27//27 60//60
f 27//27 59//59 60//60
f 76//76 75//75 33//33
f 80//80 71//71 41//41
f 7//7 61//61 31//31
f 54//54 62//62 65//65
f 65//65 28//28 49//49
f 18//18 6//6 63//63
f 62//62 27//27 65//65
f 21//21 77//77 39//39
f 77//77 5//5 39//39
f 65//65 49//49 54//54
f 32//32 7//7 66//66
f 24//24 73//73 3//3
f 76//76 25//25 51//51
f 33//33 78//78 67//67
f 28//28 65//65 78//78
f 78//78 27//27 67//67
f 43//43 82//82 41//41
f 67//67 68//68 15//15
f 31//31 61//61 9//9
f 61//61 73//73 9//9
f 29//29 57//57 70//70
f 29//29 80//80 42//42
f 30//30 18//18 63//63
f 74//74 63//63 64//64
f 30//30 59//59 62//62
f 62//62 59//59 27//27
f 45//45 69//69 83//83
f 52//52 69//69 60//60
f 68//68 53//53 15//15
f 31//31 79//79 81//81
f 31//31 81//81 7//7
f 81//81 70//70 7//7
f 71//71 70//70 81//81
f 52//52 83//83 69//69
f 63//63 6//6 64//64
f 42//42 48//48 19//19
f 69//69 68//68 60//60
f 36//36 44//44 1//1
f 69//69 53//53 68//68
f 36//36 20//20 44//44
f 4//4 72//72 46//46
f 72//72 26//26 46//46
f 34//34 9//9 23//23
f 73//73 23//23 9//9
f 10//10 76//76 37//37
f 52//52 74//74 1//1
f 43//43 28//28 75//75
f 50//50 77//77 45//45
f 72//72 4//4 30//30
f 76//76 33//33 37//37
f 75//75 28//28 78//78
f 76//76 51//51 82//82
f 53//53 77//77 21//21
f 72//72 54//54 26//26
f 79//79 40//40 49//49
f 71//71 81//81 41//41
f 78//78 65//65 27//27
f 48//48 80//80 82//82
f 71//71 80//80 29//29
f 71//71 29//29 70//70
f 81//81 79//79 41//41
f 43//43 41//41 79//79
f 45//45 77//77 53//53
f 82//82 43//43 75//75
f 45//45 53//53 69//69
f 76//76 82//82 75//75
f 55//55 45//45 83//83
f 1//1 83//83 52//52
f 44//44 83//83 1//1
# 134 faces, 0 coords texture

# End of File
