####
#
# OBJ File Generated by Meshlab
#
####
# Object 1377.obj
#
# Vertices: 89
# Faces: 143
#
####
vn -2.268994 -0.055372 -2.172192
v 35.136300 50.000000 88.171950
vn -4.570671 -0.124907 -4.309020
v 33.426729 44.666445 90.150060
vn -2.267249 -0.068435 -2.173760
v 33.625950 50.000000 89.748650
vn -2.258223 -0.001353 -2.182797
v 36.885800 42.771150 86.548750
vn -3.797214 -0.171778 -5.001666
v 27.078750 39.933404 96.312408
vn -1.559308 -0.029085 -2.741289
v 21.234400 42.748200 100.000000
vn -3.359635 -0.120466 -5.307662
v 24.064184 43.854563 98.305184
vn -1.649575 -0.059237 -2.673059
v 23.139643 50.000000 98.771114
vn -2.219333 -0.126187 -2.214806
v 30.883700 37.994350 93.119700
vn -0.742641 -0.020980 -1.412303
v 21.346000 38.000000 100.000000
vn -1.491903 -0.051723 -2.763774
v 21.620800 38.000000 99.855500
vn -0.777606 -0.025016 -1.340536
v 21.039500 50.000000 100.000000
vn -3.176812 -0.103631 -5.419716
v 22.385195 46.583792 99.276141
vn -2.331345 -0.046527 -2.110790
v 35.191100 37.999500 88.356500
vn -4.534511 -0.164557 -4.346036
v 33.115493 48.163081 90.344315
vn -3.873265 -0.126166 -4.943032
v 27.339507 46.288144 95.930364
vn -4.333530 -0.170297 -4.546067
v 29.715655 43.980477 93.945492
vn -2.315400 -0.095346 -2.114453
v 32.550739 37.988925 91.337637
vn -1.162957 -0.008235 -1.081789
v 36.851500 38.002100 86.546600
vn -1.127659 -0.035093 -1.083535
v 36.789400 50.000000 86.439100
vn -4.622330 -0.132654 -4.253574
v 33.405119 41.360966 90.245048
vn -4.472491 -0.178774 -4.409229
v 31.296285 46.141357 92.304088
vn -4.110630 -0.161511 -4.741163
v 28.805274 43.135084 94.836016
vn -3.537553 -0.123132 -5.189334
v 24.932584 48.933966 97.629044
vn -3.829330 -0.126074 -4.979550
v 27.063122 44.034472 96.178475
vn -1.881248 -0.070296 -2.515003
v 26.340150 50.000000 96.605400
vn -4.612392 -0.207290 -4.260478
v 32.497097 40.086073 91.301419
vn -3.892736 -0.169652 -4.926824
v 27.792121 41.831801 95.697345
vn -3.191307 -0.090256 -5.410420
v 22.578480 44.415504 99.212961
vn -4.547191 -0.127505 -4.334068
v 34.627820 48.141229 88.747546
vn -2.131315 -0.086909 -2.306709
v 29.235450 50.000000 94.192550
vn -1.539185 -0.034259 -2.719921
v 21.253850 41.108100 100.000000
vn -3.180511 -0.089864 -5.417169
v 22.809403 42.288666 99.107552
vn -4.467567 -0.240711 -4.410603
v 31.031574 40.729323 92.800038
vn -4.453637 -0.157855 -4.428245
v 30.978583 44.073890 92.712326
vn -2.270745 0.009007 -2.164002
v 36.878500 40.985200 86.536000
vn -3.702741 -0.135024 -5.073823
v 26.048486 41.957920 96.997521
vn -1.982321 -0.069065 -2.435728
v 28.425350 37.999500 95.313200
vn -1.558762 -0.049432 -2.731355
v 21.173468 45.089954 100.000000
vn -4.487390 -0.188372 -4.393868
v 31.560940 48.230098 91.937920
vn -4.559440 -0.103552 -4.321736
v 34.794574 44.339309 88.693199
vn -4.520319 -0.084549 -4.362309
v 35.965292 44.089518 87.491755
vn -2.096977 -0.096587 -2.334891
v 29.691100 37.997300 94.237200
vn -1.561400 -0.040781 -2.719751
v 21.097084 47.617574 100.000000
vn -3.175408 -0.088108 -5.420664
v 22.191051 48.401353 99.361851
vn -3.378016 -0.113750 -5.293489
v 23.919548 45.950729 98.372803
vn -1.706800 -0.069092 -2.634192
v 24.773350 38.000050 97.999550
vn -3.214784 -0.113958 -5.395766
v 23.271546 39.924643 98.878916
vn -1.760557 -0.081489 -2.601173
v 24.847700 50.000000 97.653100
vn -4.394541 -0.186304 -4.485043
v 30.146383 47.827463 93.397765
vn -2.263487 -0.066780 -2.184656
v 36.852000 45.370450 86.526850
vn -2.278017 0.012278 -2.142878
v 36.868050 39.353300 86.531600
vn -2.229148 -0.098480 -2.211917
v 30.773450 50.000000 92.665850
vn -2.253788 -0.068711 -2.193820
v 36.823635 47.619162 86.493309
vn -4.231764 -0.195571 -4.636388
v 29.443109 41.270284 94.322826
vn -4.405173 -0.187897 -4.475629
v 30.378456 42.482843 93.363593
vn -4.196259 -0.170274 -4.665628
v 29.011271 46.380880 94.547836
vn -4.571062 -0.152548 -4.308172
v 34.069154 46.307054 89.401719
vn -3.351946 -0.108365 -5.311467
v 23.620353 47.911306 98.512489
vn -4.036050 -0.177033 -4.808616
v 28.654317 39.809198 95.072387
vn -4.377661 -0.149216 -4.504193
v 30.027042 45.533462 93.591741
vn -4.009622 -0.155964 -4.834048
v 27.788723 49.098269 95.473422
vn -4.672014 -0.136390 -4.198769
v 34.044500 39.346107 89.599427
vn -4.538179 -0.173318 -4.341751
v 31.962148 42.240788 91.754702
vn -4.604096 -0.056331 -4.274807
v 34.922029 40.981192 88.599703
vn -2.245939 -0.083110 -2.195375
v 32.096250 50.000000 91.324950
vn -4.525055 -0.140768 -4.356756
v 32.203453 44.412415 91.436128
vn -4.596096 -0.075260 -4.283498
v 34.137208 42.763793 89.424218
vn -1.860327 -0.073824 -2.527263
v 26.573350 37.999950 96.761450
vn -4.528832 -0.242681 -4.347531
v 31.464542 39.212505 92.441263
vn -3.605754 -0.120805 -5.143004
v 25.394599 47.130209 97.343076
vn -3.636967 -0.135566 -5.118795
v 25.583820 45.173740 97.269203
vn -4.540985 -0.022024 -4.342163
v 35.598633 42.478113 87.869415
vn -2.012597 -0.066447 -2.411627
v 27.812900 50.000000 95.428400
vn -2.348804 -0.086980 -2.079403
v 34.090600 37.991900 89.604000
vn -1.528320 -0.062789 -2.746209
v 21.314700 39.107950 100.000000
vn -1.573502 -0.072559 -2.715927
v 22.838950 38.000000 99.186200
vn -4.323135 -0.240784 -4.550656
v 30.161654 39.465133 93.733716
vn -4.525721 -0.138624 -4.355980
v 35.605889 46.282363 87.779057
vn -4.522827 -0.127602 -4.359554
v 35.831947 48.431592 87.486338
vn -4.526863 -0.175932 -4.353178
v 32.586976 46.499375 90.968699
vn -4.110506 -0.184746 -4.745781
v 28.529504 47.884557 94.894792
vn -3.814738 -0.121917 -4.986776
v 26.740827 48.201602 96.352624
vn -4.571001 -0.103562 -4.309635
v 32.993782 43.072095 90.642781
vn -4.090512 -0.139071 -4.760992
v 28.641142 44.894581 94.914239
vn -3.396757 -0.106241 -5.281231
v 24.364557 41.666174 98.181913
vn -4.607619 -0.031500 -4.271018
v 35.771594 39.356580 87.697222
vn -3.599019 -0.127132 -5.142156
v 25.384729 43.381460 97.468614
vn -3.544916 -0.151981 -5.182373
v 25.433921 39.989498 97.507628
# 89 vertices, 0 vertices normals

f 38//38 60//60 43//43
f 10//10 76//76 11//11
f 51//51 42//42 79//79
f 18//18 9//9 70//70
f 2//2 81//81 58//58
f 72//72 46//46 71//71
f 27//27 18//18 70//70
f 30//30 15//15 3//3
f 60//60 28//28 55//55
f 79//79 58//58 30//30
f 86//86 89//89 48//48
f 78//78 55//55 34//34
f 1//1 20//20 80//80
f 31//31 53//53 50//50
f 32//32 6//6 33//33
f 17//17 35//35 56//56
f 4//4 36//36 73//73
f 36//36 52//52 87//87
f 29//29 6//6 39//39
f 38//38 69//69 5//5
f 39//39 44//44 13//13
f 42//42 41//41 79//79
f 29//29 13//13 46//46
f 5//5 37//37 28//28
f 44//44 12//12 45//45
f 8//8 45//45 12//12
f 72//72 7//7 46//46
f 7//7 29//29 46//46
f 47//47 77//77 48//48
f 59//59 8//8 24//24
f 49//49 26//26 24//24
f 60//60 5//5 28//28
f 3//3 1//1 30//30
f 40//40 15//15 81//81
f 51//51 4//4 42//42
f 19//19 14//14 87//87
f 37//37 86//86 88//88
f 53//53 66//66 40//40
f 54//54 51//51 79//79
f 16//16 71//71 83//83
f 56//56 55//55 23//23
f 80//80 20//20 54//54
f 16//16 82//82 57//57
f 2//2 58//58 41//41
f 17//17 23//23 85//85
f 57//57 85//85 16//16
f 59//59 46//46 13//13
f 58//58 81//81 15//15
f 82//82 50//50 57//57
f 62//62 83//83 26//26
f 21//21 63//63 27//27
f 66//66 15//15 40//40
f 40//40 22//22 50//50
f 2//2 41//41 68//68
f 66//66 3//3 15//15
f 59//59 45//45 8//8
f 14//14 63//63 87//87
f 21//21 65//65 63//63
f 35//35 67//67 64//64
f 2//2 68//68 84//84
f 89//89 5//5 69//69
f 89//89 69//69 47//47
f 34//34 27//27 70//70
f 64//64 27//27 34//34
f 53//53 40//40 50//50
f 2//2 67//67 81//81
f 8//8 49//49 24//24
f 59//59 24//24 71//71
f 71//71 24//24 83//83
f 22//22 35//35 61//61
f 35//35 17//17 61//61
f 61//61 50//50 22//22
f 35//35 22//22 67//67
f 23//23 28//28 25//25
f 71//71 16//16 72//72
f 21//21 68//68 65//65
f 26//26 74//74 62//62
f 74//74 31//31 62//62
f 14//14 75//75 63//63
f 75//75 18//18 63//63
f 55//55 28//28 23//23
f 80//80 54//54 79//79
f 73//73 42//42 4//4
f 79//79 41//41 58//58
f 30//30 58//58 15//15
f 33//33 6//6 29//29
f 73//73 41//41 42//42
f 48//48 77//77 76//76
f 48//48 89//89 47//47
f 32//32 48//48 76//76
f 78//78 60//60 55//55
f 34//34 55//55 56//56
f 43//43 60//60 78//78
f 76//76 77//77 11//11
f 78//78 34//34 70//70
f 13//13 29//29 39//39
f 70//70 9//9 78//78
f 78//78 9//9 43//43
f 38//38 5//5 60//60
f 59//59 71//71 46//46
f 82//82 62//62 31//31
f 45//45 13//13 44//44
f 59//59 13//13 45//45
f 48//48 32//32 33//33
f 80//80 30//30 1//1
f 21//21 27//27 64//64
f 68//68 41//41 73//73
f 56//56 35//35 64//64
f 40//40 81//81 22//22
f 56//56 64//64 34//34
f 82//82 83//83 62//62
f 27//27 63//63 18//18
f 67//67 84//84 64//64
f 81//81 67//67 22//22
f 83//83 24//24 26//26
f 80//80 79//79 30//30
f 33//33 29//29 7//7
f 82//82 16//16 83//83
f 65//65 68//68 73//73
f 37//37 88//88 25//25
f 86//86 33//33 7//7
f 17//17 56//56 23//23
f 57//57 50//50 61//61
f 2//2 84//84 67//67
f 21//21 84//84 68//68
f 82//82 31//31 50//50
f 84//84 21//21 64//64
f 85//85 23//23 25//25
f 33//33 86//86 48//48
f 37//37 5//5 89//89
f 61//61 17//17 85//85
f 85//85 57//57 61//61
f 87//87 63//63 65//65
f 72//72 88//88 7//7
f 19//19 87//87 52//52
f 88//88 86//86 7//7
f 25//25 28//28 37//37
f 25//25 88//88 72//72
f 37//37 89//89 86//86
f 25//25 72//72 16//16
f 85//85 25//25 16//16
f 36//36 87//87 65//65
f 36//36 65//65 73//73
# 143 faces, 0 coords texture

# End of File
