####
#
# OBJ File Generated by Meshlab
#
####
# Object 1416S.obj
#
# Vertices: 15
# Faces: 16
#
####
vn -2.153767 0.020153 -1.404025
v 74.753550 -6.514905 41.022350
vn -0.718214 0.002488 -0.477227
v 74.798925 1.434085 41.048500
vn -2.626082 0.023138 -1.723837
v 74.766700 -4.580530 41.029800
vn -2.633808 0.021525 -1.712251
v 74.782200 -2.092850 41.038850
vn -2.585889 0.023235 -1.696799
v 74.548200 -4.786960 41.359800
vn -2.486344 0.020233 -1.614674
v 74.402750 -1.924840 41.624850
vn -2.630961 0.024132 -1.716865
v 74.773600 -3.487720 41.033900
vn -5.265475 0.046525 -3.427976
v 74.609452 -2.768912 41.295133
vn -2.622432 0.024237 -1.709673
v 74.475000 -3.426510 41.492600
vn -5.255060 0.049319 -3.443840
v 74.693237 -5.615488 41.127780
vn -0.611409 0.005744 -0.399398
v 74.701400 -6.660820 41.100250
vn -2.637214 0.017806 -1.707053
v 74.790100 -0.574261 41.043400
vn -5.259430 0.020965 -3.437428
v 74.665346 0.288845 41.243561
vn -2.572309 0.017597 -1.665357
v 74.466000 -0.605447 41.544300
vn -2.023405 0.005184 -1.351599
v 74.618850 1.157596 41.316500
# 15 vertices, 0 vertices normals

f 4//4 7//7 8//8
f 8//8 7//7 9//9
f 3//3 1//1 10//10
f 10//10 1//1 11//11
f 2//2 12//12 13//13
f 13//13 12//12 14//14
f 7//7 5//5 9//9
f 5//5 7//7 3//3
f 4//4 8//8 6//6
f 9//9 6//6 8//8
f 3//3 10//10 5//5
f 11//11 5//5 10//10
f 12//12 6//6 14//14
f 6//6 12//12 4//4
f 2//2 13//13 15//15
f 14//14 15//15 13//13
# 16 faces, 0 coords texture

# End of File
