####
#
# OBJ File Generated by Meshlab
#
####
# Object 1439S.obj
#
# Vertices: 33
# Faces: 48
#
####
vn 5.004481 0.064295 -3.798397
v -59.002841 -11.172099 62.841998
vn 5.002205 0.067415 -3.801533
v -59.742741 -9.242739 61.891060
vn 5.005634 0.082910 -3.796719
v -59.921791 -4.987636 61.747126
vn 5.023834 0.088118 -3.772460
v -62.217334 -7.299335 58.664560
vn 2.180800 0.033313 -1.644617
v -61.372851 -12.860538 59.668981
vn 2.152291 0.033558 -1.616922
v -62.580049 -4.429219 58.249470
vn 2.178060 0.031456 -1.659805
v -58.511700 -12.385300 63.463500
vn 2.242372 0.030838 -1.697937
v -60.399200 -13.212800 60.948900
vn 2.281693 0.034379 -1.720774
v -59.434200 -13.030800 62.228650
vn 2.100859 0.032538 -1.604676
v -57.231200 -7.441280 65.216950
vn 2.194524 0.034752 -1.661761
v -60.151600 -2.983720 61.485200
vn 2.115471 0.037205 -1.611550
v -58.695687 -3.807502 63.387614
vn 2.161855 0.039976 -1.615344
v -63.331650 -6.380565 57.195500
vn 2.199963 0.038360 -1.641964
v -63.471950 -8.275120 56.959850
vn 2.199370 0.034405 -1.641494
v -63.164350 -10.138065 57.331800
vn 4.993822 0.055274 -3.812744
v -58.482105 -9.495908 63.543915
vn 2.210712 0.028937 -1.690907
v -57.344850 -9.537780 65.029250
vn 5.012743 0.083125 -3.787172
v -61.930426 -5.299668 59.096119
vn 5.012318 0.073001 -3.788059
v -60.114817 -11.395505 61.355976
vn 5.008179 0.079154 -3.793445
v -60.871692 -9.895400 60.390920
vn 2.247128 0.025954 -1.723913
v -57.851550 -11.256650 64.339550
vn 4.998688 0.083711 -3.805843
v -59.947402 -6.976252 61.668052
vn 5.004953 0.082099 -3.797639
v -61.033373 -6.204687 60.253009
vn 5.009067 0.078930 -3.792261
v -61.022425 -8.139152 60.230066
vn 4.995064 0.092727 -3.810388
v -58.888464 -6.003895 63.081650
vn 2.122063 0.031259 -1.608699
v -61.227150 -3.086275 60.061550
vn 5.005186 0.077495 -3.797420
v -60.850103 -4.530983 60.528929
vn 2.205891 0.039200 -1.688206
v -57.774780 -5.375448 64.550961
vn 5.025665 0.081321 -3.770187
v -62.122422 -9.497150 58.741270
vn 5.014433 0.075838 -3.785220
v -61.284572 -11.383555 59.815958
vn 2.278278 0.035705 -1.706361
v -62.550750 -11.458950 58.127350
vn 4.995565 0.077084 -3.810079
v -58.100783 -7.667516 64.073896
vn 4.996593 0.077513 -3.808609
v -59.024889 -7.845339 62.853196
# 33 vertices, 0 vertices normals

f 30//30 8//8 5//5
f 24//24 20//20 29//29
f 23//23 18//18 27//27
f 23//23 22//22 24//24
f 22//22 23//23 3//3
f 19//19 9//9 8//8
f 13//13 4//4 14//14
f 16//16 17//17 21//21
f 30//30 19//19 8//8
f 16//16 21//21 1//1
f 19//19 20//20 2//2
f 21//21 7//7 1//1
f 18//18 6//6 26//26
f 16//16 32//32 17//17
f 2//2 16//16 1//1
f 2//2 22//22 33//33
f 1//1 19//19 2//2
f 4//4 24//24 29//29
f 24//24 2//2 20//20
f 28//28 25//25 12//12
f 26//26 27//27 18//18
f 3//3 27//27 11//11
f 26//26 11//11 27//27
f 23//23 4//4 18//18
f 4//4 23//23 24//24
f 24//24 22//22 2//2
f 3//3 23//23 27//27
f 10//10 32//32 28//28
f 12//12 3//3 11//11
f 25//25 3//3 12//12
f 1//1 7//7 9//9
f 19//19 1//1 9//9
f 4//4 13//13 18//18
f 6//6 18//18 13//13
f 30//30 29//29 20//20
f 30//30 20//20 19//19
f 31//31 30//30 5//5
f 31//31 29//29 30//30
f 31//31 15//15 29//29
f 14//14 29//29 15//15
f 22//22 3//3 25//25
f 4//4 29//29 14//14
f 2//2 33//33 16//16
f 32//32 25//25 28//28
f 25//25 32//32 33//33
f 32//32 10//10 17//17
f 33//33 22//22 25//25
f 33//33 32//32 16//16
# 48 faces, 0 coords texture

# End of File
