####
#
# OBJ File Generated by Meshlab
#
####
# Object 1443S.obj
#
# Vertices: 12
# Faces: 12
#
####
vn 2.488343 0.026868 -1.595539
v -74.679200 3.370960 40.979300
vn 0.267675 0.001909 -0.174359
v -74.609000 -1.193930 41.024200
vn 2.635353 0.025501 -1.709655
v -74.662600 0.874736 40.969700
vn 2.429389 0.024072 -1.577310
v -74.368400 1.008000 41.425000
vn 2.479620 0.025301 -1.592275
v -74.490200 3.248790 41.272000
vn 0.401885 0.004822 -0.257490
v -74.620100 4.009500 41.083500
vn 2.574992 0.025065 -1.677676
v -74.655600 -0.113892 40.965800
vn 5.265109 0.039254 -3.428526
v -74.575092 -0.478076 41.084093
vn 2.564036 0.025287 -1.668561
v -74.464300 -0.115714 41.259500
vn 2.638748 0.025322 -1.704691
v -74.670900 2.122850 40.974500
vn 5.273264 0.050338 -3.415923
v -74.532753 1.553394 41.180137
vn 2.620206 0.025854 -1.694744
v -74.425300 2.174650 41.355200
# 12 vertices, 0 vertices normals

f 2//2 7//7 8//8
f 8//8 7//7 9//9
f 3//3 10//10 11//11
f 11//11 10//10 12//12
f 1//1 6//6 5//5
f 7//7 4//4 9//9
f 4//4 7//7 3//3
f 9//9 2//2 8//8
f 10//10 5//5 12//12
f 5//5 10//10 1//1
f 3//3 11//11 4//4
f 12//12 4//4 11//11
# 12 faces, 0 coords texture

# End of File
