####
#
# OBJ File Generated by Meshlab
#
####
# Object 1481S.obj
#
# Vertices: 31
# Faces: 45
#
####
vn 5.045985 0.065778 -3.743271
v -63.197406 2.088882 60.599735
vn 5.026613 0.055619 -3.769405
v -60.965411 7.149829 63.683078
vn 5.044615 0.066842 -3.745053
v -62.858500 3.461233 61.084790
vn 5.034746 0.047487 -3.758627
v -61.683787 8.688871 62.745294
vn 2.227392 0.026127 -1.673066
v -60.026900 7.185700 64.933100
vn 2.176962 0.026793 -1.627535
v -61.023471 2.043995 63.517178
vn 2.141137 0.028532 -1.605990
v -60.169650 3.819275 64.686900
vn 2.226327 0.027629 -1.673560
v -59.909100 5.889295 65.068150
vn 2.098859 0.026177 -1.558591
v -62.986400 0.813545 60.861700
vn 2.203437 0.021322 -1.652436
v -60.632767 9.026862 64.151881
vn 2.391090 0.025919 -1.770990
v -63.956950 1.332050 59.565750
vn 2.117186 0.022808 -1.547580
v -65.734983 6.578596 57.219316
vn 2.159542 0.020264 -1.588869
v -65.618876 4.252215 57.350099
vn 1.594735 0.017859 -1.184259
v -62.616100 11.711700 61.533500
vn 2.078492 0.021349 -1.531542
v -64.849000 2.102680 58.365900
vn 2.370279 0.026031 -1.750847
v -63.875650 10.606300 59.816200
vn 5.041397 0.054975 -3.749578
v -62.218091 7.253295 62.009706
vn 5.056018 0.059423 -3.729815
v -63.959464 3.086191 59.586363
vn 2.167665 0.022314 -1.590191
v -65.082239 8.964579 58.149171
vn 5.040890 0.064970 -3.750146
v -62.344732 5.223550 61.802985
vn 5.050386 0.056807 -3.737458
v -63.220552 6.509920 60.645955
vn 5.055290 0.063126 -3.730718
v -63.662948 4.910721 60.021706
vn 5.039612 0.063672 -3.751881
v -62.291135 2.110949 61.820567
vn 2.323521 0.024733 -1.727826
v -62.094700 1.145130 62.070900
vn 2.507377 0.025254 -1.868477
v -61.852800 10.696050 62.542900
vn 5.065607 0.055873 -3.716788
v -64.457950 6.548595 58.968999
vn 5.063547 0.056723 -3.719629
v -64.793853 4.524436 58.474916
vn 5.054917 0.049635 -3.731449
v -63.599639 8.181517 60.154492
vn 5.033112 0.067699 -3.760531
v -61.582062 3.627514 62.797434
vn 5.046277 0.050315 -3.743122
v -62.671323 9.389453 61.424116
vn 5.030016 0.065176 -3.764680
v -61.205313 5.541412 63.338624
# 31 vertices, 0 vertices normals

f 1//1 9//9 11//11
f 23//23 29//29 6//6
f 3//3 20//20 29//29
f 2//2 4//4 10//10
f 5//5 2//2 10//10
f 11//11 18//18 1//1
f 3//3 18//18 22//22
f 19//19 26//26 12//12
f 19//19 16//16 28//28
f 31//31 8//8 7//7
f 13//13 12//12 27//27
f 6//6 24//24 23//23
f 1//1 3//3 23//23
f 24//24 9//9 23//23
f 31//31 7//7 29//29
f 25//25 4//4 30//30
f 25//25 10//10 4//4
f 31//31 29//29 20//20
f 18//18 11//11 15//15
f 21//21 20//20 22//22
f 20//20 3//3 22//22
f 13//13 27//27 15//15
f 3//3 1//1 18//18
f 22//22 18//18 27//27
f 26//26 22//22 27//27
f 26//26 19//19 28//28
f 21//21 17//17 20//20
f 2//2 8//8 31//31
f 28//28 16//16 30//30
f 22//22 26//26 21//21
f 1//1 23//23 9//9
f 3//3 29//29 23//23
f 4//4 2//2 17//17
f 26//26 28//28 21//21
f 12//12 26//26 27//27
f 5//5 8//8 2//2
f 30//30 14//14 25//25
f 29//29 7//7 6//6
f 27//27 18//18 15//15
f 30//30 16//16 14//14
f 30//30 17//17 28//28
f 21//21 28//28 17//17
f 30//30 4//4 17//17
f 31//31 17//17 2//2
f 31//31 20//20 17//17
# 45 faces, 0 coords texture

# End of File
