####
#
# OBJ File Generated by Meshlab
#
####
# Object 149.obj
#
# Vertices: 65
# Faces: 101
#
####
vn 1.781544 0.022234 -2.587106
v -26.688350 38.000000 35.518900
vn 1.681534 0.025364 -2.653472
v -24.632800 38.000000 36.868900
vn 1.829461 -0.016220 -2.553279
v -26.744150 50.000000 35.512650
vn 3.327872 0.020116 -5.328537
v -24.162560 48.230859 37.237249
vn 1.596287 0.032596 -2.699879
v -21.694700 49.118800 38.718000
vn 0.812756 0.019000 -1.367476
v -21.715300 50.000000 38.718000
vn 1.611657 0.026780 -2.688719
v -21.614200 40.299000 38.718000
vn 3.953907 0.024968 -4.881331
v -30.527856 45.220691 32.649288
vn 3.724851 -0.006603 -5.059408
v -27.621614 46.544139 34.871912
vn 3.810899 -0.018721 -4.995452
v -28.994052 48.104766 33.827147
vn 4.017920 0.035494 -4.829859
v -31.049019 42.983540 32.196317
vn 2.039325 0.011218 -2.393833
v -32.778450 42.390100 30.718000
vn 2.048085 0.015117 -2.385885
v -32.791000 44.696850 30.718000
vn 1.014456 -0.003204 -1.197376
v -32.778800 38.000000 30.718000
vn 4.030227 0.028656 -4.820069
v -31.453076 40.938853 31.839288
vn 1.605508 0.000242 -2.704858
v -21.664500 45.127900 38.718000
vn 3.452167 0.045097 -5.249127
v -25.445182 39.489432 36.360116
vn 1.699458 -0.016052 -2.641799
v -24.765500 50.000000 36.853450
vn 1.622254 0.016722 -2.689972
v -22.835100 50.000000 38.052450
vn 1.635234 -0.002962 -2.682250
v -23.198700 38.000000 37.760800
vn 0.800209 0.005595 -1.339934
v -21.587200 38.000000 38.718000
vn 1.010256 0.019878 -1.176009
v -32.886400 50.000000 30.718000
vn 1.630373 0.018053 -2.704354
v -21.665000 42.958625 38.718000
vn 3.912632 0.006129 -4.915586
v -30.566307 47.399778 32.615285
vn 3.662724 0.000850 -5.104461
v -27.169424 44.303831 35.202572
vn 3.598910 -0.008527 -5.148809
v -26.844835 42.370613 35.440611
vn 3.714505 -0.007892 -5.066669
v -27.206893 48.502411 35.178142
vn 3.336323 0.035702 -5.323029
v -24.390281 40.553077 37.047833
vn 4.063280 0.057068 -4.791633
v -31.813398 46.679622 31.584064
vn 3.807398 -0.003058 -4.997481
v -28.821380 44.907321 33.979898
vn 3.521912 0.019366 -5.200495
v -25.789189 47.310785 36.187812
vn 1.897412 -0.006092 -2.503869
v -28.649100 50.000000 34.082750
vn 1.926572 0.029004 -2.480593
v -30.331750 50.000000 32.811350
vn 4.080481 0.038860 -4.777687
v -31.975312 44.629322 31.417773
vn 2.061437 0.030632 -2.378732
v -32.806900 46.432800 30.718000
vn 1.575722 0.006927 -2.695372
v -21.653796 46.922655 38.714298
vn 1.956267 0.005940 -2.457892
v -29.570000 38.000000 33.373650
vn 3.974048 0.011801 -4.866657
v -30.444601 39.532574 32.659064
vn 3.872834 0.022151 -4.947245
v -30.426224 49.035112 32.726694
vn 3.265887 0.026300 -5.367415
v -22.944624 44.413656 37.952889
vn 3.924158 0.021828 -4.906092
v -29.699876 41.502457 33.289756
vn 2.002809 0.022709 -2.419579
v -31.987150 50.000000 31.483550
vn 3.507448 0.030976 -5.210445
v -25.849084 45.319503 36.136014
vn 3.332005 0.043029 -5.326479
v -24.302474 45.973776 37.126294
vn 3.341423 0.031726 -5.320823
v -24.370546 43.736120 37.063892
vn 3.831071 -0.025829 -4.979825
v -29.359649 46.522872 33.557184
vn 3.891527 0.024021 -4.932744
v -29.666163 43.523766 33.314343
vn 3.519153 0.042764 -5.204055
v -26.344649 40.916730 35.774988
vn 3.738213 0.019480 -5.047256
v -27.967521 41.049142 34.638604
vn 2.031698 0.000155 -2.399408
v -32.775205 39.887074 30.718000
vn 2.064724 0.045209 -2.376631
v -32.836450 48.128650 30.718000
vn 1.619639 0.028397 -2.692561
v -21.634800 41.350800 38.718000
vn 3.784920 -0.012976 -5.014677
v -28.323424 42.943426 34.355018
vn 1.876773 0.025600 -2.519209
v -28.165200 38.000000 34.452100
vn 2.006028 -0.014747 -2.417347
v -31.393250 38.000000 31.893800
vn 4.035096 -0.009374 -4.816142
v -31.806438 39.299932 31.538339
vn 3.639814 0.049634 -5.120117
v -27.274366 39.428024 35.117449
vn 3.513368 -0.027070 -5.207110
v -25.656574 48.878898 36.274986
vn 4.023809 0.059623 -4.823740
v -31.842125 48.548987 31.590562
vn 3.851757 0.041555 -4.962767
v -28.886414 39.555494 33.920552
vn 3.220426 0.024147 -5.394791
v -22.877279 46.570004 38.001271
vn 3.265592 0.037071 -5.367686
v -22.987446 42.097431 37.910708
vn 3.457833 0.017024 -5.245430
v -25.682090 42.963505 36.223454
vn 3.247660 0.038149 -5.378590
v -22.908675 39.666545 37.935773
vn 3.245398 0.025548 -5.379580
v -23.222333 48.728906 37.812495
# 65 vertices, 0 vertices normals

f 19//19 5//5 65//65
f 20//20 2//2 64//64
f 16//16 23//23 40//40
f 39//39 59//59 42//42
f 39//39 10//10 24//24
f 19//19 6//6 5//5
f 31//31 43//43 9//9
f 60//60 57//57 54//54
f 44//44 45//45 43//43
f 47//47 41//41 11//11
f 41//41 53//53 49//49
f 63//63 26//26 25//25
f 8//8 24//24 46//46
f 3//3 18//18 58//58
f 5//5 36//36 65//65
f 8//8 34//34 29//29
f 13//13 35//35 34//34
f 27//27 3//3 58//58
f 11//11 15//15 12//12
f 32//32 3//3 27//27
f 34//34 8//8 11//11
f 8//8 29//29 24//24
f 33//33 32//32 39//39
f 12//12 13//13 34//34
f 65//65 36//36 61//61
f 34//34 35//35 29//29
f 35//35 51//51 29//29
f 51//51 59//59 29//29
f 59//59 24//24 29//29
f 36//36 16//16 61//61
f 40//40 61//61 16//16
f 4//4 31//31 58//58
f 37//37 55//55 38//38
f 2//2 17//17 28//28
f 33//33 39//39 42//42
f 39//39 24//24 59//59
f 9//9 43//43 25//25
f 25//25 43//43 63//63
f 44//44 31//31 4//4
f 44//44 40//40 45//45
f 47//47 8//8 30//30
f 50//50 12//12 15//15
f 51//51 22//22 59//59
f 62//62 40//40 23//23
f 23//23 52//52 62//62
f 52//52 7//7 64//64
f 2//2 1//1 17//17
f 48//48 17//17 57//57
f 27//27 31//31 9//9
f 34//34 11//11 12//12
f 1//1 57//57 17//17
f 17//17 48//48 28//28
f 24//24 10//10 46//46
f 10//10 9//9 46//46
f 30//30 9//9 25//25
f 27//27 58//58 31//31
f 48//48 57//57 49//49
f 48//48 49//49 26//26
f 25//25 53//53 30//30
f 30//30 53//53 47//47
f 9//9 30//30 46//46
f 28//28 63//63 45//45
f 62//62 45//45 40//40
f 31//31 44//44 43//43
f 43//43 45//45 63//63
f 8//8 47//47 11//11
f 11//11 41//41 15//15
f 60//60 41//41 49//49
f 41//41 47//47 53//53
f 49//49 53//53 26//26
f 38//38 15//15 41//41
f 26//26 53//53 25//25
f 55//55 14//14 56//56
f 55//55 56//56 38//38
f 56//56 14//14 50//50
f 15//15 56//56 50//50
f 60//60 54//54 37//37
f 32//32 10//10 39//39
f 57//57 1//1 54//54
f 38//38 56//56 15//15
f 42//42 59//59 22//22
f 60//60 37//37 38//38
f 49//49 57//57 60//60
f 18//18 4//4 58//58
f 61//61 40//40 44//44
f 60//60 38//38 41//41
f 65//65 61//61 4//4
f 30//30 8//8 46//46
f 10//10 27//27 9//9
f 10//10 32//32 27//27
f 28//28 45//45 62//62
f 18//18 65//65 4//4
f 4//4 61//61 44//44
f 28//28 62//62 64//64
f 28//28 48//48 63//63
f 26//26 63//63 48//48
f 21//21 20//20 64//64
f 64//64 62//62 52//52
f 21//21 64//64 7//7
f 2//2 28//28 64//64
f 19//19 65//65 18//18
# 101 faces, 0 coords texture

# End of File
