####
#
# OBJ File Generated by Meshlab
#
####
# Object 1508S.obj
#
# Vertices: 62
# Faces: 96
#
####
vn -5.073575 -0.091683 -3.705234
v 65.401774 28.898030 61.507304
vn -5.066955 -0.070336 -3.714708
v 65.448774 25.886203 61.511184
vn -2.256576 -0.005432 -1.683729
v 62.090650 17.680850 66.131100
vn -2.582558 -0.029588 -1.874757
v 68.087600 22.730100 57.937400
vn -2.183422 -0.055814 -1.580892
v 66.080200 33.603500 60.427850
vn -2.171468 -0.001054 -1.594848
v 65.225650 15.531750 61.906450
vn -2.416287 -0.040407 -1.788173
v 63.252400 28.727500 64.435800
vn -2.209860 -0.046741 -1.617655
v 64.061400 32.000650 63.257300
vn -2.619964 -0.035766 -1.901917
v 68.500650 24.776200 57.330100
vn -2.592914 -0.021322 -1.929883
v 62.008800 23.237700 66.196900
vn -2.133326 -0.015339 -1.587823
v 61.672100 22.450300 66.658800
vn -2.336513 -0.013698 -1.743408
v 61.571802 21.258322 66.802197
vn -2.123203 -0.053514 -1.530635
v 67.170900 33.231000 58.931000
vn -2.222897 0.002104 -1.654157
v 62.971900 16.225650 64.947000
vn -2.154135 0.001780 -1.596637
v 64.072050 15.429350 63.466400
vn -2.288210 -0.042048 -1.686668
v 63.398800 29.949750 64.210250
vn -2.153444 -0.050083 -1.545272
v 68.957600 29.641400 56.568550
vn -2.355280 -0.037897 -1.702344
v 68.822900 25.978500 56.863500
vn -2.271746 -0.056402 -1.632877
v 68.308712 31.555773 57.406530
vn -2.175563 -0.006069 -1.592848
v 67.228850 18.053950 59.162300
vn -5.084810 -0.059348 -3.690461
v 67.096649 23.375975 59.292654
vn -5.059302 -0.043428 -3.725574
v 65.225688 22.870179 61.858900
vn -5.069582 -0.058843 -3.711286
v 65.871156 24.221419 60.964718
vn -5.099121 -0.114424 -3.669337
v 67.995302 29.259148 57.921968
vn -5.051236 -0.050437 -3.736320
v 63.530051 24.719741 64.138337
vn -2.575603 -0.025216 -1.919024
v 62.599210 24.923300 65.384983
vn -5.060830 -0.082901 -3.722777
v 64.125106 28.382505 63.264343
vn -5.058956 -0.051087 -3.725956
v 64.509736 24.075333 62.813519
vn -5.035066 -0.027735 -3.758421
v 62.365481 19.827235 65.750499
vn -5.070990 -0.043739 -3.709592
v 66.172525 22.653161 60.574007
vn -5.066621 -0.032457 -3.715731
v 65.666711 20.937411 61.277205
vn -5.060178 -0.030847 -3.724350
v 64.582928 19.652187 62.772856
vn -5.090096 -0.125489 -3.681509
v 66.379940 32.062534 60.067762
vn -2.836659 -0.038803 -2.096436
v 63.184678 26.917816 64.568032
vn -5.072822 -0.011962 -3.707380
v 65.962124 17.332356 60.891824
vn -5.083267 -0.069573 -3.692400
v 66.732220 25.545439 59.757347
vn -5.047966 -0.041069 -3.740932
v 63.487996 23.030168 64.212411
vn -5.077509 -0.039144 -3.700725
v 66.886455 21.368877 59.610300
vn -2.559244 -0.023068 -1.857269
v 67.879400 21.521700 58.239400
vn -5.080260 -0.120594 -3.695213
v 65.310903 32.021034 61.544127
vn -5.061169 -0.065628 -3.722716
v 64.276787 26.308205 63.096651
vn -5.067692 -0.079674 -3.713560
v 65.035275 27.380516 62.042460
vn -5.069557 -0.099920 -3.710490
v 64.676157 30.382552 62.463104
vn -5.076591 -0.083750 -3.701275
v 66.155190 27.321105 60.513628
vn -5.082515 -0.111078 -3.692405
v 65.934191 30.594898 60.731379
vn -5.090624 -0.086310 -3.681833
v 67.626669 27.111856 58.494183
vn -2.371892 -0.048953 -1.705025
v 69.003505 27.645655 56.565515
vn -5.087357 -0.066639 -3.686833
v 67.840795 24.990344 58.235049
vn -2.210804 -0.054980 -1.609384
v 64.879000 33.084500 62.101100
vn -5.038389 -0.035917 -3.753897
v 62.307130 21.765810 65.812216
vn -5.055976 -0.044898 -3.730070
v 64.336883 21.802171 63.077663
vn -2.208209 -0.010398 -1.648606
v 61.688700 19.003700 66.662200
vn -2.317188 -0.005191 -1.696156
v 66.300656 16.528898 60.431801
vn -5.047432 0.003831 -3.741894
v 64.067565 16.633615 63.473794
vn -5.069484 -0.021818 -3.711875
v 66.677648 19.784226 59.908511
vn -2.473911 -0.013912 -1.800951
v 67.598550 19.764800 58.645700
vn -5.042012 -0.036823 -3.749007
v 63.326775 20.727520 64.453963
vn -5.071378 -0.017753 -3.709330
v 65.862269 18.870963 61.022352
vn -5.042280 -0.013071 -3.748741
v 63.522099 18.449046 64.210737
vn -5.085675 -0.103924 -3.688239
v 66.715527 29.063243 59.700695
vn -5.095029 -0.122780 -3.674767
v 67.118224 30.958950 59.082770
vn -5.065058 -0.007960 -3.717891
v 64.915360 17.615305 62.328574
# 62 vertices, 0 vertices normals

f 50//50 11//11 10//10
f 50//50 12//12 11//11
f 38//38 21//21 39//39
f 60//60 45//45 61//61
f 30//30 21//21 38//38
f 23//23 22//22 28//28
f 52//52 29//29 3//3
f 33//33 5//5 13//13
f 25//25 26//26 34//34
f 42//42 27//27 1//1
f 25//25 41//41 28//28
f 32//32 62//62 59//59
f 25//25 28//28 37//37
f 22//22 23//23 30//30
f 30//30 23//23 21//21
f 31//31 38//38 55//55
f 27//27 34//34 7//7
f 32//32 57//57 51//51
f 6//6 62//62 35//35
f 21//21 48//48 4//4
f 2//2 36//36 23//23
f 23//23 36//36 21//21
f 36//36 48//48 21//21
f 33//33 13//13 61//61
f 19//19 61//61 13//13
f 59//59 54//54 14//14
f 54//54 15//15 14//14
f 4//4 39//39 21//21
f 55//55 38//38 56//56
f 39//39 56//56 38//38
f 33//33 45//45 40//40
f 5//5 33//33 40//40
f 45//45 43//43 40//40
f 16//16 43//43 27//27
f 43//43 16//16 8//8
f 28//28 2//2 23//23
f 59//59 29//29 57//57
f 44//44 46//46 36//36
f 44//44 36//36 2//2
f 42//42 2//2 41//41
f 2//2 28//28 41//41
f 1//1 27//27 43//43
f 1//1 44//44 42//42
f 44//44 2//2 42//42
f 43//43 8//8 40//40
f 49//49 40//40 8//8
f 34//34 27//27 41//41
f 41//41 27//27 42//42
f 24//24 17//17 47//47
f 47//47 18//18 46//46
f 46//46 24//24 47//47
f 48//48 18//18 9//9
f 18//18 48//48 46//46
f 49//49 5//5 40//40
f 10//10 26//26 25//25
f 50//50 10//10 37//37
f 31//31 32//32 51//51
f 29//29 52//52 12//12
f 43//43 45//45 1//1
f 53//53 6//6 35//35
f 24//24 19//19 17//17
f 16//16 27//27 7//7
f 54//54 59//59 62//62
f 10//10 25//25 37//37
f 57//57 37//37 51//51
f 53//53 35//35 20//20
f 58//58 55//55 20//20
f 24//24 60//60 61//61
f 19//19 24//24 61//61
f 24//24 46//46 60//60
f 56//56 20//20 55//55
f 31//31 55//55 58//58
f 12//12 50//50 29//29
f 31//31 22//22 30//30
f 22//22 31//31 51//51
f 22//22 51//51 28//28
f 4//4 48//48 9//9
f 3//3 59//59 14//14
f 29//29 50//50 57//57
f 37//37 57//57 50//50
f 31//31 30//30 38//38
f 41//41 25//25 34//34
f 32//32 58//58 62//62
f 58//58 32//32 31//31
f 59//59 57//57 32//32
f 1//1 60//60 44//44
f 45//45 60//60 1//1
f 60//60 46//46 44//44
f 35//35 58//58 20//20
f 46//46 48//48 36//36
f 61//61 45//45 33//33
f 3//3 29//29 59//59
f 62//62 58//58 35//35
f 54//54 62//62 6//6
f 54//54 6//6 15//15
f 37//37 28//28 51//51
# 96 faces, 0 coords texture

# End of File
