####
#
# OBJ File Generated by Meshlab
#
####
# Object 1510S.obj
#
# Vertices: 63
# Faces: 94
#
####
vn -5.060706 0.055568 -3.723512
v 66.762855 -2.696335 59.680213
vn -5.026882 0.027865 -3.769318
v 62.339354 8.856891 65.770705
vn -5.022003 0.032679 -3.775822
v 62.118598 6.853812 66.044169
vn -5.036348 0.059031 -3.756314
v 64.252219 -6.372579 63.013005
vn -5.029849 0.048550 -3.765179
v 64.215641 -1.401102 63.137570
vn -5.026378 0.062780 -3.769601
v 63.396958 -4.952215 64.177813
vn -2.241635 0.025089 -1.646061
v 67.229528 -0.517279 59.076700
vn -3.351585 0.028073 -2.495046
v 65.698700 1.721500 61.190100
vn -2.174357 0.028020 -1.636347
v 62.155900 -5.056945 65.824700
vn -2.110677 0.010461 -1.582548
v 61.528650 10.194815 66.860050
vn -3.241498 0.041031 -2.417085
v 63.394300 2.932870 64.296800
vn -3.176128 0.016393 -2.363082
v 65.712800 3.598980 61.188400
vn -2.089980 0.014485 -1.574123
v 61.194500 7.859910 67.280200
vn -2.143388 0.023416 -1.574154
v 67.686824 -2.665549 58.422583
vn -2.275264 0.025102 -1.675796
v 66.512850 0.896049 60.076050
vn -2.159243 0.025718 -1.622566
v 62.810050 -6.659925 64.930100
vn -3.154523 0.035032 -2.352611
v 63.463100 1.433550 64.178100
vn -2.280284 0.022837 -1.708034
v 62.521550 -0.395068 65.409600
vn -1.928151 0.001282 -1.428059
v 64.305500 13.370500 63.154300
vn -2.502393 0.020643 -1.880546
v 61.919600 5.055340 66.292200
vn -2.163120 0.014571 -1.622707
v 61.595000 5.657500 66.731400
vn -2.316927 0.025157 -1.738570
v 62.622500 3.779235 65.339550
vn -2.231773 0.011688 -1.637199
v 66.901750 6.213995 59.581800
vn -2.287597 0.012848 -1.680322
v 67.099000 7.889365 59.330600
vn -2.221609 0.007793 -1.662127
v 62.526368 12.050223 65.535337
vn -2.374355 0.000171 -1.772165
v 63.716600 13.070300 63.944900
vn -2.181448 0.009559 -1.598884
v 66.984450 9.618870 59.494050
vn -2.036273 0.023014 -1.528441
v 61.909700 -2.680950 66.195000
vn -5.055554 0.058567 -3.730422
v 66.361951 -4.692667 60.196764
vn -2.211871 0.027533 -1.630080
v 66.927900 -6.378065 59.399250
vn -5.035541 0.047792 -3.757525
v 64.911657 0.003550 62.226691
vn -5.050394 0.044212 -3.737621
v 64.888154 4.600911 62.304711
vn -5.023222 0.058897 -3.773872
v 62.836060 -3.436053 64.949572
vn -5.042667 0.060209 -3.747829
v 64.895640 -4.587958 62.175882
vn -5.030639 0.019332 -3.764396
v 62.774050 10.647352 65.195929
vn -5.044718 0.059386 -3.745068
v 65.082429 -2.075710 61.965617
vn -2.318625 0.008932 -1.710157
v 66.218400 4.386155 60.507900
vn -5.045577 0.036273 -3.744096
v 64.048729 6.025373 63.463461
vn -2.209388 0.028028 -1.639565
v 64.960700 -7.947030 62.032300
vn -5.040601 0.054914 -3.750613
v 63.727018 4.236156 63.872978
vn -2.317695 0.002819 -1.704475
v 65.587050 12.335500 61.413800
vn -5.060890 0.024898 -3.723564
v 65.307338 9.889338 61.785970
vn -5.031107 0.056415 -3.763357
v 63.888285 -3.060197 63.553924
vn -5.067642 0.026657 -3.714388
v 66.154687 9.387431 60.624759
vn -5.037708 0.047833 -3.754653
v 64.458102 2.320042 62.855405
vn -5.025720 0.039599 -3.770764
v 62.891273 5.578351 65.006892
vn -5.026178 0.047487 -3.770104
v 63.169127 -1.730769 64.527909
vn -2.201574 0.024647 -1.616298
v 67.515250 -4.745205 58.624850
vn -2.211461 0.024817 -1.652559
v 63.857000 -7.677035 63.522300
vn -5.040077 0.023719 -3.751654
v 63.914972 10.023161 63.670848
vn -2.208444 0.026995 -1.633532
v 66.023100 -7.501330 60.606150
vn -5.054907 0.057451 -3.731328
v 65.996773 -0.528062 60.755407
vn -5.028157 0.046610 -3.767470
v 63.818869 0.091597 63.683138
vn -5.032058 0.027617 -3.762441
v 63.160888 7.502708 64.661215
vn -5.050068 0.026632 -3.738218
v 64.413076 7.898669 62.982912
vn -2.285155 0.010402 -1.675806
v 66.470500 11.047150 60.207450
vn -5.058349 0.012403 -3.727089
v 65.133919 11.318439 62.028272
vn -5.063860 0.028499 -3.719532
v 65.821881 7.753816 61.067053
vn -5.040897 0.012194 -3.750596
v 63.930164 11.627014 63.658626
vn -5.048329 0.063194 -3.740155
v 65.514046 -6.425859 61.312136
vn -5.060270 0.029883 -3.724382
v 65.483575 6.108862 61.516593
vn -5.052257 0.059510 -3.734909
v 65.854660 -2.766867 60.909199
vn -5.033662 0.025072 -3.760318
v 63.303124 9.088675 64.481751
# 63 vertices, 0 vertices normals

f 46//46 40//40 22//22
f 17//17 45//45 53//53
f 59//59 26//26 19//19
f 5//5 47//47 53//53
f 38//38 61//61 32//32
f 62//62 29//29 34//34
f 29//29 30//30 60//60
f 38//38 46//46 54//54
f 55//55 58//58 61//61
f 60//60 30//30 51//51
f 2//2 3//3 13//13
f 13//13 10//10 2//2
f 37//37 32//32 61//61
f 12//12 8//8 45//45
f 6//6 34//34 4//4
f 12//12 45//45 32//32
f 2//2 10//10 35//35
f 25//25 35//35 10//10
f 37//37 12//12 32//32
f 4//4 39//39 49//49
f 45//45 11//11 40//40
f 45//45 40//40 32//32
f 57//57 41//41 56//56
f 6//6 33//33 43//43
f 43//43 36//36 34//34
f 9//9 6//6 16//16
f 17//17 11//11 45//45
f 4//4 34//34 60//60
f 21//21 3//3 20//20
f 3//3 46//46 20//20
f 3//3 21//21 13//13
f 11//11 22//22 40//40
f 40//40 46//46 38//38
f 46//46 22//22 20//20
f 37//37 61//61 23//23
f 8//8 52//52 31//31
f 52//52 8//8 15//15
f 33//33 47//47 43//43
f 5//5 43//43 47//47
f 36//36 31//31 52//52
f 33//33 9//9 28//28
f 9//9 33//33 6//6
f 29//29 48//48 30//30
f 6//6 4//4 16//16
f 49//49 16//16 4//4
f 48//48 1//1 14//14
f 62//62 1//1 29//29
f 34//34 29//29 60//60
f 44//44 27//27 24//24
f 24//24 58//58 44//44
f 38//38 32//32 40//40
f 60//60 51//51 39//39
f 28//28 47//47 33//33
f 47//47 28//28 18//18
f 18//18 53//53 47//47
f 53//53 18//18 17//17
f 61//61 38//38 55//55
f 38//38 54//54 55//55
f 42//42 55//55 50//50
f 55//55 54//54 63//63
f 55//55 42//42 58//58
f 2//2 54//54 3//3
f 54//54 46//46 3//3
f 36//36 52//52 62//62
f 42//42 44//44 58//58
f 56//56 27//27 44//44
f 41//41 57//57 19//19
f 35//35 59//59 50//50
f 31//31 53//53 45//45
f 2//2 35//35 63//63
f 8//8 31//31 45//45
f 52//52 15//15 7//7
f 23//23 61//61 58//58
f 5//5 31//31 36//36
f 23//23 58//58 24//24
f 5//5 53//53 31//31
f 6//6 43//43 34//34
f 5//5 36//36 43//43
f 36//36 62//62 34//34
f 1//1 7//7 14//14
f 26//26 59//59 25//25
f 4//4 60//60 39//39
f 29//29 1//1 48//48
f 59//59 35//35 25//25
f 1//1 52//52 7//7
f 59//59 19//19 57//57
f 42//42 50//50 57//57
f 59//59 57//57 50//50
f 42//42 57//57 56//56
f 2//2 63//63 54//54
f 55//55 63//63 50//50
f 44//44 42//42 56//56
f 63//63 35//35 50//50
f 52//52 1//1 62//62
# 94 faces, 0 coords texture

# End of File
