####
#
# OBJ File Generated by Meshlab
#
####
# Object 1570S.obj
#
# Vertices: 33
# Faces: 47
#
####
vn 5.094244 0.070695 -3.677224
v -65.908497 -6.223507 64.032567
vn 5.088065 0.068207 -3.685781
v -65.036982 -5.061596 65.253756
vn 5.105344 0.074440 -3.661705
v -66.748148 -7.519972 62.840834
vn 2.165080 0.031351 -1.593581
v -62.024900 -6.929770 69.345600
vn 2.352353 0.028901 -1.708388
v -64.108204 -3.977557 66.557831
vn 2.216325 0.026343 -1.627462
v -63.348100 -4.406130 67.591300
vn 2.143567 0.030993 -1.529988
v -67.409900 -6.413980 61.936100
vn 2.163817 0.037373 -1.570231
v -65.365100 -3.788620 64.831900
vn 2.190987 0.029644 -1.594711
v -63.574100 -13.146955 67.101382
vn 2.173885 0.037454 -1.575832
v -64.744100 -13.563700 65.481250
vn 2.201866 0.037816 -1.575297
v -67.386350 -10.698200 61.880300
vn 2.348444 0.030466 -1.728438
v -62.770081 -5.240377 68.360949
vn 2.166244 0.038507 -1.551829
v -66.662400 -12.432700 62.844700
vn 2.358297 0.040800 -1.696796
v -66.026200 -13.005850 63.720900
vn 2.238199 0.032776 -1.641310
v -62.031300 -10.622950 69.259250
vn 2.211364 0.034244 -1.631417
v -61.808700 -8.771920 69.598100
vn 5.069236 0.081684 -3.711342
v -63.337107 -7.395784 67.552852
vn 5.076093 0.063059 -3.702267
v -63.885830 -5.458352 66.841972
vn 2.406340 0.035126 -1.726722
v -66.928500 -5.401480 62.630700
vn 2.289362 0.035254 -1.655255
v -66.221850 -4.375200 63.636400
vn 5.082361 0.082689 -3.693359
v -64.870855 -12.173417 65.339434
vn 2.263363 0.033467 -1.614891
v -67.625305 -8.556542 61.590050
vn 5.104508 0.081470 -3.662698
v -66.658711 -9.793522 62.919072
vn 5.090570 0.077864 -3.682167
v -65.633998 -8.573095 64.363985
vn 5.086406 0.076728 -3.687852
v -64.710306 -6.918214 65.679550
vn 5.075621 0.074953 -3.702731
v -64.021011 -11.083928 66.520781
vn 5.077571 0.087758 -3.699845
v -64.353874 -9.016007 66.113642
vn 5.076745 0.071541 -3.701327
v -63.028505 -11.286964 67.885456
vn 2.251238 0.029661 -1.646432
v -62.446100 -11.714600 68.674100
vn 5.061718 0.082686 -3.721628
v -62.456577 -8.650927 68.722450
vn 5.075295 0.085761 -3.703021
v -63.195867 -9.655467 67.689535
vn 5.095577 0.085741 -3.675036
v -65.774192 -10.897730 64.122250
vn 5.076902 0.078637 -3.700895
v -64.954181 -10.432786 65.265317
# 33 vertices, 0 vertices normals

f 1//1 3//3 19//19
f 1//1 20//20 2//2
f 24//24 32//32 23//23
f 13//13 32//32 14//14
f 28//28 26//26 31//31
f 4//4 30//30 17//17
f 30//30 4//4 16//16
f 7//7 19//19 3//3
f 19//19 20//20 1//1
f 2//2 20//20 8//8
f 2//2 8//8 5//5
f 22//22 7//7 3//3
f 22//22 23//23 11//11
f 13//13 23//23 32//32
f 23//23 13//13 11//11
f 1//1 24//24 3//3
f 1//1 25//25 24//24
f 12//12 17//17 18//18
f 17//17 12//12 4//4
f 3//3 23//23 22//22
f 21//21 10//10 14//14
f 31//31 30//30 15//15
f 30//30 31//31 17//17
f 10//10 21//21 9//9
f 2//2 25//25 1//1
f 3//3 24//24 23//23
f 27//27 24//24 25//25
f 32//32 21//21 14//14
f 6//6 18//18 5//5
f 15//15 28//28 31//31
f 28//28 15//15 29//29
f 29//29 9//9 28//28
f 30//30 16//16 15//15
f 25//25 2//2 18//18
f 9//9 26//26 28//28
f 12//12 18//18 6//6
f 32//32 33//33 21//21
f 25//25 17//17 27//27
f 17//17 25//25 18//18
f 18//18 2//2 5//5
f 31//31 27//27 17//17
f 31//31 26//26 27//27
f 26//26 9//9 21//21
f 27//27 33//33 24//24
f 32//32 24//24 33//33
f 26//26 33//33 27//27
f 33//33 26//26 21//21
# 47 faces, 0 coords texture

# End of File
