####
#
# OBJ File Generated by Meshlab
#
####
# Object 1593S.obj
#
# Vertices: 30
# Faces: 43
#
####
vn 5.093548 0.066563 -3.678267
v -64.690138 6.268459 67.019474
vn 5.110183 0.067406 -3.655118
v -66.208486 4.327829 64.871972
vn 5.107140 0.070131 -3.659300
v -66.244897 2.733594 64.793578
vn 5.127919 0.068388 -3.630173
v -68.251891 6.704271 62.048538
vn 5.109746 0.066069 -3.655676
v -66.859664 9.453271 64.063818
vn 5.113948 0.066871 -3.649858
v -67.307038 3.579920 63.322349
vn 2.228299 0.029727 -1.601993
v -66.053890 1.521784 65.036773
vn 2.200478 0.027326 -1.555942
v -69.218750 6.365025 60.675400
vn 2.275246 0.028806 -1.617619
v -68.315685 2.781315 61.892699
vn 2.155165 0.025779 -1.522963
v -69.020200 4.336275 60.921950
vn 2.171921 0.028499 -1.533581
v -68.867850 8.495495 61.211550
vn 2.174280 0.030121 -1.560553
v -64.210444 8.973006 67.741286
vn 2.218745 0.025429 -1.571940
v -68.009186 10.038476 62.453955
vn 2.178498 0.029868 -1.570343
v -65.672200 10.869200 65.737100
vn 2.223137 0.039760 -1.620562
v -64.258631 3.352688 67.552396
vn 2.431623 0.030890 -1.747474
v -65.231400 10.414200 66.341000
vn 2.180026 0.029250 -1.556232
v -67.359300 1.749030 63.215200
vn 2.193129 0.035164 -1.580266
v -63.700450 7.050130 68.409550
vn 5.091398 0.071399 -3.680997
v -64.992218 4.737849 66.580216
vn 5.101793 0.067203 -3.666822
v -64.992845 7.976481 66.631952
vn 5.104422 0.066184 -3.663169
v -65.932634 6.339817 65.296745
vn 5.100182 0.065357 -3.669094
v -66.034055 8.668796 65.194127
vn 5.113963 0.072086 -3.649681
v -67.070166 7.350184 63.729684
vn 5.123944 0.062505 -3.635871
v -68.161381 4.552560 62.140937
vn 2.183500 0.035070 -1.584834
v -63.706600 5.274385 68.356550
vn 5.094724 0.082431 -3.676195
v -65.339318 3.356694 66.069683
vn 2.208836 0.037327 -1.598047
v -65.183200 1.977290 66.250400
vn 2.174139 0.029952 -1.561307
v -66.582504 11.010486 64.479640
vn 5.115431 0.069917 -3.647714
v -67.196821 5.395822 63.510727
vn 5.127285 0.067671 -3.631046
v -67.850733 8.329622 62.650164
# 30 vertices, 0 vertices normals

f 28//28 5//5 13//13
f 10//10 24//24 9//9
f 26//26 19//19 15//15
f 22//22 14//14 16//16
f 30//30 23//23 4//4
f 29//29 21//21 2//2
f 10//10 8//8 24//24
f 19//19 1//1 25//25
f 1//1 19//19 21//21
f 19//19 2//2 21//21
f 29//29 24//24 4//4
f 22//22 23//23 5//5
f 9//9 24//24 6//6
f 13//13 30//30 11//11
f 25//25 15//15 19//19
f 27//27 26//26 15//15
f 3//3 26//26 27//27
f 27//27 7//7 3//3
f 3//3 2//2 26//26
f 2//2 19//19 26//26
f 21//21 20//20 1//1
f 22//22 16//16 20//20
f 20//20 16//16 12//12
f 3//3 6//6 2//2
f 29//29 6//6 24//24
f 23//23 29//29 4//4
f 6//6 29//29 2//2
f 29//29 23//23 21//21
f 9//9 6//6 17//17
f 3//3 7//7 17//17
f 1//1 18//18 25//25
f 18//18 1//1 20//20
f 3//3 17//17 6//6
f 4//4 24//24 8//8
f 20//20 12//12 18//18
f 30//30 4//4 11//11
f 22//22 20//20 21//21
f 23//23 22//22 21//21
f 5//5 28//28 14//14
f 22//22 5//5 14//14
f 30//30 13//13 5//5
f 30//30 5//5 23//23
f 4//4 8//8 11//11
# 43 faces, 0 coords texture

# End of File
