####
#
# OBJ File Generated by Meshlab
#
####
# Object 1606S.obj
#
# Vertices: 33
# Faces: 48
#
####
vn -5.082939 0.098078 -3.692217
v 65.679168 -17.230442 68.170165
vn -5.084729 0.095289 -3.689828
v 67.769324 -16.454012 65.308896
vn -5.079377 0.102448 -3.696987
v 65.734155 -19.247362 68.040511
vn -5.092500 0.088010 -3.679274
v 68.669712 -15.286143 64.092668
vn -2.189214 0.042349 -1.598046
v 64.539900 -16.518150 69.751800
vn -2.177863 0.041550 -1.588702
v 65.260660 -14.303716 68.822109
vn -2.202550 0.047804 -1.609711
v 64.747289 -19.924452 69.371791
vn -2.256557 0.055547 -1.628364
v 68.722489 -21.687339 63.830912
vn -2.216392 0.039342 -1.597842
v 69.398600 -13.909900 63.117400
vn -2.189225 0.039256 -1.581329
v 67.559606 -12.605550 65.698486
vn -2.223116 0.049342 -1.613700
v 66.485650 -22.351350 66.919400
vn -2.235253 0.046820 -1.639471
v 64.456800 -18.280200 69.816200
vn -2.196305 0.055727 -1.588663
v 69.569800 -20.478300 62.706600
vn -2.183301 0.033868 -1.561891
v 70.242300 -16.973100 61.868200
vn -2.169252 0.039945 -1.573730
v 66.334250 -12.976100 67.384850
vn -2.332903 0.038611 -1.670271
v 69.973738 -15.450523 62.278420
vn -5.079790 0.100811 -3.696471
v 65.625483 -15.615704 68.287683
vn -5.085127 0.101396 -3.689072
v 66.458536 -14.243408 67.181365
vn -5.085576 0.101260 -3.688443
v 66.596404 -20.548278 66.820793
vn -2.293003 0.041895 -1.654500
v 68.725550 -13.148500 64.069900
vn -5.089287 0.093894 -3.683473
v 68.828051 -17.477109 63.828339
vn -5.091852 0.107088 -3.679648
v 67.692607 -19.972978 65.315095
vn -5.087012 0.122009 -3.685859
v 68.808510 -19.447756 63.795223
vn -2.317868 0.046160 -1.669127
v 70.078588 -18.690601 62.060888
vn -5.098821 0.109841 -3.669870
v 67.415320 -21.477812 65.660783
vn -2.206088 0.052746 -1.587328
v 67.464000 -22.471700 65.560100
vn -5.073033 0.102780 -3.705664
v 65.000803 -18.167355 69.077729
vn -5.091568 0.097178 -3.680332
v 67.619042 -14.457978 65.570221
vn -5.086555 0.097982 -3.687241
v 66.845901 -18.220383 66.533139
vn -5.081190 0.105975 -3.694411
v 67.952022 -18.225567 65.010232
vn -2.230285 0.047928 -1.628098
v 65.587200 -21.575800 68.173300
vn -5.086582 0.104763 -3.687012
v 66.619131 -15.910638 66.907875
vn -5.102403 0.081800 -3.665667
v 69.526868 -16.347054 62.881848
# 33 vertices, 0 vertices normals

f 1//1 5//5 17//17
f 2//2 29//29 32//32
f 22//22 30//30 23//23
f 3//3 19//19 31//31
f 17//17 5//5 6//6
f 2//2 28//28 4//4
f 6//6 18//18 17//17
f 18//18 6//6 15//15
f 29//29 1//1 32//32
f 24//24 13//13 23//23
f 19//19 22//22 25//25
f 22//22 8//8 25//25
f 26//26 25//25 8//8
f 28//28 10//10 20//20
f 1//1 27//27 5//5
f 4//4 28//28 20//20
f 3//3 7//7 27//27
f 12//12 27//27 7//7
f 17//17 32//32 1//1
f 13//13 8//8 23//23
f 24//24 33//33 14//14
f 33//33 9//9 16//16
f 3//3 29//29 19//19
f 2//2 30//30 29//29
f 22//22 23//23 8//8
f 29//29 3//3 1//1
f 1//1 3//3 27//27
f 5//5 27//27 12//12
f 22//22 29//29 30//30
f 23//23 30//30 21//21
f 7//7 3//3 31//31
f 31//31 19//19 11//11
f 15//15 10//10 18//18
f 28//28 18//18 10//10
f 18//18 28//28 32//32
f 28//28 2//2 32//32
f 17//17 18//18 32//32
f 33//33 16//16 14//14
f 4//4 20//20 9//9
f 21//21 33//33 24//24
f 23//23 21//21 24//24
f 25//25 26//26 11//11
f 19//19 25//25 11//11
f 21//21 30//30 2//2
f 29//29 22//22 19//19
f 33//33 21//21 4//4
f 9//9 33//33 4//4
f 4//4 21//21 2//2
# 48 faces, 0 coords texture

# End of File
