####
#
# OBJ File Generated by Meshlab
#
####
# Object 1607S.obj
#
# Vertices: 33
# Faces: 47
#
####
vn -5.096051 0.041086 -3.675183
v 67.592677 4.910373 65.956038
vn -5.106833 0.016689 -3.660376
v 68.112377 11.089754 65.279220
vn -3.047959 0.026611 -2.197049
v 67.047800 3.706350 66.696900
vn -1.659387 0.013672 -1.197602
v 67.305600 3.227730 66.334600
vn -2.194188 0.008310 -1.573672
v 69.173036 11.883300 63.803215
vn -2.264533 0.007531 -1.643120
v 65.439250 11.999650 68.987500
vn -2.399940 0.020346 -1.717578
v 69.156350 4.899020 63.783750
vn -2.202499 0.010632 -1.583062
v 69.980750 9.641985 62.665850
vn -2.149020 0.019157 -1.547747
v 68.475500 3.786150 64.718800
vn -1.673024 0.006615 -1.200808
v 67.919100 13.649400 65.559100
vn -2.248405 0.007547 -1.621840
v 66.506750 13.159000 67.523550
vn -2.207225 0.010943 -1.613097
v 64.578400 9.368420 70.160050
vn -2.803814 0.008424 -2.012246
v 68.300200 12.850600 65.023500
vn -2.167701 0.018825 -1.565297
v 66.175600 4.019840 67.913900
vn -2.219984 0.018347 -1.619536
v 65.206464 5.345941 69.261140
vn -5.112167 0.026973 -3.652802
v 69.281253 6.803995 63.629602
vn -5.098316 0.038245 -3.672056
v 66.665494 5.626467 67.252919
vn -2.244322 0.015090 -1.595975
v 69.910850 6.720655 62.743450
vn -5.098386 0.020436 -3.672066
v 67.074751 10.947660 66.726030
vn -5.084749 0.025521 -3.690819
v 65.524793 8.920104 68.862044
vn -2.149945 0.015530 -1.568857
v 64.597550 7.249930 70.113750
vn -5.098462 0.027431 -3.671962
v 67.517889 7.202122 66.079828
vn -5.082414 0.036949 -3.694020
v 65.753818 6.035915 68.518669
vn -5.104918 0.013453 -3.663060
v 67.555895 12.376072 66.058121
vn -2.320794 0.005405 -1.685872
v 64.957300 10.941300 69.648100
vn -5.102865 0.023885 -3.665857
v 67.858456 9.328878 65.623984
vn -5.093558 0.029416 -3.678688
v 66.237178 7.493668 67.865337
vn -2.266934 0.008303 -1.621718
v 70.094300 8.053480 62.496600
vn -5.106748 0.018275 -3.660480
v 68.993519 9.677391 64.039613
vn -5.104235 0.016015 -3.663988
v 68.720841 7.935583 64.415843
vn -5.099024 0.033889 -3.671064
v 68.471316 5.941302 64.752164
vn -5.089633 0.017679 -3.684251
v 66.072771 10.784932 68.108819
vn -5.098265 0.024462 -3.672257
v 66.784497 9.092846 67.112324
# 33 vertices, 0 vertices normals

f 1//1 4//4 3//3
f 17//17 3//3 14//14
f 1//1 9//9 4//4
f 27//27 22//22 17//17
f 31//31 7//7 9//9
f 1//1 31//31 9//9
f 24//24 10//10 13//13
f 19//19 32//32 11//11
f 25//25 32//32 20//20
f 16//16 18//18 7//7
f 24//24 2//2 19//19
f 21//21 12//12 20//20
f 24//24 19//19 11//11
f 24//24 11//11 10//10
f 20//20 12//12 25//25
f 25//25 6//6 32//32
f 13//13 2//2 24//24
f 2//2 13//13 5//5
f 27//27 33//33 22//22
f 22//22 26//26 30//30
f 3//3 17//17 1//1
f 27//27 17//17 23//23
f 8//8 28//28 29//29
f 28//28 18//18 16//16
f 17//17 22//22 1//1
f 23//23 15//15 21//21
f 22//22 30//30 31//31
f 29//29 28//28 30//30
f 31//31 16//16 7//7
f 5//5 29//29 2//2
f 29//29 30//30 26//26
f 26//26 19//19 2//2
f 8//8 29//29 5//5
f 31//31 30//30 16//16
f 20//20 32//32 33//33
f 19//19 26//26 33//33
f 31//31 1//1 22//22
f 30//30 28//28 16//16
f 26//26 2//2 29//29
f 33//33 26//26 22//22
f 27//27 20//20 33//33
f 19//19 33//33 32//32
f 32//32 6//6 11//11
f 15//15 23//23 14//14
f 23//23 17//17 14//14
f 21//21 20//20 27//27
f 23//23 21//21 27//27
# 47 faces, 0 coords texture

# End of File
