####
#
# OBJ File Generated by Meshlab
#
####
# Object 1623S.obj
#
# Vertices: 31
# Faces: 45
#
####
vn 5.159607 -0.016610 -3.585607
v -71.799302 32.546949 59.268989
vn 5.150338 -0.024962 -3.598846
v -70.223382 32.467563 61.533223
vn 5.145708 -0.029487 -3.605439
v -69.169303 31.844617 63.043728
vn 5.154234 -0.016413 -3.593281
v -70.139427 30.513378 61.667171
vn 5.142534 -0.031828 -3.609949
v -68.197194 32.842754 64.420279
vn 5.160082 -0.012395 -3.584941
v -71.313650 31.091230 59.972284
vn 2.243443 -0.012782 -1.558394
v -71.796700 34.350350 59.260700
vn 2.206091 -0.015225 -1.543449
v -70.657377 35.782287 60.885006
vn 2.157713 -0.004821 -1.508437
v -67.959700 27.430550 64.797750
vn 2.276296 -0.012407 -1.597803
v -67.435649 33.878075 65.496664
vn 2.287181 -0.003032 -1.590773
v -72.475069 30.896650 58.303059
vn 2.252821 -0.001728 -1.568493
v -69.056500 26.363900 63.225450
vn 2.268055 -0.008538 -1.576888
v -72.290250 32.907650 58.560900
vn 2.141884 -0.015064 -1.502165
v -69.432100 36.160900 62.625900
vn 2.320439 -0.001043 -1.609248
v -72.266550 29.085250 58.603350
vn 2.180712 0.002263 -1.509403
v -71.770250 27.555200 59.317600
vn 2.145303 -0.013465 -1.510032
v -66.983200 31.434800 66.157450
vn 2.127650 -0.012073 -1.489743
v -68.089200 35.304900 64.553800
vn 5.147161 -0.019649 -3.603409
v -68.263922 29.198132 64.355892
vn 5.155816 -0.023975 -3.590971
v -71.030968 33.413066 60.371492
vn 2.283629 0.001471 -1.584684
v -70.887400 26.573550 60.592100
vn 5.149147 -0.017709 -3.600604
v -69.116394 29.953235 63.131114
vn 2.281239 -0.012030 -1.604123
v -67.219950 29.495677 65.839961
vn 5.144413 -0.034122 -3.607251
v -69.275612 33.717083 62.873598
vn 2.321417 0.000101 -1.614987
v -69.865100 26.205800 62.063400
vn 5.162825 -0.003394 -3.580990
v -71.044069 28.950490 60.368843
vn 5.141991 -0.030440 -3.610723
v -68.105898 30.939933 64.568010
vn 5.144414 -0.032970 -3.607252
v -70.151702 34.335063 61.620422
vn 5.146253 -0.031726 -3.604648
v -68.479367 34.468370 64.003344
vn 5.153953 -0.007054 -3.593760
v -69.025964 27.940533 63.267572
vn 5.155523 -0.002975 -3.591503
v -70.001357 28.434862 61.868641
# 31 vertices, 0 vertices normals

f 5//5 29//29 10//10
f 19//19 22//22 27//27
f 29//29 14//14 18//18
f 1//1 13//13 7//7
f 20//20 7//7 8//8
f 7//7 20//20 1//1
f 28//28 20//20 8//8
f 20//20 28//28 2//2
f 28//28 8//8 14//14
f 26//26 31//31 21//21
f 21//21 16//16 26//26
f 9//9 12//12 30//30
f 23//23 9//9 19//19
f 2//2 28//28 24//24
f 2//2 24//24 3//3
f 10//10 17//17 5//5
f 27//27 5//5 17//17
f 25//25 30//30 12//12
f 25//25 21//21 31//31
f 22//22 4//4 3//3
f 26//26 16//16 15//15
f 6//6 20//20 2//2
f 20//20 6//6 1//1
f 24//24 5//5 3//3
f 3//3 5//5 27//27
f 6//6 11//11 1//1
f 1//1 11//11 13//13
f 19//19 30//30 22//22
f 27//27 22//22 3//3
f 6//6 26//26 15//15
f 6//6 15//15 11//11
f 2//2 4//4 6//6
f 27//27 17//17 23//23
f 19//19 27//27 23//23
f 28//28 14//14 24//24
f 14//14 29//29 24//24
f 29//29 5//5 24//24
f 4//4 31//31 26//26
f 29//29 18//18 10//10
f 31//31 30//30 25//25
f 4//4 2//2 3//3
f 26//26 6//6 4//4
f 9//9 30//30 19//19
f 30//30 31//31 22//22
f 22//22 31//31 4//4
# 45 faces, 0 coords texture

# End of File
