####
#
# OBJ File Generated by Meshlab
#
####
# Object 1630S.obj
#
# Vertices: 32
# Faces: 46
#
####
vn -5.085447 0.098144 -3.688761
v 66.282749 -19.171748 68.353082
vn -5.095520 0.100737 -3.674715
v 68.804518 -18.331403 64.889593
vn -5.079911 0.101383 -3.696290
v 65.494024 -18.110995 69.468077
vn -5.096687 0.100894 -3.673128
v 68.031189 -16.503375 66.004184
vn -2.271511 0.037414 -1.627641
v 70.571053 -16.790314 62.465031
vn -2.197116 0.048678 -1.578999
v 69.191950 -21.848000 64.235100
vn -2.283787 0.052897 -1.650328
v 70.003950 -20.594150 63.155150
vn -2.190769 0.048659 -1.587718
v 66.961950 -22.444750 67.324000
vn -2.124739 0.036604 -1.521512
v 68.773072 -13.059276 65.064058
vn -2.283153 0.045254 -1.660868
v 65.069150 -19.570050 70.013000
vn -2.241176 0.045919 -1.610051
v 67.909100 -22.556450 66.010500
vn -2.290170 0.045617 -1.670895
v 65.001150 -16.881750 70.177600
vn -2.184270 0.045776 -1.587483
v 65.792783 -21.332030 68.966068
vn -2.160212 0.036470 -1.551316
v 70.307600 -15.082400 62.872300
vn -2.185939 0.041956 -1.596803
v 64.865800 -18.411000 70.320200
vn -5.085195 0.102401 -3.688951
v 65.914339 -16.859684 68.926280
vn -5.101998 0.101242 -3.665639
v 69.794947 -18.644047 63.507171
vn -2.214543 0.043324 -1.610613
v 65.637350 -14.651150 69.364900
vn -5.105986 0.097068 -3.660206
v 68.204724 -14.496593 65.825469
vn -5.092141 0.097316 -3.679537
v 67.523924 -18.769998 66.648733
vn -5.101033 0.082292 -3.667572
v 69.423650 -16.516846 64.070654
vn -5.094303 0.121062 -3.675818
v 69.249286 -20.051342 64.213960
vn -2.206758 0.044794 -1.577579
v 70.439600 -19.282000 62.587300
vn -5.102259 0.108564 -3.665177
v 68.303855 -20.414973 65.518497
vn -2.368056 0.043615 -1.700481
v 69.950100 -14.421500 63.386200
vn -2.211929 0.035185 -1.596436
v 67.313519 -12.912160 67.098147
vn -5.089842 0.108528 -3.682397
v 66.693613 -16.307796 67.862130
vn -2.234024 0.037947 -1.622908
v 66.418200 -13.473500 68.321000
vn -5.088307 0.104287 -3.684533
v 67.019255 -14.874089 67.460865
vn -5.090790 0.103207 -3.681194
v 67.108566 -20.888967 67.169377
vn -5.105548 0.094231 -3.660973
v 69.071347 -15.206346 64.589804
vn -5.090648 0.098903 -3.681564
v 66.747804 -17.642043 67.750008
# 32 vertices, 0 vertices normals

f 2//2 22//22 24//24
f 6//6 22//22 7//7
f 20//20 4//4 2//2
f 29//29 18//18 28//28
f 21//21 17//17 2//2
f 2//2 17//17 22//22
f 22//22 17//17 7//7
f 17//17 23//23 7//7
f 24//24 20//20 2//2
f 10//10 1//1 13//13
f 6//6 24//24 22//22
f 24//24 11//11 30//30
f 11//11 24//24 6//6
f 30//30 20//20 24//24
f 31//31 25//25 14//14
f 3//3 16//16 32//32
f 26//26 9//9 19//19
f 19//19 29//29 26//26
f 4//4 21//21 2//2
f 21//21 31//31 14//14
f 21//21 14//14 5//5
f 4//4 19//19 31//31
f 8//8 30//30 11//11
f 8//8 13//13 30//30
f 27//27 32//32 16//16
f 19//19 4//4 29//29
f 20//20 32//32 4//4
f 29//29 4//4 27//27
f 26//26 29//29 28//28
f 3//3 15//15 12//12
f 12//12 16//16 3//3
f 3//3 1//1 10//10
f 3//3 10//10 15//15
f 21//21 4//4 31//31
f 17//17 21//21 5//5
f 23//23 17//17 5//5
f 16//16 12//12 18//18
f 1//1 30//30 13//13
f 30//30 1//1 20//20
f 31//31 9//9 25//25
f 31//31 19//19 9//9
f 27//27 16//16 18//18
f 27//27 18//18 29//29
f 32//32 1//1 3//3
f 1//1 32//32 20//20
f 32//32 27//27 4//4
# 46 faces, 0 coords texture

# End of File
