####
#
# OBJ File Generated by Meshlab
#
####
# Object 1639S.obj
#
# Vertices: 30
# Faces: 44
#
####
vn -5.096289 0.092702 -3.673899
v 67.444826 -19.082715 67.820242
vn -5.100380 0.098917 -3.668051
v 68.103630 -17.409442 66.943282
vn -5.108956 0.106201 -3.655894
v 69.847963 -19.236669 64.468176
vn -2.142569 0.042596 -1.525395
v 70.169228 -14.081701 64.146695
vn -2.188846 0.044980 -1.582708
v 65.914250 -15.161050 70.042900
vn -2.187193 0.043920 -1.583656
v 65.545182 -19.583693 70.430084
vn -2.179472 0.049799 -1.557307
v 70.473058 -20.597490 63.550543
vn -2.139057 0.042774 -1.546698
v 65.400250 -17.294850 70.696000
vn -2.169368 0.040475 -1.550245
v 71.027621 -18.249754 62.846068
vn -2.181979 0.044989 -1.573118
v 66.828211 -13.713906 68.823023
vn -2.089698 0.042696 -1.514305
v 66.275200 -21.586300 69.368900
vn -2.197064 0.040029 -1.580885
v 68.241400 -12.947800 66.876450
vn -2.213197 0.050370 -1.593865
v 67.341131 -22.449747 67.869274
vn -2.219933 0.052507 -1.583961
v 69.508500 -22.085900 64.849300
vn -2.267424 0.052825 -1.618991
v 68.780700 -22.511700 65.857400
vn -5.094376 0.099613 -3.676380
v 66.874333 -17.245851 68.658356
vn -5.091486 0.103391 -3.680282
v 66.497548 -15.684127 69.221348
vn -2.160537 0.035965 -1.545987
v 70.907150 -16.014950 63.064900
vn -5.106120 0.092186 -3.660242
v 69.275756 -17.698627 65.307036
vn -5.107764 0.105753 -3.657554
v 68.770900 -16.090657 66.055870
vn -5.114885 0.094149 -3.647872
v 69.728644 -15.873026 64.713801
vn -5.104375 0.108040 -3.662188
v 68.019956 -20.892570 66.974575
vn -5.111180 0.100513 -3.652855
v 68.956245 -14.394609 65.847744
vn -2.280231 0.040479 -1.630185
v 69.082300 -13.131000 65.702800
vn -5.097921 0.103597 -3.671352
v 67.701148 -15.184439 67.569411
vn -5.088437 0.099642 -3.684601
v 66.362614 -19.220737 69.311191
vn -5.104827 0.096960 -3.661918
v 68.625083 -19.274595 66.173341
vn -5.111566 0.115147 -3.651989
v 69.124104 -20.875490 65.428159
vn -5.108669 0.085564 -3.656838
v 70.157175 -17.528724 64.081133
vn -5.090440 0.101976 -3.681742
v 67.044850 -20.719037 68.331836
# 30 vertices, 0 vertices normals

f 16//16 25//25 2//2
f 7//7 3//3 9//9
f 17//17 8//8 5//5
f 29//29 18//18 9//9
f 28//28 7//7 14//14
f 21//21 4//4 18//18
f 15//15 13//13 22//22
f 23//23 12//12 24//24
f 23//23 24//24 4//4
f 12//12 25//25 10//10
f 21//21 20//20 23//23
f 21//21 23//23 4//4
f 5//5 10//10 17//17
f 1//1 26//26 16//16
f 16//16 26//26 8//8
f 11//11 30//30 13//13
f 1//1 16//16 2//2
f 25//25 20//20 2//2
f 2//2 19//19 27//27
f 22//22 1//1 27//27
f 1//1 2//2 27//27
f 15//15 28//28 14//14
f 30//30 1//1 22//22
f 11//11 6//6 26//26
f 26//26 30//30 11//11
f 20//20 25//25 23//23
f 23//23 25//25 12//12
f 16//16 17//17 25//25
f 30//30 26//26 1//1
f 26//26 6//6 8//8
f 3//3 28//28 27//27
f 28//28 22//22 27//27
f 16//16 8//8 17//17
f 25//25 17//17 10//10
f 28//28 3//3 7//7
f 15//15 22//22 28//28
f 27//27 19//19 3//3
f 30//30 22//22 13//13
f 19//19 29//29 3//3
f 20//20 21//21 19//19
f 2//2 20//20 19//19
f 29//29 19//19 21//21
f 29//29 21//21 18//18
f 3//3 29//29 9//9
# 44 faces, 0 coords texture

# End of File
