####
#
# OBJ File Generated by Meshlab
#
####
# Object 165S.obj
#
# Vertices: 219
# Faces: 363
#
####
vn 1.834046 0.077917 -2.548995
v -26.786150 -50.000000 35.596600
vn 3.387410 0.215699 -3.225907
v -32.871000 -50.000000 30.718000
vn 4.736417 -0.266336 -4.118678
v -35.319967 -38.610565 28.022074
vn 3.897146 -0.820724 -4.859197
v -27.362406 -32.390156 34.447247
vn 4.107393 -0.116228 -4.752672
v -40.396184 -36.058858 22.831487
vn 3.905517 -0.062302 -4.919315
v -41.727503 -35.405407 21.703935
vn 3.971578 -0.699207 -4.817787
v -27.715884 -28.896940 33.567199
vn 2.183534 0.037012 -2.259975
v -38.459300 -52.429300 24.733200
vn 4.530327 0.065230 -4.352856
v -36.048015 -51.390865 27.196656
vn 3.472360 -0.624727 -3.002988
v -33.219900 -38.000000 30.718000
vn 1.891216 0.125566 -2.502817
v -28.342200 -50.000000 34.472900
vn 4.243692 -0.301693 -4.621870
v -37.472490 -33.252837 25.329108
vn 4.258980 -0.580732 -4.580412
v -34.071724 -31.577379 28.299323
vn 2.223225 0.119387 -2.211742
v -33.147600 -52.837200 30.190000
vn 2.092156 0.138055 -2.320755
v -31.900200 -52.921600 31.385200
vn 4.113175 -0.005163 -4.749439
v -40.609978 -44.049089 22.737065
vn 4.349398 -0.486204 -4.507264
v -36.291688 -34.221142 26.533623
vn 2.014574 0.021235 -2.412749
v -41.905463 -52.196475 21.633210
vn 4.263618 0.013708 -4.614154
v -39.619240 -49.503537 23.666025
vn 4.623743 -0.033426 -4.253844
v -36.795224 -40.943582 26.435655
vn 4.307074 -0.052304 -4.573937
v -39.255589 -47.461122 24.018545
vn 2.271328 0.027649 -2.170895
v -36.043700 -52.613400 27.185600
vn 3.671332 -0.525903 -5.068791
v -24.785037 -34.440740 36.728876
vn 4.462658 -0.046848 -4.416981
v -38.178418 -41.194131 24.949698
vn 3.622812 -0.603751 -5.097509
v -21.725044 -31.039892 38.522417
vn 4.060316 -0.693087 -4.744134
v -29.167729 -29.021266 32.378399
vn 4.145322 -0.661436 -4.674293
v -30.388462 -29.109354 31.315054
vn 4.900329 -0.024586 -3.927155
v -34.262048 -39.458625 29.347586
vn 3.936863 -0.452489 -4.875878
v -25.983735 -25.097764 34.538809
vn 3.937470 -0.686859 -4.847860
v -26.031098 -28.750678 34.931866
vn 4.591046 0.066657 -4.288962
v -34.882648 -50.596631 28.441662
vn 4.160690 -0.420668 -4.689133
v -35.256522 -30.949587 27.175506
vn 3.936129 -0.903259 -4.812614
v -29.024524 -33.428714 33.282449
vn 4.390090 -0.783477 -4.425693
v -33.936644 -33.573902 28.754064
vn 4.250684 -0.038862 -4.625547
v -39.566874 -40.169324 23.627868
vn 3.966753 -0.010261 -4.872460
v -42.200599 -41.185922 21.400399
vn 3.994522 -0.398150 -4.833490
v -27.844813 -23.336077 32.863925
vn 3.701541 -0.683077 -5.030560
v -26.893479 -36.431845 35.399663
vn 4.071440 -1.060479 -4.662758
v -30.694492 -34.362248 32.089193
vn 3.776005 0.009126 -5.018808
v -43.476256 -39.719574 20.373732
vn 4.479316 0.038807 -4.405676
v -37.160681 -50.292139 26.083535
vn 3.597024 -0.545325 -5.121864
v -25.195157 -36.349339 36.595331
vn 4.620565 -0.432916 -4.234002
v -35.822516 -37.156199 27.328828
vn 4.608866 0.047552 -4.269991
v -34.889218 -48.880780 28.456515
vn 1.509094 -0.066202 -1.780058
v -40.092900 -31.346600 22.964600
vn 2.378063 -0.091260 -2.785673
v -39.565600 -31.200200 23.409100
vn 1.765800 -0.175102 -2.038421
v -35.392800 -28.981100 26.886000
vn 2.441466 -0.396996 -2.699433
v -32.213700 -29.444500 29.735700
vn 1.744908 0.056041 -2.467748
v -25.528025 -52.332800 36.434125
vn 2.408922 -0.038945 -2.962378
v -41.249100 -33.416100 22.064200
vn 1.462538 -0.008951 -1.918840
v -42.364700 -33.719500 21.210400
vn 1.907169 -0.204516 -2.276499
v -29.911816 -24.702096 31.261009
vn 1.355471 0.015795 -1.921102
v -45.685400 -46.916900 18.783000
vn 2.238373 -0.009050 -3.108258
v -45.392300 -47.194200 18.988900
vn 2.009492 0.038832 -2.670087
v -44.521769 -49.718800 19.616659
vn 1.649417 -0.003246 -2.248196
v -45.152400 -48.535500 19.176400
vn 2.401041 -0.068870 -2.839573
v -40.914800 -33.013600 22.336300
vn 1.741984 -0.062419 -2.047856
v -41.045200 -33.093100 22.227800
vn 1.737123 -0.081679 -1.999721
v -38.843100 -30.362900 23.999900
vn 1.945438 -0.226334 -2.285701
v -30.482500 -26.178500 30.918100
vn 1.690729 -0.212869 -2.410058
v -20.903800 -33.856850 39.399150
vn 1.143478 -0.088258 -1.787648
v -22.709600 -38.000000 38.368000
vn 1.664539 -0.131992 -2.440857
v -21.623801 -35.945182 39.024195
vn 1.776266 -0.198723 -2.310401
v -21.471550 -24.654650 38.074950
vn 1.831063 0.010321 -2.595738
v -45.222350 -40.552500 19.134050
vn 1.632185 0.004737 -2.345449
v -45.784100 -42.491250 18.736600
vn 0.846183 -0.071468 -1.018127
v -28.749700 -21.320600 31.964200
vn 2.328358 -0.224194 -2.796255
v -28.896200 -22.854300 31.950100
vn 2.610374 -0.230131 -3.135930
v -27.698900 -21.785900 32.870200
vn 1.599691 -0.143683 -1.962534
v -27.281100 -21.410400 33.189900
vn 1.671355 -0.250230 -2.348731
v -20.324850 -29.411250 39.311050
vn 1.734128 -0.196754 -2.338231
v -20.698107 -26.884915 38.840705
vn 1.698439 0.010942 -2.427813
v -45.896600 -44.910250 18.656850
vn 1.757598 -0.192924 -2.252894
v -22.427450 -23.031600 37.200500
vn 0.635393 0.012488 -0.915384
v -24.203800 -50.000000 37.403600
vn 2.671784 -0.422396 -2.982085
v -31.232400 -28.923200 30.535100
vn 1.391816 0.049736 -1.928838
v -26.089500 -53.000000 36.018700
vn 1.554219 0.004205 -1.988255
v -43.428900 -52.106100 20.431000
vn 1.593541 0.017965 -2.067671
v -43.912400 -51.628000 20.058400
vn 2.140475 -0.163011 -2.451137
v -37.091650 -29.801750 25.480400
vn 2.072901 -0.257847 -2.357350
v -30.922400 -27.813200 30.691350
vn 1.849894 -0.018696 -2.475141
v -43.431900 -35.548600 20.414200
vn 1.733643 -0.190628 -2.181310
v -23.481821 -22.034577 36.284590
vn 1.768684 -0.017205 -2.425107
v -44.022300 -36.653300 20.000700
vn 1.939904 0.115076 -2.457529
v -28.915500 -52.998250 33.881800
vn 3.820012 -0.710939 -4.936727
v -26.037099 -33.263675 35.631610
vn 4.810757 0.127450 -4.033253
v -34.180023 -41.352469 29.346585
vn 4.685420 0.072476 -4.185344
v -34.761537 -43.512138 28.669279
vn 3.765213 0.200583 -5.025639
v -27.715099 -51.464817 34.866723
vn 1.874162 0.075175 -2.519793
v -26.990693 -53.000000 35.362323
vn 1.972933 0.127627 -2.439495
v -29.566000 -50.000000 33.514400
vn 3.661405 0.123667 -5.104306
v -26.197505 -51.519131 35.978950
vn 4.266649 0.328170 -4.596132
v -32.305773 -51.432219 31.105184
vn 2.034081 0.143972 -2.388737
v -31.218750 -50.000000 32.138650
vn 3.924859 0.255278 -4.898778
v -29.365387 -51.509417 33.596684
vn 4.572439 0.212939 -4.302598
v -33.679724 -51.206871 29.720291
vn 4.701033 0.079569 -4.167185
v -33.835309 -49.376797 29.606533
vn 2.007160 0.127878 -2.383675
v -30.689600 -52.975150 32.423850
vn 3.933138 -0.552360 -4.867680
v -25.589948 -26.564238 34.995932
vn 4.375686 -0.075559 -4.507651
v -38.610628 -38.782977 24.532935
vn 1.972884 -0.470865 -2.388846
v -31.473410 -37.997446 32.201595
vn 4.366392 -1.221740 -4.331931
v -32.706913 -36.724572 30.832142
vn 3.717678 -0.024319 -5.063474
v -44.124584 -44.163101 19.897983
vn 4.513172 0.018898 -4.370970
v -36.913470 -48.348706 26.327106
vn 4.705785 -0.014709 -4.162541
v -35.529229 -40.325300 27.835499
vn 4.700601 0.056693 -4.167318
v -34.081747 -47.150997 29.352304
vn 4.621910 0.056964 -4.252243
v -35.046263 -45.591002 28.290604
vn 3.777237 -0.027195 -5.019838
v -44.091582 -47.697100 19.941576
vn 2.378091 0.051829 -2.042970
v -32.931300 -45.949250 30.717400
vn 4.571736 -0.063234 -4.309554
v -37.118664 -42.959908 26.121731
vn 4.641853 0.006367 -4.234309
v -35.779227 -42.319764 27.555281
vn 4.771560 -0.716808 -4.012498
v -34.263293 -37.201924 29.144110
vn 4.291090 -0.027223 -4.586421
v -39.411862 -44.361510 23.796870
vn 4.527643 0.030133 -4.356069
v -36.505473 -46.345791 26.785765
vn 3.762710 0.009809 -5.028551
v -43.679607 -41.953643 20.215235
vn 2.051118 -0.243491 -2.305718
v -34.076816 -29.124573 28.031597
vn 2.239309 0.044871 -2.203684
v -37.167341 -52.526250 26.023971
vn 4.107189 -0.177742 -4.751039
v -39.139958 -32.424008 23.812553
vn 4.238519 0.022611 -4.637696
v -39.856877 -51.242192 23.446477
vn 1.785988 -0.177376 -2.220065
v -25.308500 -21.373600 34.772800
vn 4.815775 0.105830 -4.032557
v -33.786443 -42.729085 29.796607
vn 4.160291 -0.246821 -4.701915
v -37.420167 -31.436113 25.289602
vn 4.534188 -0.019380 -4.349214
v -37.503946 -45.018461 25.750325
vn 4.144270 -0.342786 -4.709894
v -36.310419 -30.660759 26.227996
vn 4.230199 -0.039550 -4.643593
v -39.626935 -42.407517 23.593503
vn 4.085574 -0.055183 -4.769782
v -40.696320 -39.219648 22.603051
vn 2.378823 0.032667 -2.046030
v -32.892100 -48.218900 30.718000
vn 4.537985 0.037415 -4.345198
v -35.954209 -49.555017 27.316655
vn 3.671353 -0.644352 -5.057361
v -23.186089 -31.439496 37.523181
vn 3.608740 -0.531705 -5.115592
v -21.934080 -32.757640 38.565402
vn 3.820937 -0.704323 -4.936907
v -24.553350 -29.785550 36.271893
vn 3.974491 -0.469053 -4.843658
v -27.395776 -25.204607 33.404389
vn 3.854725 -0.439674 -4.942208
v -22.657751 -25.025888 37.187569
vn 3.951977 -0.014473 -4.881629
v -42.346114 -43.582315 21.257359
vn 4.072497 -0.014017 -4.784503
v -41.065609 -42.437697 22.350487
vn 4.018981 -0.461207 -4.807548
v -28.928303 -25.158551 32.125967
vn 4.286353 -0.170856 -4.589700
v -38.890598 -36.464560 24.190664
vn 3.573713 -0.387648 -5.152959
v -22.337582 -34.815124 38.465849
vn 3.699218 -0.521781 -5.051318
v -21.811197 -28.601104 38.162233
vn 2.471086 0.094784 -1.949734
v -33.156351 -40.080005 30.718000
vn 2.395755 0.068979 -2.009152
v -32.993450 -43.648950 30.717800
vn 4.752137 0.104819 -4.108974
v -33.874243 -44.726891 29.654663
vn 2.459415 0.098294 -1.958070
v -33.077700 -41.921000 30.718000
vn 2.278645 0.046489 -2.160371
v -34.978336 -52.697884 28.310766
vn 3.994235 -0.062959 -4.848268
v -41.346195 -37.552863 22.049538
vn 3.960629 -0.035165 -4.876835
v -42.325889 -47.785524 21.327954
vn 4.462923 0.004050 -4.420822
v -37.888529 -47.016659 25.325608
vn 4.134788 -0.043101 -4.729727
v -40.716154 -47.818614 22.682851
vn 3.911096 -0.466342 -4.895121
v -24.198816 -25.315892 35.997368
vn 3.929983 -0.416922 -4.884627
v -24.731233 -23.276668 35.393276
vn 4.467909 -0.063847 -4.415815
v -38.393275 -43.624039 24.794215
vn 4.490542 -0.685365 -4.339034
v -35.019073 -35.195268 27.937593
vn 3.838543 -0.884881 -4.893701
v -29.550187 -35.420838 33.237476
vn 4.558386 -0.068084 -4.322875
v -37.546865 -39.447183 25.622434
vn 4.405872 0.000639 -4.478506
v -38.241515 -49.006854 24.980880
vn 3.753910 -0.679588 -4.990089
v -24.589432 -32.162685 36.592699
vn 3.609441 -0.510983 -5.116687
v -23.419270 -33.769904 37.623154
vn 1.728895 -0.245477 -2.607300
v -24.344885 -37.999202 37.366799
vn 1.803019 0.048495 -2.572096
v -25.235600 -50.000000 36.687400
vn 1.867053 -0.394540 -2.491748
v -29.449150 -38.000000 33.735900
vn 3.781126 -0.829777 -4.948871
v -30.048640 -36.888228 33.101528
vn 4.202586 -0.786929 -4.603494
v -31.377966 -30.803556 30.703918
vn 4.340681 -1.143524 -4.393413
v -32.170305 -35.019039 30.874185
vn 4.302908 -0.570871 -4.539340
v -35.169629 -32.989137 27.444069
vn 1.666192 0.041912 -2.383969
v -24.539700 -50.846100 37.158900
vn 4.016490 -1.010350 -4.713563
v -31.200571 -36.214457 32.090563
vn 3.935165 -0.793846 -4.833277
v -27.087277 -30.517443 34.338417
vn 3.906317 0.058065 -4.919704
v -42.905561 -50.602654 20.843274
vn 4.067707 -0.073866 -4.787307
v -40.799238 -40.803573 22.551696
vn 4.265469 -1.001212 -4.502756
v -31.669340 -33.094009 30.879403
vn 2.101966 0.006772 -2.336268
v -40.172150 -52.310799 23.155795
vn 3.747610 -0.759380 -4.985555
v -28.581354 -36.545439 34.154997
vn 3.884623 -0.603493 -4.901038
v -24.478243 -27.560104 36.023646
vn 4.219086 -0.356618 -4.641742
v -36.316076 -32.233387 26.326339
vn 4.100958 -0.946161 -4.664659
v -30.164617 -32.282606 32.081530
vn 4.349551 -0.311153 -4.522988
v -37.577605 -35.247870 25.396319
vn 4.191315 -0.192328 -4.675045
v -38.896916 -34.264451 24.089167
vn 3.998596 -0.838040 -4.773219
v -28.629609 -31.052592 33.168831
vn 4.308907 -0.801862 -4.499810
v -32.828244 -32.259095 29.580344
vn 4.075399 -0.537990 -4.751587
v -29.753546 -27.375524 31.662735
vn 3.822673 -0.510329 -4.960145
v -23.020745 -26.989894 37.097112
vn 1.803086 -0.344131 -2.542726
v -26.345200 -37.999950 36.018800
vn 3.815623 -0.751240 -4.934562
v -27.613404 -34.649832 34.606566
vn 4.402961 -0.954738 -4.378818
v -32.833214 -33.864102 29.919849
vn 4.521127 -0.984121 -4.245682
v -33.456965 -35.307409 29.566518
vn 1.856075 -0.360865 -2.509174
v -28.002450 -38.000000 34.796950
vn 4.462357 -0.407093 -4.403919
v -36.408186 -35.896214 26.596525
vn 4.478219 -0.239217 -4.399160
v -37.394910 -37.367198 25.686272
vn 4.384971 0.050713 -4.498900
v -38.436481 -50.914371 24.785080
vn 3.889316 -0.765988 -4.874800
v -25.902510 -31.107335 35.391215
vn 3.734911 -0.587681 -5.017337
v -26.015799 -35.022276 35.875678
vn 3.800722 -0.026917 -5.002286
v -42.889950 -37.363874 20.831589
vn 1.760713 0.013706 -2.440748
v -44.638225 -38.281346 19.551012
vn 4.563678 0.034900 -4.318318
v -35.586968 -47.631232 27.723673
vn 1.704268 -0.269818 -2.439572
v -20.505650 -31.839450 39.465300
vn 3.693087 0.004438 -5.082115
v -44.756117 -46.205656 19.444521
vn 3.606690 0.007537 -5.144836
v -44.939747 -42.801905 19.323553
vn 3.889091 -0.421603 -4.916646
v -23.412761 -23.636186 36.481977
vn 3.786712 -0.444227 -4.994011
v -21.861703 -26.469645 37.936047
vn 4.232620 -0.610278 -4.603028
v -32.983308 -30.586759 29.198631
vn 4.056775 0.259919 -4.790607
v -30.833270 -51.487368 32.380374
vn 4.001167 -0.560872 -4.811674
v -28.344963 -27.110570 32.817941
vn 4.212710 -0.077415 -4.657988
v -39.982507 -45.822579 23.288878
vn 3.936858 -0.050657 -4.896428
v -41.931580 -39.272340 21.600392
vn 4.563715 0.018247 -4.318026
v -36.083268 -44.335904 27.216107
vn 4.416305 -0.061769 -4.466879
v -38.727037 -45.616615 24.478293
vn 4.208555 -0.061092 -4.664382
v -39.918680 -38.101734 23.296166
vn 3.952392 -0.565762 -4.851137
v -26.885885 -26.972830 34.000522
vn 4.117078 -0.811868 -4.676151
v -29.905341 -30.515294 31.974869
vn 3.857715 -0.046478 -4.958898
v -43.179682 -45.894644 20.637662
vn 4.622424 -0.181284 -4.249491
v -36.476681 -38.939240 26.775568
vn 4.023651 -0.053996 -4.824035
v -41.549421 -45.793323 21.937310
vn 4.069035 -0.090237 -4.785843
v -40.467632 -34.703964 22.734739
vn 3.951985 -0.399019 -4.868272
v -26.529583 -23.198211 33.928633
vn 3.522555 -0.366573 -5.188891
v -23.292248 -36.057192 37.899388
vn 3.846307 0.024491 -4.967126
v -43.499048 -48.939683 20.393798
vn 4.127611 0.033864 -4.736516
v -40.900162 -50.749222 22.517811
vn 4.008903 0.038574 -4.837741
v -41.927718 -49.564283 21.665060
vn 3.724154 -0.637780 -5.019985
v -22.962934 -29.592833 37.435155
# 219 vertices, 0 vertices normals

f 59//59 118//118 46//46
f 196//196 54//54 53//53
f 196//196 53//53 73//73
f 118//118 45//45 46//46
f 104//104 147//147 114//114
f 135//135 125//125 16//16
f 25//25 139//139 71//71
f 121//121 141//141 142//142
f 143//143 121//121 87//87
f 194//194 106//106 44//44
f 144//144 9//9 31//31
f 36//36 40//40 204//204
f 125//125 151//151 113//113
f 24//24 125//125 35//35
f 211//211 20//20 154//154
f 23//23 157//157 215//215
f 75//75 165//165 159//159
f 88//88 205//205 111//111
f 107//107 114//114 205//205
f 196//196 108//108 54//54
f 90//90 92//92 77//77
f 27//27 76//76 81//81
f 43//43 152//152 112//112
f 142//142 107//107 88//88
f 33//33 4//4 183//183
f 181//181 173//173 149//149
f 39//39 33//33 153//153
f 124//124 80//80 47//47
f 137//137 100//100 207//207
f 197//197 66//66 65//65
f 21//21 155//155 19//19
f 219//219 181//181 139//139
f 210//210 146//146 108//108
f 163//163 185//185 184//184
f 186//186 172//172 38//38
f 104//104 41//41 155//155
f 190//190 30//30 131//131
f 4//4 190//190 86//86
f 102//102 163//163 166//166
f 38//38 191//191 42//42
f 164//164 17//17 174//174
f 170//170 39//39 163//163
f 44//44 31//31 128//128
f 47//47 32//32 124//124
f 116//116 13//13 32//32
f 116//116 200//200 13//13
f 162//162 200//200 48//48
f 11//11 89//89 95//95
f 91//91 11//11 95//95
f 14//14 93//93 15//15
f 94//94 91//91 201//201
f 144//144 96//96 14//14
f 201//201 98//98 15//15
f 2//2 94//94 93//93
f 6//6 51//51 50//50
f 144//144 31//31 96//96
f 101//101 10//10 102//102
f 210//210 103//103 134//134
f 197//197 115//115 103//103
f 103//103 115//115 134//134
f 194//194 104//104 114//114
f 87//87 111//111 105//105
f 20//20 105//105 111//111
f 188//188 154//154 100//100
f 194//194 107//107 106//106
f 109//109 127//127 106//106
f 111//111 110//110 20//20
f 10//10 28//28 112//112
f 28//28 10//10 140//140
f 28//28 3//3 112//112
f 200//200 116//116 48//48
f 117//117 9//9 22//22
f 117//117 8//8 189//189
f 55//55 56//56 216//216
f 56//56 108//108 216//216
f 86//86 23//23 191//191
f 118//118 57//57 45//45
f 179//179 200//200 162//162
f 58//58 57//57 50//50
f 57//57 213//213 50//50
f 57//57 118//118 177//177
f 8//8 171//171 119//119
f 112//112 185//185 102//102
f 10//10 112//112 102//102
f 114//114 147//147 123//123
f 120//120 83//83 150//150
f 28//28 87//87 105//105
f 105//105 3//3 28//28
f 136//136 180//180 60//60
f 110//110 24//24 20//20
f 111//111 87//87 88//88
f 87//87 121//121 88//88
f 120//120 150//150 214//214
f 122//122 118//118 59//59
f 124//124 122//122 80//80
f 122//122 12//12 118//118
f 215//215 62//62 158//158
f 17//17 176//176 12//12
f 59//59 80//80 122//122
f 136//136 132//132 202//202
f 115//115 65//65 40//40
f 65//65 115//115 197//197
f 180//180 136//136 202//202
f 26//26 180//180 202//202
f 16//16 134//134 135//135
f 135//135 134//134 36//36
f 139//139 199//199 72//72
f 67//67 69//69 68//68
f 37//37 69//69 70//70
f 37//37 70//70 214//214
f 138//138 61//61 63//63
f 138//138 130//130 61//61
f 130//130 129//129 25//25
f 25//25 71//71 195//195
f 140//140 143//143 87//87
f 148//148 21//21 19//19
f 72//72 71//71 139//139
f 88//88 121//121 142//142
f 142//142 141//141 109//109
f 143//143 141//141 121//121
f 144//144 22//22 9//9
f 5//5 207//207 145//145
f 207//207 126//126 145//145
f 36//36 115//115 40//40
f 123//123 147//147 206//206
f 113//113 206//206 203//203
f 148//148 212//212 203//203
f 74//74 198//198 83//83
f 99//99 29//29 149//149
f 149//149 29//29 150//150
f 151//151 123//123 206//206
f 169//169 126//126 35//35
f 154//154 24//24 100//100
f 100//100 24//24 35//35
f 110//110 123//123 151//151
f 164//164 34//34 152//152
f 20//20 24//24 154//154
f 20//20 211//211 105//105
f 105//105 211//211 3//3
f 154//154 188//188 211//211
f 9//9 117//117 41//41
f 104//104 128//128 41//41
f 128//128 9//9 41//41
f 131//131 129//129 156//156
f 30//30 167//167 7//7
f 167//167 178//178 7//7
f 156//156 23//23 86//86
f 23//23 156//156 157//157
f 215//215 157//157 138//138
f 42//42 158//158 182//182
f 160//160 101//101 161//161
f 28//28 140//140 87//87
f 107//107 194//194 114//114
f 27//27 162//162 76//76
f 48//48 76//76 162//162
f 54//54 108//108 56//56
f 164//164 13//13 34//34
f 89//89 92//92 90//90
f 165//165 49//49 159//159
f 49//49 92//92 159//159
f 3//3 43//43 112//112
f 109//109 106//106 142//142
f 142//142 106//106 107//107
f 88//88 107//107 205//205
f 101//101 166//166 161//161
f 161//161 166//166 153//153
f 178//178 167//167 4//4
f 78//78 79//79 168//168
f 189//189 19//19 155//155
f 30//30 7//7 208//208
f 30//30 99//99 173//173
f 125//125 169//169 35//35
f 217//217 19//19 119//119
f 175//175 162//162 209//209
f 27//27 26//26 209//209
f 32//32 13//13 164//164
f 86//86 183//183 4//4
f 160//160 161//161 172//172
f 161//161 153//153 172//172
f 133//133 181//181 149//149
f 149//149 173//173 99//99
f 30//30 173//173 131//131
f 131//131 173//173 219//219
f 122//122 174//174 12//12
f 32//32 174//174 124//124
f 174//174 122//122 124//124
f 166//166 39//39 153//153
f 175//175 39//39 170//170
f 175//175 170//170 162//162
f 179//179 162//162 170//170
f 12//12 176//176 177//177
f 39//39 175//175 33//33
f 33//33 175//175 178//178
f 188//188 176//176 187//187
f 187//187 176//176 17//17
f 137//137 188//188 100//100
f 212//212 134//134 16//16
f 125//125 135//135 169//169
f 169//169 135//135 36//36
f 134//134 115//115 36//36
f 132//132 136//136 37//37
f 37//37 136//136 68//68
f 26//26 27//27 180//180
f 81//81 180//180 27//27
f 177//177 137//137 5//5
f 137//137 207//207 5//5
f 214//214 70//70 120//120
f 68//68 69//69 37//37
f 21//21 147//147 155//155
f 126//126 204//204 145//145
f 146//146 210//210 212//212
f 16//16 203//203 212//212
f 182//182 186//186 38//38
f 172//172 183//183 38//38
f 110//110 151//151 24//24
f 24//24 151//151 125//125
f 43//43 187//187 152//152
f 152//152 17//17 164//164
f 34//34 179//179 184//184
f 184//184 179//179 170//170
f 34//34 185//185 152//152
f 152//152 185//185 112//112
f 170//170 163//163 184//184
f 184//184 185//185 34//34
f 172//172 153//153 183//183
f 153//153 33//33 183//183
f 42//42 182//182 38//38
f 186//186 160//160 172//172
f 188//188 187//187 43//43
f 43//43 3//3 211//211
f 43//43 211//211 188//188
f 189//189 155//155 41//41
f 147//147 104//104 155//155
f 156//156 190//190 131//131
f 4//4 167//167 190//190
f 167//167 30//30 190//190
f 86//86 190//190 156//156
f 191//191 38//38 183//183
f 191//191 183//183 86//86
f 157//157 130//130 138//138
f 102//102 185//185 163//163
f 201//201 15//15 93//93
f 101//101 102//102 166//166
f 166//166 163//163 39//39
f 178//178 4//4 33//33
f 6//6 5//5 145//145
f 192//192 145//145 204//204
f 42//42 191//191 23//23
f 198//198 74//74 133//133
f 64//64 133//133 74//74
f 149//149 198//198 133//133
f 32//32 164//164 174//174
f 174//174 17//17 12//12
f 13//13 179//179 34//34
f 40//40 65//65 193//193
f 180//180 81//81 60//60
f 51//51 6//6 82//82
f 189//189 41//41 117//117
f 189//189 119//119 19//19
f 195//195 61//61 130//130
f 7//7 178//178 26//26
f 194//194 44//44 128//128
f 194//194 128//128 104//104
f 168//168 79//79 55//55
f 118//118 12//12 177//177
f 177//177 213//213 57//57
f 158//158 42//42 215//215
f 42//42 23//23 215//215
f 52//52 136//136 60//60
f 150//150 29//29 214//214
f 192//192 84//84 82//82
f 89//89 11//11 1//1
f 92//92 89//89 1//1
f 152//152 187//187 17//17
f 198//198 150//150 83//83
f 128//128 31//31 9//9
f 188//188 137//137 176//176
f 137//137 177//177 176//176
f 2//2 93//93 96//96
f 93//93 14//14 96//96
f 85//85 89//89 90//90
f 95//95 98//98 201//201
f 119//119 189//189 8//8
f 159//159 92//92 1//1
f 32//32 47//47 116//116
f 77//77 92//92 49//49
f 94//94 201//201 93//93
f 108//108 196//196 210//210
f 127//127 97//97 106//106
f 73//73 103//103 196//196
f 150//150 198//198 149//149
f 73//73 197//197 103//103
f 197//197 73//73 66//66
f 97//97 44//44 106//106
f 192//192 193//193 84//84
f 127//127 2//2 97//97
f 89//89 85//85 95//95
f 210//210 196//196 103//103
f 200//200 179//179 13//13
f 98//98 95//95 85//85
f 97//97 2//2 96//96
f 139//139 181//181 199//199
f 133//133 199//199 181//181
f 199//199 64//64 72//72
f 91//91 95//95 201//201
f 199//199 133//133 64//64
f 97//97 96//96 31//31
f 97//97 31//31 44//44
f 148//148 203//203 21//21
f 204//204 169//169 36//36
f 205//205 114//114 123//123
f 110//110 205//205 123//123
f 26//26 202//202 7//7
f 151//151 206//206 113//113
f 147//147 21//21 206//206
f 203//203 206//206 21//21
f 203//203 16//16 113//113
f 126//126 207//207 35//35
f 111//111 205//205 110//110
f 202//202 208//208 7//7
f 30//30 208//208 99//99
f 204//204 126//126 169//169
f 175//175 209//209 178//178
f 178//178 209//209 26//26
f 27//27 209//209 162//162
f 181//181 219//219 173//173
f 207//207 100//100 35//35
f 208//208 202//202 132//132
f 210//210 134//134 212//212
f 16//16 125//125 113//113
f 6//6 145//145 192//192
f 132//132 37//37 214//214
f 146//146 212//212 148//148
f 136//136 52//52 68//68
f 192//192 204//204 40//40
f 193//193 192//192 40//40
f 6//6 192//192 82//82
f 63//63 62//62 215//215
f 132//132 214//214 29//29
f 168//168 216//216 218//218
f 78//78 168//168 18//18
f 168//168 218//218 18//18
f 29//29 99//99 208//208
f 29//29 208//208 132//132
f 216//216 168//168 55//55
f 216//216 108//108 146//146
f 171//171 18//18 217//217
f 6//6 50//50 213//213
f 63//63 215//215 138//138
f 217//217 148//148 19//19
f 218//218 148//148 217//217
f 148//148 218//218 146//146
f 213//213 177//177 5//5
f 129//129 130//130 157//157
f 156//156 129//129 157//157
f 195//195 130//130 25//25
f 18//18 218//218 217//217
f 218//218 216//216 146//146
f 131//131 219//219 129//129
f 219//219 139//139 25//25
f 25//25 129//129 219//219
f 171//171 217//217 119//119
f 6//6 213//213 5//5
# 363 faces, 0 coords texture

# End of File
