####
#
# OBJ File Generated by Meshlab
#
####
# Object 1664S.obj
#
# Vertices: 29
# Faces: 41
#
####
vn 5.166890 -0.007532 -3.575125
v -70.450046 31.321606 64.473562
vn 5.166946 -0.005373 -3.575051
v -71.418517 32.745460 63.071247
vn 5.170241 -0.003436 -3.570257
v -70.426458 29.269045 64.513129
vn 5.160064 -0.018656 -3.584913
v -70.367818 33.067145 64.587579
vn 5.174244 -0.008270 -3.564466
v -72.626876 33.484436 61.321422
vn 5.176674 0.002455 -3.560963
v -71.453989 28.362867 63.017878
vn 2.300153 0.005611 -1.580122
v -73.617744 29.724341 59.877253
vn 2.224000 -0.011703 -1.550983
v -68.574900 33.508300 67.154800
vn 2.194094 -0.007381 -1.527263
v -69.181050 35.268000 66.276350
vn 2.205513 0.001264 -1.516315
v -71.521397 26.854848 62.918574
vn 2.168032 -0.000125 -1.488406
v -73.806400 32.238700 59.605200
vn 2.272030 -0.001029 -1.576833
v -69.437177 28.111649 65.939995
vn 2.272636 -0.008827 -1.583651
v -68.454750 31.575950 67.343200
vn 2.150043 -0.008030 -1.481425
v -72.754900 35.616500 61.125000
vn 2.184107 -0.008451 -1.515323
v -71.433130 36.563877 63.036341
vn 2.212865 0.006723 -1.518086
v -73.190700 28.297000 60.489600
vn 2.286785 -0.004395 -1.591363
v -68.702900 29.940100 66.993050
vn 2.186143 0.000957 -1.507823
v -70.349900 27.055600 64.622750
vn 5.171923 0.001467 -3.567848
v -71.452723 30.388618 63.019006
vn 5.159801 -0.009830 -3.585347
v -69.467573 30.347310 65.893092
vn 5.156536 -0.021271 -3.589979
v -69.468384 32.301288 65.884573
vn 5.154728 -0.023904 -3.592573
v -69.708976 34.212977 65.523021
vn 2.364016 -0.004793 -1.626285
v -73.347794 34.257927 60.271193
vn 2.199113 -0.008705 -1.532517
v -70.170791 36.350799 64.848444
vn 2.373524 0.003537 -1.629565
v -72.690500 27.651100 61.218800
vn 5.167338 -0.014631 -3.574436
v -71.766227 34.701515 62.564975
vn 5.175491 0.010678 -3.562660
v -72.448263 29.180636 61.575740
vn 5.173363 0.003931 -3.565732
v -72.546393 31.317202 61.440691
vn 5.157746 -0.018622 -3.588269
v -70.795683 34.651822 63.962145
# 29 vertices, 0 vertices normals

f 29//29 24//24 22//22
f 4//4 22//22 21//21
f 1//1 21//21 20//20
f 3//3 19//19 1//1
f 28//28 2//2 19//19
f 2//2 1//1 19//19
f 8//8 21//21 22//22
f 21//21 8//8 13//13
f 22//22 9//9 8//8
f 5//5 23//23 14//14
f 2//2 4//4 1//1
f 22//22 24//24 9//9
f 27//27 25//25 16//16
f 6//6 3//3 18//18
f 6//6 18//18 10//10
f 4//4 29//29 22//22
f 3//3 1//1 20//20
f 1//1 4//4 21//21
f 12//12 3//3 20//20
f 3//3 12//12 18//18
f 21//21 13//13 20//20
f 17//17 20//20 13//13
f 27//27 16//16 7//7
f 7//7 28//28 27//27
f 2//2 28//28 5//5
f 26//26 2//2 5//5
f 26//26 29//29 2//2
f 10//10 25//25 6//6
f 25//25 27//27 6//6
f 12//12 20//20 17//17
f 6//6 27//27 19//19
f 19//19 27//27 28//28
f 3//3 6//6 19//19
f 29//29 26//26 15//15
f 29//29 15//15 24//24
f 5//5 11//11 23//23
f 14//14 26//26 5//5
f 26//26 14//14 15//15
f 11//11 5//5 28//28
f 11//11 28//28 7//7
f 29//29 4//4 2//2
# 41 faces, 0 coords texture

# End of File
