####
#
# OBJ File Generated by Meshlab
#
####
# Object 1688S.obj
#
# Vertices: 29
# Faces: 42
#
####
vn -5.123824 0.116152 -3.634737
v 72.855502 -34.952472 62.937598
vn -5.117569 0.122234 -3.643330
v 71.784515 -30.672727 64.576126
vn -5.113769 0.110101 -3.649052
v 71.812117 -36.204676 64.366279
vn -2.252397 0.047517 -1.593478
v 74.740319 -35.111729 60.271995
vn -2.103703 0.042315 -1.502429
v 71.747200 -38.049800 64.404800
vn -2.132168 0.050474 -1.516432
v 71.745850 -28.759200 64.696100
vn -2.297245 0.051491 -1.617559
v 74.897050 -31.820750 60.143075
vn -2.097175 0.046746 -1.477356
v 74.331500 -29.919800 61.006600
vn -2.140195 0.046628 -1.514953
v 73.067925 -28.710851 62.838260
vn -2.281699 0.046630 -1.604873
v 74.993900 -33.012900 59.967500
vn -2.164950 0.056901 -1.542431
v 69.917550 -31.901150 67.158800
vn -2.082653 0.049548 -1.498293
v 69.989500 -35.849100 66.915100
vn -5.122291 0.114509 -3.636935
v 72.867201 -33.159806 62.979609
vn -5.114645 0.114177 -3.647709
v 71.799754 -32.607409 64.493578
vn -5.123511 0.104719 -3.635528
v 72.879646 -36.533171 62.855144
vn -5.135320 0.111794 -3.618617
v 73.987317 -32.036070 61.428216
vn -5.123767 0.117342 -3.634727
v 72.871872 -30.015535 63.075070
vn -5.103714 0.116149 -3.662912
v 70.976653 -35.589779 65.553277
vn -5.125880 0.117174 -3.631767
v 73.047996 -31.122739 62.790374
vn -5.125864 0.113012 -3.631934
v 73.758942 -35.425207 61.644625
vn -2.181603 0.043412 -1.547369
v 74.178650 -36.577000 61.020550
vn -5.131275 0.110636 -3.624353
v 73.949354 -33.828662 61.430731
vn -2.277224 0.057332 -1.631291
v 69.759650 -34.074850 67.297950
vn -2.195587 0.054571 -1.559124
v 70.751609 -29.785678 66.062920
vn -2.318568 0.050547 -1.664937
v 70.877545 -37.297247 65.637163
vn -2.200000 0.042989 -1.562732
v 72.911086 -37.862326 62.774319
vn -5.106909 0.119120 -3.658366
v 70.803158 -34.076148 65.843338
vn -5.115625 0.125736 -3.645951
v 70.765927 -32.102805 65.960582
vn -5.114388 0.113066 -3.648095
v 71.848898 -34.433210 64.369762
# 29 vertices, 0 vertices normals

f 8//8 17//17 9//9
f 20//20 21//21 15//15
f 24//24 28//28 11//11
f 3//3 25//25 18//18
f 27//27 18//18 12//12
f 29//29 18//18 27//27
f 13//13 29//29 14//14
f 3//3 15//15 5//5
f 6//6 17//17 2//2
f 13//13 16//16 22//22
f 1//1 15//15 3//3
f 8//8 16//16 19//19
f 7//7 16//16 8//8
f 14//14 28//28 2//2
f 13//13 19//19 16//16
f 20//20 15//15 1//1
f 15//15 21//21 26//26
f 10//10 16//16 7//7
f 10//10 22//22 16//16
f 28//28 27//27 23//23
f 6//6 2//2 24//24
f 3//3 5//5 25//25
f 20//20 22//22 4//4
f 21//21 20//20 4//4
f 19//19 2//2 17//17
f 25//25 12//12 18//18
f 15//15 26//26 5//5
f 12//12 23//23 27//27
f 28//28 23//23 11//11
f 14//14 29//29 27//27
f 29//29 3//3 18//18
f 3//3 29//29 1//1
f 22//22 10//10 4//4
f 22//22 20//20 1//1
f 13//13 22//22 1//1
f 14//14 27//27 28//28
f 29//29 13//13 1//1
f 14//14 19//19 13//13
f 9//9 17//17 6//6
f 14//14 2//2 19//19
f 24//24 2//2 28//28
f 19//19 17//17 8//8
# 42 faces, 0 coords texture

# End of File
