####
#
# OBJ File Generated by Meshlab
#
####
# Object 1707.obj
#
# Vertices: 42
# Faces: 61
#
####
vn -5.238507 0.018338 -3.469152
v 86.382437 43.687099 44.303423
vn -5.241040 0.038113 -3.465232
v 86.265604 41.536175 44.445567
vn -5.271358 0.050398 -3.418823
v 84.219704 41.840485 47.573972
vn -2.613832 0.011291 -1.731558
v 87.150300 41.028400 43.102700
vn -2.659298 0.008181 -1.661494
v 82.273450 42.123200 50.655950
vn -5.303343 -0.029012 -3.369126
v 83.178387 47.829563 49.169710
vn -2.653715 -0.013479 -1.679080
v 82.255725 49.002950 50.625225
vn -2.653452 -0.011399 -1.684057
v 82.266350 44.501700 50.643300
vn -1.333583 -0.006222 -0.826281
v 82.269700 38.000000 50.649200
vn -1.328181 -0.010665 -0.845464
v 82.252000 50.000000 50.618500
vn -1.299831 -0.007011 -0.878176
v 87.149200 50.000000 43.100700
vn -1.311060 -0.016224 -0.874284
v 87.160800 38.000000 43.120900
vn -5.247952 -0.065440 -3.454160
v 85.232365 46.297487 46.001360
vn -2.621052 0.023316 -1.736996
v 87.160050 42.826650 43.119550
vn -2.625287 -0.011053 -1.725515
v 84.893700 38.000000 46.526650
vn -5.253550 0.018488 -3.446097
v 85.119897 40.442797 46.168896
vn -2.645047 -0.002013 -1.694868
v 83.795350 38.000000 48.204850
vn -2.665204 -0.007908 -1.663206
v 82.876500 38.000000 49.669850
vn -5.297667 -0.034863 -3.378115
v 83.301183 45.690182 49.009576
vn -5.277073 0.011510 -3.410113
v 84.121729 39.772243 47.700466
vn -5.309587 0.029742 -3.358892
v 83.304515 41.085093 48.983308
vn -2.671069 0.002413 -1.663022
v 82.265703 39.711886 50.642761
vn -5.315956 0.000179 -3.349360
v 83.240904 39.489508 49.082575
vn -5.254714 0.049175 -3.444370
v 85.387509 42.488659 45.792839
vn -2.641467 -0.004702 -1.700620
v 84.464900 50.000000 47.153450
vn -5.259780 -0.032754 -3.436499
v 85.107030 48.161122 46.164651
vn -5.288890 -0.013367 -3.392016
v 84.013115 48.656368 47.862163
vn -5.224220 -0.051126 -3.490420
v 86.318966 45.855340 44.378837
vn -5.270212 -0.048037 -3.420586
v 84.320642 44.944870 47.428500
vn -2.603932 -0.020996 -1.754505
v 87.155050 47.517850 43.110950
vn -5.294840 0.005951 -3.382591
v 83.376800 43.428259 48.898842
vn -2.653249 -0.017129 -1.680774
v 82.262500 46.450500 50.636900
vn -5.219368 -0.044068 -3.497683
v 86.159457 47.999022 44.581643
vn -2.615070 -0.011915 -1.751133
v 87.165192 45.172872 43.128417
vn -2.617607 -0.013269 -1.736731
v 85.746850 50.000000 45.175500
vn -2.612432 -0.018941 -1.737972
v 87.152850 39.388750 43.107050
vn -5.283766 -0.043473 -3.399564
v 84.216206 46.978360 47.554457
vn -2.616279 -0.025376 -1.739005
v 85.845500 38.000000 45.093300
vn -2.650187 -0.007719 -1.687005
v 83.100500 50.000000 49.285550
vn -5.263949 0.016335 -3.430297
v 84.492370 43.393268 47.183062
vn -5.249403 -0.027373 -3.452435
v 85.434903 44.423000 45.740080
vn -5.236842 -0.023483 -3.471689
v 85.921501 39.330282 44.960542
# 42 vertices, 0 vertices normals

f 18//18 22//22 23//23
f 5//5 8//8 31//31
f 3//3 40//40 24//24
f 39//39 7//7 10//10
f 30//30 33//33 11//11
f 33//33 26//26 35//35
f 16//16 15//15 20//20
f 13//13 37//37 26//26
f 14//14 4//4 2//2
f 15//15 17//17 20//20
f 17//17 18//18 23//23
f 1//1 24//24 41//41
f 14//14 2//2 1//1
f 18//18 9//9 22//22
f 8//8 19//19 31//31
f 3//3 20//20 21//21
f 25//25 35//35 26//26
f 26//26 27//27 25//25
f 40//40 29//29 41//41
f 24//24 40//40 41//41
f 30//30 34//34 28//28
f 8//8 32//32 19//19
f 32//32 7//7 6//6
f 34//34 14//14 1//1
f 28//28 34//34 1//1
f 4//4 42//42 2//2
f 24//24 2//2 16//16
f 11//11 33//33 35//35
f 36//36 38//38 42//42
f 36//36 42//42 4//4
f 26//26 37//37 27//27
f 38//38 15//15 42//42
f 27//27 39//39 25//25
f 29//29 19//19 37//37
f 20//20 17//17 23//23
f 5//5 31//31 21//21
f 37//37 19//19 6//6
f 27//27 37//37 6//6
f 32//32 6//6 19//19
f 1//1 2//2 24//24
f 6//6 7//7 39//39
f 6//6 39//39 27//27
f 41//41 28//28 1//1
f 13//13 26//26 33//33
f 30//30 28//28 33//33
f 28//28 41//41 13//13
f 22//22 5//5 21//21
f 29//29 40//40 31//31
f 19//19 29//29 31//31
f 21//21 31//31 3//3
f 13//13 41//41 29//29
f 37//37 13//13 29//29
f 22//22 21//21 23//23
f 21//21 20//20 23//23
f 13//13 33//33 28//28
f 3//3 31//31 40//40
f 16//16 20//20 3//3
f 16//16 3//3 24//24
f 42//42 16//16 2//2
f 12//12 38//38 36//36
f 42//42 15//15 16//16
# 61 faces, 0 coords texture

# End of File
