####
#
# OBJ File Generated by Meshlab
#
####
# Object 1712.obj
#
# Vertices: 29
# Faces: 31
#
####
vn -2.578437 -0.009194 -1.778019
v 46.143600 26.996700 99.894100
vn -2.582735 -0.009821 -1.780899
v 46.070600 26.992000 100.000000
vn -0.045645 -0.000571 -0.027351
v 46.140900 20.072100 100.000000
vn -2.667715 -0.033369 -1.599849
v 46.143600 20.253800 99.991700
vn -0.038032 0.000679 -0.028034
v 46.131700 32.983100 99.991900
vn -2.555459 0.014752 -1.813837
v 46.071000 29.485900 100.000000
vn -2.549967 0.022880 -1.807960
v 46.143600 29.538100 99.898200
vn -2.623375 -0.028960 -1.725882
v 46.110500 22.501800 100.000000
vn -2.621858 -0.028982 -1.724606
v 46.143600 22.500600 99.949700
vn -2.605832 -0.023597 -1.747436
v 46.143600 24.714800 99.916900
vn -2.606330 -0.020502 -1.751305
v 46.087300 24.777200 100.000000
vn -2.518872 0.041219 -1.853204
v 46.143600 31.241900 99.933700
vn -5.086465 0.073458 -3.687738
v 46.115993 30.807354 99.962215
vn -2.524273 0.041708 -1.855745
v 46.095000 31.253000 100.000000
vn -2.553555 0.036284 -1.829659
v 46.083000 30.369400 100.000000
vn -2.573549 0.001715 -1.801789
v 46.070800 28.239000 100.000000
vn -2.572545 0.001540 -1.803111
v 46.143600 28.267400 99.896100
vn -5.238513 -0.052257 -3.468914
v 46.124284 23.073289 99.970563
vn -2.615636 -0.026380 -1.739930
v 46.143600 23.607700 99.933300
vn -2.615228 -0.026186 -1.740546
v 46.098900 23.639500 100.000000
vn -2.634909 -0.032604 -1.710495
v 46.143600 21.377200 99.970700
vn -5.257026 -0.065143 -3.440606
v 46.130747 21.905874 99.980394
vn -2.636000 -0.032040 -1.708823
v 46.125700 21.286900 100.000000
vn -5.180677 -0.037056 -3.554888
v 46.109455 26.421384 99.949951
vn -2.594413 -0.018452 -1.771430
v 46.078900 25.884600 100.000000
vn -2.595264 -0.018676 -1.770271
v 46.143600 25.855700 99.905500
vn -2.552024 0.036130 -1.831632
v 46.143600 30.390000 99.915900
vn -2.528619 0.044931 -1.863824
v 46.113300 32.118000 99.995900
vn -2.528696 0.044891 -1.863790
v 46.137600 32.112500 99.962800
# 29 vertices, 0 vertices normals

f 14//14 12//12 13//13
f 27//27 15//15 13//13
f 16//16 6//6 17//17
f 1//1 16//16 17//17
f 20//20 19//19 18//18
f 8//8 20//20 18//18
f 4//4 23//23 21//21
f 8//8 22//22 23//23
f 26//26 25//25 24//24
f 1//1 26//26 24//24
f 12//12 27//27 13//13
f 6//6 15//15 7//7
f 28//28 5//5 29//29
f 15//15 14//14 13//13
f 2//2 16//16 1//1
f 17//17 6//6 7//7
f 9//9 18//18 19//19
f 18//18 9//9 8//8
f 20//20 10//10 19//19
f 10//10 20//20 11//11
f 8//8 9//9 22//22
f 21//21 22//22 9//9
f 21//21 23//23 22//22
f 23//23 4//4 3//3
f 2//2 24//24 25//25
f 24//24 2//2 1//1
f 26//26 11//11 25//25
f 11//11 26//26 10//10
f 27//27 7//7 15//15
f 14//14 29//29 12//12
f 29//29 14//14 28//28
# 31 faces, 0 coords texture

# End of File
