####
#
# OBJ File Generated by Meshlab
#
####
# Object 1713.obj
#
# Vertices: 54
# Faces: 80
#
####
vn 4.878637 0.165923 -3.955280
v -50.572320 39.193920 95.717113
vn 2.555005 0.022966 -1.827586
v -53.358100 50.000000 92.272300
vn 2.567489 0.012617 -1.832233
v -53.550200 49.863700 91.999900
vn 4.878032 0.043009 -3.958480
v -50.113501 48.509353 96.567514
vn 2.418985 0.025217 -2.002890
v -49.766400 50.000000 97.012300
vn 1.245463 0.011779 -0.926865
v -53.466200 38.000000 91.905900
vn 2.356639 0.013015 -2.075092
v -47.151950 48.175900 100.000000
vn 1.182053 0.007873 -1.041007
v -47.163900 50.000000 100.000000
vn 1.283460 0.001606 -0.905916
v -53.550300 50.000000 92.000000
vn 2.764796 0.185250 -2.411836
v -48.081300 37.994600 98.562500
vn 1.111219 0.072359 -0.945510
v -46.805800 37.366500 100.000000
vn 2.028425 0.141342 -1.739867
v -47.434700 37.432100 99.265900
vn 5.019118 0.108531 -3.777761
v -51.593804 43.651514 94.562187
vn 2.357627 0.128273 -2.071487
v -47.004808 40.996361 99.996325
vn 2.378078 0.088278 -2.085777
v -47.106300 42.849500 100.000000
vn 5.059943 0.084896 -3.723881
v -52.492884 40.778219 93.262472
vn 2.538503 0.048447 -1.852973
v -53.477600 41.984100 91.932000
vn 2.520891 0.014090 -1.874176
v -52.032800 50.000000 94.097050
vn 5.074069 0.026971 -3.705554
v -52.772060 48.665703 93.071287
vn 4.847714 0.081979 -3.994404
v -49.461592 43.497302 97.287363
vn 4.741434 0.271480 -4.113656
v -48.262585 39.708728 98.483699
vn 4.749783 0.035799 -4.112656
v -48.563221 48.645201 98.400837
vn 2.367981 0.014389 -2.064343
v -48.469975 49.999990 98.517241
vn 2.543717 0.008028 -1.853651
v -53.563550 48.203600 91.983250
vn 2.504601 0.045109 -1.896711
v -52.290450 37.999600 93.477000
vn 4.863526 0.071567 -3.977096
v -49.844882 45.113556 96.831715
vn 5.055333 0.055681 -3.730526
v -52.696371 46.757248 93.160393
vn 2.526379 0.076648 -1.846518
v -53.524900 43.479200 91.926800
vn 5.054257 0.124172 -3.730142
v -52.653127 44.658859 93.171940
vn 2.359467 0.011103 -2.075085
v -47.144200 46.339700 100.000000
vn 4.734306 0.033542 -4.130718
v -47.971819 46.580775 99.060249
vn 2.383410 0.146454 -2.054772
v -46.882000 38.536700 100.000000
vn 4.925887 0.150955 -3.895963
v -50.429476 42.059075 96.037753
vn 4.746226 0.117898 -4.114351
v -48.191581 43.257391 98.774151
vn 2.478758 0.011615 -1.929833
v -50.900400 50.000000 95.578800
vn 4.991368 0.122763 -3.813760
v -51.768116 39.235579 94.196111
vn 4.715359 0.251579 -4.144862
v -47.979628 41.559043 98.926882
vn 5.071274 0.121987 -3.707320
v -52.617210 42.713038 93.133841
vn 2.371361 0.025101 -2.072751
v -47.134800 44.490850 100.000000
vn 4.929991 0.073967 -3.892664
v -50.618186 46.634037 95.916740
vn 2.382220 0.114696 -2.043685
v -49.096800 37.994600 97.422800
vn 2.564456 0.025804 -1.879993
v -53.448950 40.431300 91.949050
vn 4.796456 0.218835 -4.049174
v -49.087527 41.785670 97.681417
vn 2.511010 0.042434 -1.838954
v -53.581350 45.760950 91.939600
vn 4.806669 0.054990 -4.045300
v -49.316824 46.833076 97.505995
vn 4.775346 0.047231 -4.082848
v -48.627567 45.000936 98.287975
vn 2.441852 0.066668 -1.977388
v -50.677500 37.998200 95.549600
vn 5.006057 0.043902 -3.795771
v -51.537407 48.107764 94.742749
vn 5.014757 0.091413 -3.784306
v -51.658108 45.722229 94.528904
vn 4.966247 0.157304 -3.843992
v -51.210828 40.559554 94.979170
vn 5.042165 0.059692 -3.748462
v -52.757624 39.188616 92.873144
vn 4.841164 0.234930 -3.997806
v -49.838990 40.178380 96.660096
vn 5.030830 0.105479 -3.761908
v -51.637642 41.986380 94.460211
vn 4.949946 0.094003 -3.868284
v -50.650872 44.289272 95.809067
# 54 vertices, 0 vertices normals

f 2//2 3//3 9//9
f 35//35 4//4 48//48
f 21//21 37//37 14//14
f 48//48 19//19 18//18
f 34//34 20//20 46//46
f 48//48 27//27 19//19
f 4//4 22//22 45//45
f 2//2 18//18 19//19
f 4//4 40//40 48//48
f 23//23 22//22 5//5
f 6//6 42//42 51//51
f 23//23 8//8 22//22
f 7//7 22//22 8//8
f 3//3 19//19 24//24
f 19//19 3//3 2//2
f 36//36 25//25 51//51
f 14//14 32//32 21//21
f 32//32 10//10 21//21
f 29//29 27//27 49//49
f 28//28 44//44 29//29
f 7//7 30//30 31//31
f 30//30 39//39 31//31
f 11//11 12//12 32//32
f 10//10 32//32 12//12
f 33//33 52//52 50//50
f 35//35 5//5 4//4
f 16//16 50//50 36//36
f 14//14 37//37 15//15
f 24//24 19//19 27//27
f 29//29 44//44 27//27
f 17//17 28//28 38//38
f 39//39 15//15 34//34
f 41//41 1//1 52//52
f 1//1 41//41 47//47
f 16//16 17//17 38//38
f 20//20 43//43 33//33
f 18//18 35//35 48//48
f 42//42 17//17 16//16
f 44//44 24//24 27//27
f 47//47 25//25 36//36
f 21//21 43//43 37//37
f 21//21 52//52 43//43
f 20//20 33//33 54//54
f 21//21 41//41 52//52
f 50//50 52//52 1//1
f 34//34 43//43 20//20
f 46//46 20//20 26//26
f 4//4 45//45 40//40
f 37//37 43//43 34//34
f 37//37 34//34 15//15
f 13//13 54//54 33//33
f 38//38 53//53 16//16
f 45//45 22//22 31//31
f 45//45 31//31 46//46
f 26//26 40//40 45//45
f 48//48 49//49 27//27
f 40//40 49//49 48//48
f 4//4 5//5 22//22
f 29//29 38//38 28//28
f 41//41 21//21 10//10
f 47//47 36//36 1//1
f 31//31 39//39 46//46
f 31//31 22//22 7//7
f 43//43 52//52 33//33
f 39//39 34//34 46//46
f 40//40 26//26 54//54
f 1//1 36//36 50//50
f 49//49 13//13 29//29
f 29//29 13//13 38//38
f 51//51 42//42 16//16
f 51//51 25//25 6//6
f 38//38 13//13 53//53
f 26//26 45//45 46//46
f 53//53 33//33 50//50
f 53//53 50//50 16//16
f 36//36 51//51 16//16
f 13//13 33//33 53//53
f 54//54 13//13 49//49
f 40//40 54//54 49//49
f 54//54 26//26 20//20
# 80 faces, 0 coords texture

# End of File
