####
#
# OBJ File Generated by Meshlab
#
####
# Object 1718.obj
#
# Vertices: 49
# Faces: 71
#
####
vn -2.603578 0.075235 -1.756621
v 87.320950 -44.506750 43.398300
vn -5.233984 0.170110 -3.471864
v 85.542044 -43.521030 46.087321
vn -2.598498 0.086538 -1.753969
v 87.344600 -42.713600 43.439400
vn -5.296525 0.097716 -3.378671
v 84.078857 -46.500915 48.229668
vn -2.591414 0.072459 -1.781922
v 87.405300 -39.148725 43.544475
vn -2.585836 0.060808 -1.783095
v 86.850000 -38.000000 44.389000
vn -1.300194 0.031233 -0.897399
v 87.417900 -38.000000 43.566200
vn -2.599131 0.064025 -1.755259
v 87.292300 -46.657450 43.348650
vn -2.594427 0.037085 -1.766832
v 87.278200 -48.407450 43.324200
vn -2.612806 0.035160 -1.743782
v 85.927450 -50.000000 45.291950
vn -2.598863 0.028512 -1.764786
v 86.943000 -50.000000 43.789500
vn -2.651216 0.046796 -1.694883
v 82.419908 -43.554582 50.910394
vn -2.604456 0.053725 -1.756370
v 85.625300 -38.000000 46.165550
vn -1.294435 0.014855 -0.881662
v 87.269800 -50.000000 43.309700
vn -2.655539 0.051450 -1.674389
v 82.382700 -48.834650 50.846000
vn -5.311042 0.090615 -3.356008
v 83.032167 -47.033636 49.870118
vn -2.653501 0.036931 -1.677311
v 82.405500 -45.963000 50.886600
vn -5.311412 0.108741 -3.354899
v 83.573909 -48.439894 48.965341
vn -2.641058 0.049292 -1.694157
v 82.438200 -41.196700 50.951600
vn -5.198984 0.176516 -3.523791
v 86.844457 -41.411442 44.249379
vn -2.630139 0.046462 -1.717026
v 84.948700 -50.000000 46.769000
vn -1.336400 0.027756 -0.843565
v 82.371500 -50.000000 50.825400
vn -5.255033 0.119001 -3.442176
v 84.341206 -41.529273 48.001652
vn -2.634440 0.047470 -1.711095
v 83.401450 -38.000000 49.542250
vn -1.318196 0.023911 -0.845334
v 82.469100 -38.000000 50.994500
vn -5.281207 0.119059 -3.401876
v 83.598705 -43.167994 49.084760
vn -5.283397 0.105068 -3.398848
v 84.547818 -48.186715 47.441141
vn -5.213567 0.089633 -3.505154
v 86.485044 -48.178858 44.493815
vn -5.244717 0.096905 -3.458448
v 85.542412 -47.998296 45.918891
vn -5.303437 0.085666 -3.368113
v 83.235423 -45.145111 49.589500
vn -5.276318 0.104512 -3.409921
v 83.262678 -41.521443 49.657311
vn -2.658350 0.052878 -1.673334
v 82.947900 -50.000000 49.912250
vn -5.285155 0.118610 -3.395499
v 84.114729 -44.605513 48.223410
vn -2.592690 0.100237 -1.776664
v 87.368500 -41.481300 43.480700
vn -5.193401 0.131537 -3.533989
v 86.255683 -39.854046 45.188428
vn -2.653093 0.044750 -1.680693
v 82.396000 -47.204600 50.869800
vn -2.650424 0.053774 -1.685429
v 83.945814 -49.999951 48.323465
vn -2.624830 0.054259 -1.725424
v 84.438050 -38.000000 47.965400
vn -5.225363 0.149026 -3.485860
v 85.673986 -41.764704 45.979132
vn -2.643430 0.047606 -1.692521
v 82.456300 -39.298500 50.979100
vn -5.217919 0.130023 -3.497758
v 86.286418 -46.228833 44.859549
vn -5.279811 0.096144 -3.404764
v 83.034151 -39.603797 50.068008
vn -5.259158 0.102653 -3.436431
v 83.931761 -39.765902 48.683766
vn -5.234059 0.106351 -3.474225
v 85.060032 -39.832193 46.959432
vn -5.213442 0.167309 -3.502893
v 86.551255 -43.198931 44.596764
vn -5.257899 0.156024 -3.436286
v 84.634454 -43.169290 47.485899
vn -5.259660 0.133669 -3.434166
v 84.952105 -44.887571 46.917909
vn -5.218860 0.148831 -3.495510
v 86.051167 -44.757395 45.266557
vn -5.253960 0.114148 -3.443516
v 85.257135 -46.311830 46.399928
# 49 vertices, 0 vertices normals

f 3//3 1//1 45//45
f 6//6 7//7 5//5
f 9//9 14//14 11//11
f 29//29 21//21 27//27
f 26//26 30//30 12//12
f 12//12 31//31 26//26
f 5//5 35//35 6//6
f 28//28 8//8 9//9
f 10//10 28//28 11//11
f 11//11 28//28 9//9
f 6//6 35//35 13//13
f 33//33 30//30 26//26
f 32//32 22//22 15//15
f 41//41 1//1 8//8
f 37//37 18//18 27//27
f 5//5 34//34 20//20
f 34//34 3//3 20//20
f 35//35 5//5 20//20
f 12//12 30//30 17//17
f 15//15 36//36 16//16
f 36//36 17//17 16//16
f 43//43 24//24 38//38
f 18//18 37//37 32//32
f 12//12 19//19 31//31
f 38//38 13//13 44//44
f 3//3 45//45 20//20
f 16//16 30//30 4//4
f 4//4 30//30 33//33
f 35//35 44//44 13//13
f 30//30 16//16 17//17
f 20//20 39//39 35//35
f 39//39 44//44 35//35
f 2//2 39//39 45//45
f 19//19 40//40 42//42
f 42//42 25//25 24//24
f 25//25 42//42 40//40
f 29//29 49//49 41//41
f 26//26 23//23 46//46
f 47//47 49//49 4//4
f 4//4 49//49 27//27
f 23//23 31//31 43//43
f 42//42 24//24 43//43
f 31//31 19//19 42//42
f 23//23 44//44 39//39
f 23//23 43//43 44//44
f 1//1 41//41 48//48
f 44//44 43//43 38//38
f 31//31 42//42 43//43
f 45//45 39//39 20//20
f 16//16 4//4 18//18
f 31//31 23//23 26//26
f 46//46 47//47 33//33
f 39//39 46//46 23//23
f 2//2 46//46 39//39
f 26//26 46//46 33//33
f 15//15 16//16 18//18
f 32//32 15//15 18//18
f 27//27 21//21 37//37
f 47//47 46//46 2//2
f 29//29 28//28 10//10
f 29//29 10//10 21//21
f 27//27 49//49 29//29
f 41//41 8//8 28//28
f 33//33 47//47 4//4
f 41//41 28//28 29//29
f 45//45 48//48 2//2
f 48//48 47//47 2//2
f 4//4 27//27 18//18
f 1//1 48//48 45//45
f 41//41 49//49 48//48
f 49//49 47//47 48//48
# 71 faces, 0 coords texture

# End of File
