####
#
# OBJ File Generated by Meshlab
#
####
# Object 1720.obj
#
# Vertices: 47
# Faces: 69
#
####
vn 5.351821 0.068838 -3.291123
v -83.763972 43.937441 47.566335
vn 2.641397 0.028211 -1.700628
v -85.883750 50.000000 44.307600
vn 1.352185 0.020652 -0.813204
v -82.047800 38.000000 50.264900
vn 5.365274 0.056662 -3.269285
v -82.995705 41.150996 48.752891
vn 2.664597 0.030136 -1.657166
v -82.100200 49.862400 50.355700
vn 2.671997 0.026624 -1.658530
v -82.089750 48.252550 50.337900
vn 2.616496 0.020290 -1.730648
v -86.895950 44.704850 42.662150
vn 1.329279 0.009065 -0.832379
v -82.100700 50.000000 50.356400
vn 2.668031 0.030798 -1.658304
v -82.186300 50.000000 50.219700
vn 5.237851 0.003748 -3.470327
v -85.908605 39.793424 44.151084
vn 1.319775 0.016861 -0.861369
v -86.924700 50.000000 42.711900
vn 1.308501 0.003875 -0.866976
v -86.893100 38.000000 42.657200
vn 5.353734 0.058016 -3.288239
v -82.865239 44.427789 49.035248
vn 5.284183 0.020590 -3.397601
v -85.021397 41.393774 45.481304
vn 5.354923 0.071929 -3.286020
v -83.090200 42.846348 48.634484
vn 5.348853 0.051050 -3.296296
v -83.557657 45.510713 47.927698
vn 2.653847 0.017700 -1.680610
v -84.167478 38.000013 46.803194
vn 5.276808 0.065917 -3.410054
v -86.103619 48.453116 43.939666
vn 5.327050 0.060260 -3.330778
v -84.713113 43.311400 46.004630
vn 5.338519 0.063684 -3.312783
v -82.606666 48.851392 49.517996
vn 5.308197 0.084712 -3.360570
v -85.137764 46.634104 45.409731
vn 2.675867 0.024529 -1.641877
v -82.081050 44.876950 50.322000
vn 2.667234 0.029700 -1.659768
v -84.115000 50.000000 47.105250
vn 5.316585 0.061973 -3.347810
v -84.712930 48.494785 46.121819
vn 5.331275 0.047369 -3.324403
v -84.012322 40.239999 47.081491
vn 5.337460 0.061284 -3.314469
v -84.004335 46.868035 47.223949
vn 5.347001 0.044239 -3.299388
v -82.810508 46.737944 49.156392
vn 2.674311 0.014701 -1.648123
v -82.086100 46.609400 50.330700
vn 2.684173 0.033773 -1.631671
v -82.864200 38.000000 48.907400
vn 2.670464 0.034819 -1.654361
v -83.052400 50.000000 48.823600
vn 5.232248 -0.008646 -3.478778
v -86.127789 41.444843 43.818652
vn 2.623951 0.006919 -1.727477
v -85.508050 38.000000 44.746700
vn 2.627818 0.032278 -1.719729
v -86.909550 47.424250 42.685750
vn 2.625605 0.028159 -1.725337
v -86.903400 46.137400 42.675000
vn 2.684494 0.026575 -1.636461
v -82.066550 42.380850 50.299000
vn 5.348106 0.067684 -3.297180
v -83.900705 42.159304 47.300925
vn 2.654313 0.024975 -1.680434
v -84.951600 50.000000 45.767200
vn 5.251934 0.015753 -3.448542
v -85.842789 43.087501 44.240641
vn 5.340394 0.072287 -3.309530
v -84.447956 45.142156 46.476255
vn 5.263058 0.075141 -3.431060
v -86.206102 46.342354 43.739488
vn 2.614998 -0.002309 -1.740104
v -86.895450 42.351500 42.661300
vn 2.619258 0.001299 -1.737375
v -86.896215 40.467150 42.662625
vn 2.687593 0.027847 -1.617102
v -82.062000 39.894500 50.289400
vn 5.270060 0.006916 -3.421006
v -84.954491 39.430260 45.596048
vn 5.361875 0.058487 -3.274685
v -83.181704 39.381878 48.413369
vn 5.286343 0.067485 -3.393851
v -85.504554 44.819737 44.771021
vn 5.340024 0.061416 -3.310388
v -83.552967 48.484797 47.983164
# 47 vertices, 0 vertices normals

f 8//8 5//5 9//9
f 47//47 30//30 20//20
f 44//44 32//32 10//10
f 26//26 21//21 24//24
f 2//2 37//37 24//24
f 38//38 46//46 19//19
f 25//25 44//44 14//14
f 19//19 1//1 36//36
f 26//26 16//16 39//39
f 17//17 32//32 44//44
f 5//5 6//6 20//20
f 22//22 35//35 13//13
f 23//23 30//30 47//47
f 33//33 18//18 40//40
f 16//16 27//27 13//13
f 1//1 16//16 13//13
f 4//4 25//25 36//36
f 22//22 13//13 27//27
f 6//6 28//28 27//27
f 28//28 22//22 27//27
f 27//27 16//16 26//26
f 29//29 17//17 45//45
f 20//20 9//9 5//5
f 20//20 30//30 9//9
f 41//41 38//38 31//31
f 15//15 1//1 13//13
f 10//10 12//12 42//42
f 10//10 32//32 12//12
f 7//7 34//34 40//40
f 34//34 33//33 40//40
f 45//45 25//25 4//4
f 35//35 43//43 4//4
f 4//4 36//36 15//15
f 18//18 2//2 24//24
f 37//37 23//23 24//24
f 24//24 21//21 18//18
f 21//21 40//40 18//18
f 43//43 29//29 45//45
f 41//41 7//7 38//38
f 19//19 39//39 1//1
f 17//17 25//25 45//45
f 27//27 47//47 20//20
f 27//27 20//20 6//6
f 42//42 41//41 31//31
f 36//36 1//1 15//15
f 7//7 40//40 46//46
f 35//35 15//15 13//13
f 15//15 35//35 4//4
f 21//21 26//26 39//39
f 39//39 16//16 1//1
f 3//3 29//29 43//43
f 45//45 4//4 43//43
f 31//31 10//10 42//42
f 44//44 10//10 14//14
f 25//25 17//17 44//44
f 27//27 26//26 47//47
f 46//46 39//39 19//19
f 14//14 31//31 38//38
f 46//46 40//40 21//21
f 47//47 24//24 23//23
f 14//14 19//19 36//36
f 14//14 36//36 25//25
f 47//47 26//26 24//24
f 39//39 46//46 21//21
f 19//19 14//14 38//38
f 7//7 46//46 38//38
f 2//2 18//18 11//11
f 10//10 31//31 14//14
f 18//18 33//33 11//11
# 69 faces, 0 coords texture

# End of File
