####
#
# OBJ File Generated by Meshlab
#
####
# Object 172S.obj
#
# Vertices: 215
# Faces: 359
#
####
vn -3.317848 0.061481 -5.335187
v 47.340204 -1.929244 19.520626
vn -3.613867 -0.069323 -5.138989
v 43.922275 -21.293448 21.826354
vn -3.306663 0.021390 -5.341915
v 48.427125 2.428474 18.835858
vn -3.104315 0.008511 -5.462480
v 51.042470 1.673765 17.286230
vn -3.063511 -0.011805 -5.485614
v 51.991386 -3.335698 16.774067
vn -3.261126 -0.022558 -5.370251
v 48.260928 -11.787701 18.936314
vn -3.290252 -0.019669 -5.352751
v 47.561977 -14.220285 19.381376
vn -2.952885 -0.025925 -5.545698
v 55.286806 8.656935 14.919631
vn -2.829769 -0.039598 -5.609145
v 56.920518 7.505436 14.074990
vn -3.207373 0.007178 -5.402767
v 49.258433 6.414081 18.374972
vn -3.044842 0.092505 -5.495273
v 53.270001 -25.952627 15.916373
vn -2.954385 0.155528 -5.542759
v 55.583391 -28.157176 14.596834
vn -3.475790 -0.005514 -5.234114
v 44.722045 -8.143555 21.164446
vn -3.634118 -0.010224 -5.125427
v 45.034228 -27.546715 21.105609
vn -2.847926 -0.092301 -5.599742
v 56.707395 5.093245 14.214990
vn -3.558893 -0.009165 -5.177903
v 42.996080 -8.324385 22.329296
vn -2.773361 -0.100090 -5.636287
v 58.845524 5.847117 13.137649
vn -3.653710 -0.078304 -5.110413
v 43.467891 -24.273863 22.179071
vn -3.411497 -0.035053 -5.275887
v 45.941777 6.094616 20.407245
vn -2.895370 -0.020034 -5.576239
v 55.108753 -1.535002 15.083001
vn -3.346325 -0.033969 -5.317749
v 46.699190 -10.501950 19.905515
vn -3.230249 -0.018169 -5.388668
v 48.381269 -7.226904 18.834829
vn -3.282961 0.007522 -5.356380
v 49.772096 -22.208000 17.966599
vn -3.180601 -0.011790 -5.418637
v 49.973927 -10.474951 17.919868
vn -3.196569 0.007056 -5.409131
v 50.044388 -11.961466 17.872671
vn -3.250821 0.043897 -5.376282
v 48.756964 4.564675 18.652992
vn -3.102830 0.018419 -5.463483
v 50.765814 -4.534159 17.456432
vn -3.463660 0.029960 -5.242084
v 47.586778 -24.333986 19.375006
vn -3.347969 0.034513 -5.316228
v 49.299199 -23.875586 18.259405
vn -3.084451 0.014890 -5.473247
v 51.572446 -11.433207 16.983872
vn -3.139573 0.037847 -5.442070
v 51.079280 -20.986180 17.201713
vn -3.507694 -0.037182 -5.212556
v 44.596233 -13.766349 21.278563
vn -3.109612 -0.050238 -5.459466
v 51.951087 9.221478 16.779305
vn -3.485327 0.016118 -5.227109
v 47.343562 -30.904942 19.473464
vn -3.044289 0.007438 -5.496291
v 52.439482 2.914589 16.510035
vn -3.100223 0.021420 -5.464760
v 52.184340 4.819189 16.653555
vn -3.122836 -0.011909 -5.452104
v 50.568517 -2.213724 17.572936
vn -3.537879 -0.085665 -5.189842
v 44.629898 -19.368859 21.290098
vn -1.527217 -0.016874 -2.503981
v 48.773300 10.236800 18.632050
vn -1.315716 -0.008963 -2.555511
v 56.703000 9.775845 14.175550
vn -1.637035 -0.025136 -2.284686
v 41.262850 -10.494385 23.565000
vn -1.190242 -0.027351 -2.552818
v 59.161500 1.265720 13.096900
vn -1.980001 -0.004218 -3.655435
v 52.804100 -4.066320 16.331800
vn -1.210932 0.018267 -2.191420
v 52.530100 -4.924680 16.463300
vn -2.405823 0.026062 -4.255814
v 51.755900 -5.522510 16.894900
vn -1.543051 0.002082 -2.773647
v 52.323500 -6.199760 16.564800
vn -1.637793 -0.023964 -2.322920
v 41.651100 -12.262100 23.308900
vn -1.480268 -0.024780 -2.641938
v 51.611300 11.000600 16.953000
vn -2.138419 -0.033110 -3.040047
v 43.935900 -18.635000 21.768300
vn -1.556430 0.006176 -2.503388
v 46.896045 9.138434 19.795396
vn -1.578900 -0.012238 -2.243485
v 41.384500 -8.304480 23.456950
vn -1.280574 0.009777 -2.704335
v 58.593500 0.163564 13.357900
vn -1.937289 0.034909 -3.358009
v 51.601900 -17.306000 16.929100
vn -1.902406 -0.036771 -2.780329
v 43.532700 -15.469000 22.026100
vn -2.144931 -0.016464 -3.073596
v 44.133000 -16.868500 21.635300
vn -1.224558 -0.052692 -2.581614
v 59.477800 3.158810 12.907600
vn -1.296997 -0.069754 -2.704772
v 59.339900 4.648010 12.938850
vn -1.527241 -0.019269 -2.647708
v 50.736700 10.829550 17.448900
vn -1.547952 -0.004745 -2.251403
v 42.196600 -6.345545 22.873900
vn -2.036848 0.030296 -3.509147
v 51.343600 -18.788700 17.064400
vn -1.289524 -0.016942 -2.500958
v 56.066750 -2.864140 14.598050
vn -1.326062 -0.002291 -2.434782
v 54.637213 10.898616 15.256104
vn -1.709700 0.006310 -2.386416
v 44.627500 -29.771050 21.400650
vn -1.496406 0.028064 -2.265508
v 43.528150 2.519180 21.985600
vn -1.587921 -0.068005 -3.232532
v 59.064900 5.855880 13.029700
vn -1.139257 -0.009455 -2.314565
v 59.071800 5.889440 13.026100
vn -1.312419 0.063822 -2.478841
v 56.207750 -29.914900 14.220850
vn -2.162080 0.010946 -3.308562
v 45.385400 -3.671610 20.738800
vn -1.661807 -0.021021 -2.287687
v 42.372900 -21.706850 22.951150
vn -1.400087 0.016829 -2.572909
v 53.249500 -15.910200 16.042200
vn -2.341464 0.040553 -3.292005
v 46.243800 -31.350000 20.226400
vn -2.127059 0.041462 -3.370397
v 45.663600 -2.183800 20.553100
vn -1.252206 0.063588 -2.411574
v 56.712300 -28.348700 14.005600
vn -1.557396 0.012165 -2.357191
v 43.716850 4.437690 21.882250
vn -1.743907 -0.015910 -2.410578
v 43.636250 -28.306600 22.118050
vn -1.629859 -0.010233 -2.469022
v 44.379800 6.188940 21.437900
vn -2.365870 0.046223 -3.371550
v 46.513200 -31.611800 20.027500
vn -0.687016 -0.008601 -0.919206
v 46.246700 -31.763300 20.228100
vn -1.477513 -0.002399 -2.617904
v 52.746050 11.072700 16.322650
vn -1.710160 -0.043843 -2.336008
v 42.349479 -24.856741 23.009627
vn -1.275592 0.023842 -2.417440
v 55.069275 -11.782607 15.105188
vn -1.350992 0.051453 -2.457118
v 54.736190 -31.982826 14.955472
vn -1.666198 -0.040924 -2.319346
v 42.969300 -20.040300 22.491600
vn -3.581510 0.034362 -5.161987
v 46.560253 -28.977346 20.025804
vn -3.189146 -0.060927 -5.411970
v 50.180788 9.408766 17.781079
vn -1.668438 0.010088 -2.482129
v 43.579846 -4.966143 21.933836
vn -3.139309 0.016306 -5.442186
v 51.072676 -13.246457 17.265788
vn -1.263487 -0.011543 -2.570931
v 57.812000 8.701520 13.631500
vn -3.321228 0.122331 -5.331519
v 50.454201 -31.391476 17.462028
vn -3.278135 -0.014568 -5.359895
v 47.693516 6.174751 19.306256
vn -3.410981 0.047677 -5.276308
v 48.792469 -31.192287 18.536430
vn -3.349853 0.046355 -5.315354
v 48.837044 -19.038867 18.577585
vn -3.554117 -0.051937 -5.180958
v 43.492351 -12.039727 22.015960
vn -3.199223 0.015741 -5.406801
v 48.783198 -5.008139 18.590672
vn -3.100118 0.000319 -5.464840
v 51.158616 -7.566574 17.222210
vn -3.108904 0.024415 -5.460076
v 51.186126 -6.050147 17.214789
vn -3.264638 0.038648 -5.367494
v 49.632338 -17.271282 18.085977
vn -3.343038 -0.003303 -5.318037
v 46.814035 7.503969 19.833477
vn -3.424737 -0.002005 -5.267699
v 47.473149 -20.348868 19.444181
vn -3.389683 0.024580 -5.290329
v 45.820340 3.024927 20.497163
vn -3.539183 0.033351 -5.191175
v 46.678083 -26.356638 19.961307
vn -2.920126 -0.000972 -5.563229
v 54.609408 0.437459 15.336802
vn -3.605890 -0.050224 -5.144651
v 42.474599 -10.343021 22.695086
vn -3.082067 -0.025537 -5.475186
v 51.957328 -1.365034 16.778884
vn -1.347538 0.053990 -2.532863
v 56.127700 -25.049650 14.394800
vn -3.170635 -0.058078 -5.424048
v 50.471346 7.632579 17.647117
vn -3.012551 0.033926 -5.513636
v 52.820861 -12.825543 16.292226
vn -3.133896 0.134983 -5.443693
v 52.987854 -29.322213 15.998690
vn -3.138336 0.000192 -5.443208
v 49.971467 -6.502918 17.906504
vn -2.954544 -0.050220 -5.543923
v 55.119009 6.269211 15.015959
vn -3.471852 -0.018661 -5.236689
v 46.644665 -22.645696 19.991387
vn -1.533084 0.042950 -2.370254
v 49.464800 -33.313500 18.056550
vn -3.318298 0.052916 -5.335088
v 49.517625 -29.356398 18.093177
vn -3.251630 -0.041120 -5.375555
v 48.232815 -9.410881 18.935476
vn -3.482520 -0.037047 -5.227622
v 45.258912 -17.201082 20.845237
vn -3.548166 -0.038671 -5.185221
v 44.775607 -15.651170 21.175108
vn -3.340784 -0.031018 -5.321271
v 46.914285 -16.494781 19.790734
vn -3.358965 0.000951 -5.309918
v 47.908913 -17.871038 19.166924
vn -3.342675 0.001967 -5.320204
v 47.845244 0.338299 19.207658
vn -1.485803 0.058818 -2.458304
v 51.416499 -33.432532 16.816691
vn -3.086616 0.064449 -5.471998
v 52.216371 -24.425155 16.521365
vn -3.219419 0.050391 -5.395123
v 50.351711 -18.926892 17.643738
vn -3.403345 -0.046809 -5.281352
v 46.239167 -18.734347 20.236809
vn -3.004419 -0.038768 -5.517362
v 53.238498 -2.458106 16.066970
vn -1.382277 -0.018024 -2.612964
v 54.345900 -3.682675 15.483950
vn -3.194951 0.044893 -5.409753
v 50.406269 -15.259417 17.646904
vn -3.555255 -0.047024 -5.180064
v 44.812667 -23.081334 21.226139
vn -3.366312 -0.030540 -5.304370
v 46.569080 -8.173153 19.954331
vn -3.246792 -0.004961 -5.378450
v 49.114265 -0.909152 18.414284
vn -3.208623 0.036352 -5.401456
v 49.075571 -2.943932 18.435581
vn -3.518566 -0.011685 -5.205453
v 46.097580 -24.365218 20.365976
vn -3.589321 -0.039225 -5.156821
v 44.905998 -25.300663 21.189717
vn -3.435044 0.048845 -5.260752
v 44.505944 2.887123 21.344309
vn -1.289245 0.010077 -2.441721
v 54.565650 -9.305330 15.386700
vn -3.402218 -0.026305 -5.280774
v 45.950311 -15.018158 20.378699
vn -3.169759 0.037448 -5.424776
v 50.561142 5.604471 17.602977
vn -2.976165 -0.007015 -5.532968
v 53.460675 -0.707358 15.941336
vn -3.361388 -0.015051 -5.307631
v 46.427458 -12.788744 20.070168
vn -1.699414 -0.019438 -2.469114
v 42.632925 -14.189745 22.620995
vn -3.052807 0.056003 -5.491311
v 52.653265 -22.596335 16.301610
vn -2.773355 -0.091380 -5.636854
v 58.089011 5.569317 13.515326
vn -3.238989 0.098631 -5.382979
v 51.293364 -29.329663 17.005731
vn -3.441969 -0.031382 -5.255981
v 45.195494 -11.491448 20.863174
vn -3.031328 0.005326 -5.503091
v 52.537108 0.818546 16.446030
vn -3.508486 -0.028952 -5.211657
v 44.027333 -10.052552 21.625492
vn -3.043542 0.142609 -5.494934
v 53.984057 -27.797324 15.483553
vn -3.661170 -0.046828 -5.105585
v 43.301137 -22.679727 22.279372
vn -1.392845 0.017657 -2.576262
v 54.084550 -14.824550 15.594600
vn -3.241059 -0.000232 -5.382688
v 49.296007 -13.610922 18.324261
vn -3.056927 0.038353 -5.488945
v 52.203168 -14.848984 16.618519
vn -3.173037 0.038014 -5.422326
v 50.962705 -23.225473 17.250869
vn -3.367257 0.007392 -5.304704
v 46.814424 1.770246 19.861691
vn -2.717416 -0.057658 -5.664688
v 57.814878 1.664416 13.720486
vn -3.131649 -0.012529 -5.447015
v 52.071539 6.838989 16.731595
vn -3.388703 0.051763 -5.289282
v 48.708293 -25.888752 18.608161
vn -3.357434 0.033177 -5.310747
v 46.233337 -0.284758 20.226127
vn -1.658028 0.022820 -2.592330
v 44.835150 -0.793171 21.113800
vn -1.372300 0.069696 -2.604270
v 56.622700 -27.042650 14.082150
vn -3.415664 -0.031078 -5.273359
v 45.443010 -9.651211 20.694042
vn -3.444123 0.005994 -5.254933
v 45.545766 -6.656526 20.618398
vn -3.343931 0.011398 -5.318698
v 47.031736 -5.835501 19.659578
vn -3.360598 0.055846 -5.308201
v 46.710834 -3.559047 19.879321
vn -3.159680 0.047598 -5.430007
v 50.396247 3.330622 17.662290
vn -2.956641 -0.016232 -5.543968
v 54.230278 2.300222 15.540205
vn -2.856691 -0.024211 -5.595821
v 55.944617 1.846614 14.640121
vn -2.975200 0.000700 -5.533936
v 52.719915 -8.424750 16.362588
vn -1.368688 -0.002013 -2.610956
v 53.319938 -7.284268 16.047171
vn -3.297594 0.023482 -5.348122
v 48.607075 -15.691287 18.734201
vn -2.999518 -0.046627 -5.520486
v 53.999954 4.371613 15.645458
vn -1.276379 -0.014088 -2.601255
v 58.625100 7.320105 13.242750
vn -2.994476 0.079411 -5.523084
v 54.112997 -24.214788 15.483105
vn -1.390225 0.029450 -2.598199
v 55.217700 -23.377450 14.901500
vn -3.415266 0.034358 -5.272160
v 48.280682 -27.831411 18.867380
vn -3.081289 -0.000801 -5.474973
v 51.480797 -9.582477 17.036853
vn -3.361952 0.003554 -5.307983
v 47.003384 3.981136 19.743447
vn -1.330529 0.014824 -2.647337
v 57.360842 -1.561072 13.916275
vn -3.669779 -0.065737 -5.099513
v 43.651827 -26.216995 22.082838
vn -3.015540 0.149094 -5.509756
v 54.559047 -29.721461 15.104720
vn -3.222430 0.001766 -5.392880
v 49.511880 1.164362 18.170055
vn -3.074663 -0.017374 -5.479313
v 53.469682 6.013596 15.930179
vn -3.148821 0.057386 -5.436435
v 51.718944 -25.963238 16.787412
vn -3.381444 0.022519 -5.295529
v 45.310575 1.301616 20.812387
vn -1.572346 0.016007 -2.433480
v 43.972800 0.846061 21.669350
vn -3.436267 -0.001943 -5.260185
v 45.101285 4.579297 20.967736
vn -1.557116 -0.000797 -2.371055
v 45.186400 7.574965 20.898750
vn -1.588091 0.021147 -2.844210
v 52.752250 -20.628850 16.263250
vn -1.626805 0.009657 -2.469772
v 47.698943 -32.489314 19.246058
vn -1.736437 -0.033670 -2.373552
v 42.880100 -26.723400 22.654600
vn -1.318109 0.025342 -2.488565
v 54.810000 -13.349000 15.222500
vn -3.069055 -0.020982 -5.481894
v 53.663629 9.603558 15.795463
vn -3.427118 0.024247 -5.264889
v 48.084239 -29.532131 18.987257
vn -1.461648 0.026678 -2.682894
v 54.113150 -22.030000 15.506950
vn -3.127109 -0.022217 -5.449551
v 50.661369 -0.142528 17.509250
vn -1.386908 0.048950 -2.425448
v 53.421600 -32.926800 15.672300
vn -1.740306 -0.031430 -2.379594
v 42.233800 -23.334700 23.066200
vn -3.193429 0.132403 -5.409351
v 52.200661 -31.179124 16.416971
vn -2.978968 0.132331 -5.530420
v 55.002173 -26.303352 14.962129
vn -2.768814 -0.095229 -5.639010
v 57.595578 3.567598 13.795207
vn -3.506543 0.006132 -5.213508
v 43.970498 -6.512979 21.665213
vn -3.481549 -0.055008 -5.229959
v 45.682367 -20.940835 20.624040
vn -2.951982 0.053672 -5.546229
v 54.076472 -12.640354 15.618241
vn -3.233275 0.040321 -5.386776
v 50.470396 -25.134497 17.529777
vn -3.419833 -0.006839 -5.270913
v 48.309367 -22.368718 18.901734
vn -3.258985 0.032320 -5.371626
v 50.282222 -27.287078 17.634103
vn -3.103989 0.120402 -5.461066
v 53.528060 -30.972701 15.647284
vn -2.816275 0.010706 -5.616118
v 56.510901 0.051191 14.355660
vn -3.143846 0.086805 -5.438919
v 52.261881 -27.567993 16.453996
vn -3.245676 -0.036154 -5.379749
v 48.573904 8.122643 18.774541
vn -3.074054 -0.036126 -5.479468
v 53.605229 7.851055 15.844647
vn -2.965569 0.029503 -5.539143
v 53.338988 -10.791193 16.027138
vn -3.321090 0.036981 -5.331150
v 49.278347 -20.588771 18.267348
vn -3.164574 -0.020855 -5.427970
v 49.866508 -8.558851 17.970908
vn -3.448795 0.026943 -5.251807
v 45.454394 -5.171728 20.683586
vn -2.897754 -0.069957 -5.574521
v 55.549293 3.932735 14.831749
vn -3.288432 0.072045 -5.352880
v 47.846908 -3.739653 19.166891
# 215 vertices, 0 vertices normals

f 153//153 42//42 52//52
f 5//5 43//43 44//44
f 9//9 15//15 110//110
f 104//104 124//124 5//5
f 90//90 10//10 26//26
f 106//106 136//136 10//10
f 17//17 66//66 65//65
f 141//141 17//17 57//57
f 16//16 145//145 103//103
f 95//95 174//174 212//212
f 149//149 7//7 6//6
f 107//107 148//148 150//150
f 27//27 109//109 94//94
f 152//152 175//175 3//3
f 16//16 51//51 59//59
f 163//163 26//26 136//136
f 169//169 214//214 164//164
f 9//9 170//170 141//141
f 119//119 129//129 1//1
f 24//24 114//114 212//212
f 28//28 155//155 101//101
f 173//173 84//84 101//101
f 168//168 149//149 126//126
f 132//132 14//14 177//177
f 22//22 128//128 161//161
f 131//131 101//101 132//132
f 207//207 181//181 11//11
f 115//115 49//49 55//55
f 71//71 77//77 78//78
f 123//123 118//118 99//99
f 12//12 73//73 67//67
f 178//178 67//67 82//82
f 177//177 75//75 188//188
f 28//28 203//203 29//29
f 30//30 107//107 87//87
f 117//117 123//123 115//115
f 111//111 131//131 127//127
f 144//144 164//164 102//102
f 35//35 144//144 4//4
f 205//205 194//194 196//196
f 7//7 117//117 135//135
f 18//18 195//195 147//147
f 147//147 2//2 127//127
f 71//71 84//84 34//34
f 85//85 208//208 39//39
f 40//40 88//88 9//9
f 88//88 170//170 9//9
f 5//5 44//44 27//27
f 27//27 44//44 45//45
f 45//45 96//96 27//27
f 96//96 46//46 95//95
f 46//46 96//96 45//45
f 47//47 103//103 93//93
f 103//103 47//47 41//41
f 211//211 99//99 92//92
f 145//145 93//93 103//103
f 105//105 197//197 171//171
f 197//197 105//105 158//158
f 85//85 106//106 208//208
f 110//110 214//214 169//169
f 138//138 143//143 21//21
f 95//95 109//109 96//96
f 96//96 109//109 27//27
f 36//36 180//180 169//169
f 112//112 187//187 91//91
f 104//104 193//193 144//144
f 21//21 6//6 138//138
f 143//143 138//138 32//32
f 97//97 168//168 126//126
f 126//126 150//150 53//53
f 113//113 204//204 142//142
f 114//114 6//6 21//21
f 115//115 38//38 49//49
f 55//55 54//54 116//116
f 118//118 117//117 168//168
f 141//141 198//198 15//15
f 198//198 57//57 56//56
f 86//86 199//199 59//59
f 118//118 168//168 97//97
f 97//97 92//92 118//118
f 31//31 122//122 60//60
f 125//125 124//124 20//20
f 5//5 124//124 43//43
f 125//125 43//43 124//124
f 37//37 104//104 5//5
f 87//87 150//150 126//126
f 92//92 97//97 122//122
f 122//122 97//97 53//53
f 60//60 122//122 53//53
f 114//114 21//21 128//128
f 162//162 1//1 215//215
f 130//130 129//129 37//37
f 193//193 104//104 37//37
f 90//90 98//98 208//208
f 208//208 10//10 90//90
f 85//85 33//33 106//106
f 40//40 8//8 62//62
f 9//9 8//8 40//40
f 127//127 132//132 18//18
f 100//100 182//182 133//133
f 134//134 81//81 210//210
f 165//165 153//153 206//206
f 100//100 184//184 175//175
f 175//175 184//184 19//19
f 98//98 90//90 19//19
f 19//19 90//90 175//175
f 98//98 19//19 185//185
f 116//116 54//54 32//32
f 32//32 135//135 116//116
f 208//208 106//106 10//10
f 35//35 4//4 163//163
f 124//124 104//104 137//137
f 104//104 144//144 137//137
f 20//20 61//61 125//125
f 6//6 7//7 138//138
f 139//139 93//93 32//32
f 139//139 47//47 93//93
f 65//65 57//57 17//17
f 67//67 178//178 12//12
f 114//114 22//22 212//212
f 212//212 22//22 109//109
f 94//94 109//109 22//22
f 160//160 13//13 199//199
f 1//1 162//162 72//72
f 23//23 29//29 203//203
f 196//196 89//89 142//142
f 85//85 39//39 58//58
f 12//12 146//146 197//197
f 146//146 11//11 197//197
f 12//12 197//197 158//158
f 25//25 149//149 6//6
f 95//95 166//166 174//174
f 167//167 166//166 46//46
f 90//90 26//26 175//175
f 148//148 107//107 201//201
f 150//150 148//148 70//70
f 3//3 26//26 163//163
f 209//209 8//8 110//110
f 110//110 8//8 9//9
f 131//131 28//28 101//101
f 100//100 152//152 182//182
f 119//119 152//152 3//3
f 154//154 136//136 106//106
f 63//63 84//84 71//71
f 63//63 14//14 84//84
f 68//68 162//162 213//213
f 157//157 183//183 182//182
f 156//156 72//72 157//157
f 204//204 207//207 142//142
f 158//158 73//73 12//12
f 143//143 159//159 21//21
f 128//128 13//13 160//160
f 1//1 72//72 156//156
f 94//94 161//161 215//215
f 209//209 110//110 180//180
f 169//169 180//180 110//110
f 198//198 56//56 153//153
f 153//153 56//56 42//42
f 193//193 4//4 144//144
f 136//136 26//26 10//10
f 165//165 164//164 214//214
f 119//119 156//156 152//152
f 152//152 156//156 182//182
f 157//157 182//182 156//156
f 167//167 134//134 166//166
f 35//35 36//36 169//169
f 35//35 169//169 164//164
f 21//21 159//159 128//128
f 159//159 13//13 128//128
f 202//202 181//181 204//204
f 11//11 146//146 207//207
f 146//146 108//108 207//207
f 204//204 181//181 207//207
f 15//15 9//9 141//141
f 141//141 170//170 17//17
f 170//170 66//66 17//17
f 99//99 203//203 111//111
f 111//111 203//203 28//28
f 1//1 129//129 130//130
f 11//11 121//121 171//171
f 171//171 140//140 192//192
f 105//105 171//171 172//172
f 16//16 59//59 199//199
f 24//24 6//6 114//114
f 25//25 30//30 87//87
f 145//145 13//13 159//159
f 145//145 159//159 143//143
f 29//29 155//155 28//28
f 155//155 173//173 101//101
f 173//173 191//191 84//84
f 126//126 149//149 87//87
f 50//50 208//208 98//98
f 75//75 14//14 63//63
f 30//30 210//210 107//107
f 152//152 100//100 175//175
f 175//175 26//26 3//3
f 97//97 126//126 53//53
f 176//176 61//61 20//20
f 176//176 206//206 52//52
f 18//18 132//132 177//177
f 177//177 14//14 75//75
f 12//12 178//178 146//146
f 94//94 22//22 161//161
f 22//22 114//114 128//128
f 3//3 179//179 119//119
f 119//119 179//179 129//129
f 193//193 129//129 179//179
f 193//193 179//179 4//4
f 33//33 154//154 106//106
f 154//154 33//33 209//209
f 209//209 180//180 154//154
f 154//154 36//36 136//136
f 132//132 101//101 14//14
f 133//133 182//182 183//183
f 183//183 64//64 133//133
f 184//184 100//100 133//133
f 64//64 74//74 133//133
f 184//184 76//76 19//19
f 185//185 19//19 76//76
f 185//185 50//50 98//98
f 32//32 138//138 135//135
f 138//138 7//7 135//135
f 115//115 55//55 116//116
f 6//6 24//24 25//25
f 32//32 54//54 139//139
f 99//99 211//211 203//203
f 23//23 31//31 151//151
f 31//31 186//186 140//140
f 140//140 186//186 192//192
f 151//151 31//31 140//140
f 187//187 34//34 91//91
f 187//187 77//77 34//34
f 153//153 165//165 198//198
f 198//198 214//214 15//15
f 85//85 58//58 33//33
f 33//33 58//58 48//48
f 14//14 101//101 84//84
f 123//123 117//117 118//118
f 99//99 118//118 92//92
f 13//13 145//145 16//16
f 41//41 51//51 103//103
f 16//16 103//103 51//51
f 102//102 164//164 165//165
f 214//214 198//198 165//165
f 205//205 178//178 82//82
f 18//18 177//177 80//80
f 188//188 80//80 177//177
f 87//87 107//107 150//150
f 178//178 205//205 108//108
f 178//178 108//108 146//146
f 71//71 34//34 77//77
f 189//189 148//148 201//201
f 116//116 135//135 115//115
f 115//115 123//123 38//38
f 35//35 163//163 36//36
f 36//36 163//163 136//136
f 134//134 210//210 166//166
f 210//210 30//30 174//174
f 180//180 36//36 154//154
f 190//190 79//79 62//62
f 4//4 179//179 163//163
f 179//179 3//3 163//163
f 149//149 168//168 7//7
f 191//191 34//34 84//84
f 209//209 190//190 8//8
f 94//94 130//130 27//27
f 200//200 111//111 127//127
f 111//111 28//28 131//131
f 127//127 131//131 132//132
f 137//137 144//144 102//102
f 144//144 35//35 164//164
f 171//171 192//192 172//172
f 113//113 91//91 191//191
f 191//191 91//91 34//34
f 37//37 27//27 130//130
f 37//37 129//129 193//193
f 205//205 82//82 194//194
f 196//196 194//194 120//120
f 7//7 168//168 117//117
f 135//135 117//117 115//115
f 18//18 80//80 195//195
f 147//147 195//195 69//69
f 2//2 38//38 200//200
f 18//18 147//147 127//127
f 127//127 2//2 200//200
f 38//38 123//123 200//200
f 147//147 69//69 2//2
f 83//83 2//2 69//69
f 38//38 2//2 83//83
f 49//49 38//38 83//83
f 37//37 5//5 27//27
f 79//79 33//33 48//48
f 166//166 95//95 46//46
f 79//79 190//190 33//33
f 8//8 190//190 62//62
f 198//198 141//141 57//57
f 89//89 120//120 112//112
f 11//11 171//171 197//197
f 89//89 112//112 91//91
f 184//184 74//74 76//76
f 89//89 196//196 120//120
f 206//206 153//153 52//52
f 25//25 87//87 149//149
f 99//99 111//111 200//200
f 86//86 213//213 199//199
f 121//121 140//140 171//171
f 121//121 11//11 181//181
f 99//99 200//200 123//123
f 151//151 140//140 121//121
f 133//133 74//74 184//184
f 202//202 155//155 29//29
f 201//201 81//81 189//189
f 181//181 202//202 121//121
f 199//199 13//13 16//16
f 121//121 202//202 151//151
f 150//150 70//70 53//53
f 109//109 95//95 212//212
f 202//202 204//204 155//155
f 108//108 205//205 196//196
f 173//173 204//204 113//113
f 102//102 206//206 20//20
f 1//1 156//156 119//119
f 207//207 108//108 142//142
f 173//173 155//155 204//204
f 176//176 20//20 206//206
f 209//209 33//33 190//190
f 211//211 23//23 203//203
f 23//23 211//211 31//31
f 206//206 102//102 165//165
f 208//208 50//50 39//39
f 29//29 23//23 151//151
f 29//29 151//151 202//202
f 137//137 102//102 20//20
f 31//31 211//211 122//122
f 210//210 81//81 201//201
f 128//128 160//160 161//161
f 31//31 60//60 186//186
f 210//210 174//174 166//166
f 124//124 137//137 20//20
f 211//211 92//92 122//122
f 86//86 68//68 213//213
f 93//93 145//145 143//143
f 212//212 174//174 24//24
f 160//160 213//213 161//161
f 213//213 162//162 161//161
f 113//113 142//142 89//89
f 107//107 210//210 201//201
f 32//32 93//93 143//143
f 196//196 142//142 108//108
f 213//213 160//160 199//199
f 113//113 89//89 91//91
f 113//113 191//191 173//173
f 24//24 174//174 30//30
f 25//25 24//24 30//30
f 15//15 214//214 110//110
f 162//162 68//68 72//72
f 94//94 215//215 130//130
f 215//215 1//1 130//130
f 215//215 161//161 162//162
# 359 faces, 0 coords texture

# End of File
