####
#
# OBJ File Generated by Meshlab
#
####
# Object 173S.obj
#
# Vertices: 218
# Faces: 354
#
####
vn 3.450095 0.610667 -3.028532
v -34.511600 38.000000 30.718000
vn 4.782138 0.618174 -4.020182
v -35.755180 37.526464 29.016971
vn 4.598268 0.439351 -4.257233
v -37.209560 36.651933 27.254534
vn 2.002900 -0.066090 -2.386188
v -31.752600 52.994300 33.082400
vn 4.192684 0.185085 -4.675136
v -40.399356 34.672280 23.944976
vn 3.898220 0.563865 -4.895120
v -24.223893 28.444855 37.640292
vn 4.190467 0.803839 -4.611497
v -32.479491 32.454254 31.261088
vn 3.747448 0.458909 -5.022022
v -21.906599 23.352209 38.900140
vn 2.194423 0.000413 -2.251317
v -40.892200 52.289600 23.825300
vn 3.924477 0.080706 -4.905798
v -43.574812 37.685157 21.346101
vn 4.644553 -0.126381 -4.228266
v -35.659894 51.012455 29.438180
vn 2.381307 -0.004138 -2.049400
v -34.558675 44.745250 30.718000
vn 3.414490 -0.137176 -3.230513
v -34.547400 50.000000 30.718000
vn 3.903371 -0.073416 -4.922440
v -30.477986 51.689257 34.148202
vn 1.921828 -0.010885 -2.484578
v -29.159300 53.000000 35.169500
vn 2.280457 -0.095853 -2.151267
v -35.439862 52.778451 29.600739
vn 1.787519 -0.021563 -2.580151
v -26.814100 50.000000 36.954500
vn 4.425826 0.490611 -4.432271
v -37.214179 34.623328 27.018031
vn 1.989034 0.552339 -2.364679
v -31.593600 38.000000 33.242450
vn 3.822923 0.006034 -4.985552
v -45.194327 43.554765 20.126905
vn 2.301710 0.015141 -2.139365
v -38.265937 52.521425 26.565362
vn 4.633930 -0.049900 -4.242780
v -36.891812 51.559765 28.064591
vn 4.029716 0.544231 -4.789317
v -26.559819 25.629984 35.422658
vn 2.365237 -0.003445 -2.058012
v -34.542100 47.614300 30.718000
vn 2.679429 0.161325 -3.883286
v -23.937300 38.000000 38.718000
vn 4.110010 1.038582 -4.636680
v -32.263124 34.684267 31.899009
vn 3.619457 0.375968 -5.121889
v -21.154330 34.476329 40.515476
vn 3.614710 0.439673 -5.120377
v -20.895677 32.619030 40.545858
vn 4.025616 0.052756 -4.823210
v -43.031633 41.227839 21.830043
vn 3.985408 0.027783 -4.857045
v -43.603237 44.066068 21.399084
vn 3.720741 0.533281 -5.034594
v -21.821097 26.408489 39.261686
vn 4.446484 0.114020 -4.434736
v -39.384576 39.827975 25.090533
vn 3.958740 0.578613 -4.844759
v -25.813955 28.779494 36.388025
vn 4.169326 0.081411 -4.698300
v -41.565287 41.641712 23.090675
vn 2.411115 0.011963 -2.017581
v -34.568350 42.665150 30.718000
vn 4.855920 0.092709 -3.985948
v -35.367203 41.309582 29.737622
vn 2.458044 0.033653 -1.975168
v -34.569800 40.784250 30.717700
vn 2.036166 -0.007630 -2.394124
v -43.716100 52.076300 21.304100
vn 4.386889 0.796489 -4.425796
v -34.919055 33.957810 29.208563
vn 4.002383 0.643753 -4.800196
v -27.533026 29.200718 35.029777
vn 3.827856 0.500497 -4.956306
v -22.984930 24.557355 38.204235
vn 4.674337 0.040556 -4.198200
v -36.737004 48.249302 28.221144
vn 3.942550 0.519584 -4.864447
v -24.782447 25.137840 36.829342
vn 3.776117 0.554424 -4.990651
v -22.593241 28.263725 38.891063
vn 3.995101 0.560943 -4.816793
v -26.571496 27.522321 35.621522
vn 4.129521 -0.002688 -4.735187
v -42.990750 50.619323 21.932851
vn 4.641227 0.146738 -4.232269
v -38.263470 39.553607 26.285841
vn 4.534406 0.222246 -4.341742
v -38.589081 37.776510 25.838422
vn 4.486538 0.330208 -4.385630
v -38.268725 35.733706 26.066236
vn 3.544294 0.503353 -5.162520
v -20.115728 30.469211 40.904411
vn 3.660555 0.413913 -5.089610
v -22.360352 33.248195 39.560266
vn 4.625219 0.211301 -4.245460
v -38.433411 43.102480 26.211720
vn 4.737608 0.115230 -4.125022
v -36.914988 43.886954 27.981197
vn 4.751825 0.174534 -4.105895
v -37.471284 41.996732 27.243560
vn 3.689470 0.511596 -5.059252
v -21.765879 29.649190 39.656935
vn 4.750126 -0.000221 -4.112704
v -35.653830 45.445471 29.449830
vn 4.556714 0.076483 -4.325065
v -39.344631 46.454703 25.373335
vn 3.912549 0.053376 -4.914719
v -44.100731 41.927346 20.962046
vn 2.757663 0.538635 -3.204242
v -29.979100 31.835300 33.346700
vn 1.379245 -0.004446 -1.804144
v -28.101200 53.000000 35.977400
vn 0.532449 -0.014934 -0.821930
v -26.276900 50.000000 37.302500
vn 1.819495 -0.000630 -2.425668
v -27.161415 51.592636 36.700571
vn 0.740949 0.007614 -1.014465
v -23.943400 38.593600 38.718000
vn 1.728889 0.207331 -2.187585
v -23.310700 21.253800 37.618800
vn 2.235636 0.055472 -2.868113
v -44.027200 35.182800 20.948800
vn 1.605198 0.045246 -2.032514
v -43.780800 34.790900 21.131500
vn 1.726398 -0.000795 -2.352386
v -46.916100 43.045300 18.860500
vn 1.763771 0.201468 -2.181868
v -24.503550 21.345850 36.678550
vn 1.653420 0.244832 -2.480080
v -18.452292 31.532113 42.120239
vn 2.480142 0.434583 -2.936828
v -29.126900 30.702400 33.906300
vn 1.495336 -0.017052 -1.974016
v -46.235200 47.977700 19.319200
vn 2.199657 -0.012413 -2.878260
v -46.073400 46.918700 19.444700
vn 1.869954 0.242036 -2.172360
v -27.596400 23.948900 34.333000
vn 2.170957 0.150133 -2.331484
v -38.635800 32.026800 25.440300
vn 1.723385 0.200384 -2.258784
v -21.999869 21.749461 38.691786
vn 1.934099 0.262847 -2.239586
v -27.979000 24.696300 34.086300
vn 1.639114 0.126861 -2.291820
v -21.340600 37.321750 40.565000
vn 1.468884 0.024969 -1.939339
v -44.995900 35.711500 20.220200
vn 0.989871 0.004355 -1.195008
v -44.226000 52.040500 20.881600
vn 2.352878 -0.007314 -2.819109
v -44.195700 51.519500 20.904800
vn 1.626569 0.215427 -2.399187
v -18.898550 25.760950 41.259050
vn 1.910416 0.271243 -2.228354
v -28.563600 26.337450 33.784000
vn 1.916046 0.303206 -2.239975
v -28.948950 28.296500 33.693400
vn 1.642725 0.155198 -2.340149
v -20.078000 35.976750 41.371600
vn 2.011989 0.290821 -2.169353
v -35.093732 30.469715 28.526618
vn 1.617950 0.256125 -2.485592
v -18.359470 28.196253 41.820837
vn 1.616031 0.259412 -2.442962
v -18.265200 29.683100 42.052200
vn 1.945266 0.317666 -2.100187
v -33.197050 30.552650 30.302500
vn 1.903862 0.231484 -2.076456
v -36.506800 30.725000 27.278400
vn 2.347133 -0.003450 -2.959607
v -45.110600 49.478900 20.181000
vn 1.580863 0.006105 -1.981715
v -44.952800 50.010100 20.305800
vn 1.840393 0.020044 -2.461227
v -45.923993 38.071698 19.553011
vn 1.779032 0.105240 -2.456912
v -23.119700 38.271550 39.317200
vn 1.583334 0.183302 -2.294721
v -19.015000 34.035500 41.979200
vn 1.605283 -0.010895 -2.067588
v -45.870600 48.855200 19.583600
vn 2.272395 0.012606 -2.859416
v -44.692100 50.240800 20.517200
vn 2.081381 0.068212 -2.472670
v -41.988450 33.941400 22.549450
vn 1.869228 -0.017462 -2.463790
v -46.400678 45.549692 19.200183
vn 1.766979 0.206375 -2.122201
v -26.101812 22.176287 35.438523
vn 4.943384 0.205465 -3.871524
v -35.213736 39.145153 29.864605
vn 4.354817 0.227412 -4.521286
v -39.497533 36.110636 24.839216
vn 4.335271 0.288618 -4.537204
v -38.826568 33.954808 25.365643
vn 4.089541 0.886747 -4.685418
v -31.149035 33.172025 32.551428
vn 4.153833 0.137297 -4.711372
v -41.393244 38.137053 23.177227
vn 1.666044 0.203939 -2.308435
v -20.323050 23.156050 40.038150
vn 1.915130 -0.014268 -2.490179
v -29.640950 50.000000 34.809950
vn 1.967230 -0.044290 -2.445955
v -30.433450 52.999300 34.160300
vn 3.823242 -0.008531 -4.986062
v -28.828446 51.548385 35.425007
vn 1.983758 -0.064109 -2.433435
v -31.697700 50.000050 33.215600
vn 2.098506 -0.120924 -2.331027
v -33.477750 50.000000 31.713200
vn 2.101747 -0.121701 -2.311791
v -33.116400 52.942150 31.884050
vn 2.195716 -0.155445 -2.226741
v -34.314600 52.868400 30.740000
vn 4.506960 1.071835 -4.241039
v -34.568394 35.800867 29.972338
vn 3.762290 0.577834 -4.998074
v -25.119270 33.472135 37.539797
vn 4.052888 0.077566 -4.800207
v -42.502246 39.536213 22.261405
vn 2.300039 -0.022285 -2.139361
v -36.906300 52.646000 28.037700
vn 3.588474 0.617466 -5.116384
v -26.583373 36.502844 36.874086
vn 3.771673 0.784587 -4.962155
v -27.908440 36.040172 35.825732
vn 4.160712 1.179873 -4.550027
v -33.306811 36.232791 31.375954
vn 1.679217 0.011416 -2.308467
v -46.932550 41.540550 18.837650
vn 4.013302 0.796628 -4.767766
v -28.962801 32.215647 34.269934
vn 3.850747 -0.016195 -4.964574
v -45.397656 47.451841 19.958190
vn 4.432661 0.055529 -4.451227
v -40.457475 47.936118 24.239539
vn 4.230716 0.057779 -4.642625
v -41.703546 47.668372 23.043491
vn 4.013696 1.094288 -4.707361
v -31.867211 36.529374 32.648792
vn 4.321681 0.422356 -4.540868
v -37.422570 32.821685 26.633057
vn 2.155144 0.222706 -2.323658
v -37.659900 31.458700 26.286950
vn 1.807971 0.310033 -2.544282
v -27.292050 37.999600 36.547150
vn 4.297036 0.990177 -4.473957
v -33.632467 34.251124 30.522276
vn 3.682374 0.482043 -5.067977
v -21.112841 24.672904 39.604442
vn 4.623430 0.046869 -4.254365
v -38.038353 47.431129 26.787552
vn 3.948451 0.536454 -4.857976
v -25.153836 27.029952 36.727507
vn 4.161326 0.034948 -4.706183
v -42.093979 45.179549 22.677588
vn 4.279205 0.099910 -4.597883
v -41.017036 43.766914 23.633824
vn 4.031412 0.935505 -4.727235
v -29.703945 33.570717 33.899896
vn 3.561975 0.541975 -5.146646
v -25.452959 35.647370 37.541844
vn 1.715116 0.223969 -2.619585
v -25.315850 38.000000 37.858600
vn 3.761513 0.506934 -5.003855
v -23.672327 32.175658 38.522190
vn 3.971601 0.106013 -4.866573
v -42.681593 35.799062 22.022052
vn 3.970849 0.732274 -4.813741
v -27.815785 31.405065 35.109522
vn 2.045135 0.106863 -2.272631
v -40.291855 32.881054 23.960299
vn 2.000464 0.566645 -2.348226
v -32.784000 38.000000 32.245900
vn 4.363351 0.591876 -4.481374
v -36.078383 33.497366 27.995654
vn 3.859654 0.526262 -4.929492
v -23.549885 26.613905 37.971794
vn 2.468675 0.052715 -1.949149
v -34.540500 39.164200 30.717800
vn 4.315726 0.148719 -4.563276
v -40.101976 38.127613 24.358857
vn 4.230861 0.095807 -4.643094
v -40.823434 39.989902 23.732428
vn 4.524238 0.732252 -4.296083
v -35.875033 35.550503 28.504342
vn 4.613606 0.135674 -4.259000
v -38.477026 41.135624 26.069009
vn 4.071776 1.001189 -4.679345
v -30.803037 35.071171 33.262746
vn 1.901934 0.408591 -2.460812
v -29.221850 37.999850 35.136950
vn 3.917575 0.860099 -4.835918
v -28.101488 33.638843 35.241883
vn 4.283638 0.026168 -4.595288
v -41.363070 49.623717 23.389208
vn 4.297927 0.639499 -4.538092
v -35.247669 32.377694 28.643158
vn 4.284618 0.725455 -4.537449
v -34.062310 32.290220 29.748468
vn 3.595266 0.399373 -5.137222
v -20.027241 33.820353 41.257066
vn 3.587877 0.506252 -5.132715
v -20.168905 26.285014 40.438438
vn 4.267359 0.528088 -4.581145
v -36.280066 31.831838 27.609678
vn 4.630956 0.025977 -4.246372
v -37.862514 49.551004 27.000625
vn 1.902569 0.006518 -2.499953
v -28.124400 50.000000 35.959550
vn 3.956662 0.007849 -4.880345
v -44.369282 47.443180 20.771217
vn 3.745023 0.028541 -5.044812
v -45.740804 40.107697 19.702162
vn 2.100890 -0.003642 -2.337661
v -42.019812 52.201589 22.784533
vn 4.590108 0.024928 -4.289626
v -38.511335 51.508526 26.291200
vn 3.756637 0.741298 -4.979551
v -26.653946 34.579565 36.549878
vn 3.928339 0.601062 -4.866599
v -25.004113 29.777957 37.172873
vn 3.663260 0.295047 -5.095710
v -21.926102 36.319926 40.090793
vn 2.260645 0.016177 -2.182263
v -40.020000 52.365600 24.722900
vn 4.556764 0.022210 -4.325570
v -39.124142 50.361121 25.640154
vn 4.388567 0.067675 -4.493785
v -40.631754 46.054602 24.039674
vn 4.657257 0.004278 -4.217556
v -37.078677 50.412071 27.865458
vn 3.870202 0.044354 -4.947687
v -44.341244 39.724678 20.750421
vn 4.041806 0.018177 -4.809127
v -43.268786 46.253366 21.667178
vn 3.811584 0.572119 -4.961417
v -23.476059 30.110174 38.424653
vn 4.504234 0.157222 -4.376710
v -39.569838 44.355814 25.074327
vn 4.013629 0.515281 -4.806356
v -26.000303 24.035327 35.708817
vn 4.112843 0.034624 -4.749467
v -42.834679 48.444926 22.063668
vn 4.747625 0.149963 -4.112283
v -37.350511 40.445440 27.331392
vn 1.782808 0.009635 -2.447569
v -46.649300 40.277100 19.040800
vn 4.065728 0.579452 -4.755217
v -27.734678 26.973378 34.572060
vn 1.929560 0.480105 -2.428181
v -30.309900 38.000000 34.286200
vn 3.999121 -0.003140 -4.844775
v -44.057509 49.632989 21.018834
vn 1.709020 0.221373 -2.429810
v -19.515600 24.397100 40.716800
vn 4.026885 0.122699 -4.821104
v -42.393294 37.381059 22.301549
vn 4.730910 0.002321 -4.134669
v -35.604020 47.276982 29.497195
vn 2.374998 -0.013837 -2.058894
v -34.549400 46.629600 30.718000
vn 3.940357 0.660021 -4.848952
v -26.316544 30.423140 36.179748
vn 3.879338 0.730512 -4.887965
v -26.508376 32.364876 36.316261
vn 4.689104 0.032971 -4.181431
v -36.828832 46.211742 28.097853
vn 4.396852 0.147071 -4.481999
v -39.878264 42.014412 24.657380
vn 2.083577 0.378344 -2.351719
v -31.731450 31.168300 31.723300
vn 4.635013 0.122107 -4.239851
v -38.221364 45.189541 26.556246
vn 3.891897 0.625706 -4.892671
v -25.010351 31.304344 37.360897
vn 4.783358 0.048689 -4.073538
v -35.530599 43.416307 29.583954
vn 4.829689 0.212861 -4.012739
v -36.261080 39.874659 28.593403
vn 3.816919 0.052228 -4.990483
v -44.626258 37.489997 20.523070
vn 3.761422 0.018522 -5.032002
v -45.648526 41.578714 19.771859
vn 3.975133 0.968491 -4.767182
v -30.460790 36.824507 33.933874
vn 3.943332 0.486055 -4.867375
v -24.562277 23.285760 36.808769
vn 4.807742 0.144752 -4.042587
v -36.426959 41.928063 28.484079
vn 4.713620 0.013466 -4.154405
v -35.598222 49.106096 29.512016
vn 3.874493 0.471295 -4.923694
v -23.181508 22.584500 37.847021
vn 3.608802 0.538739 -5.113509
v -20.882317 28.232923 40.149261
vn 3.468103 0.518230 -5.213505
v -19.379090 28.113495 41.148607
vn 3.663717 0.487426 -5.080635
v -22.035187 31.346799 39.625622
vn 4.705974 0.255250 -4.154776
v -37.288063 38.669888 27.323026
vn 4.152965 0.152696 -4.710905
v -41.125057 36.294151 23.351334
vn 3.683822 0.345707 -5.077547
v -22.705859 35.123492 39.455481
vn 3.928877 0.922535 -4.812248
v -29.330722 35.552011 34.634098
vn 4.432766 -0.287976 -4.440690
v -34.417462 51.549029 30.730674
vn 3.892398 -0.014180 -4.931529
v -44.792707 45.712653 20.431628
vn 4.567930 0.039631 -4.313405
v -39.100591 48.553833 25.648509
vn 3.570706 0.348035 -5.156725
v -24.027840 36.412206 38.570555
vn 4.075594 0.072408 -4.780808
v -42.603767 42.953521 22.216524
vn 3.538352 0.466383 -5.170497
v -19.588888 32.427987 41.446326
vn 4.056319 -0.173456 -4.794355
v -32.235304 51.496482 32.719547
vn 4.462523 0.020089 -4.422470
v -40.237110 50.158455 24.488283
vn 3.683101 0.416277 -5.073040
v -24.065863 34.361577 38.395975
# 218 vertices, 0 vertices normals

f 17//17 62//62 61//61
f 25//25 63//63 93//93
f 104//104 184//184 115//115
f 199//199 68//68 99//99
f 139//139 66//66 65//65
f 23//23 73//73 76//76
f 150//150 135//135 103//103
f 113//113 119//119 129//129
f 142//142 125//125 119//119
f 38//38 46//46 80//80
f 38//38 80//80 79//79
f 113//113 39//39 148//148
f 115//115 34//34 147//147
f 39//39 143//143 148//148
f 203//203 157//157 31//31
f 32//32 149//149 47//47
f 154//154 85//85 158//158
f 158//158 89//89 127//127
f 163//163 9//9 153//153
f 7//7 26//26 103//103
f 165//165 117//117 136//136
f 217//217 168//168 169//169
f 57//57 175//175 170//170
f 150//150 26//26 125//125
f 47//47 206//206 48//48
f 40//40 180//180 83//83
f 118//118 165//165 152//152
f 55//55 203//203 44//44
f 56//56 185//185 186//186
f 22//22 16//16 11//11
f 129//129 155//155 39//39
f 152//152 135//135 209//209
f 33//33 40//40 187//187
f 43//43 41//41 199//199
f 192//192 53//53 52//52
f 190//190 175//175 52//52
f 54//54 178//178 149//149
f 54//54 53//53 200//200
f 57//57 131//131 192//192
f 27//27 28//28 51//51
f 133//133 124//124 170//170
f 187//187 193//193 166//166
f 1//1 2//2 100//100
f 207//207 101//101 5//5
f 101//101 102//102 5//5
f 101//101 49//49 102//102
f 59//59 103//103 135//135
f 8//8 105//105 75//75
f 14//14 106//106 109//109
f 60//60 108//108 15//15
f 62//62 160//160 108//108
f 14//14 15//15 108//108
f 110//110 13//13 210//210
f 111//111 4//4 216//216
f 111//111 210//210 112//112
f 112//112 210//210 16//16
f 68//68 202//202 64//64
f 1//1 119//119 113//113
f 1//1 113//113 2//2
f 138//138 114//114 218//218
f 20//20 67//67 98//98
f 115//115 184//184 10//10
f 164//164 21//21 22//22
f 116//116 16//16 22//22
f 128//128 117//117 118//118
f 20//20 197//197 67//67
f 120//120 67//67 197//197
f 69//69 87//87 50//50
f 58//58 214//214 29//29
f 70//70 121//121 140//140
f 121//121 70//70 59//59
f 122//122 72//72 71//71
f 139//139 97//97 66//66
f 188//188 165//165 114//114
f 19//19 198//198 125//125
f 126//126 127//127 74//74
f 128//128 137//137 117//117
f 7//7 129//129 26//26
f 23//23 132//132 43//43
f 6//6 174//174 44//44
f 8//8 130//130 105//105
f 42//42 189//189 131//131
f 195//195 100//100 2//2
f 48//48 49//49 101//101
f 59//59 135//135 121//121
f 49//49 3//3 18//18
f 137//137 25//25 213//213
f 167//167 77//77 84//84
f 35//35 37//37 36//36
f 132//132 23//23 45//45
f 129//129 119//119 26//26
f 133//133 173//173 124//124
f 12//12 35//35 194//194
f 114//114 138//138 193//193
f 6//6 33//33 166//166
f 184//184 207//207 139//139
f 102//102 126//126 74//74
f 141//141 5//5 102//102
f 5//5 141//141 97//97
f 196//196 65//65 78//78
f 1//1 142//142 119//119
f 142//142 19//19 125//125
f 143//143 158//158 126//126
f 143//143 126//126 18//18
f 37//37 145//145 100//100
f 145//145 1//1 100//100
f 2//2 113//113 148//148
f 126//126 102//102 18//18
f 18//18 102//102 49//49
f 191//191 103//103 59//59
f 191//191 7//7 103//103
f 140//140 40//40 70//70
f 40//40 83//83 70//70
f 180//180 76//76 82//82
f 101//101 207//207 146//146
f 207//207 104//104 146//146
f 29//29 214//214 34//34
f 214//214 134//134 34//34
f 146//146 147//147 32//32
f 115//115 29//29 34//34
f 147//147 146//146 104//104
f 147//147 104//104 115//115
f 3//3 148//148 18//18
f 148//148 143//143 18//18
f 31//31 157//157 130//130
f 151//151 128//128 118//118
f 165//165 188//188 152//152
f 188//188 140//140 152//152
f 39//39 154//154 143//143
f 143//143 154//154 158//158
f 154//154 155//155 85//85
f 86//86 81//81 204//204
f 156//156 94//94 215//215
f 126//126 158//158 127//127
f 106//106 14//14 108//108
f 182//182 90//90 91//91
f 162//162 172//172 92//92
f 10//10 184//184 139//139
f 153//153 9//9 217//217
f 43//43 176//176 23//23
f 22//22 21//21 116//116
f 201//201 42//42 171//171
f 171//171 42//42 159//159
f 103//103 26//26 150//150
f 165//165 118//118 117//117
f 99//99 176//176 199//199
f 132//132 144//144 43//43
f 144//144 41//41 43//43
f 193//193 174//174 166//166
f 174//174 6//6 166//166
f 93//93 167//167 208//208
f 167//167 93//93 77//77
f 217//217 9//9 168//168
f 161//161 90//90 182//182
f 201//201 171//171 11//11
f 159//159 169//169 164//164
f 58//58 29//29 172//172
f 115//115 10//10 172//172
f 124//124 173//173 177//177
f 132//132 45//45 33//33
f 132//132 33//33 6//6
f 170//170 175//175 134//134
f 176//176 43//43 199//199
f 161//161 122//122 90//90
f 27//27 167//167 84//84
f 144//144 44//44 31//31
f 218//218 213//213 208//208
f 136//136 218//218 114//114
f 136//136 114//114 165//165
f 30//30 20//20 211//211
f 20//20 98//98 211//211
f 198//198 150//150 125//125
f 125//125 26//26 119//119
f 173//173 211//211 161//161
f 173//173 161//161 177//177
f 163//163 153//153 46//46
f 96//96 80//80 182//182
f 80//80 46//46 182//182
f 46//46 38//38 163//163
f 50//50 204//204 203//203
f 176//176 99//99 73//73
f 23//23 176//176 73//73
f 183//183 157//157 81//81
f 183//183 130//130 157//157
f 101//101 146//146 48//48
f 146//146 32//32 48//48
f 32//32 47//47 48//48
f 195//195 2//2 206//206
f 206//206 47//47 178//178
f 3//3 206//206 2//2
f 162//162 92//92 179//179
f 197//197 179//179 120//120
f 162//162 197//197 58//58
f 2//2 148//148 3//3
f 180//180 82//82 83//83
f 180//180 40//40 45//45
f 32//32 190//190 149//149
f 89//89 158//158 85//85
f 144//144 132//132 6//6
f 150//150 209//209 135//135
f 151//151 198//198 181//181
f 181//181 198//198 19//19
f 209//209 118//118 152//152
f 153//153 177//177 46//46
f 182//182 46//46 177//177
f 130//130 183//183 105//105
f 37//37 100//100 36//36
f 155//155 154//154 39//39
f 44//44 203//203 31//31
f 51//51 138//138 218//218
f 44//44 174//174 55//55
f 174//174 205//205 55//55
f 144//144 6//6 44//44
f 138//138 51//51 205//205
f 51//51 218//218 208//208
f 50//50 55//55 205//205
f 205//205 51//51 28//28
f 201//201 11//11 13//13
f 123//123 217//217 212//212
f 13//13 24//24 201//201
f 201//201 185//185 42//42
f 12//12 56//56 186//186
f 186//186 185//185 24//24
f 113//113 129//129 39//39
f 129//129 7//7 155//155
f 204//204 87//87 86//86
f 205//205 174//174 138//138
f 174//174 193//193 138//138
f 56//56 194//194 53//53
f 140//140 121//121 152//152
f 152//152 121//121 135//135
f 157//157 203//203 204//204
f 140//140 187//187 40//40
f 33//33 45//45 40//40
f 72//72 211//211 98//98
f 72//72 122//122 211//211
f 184//184 104//104 207//207
f 97//97 207//207 5//5
f 149//149 52//52 54//54
f 54//54 52//52 53//53
f 53//53 189//189 56//56
f 85//85 155//155 88//88
f 149//149 190//190 52//52
f 149//149 178//178 47//47
f 7//7 191//191 88//88
f 134//134 190//190 34//34
f 190//190 32//32 147//147
f 190//190 147//147 34//34
f 36//36 100//100 195//195
f 56//56 12//12 194//194
f 57//57 192//192 175//175
f 192//192 52//52 175//175
f 57//57 212//212 131//131
f 53//53 192//192 189//189
f 189//189 192//192 131//131
f 36//36 200//200 194//194
f 200//200 53//53 194//194
f 134//134 133//133 170//170
f 36//36 194//194 35//35
f 134//134 175//175 190//190
f 188//188 114//114 193//193
f 214//214 30//30 133//133
f 214//214 133//133 134//134
f 33//33 187//187 166//166
f 187//187 188//188 193//193
f 10//10 139//139 65//65
f 92//92 196//196 78//78
f 187//187 140//140 188//188
f 202//202 68//68 199//199
f 182//182 91//91 96//96
f 76//76 180//180 23//23
f 87//87 204//204 50//50
f 155//155 7//7 88//88
f 36//36 195//195 200//200
f 28//28 27//27 156//156
f 200//200 178//178 54//54
f 202//202 41//41 8//8
f 195//195 178//178 200//200
f 95//95 122//122 71//71
f 90//90 122//122 95//95
f 62//62 17//17 160//160
f 41//41 144//144 31//31
f 108//108 160//160 106//106
f 8//8 41//41 130//130
f 64//64 202//202 75//75
f 117//117 137//137 136//136
f 48//48 206//206 3//3
f 48//48 3//3 49//49
f 197//197 162//162 179//179
f 130//130 41//41 31//31
f 107//107 14//14 4//4
f 216//216 109//109 110//110
f 123//123 170//170 124//124
f 162//162 58//58 172//172
f 58//58 197//197 20//20
f 198//198 209//209 150//150
f 201//201 24//24 185//185
f 23//23 180//180 45//45
f 161//161 182//182 177//177
f 50//50 203//203 55//55
f 28//28 215//215 50//50
f 199//199 41//41 202//202
f 30//30 173//173 133//133
f 202//202 8//8 75//75
f 151//151 118//118 209//209
f 62//62 108//108 60//60
f 16//16 210//210 11//11
f 157//157 204//204 81//81
f 189//189 42//42 185//185
f 195//195 206//206 178//178
f 198//198 151//151 209//209
f 50//50 205//205 28//28
f 189//189 185//185 56//56
f 51//51 208//208 27//27
f 208//208 167//167 27//27
f 22//22 11//11 171//171
f 30//30 58//58 20//20
f 141//141 102//102 74//74
f 159//159 42//42 131//131
f 29//29 115//115 172//172
f 30//30 211//211 173//173
f 156//156 27//27 84//84
f 196//196 10//10 65//65
f 210//210 13//13 11//11
f 156//156 84//84 94//94
f 213//213 93//93 208//208
f 30//30 214//214 58//58
f 215//215 94//94 69//69
f 196//196 172//172 10//10
f 25//25 93//93 213//213
f 28//28 156//156 215//215
f 215//215 69//69 50//50
f 159//159 131//131 212//212
f 110//110 111//111 216//216
f 14//14 107//107 15//15
f 217//217 169//169 212//212
f 137//137 213//213 136//136
f 14//14 109//109 216//216
f 123//123 212//212 57//57
f 164//164 168//168 21//21
f 164//164 169//169 168//168
f 159//159 212//212 169//169
f 210//210 111//111 110//110
f 123//123 57//57 170//170
f 153//153 217//217 123//123
f 213//213 218//218 136//136
f 124//124 177//177 153//153
f 139//139 207//207 97//97
f 92//92 172//172 196//196
f 171//171 159//159 164//164
f 161//161 211//211 122//122
f 123//123 124//124 153//153
f 171//171 164//164 22//22
f 14//14 216//216 4//4
# 354 faces, 0 coords texture

# End of File
