####
#
# OBJ File Generated by Meshlab
#
####
# Object 1757S.obj
#
# Vertices: 29
# Faces: 41
#
####
vn -2.186758 0.016226 -1.508682
v 70.486700 4.623810 71.620500
vn -2.194123 0.012510 -1.505994
v 73.597000 11.225050 67.160500
vn -2.273212 0.005016 -1.581959
v 69.886550 12.642950 72.574700
vn -2.284528 0.006020 -1.576709
v 70.690600 13.338700 71.417350
vn -2.156501 0.011847 -1.505630
v 69.038750 11.028150 73.781450
vn -2.356956 0.015963 -1.610683
v 72.592750 12.893750 68.642050
vn -2.216461 0.017535 -1.520562
v 73.982600 8.348070 66.573100
vn -2.132766 0.011052 -1.460894
v 71.875000 13.532900 69.700100
vn -2.076765 0.011633 -1.433160
v 71.949000 4.365350 69.506900
vn -2.221201 0.009753 -1.517344
v 73.185000 5.606260 67.714800
vn -2.415444 0.015007 -1.649178
v 73.576656 6.614626 67.144863
vn -5.175668 0.047345 -3.562110
v 70.114141 6.516330 72.185216
vn -2.318112 0.020368 -1.596736
v 69.773300 5.462535 72.666600
vn -5.165503 0.024171 -3.576946
v 70.345354 11.342140 71.911292
vn -5.183754 0.027215 -3.550496
v 71.517063 11.614863 70.209023
vn -5.185471 0.033867 -3.547975
v 72.846317 7.958022 68.228966
vn -5.183014 0.029577 -3.551591
v 73.135806 9.642260 67.819763
vn -2.193035 0.015461 -1.518712
v 69.014750 7.213235 73.790750
vn -5.176623 0.042506 -3.560777
v 71.683632 7.765958 69.921234
vn -2.363672 0.018587 -1.629163
v 73.946400 9.457050 66.641600
vn -5.188697 0.029707 -3.543274
v 72.528044 11.255135 68.720496
vn -5.180074 0.030008 -3.555845
v 72.414802 6.283717 68.846627
vn -5.167357 0.036429 -3.574159
v 69.679953 8.091188 72.839955
vn -2.236477 0.011094 -1.561888
v 68.797450 9.276640 74.110100
vn -5.176236 0.048512 -3.561266
v 70.606673 7.830124 71.486187
vn -5.170989 0.037346 -3.568998
v 71.208806 6.100983 70.589302
vn -5.186365 0.034957 -3.546640
v 72.114359 9.590844 69.316344
vn -5.162545 0.036616 -3.581172
v 69.935364 9.484180 72.483420
vn -5.176716 0.044215 -3.560600
v 71.005498 9.608040 70.934099
# 29 vertices, 0 vertices normals

f 16//16 27//27 17//17
f 8//8 21//21 15//15
f 9//9 22//22 10//10
f 26//26 1//1 12//12
f 21//21 17//17 27//27
f 13//13 18//18 12//12
f 4//4 14//14 3//3
f 15//15 14//14 4//4
f 15//15 4//4 8//8
f 17//17 21//21 2//2
f 17//17 20//20 7//7
f 20//20 17//17 2//2
f 21//21 8//8 6//6
f 23//23 12//12 18//18
f 18//18 24//24 23//23
f 19//19 27//27 16//16
f 16//16 17//17 7//7
f 16//16 7//7 11//11
f 22//22 19//19 16//16
f 12//12 25//25 26//26
f 9//9 26//26 22//22
f 22//22 26//26 19//19
f 24//24 5//5 28//28
f 5//5 14//14 28//28
f 14//14 5//5 3//3
f 11//11 10//10 22//22
f 11//11 22//22 16//16
f 25//25 23//23 28//28
f 25//25 19//19 26//26
f 25//25 12//12 23//23
f 21//21 6//6 2//2
f 12//12 1//1 13//13
f 15//15 21//21 27//27
f 15//15 27//27 29//29
f 26//26 9//9 1//1
f 19//19 29//29 27//27
f 24//24 28//28 23//23
f 25//25 29//29 19//19
f 14//14 29//29 28//28
f 29//29 14//14 15//15
f 25//25 28//28 29//29
# 41 faces, 0 coords texture

# End of File
