####
#
# OBJ File Generated by Meshlab
#
####
# Object 1775S.obj
#
# Vertices: 26
# Faces: 36
#
####
vn 5.185581 0.077889 -3.547105
v -69.714909 7.352440 71.938523
vn 5.214918 0.070228 -3.504003
v -72.894705 5.017245 67.172881
vn 5.217016 0.083996 -3.500565
v -71.563810 4.686987 69.140639
vn 2.219846 0.024869 -1.485635
v -72.027550 10.996600 68.591200
vn 2.187582 0.030028 -1.503484
v -69.160100 8.727120 72.773200
vn 2.204993 0.026172 -1.493020
v -70.556593 10.795850 70.774612
vn 2.215486 0.036135 -1.504201
v -69.783300 3.099980 71.745400
vn 2.291695 0.036992 -1.544465
v -70.799900 2.277920 70.221100
vn 2.230165 0.031123 -1.519552
v -69.142800 4.522950 72.717200
vn 2.197262 0.023462 -1.458833
v -72.974400 10.280900 67.154500
vn 5.213170 0.072392 -3.506521
v -71.330796 8.876787 69.591942
vn 2.315734 0.027650 -1.565291
v -71.569850 2.217320 69.080150
vn 5.208636 0.083888 -3.512920
v -70.710026 4.685014 70.418509
vn 2.257297 0.027913 -1.502361
v -73.631650 8.762375 66.139100
vn 2.255762 0.031453 -1.541974
v -68.909467 6.309338 73.093455
vn 5.217727 0.085569 -3.499468
v -71.805618 6.858246 68.832251
vn 5.191824 0.076108 -3.537883
v -70.248248 8.422469 71.185133
vn 2.190018 0.027622 -1.467718
v -73.601900 4.477480 66.107500
vn 2.199639 0.026385 -1.472880
v -73.917950 6.560130 65.674800
vn 2.179090 0.026301 -1.472079
v -72.740350 2.865570 67.362350
vn 2.291247 0.029345 -1.571695
v -69.631200 9.789470 72.110200
vn 5.217613 0.076534 -3.499850
v -72.522208 6.445794 67.757725
vn 5.206896 0.070394 -3.515893
v -71.950692 3.576002 68.540723
vn 5.225880 0.072642 -3.487490
v -72.386315 8.685147 68.014597
vn 5.193240 0.074918 -3.535964
v -70.056201 5.441491 71.395463
vn 5.211643 0.082633 -3.508528
v -71.018459 6.436099 70.000647
# 26 vertices, 0 vertices normals

f 24//24 10//10 4//4
f 19//19 22//22 2//2
f 23//23 3//3 8//8
f 15//15 1//1 5//5
f 15//15 25//25 1//1
f 8//8 12//12 23//23
f 7//7 8//8 13//13
f 14//14 10//10 24//24
f 15//15 9//9 25//25
f 21//21 17//17 6//6
f 19//19 14//14 22//22
f 20//20 18//18 2//2
f 2//2 3//3 23//23
f 21//21 5//5 17//17
f 17//17 5//5 1//1
f 1//1 25//25 26//26
f 25//25 7//7 13//13
f 12//12 20//20 23//23
f 14//14 24//24 22//22
f 24//24 16//16 22//22
f 19//19 2//2 18//18
f 2//2 23//23 20//20
f 24//24 11//11 16//16
f 6//6 11//11 4//4
f 11//11 24//24 4//4
f 17//17 11//11 6//6
f 26//26 25//25 13//13
f 9//9 7//7 25//25
f 3//3 13//13 8//8
f 26//26 11//11 17//17
f 17//17 1//1 26//26
f 26//26 16//16 11//11
f 16//16 26//26 3//3
f 22//22 16//16 3//3
f 22//22 3//3 2//2
f 26//26 13//13 3//3
# 36 faces, 0 coords texture

# End of File
