####
#
# OBJ File Generated by Meshlab
#
####
# Object 181.obj
#
# Vertices: 46
# Faces: 66
#
####
vn 0.634440 -0.008290 -3.076869
v -11.342721 49.999978 46.628114
vn 0.318604 -0.007082 -1.539683
v -13.542100 50.000000 46.173500
vn 0.230857 -0.016016 -1.548946
v -5.208680 50.000000 47.739700
vn 1.114278 -0.000053 -6.183291
v -9.094463 44.944828 47.103284
vn 0.937995 0.072393 -6.211291
v -6.472706 46.866523 47.564810
vn 1.207711 -0.007320 -6.165349
v -8.838801 48.392256 47.155954
vn 0.674455 0.002130 -3.068285
v -13.481000 38.000000 46.213600
vn 0.704368 0.004114 -3.064353
v -13.555400 38.075600 46.196600
vn 0.946738 0.066991 -6.210549
v -6.921002 44.961781 47.469045
vn 0.422445 0.050734 -3.110911
v -5.198815 46.122750 47.722900
vn 0.458451 -0.003674 -3.119267
v -5.219195 48.338900 47.757950
vn 0.510565 -0.003249 -3.099288
v -9.315860 38.000000 47.051800
vn 0.384430 0.031119 -3.102374
v -5.136010 40.376400 47.613850
vn 0.876181 0.089371 -6.220584
v -7.422369 41.274940 47.350086
vn 0.342768 -0.006983 -1.531169
v -13.555600 38.000000 46.196900
vn 0.203266 -0.013447 -1.561103
v -5.146070 38.000000 47.631200
vn 1.278075 -0.060874 -6.151456
v -11.894435 46.703483 46.539032
vn 1.270937 -0.037795 -6.153028
v -10.654335 48.297440 46.772707
vn 1.265777 0.014616 -6.154243
v -11.800860 39.455771 46.573545
vn 1.100956 0.032978 -6.185431
v -8.036717 46.716883 47.300952
vn 0.645681 -0.020903 -3.075773
v -13.547800 47.590100 46.182850
vn 1.267668 -0.039338 -6.153834
v -12.228004 48.467820 46.452471
vn 0.851020 0.114244 -6.223563
v -6.429882 42.555370 47.511467
vn 0.417788 -0.010241 -3.113591
v -6.763254 38.000037 47.420632
vn 0.424455 0.039748 -3.114179
v -5.187110 44.440500 47.702600
vn 0.397516 0.069477 -3.120213
v -5.171210 42.698100 47.675000
vn 1.183859 0.003490 -6.169831
v -10.397625 43.264776 46.869404
vn 0.538983 -0.009187 -3.094252
v -7.678330 50.000000 47.375700
vn 0.398827 -0.020883 -3.115580
v -5.141670 38.948800 47.623600
vn 0.648860 0.008881 -3.073721
v -13.560900 40.710400 46.205800
vn 1.083129 0.037886 -6.187982
v -9.502591 41.427314 47.028128
vn 1.008996 0.039538 -6.201005
v -8.314693 43.112743 47.234640
vn 0.626399 0.001290 -3.078418
v -11.562850 38.000000 46.621400
vn 0.641448 -0.002828 -3.072069
v -13.565050 42.855450 46.211150
vn 1.251063 -0.039842 -6.156746
v -11.187647 44.938109 46.705775
vn 0.654049 -0.020579 -3.071694
v -13.557650 45.173900 46.196700
vn 0.634285 -0.012270 -3.076862
v -9.536500 50.000000 47.004000
vn 0.586594 0.004040 -3.086287
v -10.119700 38.000000 46.904500
vn 1.150323 0.012890 -6.176359
v -10.313048 39.761635 46.871470
vn 1.291604 -0.012768 -6.148947
v -12.292171 43.325001 46.476495
vn 0.653821 0.009396 -3.073228
v -13.557200 39.131000 46.199700
vn 1.221483 -0.035028 -6.163078
v -9.952209 46.643820 46.933732
vn 1.006361 -0.003641 -6.201215
v -6.933421 48.433913 47.498835
vn 0.925929 0.025993 -6.214082
v -8.257206 39.648831 47.212711
vn 0.784750 0.007879 -6.233842
v -6.184233 39.828396 47.486213
vn 1.265549 0.012319 -6.154238
v -11.890187 41.636216 46.561180
# 46 vertices, 0 vertices normals

f 25//25 23//23 9//9
f 8//8 7//7 15//15
f 1//1 37//37 18//18
f 32//32 14//14 31//31
f 20//20 42//42 6//6
f 4//4 9//9 32//32
f 17//17 42//42 35//35
f 44//44 12//12 39//39
f 22//22 21//21 2//2
f 1//1 18//18 22//22
f 22//22 2//2 1//1
f 43//43 3//3 11//11
f 28//28 43//43 6//6
f 41//41 19//19 33//33
f 24//24 12//12 44//44
f 11//11 10//10 5//5
f 17//17 22//22 18//18
f 10//10 25//25 9//9
f 25//25 26//26 23//23
f 26//26 13//13 23//23
f 40//40 27//27 46//46
f 43//43 28//28 3//3
f 16//16 24//24 29//29
f 29//29 24//24 45//45
f 30//30 34//34 40//40
f 32//32 31//31 27//27
f 27//27 4//4 32//32
f 41//41 7//7 8//8
f 34//34 36//36 40//40
f 23//23 32//32 9//9
f 35//35 4//4 27//27
f 36//36 21//21 17//17
f 37//37 6//6 18//18
f 6//6 37//37 28//28
f 12//12 38//38 39//39
f 38//38 33//33 19//19
f 33//33 7//7 41//41
f 41//41 30//30 19//19
f 30//30 46//46 19//19
f 32//32 23//23 14//14
f 11//11 5//5 43//43
f 22//22 17//17 21//21
f 20//20 4//4 42//42
f 6//6 42//42 18//18
f 4//4 20//20 9//9
f 20//20 43//43 5//5
f 43//43 20//20 6//6
f 36//36 35//35 40//40
f 40//40 35//35 27//27
f 17//17 18//18 42//42
f 35//35 42//42 4//4
f 9//9 20//20 5//5
f 9//9 5//5 10//10
f 24//24 44//44 45//45
f 44//44 14//14 45//45
f 39//39 31//31 44//44
f 44//44 31//31 14//14
f 45//45 14//14 13//13
f 36//36 17//17 35//35
f 46//46 39//39 19//19
f 19//19 39//39 38//38
f 46//46 31//31 39//39
f 46//46 27//27 31//31
f 46//46 30//30 40//40
f 23//23 13//13 14//14
f 29//29 45//45 13//13
# 66 faces, 0 coords texture

# End of File
