####
#
# OBJ File Generated by Meshlab
#
####
# Object 1810S.obj
#
# Vertices: 27
# Faces: 38
#
####
vn 5.226582 0.015085 -3.487243
v -73.524655 31.584489 68.837247
vn 2.148329 0.001836 -1.442015
v -72.379750 33.052150 70.557000
vn 2.263967 0.016759 -1.494026
v -77.365450 32.237950 63.074150
vn 2.363153 0.018732 -1.562496
v -77.155117 35.327574 63.432011
vn 2.281401 0.001925 -1.516312
v -72.895420 30.786075 69.782963
vn 2.223720 0.014073 -1.481616
v -74.895278 28.718832 66.767142
vn 2.273645 0.010933 -1.512960
v -76.449750 37.060050 64.514450
vn 2.336140 0.008452 -1.572363
v -75.657707 37.877375 65.703939
vn 2.219511 0.005739 -1.500100
v -73.605936 37.544250 68.742604
vn 2.183015 0.007934 -1.455499
v -73.738100 29.277950 68.509150
vn 2.132502 -0.000890 -1.442481
v -72.608656 35.572076 70.206219
vn 2.131738 0.006855 -1.437655
v -74.602900 38.247900 67.267600
vn 2.336901 0.019411 -1.542609
v -77.384900 34.077300 63.066800
vn 2.206234 0.015630 -1.462139
v -76.053900 29.160150 65.029100
vn 5.218353 0.028953 -3.499450
v -74.784996 34.135175 66.968699
vn 5.218513 0.031856 -3.499054
v -75.732748 35.572455 65.580665
vn 5.223719 0.021604 -3.491479
v -74.274248 32.371429 67.718546
vn 5.231487 0.041512 -3.479609
v -76.181095 33.734582 64.886822
vn 5.239183 0.039021 -3.468108
v -76.489297 32.354961 64.403138
vn 2.262759 0.015337 -1.494903
v -76.893500 30.441900 63.771050
vn 5.239575 0.038005 -3.467530
v -76.572726 34.949379 64.308298
vn 5.223813 0.019777 -3.491376
v -74.498964 30.690962 67.378414
vn 5.232622 0.031009 -3.478050
v -75.658121 30.488405 65.640494
vn 5.218224 0.014554 -3.499643
v -73.580456 33.770534 68.773631
vn 5.211317 0.014856 -3.510012
v -74.020049 35.872878 68.123497
vn 5.222821 0.023680 -3.492838
v -75.258045 32.166015 66.250944
vn 5.208992 0.022939 -3.513437
v -74.968510 36.219980 66.714322
# 27 vertices, 0 vertices normals

f 21//21 4//4 7//7
f 22//22 10//10 6//6
f 15//15 18//18 16//16
f 14//14 20//20 23//23
f 19//19 23//23 20//20
f 1//1 10//10 22//22
f 23//23 6//6 14//14
f 7//7 16//16 21//21
f 13//13 19//19 3//3
f 5//5 1//1 2//2
f 20//20 3//3 19//19
f 24//24 25//25 11//11
f 23//23 19//19 26//26
f 23//23 26//26 22//22
f 22//22 6//6 23//23
f 4//4 21//21 13//13
f 27//27 8//8 12//12
f 26//26 15//15 17//17
f 17//17 24//24 1//1
f 26//26 17//17 22//22
f 24//24 11//11 2//2
f 15//15 26//26 18//18
f 21//21 16//16 18//18
f 15//15 24//24 17//17
f 12//12 25//25 27//27
f 15//15 25//25 24//24
f 18//18 26//26 19//19
f 25//25 9//9 11//11
f 25//25 12//12 9//9
f 2//2 1//1 24//24
f 25//25 15//15 27//27
f 1//1 22//22 17//17
f 27//27 16//16 8//8
f 1//1 5//5 10//10
f 8//8 16//16 7//7
f 27//27 15//15 16//16
f 18//18 19//19 13//13
f 21//21 18//18 13//13
# 38 faces, 0 coords texture

# End of File
