####
#
# OBJ File Generated by Meshlab
#
####
# Object 1826.obj
#
# Vertices: 48
# Faces: 71
#
####
vn -5.430117 -0.024553 -3.159941
v 58.201860 -42.959807 93.339681
vn -2.661911 0.037303 -1.668221
v 55.625700 -50.000000 97.483800
vn -2.629567 0.010744 -1.718887
v 54.524350 -50.000000 99.207600
vn -5.373382 0.032755 -3.255287
v 57.176765 -46.167293 95.067585
vn -5.322402 -0.023207 -3.338388
v 56.592586 -44.519961 96.009659
vn -2.609228 -0.019103 -1.746797
v 53.973550 -45.311400 100.000000
vn -1.338953 -0.002954 -0.814148
v 58.975200 -50.000000 92.000000
vn -2.688031 0.024544 -1.625757
v 58.088200 -50.000000 93.445550
vn -2.609902 -0.007460 -1.743987
v 53.963050 -43.047600 100.000000
vn -2.608637 0.007583 -1.750406
v 53.963200 -40.962250 100.000000
vn -2.609390 -0.006299 -1.747760
v 53.996550 -48.856800 100.000000
vn -2.722340 0.004162 -1.559289
v 58.967875 -45.023425 91.999500
vn -1.281257 -0.015679 -0.896409
v 53.949900 -38.000000 100.000000
vn -2.600731 -0.005353 -1.774771
v 53.963650 -39.123650 100.000000
vn -1.362835 0.012328 -0.767928
v 58.951000 -38.000000 91.991900
vn -1.317359 -0.009968 -0.863083
v 54.005200 -50.000000 100.000000
vn -5.244060 -0.031507 -3.460136
v 55.023879 -46.569754 98.454444
vn -5.228523 -0.017486 -3.484331
v 54.803033 -43.570052 98.747621
vn -5.394730 0.095033 -3.219499
v 57.518933 -48.119647 94.442012
vn -5.279314 -0.016476 -3.405904
v 55.862583 -42.700664 97.147786
vn -2.732482 -0.016839 -1.547048
v 58.959100 -42.402000 91.999600
vn -2.720687 0.015541 -1.583054
v 58.956277 -47.381853 91.999925
vn -2.745886 -0.011013 -1.538595
v 58.939100 -40.250250 91.996150
vn -5.453221 -0.038484 -3.120472
v 58.437358 -41.345215 92.906534
vn -5.300332 0.004920 -3.372659
v 56.153416 -46.346665 96.718871
vn -5.404403 0.036388 -3.203985
v 58.314106 -48.414832 93.081488
vn -5.332855 0.021384 -3.321546
v 56.463013 -39.361730 96.209077
vn -5.230635 0.007364 -3.481153
v 54.836377 -41.713611 98.688944
vn -5.428321 0.053560 -3.162877
v 58.142142 -46.603426 93.431428
vn -5.311943 0.066031 -3.354562
v 55.831868 -48.229618 97.194330
vn -2.721108 0.003836 -1.569473
v 58.225550 -38.000000 93.279350
vn -2.742822 0.012153 -1.539034
v 58.942400 -38.857300 91.993400
vn -2.594598 -0.009690 -1.771220
v 54.425650 -38.000000 99.320000
vn -5.222805 0.023242 -3.492559
v 54.812944 -39.733421 98.747040
vn -2.605651 -0.018710 -1.756521
v 53.983800 -46.687000 100.000000
vn -5.252755 0.009243 -3.446189
v 54.808828 -48.327834 98.794013
vn -2.683411 -0.019378 -1.633609
v 57.030000 -38.000000 95.272850
vn -5.393845 -0.014251 -3.222142
v 57.697441 -41.284478 94.171343
vn -5.357026 -0.034612 -3.282777
v 57.143843 -42.885617 95.102377
vn -2.638029 0.007489 -1.704830
v 55.728500 -38.000000 97.384750
vn -2.680866 0.057571 -1.636889
v 56.764950 -50.000000 95.620000
vn -5.382532 0.005349 -3.240319
v 57.371755 -39.573704 94.727375
vn -5.337553 0.008357 -3.314758
v 56.692269 -41.092727 95.809383
vn -5.452580 0.002427 -3.121730
v 58.275211 -39.796663 93.181398
vn -5.277602 0.031090 -3.409051
v 55.734878 -40.446717 97.337362
vn -5.355465 0.095393 -3.283530
v 56.722591 -47.750219 95.782136
vn -5.402630 -0.004188 -3.206694
v 57.731783 -44.644738 94.147201
vn -5.249705 -0.031998 -3.452111
v 55.364503 -44.849857 97.909022
# 48 vertices, 0 vertices normals

f 21//21 1//1 24//24
f 7//7 8//8 26//26
f 41//41 19//19 8//8
f 13//13 33//33 14//14
f 44//44 31//31 32//32
f 3//3 16//16 11//11
f 20//20 48//48 18//18
f 4//4 47//47 29//29
f 17//17 6//6 48//48
f 28//28 20//20 18//18
f 17//17 48//48 25//25
f 21//21 12//12 1//1
f 23//23 21//21 24//24
f 6//6 9//9 18//18
f 29//29 22//22 26//26
f 45//45 40//40 27//27
f 9//9 10//10 28//28
f 22//22 29//29 12//12
f 47//47 1//1 12//12
f 17//17 30//30 36//36
f 23//23 44//44 32//32
f 32//32 31//31 15//15
f 34//34 14//14 33//33
f 33//33 40//40 34//34
f 10//10 14//14 34//34
f 30//30 46//46 41//41
f 11//11 35//35 36//36
f 35//35 6//6 17//17
f 29//29 47//47 12//12
f 37//37 31//31 42//42
f 1//1 38//38 24//24
f 40//40 37//37 27//27
f 1//1 47//47 39//39
f 4//4 29//29 19//19
f 5//5 48//48 20//20
f 9//9 28//28 18//18
f 28//28 34//34 45//45
f 30//30 41//41 2//2
f 19//19 29//29 26//26
f 11//11 36//36 3//3
f 30//30 17//17 25//25
f 27//27 37//37 42//42
f 42//42 31//31 44//44
f 39//39 38//38 1//1
f 24//24 44//44 23//23
f 43//43 38//38 39//39
f 43//43 42//42 38//38
f 36//36 2//2 3//3
f 35//35 17//17 36//36
f 42//42 44//44 38//38
f 38//38 44//44 24//24
f 43//43 39//39 20//20
f 43//43 27//27 42//42
f 28//28 45//45 20//20
f 26//26 22//22 7//7
f 45//45 34//34 40//40
f 45//45 43//43 20//20
f 45//45 27//27 43//43
f 8//8 19//19 26//26
f 28//28 10//10 34//34
f 46//46 19//19 41//41
f 4//4 46//46 25//25
f 46//46 4//4 19//19
f 25//25 46//46 30//30
f 5//5 4//4 25//25
f 5//5 25//25 48//48
f 39//39 5//5 20//20
f 47//47 5//5 39//39
f 30//30 2//2 36//36
f 47//47 4//4 5//5
f 48//48 6//6 18//18
# 71 faces, 0 coords texture

# End of File
