####
#
# OBJ File Generated by Meshlab
#
####
# Object 1831S.obj
#
# Vertices: 59
# Faces: 85
#
####
vn -5.218376 -0.011188 -3.499514
v 73.163855 21.585314 72.284460
vn -5.211701 -0.006906 -3.509492
v 75.107981 28.751453 69.348042
vn -5.213176 -0.030386 -3.507166
v 73.148524 25.466132 72.285985
vn -5.222692 -0.015120 -3.493086
v 73.907910 24.361257 71.160300
vn -1.973168 -0.005139 -1.320175
v 75.312300 26.499800 69.051300
vn -2.083930 -0.019845 -1.424094
v 74.190300 36.651700 70.621600
vn -2.183559 -0.001509 -1.461591
v 73.216500 17.888500 72.213900
vn -2.148433 -0.002444 -1.443693
v 75.386300 19.326650 68.972900
vn -2.202334 -0.005683 -1.474086
v 75.969150 21.253800 68.096800
vn -2.158410 -0.004595 -1.438081
v 77.950164 33.168149 65.117460
vn -2.442381 0.002599 -1.641324
v 76.677285 28.482805 67.012790
vn -2.482342 -0.014434 -1.686175
v 73.423151 30.392598 71.831193
vn -2.120414 -0.008614 -1.448924
v 76.553400 36.763100 67.167100
vn -2.157855 -0.019360 -1.466844
v 73.066800 32.720750 72.330100
vn -2.293438 -0.006975 -1.564937
v 71.183100 20.928700 75.206900
vn -2.240493 0.001188 -1.498635
v 77.825200 30.902550 65.306500
vn -2.034300 -0.007371 -1.376179
v 73.838400 28.658100 71.231400
vn -3.875904 -0.013044 -2.610287
v 74.110700 28.400700 70.829000
vn -3.978132 -0.016691 -2.664425
v 75.004600 26.807800 69.510900
vn -2.152244 -0.002244 -1.444297
v 75.568200 27.391500 68.665100
vn -3.468121 -0.011310 -2.327432
v 75.228100 27.420900 69.173200
vn -2.307062 -0.001388 -1.558708
v 72.283776 18.630675 73.597063
vn -2.284369 -0.010580 -1.550361
v 77.313250 35.532400 66.059450
vn -2.444287 -0.017476 -1.650648
v 72.345300 26.511200 73.467100
vn -2.103840 -0.005647 -1.435386
v 70.986000 23.173000 75.489100
vn -3.458565 -0.021374 -2.327234
v 73.938800 27.749500 71.090300
vn -2.283536 -0.015538 -1.540246
v 73.595900 27.690500 71.598500
vn -5.221047 -0.012880 -3.495544
v 74.234175 22.633381 70.677504
vn -5.220878 -0.014447 -3.495796
v 74.734145 24.533035 69.923083
vn -5.198271 -0.044800 -3.529073
v 74.609540 33.669455 70.045519
vn -2.227032 -0.021501 -1.516552
v 73.425176 35.088324 71.766308
vn -2.662688 -0.009219 -1.786710
v 75.574400 24.974850 68.668750
vn -5.216519 -0.012389 -3.502279
v 75.034080 21.414156 69.494034
vn -5.219931 -0.006716 -3.497209
v 74.207237 20.454982 70.722651
vn -5.206627 -0.015688 -3.516960
v 75.316341 30.473730 69.036295
vn -5.200063 -0.024320 -3.526536
v 72.155480 24.442267 73.769736
vn -2.338968 0.003285 -1.570165
v 77.349900 29.497200 66.015400
vn -5.204536 -0.017568 -3.520059
v 74.346104 29.688580 70.475380
vn -5.198793 -0.035600 -3.528398
v 75.520851 32.357357 68.716121
vn -5.200889 -0.036247 -3.525265
v 74.444671 31.599617 70.317775
vn -5.188819 -0.027884 -3.543131
v 76.022160 35.472197 67.952214
vn -5.220921 -0.006150 -3.495711
v 73.247085 19.549522 72.166492
vn -2.260725 -0.001868 -1.510894
v 74.132838 18.046775 70.837135
vn -5.218176 -0.018146 -3.499817
v 75.262752 23.013735 69.143229
vn -2.303117 -0.006841 -1.544496
v 75.974300 23.089300 68.081850
vn -5.201483 -0.010943 -3.524535
v 72.229090 20.533116 73.676512
vn -5.192461 -0.033328 -3.537710
v 75.556948 34.137655 68.643341
vn -5.191298 -0.039784 -3.539376
v 74.778024 35.462940 69.778127
vn -2.263869 -0.015543 -1.546924
v 75.333634 37.129551 68.945733
vn -2.221691 -0.013684 -1.513969
v 71.577100 25.408750 74.609750
vn -2.366478 -0.006762 -1.613097
v 71.464900 20.058200 74.799600
vn -5.193520 -0.027482 -3.536218
v 76.481329 33.550036 67.297852
vn -5.216078 -0.012059 -3.502838
v 77.290664 32.912872 66.108117
vn -5.198379 -0.012503 -3.529156
v 72.068701 22.407304 73.903820
vn -5.212830 0.004301 -3.507816
v 76.120626 29.356949 67.842515
vn -5.216296 -0.016177 -3.502562
v 73.094658 23.462528 72.382407
vn -5.196067 -0.047524 -3.532278
v 73.760516 32.666537 71.310299
vn -5.208136 -0.006182 -3.514679
v 76.555560 31.240302 67.202815
vn -5.217661 -0.023796 -3.500499
v 74.096996 26.052254 70.872129
# 59 vertices, 0 vertices normals

f 29//29 5//5 32//32
f 38//38 2//2 18//18
f 41//41 13//13 23//23
f 38//38 17//17 12//12
f 41//41 52//52 47//47
f 41//41 47//47 48//48
f 30//30 57//57 31//31
f 27//27 3//3 24//24
f 56//56 36//36 3//3
f 1//1 34//34 42//42
f 15//15 46//46 51//51
f 4//4 28//28 56//56
f 48//48 31//31 6//6
f 32//32 45//45 44//44
f 28//28 44//44 33//33
f 33//33 44//44 9//9
f 34//34 33//33 8//8
f 38//38 40//40 35//35
f 1//1 28//28 34//34
f 33//33 9//9 8//8
f 34//34 8//8 43//43
f 32//32 44//44 29//29
f 44//44 28//28 29//29
f 28//28 33//33 34//34
f 31//31 57//57 14//14
f 54//54 15//15 25//25
f 43//43 42//42 34//34
f 55//55 58//58 37//37
f 55//55 37//37 11//11
f 17//17 38//38 18//18
f 37//37 58//58 16//16
f 38//38 35//35 2//2
f 30//30 39//39 40//40
f 39//39 52//52 58//58
f 55//55 35//35 58//58
f 43//43 7//7 42//42
f 45//45 9//9 44//44
f 5//5 29//29 19//19
f 12//12 40//40 38//38
f 2//2 20//20 21//21
f 35//35 55//55 2//2
f 54//54 46//46 15//15
f 23//23 52//52 41//41
f 10//10 53//53 23//23
f 39//39 47//47 52//52
f 25//25 36//36 54//54
f 25//25 50//50 36//36
f 26//26 18//18 21//21
f 18//18 2//2 21//21
f 59//59 26//26 19//19
f 21//21 19//19 26//26
f 48//48 47//47 30//30
f 49//49 41//41 48//48
f 48//48 6//6 49//49
f 49//49 13//13 41//41
f 30//30 40//40 57//57
f 4//4 56//56 3//3
f 3//3 36//36 24//24
f 50//50 24//24 36//36
f 46//46 1//1 42//42
f 59//59 27//27 26//26
f 4//4 3//3 59//59
f 46//46 54//54 1//1
f 51//51 46//46 22//22
f 53//53 52//52 23//23
f 53//53 16//16 58//58
f 53//53 10//10 16//16
f 52//52 53//53 58//58
f 42//42 7//7 22//22
f 22//22 46//46 42//42
f 59//59 3//3 27//27
f 39//39 35//35 40//40
f 47//47 39//39 30//30
f 55//55 20//20 2//2
f 20//20 55//55 11//11
f 54//54 36//36 56//56
f 29//29 4//4 59//59
f 1//1 54//54 56//56
f 56//56 28//28 1//1
f 57//57 12//12 14//14
f 30//30 31//31 48//48
f 58//58 35//35 39//39
f 57//57 40//40 12//12
f 29//29 59//59 19//19
f 29//29 28//28 4//4
# 85 faces, 0 coords texture

# End of File
