####
#
# OBJ File Generated by Meshlab
#
####
# Object 1837S.obj
#
# Vertices: 27
# Faces: 38
#
####
vn -5.212583 0.026900 -3.508069
v 72.503424 8.914532 73.223151
vn -5.221252 0.031070 -3.495107
v 75.122294 9.580062 69.316533
vn -5.222563 0.027693 -3.493177
v 73.263603 7.840875 72.082465
vn -5.220068 0.028497 -3.496874
v 72.902988 11.888584 72.655451
vn -2.204894 0.010642 -1.471145
v 75.687700 10.170900 68.473400
vn -2.194587 0.014928 -1.485245
v 70.905500 11.096000 75.606300
vn -2.099125 0.012476 -1.399734
v 74.140650 4.989995 70.742200
vn -2.209956 0.013516 -1.486242
v 72.900796 4.798456 72.596273
vn -2.146085 0.013104 -1.447385
v 71.702500 12.832400 74.446550
vn -2.303959 0.016355 -1.540124
v 75.699050 8.927325 68.446800
vn -2.312092 0.017081 -1.570341
v 71.022292 7.152168 75.391765
vn -2.335776 0.009521 -1.562925
v 72.807885 13.524523 72.807548
vn -2.336491 0.011451 -1.563442
v 75.216860 11.689326 69.189422
vn -2.218643 0.007849 -1.481169
v 73.834500 13.535000 71.266100
vn -2.395651 0.009724 -1.604128
v 74.374000 13.043600 70.458200
vn -2.181315 0.014325 -1.455519
v 75.226487 6.644822 69.124953
vn -2.162731 0.015735 -1.466317
v 70.668500 8.987240 75.934100
vn -2.193021 0.017092 -1.486207
v 71.681600 5.701930 74.405100
vn -5.216989 0.033312 -3.501430
v 73.061410 6.147948 72.369721
vn -5.222824 0.029076 -3.492798
v 73.345455 9.931459 71.974251
vn -5.228911 0.028867 -3.483684
v 74.053925 6.737300 70.887120
vn -5.205189 0.036016 -3.518916
v 72.171858 7.340399 73.702394
vn -5.202028 0.033777 -3.523657
v 71.534272 9.039244 74.657695
vn -5.221059 0.028573 -3.495440
v 74.477035 10.322516 70.283095
vn -5.225443 0.031224 -3.488855
v 74.267349 8.414071 70.579403
vn -5.209609 0.033349 -3.512438
v 72.140115 10.664685 73.776572
vn -5.224341 0.024741 -3.490565
v 74.086381 11.861627 70.880574
# 27 vertices, 0 vertices normals

f 25//25 16//16 21//21
f 23//23 11//11 17//17
f 4//4 27//27 20//20
f 22//22 18//18 11//11
f 9//9 4//4 26//26
f 7//7 19//19 21//21
f 19//19 7//7 8//8
f 8//8 18//18 19//19
f 18//18 22//22 19//19
f 3//3 25//25 21//21
f 2//2 25//25 24//24
f 23//23 22//22 11//11
f 4//4 9//9 12//12
f 6//6 9//9 26//26
f 21//21 19//19 3//3
f 27//27 4//4 14//14
f 12//12 14//14 4//4
f 20//20 3//3 1//1
f 3//3 20//20 25//25
f 13//13 5//5 2//2
f 24//24 27//27 13//13
f 21//21 16//16 7//7
f 3//3 22//22 1//1
f 3//3 19//19 22//22
f 23//23 26//26 1//1
f 1//1 22//22 23//23
f 20//20 27//27 24//24
f 20//20 24//24 25//25
f 27//27 14//14 15//15
f 2//2 5//5 10//10
f 25//25 2//2 16//16
f 16//16 2//2 10//10
f 20//20 1//1 26//26
f 23//23 17//17 6//6
f 20//20 26//26 4//4
f 26//26 23//23 6//6
f 27//27 15//15 13//13
f 2//2 24//24 13//13
# 38 faces, 0 coords texture

# End of File
