####
#
# OBJ File Generated by Meshlab
#
####
# Object 1846S.obj
#
# Vertices: 24
# Faces: 33
#
####
vn -5.191089 0.082087 -3.538896
v 76.695592 -34.089686 67.200612
vn -5.197977 0.071519 -3.529061
v 77.636735 -34.318218 65.806416
vn -5.182916 0.080706 -3.550947
v 77.460699 -37.339025 66.003485
vn -2.164322 0.034584 -1.471534
v 76.402616 -30.768826 67.707111
vn -2.142846 0.037541 -1.469341
v 75.218500 -31.553300 69.421200
vn -2.115525 0.036219 -1.462215
v 74.265600 -37.232300 70.642600
vn -2.245441 0.031466 -1.523083
v 78.623500 -32.609850 64.387550
vn -2.119847 0.030077 -1.435223
v 77.762850 -31.171700 65.686700
vn -2.214929 0.027975 -1.512324
v 78.666300 -37.457550 64.241050
vn -2.205956 0.045200 -1.519397
v 74.127177 -34.990624 70.903017
vn -2.280914 0.026132 -1.546429
v 79.024100 -35.465000 63.741700
vn -2.134926 0.034469 -1.467090
v 77.685200 -39.255000 65.633500
vn -2.125011 0.038580 -1.462970
v 76.364500 -39.873800 67.533200
vn -2.116150 0.036862 -1.458633
v 75.201850 -39.234800 69.240900
vn -5.175642 0.091907 -3.561277
v 76.430561 -38.118882 67.483523
vn -2.311513 0.047594 -1.591242
v 74.542648 -33.024539 70.364179
vn -5.193410 0.064004 -3.535916
v 78.031914 -35.774200 65.199906
vn -2.342461 0.030075 -1.589685
v 78.971200 -34.146000 63.844500
vn -5.169631 0.101021 -3.569706
v 74.784433 -35.255572 69.940890
vn -5.173224 0.097784 -3.564624
v 75.664058 -34.598300 68.688253
vn -5.169687 0.090109 -3.569957
v 75.458009 -36.727550 68.931753
vn -5.182656 0.086304 -3.551147
v 76.688770 -35.955713 67.166213
vn -5.185279 0.089861 -3.547243
v 75.931445 -32.756438 68.350721
vn -5.200290 0.076317 -3.525558
v 77.241890 -32.538443 66.427525
# 24 vertices, 0 vertices normals

f 3//3 9//9 12//12
f 15//15 12//12 13//13
f 20//20 21//21 19//19
f 15//15 22//22 3//3
f 22//22 20//20 1//1
f 13//13 14//14 15//15
f 4//4 24//24 23//23
f 23//23 5//5 4//4
f 23//23 20//20 16//16
f 8//8 24//24 4//4
f 23//23 16//16 5//5
f 2//2 1//1 24//24
f 7//7 18//18 2//2
f 17//17 2//2 18//18
f 18//18 11//11 17//17
f 19//19 10//10 16//16
f 3//3 17//17 9//9
f 15//15 3//3 12//12
f 7//7 24//24 8//8
f 20//20 23//23 1//1
f 15//15 14//14 21//21
f 6//6 21//21 14//14
f 15//15 21//21 22//22
f 3//3 22//22 17//17
f 17//17 22//22 2//2
f 22//22 21//21 20//20
f 19//19 21//21 6//6
f 19//19 6//6 10//10
f 16//16 20//20 19//19
f 23//23 24//24 1//1
f 17//17 11//11 9//9
f 2//2 24//24 7//7
f 2//2 22//22 1//1
# 33 faces, 0 coords texture

# End of File
