####
#
# OBJ File Generated by Meshlab
#
####
# Object 1860.obj
#
# Vertices: 47
# Faces: 70
#
####
vn 5.283679 0.005012 -3.400060
v -88.315872 -46.971680 47.793037
vn 5.288157 0.011782 -3.392831
v -88.344285 -44.905564 47.748393
vn 2.643961 0.013696 -1.693202
v -89.135550 -40.743300 46.541150
vn 2.653970 0.017439 -1.680949
v -88.560750 -38.000000 47.462050
vn 5.346115 0.033712 -3.300543
v -87.430647 -44.178631 49.204382
vn 5.305971 0.024558 -3.365072
v -88.187032 -43.279853 48.008203
vn 2.640000 0.007160 -1.699161
v -89.132100 -43.198100 46.535200
vn 5.396568 0.043015 -3.217468
v -86.468481 -43.369379 50.803763
vn 5.360372 0.053121 -3.276784
v -87.522962 -40.422588 49.095348
vn 1.322008 0.009832 -0.854222
v -89.145100 -38.000000 46.557700
vn 2.699233 0.016228 -1.607219
v -85.576843 -50.000000 52.215811
vn 1.345439 0.022550 -0.793086
v -84.429600 -38.000000 54.390300
vn 2.709375 0.037843 -1.589759
v -85.904300 -38.000000 51.882000
vn 1.356614 0.012547 -0.801832
v -84.359700 -50.000000 54.269100
vn 1.317549 -0.005786 -0.858357
v -89.135700 -50.000000 46.541400
vn 2.632581 -0.002053 -1.709757
v -89.130578 -48.062382 46.534125
vn 2.709331 0.033833 -1.601689
v -84.407700 -40.448700 54.352300
vn 2.709015 0.026064 -1.585941
v -84.402500 -42.245550 54.343350
vn 5.415669 0.078488 -3.184764
v -85.826646 -38.981406 51.990982
vn 5.413735 0.071920 -3.188192
v -85.322867 -40.903012 52.796090
vn 5.418099 0.059208 -3.180970
v -85.408243 -42.386745 52.617191
vn 5.354398 0.037934 -3.286817
v -87.410536 -42.395832 49.252073
vn 5.336387 0.021249 -3.315795
v -87.428093 -45.996347 49.185346
vn 5.391120 0.045473 -3.226520
v -86.221513 -46.628916 51.171128
vn 2.701898 0.031840 -1.602728
v -86.769500 -38.000000 50.405100
vn 5.403945 0.070622 -3.204756
v -86.684661 -39.595440 50.517309
vn 5.387692 0.044672 -3.232411
v -86.606163 -45.077685 50.554742
vn 2.642589 0.016466 -1.698739
v -89.141300 -39.084400 46.551100
vn 2.707441 0.041529 -1.592995
v -85.055400 -38.000000 53.326000
vn 2.707582 0.027697 -1.593561
v -84.370210 -48.039928 54.286982
vn 2.642362 -0.008152 -1.699188
v -88.128950 -50.000000 48.084450
vn 2.711041 0.030945 -1.588643
v -84.383700 -45.512700 54.310750
vn 2.633510 -0.000003 -1.715780
v -89.134100 -45.662200 46.538700
vn 5.419863 0.057857 -3.178056
v -84.883580 -44.104020 53.485672
vn 2.711982 0.030978 -1.583532
v -84.394000 -43.880800 54.328500
vn 5.410113 0.088664 -3.193929
v -85.008090 -39.393958 53.369280
vn 5.408837 0.047158 -3.196968
v -85.240062 -48.185978 52.808008
vn 5.413795 0.057826 -3.188370
v -85.077028 -46.176204 53.115851
vn 5.306991 0.026298 -3.363380
v -88.320616 -41.618405 47.808242
vn 5.410349 0.051238 -3.194338
v -85.705060 -44.578972 52.084563
vn 2.680873 0.027501 -1.637674
v -87.725850 -38.000000 48.808500
vn 5.400688 0.064413 -3.210304
v -86.528223 -41.513765 50.736704
vn 2.674378 0.005377 -1.648000
v -86.829500 -50.000000 50.135300
vn 5.334194 0.014284 -3.319804
v -87.269725 -47.907638 49.436100
vn 5.311672 0.037124 -3.355823
v -88.399541 -39.637820 47.701935
vn 5.288158 -0.007314 -3.392876
v -88.119960 -48.920494 48.093251
vn 5.384677 0.032901 -3.237406
v -86.200889 -48.412455 51.183590
# 47 vertices, 0 vertices normals

f 4//4 45//45 28//28
f 19//19 29//29 36//36
f 46//46 16//16 1//1
f 33//33 7//7 2//2
f 6//6 5//5 2//2
f 37//37 47//47 24//24
f 44//44 24//24 47//47
f 8//8 22//22 42//42
f 3//3 45//45 39//39
f 9//9 41//41 26//26
f 47//47 43//43 44//44
f 9//9 26//26 42//42
f 39//39 45//45 9//9
f 44//44 1//1 23//23
f 25//25 13//13 19//19
f 19//19 26//26 25//25
f 2//2 5//5 23//23
f 5//5 8//8 27//27
f 10//10 4//4 28//28
f 12//12 17//17 36//36
f 14//14 37//37 30//30
f 37//37 14//14 11//11
f 31//31 15//15 46//46
f 1//1 2//2 23//23
f 46//46 15//15 16//16
f 32//32 30//30 38//38
f 16//16 33//33 1//1
f 2//2 1//1 33//33
f 32//32 34//34 35//35
f 43//43 46//46 44//44
f 46//46 1//1 44//44
f 11//11 43//43 47//47
f 5//5 6//6 22//22
f 17//17 18//18 20//20
f 29//29 19//19 13//13
f 44//44 23//23 24//24
f 8//8 5//5 22//22
f 32//32 38//38 34//34
f 34//34 38//38 40//40
f 7//7 3//3 39//39
f 40//40 27//27 8//8
f 34//34 40//40 21//21
f 8//8 21//21 40//40
f 27//27 40//40 24//24
f 39//39 6//6 7//7
f 38//38 24//24 40//40
f 24//24 23//23 27//27
f 26//26 41//41 25//25
f 20//20 19//19 36//36
f 8//8 42//42 21//21
f 20//20 21//21 42//42
f 41//41 9//9 45//45
f 22//22 6//6 39//39
f 19//19 20//20 26//26
f 22//22 9//9 42//42
f 42//42 26//26 20//20
f 4//4 41//41 45//45
f 22//22 39//39 9//9
f 5//5 27//27 23//23
f 34//34 21//21 18//18
f 35//35 34//34 18//18
f 28//28 45//45 3//3
f 2//2 7//7 6//6
f 37//37 38//38 30//30
f 46//46 43//43 31//31
f 37//37 24//24 38//38
f 47//47 37//37 11//11
f 12//12 36//36 29//29
f 36//36 17//17 20//20
f 20//20 18//18 21//21
# 70 faces, 0 coords texture

# End of File
