####
#
# OBJ File Generated by Meshlab
#
####
# Object 1870S.obj
#
# Vertices: 29
# Faces: 40
#
####
vn 2.222031 0.011095 -1.459179
v -74.384400 25.354400 70.894900
vn 2.237571 0.023890 -1.466081
v -75.722947 21.310400 68.803639
vn 2.234128 0.010525 -1.458046
v -74.163841 17.138074 71.133642
vn 2.341997 0.022298 -1.535340
v -75.521400 22.983500 69.136600
vn 2.163255 0.015987 -1.424844
v -70.888200 22.165300 76.191500
vn 2.219246 0.016537 -1.458642
v -72.081400 25.273100 74.405800
vn 2.319393 0.012871 -1.521663
v -72.907873 25.713066 73.148242
vn 2.378979 0.027434 -1.566025
v -70.956450 20.672600 76.063450
vn 2.296988 0.025742 -1.521110
v -71.566100 18.300100 75.094700
vn 2.394600 0.027453 -1.581910
v -71.371550 18.761900 75.396900
vn 5.261589 0.052472 -3.433840
v -74.627150 19.645922 70.448241
vn 2.209956 0.022217 -1.442175
v -75.375600 18.851800 69.289100
vn 5.247601 0.053440 -3.455169
v -72.082818 20.369519 74.346444
vn 5.249390 0.038676 -3.452576
v -71.793621 22.164113 74.816840
vn 5.252415 0.038964 -3.448026
v -72.886300 22.353829 73.153663
vn 5.247600 0.048600 -3.455199
v -72.551746 19.019511 73.618476
vn 5.249363 0.029277 -3.452783
v -72.375797 23.946407 73.942849
vn 5.254202 0.031589 -3.445395
v -74.291026 24.133622 71.027807
vn 5.260364 0.054601 -3.435680
v -74.521257 21.320475 70.636699
vn 2.345402 0.016259 -1.528274
v -74.844300 17.798700 70.091900
vn 5.260325 0.042781 -3.435909
v -73.713354 18.470937 71.833534
vn 2.176353 0.018400 -1.430187
v -72.707840 17.100053 73.354387
vn 2.333879 0.011089 -1.539221
v -71.416081 24.113606 75.398676
vn 5.256432 0.048868 -3.441791
v -74.882813 22.806460 70.108124
vn 2.366890 0.018166 -1.553229
v -75.052400 24.343300 69.870250
vn 5.258437 0.042354 -3.438783
v -73.941061 22.570099 71.547448
vn 5.252708 0.027917 -3.447706
v -73.389615 24.072157 72.401668
vn 2.522791 0.012057 -1.654961
v -73.806200 25.576500 71.777200
vn 5.258332 0.050526 -3.438837
v -73.502284 20.576514 72.190756
# 29 vertices, 0 vertices normals

f 11//11 21//21 20//20
f 24//24 4//4 25//25
f 18//18 1//1 28//28
f 19//19 11//11 2//2
f 21//21 3//3 20//20
f 16//16 21//21 29//29
f 24//24 18//18 26//26
f 17//17 7//7 6//6
f 27//27 15//15 26//26
f 13//13 10//10 16//16
f 17//17 15//15 27//27
f 11//11 12//12 2//2
f 25//25 18//18 24//24
f 11//11 20//20 12//12
f 22//22 21//21 16//16
f 22//22 3//3 21//21
f 14//14 15//15 17//17
f 13//13 16//16 29//29
f 19//19 29//29 11//11
f 14//14 17//17 23//23
f 23//23 5//5 14//14
f 14//14 5//5 8//8
f 8//8 13//13 14//14
f 2//2 24//24 19//19
f 19//19 24//24 26//26
f 27//27 7//7 17//17
f 23//23 17//17 6//6
f 14//14 13//13 15//15
f 24//24 2//2 4//4
f 25//25 1//1 18//18
f 15//15 29//29 26//26
f 29//29 19//19 26//26
f 28//28 27//27 18//18
f 27//27 28//28 7//7
f 18//18 27//27 26//26
f 9//9 16//16 10//10
f 16//16 9//9 22//22
f 10//10 13//13 8//8
f 29//29 21//21 11//11
f 13//13 29//29 15//15
# 40 faces, 0 coords texture

# End of File
