####
#
# OBJ File Generated by Meshlab
#
####
# Object 1876S.obj
#
# Vertices: 28
# Faces: 40
#
####
vn 5.244342 0.047274 -3.460077
v -76.830080 36.014427 68.453167
vn 5.256784 0.047148 -3.441275
v -76.601670 31.019958 68.724625
vn 5.231222 0.032515 -3.480134
v -76.657128 37.601624 68.729690
vn 5.261983 0.055084 -3.433206
v -78.040613 33.292722 66.555895
vn 2.198004 0.024384 -1.437964
v -78.199000 38.054150 66.397350
vn 2.169217 0.002244 -1.451278
v -75.003000 37.719300 71.198300
vn 2.393445 0.007340 -1.591952
v -74.349000 34.619600 72.178300
vn 2.259217 0.004174 -1.501698
v -74.406400 35.798000 72.098400
vn 2.285515 0.025409 -1.488941
v -78.880050 36.532950 65.319450
vn 2.396581 0.017857 -1.571257
v -75.412780 30.633123 70.533173
vn 2.260877 0.017363 -1.480412
v -76.113300 29.821000 69.456400
vn 2.151223 0.008818 -1.440555
v -76.107300 38.869200 69.560000
vn 2.167316 0.012087 -1.425638
v -74.579900 32.345500 71.824100
vn 2.202653 0.021377 -1.435219
v -78.354383 30.684498 66.033427
vn 2.149722 0.019216 -1.403368
v -77.111200 29.592000 67.925500
vn 2.263491 0.024032 -1.476728
v -79.202762 34.419395 64.794005
vn 5.254444 0.053078 -3.444695
v -77.652933 37.115220 67.216121
vn 5.253984 0.051489 -3.445481
v -76.942013 34.262019 68.251198
vn 5.261152 0.057760 -3.434435
v -77.993147 35.279562 66.660765
vn 2.340377 0.016307 -1.552514
v -77.071677 38.825016 68.118712
vn 5.251853 0.042489 -3.448857
v -75.808286 32.063704 69.946429
vn 2.251865 0.024650 -1.467671
v -79.011900 32.381900 65.049900
vn 5.239390 0.029350 -3.467855
v -75.784623 35.021940 70.019522
vn 5.256123 0.049667 -3.442215
v -76.883598 32.623219 68.319943
vn 5.248341 0.043087 -3.454195
v -76.117499 33.537109 69.496200
vn 5.263260 0.052943 -3.431284
v -77.765881 31.626512 66.950642
vn 5.241109 0.025083 -3.465290
v -75.101666 33.935623 71.043539
vn 5.227554 0.013127 -3.485801
v -75.498669 36.614908 70.455719
# 28 vertices, 0 vertices normals

f 20//20 17//17 5//5
f 3//3 17//17 20//20
f 19//19 1//1 18//18
f 19//19 17//17 1//1
f 28//28 23//23 1//1
f 13//13 27//27 7//7
f 17//17 9//9 5//5
f 1//1 3//3 28//28
f 12//12 28//28 3//3
f 18//18 4//4 19//19
f 18//18 23//23 25//25
f 9//9 17//17 19//19
f 6//6 8//8 28//28
f 20//20 12//12 3//3
f 11//11 2//2 10//10
f 2//2 21//21 10//10
f 2//2 11//11 15//15
f 15//15 26//26 2//2
f 14//14 26//26 15//15
f 12//12 6//6 28//28
f 10//10 21//21 13//13
f 21//21 27//27 13//13
f 4//4 18//18 24//24
f 22//22 26//26 14//14
f 26//26 4//4 24//24
f 26//26 24//24 2//2
f 22//22 16//16 4//4
f 21//21 2//2 24//24
f 27//27 21//21 25//25
f 19//19 16//16 9//9
f 19//19 4//4 16//16
f 1//1 17//17 3//3
f 1//1 23//23 18//18
f 25//25 23//23 27//27
f 18//18 25//25 24//24
f 26//26 22//22 4//4
f 25//25 21//21 24//24
f 7//7 27//27 8//8
f 27//27 23//23 8//8
f 28//28 8//8 23//23
# 40 faces, 0 coords texture

# End of File
