####
#
# OBJ File Generated by Meshlab
#
####
# Object 1886S.obj
#
# Vertices: 24
# Faces: 33
#
####
vn 5.279941 0.078331 -3.405040
v -73.832396 7.417351 72.598397
vn 5.276753 0.075598 -3.410043
v -75.540762 8.535483 69.967627
vn 5.272932 0.082246 -3.415746
v -73.463760 9.576488 73.221370
vn 5.279780 0.067721 -3.405477
v -74.636962 6.098511 71.313197
vn 2.228052 0.032914 -1.434974
v -75.290803 10.713952 70.407413
vn 2.191566 0.025123 -1.430869
v -71.744500 6.933705 75.798150
vn 2.142770 0.031152 -1.385887
v -75.610400 3.421070 69.758400
vn 2.166799 0.028895 -1.399867
v -74.271800 2.573130 71.812600
vn 2.148713 0.027086 -1.395427
v -76.558550 7.258230 68.374150
vn 2.330287 0.032619 -1.498757
v -74.124100 11.177700 72.228800
vn 2.098492 0.028753 -1.357222
v -72.898450 3.165145 73.952300
vn 2.270635 0.028142 -1.472998
v -76.270812 4.984434 68.774986
vn 2.256066 0.038440 -1.463374
v -73.172200 10.895000 73.705500
vn 5.284121 0.078641 -3.398568
v -74.494367 9.301175 71.613365
vn 2.260426 0.030479 -1.480582
v -71.980950 8.754255 75.466200
vn 2.376981 0.039925 -1.556810
v -72.602550 10.178725 74.553500
vn 2.215372 0.031388 -1.434070
v -76.136450 9.371630 69.065700
vn 5.274667 0.065488 -3.413495
v -75.066747 4.627329 70.626076
vn 2.299313 0.030677 -1.500959
v -72.051950 5.047289 75.291795
vn 5.269951 0.069482 -3.420633
v -72.863842 5.721055 74.061832
vn 5.280408 0.070926 -3.404500
v -73.867489 4.943168 72.486605
vn 5.271204 0.064343 -3.418860
v -75.580999 6.405920 69.862405
vn 5.281385 0.078971 -3.402790
v -74.896812 7.638932 70.945279
vn 5.262406 0.069742 -3.432279
v -72.740853 7.817082 74.286752
# 24 vertices, 0 vertices normals

f 21//21 11//11 8//8
f 20//20 6//6 19//19
f 3//3 13//13 16//16
f 2//2 5//5 14//14
f 15//15 6//6 24//24
f 16//16 15//15 24//24
f 17//17 5//5 2//2
f 2//2 23//23 22//22
f 8//8 18//18 21//21
f 7//7 18//18 8//8
f 18//18 4//4 21//21
f 4//4 18//18 22//22
f 12//12 18//18 7//7
f 22//22 18//18 12//12
f 14//14 5//5 10//10
f 3//3 10//10 13//13
f 10//10 3//3 14//14
f 9//9 2//2 22//22
f 2//2 9//9 17//17
f 2//2 14//14 23//23
f 19//19 11//11 20//20
f 20//20 24//24 6//6
f 11//11 21//21 20//20
f 21//21 4//4 1//1
f 21//21 1//1 20//20
f 23//23 4//4 22//22
f 22//22 12//12 9//9
f 4//4 23//23 1//1
f 14//14 1//1 23//23
f 1//1 14//14 3//3
f 24//24 3//3 16//16
f 24//24 1//1 3//3
f 24//24 20//20 1//1
# 33 faces, 0 coords texture

# End of File
