####
#
# OBJ File Generated by Meshlab
#
####
# Object 1909S.obj
#
# Vertices: 28
# Faces: 39
#
####
vn 5.266219 0.082674 -3.426093
v -72.069248 -7.816137 76.142504
vn 5.266932 0.085950 -3.424974
v -73.654764 -9.048138 73.665767
vn 5.267029 0.076212 -3.424929
v -72.025074 -11.175628 76.134784
vn 2.239352 0.039941 -1.456021
v -73.319850 -5.354205 74.276600
vn 2.310196 0.037017 -1.485292
v -75.749150 -8.979220 70.429750
vn 2.459628 0.031594 -1.586053
v -75.363150 -12.117600 70.960600
vn 2.267347 0.033268 -1.458130
v -75.760100 -10.493300 70.374300
vn 2.200930 0.031629 -1.448626
v -70.881557 -10.909992 77.877788
vn 2.264339 0.028465 -1.468835
v -73.347550 -14.265366 74.022865
vn 2.157457 0.028445 -1.407533
v -71.345200 -12.824750 77.139450
vn 2.236833 0.029430 -1.449098
v -74.900200 -13.272500 71.655100
vn 2.248850 0.033758 -1.470803
v -71.716400 -6.513735 76.711900
vn 2.241201 0.042464 -1.453333
v -74.529850 -5.885465 72.403850
vn 5.270829 0.078529 -3.419068
v -73.270749 -10.889749 74.206745
vn 5.270322 0.072235 -3.420057
v -74.624875 -12.359512 72.098635
vn 5.270842 0.088034 -3.418872
v -72.968086 -7.404918 74.761319
vn 5.271978 0.077794 -3.417356
v -74.553871 -10.753650 72.244087
vn 5.268884 0.090754 -3.421839
v -74.059073 -7.218554 73.090889
vn 5.277964 0.082021 -3.408019
v -74.910993 -8.941768 71.734337
vn 2.272055 0.037156 -1.466146
v -75.313600 -7.139315 71.151850
vn 5.258819 0.079613 -3.437503
v -71.711893 -9.641658 76.647829
vn 2.181766 0.033283 -1.432202
v -71.027550 -8.258845 77.721500
vn 5.274556 0.081581 -3.413320
v -72.599511 -9.401914 75.282107
vn 5.265997 0.069531 -3.426773
v -73.804255 -12.433167 73.355770
vn 2.409025 0.040804 -1.563374
v -72.524200 -5.704200 75.493200
vn 2.452023 0.031569 -1.595835
v -74.322000 -13.805500 72.534500
vn 2.310225 0.025653 -1.496861
v -72.200600 -13.859150 75.804650
vn 5.274499 0.069453 -3.413677
v -72.691069 -12.645254 75.068473
# 28 vertices, 0 vertices normals

f 1//1 16//16 25//25
f 14//14 2//2 23//23
f 28//28 14//14 3//3
f 15//15 11//11 6//6
f 12//12 22//22 1//1
f 18//18 4//4 16//16
f 9//9 24//24 28//28
f 13//13 4//4 18//18
f 7//7 17//17 6//6
f 2//2 18//18 16//16
f 8//8 10//10 3//3
f 17//17 19//19 2//2
f 18//18 20//20 13//13
f 22//22 8//8 21//21
f 23//23 2//2 16//16
f 23//23 16//16 1//1
f 27//27 28//28 10//10
f 22//22 21//21 1//1
f 25//25 16//16 4//4
f 25//25 12//12 1//1
f 20//20 19//19 5//5
f 24//24 17//17 14//14
f 14//14 17//17 2//2
f 3//3 14//14 23//23
f 28//28 3//3 10//10
f 19//19 18//18 2//2
f 18//18 19//19 20//20
f 1//1 21//21 23//23
f 9//9 26//26 24//24
f 15//15 24//24 26//26
f 26//26 11//11 15//15
f 27//27 9//9 28//28
f 28//28 24//24 14//14
f 3//3 23//23 21//21
f 17//17 15//15 6//6
f 15//15 17//17 24//24
f 8//8 3//3 21//21
f 19//19 17//17 7//7
f 19//19 7//7 5//5
# 39 faces, 0 coords texture

# End of File
