####
#
# OBJ File Generated by Meshlab
#
####
# Object 1917S.obj
#
# Vertices: 25
# Faces: 34
#
####
vn -5.277934 0.079000 -3.408159
v 75.781860 -3.588522 73.842768
vn -5.282454 0.072404 -3.401293
v 76.644745 -4.864773 72.478478
vn -5.279426 0.059774 -3.406085
v 75.772483 -1.532575 73.909937
vn -2.370143 0.024379 -1.528869
v 76.802000 0.225654 72.330300
vn -2.216748 0.028382 -1.424383
v 77.992450 -6.375940 70.346750
vn -2.182206 0.031523 -1.395175
v 78.464400 -4.615205 69.645450
vn -2.262547 0.024488 -1.460337
v 76.121400 -8.001520 73.239400
vn -2.192346 0.030647 -1.426350
v 75.054000 -7.564460 74.879000
vn -2.232344 0.033169 -1.444704
v 74.038750 -5.329325 76.498650
vn -2.226299 0.017658 -1.434901
v 75.703815 0.300279 74.037029
vn -2.172136 0.027725 -1.386713
v 78.353393 -2.216533 69.871238
vn -2.180834 0.025699 -1.417730
v 73.965200 -2.563140 76.671100
vn -5.283759 0.045759 -3.399706
v 76.590229 -0.772526 72.642683
vn -2.183903 0.023089 -1.404760
v 77.552350 -0.293886 71.160650
vn -5.288982 0.074696 -3.391081
v 77.417075 -5.720991 71.255249
vn -2.320856 0.032050 -1.481498
v 77.045638 -7.601801 71.793437
vn -5.287339 0.062053 -3.393845
v 76.481126 -6.636318 72.700745
vn -5.272005 0.073738 -3.417421
v 74.914247 -2.567976 75.211133
vn -5.274495 0.077788 -3.413511
v 74.787187 -4.525148 75.360635
vn -5.290758 0.077928 -3.388212
v 77.589597 -3.739404 71.036279
vn -2.460191 0.036922 -1.594479
v 74.545300 -6.684400 75.685000
vn -2.483222 0.034744 -1.609767
v 73.929800 -3.579270 76.707400
vn -2.194216 0.022987 -1.424376
v 74.694700 -0.606377 75.585250
vn -5.286308 0.065481 -3.395387
v 77.176568 -2.239262 71.713076
vn -5.271553 0.065324 -3.418301
v 75.696193 -6.305777 73.918973
# 25 vertices, 0 vertices normals

f 18//18 12//12 23//23
f 15//15 5//5 16//16
f 19//19 18//18 1//1
f 12//12 18//18 22//22
f 14//14 13//13 4//4
f 14//14 24//24 13//13
f 14//14 11//11 24//24
f 2//2 24//24 20//20
f 15//15 6//6 5//5
f 17//17 16//16 7//7
f 16//16 17//17 15//15
f 20//20 11//11 6//6
f 4//4 13//13 10//10
f 21//21 9//9 19//19
f 2//2 15//15 17//17
f 17//17 25//25 2//2
f 2//2 1//1 24//24
f 1//1 3//3 24//24
f 22//22 19//19 9//9
f 19//19 22//22 18//18
f 23//23 10//10 3//3
f 10//10 13//13 3//3
f 25//25 8//8 21//21
f 15//15 20//20 6//6
f 15//15 2//2 20//20
f 1//1 25//25 19//19
f 23//23 3//3 18//18
f 25//25 21//21 19//19
f 24//24 3//3 13//13
f 1//1 18//18 3//3
f 8//8 25//25 7//7
f 2//2 25//25 1//1
f 24//24 11//11 20//20
f 25//25 17//17 7//7
# 34 faces, 0 coords texture

# End of File
