####
#
# OBJ File Generated by Meshlab
#
####
# Object 1928.obj
#
# Vertices: 47
# Faces: 69
#
####
vn 2.610217 0.019899 -1.746712
v -59.343200 50.000000 97.642000
vn 1.262459 0.016979 -0.921480
v -57.580900 38.000000 100.000000
vn 5.171256 0.033958 -3.568348
v -59.447852 41.565466 97.449087
vn 5.309023 -0.041551 -3.358381
v -60.988099 44.897767 95.135679
vn 2.551315 0.033820 -1.832966
v -58.666900 38.000000 98.511250
vn 2.708844 -0.013323 -1.582766
v -62.867200 44.618000 92.000000
vn 1.275923 -0.006745 -0.899894
v -57.670500 50.000000 100.000000
vn 5.148135 0.037189 -3.601112
v -59.284300 39.802474 97.675608
vn 5.168670 0.012773 -3.571955
v -58.898560 49.012853 98.275963
vn 2.651580 0.024809 -1.684457
v -61.255500 38.000000 94.707500
vn 5.118361 0.028628 -3.643349
v -58.591537 44.537231 98.704317
vn 5.217864 -0.000291 -3.499655
v -59.642285 45.418988 97.184769
vn 2.597988 0.022102 -1.765933
v -59.955600 38.000000 96.688100
vn 5.145932 0.020117 -3.604409
v -58.723736 46.143503 98.528863
vn 5.367170 -0.037421 -3.265090
v -61.692135 43.163342 94.018138
vn 2.592189 -0.014100 -1.804797
v -57.697400 48.343200 100.000000
vn 1.341465 -0.001461 -0.817454
v -62.847000 50.000000 92.000000
vn 2.548787 0.024374 -1.836593
v -57.664100 45.962850 100.000000
vn 1.351988 0.009513 -0.806708
v -62.895400 38.000000 92.000000
vn 2.538369 0.028349 -1.856376
v -57.602000 39.611300 100.000000
vn 2.719512 -0.021262 -1.585085
v -62.868200 43.275650 92.000000
vn 5.192319 0.012974 -3.536761
v -59.548123 43.478839 97.329851
vn 2.528598 0.022272 -1.863225
v -57.621000 42.138150 100.000000
vn 5.096284 0.044783 -3.674377
v -58.454150 41.011945 98.854384
vn 2.708832 -0.017455 -1.579510
v -62.900200 40.848550 92.000000
vn 5.405555 -0.046254 -3.201799
v -62.220398 41.578420 93.155582
vn 5.231429 0.025051 -3.479308
v -60.430182 40.142928 95.995377
vn 5.311490 -0.052818 -3.354515
v -60.725941 46.563300 95.524914
vn 5.144074 0.006312 -3.607399
v -58.352882 47.798474 99.062802
vn 5.316628 -0.001079 -3.346635
v -61.390098 41.016997 94.527980
vn 2.668400 -0.014924 -1.658010
v -60.772199 50.000000 95.391539
vn 2.689578 -0.015071 -1.626738
v -62.848537 48.199776 92.000695
vn 2.709862 -0.020764 -1.594753
v -62.855500 45.910500 92.000000
vn 5.253858 -0.003522 -3.444941
v -60.553422 42.395339 95.821575
vn 2.681335 -0.006921 -1.637076
v -61.924519 50.000000 93.513816
vn 2.701338 0.015731 -1.595060
v -62.903100 39.094300 92.000000
vn 2.691051 0.030841 -1.620873
v -62.240600 38.000000 93.097400
vn 2.529576 0.024581 -1.857248
v -57.637500 44.077400 100.000000
vn 5.382652 -0.069539 -3.240180
v -61.998989 46.229340 93.447292
vn 5.360080 -0.054332 -3.277829
v -61.521564 48.064569 94.183157
vn 2.560770 0.023140 -1.819395
v -58.655800 50.000000 98.630200
vn 5.089664 0.060148 -3.683642
v -58.422749 39.398639 98.872409
vn 5.219477 -0.016363 -3.496904
v -59.510741 47.463132 97.382738
vn 5.100598 0.043275 -3.667943
v -58.512311 42.787603 98.800077
vn 5.292577 -0.035873 -3.384971
v -60.185660 48.648985 96.344101
vn 5.384437 0.019507 -3.236718
v -62.159861 39.891184 93.271002
vn 5.396333 -0.051071 -3.217090
v -61.991117 44.600549 93.499531
# 47 vertices, 0 vertices normals

f 17//17 35//35 32//32
f 18//18 14//14 29//29
f 12//12 28//28 43//43
f 43//43 14//14 12//12
f 34//34 15//15 4//4
f 5//5 42//42 2//2
f 42//42 20//20 2//2
f 21//21 6//6 47//47
f 29//29 7//7 16//16
f 20//20 42//42 24//24
f 23//23 20//20 24//24
f 25//25 21//21 26//26
f 5//5 13//13 8//8
f 13//13 10//10 27//27
f 3//3 22//22 44//44
f 32//32 35//35 40//40
f 33//33 32//32 39//39
f 14//14 11//11 12//12
f 30//30 15//15 34//34
f 15//15 30//30 26//26
f 30//30 46//46 26//26
f 16//16 18//18 29//29
f 31//31 45//45 40//40
f 1//1 9//9 45//45
f 46//46 10//10 37//37
f 13//13 27//27 8//8
f 14//14 18//18 11//11
f 38//38 23//23 44//44
f 33//33 47//47 6//6
f 11//11 22//22 12//12
f 12//12 4//4 28//28
f 22//22 3//3 34//34
f 22//22 34//34 4//4
f 7//7 29//29 9//9
f 12//12 22//22 4//4
f 9//9 29//29 43//43
f 29//29 14//14 43//43
f 33//33 39//39 47//47
f 40//40 45//45 28//28
f 18//18 38//38 11//11
f 45//45 43//43 28//28
f 7//7 9//9 41//41
f 41//41 9//9 1//1
f 28//28 39//39 40//40
f 31//31 40//40 35//35
f 31//31 1//1 45//45
f 42//42 5//5 8//8
f 44//44 24//24 3//3
f 38//38 44//44 11//11
f 44//44 23//23 24//24
f 45//45 9//9 43//43
f 44//44 22//22 11//11
f 36//36 46//46 37//37
f 36//36 37//37 19//19
f 27//27 30//30 34//34
f 8//8 27//27 3//3
f 39//39 32//32 40//40
f 3//3 27//27 34//34
f 15//15 26//26 21//21
f 8//8 3//3 24//24
f 8//8 24//24 42//42
f 25//25 26//26 46//46
f 47//47 39//39 4//4
f 4//4 15//15 47//47
f 25//25 46//46 36//36
f 47//47 15//15 21//21
f 4//4 39//39 28//28
f 10//10 46//46 30//30
f 10//10 30//30 27//27
# 69 faces, 0 coords texture

# End of File
