####
#
# OBJ File Generated by Meshlab
#
####
# Object 1930.obj
#
# Vertices: 44
# Faces: 64
#
####
vn 2.789342 -0.056065 -1.423007
v -62.320300 -47.758200 92.000000
vn 5.359994 -0.082248 -3.276048
v -58.509181 -44.715877 98.838266
vn 2.646188 -0.035603 -1.672043
v -57.763400 -44.260750 100.000000
vn 1.396013 -0.002249 -0.724545
v -62.199200 -38.000000 92.000000
vn 2.787652 -0.019650 -1.448471
v -61.149000 -50.000000 94.306900
vn 1.394564 -0.007013 -0.714711
v -62.338600 -50.000000 92.000000
vn 2.809492 -0.055754 -1.418573
v -62.269500 -46.024350 92.000000
vn 2.810448 -0.035764 -1.411263
v -62.233200 -43.674850 91.999900
vn 2.748362 -0.009697 -1.521146
v -60.612300 -38.000000 95.021750
vn 2.728849 -0.070883 -1.550776
v -59.784650 -50.000000 96.884550
vn 2.673031 -0.053434 -1.646870
v -57.819450 -46.800100 100.000000
vn 5.462880 -0.122793 -3.100313
v -59.818827 -48.289547 96.737805
vn 1.351088 -0.030178 -0.823219
v -57.895900 -50.000000 100.000000
vn 1.311261 -0.041439 -0.824744
v -57.591300 -38.000000 100.000000
vn 5.376350 -0.116817 -3.249301
v -58.834325 -48.435869 98.407862
vn 5.519829 -0.113843 -2.999157
v -60.661663 -44.483158 95.057783
vn 2.679423 -0.092137 -1.643599
v -57.693450 -40.590850 100.000000
vn 2.786967 -0.015188 -1.452179
v -62.209619 -40.341060 92.000000
vn 5.411941 -0.111253 -3.188845
v -59.197757 -45.996773 97.727117
vn 5.585690 -0.079310 -2.875127
v -61.727944 -48.042448 93.172320
vn 5.514532 -0.105451 -3.009474
v -60.714225 -42.679747 94.891409
vn 5.589013 -0.087767 -2.868547
v -61.593435 -44.486909 93.304758
vn 2.702962 -0.042334 -1.600803
v -59.747100 -38.000000 96.505000
vn 2.685664 -0.056744 -1.660744
v -57.761300 -42.620500 100.000000
vn 2.771519 -0.044746 -1.477975
v -60.571900 -50.000000 95.418100
vn 5.546398 -0.064015 -2.951176
v -61.213470 -41.147673 93.920998
vn 2.681538 -0.061750 -1.638163
v -57.867500 -48.728500 100.000000
vn 2.779283 0.010000 -1.464229
v -61.313300 -38.000000 93.718800
vn 5.555373 -0.009425 -2.935103
v -61.323821 -39.228050 93.690443
vn 2.672872 -0.055565 -1.650299
v -58.523941 -38.000000 98.538394
vn 5.468887 -0.102431 -3.091312
v -59.710912 -44.032031 96.757588
vn 2.794423 -0.031982 -1.435947
v -62.220800 -42.028600 91.999900
vn 2.684489 -0.054781 -1.630844
v -58.712850 -50.000000 98.659200
vn 5.485979 -0.085917 -3.061315
v -60.082026 -41.008327 95.988651
vn 5.462595 -0.034009 -3.101586
v -60.227520 -39.565834 95.727272
vn 5.494335 -0.122030 -3.044985
v -60.162659 -46.308769 96.043818
vn 5.537750 -0.088988 -2.966107
v -60.780182 -48.099375 94.981903
vn 5.355546 -0.157856 -3.281740
v -58.401078 -39.516154 98.788711
vn 5.382815 -0.109526 -3.234907
v -58.658649 -42.942642 98.564747
vn 5.378352 -0.181850 -3.243072
v -58.613268 -41.255482 98.529604
vn 5.566074 -0.111357 -2.911971
v -61.269249 -46.239483 93.990139
vn 5.460066 -0.132752 -3.104159
v -59.594439 -41.821431 96.904895
vn 5.399926 -0.111577 -3.210212
v -59.248299 -39.455929 97.377407
vn 5.566933 -0.089852 -2.910581
v -61.414339 -43.217226 93.616616
# 44 vertices, 0 vertices normals

f 11//11 19//19 2//2
f 13//13 33//33 27//27
f 41//41 16//16 36//36
f 36//36 19//19 12//12
f 17//17 24//24 40//40
f 24//24 3//3 39//39
f 4//4 29//29 18//18
f 3//3 11//11 2//2
f 6//6 1//1 20//20
f 18//18 29//29 26//26
f 31//31 2//2 19//19
f 39//39 3//3 2//2
f 1//1 7//7 20//20
f 12//12 25//25 37//37
f 25//25 5//5 37//37
f 32//32 26//26 44//44
f 44//44 26//26 21//21
f 4//4 28//28 29//29
f 28//28 9//9 29//29
f 30//30 14//14 38//38
f 14//14 17//17 38//38
f 8//8 32//32 44//44
f 32//32 18//18 26//26
f 35//35 34//34 26//26
f 29//29 35//35 26//26
f 33//33 15//15 27//27
f 31//31 36//36 16//16
f 29//29 9//9 35//35
f 19//19 11//11 15//15
f 37//37 41//41 36//36
f 12//12 19//19 15//15
f 10//10 25//25 12//12
f 36//36 12//12 37//37
f 20//20 7//7 41//41
f 42//42 39//39 31//31
f 38//38 40//40 43//43
f 38//38 17//17 40//40
f 27//27 15//15 11//11
f 7//7 22//22 41//41
f 30//30 38//38 43//43
f 8//8 44//44 22//22
f 43//43 34//34 35//35
f 5//5 20//20 37//37
f 9//9 23//23 35//35
f 16//16 44//44 21//21
f 22//22 7//7 8//8
f 41//41 22//22 16//16
f 6//6 20//20 5//5
f 39//39 42//42 40//40
f 31//31 39//39 2//2
f 20//20 41//41 37//37
f 15//15 33//33 10//10
f 12//12 15//15 10//10
f 26//26 34//34 21//21
f 40//40 24//24 39//39
f 43//43 40//40 42//42
f 34//34 42//42 21//21
f 16//16 21//21 31//31
f 42//42 31//31 21//21
f 30//30 43//43 23//23
f 43//43 42//42 34//34
f 19//19 36//36 31//31
f 43//43 35//35 23//23
f 22//22 44//44 16//16
# 64 faces, 0 coords texture

# End of File
