####
#
# OBJ File Generated by Meshlab
#
####
# Object 1952S.obj
#
# Vertices: 61
# Faces: 95
#
####
vn 5.289381 0.049780 -3.390886
v -77.632029 -27.622387 70.589656
vn 5.255598 0.033547 -3.443149
v -77.657700 -35.247109 70.489374
vn 5.289808 0.071756 -3.389754
v -76.610534 -27.130904 72.202592
vn 5.275564 0.083532 -3.411715
v -74.396503 -29.816830 75.561920
vn 5.245991 0.049467 -3.457593
v -75.898711 -33.796019 73.183385
vn 5.249362 0.037529 -3.452701
v -78.024266 -37.160500 69.905341
vn 5.247555 0.015494 -3.455601
v -78.551668 -38.965649 69.087029
vn 2.507973 0.009271 -1.662460
v -76.881900 -40.012500 71.606700
vn 2.347119 -0.008550 -1.519219
v -81.328200 -37.017300 64.835850
vn 2.588710 0.017770 -1.711469
v -76.378700 -39.000600 72.378600
vn 2.638291 0.013599 -1.702791
v -79.369600 -29.657900 67.872550
vn 2.292154 0.015626 -1.475260
v -78.775900 -27.627300 68.810500
vn 2.245226 0.023480 -1.428320
v -77.362700 -25.560200 71.042700
vn 2.555310 -0.003352 -1.640555
v -80.599650 -33.447300 65.952350
vn 2.334910 0.034142 -1.505518
v -74.023450 -27.857000 76.187500
vn 2.432892 -0.002986 -1.571899
v -81.075400 -35.125400 65.215500
vn 2.712126 0.003515 -1.753125
v -79.950950 -31.644000 66.960150
vn 2.446945 0.041271 -1.575933
v -73.785600 -29.452800 76.520000
vn 2.251821 0.034216 -1.448940
v -76.104000 -25.095600 73.040900
vn 2.253263 0.033855 -1.463289
v -75.085300 -25.607600 74.592400
vn 2.441765 0.034475 -1.579637
v -74.600000 -26.384000 75.324600
vn 2.367897 -0.004817 -1.530464
v -81.233800 -38.656500 64.988700
vn 2.313982 -0.003000 -1.531062
v -77.607800 -41.112750 70.519300
vn 2.068961 0.001716 -1.363310
v -78.950550 -41.957400 68.476100
vn 5.241457 0.027461 -3.464777
v -77.410035 -38.790214 70.819450
vn 2.276395 -0.000932 -1.481051
v -80.948100 -39.804750 65.433200
vn 5.272898 -0.002318 -3.416837
v -80.014722 -35.952914 66.856623
vn 2.689225 0.024233 -1.781818
v -75.731550 -37.596250 73.369900
vn 5.272870 0.004490 -3.416898
v -79.238899 -34.278773 68.060595
vn 5.251694 0.005518 -3.449331
v -79.688900 -39.452356 67.362307
vn 5.265833 0.018206 -3.427637
v -78.728678 -35.703552 68.844710
vn 5.268943 0.005307 -3.422945
v -78.394802 -34.060475 69.362032
vn 5.273608 0.003866 -3.415761
v -79.182608 -32.475835 68.146499
vn 5.279722 0.058514 -3.405776
v -77.041032 -29.135809 71.486728
vn 5.279723 0.034393 -3.406133
v -78.195509 -29.358334 69.696282
vn 5.272096 0.072353 -3.417333
v -75.328778 -30.410085 74.110067
vn 5.279349 0.001035 -3.406847
v -80.050799 -33.808090 66.807972
vn 5.260706 0.054242 -3.435143
v -75.680976 -32.263930 73.532435
vn 5.249554 0.043559 -3.452253
v -76.646857 -34.551932 72.036612
vn 2.455394 0.044851 -1.612231
v -74.035650 -33.190800 76.020500
vn 5.276037 0.076322 -3.411161
v -75.965048 -28.809208 73.161665
vn 5.246179 0.005749 -3.457724
v -79.021561 -40.489928 68.369682
vn 5.265773 0.016212 -3.427779
v -77.596742 -33.169084 70.592199
vn 5.245084 0.002742 -3.459377
v -78.064465 -40.304953 69.827532
vn 5.271246 0.031864 -3.419251
v -77.529915 -31.108245 70.706849
vn 5.242568 0.048003 -3.462876
v -76.786964 -36.881499 71.783632
vn 5.257310 0.010803 -3.440748
v -79.237749 -37.573940 68.053465
vn 2.659813 0.027121 -1.708722
v -78.002850 -26.518650 70.029950
vn 2.407356 0.043836 -1.562262
v -73.750000 -30.919200 76.531450
vn 5.267234 -0.008396 -3.425496
v -80.425519 -38.102753 66.237511
vn 5.262580 0.085654 -3.431643
v -74.694405 -31.736533 75.057229
vn 5.260790 0.028478 -3.435356
v -76.645161 -32.568263 72.053878
vn 2.454924 0.036861 -1.625487
v -74.511650 -35.040650 75.249150
vn 2.505357 0.029674 -1.666521
v -75.061900 -36.371000 74.394400
vn 2.305339 -0.000243 -1.515887
v -80.006529 -41.299050 66.879172
vn 5.236716 0.063796 -3.471472
v -75.662408 -35.455759 73.507925
vn 5.271930 0.081902 -3.417372
v -75.551636 -26.857589 73.845387
vn 5.276225 0.021436 -3.411647
v -78.831233 -31.302798 68.693423
vn 5.275360 0.077170 -3.412187
v -74.970762 -28.440995 74.706097
vn 5.244178 0.074629 -3.459953
v -75.058394 -33.742472 74.453414
vn 5.270078 0.052409 -3.420749
v -76.423854 -30.796087 72.409945
# 61 vertices, 0 vertices normals

f 49//49 4//4 18//18
f 3//3 19//19 57//57
f 44//44 23//23 24//24
f 41//41 36//36 61//61
f 47//47 31//31 6//6
f 60//60 5//5 38//38
f 5//5 60//60 56//56
f 47//47 50//50 27//27
f 44//44 25//25 8//8
f 44//44 8//8 23//23
f 26//26 22//22 50//50
f 9//9 27//27 50//50
f 28//28 10//10 46//46
f 35//35 11//11 12//12
f 32//32 31//31 29//29
f 34//34 35//35 1//1
f 36//36 51//51 38//38
f 25//25 6//6 46//46
f 40//40 60//60 51//51
f 60//60 40//40 53//53
f 4//4 15//15 18//18
f 7//7 6//6 25//25
f 21//21 57//57 20//20
f 3//3 57//57 41//41
f 44//44 7//7 25//25
f 3//3 13//13 19//19
f 42//42 30//30 7//7
f 27//27 9//9 16//16
f 43//43 2//2 32//32
f 58//58 43//43 33//33
f 45//45 61//61 52//52
f 42//42 44//44 24//24
f 7//7 44//44 42//42
f 30//30 47//47 7//7
f 2//2 31//31 32//32
f 34//34 41//41 61//61
f 35//35 34//34 45//45
f 52//52 43//43 45//45
f 17//17 33//33 37//37
f 37//37 14//14 17//17
f 6//6 2//2 46//46
f 2//2 6//6 31//31
f 1//1 48//48 13//13
f 3//3 1//1 13//13
f 49//49 40//40 51//51
f 59//59 57//57 21//21
f 15//15 59//59 21//21
f 41//41 57//57 59//59
f 19//19 20//20 57//57
f 2//2 39//39 46//46
f 10//10 25//25 46//46
f 8//8 25//25 10//10
f 30//30 50//50 47//47
f 7//7 47//47 6//6
f 47//47 27//27 31//31
f 60//60 38//38 51//51
f 36//36 38//38 61//61
f 61//61 38//38 52//52
f 27//27 29//29 31//31
f 5//5 56//56 39//39
f 37//37 27//27 16//16
f 14//14 37//37 16//16
f 1//1 3//3 34//34
f 54//54 28//28 56//56
f 50//50 30//30 26//26
f 55//55 26//26 30//30
f 42//42 24//24 55//55
f 42//42 55//55 30//30
f 46//46 39//39 56//56
f 39//39 2//2 43//43
f 39//39 43//43 52//52
f 39//39 52//52 5//5
f 29//29 27//27 37//37
f 9//9 50//50 22//22
f 51//51 4//4 49//49
f 4//4 59//59 15//15
f 43//43 32//32 33//33
f 33//33 32//32 29//29
f 35//35 58//58 11//11
f 59//59 4//4 36//36
f 1//1 12//12 48//48
f 51//51 36//36 4//4
f 41//41 59//59 36//36
f 35//35 45//45 58//58
f 1//1 35//35 12//12
f 38//38 5//5 52//52
f 34//34 3//3 41//41
f 56//56 53//53 54//54
f 34//34 61//61 45//45
f 46//46 56//56 28//28
f 56//56 60//60 53//53
f 33//33 29//29 37//37
f 58//58 45//45 43//43
f 33//33 17//17 58//58
f 58//58 17//17 11//11
# 95 faces, 0 coords texture

# End of File
