####
#
# OBJ File Generated by Meshlab
#
####
# Object 1953S.obj
#
# Vertices: 24
# Faces: 33
#
####
vn 5.325799 0.091271 -3.332386
v -76.098037 9.923519 73.800321
vn 5.322367 0.066040 -3.338599
v -75.981937 5.994978 73.909185
vn 5.321684 0.068670 -3.339631
v -76.995743 6.684149 72.299650
vn 5.315724 0.080217 -3.348863
v -74.496215 7.532340 76.307332
vn 2.329603 0.036109 -1.469727
v -73.747900 6.492785 77.468200
vn 2.108980 0.030208 -1.332174
v -74.250300 4.254900 76.610500
vn 2.259149 0.032497 -1.430634
v -73.737100 8.017960 77.517100
vn 2.269894 0.035287 -1.433514
v -74.168100 9.671340 76.877000
vn 2.204113 0.028766 -1.379182
v -78.077800 9.113310 70.628300
vn 2.206151 0.028984 -1.378406
v -76.302450 2.847100 73.329300
vn 2.305698 0.029432 -1.451221
v -78.153500 5.661355 70.442100
vn 2.268825 0.052914 -1.417754
v -76.139100 11.375500 73.788800
vn 2.236868 0.031553 -1.400712
v -77.239900 10.746600 72.000800
vn 2.257941 0.027368 -1.426340
v -78.333300 6.980640 70.182700
vn 2.236211 0.040566 -1.399796
v -75.083100 11.026400 75.463100
vn 5.323042 0.072118 -3.337372
v -76.024466 7.992046 73.874658
vn 5.321251 0.073570 -3.340149
v -77.017689 8.798474 72.320953
vn 5.324850 0.073188 -3.334512
v -76.801951 4.783659 72.573869
vn 2.310158 0.023634 -1.451899
v -75.457300 2.996550 74.687800
vn 5.319910 0.071522 -3.342382
v -77.713208 7.526048 71.174791
vn 2.262845 0.036792 -1.415366
v -77.382642 3.815943 71.620323
vn 5.325450 0.085619 -3.333212
v -75.133144 8.988556 75.330069
vn 5.312809 0.081667 -3.353464
v -74.956031 5.418127 75.521655
vn 5.317747 0.064990 -3.345981
v -75.710903 4.468715 74.308249
# 24 vertices, 0 vertices normals

f 17//17 9//9 13//13
f 1//1 13//13 12//12
f 22//22 1//1 15//15
f 20//20 14//14 9//9
f 1//1 22//22 16//16
f 4//4 16//16 22//22
f 8//8 22//22 15//15
f 4//4 7//7 5//5
f 4//4 22//22 8//8
f 4//4 23//23 2//2
f 9//9 17//17 20//20
f 1//1 17//17 13//13
f 12//12 15//15 1//1
f 16//16 17//17 1//1
f 3//3 17//17 16//16
f 17//17 3//3 20//20
f 2//2 16//16 4//4
f 21//21 18//18 10//10
f 8//8 7//7 4//4
f 3//3 16//16 2//2
f 21//21 11//11 18//18
f 20//20 3//3 11//11
f 14//14 20//20 11//11
f 23//23 5//5 6//6
f 11//11 3//3 18//18
f 23//23 24//24 2//2
f 5//5 23//23 4//4
f 6//6 19//19 24//24
f 2//2 18//18 3//3
f 10//10 24//24 19//19
f 24//24 10//10 18//18
f 2//2 24//24 18//18
f 23//23 6//6 24//24
# 33 faces, 0 coords texture

# End of File
