####
#
# OBJ File Generated by Meshlab
#
####
# Object 2009.obj
#
# Vertices: 50
# Faces: 73
#
####
vn 5.412797 0.035675 -3.190403
v -90.711676 -48.537151 52.530604
vn 5.411818 0.053611 -3.191803
v -91.088596 -44.789494 51.942988
vn 2.701374 0.025657 -1.608758
v -91.713000 -39.602650 51.005400
vn 5.415254 0.070295 -3.185606
v -91.064227 -41.238319 52.065747
vn 2.705518 0.044349 -1.601839
v -91.701200 -41.411500 50.985100
vn 5.464752 0.077875 -3.099566
v -88.951850 -42.120947 55.711214
vn 2.756512 0.056630 -1.504178
v -87.481800 -50.000000 58.057100
vn 2.750433 -0.003926 -1.517844
v -88.192100 -38.000000 57.079300
vn 2.753895 0.052137 -1.512277
v -87.063650 -46.197800 58.952650
vn 5.475435 0.103555 -3.079713
v -88.421479 -45.696737 56.505920
vn 2.747266 0.047334 -1.519326
v -87.092800 -43.177650 59.003150
vn 2.705820 0.027749 -1.599622
v -91.663425 -48.419550 50.919700
vn 1.378174 0.009956 -0.745506
v -87.123100 -38.000000 59.055500
vn 1.391456 0.023578 -0.742054
v -87.035400 -50.000000 58.903600
vn 2.702020 0.023494 -1.605413
v -91.673800 -46.226800 50.937500
vn 2.723841 0.040952 -1.564251
v -88.466960 -50.000000 56.315550
vn 1.348907 0.013704 -0.792087
v -91.653200 -50.000000 50.901900
vn 1.352256 0.010295 -0.806349
v -91.719000 -38.000000 51.015800
vn 5.423668 0.076454 -3.171075
v -90.094825 -45.048292 53.626931
vn 5.446201 0.095288 -3.131767
v -89.686534 -43.171103 54.386152
vn 5.413862 0.044324 -3.188429
v -89.955434 -47.121441 53.823332
vn 5.414026 0.040632 -3.188083
v -90.742385 -39.487219 52.633855
vn 2.707987 0.020893 -1.592510
v -90.547700 -38.000000 52.987300
vn 2.748623 0.032804 -1.515362
v -87.109050 -41.083400 59.031250
vn 5.435175 0.073018 -3.151052
v -89.246834 -46.341611 55.042951
vn 5.417077 0.054290 -3.182819
v -89.495728 -48.700029 54.588331
vn 5.492096 0.043217 -3.051683
v -87.960372 -40.869113 57.489293
vn 5.491138 0.093496 -3.052318
v -87.804991 -42.720578 57.729597
vn 5.440498 0.051417 -3.142632
v -89.989285 -41.180731 53.912740
vn 2.760204 0.007858 -1.500266
v -87.657600 -38.000000 58.067400
vn 5.504547 0.088494 -3.027907
v -87.533977 -48.771685 58.007725
vn 5.406937 0.047155 -3.200146
v -90.885340 -46.668181 52.255588
vn 2.750625 0.053486 -1.516313
v -87.079900 -44.533400 58.980800
vn 5.426874 0.078843 -3.165526
v -90.570554 -43.068554 52.858866
vn 2.703265 0.037703 -1.591314
v -91.686800 -42.939600 50.960200
vn 5.500781 0.100941 -3.034679
v -87.709230 -46.984160 57.749164
vn 2.760610 0.045244 -1.505827
v -87.047300 -47.997600 58.924200
vn 5.501871 0.111364 -3.032388
v -87.689046 -45.079376 57.854647
vn 2.707850 0.019363 -1.592787
v -90.620696 -50.000000 52.671127
vn 2.699328 0.022615 -1.607115
v -91.300100 -38.000000 51.718300
vn 2.705667 0.038564 -1.595821
v -89.401900 -50.000000 54.716000
vn 5.431931 0.018024 -3.157836
v -89.861672 -39.329573 54.146829
vn 5.482037 0.123063 -3.067414
v -88.315457 -43.713063 56.770837
vn 2.724644 0.001574 -1.563727
v -89.294999 -38.000000 55.121223
vn 2.755782 0.017773 -1.505276
v -87.118500 -39.228300 59.047600
vn 2.703683 0.022277 -1.596486
v -91.678800 -44.579100 50.946400
vn 5.462233 0.012130 -3.105069
v -89.049717 -40.103775 55.553299
vn 5.494837 0.009442 -3.046948
v -88.209012 -39.220686 57.051812
vn 5.464487 0.076269 -3.099741
v -88.319081 -47.805270 56.625944
vn 5.451174 0.112591 -3.122428
v -89.084173 -44.023032 55.403068
# 50 vertices, 0 vertices normals

f 7//7 31//31 14//14
f 12//12 32//32 1//1
f 36//36 37//37 31//31
f 39//39 17//17 1//1
f 23//23 22//22 40//40
f 25//25 50//50 10//10
f 29//29 4//4 22//22
f 43//43 38//38 10//10
f 19//19 21//21 32//32
f 44//44 42//42 23//23
f 16//16 49//49 31//31
f 28//28 24//24 11//11
f 19//19 50//50 25//25
f 5//5 3//3 4//4
f 24//24 28//28 27//27
f 8//8 30//30 48//48
f 30//30 13//13 45//45
f 2//2 32//32 15//15
f 38//38 33//33 9//9
f 35//35 5//5 4//4
f 12//12 15//15 32//32
f 49//49 36//36 31//31
f 36//36 9//9 37//37
f 31//31 37//37 14//14
f 31//31 7//7 16//16
f 6//6 20//20 29//29
f 20//20 34//34 29//29
f 17//17 12//12 1//1
f 3//3 18//18 40//40
f 40//40 22//22 3//3
f 16//16 41//41 26//26
f 41//41 39//39 26//26
f 34//34 20//20 19//19
f 6//6 47//47 27//27
f 20//20 6//6 50//50
f 27//27 28//28 6//6
f 4//4 29//29 34//34
f 42//42 29//29 22//22
f 50//50 43//43 10//10
f 43//43 28//28 33//33
f 10//10 38//38 36//36
f 2//2 19//19 32//32
f 32//32 21//21 1//1
f 35//35 2//2 46//46
f 46//46 2//2 15//15
f 10//10 49//49 25//25
f 34//34 19//19 2//2
f 48//48 30//30 45//45
f 35//35 34//34 2//2
f 35//35 4//4 34//34
f 33//33 28//28 11//11
f 38//38 43//43 33//33
f 25//25 26//26 21//21
f 3//3 22//22 4//4
f 27//27 47//47 48//48
f 16//16 26//26 49//49
f 22//22 23//23 42//42
f 47//47 42//42 44//44
f 38//38 9//9 36//36
f 20//20 50//50 19//19
f 29//29 42//42 47//47
f 48//48 45//45 27//27
f 47//47 44//44 48//48
f 29//29 47//47 6//6
f 48//48 44//44 8//8
f 27//27 45//45 24//24
f 36//36 49//49 10//10
f 19//19 25//25 21//21
f 28//28 43//43 6//6
f 26//26 25//25 49//49
f 26//26 39//39 1//1
f 50//50 6//6 43//43
f 21//21 26//26 1//1
# 73 faces, 0 coords texture

# End of File
