####
#
# OBJ File Generated by Meshlab
#
####
# Object 2013.obj
#
# Vertices: 46
# Faces: 68
#
####
vn -2.696870 0.026579 -1.607427
v 92.379350 -45.155225 52.159600
vn -5.444361 0.044726 -3.135672
v 90.345654 -42.864740 55.617688
vn -2.717264 0.043412 -1.575524
v 91.281024 -50.000000 53.884876
vn -5.511976 0.028787 -3.015612
v 88.924693 -44.810962 58.139714
vn -2.700347 0.030713 -1.605263
v 91.416200 -38.000000 53.863400
vn -1.342771 0.012357 -0.822131
v 92.417000 -38.000000 52.224900
vn -1.380762 0.014169 -0.738753
v 87.845300 -38.000000 60.306500
vn -1.374238 0.021660 -0.776894
v 87.757900 -50.000000 60.155100
vn -2.761733 0.030759 -1.492120
v 87.798050 -45.066450 60.224550
vn -2.704798 0.052882 -1.607639
v 92.357050 -48.399326 52.121076
vn -1.343743 0.038147 -0.785147
v 92.334500 -50.000000 52.081900
vn -2.749556 0.035258 -1.519077
v 87.779950 -47.293350 60.193150
vn -5.388052 0.050081 -3.231801
v 91.726509 -44.171009 53.268262
vn -5.460893 0.056489 -3.106894
v 90.695662 -48.502370 54.943615
vn -5.508133 0.081257 -3.021627
v 89.479761 -39.489795 57.234725
vn -5.449570 0.038390 -3.126651
v 90.548125 -46.615073 55.229281
vn -2.738201 0.024768 -1.539812
v 90.342500 -50.000000 55.546000
vn -5.483767 0.045949 -3.066683
v 89.845832 -48.245147 56.460724
vn -2.771310 0.041492 -1.481324
v 87.819250 -41.892350 60.261200
vn -5.529475 0.081381 -2.982626
v 88.883501 -41.357297 58.286264
vn -5.482900 0.069620 -3.067161
v 89.859407 -41.105122 56.504020
vn -2.687337 0.025218 -1.630131
v 92.396350 -42.642450 52.189000
vn -2.768574 0.033169 -1.475828
v 87.837950 -39.638050 60.293700
vn -5.504160 0.041336 -3.029828
v 88.544967 -46.446327 58.816928
vn -2.677930 0.024964 -1.644607
v 92.408070 -40.317303 52.209359
vn -5.394176 0.039870 -3.221634
v 91.323620 -42.736854 53.959712
vn -2.762557 0.036300 -1.495692
v 88.979600 -38.000000 58.193000
vn -2.739697 0.033777 -1.537143
v 88.374700 -50.000000 59.064050
vn -5.411106 0.085668 -3.191940
v 91.470157 -47.696839 53.621325
vn -2.771463 0.034774 -1.482281
v 87.806600 -43.603000 60.239400
vn -5.400896 0.058203 -3.210043
v 91.578749 -45.850363 53.497834
vn -5.375513 0.040790 -3.252472
v 91.685165 -41.229168 53.370960
vn -2.739047 0.044276 -1.538245
v 90.111133 -38.000000 56.137582
vn -5.450126 0.073466 -3.124944
v 90.546011 -39.476595 55.329073
vn -2.700340 0.041297 -1.612288
v 92.372100 -46.672600 52.147000
vn -5.415346 0.034046 -3.185653
v 90.886179 -44.546197 54.667839
vn -5.423208 0.047609 -3.172089
v 90.848037 -41.132674 54.777769
vn -2.742730 0.027697 -1.531738
v 89.429450 -50.000000 57.176650
vn -2.739745 0.039239 -1.537624
v 87.766200 -48.964100 60.169300
vn -5.472657 0.017377 -3.086194
v 89.916329 -44.735656 56.348657
vn -5.384440 0.048468 -3.237381
v 91.550724 -39.621933 53.615393
vn -5.488077 0.052217 -3.058825
v 88.701738 -48.194669 58.516581
vn -5.500726 0.053781 -3.035326
v 89.424541 -42.940881 57.247364
vn -5.488421 0.017535 -3.058594
v 89.405543 -46.552460 57.271926
vn -5.538416 0.074623 -2.966254
v 88.457592 -39.820662 59.127180
vn -5.533757 0.064488 -2.975104
v 88.456211 -43.306850 59.031752
# 46 vertices, 0 vertices normals

f 17//17 38//38 18//18
f 15//15 45//45 27//27
f 10//10 11//11 3//3
f 3//3 29//29 10//10
f 35//35 29//29 31//31
f 38//38 42//42 18//18
f 34//34 21//21 15//15
f 2//2 36//36 40//40
f 12//12 9//9 24//24
f 19//19 23//23 45//45
f 22//22 1//1 13//13
f 5//5 6//6 41//41
f 25//25 41//41 6//6
f 23//23 7//7 45//45
f 25//25 22//22 32//32
f 19//19 45//45 20//20
f 33//33 15//15 27//27
f 27//27 45//45 7//7
f 28//28 8//8 39//39
f 15//15 21//21 20//20
f 21//21 37//37 2//2
f 2//2 43//43 21//21
f 9//9 4//4 24//24
f 9//9 30//30 46//46
f 30//30 19//19 46//46
f 1//1 31//31 13//13
f 41//41 32//32 37//37
f 33//33 5//5 34//34
f 1//1 35//35 31//31
f 35//35 10//10 29//29
f 2//2 40//40 43//43
f 31//31 16//16 36//36
f 36//36 13//13 31//31
f 45//45 15//15 20//20
f 34//34 5//5 41//41
f 21//21 34//34 37//37
f 31//31 29//29 16//16
f 4//4 40//40 44//44
f 34//34 41//41 37//37
f 33//33 34//34 15//15
f 29//29 3//3 14//14
f 42//42 28//28 39//39
f 44//44 40//40 16//16
f 16//16 40//40 36//36
f 14//14 18//18 16//16
f 40//40 4//4 43//43
f 17//17 18//18 14//14
f 26//26 13//13 36//36
f 26//26 36//36 2//2
f 37//37 26//26 2//2
f 25//25 32//32 41//41
f 32//32 26//26 37//37
f 28//28 42//42 38//38
f 12//12 24//24 42//42
f 17//17 14//14 3//3
f 16//16 29//29 14//14
f 19//19 20//20 46//46
f 9//9 46//46 4//4
f 22//22 13//13 26//26
f 32//32 22//22 26//26
f 42//42 24//24 44//44
f 43//43 4//4 46//46
f 18//18 44//44 16//16
f 12//12 42//42 39//39
f 42//42 44//44 18//18
f 4//4 44//44 24//24
f 20//20 21//21 43//43
f 46//46 20//20 43//43
# 68 faces, 0 coords texture

# End of File
