####
#
# OBJ File Generated by Meshlab
#
####
# Object 2039.obj
#
# Vertices: 48
# Faces: 71
#
####
vn -1.378380 -0.020512 -0.738260
v 68.372600 38.000000 92.000000
vn -2.633167 -0.068106 -1.711055
v 63.607550 42.462050 100.000000
vn -1.326566 -0.002379 -0.839409
v 63.578900 50.000000 100.000000
vn -2.657810 -0.018295 -1.674933
v 64.290100 50.000000 98.876050
vn -5.384457 -0.128688 -3.233947
v 65.441885 40.993328 97.184077
vn -2.761520 -0.036847 -1.497017
v 67.722650 38.000000 93.213500
vn -2.771690 -0.059627 -1.488826
v 68.219900 48.964150 92.000000
vn -1.320447 -0.014582 -0.872088
v 63.694300 38.000000 100.000000
vn -2.665330 -0.005074 -1.662096
v 64.756321 38.000000 98.360732
vn -1.394620 -0.026119 -0.741243
v 68.200500 50.000000 92.000000
vn -2.607051 -0.054529 -1.748013
v 63.646132 40.241350 99.999988
vn -5.438656 -0.064706 -3.144098
v 66.670390 45.816316 94.959069
vn -5.409694 -0.023676 -3.195011
v 65.681917 48.544730 96.606524
vn -5.312964 -0.000209 -3.354138
v 64.180436 45.683226 99.042357
vn -5.294564 -0.078735 -3.378206
v 64.601538 39.623022 98.599193
vn -5.309408 -0.109944 -3.357209
v 64.353839 43.629521 98.782008
vn -5.286845 -0.156580 -3.389214
v 64.475668 41.632495 98.717674
vn -2.772761 -0.026979 -1.488038
v 68.353750 39.266700 92.000000
vn -5.471045 -0.050563 -3.088048
v 67.104507 41.992707 94.288274
vn -2.655878 0.004685 -1.684429
v 63.582300 48.103850 100.000000
vn -5.457513 -0.063616 -3.111981
v 66.477667 40.489673 95.420470
vn -5.511621 -0.034835 -3.016379
v 67.409211 40.039889 93.744073
vn -2.718145 -0.018847 -1.574376
v 66.052800 38.000000 96.200200
vn -2.768257 -0.047654 -1.484820
v 67.728500 50.000000 92.888050
vn -2.772641 -0.001283 -1.485367
v 68.347450 41.070250 92.000000
vn -2.744281 -0.034405 -1.528421
v 66.934000 38.000000 94.646400
vn -5.480719 -0.053402 -3.071820
v 66.768662 38.926179 94.922417
vn -2.641673 -0.003732 -1.688413
v 63.569150 45.601250 99.998950
vn -2.745369 -0.066716 -1.508375
v 68.327284 45.466768 92.001725
vn -5.490944 -0.061250 -3.051539
v 67.716336 43.589064 93.178093
vn -2.756730 -0.006269 -1.489394
v 68.356100 42.903500 92.000000
vn -5.523290 0.001316 -2.995221
v 67.887042 41.494960 92.859047
vn -5.354771 -0.149945 -3.283320
v 65.240010 42.992289 97.403326
vn -5.386413 -0.017755 -3.234800
v 65.740468 46.424124 96.509497
vn -5.510362 -0.109133 -3.016868
v 67.252681 48.012379 93.834114
vn -2.739722 -0.035988 -1.537037
v 66.475403 50.000000 95.203595
vn -5.485155 -0.117272 -3.061856
v 67.556508 45.524648 93.393686
vn -5.432368 -0.081388 -3.155967
v 66.864459 43.876869 94.647909
vn -5.413132 -0.122969 -3.187428
v 66.177309 42.318959 95.874092
vn -2.756830 -0.079435 -1.504273
v 68.269200 47.312900 92.000000
vn -2.650389 -0.027538 -1.677346
v 63.581400 43.991200 99.999300
vn -5.348729 -0.035186 -3.296475
v 65.055751 45.072820 97.639524
vn -2.694498 -0.011154 -1.614869
v 65.241150 50.000000 97.343900
vn -5.453750 -0.057767 -3.118609
v 66.402642 47.685558 95.378420
vn -5.345975 0.012163 -3.300826
v 64.772429 47.175592 98.109331
vn -5.388150 -0.072676 -3.231068
v 65.959860 44.349682 96.163660
vn -5.410218 -0.043627 -3.193284
v 65.697042 39.257168 96.797845
vn -5.331075 -0.009584 -3.324210
v 64.516737 48.898217 98.531743
# 48 vertices, 0 vertices normals

f 6//6 18//18 1//1
f 8//8 11//11 15//15
f 23//23 47//47 27//27
f 31//31 32//32 30//30
f 39//39 19//19 21//21
f 35//35 37//37 12//12
f 17//17 2//2 16//16
f 16//16 14//14 42//42
f 13//13 36//36 44//44
f 5//5 33//33 39//39
f 20//20 3//3 4//4
f 5//5 47//47 15//15
f 23//23 9//9 47//47
f 8//8 15//15 9//9
f 10//10 7//7 24//24
f 4//4 43//43 48//48
f 25//25 18//18 32//32
f 6//6 26//26 27//27
f 26//26 23//23 27//27
f 27//27 47//47 21//21
f 15//15 11//11 17//17
f 28//28 20//20 14//14
f 29//29 31//31 30//30
f 31//31 25//25 32//32
f 30//30 32//32 19//19
f 32//32 22//22 19//19
f 11//11 2//2 17//17
f 21//21 19//19 22//22
f 22//22 32//32 18//18
f 35//35 36//36 24//24
f 30//30 37//37 29//29
f 37//37 30//30 38//38
f 30//30 19//19 38//38
f 42//42 46//46 33//33
f 46//46 39//39 33//33
f 7//7 40//40 35//35
f 40//40 29//29 37//37
f 39//39 38//38 19//19
f 46//46 38//38 39//39
f 2//2 41//41 16//16
f 41//41 28//28 14//14
f 21//21 47//47 5//5
f 39//39 21//21 5//5
f 43//43 36//36 13//13
f 43//43 13//13 48//48
f 34//34 13//13 44//44
f 12//12 38//38 46//46
f 34//34 46//46 42//42
f 35//35 24//24 7//7
f 37//37 38//38 12//12
f 5//5 15//15 17//17
f 12//12 44//44 35//35
f 16//16 41//41 14//14
f 16//16 42//42 33//33
f 44//44 36//36 35//35
f 34//34 44//44 12//12
f 45//45 13//13 34//34
f 5//5 17//17 33//33
f 14//14 45//45 42//42
f 42//42 45//45 34//34
f 22//22 18//18 6//6
f 27//27 22//22 6//6
f 27//27 21//21 22//22
f 35//35 40//40 37//37
f 20//20 45//45 14//14
f 20//20 48//48 45//45
f 48//48 20//20 4//4
f 12//12 46//46 34//34
f 17//17 16//16 33//33
f 47//47 9//9 15//15
f 48//48 13//13 45//45
# 71 faces, 0 coords texture

# End of File
