####
#
# OBJ File Generated by Meshlab
#
####
# Object 2041.obj
#
# Vertices: 47
# Faces: 69
#
####
vn 5.702544 -0.068396 -2.635891
v -66.484111 -46.149784 93.450511
vn 5.627758 -0.124600 -2.790447
v -64.786745 -47.870386 97.050374
vn 5.617141 -0.041095 -2.814792
v -64.800339 -42.236698 96.865606
vn 2.808680 -0.049983 -1.405698
v -64.526200 -50.000000 97.651400
vn 5.641112 -0.085436 -2.765269
v -65.053428 -46.038401 96.424114
vn 2.850533 -0.063292 -1.319543
v -66.410100 -38.000000 93.429000
vn 2.793879 -0.093378 -1.447386
v -63.272600 -47.752300 100.000000
vn 1.406974 -0.029457 -0.723200
v -63.329200 -50.000000 100.000000
vn 2.820163 -0.037249 -1.383704
v -65.338800 -38.000000 95.712100
vn 1.430013 -0.016650 -0.638203
v -67.173000 -50.000000 92.000000
vn 2.865676 -0.026752 -1.286837
v -66.731350 -50.000000 92.989600
vn 5.708826 -0.033027 -2.622434
v -66.406759 -41.921311 93.554735
vn 2.756433 -0.108562 -1.502795
v -63.140900 -38.000000 99.850000
vn 2.756518 -0.098154 -1.502946
v -63.064800 -38.144200 100.000000
vn 1.368757 -0.044613 -0.737304
v -63.060100 -38.000000 100.000000
vn 1.438605 -0.025177 -0.641979
v -67.057200 -38.000000 92.000000
vn 2.836155 -0.040908 -1.349426
v -65.669237 -49.999908 95.315981
vn 2.773084 -0.060885 -1.492015
v -63.152644 -40.766857 100.000000
vn 2.871915 -0.015178 -1.269125
v -67.092950 -41.692000 92.000000
vn 2.880847 -0.028313 -1.266443
v -67.099100 -43.931900 92.000000
vn 2.865136 -0.032800 -1.280588
v -67.131500 -45.898300 92.000000
vn 5.658568 -0.056053 -2.729826
v -65.844745 -45.668582 94.759066
vn 2.778105 -0.072719 -1.465827
v -64.209270 -38.000000 97.897234
vn 5.651910 -0.037549 -2.744282
v -65.652394 -42.830202 95.148666
vn 5.593493 -0.078733 -2.859644
v -64.540961 -40.188772 97.354466
vn 5.656508 -0.112838 -2.732685
v -65.410193 -48.822714 95.808745
vn 5.586660 -0.146015 -2.871045
v -63.900057 -48.131978 98.813319
vn 5.667892 -0.075925 -2.710502
v -65.735847 -39.101609 94.900959
vn 2.755103 -0.101596 -1.506217
v -63.529400 -38.000000 99.139900
vn 5.531616 -0.153069 -2.975044
v -63.710972 -39.418067 98.902848
vn 5.567859 -0.066516 -2.909783
v -63.886377 -41.532903 98.652947
vn 5.643927 -0.034178 -2.760888
v -65.284274 -44.043013 95.913136
vn 5.602353 -0.051662 -2.843650
v -64.553641 -44.493064 97.396212
vn 5.649338 -0.047106 -2.749452
v -65.537994 -40.778438 95.351055
vn 5.683776 -0.027274 -2.676920
v -66.131120 -44.050839 94.167414
vn 2.766488 -0.016675 -1.480551
v -63.182600 -43.828700 100.000000
vn 5.567796 -0.032327 -2.911077
v -63.815158 -43.865768 98.818450
vn 2.869674 -0.030318 -1.280932
v -67.151350 -48.140500 92.000000
vn 2.872734 -0.024433 -1.266866
v -67.082600 -40.210500 92.000000
vn 2.778563 -0.025130 -1.480124
v -63.179600 -42.401900 100.000000
vn 5.739001 -0.045217 -2.557235
v -66.730787 -43.890101 92.836886
vn 2.768824 -0.060065 -1.453828
v -63.204700 -46.015150 100.000000
vn 5.663651 -0.118269 -2.717975
v -65.649205 -47.339727 95.235606
vn 5.617533 -0.075631 -2.812191
v -65.063607 -39.204902 96.293689
vn 5.703713 -0.075723 -2.632958
v -66.241752 -48.584126 94.050836
vn 5.703960 -0.078078 -2.630747
v -66.411800 -39.663352 93.511505
vn 5.581107 -0.125698 -2.883041
v -64.182637 -46.303825 98.159022
# 47 vertices, 0 vertices normals

f 4//4 2//2 27//27
f 15//15 14//14 13//13
f 4//4 26//26 2//2
f 39//39 46//46 12//12
f 35//35 12//12 24//24
f 2//2 43//43 5//5
f 44//44 25//25 34//34
f 1//1 43//43 45//45
f 28//28 34//34 46//46
f 8//8 27//27 7//7
f 6//6 9//9 28//28
f 8//8 4//4 27//27
f 25//25 44//44 23//23
f 23//23 29//29 30//30
f 29//29 13//13 14//14
f 46//46 16//16 6//6
f 17//17 11//11 45//45
f 14//14 18//18 30//30
f 41//41 19//19 12//12
f 2//2 5//5 47//47
f 12//12 35//35 41//41
f 41//41 35//35 1//1
f 36//36 42//42 37//37
f 22//22 1//1 35//35
f 32//32 35//35 24//24
f 33//33 5//5 32//32
f 32//32 5//5 22//22
f 38//38 21//21 1//1
f 4//4 17//17 26//26
f 19//19 39//39 12//12
f 39//39 16//16 46//46
f 18//18 40//40 31//31
f 40//40 36//36 37//37
f 9//9 23//23 44//44
f 41//41 20//20 19//19
f 30//30 18//18 31//31
f 14//14 30//30 29//29
f 47//47 42//42 27//27
f 47//47 27//27 2//2
f 41//41 21//21 20//20
f 35//35 32//32 22//22
f 24//24 12//12 34//34
f 45//45 38//38 1//1
f 24//24 3//3 32//32
f 46//46 34//34 12//12
f 30//30 31//31 25//25
f 25//25 31//31 3//3
f 2//2 26//26 43//43
f 5//5 43//43 22//22
f 34//34 28//28 44//44
f 28//28 9//9 44//44
f 34//34 25//25 3//3
f 17//17 45//45 26//26
f 1//1 22//22 43//43
f 45//45 43//43 26//26
f 42//42 47//47 33//33
f 33//33 47//47 5//5
f 37//37 33//33 3//3
f 23//23 30//30 25//25
f 40//40 37//37 31//31
f 11//11 38//38 45//45
f 10//10 38//38 11//11
f 1//1 21//21 41//41
f 6//6 28//28 46//46
f 42//42 7//7 27//27
f 37//37 42//42 33//33
f 37//37 3//3 31//31
f 3//3 24//24 34//34
f 32//32 3//3 33//33
# 69 faces, 0 coords texture

# End of File
