####
#
# OBJ File Generated by Meshlab
#
####
# Object 2045.obj
#
# Vertices: 49
# Faces: 73
#
####
vn -2.770878 0.020323 -1.477504
v 64.992300 -38.000000 98.045300
vn -2.772874 0.020180 -1.476001
v 63.872530 -49.061950 99.999990
vn -5.582497 0.036738 -2.882678
v 65.389277 -46.762247 97.164275
vn -2.772264 0.020232 -1.477715
v 64.396100 -50.000000 99.003100
vn -1.425230 0.000325 -0.662586
v 67.893300 -38.000000 92.000000
vn -2.846956 0.012023 -1.328136
v 67.150600 -38.000000 93.608200
vn -2.840818 0.023129 -1.340778
v 67.190265 -49.999977 93.514458
vn -1.384297 0.009186 -0.735681
v 63.866300 -50.000000 100.000000
vn -1.434252 0.012831 -0.651033
v 67.874900 -50.000000 92.000000
vn -2.739792 0.017822 -1.541937
v 63.872931 -41.153400 99.999989
vn -1.360587 -0.006518 -0.781975
v 63.872600 -38.000000 100.000000
vn -5.577083 0.016116 -2.893508
v 65.216977 -43.083534 97.525272
vn -5.651732 0.028600 -2.744608
v 66.246354 -39.472514 95.506727
vn -2.846923 -0.007554 -1.329862
v 67.898043 -40.106800 92.000055
vn -2.855072 0.023013 -1.309426
v 67.898700 -47.753200 92.000000
vn -2.725068 -0.003436 -1.542139
v 63.858300 -43.324500 100.000000
vn -5.525292 0.004438 -2.990197
v 64.558255 -44.372216 98.771416
vn -2.786040 0.010536 -1.451574
v 65.168600 -50.000000 97.557550
vn -5.489567 0.033526 -3.053904
v 64.475640 -39.604811 98.964125
vn -2.811093 0.022355 -1.402275
v 65.512000 -38.000000 97.012700
vn -5.594292 0.050329 -2.859294
v 65.360850 -39.770820 97.284478
vn -5.594160 0.027661 -2.860447
v 65.589816 -48.561810 96.744529
vn -5.541813 0.032223 -2.959891
v 64.865198 -41.354980 98.208626
vn -5.654214 -0.011553 -2.739896
v 66.811425 -44.179418 94.332284
vn -5.619922 0.017688 -2.809272
v 66.156609 -45.453702 95.666871
vn -2.845523 0.010424 -1.320482
v 67.915350 -45.989650 92.000000
vn -5.620684 0.005248 -2.807890
v 65.993911 -43.488246 95.996872
vn -5.640241 0.022232 -2.768499
v 66.146039 -41.008746 95.694779
vn -2.845896 -0.010061 -1.327366
v 67.911900 -43.486300 92.000000
vn -5.680667 -0.019501 -2.684607
v 67.326232 -42.836606 93.248032
vn -2.828750 0.015860 -1.366098
v 66.255850 -38.000000 95.505250
vn -2.846493 -0.012231 -1.330143
v 67.904000 -41.756100 92.000000
vn -5.580697 0.023554 -2.886429
v 65.312341 -44.908120 97.330571
vn -2.762974 -0.007160 -1.507388
v 63.885000 -45.205350 100.000000
vn -5.619706 0.034862 -2.809885
v 66.306775 -47.399126 95.340227
vn -5.667949 0.014220 -2.710043
v 67.139509 -46.298162 93.668686
vn -2.775722 0.009781 -1.480473
v 63.888200 -46.909100 100.000000
vn -5.547708 0.026564 -2.949590
v 64.562026 -46.168395 98.739916
vn -2.807018 0.013756 -1.410686
v 66.018500 -50.000000 95.888600
vn -5.624281 0.036910 -2.800676
v 66.416412 -48.862606 95.103069
vn -5.505935 0.011671 -3.025738
v 64.531045 -42.786538 98.822483
vn -2.721916 -0.002518 -1.573590
v 63.876500 -39.300800 100.000000
vn -5.651980 -0.006275 -2.744553
v 66.593950 -42.333368 94.773995
vn -5.674077 0.039518 -2.696328
v 67.160568 -48.387092 93.605491
vn -5.677603 -0.009785 -2.691123
v 67.050157 -40.969510 93.819541
vn -5.688204 0.004127 -2.668790
v 67.110938 -39.208865 93.682275
vn -5.555195 0.034349 -2.935378
v 64.672045 -48.153790 98.511759
vn -5.686424 -0.015690 -2.672407
v 67.461615 -44.662539 92.973441
vn -5.607872 0.021435 -2.833284
v 65.650164 -41.748956 96.688063
# 49 vertices, 0 vertices normals

f 2//2 4//4 8//8
f 20//20 13//13 21//21
f 3//3 22//22 47//47
f 39//39 22//22 40//40
f 22//22 3//3 35//35
f 25//25 24//24 36//36
f 13//13 28//28 21//21
f 45//45 32//32 30//30
f 18//18 47//47 22//22
f 2//2 47//47 4//4
f 5//5 46//46 6//6
f 46//46 5//5 14//14
f 18//18 4//4 47//47
f 44//44 9//9 7//7
f 11//11 1//1 19//19
f 19//19 1//1 21//21
f 1//1 20//20 21//21
f 20//20 31//31 13//13
f 3//3 25//25 35//35
f 44//44 15//15 9//9
f 12//12 49//49 27//27
f 49//49 43//43 27//27
f 24//24 48//48 36//36
f 31//31 6//6 46//46
f 14//14 32//32 45//45
f 32//32 29//29 30//30
f 3//3 38//38 33//33
f 34//34 16//16 17//17
f 25//25 3//3 33//33
f 16//16 10//10 41//41
f 23//23 41//41 10//10
f 38//38 34//34 17//17
f 44//44 40//40 35//35
f 37//37 38//38 47//47
f 7//7 39//39 40//40
f 39//39 18//18 22//22
f 40//40 22//22 35//35
f 35//35 25//25 36//36
f 33//33 38//38 17//17
f 38//38 37//37 34//34
f 17//17 16//16 41//41
f 25//25 33//33 27//27
f 27//27 33//33 12//12
f 24//24 25//25 27//27
f 24//24 27//27 43//43
f 41//41 12//12 17//17
f 17//17 12//12 33//33
f 45//45 46//46 14//14
f 12//12 41//41 23//23
f 11//11 19//19 42//42
f 42//42 19//19 10//10
f 10//10 19//19 23//23
f 28//28 49//49 21//21
f 21//21 23//23 19//19
f 13//13 31//31 46//46
f 43//43 30//30 24//24
f 36//36 26//26 15//15
f 29//29 26//26 48//48
f 40//40 44//44 7//7
f 15//15 44//44 36//36
f 13//13 45//45 28//28
f 37//37 47//47 2//2
f 13//13 46//46 45//45
f 3//3 47//47 38//38
f 44//44 35//35 36//36
f 48//48 26//26 36//36
f 29//29 48//48 30//30
f 30//30 48//48 24//24
f 45//45 30//30 43//43
f 28//28 45//45 43//43
f 49//49 28//28 43//43
f 23//23 49//49 12//12
f 49//49 23//23 21//21
# 73 faces, 0 coords texture

# End of File
