####
#
# OBJ File Generated by Meshlab
#
####
# Object 2047.obj
#
# Vertices: 51
# Faces: 74
#
####
vn -1.382446 -0.014929 -0.735808
v 69.174300 38.000000 92.000000
vn -2.642213 -0.064208 -1.707770
v 64.552100 41.066700 100.000000
vn -5.406102 -0.105687 -3.200012
v 66.104985 41.561161 97.472383
vn -1.326252 -0.016534 -0.829137
v 64.488600 50.000000 100.000000
vn -2.691852 0.015368 -1.646082
v 64.494700 49.510700 100.000000
vn -5.378571 -0.065934 -3.246775
v 66.017806 45.196772 97.509403
vn -2.642962 -0.065834 -1.684252
v 64.491150 43.266850 100.000000
vn -2.766654 -0.032416 -1.487695
v 68.414700 38.000000 93.429950
vn -2.642429 -0.061392 -1.692813
v 64.605000 38.185800 100.000000
vn -1.314828 -0.031137 -0.882775
v 64.609400 38.000000 100.000000
vn -2.644070 -0.107642 -1.690379
v 64.675600 38.000000 99.901400
vn -2.763540 -0.035700 -1.493868
v 67.875650 50.000000 94.136500
vn -1.393339 -0.022613 -0.741281
v 69.018500 50.000000 92.000000
vn -2.738592 -0.040018 -1.539101
v 66.773850 50.000000 96.147200
vn -2.764160 0.001318 -1.473795
v 69.161600 42.099500 92.000000
vn -5.494912 -0.045825 -3.046243
v 67.433362 39.683298 95.205546
vn -2.628504 -0.048529 -1.719502
v 64.585650 39.223500 100.000000
vn -5.534794 -0.046665 -2.973524
v 68.374536 39.357207 93.475069
vn -2.777706 -0.009500 -1.483203
v 69.151333 40.313426 92.000000
vn -2.679752 0.011644 -1.639381
v 64.895400 50.000000 99.349300
vn -2.666577 0.018749 -1.650852
v 64.470100 47.773750 100.000000
vn -5.369853 0.017772 -3.261989
v 65.448287 48.310534 98.426743
vn -2.780127 -0.048398 -1.459418
v 69.137300 43.921650 92.000000
vn -5.528922 -0.052857 -2.981843
v 68.513324 43.276773 93.216857
vn -2.764850 -0.064906 -1.480280
v 69.105050 45.919250 92.000000
vn -2.726064 -0.024373 -1.560677
v 66.718250 38.000000 96.504000
vn -2.768907 -0.037936 -1.483762
v 68.600600 50.000000 92.785500
vn -5.415393 -0.092051 -3.184832
v 66.587518 43.549313 96.584169
vn -5.466377 -0.066054 -3.096277
v 67.647167 43.529525 94.767598
vn -2.752453 -0.022785 -1.514027
v 67.592200 38.000000 94.940100
vn -2.650066 -0.018101 -1.667957
v 64.457775 45.350749 99.998547
vn -2.770288 -0.056591 -1.490355
v 69.051409 47.972260 92.000000
vn -5.349011 -0.123538 -3.292976
v 65.557378 43.335873 98.324928
vn -5.496791 -0.081533 -3.041501
v 67.428743 47.324994 95.042626
vn -5.442253 -0.067247 -3.139065
v 66.624448 40.026813 96.628173
vn -2.685251 -0.028325 -1.629281
v 65.522050 38.000000 98.546600
vn -2.700426 -0.003813 -1.605213
v 65.624900 50.000000 98.139200
vn -5.517336 -0.011860 -3.005999
v 68.199968 41.465138 93.779854
vn -5.450757 -0.081376 -3.123680
v 67.169066 45.418493 95.547274
vn -5.410660 -0.033714 -3.193289
v 66.379669 46.928720 96.883227
vn -5.342310 -0.006238 -3.307148
v 65.277400 46.443822 98.693454
vn -5.446319 -0.050854 -3.131357
v 66.569156 48.613188 96.542570
vn -5.316512 -0.083773 -3.347380
v 65.100806 44.771704 98.992307
vn -5.512907 -0.088504 -3.012864
v 67.432966 48.884614 94.980136
vn -5.400904 -0.076464 -3.209098
v 65.856661 39.595129 97.954701
vn -5.455922 -0.070926 -3.114421
v 67.080082 41.686709 95.804145
vn -5.312880 -0.081923 -3.351593
v 65.067273 39.477749 99.256596
vn -5.332245 -0.123587 -3.319311
v 65.249427 41.234616 98.912003
vn -5.531899 -0.097002 -2.977571
v 68.290997 48.350232 93.398380
vn -5.519239 -0.137296 -2.999435
v 68.228668 46.559948 93.594640
vn -5.507910 -0.130154 -3.019041
v 68.201326 45.020731 93.732113
# 51 vertices, 0 vertices normals

f 1//1 8//8 18//18
f 37//37 22//22 20//20
f 10//10 9//9 11//11
f 3//3 33//33 28//28
f 38//38 29//29 24//24
f 34//34 44//44 49//49
f 29//29 46//46 28//28
f 17//17 47//47 9//9
f 18//18 19//19 1//1
f 5//5 4//4 20//20
f 20//20 22//22 21//21
f 23//23 15//15 24//24
f 25//25 23//23 51//51
f 26//26 36//36 45//45
f 13//13 32//32 27//27
f 14//14 12//12 44//44
f 18//18 16//16 38//38
f 28//28 39//39 29//29
f 18//18 30//30 16//16
f 30//30 26//26 16//16
f 31//31 21//21 41//41
f 32//32 25//25 50//50
f 2//2 7//7 48//48
f 28//28 6//6 39//39
f 8//8 30//30 18//18
f 36//36 11//11 9//9
f 36//36 9//9 47//47
f 37//37 14//14 42//42
f 19//19 38//38 15//15
f 46//46 3//3 28//28
f 28//28 33//33 6//6
f 40//40 6//6 41//41
f 46//46 16//16 35//35
f 7//7 31//31 43//43
f 33//33 43//43 6//6
f 17//17 2//2 47//47
f 39//39 51//51 29//29
f 40//40 42//42 34//34
f 41//41 21//21 22//22
f 43//43 41//41 6//6
f 43//43 31//31 41//41
f 37//37 42//42 22//22
f 18//18 38//38 19//19
f 42//42 40//40 22//22
f 7//7 43//43 33//33
f 40//40 34//34 39//39
f 6//6 40//40 39//39
f 41//41 22//22 40//40
f 38//38 24//24 15//15
f 24//24 29//29 51//51
f 44//44 12//12 49//49
f 3//3 48//48 33//33
f 26//26 45//45 35//35
f 14//14 44//44 42//42
f 34//34 42//42 44//44
f 3//3 45//45 48//48
f 45//45 36//36 47//47
f 38//38 16//16 46//46
f 38//38 46//46 29//29
f 48//48 7//7 33//33
f 35//35 45//45 3//3
f 46//46 35//35 3//3
f 16//16 26//26 35//35
f 45//45 47//47 48//48
f 5//5 20//20 21//21
f 48//48 47//47 2//2
f 27//27 32//32 49//49
f 51//51 23//23 24//24
f 27//27 49//49 12//12
f 32//32 50//50 49//49
f 34//34 50//50 39//39
f 51//51 39//39 50//50
f 49//49 50//50 34//34
f 51//51 50//50 25//25
# 74 faces, 0 coords texture

# End of File
