####
#
# OBJ File Generated by Meshlab
#
####
# Object 2059S.obj
#
# Vertices: 24
# Faces: 33
#
####
vn -5.362480 0.028311 -3.274352
v 79.503648 10.572558 76.466028
vn -5.362779 0.028799 -3.273805
v 80.186202 8.973442 75.341215
vn -5.363134 0.028833 -3.273243
v 79.316302 8.561209 76.754480
vn -2.222686 0.007999 -1.351350
v 77.857750 13.656550 79.191400
vn -2.235275 0.015939 -1.353541
v 80.719800 7.681220 74.444800
vn -2.352223 0.012702 -1.436388
v 80.086600 6.517660 75.480350
vn -2.391594 0.014529 -1.460762
v 77.109800 12.550400 80.412700
vn -2.151900 0.011259 -1.340835
v 76.597500 8.934680 81.211000
vn -2.195811 0.009790 -1.335080
v 78.908500 5.621900 77.397800
vn -2.210771 0.007799 -1.362929
v 76.641250 11.186850 81.159700
vn -2.235487 0.009943 -1.366575
v 80.080900 13.174250 75.547050
vn -2.242098 0.012449 -1.358713
v 77.898800 6.003630 79.071100
vn -2.301872 0.009996 -1.403738
v 80.836870 11.284575 74.285296
vn -2.260743 0.010555 -1.377731
v 81.022000 9.637180 73.974900
vn -5.365022 0.020992 -3.270238
v 78.763337 12.093886 77.692213
vn -5.365883 0.016710 -3.268836
v 77.745938 11.534789 79.361099
vn -2.249907 0.004215 -1.374033
v 79.102000 13.939150 77.142400
vn -5.360429 0.024775 -3.277692
v 79.584040 12.251992 76.353257
vn -5.358661 0.019790 -3.280219
v 77.496249 9.454397 79.772966
vn -2.439116 0.015383 -1.493634
v 77.192435 7.185320 80.241506
vn -5.364542 0.025593 -3.270982
v 80.245433 11.016862 75.253236
vn -5.372682 0.020392 -3.257616
v 78.532048 10.087676 78.055961
vn -5.369320 0.031011 -3.263015
v 78.941258 7.018546 77.354164
vn -5.375551 0.031802 -3.252802
v 78.240368 8.050467 78.527797
# 24 vertices, 0 vertices normals

f 15//15 16//16 4//4
f 18//18 11//11 21//21
f 15//15 1//1 22//22
f 14//14 2//2 21//21
f 9//9 12//12 23//23
f 15//15 4//4 17//17
f 4//4 16//16 7//7
f 18//18 15//15 17//17
f 17//17 11//11 18//18
f 8//8 10//10 19//19
f 19//19 16//16 22//22
f 7//7 16//16 10//10
f 1//1 18//18 21//21
f 3//3 1//1 2//2
f 18//18 1//1 15//15
f 21//21 11//11 13//13
f 10//10 16//16 19//19
f 16//16 15//15 22//22
f 22//22 1//1 3//3
f 19//19 20//20 8//8
f 23//23 12//12 24//24
f 2//2 14//14 5//5
f 1//1 21//21 2//2
f 14//14 21//21 13//13
f 22//22 3//3 24//24
f 2//2 6//6 3//3
f 6//6 2//2 5//5
f 23//23 6//6 9//9
f 22//22 24//24 19//19
f 24//24 12//12 20//20
f 19//19 24//24 20//20
f 24//24 3//3 23//23
f 23//23 3//3 6//6
# 33 faces, 0 coords texture

# End of File
