####
#
# OBJ File Generated by Meshlab
#
####
# Object 2079.obj
#
# Vertices: 46
# Faces: 68
#
####
vn -2.770818 0.037080 -1.480277
v 90.400800 -38.000000 59.255500
vn -1.357874 0.016167 -0.777433
v 93.327800 -50.000000 53.802400
vn -2.728287 0.020799 -1.564682
v 93.338450 -48.215900 53.820900
vn -2.744487 0.035719 -1.528574
v 90.793738 -50.000000 58.288938
vn -2.737157 0.033254 -1.541214
v 91.829400 -50.000000 56.423200
vn -2.775009 0.043317 -1.474920
v 88.868200 -40.210100 62.078100
vn -1.361075 0.020711 -0.798680
v 93.389800 -38.000000 53.909900
vn -1.380383 0.026173 -0.726692
v 88.890100 -38.000000 62.116100
vn -1.381458 0.026635 -0.766553
v 88.771300 -50.000000 61.910400
vn -5.521027 0.060910 -2.998571
v 90.941729 -39.637851 58.208074
vn -5.493784 0.065254 -3.048339
v 90.317271 -48.037724 59.186272
vn -5.528088 0.106093 -2.984459
v 89.346423 -44.829420 61.043005
vn -2.708275 0.025210 -1.594258
v 93.357550 -43.490900 53.853850
vn -2.710112 0.033976 -1.584954
v 93.367700 -41.219300 53.871600
vn -5.442932 0.065553 -3.137487
v 92.665356 -42.736596 55.038375
vn -2.756616 0.052241 -1.509471
v 88.802450 -46.759900 61.964300
vn -5.510571 0.081779 -3.017373
v 89.671743 -46.240166 60.391083
vn -2.726718 0.031452 -1.559985
v 92.670900 -50.000000 54.949750
vn -2.714616 0.016030 -1.574554
v 93.344350 -45.781800 53.831050
vn -5.457660 0.016097 -3.113092
v 92.659724 -46.508081 55.012791
vn -5.487678 0.055900 -3.059494
v 91.331434 -48.255857 57.354382
vn -2.760548 0.057320 -1.493802
v 88.831100 -44.372650 62.012850
vn -5.479991 0.064772 -3.072424
v 91.967988 -43.464236 56.249932
vn -2.727068 0.034161 -1.559478
v 92.569100 -38.000000 55.308500
vn -2.711510 0.035387 -1.583983
v 93.379800 -39.324300 53.892600
vn -5.544814 0.078831 -2.954181
v 89.889274 -39.617042 60.176749
vn -2.741231 0.069539 -1.532633
v 89.773600 -50.000000 60.096400
vn -5.488918 0.106775 -3.055883
v 89.721978 -49.210643 60.224546
vn -5.497423 0.090406 -3.041124
v 89.273303 -47.888847 61.073870
vn -2.776287 0.045366 -1.469686
v 89.579450 -38.000000 60.806650
vn -5.482221 0.018954 -3.069695
v 91.788527 -46.512431 56.560692
vn -2.754315 0.033654 -1.510877
v 91.342458 -38.000000 57.507154
vn -5.449139 0.028051 -3.127385
v 92.596192 -44.872489 55.126740
vn -5.538496 0.081602 -2.965926
v 89.954775 -42.671965 59.970862
vn -5.514852 0.080782 -3.009379
v 91.020908 -42.904357 57.981528
vn -5.488837 0.054598 -3.057298
v 91.883289 -39.580761 56.499219
vn -5.501279 0.034839 -3.035251
v 90.846632 -46.372607 58.258959
vn -5.529657 0.076410 -2.982381
v 90.478573 -41.200107 59.030846
vn -5.523081 0.060997 -2.994932
v 90.409765 -44.493909 59.077578
vn -5.494112 0.075129 -3.047462
v 91.698968 -41.363282 56.803485
vn -5.499557 0.024542 -3.037942
v 91.365872 -44.782684 57.314401
vn -2.747323 0.050005 -1.525000
v 88.783100 -48.685900 61.930900
vn -5.544146 0.080632 -2.955395
v 89.574479 -41.087454 60.728886
vn -2.770129 0.044363 -1.479457
v 88.854650 -42.091050 62.051300
vn -5.453234 0.063591 -3.119970
v 92.657387 -40.287618 55.111257
vn -5.464418 0.047113 -3.100960
v 92.277989 -48.205973 55.672428
# 46 vertices, 0 vertices normals

f 3//3 18//18 46//46
f 6//6 30//30 26//26
f 31//31 46//46 21//21
f 10//10 40//40 38//38
f 40//40 23//23 35//35
f 40//40 36//36 45//45
f 37//37 41//41 31//31
f 2//2 18//18 3//3
f 1//1 32//32 10//10
f 13//13 19//19 33//33
f 14//14 13//13 15//15
f 16//16 22//22 12//12
f 18//18 5//5 46//46
f 3//3 46//46 20//20
f 19//19 3//3 20//20
f 22//22 44//44 12//12
f 33//33 23//23 15//15
f 24//24 7//7 25//25
f 24//24 25//25 45//45
f 25//25 14//14 45//45
f 4//4 27//27 28//28
f 27//27 9//9 28//28
f 37//37 17//17 39//39
f 39//39 17//17 12//12
f 6//6 8//8 30//30
f 42//42 29//29 28//28
f 30//30 1//1 26//26
f 5//5 4//4 21//21
f 20//20 31//31 33//33
f 32//32 24//24 36//36
f 46//46 5//5 21//21
f 12//12 44//44 34//34
f 37//37 31//31 21//21
f 45//45 14//14 15//15
f 21//21 4//4 11//11
f 32//32 36//36 10//10
f 17//17 37//37 11//11
f 17//17 11//11 29//29
f 37//37 21//21 11//11
f 40//40 10//10 36//36
f 26//26 10//10 38//38
f 38//38 40//40 35//35
f 40//40 15//15 23//23
f 15//15 40//40 45//45
f 23//23 33//33 41//41
f 34//34 38//38 35//35
f 16//16 17//17 29//29
f 39//39 12//12 34//34
f 6//6 43//43 44//44
f 35//35 39//39 34//34
f 31//31 41//41 33//33
f 23//23 41//41 35//35
f 35//35 41//41 39//39
f 29//29 11//11 28//28
f 28//28 11//11 4//4
f 26//26 38//38 43//43
f 38//38 34//34 43//43
f 43//43 34//34 44//44
f 10//10 26//26 1//1
f 43//43 6//6 26//26
f 41//41 37//37 39//39
f 24//24 45//45 36//36
f 28//28 9//9 42//42
f 20//20 46//46 31//31
f 33//33 19//19 20//20
f 33//33 15//15 13//13
f 16//16 29//29 42//42
f 12//12 17//17 16//16
# 68 faces, 0 coords texture

# End of File
