####
#
# OBJ File Generated by Meshlab
#
####
# Object 208S.obj
#
# Vertices: 172
# Faces: 291
#
####
vn 3.365845 0.009440 -5.305260
v -47.855319 1.497006 19.802147
vn 3.328500 0.010848 -5.328790
v -48.628435 -0.390840 19.312283
vn 3.321272 -0.034917 -5.333148
v -49.878090 22.224534 18.487183
vn 3.541540 0.023884 -5.189753
v -44.494942 9.725401 22.044904
vn 2.883309 -0.031501 -5.582411
v -56.258281 0.820509 15.034234
vn 3.297525 0.001256 -5.347262
v -49.067198 -2.279941 19.029863
vn 3.105687 0.012794 -5.459163
v -51.409966 1.479303 17.631503
vn 3.484578 -0.031739 -5.227891
v -47.529875 24.060977 19.982694
vn 3.258479 0.012994 -5.371839
v -49.763128 1.047163 18.616965
vn 3.656515 -0.033638 -5.108144
v -46.024196 26.522188 21.000690
vn 3.430780 0.021505 -5.263591
v -46.068321 -1.783447 20.947916
vn 3.402434 -0.009910 -5.281856
v -46.526363 -3.798481 20.646609
vn 3.420200 -0.034394 -5.270440
v -47.487195 13.879460 20.048948
vn 3.425172 0.022636 -5.267283
v -46.425579 6.492354 20.742324
vn 3.458204 0.033747 -5.245754
v -45.722373 -0.225026 21.187631
vn 3.015861 -0.014237 -5.511966
v -52.908279 0.389692 16.829366
vn 3.214007 -0.039634 -5.397998
v -51.190906 18.189387 17.703280
vn 3.235545 -0.076152 -5.385468
v -50.652399 13.098021 18.088157
vn 3.679829 0.063314 -5.092450
v -43.279979 15.515152 22.953374
vn 2.991486 -0.058701 -5.524028
v -54.386515 3.393617 15.986641
vn 3.185082 -0.010692 -5.415958
v -50.191683 -3.300845 18.363039
vn 3.505002 -0.010320 -5.214137
v -46.989302 20.909535 20.360524
vn 3.098284 -0.019450 -5.466105
v -53.017789 4.370983 16.751465
vn 3.361492 -0.004387 -5.308331
v -48.082593 -4.367584 19.662577
vn 3.354431 0.022968 -5.312468
v -47.940242 5.113914 19.761187
vn 3.144077 -0.009373 -5.439882
v -51.507493 5.548907 17.614474
vn 3.494736 0.027892 -5.221498
v -44.564817 0.697209 21.960973
vn 3.621763 0.041752 -5.133975
v -44.458351 14.161363 22.093892
vn 3.524691 -0.042474 -5.201035
v -47.508931 27.531237 19.971202
vn 3.530689 0.014811 -5.197142
v -45.758020 14.558947 21.195239
vn 3.400233 -0.071955 -5.282278
v -49.087334 26.463646 18.930448
vn 1.544194 -0.004614 -2.335217
v -44.900100 -4.703750 21.714950
vn 1.729181 0.026645 -2.334090
v -43.480550 25.416100 22.892600
vn 1.725838 -0.010419 -3.025714
v -53.317500 5.783490 16.575300
vn 1.220172 -0.027470 -2.408842
v -57.812600 1.470420 14.239500
vn 1.276853 -0.007851 -2.491803
v -57.977273 -0.473784 14.159084
vn 1.511367 -0.014414 -2.727120
v -53.431450 9.606510 16.489700
vn 1.645204 0.016728 -2.340239
v -42.891897 8.921119 23.156360
vn 1.756922 0.023824 -2.379826
v -42.888750 23.728100 23.299500
vn 1.370481 -0.015648 -2.544389
v -54.937750 12.046750 15.667750
vn 1.815776 0.009996 -2.694672
v -44.495735 3.899862 22.021527
vn 1.540350 0.005910 -2.461184
v -48.336900 -6.596925 19.488550
vn 1.283721 0.000076 -2.515028
v -57.450750 -2.825045 14.435550
vn 1.603001 -0.033666 -2.446927
v -49.073008 29.696810 18.900976
vn 1.317990 0.018496 -2.507720
v -56.083200 -4.740950 15.112850
vn 1.775171 0.038888 -2.461410
v -41.933950 15.060550 23.917700
vn 1.347648 -0.035407 -2.617227
v -57.298850 2.425540 14.478400
vn 1.728080 0.039186 -2.395940
v -41.833400 12.403100 23.951900
vn 1.573665 -0.005851 -2.440618
v -46.534392 -5.901143 20.654183
vn 1.954005 -0.028719 -3.440159
v -52.100700 7.104970 17.271000
vn 1.420425 -0.025107 -2.600317
v -54.659600 5.106410 15.819800
vn 1.901249 -0.053654 -3.359570
v -52.095200 7.844420 17.261100
vn 1.294453 -0.024064 -2.436538
v -55.391250 13.874750 15.420450
vn 1.332658 0.013930 -2.634770
v -56.940700 -3.726040 14.694300
vn 1.331177 -0.032285 -2.352268
v -53.647200 27.454250 16.183800
vn 1.349257 -0.028600 -2.388057
v -54.280500 25.985800 15.848300
vn 1.487075 -0.032342 -2.593006
v -54.394810 23.784657 15.802937
vn 1.475198 -0.040804 -2.387583
v -50.801800 29.565200 17.801700
vn 1.430079 -0.017184 -2.580479
v -52.627196 -6.455167 16.981825
vn 1.717082 -0.006160 -2.303900
v -44.511976 27.146250 22.127302
vn 1.583734 0.003407 -2.340811
v -43.882200 -3.175660 22.405800
vn 2.155230 0.006109 -3.236075
v -45.050600 5.401110 21.652100
vn 1.674359 -0.034475 -2.951960
v -54.204884 20.217730 15.961467
vn 1.409410 -0.043457 -2.581081
v -55.161450 16.106900 15.499000
vn 1.878623 0.034834 -2.589016
v -42.117000 16.498000 23.813200
vn 1.691494 0.031143 -2.469543
v -43.948450 7.553110 22.396150
vn 2.064933 0.018124 -3.095472
v -44.616200 6.919790 21.934100
vn 1.646061 0.026018 -2.278351
v -41.983400 11.085600 23.821700
vn 2.978180 -0.030035 -5.532133
v -54.391543 1.469468 16.008780
vn 3.211175 -0.093312 -5.399749
v -51.928194 25.224388 17.214485
vn 1.418648 -0.005064 -2.612701
v -54.290700 10.777900 16.023200
vn 3.688452 0.035618 -5.086459
v -44.192579 19.601937 22.333074
vn 1.531559 0.009815 -2.265346
v -43.231600 -1.097708 22.850400
vn 3.357177 0.028743 -5.310833
v -48.232837 7.542349 19.589320
vn 3.176545 -0.015527 -5.418749
v -51.592294 9.779061 17.515903
vn 3.657880 -0.005946 -5.108474
v -45.085030 21.508274 21.689423
vn 2.955884 -0.014086 -5.544418
v -54.438565 -4.479146 15.993966
vn 1.390856 -0.020232 -2.598939
v -54.426785 -5.789812 16.008257
vn 3.448551 0.009160 -5.251826
v -47.494200 18.811688 20.023805
vn 3.695593 0.046631 -5.081201
v -43.543040 17.601379 22.787744
vn 1.839949 0.018589 -2.538079
v -42.309927 19.090125 23.692728
vn 3.262274 0.000441 -5.369457
v -49.668698 6.463486 18.691977
vn 3.496383 0.025904 -5.220269
v -44.679893 -1.424439 21.868162
vn 3.697650 0.015727 -5.079888
v -43.551640 20.923820 22.804329
vn 3.410991 0.013162 -5.276106
v -46.957775 3.177152 20.376639
vn 3.308946 -0.025174 -5.341071
v -49.390218 11.041067 18.880317
vn 3.595284 0.032215 -5.152188
v -45.834882 19.411697 21.146753
vn 3.424374 -0.042636 -5.267738
v -48.211393 22.470859 19.550627
vn 3.622710 -0.002270 -5.133203
v -46.121098 24.651777 20.947850
vn 3.507109 -0.046336 -5.212712
v -47.593622 25.618862 19.928187
vn 2.948528 -0.000968 -5.548064
v -54.517086 -2.466227 15.946300
vn 3.365535 -0.034766 -5.305056
v -48.666547 15.119330 19.274678
vn 3.256777 -0.001473 -5.372815
v -49.424617 -5.116304 18.822286
vn 3.373779 -0.063925 -5.299730
v -49.077392 24.301426 18.970955
vn 3.492063 0.011673 -5.223271
v -45.293621 2.702654 21.478136
vn 3.450195 0.004321 -5.251116
v -46.232072 1.366858 20.858388
vn 3.024323 0.018220 -5.507280
v -52.950749 -1.599460 16.807713
vn 3.479661 -0.029683 -5.231317
v -46.880924 15.613444 20.436709
vn 3.124678 0.036214 -5.450817
v -51.470920 3.465843 17.629437
vn 3.185390 -0.018161 -5.415272
v -51.715504 12.099342 17.455062
vn 2.961165 -0.010550 -5.540808
v -54.539775 -0.551313 15.926982
vn 3.730233 0.021814 -5.055889
v -44.839215 25.420599 21.884128
vn 2.882320 0.025129 -5.582877
v -56.021100 -3.290232 15.161735
vn 3.480318 0.006775 -5.231027
v -45.132089 -3.030539 21.561031
vn 3.169891 -0.066640 -5.424426
v -52.723198 23.298167 16.771836
vn 3.268342 -0.103913 -5.364565
v -50.903221 27.478854 17.778377
vn 3.255668 -0.057003 -5.373524
v -50.889748 23.743820 17.859633
vn 3.222527 0.044646 -5.393519
v -50.274876 2.648154 18.320345
vn 3.122948 -0.016027 -5.451754
v -51.294148 -4.822571 17.722157
vn 1.685522 -0.018356 -2.378074
v -45.966700 28.573050 21.028200
vn 2.909081 -0.056935 -5.568864
v -55.643700 2.522775 15.343083
vn 3.205090 0.003688 -5.403952
v -50.167942 -1.196753 18.373083
vn 3.462285 0.025904 -5.242892
v -46.026494 4.562560 20.995175
vn 3.049886 -0.034814 -5.492607
v -53.262538 13.231535 16.562983
vn 3.230514 0.016841 -5.388633
v -49.904125 4.421307 18.548311
vn 3.380427 0.003670 -5.296326
v -47.583678 -1.986754 19.977437
vn 1.451384 -0.044322 -2.465112
v -51.981525 28.989881 17.109290
vn 1.576499 0.014451 -2.345276
v -43.313600 1.006593 22.803950
vn 3.136309 -0.045581 -5.444196
v -52.767559 21.191914 16.773382
vn 3.033556 -0.084849 -5.501686
v -54.160080 16.404808 16.043117
vn 3.305897 0.022097 -5.342982
v -48.739449 3.046136 19.256043
vn 3.209636 -0.031370 -5.401257
v -51.506486 21.811937 17.501229
vn 1.488284 -0.003648 -2.538421
v -50.364850 -6.776665 18.258950
vn 3.409222 0.012140 -5.277717
v -47.010790 -0.159256 20.344364
vn 3.399322 0.022786 -5.284151
v -46.944004 8.451074 20.424032
vn 1.665509 0.013742 -2.466515
v -43.719500 2.288960 22.541800
vn 1.336290 -0.032287 -2.568021
v -55.899117 4.172181 15.191125
vn 3.080933 -0.067079 -5.475427
v -53.303897 18.222628 16.492106
vn 3.388960 -0.014491 -5.290764
v -48.756731 20.460432 19.210918
vn 1.602602 -0.024507 -2.362551
v -47.393150 29.387550 20.033050
vn 3.103623 0.004452 -5.462800
v -51.493839 -2.478147 17.605508
vn 3.664119 0.043511 -5.103522
v -44.903905 18.087530 21.795766
vn 3.314944 -0.077484 -5.336420
v -49.187471 13.227728 18.968996
vn 1.782711 0.010559 -2.433801
v -42.517250 21.679550 23.562750
vn 1.596938 -0.037378 -2.771288
v -54.255100 22.021200 15.904300
vn 3.699172 0.032397 -5.078201
v -44.618876 23.659208 22.020693
vn 3.434620 -0.018790 -5.261148
v -46.411873 10.809050 20.767706
vn 1.566954 -0.042928 -2.831092
v -54.673800 17.816500 15.737900
vn 3.634329 0.044060 -5.124571
v -43.266314 11.240534 22.896591
vn 3.561936 0.019339 -5.175061
v -44.704921 12.042845 21.895898
vn 3.371509 -0.050344 -5.301701
v -47.898925 11.868552 19.804543
vn 3.163111 -0.054741 -5.427548
v -51.599698 16.194398 17.475885
vn 3.140346 -0.088486 -5.441064
v -52.808367 26.618682 16.669974
vn 3.133697 -0.073063 -5.445288
v -53.306881 24.968072 16.409543
vn 3.249061 -0.061079 -5.376830
v -50.303018 14.780626 18.263256
vn 3.055984 -0.065485 -5.489478
v -53.188622 15.384055 16.596530
vn 3.043749 -0.018046 -5.496506
v -53.215098 11.233063 16.606350
vn 2.874141 -0.011345 -5.587253
v -56.206828 -1.397466 15.071310
vn 2.987892 -0.061650 -5.526859
v -54.439447 14.451424 15.920416
vn 3.368267 0.002546 -5.304006
v -47.824630 9.915209 19.862064
vn 3.042621 -0.010222 -5.497189
v -52.862805 2.424290 16.848203
vn 3.462725 0.033324 -5.242402
v -45.532472 8.210536 21.332097
vn 3.343809 -0.018200 -5.319193
v -49.304704 18.594596 18.862501
vn 3.096297 -0.018031 -5.466426
v -51.396439 -0.363326 17.654525
vn 3.275219 -0.023171 -5.361410
v -50.570621 20.211046 18.067472
vn 3.713901 0.003529 -5.067998
v -43.708605 22.317233 22.687751
vn 3.147483 -0.059792 -5.437463
v -51.829625 14.189516 17.375754
vn 3.142978 -0.038618 -5.440048
v -52.292982 19.729889 17.049023
vn 3.657692 0.074021 -5.108229
v -43.222346 13.376754 22.967005
vn 3.529348 -0.000195 -5.197243
v -46.309693 17.423394 20.806423
vn 3.300858 -0.025447 -5.346144
v -49.809854 16.765704 18.561214
vn 3.567108 -0.018448 -5.170945
v -46.437360 22.922506 20.719126
vn 3.181242 -0.045908 -5.417427
v -51.068135 7.533781 17.849959
vn 3.289880 -0.101866 -5.351993
v -50.332659 25.735157 18.168968
vn 3.621483 0.016441 -5.133757
v -44.982064 16.271894 21.728830
vn 3.401361 -0.016349 -5.282458
v -48.045535 16.877121 19.666004
vn 3.002729 -0.036002 -5.518731
v -53.216061 -5.062758 16.648806
vn 3.481675 -0.003459 -5.228858
v -45.975178 12.778558 21.031538
vn 3.417559 -0.069247 -5.271398
v -49.242990 28.523424 18.805763
vn 3.031690 0.009694 -5.502541
v -52.757139 -3.404484 16.890905
vn 3.303866 0.012992 -5.344272
v -49.644311 8.577510 18.713306
vn 3.080728 -0.059966 -5.475504
v -52.837493 16.997088 16.766746
# 172 vertices, 0 vertices normals

f 9//9 1//1 2//2
f 26//26 23//23 34//34
f 157//157 100//100 114//114
f 147//147 37//37 71//71
f 103//103 54//54 43//43
f 164//164 107//107 70//70
f 89//89 162//162 8//8
f 102//102 10//10 60//60
f 85//85 95//95 96//96
f 121//121 108//108 115//115
f 27//27 118//118 73//73
f 122//122 119//119 105//105
f 10//10 89//89 90//90
f 85//85 121//121 25//25
f 102//102 33//33 136//136
f 15//15 124//124 96//96
f 150//150 125//125 74//74
f 104//104 61//61 32//32
f 109//109 131//131 21//21
f 108//108 7//7 99//99
f 9//9 112//112 154//154
f 106//106 143//143 117//117
f 87//87 79//79 22//22
f 119//119 63//63 135//135
f 16//16 101//101 69//69
f 120//120 138//138 128//128
f 116//116 2//2 124//124
f 8//8 88//88 94//94
f 92//92 13//13 133//133
f 15//15 83//83 11//11
f 151//151 69//69 20//20
f 122//122 107//107 3//3
f 122//122 3//3 155//155
f 12//12 104//104 32//32
f 71//71 40//40 147//147
f 83//83 73//73 61//61
f 78//78 45//45 77//77
f 81//81 65//65 80//80
f 84//84 156//156 134//134
f 139//139 38//38 4//4
f 160//160 79//79 87//87
f 169//169 130//130 29//29
f 130//130 169//169 44//44
f 159//159 46//46 48//48
f 3//3 107//107 94//94
f 18//18 145//145 133//133
f 109//109 93//93 123//123
f 96//96 27//27 15//15
f 26//26 82//82 115//115
f 82//82 26//26 163//163
f 119//119 158//158 63//63
f 145//145 18//18 157//157
f 166//166 79//79 160//160
f 98//98 30//30 13//13
f 49//49 12//12 32//32
f 26//26 34//34 50//50
f 69//69 111//111 20//20
f 18//18 133//133 86//86
f 18//18 86//86 100//100
f 75//75 52//52 37//37
f 75//75 163//163 52//52
f 157//157 18//18 100//100
f 114//114 100//100 147//147
f 91//91 101//101 97//97
f 100//100 75//75 147//147
f 86//86 171//171 75//75
f 75//75 100//100 86//86
f 19//19 80//80 65//65
f 24//24 93//93 6//6
f 16//16 7//7 154//154
f 19//19 28//28 165//165
f 160//160 87//87 132//132
f 132//132 72//72 80//80
f 72//72 81//81 80//80
f 116//116 6//6 2//2
f 103//103 45//45 54//54
f 101//101 148//148 5//5
f 104//104 83//83 61//61
f 93//93 21//21 6//6
f 164//164 70//70 106//106
f 88//88 162//162 22//22
f 164//164 94//94 107//107
f 70//70 107//107 105//105
f 7//7 108//108 9//9
f 145//145 92//92 133//133
f 171//171 150//150 74//74
f 167//167 109//109 59//59
f 110//110 60//60 10//10
f 132//132 87//87 72//72
f 91//91 170//170 77//77
f 111//111 47//47 127//127
f 5//5 111//111 69//69
f 2//2 6//6 112//112
f 112//112 6//6 21//21
f 1//1 85//85 96//96
f 85//85 113//113 95//95
f 113//113 85//85 25//25
f 40//40 114//114 147//147
f 89//89 102//102 136//136
f 113//113 62//62 41//41
f 62//62 113//113 14//14
f 41//41 95//95 113//113
f 6//6 116//116 24//24
f 121//121 9//9 108//108
f 115//115 108//108 99//99
f 106//106 117//117 58//58
f 83//83 27//27 73//73
f 128//128 158//158 17//17
f 99//99 26//26 115//115
f 90//90 89//89 8//8
f 43//43 148//148 103//103
f 36//36 148//148 43//43
f 128//128 172//172 120//120
f 74//74 14//14 25//25
f 85//85 1//1 121//121
f 25//25 121//121 115//115
f 136//136 33//33 39//39
f 123//123 59//59 109//109
f 52//52 163//163 50//50
f 96//96 124//124 1//1
f 11//11 116//116 124//124
f 74//74 125//125 14//14
f 114//114 146//146 157//157
f 157//157 146//146 142//142
f 27//27 96//96 95//95
f 95//95 41//41 126//126
f 27//27 126//126 118//118
f 111//111 127//127 20//20
f 127//127 51//51 20//20
f 64//64 149//149 53//53
f 129//129 3//3 88//88
f 130//130 110//110 29//29
f 10//10 29//29 110//110
f 19//19 165//165 80//80
f 132//132 80//80 165//165
f 99//99 7//7 151//151
f 9//9 2//2 112//112
f 7//7 9//9 154//154
f 141//141 86//86 133//133
f 134//134 81//81 84//84
f 131//131 97//97 154//154
f 81//81 72//72 84//84
f 19//19 65//65 46//46
f 12//12 11//11 104//104
f 105//105 135//135 57//57
f 135//135 105//105 119//119
f 136//136 76//76 162//162
f 153//153 166//166 161//161
f 83//83 104//104 11//11
f 114//114 149//149 146//146
f 31//31 169//169 29//29
f 90//90 29//29 10//10
f 16//16 97//97 101//101
f 69//69 101//101 5//5
f 90//90 8//8 94//94
f 120//120 64//64 138//138
f 15//15 11//11 124//124
f 124//124 2//2 1//1
f 8//8 162//162 88//88
f 94//94 88//88 3//3
f 30//30 168//168 13//13
f 168//168 141//141 13//13
f 133//133 13//13 141//141
f 15//15 27//27 83//83
f 152//152 66//66 67//67
f 67//67 14//14 152//152
f 68//68 139//139 48//48
f 14//14 67//67 62//62
f 9//9 121//121 1//1
f 151//151 7//7 16//16
f 23//23 99//99 151//151
f 151//151 16//16 69//69
f 122//122 105//105 107//107
f 19//19 46//46 159//159
f 139//139 159//159 48//48
f 16//16 154//154 97//97
f 165//165 28//28 30//30
f 139//139 68//68 38//38
f 112//112 21//21 131//131
f 112//112 131//131 154//154
f 11//11 12//12 116//116
f 116//116 12//12 24//24
f 139//139 140//140 159//159
f 143//143 144//144 56//56
f 143//143 55//55 117//117
f 70//70 144//144 143//143
f 111//111 5//5 47//47
f 26//26 99//99 23//23
f 102//102 60//60 33//33
f 49//49 24//24 12//12
f 51//51 23//23 20//20
f 23//23 51//51 34//34
f 42//42 24//24 49//49
f 143//143 56//56 55//55
f 28//28 168//168 30//30
f 144//144 57//57 56//56
f 144//144 105//105 57//57
f 70//70 143//143 106//106
f 144//144 70//70 105//105
f 10//10 102//102 89//89
f 92//92 145//145 161//161
f 21//21 93//93 109//109
f 148//148 36//36 5//5
f 120//120 149//149 64//64
f 5//5 36//36 35//35
f 146//146 149//149 120//120
f 5//5 35//35 47//47
f 31//31 29//29 90//90
f 147//147 75//75 37//37
f 149//149 40//40 53//53
f 17//17 155//155 153//153
f 153//153 79//79 166//166
f 149//149 114//114 40//40
f 27//27 95//95 126//126
f 84//84 76//76 156//156
f 136//136 162//162 89//89
f 23//23 151//151 20//20
f 19//19 159//159 28//28
f 4//4 152//152 137//137
f 137//137 152//152 125//125
f 153//153 129//129 79//79
f 156//156 39//39 134//134
f 161//161 145//145 142//142
f 77//77 45//45 103//103
f 17//17 142//142 172//172
f 145//145 157//157 142//142
f 155//155 17//17 158//158
f 129//129 155//155 3//3
f 160//160 132//132 165//165
f 39//39 156//156 136//136
f 76//76 22//22 162//162
f 159//159 140//140 28//28
f 72//72 87//87 76//76
f 22//22 76//76 87//87
f 84//84 72//72 76//76
f 17//17 161//161 142//142
f 76//76 136//136 156//156
f 4//4 38//38 66//66
f 93//93 42//42 123//123
f 166//166 160//160 98//98
f 113//113 25//25 14//14
f 129//129 88//88 22//22
f 93//93 24//24 42//42
f 4//4 66//66 152//152
f 17//17 153//153 161//161
f 153//153 155//155 129//129
f 129//129 22//22 79//79
f 77//77 103//103 91//91
f 4//4 140//140 139//139
f 82//82 74//74 25//25
f 82//82 25//25 115//115
f 94//94 164//164 31//31
f 168//168 140//140 137//137
f 169//169 31//31 106//106
f 163//163 26//26 50//50
f 106//106 31//31 164//164
f 166//166 92//92 161//161
f 152//152 14//14 125//125
f 160//160 165//165 98//98
f 98//98 13//13 92//92
f 165//165 30//30 98//98
f 166//166 98//98 92//92
f 94//94 31//31 90//90
f 137//137 140//140 4//4
f 122//122 155//155 158//158
f 158//158 119//119 122//122
f 109//109 167//167 170//170
f 91//91 97//97 170//170
f 140//140 168//168 28//28
f 150//150 141//141 137//137
f 125//125 150//150 137//137
f 78//78 77//77 167//167
f 44//44 169//169 58//58
f 169//169 106//106 58//58
f 91//91 103//103 148//148
f 171//171 86//86 150//150
f 128//128 138//138 63//63
f 91//91 148//148 101//101
f 158//158 128//128 63//63
f 109//109 170//170 131//131
f 131//131 170//170 97//97
f 77//77 170//170 167//167
f 78//78 167//167 59//59
f 171//171 163//163 75//75
f 163//163 171//171 82//82
f 171//171 74//74 82//82
f 172//172 142//142 146//146
f 172//172 146//146 120//120
f 17//17 172//172 128//128
f 137//137 141//141 168//168
f 86//86 141//141 150//150
# 291 faces, 0 coords texture

# End of File
