####
#
# OBJ File Generated by Meshlab
#
####
# Object 2096S.obj
#
# Vertices: 24
# Faces: 34
#
####
vn -5.266209 0.033180 -3.426897
v 84.051621 -37.455550 70.708931
vn -5.252093 0.081746 -3.447777
v 83.374147 -40.513944 71.686744
vn -2.177232 0.000402 -1.397958
v 83.959400 -34.389200 70.854300
vn -2.186332 0.036168 -1.446822
v 81.302550 -41.534200 74.804550
vn -2.128420 0.017593 -1.380714
v 84.945200 -38.336400 69.322200
vn -2.204628 0.037233 -1.459778
v 80.670338 -39.982991 75.795228
vn -2.179056 0.014583 -1.410208
v 82.907600 -33.806700 72.504200
vn -2.172133 0.003352 -1.404295
v 84.727400 -35.974600 69.670600
vn -2.108038 0.032510 -1.384709
v 80.490750 -37.447950 76.139100
vn -2.398063 0.033231 -1.566173
v 81.004850 -35.658753 75.394347
vn -2.175081 0.036436 -1.433340
v 82.310350 -42.320250 73.259750
vn -2.154639 0.024225 -1.405523
v 81.644400 -34.412800 74.438600
vn -2.056314 0.033895 -1.348826
v 83.571700 -42.012500 71.348100
vn -5.249264 0.068836 -3.452373
v 82.552028 -39.197950 72.964250
vn -5.241821 0.081848 -3.463360
v 81.644596 -40.092638 74.323967
vn -5.256226 0.069121 -3.441760
v 81.441616 -36.549689 74.706684
vn -5.260339 0.055039 -3.435707
v 82.366411 -35.824240 73.308746
vn -5.254417 0.052093 -3.444813
v 83.069633 -37.511666 72.206097
vn -5.253562 0.064044 -3.445925
v 82.143157 -37.350215 73.621489
vn -5.247882 0.077327 -3.454269
v 81.460708 -38.452655 74.640416
vn -5.257042 0.064225 -3.440493
v 83.767436 -39.066059 71.121621
vn -5.271983 0.024341 -3.418100
v 83.528423 -35.842221 71.525102
vn -2.360611 0.034636 -1.540200
v 84.396215 -40.446959 70.126802
vn -5.247059 0.082641 -3.455404
v 82.447093 -41.037666 73.084848
# 24 vertices, 0 vertices normals

f 22//22 7//7 3//3
f 18//18 17//17 22//22
f 16//16 9//9 10//10
f 16//16 20//20 9//9
f 15//15 14//14 24//24
f 14//14 21//21 2//2
f 18//18 14//14 19//19
f 14//14 20//20 19//19
f 7//7 17//17 12//12
f 8//8 5//5 1//1
f 21//21 14//14 18//18
f 21//21 18//18 1//1
f 10//10 12//12 16//16
f 1//1 18//18 22//22
f 17//17 18//18 19//19
f 6//6 20//20 15//15
f 20//20 6//6 9//9
f 15//15 20//20 14//14
f 7//7 22//22 17//17
f 3//3 8//8 22//22
f 15//15 4//4 6//6
f 19//19 20//20 16//16
f 1//1 5//5 21//21
f 23//23 21//21 5//5
f 1//1 22//22 8//8
f 12//12 17//17 16//16
f 23//23 13//13 2//2
f 24//24 14//14 2//2
f 24//24 4//4 15//15
f 4//4 24//24 11//11
f 24//24 2//2 13//13
f 13//13 11//11 24//24
f 23//23 2//2 21//21
f 17//17 19//19 16//16
# 34 faces, 0 coords texture

# End of File
