####
#
# OBJ File Generated by Meshlab
#
####
# Object 2113S.obj
#
# Vertices: 25
# Faces: 34
#
####
vn 5.320115 0.074848 -3.342011
v -82.280005 36.819001 73.999943
vn 5.339658 0.112600 -3.309480
v -83.030151 34.860892 72.756297
vn 2.318617 0.031372 -1.441832
v -81.200300 33.463200 75.665650
vn 2.368187 0.022159 -1.497820
v -81.350250 40.633200 75.546850
vn 2.260356 0.027560 -1.429013
v -83.040500 41.135600 72.895400
vn 2.286367 0.034046 -1.419064
v -84.415900 39.026700 70.648100
vn 2.221904 0.058563 -1.365059
v -83.821050 33.258400 71.403800
vn 2.180468 0.018968 -1.373593
v -80.589400 39.263100 76.732700
vn 2.231742 0.020986 -1.395513
v -80.284600 36.970400 77.189100
vn 2.250523 0.022314 -1.428793
v -82.032200 41.217700 74.478200
vn 2.204210 0.047939 -1.363314
v -84.768400 36.845800 70.019000
vn 5.328158 0.097758 -3.328521
v -83.441387 36.833286 72.155431
vn 5.337085 0.086683 -3.314325
v -82.085954 34.396147 74.266317
vn 5.314632 0.084776 -3.350498
v -82.891459 38.281337 73.067984
vn 2.323586 0.066201 -1.418102
v -84.480524 34.850777 70.391204
vn 2.344766 0.048418 -1.441448
v -81.938350 32.731350 74.450500
vn 5.349722 0.132817 -3.292507
v -83.903860 35.343588 71.359084
vn 2.321864 0.019516 -1.439288
v -80.576550 34.941150 76.697600
vn 2.270798 0.056044 -1.396131
v -82.922600 32.567050 72.833700
vn 2.418065 0.029918 -1.510154
v -83.720400 40.409750 71.793100
vn 5.330104 0.082259 -3.325795
v -83.753838 38.527119 71.702815
vn 5.313784 0.068711 -3.352117
v -82.950617 39.776620 73.011364
vn 5.309307 0.064125 -3.359372
v -82.131379 39.201366 74.292087
vn 5.328853 0.055098 -3.328417
v -81.276866 35.810918 75.579642
vn 5.318092 0.058690 -3.345558
v -81.297237 38.195157 75.594319
# 25 vertices, 0 vertices normals

f 25//25 9//9 24//24
f 22//22 21//21 20//20
f 15//15 11//11 17//17
f 2//2 13//13 19//19
f 17//17 12//12 2//2
f 9//9 25//25 8//8
f 7//7 17//17 2//2
f 17//17 7//7 15//15
f 12//12 17//17 11//11
f 3//3 13//13 24//24
f 13//13 1//1 24//24
f 16//16 13//13 3//3
f 16//16 19//19 13//13
f 18//18 3//3 24//24
f 19//19 7//7 2//2
f 12//12 14//14 1//1
f 5//5 10//10 22//22
f 4//4 23//23 10//10
f 22//22 10//10 23//23
f 11//11 6//6 21//21
f 11//11 21//21 12//12
f 13//13 2//2 1//1
f 24//24 9//9 18//18
f 4//4 25//25 23//23
f 20//20 5//5 22//22
f 20//20 21//21 6//6
f 1//1 2//2 12//12
f 14//14 12//12 21//21
f 22//22 14//14 21//21
f 1//1 14//14 23//23
f 25//25 24//24 1//1
f 1//1 23//23 25//25
f 22//22 23//23 14//14
f 25//25 4//4 8//8
# 34 faces, 0 coords texture

# End of File
