####
#
# OBJ File Generated by Meshlab
#
####
# Object 2120.obj
#
# Vertices: 49
# Faces: 73
#
####
vn -2.726293 -0.021108 -1.560402
v 67.715872 38.000039 99.265150
vn -1.399737 -0.010379 -0.704682
v 71.592000 38.000000 92.000000
vn -2.718283 -0.042364 -1.586818
v 67.251931 41.407675 99.999989
vn -5.510387 -0.067962 -3.017520
v 69.115836 42.185858 96.695244
vn -5.550893 -0.037614 -2.943173
v 69.969851 40.894080 95.127299
vn -5.627530 -0.119433 -2.791646
v 70.835876 43.613810 93.363563
vn -2.767683 -0.043329 -1.486070
v 69.483900 50.000000 95.799500
vn -1.399531 -0.010390 -0.720621
v 71.467800 50.000000 92.000000
vn -2.794196 -0.015778 -1.425785
v 71.476250 48.861800 92.000000
vn -2.753167 -0.009857 -1.513028
v 68.962100 38.000000 97.020100
vn -1.361027 -0.014480 -0.794692
v 67.286800 38.000000 100.000000
vn -1.353282 -0.012607 -0.788139
v 67.115800 50.000000 100.000000
vn -2.815098 -0.003778 -1.401504
v 71.470250 46.604550 92.000000
vn -5.461922 -0.043194 -3.104768
v 67.979314 39.883736 98.777254
vn -2.710626 -0.059718 -1.585923
v 67.192600 44.038100 100.000000
vn -2.806399 -0.030565 -1.398830
v 71.574076 40.211074 92.000000
vn -2.821916 -0.062439 -1.376839
v 71.521700 42.719050 92.000000
vn -5.609885 -0.083349 -2.826916
v 70.833662 41.652841 93.456826
vn -2.703349 -0.038226 -1.585121
v 67.143800 46.308550 100.000000
vn -5.564723 -0.083573 -2.915047
v 70.064527 42.767134 94.920628
vn -5.450751 -0.120550 -3.122487
v 68.046697 43.336986 98.567001
vn -2.791016 -0.028608 -1.441972
v 70.920150 50.000000 93.063600
vn -5.583319 -0.099524 -2.879282
v 70.178117 44.672360 94.630644
vn -2.741138 -0.033563 -1.534650
v 68.542750 50.000000 97.520850
vn -5.499780 -0.026935 -3.037950
v 68.670442 39.104009 97.543356
vn -5.513431 -0.100483 -3.010960
v 69.297344 43.968556 96.313168
vn -2.713546 -0.029124 -1.582302
v 67.277700 38.855350 100.000000
vn -5.456479 -0.053161 -3.114600
v 68.165778 48.584030 98.212868
vn -2.719976 -0.026537 -1.571920
v 67.692600 50.000000 99.009600
vn -2.716531 -0.023158 -1.580481
v 67.127800 48.711900 100.000000
vn -2.771969 -0.027843 -1.477617
v 69.858200 38.000000 95.380200
vn -5.476555 -0.100595 -3.078086
v 68.630370 44.686445 97.484638
vn -5.626285 -0.059781 -2.796092
v 70.891422 45.509111 93.171196
vn -2.828369 -0.046490 -1.385601
v 71.479100 44.543150 92.000000
vn -5.528008 -0.082957 -2.985087
v 69.486331 45.933702 95.895076
vn -5.589140 -0.041187 -2.869749
v 70.736948 39.405450 93.677723
vn -5.570121 -0.073790 -2.906177
v 70.256124 48.750965 94.371348
vn -2.781068 -0.043335 -1.460705
v 70.171400 50.000000 94.495600
vn -5.434328 -0.105884 -3.151924
v 67.823718 45.202938 98.878154
vn -5.498286 -0.066865 -3.039934
v 68.918755 48.787605 96.868464
vn -5.534751 -0.069600 -2.972500
v 69.559116 47.973128 95.718320
vn -2.793207 -0.021406 -1.437336
v 70.660200 38.000000 93.847800
vn -5.583154 -0.058817 -2.881073
v 70.272828 46.730663 94.387034
vn -5.602931 -0.027554 -2.843019
v 70.918669 47.686016 93.107804
vn -5.485554 -0.066145 -3.062965
v 68.792958 47.182044 97.124412
vn -5.462288 -0.086250 -3.102064
v 68.138745 41.782870 98.471493
vn -5.510511 -0.037304 -3.018381
v 68.944217 40.552955 97.027573
vn -5.441377 -0.065878 -3.140770
v 67.955348 46.831985 98.607120
vn -5.530629 -0.040182 -2.981127
v 69.551504 39.044625 95.932666
# 49 vertices, 0 vertices normals

f 30//30 48//48 19//19
f 44//44 22//22 9//9
f 1//1 14//14 25//25
f 11//11 27//27 1//1
f 35//35 23//23 26//26
f 36//36 5//5 18//18
f 48//48 28//28 45//45
f 27//27 14//14 1//1
f 15//15 19//19 39//39
f 16//16 2//2 36//36
f 17//17 16//16 18//18
f 18//18 6//6 17//17
f 9//9 22//22 8//8
f 20//20 5//5 4//4
f 40//40 28//28 24//24
f 24//24 7//7 40//40
f 9//9 13//13 44//44
f 10//10 1//1 25//25
f 4//4 26//26 20//20
f 27//27 3//3 14//14
f 24//24 28//28 29//29
f 30//30 29//29 28//28
f 30//30 28//28 48//48
f 31//31 10//10 49//49
f 13//13 34//34 33//33
f 26//26 23//23 20//20
f 34//34 17//17 6//6
f 41//41 35//35 45//45
f 35//35 26//26 32//32
f 26//26 4//4 21//21
f 47//47 46//46 4//4
f 18//18 5//5 20//20
f 37//37 7//7 38//38
f 37//37 38//38 22//22
f 16//16 36//36 18//18
f 32//32 21//21 39//39
f 3//3 46//46 14//14
f 7//7 41//41 40//40
f 41//41 7//7 37//37
f 43//43 41//41 37//37
f 41//41 45//45 40//40
f 40//40 45//45 28//28
f 14//14 46//46 47//47
f 31//31 49//49 36//36
f 36//36 49//49 5//5
f 49//49 25//25 47//47
f 5//5 49//49 47//47
f 4//4 5//5 47//47
f 39//39 21//21 15//15
f 37//37 22//22 44//44
f 19//19 48//48 39//39
f 37//37 44//44 43//43
f 35//35 43//43 23//23
f 23//23 33//33 6//6
f 43//43 35//35 41//41
f 44//44 13//13 33//33
f 33//33 43//43 44//44
f 43//43 33//33 23//23
f 6//6 33//33 34//34
f 12//12 29//29 30//30
f 45//45 32//32 48//48
f 20//20 23//23 6//6
f 32//32 45//45 35//35
f 6//6 18//18 20//20
f 46//46 21//21 4//4
f 14//14 47//47 25//25
f 48//48 32//32 39//39
f 46//46 3//3 21//21
f 36//36 2//2 42//42
f 42//42 31//31 36//36
f 49//49 10//10 25//25
f 21//21 3//3 15//15
f 32//32 26//26 21//21
# 73 faces, 0 coords texture

# End of File
