####
#
# OBJ File Generated by Meshlab
#
####
# Object 2153.obj
#
# Vertices: 46
# Faces: 67
#
####
vn -2.749223 -0.005177 -1.529404
v 94.902650 43.363550 56.530150
vn -2.750015 -0.002911 -1.508592
v 94.893650 45.865350 56.514600
vn -2.756014 0.008336 -1.495116
v 94.896900 40.454600 56.520100
vn -2.754746 0.001457 -1.513320
v 94.896550 48.201850 56.519450
vn -2.756689 -0.015140 -1.508777
v 94.896100 49.682200 56.518800
vn -1.377754 0.000982 -0.758418
v 94.901500 38.000000 56.528000
vn -1.358117 -0.003442 -0.786704
v 94.895700 50.000000 56.518100
vn -2.753255 -0.051582 -1.510024
v 94.798500 50.000000 56.685900
vn -2.812053 0.006371 -1.400412
v 91.095500 38.000000 63.738800
vn -2.787322 -0.001655 -1.448964
v 91.610350 50.000000 62.621950
vn -5.539664 0.003070 -2.964877
v 93.589742 46.216276 58.924496
vn -1.402733 0.002890 -0.706606
v 90.476500 50.000000 64.863800
vn -1.412110 0.002333 -0.690270
v 90.513900 38.000000 64.928600
vn -5.544837 0.010682 -2.955164
v 93.130275 44.117456 59.780073
vn -2.767237 -0.003917 -1.487177
v 92.523750 50.000000 60.902950
vn -5.536083 0.002293 -2.971529
v 93.091708 48.050311 59.858675
vn -2.753418 0.002244 -1.519653
v 94.901500 41.594500 56.528000
vn -5.516963 -0.006835 -3.006861
v 94.098613 40.010191 57.989139
vn -2.813008 -0.025221 -1.392948
v 90.505300 43.526550 64.913750
vn -5.612229 -0.042700 -2.824437
v 91.213779 44.861174 63.453900
vn -2.756928 0.006737 -1.506011
v 94.168450 38.000000 57.848300
vn -5.607454 -0.023352 -2.834026
v 91.900432 40.916267 62.130405
vn -5.510672 -0.001381 -3.017972
v 94.030353 42.471796 58.092963
vn -2.779175 -0.011167 -1.464761
v 92.968450 38.000000 60.096100
vn -5.577354 -0.022723 -2.893149
v 91.828866 45.934115 62.243840
vn -2.812845 -0.021518 -1.417835
v 90.476205 47.852526 64.863309
vn -2.795330 -0.009827 -1.433756
v 91.872200 38.000000 62.213600
vn -2.809673 -0.029141 -1.400656
v 90.492900 45.674800 64.892150
vn -5.547946 -0.004855 -2.949313
v 92.652189 46.056884 60.679682
vn -5.599122 -0.049629 -2.850429
v 91.179560 46.796622 63.497027
vn -2.765948 0.011889 -1.489534
v 93.779334 49.999997 58.595050
vn -5.619642 -0.029834 -2.810101
v 91.368546 42.523772 63.187270
vn -2.811962 -0.010760 -1.393196
v 90.513950 41.091300 64.928800
vn -5.577090 -0.010576 -2.893366
v 92.101976 44.300576 61.720185
vn -5.626699 -0.009391 -2.796113
v 91.214194 40.292494 63.518885
vn -2.817065 0.005861 -1.387038
v 90.515000 39.228000 64.930500
vn -5.595902 -0.022177 -2.857086
v 91.978867 39.144014 61.997795
vn -5.596086 -0.021607 -2.856261
v 91.142014 48.526042 63.536613
vn -5.536200 -0.015536 -2.971278
v 93.385584 39.476480 59.309184
vn -5.558564 -0.024924 -2.928783
v 91.997267 47.914472 61.896773
vn -5.520454 0.003274 -3.000410
v 94.347661 46.552744 57.514392
vn -5.527809 0.016803 -2.986457
v 94.099913 48.113203 57.968565
vn -5.519242 -0.003798 -3.002371
v 94.084523 44.305653 57.996222
vn -5.536570 -0.005592 -2.970238
v 93.382726 41.792394 59.289111
vn -5.565761 -0.027941 -2.915061
v 92.680054 40.106040 60.624124
vn -5.576335 -0.002320 -2.894632
v 92.398782 42.393445 61.148161
# 46 vertices, 0 vertices normals

f 8//8 7//7 5//5
f 31//31 42//42 16//16
f 4//4 2//2 41//41
f 42//42 31//31 5//5
f 15//15 31//31 16//16
f 2//2 1//1 43//43
f 1//1 17//17 23//23
f 4//4 42//42 5//5
f 19//19 28//28 20//20
f 21//21 24//24 39//39
f 24//24 27//27 37//37
f 38//38 12//12 10//10
f 10//10 15//15 40//40
f 26//26 12//12 38//38
f 25//25 20//20 30//30
f 26//26 38//38 30//30
f 27//27 9//9 37//37
f 28//28 26//26 30//30
f 29//29 11//11 14//14
f 8//8 5//5 31//31
f 34//34 14//14 46//46
f 14//14 44//44 46//46
f 44//44 23//23 18//18
f 32//32 33//33 19//19
f 34//34 29//29 14//14
f 25//25 29//29 34//34
f 25//25 34//34 20//20
f 33//33 35//35 36//36
f 32//32 46//46 22//22
f 37//37 9//9 35//35
f 13//13 36//36 9//9
f 37//37 45//45 24//24
f 35//35 22//22 37//37
f 4//4 41//41 42//42
f 16//16 40//40 15//15
f 36//36 35//35 9//9
f 1//1 23//23 43//43
f 3//3 18//18 17//17
f 33//33 32//32 35//35
f 16//16 11//11 29//29
f 40//40 38//38 10//10
f 16//16 29//29 40//40
f 40//40 30//30 38//38
f 11//11 43//43 14//14
f 21//21 18//18 6//6
f 41//41 2//2 43//43
f 16//16 42//42 11//11
f 25//25 30//30 40//40
f 41//41 11//11 42//42
f 11//11 41//41 43//43
f 25//25 40//40 29//29
f 34//34 32//32 20//20
f 18//18 23//23 17//17
f 18//18 3//3 6//6
f 21//21 39//39 18//18
f 20//20 28//28 30//30
f 19//19 20//20 32//32
f 46//46 44//44 45//45
f 43//43 23//23 14//14
f 22//22 45//45 37//37
f 46//46 45//45 22//22
f 44//44 18//18 39//39
f 39//39 45//45 44//44
f 46//46 32//32 34//34
f 45//45 39//39 24//24
f 35//35 32//32 22//22
f 23//23 44//44 14//14
# 67 faces, 0 coords texture

# End of File
