####
#
# OBJ File Generated by Meshlab
#
####
# Object 2161.obj
#
# Vertices: 47
# Faces: 67
#
####
vn 2.943022 -0.068459 -1.095809
v -72.642500 -50.000000 92.409200
vn 1.469755 -0.030512 -0.533020
v -72.790900 -50.000000 92.000000
vn 2.870530 -0.040538 -1.262698
v -69.309100 -39.181350 100.000000
vn 5.858904 -0.109038 -2.266896
v -72.253592 -47.711051 93.291220
vn 2.941022 -0.061123 -1.112782
v -72.769300 -48.959550 92.000000
vn 2.918606 -0.046821 -1.145346
v -72.659000 -40.993925 92.000000
vn 2.930085 -0.061073 -1.132102
v -72.611000 -38.958800 92.000000
vn 2.875015 -0.023334 -1.266332
v -69.601900 -38.000000 99.319500
vn 1.429601 -0.014643 -0.640537
v -69.297000 -38.000000 100.000000
vn 2.933173 -0.046959 -1.140409
v -72.673800 -42.966300 92.000000
vn 2.852837 -0.096050 -1.308970
v -69.812900 -50.000000 99.264300
vn 2.845666 -0.059963 -1.316358
v -69.417355 -48.448951 99.999991
vn 2.883927 -0.046359 -1.269131
v -69.389000 -42.441800 100.000000
vn 1.426368 -0.039037 -0.684587
v -69.459800 -50.000000 100.000000
vn 2.924456 -0.047426 -1.147064
v -71.945343 -38.000000 93.683718
vn 1.474612 -0.033989 -0.563632
v -72.588900 -38.000000 92.000000
vn 2.878344 -0.084117 -1.255442
v -70.362500 -50.000000 98.018000
vn 2.909226 -0.040981 -1.185363
v -71.067650 -38.000000 95.892300
vn 2.896639 -0.080984 -1.211084
v -71.306650 -50.000000 95.829050
vn 2.861850 -0.006892 -1.300410
v -69.392400 -44.630100 100.000000
vn 2.925301 -0.032676 -1.144849
v -72.751300 -47.280500 92.000000
vn 5.844587 -0.089642 -2.304548
v -72.122380 -46.153787 93.567596
vn 5.795795 -0.053944 -2.425399
v -70.832559 -45.993695 96.719463
vn 2.915917 -0.048480 -1.155006
v -72.734277 -45.312737 92.001743
vn 5.748938 -0.061364 -2.530366
v -70.182912 -46.991104 98.319647
vn 2.883902 -0.040696 -1.245617
v -70.288750 -38.000000 97.737150
vn 2.921983 -0.075372 -1.149995
v -71.954900 -50.000000 94.214350
vn 5.831489 -0.090384 -2.337445
v -71.428313 -39.514630 95.032971
vn 5.830850 -0.108280 -2.338192
v -71.386809 -41.257963 95.222480
vn 5.858260 -0.140441 -2.266422
v -72.080454 -48.946224 93.826269
vn 5.755962 -0.135292 -2.515007
v -70.337344 -48.844416 97.998249
vn 5.782747 -0.117637 -2.452865
v -70.832218 -47.855869 96.769940
vn 5.789323 -0.106283 -2.438266
v -70.659498 -39.956774 96.952375
vn 5.748624 -0.044867 -2.533495
v -70.118199 -45.115686 98.415855
vn 5.843407 -0.103785 -2.306888
v -72.046650 -40.174242 93.514111
vn 2.876306 -0.072062 -1.259055
v -69.349300 -40.901400 100.000000
vn 5.758847 -0.135096 -2.509090
v -69.968063 -41.303302 98.611677
vn 5.795022 -0.108492 -2.424567
v -70.688100 -42.144198 96.988393
vn 5.833501 -0.095900 -2.332017
v -71.416196 -43.170125 95.235333
vn 5.814631 -0.119305 -2.376188
v -71.548763 -47.391827 95.085392
vn 2.841215 -0.022135 -1.323050
v -69.387300 -46.335500 100.000000
vn 5.756047 -0.078251 -2.517017
v -70.048303 -43.291630 98.527575
vn 5.754871 -0.097301 -2.519527
v -69.858526 -39.485150 98.756262
vn 5.848368 -0.086847 -2.295007
v -72.076863 -42.189171 93.518313
vn 5.845616 -0.106371 -2.301204
v -72.121448 -44.179287 93.486451
vn 5.824604 -0.083784 -2.354332
v -71.473804 -45.138664 95.164345
vn 5.800104 -0.060563 -2.413936
v -70.780323 -44.025244 96.838859
# 47 vertices, 0 vertices normals

f 14//14 11//11 12//12
f 32//32 23//23 25//25
f 30//30 4//4 40//40
f 34//34 41//41 25//25
f 29//29 39//39 44//44
f 30//30 1//1 5//5
f 2//2 5//5 1//1
f 5//5 21//21 4//4
f 21//21 24//24 22//22
f 7//7 35//35 6//6
f 46//46 45//45 39//39
f 8//8 9//9 3//3
f 3//3 43//43 8//8
f 24//24 10//10 45//45
f 33//33 26//26 43//43
f 26//26 8//8 43//43
f 16//16 15//15 7//7
f 35//35 7//7 15//15
f 27//27 1//1 30//30
f 15//15 28//28 35//35
f 15//15 18//18 28//28
f 18//18 33//33 28//28
f 13//13 20//20 42//42
f 17//17 19//19 31//31
f 40//40 4//4 22//22
f 26//26 33//33 18//18
f 12//12 31//31 25//25
f 31//31 32//32 25//25
f 44//44 10//10 6//6
f 25//25 23//23 34//34
f 37//37 38//38 33//33
f 43//43 36//36 37//37
f 36//36 13//13 37//37
f 42//42 38//38 37//37
f 13//13 42//42 37//37
f 28//28 29//29 35//35
f 36//36 43//43 3//3
f 37//37 33//33 43//43
f 32//32 40//40 23//23
f 34//34 20//20 41//41
f 25//25 41//41 12//12
f 23//23 46//46 47//47
f 47//47 38//38 42//42
f 42//42 34//34 47//47
f 28//28 33//33 29//29
f 29//29 33//33 38//38
f 31//31 12//12 11//11
f 17//17 31//31 11//11
f 42//42 20//20 34//34
f 32//32 31//31 19//19
f 4//4 21//21 22//22
f 30//30 5//5 4//4
f 27//27 30//30 19//19
f 44//44 6//6 35//35
f 45//45 44//44 39//39
f 45//45 10//10 44//44
f 24//24 45//45 22//22
f 45//45 46//46 22//22
f 38//38 39//39 29//29
f 40//40 46//46 23//23
f 46//46 40//40 22//22
f 46//46 39//39 47//47
f 35//35 29//29 44//44
f 34//34 23//23 47//47
f 38//38 47//47 39//39
f 19//19 30//30 40//40
f 19//19 40//40 32//32
# 67 faces, 0 coords texture

# End of File
