####
#
# OBJ File Generated by Meshlab
#
####
# Object 2212S.obj
#
# Vertices: 30
# Faces: 44
#
####
vn -5.429148 -0.033393 -3.162515
v 83.081767 26.186346 80.520862
vn -5.442287 -0.038777 -3.139787
v 82.456856 24.458772 81.616258
vn -2.140274 0.000060 -1.229480
v 82.844200 20.523900 80.961700
vn -2.314940 -0.005419 -1.336030
v 83.872395 21.118175 79.180729
vn -2.238295 0.007286 -1.294996
v 85.149400 24.136000 76.959700
vn -2.483535 0.007651 -1.446353
v 85.102600 25.721800 77.057100
vn -2.207663 -0.023473 -1.310667
v 82.734200 30.590100 81.044200
vn -2.305199 -0.015020 -1.355760
v 80.950595 22.801000 84.227968
vn -2.157523 -0.003726 -1.281260
v 84.044000 29.826500 78.867800
vn -2.341769 -0.026982 -1.386293
v 80.510222 24.987169 84.939320
vn -2.374778 -0.048742 -1.418812
v 80.796838 28.182016 84.366689
vn -2.254974 -0.035541 -1.340585
v 81.669900 29.982600 82.851050
vn -2.432646 -0.001297 -1.403932
v 84.817600 22.888650 77.532350
vn -2.404050 -0.039668 -1.435439
v 80.542200 26.905600 84.836200
vn -5.440999 -0.021960 -3.141647
v 82.079673 22.692997 82.304486
vn -5.437796 -0.013422 -3.147781
v 83.391311 24.475238 79.997882
vn -5.410423 -0.078957 -3.193595
v 81.941176 28.829974 82.425299
vn -5.424748 -0.059544 -3.169670
v 82.402967 27.663111 81.659425
vn -5.407371 -0.046350 -3.199381
v 82.889328 29.148922 80.805186
vn -5.412064 -0.023232 -3.191720
v 83.473027 28.110518 79.830975
vn -2.416678 0.001881 -1.404910
v 81.683300 21.488100 82.984700
vn -5.422525 -0.051507 -3.173510
v 81.472045 24.468105 83.319443
vn -5.430252 -0.052814 -3.160327
v 81.954223 26.031799 82.465044
vn -2.440132 -0.000582 -1.434384
v 84.671336 28.184849 77.799455
vn -5.436097 0.011887 -3.150715
v 84.621437 24.461765 77.874073
vn -5.426375 -0.005165 -3.167429
v 84.096773 26.111812 78.782860
vn -5.408763 -0.083828 -3.195891
v 81.402808 27.208045 83.388765
vn -5.441014 -0.009300 -3.142238
v 84.001854 23.425926 78.945380
vn -5.448463 -0.016838 -3.129246
v 83.079296 22.800880 80.547736
vn -5.408418 -0.064781 -3.197312
v 81.113204 25.866308 83.902888
# 30 vertices, 0 vertices normals

f 25//25 5//5 13//13
f 25//25 6//6 5//5
f 19//19 7//7 9//9
f 26//26 20//20 24//24
f 20//20 18//18 19//19
f 3//3 15//15 29//29
f 20//20 19//19 9//9
f 11//11 17//17 27//27
f 18//18 1//1 23//23
f 16//16 29//29 2//2
f 12//12 7//7 17//17
f 19//19 17//17 7//7
f 4//4 29//29 28//28
f 29//29 4//4 3//3
f 15//15 3//3 21//21
f 15//15 21//21 8//8
f 8//8 22//22 15//15
f 13//13 28//28 25//25
f 9//9 24//24 20//20
f 1//1 20//20 26//26
f 17//17 11//11 12//12
f 23//23 1//1 2//2
f 2//2 1//1 16//16
f 28//28 13//13 4//4
f 22//22 8//8 10//10
f 30//30 14//14 27//27
f 22//22 23//23 2//2
f 20//20 1//1 18//18
f 26//26 24//24 6//6
f 19//19 18//18 17//17
f 28//28 29//29 16//16
f 22//22 10//10 30//30
f 25//25 26//26 6//6
f 27//27 18//18 23//23
f 27//27 14//14 11//11
f 16//16 26//26 25//25
f 27//27 17//17 18//18
f 1//1 26//26 16//16
f 28//28 16//16 25//25
f 29//29 15//15 2//2
f 22//22 2//2 15//15
f 22//22 30//30 23//23
f 27//27 23//23 30//30
f 30//30 10//10 14//14
# 44 faces, 0 coords texture

# End of File
