####
#
# OBJ File Generated by Meshlab
#
####
# Object 2218S.obj
#
# Vertices: 29
# Faces: 40
#
####
vn 5.519123 0.069110 -3.002038
v -81.817635 -9.772258 81.441876
vn 2.209592 0.023993 -1.213707
v -79.864800 -7.198160 85.068700
vn 2.328279 0.025823 -1.270933
v -81.234300 -15.861900 82.389100
vn 2.365852 0.033432 -1.306976
v -78.961500 -10.916200 86.634900
vn 2.427932 0.028584 -1.334154
v -80.992500 -6.402785 83.041450
vn 2.249783 0.031182 -1.221222
v -82.190300 -6.504600 80.849100
vn 2.443511 0.028091 -1.340289
v -79.234150 -9.000595 86.190350
vn 2.568958 0.029490 -1.400282
v -81.833950 -15.528800 81.290750
vn 2.426820 0.035352 -1.331627
v -82.553100 -14.764900 79.994100
vn 2.304664 0.020722 -1.258727
v -83.493400 -11.660100 78.349600
vn 2.726384 0.026565 -1.493641
v -83.436200 -10.105950 78.478650
vn 2.324971 0.042543 -1.301875
v -79.311400 -13.820900 85.926100
vn 2.309149 0.039205 -1.271828
v -80.093400 -15.308650 84.473400
vn 2.781521 0.034607 -1.515577
v -82.917800 -7.622020 79.471200
vn 2.003908 0.024417 -1.107728
v -83.341200 -8.223540 78.692000
vn 5.519984 0.064751 -3.000657
v -81.372045 -11.833133 82.223355
vn 5.501427 0.061879 -3.034591
v -79.722844 -10.696841 85.262347
vn 2.500765 0.041208 -1.355971
v -83.048770 -13.623702 79.120065
vn 5.515314 0.074643 -3.008893
v -81.416164 -8.151195 82.232542
vn 5.513413 0.058555 -3.012796
v -80.764721 -10.093914 83.378142
vn 5.509737 0.050549 -3.019700
v -82.487340 -11.264132 80.192360
vn 5.508662 0.067786 -3.020913
v -82.725159 -12.875789 79.739618
vn 5.505895 0.059071 -3.026531
v -80.336705 -8.576642 84.182332
vn 5.496321 0.094559 -3.042728
v -79.945653 -13.697470 84.797443
vn 2.581825 0.035105 -1.435507
v -79.072700 -12.425350 86.395000
vn 5.515482 0.075523 -3.008663
v -80.958398 -14.051285 82.931325
vn 5.508204 0.067420 -3.021880
v -80.306607 -12.279561 84.180162
vn 5.519332 0.072621 -3.001632
v -82.397863 -8.549845 80.407008
vn 5.508991 0.070580 -3.020604
v -81.975873 -13.336485 81.079373
# 29 vertices, 0 vertices normals

f 17//17 27//27 20//20
f 21//21 10//10 11//11
f 23//23 2//2 7//7
f 27//27 25//25 24//24
f 19//19 23//23 20//20
f 26//26 3//3 8//8
f 26//26 13//13 3//3
f 7//7 17//17 23//23
f 17//17 7//7 4//4
f 21//21 22//22 10//10
f 18//18 10//10 22//22
f 8//8 29//29 26//26
f 29//29 8//8 9//9
f 20//20 27//27 16//16
f 23//23 17//17 20//20
f 21//21 11//11 1//1
f 26//26 27//27 24//24
f 24//24 12//12 13//13
f 24//24 25//25 12//12
f 2//2 23//23 5//5
f 19//19 6//6 5//5
f 6//6 19//19 28//28
f 5//5 23//23 19//19
f 28//28 14//14 6//6
f 15//15 14//14 11//11
f 22//22 29//29 9//9
f 22//22 9//9 18//18
f 26//26 24//24 13//13
f 16//16 29//29 21//21
f 27//27 17//17 25//25
f 16//16 26//26 29//29
f 16//16 27//27 26//26
f 28//28 19//19 1//1
f 1//1 19//19 20//20
f 16//16 1//1 20//20
f 21//21 1//1 16//16
f 17//17 4//4 25//25
f 14//14 28//28 11//11
f 28//28 1//1 11//11
f 29//29 22//22 21//21
# 40 faces, 0 coords texture

# End of File
