####
#
# OBJ File Generated by Meshlab
#
####
# Object 2219S.obj
#
# Vertices: 75
# Faces: 116
#
####
vn 5.348769 -0.030108 -3.296676
v -86.516927 -43.150491 72.970692
vn 5.342438 -0.045920 -3.306746
v -86.943503 -45.047245 72.302002
vn 5.384937 -0.020711 -3.237298
v -84.694304 -34.480048 75.885281
vn 5.389607 0.023806 -3.229445
v -83.718764 -33.598816 77.517594
vn 5.351784 -0.032429 -3.291764
v -87.226209 -41.635444 71.808144
vn 5.394167 0.056549 -3.221406
v -82.875317 -33.000113 78.923884
vn 5.433383 0.079752 -3.154240
v -82.688401 -29.937762 79.307724
vn 5.349881 -0.041530 -3.294755
v -87.762122 -43.827871 70.961929
vn 2.106644 -0.024081 -1.305492
v -87.407000 -46.846200 71.588100
vn 3.276258 -0.031199 -2.011639
v -87.904100 -45.827100 70.760100
vn 2.234806 -0.010246 -1.398041
v -84.933300 -46.906800 75.551400
vn 2.432387 -0.021144 -1.518405
v -86.169050 -47.198800 73.579300
vn 1.519817 -0.007794 -0.921432
v -88.104500 -45.784700 70.429200
vn 3.253254 -0.026227 -1.990461
v -88.123300 -45.383800 70.394800
vn 2.573968 0.045018 -1.532262
v -81.368700 -35.170000 81.399800
vn 2.273185 -0.003756 -1.425158
v -84.062300 -45.716700 76.930600
vn 2.206805 -0.021397 -1.357349
v -88.638600 -44.358600 69.545300
vn 2.351662 0.063031 -1.365449
v -80.603000 -30.708000 82.891000
vn 2.319795 -0.028271 -1.417844
v -88.425062 -38.338207 69.803725
vn 2.520076 0.031315 -1.518908
v -81.838600 -36.455400 80.581650
vn 3.153624 0.013021 -1.935953
v -82.828800 -38.213800 78.924500
vn 2.517686 -0.020511 -1.544078
v -88.772500 -43.123500 69.304850
vn 2.397740 -0.020677 -1.471207
v -88.801851 -40.575997 69.230192
vn 2.682207 0.063578 -1.556292
v -80.845681 -32.482215 82.399003
vn 2.581288 0.056120 -1.514058
v -81.114300 -34.164700 81.868600
vn 2.505869 0.002449 -1.483223
v -85.535500 -30.837900 74.452500
vn 2.201587 0.002188 -1.372216
v -83.140100 -42.307400 78.417100
vn 2.514810 0.014940 -1.474692
v -84.987550 -28.980700 75.390550
vn 2.564361 -0.038227 -1.558849
v -87.548000 -36.468700 71.189750
vn 2.159930 0.047821 -1.238028
v -82.107000 -26.378300 80.440300
vn 2.579552 -0.021381 -1.561053
v -86.694500 -35.068700 72.575400
vn 3.275912 -0.024462 -1.981711
v -86.106900 -34.321900 73.540400
vn 2.696274 -0.013376 -1.612063
v -85.747700 -32.167250 74.100900
vn 2.296805 0.017190 -1.299143
v -83.926500 -26.786100 77.242700
vn 5.329847 -0.020060 -3.327251
v -85.130985 -45.347096 75.226341
vn 5.366480 0.043176 -3.267556
v -82.946573 -36.558444 78.750973
vn 5.358163 -0.047034 -3.281196
v -87.777659 -39.907193 70.888289
vn 5.349894 -0.025961 -3.294875
v -85.585632 -40.163760 74.465022
vn 5.382630 0.058944 -3.240674
v -82.650240 -34.778899 79.271701
vn 5.329114 0.000379 -3.328496
v -84.486151 -44.266492 76.252725
vn 2.653784 0.003891 -1.658876
v -83.734700 -44.536750 77.453600
vn 5.407269 0.088234 -3.198664
v -81.998175 -33.453542 80.391603
vn 5.421104 0.091407 -3.174977
v -82.363692 -31.688964 79.817928
vn 2.365582 0.057252 -1.362174
v -80.710300 -29.423200 82.770550
vn 5.428811 0.124005 -3.160822
v -81.433524 -32.154769 81.399256
vn 5.355480 -0.036855 -3.285651
v -86.672016 -39.783829 72.695885
vn 5.352236 -0.022817 -3.291110
v -86.300529 -41.411504 73.308805
vn 5.368157 0.021350 -3.265032
v -83.781743 -35.619521 77.392252
vn 5.362750 -0.068109 -3.273262
v -87.149530 -38.033808 71.888092
vn 5.350023 0.008728 -3.294756
v -83.869717 -37.556464 77.239032
vn 5.354954 -0.038547 -3.286544
v -88.126773 -41.798078 70.344601
vn 5.414523 0.018651 -3.187627
v -84.623428 -30.705278 75.999603
vn 5.341876 -0.014879 -3.307817
v -85.253809 -42.553740 75.023373
vn 5.409232 0.037526 -3.196384
v -83.559915 -31.547057 77.800743
vn 5.363986 -0.040511 -3.271724
v -85.902493 -37.858992 73.921349
vn 5.344789 0.001253 -3.303278
v -83.923918 -39.248387 77.152082
vn 5.351882 -0.009163 -3.291715
v -84.825989 -38.780674 75.691975
vn 2.389575 0.054890 -1.360822
v -81.268807 -27.626311 81.867285
vn 5.441155 0.116356 -3.139733
v -81.604979 -30.340385 81.183164
vn 5.452261 0.107617 -3.120791
v -81.876012 -28.551205 80.763739
vn 5.369999 -0.057583 -3.261590
v -86.562638 -36.546986 72.815123
vn 5.378328 -0.040538 -3.248127
v -85.736838 -35.578418 74.166571
vn 5.385573 -0.038955 -3.236066
v -85.389532 -33.657980 74.716053
vn 5.424361 0.051145 -3.170388
v -83.798005 -29.516530 77.414347
vn 2.492190 0.051757 -1.430898
v -83.238415 -26.390542 78.479696
vn 5.439317 0.064628 -3.144434
v -83.893062 -27.886246 77.287259
vn 2.682361 0.017178 -1.557188
v -84.360850 -27.642700 76.484150
vn 2.968701 -0.001282 -1.838864
v -83.203340 -40.766700 78.315607
vn 5.404135 -0.004461 -3.205159
v -84.715863 -32.442223 75.834670
vn 5.366163 -0.017734 -3.268241
v -84.858852 -36.599079 75.634001
vn 5.340790 -0.013281 -3.309671
v -84.481614 -40.748593 76.248714
vn 5.439642 0.106116 -3.142700
v -82.938721 -28.065456 78.928882
vn 5.334196 -0.037185 -3.320132
v -86.105785 -46.033121 73.664414
vn 5.333986 -0.001090 -3.320655
v -84.009527 -42.639217 77.021661
vn 5.341934 -0.020798 -3.307807
v -85.828849 -44.184637 74.096173
# 75 vertices, 0 vertices normals

f 8//8 10//10 14//14
f 36//36 20//20 21//21
f 6//6 4//4 54//54
f 39//39 48//48 4//4
f 6//6 43//43 42//42
f 50//50 48//48 36//36
f 43//43 59//59 45//45
f 8//8 5//5 1//1
f 60//60 30//30 58//58
f 60//60 7//7 72//72
f 72//72 66//66 65//65
f 63//63 62//62 32//32
f 69//69 54//54 4//4
f 33//33 63//63 32//32
f 14//14 10//10 13//13
f 9//9 10//10 2//2
f 54//54 64//64 7//7
f 12//12 9//9 73//73
f 9//9 2//2 73//73
f 20//20 36//36 39//39
f 15//15 20//20 39//39
f 40//40 41//41 16//16
f 59//59 60//60 44//44
f 15//15 39//39 42//42
f 39//39 6//6 42//42
f 14//14 17//17 8//8
f 44//44 18//18 59//59
f 5//5 47//47 1//1
f 47//47 46//46 38//38
f 38//38 53//53 47//47
f 53//53 1//1 47//47
f 49//49 19//19 29//29
f 21//21 56//56 50//50
f 21//21 68//68 56//56
f 21//21 50//50 36//36
f 37//37 23//23 19//19
f 3//3 4//4 48//48
f 52//52 64//64 54//54
f 10//10 8//8 2//2
f 53//53 38//38 71//71
f 35//35 40//40 16//16
f 35//35 16//16 11//11
f 42//42 25//25 15//15
f 28//28 52//52 26//26
f 57//57 38//38 55//55
f 38//38 46//46 55//55
f 48//48 50//50 70//70
f 5//5 37//37 46//46
f 46//46 37//37 49//49
f 47//47 5//5 46//46
f 64//64 28//28 66//66
f 67//67 66//66 28//28
f 6//6 39//39 4//4
f 39//39 36//36 48//48
f 46//46 49//49 55//55
f 55//55 49//49 61//61
f 60//60 58//58 44//44
f 59//59 7//7 60//60
f 6//6 54//54 43//43
f 42//42 43//43 45//45
f 43//43 54//54 7//7
f 1//1 75//75 2//2
f 61//61 49//49 29//29
f 3//3 62//62 63//63
f 43//43 7//7 59//59
f 64//64 72//72 7//7
f 37//37 51//51 23//23
f 31//31 62//62 61//61
f 32//32 62//62 31//31
f 26//26 52//52 69//69
f 33//33 69//69 63//63
f 69//69 33//33 26//26
f 72//72 64//64 66//66
f 64//64 52//52 28//28
f 61//61 29//29 31//31
f 65//65 30//30 72//72
f 65//65 66//66 34//34
f 59//59 18//18 45//45
f 24//24 45//45 18//18
f 66//66 67//67 34//34
f 75//75 35//35 73//73
f 40//40 35//35 75//75
f 53//53 40//40 75//75
f 68//68 27//27 74//74
f 3//3 63//63 69//69
f 3//3 69//69 4//4
f 53//53 74//74 40//40
f 8//8 22//22 51//51
f 70//70 62//62 3//3
f 48//48 70//70 3//3
f 70//70 50//50 57//57
f 37//37 5//5 51//51
f 51//51 22//22 23//23
f 49//49 37//37 19//19
f 75//75 73//73 2//2
f 5//5 8//8 51//51
f 52//52 54//54 69//69
f 22//22 8//8 17//17
f 45//45 24//24 25//25
f 45//45 25//25 42//42
f 70//70 55//55 62//62
f 70//70 57//57 55//55
f 71//71 38//38 57//57
f 73//73 11//11 12//12
f 73//73 35//35 11//11
f 60//60 72//72 30//30
f 2//2 8//8 1//1
f 71//71 56//56 68//68
f 56//56 57//57 50//50
f 40//40 74//74 41//41
f 68//68 74//74 71//71
f 74//74 53//53 71//71
f 71//71 57//57 56//56
f 62//62 55//55 61//61
f 74//74 27//27 41//41
f 75//75 1//1 53//53
# 116 faces, 0 coords texture

# End of File
