####
#
# OBJ File Generated by Meshlab
#
####
# Object 224.obj
#
# Vertices: 59
# Faces: 90
#
####
vn -2.021577 -0.044698 -2.404381
v 34.482300 50.000000 33.980800
vn -1.842067 -0.026953 -2.561505
v 28.382868 40.641864 38.718000
vn -4.055994 -0.012884 -4.798025
v 35.106765 42.162884 33.520967
vn -2.122223 -0.048897 -2.295655
v 38.220350 43.345800 30.718000
vn -4.022391 -0.013733 -4.826501
v 34.747845 40.019219 33.823805
vn -4.243363 -0.049725 -4.633453
v 37.537297 41.397552 31.375764
vn -1.835658 -0.012030 -2.549150
v 30.119700 50.000000 37.393000
vn -0.893205 -0.006968 -1.285588
v 28.215800 50.000000 38.718000
vn -1.799289 -0.036904 -2.594710
v 28.292126 46.262925 38.718000
vn -2.142914 -0.004942 -2.297281
v 37.472100 50.000000 31.293300
vn -3.889973 -0.064219 -4.933089
v 32.709871 48.750433 35.439760
vn -1.854555 -0.051273 -2.533866
v 30.023241 38.000000 37.569488
vn -0.920722 -0.015430 -1.281197
v 28.405500 38.000000 38.718000
vn -2.146725 -0.083614 -2.290389
v 38.155300 45.081700 30.718000
vn -2.114550 -0.023909 -2.323218
v 36.175750 50.000000 32.496650
vn -1.078905 0.017538 -1.157076
v 38.234500 38.000000 30.718000
vn -1.071672 0.000225 -1.148233
v 38.088500 50.000000 30.718000
vn -4.129508 0.019060 -4.734715
v 36.193451 39.357476 32.596770
vn -3.827023 -0.007599 -4.982970
v 31.376318 40.334381 36.516768
vn -3.890787 -0.018201 -4.933105
v 32.254872 44.170592 35.841423
vn -3.906512 0.010492 -4.920946
v 32.438668 41.922162 35.694136
vn -1.981731 -0.017376 -2.437151
v 33.629100 38.000000 34.760400
vn -4.157796 -0.058590 -4.708559
v 35.329453 48.568502 33.277613
vn -1.943046 -0.030939 -2.468394
v 32.584800 50.000000 35.522550
vn -3.964619 -0.000038 -4.874355
v 33.729788 41.517374 34.654881
vn -4.286349 -0.103531 -4.592440
v 36.760798 46.518469 31.969884
vn -3.987489 -0.033690 -4.854743
v 33.943751 45.526596 34.481935
vn -4.165537 -0.070764 -4.701450
v 35.432156 46.354975 33.212181
vn -3.640378 -0.100163 -5.119762
v 29.694795 47.213100 37.723670
vn -2.040520 0.007939 -2.388477
v 35.344300 38.000000 33.324000
vn -1.781963 -0.029205 -2.566056
v 28.224100 48.728300 38.718000
vn -4.104412 -0.034001 -4.755569
v 35.331132 44.138954 33.328446
vn -2.166612 -0.043662 -2.312045
v 38.091500 46.705650 30.718000
vn -4.253192 -0.121640 -4.622444
v 36.845451 44.737784 31.959077
vn -3.995821 -0.056441 -4.847611
v 33.993645 47.751669 34.420474
vn -1.783173 -0.016589 -2.577903
v 28.308750 44.152900 38.718000
vn -3.763325 -0.019413 -5.030958
v 30.910226 44.256742 36.875538
vn -3.782678 -0.067503 -5.014530
v 31.122687 46.001044 36.713287
vn -3.751976 -0.051573 -5.039046
v 30.357551 39.175447 37.301019
vn -2.110092 0.033187 -2.327259
v 37.104600 38.000000 31.770550
vn -1.896795 -0.029285 -2.504246
v 31.108400 50.000000 36.653300
vn -4.275900 -0.014987 -4.603714
v 36.795536 48.368581 31.929430
vn -1.804451 -0.026206 -2.562558
v 28.336100 42.485100 38.718000
vn -4.237928 0.010178 -4.637486
v 37.322459 39.610087 31.592828
vn -2.131203 0.007722 -2.288605
v 38.259700 39.625350 30.718000
vn -1.932528 -0.020606 -2.476523
v 32.060400 38.000000 36.006200
vn -2.147670 -0.002630 -2.294593
v 38.088250 48.810150 30.718000
vn -2.118527 -0.023306 -2.306345
v 38.252300 41.495300 30.718000
vn -3.624203 -0.048910 -5.132157
v 29.563892 48.744138 37.788176
vn -4.199053 -0.056905 -4.673024
v 36.612609 42.914928 32.202683
vn -4.144547 -0.029136 -4.721291
v 36.285029 40.968225 32.515058
vn -3.690152 -0.017191 -5.085060
v 29.910777 41.330071 37.612775
vn -3.971612 -0.001298 -4.868524
v 33.799048 43.260774 34.600443
vn -3.918975 -0.023316 -4.910999
v 32.934919 40.014348 35.297155
vn -3.639908 -0.045177 -5.120059
v 29.805550 45.275705 37.681918
vn -3.641152 -0.018747 -5.120134
v 29.742633 43.246304 37.729943
vn -3.785347 0.006903 -5.013032
v 31.092559 42.361484 36.753850
vn -3.767806 -0.072373 -5.027105
v 31.102262 48.191011 36.679593
vn -3.889923 -0.057916 -4.933680
v 32.478923 46.579661 35.643404
# 59 vertices, 0 vertices normals

f 30//30 5//5 18//18
f 31//31 49//49 29//29
f 1//1 35//35 11//11
f 32//32 53//53 27//27
f 27//27 59//59 35//35
f 23//23 15//15 42//42
f 10//10 17//17 47//47
f 38//38 58//58 59//59
f 28//28 34//34 32//32
f 19//19 52//52 57//57
f 22//22 46//46 54//54
f 46//46 19//19 54//54
f 24//24 1//1 11//11
f 53//53 21//21 20//20
f 42//42 26//26 23//23
f 8//8 7//7 49//49
f 9//9 29//29 55//55
f 30//30 22//22 5//5
f 22//22 54//54 5//5
f 57//57 20//20 21//21
f 59//59 58//58 11//11
f 21//21 25//25 54//54
f 13//13 39//39 12//12
f 9//9 31//31 29//29
f 31//31 8//8 49//49
f 3//3 32//32 50//50
f 26//26 14//14 34//34
f 33//33 14//14 26//26
f 1//1 23//23 35//35
f 36//36 9//9 55//55
f 55//55 56//56 36//36
f 56//56 37//37 57//57
f 37//37 20//20 57//57
f 37//37 56//56 55//55
f 35//35 59//59 11//11
f 37//37 38//38 20//20
f 27//27 53//53 20//20
f 25//25 3//3 5//5
f 25//25 5//5 54//54
f 18//18 40//40 30//30
f 24//24 11//11 41//41
f 41//41 58//58 7//7
f 57//57 52//52 56//56
f 2//2 43//43 52//52
f 43//43 36//36 56//56
f 23//23 1//1 15//15
f 40//40 18//18 44//44
f 45//45 16//16 44//44
f 40//40 44//44 16//16
f 46//46 12//12 39//39
f 42//42 47//47 33//33
f 14//14 4//4 34//34
f 34//34 4//4 50//50
f 47//47 42//42 10//10
f 15//15 10//10 42//42
f 32//32 27//27 28//28
f 26//26 28//28 23//23
f 23//23 28//28 35//35
f 35//35 28//28 27//27
f 33//33 26//26 42//42
f 32//32 3//3 53//53
f 58//58 49//49 7//7
f 28//28 26//26 34//34
f 32//32 34//34 50//50
f 51//51 44//44 18//18
f 6//6 4//4 48//48
f 51//51 50//50 6//6
f 29//29 49//49 58//58
f 29//29 58//58 38//38
f 6//6 48//48 45//45
f 6//6 45//45 44//44
f 51//51 6//6 44//44
f 3//3 50//50 51//51
f 50//50 4//4 6//6
f 53//53 25//25 21//21
f 51//51 5//5 3//3
f 19//19 57//57 21//21
f 53//53 3//3 25//25
f 21//21 54//54 19//19
f 55//55 38//38 37//37
f 51//51 18//18 5//5
f 39//39 52//52 19//19
f 58//58 41//41 11//11
f 56//56 52//52 43//43
f 38//38 55//55 29//29
f 59//59 20//20 38//38
f 59//59 27//27 20//20
f 39//39 13//13 2//2
f 39//39 2//2 52//52
f 39//39 19//19 46//46
# 90 faces, 0 coords texture

# End of File
