####
#
# OBJ File Generated by Meshlab
#
####
# Object 2243.obj
#
# Vertices: 49
# Faces: 72
#
####
vn 2.768661 0.010919 -1.478369
v -95.590075 -41.884000 57.720850
vn 5.588248 0.022944 -2.871680
v -94.273405 -44.953103 60.176140
vn 5.542716 0.054254 -2.958580
v -95.139781 -45.451282 58.529218
vn 2.768613 0.039690 -1.491848
v -95.581800 -45.538000 57.706600
vn 2.843442 -0.037255 -1.331959
v -91.303900 -47.055450 66.296826
vn 2.837769 0.019038 -1.347285
v -92.898200 -50.000000 62.902500
vn 2.851300 -0.003415 -1.318958
v -91.947196 -50.000000 64.955359
vn 2.791622 0.010952 -1.440910
v -94.040850 -38.000000 60.711600
vn 2.809425 0.009571 -1.405931
v -93.000850 -38.000000 62.762800
vn 1.427027 0.002071 -0.658644
v -91.317300 -50.000000 66.320100
vn 2.843566 -0.014957 -1.312032
v -91.318200 -48.902700 66.321600
vn 2.836282 0.004960 -1.367748
v -91.280000 -43.261100 66.255600
vn 2.780830 0.029252 -1.463701
v -95.560000 -48.946300 57.668700
vn 1.418974 -0.008379 -0.682046
v -91.285200 -38.000000 66.264500
vn 1.391791 0.016253 -0.747364
v -95.610600 -38.000000 57.756400
vn 2.787611 0.044793 -1.447094
v -94.718141 -50.000000 59.232245
vn 1.382026 0.013170 -0.735249
v -95.554800 -50.000000 57.659600
vn 5.627873 0.022604 -2.793693
v -92.979306 -41.546576 62.795095
vn 5.614374 0.023374 -2.820277
v -93.887036 -46.759253 60.921589
vn 5.660774 -0.004826 -2.726500
v -91.824746 -39.808389 65.158210
vn 5.665316 -0.046097 -2.716396
v -92.007812 -45.929949 64.769793
vn 5.677977 0.019597 -2.690235
v -92.668879 -48.693176 63.404481
vn 2.769135 0.018665 -1.494967
v -95.589100 -44.250600 57.719100
vn 5.687424 -0.033129 -2.670126
v -92.026702 -47.900021 64.768173
vn 2.773985 0.019510 -1.474553
v -95.000300 -38.000000 58.882950
vn 5.554606 0.052254 -2.936265
v -95.173691 -39.691441 58.533258
vn 2.827813 0.009987 -1.356732
v -91.289600 -40.976250 66.272200
vn 2.773431 0.028191 -1.463921
v -95.567100 -47.181250 57.680950
vn 5.570241 0.040775 -2.906598
v -94.843183 -46.984182 59.061208
vn 5.646359 -0.015208 -2.756225
v -92.562632 -45.061383 63.622828
vn 5.652836 -0.007098 -2.742748
v -91.946434 -43.925775 64.875933
vn 2.773163 0.033313 -1.463389
v -95.597800 -39.489800 57.734150
vn 5.592647 0.055323 -2.862956
v -94.363102 -48.564457 59.968035
vn 2.840425 -0.023778 -1.359543
v -91.283700 -44.803700 66.261800
vn 2.815405 0.032093 -1.392854
v -93.617800 -50.000000 61.409500
vn 5.639391 0.043961 -2.769849
v -93.458115 -48.506952 61.768698
vn 5.636123 0.003980 -2.776988
v -92.536081 -39.775015 63.690373
vn 5.651346 0.022688 -2.745823
v -92.045230 -41.713970 64.688254
vn 5.631282 0.005476 -2.786772
v -93.308581 -45.000509 62.097974
vn 2.829061 -0.009457 -1.358545
v -91.289100 -39.205800 66.271200
vn 5.637895 0.015955 -2.773275
v -92.695126 -43.362004 63.343714
vn 5.653978 0.002172 -2.740514
v -92.884715 -46.872855 62.969008
vn 2.825515 -0.007683 -1.373119
v -91.962500 -38.000000 64.855400
vn 5.615883 0.029699 -2.817456
v -93.577724 -43.231475 61.566482
vn 5.601285 0.040007 -2.846293
v -93.903885 -41.488912 60.944923
vn 5.607778 0.018811 -2.833618
v -93.451309 -39.749463 61.853072
vn 5.576365 0.038627 -2.894951
v -94.385945 -39.726290 60.038196
vn 5.559877 0.044874 -2.925875
v -94.807052 -41.585649 59.187429
vn 5.564596 0.032396 -2.916558
v -94.590135 -43.185955 59.575921
# 49 vertices, 0 vertices normals

f 10//10 7//7 11//11
f 5//5 24//24 21//21
f 36//36 35//35 33//33
f 34//34 21//21 31//31
f 46//46 9//9 37//37
f 39//39 30//30 42//42
f 30//30 39//39 41//41
f 18//18 38//38 41//41
f 46//46 37//37 18//18
f 3//3 23//23 49//49
f 23//23 1//1 48//48
f 2//2 3//3 49//49
f 4//4 23//23 3//3
f 25//25 8//8 47//47
f 27//27 12//12 38//38
f 28//28 4//4 3//3
f 19//19 29//29 2//2
f 29//29 3//3 2//2
f 25//25 26//26 15//15
f 32//32 15//15 26//26
f 12//12 34//34 31//31
f 34//34 5//5 21//21
f 6//6 35//35 36//36
f 35//35 16//16 33//33
f 33//33 16//16 13//13
f 17//17 13//13 16//16
f 30//30 21//21 42//42
f 9//9 43//43 37//37
f 20//20 37//37 43//43
f 28//28 29//29 13//13
f 27//27 20//20 40//40
f 40//40 20//20 43//43
f 21//21 30//30 31//31
f 7//7 6//6 22//22
f 44//44 2//2 49//49
f 19//19 39//39 42//42
f 33//33 29//29 19//19
f 19//19 42//42 36//36
f 20//20 38//38 37//37
f 37//37 38//38 18//18
f 40//40 43//43 14//14
f 19//19 2//2 39//39
f 39//39 2//2 44//44
f 31//31 30//30 41//41
f 45//45 18//18 44//44
f 44//44 18//18 41//41
f 36//36 33//33 19//19
f 11//11 24//24 5//5
f 41//41 38//38 31//31
f 44//44 41//41 39//39
f 45//45 46//46 18//18
f 22//22 36//36 42//42
f 47//47 45//45 48//48
f 47//47 46//46 45//45
f 45//45 49//49 48//48
f 25//25 47//47 26//26
f 22//22 6//6 36//36
f 8//8 46//46 47//47
f 47//47 48//48 26//26
f 46//46 8//8 9//9
f 42//42 24//24 22//22
f 38//38 12//12 31//31
f 33//33 13//13 29//29
f 3//3 29//29 28//28
f 20//20 27//27 38//38
f 1//1 26//26 48//48
f 24//24 11//11 7//7
f 24//24 7//7 22//22
f 21//21 24//24 42//42
f 32//32 26//26 1//1
f 49//49 23//23 48//48
f 44//44 49//49 45//45
# 72 faces, 0 coords texture

# End of File
