####
#
# OBJ File Generated by Meshlab
#
####
# Object 225.obj
#
# Vertices: 43
# Faces: 63
#
####
vn -0.243139 0.010010 -1.545217
v 6.727650 38.000000 50.370600
vn -0.673258 -0.030585 -3.070814
v 15.012700 48.140275 48.720800
vn -0.519491 -0.053831 -3.097808
v 9.643165 50.000000 49.799800
vn -0.423893 -0.045647 -3.117300
v 6.667495 46.946900 50.266400
vn -1.079752 -0.034220 -6.189066
v 8.525699 39.869466 50.099789
vn -0.859132 -0.114885 -6.219926
v 8.172117 48.451665 50.053954
vn -0.180983 -0.045945 -1.546860
v 6.618700 50.000000 50.181900
vn -0.682240 -0.035033 -3.072373
v 15.031300 39.556600 48.753000
vn -0.333041 -0.009233 -1.536664
v 15.007900 50.000000 48.712400
vn -0.683152 -0.003514 -3.061767
v 15.034751 44.052750 48.758906
vn -0.334072 -0.031951 -1.527860
v 15.048000 38.000000 48.781900
vn -1.010287 -0.051887 -6.201040
v 9.507141 45.046545 49.849965
vn -1.244348 -0.076376 -6.157573
v 11.869402 48.267469 49.404712
vn -1.078476 -0.066337 -6.189138
v 9.952796 48.289404 49.762188
vn -1.332591 -0.059439 -6.139928
v 13.639236 48.318251 49.019136
vn -0.643253 -0.034413 -3.074909
v 12.703450 50.000000 49.209750
vn -0.353956 -0.096345 -3.120197
v 6.639070 48.731300 50.217200
vn -0.384035 -0.107350 -3.116627
v 7.940920 50.000000 50.027200
vn -0.537599 -0.034685 -3.093757
v 9.200090 38.000000 50.007250
vn -1.363503 -0.028614 -6.133241
v 13.583141 40.598145 49.068493
vn -0.679146 -0.043564 -3.066985
v 13.478850 38.000000 49.125000
vn -0.635065 -0.043359 -3.075929
v 11.391350 38.000000 49.580850
vn -1.226571 -0.079514 -6.161559
v 10.869213 39.519623 49.663983
vn -1.021709 -0.135912 -6.196512
v 8.184060 41.989689 50.139930
vn -1.070667 -0.103418 -6.189613
v 9.555827 43.396135 49.875416
vn -1.332911 0.017645 -6.140056
v 13.290230 42.475077 49.138335
vn -1.110573 -0.036392 -6.182309
v 10.570848 46.542931 49.678707
vn -0.515639 -0.012954 -3.117561
v 6.748448 40.331191 50.406618
vn -0.464524 -0.090734 -3.098149
v 6.705870 42.648750 50.332850
vn -1.211273 -0.022258 -6.165072
v 11.362779 42.930949 49.539545
vn -0.680946 0.008108 -3.069143
v 15.029100 42.039100 48.749100
vn -1.274038 -0.064984 -6.152204
v 12.428446 46.327057 49.303766
vn -0.488609 -0.038440 -3.104032
v 6.688590 44.737850 50.302950
vn -0.975380 -0.111544 -6.205476
v 8.069983 44.109499 50.086755
vn -1.169305 -0.054240 -6.173109
v 9.938292 41.449051 49.822054
vn -0.687204 -0.033941 -3.064234
v 15.023900 46.389000 48.740100
vn -0.588899 -0.046919 -3.085617
v 11.086800 50.000000 49.525900
vn -1.150778 -0.039516 -6.176487
v 11.052362 44.823883 49.588384
vn -1.285468 -0.026381 -6.149049
v 12.883804 44.376849 49.237819
vn -0.959666 -0.036755 -6.209232
v 8.453009 46.361819 50.014400
vn -1.346805 -0.074493 -6.136565
v 14.026711 46.087263 48.967078
vn -1.286553 -0.041578 -6.149702
v 11.919969 40.763203 49.436068
vn -1.348489 -0.074135 -6.136222
v 12.898887 39.191509 49.239638
# 43 vertices, 0 vertices normals

f 16//16 15//15 13//13
f 7//7 18//18 17//17
f 17//17 18//18 6//6
f 20//20 8//8 43//43
f 28//28 24//24 5//5
f 24//24 34//34 25//25
f 31//31 20//20 26//26
f 13//13 32//32 27//27
f 37//37 13//13 14//14
f 23//23 35//35 42//42
f 25//25 38//38 30//30
f 40//40 34//34 33//33
f 34//34 40//40 12//12
f 28//28 5//5 1//1
f 16//16 9//9 15//15
f 3//3 6//6 18//18
f 19//19 1//1 5//5
f 22//22 43//43 21//21
f 22//22 19//19 23//23
f 39//39 10//10 26//26
f 28//28 29//29 24//24
f 29//29 33//33 34//34
f 24//24 29//29 34//34
f 39//39 41//41 10//10
f 10//10 31//31 26//26
f 31//31 8//8 20//20
f 26//26 20//20 42//42
f 21//21 8//8 11//11
f 5//5 24//24 35//35
f 27//27 32//32 38//38
f 38//38 32//32 39//39
f 33//33 4//4 40//40
f 35//35 30//30 42//42
f 19//19 5//5 23//23
f 15//15 2//2 41//41
f 36//36 10//10 41//41
f 13//13 15//15 32//32
f 3//3 37//37 14//14
f 37//37 16//16 13//13
f 12//12 40//40 27//27
f 27//27 40//40 14//14
f 43//43 22//22 23//23
f 14//14 13//13 27//27
f 25//25 12//12 38//38
f 30//30 38//38 39//39
f 27//27 38//38 12//12
f 25//25 35//35 24//24
f 35//35 25//25 30//30
f 30//30 39//39 26//26
f 23//23 5//5 35//35
f 25//25 34//34 12//12
f 40//40 6//6 14//14
f 39//39 32//32 41//41
f 40//40 4//4 6//6
f 17//17 6//6 4//4
f 41//41 2//2 36//36
f 14//14 6//6 3//3
f 15//15 41//41 32//32
f 21//21 43//43 8//8
f 30//30 26//26 42//42
f 15//15 9//9 2//2
f 20//20 43//43 42//42
f 23//23 42//42 43//43
# 63 faces, 0 coords texture

# End of File
