####
#
# OBJ File Generated by Meshlab
#
####
# Object 2253S.obj
#
# Vertices: 25
# Faces: 35
#
####
vn -5.355747 -0.019052 -3.285384
v 85.005753 35.070135 79.725436
vn -5.353830 0.009653 -3.288480
v 85.853901 34.839470 78.341845
vn -5.352102 0.067522 -3.290452
v 87.241900 35.931955 76.116613
vn -2.164618 0.022367 -1.313781
v 86.994700 33.397200 76.455200
vn -2.285455 -0.021878 -1.402603
v 83.916260 36.108826 81.495723
vn -2.239013 -0.012885 -1.366839
v 84.536900 34.026600 80.503300
vn -2.298439 0.010879 -1.438489
v 87.333500 40.453650 76.025150
vn -2.320913 0.002064 -1.411310
v 85.794150 33.031000 78.443250
vn -2.220068 0.022956 -1.379975
v 87.923550 38.704450 75.058200
vn -2.262268 0.001576 -1.429620
v 86.512950 41.435300 77.334050
vn -2.094228 -0.003505 -1.333636
v 85.450000 41.635200 79.004400
vn -2.185335 -0.019070 -1.366105
v 83.820650 38.661300 81.593350
vn -2.230276 -0.009733 -1.414373
v 84.301700 40.300500 80.807450
vn -5.334754 0.042561 -3.319141
v 86.541785 36.528633 77.253538
vn -5.358624 0.055886 -3.280208
v 86.703945 34.599716 76.954727
vn -2.373825 0.037270 -1.451610
v 87.471150 34.260750 75.693600
vn -5.328019 0.008106 -3.330198
v 85.578183 37.180308 78.799729
vn -5.341365 -0.037745 -3.308532
v 84.571622 36.761303 80.417835
vn -5.322335 0.024425 -3.339184
v 86.420486 38.753203 77.470557
vn -2.258884 0.028386 -1.381651
v 87.962053 36.140462 74.939574
vn -2.450409 -0.008728 -1.494204
v 85.069500 33.415200 79.634500
vn -5.310598 0.005490 -3.357905
v 86.217451 40.393191 77.800507
vn -5.304949 -0.000763 -3.366844
v 85.444671 39.587536 79.018628
vn -5.316495 -0.021625 -3.348505
v 84.789765 38.430261 80.052027
vn -5.337293 0.045609 -3.315029
v 87.287471 38.320603 76.075122
# 25 vertices, 0 vertices normals

f 8//8 15//15 4//4
f 14//14 3//3 15//15
f 1//1 2//2 21//21
f 2//2 17//17 14//14
f 15//15 16//16 4//4
f 19//19 22//22 7//7
f 22//22 19//19 23//23
f 2//2 15//15 8//8
f 24//24 18//18 12//12
f 6//6 5//5 1//1
f 18//18 1//1 5//5
f 11//11 22//22 23//23
f 22//22 11//11 10//10
f 2//2 14//14 15//15
f 15//15 3//3 16//16
f 23//23 17//17 24//24
f 24//24 12//12 13//13
f 23//23 24//24 13//13
f 3//3 20//20 16//16
f 17//17 1//1 18//18
f 8//8 21//21 2//2
f 21//21 6//6 1//1
f 2//2 1//1 17//17
f 3//3 25//25 20//20
f 17//17 23//23 19//19
f 22//22 10//10 7//7
f 23//23 13//13 11//11
f 3//3 14//14 25//25
f 14//14 19//19 25//25
f 14//14 17//17 19//19
f 18//18 5//5 12//12
f 24//24 17//17 18//18
f 25//25 9//9 20//20
f 25//25 19//19 7//7
f 25//25 7//7 9//9
# 35 faces, 0 coords texture

# End of File
