####
#
# OBJ File Generated by Meshlab
#
####
# Object 2277.obj
#
# Vertices: 50
# Faces: 75
#
####
vn 2.845353 0.019172 -1.319906
v -92.472979 43.969525 68.321890
vn 2.821030 0.007006 -1.382207
v -94.225207 50.000000 64.599636
vn 5.685529 0.067402 -2.672776
v -93.846567 42.082741 65.283685
vn 2.812290 0.026692 -1.400008
v -94.938900 38.000000 62.978050
vn 2.785859 0.033172 -1.468264
v -96.690800 43.021050 59.627250
vn 5.646292 0.064012 -2.754702
v -94.587774 43.228556 63.762544
vn 5.608334 0.069880 -2.831612
v -95.471968 44.648028 62.022209
vn 1.435352 0.009862 -0.647389
v -92.444700 38.000000 68.272800
vn 2.865044 0.026520 -1.298630
v -92.451100 39.981500 68.284000
vn 5.696382 0.033833 -2.650880
v -93.116480 44.875562 66.951874
vn 2.855734 0.033322 -1.302475
v -92.462400 41.625350 68.303500
vn 2.850064 -0.002490 -1.329419
v -92.472550 48.142550 68.320950
vn 2.848283 0.001255 -1.325301
v -93.115900 50.000000 66.929750
vn 1.425002 0.002513 -0.654812
v -92.476600 50.000000 68.328000
vn 2.798131 0.041635 -1.446267
v -96.722600 47.177350 59.682350
vn 1.395383 -0.001790 -0.717396
v -96.727300 50.000000 59.690400
vn 2.814396 0.026028 -1.395762
v -95.918600 38.000000 61.005700
vn 2.804893 0.033614 -1.398561
v -96.647700 39.015800 59.552600
vn 1.402652 0.012582 -0.694992
v -96.642800 38.000000 59.544100
vn 2.784144 0.043928 -1.434177
v -96.696800 44.976150 59.637600
vn 2.797755 0.011794 -1.429021
v -95.345250 50.000000 62.387000
vn 5.667572 0.011374 -2.712193
v -94.128426 46.998358 64.804898
vn 5.688556 -0.011019 -2.667978
v -93.210914 46.942047 66.755535
vn 5.691545 0.078253 -2.660403
v -93.822591 43.912475 65.398298
vn 5.713631 0.071826 -2.612941
v -93.220019 41.350754 66.630033
vn 5.709539 0.069125 -2.621955
v -93.128960 42.956299 66.878085
vn 5.624701 0.047492 -2.799796
v -95.200277 40.121483 62.491616
vn 2.796243 0.049982 -1.433484
v -96.667950 40.815300 59.587800
vn 2.825112 0.037588 -1.372839
v -94.223500 38.000000 64.410700
vn 5.642840 0.057519 -2.762550
v -94.375404 39.251423 64.132367
vn 5.617597 0.047664 -2.813980
v -95.337209 42.217379 62.246887
vn 5.587883 0.069111 -2.871819
v -96.152661 42.772998 60.642701
vn 5.718683 0.059625 -2.602097
v -92.952376 39.849208 67.175380
vn 5.683031 0.060301 -2.678570
v -93.743388 40.208068 65.464080
vn 2.797218 0.003372 -1.443001
v -96.729100 48.873400 59.693600
vn 5.627832 0.054236 -2.793380
v -95.764699 39.163386 61.337794
vn 5.640271 0.043933 -2.768157
v -94.543229 41.171733 63.827351
vn 5.615027 0.056870 -2.817812
v -95.044650 46.919313 62.913881
vn 5.587616 0.043147 -2.873057
v -95.571198 48.609637 61.937759
vn 5.623951 0.028210 -2.801015
v -94.647578 48.601202 63.742633
vn 5.658038 0.056616 -2.731383
v -94.497967 45.233499 64.009921
vn 2.848530 0.031025 -1.323642
v -93.481300 38.000000 65.969050
vn 2.842122 0.000056 -1.336139
v -92.473700 46.372800 68.323000
vn 2.794633 0.002617 -1.435136
v -96.140000 50.000000 60.836700
vn 5.673551 -0.011126 -2.699192
v -93.692115 48.568885 65.704022
vn 5.698366 -0.012933 -2.646927
v -92.966486 48.680975 67.256847
vn 5.584533 0.026876 -2.879202
v -96.320827 48.625650 60.484448
vn 5.688712 0.038895 -2.667403
v -93.751483 45.523017 65.592838
vn 5.582404 0.084357 -2.882279
v -95.980396 46.848792 61.106136
vn 5.612780 0.066285 -2.823114
v -95.999005 40.837209 60.899857
# 50 vertices, 0 vertices normals

f 11//11 25//25 26//26
f 17//17 19//19 18//18
f 2//2 45//45 40//40
f 7//7 49//49 38//38
f 1//1 26//26 10//10
f 28//28 5//5 32//32
f 29//29 4//4 30//30
f 5//5 20//20 32//32
f 1//1 11//11 26//26
f 40//40 45//45 22//22
f 31//31 32//32 7//7
f 8//8 42//42 33//33
f 11//11 9//9 33//33
f 46//46 14//14 12//12
f 14//14 46//46 13//13
f 13//13 46//46 45//45
f 48//48 41//41 22//22
f 28//28 50//50 18//18
f 36//36 17//17 18//18
f 3//3 37//37 6//6
f 41//41 38//38 22//22
f 21//21 2//2 40//40
f 40//40 39//39 21//21
f 6//6 31//31 7//7
f 41//41 6//6 7//7
f 42//42 29//29 30//30
f 12//12 43//43 23//23
f 43//43 1//1 10//10
f 50//50 31//31 27//27
f 24//24 10//10 26//26
f 3//3 26//26 25//25
f 4//4 27//27 30//30
f 34//34 42//42 30//30
f 8//8 33//33 9//9
f 34//34 33//33 42//42
f 49//49 39//39 38//38
f 38//38 39//39 40//40
f 39//39 44//44 21//21
f 50//50 27//27 36//36
f 31//31 37//37 27//27
f 37//37 31//31 6//6
f 34//34 37//37 3//3
f 34//34 25//25 33//33
f 46//46 12//12 23//23
f 46//46 23//23 45//45
f 45//45 23//23 22//22
f 41//41 7//7 38//38
f 38//38 40//40 22//22
f 23//23 48//48 22//22
f 48//48 23//23 10//10
f 23//23 43//43 10//10
f 24//24 41//41 48//48
f 24//24 6//6 41//41
f 24//24 26//26 3//3
f 6//6 24//24 3//3
f 33//33 25//25 11//11
f 47//47 35//35 16//16
f 13//13 45//45 2//2
f 47//47 16//16 44//44
f 47//47 44//44 39//39
f 49//49 47//47 39//39
f 24//24 48//48 10//10
f 47//47 15//15 35//35
f 47//47 49//49 15//15
f 30//30 27//27 37//37
f 34//34 30//30 37//37
f 34//34 3//3 25//25
f 36//36 27//27 4//4
f 17//17 36//36 4//4
f 15//15 49//49 20//20
f 50//50 36//36 18//18
f 50//50 32//32 31//31
f 32//32 50//50 28//28
f 20//20 49//49 7//7
f 32//32 20//20 7//7
# 75 faces, 0 coords texture

# End of File
