####
#
# OBJ File Generated by Meshlab
#
####
# Object 2279.obj
#
# Vertices: 45
# Faces: 64
#
####
vn -2.929401 0.006562 -1.134434
v 77.152000 -50.000000 94.612550
vn -5.799039 0.006493 -2.418522
v 76.207049 -41.674097 97.085005
vn -5.864181 0.038850 -2.252738
v 77.668371 -42.099920 93.497218
vn -5.794456 0.045480 -2.428995
v 75.881389 -39.794948 97.883068
vn -2.885328 -0.013498 -1.247455
v 74.957400 -46.764000 100.000000
vn -1.446434 0.019693 -0.625986
v 75.002300 -38.000000 100.000000
vn -2.890637 0.039545 -1.229077
v 75.430600 -38.000000 99.010350
vn -2.917514 0.020511 -1.164993
v 76.369800 -50.000000 96.559450
vn -5.878790 0.101498 -2.215294
v 77.590428 -45.755995 93.519788
vn -2.886196 0.015251 -1.241038
v 74.963679 -43.281350 99.999991
vn -5.810411 0.027050 -2.390139
v 76.500189 -43.417919 96.387634
vn -1.470119 -0.003379 -0.555602
v 78.219400 -38.000000 92.000000
vn -2.898338 0.006783 -1.211512
v 75.487900 -50.000000 98.765650
vn -2.962467 0.015323 -1.053678
v 78.099800 -49.756700 92.000000
vn -1.480371 0.000608 -0.525676
v 78.099700 -50.000000 92.000000
vn -2.908406 0.024626 -1.186985
v 76.440162 -38.000000 96.579645
vn -1.435872 0.014449 -0.626765
v 74.949100 -50.000000 100.000000
vn -5.801135 0.026310 -2.412883
v 76.071066 -45.329476 97.390999
vn -2.884546 0.027720 -1.233394
v 74.979800 -39.652600 100.000000
vn -2.940867 0.056180 -1.100738
v 78.171900 -45.087100 92.000100
vn -5.835483 0.051952 -2.328018
v 76.441590 -47.115765 96.458801
vn -2.939083 -0.007317 -1.109712
v 78.221900 -39.087550 92.000000
vn -5.845359 0.035432 -2.303976
v 76.785232 -48.691722 95.539029
vn -2.934636 -0.010777 -1.121335
v 77.681700 -38.000000 93.422750
vn -5.781172 0.020319 -2.460612
v 75.717645 -43.424124 98.248898
vn -2.952770 0.032811 -1.085260
v 78.124698 -47.466031 92.001824
vn -2.940745 0.047035 -1.094998
v 78.210300 -43.058600 92.000050
vn -2.939006 0.003404 -1.097674
v 78.227150 -41.320100 92.000000
vn -2.877214 -0.005467 -1.247180
v 74.948600 -45.622800 100.000000
vn -5.770784 0.005592 -2.485043
v 75.364725 -45.319793 99.038681
vn -5.872027 0.107640 -2.232741
v 77.587667 -44.064071 93.611745
vn -5.819215 0.021694 -2.369388
v 76.701498 -39.831071 95.898707
vn -2.920671 0.003200 -1.157156
v 77.101900 -38.000000 94.917000
vn -5.782527 0.019237 -2.457694
v 75.445778 -41.533102 98.893285
vn -2.891509 0.012699 -1.231516
v 74.974700 -41.469100 100.000000
vn -2.894159 0.007678 -1.235003
v 74.962900 -48.628650 100.000000
vn -5.846126 0.072736 -2.300683
v 76.910887 -45.212143 95.319440
vn -5.840088 0.059174 -2.316098
v 77.128520 -43.248754 94.834878
vn -2.956201 0.021349 -1.063092
v 77.683100 -50.000000 93.173200
vn -5.870609 0.053792 -2.238365
v 77.225606 -47.212745 94.433187
vn -5.888883 0.024810 -2.188880
v 77.516249 -48.832045 93.661675
vn -5.791367 0.011685 -2.435696
v 75.645521 -47.115690 98.408868
vn -5.821959 0.002654 -2.362650
v 76.980199 -41.697564 95.213769
vn -5.855095 -0.011093 -2.278581
v 77.531567 -39.940785 93.834922
vn -5.819903 0.041691 -2.367141
v 75.930903 -48.638514 97.688952
# 45 vertices, 0 vertices normals

f 23//23 8//8 45//45
f 14//14 15//15 39//39
f 16//16 32//32 4//4
f 35//35 19//19 34//34
f 36//36 13//13 17//17
f 42//42 18//18 21//21
f 19//19 6//6 7//7
f 20//20 26//26 9//9
f 3//3 44//44 28//28
f 12//12 22//22 24//24
f 44//44 24//24 22//22
f 11//11 25//25 2//2
f 45//45 21//21 23//23
f 14//14 39//39 41//41
f 27//27 20//20 31//31
f 28//28 27//27 3//3
f 2//2 32//32 43//43
f 5//5 29//29 30//30
f 29//29 10//10 30//30
f 45//45 42//42 21//21
f 16//16 33//33 32//32
f 33//33 24//24 44//44
f 10//10 34//34 25//25
f 34//34 10//10 35//35
f 5//5 42//42 36//36
f 41//41 40//40 26//26
f 18//18 25//25 11//11
f 37//37 38//38 31//31
f 4//4 32//32 2//2
f 16//16 4//4 7//7
f 21//21 37//37 40//40
f 43//43 44//44 3//3
f 31//31 38//38 3//3
f 31//31 3//3 27//27
f 38//38 37//37 11//11
f 37//37 18//18 11//11
f 26//26 40//40 9//9
f 18//18 30//30 25//25
f 30//30 10//10 25//25
f 41//41 39//39 1//1
f 21//21 18//18 37//37
f 40//40 37//37 9//9
f 23//23 1//1 8//8
f 41//41 1//1 23//23
f 40//40 41//41 23//23
f 23//23 21//21 40//40
f 13//13 36//36 45//45
f 13//13 45//45 8//8
f 34//34 2//2 25//25
f 42//42 5//5 30//30
f 42//42 30//30 18//18
f 34//34 4//4 2//2
f 14//14 41//41 26//26
f 34//34 19//19 4//4
f 19//19 7//7 4//4
f 31//31 20//20 9//9
f 32//32 44//44 43//43
f 44//44 22//22 28//28
f 37//37 31//31 9//9
f 38//38 43//43 3//3
f 33//33 44//44 32//32
f 11//11 2//2 43//43
f 11//11 43//43 38//38
f 45//45 36//36 42//42
# 64 faces, 0 coords texture

# End of File
