####
#
# OBJ File Generated by Meshlab
#
####
# Object 2325S.obj
#
# Vertices: 22
# Faces: 29
#
####
vn 5.583526 0.077171 -2.880221
v -85.149794 9.478118 82.608864
vn 5.578397 0.066753 -2.890565
v -85.410373 7.562754 82.063750
vn 5.592579 0.076776 -2.862772
v -84.581454 7.822905 83.679057
vn 5.589274 0.073317 -2.869166
v -84.532639 6.071207 83.722138
vn 2.413452 0.034935 -1.248270
v -86.624900 9.971720 79.782950
vn 2.208704 0.019643 -1.148451
v -83.961600 11.030600 84.952900
vn 2.338174 0.028665 -1.193011
v -84.035600 4.752640 84.664600
vn 2.251627 0.023872 -1.162665
v -83.252300 7.995940 86.270300
vn 2.267079 0.035865 -1.176328
v -85.812850 11.408200 81.392900
vn 2.446048 0.030499 -1.263382
v -84.858052 4.187851 83.050437
vn 2.301699 0.035873 -1.189876
v -85.767900 4.358730 81.292500
vn 2.334528 0.030725 -1.206263
v -86.524450 5.550200 79.868300
vn 2.412496 0.032501 -1.245779
v -86.853200 8.953070 79.312900
vn 2.377066 0.030146 -1.222649
v -86.872500 7.178925 79.227750
vn 5.590577 0.071225 -2.866755
v -83.955238 7.426693 84.897297
vn 5.586607 0.064394 -2.874628
v -84.282138 9.483723 84.309982
vn 2.470317 0.024501 -1.278057
v -83.399500 9.254765 86.010050
vn 2.461844 0.032975 -1.255904
v -83.646500 5.695745 85.456700
vn 5.581172 0.068952 -2.885149
v -86.268184 7.384454 80.407723
vn 2.425779 0.033703 -1.253048
v -84.753932 11.606023 83.443380
vn 5.577080 0.075376 -2.892900
v -86.054530 9.121220 80.861922
vn 5.578238 0.073375 -2.890700
v -85.596343 5.770379 81.666919
# 22 vertices, 0 vertices normals

f 21//21 13//13 5//5
f 21//21 19//19 13//13
f 1//1 3//3 2//2
f 15//15 8//8 18//18
f 9//9 1//1 21//21
f 1//1 2//2 21//21
f 3//3 4//4 2//2
f 15//15 17//17 8//8
f 4//4 22//22 2//2
f 10//10 4//4 7//7
f 18//18 7//7 4//4
f 19//19 14//14 13//13
f 1//1 16//16 3//3
f 20//20 1//1 9//9
f 10//10 22//22 4//4
f 20//20 6//6 16//16
f 22//22 11//11 12//12
f 17//17 16//16 6//6
f 19//19 22//22 12//12
f 12//12 14//14 19//19
f 16//16 1//1 20//20
f 21//21 5//5 9//9
f 4//4 3//3 15//15
f 2//2 19//19 21//21
f 22//22 19//19 2//2
f 16//16 17//17 15//15
f 3//3 16//16 15//15
f 22//22 10//10 11//11
f 4//4 15//15 18//18
# 29 faces, 0 coords texture

# End of File
