####
#
# OBJ File Generated by Meshlab
#
####
# Object 2347.obj
#
# Vertices: 46
# Faces: 69
#
####
vn 2.902106 -0.007633 -1.221645
v -80.470050 39.719200 92.000000
vn 5.662997 0.025373 -2.721188
v -77.474937 43.405821 98.802788
vn 2.831558 0.033839 -1.356901
v -76.950250 48.704150 100.000000
vn 1.425183 0.011781 -0.673934
v -76.967800 50.000000 100.000000
vn 2.797794 0.027236 -1.412045
v -76.865900 40.175100 100.000000
vn 1.408918 0.001060 -0.696353
v -76.869900 38.000000 100.000000
vn 2.888661 -0.017879 -1.234733
v -79.611400 38.000000 94.066300
vn 1.441023 -0.016759 -0.612331
v -80.491900 38.000000 92.000000
vn 1.451718 0.001108 -0.598828
v -80.525600 50.000000 92.000000
vn 2.881457 -0.001974 -1.251698
v -79.010800 38.000000 95.451300
vn 5.645455 0.025842 -2.754143
v -77.515116 41.382540 98.762736
vn 5.782142 0.054464 -2.457424
v -79.922514 42.825688 93.376611
vn 2.843221 -0.039549 -1.333358
v -78.281000 38.000000 97.116100
vn 5.702204 0.038717 -2.638301
v -78.300053 47.994183 97.120118
vn 5.783866 0.010960 -2.453771
v -79.776527 48.701552 93.813551
vn 5.684843 0.055002 -2.675030
v -77.521813 48.501817 98.802225
vn 2.851295 0.011610 -1.318798
v -78.046800 50.000000 97.690700
vn 5.635774 0.037646 -2.777372
v -77.471876 39.542913 98.784381
vn 5.787286 -0.033248 -2.446153
v -79.993218 39.156129 93.141925
vn 2.904306 0.005057 -1.195146
v -80.523950 48.501700 92.000000
vn 2.890441 0.005501 -1.230342
v -79.715400 50.000000 93.962200
vn 2.898251 0.025619 -1.203742
v -80.505550 43.750200 92.000000
vn 5.786649 0.048714 -2.446821
v -79.970276 45.078388 93.311627
vn 5.789008 0.036480 -2.442110
v -79.911178 40.793834 93.340948
vn 5.777595 0.001468 -2.469295
v -79.367846 39.580439 94.618489
vn 5.739279 0.006632 -2.556332
v -78.606037 39.344546 96.383119
vn 2.831865 0.030107 -1.361629
v -76.912900 44.278900 100.000000
vn 5.755432 0.061242 -2.519066
v -79.388130 45.694774 94.680604
vn 2.815883 0.009839 -1.398755
v -76.893250 42.034650 100.000000
vn 2.870165 0.008162 -1.276985
v -78.999650 50.000000 95.603750
vn 5.732793 0.019387 -2.570949
v -78.911924 48.991544 95.794478
vn 2.905923 0.013157 -1.193415
v -80.515800 46.294850 92.000000
vn 5.669468 0.031082 -2.707439
v -77.417567 45.147080 98.976078
vn 5.695464 0.030179 -2.652013
v -78.043507 44.755161 97.649612
vn 2.901484 0.031217 -1.210437
v -80.483650 41.972850 92.000000
vn 5.684628 0.030812 -2.675819
v -77.713177 46.694928 98.337084
vn 5.706907 0.002117 -2.627834
v -78.150852 42.659032 97.393746
vn 5.739941 0.043456 -2.555180
v -78.798841 44.157211 95.958018
vn 5.757127 0.018714 -2.516091
v -79.057301 41.717193 95.366349
vn 5.713652 0.035201 -2.612896
v -78.568464 46.143745 96.522890
vn 2.835331 0.018810 -1.349721
v -76.929000 46.585750 100.000000
vn 5.756225 0.049002 -2.517953
v -79.429391 43.923281 94.515719
vn 5.790793 0.024611 -2.437289
v -79.902455 47.108339 93.504880
vn 2.829814 -0.004282 -1.364284
v -77.865300 38.000000 97.974600
vn 5.701373 0.024474 -2.639210
v -78.119151 40.452793 97.463465
vn 5.743611 0.025164 -2.546668
v -79.128934 47.472055 95.294874
# 46 vertices, 0 vertices normals

f 2//2 34//34 33//33
f 35//35 12//12 24//24
f 11//11 37//37 2//2
f 25//25 24//24 39//39
f 41//41 33//33 36//36
f 45//45 39//39 37//37
f 18//18 45//45 11//11
f 26//26 25//25 39//39
f 17//17 14//14 31//31
f 12//12 42//42 39//39
f 31//31 46//46 15//15
f 46//46 14//14 40//40
f 45//45 44//44 26//26
f 16//16 4//4 3//3
f 4//4 16//16 17//17
f 9//9 21//21 15//15
f 30//30 31//31 21//21
f 9//9 15//15 20//20
f 22//22 32//32 23//23
f 25//25 10//10 7//7
f 27//27 29//29 2//2
f 29//29 5//5 11//11
f 30//30 17//17 31//31
f 43//43 20//20 15//15
f 13//13 10//10 26//26
f 33//33 27//27 2//2
f 2//2 37//37 34//34
f 22//22 23//23 12//12
f 35//35 22//22 12//12
f 36//36 14//14 16//16
f 29//29 11//11 2//2
f 37//37 39//39 38//38
f 38//38 34//34 37//37
f 39//39 24//24 12//12
f 41//41 27//27 33//33
f 36//36 33//33 34//34
f 23//23 28//28 42//42
f 28//28 40//40 38//38
f 40//40 34//34 38//38
f 32//32 20//20 43//43
f 6//6 18//18 5//5
f 44//44 18//18 6//6
f 13//13 26//26 44//44
f 44//44 45//45 18//18
f 11//11 45//45 37//37
f 28//28 46//46 40//40
f 5//5 18//18 11//11
f 45//45 26//26 39//39
f 17//17 16//16 14//14
f 12//12 23//23 42//42
f 39//39 42//42 38//38
f 43//43 46//46 28//28
f 46//46 43//43 15//15
f 21//21 31//31 15//15
f 31//31 14//14 46//46
f 34//34 40//40 36//36
f 16//16 3//3 41//41
f 35//35 24//24 1//1
f 1//1 19//19 8//8
f 1//1 24//24 19//19
f 19//19 24//24 25//25
f 10//10 25//25 26//26
f 36//36 16//16 41//41
f 8//8 19//19 7//7
f 19//19 25//25 7//7
f 40//40 14//14 36//36
f 28//28 38//38 42//42
f 23//23 32//32 43//43
f 28//28 23//23 43//43
# 69 faces, 0 coords texture

# End of File
