####
#
# OBJ File Generated by Meshlab
#
####
# Object 2367S.obj
#
# Vertices: 47
# Faces: 69
#
####
vn 5.639896 0.071550 -2.768513
v -85.774947 -13.132000 85.308672
vn 5.638118 0.067360 -2.772184
v -85.962995 -16.481581 84.836790
vn 2.249953 0.033250 -1.104770
v -85.064200 -18.283100 86.595900
vn 2.207689 0.015555 -1.077271
v -83.733900 -5.935030 89.629700
vn 2.899516 0.027523 -1.436897
v -86.550200 -5.061970 83.889100
vn 2.562384 0.021773 -1.254436
v -84.614300 -4.792620 87.834350
vn 2.368956 0.028663 -1.167701
v -87.275000 -6.317080 82.402500
vn 1.850963 0.021003 -0.925033
v -83.423000 -7.659170 90.234800
vn 3.222356 0.043932 -1.595153
v -83.424300 -7.685540 90.231600
vn 3.334922 0.036481 -1.641457
v -83.434300 -7.641070 90.212600
vn 2.379229 0.030236 -1.179622
v -85.898600 -18.059200 84.928000
vn 2.642452 0.034252 -1.286903
v -86.818800 -16.207750 83.083550
vn 2.324323 0.020568 -1.141401
v -87.933500 -9.961580 80.966600
vn 2.664257 0.042237 -1.301446
v -87.326800 -14.530700 82.092350
vn 2.049602 0.025056 -0.994212
v -86.337900 -4.615120 84.326000
vn 3.291479 0.055694 -1.593102
v -86.055600 -4.694040 84.917800
vn 2.255969 0.043969 -1.110722
v -85.614700 -4.268240 85.836000
vn 2.417666 0.029667 -1.202560
v -83.078700 -12.066100 90.803000
vn 2.918102 0.027698 -1.438473
v -83.550350 -14.396950 89.812550
vn 2.426238 0.027092 -1.184979
v -83.752100 -15.801300 89.379300
vn 2.793675 0.031423 -1.368118
v -87.673350 -8.469450 81.523350
vn 2.524943 0.034161 -1.252135
v -83.107900 -9.654780 90.813850
vn 2.597069 0.028737 -1.274364
v -87.728850 -12.567150 81.338900
vn 5.640474 0.081809 -2.766869
v -85.170970 -16.796101 86.423209
vn 5.640646 0.047322 -2.767513
v -84.445633 -7.562975 88.147614
vn 5.643537 0.079313 -2.760898
v -86.345067 -14.727970 84.098119
vn 2.569797 0.037521 -1.243785
v -84.426611 -17.439183 87.943681
vn 5.641701 0.082978 -2.764501
v -85.357621 -14.987714 86.100285
vn 5.637028 0.065298 -2.774481
v -84.164041 -12.289395 88.615279
vn 2.662003 0.030038 -1.304317
v -86.192000 -17.606650 84.343500
vn 5.648040 0.036575 -2.752399
v -86.091274 -8.032129 84.761845
vn 5.644185 0.043869 -2.759895
v -85.259893 -8.296112 86.486623
vn 5.646388 0.054800 -2.755612
v -86.840055 -9.463877 83.204141
vn 5.644874 0.056178 -2.758261
v -85.479349 -6.027102 86.041283
vn 5.636242 0.065445 -2.776076
v -86.795680 -7.325839 83.350151
vn 5.643758 0.066804 -2.760758
v -84.756104 -13.471986 87.379537
vn 5.640742 0.067550 -2.766873
v -84.248370 -10.848255 88.479441
vn 5.640382 0.068772 -2.767530
v -85.195443 -11.626974 86.516839
vn 5.645493 0.065121 -2.757241
v -86.269627 -11.248522 84.343345
vn 5.642313 0.048381 -2.764101
v -87.141453 -11.136530 82.557250
vn 5.643031 0.071160 -2.762091
v -86.766429 -12.898467 83.294011
vn 5.638610 0.072913 -2.771086
v -84.859402 -9.975493 87.247965
vn 5.638505 0.066128 -2.771469
v -83.919781 -8.879239 89.194849
vn 5.636273 0.061273 -2.776080
v -86.104418 -6.278653 84.765407
vn 5.646944 0.063625 -2.753923
v -85.840047 -9.888127 85.267333
vn 5.645944 0.069604 -2.756180
v -84.398839 -14.772806 88.078619
vn 5.628340 0.074969 -2.791859
v -83.667083 -10.843724 89.656099
# 47 vertices, 0 vertices normals

f 3//3 24//24 27//27
f 44//44 15//15 16//16
f 28//28 24//24 2//2
f 44//44 5//5 15//15
f 9//9 10//10 8//8
f 34//34 32//32 31//31
f 39//39 1//1 41//41
f 2//2 11//11 30//30
f 29//29 36//36 38//38
f 11//11 24//24 3//3
f 5//5 35//35 7//7
f 35//35 5//5 44//44
f 4//4 10//10 25//25
f 26//26 2//2 12//12
f 30//30 12//12 2//2
f 26//26 12//12 14//14
f 9//9 22//22 43//43
f 9//9 43//43 10//10
f 4//4 25//25 6//6
f 28//28 26//26 1//1
f 20//20 46//46 19//19
f 2//2 26//26 28//28
f 35//35 31//31 33//33
f 34//34 44//44 16//16
f 17//17 34//34 16//16
f 35//35 21//21 7//7
f 33//33 21//21 35//35
f 34//34 6//6 32//32
f 31//31 32//32 45//45
f 24//24 28//28 46//46
f 1//1 36//36 28//28
f 40//40 23//23 13//13
f 1//1 26//26 41//41
f 40//40 33//33 39//39
f 38//38 36//36 1//1
f 43//43 42//42 25//25
f 14//14 23//23 41//41
f 40//40 41//41 23//23
f 38//38 1//1 39//39
f 29//29 18//18 19//19
f 33//33 13//13 21//21
f 28//28 36//36 46//46
f 29//29 37//37 47//47
f 6//6 25//25 32//32
f 11//11 2//2 24//24
f 33//33 31//31 45//45
f 33//33 40//40 13//13
f 35//35 44//44 31//31
f 39//39 45//45 38//38
f 43//43 37//37 42//42
f 41//41 26//26 14//14
f 40//40 39//39 41//41
f 46//46 20//20 27//27
f 24//24 46//46 27//27
f 33//33 45//45 39//39
f 42//42 45//45 32//32
f 45//45 42//42 38//38
f 43//43 22//22 47//47
f 6//6 34//34 17//17
f 44//44 34//34 31//31
f 43//43 25//25 10//10
f 25//25 42//42 32//32
f 37//37 29//29 38//38
f 37//37 38//38 42//42
f 36//36 19//19 46//46
f 18//18 47//47 22//22
f 29//29 47//47 18//18
f 43//43 47//47 37//37
f 29//29 19//19 36//36
# 69 faces, 0 coords texture

# End of File
