####
#
# OBJ File Generated by Meshlab
#
####
# Object 2368S.obj
#
# Vertices: 21
# Faces: 27
#
####
vn -5.618147 0.070694 -2.812386
v 86.770791 -3.912902 85.935622
vn -2.387138 0.024486 -1.189828
v 88.994700 -1.981790 81.542850
vn -2.477764 0.025677 -1.242012
v 87.779950 -0.673623 83.997000
vn -2.288310 0.030628 -1.143664
v 86.475000 -1.645180 86.590900
vn -2.248465 0.019274 -1.128352
v 86.525500 -7.216070 86.354500
vn -2.310967 0.020617 -1.150020
v 89.352700 -3.673340 80.790700
vn -2.310937 0.026290 -1.151758
v 86.018800 -5.622070 87.405300
vn -2.552632 0.027321 -1.282666
v 88.745500 -7.050315 81.946500
vn -2.271757 0.021158 -1.135348
v 89.242700 -5.768950 80.977200
vn -2.400854 0.027031 -1.204514
v 88.365300 -0.915846 82.832100
vn -2.554639 0.030444 -1.274064
v 87.069500 -0.973055 85.419150
vn -2.286867 0.029206 -1.138095
v 85.972300 -3.558120 87.549200
vn -2.291522 0.023675 -1.149497
v 88.174600 -7.871880 83.058400
vn -5.618966 0.054070 -2.811152
v 88.622495 -4.161535 82.249297
vn -5.617009 0.067490 -2.814784
v 87.312320 -2.523354 84.895224
vn -5.613551 0.060068 -2.821832
v 88.330016 -6.099373 82.793609
vn -5.616884 0.059270 -2.815221
v 88.106600 -2.579153 83.310417
vn -5.611862 0.061691 -2.825173
v 87.659395 -4.623138 84.154358
vn -5.615196 0.058987 -2.818549
v 86.903445 -5.645226 85.631283
vn -2.525857 0.010476 -1.263997
v 87.444866 -7.878117 84.529519
vn -5.613182 0.046085 -2.822813
v 87.512138 -6.651311 84.405256
# 21 vertices, 0 vertices normals

f 17//17 10//10 2//2
f 17//17 15//15 3//3
f 16//16 21//21 18//18
f 15//15 4//4 11//11
f 16//16 9//9 8//8
f 16//16 8//8 13//13
f 16//16 18//18 14//14
f 5//5 7//7 19//19
f 16//16 14//14 9//9
f 6//6 9//9 14//14
f 14//14 18//18 17//17
f 15//15 18//18 1//1
f 3//3 15//15 11//11
f 17//17 3//3 10//10
f 18//18 21//21 19//19
f 14//14 17//17 2//2
f 20//20 5//5 21//21
f 12//12 1//1 7//7
f 21//21 5//5 19//19
f 4//4 1//1 12//12
f 2//2 6//6 14//14
f 16//16 13//13 21//21
f 20//20 21//21 13//13
f 15//15 1//1 4//4
f 1//1 19//19 7//7
f 17//17 18//18 15//15
f 1//1 18//18 19//19
# 27 faces, 0 coords texture

# End of File
