####
#
# OBJ File Generated by Meshlab
#
####
# Object 2372S.obj
#
# Vertices: 21
# Faces: 27
#
####
vn 5.627387 0.061342 -2.794038
v -86.937767 5.871233 83.350619
vn 2.356003 0.034644 -1.170168
v -88.280650 7.477235 80.699100
vn 2.374310 0.021071 -1.175520
v -85.271200 5.557090 86.710200
vn 2.641256 0.034351 -1.329480
v -88.237300 9.086240 80.837400
vn 2.285206 0.032770 -1.156522
v -88.147100 9.870820 81.038000
vn 2.314338 0.021380 -1.146385
v -85.746250 11.393950 85.869750
vn 2.235161 0.014801 -1.105762
v -86.212500 4.359520 84.798800
vn 2.387641 0.029374 -1.174182
v -84.841600 8.621210 87.656300
vn 2.362811 0.028762 -1.164579
v -84.865400 7.041790 87.563300
vn 2.362058 0.023834 -1.179574
v -86.646300 11.836800 84.070850
vn 5.629413 0.049709 -2.790254
v -86.062559 6.103586 85.123333
vn 2.421141 0.031983 -1.213989
v -87.403950 11.339150 82.547550
vn 5.632459 0.064737 -2.783778
v -85.471515 7.360936 86.341437
vn 2.371537 0.024570 -1.177134
v -87.310800 4.698370 82.574600
vn 5.626680 0.060448 -2.795561
v -86.466057 10.204598 84.398802
vn 2.483679 0.023958 -1.220840
v -85.139250 10.065060 87.081650
vn 5.627516 0.060857 -2.793874
v -86.444501 7.807965 84.391740
vn 5.620791 0.066519 -2.807196
v -87.531884 7.378472 82.203733
vn 2.346988 0.031261 -1.169542
v -87.892600 5.632905 81.431100
vn 5.633836 0.058787 -2.781148
v -85.628303 9.299755 86.071701
vn 5.617663 0.061423 -2.813349
v -87.283930 9.162796 82.723502
# 21 vertices, 0 vertices normals

f 21//21 4//4 5//5
f 11//11 1//1 17//17
f 7//7 11//11 3//3
f 4//4 18//18 2//2
f 21//21 18//18 4//4
f 12//12 10//10 15//15
f 5//5 12//12 21//21
f 15//15 6//6 20//20
f 13//13 8//8 9//9
f 8//8 13//13 20//20
f 7//7 1//1 11//11
f 1//1 7//7 14//14
f 3//3 13//13 9//9
f 17//17 13//13 11//11
f 11//11 13//13 3//3
f 14//14 19//19 1//1
f 15//15 10//10 6//6
f 16//16 8//8 20//20
f 1//1 18//18 17//17
f 19//19 18//18 1//1
f 18//18 19//19 2//2
f 20//20 13//13 17//17
f 20//20 6//6 16//16
f 18//18 21//21 17//17
f 21//21 15//15 17//17
f 15//15 21//21 12//12
f 20//20 17//17 15//15
# 27 faces, 0 coords texture

# End of File
