####
#
# OBJ File Generated by Meshlab
#
####
# Object 2381.obj
#
# Vertices: 51
# Faces: 75
#
####
vn -5.708571 0.104572 -2.622670
v 94.950806 -39.857463 70.802471
vn -5.682980 0.116374 -2.677191
v 95.995494 -42.900930 68.443525
vn -5.652699 0.089388 -2.741668
v 96.852225 -42.367473 66.680157
vn -5.589358 0.103094 -2.868154
v 97.912094 -46.562689 64.395623
vn -5.672813 0.086253 -2.699979
v 96.584143 -39.322562 67.331068
vn -2.844545 0.050532 -1.331979
v 95.989550 -50.000000 68.187700
vn -2.851540 0.050312 -1.300151
v 94.417650 -48.459500 71.690050
vn -2.854464 0.054881 -1.311187
v 95.261925 -38.000000 70.206100
vn -2.853244 0.052194 -1.296052
v 94.509500 -38.386300 71.849100
vn -2.816141 0.050735 -1.391947
v 97.329348 -38.000009 65.818314
vn -1.422212 0.017814 -0.647125
v 94.512200 -38.000000 71.853800
vn -1.442898 0.032231 -0.655953
v 94.398400 -50.000000 71.656700
vn -5.625189 0.110136 -2.796070
v 97.211629 -45.798967 65.797127
vn -2.841961 0.044358 -1.338527
v 96.185850 -38.000000 68.210500
vn -2.850334 0.047103 -1.304191
v 94.463000 -43.017700 71.768700
vn -1.401765 0.038077 -0.740695
v 98.722500 -38.000000 63.146200
vn -1.385669 0.026252 -0.716140
v 98.599400 -50.000000 62.933000
vn -2.787663 0.038796 -1.449344
v 98.662050 -43.652150 63.041600
vn -5.652381 0.116475 -2.740985
v 96.609382 -44.495744 67.085509
vn -5.692773 0.090262 -2.657452
v 95.732987 -39.515917 69.129111
vn -2.862210 0.048921 -1.310090
v 94.441000 -44.812700 71.730600
vn -5.711477 0.097494 -2.616688
v 94.995519 -44.910346 70.515471
vn -2.783046 0.049612 -1.447675
v 98.681750 -41.171500 63.075900
vn -2.861969 0.054993 -1.306898
v 94.485650 -40.172650 71.807850
vn -2.796687 0.053499 -1.429722
v 97.947200 -50.000000 64.194950
vn -2.856554 0.060891 -1.305814
v 95.128500 -50.000000 70.050700
vn -5.678565 0.090702 -2.687683
v 96.242515 -40.942072 67.999638
vn -5.690753 0.099366 -2.660816
v 95.787170 -44.943612 68.790628
vn -5.591303 0.107211 -2.863267
v 97.903963 -39.680495 64.619793
vn -2.777201 0.067712 -1.461681
v 98.704600 -39.262000 63.115200
vn -2.789380 0.057498 -1.440129
v 98.611700 -48.769700 62.954300
vn -5.706574 0.111006 -2.626961
v 95.209979 -43.180346 70.130278
vn -2.818227 0.051328 -1.385984
v 96.972650 -50.000000 66.123700
vn -5.669215 0.106454 -2.706480
v 96.502964 -48.633389 67.150920
vn -2.791768 0.053712 -1.446064
v 98.634100 -46.850500 62.993200
vn -5.617325 0.077408 -2.812984
v 97.675988 -41.680336 65.007355
vn -5.628377 0.106554 -2.790376
v 97.153390 -47.750765 65.850311
vn -2.790692 0.048130 -1.443087
v 98.646800 -45.448200 63.015100
vn -2.856684 0.041169 -1.313224
v 94.470400 -41.892900 71.781400
vn -5.698803 0.091385 -2.644542
v 95.352521 -41.365217 69.888735
vn -5.651633 0.081379 -2.743878
v 97.091509 -40.347785 66.237616
vn -2.784332 0.071752 -1.453653
v 98.113200 -38.000000 64.299300
vn -5.626412 0.098433 -2.794776
v 97.421240 -43.739347 65.485783
vn -2.857519 0.032537 -1.305721
v 94.428900 -46.678500 71.709500
vn -5.700908 0.103601 -2.639453
v 95.741485 -48.457887 68.784167
vn -5.716794 0.091613 -2.605193
v 95.029086 -48.116974 70.362417
vn -5.594852 0.111295 -2.857053
v 97.865815 -48.366277 64.416170
vn -5.595769 0.099219 -2.855698
v 97.979991 -44.754339 64.329185
vn -5.594195 0.074515 -2.858958
v 98.096531 -42.999939 64.142056
vn -5.707194 0.071722 -2.626893
v 95.393282 -46.733730 69.595550
vn -5.672056 0.094374 -2.701121
v 96.369441 -46.808194 67.504475
# 51 vertices, 0 vertices normals

f 8//8 20//20 1//1
f 11//11 8//8 9//9
f 26//26 12//12 7//7
f 14//14 5//5 20//20
f 47//47 33//33 37//37
f 27//27 40//40 20//20
f 32//32 40//40 2//2
f 5//5 41//41 27//27
f 19//19 28//28 2//2
f 21//21 15//15 22//22
f 40//40 1//1 20//20
f 23//23 18//18 49//49
f 1//1 9//9 8//8
f 24//24 9//9 1//1
f 25//25 33//33 47//47
f 46//46 26//26 7//7
f 13//13 19//19 43//43
f 8//8 14//14 20//20
f 44//44 50//50 46//46
f 39//39 1//1 40//40
f 28//28 50//50 22//22
f 14//14 10//10 5//5
f 23//23 29//29 30//30
f 30//30 29//29 42//42
f 17//17 25//25 31//31
f 27//27 3//3 2//2
f 29//29 10//10 42//42
f 45//45 51//51 34//34
f 26//26 45//45 6//6
f 45//45 50//50 51//51
f 47//47 4//4 35//35
f 33//33 6//6 34//34
f 6//6 45//45 34//34
f 50//50 44//44 22//22
f 35//35 31//31 47//47
f 31//31 25//25 47//47
f 37//37 33//33 34//34
f 47//47 37//37 4//4
f 38//38 35//35 4//4
f 32//32 39//39 40//40
f 39//39 24//24 1//1
f 5//5 27//27 20//20
f 3//3 41//41 36//36
f 2//2 40//40 27//27
f 29//29 41//41 10//10
f 30//30 42//42 16//16
f 29//29 36//36 41//41
f 10//10 41//41 5//5
f 36//36 29//29 23//23
f 19//19 3//3 43//43
f 27//27 41//41 3//3
f 34//34 51//51 37//37
f 37//37 13//13 4//4
f 3//3 19//19 2//2
f 44//44 46//46 7//7
f 2//2 28//28 32//32
f 32//32 28//28 22//22
f 51//51 19//19 13//13
f 28//28 19//19 51//51
f 45//45 26//26 46//46
f 48//48 4//4 13//13
f 32//32 22//22 15//15
f 39//39 32//32 15//15
f 21//21 22//22 44//44
f 43//43 36//36 49//49
f 48//48 18//18 38//38
f 48//48 38//38 4//4
f 48//48 49//49 18//18
f 43//43 3//3 36//36
f 23//23 49//49 36//36
f 48//48 43//43 49//49
f 43//43 48//48 13//13
f 50//50 45//45 46//46
f 51//51 50//50 28//28
f 51//51 13//13 37//37
# 75 faces, 0 coords texture

# End of File
