####
#
# OBJ File Generated by Meshlab
#
####
# Object 2388.obj
#
# Vertices: 50
# Faces: 74
#
####
vn 2.839591 -0.000182 -1.343668
v -96.750700 -38.000000 65.550800
vn 5.665344 0.009739 -2.716793
v -97.521348 -41.148540 63.926957
vn 2.890435 0.029025 -1.255850
v -94.178950 -39.279200 71.276550
vn 2.880497 -0.015481 -1.251439
v -94.184275 -43.568175 71.285875
vn 2.832064 -0.002233 -1.359691
v -97.742200 -50.000000 63.494900
vn 1.412532 0.001421 -0.685684
v -98.281900 -50.000000 62.383100
vn 1.440924 -0.006817 -0.617187
v -94.196200 -50.000000 71.306500
vn 2.880381 -0.008181 -1.257913
v -94.189800 -47.319100 71.295400
vn 2.879828 0.000538 -1.255367
v -94.622750 -50.000000 70.310650
vn 1.430958 0.020711 -0.619620
v -94.191000 -38.000000 71.297500
vn 2.827363 0.004259 -1.370186
v -98.282829 -48.272719 62.384767
vn 1.419550 0.012004 -0.684633
v -98.284200 -38.000000 62.387100
vn 5.727769 -0.019087 -2.582526
v -95.647842 -47.694634 67.987137
vn 2.826950 -0.014281 -1.378234
v -98.283050 -44.457300 62.385200
vn 5.656413 -0.019853 -2.735172
v -97.754858 -42.913018 63.442209
vn 2.878673 -0.007132 -1.255072
v -94.188200 -45.562900 71.292600
vn 5.757294 -0.017456 -2.516276
v -94.632323 -45.480067 70.273474
vn 2.829232 0.018306 -1.365508
v -97.718800 -38.000000 63.557900
vn 5.672116 0.012011 -2.702716
v -97.041072 -39.452447 64.946977
vn 5.660735 0.030998 -2.726390
v -97.870326 -39.627470 63.216711
vn 2.857153 -0.007934 -1.306180
v -96.040500 -50.000000 67.138350
vn 5.700340 -0.003503 -2.642540
v -96.281814 -42.249821 66.554278
vn 2.881664 -0.006746 -1.252771
v -94.193300 -48.934400 71.301500
vn 2.867648 -0.002297 -1.282998
v -95.271800 -50.000000 68.841900
vn 5.743868 -0.010792 -2.546696
v -95.149517 -48.978075 69.113386
vn 5.680570 -0.014097 -2.684926
v -97.011169 -46.291307 65.034319
vn 5.700039 -0.014213 -2.643372
v -96.507407 -48.187774 66.117520
vn 2.857718 0.005393 -1.304974
v -96.069200 -38.000000 67.028500
vn 2.821017 -0.002066 -1.372100
v -98.274850 -42.003300 62.371150
vn 5.685627 0.009123 -2.674219
v -96.775101 -40.856460 65.502465
vn 2.888745 -0.001889 -1.246069
v -94.177200 -40.979900 71.273600
vn 5.753553 -0.011834 -2.524141
v -94.764330 -41.477249 69.912697
vn 5.752828 -0.016877 -2.526431
v -94.826745 -47.546281 69.839087
vn 2.831594 0.000321 -1.362052
v -98.283400 -46.305100 62.385800
vn 5.659042 -0.004693 -2.730057
v -97.796863 -46.246760 63.397285
vn 2.826647 0.015242 -1.360785
v -98.276350 -39.539100 62.374300
vn 2.845697 -0.009162 -1.331000
v -97.055100 -50.000000 64.952050
vn 5.757501 0.037112 -2.515159
v -94.657061 -39.499601 70.171048
vn 2.871734 0.016027 -1.273747
v -95.205811 -38.000000 68.942503
vn 5.706901 -0.026477 -2.628297
v -96.154354 -46.010877 66.862724
vn 5.679386 -0.009965 -2.687483
v -97.077157 -42.574947 64.864230
vn 5.689038 -0.023305 -2.666861
v -96.631849 -44.291862 65.818913
vn 5.664172 -0.028656 -2.719059
v -97.447323 -44.418514 64.096026
vn 5.752446 -0.030357 -2.527185
v -94.991483 -43.619017 69.433064
vn 5.741360 -0.025497 -2.552206
v -95.361114 -45.625524 68.612818
vn 5.722837 -0.023084 -2.592912
v -95.785419 -43.941982 67.638339
vn 5.672889 0.002397 -2.700742
v -97.406357 -48.107353 64.191592
vn 5.729373 -0.005134 -2.579005
v -95.486612 -41.890041 68.296716
vn 5.730398 0.013359 -2.576850
v -95.394040 -39.890265 68.510313
vn 5.705697 0.006480 -2.631052
v -96.197415 -40.059265 66.743376
# 50 vertices, 0 vertices normals

f 23//23 7//7 9//9
f 47//47 26//26 27//27
f 29//29 2//2 15//15
f 33//33 45//45 17//17
f 32//32 49//49 38//38
f 44//44 46//46 48//48
f 42//42 22//22 46//46
f 27//27 40//40 13//13
f 30//30 41//41 2//2
f 40//40 26//26 42//42
f 46//46 45//45 40//40
f 41//41 43//43 15//15
f 14//14 29//29 15//15
f 43//43 14//14 15//15
f 4//4 16//16 17//17
f 16//16 8//8 17//17
f 8//8 33//33 17//17
f 18//18 1//1 19//19
f 19//19 20//20 18//18
f 5//5 6//6 11//11
f 21//21 37//37 27//27
f 8//8 23//23 33//33
f 23//23 9//9 25//25
f 9//9 24//24 25//25
f 24//24 21//21 25//25
f 38//38 10//10 3//3
f 1//1 28//28 50//50
f 29//29 36//36 20//20
f 38//38 31//31 32//32
f 31//31 4//4 32//32
f 17//17 45//45 44//44
f 43//43 35//35 14//14
f 12//12 20//20 36//36
f 20//20 12//12 18//18
f 47//47 37//37 5//5
f 11//11 34//34 35//35
f 35//35 43//43 26//26
f 2//2 20//20 19//19
f 22//22 50//50 48//48
f 10//10 38//38 39//39
f 3//3 31//31 38//38
f 38//38 49//49 39//39
f 48//48 46//46 22//22
f 23//23 25//25 33//33
f 25//25 13//13 33//33
f 13//13 45//45 33//33
f 1//1 50//50 19//19
f 42//42 41//41 22//22
f 13//13 40//40 45//45
f 19//19 30//30 2//2
f 30//30 22//22 41//41
f 40//40 27//27 26//26
f 42//42 46//46 40//40
f 13//13 25//25 21//21
f 13//13 21//21 27//27
f 2//2 41//41 15//15
f 48//48 32//32 44//44
f 32//32 4//4 44//44
f 41//41 42//42 43//43
f 42//42 26//26 43//43
f 47//47 5//5 11//11
f 44//44 4//4 17//17
f 28//28 39//39 49//49
f 2//2 29//29 20//20
f 45//45 46//46 44//44
f 27//27 37//37 47//47
f 35//35 34//34 14//14
f 28//28 49//49 50//50
f 35//35 47//47 11//11
f 50//50 49//49 48//48
f 30//30 50//50 22//22
f 48//48 49//49 32//32
f 19//19 50//50 30//30
f 47//47 35//35 26//26
# 74 faces, 0 coords texture

# End of File
