####
#
# OBJ File Generated by Meshlab
#
####
# Object 2401S.obj
#
# Vertices: 35
# Faces: 52
#
####
vn -5.616559 0.177175 -2.810849
v 86.468188 -23.486339 87.459317
vn -5.628572 0.086697 -2.791047
v 87.879624 -19.239951 84.810819
vn -5.630750 0.157106 -2.783569
v 85.928420 -22.018990 88.627713
vn -5.615765 0.218739 -2.809550
v 86.186796 -25.197770 87.897429
vn -5.604395 0.191194 -2.834137
v 87.148042 -25.047356 85.998872
vn -5.599047 0.216350 -2.842723
v 86.677401 -26.494661 86.814748
vn -2.373542 0.072566 -1.166980
v 85.200500 -22.616700 90.074400
vn -2.229234 0.089599 -1.116998
v 85.830700 -26.969200 88.462200
vn -2.261943 0.037771 -1.149806
v 89.678600 -21.576300 81.142300
vn -2.204595 0.030462 -1.097991
v 88.524500 -18.080100 83.538000
vn -2.438409 0.064584 -1.200515
v 85.422000 -20.781500 89.723400
vn -2.550050 0.093713 -1.314146
v 86.813500 -28.101350 86.426950
vn -2.453169 0.047058 -1.278390
v 88.993800 -26.522300 82.324800
vn -2.253749 0.038028 -1.105645
v 86.579600 -17.941000 87.473700
vn -2.575789 0.042977 -1.277254
v 87.459200 -17.712600 85.707300
vn -2.208989 0.071475 -1.153706
v 87.550600 -28.416400 85.001900
vn -5.591109 0.140710 -2.863014
v 88.069021 -25.905368 84.129304
vn -5.616003 0.150016 -2.813470
v 87.359029 -22.944825 85.714981
vn -5.590984 0.114044 -2.864138
v 88.716872 -24.428511 82.924472
vn -5.611495 0.160319 -2.821999
v 87.943757 -24.141830 84.479440
vn -2.617875 0.048051 -1.323613
v 89.261394 -19.906920 82.036546
vn -2.525789 0.040889 -1.322920
v 89.347550 -25.379650 81.690950
vn -5.580498 0.180302 -2.881556
v 87.407534 -26.977126 85.364993
vn -5.620121 0.094055 -2.807757
v 88.415211 -20.432033 83.692898
vn -5.627103 0.189170 -2.788935
v 85.789933 -23.689116 88.802747
vn -2.607413 0.038413 -1.349895
v 89.595000 -23.631700 81.262300
vn -5.629513 0.095905 -2.788818
v 87.100186 -19.486457 86.366930
vn -5.624998 0.128480 -2.796606
v 86.761227 -21.507122 86.977349
vn -2.647773 0.097137 -1.311068
v 85.395192 -24.639046 89.535131
vn -5.622286 0.122214 -2.802271
v 88.206397 -22.519179 84.040300
vn -5.623118 0.102368 -2.801467
v 87.646005 -21.012987 85.222952
vn -5.639661 0.123724 -2.767079
v 86.278622 -20.099208 88.020421
vn -2.663373 0.056749 -1.292516
v 86.001172 -19.139948 88.634256
vn -2.631891 0.067452 -1.365748
v 88.187650 -27.759800 83.818150
vn -5.606907 0.103542 -2.833509
v 88.963890 -22.215572 82.527305
# 35 vertices, 0 vertices normals

f 35//35 9//9 26//26
f 28//28 1//1 3//3
f 27//27 31//31 28//28
f 5//5 1//1 18//18
f 3//3 7//7 11//11
f 5//5 18//18 20//20
f 4//4 8//8 29//29
f 35//35 21//21 9//9
f 22//22 13//13 19//19
f 3//3 1//1 25//25
f 35//35 24//24 21//21
f 1//1 4//4 25//25
f 25//25 4//4 29//29
f 1//1 5//5 4//4
f 6//6 12//12 8//8
f 24//24 31//31 2//2
f 26//26 22//22 19//19
f 2//2 10//10 24//24
f 21//21 24//24 10//10
f 32//32 28//28 3//3
f 3//3 25//25 7//7
f 29//29 7//7 25//25
f 35//35 30//30 24//24
f 28//28 31//31 18//18
f 31//31 27//27 2//2
f 20//20 18//18 30//30
f 30//30 31//31 24//24
f 13//13 17//17 19//19
f 2//2 27//27 15//15
f 10//10 2//2 15//15
f 27//27 32//32 14//14
f 33//33 14//14 32//32
f 15//15 27//27 14//14
f 27//27 28//28 32//32
f 18//18 1//1 28//28
f 12//12 23//23 16//16
f 23//23 17//17 34//34
f 34//34 16//16 23//23
f 20//20 17//17 5//5
f 3//3 11//11 32//32
f 33//33 32//32 11//11
f 5//5 6//6 4//4
f 6//6 23//23 12//12
f 5//5 23//23 6//6
f 17//17 23//23 5//5
f 34//34 17//17 13//13
f 4//4 6//6 8//8
f 30//30 18//18 31//31
f 30//30 19//19 20//20
f 19//19 35//35 26//26
f 19//19 17//17 20//20
f 30//30 35//35 19//19
# 52 faces, 0 coords texture

# End of File
