####
#
# OBJ File Generated by Meshlab
#
####
# Object 2414.obj
#
# Vertices: 46
# Faces: 68
#
####
vn 5.724468 0.038291 -2.589736
v -96.393415 42.720516 69.560905
vn 2.863313 0.031192 -1.292306
v -95.810647 38.000022 70.763875
vn 5.711324 0.058238 -2.618299
v -97.274541 39.819160 67.580725
vn 2.875815 0.015743 -1.282561
v -95.012000 48.480150 72.719450
vn 2.834823 0.007921 -1.339778
v -99.065300 39.511850 63.740000
vn 2.873994 0.029957 -1.256312
v -95.006800 43.223300 72.710500
vn 2.840580 0.022632 -1.339672
v -99.074150 41.737800 63.755300
vn 1.419503 0.002901 -0.676221
v -99.067400 38.000000 63.743600
vn 2.837491 0.029907 -1.347643
v -98.262090 38.000000 65.413395
vn 2.872728 0.043961 -1.260004
v -94.981000 39.461550 72.665900
vn 2.842310 0.039789 -1.342011
v -99.110800 47.358175 63.818850
vn 1.427157 0.015576 -0.673551
v -99.128000 50.000000 63.848600
vn 1.427542 0.016751 -0.637248
v -95.021500 50.000000 72.736000
vn 1.445534 0.019447 -0.644277
v -94.966200 38.000000 72.640100
vn 2.838935 0.027807 -1.341157
v -99.082750 43.565250 63.770250
vn 5.700370 0.061374 -2.642037
v -96.915097 46.134977 68.486813
vn 5.712350 0.043653 -2.616390
v -97.217564 41.665790 67.741672
vn 2.859573 0.028526 -1.300778
v -96.029400 50.000000 70.481600
vn 2.874324 0.003145 -1.256741
v -95.012950 45.124550 72.721100
vn 5.685926 0.065387 -2.672873
v -98.439576 48.444378 65.271299
vn 5.687186 0.042583 -2.670543
v -98.198623 39.133025 65.572171
vn 5.739659 0.063157 -2.555406
v -95.438680 39.826217 71.635142
vn 2.844122 0.023678 -1.334241
v -98.066000 50.000000 66.094000
vn 2.862259 0.035047 -1.294537
v -96.604800 38.000000 69.009500
vn 5.722475 0.064706 -2.593731
v -96.659359 38.820452 68.911080
vn 2.855636 0.035114 -1.308654
v -97.202050 38.000000 67.687600
vn 5.750813 0.025874 -2.530800
v -95.687418 44.207238 71.176857
vn 5.706816 0.052075 -2.628238
v -97.232952 43.958801 67.743879
vn 5.697219 0.066952 -2.648630
v -98.064472 44.678033 65.961828
vn 2.836964 0.035352 -1.343945
v -99.091700 45.013500 63.785800
vn 5.683761 0.075348 -2.677112
v -98.643235 45.413844 64.742690
vn 2.848228 0.025311 -1.325415
v -97.091650 50.000000 68.181800
vn 5.684490 0.056372 -2.676116
v -98.654733 43.697084 64.679002
vn 2.877602 0.005704 -1.262433
v -95.011900 46.865900 72.719300
vn 5.722725 0.047496 -2.593549
v -96.330151 40.353252 69.668802
vn 5.743762 0.056735 -2.546018
v -95.612402 41.934447 71.282508
vn 2.879817 0.032635 -1.257365
v -94.995650 41.697550 72.691200
vn 5.694199 0.042683 -2.655510
v -98.164958 40.739850 65.666212
vn 5.722810 0.031277 -2.592973
v -96.363531 44.699583 69.644837
vn 5.703024 0.054289 -2.636363
v -96.563525 48.232972 69.282398
vn 5.695099 0.059628 -2.653379
v -97.573340 47.935299 67.115329
vn 5.701927 0.072712 -2.638398
v -97.605238 45.840151 66.987709
vn 5.692117 0.081459 -2.659160
v -98.221768 46.663160 65.680170
vn 5.733256 0.029829 -2.569160
v -95.879326 46.387165 70.729067
vn 5.696373 0.049485 -2.650731
v -98.086140 42.650800 65.868543
vn 5.732670 0.051066 -2.571197
v -95.620094 48.541217 71.356704
# 46 vertices, 0 vertices normals

f 23//23 41//41 20//20
f 27//27 36//36 1//1
f 36//36 37//37 22//22
f 35//35 22//22 2//2
f 38//38 7//7 45//45
f 31//31 29//29 33//33
f 38//38 45//45 17//17
f 11//11 43//43 31//31
f 19//19 6//6 27//27
f 8//8 21//21 9//9
f 21//21 8//8 5//5
f 23//23 32//32 41//41
f 20//20 43//43 11//11
f 2//2 24//24 25//25
f 24//24 26//26 25//25
f 20//20 11//11 12//12
f 12//12 23//23 20//20
f 26//26 21//21 3//3
f 21//21 26//26 9//9
f 3//3 25//25 26//26
f 22//22 14//14 2//2
f 14//14 22//22 10//10
f 16//16 39//39 28//28
f 21//21 5//5 38//38
f 38//38 5//5 7//7
f 33//33 30//30 31//31
f 30//30 11//11 31//31
f 1//1 36//36 35//35
f 32//32 18//18 40//40
f 7//7 15//15 33//33
f 4//4 34//34 46//46
f 34//34 19//19 44//44
f 35//35 2//2 25//25
f 35//35 25//25 3//3
f 35//35 3//3 17//17
f 39//39 27//27 1//1
f 22//22 37//37 10//10
f 35//35 36//36 22//22
f 27//27 6//6 36//36
f 37//37 36//36 6//6
f 45//45 33//33 29//29
f 1//1 35//35 17//17
f 38//38 3//3 21//21
f 15//15 30//30 33//33
f 31//31 43//43 29//29
f 3//3 38//38 17//17
f 19//19 27//27 44//44
f 46//46 34//34 44//44
f 18//18 46//46 40//40
f 28//28 1//1 17//17
f 39//39 1//1 28//28
f 28//28 17//17 45//45
f 41//41 32//32 40//40
f 16//16 44//44 39//39
f 41//41 42//42 43//43
f 16//16 42//42 41//41
f 42//42 29//29 43//43
f 41//41 43//43 20//20
f 29//29 28//28 45//45
f 28//28 29//29 42//42
f 42//42 16//16 28//28
f 40//40 44//44 16//16
f 41//41 40//40 16//16
f 4//4 46//46 13//13
f 45//45 7//7 33//33
f 46//46 44//44 40//40
f 46//46 18//18 13//13
f 27//27 39//39 44//44
# 68 faces, 0 coords texture

# End of File
