####
#
# OBJ File Generated by Meshlab
#
####
# Object 2420.obj
#
# Vertices: 50
# Faces: 73
#
####
vn -2.912948 -0.003252 -1.176572
v 84.036200 50.000000 92.004200
vn -5.778385 -0.110676 -2.463699
v 82.789302 41.687736 95.410411
vn -2.871218 -0.009873 -1.278769
v 80.781250 41.058350 100.000000
vn -5.781083 -0.113260 -2.458258
v 82.588806 43.481751 95.760015
vn -5.770072 -0.046401 -2.486381
v 81.344804 43.258872 98.681132
vn -5.766690 -0.098878 -2.492670
v 82.013135 42.314722 97.158205
vn -1.451219 -0.016377 -0.589719
v 84.249000 38.000000 92.000000
vn -2.875088 -0.042946 -1.247093
v 80.713500 48.678000 100.000000
vn -2.917411 -0.046435 -1.169573
v 84.060250 48.225850 92.000000
vn -2.901636 -0.031073 -1.203992
v 82.495900 50.000000 95.813800
vn -2.917126 -0.019247 -1.178561
v 84.037900 49.996800 92.000000
vn -1.430357 -0.002028 -0.650632
v 80.782300 38.000000 100.000000
vn -1.456045 0.000000 -0.589351
v 84.037900 50.000000 92.000000
vn -1.437704 -0.011310 -0.624852
v 80.703100 50.000000 100.000000
vn -5.782118 -0.046282 -2.458280
v 81.332381 45.273248 98.682368
vn -5.808713 -0.127492 -2.391608
v 83.660849 44.231051 93.158249
vn -5.779893 -0.081178 -2.462528
v 81.338875 47.346377 98.613972
vn -2.891414 -0.028473 -1.228350
v 81.873700 50.000000 97.291250
vn -5.760567 -0.069213 -2.507688
v 82.445791 39.212427 96.274473
vn -2.893785 -0.039240 -1.221554
v 83.170350 38.000000 94.628100
vn -2.913228 -0.044203 -1.175083
v 83.386528 50.000000 93.613477
vn -5.752992 -0.056079 -2.525344
v 81.427009 41.498092 98.539416
vn -5.757158 -0.072591 -2.515355
v 82.204575 40.632316 96.790144
vn -2.905238 -0.059945 -1.195534
v 84.129700 44.738200 92.000000
vn -2.890260 -0.012593 -1.237622
v 80.775800 44.322600 100.000000
vn -5.802402 -0.066926 -2.409475
v 82.755496 46.693093 95.270990
vn -5.823841 -0.085278 -2.356546
v 83.456050 47.691460 93.533255
vn -2.904544 -0.043031 -1.191173
v 84.228000 39.860900 92.000000
vn -5.787630 -0.061755 -2.444940
v 81.943658 46.114503 97.221088
vn -5.806434 -0.084917 -2.399198
v 83.669955 39.218362 93.381596
vn -2.906313 -0.036148 -1.192116
v 83.815900 38.000000 93.065800
vn -5.793393 -0.064096 -2.431162
v 82.458994 45.068311 96.024852
vn -5.737901 -0.035831 -2.559916
v 81.595745 39.528856 98.188584
vn -2.863461 -0.014437 -1.292211
v 81.424150 38.000000 98.588950
vn -2.881593 -0.030609 -1.251103
v 81.184700 50.000000 98.891900
vn -2.862126 -0.005889 -1.293784
v 80.781050 38.881500 100.000000
vn -5.814327 -0.090669 -2.379802
v 83.560052 45.841509 93.341242
vn -2.898277 -0.047290 -1.230895
v 80.758698 46.954133 100.000000
vn -2.901805 -0.060022 -1.195097
v 84.188450 42.257100 92.000000
vn -5.805631 -0.095679 -2.400756
v 83.559710 41.030603 93.579286
vn -2.875426 -0.028695 -1.264722
v 82.309350 38.000000 96.618150
vn -2.914623 -0.053055 -1.175657
v 84.090700 46.501700 92.000000
vn -2.876991 -0.014405 -1.258208
v 80.775900 42.507800 100.000000
vn -5.781708 -0.059497 -2.458978
v 81.918279 44.133942 97.322927
vn -5.799750 -0.135808 -2.412608
v 83.319670 42.973561 94.074128
vn -5.802142 -0.092125 -2.409225
v 83.078288 44.964327 94.537377
vn -5.785897 -0.079976 -2.448320
v 82.999062 39.952169 94.964133
vn -5.811496 -0.072334 -2.387090
v 82.874651 48.583019 94.933656
vn -5.769845 -0.066877 -2.486356
v 81.417867 48.875987 98.384740
vn -5.789636 -0.059054 -2.440272
v 82.087618 48.274656 96.821372
# 50 vertices, 0 vertices normals

f 47//47 20//20 19//19
f 26//26 32//32 29//29
f 1//1 13//13 11//11
f 44//44 32//32 4//4
f 41//41 33//33 19//19
f 9//9 42//42 27//27
f 6//6 22//22 5//5
f 44//44 15//15 29//29
f 19//19 23//23 47//47
f 18//18 10//10 50//50
f 19//19 20//20 41//41
f 21//21 1//1 11//11
f 2//2 6//6 4//4
f 2//2 23//23 6//6
f 24//24 39//39 16//16
f 15//15 25//25 38//38
f 2//2 4//4 45//45
f 31//31 28//28 7//7
f 20//20 30//30 31//31
f 31//31 30//30 28//28
f 50//50 26//26 29//29
f 11//11 9//9 21//21
f 36//36 33//33 34//34
f 34//34 12//12 36//36
f 33//33 36//36 3//3
f 6//6 44//44 4//4
f 37//37 24//24 16//16
f 38//38 8//8 17//17
f 39//39 28//28 40//40
f 40//40 45//45 39//39
f 47//47 40//40 30//30
f 41//41 34//34 33//33
f 27//27 42//42 37//37
f 42//42 24//24 37//37
f 3//3 43//43 22//22
f 43//43 25//25 5//5
f 22//22 43//43 5//5
f 15//15 44//44 5//5
f 18//18 50//50 49//49
f 47//47 30//30 20//20
f 44//44 6//6 5//5
f 16//16 39//39 45//45
f 33//33 3//3 22//22
f 23//23 22//22 6//6
f 32//32 44//44 29//29
f 45//45 40//40 2//2
f 30//30 40//40 28//28
f 26//26 46//46 32//32
f 32//32 46//46 4//4
f 47//47 2//2 40//40
f 33//33 22//22 23//23
f 33//33 23//23 19//19
f 15//15 38//38 17//17
f 4//4 46//46 45//45
f 46//46 16//16 45//45
f 5//5 25//25 15//15
f 16//16 46//46 37//37
f 37//37 46//46 26//26
f 47//47 23//23 2//2
f 10//10 48//48 50//50
f 48//48 10//10 21//21
f 27//27 26//26 48//48
f 17//17 29//29 15//15
f 29//29 17//17 50//50
f 14//14 35//35 8//8
f 17//17 8//8 49//49
f 17//17 49//49 50//50
f 21//21 9//9 27//27
f 26//26 50//50 48//48
f 18//18 49//49 35//35
f 35//35 49//49 8//8
f 21//21 27//27 48//48
f 37//37 26//26 27//27
# 73 faces, 0 coords texture

# End of File
