####
#
# OBJ File Generated by Meshlab
#
####
# Object 2428.obj
#
# Vertices: 46
# Faces: 66
#
####
vn -2.903258 -0.044601 -1.198301
v 84.233100 38.000000 94.025450
vn -5.808806 -0.097311 -2.392546
v 83.573720 48.117077 95.149553
vn -5.785241 -0.118567 -2.447745
v 83.592092 41.761242 95.415381
vn -2.874835 -0.022453 -1.274892
v 81.613050 39.934250 100.000000
vn -5.779250 -0.127295 -2.462065
v 83.166350 43.541676 96.303076
vn -2.902779 -0.066317 -1.184702
v 84.977200 42.844600 92.000000
vn -2.896174 -0.028928 -1.225291
v 81.565579 45.520150 99.999991
vn -2.876806 -0.040119 -1.258667
v 81.590650 41.874700 100.000000
vn -5.792126 -0.089042 -2.433424
v 82.843628 48.273861 96.879148
vn -1.452899 -0.020770 -0.582096
v 85.045500 38.000000 92.000000
vn -2.880811 -0.035776 -1.252348
v 83.084750 38.000000 96.713800
vn -5.785449 -0.090564 -2.449125
v 82.351042 46.859742 98.110129
vn -2.922720 -0.039512 -1.166882
v 84.832650 48.336150 92.000000
vn -2.904587 -0.048095 -1.196352
v 83.517700 50.000000 95.204200
vn -1.435537 -0.008239 -0.640940
v 81.619400 38.000000 100.000000
vn -1.458267 -0.013889 -0.589310
v 84.823400 50.000000 92.000000
vn -2.913330 -0.041896 -1.172588
v 85.003350 41.109650 92.000000
vn -2.889432 -0.039767 -1.232289
v 81.821400 50.000000 99.230600
vn -1.443305 -0.016478 -0.608349
v 81.497100 50.000000 100.000000
vn -5.812934 -0.104131 -2.382247
v 84.390142 41.373704 93.512088
vn -2.889345 -0.037610 -1.232732
v 83.684200 38.000000 95.316100
vn -5.797036 -0.117350 -2.420453
v 83.576577 44.892817 95.258155
vn -5.766456 -0.075010 -2.493919
v 83.130774 39.942170 96.552530
vn -2.911552 -0.082998 -1.179473
v 84.921050 44.768950 92.000600
vn -5.781350 -0.092619 -2.458777
v 82.064599 48.614056 98.710788
vn -2.893990 -0.034135 -1.222206
v 82.524106 50.000000 97.596022
vn -5.825016 -0.084908 -2.353722
v 84.616847 39.490712 93.016719
vn -5.780601 -0.057605 -2.461623
v 81.991792 45.356841 98.996423
vn -5.813201 -0.147975 -2.379615
v 84.401144 44.854260 93.277993
vn -5.783860 -0.076693 -2.453274
v 82.731769 45.068632 97.271865
vn -2.887242 -0.048509 -1.228128
v 81.509600 48.905100 100.000000
vn -5.796564 -0.091120 -2.422744
v 83.127992 46.515340 96.274772
vn -2.911358 -0.046377 -1.179492
v 83.833700 50.000000 94.424700
vn -2.887582 -0.022360 -1.234204
v 81.575900 43.608600 100.000000
vn -2.893690 -0.048452 -1.229046
v 81.537800 47.538200 100.000000
vn -5.744877 -0.054949 -2.543909
v 82.362858 39.200919 98.319414
vn -5.762953 -0.119964 -2.500095
v 82.902393 41.994229 97.007832
vn -5.766273 -0.084943 -2.493840
v 82.302315 43.300937 98.309478
vn -2.871352 -0.033774 -1.274013
v 82.542400 38.000000 97.946600
vn -2.917136 -0.040590 -1.167422
v 85.027400 39.227100 92.000000
vn -2.916165 -0.069092 -1.172907
v 84.871700 46.540200 92.000400
vn -5.799008 -0.147174 -2.414028
v 84.016728 43.300716 94.305249
vn -5.795034 -0.085173 -2.426349
v 83.931943 39.887746 94.674203
vn -5.827966 -0.094789 -2.345991
v 84.310637 48.281391 93.309354
vn -5.751333 -0.086333 -2.528164
v 82.322899 41.154902 98.367415
vn -5.816345 -0.111953 -2.373842
v 84.035136 46.501241 94.083246
# 46 vertices, 0 vertices normals

f 11//11 23//23 21//21
f 35//35 25//25 12//12
f 23//23 11//11 36//36
f 27//27 20//20 17//17
f 23//23 43//43 21//21
f 1//1 21//21 43//43
f 8//8 45//45 4//4
f 24//24 6//6 29//29
f 36//36 4//4 45//45
f 26//26 14//14 9//9
f 9//9 25//25 26//26
f 10//10 1//1 27//27
f 43//43 27//27 1//1
f 12//12 25//25 9//9
f 46//46 29//29 22//22
f 26//26 25//25 18//18
f 18//18 25//25 31//31
f 31//31 19//19 18//18
f 9//9 2//2 32//32
f 32//32 22//22 30//30
f 46//46 22//22 32//32
f 3//3 42//42 20//20
f 2//2 33//33 44//44
f 33//33 16//16 44//44
f 8//8 34//34 38//38
f 34//34 7//7 28//28
f 12//12 9//9 32//32
f 12//12 32//32 30//30
f 7//7 35//35 28//28
f 35//35 31//31 25//25
f 28//28 35//35 12//12
f 3//3 37//37 5//5
f 38//38 5//5 37//37
f 38//38 37//37 45//45
f 44//44 46//46 2//2
f 2//2 9//9 14//14
f 10//10 27//27 40//40
f 27//27 43//43 20//20
f 40//40 27//27 17//17
f 36//36 11//11 39//39
f 29//29 41//41 24//24
f 38//38 30//30 5//5
f 33//33 2//2 14//14
f 17//17 20//20 6//6
f 42//42 6//6 20//20
f 20//20 43//43 3//3
f 29//29 42//42 22//22
f 38//38 28//28 30//30
f 15//15 36//36 39//39
f 28//28 12//12 30//30
f 36//36 15//15 4//4
f 34//34 28//28 38//38
f 32//32 2//2 46//46
f 37//37 23//23 45//45
f 44//44 13//13 41//41
f 43//43 23//23 3//3
f 22//22 42//42 5//5
f 22//22 5//5 30//30
f 45//45 23//23 36//36
f 3//3 23//23 37//37
f 44//44 16//16 13//13
f 38//38 45//45 8//8
f 42//42 3//3 5//5
f 29//29 6//6 42//42
f 29//29 46//46 41//41
f 46//46 44//44 41//41
# 66 faces, 0 coords texture

# End of File
