####
#
# OBJ File Generated by Meshlab
#
####
# Object 2432S.obj
#
# Vertices: 42
# Faces: 61
#
####
vn -5.666883 0.171831 -2.708279
v 87.032251 -23.311292 89.426340
vn -5.657660 0.074028 -2.731832
v 88.901866 -18.709639 85.752354
vn -5.648320 0.117751 -2.749574
v 88.705412 -22.395206 85.996971
vn -5.635331 0.099840 -2.776721
v 89.654133 -21.696354 84.084708
vn -5.679417 0.130133 -2.684294
v 87.294256 -20.143971 89.044471
vn -5.636292 0.115158 -2.774311
v 89.385808 -23.768507 84.564809
vn -2.438201 0.095986 -1.217293
v 87.489300 -28.417600 88.071600
vn -2.934755 0.040505 -1.454075
v 90.400000 -19.914400 82.635700
vn -1.864271 0.025906 -0.916884
v 90.389800 -19.781300 82.660200
vn -2.302839 0.069660 -1.170959
v 89.150800 -28.712800 84.784400
vn -2.357733 0.080053 -1.119777
v 86.315900 -23.794500 90.900100
vn -2.446306 0.092155 -1.243406
v 88.304700 -28.937100 86.406900
vn -2.268112 0.041788 -1.071439
v 87.398600 -17.926500 88.911900
vn -2.612532 0.063745 -1.310462
v 89.712200 -27.739500 83.717700
vn -2.348275 0.021164 -1.128789
v 89.005500 -17.368800 85.561900
vn -2.609104 0.070034 -1.233809
v 86.468500 -21.446600 90.723300
vn -2.503810 0.056826 -1.172278
v 86.839100 -19.358300 90.054700
vn -3.359232 0.027146 -1.398646
v 89.672600 -18.229800 84.155200
vn -2.212874 0.015649 -0.845895
v 89.672700 -18.229800 84.154900
vn -2.618401 0.041886 -1.320097
v 90.662050 -21.707800 82.079350
vn -2.333719 0.047870 -1.180870
v 90.726900 -24.387900 81.844300
vn -3.230131 0.043232 -1.588580
v 90.354600 -19.755500 82.732500
vn -2.473999 0.111158 -1.214495
v 86.968800 -27.396100 89.201600
vn -5.648407 0.196207 -2.744964
v 87.591197 -24.568040 88.180183
vn -5.651912 0.116072 -2.742324
v 88.798012 -20.514078 85.902068
vn -5.640130 0.146469 -2.764988
v 88.504726 -24.139660 86.339657
vn -5.626808 0.147252 -2.792062
v 89.131431 -25.648409 84.982821
vn -5.656927 0.135026 -2.731127
v 87.879105 -22.761635 87.694360
vn -2.641639 0.054187 -1.338361
v 90.187753 -26.481879 82.833963
vn -5.607593 0.176255 -2.828659
v 88.780294 -27.233287 85.601063
vn -5.625703 0.192856 -2.791463
v 88.225850 -25.768050 86.799619
vn -2.667996 0.035071 -1.283626
v 88.438850 -17.409050 86.738100
vn -5.615236 0.217565 -2.810669
v 87.885414 -27.271308 87.368584
vn -2.719433 0.058286 -1.385230
v 90.731300 -23.410400 81.881800
vn -2.771097 0.115823 -1.329961
v 86.633446 -25.686761 90.077826
vn -5.639095 0.240597 -2.760411
v 87.436566 -26.128873 88.364850
vn -5.664121 0.101452 -2.717591
v 88.059418 -19.262589 87.469141
vn -5.616141 0.110814 -2.814938
v 90.192730 -23.371555 82.940736
vn -5.619833 0.120675 -2.807258
v 89.896701 -25.294336 83.456519
vn -5.648398 0.086020 -2.750676
v 89.685947 -19.766615 84.091814
vn -5.670795 0.139483 -2.701921
v 87.303450 -21.707971 88.939211
vn -5.660129 0.124718 -2.724970
v 87.992479 -21.151335 87.529375
# 42 vertices, 0 vertices normals

f 33//33 7//7 23//23
f 40//40 22//22 8//8
f 4//4 8//8 20//20
f 28//28 26//26 24//24
f 5//5 17//17 13//13
f 40//40 18//18 19//19
f 27//27 6//6 39//39
f 8//8 22//22 9//9
f 40//40 2//2 18//18
f 30//30 10//10 12//12
f 25//25 40//40 4//4
f 27//27 30//30 31//31
f 37//37 13//13 32//32
f 25//25 3//3 42//42
f 39//39 29//29 14//14
f 14//14 27//27 39//39
f 10//10 30//30 14//14
f 14//14 30//30 27//27
f 25//25 42//42 37//37
f 13//13 37//37 5//5
f 1//1 28//28 24//24
f 28//28 3//3 26//26
f 2//2 40//40 25//25
f 6//6 3//3 4//4
f 2//2 32//32 15//15
f 1//1 11//11 16//16
f 5//5 16//16 17//17
f 5//5 42//42 41//41
f 25//25 4//4 3//3
f 12//12 33//33 30//30
f 33//33 12//12 7//7
f 34//34 21//21 38//38
f 37//37 2//2 25//25
f 35//35 11//11 1//1
f 31//31 26//26 27//27
f 2//2 37//37 32//32
f 28//28 1//1 41//41
f 31//31 30//30 33//33
f 19//19 22//22 40//40
f 18//18 2//2 15//15
f 24//24 31//31 36//36
f 31//31 33//33 36//36
f 23//23 36//36 33//33
f 31//31 24//24 26//26
f 35//35 36//36 23//23
f 24//24 36//36 35//35
f 1//1 24//24 35//35
f 38//38 4//4 20//20
f 38//38 20//20 34//34
f 6//6 38//38 39//39
f 6//6 4//4 38//38
f 39//39 38//38 21//21
f 8//8 4//4 40//40
f 39//39 21//21 29//29
f 37//37 42//42 5//5
f 26//26 3//3 6//6
f 16//16 41//41 1//1
f 5//5 41//41 16//16
f 27//27 26//26 6//6
f 28//28 41//41 42//42
f 28//28 42//42 3//3
# 61 faces, 0 coords texture

# End of File
