####
#
# OBJ File Generated by Meshlab
#
####
# Object 2459.obj
#
# Vertices: 48
# Faces: 72
#
####
vn 5.695718 0.090274 -2.651236
v -99.365430 48.628559 67.414370
vn 2.883671 0.009719 -1.260612
v -96.098654 48.486800 74.601741
vn 2.854359 0.042485 -1.310697
v -98.599700 38.000000 68.789700
vn 5.696451 0.088043 -2.649717
v -99.419649 46.955772 67.238471
vn 5.708527 0.061628 -2.624087
v -97.914756 48.339905 70.522884
vn 5.736473 0.035471 -2.562337
v -97.362132 47.012653 71.708460
vn 5.768495 0.040685 -2.489969
v -96.927645 41.143550 72.614476
vn 2.858664 0.028205 -1.302764
v -97.586550 50.000000 71.275050
vn 2.874922 0.021818 -1.266557
v -96.570991 50.000000 73.542596
vn 5.721915 0.058863 -2.595022
v -98.253375 39.476311 69.603569
vn 1.435713 0.012005 -0.623119
v -96.105900 50.000000 74.614200
vn 1.432154 0.022783 -0.668220
v -100.191000 50.000000 65.689700
vn 2.846817 0.024129 -1.331944
v -100.127000 39.863900 65.579700
vn 1.416822 0.013178 -0.665232
v -100.118000 38.000000 65.564100
vn 2.847640 0.042450 -1.326150
v -98.710804 50.000000 68.866230
vn 5.700714 0.069287 -2.641057
v -99.181636 45.049003 67.692344
vn 1.454278 0.006642 -0.598698
v -96.087000 38.000000 74.581400
vn 5.751281 0.047504 -2.529047
v -97.301390 39.517456 71.720195
vn 5.692370 0.060708 -2.659211
v -99.215740 39.353065 67.512551
vn 5.694979 0.041471 -2.653983
v -99.417380 41.415534 67.126955
vn 5.745169 0.030477 -2.543385
v -96.907423 48.180688 72.753762
vn 5.706658 0.049627 -2.628610
v -98.733782 43.068710 68.619056
vn 5.709388 0.046389 -2.622522
v -98.550669 41.036729 68.974702
vn 2.847243 0.044680 -1.326981
v -99.701600 50.000000 66.738600
vn 2.881198 0.013970 -1.239940
v -96.101550 44.302300 74.605350
vn 5.773814 0.051410 -2.477425
v -96.738512 42.760957 73.081156
vn 2.868399 0.025143 -1.280902
v -97.804050 38.000000 70.568700
vn 2.847204 0.045677 -1.327794
v -100.175000 48.211150 65.663000
vn 2.895327 0.016390 -1.224088
v -96.092900 41.859300 74.591750
vn 2.844100 0.039274 -1.326851
v -100.153500 45.799450 65.626150
vn 2.840340 0.024775 -1.334579
v -100.140000 43.456850 65.601450
vn 5.695161 0.047321 -2.653355
v -99.646443 43.490736 66.652500
vn 5.713040 0.059609 -2.614535
v -98.079734 46.612664 70.134342
vn 2.901957 0.007740 -1.203186
v -96.089500 39.551700 74.585700
vn 2.847937 0.015579 -1.326523
v -100.133000 41.681400 65.590600
vn 5.733556 0.052808 -2.569107
v -97.809173 43.563550 70.655684
vn 5.700217 0.081682 -2.641809
v -98.721758 47.789542 68.771011
vn 2.891116 0.021509 -1.228204
v -96.771792 38.000078 72.910839
vn 5.733962 0.041440 -2.568664
v -97.795264 41.407751 70.653658
vn 2.879668 -0.002605 -1.258682
v -96.099300 46.217000 74.602000
vn 2.842088 0.029049 -1.338416
v -99.154700 38.000000 67.612800
vn 5.742838 0.035973 -2.548513
v -97.479263 45.448896 71.432332
vn 5.705578 0.079825 -2.630223
v -98.749405 46.251453 68.660783
vn 5.715669 0.062906 -2.608592
v -98.304796 44.941678 69.591860
vn 5.792139 0.035862 -2.434559
v -96.521922 39.677048 73.543551
vn 5.763448 0.046417 -2.501702
v -96.967794 44.269272 72.594976
vn 5.750444 0.046370 -2.531013
v -97.334735 42.430263 71.697801
vn 5.761211 0.005619 -2.507330
v -96.611767 45.919086 73.429844
# 48 vertices, 0 vertices normals

f 2//2 9//9 11//11
f 25//25 29//29 26//26
f 4//4 28//28 1//1
f 30//30 4//4 16//16
f 8//8 21//21 5//5
f 39//39 36//36 47//47
f 6//6 33//33 5//5
f 20//20 32//32 22//22
f 42//42 36//36 44//44
f 42//42 6//6 48//48
f 22//22 44//44 36//36
f 45//45 17//17 38//38
f 15//15 1//1 24//24
f 24//24 1//1 28//28
f 27//27 3//3 10//10
f 24//24 28//28 12//12
f 19//19 14//14 13//13
f 29//29 34//34 45//45
f 30//30 28//28 4//4
f 31//31 30//30 32//32
f 15//15 8//8 5//5
f 9//9 21//21 8//8
f 17//17 45//45 34//34
f 30//30 16//16 32//32
f 13//13 35//35 20//20
f 35//35 31//31 32//32
f 18//18 7//7 45//45
f 38//38 27//27 18//18
f 2//2 21//21 9//9
f 23//23 39//39 10//10
f 21//21 2//2 40//40
f 19//19 3//3 41//41
f 19//19 41//41 14//14
f 5//5 33//33 37//37
f 5//5 37//37 15//15
f 20//20 35//35 32//32
f 22//22 32//32 16//16
f 21//21 6//6 5//5
f 26//26 47//47 46//46
f 6//6 42//42 33//33
f 33//33 42//42 44//44
f 46//46 42//42 48//48
f 22//22 23//23 20//20
f 33//33 44//44 43//43
f 43//43 44//44 16//16
f 37//37 33//33 43//43
f 4//4 43//43 16//16
f 1//1 37//37 4//4
f 22//22 16//16 44//44
f 23//23 22//22 36//36
f 25//25 26//26 46//46
f 29//29 45//45 7//7
f 19//19 13//13 20//20
f 15//15 37//37 1//1
f 37//37 43//43 4//4
f 45//45 38//38 18//18
f 27//27 10//10 18//18
f 26//26 29//29 7//7
f 46//46 36//36 42//42
f 23//23 19//19 20//20
f 39//39 23//23 36//36
f 47//47 36//36 46//46
f 39//39 7//7 18//18
f 26//26 7//7 47//47
f 39//39 47//47 7//7
f 39//39 18//18 10//10
f 23//23 10//10 19//19
f 10//10 3//3 19//19
f 6//6 21//21 48//48
f 25//25 46//46 48//48
f 48//48 21//21 40//40
f 25//25 48//48 40//40
# 72 faces, 0 coords texture

# End of File
