####
#
# OBJ File Generated by Meshlab
#
####
# Object 245S.obj
#
# Vertices: 78
# Faces: 127
#
####
vn -2.847390 -0.122623 -5.599329
v 15.411707 -16.870019 46.618420
vn -2.337374 -0.189358 -5.828185
v 11.823379 -20.534004 48.376817
vn -1.666014 -0.066703 -6.056462
v 8.197584 -10.948010 49.346241
vn -2.075167 -0.122985 -5.923513
v 10.581059 -17.117350 48.776041
vn -2.422096 -0.152682 -5.794192
v 12.193047 -18.405498 48.162661
vn -2.950056 -0.040391 -5.545860
v 15.654333 -8.627776 46.313028
vn -2.171666 -0.064722 -5.891002
v 11.011555 -7.734230 48.424187
vn -2.366232 -0.056902 -5.817802
v 11.993911 -9.144454 48.044025
vn -2.660881 -0.039656 -5.691007
v 13.710755 -8.715170 47.277213
vn -2.746602 -0.143894 -5.646206
v 14.374205 -15.595467 47.124295
vn -1.709224 -0.148985 -6.041265
v 9.061102 -15.873965 49.219896
vn -3.333521 -0.206773 -5.321853
v 18.440599 -17.351300 44.907473
vn -2.991043 -0.184758 -5.520380
v 16.142342 -15.242085 46.201179
vn -1.039179 -0.080720 -1.774993
v 18.597200 -21.531300 45.004000
vn -1.742153 -0.108862 -2.834633
v 18.770411 -19.522079 44.792200
vn -0.742561 0.018496 -2.892694
v 6.964500 -10.365600 49.666500
vn -1.620632 -0.067263 -2.550448
v 19.554450 -14.756300 44.117500
vn -0.938149 -0.059699 -2.475646
v 11.019500 -5.992590 48.379300
vn -0.650522 -0.028473 -2.842762
v 6.225070 -12.336700 49.827150
vn -0.645570 -0.091184 -2.861735
v 7.001202 -19.914211 49.807447
vn -1.287535 -0.041453 -2.481741
v 15.279950 -6.225845 46.486950
vn -0.753909 -0.097285 -2.796227
v 8.183970 -21.796300 49.630600
vn -0.825041 -0.006312 -2.776620
v 7.855375 -8.761850 49.433300
vn -1.551947 -0.060350 -2.455872
v 19.496700 -13.116500 44.121000
vn -0.641226 -0.065234 -2.993751
v 5.994720 -15.613100 49.928400
vn -1.560400 -0.053303 -2.513526
v 18.979491 -10.999485 44.385579
vn -1.557906 -0.087682 -2.460885
v 19.419700 -16.998050 44.275050
vn -0.900176 -0.149660 -2.586746
v 10.584600 -23.754000 48.969600
vn -0.640878 -0.048861 -2.946463
v 6.013650 -13.881400 49.889100
vn -1.590620 -0.024634 -2.560993
v 18.498500 -9.837420 44.673500
vn -1.252917 -0.117703 -2.551622
v 15.028500 -23.542550 47.074050
vn -3.157167 -0.172796 -5.423373
v 17.382244 -18.671214 45.632859
vn -2.001440 -0.176938 -5.947407
v 10.194010 -19.169278 48.960416
vn -2.520934 -0.150149 -5.751882
v 12.543353 -12.435779 47.874966
vn -1.582246 -0.213875 -6.075229
v 8.615318 -20.031326 49.443660
vn -2.199611 -0.159177 -5.878913
v 11.158933 -13.222809 48.469879
vn -1.526500 -0.110447 -6.090877
v 7.880143 -12.854678 49.467294
vn -2.492006 -0.105705 -5.765160
v 12.535454 -16.274949 47.976057
vn -2.167618 -0.146016 -5.888351
v 11.016493 -15.118727 48.581792
vn -2.251099 -0.149333 -5.861399
v 11.394598 -11.171256 48.319726
vn -2.947531 -0.113923 -5.546642
v 15.794880 -11.920377 46.281435
vn -3.197341 -0.128250 -5.406589
v 17.481681 -11.712614 45.326497
vn -1.392145 -0.002017 -2.534741
v 16.587300 -7.150790 45.797400
vn -2.851399 -0.227868 -5.591957
v 15.315240 -21.297460 46.832944
vn -2.813137 -0.077225 -5.616371
v 14.771773 -10.278150 46.786825
vn -2.585174 -0.096469 -5.724853
v 13.101197 -10.648163 47.585252
vn -1.954347 -0.150283 -5.962757
v 9.927109 -21.245010 49.116488
vn -0.888306 -0.072214 -2.814655
v 9.230750 -22.838200 49.350850
vn -2.780022 -0.048485 -5.630615
v 14.506530 -7.194178 46.904377
vn -1.151332 -0.041031 -2.583486
v 13.303659 -5.748652 47.453571
vn -3.080710 -0.185229 -5.469171
v 16.842018 -17.074749 45.879400
vn -2.466608 -0.067550 -5.776295
v 12.603052 -7.284254 47.772845
vn -1.181713 -0.123081 -2.651739
v 13.653450 -23.928150 47.742850
vn -0.604923 -0.055935 -2.781582
v 6.123915 -17.548950 49.940900
vn -1.558799 -0.147628 -6.081677
v 8.354423 -17.983479 49.459130
vn -1.604204 -0.111087 -2.904665
v 16.803350 -22.318400 46.067700
vn -1.892543 -0.143177 -5.987368
v 9.715221 -11.877604 48.924103
vn -1.393772 -0.133093 -6.124339
v 7.335355 -16.335184 49.659106
vn -0.905146 -0.021230 -2.785343
v 9.223389 -7.275393 49.018551
vn -2.736490 -0.122685 -5.654359
v 14.036278 -12.250171 47.170188
vn -2.686120 -0.140458 -5.677783
v 14.016951 -17.671247 47.318713
vn -2.524185 -0.235856 -5.747341
v 13.302917 -22.314923 47.824182
vn -3.266905 -0.064950 -5.366381
v 17.938444 -10.276639 45.025573
vn -3.079487 -0.084407 -5.474560
v 16.619573 -10.157731 45.804736
vn -2.837226 -0.186754 -5.602378
v 15.009354 -13.771752 46.734114
vn -3.099212 -0.166593 -5.461240
v 16.896624 -13.533967 45.725374
vn -2.218460 -0.225162 -5.872458
v 11.322826 -22.461078 48.637897
vn -1.082355 -0.122503 -2.733514
v 11.628000 -23.959250 48.588450
vn -1.453913 -0.128403 -6.109997
v 7.581183 -14.670946 49.565746
vn -2.570295 -0.164326 -5.728953
v 12.935129 -14.180096 47.751623
vn -1.491180 -0.022900 -2.551481
v 17.863700 -8.696410 45.056450
vn -3.090561 -0.193958 -5.465944
v 17.113033 -20.420497 45.822398
vn -2.626467 -0.217569 -5.701359
v 13.767380 -19.891359 47.527886
vn -3.303156 -0.149227 -5.342197
v 18.443810 -13.251100 44.789664
vn -2.870303 -0.189441 -5.585516
v 15.690738 -18.925794 46.534146
vn -1.977904 -0.066958 -5.962280
v 9.944412 -9.515603 48.790534
vn -1.796219 -0.145858 -6.017528
v 9.416820 -13.887428 49.058639
vn -3.272061 -0.163548 -5.360371
v 17.965587 -15.125920 45.139222
# 78 vertices, 0 vertices normals

f 41//41 64//64 42//42
f 77//77 69//69 37//37
f 8//8 9//9 46//46
f 76//76 57//57 3//3
f 11//11 4//4 55//55
f 41//41 60//60 45//45
f 78//78 12//12 51//51
f 66//66 65//65 41//41
f 39//39 11//11 77//77
f 36//36 70//70 39//39
f 70//70 65//65 10//10
f 64//64 71//71 63//63
f 64//64 45//45 6//6
f 49//49 6//6 9//9
f 65//65 13//13 10//10
f 62//62 31//31 53//53
f 14//14 72//72 15//15
f 72//72 14//14 56//56
f 3//3 37//37 19//19
f 35//35 33//33 47//47
f 7//7 18//18 52//52
f 50//50 52//52 18//18
f 2//2 33//33 5//5
f 55//55 33//33 35//35
f 3//3 19//19 16//16
f 15//15 32//32 12//12
f 4//4 39//39 38//38
f 46//46 34//34 40//40
f 46//46 40//40 8//8
f 6//6 43//43 71//71
f 44//44 72//72 56//56
f 47//47 48//48 22//22
f 52//52 8//8 7//7
f 7//7 8//8 76//76
f 40//40 36//36 57//57
f 57//57 77//77 37//37
f 57//57 37//37 3//3
f 50//50 21//21 49//49
f 76//76 3//3 23//23
f 78//78 74//74 17//17
f 49//49 52//52 50//50
f 49//49 9//9 52//52
f 46//46 9//9 45//45
f 9//9 8//8 52//52
f 10//10 1//1 61//61
f 54//54 58//58 55//55
f 54//54 25//25 58//58
f 72//72 32//32 15//15
f 1//1 13//13 51//51
f 44//44 56//56 31//31
f 4//4 38//38 5//5
f 38//38 61//61 5//5
f 55//55 4//4 33//33
f 58//58 69//69 11//11
f 59//59 7//7 76//76
f 59//59 18//18 7//7
f 46//46 60//60 34//34
f 61//61 73//73 5//5
f 73//73 2//2 5//5
f 2//2 73//73 62//62
f 76//76 23//23 59//59
f 64//64 41//41 45//45
f 41//41 65//65 60//60
f 45//45 60//60 46//46
f 62//62 44//44 31//31
f 43//43 49//49 21//21
f 43//43 6//6 49//49
f 51//51 12//12 32//32
f 3//3 16//16 23//23
f 70//70 60//60 65//65
f 42//42 74//74 66//66
f 42//42 26//26 74//74
f 24//24 74//74 26//26
f 68//68 28//28 67//67
f 2//2 62//62 67//67
f 68//68 67//67 62//62
f 42//42 66//66 41//41
f 66//66 13//13 65//65
f 37//37 69//69 29//29
f 19//19 37//37 29//29
f 58//58 11//11 55//55
f 25//25 69//69 58//58
f 29//29 69//69 25//25
f 36//36 39//39 77//77
f 39//39 4//4 11//11
f 34//34 36//36 40//40
f 36//36 34//34 70//70
f 39//39 70//70 38//38
f 38//38 10//10 61//61
f 26//26 42//42 63//63
f 42//42 64//64 63//63
f 26//26 63//63 30//30
f 38//38 70//70 10//10
f 70//70 34//34 60//60
f 64//64 6//6 71//71
f 63//63 71//71 30//30
f 35//35 47//47 22//22
f 20//20 35//35 22//22
f 9//9 6//6 45//45
f 4//4 5//5 33//33
f 69//69 77//77 11//11
f 47//47 67//67 48//48
f 28//28 48//48 67//67
f 67//67 47//47 2//2
f 10//10 13//13 1//1
f 47//47 33//33 2//2
f 62//62 73//73 44//44
f 44//44 73//73 75//75
f 32//32 72//72 75//75
f 44//44 75//75 72//72
f 75//75 73//73 61//61
f 74//74 24//24 17//17
f 53//53 68//68 62//62
f 51//51 32//32 75//75
f 55//55 20//20 54//54
f 20//20 55//55 35//35
f 40//40 76//76 8//8
f 36//36 77//77 57//57
f 76//76 40//40 57//57
f 78//78 51//51 13//13
f 1//1 75//75 61//61
f 75//75 1//1 51//51
f 17//17 12//12 78//78
f 12//12 27//27 15//15
f 27//27 12//12 17//17
f 78//78 66//66 74//74
f 78//78 13//13 66//66
# 127 faces, 0 coords texture

# End of File
