####
#
# OBJ File Generated by Meshlab
#
####
# Object 2462.obj
#
# Vertices: 44
# Faces: 63
#
####
vn 6.019221 -0.043329 -1.801475
v -83.258175 -43.460972 97.891724
vn 3.005131 -0.005786 -0.900272
v -85.062100 -45.632550 92.000000
vn 6.018339 -0.007570 -1.804123
v -83.467992 -41.565469 97.137346
vn 3.015801 -0.042047 -0.878640
v -84.399500 -50.000000 94.329200
vn 6.030773 -0.048973 -1.762169
v -84.605285 -48.382134 93.544975
vn 3.017658 -0.000004 -0.884409
v -85.051400 -47.220300 92.000000
vn 6.018293 -0.053564 -1.804300
v -84.139824 -46.948925 95.079793
vn 3.020188 -0.028689 -0.864336
v -84.895500 -50.000000 92.595450
vn 3.000656 -0.025694 -0.929205
v -82.600200 -40.424900 99.999500
vn 3.007093 -0.009491 -0.905776
v -82.633500 -45.119300 99.999400
vn 3.005499 -0.034256 -0.910716
v -85.040900 -43.191450 92.000000
vn 1.492700 -0.007613 -0.477694
v -82.574200 -38.000000 100.000000
vn 3.014726 -0.026895 -0.879859
v -84.995550 -39.260700 92.000000
vn 3.001071 -0.032597 -0.922471
v -82.644600 -47.039750 99.999850
vn 1.503340 -0.019769 -0.468272
v -82.680600 -50.000000 100.000000
vn 1.515665 -0.022181 -0.426783
v -84.977100 -38.000000 92.000000
vn 3.009443 -0.044734 -0.899849
v -83.826100 -50.000000 96.277300
vn 1.509669 -0.009307 -0.427712
v -85.064200 -50.000000 92.000000
vn 3.001391 -0.037893 -0.926997
v -83.122850 -50.000000 98.580200
vn 6.011583 -0.065999 -1.826166
v -84.434014 -43.325000 94.004421
vn 2.998849 0.009203 -0.935335
v -83.285300 -38.000000 97.816750
vn 6.012999 -0.061133 -1.821669
v -83.603633 -45.444407 96.805950
vn 6.012992 -0.049860 -1.821877
v -84.696369 -44.741663 93.194191
vn 6.019307 -0.018292 -1.801470
v -84.628552 -46.360078 93.445178
vn 6.013633 -0.054710 -1.819602
v -84.623067 -41.952464 93.323373
vn 3.018945 -0.011344 -0.869163
v -84.602400 -38.000000 93.330700
vn 3.012248 -0.014599 -0.899354
v -82.632600 -43.484650 99.999850
vn 3.009229 -0.033317 -0.905044
v -82.616200 -41.682400 99.999700
vn 6.019082 -0.035572 -1.802028
v -82.982244 -41.813572 98.787450
vn 6.018235 0.035767 -1.804808
v -83.689306 -39.717678 96.451578
vn 6.025578 -0.083172 -1.778702
v -84.131015 -48.665187 95.172413
vn 3.013535 0.013670 -0.887270
v -83.957650 -38.000000 95.584450
vn 3.007992 -0.028670 -0.906716
v -85.020100 -41.453350 92.000000
vn 6.006489 -0.082835 -1.841997
v -83.214653 -48.441877 98.219139
vn 3.019091 -0.021770 -0.870556
v -85.059700 -49.270100 92.000000
vn 2.998779 -0.037000 -0.933589
v -82.662800 -48.646400 100.000000
vn 6.011359 -0.053068 -1.827317
v -84.231255 -45.050124 94.727533
vn 6.013027 -0.057021 -1.821674
v -83.846157 -43.484657 95.938860
vn 6.009282 -0.075424 -1.833343
v -83.250456 -46.754417 98.017455
vn 6.016859 -0.020800 -1.809421
v -84.053465 -41.503672 95.199324
vn 6.016436 -0.082231 -1.809427
v -83.698283 -47.752304 96.585366
vn 6.025856 -0.010213 -1.779422
v -84.405699 -39.966103 94.012141
vn 6.002869 -0.001235 -1.855252
v -83.105439 -39.887008 98.370054
vn 6.014346 -0.038377 -1.817698
v -82.988951 -45.120301 98.819346
# 44 vertices, 0 vertices normals

f 25//25 20//20 11//11
f 29//29 1//1 3//3
f 26//26 13//13 16//16
f 26//26 32//32 42//42
f 35//35 8//8 18//18
f 43//43 9//9 29//29
f 32//32 30//30 42//42
f 39//39 41//41 22//22
f 39//39 22//22 44//44
f 20//20 40//40 38//38
f 11//11 20//20 23//23
f 11//11 23//23 2//2
f 4//4 5//5 31//31
f 34//34 36//36 19//19
f 27//27 10//10 44//44
f 10//10 14//14 44//44
f 19//19 17//17 34//34
f 24//24 6//6 2//2
f 2//2 23//23 24//24
f 4//4 31//31 17//17
f 32//32 21//21 30//30
f 5//5 6//6 24//24
f 7//7 41//41 31//31
f 33//33 13//13 42//42
f 25//25 33//33 42//42
f 7//7 31//31 5//5
f 6//6 5//5 35//35
f 35//35 5//5 8//8
f 24//24 7//7 5//5
f 8//8 5//5 4//4
f 12//12 9//9 43//43
f 12//12 43//43 21//21
f 19//19 36//36 15//15
f 7//7 24//24 37//37
f 28//28 29//29 9//9
f 34//34 39//39 14//14
f 22//22 41//41 7//7
f 38//38 3//3 1//1
f 40//40 25//25 42//42
f 25//25 11//11 33//33
f 7//7 37//37 22//22
f 37//37 38//38 22//22
f 42//42 30//30 40//40
f 30//30 3//3 40//40
f 14//14 39//39 44//44
f 27//27 44//44 1//1
f 37//37 20//20 38//38
f 38//38 40//40 3//3
f 24//24 23//23 37//37
f 23//23 20//20 37//37
f 20//20 25//25 40//40
f 41//41 39//39 34//34
f 1//1 29//29 27//27
f 34//34 14//14 36//36
f 17//17 31//31 41//41
f 34//34 17//17 41//41
f 26//26 42//42 13//13
f 38//38 1//1 22//22
f 44//44 22//22 1//1
f 30//30 21//21 43//43
f 29//29 28//28 27//27
f 3//3 30//30 43//43
f 29//29 3//3 43//43
# 63 faces, 0 coords texture

# End of File
