####
#
# OBJ File Generated by Meshlab
#
####
# Object 2487.obj
#
# Vertices: 48
# Faces: 71
#
####
vn -5.722203 0.080904 -2.593839
v 99.242718 -44.094726 69.619965
vn -5.712297 0.060591 -2.616065
v 99.512405 -46.020203 68.976692
vn -2.850088 0.031616 -1.320763
v 99.800629 -50.000000 68.251366
vn -5.724089 0.083462 -2.589535
v 98.616636 -43.248949 71.025731
vn -2.855682 0.040074 -1.309079
v 98.795150 -38.000000 70.792950
vn -2.884895 0.049716 -1.233907
v 96.631900 -43.333600 75.525150
vn -2.843058 0.060381 -1.336912
v 100.704500 -42.078050 66.579500
vn -2.838730 0.049690 -1.347565
v 100.732500 -39.636200 66.627000
vn -2.841921 0.030467 -1.340432
v 100.654000 -47.756500 66.492500
vn -1.414182 0.015081 -0.666842
v 100.641000 -50.000000 66.468500
vn -2.872891 0.034921 -1.271010
v 97.892759 -38.000000 72.788929
vn -5.762544 0.092849 -2.502131
v 97.146256 -41.553332 74.382354
vn -1.426880 0.025294 -0.683287
v 100.748000 -38.000000 66.655200
vn -2.879004 0.040029 -1.268582
v 96.604150 -45.677150 75.477050
vn -2.866985 0.040383 -1.283424
v 97.829050 -50.000000 72.576950
vn -2.876568 0.031814 -1.262160
v 97.072350 -50.000000 74.289050
vn -2.878980 0.035534 -1.271135
v 96.585375 -48.066375 75.444700
vn -1.446334 0.007321 -0.621715
v 96.579800 -50.000000 75.434900
vn -1.434892 0.027122 -0.605518
v 96.681500 -38.000000 75.611100
vn -5.730019 0.069344 -2.576766
v 98.326983 -39.561775 71.779699
vn -5.681483 0.127367 -2.680002
v 100.232132 -41.816461 67.595845
vn -2.858377 0.031487 -1.303182
v 98.740800 -50.000000 70.576150
vn -5.724822 0.080532 -2.587917
v 98.265051 -48.641541 71.651328
vn -5.714738 0.063527 -2.610761
v 99.393219 -48.218816 69.187555
vn -2.888362 0.045654 -1.232689
v 96.648400 -41.490200 75.553700
vn -5.753511 0.085768 -2.523051
v 97.244619 -43.847762 74.072940
vn -2.837907 0.037894 -1.337243
v 100.664500 -45.905050 66.510700
vn -5.685752 0.065897 -2.673157
v 100.261958 -45.804634 67.367822
vn -5.727510 0.078636 -2.582065
v 98.443395 -41.203916 71.474005
vn -5.733445 0.073859 -2.569118
v 98.054056 -46.882711 72.185662
vn -5.682420 0.091356 -2.679565
v 99.835189 -39.848632 68.511080
vn -2.831446 0.056960 -1.353490
v 100.685000 -43.695400 66.546350
vn -5.740345 0.085682 -2.553319
v 97.504690 -48.432474 73.361993
vn -5.703362 0.105921 -2.634021
v 99.351505 -42.023468 69.462239
vn -5.738563 0.087258 -2.557273
v 97.863552 -42.324831 72.738749
vn -2.889645 0.043560 -1.240007
v 96.663250 -39.668750 75.579600
vn -5.764228 0.082441 -2.498998
v 97.174498 -39.526106 74.397116
vn -2.887226 0.046057 -1.237764
v 97.074800 -38.000000 74.679100
vn -5.741161 0.069332 -2.551965
v 97.293931 -46.270691 73.907571
vn -5.746370 0.074694 -2.540058
v 97.743491 -40.263628 73.077856
vn -5.734732 0.068516 -2.566273
v 97.956646 -44.614333 72.450666
vn -5.725487 0.064574 -2.587078
v 98.706683 -45.454745 70.768055
vn -5.703940 0.080861 -2.633615
v 99.016459 -39.866999 70.256446
vn -5.689831 0.101101 -2.661435
v 99.932380 -43.908028 68.101581
vn -2.837450 0.044367 -1.347927
v 100.161650 -38.000000 67.879650
vn -2.843938 0.041812 -1.334273
v 99.488600 -38.000000 69.303600
vn -5.695016 0.063805 -2.653337
v 99.979372 -47.910045 67.918889
vn -5.721606 0.070129 -2.595498
v 98.820005 -47.719065 70.459670
# 48 vertices, 0 vertices normals

f 25//25 36//36 37//37
f 17//17 39//39 33//33
f 30//30 23//23 33//33
f 17//17 16//16 18//18
f 37//37 11//11 40//40
f 5//5 43//43 20//20
f 21//21 44//44 34//34
f 42//42 4//4 1//1
f 12//12 40//40 35//35
f 2//2 44//44 28//28
f 26//26 35//35 41//41
f 22//22 15//15 23//23
f 6//6 25//25 12//12
f 27//27 9//9 28//28
f 12//12 26//26 6//6
f 14//14 6//6 26//26
f 24//24 3//3 22//22
f 17//17 33//33 16//16
f 33//33 23//23 15//15
f 36//36 38//38 37//37
f 38//38 11//11 37//37
f 26//26 39//39 14//14
f 14//14 39//39 17//17
f 40//40 11//11 20//20
f 41//41 30//30 39//39
f 41//41 39//39 26//26
f 30//30 41//41 42//42
f 41//41 4//4 42//42
f 1//1 4//4 34//34
f 43//43 29//29 20//20
f 11//11 5//5 20//20
f 30//30 42//42 48//48
f 39//39 30//30 33//33
f 8//8 7//7 21//21
f 31//31 21//21 34//34
f 29//29 4//4 35//35
f 48//48 23//23 30//30
f 21//21 7//7 32//32
f 34//34 44//44 1//1
f 24//24 48//48 2//2
f 8//8 31//31 45//45
f 24//24 22//22 48//48
f 44//44 21//21 32//32
f 35//35 26//26 12//12
f 41//41 35//35 4//4
f 31//31 43//43 46//46
f 43//43 5//5 46//46
f 31//31 46//46 45//45
f 8//8 21//21 31//31
f 2//2 1//1 44//44
f 24//24 47//47 3//3
f 1//1 2//2 42//42
f 25//25 37//37 12//12
f 38//38 36//36 19//19
f 42//42 2//2 48//48
f 12//12 37//37 40//40
f 8//8 45//45 13//13
f 16//16 33//33 15//15
f 27//27 28//28 32//32
f 28//28 44//44 32//32
f 43//43 31//31 34//34
f 29//29 43//43 34//34
f 4//4 29//29 34//34
f 29//29 35//35 40//40
f 3//3 47//47 10//10
f 29//29 40//40 20//20
f 47//47 9//9 10//10
f 47//47 24//24 2//2
f 28//28 47//47 2//2
f 47//47 28//28 9//9
f 23//23 48//48 22//22
# 71 faces, 0 coords texture

# End of File
