####
#
# OBJ File Generated by Meshlab
#
####
# Object 2502S.obj
#
# Vertices: 67
# Faces: 104
#
####
vn 5.768504 0.043440 -2.490100
v -88.430627 -10.452902 91.054326
vn 5.751882 0.063034 -2.527869
v -90.532936 -14.945046 86.099584
vn 5.762353 0.058993 -2.503280
v -88.942443 -7.398207 89.897739
vn 5.763910 0.060027 -2.500351
v -89.019978 -11.241923 89.666859
vn 5.761412 0.067075 -2.505978
v -89.829843 -16.216621 87.681059
vn 5.765452 0.075588 -2.496244
v -88.822780 -5.694859 90.248129
vn 5.759879 0.035102 -2.510014
v -89.046284 -9.290196 89.638889
vn 5.762089 0.086903 -2.503798
v -89.434007 -18.209983 88.530688
vn 5.758850 0.059315 -2.511953
v -88.245481 -6.662116 91.545132
vn 2.861932 0.027395 -1.252744
v -90.397000 -2.024980 86.698800
vn 2.338357 0.045365 -1.012204
v -89.196400 -21.395400 88.945200
vn 3.234885 0.038189 -1.417827
v -91.163700 -14.413500 84.679600
vn 2.698327 0.036811 -1.163832
v -87.765200 -17.675100 92.392300
vn 2.369338 0.009683 -1.052056
v -91.744900 -5.883290 83.576400
vn 2.435239 0.028124 -1.061584
v -89.833600 -1.419580 88.004200
vn 2.801126 0.000177 -1.212233
v -91.208500 -4.309780 84.774200
vn 2.871280 0.035043 -1.244108
v -91.457600 -11.972200 84.064800
vn 2.804881 0.032941 -1.238800
v -87.778100 -5.140860 92.635300
vn 2.311083 0.038782 -1.010324
v -90.123600 -20.796600 86.842500
vn 2.624431 0.039024 -1.141246
v -88.105700 -19.604350 91.529250
vn 2.548718 0.020743 -1.127206
v -91.194500 -15.174900 84.594100
vn 3.400810 0.042145 -1.460078
v -88.361600 -2.915140 91.382300
vn 2.340344 0.033214 -1.009440
v -88.147000 -3.251190 91.875600
vn 2.029201 0.022551 -0.868931
v -88.578800 -1.844890 90.908900
vn 2.792162 0.027755 -1.201852
v -89.202850 -1.549815 89.451250
vn 2.416911 0.043825 -1.052393
v -88.507900 -20.776100 90.566400
vn 3.301082 0.025673 -1.419241
v -90.966000 -3.684970 85.348800
vn 2.495513 0.041948 -1.097496
v -90.719200 -19.096300 85.549600
vn 2.129654 0.022780 -0.928464
v -90.816900 -2.495570 85.732100
vn 2.539013 0.027242 -1.122024
v -91.871800 -8.259210 83.250400
vn 2.842794 0.044924 -1.238386
v -91.688362 -10.014785 83.597606
vn 2.975671 0.027525 -1.290351
v -87.539300 -12.329700 93.072600
vn 5.746637 0.057787 -2.539816
v -90.589712 -16.239910 85.940011
vn 5.752254 0.044529 -2.527261
v -90.535880 -8.507498 86.287274
vn 5.765443 0.060914 -2.496812
v -89.081243 -14.921724 89.441346
vn 2.506307 0.015728 -1.100986
v -87.413568 -7.546665 93.419092
vn 5.768754 0.055232 -2.489318
v -89.055815 -3.613281 89.749038
vn 5.750383 0.033905 -2.531810
v -91.151325 -7.023311 84.895689
vn 5.754764 0.034266 -2.521845
v -90.366622 -5.988683 86.703315
vn 5.748517 0.056380 -2.535658
v -89.834393 -10.010260 87.841980
vn 5.745307 0.042914 -2.543210
v -89.731034 -7.858904 88.108572
vn 5.752490 0.083427 -2.525917
v -89.933783 -11.963365 87.557345
vn 5.758684 0.071788 -2.512034
v -88.375490 -4.567073 91.302559
vn 5.761400 0.054508 -2.506268
v -89.693640 -2.500562 88.296627
vn 2.732630 0.034488 -1.180544
v -87.522250 -14.043500 93.073200
vn 5.758545 0.080889 -2.512133
v -89.045277 -16.830020 89.469264
vn 5.758762 0.013976 -2.512815
v -90.997080 -5.034917 85.262626
vn 5.757339 0.058770 -2.515488
v -89.504452 -5.747610 88.668123
vn 5.765204 0.034423 -2.497821
v -88.260610 -8.708825 91.474860
vn 5.761248 0.098995 -2.505275
v -89.805329 -19.597895 87.616547
vn 2.844903 0.017546 -1.239328
v -87.467892 -10.149524 93.274416
vn 2.805462 0.039536 -1.212920
v -87.629800 -16.163150 92.746100
vn 5.768192 0.056719 -2.490522
v -88.235128 -11.918263 91.478533
vn 2.827298 0.025331 -1.260887
v -91.050600 -16.595050 84.904150
vn 5.758128 0.068922 -2.513425
v -91.224453 -9.277243 84.689532
vn 5.760483 0.081646 -2.507617
v -88.597083 -18.182780 90.443768
vn 5.762195 0.094864 -2.503114
v -88.956571 -19.733084 89.579424
vn 5.767071 0.073860 -2.492693
v -91.174724 -11.481042 84.730953
vn 5.757290 0.075316 -2.515023
v -90.634755 -10.853214 86.005064
vn 5.761753 0.045741 -2.505664
v -90.550612 -3.821153 86.310372
vn 5.763565 0.082443 -2.500537
v -88.370392 -16.318931 91.028463
vn 5.766858 0.064359 -2.493351
v -89.055619 -12.869917 89.536758
vn 5.768074 0.073237 -2.490397
v -88.186148 -14.119023 91.534255
vn 5.753477 0.088640 -2.523434
v -90.283997 -17.777252 86.587759
vn 5.758242 0.044741 -2.513746
v -89.943324 -3.965299 87.696473
vn 5.757526 0.067217 -2.514684
v -89.913747 -13.950425 87.532054
vn 5.759774 0.075441 -2.509413
v -90.952774 -12.930923 85.208510
# 67 vertices, 0 vertices normals

f 56//56 61//61 13//13
f 26//26 57//57 20//20
f 2//2 21//21 12//12
f 37//37 25//25 24//24
f 7//7 40//40 41//41
f 60//60 29//29 10//10
f 6//6 43//43 9//9
f 9//9 3//3 6//6
f 37//37 24//24 22//22
f 3//3 49//49 7//7
f 45//45 63//63 32//32
f 50//50 19//19 28//28
f 31//31 58//58 17//17
f 5//5 64//64 33//33
f 5//5 46//46 8//8
f 34//34 59//59 55//55
f 41//41 3//3 7//7
f 34//34 39//39 41//41
f 47//47 39//39 38//38
f 34//34 40//40 59//59
f 56//56 13//13 20//20
f 55//55 38//38 34//34
f 36//36 51//51 49//49
f 2//2 12//12 67//67
f 48//48 41//41 39//39
f 25//25 44//44 15//15
f 4//4 40//40 7//7
f 41//41 40//40 34//34
f 36//36 9//9 18//18
f 39//39 47//47 60//60
f 1//1 4//4 7//7
f 4//4 62//62 42//42
f 37//37 22//22 43//43
f 23//23 43//43 22//22
f 43//43 23//23 18//18
f 64//64 8//8 50//50
f 44//44 10//10 15//15
f 26//26 11//11 57//57
f 61//61 63//63 52//52
f 67//67 66//66 2//2
f 61//61 46//46 35//35
f 35//35 46//46 5//5
f 66//66 62//62 35//35
f 35//35 63//63 61//61
f 6//6 48//48 37//37
f 8//8 56//56 57//57
f 37//37 44//44 25//25
f 65//65 37//37 48//48
f 65//65 44//44 37//37
f 7//7 49//49 1//1
f 27//27 47//47 16//16
f 33//33 64//64 54//54
f 4//4 42//42 40//40
f 8//8 57//57 50//50
f 6//6 37//37 43//43
f 9//9 43//43 18//18
f 41//41 48//48 3//3
f 48//48 6//6 3//3
f 61//61 52//52 13//13
f 51//51 1//1 49//49
f 55//55 31//31 30//30
f 32//32 63//63 53//53
f 3//3 9//9 49//49
f 34//34 38//38 39//39
f 64//64 50//50 28//28
f 2//2 33//33 21//21
f 54//54 21//21 33//33
f 64//64 5//5 8//8
f 2//2 5//5 33//33
f 46//46 61//61 56//56
f 50//50 57//57 11//11
f 11//11 19//19 50//50
f 56//56 8//8 46//46
f 38//38 55//55 30//30
f 14//14 38//38 30//30
f 57//57 56//56 20//20
f 10//10 44//44 65//65
f 65//65 60//60 10//10
f 67//67 58//58 59//59
f 27//27 60//60 47//47
f 29//29 60//60 27//27
f 49//49 9//9 36//36
f 62//62 66//66 42//42
f 64//64 28//28 54//54
f 42//42 59//59 40//40
f 62//62 4//4 53//53
f 66//66 35//35 5//5
f 47//47 38//38 14//14
f 65//65 39//39 60//60
f 2//2 66//66 5//5
f 47//47 14//14 16//16
f 65//65 48//48 39//39
f 58//58 31//31 55//55
f 63//63 45//45 52//52
f 58//58 55//55 59//59
f 42//42 66//66 67//67
f 63//63 62//62 53//53
f 32//32 53//53 51//51
f 53//53 1//1 51//51
f 35//35 62//62 63//63
f 4//4 1//1 53//53
f 67//67 59//59 42//42
f 58//58 67//67 17//17
f 67//67 12//12 17//17
# 104 faces, 0 coords texture

# End of File
