####
#
# OBJ File Generated by Meshlab
#
####
# Object 2504S.obj
#
# Vertices: 42
# Faces: 61
#
####
vn -2.437292 0.098131 -1.234100
v 91.250200 -30.306900 86.404900
vn -2.393734 0.066665 -1.176968
v 91.730300 -29.683800 85.491200
vn -2.629605 0.051987 -1.156964
v 89.270500 -17.647850 91.450650
vn -2.318323 0.153572 -1.105393
v 89.587800 -29.598300 89.866000
vn -2.754760 0.040040 -1.267921
v 91.914512 -17.640104 85.575380
vn -2.504949 0.035393 -1.112219
v 88.968400 -18.967900 92.087400
vn -2.686604 0.133913 -1.247398
v 89.221191 -27.503156 90.924643
vn -2.344574 0.040231 -1.040345
v 90.694900 -15.619100 88.319200
vn -2.792120 0.083909 -1.251102
v 88.913886 -23.251012 92.011935
vn -2.508593 0.043969 -1.223097
v 92.415250 -27.391850 84.185600
vn -2.671371 0.055707 -1.196371
v 88.852600 -21.241950 92.259650
vn -2.849432 0.058187 -1.388058
v 91.986600 -28.790400 85.001400
vn -2.601364 0.041045 -1.202328
v 92.423200 -19.320900 84.408300
vn -2.466904 0.033510 -1.120703
v 91.406900 -16.327000 86.707100
vn -2.307748 0.049688 -1.019884
v 89.939800 -15.986200 90.024700
vn -2.234474 0.134185 -1.090857
v 90.290500 -30.590100 88.253500
vn -5.740114 0.123023 -2.552069
v 90.577348 -21.435565 88.390926
vn -2.788713 0.045988 -1.340541
v 92.630750 -25.506600 83.795150
vn -5.684428 0.087285 -2.675272
v 92.152015 -22.007043 84.895803
vn -5.717979 0.116606 -2.601593
v 91.410460 -20.708260 86.550955
vn -5.667312 0.093831 -2.711212
v 92.005859 -24.288734 85.143978
vn -5.742108 0.093306 -2.548574
v 89.850696 -18.117410 90.110852
vn -5.671135 0.301764 -2.687004
v 90.069810 -28.284633 89.037596
vn -2.612797 0.032127 -1.243946
v 92.799000 -23.682950 83.497650
vn -5.709180 0.128330 -2.619055
v 91.296475 -22.898362 86.678048
vn -5.707734 0.219889 -2.617378
v 89.828437 -26.256043 89.726234
vn -5.663794 0.110121 -2.717828
v 91.778949 -26.639525 85.517710
vn -5.732797 0.077168 -2.570452
v 90.611924 -19.297420 88.381347
vn -5.737846 0.161963 -2.555222
v 90.456936 -23.504781 88.535999
vn -5.722028 0.158549 -2.590469
v 90.413998 -25.263812 88.511692
vn -5.698688 0.114762 -2.642189
v 91.135089 -24.952100 86.927714
vn -5.648226 0.212923 -2.743341
v 91.110599 -28.748082 86.804557
vn -5.704553 0.099546 -2.631819
v 92.011001 -19.783621 85.284340
vn -5.716148 0.088300 -2.606913
v 91.403473 -18.552633 86.658552
vn -5.692826 0.154382 -2.653917
v 90.759828 -26.888866 87.683767
vn -2.763853 0.114131 -1.246844
v 89.034700 -25.482400 91.557100
vn -2.644549 0.028657 -1.252372
v 92.766000 -21.993550 83.599600
vn -2.761017 0.043024 -1.288797
v 92.589200 -20.408600 84.016700
vn -5.731402 0.192885 -2.567415
v 89.716654 -24.170121 90.150515
vn -5.738442 0.087474 -2.557311
v 89.787190 -20.294228 90.211485
vn -5.731962 0.088539 -2.571778
v 90.676623 -17.503357 88.287523
vn -5.735735 0.145955 -2.560839
v 89.725642 -22.314643 90.253199
# 42 vertices, 0 vertices normals

f 25//25 20//20 19//19
f 22//22 6//6 3//3
f 32//32 12//12 2//2
f 39//39 26//26 36//36
f 33//33 38//38 19//19
f 8//8 41//41 15//15
f 32//32 2//2 1//1
f 18//18 10//10 27//27
f 25//25 17//17 20//20
f 22//22 3//3 15//15
f 23//23 4//4 7//7
f 18//18 21//21 24//24
f 34//34 5//5 33//33
f 13//13 33//33 5//5
f 34//34 20//20 28//28
f 28//28 20//20 17//17
f 30//30 29//29 31//31
f 17//17 25//25 29//29
f 29//29 25//25 31//31
f 30//30 31//31 35//35
f 27//27 35//35 31//31
f 27//27 31//31 21//21
f 32//32 35//35 27//27
f 21//21 31//31 25//25
f 19//19 20//20 33//33
f 20//20 34//34 33//33
f 34//34 41//41 14//14
f 34//34 14//14 5//5
f 26//26 23//23 7//7
f 23//23 26//26 35//35
f 26//26 30//30 35//35
f 26//26 7//7 36//36
f 36//36 9//9 39//39
f 19//19 37//37 24//24
f 33//33 13//13 38//38
f 19//19 38//38 37//37
f 14//14 41//41 8//8
f 32//32 27//27 12//12
f 10//10 12//12 27//27
f 22//22 40//40 6//6
f 17//17 40//40 28//28
f 23//23 32//32 16//16
f 23//23 16//16 4//4
f 32//32 23//23 35//35
f 16//16 32//32 1//1
f 27//27 21//21 18//18
f 29//29 30//30 39//39
f 25//25 19//19 21//21
f 24//24 21//21 19//19
f 39//39 30//30 26//26
f 40//40 42//42 11//11
f 29//29 42//42 17//17
f 41//41 22//22 15//15
f 40//40 11//11 6//6
f 28//28 41//41 34//34
f 28//28 40//40 22//22
f 28//28 22//22 41//41
f 39//39 9//9 42//42
f 42//42 9//9 11//11
f 29//29 39//39 42//42
f 42//42 40//40 17//17
# 61 faces, 0 coords texture

# End of File
