####
#
# OBJ File Generated by Meshlab
#
####
# Object 2509S.obj
#
# Vertices: 110
# Faces: 170
#
####
vn 4.176994 0.111332 -2.145011
v -96.795700 -50.000000 75.809000
vn 5.418775 -0.004421 -3.180370
v -94.747796 -48.032618 79.328427
vn 5.401948 -0.000713 -3.208849
v -93.599661 -47.713620 81.272543
vn 4.053103 -0.466505 -2.265160
v -96.772300 -38.000000 75.768500
vn 5.429881 -0.016257 -3.161154
v -95.059136 -45.949101 78.792385
vn 5.412619 -0.022249 -3.190795
v -94.383846 -44.305657 79.931642
vn 5.422113 0.012622 -3.174706
v -95.002542 -50.018480 78.889266
vn 5.396773 0.021303 -3.217568
v -93.527239 -50.902619 81.379929
vn 5.388960 0.019644 -3.230646
v -92.577856 -47.834454 82.977725
vn 5.416001 -0.127896 -3.181977
v -95.124788 -39.166437 78.592446
vn 5.438112 -0.024656 -3.147136
v -95.909420 -47.508150 77.330409
vn 5.401150 0.002377 -3.210213
v -92.975068 -46.144990 82.323580
vn 2.435301 0.012684 -1.449024
v -93.426800 -51.955300 81.538900
vn 3.069862 0.031682 -1.604464
v -92.517350 -30.865100 83.061600
vn 3.549195 -0.061790 -1.948350
v -93.678300 -33.223800 80.836300
vn 2.131008 0.005108 -1.090658
v -96.451300 -52.180800 76.302200
vn 3.160896 0.005338 -1.749267
v -96.074900 -52.316000 77.036800
vn 0.931192 0.030990 -0.370173
v -97.345200 -50.000000 74.426700
vn 2.584644 0.055615 -1.241762
v -91.762306 -27.612198 84.616693
vn 2.196758 0.058275 -1.013579
v -91.168900 -26.153100 85.949000
vn 3.309594 0.012852 -1.920480
v -91.730900 -40.903800 84.451500
vn 2.608588 0.011715 -1.497681
v -91.094900 -39.468950 85.562750
vn 2.304276 0.112408 -0.991493
v -96.998500 -51.309700 75.189200
vn 2.286961 -0.056350 -1.234579
v -93.786500 -33.172900 80.639700
vn 3.353413 0.129306 -1.822162
v -90.095800 -35.860600 87.475900
vn 2.264652 0.142840 -1.202837
v -89.174000 -35.004100 89.234500
vn 2.646546 0.044302 -1.479093
v -90.537872 -37.777499 86.562960
vn 2.521088 0.128082 -1.075205
v -88.534800 -28.648900 91.684150
vn 2.252879 0.156345 -0.947073
v -88.218300 -30.921400 92.151700
vn 3.043642 0.246333 -1.516191
v -89.016700 -34.380800 89.625400
vn 3.334143 0.013001 -1.983261
v -91.841900 -43.768200 84.228200
vn 2.470650 0.013712 -1.459134
v -91.770500 -43.331400 84.351800
vn 2.066206 -0.181841 -0.871413
v -97.669300 -37.570400 73.545600
vn 2.873213 0.010163 -1.526967
v -93.192350 -32.388500 81.735800
vn 2.369669 0.006382 -1.396386
v -94.528500 -52.831300 79.685900
vn 2.177451 0.011463 -1.293670
v -93.254600 -51.672600 81.832000
vn 3.212195 0.009997 -1.918164
v -93.180900 -51.137200 81.959400
vn 3.284393 0.113196 -1.658782
v -96.649900 -51.622800 75.916600
vn 2.171504 0.002511 -1.263233
v -95.732000 -52.819100 77.628100
vn 1.646282 -0.098982 -0.683449
v -97.655400 -38.000000 73.641300
vn 2.165004 0.008710 -1.304616
v -91.801200 -48.655600 84.261100
vn 2.576421 -0.315023 -1.145659
v -96.929946 -35.797213 74.789551
vn 2.205032 0.003799 -1.317884
v -91.567600 -44.938600 84.676500
vn 2.598223 0.105566 -1.134348
v -89.490550 -26.379700 89.681750
vn 2.472163 0.110812 -1.048662
v -89.133700 -26.834500 90.479500
vn 2.721599 -0.018833 -1.572642
v -96.789950 -46.843350 75.798950
vn 5.447784 -0.030505 -3.130269
v -95.975913 -45.347266 77.185130
vn 5.422433 -0.288483 -3.154180
v -96.042438 -38.154497 76.992643
vn 5.716469 0.302145 -2.589579
v -89.631955 -30.090952 88.981790
vn 5.537964 0.012418 -2.967416
v -91.987960 -34.714737 83.993815
vn 5.570788 0.068929 -2.905120
v -91.750979 -32.740940 84.481107
vn 5.597325 0.102996 -2.851979
v -91.610018 -31.008688 84.797174
vn 5.550885 0.017170 -2.942990
v -92.671251 -33.130368 82.711386
vn 5.404158 0.011277 -3.205107
v -93.986044 -49.554742 80.619255
vn 2.721344 -0.008553 -1.572550
v -96.794400 -48.722900 75.806800
vn 5.697023 0.176402 -2.643831
v -90.859726 -27.742257 86.527715
vn 5.446013 -0.004494 -3.133479
v -92.199479 -39.415189 83.650759
vn 5.490110 -0.126372 -3.052407
v -93.506090 -36.546995 81.300761
vn 5.526262 -0.141007 -2.985520
v -93.849792 -34.595871 80.587405
vn 2.861096 -0.085295 -1.497162
v -94.426750 -33.624800 79.431750
vn 2.680206 -0.167528 -1.421066
v -95.359250 -34.090850 77.678200
vn 5.456375 -0.171614 -3.110291
v -94.285611 -37.919315 79.958618
vn 5.640055 0.180848 -2.763107
v -90.897034 -30.853934 86.241964
vn 5.653641 0.257182 -2.728766
v -90.129343 -31.564357 87.759519
vn 2.711653 -0.024310 -1.599976
v -96.782900 -39.713900 75.786800
vn 2.731206 0.006969 -1.633401
v -91.693184 -46.535301 84.469097
vn 5.503831 0.068876 -3.029566
v -91.313480 -36.281548 85.221823
vn 5.425743 -0.037018 -3.168280
v -93.871529 -40.811802 80.760441
vn 5.634344 -0.669241 -2.687356
v -96.807353 -36.844061 75.353098
vn 5.527326 0.168023 -2.982917
v -90.573052 -35.626570 86.612084
vn 5.681805 0.222226 -2.672741
v -90.477332 -29.591852 87.201837
vn 5.435914 -0.026615 -3.150652
v -95.148919 -43.793461 78.625391
vn 5.571155 0.262222 -2.892059
v -89.980277 -33.924418 87.844691
vn 5.558292 0.105096 -2.927759
v -91.050970 -34.313097 85.781724
vn 2.717650 -0.010259 -1.566853
v -96.779650 -44.407900 75.781200
vn 5.444329 -0.012679 -3.136450
v -95.968554 -42.909981 77.186145
vn 2.717830 0.001437 -1.574453
v -96.780250 -41.964550 75.782600
vn 5.425364 -0.038698 -3.168702
v -95.964426 -40.527086 77.190468
vn 5.423602 -0.043026 -3.171770
v -95.006652 -41.426673 78.841889
vn 5.680651 0.396729 -2.653194
v -89.289298 -32.248522 89.433445
vn 5.758959 0.369070 -2.484565
v -88.884462 -30.578699 90.623619
vn 5.454483 -0.057851 -3.118044
v -93.260031 -38.746693 81.797829
vn 5.412506 -0.014455 -3.191071
v -93.596378 -44.635998 81.266576
vn 5.506170 -0.089822 -3.024697
v -92.989565 -34.898030 82.146989
vn 5.407701 0.017969 -3.199130
v -94.273762 -51.213071 80.124113
vn 5.431742 0.001608 -3.158144
v -95.845834 -49.129039 77.448975
vn 5.426436 0.012013 -3.167320
v -95.289770 -51.665365 78.390589
vn 5.646729 0.139189 -2.751377
v -91.334961 -29.365557 85.423265
vn 5.499624 -0.420859 -3.006001
v -95.633127 -36.009370 77.442477
vn 5.424417 -0.278618 -3.158175
v -95.124593 -37.310213 78.467574
vn 5.722988 0.235656 -2.582521
v -90.015599 -28.038980 88.353121
vn 5.390113 0.012701 -3.228763
v -93.131314 -49.295936 82.049371
vn 2.491571 0.207760 -1.092841
v -88.461700 -33.008900 91.146200
vn 2.574547 -0.244182 -1.296471
v -96.053600 -34.600600 76.381600
vn 5.461256 0.018087 -3.106801
v -91.548639 -38.064006 84.781944
vn 5.416040 0.009353 -3.185041
v -92.352329 -42.807779 83.371550
vn 5.405682 -0.003884 -3.202554
v -92.697301 -44.146087 82.790983
vn 2.746302 0.036148 -1.397278
v -92.240600 -29.610400 83.602700
vn 5.434966 -0.007018 -3.152668
v -92.890049 -40.936004 82.451391
vn 2.568035 0.004441 -1.545681
v -92.179900 -49.484500 83.634100
vn 5.601457 0.149639 -2.841352
v -90.858603 -32.440523 86.211189
vn 5.754473 0.274375 -2.507565
v -89.287346 -28.446819 89.946913
vn 2.645934 0.089056 -1.190304
v -90.320965 -26.020915 87.831000
vn 5.503094 -0.233076 -3.021389
v -94.574751 -35.746105 79.277826
vn 5.419569 -0.022668 -3.179007
v -93.376399 -42.614350 81.625647
vn 5.410889 -0.011559 -3.193825
v -94.060778 -46.140100 80.482319
vn 5.478488 -0.046498 -3.075865
v -92.393313 -36.984466 83.286186
vn 5.469212 0.065481 -3.090429
v -96.081306 -50.771694 77.031722
vn 5.428417 -0.086368 -3.162618
v -94.302495 -39.619025 80.003411
vn 5.413991 -0.033726 -3.188410
v -94.144299 -42.933268 80.323372
# 110 vertices, 0 vertices normals

f 70//70 25//25 27//27
f 85//85 13//13 35//35
f 108//108 17//17 16//16
f 95//95 22//22 57//57
f 73//73 26//26 25//25
f 74//74 67//67 50//50
f 51//51 101//101 74//74
f 75//75 76//76 47//47
f 77//77 78//78 76//76
f 58//58 82//82 62//62
f 76//76 79//79 72//72
f 73//73 30//30 26//26
f 96//96 32//32 31//31
f 92//92 54//54 3//3
f 8//8 37//37 36//36
f 108//108 16//16 38//38
f 108//108 7//7 87//87
f 17//17 87//87 39//39
f 8//8 36//36 13//13
f 73//73 80//80 30//30
f 89//89 90//90 48//48
f 4//4 40//40 33//33
f 88//88 71//71 63//63
f 71//71 91//91 49//49
f 2//2 86//86 11//11
f 47//47 72//72 5//5
f 106//106 6//6 83//83
f 52//52 98//98 88//88
f 105//105 99//99 96//96
f 12//12 97//97 43//43
f 82//82 99//99 68//68
f 102//102 44//44 45//45
f 10//10 90//90 62//62
f 63//63 64//64 101//101
f 46//46 75//75 47//47
f 53//53 84//84 15//15
f 53//53 15//15 34//34
f 86//86 55//55 11//11
f 55//55 46//46 11//11
f 1//1 23//23 18//18
f 56//56 19//19 20//20
f 19//19 56//56 88//88
f 54//54 7//7 2//2
f 57//57 22//22 21//21
f 10//10 78//78 48//48
f 8//8 92//92 37//37
f 59//59 60//60 24//24
f 104//104 61//61 60//60
f 33//33 69//69 4//4
f 15//15 59//59 24//24
f 65//65 4//4 48//48
f 9//9 66//66 41//41
f 71//71 88//88 56//56
f 58//58 104//104 59//59
f 95//95 107//107 67//67
f 4//4 69//69 48//48
f 48//48 69//69 89//89
f 67//67 27//27 95//95
f 27//27 67//67 70//70
f 70//70 74//74 73//73
f 74//74 70//70 67//67
f 50//50 51//51 74//74
f 74//74 101//101 73//73
f 75//75 77//77 76//76
f 77//77 65//65 78//78
f 78//78 79//79 76//76
f 29//29 93//93 81//81
f 93//93 80//80 81//81
f 28//28 81//81 102//102
f 81//81 28//28 29//29
f 49//49 102//102 81//81
f 104//104 58//58 62//62
f 62//62 82//82 109//109
f 72//72 79//79 110//110
f 12//12 66//66 9//9
f 50//50 53//53 51//51
f 3//3 54//54 2//2
f 51//51 53//53 14//14
f 52//52 51//51 14//14
f 58//58 59//59 84//84
f 13//13 85//85 8//8
f 7//7 108//108 86//86
f 47//47 5//5 11//11
f 108//108 38//38 1//1
f 23//23 1//1 38//38
f 17//17 108//108 87//87
f 87//87 7//7 85//85
f 87//87 85//85 35//35
f 87//87 35//35 39//39
f 2//2 5//5 106//106
f 3//3 2//2 106//106
f 8//8 85//85 54//54
f 85//85 7//7 54//54
f 82//82 58//58 107//107
f 104//104 90//90 89//89
f 48//48 90//90 10//10
f 50//50 84//84 53//53
f 52//52 88//88 63//63
f 64//64 71//71 49//49
f 49//49 91//91 102//102
f 100//100 9//9 41//41
f 3//3 9//9 92//92
f 71//71 56//56 91//91
f 80//80 93//93 30//30
f 89//89 69//69 94//94
f 89//89 94//94 61//61
f 94//94 69//69 42//42
f 82//82 107//107 57//57
f 22//22 95//95 27//27
f 103//103 56//56 20//20
f 5//5 2//2 11//11
f 2//2 7//7 86//86
f 47//47 76//76 72//72
f 5//5 72//72 6//6
f 6//6 106//106 5//5
f 12//12 106//106 83//83
f 31//31 97//97 96//96
f 97//97 31//31 43//43
f 52//52 14//14 98//98
f 88//88 98//98 19//19
f 53//53 34//34 14//14
f 21//21 32//32 96//96
f 21//21 96//96 99//99
f 9//9 3//3 12//12
f 102//102 91//91 44//44
f 8//8 54//54 92//92
f 82//82 57//57 99//99
f 92//92 9//9 100//100
f 92//92 100//100 37//37
f 11//11 46//46 47//47
f 73//73 101//101 64//64
f 62//62 90//90 104//104
f 102//102 45//45 28//28
f 55//55 86//86 1//1
f 73//73 25//25 70//70
f 63//63 71//71 64//64
f 79//79 68//68 110//110
f 97//97 12//12 83//83
f 91//91 56//56 103//103
f 103//103 44//44 91//91
f 65//65 48//48 78//78
f 59//59 15//15 84//84
f 64//64 80//80 73//73
f 10//10 109//109 79//79
f 78//78 10//10 79//79
f 105//105 83//83 110//110
f 52//52 63//63 101//101
f 12//12 43//43 66//66
f 59//59 104//104 60//60
f 80//80 64//64 49//49
f 51//51 52//52 101//101
f 81//81 80//80 49//49
f 3//3 106//106 12//12
f 104//104 89//89 61//61
f 99//99 57//57 21//21
f 107//107 95//95 57//57
f 107//107 50//50 67//67
f 50//50 107//107 84//84
f 107//107 58//58 84//84
f 108//108 1//1 86//86
f 110//110 6//6 72//72
f 109//109 82//82 68//68
f 6//6 110//110 83//83
f 10//10 62//62 109//109
f 109//109 68//68 79//79
f 105//105 110//110 68//68
f 105//105 68//68 99//99
f 97//97 83//83 105//105
f 69//69 33//33 42//42
f 97//97 105//105 96//96
# 170 faces, 0 coords texture

# End of File
