####
#
# OBJ File Generated by Meshlab
#
####
# Object 2513S.obj
#
# Vertices: 19
# Faces: 24
#
####
vn -5.754499 0.069165 -2.521655
v 91.857801 -6.460739 87.589454
vn -2.291275 0.030331 -1.000699
v 92.669700 -7.131480 85.715000
vn -2.286580 0.023652 -0.991300
v 93.131700 -5.387350 84.693900
vn -2.191474 0.003444 -0.974861
v 90.085100 -4.308490 91.652800
vn -2.662700 0.014871 -1.168583
v 90.247650 -5.813185 91.277850
vn -2.316387 0.025488 -1.023558
v 92.534100 -1.552390 86.135400
vn -2.417750 0.012200 -1.084281
v 90.893800 -1.488920 89.872600
vn -2.312769 0.017272 -1.015843
v 93.082000 -3.224935 84.857050
vn -2.275892 0.013075 -0.990082
v 90.548900 -7.223590 90.570800
vn -2.548843 0.024646 -1.109135
v 91.099150 -7.831565 89.294000
vn -2.401162 0.012897 -1.047230
v 91.691500 -0.975165 88.060000
vn -2.505957 0.045472 -1.088298
v 91.808460 -7.922329 87.642000
vn -5.756845 0.042593 -2.516975
v 91.026764 -5.992368 89.488597
vn -2.546780 0.010437 -1.149438
v 90.494250 -2.364665 90.732950
vn -5.750226 0.037147 -2.531214
v 91.269492 -2.624187 89.022101
vn -5.755113 0.044532 -2.520713
v 92.451937 -4.962499 86.272011
vn -5.755211 0.042050 -2.520447
v 92.120691 -2.968854 87.035704
vn -5.745822 0.035097 -2.541997
v 90.766284 -4.187250 90.121935
vn -5.755650 0.049547 -2.519549
v 91.560454 -4.517779 88.298425
# 19 vertices, 0 vertices normals

f 13//13 10//10 9//9
f 1//1 2//2 12//12
f 1//1 12//12 10//10
f 17//17 16//16 19//19
f 16//16 1//1 19//19
f 13//13 1//1 10//10
f 15//15 14//14 7//7
f 17//17 19//19 15//15
f 7//7 11//11 15//15
f 2//2 16//16 3//3
f 16//16 2//2 1//1
f 3//3 16//16 8//8
f 6//6 8//8 17//17
f 11//11 6//6 17//17
f 11//11 17//17 15//15
f 18//18 15//15 19//19
f 18//18 19//19 13//13
f 14//14 18//18 4//4
f 14//14 15//15 18//18
f 18//18 5//5 4//4
f 13//13 9//9 5//5
f 13//13 5//5 18//18
f 13//13 19//19 1//1
f 16//16 17//17 8//8
# 24 faces, 0 coords texture

# End of File
