####
#
# OBJ File Generated by Meshlab
#
####
# Object 2565S.obj
#
# Vertices: 118
# Faces: 183
#
####
vn 5.433553 -0.218222 -3.143209
v -96.920733 -38.205108 79.352015
vn 5.518297 0.149041 -2.999812
v -92.630456 -35.798426 87.029326
vn 5.498739 -0.029966 -3.039543
v -94.064066 -37.500864 84.344882
vn 4.146851 -0.316846 -2.142028
v -97.889000 -38.000000 77.702700
vn 5.551511 -0.623650 -2.860385
v -97.373399 -36.230078 78.288257
vn 5.473884 0.042775 -3.083970
v -93.337891 -38.517907 85.653130
vn 5.713608 0.187509 -2.606145
v -92.610222 -29.805550 87.413320
vn 5.802032 0.371016 -2.381526
v -90.943736 -30.374555 91.238714
vn 5.657444 0.475978 -2.688489
v -91.198244 -34.102787 89.933580
vn 2.736466 -0.012606 -1.541476
v -97.890900 -45.708600 77.705800
vn 5.464738 -0.009398 -3.100771
v -97.209120 -47.210191 78.924188
vn 5.464168 -0.013208 -3.101606
v -96.365121 -44.396620 80.413770
vn 5.442437 0.016771 -3.139604
v -95.866788 -49.825363 81.271737
vn 2.897149 -0.248287 -1.193742
v -98.576700 -38.000000 75.930800
vn 4.174841 0.176380 -2.138650
v -97.903100 -50.000000 77.727100
vn 5.422605 -0.003811 -3.173780
v -94.223909 -43.482790 84.119934
vn 5.652104 0.306404 -2.724236
v -91.873142 -32.846323 88.680471
vn 5.461316 -0.053869 -3.106166
v -96.175951 -41.058834 80.715480
vn 5.743957 0.324153 -2.524576
v -91.837592 -30.562053 89.083596
vn 2.727074 -0.008852 -1.562168
v -97.899050 -48.112550 77.720000
vn 5.606143 0.088734 -2.835305
v -93.368886 -32.376698 85.712072
vn 5.661146 0.198365 -2.716881
v -92.630367 -31.516471 87.243105
vn 5.565300 -0.140834 -2.912636
v -95.234728 -34.582458 82.111372
vn 5.782983 0.571944 -2.387249
v -90.710969 -33.294744 91.215408
vn 5.431550 -0.002545 -3.158525
v -93.911937 -41.707758 84.648259
vn 5.517263 -0.396975 -2.978223
v -96.607411 -35.908119 79.620976
vn 2.731129 0.228186 -1.429942
v -91.114550 -36.052100 89.727550
vn 2.654730 0.012296 -1.241037
v -93.850150 -28.643400 84.784400
vn 2.654331 0.296552 -1.188111
v -90.486050 -35.158050 91.205800
vn 1.805001 0.002655 -1.057398
v -94.727000 -52.800700 83.209600
vn 2.000329 0.020479 -0.935494
v -98.433900 -51.453900 76.296300
vn 3.380483 0.089615 -1.461367
v -98.449800 -51.321500 76.265200
vn 2.106546 0.080772 -0.986328
v -97.972500 -52.761200 77.256900
vn 3.367111 0.098957 -1.479062
v -98.394000 -51.491200 76.380800
vn 0.714696 0.020248 -0.289685
v -98.992600 -50.000000 75.018400
vn 3.234171 -0.060900 -1.661825
v -95.098600 -33.189800 82.304400
vn 3.244820 -0.008490 -1.601222
v -94.463400 -32.071600 83.528000
vn 2.284285 0.228039 -0.916853
v -89.964700 -33.511100 93.037100
vn 2.473460 0.036363 -1.093091
v -93.363000 -26.828100 85.869100
vn 3.165077 0.155654 -1.782272
v -91.663500 -36.644900 88.681100
vn 2.640195 0.113167 -1.052872
v -91.090000 -26.241300 91.341600
vn 2.330221 -0.247530 -1.071345
v -98.150800 -35.014200 76.315800
vn 1.926905 0.012576 -1.145022
v -93.272900 -48.101900 85.688900
vn 3.031201 0.021055 -1.795108
v -93.419000 -47.122800 85.457900
vn 2.772830 0.065491 -1.589933
v -92.339900 -38.728250 87.389100
vn 2.353019 -0.282397 -1.088324
v -97.385700 -34.315600 77.748200
vn 2.953524 0.006915 -1.737935
v -93.276978 -43.027835 85.723917
vn 2.762416 -0.099254 -1.406433
v -96.013650 -33.567150 80.524300
vn 3.136578 0.202790 -1.264906
v -90.023300 -30.318500 93.497700
vn 2.279080 0.134274 -0.892968
v -89.959600 -29.333000 93.832200
vn 2.776486 0.008993 -1.633600
v -94.279050 -51.069900 83.976000
vn 2.767527 0.008342 -1.637813
v -93.791500 -49.507800 84.809700
vn 0.995970 -0.073785 -0.414898
v -99.081300 -38.000000 74.719500
vn 2.344778 0.078364 -0.964928
v -91.761800 -25.513400 89.713100
vn 2.511525 0.109808 -0.998403
v -90.116700 -28.452300 93.533900
vn 3.016714 0.089663 -1.278389
v -92.244250 -25.786700 88.546500
vn 2.865898 -0.002470 -1.389075
v -94.193150 -30.635000 84.094950
vn 2.450417 0.060227 -1.046607
v -92.783500 -25.894400 87.264100
vn 2.934549 0.012212 -1.696233
v -92.890350 -40.541550 86.409800
vn 3.305403 -0.329566 -1.574058
v -97.194200 -34.374100 78.183400
vn 2.653843 -0.135851 -1.298613
v -96.763300 -33.944100 79.070400
vn 2.721220 -0.003573 -1.570955
v -97.887350 -39.762300 77.699800
vn 5.553032 -0.223488 -2.930733
v -95.861701 -35.266838 80.951006
vn 5.728014 0.107830 -2.579325
v -92.996260 -28.450306 86.648598
vn 5.446344 0.029307 -3.132606
v -95.907216 -51.551753 81.192318
vn 5.407622 0.021968 -3.199301
v -94.051422 -48.282336 84.376779
vn 5.567911 0.049905 -2.910837
v -93.484232 -34.681304 85.452133
vn 2.709812 0.038525 -1.517654
v -96.212550 -52.914350 80.635350
vn 5.457497 0.011761 -3.113506
v -96.571757 -48.543709 80.043518
vn 2.703725 0.010834 -1.571134
v -95.296500 -52.854000 82.235900
vn 2.904276 0.102884 -1.193630
v -98.531400 -50.000000 76.156250
vn 2.699341 0.074273 -1.400765
v -97.346250 -52.907500 78.528950
vn 5.459823 -0.036978 -3.109167
v -96.970494 -40.455366 79.301417
vn 5.629061 0.045828 -2.789850
v -93.917240 -31.622036 84.663294
vn 5.448929 -0.001802 -3.128449
v -97.316440 -48.917277 78.735235
vn 2.733797 -0.005425 -1.542672
v -97.883850 -41.998500 77.693900
vn 5.522224 -0.109375 -2.994942
v -94.951102 -36.274786 82.708061
vn 5.602576 0.004099 -2.843907
v -94.125927 -33.101369 84.215468
vn 2.803141 0.219335 -1.153490
v -89.967900 -32.078250 93.323700
vn 5.547824 0.311622 -2.931356
v -91.867218 -34.912287 88.507543
vn 5.764216 0.206502 -2.491618
v -92.186278 -28.589627 88.479663
vn 5.451835 -0.112830 -3.121069
v -95.968305 -39.246726 81.033038
vn 5.820406 0.228101 -2.355551
v -91.246013 -27.166570 90.850929
vn 5.822123 0.276970 -2.346001
v -90.629033 -28.723758 92.215248
vn 5.727322 -0.630401 -2.503003
v -98.052869 -36.460352 76.862932
vn 5.459860 0.003210 -3.109279
v -96.418945 -46.551210 80.320556
vn 5.472001 -0.098120 -3.086085
v -94.862915 -38.440438 82.951481
vn 2.739279 -0.009637 -1.534733
v -97.885700 -43.832600 77.697100
vn 5.476331 -0.024552 -3.080171
v -97.030054 -42.974242 79.220818
vn 5.438751 0.008421 -3.146054
v -95.467921 -45.838423 81.978278
vn 5.759538 0.450676 -2.465046
v -91.184868 -32.155127 90.281379
vn 5.436927 -0.025752 -3.149215
v -94.808633 -42.153458 83.103187
vn 5.453235 -0.028626 -3.120672
v -95.796726 -42.536595 81.399462
vn 5.587656 0.143761 -2.869375
v -92.637534 -33.693246 87.110451
vn 5.418445 0.019874 -3.180901
v -94.796434 -49.398261 83.109728
vn 5.810179 0.467399 -2.344176
v -90.507669 -31.921007 92.041886
vn 5.659101 0.075574 -2.728286
v -93.389274 -30.279050 85.747630
vn 5.792289 0.184486 -2.427389
v -91.871284 -27.062712 89.332639
vn 5.770185 0.149924 -2.482001
v -92.553459 -27.045209 87.736471
vn 5.560634 -0.050202 -2.924614
v -94.421830 -34.834260 83.656120
vn 5.798684 0.243024 -2.407018
v -91.424285 -28.724797 90.270553
vn 2.836832 0.124672 -1.139933
v -90.775100 -26.879000 92.050600
vn 2.787317 -0.229003 -1.185345
v -98.725331 -36.673706 75.338144
vn 5.437315 0.014081 -3.148502
v -95.606131 -47.817262 81.732138
vn 2.627841 0.007287 -1.555369
v -93.293000 -44.700700 85.692000
vn 5.482718 -0.215336 -3.060599
v -95.783434 -37.228605 81.233233
vn 5.472836 0.140342 -3.082490
v -92.681238 -37.456195 86.866369
vn 5.451144 -0.018565 -3.124474
v -93.973339 -39.942884 84.537867
vn 5.439073 -0.007902 -3.145500
v -95.251185 -44.000482 82.354224
vn 5.477111 -0.016121 -3.078853
v -97.204180 -45.252408 78.924764
vn 5.423608 0.015414 -3.172163
v -95.145798 -51.236585 82.498630
vn 5.674480 0.253008 -2.677671
v -97.906254 -51.310807 77.517160
vn 5.488164 0.092640 -3.055801
v -96.911932 -50.767531 79.435073
vn 5.525708 0.058947 -2.990073
v -93.319056 -36.733257 85.722893
vn 5.417329 0.020804 -3.182665
v -94.233257 -45.446450 84.100618
vn 5.418650 0.024933 -3.180549
v -94.599113 -47.189675 83.456766
vn 5.447879 -0.048589 -3.129867
v -94.973905 -40.520661 82.802368
vn 5.538404 -0.001761 -2.966961
v -94.045406 -35.995993 84.371192
# 118 vertices, 0 vertices normals

f 65//65 68//68 113//113
f 35//35 71//71 32//32
f 15//15 20//20 75//75
f 99//99 81//81 64//64
f 81//81 98//98 101//101
f 92//92 117//117 25//25
f 2//2 80//80 40//40
f 73//73 18//18 89//89
f 21//21 22//22 94//94
f 98//98 54//54 83//83
f 100//100 23//23 36//36
f 97//97 64//64 7//7
f 78//78 100//100 36//36
f 23//23 48//48 36//36
f 117//117 18//18 82//82
f 8//8 101//101 84//84
f 83//83 102//102 84//84
f 94//94 80//80 2//2
f 100//100 67//67 118//118
f 91//91 24//24 9//9
f 5//5 46//46 60//60
f 26//26 60//60 61//61
f 96//96 91//91 8//8
f 104//104 69//69 86//86
f 69//69 75//75 11//11
f 92//92 16//16 109//109
f 109//109 90//90 12//12
f 63//63 77//77 106//106
f 106//106 82//82 1//1
f 117//117 92//92 93//93
f 66//66 44//44 43//43
f 62//62 4//4 1//1
f 4//4 5//5 1//1
f 28//28 64//64 97//97
f 64//64 28//28 39//39
f 95//95 66//66 52//52
f 5//5 26//26 1//1
f 19//19 7//7 81//81
f 113//113 68//68 72//72
f 112//112 72//72 33//33
f 24//24 38//38 29//29
f 13//13 111//111 65//65
f 76//76 62//62 73//73
f 69//69 13//13 113//113
f 113//113 13//13 65//65
f 64//64 81//81 7//7
f 22//22 7//7 19//19
f 74//74 37//37 57//57
f 9//9 29//29 27//27
f 24//24 96//96 38//38
f 79//79 38//38 96//96
f 4//4 14//14 85//85
f 63//63 26//26 61//61
f 86//86 110//110 12//12
f 5//5 4//4 85//85
f 46//46 85//85 42//42
f 5//5 85//85 46//46
f 20//20 10//10 11//11
f 114//114 107//107 6//6
f 110//110 86//86 11//11
f 110//110 88//88 89//89
f 88//88 76//76 89//89
f 10//10 88//88 110//110
f 110//110 89//89 12//12
f 86//86 90//90 104//104
f 83//83 101//101 98//98
f 81//81 99//99 98//98
f 8//8 91//91 19//19
f 19//19 17//17 22//22
f 22//22 17//17 94//94
f 82//82 87//87 117//117
f 16//16 92//92 25//25
f 93//93 109//109 12//12
f 27//27 80//80 9//9
f 80//80 27//27 40//40
f 49//49 84//84 50//50
f 52//52 66//66 43//43
f 95//95 52//52 51//51
f 2//2 114//114 67//67
f 21//21 67//67 78//78
f 67//67 100//100 78//78
f 103//103 14//14 53//53
f 31//31 32//32 34//34
f 78//78 37//37 74//74
f 78//78 74//74 21//21
f 74//74 97//97 21//21
f 21//21 97//97 22//22
f 67//67 21//21 94//94
f 113//113 15//15 75//75
f 113//113 75//75 69//69
f 83//83 54//54 41//41
f 56//56 98//98 99//99
f 23//23 100//100 77//77
f 77//77 100//100 118//118
f 22//22 97//97 7//7
f 17//17 80//80 94//94
f 80//80 17//17 9//9
f 36//36 37//37 78//78
f 16//16 25//25 47//47
f 82//82 18//18 73//73
f 39//39 99//99 64//64
f 58//58 99//99 39//39
f 101//101 83//83 84//84
f 83//83 41//41 102//102
f 84//84 102//102 55//55
f 67//67 94//94 2//2
f 85//85 103//103 42//42
f 25//25 59//59 47//47
f 82//82 106//106 87//87
f 17//17 91//91 9//9
f 57//57 97//97 74//74
f 97//97 57//57 28//28
f 8//8 84//84 49//49
f 8//8 49//49 96//96
f 79//79 96//96 49//49
f 96//96 24//24 91//91
f 104//104 13//13 69//69
f 93//93 12//12 89//89
f 56//56 99//99 58//58
f 66//66 116//116 44//44
f 54//54 98//98 56//56
f 91//91 17//17 19//19
f 87//87 108//108 117//117
f 16//16 47//47 105//105
f 93//93 92//92 109//109
f 12//12 90//90 86//86
f 106//106 77//77 87//87
f 77//77 3//3 87//87
f 95//95 111//111 13//13
f 104//104 95//95 13//13
f 26//26 63//63 106//106
f 63//63 23//23 77//77
f 107//107 2//2 40//40
f 45//45 107//107 40//40
f 26//26 106//106 1//1
f 18//18 117//117 93//93
f 89//89 18//18 93//93
f 45//45 6//6 107//107
f 6//6 45//45 59//59
f 81//81 101//101 19//19
f 101//101 8//8 19//19
f 63//63 61//61 48//48
f 60//60 26//26 5//5
f 84//84 55//55 50//50
f 9//9 24//24 29//29
f 111//111 70//70 65//65
f 11//11 75//75 20//20
f 48//48 23//23 63//63
f 85//85 14//14 103//103
f 112//112 34//34 32//32
f 71//71 15//15 112//112
f 112//112 32//32 71//71
f 112//112 33//33 34//34
f 111//111 30//30 70//70
f 51//51 30//30 111//111
f 65//65 70//70 68//68
f 72//72 112//112 113//113
f 51//51 111//111 95//95
f 1//1 73//73 62//62
f 76//76 73//73 89//89
f 69//69 11//11 86//86
f 107//107 114//114 2//2
f 11//11 10//10 110//110
f 6//6 3//3 114//114
f 59//59 25//25 108//108
f 16//16 115//115 109//109
f 112//112 15//15 113//113
f 115//115 16//16 105//105
f 1//1 82//82 73//73
f 104//104 116//116 95//95
f 115//115 116//116 90//90
f 109//109 115//115 90//90
f 116//116 115//115 44//44
f 108//108 6//6 59//59
f 3//3 6//6 108//108
f 90//90 116//116 104//104
f 116//116 66//66 95//95
f 3//3 108//108 87//87
f 115//115 105//105 44//44
f 118//118 67//67 114//114
f 25//25 117//117 108//108
f 77//77 118//118 3//3
f 114//114 3//3 118//118
# 183 faces, 0 coords texture

# End of File
