####
#
# OBJ File Generated by Meshlab
#
####
# Object 2578S.obj
#
# Vertices: 52
# Faces: 77
#
####
vn -5.392935 0.114514 -3.222007
v 95.707179 -42.002669 84.720014
vn -5.404823 0.018596 -3.202156
v 96.728079 -39.126116 83.123757
vn -5.390214 0.082983 -3.227543
v 95.812736 -46.509671 84.404358
vn -5.399090 0.098354 -3.212235
v 93.931095 -46.117459 87.563854
vn -2.298793 0.027371 -1.384365
v 94.984100 -49.750900 85.707700
vn -2.173060 0.034231 -1.298987
v 97.950900 -48.956800 80.788600
vn -3.111725 0.063027 -1.877982
v 97.507500 -49.297800 81.520200
vn -2.154394 0.048750 -1.295359
v 97.162300 -50.054300 82.053300
vn -2.513554 0.039470 -1.504307
v 96.158400 -50.544700 83.731500
vn -2.385841 0.040766 -1.428305
v 93.301600 -39.522000 88.809300
vn -2.517726 0.030493 -1.495829
v 98.578150 -45.844650 79.801550
vn -3.069100 0.049723 -1.802497
v 97.812450 -39.867350 81.259800
vn -1.852279 0.032980 -1.091261
v 98.580600 -40.818600 79.918000
vn -2.368057 -0.020949 -1.385912
v 97.270750 -38.304800 82.184100
vn -2.041571 0.029716 -1.225364
v 95.495500 -50.588000 84.833600
vn -3.210169 0.049414 -1.922347
v 93.325100 -41.558400 88.712900
vn -2.235764 0.041405 -1.324967
v 93.152800 -46.343300 88.870100
vn -2.764042 0.048247 -1.638254
v 93.051900 -45.257100 89.074500
vn -2.444386 0.017102 -1.421090
v 95.676312 -36.504308 84.881725
vn -2.194001 0.048677 -1.279643
v 94.853200 -36.217400 86.338300
vn -1.984681 0.032479 -1.180766
v 92.780500 -43.224600 89.588200
vn -2.265732 0.052042 -1.363998
v 93.633500 -37.684700 88.312300
vn -2.411924 0.060080 -1.444612
v 94.070900 -36.908300 87.622300
vn -2.371913 0.040341 -1.424034
v 94.248700 -48.868200 86.945300
vn -3.237449 0.042791 -1.943407
v 95.024800 -49.758200 85.639900
vn -2.687695 0.041063 -1.596462
v 98.588101 -43.236856 79.844877
vn -5.394158 0.107216 -3.220235
v 94.913632 -43.517848 86.003634
vn -5.394803 0.111596 -3.218965
v 96.751488 -43.125349 82.928747
vn -5.386043 0.071937 -3.234677
v 97.518869 -47.770452 81.542603
vn -2.370632 0.030517 -1.413782
v 98.362050 -47.776700 80.130000
vn -5.384860 0.084455 -3.236409
v 96.601642 -48.440611 83.046496
vn -5.388793 0.102389 -3.229290
v 94.132121 -38.806336 87.441248
vn -5.391380 0.097118 -3.225138
v 94.742944 -41.826421 86.346529
vn -5.389587 0.094019 -3.228293
v 94.726839 -47.267909 86.197150
vn -5.399183 0.123008 -3.211121
v 96.781944 -41.030347 82.966605
vn -5.405882 0.104485 -3.200586
v 97.710491 -41.889490 81.362537
vn -5.397166 0.099890 -3.215432
v 95.873739 -44.322478 84.364597
vn -5.383718 0.090679 -3.238154
v 94.904126 -40.183008 86.122123
vn -5.385742 0.087386 -3.234896
v 94.060383 -40.723507 87.510785
vn -5.393203 0.099826 -3.222077
v 94.883992 -45.366474 85.991188
vn -5.401586 0.081604 -3.208305
v 95.025066 -38.080917 85.972741
vn -5.390561 0.096124 -3.226598
v 93.978902 -42.587985 87.594814
vn -5.385191 0.068114 -3.236265
v 96.942472 -46.225439 82.526445
vn -2.785605 0.052849 -1.661858
v 93.969000 -48.117100 87.438000
vn -5.404744 -0.004323 -3.204012
v 95.972807 -38.184403 84.379755
vn -2.632952 -0.030612 -1.545766
v 96.600400 -37.469200 83.295500
vn -5.392416 0.084219 -3.223831
v 97.656037 -44.168841 81.386173
vn -5.394041 0.067793 -3.221495
v 98.032326 -45.508681 80.727111
vn -5.385097 0.078405 -3.236198
v 95.395640 -48.847778 85.042177
vn -5.397065 0.100338 -3.215560
v 93.932358 -44.360102 87.614818
vn -5.383841 0.086323 -3.237757
v 95.823835 -39.776206 84.612990
vn -5.391798 0.086844 -3.224754
v 96.615572 -44.944388 83.100364
# 52 vertices, 0 vertices normals

f 8//8 31//31 7//7
f 29//29 30//30 6//6
f 4//4 17//17 18//18
f 1//1 33//33 38//38
f 39//39 16//16 10//10
f 32//32 22//22 23//23
f 41//41 38//38 32//32
f 40//40 4//4 50//50
f 34//34 44//44 4//4
f 50//50 21//21 42//42
f 41//41 20//20 19//19
f 36//36 28//28 35//35
f 49//49 5//5 24//24
f 29//29 6//6 7//7
f 3//3 40//40 37//37
f 7//7 31//31 29//29
f 36//36 13//13 26//26
f 3//3 37//37 52//52
f 38//38 41//41 51//51
f 51//51 35//35 1//1
f 35//35 51//51 2//2
f 45//45 41//41 19//19
f 40//40 27//27 37//37
f 33//33 1//1 27//27
f 27//27 1//1 37//37
f 51//51 1//1 38//38
f 27//27 42//42 33//33
f 3//3 31//31 49//49
f 10//10 22//22 32//32
f 32//32 39//39 10//10
f 23//23 41//41 32//32
f 41//41 23//23 20//20
f 39//39 42//42 16//16
f 34//34 49//49 24//24
f 34//34 40//40 3//3
f 32//32 38//38 39//39
f 40//40 34//34 4//4
f 34//34 24//24 44//44
f 4//4 44//44 17//17
f 2//2 14//14 12//12
f 42//42 21//21 16//16
f 48//48 29//29 43//43
f 2//2 46//46 14//14
f 45//45 46//46 2//2
f 51//51 45//45 2//2
f 34//34 3//3 49//49
f 5//5 49//49 25//25
f 49//49 15//15 25//25
f 21//21 50//50 18//18
f 36//36 12//12 13//13
f 26//26 47//47 36//36
f 48//48 30//30 29//29
f 30//30 48//48 11//11
f 49//49 9//9 15//15
f 45//45 19//19 46//46
f 33//33 39//39 38//38
f 39//39 33//33 42//42
f 18//18 50//50 4//4
f 51//51 41//41 45//45
f 28//28 47//47 52//52
f 50//50 42//42 27//27
f 27//27 40//40 50//50
f 47//47 28//28 36//36
f 35//35 2//2 12//12
f 36//36 35//35 12//12
f 28//28 37//37 1//1
f 43//43 47//47 48//48
f 35//35 28//28 1//1
f 31//31 3//3 43//43
f 49//49 31//31 9//9
f 31//31 8//8 9//9
f 43//43 29//29 31//31
f 3//3 52//52 43//43
f 52//52 37//37 28//28
f 52//52 47//47 43//43
f 48//48 47//47 26//26
f 48//48 26//26 11//11
# 77 faces, 0 coords texture

# End of File
