####
#
# OBJ File Generated by Meshlab
#
####
# Object 2581.obj
#
# Vertices: 43
# Faces: 62
#
####
vn -2.952342 -0.032924 -1.076476
v 91.976550 41.824900 92.000000
vn -2.952176 -0.007778 -1.087759
v 91.959900 43.705100 92.000000
vn -2.947352 0.014576 -1.087624
v 91.968450 45.533650 92.000000
vn -2.934045 0.005208 -1.122600
v 90.866550 50.000000 94.971750
vn -2.941818 -0.027296 -1.108716
v 89.000450 43.071550 100.000000
vn -2.927425 -0.029387 -1.139440
v 89.451806 49.999961 98.544662
vn -2.936998 -0.045486 -1.117354
v 88.973450 44.991800 100.000000
vn -1.464653 0.003021 -0.565552
v 89.016500 38.000000 100.000000
vn -2.935386 -0.050139 -1.117940
v 88.931203 47.452750 99.999992
vn -1.458912 -0.024730 -0.564889
v 88.888300 50.000000 100.000000
vn -2.940405 0.000930 -1.099115
v 91.979630 47.812750 92.000030
vn -1.469192 -0.018003 -0.539693
v 92.029200 38.000000 92.000000
vn -1.474369 -0.003264 -0.544048
v 91.974800 50.000000 92.000000
vn -2.943092 0.001623 -1.098965
v 91.661700 50.000000 92.848500
vn -5.887378 0.008839 -2.194556
v 91.425365 46.477036 93.485113
vn -5.884604 -0.058955 -2.201280
v 90.233985 41.118806 96.767679
vn -5.896645 -0.019285 -2.169209
v 91.423011 43.900888 93.455717
vn -5.898409 -0.067512 -2.163816
v 91.522324 39.469870 93.330823
vn -5.901148 -0.071455 -2.156317
v 91.462210 41.295286 93.430695
vn -5.862466 -0.080534 -2.258816
v 89.535990 48.111969 98.382138
vn -5.870450 -0.093541 -2.237729
v 89.570441 46.187728 98.379410
vn -5.881691 -0.051384 -2.209384
v 89.589370 42.091060 98.448872
vn -5.881566 -0.051502 -2.209477
v 90.230827 45.192876 96.679717
vn -2.942154 -0.019058 -1.101238
v 90.587750 38.000000 95.880800
vn -5.875084 -0.031710 -2.227101
v 89.579261 39.844400 98.533348
vn -2.932650 -0.044288 -1.125848
v 88.903600 49.097400 100.000000
vn -5.879102 -0.063006 -2.215737
v 89.604895 44.208398 98.369408
vn -5.887890 -0.049568 -2.192822
v 90.221545 43.212162 96.731756
vn -2.953773 -0.041324 -1.073083
v 92.000850 39.788150 92.000000
vn -2.933932 -0.001670 -1.126618
v 89.018900 39.163700 100.000000
vn -5.882892 -0.001886 -2.206667
v 91.355194 48.368357 93.653957
vn -2.940512 -0.018756 -1.111765
v 89.016600 40.887000 100.000000
vn -2.945553 -0.022433 -1.092149
v 91.210500 38.000000 94.205900
vn -5.883320 -0.007545 -2.205499
v 90.849969 45.735140 95.017204
vn -2.922571 0.007817 -1.152295
v 90.321300 50.000000 96.366400
vn -5.865073 -0.057989 -2.252891
v 90.196227 46.978667 96.714203
vn -2.936528 -0.008380 -1.116284
v 89.732450 38.000000 98.145850
vn -5.870662 -0.012089 -2.238796
v 90.827720 47.693121 95.069592
vn -5.894276 -0.027872 -2.175962
v 90.762496 44.164681 95.256057
vn -5.894820 -0.065517 -2.173740
v 90.859759 42.372426 95.037087
vn -5.848794 -0.022554 -2.295364
v 90.182030 48.796341 96.711465
vn -5.891739 -0.056226 -2.182207
v 90.896239 40.032010 95.015195
vn -5.881889 -0.035397 -2.209174
v 90.205847 39.366177 96.873887
# 43 vertices, 0 vertices normals

f 3//3 2//2 17//17
f 20//20 26//26 6//6
f 33//33 42//42 18//18
f 20//20 6//6 41//41
f 43//43 37//37 25//25
f 16//16 28//28 40//40
f 36//36 41//41 38//38
f 34//34 15//15 17//17
f 39//39 17//17 40//40
f 28//28 23//23 39//39
f 1//1 29//29 19//19
f 7//7 9//9 21//21
f 17//17 19//19 40//40
f 20//20 21//21 9//9
f 7//7 21//21 27//27
f 21//21 23//23 27//27
f 24//24 37//37 43//43
f 32//32 22//22 25//25
f 20//20 9//9 26//26
f 6//6 26//26 10//10
f 5//5 7//7 27//27
f 22//22 27//27 28//28
f 22//22 28//28 16//16
f 29//29 12//12 18//18
f 32//32 25//25 30//30
f 14//14 13//13 11//11
f 4//4 14//14 31//31
f 22//22 5//5 27//27
f 32//32 5//5 22//22
f 12//12 33//33 18//18
f 33//33 24//24 42//42
f 16//16 25//25 22//22
f 25//25 16//16 43//43
f 41//41 35//35 4//4
f 23//23 21//21 36//36
f 11//11 3//3 15//15
f 31//31 11//11 15//15
f 23//23 36//36 34//34
f 34//34 38//38 15//15
f 2//2 1//1 17//17
f 41//41 36//36 20//20
f 36//36 21//21 20//20
f 4//4 38//38 41//41
f 34//34 36//36 38//38
f 4//4 31//31 38//38
f 31//31 15//15 38//38
f 34//34 39//39 23//23
f 39//39 34//34 17//17
f 17//17 15//15 3//3
f 40//40 28//28 39//39
f 28//28 27//27 23//23
f 19//19 17//17 1//1
f 18//18 19//19 29//29
f 14//14 11//11 31//31
f 16//16 40//40 42//42
f 30//30 25//25 37//37
f 30//30 37//37 8//8
f 42//42 24//24 43//43
f 41//41 6//6 35//35
f 42//42 19//19 18//18
f 42//42 40//40 19//19
f 42//42 43//43 16//16
# 62 faces, 0 coords texture

# End of File
