####
#
# OBJ File Generated by Meshlab
#
####
# Object 2592.obj
#
# Vertices: 51
# Faces: 77
#
####
vn 2.928558 0.001786 -1.162083
v -99.067800 47.575500 79.743200
vn 2.917810 0.020141 -1.161697
v -99.066700 42.230000 79.742400
vn 5.778945 0.064301 -2.465070
v -102.096066 43.245473 72.403971
vn 5.829989 0.009753 -2.342580
v -99.678743 44.698448 78.216904
vn 5.831374 0.007778 -2.338967
v -99.416117 47.755333 78.865686
vn 2.900540 0.010494 -1.206791
v -101.159000 38.000000 74.579300
vn 2.878497 0.048208 -1.267895
v -102.974500 46.277300 70.510250
vn 2.878575 0.046916 -1.249592
v -102.945241 43.760900 70.459946
vn 5.793664 0.033413 -2.431187
v -101.224069 43.007298 74.477964
vn 1.433963 0.006069 -0.649981
v -102.991000 50.000000 70.540000
vn 2.916549 0.003465 -1.167509
v -99.723300 50.000000 78.118900
vn 1.432119 0.000196 -0.644644
v -102.910000 38.000000 70.398700
vn 2.875182 0.037086 -1.228216
v -102.910000 40.305100 70.399400
vn 1.455780 0.008151 -0.574957
v -99.077700 50.000000 79.761600
vn 2.917145 0.010227 -1.165607
v -99.626050 38.000000 78.277900
vn 1.460886 -0.001216 -0.570385
v -99.061400 38.000000 79.733300
vn 5.751325 0.040530 -2.529350
v -102.101198 46.679517 72.503756
vn 2.873968 0.018916 -1.282759
v -102.984000 47.474300 70.526800
vn 5.829948 0.014258 -2.342839
v -99.684067 49.126936 78.214316
vn 5.811450 -0.001385 -2.388575
v -100.035057 47.956389 77.352801
vn 5.759211 0.093228 -2.510138
v -102.367495 45.077980 71.837983
vn 5.791882 0.020994 -2.435573
v -100.992444 44.572795 75.042706
vn 2.916672 0.007798 -1.149748
v -99.073800 43.809800 79.754750
vn 2.906465 0.016858 -1.192378
v -101.685000 38.000000 73.294950
vn 5.800810 0.056459 -2.413449
v -102.168049 39.743859 72.145200
vn 2.887888 0.016703 -1.235200
v -102.488000 38.000000 71.336200
vn 2.888673 0.054833 -1.244780
v -102.924000 41.450500 70.424100
vn 5.792125 -0.002791 -2.434892
v -100.753754 48.104943 75.616736
vn 5.797474 0.047250 -2.421834
v -101.757571 41.379086 73.172644
vn 5.776728 0.050581 -2.470648
v -101.674698 44.767190 73.429988
vn 2.901585 0.013914 -1.204020
v -100.476500 38.000000 76.198400
vn 5.760223 -0.000463 -2.509430
v -101.608480 48.342590 73.619826
vn 2.870695 0.003837 -1.276051
v -102.091000 50.000000 72.521350
vn 2.889555 -0.000530 -1.232713
v -101.068000 50.000000 74.868750
vn 5.830376 0.021613 -2.341752
v -99.682394 42.803220 78.199635
vn 5.835050 0.016929 -2.329985
v -99.455202 39.426637 78.721641
vn 2.925244 0.013592 -1.169994
v -99.056786 40.350595 79.725181
vn 2.918155 -0.004467 -1.156063
v -99.072766 45.627150 79.752722
vn 5.815912 0.031250 -2.377454
v -100.038854 39.647582 77.285475
vn 5.805426 0.021225 -2.402945
v -100.385089 43.584095 76.482356
vn 5.809980 0.025871 -2.391909
v -100.299594 41.512705 76.670668
vn 2.904479 -0.000627 -1.197241
v -100.219000 50.000000 76.899800
vn 5.804376 0.029711 -2.405515
v -101.436888 39.722471 73.922231
vn 5.780300 0.080308 -2.461598
v -102.478274 41.616858 71.465792
vn 5.826838 0.033846 -2.350547
v -99.600782 41.016058 78.385491
vn 5.734633 0.006302 -2.567381
v -102.402262 48.369246 71.823626
vn 5.799543 0.027418 -2.417163
v -100.756413 39.752710 75.549257
vn 5.823217 -0.003949 -2.359582
v -99.697967 46.388609 78.176338
vn 5.777527 0.016330 -2.469204
v -101.237845 46.388615 74.472714
vn 5.803577 0.008584 -2.407605
v -100.384015 45.977563 76.507819
vn 5.797352 0.031438 -2.422419
v -100.930049 41.759423 75.162639
# 51 vertices, 0 vertices normals

f 27//27 8//8 44//44
f 9//9 3//3 30//30
f 30//30 49//49 22//22
f 9//9 51//51 29//29
f 29//29 44//44 3//3
f 45//45 39//39 41//41
f 47//47 51//51 41//41
f 23//23 2//2 35//35
f 40//40 22//22 50//50
f 1//1 38//38 5//5
f 3//3 44//44 8//8
f 50//50 22//22 49//49
f 8//8 7//7 21//21
f 19//19 11//11 14//14
f 24//24 26//26 25//25
f 26//26 13//13 25//25
f 13//13 26//26 12//12
f 13//13 44//44 25//25
f 44//44 13//13 27//27
f 43//43 25//25 29//29
f 17//17 30//30 21//21
f 21//21 30//30 3//3
f 31//31 6//6 47//47
f 32//32 33//33 34//34
f 34//34 42//42 28//28
f 14//14 1//1 5//5
f 48//48 4//4 50//50
f 15//15 36//36 16//16
f 37//37 16//16 36//36
f 5//5 38//38 48//48
f 38//38 23//23 4//4
f 39//39 31//31 47//47
f 22//22 9//9 30//30
f 9//9 22//22 40//40
f 40//40 50//50 4//4
f 2//2 45//45 35//35
f 45//45 2//2 37//37
f 40//40 4//4 35//35
f 40//40 35//35 41//41
f 30//30 17//17 49//49
f 32//32 46//46 33//33
f 29//29 51//51 43//43
f 23//23 35//35 4//4
f 8//8 21//21 3//3
f 33//33 46//46 10//10
f 11//11 19//19 42//42
f 24//24 25//25 43//43
f 9//9 29//29 3//3
f 29//29 25//25 44//44
f 20//20 48//48 50//50
f 36//36 15//15 39//39
f 31//31 39//39 15//15
f 35//35 45//45 41//41
f 42//42 19//19 20//20
f 20//20 5//5 48//48
f 41//41 39//39 47//47
f 43//43 6//6 24//24
f 17//17 21//21 7//7
f 17//17 32//32 49//49
f 43//43 47//47 6//6
f 45//45 37//37 36//36
f 45//45 36//36 39//39
f 47//47 43//43 51//51
f 40//40 51//51 9//9
f 18//18 46//46 17//17
f 28//28 49//49 32//32
f 28//28 32//32 34//34
f 17//17 46//46 32//32
f 14//14 5//5 19//19
f 5//5 20//20 19//19
f 48//48 38//38 4//4
f 46//46 18//18 10//10
f 18//18 17//17 7//7
f 50//50 49//49 28//28
f 20//20 50//50 28//28
f 42//42 20//20 28//28
f 41//41 51//51 40//40
# 77 faces, 0 coords texture

# End of File
