####
#
# OBJ File Generated by Meshlab
#
####
# Object 2596S.obj
#
# Vertices: 114
# Faces: 175
#
####
vn 5.466471 0.027570 -3.097481
v -96.664037 -51.253714 82.489645
vn 2.741407 -0.008578 -1.525311
v -98.626900 -41.095950 78.980800
vn 4.192800 0.170230 -2.103491
v -98.639700 -50.000000 79.002700
vn 2.745966 0.024781 -1.526061
v -96.880800 -53.000000 82.087400
vn 2.739568 -0.004771 -1.543707
v -98.640150 -48.174050 79.003600
vn 2.911779 0.091553 -1.176440
v -99.668600 -50.000000 76.415600
vn 2.909305 -0.209908 -1.168676
v -99.856100 -38.000000 75.851900
vn 2.909161 0.138849 -1.177811
v -98.995600 -50.000000 78.105350
vn 5.458849 -0.017955 -3.111087
v -95.764319 -41.927206 84.093199
vn 5.706554 0.431695 -2.589708
v -92.683686 -33.506490 90.235921
vn 5.463923 0.005458 -3.102135
v -94.934743 -40.617948 85.554406
vn 2.751023 -0.007631 -1.521620
v -98.632650 -43.359300 78.990750
vn 4.138727 -0.340743 -2.155147
v -98.635300 -38.000000 78.995400
vn 2.743228 -0.002972 -1.526375
v -98.633600 -45.708600 78.992350
vn 5.471433 0.007617 -3.088710
v -97.136391 -48.242266 81.685106
vn 5.469399 -0.340944 -3.071222
v -97.647078 -37.517326 80.582923
vn 5.515756 0.080119 -3.007577
v -94.475592 -37.179425 86.401038
vn 5.563608 -0.168138 -2.914378
v -96.320842 -35.943671 82.911090
vn 5.700598 0.262724 -2.622693
v -98.656059 -51.319883 78.765001
vn 2.247693 0.075568 -0.904774
v -99.479500 -51.222400 76.790100
vn 1.012567 0.030395 -0.412073
v -99.749300 -50.000000 76.217300
vn 3.224449 -0.002508 -1.879351
v -95.159200 -51.172900 85.094800
vn 1.661762 -0.005235 -0.960299
v -94.641500 -50.831600 85.988800
vn 2.194195 0.013564 -1.283930
v -94.437200 -49.151500 86.334600
vn 3.408574 0.011643 -1.990682
v -94.618400 -49.479000 86.021400
vn 1.937072 0.002713 -1.108642
v -95.877000 -53.000000 83.868000
vn 2.834732 0.065769 -1.105826
v -92.592650 -25.687300 91.404000
vn 3.053035 0.230251 -1.791147
v -92.816900 -37.401100 89.275500
vn 3.254012 -0.137760 -1.649938
v -96.596100 -33.940300 82.216900
vn 3.449152 -0.032614 -1.609224
v -95.483900 -32.308500 84.427400
vn 2.373071 0.294968 -0.923559
v -91.381100 -34.780900 93.022300
vn 2.343548 0.041994 -0.920848
v -93.111900 -25.198500 90.091500
vn 2.713834 0.051284 -1.087423
v -93.526000 -25.537700 89.032500
vn 3.066595 -0.216135 -1.254430
v -99.872300 -37.858400 75.787900
vn 2.783930 -0.221965 -1.123948
v -99.633350 -36.731300 76.174900
vn 2.711603 0.003541 -1.262680
v -95.233700 -30.230900 84.954800
vn 2.253547 -0.220531 -0.997371
v -98.589400 -34.457800 78.120700
vn 3.211850 0.032600 -1.898792
v -94.015200 -42.735700 87.117900
vn 2.227956 0.011556 -1.318370
v -93.869000 -43.280100 87.358300
vn 3.317650 -0.337821 -1.477859
v -98.911900 -35.220200 77.569000
vn 2.063749 0.071624 -0.897604
v -99.073900 -52.717700 77.704800
vn 2.700224 0.064852 -1.374541
v -98.006508 -53.000000 80.001911
vn 3.493001 0.122884 -1.405236
v -99.456900 -51.245400 76.843800
vn 0.937804 -0.064756 -0.380654
v -99.913900 -38.000000 75.709500
vn 2.174805 0.082852 -0.834576
v -91.805400 -26.673400 93.395800
vn 2.563165 0.038911 -1.078117
v -94.371650 -26.808050 86.910700
vn 2.903097 -0.062202 -1.406057
v -95.926400 -33.053800 83.510900
vn 2.250207 -0.196540 -0.959980
v -99.314900 -35.577700 76.742200
vn 2.615534 0.008589 -1.165308
v -94.866346 -28.306949 85.742424
vn 3.116950 0.025629 -1.799373
v -93.931500 -40.984550 87.298700
vn 2.661076 0.184707 -1.016653
v -91.241650 -31.331700 94.239350
vn 5.516337 -0.216320 -2.999961
v -96.827260 -37.207538 82.038620
vn 5.434727 0.008477 -3.153064
v -95.750540 -50.538875 84.081913
vn 5.815766 0.188634 -2.370195
v -99.236707 -51.056836 77.407624
vn 5.429107 0.025501 -3.162667
v -95.351681 -48.471809 84.777573
vn 5.807039 0.559682 -2.331294
v -91.881130 -33.137827 92.212359
vn 2.914967 -0.261781 -1.143887
v -99.159250 -38.000000 77.624700
vn 5.763513 -0.588917 -2.429932
v -99.018646 -36.537476 77.633122
vn 5.812056 0.141896 -2.382199
v -93.727678 -27.708475 88.426805
vn 5.530246 0.476599 -2.940599
v -92.947352 -35.534962 89.367131
vn 5.686498 0.076445 -2.670316
v -94.363851 -31.095791 86.793773
vn 5.661328 -0.006532 -2.724378
v -94.959150 -32.647798 85.561505
vn 5.843122 0.406797 -2.273578
v -91.706979 -31.276020 93.031474
vn 5.435346 0.036061 -3.151840
v -95.463998 -46.342624 84.604474
vn 5.445830 0.024926 -3.133761
v -96.283092 -47.404715 83.178491
vn 5.637194 -0.568131 -2.709718
v -98.298295 -35.922573 79.102328
vn 5.813980 0.311064 -2.361785
v -92.963379 -29.755912 90.099687
vn 5.726774 0.225368 -2.569476
v -93.358525 -31.785394 88.899684
vn 5.459778 0.182760 -3.102296
v -93.626967 -37.441799 87.913686
vn 5.432852 0.021105 -3.155989
v -94.654502 -42.768405 86.035945
vn 5.425130 0.032704 -3.169189
v -94.698739 -45.080056 85.943999
vn 2.492928 0.017463 -1.467985
v -93.962650 -45.892550 87.183250
vn 5.694706 0.757330 -2.532590
v -92.123912 -34.520876 91.200027
vn 5.635040 0.098261 -2.777010
v -94.175733 -33.258344 87.134975
vn 5.496451 -0.007627 -3.044212
v -97.938427 -44.337490 80.247950
vn 5.807848 0.378056 -2.366905
v -92.418185 -31.555148 91.187898
vn 5.453872 0.020083 -3.119431
v -96.369620 -45.360346 83.054795
vn 5.833354 0.204580 -2.323803
v -93.115421 -28.003335 89.953821
vn 5.467237 -0.023104 -3.095929
v -96.572049 -43.313808 82.697150
vn 5.443977 0.006424 -3.137038
v -95.536323 -44.062316 84.501800
vn 2.664647 -0.191371 -1.297370
v -97.762950 -34.035950 79.912800
vn 5.639872 0.251856 -2.756331
v -93.416358 -33.874592 88.661109
vn 5.424405 0.040114 -3.170579
v -94.697131 -47.259918 85.911224
vn 2.804711 0.409717 -1.385499
v -91.919259 -36.000110 91.123112
vn 5.481156 -0.133194 -3.067984
v -96.942991 -39.143048 81.964059
vn 5.593452 0.060654 -2.859778
v -94.761100 -34.954796 85.945869
vn 5.445653 0.019322 -3.134075
v -96.425015 -49.335277 82.923359
vn 5.453925 -0.078205 -3.117309
v -98.003578 -39.299487 80.096772
vn 2.734151 0.015952 -1.542125
v -98.630100 -39.266900 78.986300
vn 2.785792 0.018556 -1.634695
v -94.286150 -47.863800 86.604750
vn 2.721298 0.247698 -1.053674
v -91.259250 -33.068400 93.828150
vn 5.476018 -0.047081 -3.080391
v -96.758410 -41.270664 82.337421
vn 5.563208 0.197273 -2.912954
v -93.923106 -35.410322 87.511479
vn 5.554535 -0.026136 -2.936136
v -95.349679 -36.628962 84.773761
vn 5.509505 -0.114424 -3.018064
v -96.030546 -38.006286 83.548046
vn 5.474674 0.041232 -3.082557
v -97.159359 -49.926568 81.634658
vn 5.476260 -0.051803 -3.079805
v -95.939586 -39.972178 83.771245
vn 5.477816 0.020293 -3.077509
v -97.880260 -49.173156 80.350710
vn 5.631411 -0.081157 -2.784631
v -95.592697 -34.317732 84.255815
vn 2.707824 0.038521 -1.571638
v -93.439270 -39.412699 88.178893
vn 5.466128 0.049778 -3.097708
v -94.212564 -39.155420 86.842547
vn 5.496895 -0.020057 -3.043205
v -95.125377 -38.731744 85.205607
vn 2.681061 0.143384 -1.040162
v -91.406250 -29.147000 94.146750
vn 5.743170 0.074793 -2.546492
v -94.413289 -29.025670 86.754012
vn 5.488244 -0.001114 -3.058924
v -97.880155 -46.789224 80.345709
vn 5.568074 -0.310879 -2.893909
v -97.298307 -35.712297 81.030371
vn 5.848293 0.223550 -2.285732
v -92.153420 -27.701342 92.386854
vn 5.477161 0.020454 -3.078648
v -97.108043 -46.463809 81.737877
vn 5.491565 -0.028052 -3.052838
v -97.819684 -42.468183 80.454288
vn 5.483728 -0.038886 -3.066828
v -97.593789 -40.996995 80.839301
vn 5.519779 0.104601 -2.998540
v -97.721274 -51.136817 80.597900
vn 5.774058 0.221643 -2.465299
v -93.614454 -29.496704 88.543581
vn 5.835626 0.314488 -2.307351
v -92.292911 -29.215370 91.859953
vn 5.489983 0.000070 -3.055532
v -97.355036 -45.067753 81.307935
# 114 vertices, 0 vertices normals

f 5//5 14//14 105//105
f 6//6 8//8 54//54
f 6//6 20//20 21//21
f 61//61 112//112 68//68
f 69//69 60//60 28//28
f 56//56 76//76 63//63
f 58//58 57//57 35//35
f 61//61 62//62 36//36
f 69//69 28//28 100//100
f 76//76 68//68 67//67
f 74//74 82//82 93//93
f 98//98 5//5 105//105
f 64//64 71//71 83//83
f 7//7 44//44 34//34
f 78//78 27//27 107//107
f 61//61 68//68 74//74
f 58//58 35//35 48//48
f 83//83 90//90 24//24
f 60//60 69//69 93//93
f 58//58 48//48 40//40
f 8//8 19//19 54//54
f 87//87 96//96 15//15
f 87//87 53//53 1//1
f 94//94 95//95 18//18
f 59//59 104//104 46//46
f 30//30 99//99 47//47
f 98//98 96//96 111//111
f 101//101 102//102 17//17
f 70//70 39//39 71//71
f 113//113 103//103 63//63
f 38//38 70//70 50//50
f 102//102 97//97 95//95
f 4//4 42//42 111//111
f 20//20 6//6 54//54
f 3//3 19//19 8//8
f 53//53 25//25 22//22
f 25//25 55//55 24//24
f 57//57 7//7 35//35
f 26//26 1//1 53//53
f 22//22 25//25 23//23
f 32//32 78//78 59//59
f 12//12 2//2 109//109
f 34//34 35//35 7//7
f 108//108 65//65 15//15
f 66//66 106//106 16//16
f 108//108 114//114 77//77
f 61//61 36//36 104//104
f 66//66 13//13 58//58
f 66//66 37//37 81//81
f 39//39 70//70 38//38
f 83//83 72//72 90//90
f 62//62 74//74 86//86
f 14//14 75//75 105//105
f 75//75 14//14 12//12
f 12//12 109//109 75//75
f 113//113 76//76 67//67
f 76//76 10//10 68//68
f 65//65 77//77 64//64
f 64//64 77//77 80//80
f 105//105 108//108 15//15
f 9//9 79//79 92//92
f 77//77 79//79 80//80
f 31//31 73//73 56//56
f 84//84 73//73 31//31
f 40//40 66//66 58//58
f 37//37 66//66 40//40
f 19//19 42//42 41//41
f 86//86 74//74 93//93
f 15//15 98//98 105//105
f 98//98 3//3 5//5
f 83//83 71//71 72//72
f 107//107 45//45 103//103
f 33//33 59//59 46//46
f 82//82 60//60 93//93
f 60//60 82//82 10//10
f 60//60 84//84 28//28
f 84//84 60//60 73//73
f 92//92 85//85 97//97
f 62//62 61//61 74//74
f 74//74 68//68 82//82
f 30//30 62//62 99//99
f 55//55 87//87 65//65
f 65//65 87//87 15//15
f 88//88 2//2 89//89
f 88//88 89//89 13//13
f 13//13 66//66 16//16
f 88//88 13//13 16//16
f 88//88 16//16 85//85
f 106//106 29//29 18//18
f 106//106 52//52 16//16
f 52//52 85//85 16//16
f 71//71 80//80 70//70
f 57//57 58//58 13//13
f 81//81 106//106 66//66
f 55//55 83//83 24//24
f 114//114 75//75 79//79
f 65//65 108//108 77//77
f 91//91 31//31 56//56
f 10//10 82//82 68//68
f 85//85 110//110 88//88
f 25//25 53//53 55//55
f 93//93 69//69 17//17
f 63//63 76//76 113//113
f 86//86 93//93 17//17
f 95//95 97//97 85//85
f 95//95 85//85 52//52
f 99//99 62//62 86//86
f 54//54 41//41 43//43
f 56//56 73//73 10//10
f 76//76 56//56 10//10
f 69//69 100//100 101//101
f 87//87 55//55 53//53
f 96//96 87//87 1//1
f 18//18 95//95 52//52
f 59//59 112//112 104//104
f 112//112 61//61 104//104
f 46//46 104//104 49//49
f 9//9 97//97 11//11
f 3//3 98//98 111//111
f 17//17 94//94 86//86
f 92//92 97//97 9//9
f 29//29 99//99 18//18
f 99//99 29//29 47//47
f 94//94 18//18 99//99
f 86//86 94//94 99//99
f 19//19 3//3 111//111
f 98//98 15//15 96//96
f 101//101 100//100 50//50
f 4//4 1//1 26//26
f 94//94 102//102 95//95
f 69//69 101//101 17//17
f 101//101 11//11 102//102
f 17//17 102//102 94//94
f 11//11 101//101 50//50
f 71//71 39//39 72//72
f 113//113 107//107 103//103
f 63//63 103//103 51//51
f 50//50 70//70 11//11
f 70//70 80//80 9//9
f 71//71 64//64 80//80
f 111//111 96//96 1//1
f 49//49 104//104 36//36
f 20//20 54//54 43//43
f 36//36 62//62 30//30
f 53//53 22//22 26//26
f 106//106 81//81 29//29
f 42//42 19//19 111//111
f 56//56 63//63 91//91
f 91//91 63//63 51//51
f 102//102 11//11 97//97
f 79//79 9//9 80//80
f 11//11 70//70 9//9
f 2//2 88//88 110//110
f 19//19 41//41 54//54
f 108//108 105//105 114//114
f 75//75 109//109 79//79
f 107//107 27//27 45//45
f 114//114 79//79 77//77
f 92//92 110//110 85//85
f 109//109 92//92 79//79
f 111//111 1//1 4//4
f 110//110 92//92 109//109
f 112//112 67//67 68//68
f 106//106 18//18 52//52
f 32//32 59//59 33//33
f 55//55 65//65 64//64
f 55//55 64//64 83//83
f 60//60 10//10 73//73
f 78//78 32//32 27//27
f 113//113 78//78 107//107
f 67//67 112//112 78//78
f 113//113 67//67 78//78
f 109//109 2//2 110//110
f 114//114 105//105 75//75
f 78//78 112//112 59//59
# 175 faces, 0 coords texture

# End of File
