####
#
# OBJ File Generated by Meshlab
#
####
# Object 2603S.obj
#
# Vertices: 217
# Faces: 336
#
####
vn 4.200560 0.156037 -2.095065
v -99.016000 -50.000000 79.654600
vn 2.779845 0.072554 -1.432911
v -98.241600 -53.000000 80.922800
vn 5.765935 0.064045 -2.494056
v -94.972110 -28.917205 87.123259
vn 5.643893 0.111178 -2.758128
v -94.835652 -34.301104 87.309560
vn 2.746366 -0.002188 -1.520466
v -99.009650 -47.355800 79.643700
vn 5.855850 0.048178 -2.276845
v -94.546871 -19.293464 88.535804
vn 5.883276 0.147547 -2.200779
v -93.271372 -23.781299 91.723618
vn 5.885657 0.063128 -2.198135
v -94.019927 -18.368201 89.942759
vn 5.673197 -0.042162 -2.699324
v -95.805606 -33.554765 85.281373
vn 5.885689 0.043131 -2.198669
v -94.077203 -5.355147 90.133695
vn 5.485240 -0.031494 -3.063947
v -97.360513 -43.564322 82.636235
vn 5.446928 0.034829 -3.131783
v -96.454313 -47.090868 84.217827
vn 5.493736 -0.020717 -3.048843
v -95.764869 -39.275574 85.450333
vn 2.752780 0.002330 -1.513301
v -99.009650 -45.285000 79.643650
vn 5.808317 0.290635 -2.377339
v -93.686232 -30.905565 90.037233
vn 2.747205 -0.015051 -1.518866
v -99.002800 -41.229650 79.631700
vn 5.462048 -0.016827 -3.105466
v -96.670368 -44.199417 83.860065
vn 2.754981 -0.010856 -1.518026
v -99.010150 -43.293700 79.644500
vn 4.144083 -0.367533 -2.131728
v -99.008300 -38.000000 79.641400
vn 5.874912 0.036052 -2.227590
v -94.890054 -8.145905 87.898993
vn 5.462118 -0.141584 -3.101141
v -98.205979 -38.658247 81.007468
vn 5.854192 0.053855 -2.280332
v -94.648560 -17.793453 88.296718
vn 5.892116 0.057264 -2.181233
v -93.311172 -12.807863 91.987009
vn 5.819094 0.373999 -2.339739
v -93.148040 -31.955585 91.235184
vn 5.879069 0.054441 -2.216289
v -94.009693 -13.037976 90.117238
vn 5.492418 -0.056415 -3.050913
v -98.168378 -40.576030 81.133681
vn 3.236024 0.027998 -1.892923
v -94.529500 -47.131000 87.528700
vn 2.201991 0.017450 -1.293501
v -94.520400 -47.693300 87.536200
vn 3.556950 0.305986 -1.273348
v -91.824100 -32.924600 94.464300
vn 2.396940 0.021183 -1.310634
v -97.445900 -52.977200 82.404700
vn 2.924872 0.023631 -1.114958
v -91.973600 -11.952900 95.590400
vn 3.235478 0.015756 -1.893974
v -94.529900 -43.062200 87.578300
vn 2.122740 0.215730 -0.741912
v -91.669000 -33.692100 94.706800
vn 2.371281 0.024966 -0.892058
v -92.669100 -0.149679 94.016900
vn 2.259151 0.015127 -0.836843
v -95.093500 -0.025609 87.500000
vn 3.435956 0.015390 -1.291601
v -95.345100 -1.452060 86.790700
vn 3.133152 0.083702 -1.263649
v -99.994210 -50.987458 77.100929
vn 0.965216 0.022656 -0.383981
v -100.229000 -50.000000 76.569000
vn 3.511504 0.187579 -1.341069
v -91.986700 -29.185100 94.649100
vn 2.326009 0.133764 -0.857519
v -91.729100 -30.699200 95.161800
vn 2.840752 0.018259 -1.121104
v -95.228900 -14.456450 86.911500
vn 2.094016 -0.002496 -1.209124
v -95.621600 -51.428800 85.636600
vn 2.745303 0.016206 -1.604322
v -94.943800 -49.025900 86.798550
vn 2.665246 0.020412 -1.059031
v -95.194250 -18.532800 86.913300
vn 0.921619 -0.076947 -0.363726
v -100.338000 -38.000000 76.199300
vn 1.834612 0.013830 -1.065134
v -94.096100 -45.801400 88.301800
vn 2.310588 0.011499 -0.879499
v -91.721700 -6.595050 96.371500
vn 3.758317 0.041583 -1.426767
v -91.831700 -7.120370 96.062400
vn 2.369623 0.100276 -0.905254
v -92.188800 -27.334500 94.338500
vn 3.104619 0.028914 -1.204081
v -95.164500 -13.001100 87.096200
vn 2.831745 0.026949 -1.119146
v -95.250300 -16.445750 86.821650
vn 3.176455 0.199631 -1.865044
v -93.411100 -37.902000 89.599000
vn 3.131923 -0.160562 -1.592803
v -97.464250 -34.023550 81.930400
vn 2.465748 0.118622 -0.955997
v -91.979000 -29.033400 94.689700
vn 3.461442 0.022880 -1.292473
v -93.606400 0.932920 91.528900
vn 2.202561 0.020880 -0.814357
v -93.770000 1.213060 91.093600
vn 1.958026 0.367511 -1.023176
v -92.188100 -36.984900 91.802500
vn 3.809432 0.482588 -1.392672
v -91.983300 -34.602600 93.485400
vn 2.273117 0.218561 -0.727782
v -92.063700 -35.642800 92.921900
vn 3.619838 0.596539 -1.298237
v -92.192200 -35.803800 92.472200
vn 2.612106 0.095578 -0.959514
v -92.721600 -26.102700 93.082600
vn 4.951054 0.127229 -1.854492
v -93.198300 -25.550100 91.779300
vn 2.141595 0.017994 -0.809120
v -91.702200 -8.169550 96.385800
vn 3.498929 0.025699 -1.338801
v -92.038300 -9.858750 95.450700
vn 1.798946 0.025204 -0.719922
v -95.517500 -1.746440 86.349600
vn 3.813480 0.025378 -1.472331
v -95.491900 -2.054060 86.402800
vn 2.566818 -0.149022 -1.253886
v -98.066000 -34.043400 80.766800
vn 3.658673 0.023900 -1.419195
v -95.589700 -8.733150 86.068300
vn 2.566948 0.017780 -1.011815
v -95.749200 -8.225290 85.673600
vn 3.003710 -0.087863 -1.462276
v -96.535600 -33.183050 83.741700
vn 2.109855 0.237083 -0.717174
v -91.747400 -34.497500 94.227200
vn 2.420213 0.041317 -0.958021
v -94.509300 -25.888500 88.369700
vn 3.854840 0.074984 -1.494979
v -94.171200 -25.714400 89.252900
vn 2.715294 0.043567 -1.126762
v -95.060825 -27.202100 86.978925
vn 2.961660 0.029981 -1.704148
v -93.968299 -39.642776 88.629178
vn 2.186534 0.014168 -0.869028
v -95.871600 -3.153490 85.435100
vn 4.045269 0.086066 -1.542105
v -93.962800 -24.151100 89.871300
vn 2.345550 0.032190 -0.898109
v -91.831400 -14.713900 95.890100
vn 3.489310 0.043790 -1.333935
v -91.896600 -14.488500 95.729200
vn 2.688726 0.026289 -1.035870
v -91.874350 -18.893150 95.651350
vn 2.761754 0.028732 -1.065301
v -91.786350 -16.983700 95.937050
vn 3.546411 0.022788 -1.324254
v -92.906800 0.072670 93.389500
vn 2.029081 0.004793 -0.758480
v -93.117700 0.948388 92.819600
vn 2.569686 0.008660 -1.120306
v -95.394300 -28.369500 86.159100
vn 3.654437 0.059788 -1.405746
v -91.906900 -4.384640 95.903600
vn 2.062960 0.022284 -0.791776
v -91.822000 -3.002670 96.169500
vn 2.498583 0.017458 -0.960982
v -91.786900 -4.862490 96.189600
vn 3.497308 0.021281 -1.347804
v -95.197700 -11.801500 87.038300
vn 2.232626 0.011575 -0.866535
v -95.629900 -10.287100 85.941500
vn 2.195812 -0.197894 -0.945710
v -99.361800 -34.881800 77.982500
vn 3.582654 -0.024982 -1.664132
v -96.125700 -32.560700 84.570400
vn 1.937659 0.047237 -0.715832
v -92.864600 -24.820800 92.756100
vn 3.752127 0.076363 -1.406497
v -92.900400 -24.167400 92.685300
vn 2.497416 0.005388 -1.138958
v -96.045900 -31.329400 84.764600
vn 1.718987 0.057514 -0.722030
v -99.716900 -53.000000 77.646400
vn 2.610319 0.045295 -1.000333
v -94.520000 -22.677100 88.480600
vn 2.360956 0.010898 -0.928463
v -96.008800 -6.144620 85.046600
vn 3.098063 -0.012033 -1.392176
v -95.542865 -29.450597 85.845558
vn 5.504383 0.062842 -3.029048
v -97.540449 -51.895065 82.249274
vn 5.881627 0.058880 -2.209379
v -92.835864 -1.388190 93.538942
vn 5.875242 0.057458 -2.226053
v -92.427304 -3.076783 94.590304
vn 2.602403 0.025358 -1.516269
v -94.300900 -42.050800 87.974600
vn 5.887189 0.078584 -2.193372
v -92.742752 -19.689428 93.370169
vn 2.808738 0.032833 -1.103742
v -94.935100 -20.512150 87.526250
vn 5.898838 0.108302 -2.160763
v -92.990749 -21.977030 92.603203
vn 5.804030 0.189366 -2.398631
v -99.517888 -51.678073 78.225502
vn 2.914388 0.093009 -1.169746
v -99.758500 -50.000000 77.751700
vn 5.886555 0.042784 -2.196522
v -94.671807 -3.807021 88.548678
vn 5.887093 0.052515 -2.194803
v -93.890449 -3.135586 90.656584
vn 5.443581 0.013955 -3.137757
v -96.210475 -50.365632 84.614565
vn 5.475123 0.036013 -3.081928
v -97.174959 -50.470968 82.931662
vn 2.779147 0.013202 -1.573729
v -96.620800 -52.209800 83.895200
vn 5.610139 -0.029952 -2.828355
v -95.753795 -35.419378 85.424753
vn 5.793796 0.612032 -2.348881
v -92.636794 -33.271305 92.239099
vn 5.496075 -0.001332 -3.044796
v -98.154886 -48.386478 81.186004
vn 2.911053 -0.272805 -1.152173
v -99.732750 -38.000000 77.732900
vn 5.831100 0.130634 -2.336052
v -94.375207 -27.628282 88.633422
vn 5.500691 -0.097376 -3.034748
v -97.364394 -39.463002 82.559619
vn 5.510701 0.110228 -3.015369
v -98.137046 -50.722171 81.194227
vn 5.880483 0.060393 -2.212177
v -92.446139 -13.813662 94.305446
vn 2.889353 0.388202 -1.674597
v -92.760700 -37.259400 90.756950
vn 5.856678 0.048145 -2.274695
v -94.803639 -14.641361 87.986052
vn 5.869349 0.058670 -2.241587
v -94.575958 -13.356903 88.607533
vn 5.886935 0.058554 -2.195207
v -93.143515 -2.970883 92.671759
vn 5.877996 0.047013 -2.219287
v -92.326367 -8.236277 94.732258
vn 5.878425 0.041856 -2.217987
v -92.529435 -10.402456 94.163777
vn 5.474094 -0.020371 -3.084167
v -96.636323 -42.436419 83.904229
vn 5.470294 0.004018 -3.090966
v -95.856511 -41.319353 85.287708
vn 5.897904 0.064224 -2.162954
v -93.303720 -18.110158 91.940235
vn 5.894550 0.094669 -2.172181
v -93.473141 -20.115427 91.329234
vn 5.504159 -0.007376 -3.030222
v -98.175557 -44.409052 81.164469
vn 5.864624 0.064303 -2.253693
v -94.403756 -16.323361 88.976887
vn 5.515151 -0.112336 -3.007805
v -96.583321 -38.346839 83.943785
vn 5.858022 0.400048 -2.235714
v -92.353318 -31.275292 93.378752
vn 5.846030 0.306366 -2.282003
v -93.058490 -29.939090 91.758579
vn 5.616296 -0.169323 -2.811486
v -96.561503 -34.558313 83.778700
vn 5.575237 0.098974 -2.895273
v -95.022451 -36.465305 86.833126
vn 5.882176 0.091836 -2.206676
v -93.740272 -22.136395 90.559768
vn 5.460141 0.049537 -3.108316
v -94.955452 -40.372933 86.884319
vn 5.890604 0.042724 -2.184717
v -93.735271 -16.272313 90.739271
vn 5.894783 0.026819 -2.174561
v -93.081689 -16.096247 92.532071
vn 5.452738 0.027632 -3.121571
v -96.801526 -48.733795 83.604794
vn 5.561338 -0.158420 -2.919203
v -96.598768 -36.399920 83.811176
vn 5.887345 0.049595 -2.194167
v -93.575174 -0.760098 91.584971
vn 2.850354 0.017055 -1.055658
v -94.299750 0.818967 89.650700
vn 5.886037 0.047380 -2.197870
v -92.892825 -6.774893 93.249044
vn 5.430817 0.029492 -3.159677
v -95.082491 -44.906832 86.614432
vn 5.780691 0.168475 -2.453091
v -94.344590 -30.065980 88.523435
vn 5.487134 0.094513 -3.058323
v -94.710846 -38.244659 87.358317
vn 5.741620 -0.617641 -2.471298
v -99.164214 -36.659880 78.830012
vn 5.490746 -0.036796 -3.054009
v -96.578928 -40.354973 84.001227
vn 5.863488 0.035272 -2.256596
v -95.358263 -3.483976 86.721302
vn 5.498659 -0.038172 -3.039998
v -98.134728 -42.485184 81.221397
vn 5.875727 0.066499 -2.224790
v -94.170290 -14.585614 89.652215
vn 5.842552 0.220040 -2.299710
v -93.724924 -28.758905 90.223319
vn 5.482425 0.023593 -3.068742
v -97.432963 -47.340781 82.508521
vn 5.455090 0.002753 -3.117668
v -95.952284 -43.431397 85.117522
vn 5.446064 0.021833 -3.133167
v -96.159866 -45.415234 84.756368
vn 5.667714 -0.452566 -2.671422
v -98.468057 -35.434388 80.096741
vn 5.884146 0.053796 -2.202742
v -93.718140 -9.363885 90.985502
vn 5.892865 0.056135 -2.179305
v -93.172596 -10.996007 92.412856
vn 5.875676 0.037886 -2.225163
v -92.211069 -6.457010 95.087651
vn 5.858659 0.029790 -2.269945
v -95.387401 -7.048043 86.612161
vn 5.867710 0.038271 -2.246274
v -95.057581 -10.066002 87.419033
vn 3.020285 0.024037 -1.148952
v -92.206650 -1.836015 95.192400
vn 5.870114 0.052890 -2.239915
v -94.618858 -11.721226 88.544860
vn 5.884007 0.050836 -2.203224
v -93.382325 -4.967184 91.987531
vn 2.763033 0.000220 -1.604680
v -95.388400 -50.536800 86.033300
vn 5.510764 0.572641 -2.958426
v -93.308075 -35.860411 90.084419
vn 5.863575 0.025047 -2.257146
v -95.307134 -5.206717 86.840292
vn 5.883008 0.050337 -2.205762
v -93.558813 -7.150872 91.453249
vn 5.877756 0.052852 -2.219773
v -94.395716 -9.717036 89.185316
vn 5.478434 0.007444 -3.075880
v -97.235864 -45.514184 82.871518
vn 2.726315 -0.008440 -1.547625
v -99.000600 -39.492500 79.627950
vn 2.828029 0.031221 -1.052661
v -92.242800 -21.261050 94.675250
vn 2.927836 0.010706 -1.711342
v -94.381300 -44.580600 87.816100
vn 5.886308 0.053944 -2.196695
v -92.648592 -12.398810 93.803931
vn 5.517287 -0.215742 -2.998155
v -97.424411 -37.425936 82.345413
vn 2.908131 -0.234127 -1.272518
v -98.391000 -34.281900 80.060800
vn 5.888651 0.062615 -2.190382
v -93.509546 -14.438511 91.408398
vn 5.857052 0.127027 -2.270935
v -93.758097 -26.530284 90.275241
vn 2.871077 0.139337 -1.270166
v -99.066350 -53.000000 79.164000
vn 5.880828 0.056663 -2.211324
v -93.874489 -11.352817 90.507962
vn 3.221557 0.012492 -1.268169
v -95.845000 -4.608975 85.473500
vn 5.538636 -0.039061 -2.966119
v -95.778398 -37.391051 85.396849
vn 2.755976 0.067842 -1.003787
v -92.584700 -23.077750 93.643650
vn 5.698052 0.508382 -2.591882
v -93.336401 -33.849526 90.482462
vn 5.707413 0.153116 -2.620642
v -94.283783 -32.238909 88.524502
vn 5.713622 0.027769 -2.613430
v -95.117414 -30.687514 86.793155
vn 2.911416 -0.249060 -1.176400
v -99.867791 -36.492492 77.071814
vn 5.871249 0.595993 -2.154786
v -92.044638 -33.364725 93.727226
vn 5.860103 0.288127 -2.247243
v -92.435435 -29.040556 93.511556
vn 5.434977 0.027624 -3.152549
v -95.857156 -48.803427 85.233652
vn 5.702191 0.260192 -2.612636
v -99.001563 -51.392911 79.499200
vn 5.868411 0.205757 -2.235113
v -93.018622 -27.589805 92.125879
vn 5.572390 -0.298734 -2.886891
v -97.483606 -35.450850 82.047755
vn 5.877566 0.052187 -2.220211
v -92.565323 -4.807547 94.173670
vn 5.439618 0.026667 -3.144356
v -95.147523 -42.496447 86.527684
vn 5.871634 0.051679 -2.235392
v -92.571341 -17.628336 93.893089
vn 5.887574 0.040623 -2.193802
v -93.057885 -8.882072 92.777940
vn 5.881544 0.045778 -2.209885
v -94.222826 -7.576626 89.688136
vn 5.887921 0.045689 -2.192842
v -95.033206 -2.093583 87.621514
vn 5.685327 0.855811 -2.517843
v -92.593704 -35.163272 91.680608
vn 5.538963 -0.445824 -2.925121
v -98.298914 -36.894621 80.696742
vn 5.429574 0.041669 -3.161610
v -95.401061 -47.138410 86.044492
vn 5.865384 0.075494 -2.251513
v -94.195801 -20.618246 89.409064
vn 5.758497 0.282895 -2.493094
v -93.673924 -32.555022 89.849468
vn 5.889653 0.051875 -2.188006
v -94.434423 -1.498048 89.252447
vn 5.882499 0.035872 -2.207347
v -94.751341 -6.133205 88.292320
vn 5.490645 -0.042006 -3.054392
v -97.341792 -41.581937 82.636870
vn 5.636580 0.296869 -2.756049
v -93.910152 -34.206174 89.212396
vn 5.879265 0.053904 -2.215600
v -92.463083 -15.403725 94.215637
vn 5.894229 0.057077 -2.175590
v -92.950397 -14.166431 92.932518
vn 5.691370 0.039505 -2.660902
v -95.259124 -32.188498 86.480549
vn 5.505483 0.009544 -3.027862
v -98.188285 -46.648734 81.133698
vn 5.515011 0.289008 -2.992106
v -94.204164 -36.403819 88.419457
vn 5.484507 0.031899 -3.065473
v -97.608864 -49.067396 82.170060
# 217 vertices, 0 vertices normals

f 71//71 191//191 33//33
f 202//202 36//36 35//35
f 2//2 119//119 99//99
f 116//116 190//190 150//150
f 147//147 46//46 27//27
f 63//63 125//125 48//48
f 111//111 119//119 217//217
f 192//192 54//54 39//39
f 36//36 66//66 65//65
f 130//130 8//8 129//129
f 144//144 100//100 124//124
f 4//4 113//113 9//9
f 212//212 79//79 78//78
f 6//6 206//206 104//104
f 144//144 83//83 82//82
f 3//3 84//84 74//74
f 101//101 86//86 85//85
f 20//20 209//209 201//201
f 151//151 133//133 13//13
f 20//20 172//172 164//164
f 124//124 197//197 167//167
f 173//173 12//12 156//156
f 21//21 174//174 19//19
f 155//155 15//15 148//148
f 171//171 167//167 146//146
f 178//178 143//143 133//133
f 7//7 93//93 92//92
f 108//108 170//170 152//152
f 138//138 130//130 105//105
f 131//131 11//11 173//173
f 140//140 154//154 180//180
f 76//76 152//152 184//184
f 104//104 206//206 96//96
f 25//25 183//183 23//23
f 202//202 66//66 36//36
f 114//114 134//134 191//191
f 153//153 11//11 131//131
f 148//148 15//15 188//188
f 3//3 98//98 84//84
f 28//28 205//205 27//27
f 134//134 40//40 29//29
f 191//191 134//134 29//29
f 2//2 99//99 30//30
f 198//198 102//102 32//32
f 100//100 34//34 165//165
f 144//144 208//208 145//145
f 208//208 202//202 35//35
f 22//22 6//6 44//44
f 104//104 44//44 6//6
f 182//182 194//194 2//2
f 2//2 194//194 119//119
f 107//107 194//194 106//106
f 38//38 107//107 37//37
f 134//134 192//192 39//39
f 39//39 40//40 134//134
f 108//108 109//109 10//10
f 1//1 5//5 115//115
f 193//193 110//110 142//142
f 142//142 110//110 111//111
f 103//103 105//105 130//130
f 22//22 44//44 51//51
f 116//116 45//45 190//190
f 205//205 147//147 27//27
f 119//119 111//111 99//99
f 48//48 162//162 47//47
f 110//110 112//112 111//111
f 112//112 110//110 42//42
f 54//54 192//192 49//49
f 50//50 122//122 41//41
f 109//109 167//167 10//10
f 118//118 210//210 26//26
f 5//5 14//14 215//215
f 108//108 152//152 202//202
f 139//139 13//13 149//149
f 55//55 144//144 145//145
f 121//121 203//203 57//57
f 121//121 52//52 169//169
f 114//114 58//58 203//203
f 203//203 60//60 57//57
f 203//203 121//121 169//169
f 58//58 59//59 60//60
f 195//195 62//62 61//61
f 125//125 63//63 64//64
f 196//196 178//178 204//204
f 129//129 103//103 130//130
f 14//14 131//131 215//215
f 20//20 164//164 68//68
f 69//69 163//163 68//68
f 137//137 216//216 149//149
f 103//103 175//175 105//105
f 192//192 134//134 135//135
f 167//167 109//109 124//124
f 158//158 205//205 12//12
f 205//205 193//193 12//12
f 181//181 117//117 73//73
f 117//117 3//3 74//74
f 140//140 141//141 129//129
f 193//193 142//142 12//12
f 113//113 143//143 136//136
f 55//55 145//145 56//56
f 16//16 26//26 153//153
f 15//15 135//135 24//24
f 3//3 117//117 148//148
f 117//117 155//155 148//148
f 19//19 116//116 150//150
f 4//4 216//216 137//137
f 133//133 151//151 118//118
f 193//193 205//205 43//43
f 154//154 132//132 122//122
f 202//202 152//152 66//66
f 76//76 66//66 152//152
f 147//147 198//198 32//32
f 32//32 176//176 147//147
f 178//178 196//196 143//143
f 181//181 62//62 195//195
f 9//9 70//70 91//91
f 136//136 70//70 9//9
f 149//149 52//52 75//75
f 7//7 62//62 77//77
f 73//73 77//77 181//181
f 9//9 214//214 4//4
f 4//4 137//137 113//113
f 149//149 13//13 185//185
f 149//149 185//185 137//137
f 14//14 18//18 131//131
f 80//80 175//175 103//103
f 18//18 16//16 153//153
f 124//124 109//109 144//144
f 135//135 155//155 195//195
f 186//186 93//93 105//105
f 157//157 198//198 147//147
f 158//158 17//17 157//157
f 127//127 157//157 17//17
f 157//157 147//147 158//158
f 82//82 100//100 144//144
f 34//34 100//100 82//82
f 125//125 200//200 146//146
f 64//64 31//31 126//126
f 141//141 212//212 199//199
f 194//194 1//1 119//119
f 115//115 217//217 1//1
f 161//161 23//23 183//183
f 87//87 197//197 85//85
f 87//87 162//162 197//197
f 101//101 165//165 86//86
f 162//162 87//87 47//47
f 195//195 49//49 192//192
f 164//164 166//166 88//88
f 171//171 10//10 167//167
f 144//144 55//55 83//83
f 110//110 193//193 168//168
f 140//140 8//8 132//132
f 140//140 132//132 154//154
f 164//164 88//88 89//89
f 192//192 135//135 195//195
f 125//125 162//162 48//48
f 10//10 209//209 108//108
f 216//216 169//169 52//52
f 200//200 125//125 126//126
f 126//126 125//125 64//64
f 97//97 170//170 163//163
f 128//128 151//151 13//13
f 200//200 126//126 161//161
f 4//4 214//214 188//188
f 201//201 171//171 160//160
f 171//171 146//146 200//200
f 164//164 172//172 166//166
f 105//105 7//7 138//138
f 53//53 136//136 196//196
f 70//70 136//136 53//53
f 167//167 197//197 146//146
f 16//16 174//174 26//26
f 117//117 74//74 72//72
f 156//156 12//12 142//142
f 156//156 142//142 217//217
f 12//12 173//173 158//158
f 158//158 173//173 17//17
f 174//174 21//21 26//26
f 204//204 21//21 19//19
f 196//196 204//204 159//159
f 204//204 19//19 150//150
f 155//155 135//135 15//15
f 175//175 186//186 105//105
f 205//205 28//28 43//43
f 147//147 176//176 46//46
f 212//212 78//78 81//81
f 177//177 120//120 213//213
f 171//171 201//201 10//10
f 21//21 118//118 26//26
f 7//7 92//92 62//62
f 199//199 81//81 80//80
f 81//81 199//199 212//212
f 118//118 178//178 133//133
f 108//108 209//209 170//170
f 152//152 170//170 184//184
f 189//189 94//94 98//98
f 94//94 214//214 91//91
f 130//130 138//138 206//206
f 215//215 173//173 156//156
f 5//5 215//215 115//115
f 159//159 179//179 67//67
f 21//21 178//178 118//118
f 180//180 23//23 213//213
f 213//213 120//120 212//212
f 155//155 117//117 181//181
f 106//106 182//182 95//95
f 106//106 95//95 37//37
f 106//106 194//194 182//182
f 141//141 140//140 180//180
f 180//180 154//154 25//25
f 164//164 89//89 68//68
f 77//77 62//62 181//181
f 77//77 138//138 7//7
f 96//96 206//206 138//138
f 25//25 166//166 183//183
f 160//160 183//183 172//172
f 172//172 183//183 166//166
f 13//13 133//133 185//185
f 185//185 133//133 143//143
f 96//96 138//138 77//77
f 161//161 183//183 160//160
f 25//25 123//123 166//166
f 88//88 166//166 50//50
f 180//180 25//25 23//23
f 97//97 163//163 69//69
f 127//127 151//151 128//128
f 181//181 195//195 155//155
f 105//105 93//93 7//7
f 163//163 209//209 20//20
f 187//187 211//211 207//207
f 79//79 120//120 31//31
f 212//212 120//120 79//79
f 114//114 24//24 134//134
f 4//4 188//188 211//211
f 185//185 143//143 113//113
f 185//185 113//113 137//137
f 4//4 211//211 216//216
f 187//187 203//203 169//169
f 214//214 189//189 188//188
f 188//188 15//15 207//207
f 3//3 189//189 98//98
f 197//197 124//124 101//101
f 190//190 90//90 150//150
f 188//188 189//189 148//148
f 148//148 189//189 3//3
f 31//31 177//177 126//126
f 161//161 177//177 23//23
f 191//191 71//71 58//58
f 33//33 191//191 29//29
f 101//101 100//100 165//165
f 101//101 124//124 100//100
f 49//49 195//195 61//61
f 203//203 187//187 114//114
f 132//132 22//22 51//51
f 51//51 122//122 132//132
f 80//80 103//103 199//199
f 159//159 150//150 90//90
f 173//173 11//11 17//17
f 110//110 168//168 42//42
f 123//123 122//122 50//50
f 170//170 97//97 184//184
f 11//11 127//127 17//17
f 41//41 122//122 51//51
f 166//166 123//123 50//50
f 114//114 187//187 24//24
f 107//107 106//106 37//37
f 53//53 196//196 67//67
f 193//193 43//43 168//168
f 1//1 194//194 107//107
f 58//58 114//114 191//191
f 204//204 150//150 159//159
f 154//154 122//122 123//123
f 196//196 159//159 67//67
f 25//25 154//154 123//123
f 21//21 204//204 178//178
f 127//127 128//128 157//157
f 159//159 90//90 179//179
f 11//11 210//210 127//127
f 139//139 102//102 198//198
f 139//139 75//75 102//102
f 128//128 13//13 139//139
f 198//198 128//128 139//139
f 197//197 101//101 85//85
f 198//198 157//157 128//128
f 146//146 197//197 162//162
f 73//73 117//117 72//72
f 162//162 125//125 146//146
f 141//141 199//199 129//129
f 209//209 10//10 201//201
f 171//171 200//200 160//160
f 131//131 173//173 215//215
f 208//208 35//35 145//145
f 99//99 112//112 30//30
f 99//99 111//111 112//112
f 210//210 153//153 26//26
f 8//8 140//140 129//129
f 199//199 103//103 129//129
f 131//131 18//18 153//153
f 161//161 160//160 200//200
f 160//160 172//172 201//201
f 20//20 201//201 172//172
f 24//24 135//135 134//134
f 177//177 161//161 126//126
f 210//210 151//151 127//127
f 210//210 118//118 151//151
f 8//8 206//206 6//6
f 58//58 60//60 203//203
f 20//20 68//68 163//163
f 130//130 206//206 8//8
f 15//15 24//24 207//207
f 109//109 108//108 208//208
f 202//202 208//208 108//108
f 208//208 144//144 109//109
f 147//147 205//205 158//158
f 132//132 8//8 22//22
f 187//187 207//207 24//24
f 188//188 207//207 211//211
f 170//170 209//209 163//163
f 153//153 210//210 11//11
f 8//8 6//6 22//22
f 196//196 136//136 143//143
f 211//211 169//169 216//216
f 139//139 149//149 75//75
f 120//120 177//177 31//31
f 211//211 187//187 169//169
f 136//136 9//9 113//113
f 213//213 23//23 177//177
f 180//180 213//213 141//141
f 212//212 141//141 213//213
f 189//189 214//214 94//94
f 214//214 9//9 91//91
f 216//216 52//52 149//149
f 156//156 115//115 215//215
f 217//217 119//119 1//1
f 111//111 217//217 142//142
f 156//156 217//217 115//115
# 336 faces, 0 coords texture

# End of File
