####
#
# OBJ File Generated by Meshlab
#
####
# Object 2606S.obj
#
# Vertices: 38
# Faces: 53
#
####
vn -5.857297 0.077935 -2.271748
v 93.776597 -4.472671 93.790102
vn -5.862522 0.058013 -2.259242
v 93.827345 -7.862428 93.501451
vn -5.866107 0.078073 -2.247467
v 95.055137 -8.389901 90.230242
vn -2.298754 0.019324 -0.860861
v 94.421300 -10.119300 91.914700
vn -2.102716 0.032354 -0.846991
v 93.210000 -2.677230 95.284100
vn -2.897350 0.041131 -1.153170
v 93.145600 -4.119110 95.388900
vn -2.420270 0.014570 -0.935270
v 95.770500 -0.699781 88.579400
vn -2.232986 0.037159 -0.868342
v 93.060000 -6.735040 95.526600
vn -3.437003 0.031783 -1.325763
v 93.249600 -7.413550 95.006000
vn -2.826339 0.006005 -1.116778
v 96.232600 -2.385500 87.374800
vn -3.397421 0.030625 -1.323736
v 93.298000 -2.515800 95.071800
vn -2.517674 0.019987 -1.009083
v 96.427322 -6.104739 86.858971
vn -2.647651 0.028879 -1.045388
v 95.962500 -8.443490 87.951700
vn -2.364694 0.004045 -0.955061
v 96.482600 -3.458130 86.765400
vn -1.656305 0.021200 -0.631983
v 95.091000 -9.947840 90.100200
vn -3.494317 0.039773 -1.365607
v 95.178700 -9.639460 89.880700
vn -2.996992 0.024980 -1.130860
v 95.077000 0.057247 90.399750
vn -2.042393 -0.001520 -0.775260
v 93.312500 -8.530090 94.859100
vn -2.925542 0.023182 -1.120949
v 93.884550 -9.366800 93.322150
vn -2.014738 0.020203 -0.760404
v 94.614700 0.675353 91.656800
vn -2.399029 0.004764 -0.910868
v 93.536700 -1.159880 94.456000
vn -3.574462 0.034528 -1.337730
v 94.958800 -9.765130 90.452800
vn -2.453352 0.027019 -0.979075
v 95.685400 -9.215130 88.638000
vn -5.875291 0.015421 -2.226796
v 93.998249 -2.791696 93.233676
vn -5.877899 0.065017 -2.218581
v 94.405677 -8.759887 91.986933
vn -5.878582 0.055378 -2.216181
v 94.521214 -4.675491 91.845211
vn -5.859192 0.107910 -2.266302
v 93.706747 -6.057518 93.882766
vn -5.875264 0.081100 -2.224923
v 95.115180 -6.067417 90.176652
vn -5.840130 0.065104 -2.316648
v 95.654271 -7.311691 88.763616
vn -5.875018 0.041018 -2.227085
v 95.003499 -0.937941 90.572560
vn -5.862835 0.028276 -2.259219
v 95.507642 -2.331778 89.234359
vn -5.842774 0.031513 -2.310504
v 95.944115 -3.956573 88.096558
vn -5.872851 0.042622 -2.232729
v 95.280611 -4.066422 89.805531
vn -2.948371 0.014830 -1.123015
v 94.050824 -0.288208 93.103096
vn -5.880788 0.012970 -2.212249
v 94.764644 -2.575368 91.186524
vn -5.875231 0.091448 -2.224521
v 94.470522 -6.944640 91.885208
vn -5.877422 0.030888 -2.221043
v 94.338651 -1.112182 92.336553
vn -5.846157 0.049358 -2.301424
v 95.700241 -5.490887 88.680022
# 38 vertices, 0 vertices normals

f 24//24 1//1 11//11
f 32//32 14//14 12//12
f 22//22 16//16 15//15
f 31//31 30//30 7//7
f 11//11 6//6 5//5
f 1//1 27//27 8//8
f 27//27 26//26 36//36
f 24//24 11//11 21//21
f 3//3 16//16 22//22
f 3//3 22//22 25//25
f 3//3 29//29 23//23
f 24//24 26//26 1//1
f 25//25 4//4 19//19
f 7//7 10//10 31//31
f 9//9 27//27 2//2
f 8//8 27//27 9//9
f 1//1 8//8 6//6
f 36//36 28//28 3//3
f 12//12 13//13 29//29
f 31//31 35//35 30//30
f 30//30 17//17 7//7
f 35//35 31//31 33//33
f 30//30 37//37 20//20
f 11//11 1//1 6//6
f 32//32 10//10 14//14
f 27//27 1//1 26//26
f 36//36 26//26 28//28
f 35//35 33//33 26//26
f 26//26 33//33 28//28
f 17//17 30//30 20//20
f 12//12 38//38 32//32
f 33//33 38//38 28//28
f 35//35 37//37 30//30
f 32//32 33//33 31//31
f 32//32 31//31 10//10
f 25//25 22//22 4//4
f 35//35 24//24 37//37
f 24//24 35//35 26//26
f 29//29 3//3 28//28
f 29//29 28//28 38//38
f 36//36 3//3 25//25
f 37//37 21//21 34//34
f 21//21 37//37 24//24
f 13//13 23//23 29//29
f 23//23 16//16 3//3
f 18//18 2//2 19//19
f 2//2 25//25 19//19
f 2//2 27//27 36//36
f 2//2 36//36 25//25
f 2//2 18//18 9//9
f 32//32 38//38 33//33
f 37//37 34//34 20//20
f 12//12 29//29 38//38
# 53 faces, 0 coords texture

# End of File
