####
#
# OBJ File Generated by Meshlab
#
####
# Object 2617.obj
#
# Vertices: 44
# Faces: 62
#
####
vn 3.023582 -0.052054 -0.840879
v -92.765100 -47.037051 92.000000
vn 6.042273 -0.061554 -1.722032
v -91.802548 -48.320166 95.444351
vn 3.022289 -0.020534 -0.856822
v -91.419550 -38.000000 96.627000
vn 3.024367 -0.015693 -0.850066
v -91.900900 -38.000000 94.959000
vn 1.525708 -0.028721 -0.391816
v -90.577000 -50.000000 100.000000
vn 3.036934 -0.045793 -0.798132
v -90.573700 -49.824700 100.000000
vn 3.038983 -0.048539 -0.795222
v -90.603400 -50.000000 99.897200
vn 3.030732 0.007007 -0.824368
v -92.716700 -40.546050 92.000000
vn 3.025645 0.000921 -0.845576
v -90.757750 -38.000000 99.029000
vn 1.512292 0.001553 -0.425731
v -90.484400 -38.000000 100.000000
vn 3.021959 -0.018733 -0.858357
v -92.100850 -50.000000 94.449500
vn 1.513471 0.003558 -0.423971
v -92.783900 -50.000000 92.000000
vn 1.515289 -0.002839 -0.415752
v -92.715200 -38.000000 92.000000
vn 6.050301 0.004574 -1.694063
v -91.001314 -42.856537 98.222863
vn 3.023103 -0.004188 -0.850791
v -90.482850 -39.509750 100.000000
vn 3.016424 -0.031824 -0.841505
v -90.484800 -45.869600 99.999900
vn 6.056998 -0.110421 -1.666766
v -90.895497 -46.975816 98.618125
vn 6.048486 -0.027745 -1.700871
v -91.115182 -39.567710 97.745905
vn 6.059275 -0.000683 -1.662097
v -92.247040 -39.976444 93.734111
vn 3.026183 -0.029314 -0.843423
v -91.449650 -50.000000 96.743250
vn 6.046329 -0.083204 -1.706213
v -92.378230 -47.375007 93.408712
vn 3.021366 -0.013720 -0.857392
v -90.488100 -41.373500 100.000000
vn 6.049455 -0.017756 -1.697630
v -91.352457 -41.323207 96.942524
vn 3.034493 -0.039101 -0.812623
v -90.936100 -50.000000 98.637100
vn 6.046282 -0.027771 -1.708412
v -92.412144 -48.919890 93.336139
vn 3.020939 -0.010360 -0.846516
v -92.787700 -48.914700 92.000000
vn 3.030345 -0.005447 -0.826533
v -92.717000 -38.960800 92.000000
vn 3.029480 -0.010630 -0.831722
v -92.353755 -38.000000 93.317359
vn 3.037047 -0.057205 -0.815614
v -90.550450 -48.180000 100.000000
vn 3.028660 0.007910 -0.847529
v -90.501050 -43.527200 99.999950
vn 3.034202 -0.036156 -0.832514
v -92.714100 -44.767500 92.000000
vn 6.057311 -0.070393 -1.667164
v -92.400409 -44.954310 93.151399
vn 3.032782 -0.001517 -0.825848
v -92.708900 -43.156650 92.000000
vn 6.061527 0.011012 -1.654072
v -92.331560 -42.385750 93.386840
vn 6.049761 -0.005656 -1.695437
v -90.916379 -45.156219 98.454819
vn 6.055061 0.015607 -1.677531
v -91.500606 -42.993536 96.415318
vn 6.046666 -0.066557 -1.705784
v -91.363029 -46.754152 96.913747
vn 6.056583 -0.008824 -1.672004
v -91.934310 -43.826720 94.835374
vn 6.056832 0.010858 -1.671132
v -91.870366 -41.793803 95.088037
vn 6.046255 -0.064427 -1.707738
v -91.900987 -45.963833 95.014011
vn 6.047276 -0.022109 -1.704980
v -91.698074 -39.814616 95.710662
vn 6.047008 -0.032507 -1.706161
v -90.886698 -40.904571 98.588842
vn 6.048350 0.001353 -1.701317
v -91.410216 -44.583098 96.709553
vn 6.059346 -0.081860 -1.659877
v -91.153667 -48.467423 97.758957
# 44 vertices, 0 vertices normals

f 6//6 5//5 7//7
f 37//37 17//17 44//44
f 10//10 15//15 9//9
f 12//12 26//26 25//25
f 29//29 44//44 17//17
f 2//2 40//40 37//37
f 38//38 32//32 34//34
f 39//39 23//23 36//36
f 40//40 38//38 43//43
f 40//40 43//43 37//37
f 32//32 40//40 21//21
f 15//15 22//22 42//42
f 16//16 29//29 17//17
f 3//3 9//9 18//18
f 14//14 23//23 42//42
f 23//23 14//14 36//36
f 20//20 11//11 2//2
f 22//22 30//30 14//14
f 11//11 25//25 2//2
f 24//24 6//6 7//7
f 29//29 24//24 44//44
f 24//24 20//20 44//44
f 26//26 1//1 21//21
f 21//21 25//25 26//26
f 19//19 27//27 28//28
f 27//27 13//13 28//28
f 12//12 25//25 11//11
f 19//19 4//4 41//41
f 29//29 6//6 24//24
f 30//30 16//16 35//35
f 1//1 31//31 32//32
f 31//31 33//33 32//32
f 33//33 8//8 34//34
f 9//9 15//15 18//18
f 4//4 19//19 28//28
f 8//8 19//19 34//34
f 14//14 35//35 43//43
f 36//36 14//14 43//43
f 38//38 36//36 43//43
f 21//21 2//2 25//25
f 34//34 19//19 39//39
f 39//39 19//19 41//41
f 27//27 19//19 8//8
f 34//34 32//32 33//33
f 37//37 35//35 17//17
f 37//37 43//43 35//35
f 38//38 39//39 36//36
f 39//39 41//41 23//23
f 39//39 38//38 34//34
f 32//32 38//38 40//40
f 21//21 1//1 32//32
f 21//21 40//40 2//2
f 41//41 4//4 3//3
f 14//14 30//30 35//35
f 44//44 20//20 2//2
f 35//35 16//16 17//17
f 18//18 23//23 41//41
f 18//18 41//41 3//3
f 23//23 18//18 42//42
f 15//15 42//42 18//18
f 14//14 42//42 22//22
f 37//37 44//44 2//2
# 62 faces, 0 coords texture

# End of File
