####
#
# OBJ File Generated by Meshlab
#
####
# Object 2625S.obj
#
# Vertices: 202
# Faces: 317
#
####
vn 5.902281 0.025040 -2.154218
v -93.581279 10.304323 93.734338
vn 5.842502 -0.119925 -2.308377
v -94.029235 29.286214 92.568161
vn 5.677152 -0.465971 -2.638216
v -94.168231 35.668568 91.404829
vn 5.843460 0.049147 -2.308459
v -96.062222 18.527700 87.375876
vn 2.753261 0.006596 -1.503731
v -99.826700 47.467700 81.059150
vn 5.478457 0.010898 -3.075997
v -98.065263 44.780970 84.270752
vn 5.880308 0.027481 -2.213126
v -94.225104 13.145799 92.063765
vn 5.877809 0.056345 -2.219182
v -95.635106 14.827272 88.335401
vn 5.852464 -0.012000 -2.284983
v -94.998051 25.631455 90.184366
vn 4.220017 -0.104948 -2.068019
v -99.835400 50.000000 81.074200
vn 5.848125 0.012912 -2.296153
v -93.554348 23.294253 93.968338
vn 5.480868 -0.003296 -3.071977
v -98.169302 48.470137 84.086647
vn 5.871750 0.042734 -2.235441
v -94.350541 20.928274 91.817994
vn 5.454687 0.002072 -3.118236
v -97.491183 46.940476 85.286612
vn 5.909514 0.030827 -2.131731
v -93.163342 5.183187 94.820521
vn 4.192536 -0.239324 -2.030634
v -93.637200 38.000000 92.000000
vn 5.775656 -0.009363 -2.473625
v -95.344519 29.458745 89.346670
vn 2.748828 -0.002023 -1.514423
v -99.824700 41.538300 81.055500
vn 5.827779 0.064299 -2.346842
v -96.187820 20.703052 87.080604
vn 2.745114 -0.016841 -1.526061
v -99.830200 39.536800 81.064850
vn 5.591239 0.252590 -2.854296
v -97.440172 34.318640 84.988747
vn 5.439741 0.008712 -3.144437
v -95.662164 45.428519 88.440121
vn 5.839998 -0.047332 -2.317370
v -93.162989 25.183215 94.918699
vn 5.800559 -0.108820 -2.411647
v -94.594422 30.477222 91.093930
vn 5.587367 0.002732 -2.872387
v -96.139468 35.480358 87.556322
vn 5.865981 -0.011782 -2.248927
v -94.370420 24.614883 91.883695
vn 5.550002 0.165872 -2.939143
v -97.250648 35.834479 85.469610
vn 5.862011 0.043687 -2.261046
v -95.206333 15.905186 89.503563
vn 5.778919 -0.236207 -2.454230
v -94.510864 32.171360 91.190307
vn 5.864327 0.038282 -2.255252
v -93.724344 21.501613 93.479445
vn 5.513415 0.007300 -3.013281
v -98.983084 47.544651 82.614086
vn 5.777031 0.083368 -2.468890
v -96.034734 28.350494 87.734759
vn 5.465623 -0.008924 -3.099052
v -94.357159 39.320702 90.762987
vn 5.884630 0.062772 -2.200876
v -94.610407 6.284858 90.875494
vn 5.874837 0.027473 -2.227743
v -95.021674 13.571479 89.957440
vn 5.822187 -0.072331 -2.360477
v -94.710758 28.792568 90.868061
vn 5.881460 0.079097 -2.208135
v -95.605035 9.660158 88.254887
vn 5.669964 -0.085330 -2.705372
v -95.675173 33.639569 88.527169
vn 5.508367 0.013048 -3.022591
v -99.063007 41.888469 82.442713
vn 5.448044 0.014392 -3.129916
v -97.255526 50.932898 85.699186
vn 2.882583 -0.051589 -1.138661
v -92.749850 28.890250 95.835400
vn 2.630965 0.005095 -1.021981
v -93.099400 20.798000 95.082800
vn 3.200402 -0.016151 -1.791684
v -94.663800 41.400300 90.203500
vn 3.586566 -0.236812 -1.434532
v -93.545400 33.729000 93.332400
vn 2.250118 0.007999 -1.275375
v -97.755100 52.393100 84.833300
vn 3.170561 0.010547 -1.818624
v -97.341200 51.848900 85.554400
vn 3.593134 0.025491 -1.352917
v -95.983800 14.263500 87.398500
vn 3.109757 0.058195 -1.197929
v -96.139300 15.245900 87.029700
vn 2.463119 -0.114204 -1.048101
v -100.031000 51.085000 80.496300
vn 0.736484 -0.015143 -0.277706
v -100.432000 50.000000 79.492000
vn 2.247930 -0.025718 -1.135040
v -99.276600 52.047300 82.022100
vn 3.234130 -0.134702 -1.596580
v -99.528200 51.462700 81.503500
vn 2.465449 -0.005420 -0.890292
v -93.681200 2.759540 93.297600
vn 1.889158 0.003604 -1.095764
v -97.034400 51.808500 86.083300
vn 3.287114 0.004081 -1.908618
v -96.758000 50.908700 86.556700
vn 2.215644 0.030994 -0.853073
v -96.522100 9.370440 85.871600
vn 3.646205 0.009254 -1.376151
v -92.604800 6.270180 96.317400
vn 2.402893 0.014492 -0.905921
v -92.730500 4.501510 95.957700
vn 2.631932 0.019947 -0.947501
v -92.999500 3.726720 95.230600
vn 3.503938 -0.014920 -1.393489
v -92.807600 22.878700 95.833400
vn 2.397493 0.004188 -0.956209
v -92.824700 22.431800 95.794000
vn 3.336012 0.124749 -1.676189
v -97.484500 33.576200 84.832800
vn 2.077489 0.005684 -1.195178
v -94.963300 45.028400 89.653000
vn 2.778339 0.001242 -1.599191
v -95.134895 46.390925 89.355072
vn 3.353371 0.010889 -1.929748
v -95.117000 44.452700 89.380600
vn 3.474959 0.020131 -1.360618
v -93.083800 21.502100 95.126600
vn 3.039529 -0.146948 -1.189074
v -93.200750 32.274900 94.399900
vn 2.414091 -0.087063 -0.916498
v -92.910700 31.321700 95.303400
vn 2.890221 -0.035075 -1.140229
v -92.635450 26.732950 96.217400
vn 2.129246 0.001736 -1.237086
v -96.371400 50.615700 87.221100
vn 3.316500 0.002234 -1.920654
v -96.271000 50.273000 87.393700
vn 2.031095 0.003797 -1.168978
v -95.585400 49.767700 88.584900
vn 3.694437 0.038710 -1.664414
v -96.463200 30.948600 86.836300
vn 3.291196 0.028551 -1.508691
v -96.576600 31.514500 86.595200
vn 1.956170 0.057656 -1.127924
v -99.834800 38.145400 81.073000
vn 2.254433 0.005099 -1.293319
v -94.990100 43.370500 89.599600
vn 3.875334 -0.012327 -1.473202
v -92.753300 12.161000 95.959300
vn 2.025715 -0.000048 -0.791599
v -92.512000 11.698600 96.577000
vn 2.991113 0.003991 -1.159502
v -92.514700 10.095600 96.569800
vn 2.277758 0.113569 -1.119705
v -97.675700 33.695300 84.446400
vn 2.516809 0.006178 -1.449299
v -95.356000 48.747800 88.978900
vn 3.653071 0.028102 -1.355919
v -93.661900 17.444200 93.587900
vn 3.787467 0.009442 -1.425086
v -92.579100 6.792870 96.390700
vn 2.955955 0.021758 -1.106976
v -96.101500 13.201300 87.077500
vn 3.410662 0.000909 -1.947814
v -95.051100 42.984000 89.490500
vn 2.570083 0.044401 -1.009761
v -96.505300 16.656650 86.183850
vn 2.298116 -0.024714 -0.888316
v -93.082300 14.049000 95.026300
vn 3.790954 -0.045385 -1.413111
v -93.025500 13.402800 95.213300
vn 1.788021 0.003427 -0.646708
v -92.741600 13.076700 95.996500
vn 3.032399 0.028996 -1.151479
v -93.503600 15.283000 93.987000
vn 1.668051 -0.126973 -0.545657
v -93.324700 38.000000 92.955300
vn 3.528489 0.088182 -1.509710
v -96.638900 28.175700 86.310400
vn 3.547865 0.019210 -1.396234
v -93.423700 14.692200 94.151200
vn 1.870560 0.008664 -1.055594
v -93.662600 40.078800 92.000000
vn 2.672901 -0.256342 -1.052512
v -93.345300 35.759000 93.413800
vn 2.094805 0.008351 -0.865110
v -92.524500 6.626050 96.521300
vn 2.260788 0.019816 -0.862936
v -96.197500 6.261990 86.625700
vn 3.284949 0.040554 -1.258766
v -96.249600 7.916750 86.517200
vn 2.793882 0.030470 -1.115736
v -96.705550 18.998700 85.756500
vn 2.741027 0.038681 -1.135384
v -96.799000 21.345600 85.628000
vn 2.230703 0.057313 -0.959361
v -96.857800 27.357100 85.750500
vn 2.011839 -0.017561 -0.759558
v -92.455700 23.976300 96.740100
vn 2.274093 0.036805 -0.837122
v -95.477600 3.835700 88.435600
vn 2.175574 0.013982 -0.875652
v -92.539100 6.393260 96.483700
vn 2.388526 0.038682 -1.041943
v -96.704600 29.674350 86.233600
vn 5.875982 0.002627 -2.223925
v -92.988266 10.841637 95.358279
vn 5.526313 -0.064841 -2.987204
v -95.556686 37.279060 88.612980
vn 5.886922 0.046364 -2.195156
v -94.203327 9.631199 92.017881
vn 5.856495 0.085107 -2.274221
v -95.811465 16.630733 87.949284
vn 5.508655 0.008663 -3.022061
v -99.028041 43.876626 82.520224
vn 2.579394 -0.006211 -1.426739
v -98.259100 52.418200 83.938300
vn 5.862456 0.047478 -2.259720
v -94.720944 17.236789 90.763824
vn 5.440859 0.015092 -3.142435
v -96.895893 45.099774 86.312085
vn 5.792123 -0.400048 -2.401031
v -94.005657 33.738577 92.182621
vn 5.503166 0.016284 -3.032017
v -99.048972 49.168386 82.493678
vn 5.745607 0.037847 -2.542466
v -96.000570 30.314841 87.851052
vn 5.899967 0.029125 -2.160242
v -93.072709 6.990733 95.050952
vn 5.491118 0.004603 -3.053748
v -99.219203 40.173643 82.156898
vn 5.869202 0.051323 -2.242212
v -94.733134 19.412326 90.785186
vn 5.495424 0.008250 -3.045748
v -98.406827 46.712455 83.662680
vn 5.884638 0.050366 -2.201531
v -94.371023 7.566527 91.534848
vn 5.848425 -0.158949 -2.290134
v -93.341310 30.159324 94.279578
vn 5.845113 -0.090954 -2.303178
v -93.430446 27.584093 94.166412
vn 5.849927 -0.073943 -2.291365
v -94.368649 27.080266 91.802073
vn 5.438778 0.006270 -3.146099
v -96.071485 48.647421 87.736690
vn 5.475220 0.051853 -3.081022
v -98.384104 40.572975 83.672266
vn 5.851306 0.068409 -2.288187
v -95.589037 22.203091 88.652679
vn 2.717178 0.167277 -1.426109
v -98.338650 35.266600 83.293800
vn 5.498509 -0.195562 -3.030929
v -94.623062 37.469694 90.320858
vn 5.824694 0.082103 -2.353881
v -96.212507 22.941882 87.088795
vn 5.877437 -0.002811 -2.220693
v -93.873834 14.550125 93.003163
vn 5.881245 0.062712 -2.210265
v -94.100157 18.201824 92.430358
vn 5.701784 -0.275970 -2.622347
v -94.768369 33.671843 90.428192
vn 5.891773 0.074086 -2.181617
v -95.171244 5.013813 89.319632
vn 5.456312 0.176369 -3.107911
v -98.841028 38.684610 82.814351
vn 5.486910 0.279255 -3.046897
v -98.123006 37.175031 83.951089
vn 5.510827 0.007540 -3.018088
v -99.090659 45.865483 82.403242
vn 2.754363 0.006865 -1.508744
v -99.825300 42.830050 81.056450
vn 2.643789 0.029551 -1.260469
v -96.844400 31.995700 86.024100
vn 2.940954 0.205591 -1.672325
v -99.077795 37.031744 82.211146
vn 5.444917 0.027915 -3.135253
v -97.200029 43.015995 85.773121
vn 5.448756 0.057220 -3.128213
v -97.459535 41.044401 85.294428
vn 5.448230 0.153718 -3.125191
v -97.824431 39.091665 84.606793
vn 5.834632 0.041378 -2.330811
v -95.611365 24.344385 88.656235
vn 5.870765 0.001651 -2.237831
v -94.540401 15.117792 91.197283
vn 2.692268 0.012418 -1.016833
v -92.475811 8.271328 96.675414
vn 5.901228 0.060204 -2.156381
v -93.712744 8.139311 93.327911
vn 5.882874 0.074735 -2.205445
v -95.269962 11.425823 89.245589
vn 5.877679 0.060073 -2.219838
v -94.587801 11.443917 91.051773
vn 5.885548 0.028523 -2.198713
v -94.093098 16.328591 92.392407
vn 5.809928 0.051151 -2.391093
v -95.731291 26.330487 88.371930
vn 5.813197 0.007128 -2.383493
v -95.208488 27.638259 89.666156
vn 5.447508 0.006426 -3.130946
v -95.520347 42.847956 88.673247
vn 5.877289 -0.011956 -2.221255
v -93.388892 12.731706 94.269778
vn 5.811916 0.080860 -2.385938
v -96.264996 25.053100 87.057040
vn 5.486246 -0.019169 -3.062483
v -95.110897 39.326446 89.421864
vn 5.888250 0.038833 -2.190704
v -93.093913 9.018780 95.064142
vn 5.824899 -0.242374 -2.342346
v -93.860906 31.629466 92.826058
vn 2.755966 -0.000467 -1.512938
v -99.828750 45.245400 81.062450
vn 5.444033 0.003029 -3.136956
v -96.985612 49.308366 86.162098
vn 2.928119 0.029829 -1.115625
v -96.281500 11.585600 86.561000
vn 2.739158 0.011796 -1.015351
v -94.418850 2.929140 91.297250
vn 5.892805 0.055738 -2.179466
v -95.135744 7.978907 89.493569
vn 5.882883 0.043061 -2.206136
v -95.675703 13.069525 88.215826
vn 5.596167 -0.208852 -2.848083
v -95.134780 35.476089 89.540208
vn 3.017741 0.048999 -1.244490
v -96.728650 23.558800 85.860400
vn 5.482163 0.026860 -3.069654
v -96.002068 39.203395 87.827383
vn 5.886270 0.055111 -2.196823
v -95.521667 6.464492 88.402742
vn 5.470932 0.096612 -3.087944
v -96.922334 39.267829 86.191568
vn 5.449684 0.025820 -3.127025
v -96.385679 41.426548 87.162618
vn 5.439686 0.004533 -3.144489
v -95.682191 46.977854 88.404423
vn 3.140712 0.039383 -1.179796
v -95.827500 5.275540 87.558700
vn 5.862255 0.033167 -2.260536
v -94.976116 23.504423 90.252714
vn 5.862366 0.062682 -2.259858
v -94.954206 21.407357 90.270533
vn 5.739721 -0.091194 -2.553471
v -95.300057 31.543549 89.428655
vn 5.867859 0.064302 -2.245540
v -94.345715 22.521802 91.879975
vn 5.787050 0.115656 -2.443675
v -96.380459 26.878608 86.831827
vn 2.956718 0.052687 -1.239825
v -96.780200 25.876950 85.845750
vn 5.519040 0.052703 -3.002385
v -96.531122 37.314028 86.833463
vn 5.483365 0.137828 -3.061950
v -97.339431 37.651272 85.346561
vn 3.032898 -0.018340 -1.194521
v -92.557500 25.125200 96.443900
vn 5.874107 0.027676 -2.229261
v -93.928130 19.922641 92.943242
vn 5.900730 0.056528 -2.156843
v -93.805689 6.020670 92.994650
vn 2.773947 0.016659 -1.054252
v -93.430550 18.524950 94.223250
vn 5.910059 0.032695 -2.130694
v -93.715874 4.214848 93.192718
vn 2.972563 0.034718 -1.096725
v -95.050300 3.491765 89.589200
vn 5.874344 0.058523 -2.228274
v -95.896294 7.982972 87.441342
vn 5.470118 -0.015932 -3.091147
v -95.438779 41.159385 88.820284
vn 5.535411 -0.059118 -2.969061
v -98.999837 50.843957 82.597490
vn 5.843113 -0.068582 -2.308939
v -93.830499 25.612311 93.224831
vn 5.885436 0.065779 -2.198927
v -94.523634 4.846791 91.047564
vn 5.434586 0.002749 -3.153355
v -96.474642 47.035305 87.042192
vn 5.886479 0.048124 -2.196448
v -93.943416 11.519784 92.760436
vn 5.437916 0.021105 -3.147536
v -96.134440 43.660198 87.613434
vn 5.480806 0.024718 -3.071571
v -98.227671 42.520094 83.972022
vn 5.712488 0.001090 -2.616190
v -96.156946 32.027567 87.520381
vn 5.852339 0.041094 -2.286186
v -95.369433 18.011971 89.119425
vn 5.852172 0.049291 -2.285754
v -95.503006 20.056589 88.794454
vn 5.874514 0.079442 -2.227505
v -95.954477 11.192550 87.408810
vn 5.885622 0.061511 -2.198446
v -94.842485 9.405939 90.327766
vn 5.620897 0.111593 -2.800968
v -96.639785 33.977417 86.494932
vn 5.475411 0.015332 -3.081741
v -98.062621 50.410012 84.278309
# 202 vertices, 0 vertices normals

f 8//8 164//164 47//47
f 10//10 50//50 49//49
f 189//189 52//52 51//51
f 40//40 54//54 55//55
f 40//40 46//46 54//54
f 117//117 83//83 57//57
f 18//18 39//39 118//118
f 62//62 21//21 201//201
f 22//22 64//64 63//63
f 22//22 63//63 65//65
f 42//42 30//30 66//66
f 12//12 14//14 120//120
f 7//7 154//154 193//193
f 133//133 114//114 29//29
f 138//138 110//110 39//39
f 106//106 78//78 79//79
f 21//21 62//62 80//80
f 195//195 141//141 142//142
f 121//121 147//147 183//183
f 148//148 35//35 149//149
f 190//190 26//26 124//124
f 89//89 77//77 88//88
f 1//1 147//147 108//108
f 154//154 88//88 77//77
f 32//32 92//92 105//105
f 131//131 90//90 93//93
f 199//199 161//161 84//84
f 48//48 8//8 47//47
f 130//130 144//144 127//127
f 33//33 16//16 129//129
f 130//130 166//166 155//155
f 7//7 145//145 131//131
f 194//194 170//170 141//141
f 169//169 142//142 170//170
f 104//104 83//83 96//96
f 22//22 171//171 64//64
f 22//22 192//192 171//171
f 34//34 168//168 163//163
f 168//168 97//97 187//187
f 19//19 99//99 100//100
f 129//129 3//3 165//165
f 19//19 100//100 130//130
f 118//118 39//39 126//126
f 158//158 2//2 24//24
f 32//32 177//177 92//92
f 155//155 178//178 177//177
f 173//173 9//9 26//26
f 182//182 132//132 119//119
f 169//169 180//180 143//143
f 134//134 172//172 168//168
f 83//83 104//104 57//57
f 37//37 163//163 187//187
f 123//123 41//41 69//69
f 1//1 106//106 157//157
f 33//33 43//43 94//94
f 114//114 95//95 44//44
f 95//95 114//114 3//3
f 111//111 45//45 202//202
f 46//46 202//202 45//45
f 46//46 40//40 202//202
f 49//49 52//52 10//10
f 189//189 10//10 52//52
f 15//15 57//57 58//58
f 158//158 114//114 44//44
f 67//67 158//158 44//44
f 20//20 18//18 118//118
f 94//94 16//16 33//33
f 5//5 10//10 115//115
f 15//15 58//58 59//59
f 17//17 36//36 152//152
f 1//1 154//154 106//106
f 61//61 11//11 60//60
f 189//189 111//111 202//202
f 111//111 189//189 51//51
f 115//115 12//12 31//31
f 31//31 12//12 120//120
f 132//132 112//112 119//119
f 66//66 11//11 61//61
f 30//30 11//11 66//66
f 122//122 67//67 68//68
f 122//122 68//68 41//41
f 14//14 113//113 6//6
f 80//80 128//128 21//21
f 27//27 21//21 128//128
f 120//120 14//14 6//6
f 8//8 28//28 35//35
f 109//109 4//4 197//197
f 69//69 23//23 123//123
f 181//181 23//23 69//69
f 108//108 193//193 1//1
f 71//71 160//160 70//70
f 71//71 125//125 160//160
f 180//180 169//169 179//179
f 125//125 71//71 72//72
f 191//191 185//185 162//162
f 135//135 126//126 143//143
f 38//38 175//175 196//196
f 124//124 2//2 123//123
f 107//107 25//25 179//179
f 198//198 19//19 127//127
f 165//165 107//107 129//129
f 74//74 139//139 196//196
f 139//139 201//201 196//196
f 135//135 75//75 118//118
f 75//75 20//20 118//118
f 42//42 182//182 30//30
f 184//184 132//132 182//182
f 76//76 153//153 65//65
f 158//158 29//29 114//114
f 133//133 3//3 114//114
f 136//136 140//140 135//135
f 137//137 31//31 120//120
f 138//138 159//159 110//110
f 201//201 139//139 62//62
f 29//29 175//175 133//133
f 133//133 175//175 38//38
f 135//135 140//140 75//75
f 77//77 106//106 154//154
f 78//78 106//106 77//77
f 113//113 141//141 6//6
f 195//195 6//6 141//141
f 143//143 126//126 142//142
f 126//126 195//195 142//142
f 39//39 18//18 138//138
f 135//135 143//143 136//136
f 171//171 125//125 81//81
f 171//171 81//81 64//64
f 190//190 123//123 23//23
f 190//190 124//124 123//123
f 11//11 26//26 190//190
f 34//34 191//191 134//134
f 113//113 14//14 192//192
f 28//28 145//145 35//35
f 7//7 149//149 35//35
f 15//15 183//183 117//117
f 15//15 117//117 57//57
f 146//146 117//117 157//157
f 146//146 83//83 117//117
f 21//21 27//27 201//201
f 146//146 157//157 79//79
f 183//183 147//147 117//117
f 117//117 147//147 157//157
f 35//35 148//148 164//164
f 164//164 148//148 199//199
f 148//148 200//200 37//37
f 149//149 108//108 200//200
f 132//132 82//82 150//150
f 124//124 26//26 9//9
f 9//9 151//151 152//152
f 85//85 153//153 76//76
f 86//86 4//4 109//109
f 4//4 86//86 99//99
f 2//2 124//124 36//36
f 154//154 87//87 88//88
f 177//177 151//151 155//155
f 151//151 144//144 155//155
f 125//125 72//72 81//81
f 156//156 33//33 129//129
f 1//1 157//157 147//147
f 108//108 147//147 121//121
f 82//82 90//90 150//150
f 150//150 90//90 131//131
f 122//122 2//2 158//158
f 9//9 152//152 124//124
f 124//124 152//152 36//36
f 113//113 192//192 22//22
f 159//159 5//5 137//137
f 31//31 137//137 5//5
f 91//91 95//95 16//16
f 38//38 165//165 133//133
f 133//133 165//165 3//3
f 152//152 32//32 17//17
f 67//67 122//122 158//158
f 7//7 193//193 149//149
f 193//193 108//108 149//149
f 153//153 85//85 188//188
f 43//43 188//188 85//85
f 129//129 107//107 156//156
f 115//115 189//189 202//202
f 164//164 199//199 84//84
f 28//28 197//197 112//112
f 197//197 119//119 112//112
f 8//8 35//35 164//164
f 164//164 84//84 47//47
f 2//2 122//122 123//123
f 14//14 12//12 160//160
f 14//14 160//160 192//192
f 165//165 38//38 25//25
f 19//19 130//130 127//127
f 129//129 16//16 3//3
f 144//144 130//130 155//155
f 155//155 166//166 178//178
f 141//141 113//113 194//194
f 194//194 113//113 22//22
f 107//107 167//167 156//156
f 170//170 188//188 167//167
f 167//167 188//188 156//156
f 7//7 35//35 145//145
f 131//131 145//145 150//150
f 16//16 95//95 3//3
f 141//141 170//170 142//142
f 39//39 110//110 195//195
f 169//169 143//143 142//142
f 125//125 171//171 192//192
f 34//34 134//134 168//168
f 168//168 172//172 97//97
f 187//187 97//97 98//98
f 144//144 173//173 127//127
f 13//13 174//174 176//176
f 119//119 197//197 198//198
f 119//119 198//198 174//174
f 165//165 25//25 107//107
f 36//36 17//17 24//24
f 24//24 17//17 175//175
f 13//13 176//176 30//30
f 176//176 26//26 11//11
f 176//176 11//11 30//30
f 130//130 100//100 166//166
f 150//150 112//112 132//132
f 112//112 150//150 145//145
f 112//112 145//145 28//28
f 24//24 175//175 29//29
f 19//19 4//4 99//99
f 135//135 118//118 126//126
f 126//126 39//39 195//195
f 29//29 158//158 24//24
f 36//36 24//24 2//2
f 93//93 154//154 131//131
f 87//87 154//154 93//93
f 177//177 101//101 92//92
f 177//177 32//32 151//151
f 151//151 32//32 152//152
f 177//177 178//178 101//101
f 12//12 202//202 160//160
f 55//55 160//160 40//40
f 70//70 160//160 55//55
f 180//180 179//179 27//27
f 107//107 179//179 167//167
f 167//167 179//179 169//169
f 185//185 53//53 162//162
f 179//179 25//25 27//27
f 48//48 109//109 8//8
f 109//109 48//48 86//86
f 8//8 109//109 28//28
f 60//60 181//181 102//102
f 176//176 173//173 26//26
f 170//170 167//167 169//169
f 30//30 182//182 13//13
f 13//13 182//182 119//119
f 198//198 127//127 174//174
f 11//11 23//23 60//60
f 183//183 185//185 191//191
f 198//198 197//197 4//4
f 19//19 198//198 4//4
f 143//143 180//180 136//136
f 148//148 149//149 200//200
f 184//184 82//82 132//132
f 134//134 103//103 172//172
f 174//174 127//127 173//173
f 174//174 173//173 176//176
f 119//119 174//174 13//13
f 53//53 185//185 59//59
f 59//59 185//185 15//15
f 185//185 183//183 15//15
f 134//134 186//186 103//103
f 163//163 121//121 34//34
f 37//37 200//200 163//163
f 187//187 163//163 168//168
f 187//187 56//56 37//37
f 56//56 187//187 98//98
f 41//41 123//123 122//122
f 116//116 73//73 196//196
f 184//184 182//182 42//42
f 116//116 32//32 105//105
f 27//27 128//128 136//136
f 10//10 189//189 115//115
f 153//153 188//188 170//170
f 153//153 170//170 194//194
f 5//5 115//115 31//31
f 116//116 105//105 73//73
f 137//137 120//120 6//6
f 140//140 136//136 128//128
f 116//116 175//175 17//17
f 32//32 116//116 17//17
f 6//6 110//110 137//137
f 192//192 160//160 125//125
f 193//193 154//154 1//1
f 194//194 65//65 153//153
f 110//110 159//159 137//137
f 11//11 190//190 23//23
f 194//194 22//22 65//65
f 144//144 151//151 9//9
f 173//173 144//144 9//9
f 131//131 154//154 7//7
f 23//23 181//181 60//60
f 27//27 136//136 180//180
f 156//156 188//188 43//43
f 6//6 195//195 110//110
f 196//196 175//175 116//116
f 73//73 74//74 196//196
f 196//196 201//201 38//38
f 201//201 25//25 38//38
f 157//157 106//106 79//79
f 33//33 156//156 43//43
f 37//37 199//199 148//148
f 197//197 28//28 109//109
f 199//199 56//56 161//161
f 199//199 37//37 56//56
f 163//163 200//200 121//121
f 201//201 27//27 25//25
f 202//202 12//12 115//115
f 202//202 40//40 160//160
f 200//200 108//108 121//121
f 191//191 162//162 186//186
f 134//134 191//191 186//186
f 34//34 121//121 183//183
f 191//191 34//34 183//183
# 317 faces, 0 coords texture

# End of File
