####
#
# OBJ File Generated by Meshlab
#
####
# Object 263.obj
#
# Vertices: 44
# Faces: 64
#
####
vn -0.429860 0.005253 -1.511256
v 15.393900 -38.000000 49.381000
vn -0.829451 0.024764 -3.029413
v 13.710800 -38.000000 49.868700
vn -0.250982 0.040881 -1.537860
v 7.106570 -50.000000 51.026900
vn -0.820160 0.035518 -3.031654
v 15.342250 -46.796650 49.291500
vn -0.406172 0.019565 -1.521091
v 15.321200 -50.000000 49.255100
vn -1.647553 0.049804 -6.062789
v 13.759897 -39.815724 49.839463
vn -0.285745 0.024594 -1.550030
v 7.295250 -38.000000 51.353700
vn -0.621942 0.057680 -3.077749
v 8.472370 -38.000000 51.136700
vn -0.782565 0.030207 -3.042439
v 13.795600 -50.000000 49.665200
vn -1.433966 0.108248 -6.115853
v 12.098475 -48.243896 50.109708
vn -0.822421 0.025661 -3.032089
v 15.353200 -44.463800 49.310450
vn -1.285486 0.190787 -6.146791
v 10.184412 -47.487090 50.538793
vn -0.867713 0.085221 -3.024377
v 15.365150 -42.078900 49.331150
vn -0.589715 0.081184 -3.098745
v 7.259170 -43.344600 51.291200
vn -1.326733 0.264521 -6.132758
v 9.860929 -45.600081 50.707752
vn -0.844336 0.042647 -3.015690
v 15.395900 -40.348000 49.384500
vn -1.700408 0.156865 -6.046275
v 13.946713 -41.751966 49.756555
vn -1.584362 0.090914 -6.079210
v 13.818696 -47.405092 49.694751
vn -0.532741 0.064204 -3.095693
v 8.624795 -50.000000 50.787650
vn -0.602405 0.050422 -3.079541
v 7.283700 -39.394700 51.333700
vn -1.284468 0.099494 -6.149580
v 8.664764 -40.163947 51.046299
vn -1.496676 0.151454 -6.099823
v 11.914773 -45.922091 50.204931
vn -0.637283 0.050873 -3.075989
v 10.579500 -50.000000 50.420700
vn -0.722340 0.046353 -3.057195
v 12.174800 -50.000000 50.063400
vn -1.541150 0.089515 -6.088404
v 12.241387 -41.293257 50.234665
vn -1.105678 0.290232 -6.177977
v 8.549316 -46.514705 50.901678
vn -0.519979 0.110655 -3.092631
v 7.146555 -47.621900 51.096200
vn -0.639024 0.039770 -3.079567
v 7.276726 -41.495888 51.321619
vn -1.599342 0.137547 -6.074321
v 12.524591 -43.510564 50.098999
vn -1.436143 0.118342 -6.114914
v 10.428992 -43.999865 50.615510
vn -1.628728 0.073708 -6.067837
v 13.947070 -45.308979 49.686657
vn -0.497786 0.167415 -3.090356
v 7.197455 -45.300850 51.184350
vn -0.810744 0.043172 -3.034318
v 15.330500 -48.706100 49.271200
vn -1.517409 0.047065 -6.096755
v 11.963813 -39.438912 50.308769
vn -0.762254 0.021568 -3.047472
v 11.834150 -38.000000 50.351800
vn -1.680494 0.102225 -6.052860
v 14.250876 -43.443167 49.616531
vn -1.402255 0.094029 -6.122953
v 10.120851 -39.042547 50.761569
vn -0.710476 0.021986 -3.059830
v 10.036700 -38.000000 50.788600
vn -1.377506 0.080655 -6.129653
v 10.359526 -40.733964 50.671098
vn -1.422844 0.103123 -6.118223
v 10.854161 -42.380651 50.545389
vn -1.308694 0.074327 -6.144834
v 9.023649 -42.380172 50.943882
vn -1.178297 0.221662 -6.162146
v 8.660613 -44.505500 51.001374
vn -1.566263 0.082931 -6.084087
v 13.797602 -49.064977 49.673968
vn -1.110233 0.161121 -6.181786
v 8.702165 -48.658291 50.802162
# 44 vertices, 0 vertices normals

f 21//21 8//8 37//37
f 27//27 26//26 44//44
f 29//29 22//22 30//30
f 29//29 36//36 31//31
f 15//15 22//22 12//12
f 18//18 10//10 22//22
f 1//1 16//16 6//6
f 3//3 44//44 19//19
f 6//6 2//2 1//1
f 20//20 7//7 8//8
f 20//20 8//8 21//21
f 11//11 4//4 31//31
f 12//12 23//23 44//44
f 43//43 24//24 10//10
f 24//24 23//23 10//10
f 15//15 12//12 26//26
f 27//27 32//32 26//26
f 44//44 26//26 12//12
f 44//44 3//3 27//27
f 28//28 20//20 21//21
f 16//16 13//13 17//17
f 11//11 31//31 36//36
f 42//42 32//32 14//14
f 42//42 26//26 32//32
f 14//14 41//41 42//42
f 31//31 4//4 18//18
f 23//23 12//12 10//10
f 14//14 28//28 41//41
f 18//18 4//4 33//33
f 34//34 35//35 2//2
f 12//12 22//22 10//10
f 38//38 35//35 37//37
f 39//39 34//34 25//25
f 8//8 38//38 37//37
f 37//37 35//35 34//34
f 22//22 29//29 31//31
f 29//29 17//17 36//36
f 2//2 6//6 34//34
f 25//25 34//34 6//6
f 6//6 16//16 17//17
f 13//13 36//36 17//17
f 36//36 13//13 11//11
f 22//22 15//15 30//30
f 31//31 18//18 22//22
f 10//10 18//18 43//43
f 24//24 43//43 9//9
f 39//39 21//21 37//37
f 39//39 25//25 40//40
f 41//41 39//39 40//40
f 40//40 30//30 41//41
f 30//30 15//15 42//42
f 41//41 21//21 39//39
f 41//41 28//28 21//21
f 30//30 40//40 29//29
f 34//34 39//39 37//37
f 41//41 30//30 42//42
f 9//9 43//43 5//5
f 42//42 15//15 26//26
f 43//43 33//33 5//5
f 33//33 43//43 18//18
f 19//19 44//44 23//23
f 25//25 17//17 29//29
f 25//25 29//29 40//40
f 6//6 17//17 25//25
# 64 faces, 0 coords texture

# End of File
