####
#
# OBJ File Generated by Meshlab
#
####
# Object 2660.obj
#
# Vertices: 42
# Faces: 61
#
####
vn -5.999235 0.044910 -1.866876
v 96.134034 -41.462061 94.498590
vn -3.005986 0.027921 -0.912503
v 95.329800 -50.000000 96.703525
vn -3.002836 0.023868 -0.923149
v 94.802850 -38.000000 98.836250
vn -3.005802 0.022914 -0.915689
v 94.437150 -39.624150 100.000000
vn -6.003790 0.059294 -1.851671
v 94.699047 -46.455948 98.864593
vn -3.001492 0.053381 -0.924622
v 96.806200 -47.470800 91.999900
vn -1.507223 0.027674 -0.458616
v 96.754000 -50.000000 91.997100
vn -3.005894 0.017825 -0.918857
v 94.340400 -48.813200 100.000000
vn -3.006104 0.017938 -0.912568
v 94.728400 -50.000000 98.706400
vn -1.498465 0.013636 -0.461957
v 94.329600 -50.000000 100.000000
vn -3.000329 0.043214 -0.929253
v 96.594400 -38.000000 93.147300
vn -1.503539 0.010109 -0.447930
v 96.936200 -38.000000 92.000000
vn -1.504547 0.010587 -0.458108
v 94.448200 -38.000000 100.000000
vn -6.007609 0.112390 -1.836830
v 96.478290 -44.243814 93.265299
vn -5.993091 0.098171 -1.884446
v 94.908457 -44.551321 98.290928
vn -6.002290 0.081245 -1.855413
v 96.143042 -43.141576 94.422867
vn -3.001604 0.029333 -0.924253
v 96.907250 -41.121300 92.000000
vn -6.007306 0.066681 -1.839999
v 96.546196 -42.201950 93.143676
vn -3.000647 0.017161 -0.924760
v 94.347400 -46.758400 100.000000
vn -5.999481 0.064502 -1.865482
v 96.448672 -39.799983 93.518153
vn -2.996237 0.035744 -0.943924
v 96.105400 -38.000000 94.685700
vn -6.005967 0.048319 -1.845031
v 94.862633 -39.053908 98.614538
vn -6.006947 0.096352 -1.839981
v 96.254818 -48.418617 93.733067
vn -3.005709 0.040553 -0.913143
v 96.033400 -50.000000 94.387600
vn -6.007832 0.065939 -1.838474
v 95.550442 -48.293633 96.039802
vn -3.003258 0.048354 -0.914324
v 96.875550 -43.559400 92.000000
vn -5.995648 0.073803 -1.877455
v 94.932301 -42.932804 98.286408
vn -2.994254 0.043912 -0.939273
v 94.367050 -44.553150 100.000000
vn -6.000024 0.126670 -1.860571
v 95.934691 -45.061405 94.977413
vn -5.996337 0.044867 -1.875995
v 95.293668 -39.902837 97.195974
vn -3.004467 0.056629 -0.920113
v 96.833550 -45.719300 91.999950
vn -2.997770 0.028734 -0.939336
v 95.341100 -38.000000 97.105300
vn -5.999783 0.101659 -1.862374
v 95.302659 -46.023326 96.921108
vn -6.003807 0.045363 -1.852121
v 94.909230 -40.903859 98.417302
vn -3.005056 0.037915 -0.925508
v 94.414450 -42.109900 100.000000
vn -5.993792 0.049126 -1.884238
v 95.818822 -39.792521 95.540015
vn -5.994499 0.045867 -1.882076
v 95.539492 -41.977423 96.381229
vn -3.003054 0.036153 -0.918237
v 96.929850 -38.944450 92.000000
vn -6.003795 0.113128 -1.849286
v 96.351697 -46.399728 93.527625
vn -6.010351 0.044339 -1.830826
v 94.960491 -48.287303 97.966861
vn -6.002348 0.093268 -1.854974
v 95.808537 -47.148335 95.241222
vn -5.995112 0.098273 -1.877514
v 95.559142 -43.915638 96.263822
# 42 vertices, 0 vertices normals

f 14//14 16//16 18//18
f 11//11 12//12 38//38
f 39//39 6//6 23//23
f 41//41 29//29 39//39
f 17//17 26//26 18//18
f 26//26 14//14 18//18
f 18//18 16//16 1//1
f 19//19 28//28 5//5
f 10//10 8//8 9//9
f 20//20 11//11 38//38
f 21//21 11//11 20//20
f 22//22 13//13 3//3
f 13//13 22//22 4//4
f 7//7 24//24 23//23
f 24//24 2//2 25//25
f 20//20 18//18 1//1
f 17//17 18//18 20//20
f 19//19 5//5 8//8
f 26//26 31//31 14//14
f 15//15 27//27 42//42
f 28//28 35//35 27//27
f 31//31 39//39 14//14
f 14//14 39//39 29//29
f 16//16 37//37 1//1
f 31//31 6//6 39//39
f 22//22 3//3 32//32
f 35//35 4//4 34//34
f 21//21 20//20 36//36
f 5//5 15//15 33//33
f 33//33 15//15 42//42
f 27//27 35//35 34//34
f 36//36 37//37 30//30
f 37//37 27//27 34//34
f 28//28 15//15 5//5
f 16//16 14//14 29//29
f 36//36 20//20 1//1
f 37//37 16//16 42//42
f 42//42 29//29 33//33
f 17//17 20//20 38//38
f 2//2 9//9 40//40
f 34//34 4//4 22//22
f 5//5 33//33 40//40
f 2//2 40//40 25//25
f 34//34 30//30 37//37
f 1//1 37//37 36//36
f 34//34 22//22 30//30
f 23//23 41//41 39//39
f 41//41 33//33 29//29
f 42//42 27//27 37//37
f 23//23 24//24 25//25
f 23//23 6//6 7//7
f 36//36 30//30 32//32
f 36//36 32//32 21//21
f 30//30 22//22 32//32
f 33//33 41//41 25//25
f 25//25 41//41 23//23
f 28//28 27//27 15//15
f 40//40 9//9 8//8
f 40//40 8//8 5//5
f 29//29 42//42 16//16
f 33//33 25//25 40//40
# 61 faces, 0 coords texture

# End of File
