####
#
# OBJ File Generated by Meshlab
#
####
# Object 2664.obj
#
# Vertices: 51
# Faces: 76
#
####
vn -2.931051 0.046769 -1.145614
v 101.439000 -47.781250 83.851650
vn -2.922644 0.023728 -1.152113
v 103.023000 -38.000000 80.204400
vn -5.810923 0.106887 -2.387094
v 103.371642 -48.694216 78.938374
vn -2.923647 0.054241 -1.148611
v 101.465500 -45.377100 83.897850
vn -2.924857 0.052588 -1.147410
v 101.489500 -43.057500 83.941950
vn -2.930477 0.043120 -1.131205
v 101.882000 -50.000000 82.633100
vn -2.930371 0.033814 -1.129614
v 101.427000 -49.552500 83.831500
vn -1.475298 0.013033 -0.564997
v 101.425000 -50.000000 83.826400
vn -5.825534 0.060115 -2.353199
v 103.368061 -40.841167 79.298303
vn -2.889233 0.043773 -1.233021
v 105.079500 -38.000000 75.249950
vn -2.891412 0.040138 -1.226605
v 105.320000 -41.271600 74.573550
vn -2.897700 0.047396 -1.198875
v 105.251000 -47.895000 74.454200
vn -2.898472 0.046651 -1.211002
v 104.246000 -50.000000 76.798850
vn -1.455585 0.018238 -0.566303
v 101.542000 -38.000000 84.029200
vn -1.441868 0.019696 -0.600200
v 105.236000 -50.000000 74.427700
vn -1.453679 0.025899 -0.625875
v 105.349000 -38.000000 74.624000
vn -5.809048 0.057314 -2.393671
v 104.055132 -40.138520 77.623574
vn -5.821684 0.038612 -2.362938
v 103.519153 -39.112636 78.945392
vn -5.809081 0.101875 -2.392144
v 104.040166 -43.595689 77.545263
vn -2.898125 0.027478 -1.212446
v 104.256000 -38.000000 77.184900
vn -5.843533 0.113417 -2.306183
v 102.082008 -46.413292 82.277346
vn -5.833582 0.114623 -2.331209
v 102.713475 -45.407496 80.741607
vn -5.842006 0.104303 -2.310502
v 102.094800 -44.159796 82.354567
vn -2.926125 0.048276 -1.130107
v 101.529500 -39.626450 84.008950
vn -5.852425 0.090788 -2.284362
v 102.138107 -40.295949 82.396910
vn -5.796847 0.075812 -2.422347
v 104.591698 -41.226291 76.291097
vn -5.819775 0.112413 -2.365448
v 103.323955 -46.603110 79.159352
vn -2.888662 0.042807 -1.228597
v 105.337500 -39.122750 74.604250
vn -5.845788 0.094960 -2.301273
v 102.056286 -42.132268 82.537438
vn -5.800995 0.095602 -2.411981
v 104.007007 -47.578127 77.464596
vn -5.801183 0.091913 -2.411672
v 104.753415 -48.010324 75.652312
vn -2.900644 0.051907 -1.204807
v 103.538000 -50.000000 78.481600
vn -2.928458 0.041589 -1.136577
v 102.287057 -38.000016 82.114156
vn -2.918940 0.053161 -1.159448
v 102.538842 -49.999980 80.937351
vn -2.896417 0.049309 -1.228480
v 105.300610 -43.709553 74.540252
vn -5.792927 0.085397 -2.431593
v 104.712684 -42.833893 75.955779
vn -2.897896 0.052962 -1.210963
v 105.269213 -46.331224 74.485785
vn -2.927224 0.052148 -1.135397
v 101.510000 -41.327200 83.977200
vn -2.907470 0.020402 -1.189939
v 103.626000 -38.000000 78.703400
vn -5.834424 0.119147 -2.328769
v 102.664335 -47.598078 80.746282
vn -5.788049 0.077125 -2.443509
v 104.777905 -39.561821 75.908649
vn -5.797763 0.091869 -2.419894
v 104.504087 -46.401501 76.316355
vn -5.806829 0.099318 -2.397506
v 103.968429 -45.570092 77.627005
vn -5.823932 0.107722 -2.355509
v 103.371765 -44.506641 79.143000
vn -5.813361 0.077829 -2.382650
v 104.019454 -41.815446 77.665846
vn -5.835524 0.079832 -2.327783
v 102.696820 -41.546405 80.947352
vn -5.824373 0.093399 -2.355014
v 103.345678 -42.578120 79.288648
vn -5.842481 0.058859 -2.310778
v 102.823676 -39.610790 80.680020
vn -5.851532 0.099915 -2.286381
v 102.031846 -48.512110 82.304655
vn -5.793419 0.102080 -2.429799
v 104.654396 -44.746140 76.017754
vn -5.834671 0.098327 -2.329228
v 102.683958 -43.326963 80.908775
# 51 vertices, 0 vertices normals

f 4//4 5//5 23//23
f 26//26 11//11 36//36
f 7//7 1//1 49//49
f 28//28 11//11 41//41
f 13//13 32//32 3//3
f 28//28 10//10 16//16
f 20//20 18//18 39//39
f 40//40 22//22 27//27
f 19//19 43//43 44//44
f 9//9 45//45 47//47
f 21//21 4//4 23//23
f 23//23 51//51 22//22
f 24//24 14//14 33//33
f 31//31 12//12 15//15
f 11//11 35//35 36//36
f 34//34 49//49 40//40
f 30//30 13//13 3//3
f 1//1 4//4 21//21
f 43//43 30//30 27//27
f 37//37 31//31 42//42
f 32//32 34//34 3//3
f 33//33 2//2 48//48
f 49//49 34//34 6//6
f 35//35 50//50 36//36
f 50//50 35//35 37//37
f 31//31 13//13 30//30
f 37//37 12//12 31//31
f 5//5 29//29 23//23
f 29//29 5//5 38//38
f 39//39 18//18 2//2
f 34//34 40//40 3//3
f 40//40 27//27 3//3
f 26//26 45//45 17//17
f 41//41 17//17 20//20
f 50//50 42//42 43//43
f 44//44 51//51 47//47
f 31//31 15//15 13//13
f 20//20 17//17 18//18
f 17//17 9//9 18//18
f 40//40 21//21 22//22
f 44//44 22//22 51//51
f 22//22 44//44 27//27
f 27//27 44//44 43//43
f 17//17 41//41 26//26
f 26//26 36//36 45//45
f 47//47 46//46 9//9
f 30//30 3//3 27//27
f 19//19 50//50 43//43
f 48//48 2//2 18//18
f 9//9 46//46 48//48
f 46//46 29//29 25//25
f 9//9 48//48 18//18
f 40//40 49//49 21//21
f 20//20 10//10 41//41
f 9//9 17//17 45//45
f 47//47 45//45 19//19
f 47//47 51//51 46//46
f 44//44 47//47 19//19
f 31//31 30//30 42//42
f 49//49 1//1 21//21
f 42//42 30//30 43//43
f 29//29 38//38 25//25
f 50//50 37//37 42//42
f 38//38 24//24 25//25
f 25//25 24//24 33//33
f 36//36 19//19 45//45
f 25//25 33//33 48//48
f 36//36 50//50 19//19
f 7//7 49//49 6//6
f 8//8 7//7 6//6
f 46//46 25//25 48//48
f 21//21 23//23 22//22
f 41//41 11//11 26//26
f 41//41 10//10 28//28
f 46//46 51//51 29//29
f 51//51 23//23 29//29
# 76 faces, 0 coords texture

# End of File
