####
#
# OBJ File Generated by Meshlab
#
####
# Object 2676.obj
#
# Vertices: 50
# Faces: 74
#
####
vn -2.930242 0.042299 -1.143319
v 101.807901 -48.483552 84.490041
vn -2.923084 0.051622 -1.152350
v 101.854000 -43.768150 84.574600
vn -2.895199 0.051541 -1.211082
v 105.638000 -45.398300 75.125500
vn -2.927501 0.043753 -1.138901
v 102.537500 -38.000000 83.082950
vn -1.472042 0.016183 -0.571453
v 101.798000 -50.000000 84.472600
vn -5.841766 0.110097 -2.310843
v 102.940054 -45.199035 81.755092
vn -2.922949 0.046137 -1.150079
v 102.941000 -50.000000 81.524050
vn -5.802494 0.084081 -2.408797
v 105.033042 -48.408441 76.463835
vn -2.924817 0.051745 -1.149922
v 101.833000 -45.894350 84.534400
vn -2.923640 0.047977 -1.134952
v 101.899000 -39.936400 84.651000
vn -2.908036 0.048305 -1.186948
v 103.732500 -50.000000 79.541450
vn -5.834398 0.061475 -2.331104
v 103.669843 -39.915219 80.122183
vn -2.902103 0.046382 -1.202177
v 104.626500 -50.000000 77.387850
vn -1.455367 0.020560 -0.567583
v 101.915000 -38.000000 84.675000
vn -1.454467 0.019068 -0.617049
v 105.706000 -38.000000 75.242500
vn -2.924726 0.054750 -1.141974
v 101.879000 -41.597600 84.619050
vn -1.440177 0.018943 -0.601998
v 105.598000 -50.000000 75.054800
vn -5.845841 0.084785 -2.301502
v 102.987142 -40.885610 81.812202
vn -5.804983 0.090908 -2.402309
v 104.842190 -46.430614 76.985822
vn -5.830693 0.081568 -2.339785
v 103.628447 -41.843448 80.170921
vn -5.818651 0.065995 -2.370057
v 104.334608 -40.883909 78.451965
vn -5.831379 0.113108 -2.336753
v 103.520486 -46.024788 80.255869
vn -5.803257 0.107932 -2.405963
v 104.957692 -44.165121 76.810265
vn -2.917499 0.027466 -1.165071
v 103.828000 -38.000000 79.767600
vn -5.820062 0.047278 -2.367030
v 104.310734 -39.229657 78.548925
vn -5.841695 0.096001 -2.311648
v 102.969780 -43.054346 81.777204
vn -5.848511 0.100481 -2.294162
v 102.377577 -42.186926 83.316362
vn -5.796161 0.065043 -2.424379
v 105.096595 -39.566746 76.630536
vn -2.928062 0.036983 -1.137867
v 102.226500 -50.000000 83.368800
vn -2.897007 0.039364 -1.217489
v 105.679500 -41.314400 75.197000
vn -5.803999 0.082103 -2.405188
v 105.012983 -42.007685 76.765285
vn -5.844692 0.104281 -2.303704
v 102.375075 -44.422463 83.227182
vn -5.854977 0.093597 -2.277893
v 102.377802 -39.843976 83.421510
vn -2.903410 0.023938 -1.199778
v 104.707347 -38.000000 77.595595
vn -2.892432 0.040127 -1.226811
v 105.693000 -39.707400 75.219800
vn -5.818266 0.098421 -2.369868
v 104.290080 -42.923699 78.495787
vn -5.807606 0.093358 -2.396091
v 104.307638 -48.323433 78.226526
vn -2.927137 0.040519 -1.140224
v 103.180000 -38.000000 81.422700
vn -5.851888 0.079553 -2.286302
v 103.092739 -39.034099 81.609966
vn -2.900277 0.051287 -1.213769
v 105.659000 -43.558300 75.161800
vn -2.897985 0.043231 -1.207774
v 105.607000 -48.789800 75.071350
vn -2.899987 0.040769 -1.207403
v 105.207000 -50.000000 75.990200
vn -2.898307 0.043924 -1.212744
v 105.624000 -46.976850 75.100950
vn -5.831804 0.106435 -2.336000
v 103.578353 -43.927758 80.207175
vn -5.818960 0.106647 -2.367625
v 104.213806 -44.965158 78.578700
vn -5.851637 0.095000 -2.286371
v 102.467184 -48.322837 82.807048
vn -5.816749 0.097874 -2.373625
v 104.099716 -46.754818 78.793309
vn -5.847936 0.107231 -2.295321
v 102.354541 -46.506729 83.177874
vn -5.825268 0.108834 -2.351570
v 103.548758 -48.114781 80.070248
vn -5.843782 0.112192 -2.305607
v 102.933778 -47.408802 81.660034
# 50 vertices, 0 vertices normals

f 25//25 34//34 28//28
f 35//35 30//30 28//28
f 24//24 12//12 39//39
f 33//33 39//39 18//18
f 41//41 42//42 8//8
f 27//27 18//18 26//26
f 32//32 26//26 6//6
f 21//21 36//36 20//20
f 45//45 22//22 44//44
f 36//36 31//31 23//23
f 25//25 21//21 12//12
f 12//12 20//20 18//18
f 47//47 49//49 22//22
f 46//46 48//48 50//50
f 24//24 34//34 25//25
f 2//2 27//27 32//32
f 32//32 27//27 26//26
f 3//3 19//19 23//23
f 5//5 1//1 29//29
f 46//46 7//7 29//29
f 30//30 40//40 31//31
f 9//9 2//2 32//32
f 11//11 7//7 49//49
f 4//4 33//33 14//14
f 33//33 10//10 14//14
f 31//31 21//21 28//28
f 28//28 30//30 31//31
f 27//27 33//33 18//18
f 37//37 11//11 49//49
f 13//13 11//11 37//37
f 4//4 38//38 39//39
f 38//38 24//24 39//39
f 33//33 4//4 39//39
f 18//18 39//39 12//12
f 40//40 3//3 23//23
f 41//41 17//17 42//42
f 43//43 41//41 8//8
f 19//19 43//43 8//8
f 2//2 16//16 27//27
f 10//10 33//33 16//16
f 27//27 16//16 33//33
f 6//6 26//26 44//44
f 44//44 26//26 20//20
f 26//26 18//18 20//20
f 20//20 36//36 44//44
f 44//44 22//22 6//6
f 45//45 23//23 19//19
f 45//45 36//36 23//23
f 36//36 21//21 31//31
f 43//43 19//19 3//3
f 12//12 21//21 20//20
f 25//25 28//28 21//21
f 45//45 47//47 22//22
f 48//48 9//9 32//32
f 6//6 48//48 32//32
f 47//47 37//37 49//49
f 8//8 13//13 37//37
f 37//37 47//47 19//19
f 37//37 19//19 8//8
f 19//19 47//47 45//45
f 40//40 23//23 31//31
f 49//49 7//7 50//50
f 8//8 42//42 13//13
f 48//48 1//1 9//9
f 12//12 24//24 25//25
f 36//36 45//45 44//44
f 15//15 35//35 28//28
f 46//46 29//29 1//1
f 48//48 46//46 1//1
f 50//50 48//48 6//6
f 22//22 50//50 6//6
f 49//49 50//50 22//22
f 50//50 7//7 46//46
f 15//15 28//28 34//34
# 74 faces, 0 coords texture

# End of File
