####
#
# OBJ File Generated by Meshlab
#
####
# Object 2679.obj
#
# Vertices: 52
# Faces: 75
#
####
vn 2.911682 -0.016878 -1.179404
v -105.618000 38.000000 76.115700
vn 1.460542 -0.003802 -0.582388
v -105.860000 38.000000 75.508800
vn 5.850238 -0.011098 -2.289536
v -104.688697 46.833443 78.202194
vn 2.942038 0.025288 -1.101191
v -103.137000 50.000000 82.391650
vn 2.902739 -0.016583 -1.228076
v -105.835000 45.106800 75.465800
vn 1.462842 0.009912 -0.560765
v -102.124000 50.000000 85.038300
vn 2.925279 0.005633 -1.145539
v -102.714000 38.000000 83.422500
vn 1.463293 0.003129 -0.570667
v -102.097000 38.000000 85.004600
vn 2.928494 -0.006943 -1.137236
v -103.371000 38.000000 81.752900
vn 5.871762 -0.032020 -2.235902
v -104.187263 46.079368 79.539618
vn 2.891943 -0.017982 -1.205670
v -105.821500 46.846850 75.442700
vn 1.456126 0.008478 -0.596492
v -105.823000 50.000000 75.445200
vn 5.863707 -0.019579 -2.257019
v -103.359191 43.354356 81.725967
vn 5.880968 0.025281 -2.211730
v -102.946085 46.504526 82.825621
vn 2.929326 0.006905 -1.130126
v -102.099000 42.380100 85.015100
vn 2.939330 0.015526 -1.119915
v -102.113500 46.602999 85.022250
vn 5.837454 -0.030343 -2.324123
v -104.671973 39.638974 78.430223
vn 2.906278 -0.027776 -1.185264
v -105.843000 41.495100 75.479600
vn 2.927132 0.020536 -1.140643
v -104.665000 50.000000 78.312950
vn 2.933096 0.013690 -1.125314
v -102.563000 50.000000 83.893100
vn 5.875692 0.039396 -2.225174
v -102.696745 48.122911 83.524968
vn 2.929617 0.004908 -1.142580
v -102.100000 39.567150 85.005500
vn 2.920821 -0.010854 -1.156855
v -104.185000 38.000000 79.662950
vn 5.809352 -0.031578 -2.392874
v -105.293790 46.408428 76.715174
vn 5.804808 -0.042464 -2.403868
v -105.399974 44.528711 76.494992
vn 5.846052 -0.039245 -2.302258
v -104.501902 41.455071 78.831484
vn 2.898884 0.005408 -1.201020
v -105.820000 48.713500 75.440100
vn 5.812872 0.013035 -2.384813
v -105.505507 48.427696 76.197900
vn 2.911782 0.020731 -1.179352
v -105.340000 50.000000 76.629200
vn 2.897032 -0.018270 -1.198112
v -105.834500 43.620800 75.463750
vn 5.857153 -0.047854 -2.273690
v -104.218029 43.682735 79.514109
vn 5.871911 0.026293 -2.235369
v -104.246373 48.154619 79.375589
vn 5.856113 -0.004151 -2.276862
v -102.795450 39.764102 83.223139
vn 2.932244 0.008160 -1.118480
v -102.104500 44.134800 85.021450
vn 2.930406 -0.000161 -1.135901
v -102.100000 41.234800 85.010500
vn 5.866130 0.002420 -2.250953
v -102.592568 42.663705 83.737489
vn 2.915877 -0.024563 -1.186679
v -105.858000 39.205000 75.505950
vn 2.913456 -0.019293 -1.175214
v -105.015000 38.000000 77.592400
vn 5.843329 -0.060457 -2.307846
v -104.840515 45.007752 77.861317
vn 5.854089 -0.026155 -2.281946
v -103.777581 41.684523 80.674921
vn 2.941255 0.027489 -1.103694
v -103.887000 50.000000 80.368150
vn 5.883861 0.028941 -2.203584
v -103.502326 47.774526 81.340723
vn 5.828583 -0.053368 -2.345706
v -105.219362 40.479665 77.037576
vn 5.871288 -0.011879 -2.237289
v -103.551440 45.366190 81.211921
vn 5.832461 -0.059237 -2.335631
v -105.125952 42.912289 77.206968
vn 5.874330 0.010856 -2.229456
v -102.794947 44.839669 83.209729
vn 2.928041 -0.010583 -1.138472
v -103.673000 38.000000 80.971000
vn 5.857897 -0.017513 -2.272238
v -103.470886 39.772336 81.476748
vn 5.846688 -0.018961 -2.300823
v -104.053825 39.827403 79.979716
vn 2.932918 0.014290 -1.129185
v -102.119000 48.871700 85.031400
vn 5.836164 0.028704 -2.326866
v -104.940149 48.351755 77.590869
vn 5.861245 -0.016153 -2.263605
v -102.958588 41.410236 82.790649
# 52 vertices, 0 vertices normals

f 37//37 1//1 2//2
f 6//6 50//50 20//20
f 22//22 7//7 33//33
f 7//7 9//9 33//33
f 3//3 32//32 10//10
f 35//35 33//33 52//52
f 16//16 14//14 21//21
f 40//40 31//31 13//13
f 52//52 48//48 40//40
f 31//31 45//45 39//39
f 18//18 30//30 45//45
f 11//11 24//24 5//5
f 19//19 41//41 32//32
f 7//7 22//22 8//8
f 23//23 38//38 17//17
f 28//28 24//24 11//11
f 45//45 30//30 25//25
f 31//31 10//10 44//44
f 11//11 27//27 28//28
f 27//27 12//12 28//28
f 12//12 29//29 28//28
f 29//29 19//19 51//51
f 30//30 5//5 25//25
f 3//3 51//51 32//32
f 3//3 24//24 51//51
f 32//32 42//42 10//10
f 34//34 15//15 36//36
f 15//15 35//35 36//36
f 35//35 22//22 33//33
f 45//45 26//26 43//43
f 16//16 46//46 14//14
f 37//37 18//18 43//43
f 37//37 43//43 38//38
f 38//38 43//43 17//17
f 32//32 41//41 42//42
f 39//39 3//3 10//10
f 39//39 10//10 31//31
f 40//40 48//48 49//49
f 40//40 49//49 26//26
f 40//40 26//26 31//31
f 41//41 4//4 42//42
f 4//4 21//21 42//42
f 31//31 26//26 45//45
f 13//13 31//31 44//44
f 13//13 44//44 46//46
f 10//10 42//42 44//44
f 44//44 42//42 14//14
f 16//16 34//34 46//46
f 9//9 47//47 48//48
f 47//47 23//23 49//49
f 48//48 52//52 33//33
f 35//35 52//52 36//36
f 17//17 43//43 26//26
f 21//21 20//20 50//50
f 21//21 50//50 16//16
f 40//40 13//13 52//52
f 52//52 13//13 36//36
f 28//28 51//51 24//24
f 26//26 49//49 17//17
f 25//25 39//39 45//45
f 14//14 46//46 44//44
f 33//33 9//9 48//48
f 24//24 3//3 39//39
f 24//24 39//39 25//25
f 24//24 25//25 5//5
f 46//46 36//36 13//13
f 34//34 36//36 46//46
f 1//1 37//37 38//38
f 29//29 51//51 28//28
f 20//20 21//21 4//4
f 23//23 17//17 49//49
f 48//48 47//47 49//49
f 18//18 45//45 43//43
f 51//51 19//19 32//32
f 21//21 14//14 42//42
# 75 faces, 0 coords texture

# End of File
