####
#
# OBJ File Generated by Meshlab
#
####
# Object 2693.obj
#
# Vertices: 52
# Faces: 77
#
####
vn -2.927718 0.048849 -1.154745
v 102.572000 -46.496950 85.822600
vn -2.912216 0.042925 -1.154044
v 102.554000 -48.117600 85.802200
vn -5.843210 0.102863 -2.307529
v 104.648668 -45.570208 80.594959
vn -5.810574 0.107535 -2.387098
v 105.986395 -45.087223 77.253132
vn -2.901726 0.029087 -1.195914
v 106.344500 -46.649050 76.348050
vn -2.889415 0.059521 -1.209840
v 106.358000 -44.964100 76.371700
vn -1.476068 0.020390 -0.583051
v 102.544000 -50.000000 85.765100
vn -5.841785 0.072698 -2.312199
v 104.495126 -40.403632 81.178592
vn -2.905532 0.035416 -1.194257
v 106.405500 -40.668000 76.453750
vn -2.908089 0.050464 -1.157897
v 102.648000 -38.676100 85.951900
vn -2.915480 0.045216 -1.168467
v 102.806000 -38.000000 85.584600
vn -5.815659 0.076557 -2.377077
v 105.541637 -48.535796 78.260696
vn -1.450877 0.012949 -0.600282
v 102.653000 -38.000000 85.954400
vn -1.459998 0.017127 -0.601582
v 106.424000 -38.000000 76.486300
vn -1.441439 0.021097 -0.597394
v 106.322000 -50.000000 76.309000
vn -5.841667 0.088522 -2.311886
v 104.488323 -48.286708 80.873350
vn -5.833280 0.101816 -2.332084
v 105.348217 -45.281418 78.828552
vn -5.844928 0.103863 -2.303130
v 103.197932 -39.582449 84.515812
vn -2.911378 0.059000 -1.204219
v 106.389514 -42.915010 76.425669
vn -5.819757 0.123725 -2.364929
v 105.649963 -43.348678 78.190107
vn -5.840169 0.087881 -2.315825
v 104.354269 -42.405660 81.470996
vn -2.908401 0.030735 -1.187499
v 105.705500 -38.000000 78.230050
vn -5.814281 0.066585 -2.380767
v 105.913256 -39.672261 77.680757
vn -5.846921 0.083577 -2.298866
v 103.017494 -48.278940 84.626578
vn -5.848669 0.082803 -2.294146
v 104.533526 -39.000379 81.122638
vn -5.850441 0.097870 -2.289342
v 103.924721 -39.320063 82.675508
vn -2.926582 0.055640 -1.140711
v 104.070914 -38.000019 82.365252
vn -2.923443 0.034315 -1.149688
v 103.975500 -50.000000 82.123750
vn -5.848642 0.084796 -2.294383
v 103.726193 -48.328309 82.808527
vn -5.837764 0.107254 -2.321047
v 104.901377 -43.791650 80.034337
vn -2.920100 0.045334 -1.154097
v 102.592500 -44.508050 85.859850
vn -2.923119 0.050086 -1.155366
v 102.626000 -40.488750 85.920250
vn -2.905679 0.047138 -1.193210
v 105.840500 -50.000000 77.470800
vn -2.920138 0.041079 -1.151196
v 102.605500 -42.690500 85.888950
vn -5.844076 0.093070 -2.305756
v 103.143103 -41.684711 84.563484
vn -2.918577 0.033206 -1.162293
v 104.970000 -38.000000 80.045700
vn -5.844226 0.103897 -2.304914
v 104.154667 -46.724427 81.790996
vn -2.908043 0.038345 -1.196908
v 106.332500 -48.770050 76.327100
vn -5.845513 0.090560 -2.302209
v 103.779587 -41.012865 82.977998
vn -2.905502 0.033853 -1.195589
v 106.416000 -39.170200 76.472400
vn -5.815947 0.079251 -2.376266
v 105.814123 -41.300174 77.873720
vn -5.816696 0.059421 -2.375037
v 105.771717 -47.143266 77.732102
vn -2.914721 0.039709 -1.171000
v 104.878500 -50.000000 79.833300
vn -5.830743 0.083810 -2.339579
v 105.105317 -41.777656 79.611618
vn -5.827169 0.061623 -2.349135
v 105.241144 -39.610876 79.333503
vn -5.845935 0.091732 -2.300997
v 103.110278 -44.563240 84.547598
vn -2.923437 0.053676 -1.148937
v 103.278000 -38.000000 84.385900
vn -5.844702 0.086623 -2.304404
v 103.599975 -43.027898 83.351895
vn -2.924261 0.038606 -1.147579
v 103.169000 -50.000000 84.180000
vn -5.844177 0.097312 -2.305317
v 104.021444 -44.686081 82.218926
vn -5.847535 0.099196 -2.296702
v 103.393494 -46.561255 83.732013
vn -5.829313 0.085405 -2.342919
v 105.015684 -47.611411 79.577189
# 52 vertices, 0 vertices normals

f 37//37 3//3 16//16
f 13//13 11//11 10//10
f 45//45 8//8 25//25
f 23//23 40//40 9//9
f 12//12 43//43 52//52
f 42//42 12//12 52//52
f 45//45 44//44 8//8
f 50//50 51//51 46//46
f 20//20 19//19 4//4
f 6//6 4//4 19//19
f 24//24 2//2 1//1
f 21//21 50//50 48//48
f 20//20 17//17 30//30
f 52//52 3//3 17//17
f 22//22 14//14 40//40
f 42//42 52//52 17//17
f 2//2 24//24 7//7
f 36//36 25//25 27//27
f 27//27 25//25 26//26
f 28//28 49//49 29//29
f 21//21 30//30 50//50
f 17//17 3//3 30//30
f 31//31 34//34 46//46
f 18//18 32//32 10//10
f 3//3 50//50 30//30
f 33//33 43//43 12//12
f 16//16 3//3 52//52
f 20//20 30//30 44//44
f 30//30 21//21 44//44
f 9//9 19//19 41//41
f 20//20 41//41 19//19
f 32//32 18//18 35//35
f 39//39 21//21 48//48
f 4//4 6//6 5//5
f 34//34 32//32 35//35
f 36//36 22//22 45//45
f 42//42 5//5 38//38
f 36//36 45//45 25//25
f 8//8 39//39 26//26
f 29//29 37//37 16//16
f 18//18 26//26 39//39
f 38//38 15//15 33//33
f 35//35 39//39 48//48
f 4//4 17//17 20//20
f 23//23 22//22 40//40
f 41//41 23//23 9//9
f 5//5 42//42 4//4
f 16//16 43//43 28//28
f 37//37 50//50 3//3
f 18//18 39//39 35//35
f 39//39 8//8 21//21
f 47//47 26//26 18//18
f 42//42 17//17 4//4
f 1//1 46//46 51//51
f 46//46 1//1 31//31
f 8//8 44//44 21//21
f 24//24 49//49 7//7
f 50//50 46//46 48//48
f 51//51 50//50 37//37
f 51//51 37//37 29//29
f 1//1 51//51 24//24
f 29//29 16//16 28//28
f 44//44 41//41 20//20
f 41//41 44//44 45//45
f 41//41 45//45 23//23
f 47//47 18//18 11//11
f 26//26 47//47 27//27
f 25//25 8//8 26//26
f 11//11 18//18 10//10
f 24//24 51//51 29//29
f 49//49 24//24 29//29
f 45//45 22//22 23//23
f 12//12 42//42 38//38
f 33//33 12//12 38//38
f 52//52 43//43 16//16
f 34//34 35//35 48//48
f 34//34 48//48 46//46
# 77 faces, 0 coords texture

# End of File
