####
#
# OBJ File Generated by Meshlab
#
####
# Object 2712.obj
#
# Vertices: 40
# Faces: 58
#
####
vn -3.004769 0.009062 -0.916441
v 99.659641 -37.998500 95.670373
vn -6.020745 0.052153 -1.795324
v 99.238220 -41.454617 96.950106
vn -6.017742 0.036264 -1.806557
v 99.602608 -43.044172 95.715418
vn -6.000690 0.085349 -1.860360
v 100.173391 -39.483073 93.950067
vn -6.011143 0.065361 -1.826810
v 99.850104 -41.188175 94.928377
vn -6.024351 0.027770 -1.784102
v 98.744834 -41.639806 98.647072
vn -3.002643 0.035916 -0.901595
v 98.339800 -39.863000 100.000000
vn -3.009375 0.008792 -0.899244
v 99.054000 -37.998500 97.644300
vn -1.514370 0.024860 -0.442450
v 98.383700 -38.000000 100.000000
vn -1.506058 0.001869 -0.487165
v 100.694000 -50.000000 91.985200
vn -1.503494 0.016845 -0.444704
v 98.257900 -50.000000 100.000000
vn -3.013079 0.037353 -0.888517
v 98.940250 -50.000000 97.682800
vn -1.499633 0.028023 -0.476709
v 100.821000 -38.000000 92.000000
vn -3.003361 0.047797 -0.946602
v 100.780989 -40.164946 91.981669
vn -3.022047 0.039348 -0.873426
v 98.316500 -45.964700 100.000000
vn -6.024143 0.080104 -1.783683
v 99.318591 -48.830627 96.449454
vn -6.006209 0.064611 -1.843491
v 100.354823 -46.539455 93.094333
vn -3.009538 0.032511 -0.900331
v 99.539300 -50.000000 95.658300
vn -2.984209 0.041765 -0.916315
v 100.745000 -43.844750 91.940350
vn -6.014276 0.071869 -1.816981
v 100.110814 -45.027026 93.964670
vn -3.013362 0.033007 -0.926637
v 100.710500 -45.920000 91.961350
vn -6.021614 0.064132 -1.792829
v 99.467256 -45.170731 96.118879
vn -3.009916 0.014741 -0.902441
v 98.334410 -42.296581 100.000000
vn -2.996777 0.020329 -0.941615
v 100.163500 -50.000000 93.607000
vn -5.995859 0.047184 -1.876774
v 100.287333 -48.399659 93.248539
vn -2.985896 0.008711 -0.948146
v 100.696500 -48.402750 91.965700
vn -6.019682 0.048191 -1.799379
v 98.882212 -39.703344 98.198038
vn -3.015052 0.021518 -0.882675
v 98.322550 -44.776000 100.000000
vn -3.009714 0.041456 -0.888425
v 98.282000 -47.589450 100.000000
vn -6.025879 0.073051 -1.778083
v 98.791509 -46.017721 98.354082
vn -6.024661 0.042096 -1.783228
v 98.792662 -43.448474 98.439711
vn -2.992639 0.033382 -0.937363
v 100.768000 -42.101700 91.956600
vn -6.011342 0.053892 -1.825771
v 99.482475 -39.604710 96.257514
vn -6.011034 0.062404 -1.827903
v 100.084042 -43.496386 94.103099
vn -6.018170 0.078653 -1.803778
v 99.891652 -46.831531 94.616639
vn -2.994488 0.045440 -0.947790
v 100.222000 -37.998800 93.867650
vn -6.023091 0.082103 -1.787182
v 99.340437 -47.280841 96.453351
vn -5.997990 0.057278 -1.870294
v 100.373328 -41.561801 93.221941
vn -6.024260 0.074540 -1.783566
v 98.830696 -48.314550 98.127287
vn -6.015715 0.071465 -1.812043
v 99.791172 -48.630030 94.868310
# 40 vertices, 0 vertices normals

f 17//17 25//25 35//35
f 18//18 12//12 16//16
f 2//2 3//3 31//31
f 19//19 21//21 20//20
f 21//21 26//26 17//17
f 3//3 38//38 34//34
f 23//23 7//7 6//6
f 7//7 9//9 27//27
f 9//9 8//8 27//27
f 18//18 16//16 40//40
f 24//24 25//25 10//10
f 26//26 10//10 25//25
f 7//7 27//27 6//6
f 39//39 12//12 11//11
f 14//14 4//4 13//13
f 2//2 33//33 5//5
f 28//28 23//23 31//31
f 29//29 15//15 30//30
f 33//33 4//4 5//5
f 30//30 28//28 31//31
f 38//38 14//14 32//32
f 32//32 19//19 34//34
f 5//5 4//4 38//38
f 4//4 14//14 38//38
f 8//8 1//1 33//33
f 2//2 5//5 3//3
f 3//3 5//5 38//38
f 27//27 2//2 6//6
f 33//33 2//2 27//27
f 30//30 15//15 28//28
f 40//40 37//37 35//35
f 17//17 26//26 25//25
f 35//35 25//25 40//40
f 20//20 17//17 35//35
f 4//4 36//36 13//13
f 1//1 36//36 4//4
f 4//4 33//33 1//1
f 34//34 19//19 20//20
f 35//35 37//37 22//22
f 37//37 30//30 22//22
f 16//16 39//39 37//37
f 39//39 11//11 29//29
f 27//27 8//8 33//33
f 34//34 38//38 32//32
f 12//12 39//39 16//16
f 18//18 40//40 24//24
f 37//37 40//40 16//16
f 40//40 25//25 24//24
f 6//6 2//2 31//31
f 39//39 30//30 37//37
f 39//39 29//29 30//30
f 20//20 21//21 17//17
f 31//31 22//22 30//30
f 22//22 31//31 3//3
f 20//20 35//35 22//22
f 31//31 23//23 6//6
f 20//20 22//22 34//34
f 3//3 34//34 22//22
# 58 faces, 0 coords texture

# End of File
