####
#
# OBJ File Generated by Meshlab
#
####
# Object 2715.obj
#
# Vertices: 51
# Faces: 77
#
####
vn 5.904177 0.003068 -2.149153
v -103.450482 -39.574610 84.635910
vn 1.466886 -0.003865 -0.565871
v -106.452000 -50.000000 76.534300
vn 2.924507 -0.020490 -1.147078
v -105.665000 -50.000000 78.579300
vn 1.484695 0.023889 -0.553147
v -102.813000 -50.000000 86.231200
vn 5.905289 0.035509 -2.145710
v -103.377475 -43.669230 84.820628
vn 2.957871 0.013135 -1.093479
v -102.821190 -46.639912 86.254217
vn 5.899579 0.048282 -2.160922
v -104.493651 -48.380242 81.652882
vn 5.910407 -0.005615 -2.131943
v -104.518669 -42.093312 81.684991
vn 1.458740 0.001197 -0.534866
v -102.829000 -38.000000 86.334400
vn 1.457545 -0.013168 -0.566149
v -106.425000 -38.000000 76.486600
vn 2.928710 -0.010251 -1.126628
v -106.439500 -45.256500 76.511800
vn 2.974487 -0.001286 -1.087205
v -102.840466 -40.106425 86.300260
vn 2.945345 0.025815 -1.077265
v -102.834509 -44.276025 86.293728
vn 2.960274 -0.006706 -1.051821
v -104.497980 -38.000000 81.711656
vn 5.870031 -0.011298 -2.238560
v -105.632598 -47.199703 78.593366
vn 2.930073 -0.015004 -1.143917
v -106.449500 -47.700750 76.529750
vn 5.869858 0.001426 -2.240891
v -105.957324 -45.480036 77.764763
vn 5.894365 0.025039 -2.175775
v -105.344468 -45.304271 79.409458
vn 5.871187 -0.031654 -2.237225
v -105.943397 -41.752463 77.784136
vn 5.900703 0.037596 -2.158321
v -103.436850 -45.993324 84.596477
vn 2.956602 0.013746 -1.061761
v -103.704500 -38.000000 83.948950
vn 2.932767 -0.005450 -1.132018
v -106.437500 -41.981750 76.509000
vn 5.899695 0.017031 -2.161115
v -103.231367 -48.019672 85.151254
vn 5.894808 0.035710 -2.174427
v -104.956988 -46.939622 80.433005
vn 2.933095 -0.014197 -1.124946
v -106.009500 -38.000000 77.556300
vn 5.871824 0.012588 -2.235733
v -105.214771 -48.687559 79.728735
vn 2.930722 -0.017189 -1.147268
v -106.435085 -39.910722 76.505079
vn 5.899314 0.031005 -2.162211
v -104.724153 -45.144531 81.106201
vn 2.955004 0.014899 -1.066508
v -104.009000 -50.000000 82.978950
vn 5.910341 -0.009488 -2.131996
v -104.001409 -40.265893 83.120424
vn 2.937059 0.002799 -1.066867
v -102.840000 -41.969200 86.316500
vn 5.905511 0.004533 -2.145523
v -103.358476 -41.472587 84.884771
vn 2.953914 -0.012515 -1.068850
v -105.163500 -38.000000 79.820100
vn 2.935301 0.022281 -1.084801
v -102.823000 -48.927000 86.250700
vn 5.899638 0.041355 -2.161223
v -104.254039 -46.420808 82.358117
vn 5.901175 0.020552 -2.157210
v -104.432141 -43.786062 81.920767
vn 5.903587 -0.035966 -2.150293
v -105.231916 -41.463912 79.690258
vn 5.903897 -0.004890 -2.149921
v -104.989010 -43.537035 80.386662
vn 5.905513 0.017688 -2.145447
v -103.934379 -42.726181 83.290535
vn 2.925901 0.001847 -1.143955
v -105.292000 -50.000000 79.520100
vn 2.950699 0.022705 -1.078279
v -103.355836 -50.000000 84.774182
vn 5.873144 -0.008060 -2.232578
v -106.147786 -43.616400 77.269148
vn 5.918992 -0.021384 -2.107946
v -104.597597 -40.163445 81.448057
vn 5.888267 -0.011811 -2.192316
v -105.626760 -43.526492 78.650754
vn 2.934518 -0.002221 -1.114688
v -106.437000 -43.533200 76.507600
vn 5.857178 -0.037498 -2.273727
v -105.852985 -48.828684 78.079105
vn 2.942495 0.028882 -1.098550
v -104.735500 -50.000000 80.941750
vn 5.873981 -0.034161 -2.228638
v -105.758261 -40.034936 78.226172
vn 5.906805 -0.024655 -2.141150
v -105.222796 -39.245318 79.670809
vn 5.906868 0.028776 -2.141602
v -103.806883 -48.111687 83.558429
vn 5.900136 0.039028 -2.159865
v -104.052074 -44.702235 82.935482
# 51 vertices, 0 vertices normals

f 13//13 20//20 5//5
f 37//37 19//19 48//48
f 31//31 5//5 32//32
f 34//34 41//41 23//23
f 24//24 15//15 18//18
f 28//28 18//18 38//38
f 43//43 37//37 49//49
f 44//44 42//42 19//19
f 7//7 47//47 26//26
f 26//26 46//46 15//15
f 1//1 32//32 30//30
f 38//38 37//37 8//8
f 39//39 36//36 8//8
f 21//21 9//9 1//1
f 2//2 16//16 46//46
f 48//48 19//19 27//27
f 22//22 27//27 19//19
f 12//12 1//1 9//9
f 27//27 10//10 25//25
f 25//25 48//48 27//27
f 28//28 35//35 24//24
f 28//28 24//24 18//18
f 25//25 49//49 48//48
f 29//29 47//47 7//7
f 49//49 37//37 48//48
f 13//13 6//6 20//20
f 24//24 35//35 7//7
f 43//43 14//14 30//30
f 12//12 31//31 32//32
f 31//31 13//13 5//5
f 38//38 18//18 44//44
f 33//33 14//14 49//49
f 43//43 49//49 14//14
f 14//14 1//1 30//30
f 30//30 8//8 43//43
f 50//50 23//23 41//41
f 6//6 34//34 23//23
f 34//34 4//4 41//41
f 7//7 35//35 50//50
f 1//1 14//14 21//21
f 16//16 17//17 15//15
f 15//15 17//17 18//18
f 8//8 36//36 38//38
f 30//30 32//32 39//39
f 39//39 5//5 51//51
f 16//16 11//11 17//17
f 3//3 2//2 46//46
f 46//46 40//40 3//3
f 41//41 29//29 50//50
f 36//36 28//28 38//38
f 18//18 17//17 44//44
f 44//44 17//17 42//42
f 38//38 44//44 37//37
f 37//37 44//44 19//19
f 11//11 45//45 42//42
f 45//45 22//22 42//42
f 19//19 42//42 22//22
f 24//24 7//7 26//26
f 26//26 47//47 40//40
f 24//24 26//26 15//15
f 46//46 26//26 40//40
f 1//1 12//12 32//32
f 39//39 32//32 5//5
f 8//8 37//37 43//43
f 30//30 39//39 8//8
f 39//39 51//51 36//36
f 20//20 35//35 51//51
f 50//50 29//29 7//7
f 42//42 17//17 11//11
f 46//46 16//16 15//15
f 20//20 23//23 50//50
f 23//23 20//20 6//6
f 33//33 49//49 25//25
f 50//50 35//35 20//20
f 5//5 20//20 51//51
f 51//51 28//28 36//36
f 51//51 35//35 28//28
# 77 faces, 0 coords texture

# End of File
