####
#
# OBJ File Generated by Meshlab
#
####
# Object 2717.obj
#
# Vertices: 44
# Faces: 63
#
####
vn 3.033499 0.009330 -0.815445
v -99.901700 -37.998400 95.064950
vn 6.075018 -0.022598 -1.603580
v -98.946144 -46.747494 98.598910
vn 3.032962 0.001731 -0.821536
v -99.277400 -38.000000 97.379150
vn 3.036134 -0.000586 -0.810828
v -98.572400 -41.769100 100.000000
vn 6.071300 -0.001306 -1.617760
v -99.002429 -42.766285 98.392614
vn 3.032130 0.001802 -0.821828
v -99.512200 -50.000000 96.480000
vn 3.013527 0.001077 -0.847151
v -100.753500 -48.685000 91.983600
vn 3.030461 -0.002611 -0.828171
v -100.095500 -50.000000 94.362850
vn 1.528507 0.004672 -0.417587
v -100.745000 -50.000000 92.000000
vn 3.020050 0.001380 -0.857089
v -100.751000 -39.647600 91.993850
vn 1.517305 -0.004834 -0.432039
v -100.744000 -38.000000 92.000000
vn 1.523267 0.005940 -0.379554
v -98.608800 -50.000000 100.000000
vn 3.051726 -0.009167 -0.761394
v -98.610600 -49.538400 100.000000
vn 1.519699 0.007988 -0.401532
v -98.579200 -38.000000 100.000000
vn 6.071448 -0.008467 -1.617305
v -99.464570 -43.654514 96.640978
vn 6.066851 0.028927 -1.633767
v -99.866774 -40.504795 95.139234
vn 3.017100 0.000917 -0.864367
v -100.761000 -46.490800 91.980000
vn 6.048629 -0.005405 -1.700430
v -100.330424 -45.467266 93.476891
vn 6.061988 -0.014980 -1.651735
v -99.866199 -48.289744 95.215618
vn 3.017017 -0.006556 -0.863522
v -100.757500 -44.056300 91.980500
vn 6.046943 -0.016491 -1.706556
v -100.365243 -43.236828 93.344783
vn 6.061316 -0.014260 -1.654791
v -99.889921 -44.518358 95.069234
vn 3.031458 0.005028 -0.819531
v -98.566300 -43.316600 99.999550
vn 6.068837 -0.010723 -1.626709
v -99.343971 -47.911100 97.100898
vn 6.069311 0.003993 -1.625199
v -98.987852 -40.794853 98.427609
vn 3.022902 -0.001688 -0.860878
v -100.746500 -41.662000 91.987350
vn 6.048942 0.010780 -1.699170
v -100.333656 -41.095277 93.438580
vn 3.033168 -0.012268 -0.811139
v -98.568300 -45.838050 99.998650
vn 3.027747 -0.005164 -0.838009
v -100.503000 -50.000000 92.885800
vn 3.036230 0.018180 -0.806640
v -98.843800 -38.000000 98.999400
vn 3.042317 -0.027638 -0.780231
v -98.593450 -48.071150 100.000000
vn 6.086887 -0.028780 -1.557774
v -98.899858 -48.471831 98.808005
vn 6.062475 -0.016479 -1.650487
v -99.848564 -46.514253 95.232167
vn 3.035180 0.003946 -0.805619
v -98.569285 -39.982453 99.999580
vn 3.043482 -0.006348 -0.778776
v -99.014700 -50.000000 98.371000
vn 6.069539 -0.000753 -1.624487
v -98.988108 -44.685049 98.440001
vn 6.060463 -0.008618 -1.657332
v -99.928614 -42.475732 94.894093
vn 6.055682 0.016089 -1.675212
v -100.225380 -39.373145 93.854044
vn 3.023744 -0.006318 -0.843294
v -100.453500 -37.997800 93.020200
vn 6.069460 -0.003878 -1.624791
v -99.389576 -45.634301 96.930572
vn 6.068671 0.022180 -1.626944
v -99.468751 -39.588159 96.681579
vn 6.067989 0.020058 -1.629878
v -98.936437 -39.045052 98.627156
vn 6.054717 -0.009193 -1.678180
v -100.311715 -47.839026 93.543712
vn 6.072302 0.012054 -1.613904
v -99.443231 -41.740868 96.712923
# 44 vertices, 0 vertices normals

f 22//22 18//18 21//21
f 10//10 38//38 27//27
f 39//39 10//10 11//11
f 13//13 12//12 35//35
f 3//3 42//42 41//41
f 36//36 15//15 5//5
f 21//21 26//26 27//27
f 27//27 16//16 37//37
f 38//38 1//1 16//16
f 17//17 20//20 18//18
f 8//8 43//43 19//19
f 20//20 26//26 21//21
f 21//21 18//18 20//20
f 23//23 28//28 36//36
f 6//6 8//8 19//19
f 6//6 19//19 24//24
f 26//26 10//10 27//27
f 1//1 3//3 41//41
f 28//28 31//31 2//2
f 7//7 17//17 43//43
f 7//7 29//29 9//9
f 14//14 34//34 42//42
f 35//35 32//32 13//13
f 31//31 13//13 32//32
f 18//18 22//22 33//33
f 34//34 4//4 25//25
f 6//6 24//24 35//35
f 32//32 35//35 24//24
f 40//40 2//2 24//24
f 32//32 24//24 2//2
f 36//36 40//40 15//15
f 19//19 33//33 24//24
f 31//31 32//32 2//2
f 23//23 5//5 4//4
f 15//15 22//22 37//37
f 44//44 16//16 41//41
f 15//15 37//37 44//44
f 44//44 37//37 16//16
f 22//22 21//21 37//37
f 37//37 21//21 27//27
f 16//16 1//1 41//41
f 27//27 38//38 16//16
f 4//4 5//5 25//25
f 38//38 39//39 1//1
f 39//39 38//38 10//10
f 30//30 14//14 42//42
f 40//40 24//24 33//33
f 36//36 5//5 23//23
f 36//36 28//28 2//2
f 2//2 40//40 36//36
f 7//7 43//43 29//29
f 34//34 25//25 42//42
f 41//41 42//42 25//25
f 22//22 15//15 40//40
f 33//33 22//22 40//40
f 18//18 43//43 17//17
f 44//44 41//41 25//25
f 30//30 42//42 3//3
f 43//43 8//8 29//29
f 18//18 33//33 43//43
f 19//19 43//43 33//33
f 15//15 44//44 5//5
f 44//44 25//25 5//5
# 63 faces, 0 coords texture

# End of File
