####
#
# OBJ File Generated by Meshlab
#
####
# Object 272S.obj
#
# Vertices: 84
# Faces: 137
#
####
vn -2.808340 -0.211564 -5.615656
v 15.130565 -20.247078 47.757562
vn -2.996764 -0.189727 -5.518970
v 16.963523 -20.966558 46.815673
vn -1.526378 -0.117662 -6.092036
v 8.093422 -16.806327 50.367141
vn -2.835879 -0.096758 -5.603355
v 15.314300 -10.193927 47.396814
vn -2.919922 -0.062757 -5.561220
v 15.835092 -8.375595 47.095332
vn -2.829917 -0.136386 -5.607523
v 15.142313 -12.100529 47.506878
vn -2.576659 -0.166262 -5.725588
v 13.296916 -14.992925 48.492129
vn -1.772420 -0.149023 -6.025853
v 8.830281 -11.337116 50.001409
vn -2.016855 -0.196852 -5.945704
v 10.508360 -22.355080 49.794308
vn -2.225691 -0.059329 -5.872425
v 11.477481 -7.095761 49.080339
vn -2.812318 -0.181258 -5.615004
v 14.964625 -14.231820 47.663230
vn -2.476074 -0.051933 -5.769440
v 12.884086 -6.343998 48.510665
vn -2.253861 -0.193639 -3.807543
v 18.287700 -20.683600 46.064400
vn -1.552255 -0.072247 -2.467429
v 19.525100 -11.896500 44.960100
vn -0.830990 -0.101335 -2.858573
v 8.318700 -21.742300 50.438050
vn -2.321552 -0.231323 -4.010574
v 18.188000 -20.971000 46.141400
vn -1.151120 -0.085816 -2.121475
v 17.544600 -22.652100 46.561600
vn -1.002848 -0.044724 -2.737142
v 10.925234 -5.942646 49.263002
vn -0.894812 -0.018803 -2.701859
v 9.414156 -7.025010 49.787853
vn -0.280289 -0.020381 -0.438992
v 18.635000 -21.169200 45.865200
vn -1.338448 -0.013724 -2.509106
v 16.448450 -6.453930 46.756400
vn -1.438562 -0.017923 -2.482330
v 17.812900 -7.898785 45.974700
vn -1.036100 -0.121743 -2.398365
v 13.313000 -24.467900 48.824100
vn -0.712974 -0.093010 -2.809000
v 7.199745 -19.859000 50.656600
vn -1.610959 -0.065455 -2.486491
v 19.689969 -15.845425 44.969206
vn -0.831944 -0.124443 -2.608806
v 9.438840 -23.093500 50.170600
vn -1.296569 -0.038999 -2.581633
v 15.122350 -5.743925 47.425300
vn -0.853147 0.011244 -2.754503
v 7.845460 -9.055930 50.281400
vn -0.628190 -0.070035 -2.821557
v 6.292150 -16.034100 50.748100
vn -0.789241 -0.043593 -2.913692
v 6.921905 -11.629219 50.547357
vn -1.369125 -0.132574 -2.697486
v 15.487350 -23.699150 47.728650
vn -1.556198 -0.031697 -3.240137
v 13.802000 -5.456300 48.068200
vn -1.580125 -0.086494 -2.518891
v 19.720161 -13.287474 44.897154
vn -0.683046 -0.057969 -2.957881
v 6.444590 -14.166600 50.680600
vn -0.857221 -0.020932 -1.944859
v 13.235300 -4.981630 48.341200
vn -3.007509 -0.136764 -5.512692
v 16.425356 -15.357592 46.942696
vn -2.786572 -0.178266 -5.628227
v 14.789489 -18.311321 47.843022
vn -2.860003 -0.242624 -5.588142
v 15.416798 -21.974631 47.679953
vn -2.531065 -0.120685 -5.747424
v 12.908956 -17.365186 48.719354
vn -1.521391 -0.122461 -2.407265
v 18.963750 -19.463100 45.569850
vn -1.539138 -0.036311 -2.520603
v 18.833898 -9.816490 45.363852
vn -2.609090 -0.218152 -5.710260
v 13.626028 -20.953995 48.507990
vn -2.311364 -0.184480 -5.837622
v 12.034406 -21.553527 49.211557
vn -2.038306 -0.138651 -5.938656
v 10.562725 -10.608398 49.459663
vn -1.642526 -0.164092 -6.061624
v 8.494823 -19.493673 50.315790
vn -2.359232 -0.182210 -5.817643
v 12.019594 -19.591526 49.159870
vn -2.187073 -0.140985 -5.883364
v 11.134972 -17.603629 49.461092
vn -1.552683 -0.147606 -6.082575
v 8.238337 -15.294279 50.305425
vn -1.897135 -0.141276 -5.984638
v 9.847956 -16.342711 49.868524
vn -2.971363 -0.213663 -5.529158
v 16.552085 -19.347759 46.997703
vn -3.106873 -0.113022 -5.457940
v 16.940653 -11.193071 46.536481
vn -1.955688 -0.133680 -5.966525
v 10.293248 -19.162779 49.784615
vn -1.999218 -0.191487 -5.949069
v 10.330212 -12.731528 49.607198
vn -3.119406 -0.085926 -5.451722
v 16.961171 -9.576021 46.495489
vn -3.277984 -0.159089 -5.357728
v 18.280956 -12.296783 45.754509
vn -2.622370 -0.206080 -5.704849
v 13.559853 -19.241187 48.473658
vn -1.720986 -0.119588 -6.039222
v 9.117281 -17.928884 50.116921
vn -1.623595 -0.090661 -2.563629
v 19.381200 -17.786100 45.228700
vn -2.408301 -0.107504 -5.800524
v 12.226651 -9.767589 48.806078
vn -2.370946 -0.160650 -5.814806
v 12.030768 -11.789637 48.932875
vn -2.740853 -0.038692 -5.652079
v 14.457979 -7.003667 47.777996
vn -1.868235 -0.054060 -5.998618
v 9.164733 -9.379858 49.871461
vn -3.208108 -0.142564 -5.398314
v 17.838060 -16.404124 46.162167
vn -2.278723 -0.230385 -5.849923
v 12.125407 -23.035098 49.222773
vn -2.488025 -0.013219 -5.768401
v 12.722535 -7.925615 48.570813
vn -0.708131 -0.078463 -2.916064
v 6.618380 -17.977900 50.744200
vn -3.209991 -0.228441 -5.394667
v 17.898676 -18.460222 46.191958
vn -2.127461 -0.070097 -5.908763
v 10.922368 -8.557888 49.298420
vn -1.638961 -0.178803 -6.061040
v 8.384509 -13.333314 50.204032
vn -2.270703 -0.167605 -5.853908
v 11.530757 -15.526479 49.245025
vn -2.601466 -0.272516 -5.710665
v 13.684579 -22.692411 48.556821
vn -2.656521 -0.076309 -5.693095
v 13.976874 -8.983062 48.005879
vn -0.863511 -0.009421 -2.908630
v 7.420650 -10.038900 50.404400
vn -3.247101 -0.167762 -5.374943
v 18.050855 -14.421744 45.977747
vn -0.982369 -0.096575 -2.711626
v 11.045896 -23.944457 49.660607
vn -3.044754 -0.171672 -5.491156
v 16.660799 -13.324778 46.751632
vn -2.974253 -0.148251 -5.532118
v 16.312527 -17.307803 47.028367
vn -2.622062 -0.176232 -5.705870
v 13.559034 -12.922031 48.300647
vn -1.937953 -0.175666 -5.970725
v 9.932423 -14.557150 49.792261
vn -2.618473 -0.132546 -5.709143
v 13.619119 -10.864041 48.216426
vn -3.373573 -0.133791 -5.298915
v 18.989788 -15.510414 45.414024
vn -1.976473 -0.160730 -5.958382
v 10.387215 -20.593054 49.791133
vn -2.320452 -0.175594 -5.833849
v 11.769777 -13.806818 49.103013
vn -2.802238 -0.115442 -5.620068
v 14.839465 -16.236928 47.791473
# 84 vertices, 0 vertices normals

f 62//62 19//19 68//68
f 2//2 13//13 16//16
f 38//38 71//71 42//42
f 37//37 50//50 1//1
f 37//37 56//56 39//39
f 1//1 42//42 56//56
f 81//81 25//25 58//58
f 12//12 10//10 18//18
f 4//4 51//51 6//6
f 21//21 61//61 27//27
f 61//61 5//5 72//72
f 45//45 52//52 82//82
f 16//16 13//13 20//20
f 79//79 70//70 49//49
f 83//83 53//53 60//60
f 60//60 44//44 59//59
f 38//38 1//1 2//2
f 77//77 67//67 50//50
f 9//9 26//26 15//15
f 68//68 44//44 62//62
f 8//8 73//73 62//62
f 68//68 65//65 59//59
f 48//48 29//29 34//34
f 63//63 36//36 74//74
f 30//30 69//69 34//34
f 12//12 35//35 32//32
f 12//12 65//65 10//10
f 13//13 67//67 40//40
f 50//50 13//13 2//2
f 55//55 41//41 14//14
f 43//43 42//42 71//71
f 47//47 46//46 52//52
f 79//79 49//49 48//48
f 48//48 49//49 3//3
f 16//16 17//17 2//2
f 1//1 38//38 42//42
f 42//42 43//43 46//46
f 46//46 43//43 82//82
f 47//47 57//57 49//49
f 47//47 52//52 57//57
f 57//57 52//52 45//45
f 22//22 54//54 5//5
f 41//41 54//54 22//22
f 8//8 53//53 69//69
f 56//56 37//37 1//1
f 37//37 77//77 50//50
f 64//64 71//71 23//23
f 84//84 37//37 39//39
f 47//47 39//39 56//56
f 46//46 56//56 42//42
f 66//66 57//57 45//45
f 67//67 63//63 58//58
f 58//58 40//40 67//67
f 12//12 18//18 35//35
f 17//17 38//38 2//2
f 38//38 17//17 31//31
f 4//4 5//5 54//54
f 66//66 3//3 57//57
f 4//4 54//54 51//51
f 64//64 23//23 75//75
f 82//82 43//43 9//9
f 48//48 3//3 29//29
f 66//66 29//29 3//3
f 18//18 10//10 19//19
f 19//19 10//10 68//68
f 9//9 15//15 82//82
f 8//8 44//44 53//53
f 63//63 67//67 77//77
f 50//50 67//67 13//13
f 21//21 5//5 61//61
f 5//5 21//21 22//22
f 78//78 83//83 60//60
f 45//45 15//15 24//24
f 69//69 30//30 8//8
f 7//7 84//84 39//39
f 7//7 70//70 83//83
f 4//4 6//6 80//80
f 78//78 80//80 6//6
f 72//72 80//80 59//59
f 2//2 1//1 50//50
f 31//31 71//71 38//38
f 23//23 71//71 31//31
f 12//12 32//32 61//61
f 27//27 61//61 32//32
f 5//5 4//4 72//72
f 62//62 28//28 19//19
f 68//68 59//59 44//44
f 62//62 44//44 8//8
f 8//8 30//30 73//73
f 62//62 73//73 28//28
f 55//55 74//74 76//76
f 55//55 14//14 33//33
f 68//68 10//10 65//65
f 59//59 65//65 72//72
f 65//65 61//61 72//72
f 74//74 36//36 76//76
f 75//75 26//26 9//9
f 33//33 74//74 55//55
f 74//74 33//33 81//81
f 43//43 64//64 9//9
f 64//64 75//75 9//9
f 11//11 84//84 7//7
f 83//83 78//78 7//7
f 34//34 69//69 48//48
f 51//51 76//76 6//6
f 6//6 76//76 11//11
f 76//76 36//36 11//11
f 12//12 61//61 65//65
f 64//64 43//43 71//71
f 81//81 58//58 63//63
f 74//74 81//81 63//63
f 77//77 36//36 63//63
f 60//60 53//53 44//44
f 78//78 11//11 7//7
f 79//79 69//69 53//53
f 79//79 48//48 69//69
f 60//60 80//80 78//78
f 4//4 80//80 72//72
f 80//80 60//60 59//59
f 78//78 6//6 11//11
f 25//25 81//81 33//33
f 55//55 76//76 51//51
f 51//51 54//54 41//41
f 57//57 3//3 49//49
f 55//55 51//51 41//41
f 47//47 49//49 70//70
f 45//45 24//24 66//66
f 47//47 70//70 39//39
f 47//47 56//56 46//46
f 82//82 15//15 45//45
f 46//46 82//82 52//52
f 83//83 79//79 53//53
f 83//83 70//70 79//79
f 7//7 39//39 70//70
f 84//84 77//77 37//37
f 36//36 77//77 84//84
f 84//84 11//11 36//36
# 137 faces, 0 coords texture

# End of File
