####
#
# OBJ File Generated by Meshlab
#
####
# Object 2732.obj
#
# Vertices: 45
# Faces: 66
#
####
vn -5.807226 -0.004441 -2.396083
v 102.538753 46.309026 93.103139
vn -2.927097 -0.019648 -1.279771
v 103.191000 44.840400 91.631400
vn -5.933329 -0.132846 -2.062982
v 101.183138 43.650225 96.872328
vn -2.968746 -0.075130 -1.021705
v 100.089000 44.357200 100.000000
vn -3.089643 0.002370 -1.176541
v 103.088500 40.427325 91.870200
vn -1.391307 -0.012850 -0.510683
v 103.174000 38.000000 91.631900
vn -1.500053 -0.030622 -0.486412
v 100.230000 38.000000 100.000000
vn -2.934052 -0.075162 -1.053192
v 102.424021 37.965925 93.741342
vn -2.960464 -0.001740 -1.051199
v 100.499669 50.000000 98.565084
vn -2.974772 -0.062540 -1.013278
v 100.143500 42.246100 100.000000
vn -1.482836 0.002692 -0.520076
v 99.996400 50.000000 100.000000
vn -1.559223 -0.017196 -0.631059
v 103.132000 50.000000 91.612500
vn -5.908989 -0.131240 -2.131780
v 101.740084 43.948519 95.280181
vn -5.882450 -0.050210 -2.203613
v 101.833481 45.892431 94.896769
vn -5.939517 -0.117397 -2.044583
v 100.888633 39.114064 97.943515
vn -5.830692 -0.016710 -2.340431
v 102.590576 48.444912 92.992629
vn -5.931957 -0.062961 -2.069972
v 100.570118 47.903332 98.394123
vn -5.910821 -0.046379 -2.127159
v 101.220851 47.169773 96.537068
vn -2.690152 -0.021895 -1.137106
v 103.279794 47.425181 91.361364
vn -2.981250 -0.052065 -1.000672
v 100.639500 37.999800 98.737150
vn -2.983699 -0.052192 -0.981423
v 100.216000 38.685800 100.000000
vn -2.978712 -0.059991 -0.997516
v 100.190000 39.998550 100.000000
vn -2.930981 0.009923 -1.130865
v 101.969000 50.000000 94.592450
vn -2.969831 -0.057997 -1.019862
v 100.041294 46.469591 100.000000
vn -2.896825 -0.037411 -1.202507
v 103.159000 43.042800 91.727250
vn -5.859670 0.020653 -2.267466
v 101.946715 47.797418 94.627859
vn -5.926404 -0.107757 -2.083252
v 101.196863 40.559633 96.983938
vn -2.957171 -0.022755 -1.038720
v 99.994350 48.871000 100.000000
vn -2.925572 -0.011930 -1.144531
v 102.613000 50.000000 92.919100
vn -5.823478 -0.093572 -2.346511
v 102.420709 44.361584 93.390559
vn -5.915894 -0.120579 -2.112539
v 101.527311 42.195888 95.964975
vn -2.943982 0.035892 -1.096271
v 101.368000 50.000000 96.175300
vn -2.953920 -0.063759 -1.063879
v 101.898000 37.978300 95.197400
vn -5.866017 -0.134958 -2.244887
v 102.242316 42.427971 93.996260
vn -5.940357 -0.125707 -2.042933
v 100.621811 45.878171 98.336911
vn -5.940636 -0.145830 -2.040984
v 100.657966 44.009728 98.378931
vn -5.943839 -0.109204 -2.033987
v 100.855582 42.267108 97.906703
vn -5.927262 -0.138387 -2.079499
v 101.200389 45.190505 96.706696
vn -2.963810 -0.075777 -1.056909
v 101.410000 37.991750 96.556850
vn -5.908675 -0.128086 -2.132703
v 101.500372 39.147035 96.223469
vn -5.867553 -0.048918 -2.245951
v 102.597718 41.043101 93.150293
vn -5.954462 -0.102933 -2.002987
v 100.558929 40.486131 98.869006
vn -5.902055 -0.072318 -2.152141
v 102.521051 39.250997 93.379318
vn -5.902393 -0.112086 -2.150955
v 101.957511 40.257201 94.916705
vn -5.894177 0.022861 -2.174025
v 101.283036 48.785980 96.363720
# 45 vertices, 0 vertices normals

f 19//19 1//1 16//16
f 20//20 7//7 21//21
f 9//9 17//17 28//28
f 13//13 31//31 3//3
f 13//13 38//38 14//14
f 13//13 30//30 34//34
f 27//27 37//37 31//31
f 38//38 3//3 36//36
f 23//23 16//16 26//26
f 18//18 26//26 14//14
f 44//44 41//41 43//43
f 19//19 2//2 1//1
f 22//22 10//10 42//42
f 23//23 29//29 16//16
f 24//24 28//28 17//17
f 25//25 5//5 41//41
f 2//2 25//25 30//30
f 34//34 30//30 25//25
f 2//2 30//30 1//1
f 27//27 40//40 15//15
f 11//11 9//9 28//28
f 29//29 12//12 16//16
f 1//1 30//30 14//14
f 12//12 19//19 16//16
f 9//9 32//32 45//45
f 32//32 23//23 45//45
f 17//17 9//9 45//45
f 17//17 45//45 18//18
f 8//8 33//33 43//43
f 33//33 39//39 40//40
f 3//3 31//31 37//37
f 13//13 3//3 38//38
f 13//13 14//14 30//30
f 4//4 35//35 36//36
f 34//34 44//44 31//31
f 31//31 44//44 27//27
f 3//3 37//37 36//36
f 27//27 44//44 40//40
f 38//38 18//18 14//14
f 10//10 36//36 37//37
f 35//35 38//38 36//36
f 31//31 13//13 34//34
f 5//5 43//43 41//41
f 44//44 34//34 41//41
f 20//20 15//15 39//39
f 25//25 41//41 34//34
f 36//36 10//10 4//4
f 15//15 40//40 39//39
f 15//15 20//20 21//21
f 22//22 42//42 21//21
f 42//42 37//37 27//27
f 42//42 27//27 15//15
f 21//21 42//42 15//15
f 35//35 24//24 17//17
f 35//35 4//4 24//24
f 17//17 18//18 35//35
f 8//8 43//43 6//6
f 38//38 35//35 18//18
f 42//42 10//10 37//37
f 43//43 5//5 6//6
f 33//33 40//40 44//44
f 33//33 44//44 43//43
f 26//26 16//16 1//1
f 26//26 1//1 14//14
f 45//45 23//23 26//26
f 45//45 26//26 18//18
# 66 faces, 0 coords texture

# End of File
