####
#
# OBJ File Generated by Meshlab
#
####
# Object 310S.obj
#
# Vertices: 173
# Faces: 288
#
####
vn 3.807352 -0.035940 -4.997816
v -47.441005 25.551567 23.740306
vn 3.187282 -0.015910 -5.414643
v -55.892073 3.073137 18.271901
vn 3.398137 -0.130976 -5.282395
v -53.733695 24.826806 19.338854
vn 3.560646 -0.050271 -5.176587
v -50.684629 22.493138 21.439216
vn 3.002187 -0.038546 -5.517434
v -59.429923 1.111662 16.244476
vn 3.219172 -0.005585 -5.395757
v -55.019816 5.169855 18.786995
vn 3.538969 -0.048334 -5.191287
v -50.183447 15.811047 21.822511
vn 3.298248 -0.011346 -5.347669
v -53.719338 -3.959578 19.580312
vn 3.216417 0.006217 -5.395967
v -55.107209 -2.464384 18.722499
vn 3.147112 -0.083133 -5.437493
v -56.265438 17.898387 17.985314
vn 3.460003 0.018433 -5.244564
v -50.352490 -3.269458 21.730014
vn 3.504896 -0.093210 -5.213624
v -52.186538 23.567022 20.392209
vn 3.287111 -0.015953 -5.354705
v -53.645249 0.520613 19.633605
vn 3.364343 -0.106953 -5.305124
v -53.753110 28.913339 19.246266
vn 3.519443 0.018139 -5.204949
v -48.995339 2.625143 22.653969
vn 3.409922 -0.013097 -5.276536
v -51.317728 -1.663399 21.083804
vn 3.158959 -0.018432 -5.431290
v -56.431462 0.886257 17.968345
vn 3.552715 -0.033735 -5.182001
v -50.398467 18.088929 21.654867
vn 3.212435 -0.094918 -5.398847
v -54.700985 18.071665 18.892246
vn 3.613787 -0.135998 -5.137399
v -50.246880 26.758108 21.643096
vn 3.618037 -0.059876 -5.136254
v -49.499159 23.517094 22.243194
vn 3.128216 0.005170 -5.448991
v -56.581068 -0.993990 17.882261
vn 3.458556 0.033525 -5.245516
v -50.768904 7.299832 21.480196
vn 3.421638 -0.043149 -5.269115
v -52.150063 10.866532 20.545165
vn 3.126247 -0.146430 -5.447089
v -56.472810 25.344425 17.652936
vn 1.589574 0.011622 -2.543441
v -51.947400 -6.884380 20.680000
vn 1.593585 0.018901 -2.482925
v -50.830100 -6.418120 21.384600
vn 1.474452 -0.025641 -2.456947
v -57.138100 11.327100 17.475700
vn 1.565574 -0.046130 -2.613602
v -56.260356 10.231696 18.036318
vn 2.185497 0.021096 -3.269374
v -49.279500 7.527150 22.462700
vn 1.466543 0.012822 -2.230409
v -49.569200 6.595830 22.263300
vn 1.024933 -0.015331 -1.746437
v -54.832200 7.776690 18.888700
vn 2.278662 -0.021922 -3.777521
v -54.451500 7.616100 19.112400
vn 1.372031 0.028427 -2.421577
v -58.425748 -6.079021 16.780164
vn 2.623656 0.016513 -3.956704
v -50.026900 6.097480 21.961200
vn 1.818110 0.006403 -2.306423
v -45.391350 23.973600 25.323750
vn 1.600479 -0.019257 -2.233329
v -47.305600 -2.625720 23.840600
vn 1.713396 0.001394 -2.531891
v -48.551100 4.272510 22.955700
vn 1.908246 -0.012228 -2.536564
v -45.588103 16.231309 25.146375
vn 1.312278 0.033636 -2.433925
v -60.110300 -4.230310 15.895750
vn 1.334313 -0.006361 -2.531875
v -60.847711 1.893848 15.501523
vn 1.791917 0.018206 -2.408719
v -45.471950 13.653450 25.227950
vn 1.773298 0.011691 -2.311957
v -45.274900 22.449000 25.404800
vn 1.853148 -0.005857 -3.140239
v -55.818500 6.675970 18.316400
vn 1.619038 0.021746 -2.405549
v -49.165125 -5.245073 22.494847
vn 1.430010 0.008866 -2.453288
v -58.095273 13.441085 16.911160
vn 1.507293 -0.001331 -2.480907
v -54.766400 8.718400 18.923100
vn 1.332846 -0.028484 -2.525851
v -61.181100 -0.196850 15.344350
vn 1.403797 -0.022183 -2.475290
v -58.637050 5.434230 16.669650
vn 1.624142 0.024966 -2.165742
v -45.589000 11.811250 25.124200
vn 1.712765 0.006018 -2.380352
v -47.909728 -3.737390 23.404877
vn 1.534547 -0.058955 -2.448725
v -53.911200 30.861400 19.100500
vn 1.426303 -0.032845 -2.345338
v -55.350300 30.213900 18.244150
vn 1.382322 -0.047480 -2.399718
v -57.158800 27.429900 17.228900
vn 1.450113 0.025233 -2.446515
v -56.505700 -7.051265 17.885850
vn 2.568493 -0.000664 -4.153281
v -54.030800 8.270820 19.376300
vn 1.616478 -0.053402 -2.454448
v -52.487950 31.062850 20.011550
vn 1.690592 -0.048207 -2.445008
v -51.050900 30.918600 20.986200
vn 1.566683 0.016276 -2.530662
v -53.389550 -7.223605 19.782200
vn 1.679094 -0.041194 -2.317102
v -49.704700 30.493550 21.955200
vn 1.779514 -0.037778 -2.286464
v -46.614700 27.533800 24.354000
vn 1.774523 -0.001076 -2.270706
v -45.897750 26.048000 24.939350
vn 1.930548 0.005269 -2.557074
v -45.612400 17.751500 25.122200
vn 1.478822 -0.023965 -2.565306
v -57.980300 17.709200 17.000650
vn 1.712772 -0.075559 -2.971613
v -56.900500 21.336700 17.542700
vn 1.604015 0.013090 -2.298447
v -47.672100 8.395900 23.571900
vn 1.657188 0.007236 -2.415335
v -47.766600 3.118575 23.490150
vn 1.667026 -0.062287 -2.906630
v -57.276950 19.465750 17.374600
vn 1.352646 0.016690 -2.353159
v -58.447250 15.566675 16.737725
vn 1.621489 0.012632 -2.276828
v -47.090700 1.514090 23.967100
vn 3.642740 -0.017435 -5.119259
v -48.997277 19.472616 22.629879
vn 3.559919 -0.028768 -5.177002
v -50.557333 20.328569 21.530446
vn 3.308611 -0.035272 -5.340925
v -53.788646 11.266623 19.503197
vn 3.230740 -0.176747 -5.385369
v -55.408985 24.090820 18.321727
vn 3.405448 0.005107 -5.278587
v -51.949475 3.695705 20.666877
vn 3.359214 -0.018923 -5.309384
v -52.337943 1.678300 20.435456
vn 3.250001 -0.027361 -5.376942
v -54.341773 6.674708 19.186191
vn 3.186399 0.039883 -5.414372
v -57.100258 14.459896 17.493541
vn 3.316746 0.002160 -5.336184
v -53.257473 5.296245 19.857118
vn 3.065864 0.073894 -5.483343
v -58.264813 -3.724293 16.902213
vn 3.580097 0.025928 -5.162883
v -47.953159 1.189008 23.351078
vn 3.576806 -0.016934 -5.164829
v -48.281690 -0.821060 23.117878
vn 1.625130 -0.008933 -2.298764
v -46.898427 -0.233428 24.089971
vn 3.748141 -0.029212 -5.042591
v -47.443909 22.075708 23.748758
vn 1.411299 -0.044757 -2.402190
v -56.521300 28.909950 17.557550
vn 3.195071 -0.140655 -5.408093
v -55.575457 21.981161 18.292101
vn 3.514353 0.025291 -5.208356
v -49.289173 0.765949 22.444678
vn 3.037682 -0.020742 -5.499813
v -59.052923 3.197366 16.460427
vn 3.659937 -0.019594 -5.106801
v -48.336973 15.344305 23.112396
vn 3.472541 -0.060061 -5.235661
v -51.590522 17.025641 20.858482
vn 3.254611 -0.115267 -5.371755
v -55.290078 26.084052 18.330824
vn 2.991428 0.051607 -5.525020
v -59.399220 -2.628090 16.299478
vn 3.122605 -0.019717 -5.452097
v -57.798455 2.150876 17.167388
vn 3.504451 0.011230 -5.215066
v -50.266540 4.095352 21.797943
vn 3.666821 0.021790 -5.101670
v -48.037393 13.273103 23.324299
vn 3.736126 0.054521 -5.051300
v -46.699987 12.277184 24.296416
vn 3.648995 -0.031613 -5.114362
v -48.996577 21.708710 22.612524
vn 1.337687 -0.021549 -2.465561
v -59.955550 3.953465 15.964100
vn 3.515703 -0.128748 -5.205787
v -52.013356 25.671165 20.466470
vn 3.824889 -0.004723 -4.983008
v -46.623900 23.748628 24.344706
vn 3.718095 -0.033676 -5.064795
v -48.183806 23.593976 23.193968
vn 3.178816 -0.117761 -5.418100
v -55.509539 19.770466 18.379024
vn 1.749729 -0.037123 -2.314351
v -47.973062 29.220355 23.266313
vn 1.954156 0.008776 -2.580091
v -45.552058 19.828440 25.180590
vn 3.736298 0.012239 -5.051221
v -47.228499 18.713917 23.909249
vn 3.561017 -0.014529 -5.176387
v -48.591601 9.313522 22.935434
vn 3.741012 -0.023058 -5.047357
v -47.032220 16.723136 24.049971
vn 3.484366 0.012345 -5.228419
v -50.599607 2.182810 21.571342
vn 3.454362 0.016232 -5.247751
v -50.844353 0.259189 21.393686
vn 1.664632 0.014184 -2.308805
v -46.526698 9.726381 24.390287
vn 3.345062 -0.123455 -5.316753
v -53.918200 22.750981 19.278671
vn 3.128920 0.030460 -5.448512
v -56.817625 -2.961632 17.742354
vn 3.313879 0.006242 -5.338195
v -53.233068 -1.737367 19.888040
vn 3.632343 -0.018764 -5.126095
v -48.810153 17.380105 22.758941
vn 3.068893 0.011706 -5.482502
v -58.187900 -1.691648 16.977718
vn 3.101757 -0.049487 -5.463792
v -58.027279 0.222366 17.049117
vn 3.383110 0.005753 -5.293821
v -52.815207 7.283864 20.129126
vn 3.490953 -0.138553 -5.221955
v -52.056012 27.757527 20.378899
vn 3.266009 -0.014116 -5.367271
v -53.978501 2.963607 19.411767
vn 3.689790 -0.094743 -5.084235
v -49.037914 25.211677 22.547314
vn 3.320372 0.010677 -5.334147
v -52.658615 -5.456863 20.242841
vn 3.576326 0.004903 -5.165169
v -48.813929 -2.823528 22.756576
vn 3.230261 0.015073 -5.388906
v -54.940936 -0.421827 18.841523
vn 3.499599 0.000778 -5.218332
v -49.731377 -1.222516 22.141764
vn 3.290120 -0.102861 -5.351450
v -54.217891 20.997428 19.128419
vn 3.281480 0.025394 -5.358055
v -54.155693 -5.732176 19.320329
vn 1.557774 0.027670 -2.555781
v -54.838200 -7.278050 18.882700
vn 3.564037 -0.020383 -5.173845
v -49.300581 14.025312 22.432382
vn 3.407196 -0.108877 -5.277528
v -53.643102 26.888704 19.354700
vn 1.475277 -0.007662 -2.519396
v -57.416000 6.175850 17.369400
vn 3.575409 -0.107852 -5.165486
v -50.598003 24.519147 21.468493
vn 3.613653 0.008987 -5.138852
v -48.197923 11.201504 23.194534
vn 3.531101 -0.003620 -5.196924
v -49.533558 12.406218 22.283925
vn 3.364332 0.006418 -5.306391
v -52.042594 -3.553114 20.630174
vn 3.591164 -0.118138 -5.153558
v -50.803609 28.943520 21.197051
vn 3.225424 0.017986 -5.391962
v -55.455033 -4.921925 18.537200
vn 3.167656 -0.003033 -5.426122
v -56.793101 16.076386 17.692890
vn 3.705702 -0.096666 -5.072822
v -49.394820 28.447972 22.218770
vn 3.485504 -0.041670 -5.227577
v -50.770107 13.807630 21.452087
vn 1.327530 0.003114 -2.498318
v -61.008250 -2.007645 15.449950
vn 3.451735 -0.031547 -5.249773
v -51.587720 8.956210 20.946340
vn 1.623149 -0.094623 -2.818882
v -57.002150 23.318200 17.427200
vn 1.400925 -0.066031 -2.511728
v -57.315450 25.412900 17.181150
vn 3.253311 -0.030779 -5.375153
v -54.540396 9.811512 19.059824
vn 3.400697 -0.040081 -5.282803
v -52.604870 13.118794 20.241841
vn 3.216119 -0.001473 -5.397408
v -55.609291 14.656371 18.397793
vn 3.443045 -0.066599 -5.255077
v -52.050406 15.299395 20.578023
vn 3.193841 -0.053525 -5.410583
v -55.072779 16.440379 18.698843
vn 3.284669 -0.049506 -5.354845
v -53.843015 14.966096 19.435433
vn 3.231082 -0.007812 -5.388495
v -56.330124 12.931286 17.952120
vn 3.250808 -0.084291 -5.374951
v -55.312733 28.056257 18.283495
vn 3.473877 -0.004697 -5.235493
v -51.028155 12.146151 21.284841
vn 3.340888 -0.005018 -5.321175
v -52.189440 -0.233697 20.533231
vn 3.740996 0.005699 -5.047908
v -46.791180 14.555350 24.255135
vn 3.739407 -0.008323 -5.048957
v -47.463291 20.495151 23.736888
vn 3.471360 -0.013149 -5.236959
v -50.085321 8.644052 21.937105
vn 3.491245 -0.038714 -5.223237
v -50.172879 10.468868 21.851004
vn 3.450103 -0.062710 -5.249961
v -52.420254 21.214096 20.263766
vn 3.444054 0.032904 -5.254843
v -51.526006 5.650231 20.964261
vn 3.770912 -0.097315 -5.023912
v -48.410671 27.139043 22.966722
vn 3.333271 -0.062491 -5.324897
v -53.219768 17.139288 19.801730
vn 3.397851 0.039724 -5.284584
v -51.125104 -5.106802 21.205244
vn 3.240995 -0.066557 -5.382309
v -55.446333 11.363027 18.500062
vn 3.461621 -0.125208 -5.241525
v -52.369862 29.688825 20.119217
vn 3.266363 -0.029987 -5.367080
v -54.596096 13.022544 18.998977
vn 3.180530 0.055328 -5.418231
v -56.852629 -4.979354 17.701586
vn 2.995328 -0.053801 -5.522781
v -59.547961 -0.830815 16.219315
vn 3.454447 -0.053581 -5.247563
v -51.974845 18.902465 20.584595
vn 3.359914 -0.028504 -5.308854
v -53.202684 9.354130 19.885355
vn 3.156467 -0.021750 -5.432531
v -57.107313 4.519001 17.555196
vn 3.312237 -0.079193 -5.338145
v -53.698753 19.356762 19.477295
vn 3.214159 -0.019313 -5.398614
v -55.103512 1.537307 18.741859
vn 3.814379 -0.010861 -4.992776
v -46.339416 21.845119 24.585250
# 173 vertices, 0 vertices normals

f 150//150 163//163 28//28
f 31//31 156//156 30//30
f 97//97 72//72 4//4
f 75//75 159//159 94//94
f 167//167 92//92 140//140
f 84//84 155//155 97//97
f 84//84 100//100 173//173
f 144//144 169//169 56//56
f 129//129 118//118 99//99
f 151//151 54//54 85//85
f 77//77 117//117 79//79
f 106//106 30//30 156//156
f 12//12 111//111 3//3
f 57//57 164//164 52//52
f 82//82 124//124 87//87
f 86//86 74//74 111//111
f 121//121 126//126 8//8
f 76//76 109//109 153//153
f 95//95 132//132 133//133
f 22//22 112//112 115//115
f 146//146 78//78 137//137
f 22//22 17//17 123//123
f 1//1 120//120 160//160
f 131//131 20//20 120//120
f 122//122 37//37 51//51
f 9//9 22//22 123//123
f 86//86 102//102 65//65
f 101//101 21//21 120//120
f 6//6 119//119 2//2
f 139//139 152//152 145//145
f 117//117 141//141 23//23
f 27//27 26//26 162//162
f 33//33 77//77 32//32
f 78//78 150//150 46//46
f 94//94 159//159 35//35
f 83//83 37//37 82//82
f 94//94 35//35 38//38
f 40//40 80//80 34//34
f 40//40 92//92 80//80
f 85//85 53//53 151//151
f 42//42 50//50 96//96
f 96//96 154//154 42//42
f 21//21 97//97 4//4
f 12//12 131//131 4//4
f 125//125 86//86 111//111
f 8//8 126//126 136//136
f 147//147 90//90 7//7
f 80//80 166//166 34//34
f 73//73 144//144 163//163
f 25//25 54//54 91//91
f 157//157 152//152 133//133
f 75//75 79//79 159//159
f 92//92 40//40 140//140
f 96//96 132//132 95//95
f 132//132 96//96 110//110
f 106//106 132//132 110//110
f 110//110 96//96 50//50
f 78//78 46//46 69//69
f 45//45 122//122 51//51
f 95//95 128//128 89//89
f 71//71 155//155 105//105
f 4//4 72//72 158//158
f 130//130 170//170 49//49
f 98//98 49//49 88//88
f 12//12 3//3 99//99
f 101//101 100//100 84//84
f 37//37 122//122 82//82
f 5//5 41//41 88//88
f 98//98 88//88 41//41
f 100//100 101//101 1//1
f 160//160 103//103 61//61
f 173//173 43//43 104//104
f 173//173 100//100 36//36
f 104//104 155//155 173//173
f 151//151 91//91 54//54
f 56//56 117//117 33//33
f 169//169 117//117 56//56
f 107//107 39//39 154//154
f 108//108 109//109 76//76
f 15//15 94//94 38//38
f 15//15 38//38 67//67
f 110//110 66//66 106//106
f 44//44 6//6 170//170
f 76//76 13//13 119//119
f 91//91 3//3 74//74
f 3//3 129//129 99//99
f 99//99 118//118 20//20
f 18//18 168//168 72//72
f 105//105 114//114 71//71
f 115//115 116//116 22//22
f 159//159 117//117 23//23
f 77//77 33//33 117//117
f 20//20 118//118 135//135
f 61//61 1//1 160//160
f 1//1 62//62 100//100
f 36//36 100//100 62//62
f 39//39 107//107 63//63
f 79//79 75//75 119//119
f 75//75 76//76 119//119
f 7//7 90//90 18//18
f 18//18 71//71 114//114
f 71//71 72//72 97//97
f 18//18 72//72 71//71
f 23//23 35//35 159//159
f 35//35 23//23 31//31
f 155//155 104//104 105//105
f 123//123 113//113 9//9
f 58//58 164//164 57//57
f 91//91 74//74 25//25
f 11//11 45//45 162//162
f 109//109 124//124 16//16
f 164//164 14//14 52//52
f 87//87 124//124 109//109
f 8//8 136//136 9//9
f 113//113 8//8 9//9
f 111//111 74//74 3//3
f 154//154 39//39 42//42
f 154//154 96//96 95//95
f 60//60 138//138 135//135
f 103//103 138//138 60//60
f 102//102 86//86 125//125
f 86//86 65//65 142//142
f 8//8 113//113 134//134
f 116//116 5//5 93//93
f 126//126 127//127 136//136
f 127//127 126//126 59//59
f 166//166 127//127 55//55
f 5//5 88//88 93//93
f 48//48 5//5 167//167
f 5//5 48//48 41//41
f 20//20 131//131 99//99
f 99//99 131//131 12//12
f 7//7 128//128 139//139
f 93//93 17//17 116//116
f 116//116 17//17 22//22
f 129//129 3//3 91//91
f 93//93 170//170 2//2
f 134//134 121//121 8//8
f 121//121 26//26 59//59
f 6//6 2//2 170//170
f 102//102 125//125 171//171
f 171//171 125//125 158//158
f 13//13 76//76 153//153
f 107//107 154//154 89//89
f 105//105 107//107 114//114
f 128//128 95//95 133//133
f 109//109 16//16 153//153
f 16//16 11//11 134//134
f 16//16 124//124 11//11
f 124//124 82//82 122//122
f 118//118 129//129 14//14
f 151//151 14//14 129//129
f 151//151 129//129 91//91
f 106//106 157//157 132//132
f 132//132 157//157 133//133
f 134//134 113//113 16//16
f 113//113 123//123 13//13
f 16//16 113//113 153//153
f 113//113 13//13 153//153
f 64//64 68//68 10//10
f 115//115 92//92 167//167
f 78//78 69//69 137//137
f 64//64 137//137 69//69
f 138//138 20//20 135//135
f 123//123 17//17 172//172
f 93//93 2//2 17//17
f 172//172 17//17 2//2
f 22//22 9//9 112//112
f 112//112 9//9 136//136
f 168//168 18//18 90//90
f 103//103 160//160 138//138
f 163//163 165//165 73//73
f 21//21 131//131 120//120
f 21//21 101//101 97//97
f 97//97 101//101 84//84
f 158//158 72//72 168//168
f 158//158 168//168 171//171
f 166//166 55//55 34//34
f 139//139 147//147 7//7
f 146//146 165//165 150//150
f 137//137 64//64 10//10
f 102//102 68//68 65//65
f 140//140 48//48 167//167
f 15//15 67//67 81//81
f 70//70 81//81 67//67
f 77//77 44//44 32//32
f 142//142 74//74 86//86
f 25//25 74//74 142//142
f 142//142 143//143 25//25
f 101//101 120//120 1//1
f 47//47 144//144 56//56
f 83//83 82//82 81//81
f 82//82 87//87 81//81
f 87//87 15//15 81//81
f 144//144 47//47 29//29
f 145//145 24//24 73//73
f 118//118 164//164 135//135
f 164//164 58//58 135//135
f 141//141 157//157 156//156
f 165//165 145//145 73//73
f 14//14 53//53 52//52
f 6//6 77//77 79//79
f 6//6 79//79 119//119
f 147//147 139//139 145//145
f 145//145 152//152 24//24
f 117//117 169//169 141//141
f 7//7 114//114 89//89
f 133//133 152//152 139//139
f 146//146 137//137 148//148
f 161//161 90//90 147//147
f 15//15 108//108 94//94
f 77//77 6//6 44//44
f 10//10 148//148 137//137
f 148//148 10//10 19//19
f 146//146 148//148 149//149
f 102//102 19//19 10//10
f 149//149 161//161 147//147
f 131//131 21//21 4//4
f 128//128 7//7 89//89
f 45//45 11//11 122//122
f 19//19 171//171 161//161
f 102//102 10//10 68//68
f 149//149 147//147 145//145
f 26//26 121//121 162//162
f 78//78 146//146 150//150
f 107//107 89//89 114//114
f 149//149 148//148 161//161
f 19//19 161//161 148//148
f 149//149 165//165 146//146
f 165//165 149//149 145//145
f 94//94 108//108 75//75
f 75//75 108//108 76//76
f 87//87 109//109 108//108
f 150//150 28//28 46//46
f 15//15 87//87 108//108
f 25//25 143//143 54//54
f 28//28 163//163 29//29
f 14//14 151//151 53//53
f 144//144 73//73 169//169
f 24//24 141//141 169//169
f 133//133 139//139 128//128
f 121//121 59//59 126//126
f 106//106 66//66 30//30
f 105//105 104//104 63//63
f 156//156 31//31 23//23
f 107//107 105//105 63//63
f 166//166 136//136 127//127
f 62//62 1//1 61//61
f 81//81 70//70 83//83
f 80//80 112//112 166//166
f 135//135 58//58 60//60
f 155//155 71//71 97//97
f 18//18 114//114 7//7
f 156//156 23//23 141//141
f 168//168 90//90 161//161
f 24//24 157//157 141//141
f 4//4 158//158 12//12
f 158//158 111//111 12//12
f 117//117 159//159 79//79
f 13//13 123//123 172//172
f 158//158 125//125 111//111
f 154//154 95//95 89//89
f 11//11 124//124 122//122
f 13//13 172//172 119//119
f 138//138 160//160 20//20
f 160//160 120//120 20//20
f 161//161 171//171 168//168
f 152//152 157//157 24//24
f 156//156 157//157 106//106
f 11//11 162//162 134//134
f 162//162 121//121 134//134
f 163//163 144//144 29//29
f 164//164 118//118 14//14
f 150//150 165//165 163//163
f 166//166 112//112 136//136
f 167//167 116//116 115//115
f 162//162 45//45 27//27
f 167//167 5//5 116//116
f 170//170 130//130 44//44
f 80//80 92//92 115//115
f 80//80 115//115 112//112
f 24//24 169//169 73//73
f 170//170 88//88 49//49
f 88//88 170//170 93//93
f 102//102 171//171 19//19
f 119//119 172//172 2//2
f 173//173 155//155 84//84
f 43//43 173//173 36//36
# 288 faces, 0 coords texture

# End of File
