####
#
# OBJ File Generated by Meshlab
#
####
# Object 313S.obj
#
# Vertices: 117
# Faces: 191
#
####
vn 4.117292 -0.142536 -4.743925
v -37.243655 -20.593093 31.901405
vn 4.161088 -0.164090 -4.704811
v -31.740896 -17.250079 36.616437
vn 4.104000 -0.027471 -4.757523
v -31.943017 -3.981661 36.193050
vn 4.128713 -0.179468 -4.732523
v -35.117127 -18.942893 33.691558
vn 4.145546 -0.165134 -4.718638
v -33.961484 -17.675853 34.667075
vn 4.040089 -0.085497 -4.810999
v -39.427707 -16.828304 29.941583
vn 4.064294 -0.066522 -4.790894
v -36.243759 -11.144623 32.531647
vn 4.060485 -0.015862 -4.794841
v -36.323865 -5.652550 32.440966
vn 4.086508 0.021223 -4.772564
v -30.102935 -0.922219 37.770382
vn 4.104292 -0.081510 -4.756676
v -34.567776 -10.407752 33.959239
vn 4.101793 0.057682 -4.759194
v -30.458055 0.774558 37.478826
vn 4.109722 -0.023369 -4.752632
v -34.032016 -8.534129 34.401769
vn 4.065047 -0.032744 -4.790133
v -35.664487 -9.191663 32.994033
vn 4.043958 -0.029107 -4.808734
v -37.665169 -6.219709 31.312136
vn 4.096266 0.047933 -4.764096
v -33.067274 -0.088625 35.216686
vn 4.045410 0.007088 -4.807531
v -37.411665 -2.300119 31.520725
vn 4.053186 -0.014961 -4.800926
v -37.625402 -4.357650 31.331753
vn 4.076883 -0.021357 -4.780889
v -34.589263 -2.870984 33.909743
vn 4.159094 -0.176988 -4.706103
v -35.878235 -21.835694 33.138540
vn 1.795941 0.025767 -2.144557
v -37.201287 4.928726 31.724911
vn 2.049907 -0.057817 -2.345690
v -31.553900 -11.863500 36.612800
vn 1.898032 -0.081551 -2.144957
v -31.090950 -18.192400 37.223050
vn 1.915137 -0.015328 -2.293411
v -39.111494 -5.678049 30.095372
vn 1.709974 0.037254 -1.956455
v -34.110500 6.124010 34.392300
vn 1.821669 -0.070337 -2.093798
v -37.579054 -22.546977 31.672822
vn 1.849426 -0.030074 -2.200636
v -39.690000 -12.149350 29.650850
vn 2.614635 -0.060244 -2.987083
v -32.095100 -10.406000 36.110100
vn 1.830799 0.028502 -2.130849
v -29.969389 2.520202 37.920237
vn 1.889780 -0.002681 -2.222679
v -29.810100 -6.227890 38.015800
vn 1.914015 -0.000171 -2.262898
v -29.245750 -4.772455 38.492400
vn 1.909233 -0.061482 -2.180189
v -31.089050 -13.217800 37.057500
vn 1.845850 -0.039944 -2.211881
v -40.678450 -15.810750 28.886750
vn 1.852025 -0.041336 -2.203049
v -40.405650 -14.054300 29.075550
vn 1.880850 0.000448 -2.235105
v -28.881000 -3.187810 38.798400
vn 1.796825 -0.045028 -2.157962
v -40.578100 -17.887350 29.008400
vn 1.778711 0.009960 -2.108100
v -28.777200 -1.274980 38.887700
vn 1.954091 0.023850 -2.296331
v -29.195850 0.387842 38.552600
vn 2.545636 -0.019420 -3.037025
v -38.084400 -9.943170 30.986500
vn 1.922605 -0.084051 -2.202717
v -30.865500 -17.097500 37.374400
vn 1.829646 -0.050157 -2.170584
v -39.902155 -19.987762 29.614162
vn 1.928928 0.014523 -2.347981
v -38.432900 3.414780 30.691800
vn 1.756294 0.009976 -2.158726
v -39.083800 2.441980 30.160200
vn 1.905766 -0.097385 -2.150054
v -32.017650 -20.271900 36.484600
vn 1.151104 0.035125 -1.341614
v -35.637500 6.394750 33.080100
vn 2.427387 0.053351 -2.848261
v -35.995200 5.619640 32.752900
vn 2.394499 0.054978 -2.764034
v -34.801100 5.981060 33.786900
vn 1.791454 0.021355 -2.179662
v -39.924800 -2.436115 29.419500
vn 2.031086 -0.015940 -2.383218
v -30.716561 -7.654810 37.249770
vn 2.371497 -0.016664 -2.828529
v -38.068100 -7.942680 30.983900
vn 4.038176 0.038410 -4.813280
v -36.758852 3.318530 32.075955
vn 4.124886 -0.102058 -4.738467
v -33.894376 -13.204369 34.603009
vn 4.060080 0.020714 -4.795151
v -36.189701 1.488835 32.551094
vn 4.063522 -0.088042 -4.790916
v -36.679482 -13.145576 32.187736
vn 4.069685 -0.114864 -4.785664
v -36.892161 -15.485052 32.068986
vn 4.121376 0.053139 -4.742312
v -34.057603 3.169910 34.390724
vn 1.986161 0.041026 -2.279354
v -32.650050 5.333520 35.656300
vn 4.023257 -0.032909 -4.826042
v -37.181260 -9.659382 31.736725
vn 4.054473 -0.084638 -4.799192
v -38.602892 -15.399634 30.617819
vn 4.086917 -0.014437 -4.772333
v -31.696960 -6.074640 36.408124
vn 4.156462 -0.212686 -4.707091
v -34.629378 -21.024914 34.215303
vn 4.152067 -0.207705 -4.711170
v -33.577528 -19.859219 35.087078
vn 4.111308 0.037037 -4.750946
v -31.531274 -0.348560 36.530019
vn 4.138534 -0.124392 -4.725759
v -33.970835 -15.332298 34.576496
vn 4.097413 -0.025574 -4.763269
v -33.253615 -4.580782 35.065076
vn 4.105209 -0.100433 -4.755486
v -35.325818 -14.280535 33.378655
vn 4.161762 -0.178086 -4.703652
v -32.579503 -18.432509 35.905085
vn 4.161113 -0.152307 -4.705286
v -32.719750 -16.469382 35.716126
vn 1.825646 -0.058758 -2.131101
v -38.928000 -21.501600 30.477800
vn 4.096231 0.031970 -4.764202
v -34.504307 1.095039 33.985710
vn 1.848188 -0.085309 -2.082405
v -35.839000 -22.922850 33.217900
vn 4.117447 0.071583 -4.745487
v -32.517242 3.501324 35.739574
vn 2.283319 -0.033445 -2.633432
v -31.756900 -9.247335 36.385500
vn 4.099227 -0.013202 -4.761356
v -32.802958 -2.126270 35.424951
vn 1.858487 0.033605 -2.156897
v -31.363600 4.397665 36.748400
vn 4.020848 0.012406 -4.827476
v -38.763934 -3.253007 30.367664
vn 4.147678 -0.124435 -4.718003
v -32.564221 -14.306099 35.794319
vn 4.091979 -0.134978 -4.766086
v -36.759032 -17.962208 32.246877
vn 4.064877 0.000918 -4.791099
v -29.823275 -2.877463 38.005534
vn 3.973873 0.027782 -4.866792
v -38.467621 0.690493 30.650407
vn 4.040506 -0.051652 -4.811421
v -37.855119 -11.603589 31.188454
vn 4.060017 -0.010556 -4.795235
v -35.963699 -1.757051 32.736182
vn 4.030724 0.008349 -4.819574
v -37.129288 -0.209545 31.746672
vn 4.076924 -0.106481 -4.779710
v -38.064350 -17.098250 31.108732
vn 1.916250 -0.068693 -2.198285
v -30.800622 -15.294085 37.367313
vn 4.108340 -0.091948 -4.753028
v -35.094820 -12.258055 33.545686
vn 4.060480 -0.110264 -4.793480
v -39.045933 -18.616147 30.304201
vn 4.078719 -0.000176 -4.779254
v -35.184734 -7.235163 33.406005
vn 4.001628 0.041813 -4.843838
v -38.618542 -1.149971 30.514965
vn 4.003261 0.026492 -4.842515
v -37.693072 1.891873 31.290331
vn 4.105158 -0.014532 -4.756660
v -33.483221 -6.791491 34.873560
vn 4.064172 -0.006967 -4.791713
v -36.151261 -3.565185 32.580131
vn 4.085889 0.031538 -4.773007
v -35.411851 2.883952 33.216326
vn 4.107519 -0.015184 -4.754574
v -31.098228 -2.394814 36.912774
vn 4.087237 -0.009500 -4.772065
v -34.737961 -5.107730 33.789190
vn 4.070044 0.012896 -4.786720
v -35.613602 -0.238689 33.032622
vn 4.134792 -0.117669 -4.729471
v -32.503070 -12.347960 35.795257
vn 1.827944 0.021767 -2.242994
v -39.732899 0.156520 29.620250
vn 1.959507 -0.021384 -2.311936
v -38.732650 -10.726100 30.436050
vn 1.882324 -0.099750 -2.119882
v -34.295700 -22.513850 34.583150
vn 4.090014 0.066859 -4.768945
v -35.438285 4.498563 33.207888
vn 1.888330 -0.103919 -2.139450
v -33.071300 -21.636900 35.619800
vn 1.877122 -0.007365 -2.295413
v -39.685000 -3.862920 29.616400
vn 4.038614 -0.013342 -4.813281
v -36.773987 -7.678172 32.068948
vn 4.144239 -0.151613 -4.720214
v -31.600835 -15.651831 36.680944
vn 4.044698 -0.086050 -4.807414
v -38.118719 -13.935285 31.001765
vn 4.102992 0.069701 -4.758045
v -31.427058 2.085321 36.659532
vn 4.119759 -0.102630 -4.742845
v -33.523234 -11.297504 34.878823
vn 4.104709 -0.031957 -4.756898
v -32.415612 -8.002103 35.804029
vn 4.123556 -0.057246 -4.740145
v -33.039368 -9.590706 35.267096
vn 4.106866 -0.137723 -4.752968
v -35.347129 -16.592867 33.415250
vn 4.131647 -0.163938 -4.730813
v -36.168488 -20.157257 32.829336
vn 4.048087 -0.071899 -4.804803
v -39.022033 -12.778512 30.220811
vn 4.079107 0.007052 -4.778948
v -34.450080 -1.106471 34.020790
vn 4.077033 -0.003895 -4.780778
v -30.600907 -4.389139 37.344381
vn 4.131327 0.077941 -4.733300
v -33.971310 4.696390 34.486770
vn 4.108776 0.062391 -4.753129
v -32.715800 1.550299 35.540740
vn 4.089067 -0.121222 -4.768978
v -38.031433 -19.170646 31.186054
# 117 vertices, 0 vertices normals

f 60//60 4//4 61//61
f 85//85 10//10 107//107
f 52//52 50//50 92//92
f 106//106 11//11 62//62
f 114//114 30//30 29//29
f 105//105 112//112 80//80
f 7//7 53//53 80//80
f 63//63 76//76 67//67
f 13//13 12//12 10//10
f 13//13 103//103 87//87
f 15//15 69//69 116//116
f 73//73 113//113 15//15
f 8//8 91//91 94//94
f 76//76 51//51 96//96
f 46//46 45//45 44//44
f 1//1 111//111 19//19
f 36//36 9//9 37//37
f 113//113 95//95 69//69
f 2//2 39//39 22//22
f 100//100 45//45 46//46
f 14//14 103//103 49//49
f 87//87 94//94 90//90
f 53//53 85//85 65//65
f 56//56 74//74 71//71
f 27//27 21//21 96//96
f 61//61 66//66 43//43
f 13//13 7//7 57//57
f 60//60 111//111 4//4
f 62//62 9//9 93//93
f 65//65 63//63 110//110
f 63//63 67//67 5//5
f 86//86 117//117 68//68
f 51//51 85//85 107//107
f 52//52 89//89 50//50
f 5//5 67//67 66//66
f 3//3 64//64 73//73
f 62//62 11//11 9//9
f 55//55 115//115 71//71
f 72//72 27//27 109//109
f 74//74 28//28 106//106
f 11//11 106//106 28//28
f 52//52 82//82 89//89
f 22//22 66//66 2//2
f 43//43 66//66 22//22
f 17//17 75//75 16//16
f 31//31 96//96 21//21
f 36//36 78//78 9//9
f 34//34 78//78 36//36
f 109//109 27//27 107//107
f 72//72 109//109 108//108
f 53//53 105//105 80//80
f 57//57 7//7 80//80
f 12//12 90//90 108//108
f 90//90 59//59 108//108
f 6//6 86//86 35//35
f 111//111 60//60 19//19
f 11//11 28//28 37//37
f 82//82 79//79 89//89
f 57//57 38//38 49//49
f 103//103 57//57 49//49
f 95//95 81//81 82//82
f 52//52 95//95 82//82
f 2//2 104//104 39//39
f 84//84 39//39 104//104
f 7//7 13//13 10//10
f 17//17 8//8 14//14
f 3//3 114//114 59//59
f 35//35 86//86 40//40
f 94//94 87//87 8//8
f 8//8 103//103 14//14
f 69//69 95//95 52//52
f 49//49 23//23 14//14
f 32//32 6//6 35//35
f 20//20 50//50 41//41
f 53//53 7//7 85//85
f 65//65 85//85 51//51
f 90//90 94//94 64//64
f 90//90 64//64 59//59
f 91//91 16//16 81//81
f 87//87 103//103 8//8
f 52//52 92//92 69//69
f 114//114 78//78 30//30
f 93//93 3//3 73//73
f 93//93 73//73 62//62
f 93//93 114//114 3//3
f 116//116 71//71 106//106
f 92//92 55//55 69//69
f 62//62 15//15 116//116
f 41//41 89//89 42//42
f 60//60 99//99 19//19
f 62//62 73//73 15//15
f 64//64 18//18 73//73
f 64//64 94//94 18//18
f 18//18 94//94 91//91
f 76//76 96//96 31//31
f 84//84 104//104 31//31
f 104//104 76//76 31//31
f 67//67 76//76 104//104
f 58//58 32//32 33//33
f 100//100 46//46 115//115
f 97//97 42//42 79//79
f 57//57 80//80 38//38
f 98//98 38//38 80//80
f 9//9 11//11 37//37
f 81//81 16//16 82//82
f 68//68 117//117 1//1
f 68//68 1//1 25//25
f 78//78 34//34 30//30
f 15//15 113//113 69//69
f 5//5 61//61 4//4
f 66//66 61//61 5//5
f 59//59 64//64 3//3
f 8//8 17//17 91//91
f 91//91 17//17 16//16
f 81//81 18//18 91//91
f 54//54 77//77 83//83
f 58//58 83//83 6//6
f 6//6 83//83 86//86
f 99//99 70//70 19//19
f 108//108 48//48 72//72
f 78//78 93//93 9//9
f 100//100 50//50 20//20
f 100//100 20//20 45//45
f 50//50 100//100 92//92
f 92//92 100//100 55//55
f 43//43 101//101 61//61
f 60//60 61//61 101//101
f 101//101 99//99 60//60
f 2//2 66//66 67//67
f 13//13 87//87 12//12
f 12//12 87//87 90//90
f 16//16 75//75 88//88
f 23//23 75//75 17//17
f 75//75 23//23 102//102
f 102//102 47//47 75//75
f 59//59 29//29 48//48
f 47//47 88//88 75//75
f 88//88 47//47 97//97
f 97//97 79//79 88//88
f 16//16 88//88 82//82
f 82//82 88//88 79//79
f 57//57 103//103 13//13
f 104//104 2//2 67//67
f 17//17 14//14 23//23
f 32//32 58//58 6//6
f 89//89 79//79 42//42
f 50//50 89//89 41//41
f 19//19 25//25 1//1
f 33//33 112//112 105//105
f 70//70 25//25 19//19
f 83//83 58//58 54//54
f 53//53 65//65 54//54
f 63//63 65//65 51//51
f 7//7 10//10 85//85
f 59//59 114//114 29//29
f 76//76 63//63 51//51
f 110//110 63//63 5//5
f 51//51 107//107 96//96
f 27//27 96//96 107//107
f 12//12 109//109 10//10
f 107//107 10//10 109//109
f 109//109 12//12 108//108
f 108//108 59//59 48//48
f 105//105 53//53 54//54
f 54//54 110//110 77//77
f 83//83 77//77 117//117
f 26//26 112//112 33//33
f 18//18 113//113 73//73
f 65//65 110//110 54//54
f 110//110 4//4 77//77
f 111//111 77//77 4//4
f 105//105 58//58 33//33
f 80//80 112//112 98//98
f 95//95 113//113 81//81
f 5//5 4//4 110//110
f 113//113 18//18 81//81
f 112//112 26//26 98//98
f 78//78 114//114 93//93
f 55//55 71//71 116//116
f 55//55 116//116 69//69
f 24//24 56//56 115//115
f 115//115 56//56 71//71
f 74//74 106//106 71//71
f 100//100 115//115 55//55
f 24//24 115//115 46//46
f 62//62 116//116 106//106
f 86//86 68//68 40//40
f 77//77 1//1 117//117
f 1//1 77//77 111//111
f 58//58 105//105 54//54
f 83//83 117//117 86//86
# 191 faces, 0 coords texture

# End of File
