####
#
# OBJ File Generated by Meshlab
#
####
# Object 321S.obj
#
# Vertices: 178
# Faces: 296
#
####
vn 3.517579 -0.134256 -5.203640
v -52.730714 25.710336 20.632289
vn 3.643285 -0.144429 -5.116706
v -50.833087 25.634378 21.958529
vn 3.301469 -0.045314 -5.345576
v -54.683913 15.730816 19.580479
vn 3.382806 -0.115426 -5.293130
v -54.498417 25.866790 19.471863
vn 3.321091 -0.105686 -5.332210
v -54.517091 19.103919 19.625836
vn 3.104903 -0.016466 -5.462219
v -59.053026 3.017349 17.045890
vn 3.171292 -0.015174 -5.423574
v -57.310344 3.606915 18.035228
vn 3.540703 0.024098 -5.189645
v -49.903780 -3.157841 22.714344
vn 3.237923 -0.084953 -5.383793
v -55.602713 17.513019 18.996383
vn 3.432364 -0.128083 -5.260758
v -53.904566 21.938398 19.951771
vn 3.303468 0.014032 -5.344588
v -54.329335 -0.516801 19.854979
vn 3.495791 -0.059056 -5.219802
v -51.820883 17.085960 21.389729
vn 3.462586 0.028678 -5.242331
v -51.994326 4.299554 21.323587
vn 3.767322 -0.104167 -5.027352
v -49.344713 28.833467 22.969061
vn 3.451498 -0.005413 -5.248644
v -51.658957 -0.249709 21.526837
vn 3.254631 0.038860 -5.374353
v -55.777975 -5.789190 18.951206
vn 3.735295 -0.007693 -5.052124
v -47.626407 14.481714 24.385434
vn 3.661639 -0.131780 -5.103641
v -50.765223 29.302926 21.906187
vn 3.675702 0.039673 -5.094751
v -47.972446 11.163073 24.096762
vn 3.289591 -0.025992 -5.352912
v -54.652499 1.606458 19.642998
vn 3.139112 -0.002716 -5.442660
v -58.020695 -2.061615 17.659676
vn 3.522220 -0.034479 -5.202970
v -50.587494 10.262325 22.292787
vn 3.178184 -0.132881 -5.418235
v -56.496672 19.598717 18.420503
vn 3.762769 -0.054856 -5.031129
v -48.096475 23.638944 23.990966
vn 3.226409 -0.014476 -5.391434
v -56.043070 0.224928 18.811192
vn 3.374659 -0.035933 -5.299600
v -53.604126 9.646554 20.302510
vn 3.094492 0.066529 -5.467580
v -58.663710 -4.153392 17.267147
vn 3.702137 -0.125470 -5.074610
v -50.027290 27.418132 22.488854
vn 3.758569 -0.001901 -5.034783
v -48.059730 19.958058 24.046262
vn 3.389669 0.002894 -5.290277
v -52.988546 -5.430172 20.688477
vn 3.373487 -0.010140 -5.300262
v -52.866430 -1.448970 20.759838
vn 3.170300 -0.031593 -5.424531
v -57.792649 -0.009491 17.775316
vn 3.266247 -0.078510 -5.366796
v -55.490136 29.500072 18.792717
vn 3.327984 -0.102283 -5.327816
v -55.117575 27.801996 19.035704
vn 3.548084 0.023538 -5.185437
v -50.552884 1.184215 22.292669
vn 3.589831 0.021865 -5.156548
v -49.068326 0.568016 23.309296
vn 3.240227 0.018781 -5.382537
v -55.430922 -1.963726 19.164094
vn 2.140130 -0.026062 -3.509009
v -56.262800 9.785040 18.662400
vn 1.768331 0.014399 -2.553604
v -49.418850 4.433090 23.080500
vn 1.939598 -0.013230 -2.546048
v -46.273670 15.433939 25.400422
vn 1.365542 0.027157 -2.579530
v -61.225750 -3.055020 15.895700
vn 1.615355 -0.009718 -2.244750
v -47.748200 -1.938740 24.254200
vn 2.613526 0.024707 -3.893153
v -51.063100 7.009510 21.968600
vn 1.422959 0.019543 -2.106982
v -49.938500 7.630050 22.734500
vn 1.687838 0.017829 -2.252648
v -46.132700 13.367600 25.493400
vn 1.313069 -0.026687 -2.513584
v -61.651425 0.655173 15.663859
vn 1.554300 -0.005543 -2.429125
v -53.152400 -7.204920 20.591800
vn 1.448602 -0.043271 -2.530124
v -60.146000 4.650410 16.393100
vn 1.990166 0.018955 -2.936466
v -50.650300 5.847280 22.246900
vn 1.367480 -0.037954 -2.508967
v -61.016950 3.097740 15.952050
vn 1.624461 0.013858 -2.281399
v -48.443750 -3.662485 23.745800
vn 1.463117 0.041927 -2.522797
v -58.187050 -6.776175 17.500850
vn 1.386225 -0.056734 -2.289416
v -55.973900 30.480700 18.475500
vn 1.353678 0.014506 -2.332298
v -58.997300 14.533550 17.008550
vn 2.166937 -0.001880 -3.539069
v -56.569400 7.115000 18.476600
vn 1.991685 0.009690 -2.578441
v -46.316834 17.997598 25.363253
vn 1.591392 0.022374 -2.208886
v -47.188550 9.760845 24.646850
vn 1.612383 -0.055848 -2.412347
v -52.645600 31.331300 20.548800
vn 1.386362 -0.061974 -2.378340
v -57.945050 26.207900 17.386100
vn 1.567167 0.016727 -2.508735
v -54.578750 -7.445205 19.670150
vn 1.782081 -0.025383 -2.268879
v -46.527050 26.375950 25.186800
vn 1.495407 -0.032762 -2.465372
v -57.206000 10.759300 18.074300
vn 1.384461 -0.027873 -2.385891
v -57.501400 28.339200 17.596550
vn 1.647020 0.027333 -2.444249
v -49.667150 -5.118550 22.856500
vn 1.628139 0.014057 -2.314810
v -48.005900 2.230810 24.066500
vn 1.741390 -0.086900 -3.038709
v -57.466150 21.188100 17.824900
vn 2.128927 0.015556 -3.144580
v -49.785500 7.937840 22.840500
vn 1.517893 -0.020864 -2.541429
v -56.733400 29.615000 18.044000
vn 1.339077 -0.025489 -2.245023
v -57.736900 6.504700 17.763800
vn 1.890148 -0.063815 -3.247277
v -57.774500 6.445130 17.743100
vn 1.617889 0.029990 -2.497992
v -50.850350 -6.037740 22.063350
vn 1.343407 -0.029825 -2.326996
v -59.009000 5.958940 17.044300
vn 3.669929 -0.082590 -5.099208
v -49.712201 23.774283 22.817220
vn 3.177119 0.065659 -5.419994
v -57.583041 -5.630124 17.870197
vn 3.539114 -0.038553 -5.191130
v -51.565640 20.470689 21.538134
vn 3.670979 -0.016659 -5.099141
v -49.161069 18.226183 23.246456
vn 3.528701 -0.142290 -5.196214
v -52.352047 29.467398 20.794439
vn 1.660486 -0.000816 -2.696661
v -56.362900 8.782180 18.598900
vn 3.450799 0.004582 -5.250020
v -51.903388 2.032583 21.376977
vn 3.314284 -0.150711 -5.335348
v -55.128316 22.755294 19.153157
vn 3.319409 -0.134511 -5.331899
v -55.258613 24.432092 19.018234
vn 3.763520 0.017879 -5.030465
v -47.514340 18.123829 24.441503
vn 3.231290 -0.024551 -5.388416
v -56.168541 2.230003 18.722052
vn 3.578610 -0.137384 -5.162246
v -51.716705 27.572286 21.284072
vn 3.528090 -0.092327 -5.198208
v -52.424186 22.127566 20.942169
vn 3.572963 -0.014037 -5.168192
v -49.042381 9.608767 23.347799
vn 3.546902 0.003772 -5.185869
v -50.204822 -0.994604 22.514111
vn 3.645922 0.024937 -5.116705
v -48.708461 12.756746 23.583607
vn 1.782273 -0.009132 -2.260672
v -46.044550 24.592000 25.576450
vn 3.466218 -0.041351 -5.239975
v -52.185336 11.098943 21.207673
vn 3.280785 0.011353 -5.358605
v -55.394548 6.265443 19.195896
vn 3.227595 -0.022623 -5.390409
v -56.962004 5.568277 18.236630
vn 3.438788 -0.088787 -5.257689
v -53.388909 20.464860 20.325781
vn 1.497903 0.022307 -2.486137
v -56.478850 -7.350360 18.513250
vn 3.614492 -0.040089 -5.139147
v -50.555052 22.127067 22.231357
vn 3.510627 0.013566 -5.210798
v -50.373197 8.492505 22.448925
vn 3.231386 -0.129005 -5.386539
v -56.267830 25.876326 18.375343
vn 3.213738 0.020384 -5.398900
v -57.574586 13.760490 17.832267
vn 1.508910 0.004787 -2.529687
v -58.333501 12.728563 17.373674
vn 3.464410 -0.001681 -5.241619
v -52.069195 8.601106 21.310936
vn 1.555043 -0.048308 -2.470376
v -54.219275 31.152217 19.533201
vn 3.735327 -0.111226 -5.050912
v -48.975920 25.572821 23.313093
vn 3.589038 -0.128215 -5.155491
v -51.626766 23.862700 21.452374
vn 1.774070 -0.046507 -2.305084
v -47.461000 28.185250 24.410500
vn 1.698618 -0.054864 -2.333613
v -50.317650 30.738500 22.195200
vn 3.353327 -0.027382 -5.312893
v -54.060373 14.027179 19.970583
vn 3.791538 -0.028873 -5.008957
v -47.166850 16.426499 24.700854
vn 3.687058 -0.031931 -5.087175
v -48.470599 16.312135 23.744129
vn 3.458181 -0.041659 -5.245464
v -52.440119 13.413642 21.024679
vn 3.529059 -0.056898 -5.197895
v -51.176947 14.965428 21.855510
vn 3.299569 0.005519 -5.346713
v -54.612397 -4.131477 19.664600
vn 3.268024 0.000431 -5.366342
v -55.342594 3.959316 19.219563
vn 3.350156 -0.008143 -5.315037
v -53.408848 2.963285 20.409110
vn 1.735623 -0.060669 -2.490467
v -51.665200 31.159300 21.226200
vn 3.401424 -0.005164 -5.282698
v -52.820522 -3.439138 20.797820
vn 3.452243 -0.051653 -5.249031
v -52.677812 18.862930 20.805461
vn 3.023708 -0.044169 -5.505423
v -59.492729 -0.676230 16.794713
vn 1.571877 -0.078218 -2.710853
v -57.687600 24.224900 17.589650
vn 3.169893 0.018267 -5.424776
v -57.889384 15.462882 17.652528
vn 3.299116 -0.142876 -5.344379
v -55.058201 20.859460 19.242023
vn 1.745736 -0.052783 -2.310185
v -48.642550 29.578150 23.482650
vn 3.579109 -0.036760 -5.163711
v -50.834224 18.705556 22.054748
vn 3.448905 0.039861 -5.251431
v -52.287029 6.401411 21.146127
vn 3.295346 -0.061722 -5.349276
v -55.282126 10.629338 19.250608
vn 3.720639 -0.029297 -5.062540
v -48.785183 21.893464 23.496469
vn 3.572186 -0.004159 -5.168670
v -49.403044 11.278541 23.093464
vn 3.844226 -0.042183 -4.969503
v -47.350208 25.174557 24.546736
vn 3.167681 -0.058657 -5.425724
v -57.319039 17.447263 17.990461
vn 1.413315 -0.000852 -2.444126
v -58.914475 16.673672 17.068881
vn 3.190623 -0.167147 -5.409551
v -56.459694 23.736780 18.313719
vn 1.591175 -0.054002 -2.757024
v -58.079700 19.151100 17.520800
vn 3.349322 0.018509 -5.315669
v -53.902752 7.425207 20.115355
vn 1.348546 -0.012459 -2.583776
v -61.606850 -1.419705 15.704350
vn 3.854038 -0.046583 -4.961642
v -46.875419 23.416523 24.924328
vn 1.803198 -0.014388 -2.315614
v -45.924750 22.369350 25.682400
vn 1.934709 0.009586 -2.526487
v -46.161450 20.139650 25.493650
vn 3.279479 -0.042577 -5.358754
v -55.760086 12.526298 18.925728
vn 1.334730 0.033443 -2.454444
v -60.355500 -4.929205 16.326250
vn 1.420538 0.040304 -2.529629
v -59.206500 -6.130960 16.937100
vn 3.456531 -0.020880 -5.246843
v -51.361812 -2.430505 21.754213
vn 3.344375 -0.008835 -5.319115
v -53.106333 0.702568 20.617884
vn 3.339826 0.020455 -5.321369
v -53.735742 5.191502 20.205504
vn 3.452150 -0.130352 -5.248056
v -53.511765 27.684391 20.073651
vn 3.544971 -0.026883 -5.187463
v -50.602139 12.601866 22.269818
vn 3.417230 -0.060537 -5.272116
v -52.854799 15.570654 20.737242
vn 3.652898 -0.030080 -5.111470
v -49.745574 20.236811 22.805798
vn 3.267447 -0.002915 -5.366734
v -55.584935 14.150516 19.033866
vn 3.358736 -0.082205 -5.308910
v -53.687559 17.384241 20.172370
vn 3.462347 -0.137943 -5.240736
v -53.630166 23.809714 20.084591
vn 3.746533 0.045798 -5.043609
v -47.311129 12.569016 24.601434
vn 1.727954 0.031403 -2.301436
v -46.554741 11.223183 25.161303
vn 3.540948 0.020814 -5.190169
v -50.668421 3.377780 22.213990
vn 1.633251 -0.000245 -2.318380
v -47.597322 0.016438 24.338258
vn 1.629614 -0.100788 -2.836201
v -57.494900 22.768900 17.753700
vn 1.668877 0.011331 -2.366818
v -48.536000 3.332120 23.699800
vn 3.328957 0.009243 -5.328642
v -54.045382 -2.310827 20.018681
vn 3.434260 0.031098 -5.261448
v -51.319496 -4.671388 21.775899
vn 1.641335 -0.008410 -2.352749
v -48.531650 8.530890 23.707950
vn 1.691149 0.005048 -2.635935
v -52.129600 -6.695300 21.240500
vn 3.176765 -0.165183 -5.418177
v -56.416439 21.782460 18.407647
vn 3.379379 -0.118111 -5.294614
v -53.975624 29.568922 19.717677
vn 3.343571 0.015162 -5.319401
v -54.186671 -6.042837 19.926604
vn 3.630463 -0.032888 -5.127757
v -49.454783 14.543748 23.053635
vn 3.190555 0.034045 -5.412602
v -56.694967 -3.679982 18.416748
vn 3.629570 -0.002110 -5.128697
v -48.783153 -1.542431 23.507717
vn 3.366308 -0.053532 -5.304764
v -53.868736 11.991909 20.112077
vn 3.589361 0.018090 -5.156880
v -49.369837 2.465055 23.107698
vn 3.214343 -0.077649 -5.396817
v -56.581211 27.939328 18.135180
vn 3.008291 0.017093 -5.515713
v -59.679247 -2.713846 16.717974
vn 3.294783 -0.009752 -5.350007
v -55.231529 8.408962 19.295662
vn 3.816353 -0.034276 -4.991175
v -47.277381 21.853946 24.639022
vn 3.229513 -0.014511 -5.389597
v -56.515130 15.562749 18.469859
vn 3.607818 -0.036526 -5.143636
v -50.145711 16.677528 22.547364
vn 3.803325 -0.095632 -4.999880
v -48.340955 27.041068 23.753230
vn 3.161852 -0.024640 -5.429380
v -57.678163 1.878991 17.830659
vn 3.168204 0.002252 -5.425899
v -56.711040 -1.470241 18.418735
vn 3.143009 -0.044572 -5.440216
v -58.574242 4.613316 17.312538
vn 3.041997 -0.014527 -5.496136
v -59.503657 1.561296 16.779646
# 178 vertices, 0 vertices normals

f 161//161 101//101 58//58
f 161//161 33//33 101//101
f 7//7 83//83 175//175
f 82//82 108//108 76//76
f 141//141 79//79 15//15
f 75//75 93//93 85//85
f 5//5 9//9 23//23
f 149//149 85//85 10//10
f 120//120 80//80 10//10
f 100//100 90//90 22//22
f 109//109 166//166 106//106
f 170//170 132//132 91//91
f 77//77 18//18 84//84
f 134//134 135//135 171//171
f 29//29 136//136 82//82
f 171//171 29//29 125//125
f 27//27 74//74 139//139
f 111//111 162//162 16//16
f 15//15 140//140 31//31
f 97//97 4//4 81//81
f 31//31 11//11 141//141
f 147//147 98//98 172//172
f 123//123 13//13 142//142
f 96//96 67//67 44//44
f 152//152 79//79 13//13
f 109//109 144//144 90//90
f 103//103 1//1 2//2
f 92//92 70//70 69//69
f 111//111 115//115 30//30
f 111//111 156//156 115//115
f 37//37 11//11 156//156
f 122//122 75//75 146//146
f 78//78 38//38 170//170
f 81//81 80//80 130//130
f 44//44 43//43 96//96
f 22//22 86//86 96//96
f 87//87 15//15 35//35
f 134//134 89//89 135//135
f 39//39 152//152 49//49
f 128//128 23//23 9//9
f 92//92 91//91 112//112
f 120//120 10//10 93//93
f 74//74 164//164 16//16
f 94//94 52//52 74//74
f 75//75 95//95 146//146
f 22//22 96//96 100//100
f 12//12 122//122 173//173
f 177//177 48//48 72//72
f 151//151 19//19 150//150
f 8//8 51//51 64//64
f 26//26 90//90 100//100
f 6//6 50//50 48//48
f 77//77 161//161 58//58
f 28//28 102//102 2//2
f 103//103 85//85 149//149
f 104//104 61//61 174//174
f 18//18 105//105 14//14
f 28//28 174//174 102//102
f 92//92 55//55 91//91
f 105//105 121//121 14//14
f 164//164 27//27 21//21
f 17//17 108//108 107//107
f 82//82 107//107 108//108
f 76//76 108//108 173//173
f 15//15 79//79 35//35
f 167//167 36//36 35//35
f 88//88 19//19 126//126
f 57//57 86//86 19//19
f 86//86 57//57 158//158
f 7//7 92//92 112//112
f 112//112 83//83 7//7
f 114//114 105//105 18//18
f 86//86 22//22 126//126
f 86//86 126//126 19//19
f 6//6 7//7 175//175
f 178//178 175//175 32//32
f 97//97 130//130 118//118
f 118//118 59//59 97//97
f 97//97 59//59 168//168
f 142//142 132//132 123//123
f 94//94 16//16 60//60
f 9//9 3//3 172//172
f 160//160 120//120 23//23
f 14//14 121//121 104//104
f 104//104 174//174 14//14
f 174//174 61//61 127//127
f 13//13 79//79 113//113
f 20//20 112//112 113//113
f 83//83 112//112 20//20
f 20//20 11//11 25//25
f 164//164 37//37 111//111
f 76//76 122//122 146//146
f 100//100 96//96 43//43
f 76//76 29//29 82//82
f 2//2 73//73 103//103
f 73//73 2//2 102//102
f 26//26 124//124 166//166
f 95//95 125//125 146//146
f 133//133 117//117 169//169
f 62//62 137//137 124//124
f 95//95 75//75 85//85
f 85//85 93//93 10//10
f 22//22 144//144 126//126
f 23//23 128//128 131//131
f 5//5 23//23 120//120
f 24//24 73//73 102//102
f 95//95 73//73 125//125
f 89//89 127//127 61//61
f 89//89 134//134 127//127
f 172//172 128//128 9//9
f 128//128 129//129 131//131
f 156//156 111//111 37//37
f 118//118 130//130 154//154
f 131//131 66//66 23//23
f 80//80 149//149 10//10
f 22//22 90//90 144//144
f 130//130 97//97 81//81
f 109//109 90//90 166//166
f 38//38 124//124 170//170
f 124//124 26//26 170//170
f 157//157 140//140 8//8
f 56//56 107//107 82//82
f 84//84 18//18 28//28
f 125//125 24//24 171//171
f 171//171 135//135 136//136
f 29//29 171//171 136//136
f 82//82 136//136 56//56
f 137//137 62//62 99//99
f 55//55 170//170 91//91
f 55//55 78//78 170//170
f 132//132 100//100 123//123
f 41//41 169//169 138//138
f 52//52 139//139 74//74
f 139//139 138//138 27//27
f 56//56 40//40 107//107
f 17//17 107//107 40//40
f 124//124 137//137 166//166
f 153//153 36//36 65//65
f 140//140 157//157 115//115
f 15//15 87//87 140//140
f 31//31 140//140 115//115
f 79//79 141//141 113//113
f 113//113 141//141 20//20
f 20//20 141//141 11//11
f 113//113 142//142 13//13
f 97//97 34//34 4//4
f 4//4 34//34 143//143
f 126//126 144//144 88//88
f 112//112 91//91 142//142
f 91//91 132//132 142//142
f 15//15 31//31 141//141
f 109//109 145//145 110//110
f 29//29 76//76 146//146
f 83//83 25//25 175//175
f 3//3 147//147 172//172
f 98//98 147//147 137//137
f 147//147 3//3 106//106
f 166//166 137//137 106//106
f 66//66 160//160 23//23
f 28//28 2//2 84//84
f 102//102 174//174 127//127
f 20//20 25//25 83//83
f 9//9 5//5 148//148
f 148//148 3//3 9//9
f 1//1 149//149 4//4
f 49//49 123//123 43//43
f 150//150 88//88 17//17
f 150//150 17//17 45//45
f 150//150 45//45 151//151
f 68//68 53//53 33//33
f 168//168 63//63 68//68
f 151//151 57//57 19//19
f 1//1 143//143 84//84
f 13//13 49//49 152//152
f 152//152 167//167 35//35
f 116//116 122//122 12//12
f 143//143 34//34 161//161
f 34//34 33//33 161//161
f 152//152 35//35 79//79
f 153//153 42//42 165//165
f 160//160 66//66 154//154
f 154//154 130//130 160//160
f 1//1 103//103 149//149
f 2//2 1//1 84//84
f 110//110 144//144 109//109
f 162//162 111//111 30//30
f 30//30 115//115 157//157
f 39//39 155//155 167//167
f 112//112 142//142 113//113
f 4//4 149//149 81//81
f 81//81 149//149 80//80
f 165//165 36//36 153//153
f 4//4 143//143 1//1
f 144//144 110//110 163//163
f 110//110 145//145 12//12
f 115//115 156//156 31//31
f 37//37 25//25 11//11
f 156//156 11//11 31//31
f 177//177 70//70 92//92
f 157//157 64//64 71//71
f 96//96 86//86 67//67
f 158//158 67//67 86//86
f 159//159 157//157 71//71
f 30//30 159//159 47//47
f 159//159 30//30 157//157
f 72//72 70//70 177//177
f 178//178 46//46 50//50
f 162//162 47//47 60//60
f 130//130 80//80 160//160
f 152//152 39//39 167//167
f 45//45 17//17 40//40
f 133//133 46//46 117//117
f 120//120 160//160 80//80
f 33//33 34//34 168//168
f 168//168 34//34 97//97
f 162//162 30//30 47//47
f 33//33 53//53 101//101
f 88//88 150//150 19//19
f 177//177 92//92 7//7
f 16//16 162//162 60//60
f 68//68 33//33 168//168
f 123//123 49//49 13//13
f 36//36 167//167 65//65
f 54//54 129//129 119//119
f 144//144 163//163 88//88
f 163//163 173//173 108//108
f 87//87 165//165 8//8
f 140//140 87//87 8//8
f 88//88 163//163 17//17
f 17//17 163//163 108//108
f 77//77 58//58 114//114
f 128//128 172//172 119//119
f 18//18 77//77 114//114
f 24//24 102//102 127//127
f 36//36 165//165 87//87
f 55//55 92//92 69//69
f 36//36 87//87 35//35
f 12//12 173//173 110//110
f 24//24 127//127 134//134
f 163//163 110//110 173//173
f 103//103 73//73 95//95
f 164//164 111//111 16//16
f 125//125 29//29 146//146
f 8//8 165//165 51//51
f 5//5 120//120 93//93
f 165//165 42//42 51//51
f 103//103 95//95 85//85
f 77//77 84//84 143//143
f 62//62 124//124 38//38
f 157//157 8//8 64//64
f 77//77 143//143 161//161
f 21//21 176//176 164//164
f 26//26 166//166 90//90
f 167//167 155//155 65//65
f 148//148 116//116 12//12
f 74//74 16//16 94//94
f 106//106 3//3 145//145
f 116//116 93//93 75//75
f 63//63 168//168 59//59
f 116//116 75//75 122//122
f 106//106 145//145 109//109
f 3//3 148//148 145//145
f 32//32 117//117 178//178
f 74//74 27//27 164//164
f 73//73 24//24 125//125
f 169//169 41//41 133//133
f 137//137 147//147 106//106
f 100//100 43//43 123//123
f 128//128 119//119 129//129
f 32//32 25//25 176//176
f 148//148 12//12 145//145
f 171//171 24//24 134//134
f 18//18 14//14 28//28
f 76//76 173//173 122//122
f 170//170 26//26 132//132
f 172//172 98//98 119//119
f 5//5 93//93 116//116
f 5//5 116//116 148//148
f 14//14 174//174 28//28
f 27//27 138//138 169//169
f 175//175 25//25 32//32
f 21//21 27//27 169//169
f 21//21 169//169 117//117
f 26//26 100//100 132//132
f 32//32 176//176 21//21
f 176//176 37//37 164//164
f 176//176 25//25 37//37
f 117//117 46//46 178//178
f 177//177 6//6 48//48
f 7//7 6//6 177//177
f 6//6 175//175 178//178
f 54//54 119//119 98//98
f 98//98 137//137 99//99
f 178//178 50//50 6//6
f 117//117 32//32 21//21
f 54//54 98//98 99//99
# 296 faces, 0 coords texture

# End of File
