####
#
# OBJ File Generated by Meshlab
#
####
# Object 324S.obj
#
# Vertices: 111
# Faces: 181
#
####
vn 4.120525 -0.084746 -4.742621
v -35.688080 -12.842413 33.950439
vn 4.096580 -0.014264 -4.764032
v -30.704125 -3.749529 38.193152
vn 4.117927 -0.011290 -4.745615
v -32.157345 -4.559395 36.939264
vn 4.102844 0.042516 -4.758360
v -35.684253 1.838403 33.882330
vn 4.136395 -0.139210 -4.727423
v -36.115138 -19.213059 33.729546
vn 4.105960 -0.000053 -4.755993
v -34.768216 -4.386900 34.677207
vn 4.086658 -0.006875 -4.772552
v -37.015278 -2.568756 32.746034
vn 4.024325 0.045761 -4.824963
v -39.185241 -1.172394 30.904927
vn 4.075558 -0.101186 -4.780856
v -38.241812 -13.803789 31.760260
vn 4.075159 -0.080782 -4.781602
v -39.786846 -17.246873 30.508811
vn 4.113721 0.015891 -4.749081
v -32.017150 -0.819442 37.046943
vn 4.118158 -0.118192 -4.743910
v -37.713882 -19.419658 32.341454
vn 4.178060 -0.163889 -4.689862
v -32.993435 -18.333278 36.457555
vn 4.155461 -0.112678 -4.711443
v -33.245304 -13.926548 36.115330
vn 4.120419 -0.087027 -4.742675
v -35.225971 -11.228517 34.323660
vn 4.049037 -0.095538 -4.803575
v -39.442603 -13.298643 30.740072
vn 4.065673 -0.083665 -4.789727
v -39.343871 -15.322047 30.858726
vn 4.087389 -0.056957 -4.771417
v -36.881851 -11.056643 32.885340
vn 4.099962 -0.007657 -4.761085
v -31.012725 -5.691394 37.934562
vn 1.971978 -0.108304 -2.206890
v -32.882200 -21.005200 36.667900
vn 1.923481 -0.069902 -2.174624
v -31.327400 -16.451800 37.876050
vn 2.414722 -0.015412 -2.866509
v -38.405300 -8.275080 31.582300
vn 2.538060 -0.010190 -3.014471
v -38.410500 -9.932960 31.596000
vn 1.842097 -0.108275 -2.060801
v -33.905150 -22.194750 35.822350
vn 1.966977 0.040850 -2.294063
v -37.145750 5.447530 32.684150
vn 1.901731 -0.015590 -2.251571
v -39.357300 -6.478355 30.765700
vn 1.800563 -0.033752 -2.111295
v -40.991400 -18.425600 29.504300
vn 1.829360 0.016241 -2.209449
v -40.384386 -2.115265 29.901530
vn 1.940688 -0.090333 -2.165691
v -32.265935 -19.976393 37.175148
vn 1.792343 0.008084 -2.168686
v -39.593611 2.513378 30.590096
vn 1.861227 -0.056837 -2.113565
v -31.428670 -14.331350 37.722145
vn 2.118392 -0.056038 -2.408470
v -32.060050 -12.311800 37.116750
vn 1.894091 0.023549 -2.197623
v -29.669468 0.518936 39.094648
vn 1.898309 -0.042784 -2.182827
v -39.446700 -21.677600 30.889850
vn 1.867760 -0.008129 -2.241275
v -40.032700 -4.462260 30.188400
vn 1.792775 0.040119 -2.062838
v -31.422100 4.280160 37.644300
vn 2.047662 -0.010303 -2.372705
v -31.019242 -7.482154 37.928989
vn 1.838903 0.009201 -2.153153
v -29.291550 -1.434415 39.395650
vn 1.911139 -0.005252 -2.235693
v -29.369400 -2.914890 39.332300
vn 1.945455 -0.028897 -2.295923
v -39.645450 -11.530450 30.527650
vn 1.935433 -0.005461 -2.262810
v -29.789133 -4.911248 38.979488
vn 2.095187 -0.040000 -2.404814
v -32.095000 -9.096230 37.023100
vn 1.539522 0.034138 -1.785186
v -35.511500 6.574690 34.106300
vn 1.824380 -0.030231 -2.158851
v -41.091272 -15.838437 29.389933
vn 1.870965 -0.046367 -2.220497
v -40.284000 -12.574500 30.016000
vn 2.738827 -0.052860 -3.119952
v -32.650500 -10.018300 36.552100
vn 1.878371 -0.076864 -2.112081
v -37.117550 -23.071600 32.977400
vn 4.080423 0.057085 -4.777466
v -37.080393 3.164111 32.699624
vn 1.852022 0.022680 -2.190326
v -38.484550 4.233975 31.515750
vn 4.092234 -0.036071 -4.767111
v -36.109152 -9.353153 33.521856
vn 4.098445 -0.008436 -4.762423
v -35.588343 -7.669291 33.971858
vn 4.052845 0.005509 -4.800697
v -38.772727 -3.001971 31.232358
vn 4.041450 -0.032128 -4.810648
v -37.406305 -9.270233 32.424800
vn 4.101626 -0.101389 -4.758576
v -38.229878 -17.269267 31.844845
vn 4.098151 -0.108963 -4.761442
v -37.489237 -15.358081 32.442120
vn 1.815754 0.017341 -2.200887
v -40.244250 0.331489 30.047700
vn 4.055433 -0.033847 -4.798954
v -38.881374 -4.886325 31.154870
vn 4.103412 -0.007007 -4.758180
v -35.110337 -6.023354 34.380996
vn 4.129190 -0.131970 -4.733889
v -35.417636 -17.280935 34.281776
vn 4.165667 -0.134379 -4.701856
v -32.718871 -16.157384 36.635814
vn 4.103228 -0.013951 -4.758312
v -35.198484 -2.285580 34.304937
vn 4.080776 -0.016536 -4.777579
v -37.645956 -4.492265 32.206544
vn 4.163072 -0.141666 -4.703923
v -34.073582 -17.340836 35.467120
vn 4.064050 -0.009573 -4.791836
v -37.070322 -7.764811 32.708983
vn 4.179709 -0.205939 -4.686592
v -33.632945 -20.115645 35.953412
vn 4.111717 -0.014994 -4.750995
v -32.029994 -2.512011 37.043256
vn 4.115987 0.057119 -4.746959
v -31.242743 0.551282 37.734474
vn 4.118415 -0.018510 -4.745166
v -32.259621 -6.640619 36.853973
vn 4.018880 0.019012 -4.829717
v -38.777869 0.556945 31.257659
vn 1.856452 -0.038044 -2.153078
v -40.370900 -20.273650 30.064250
vn 4.111614 -0.003033 -4.751096
v -33.494115 -1.307866 35.773508
vn 4.115393 -0.107579 -4.746559
v -35.986359 -15.173090 33.735318
vn 4.119841 0.073211 -4.743201
v -34.925738 4.349285 34.568897
vn 4.099984 0.011163 -4.761087
v -30.514311 -1.510425 38.351025
vn 4.127819 -0.058814 -4.736495
v -34.249168 -9.484209 35.139758
vn 4.075809 -0.049927 -4.781000
v -38.334402 -12.124365 31.647134
vn 1.952864 0.038690 -2.260576
v -30.617950 2.869335 38.309050
vn 4.114894 -0.117068 -4.746804
v -36.829312 -17.360179 33.064801
vn 4.134338 0.054760 -4.731006
v -34.375172 2.342880 35.027282
vn 4.145522 0.073093 -4.720972
v -33.069088 3.615763 36.192991
vn 4.115244 -0.007533 -4.747920
v -33.599742 -5.532830 35.684332
vn 4.057554 0.018456 -4.797191
v -37.351752 0.977980 32.452274
vn 1.986031 0.036368 -2.263877
v -33.764500 5.850955 35.609700
vn 4.032470 0.023299 -4.818253
v -38.326222 2.300009 31.637631
vn 4.110033 -0.089215 -4.751605
v -36.944010 -13.235437 32.866941
vn 4.113435 -0.102131 -4.748425
v -38.967163 -20.348325 31.280801
vn 4.119139 -0.024801 -4.744488
v -33.871640 -7.531425 35.455801
vn 4.123548 0.045917 -4.740491
v -32.988756 0.556277 36.218256
vn 1.880499 -0.099569 -2.098791
v -35.532510 -22.997946 34.402418
vn 1.904665 -0.075062 -2.143318
v -31.521200 -17.909500 37.753800
vn 4.078943 -0.015016 -4.779123
v -36.607268 -5.992371 33.094611
vn 4.128137 -0.056807 -4.736392
v -32.600920 -8.489459 36.572226
vn 4.064525 -0.027513 -4.791373
v -38.079314 -6.304079 31.847256
vn 1.860941 -0.000571 -2.177479
v -30.309200 -6.393690 38.536000
vn 1.865014 -0.050063 -2.117470
v -38.510900 -22.533500 31.723700
vn 1.918241 -0.039636 -2.269284
v -40.586000 -13.422200 29.775900
vn 4.156598 -0.169571 -4.708493
v -36.644641 -21.238717 33.326441
vn 2.011658 0.042424 -2.291686
v -32.281900 4.937060 36.908450
vn 4.096594 -0.101485 -4.762976
v -39.225207 -18.759324 31.024090
vn 4.125068 0.076118 -4.738791
v -32.208789 2.205384 36.923390
vn 4.136667 -0.124506 -4.727628
v -38.095663 -21.415689 32.063002
vn 4.141512 -0.097362 -4.724010
v -33.673596 -11.862611 35.686952
vn 4.059343 0.011431 -4.795790
v -37.873286 -1.061498 32.013291
vn 4.084522 -0.008246 -4.774112
v -36.293324 -0.508676 33.346631
vn 4.171611 -0.204796 -4.693869
v -35.074819 -20.801828 34.701870
vn 4.110215 -0.004439 -4.752307
v -33.623786 -3.365454 35.663157
vn 4.093558 0.000088 -4.766614
v -36.053808 -4.309165 33.565148
vn 4.149796 -0.113202 -4.716254
v -34.468361 -15.498513 35.064650
vn 4.117632 0.010073 -4.745724
v -34.721029 0.064979 34.704796
vn 4.158690 -0.160446 -4.707151
v -34.511495 -18.886783 35.128071
vn 4.136970 -0.093839 -4.728067
v -34.703966 -13.593870 34.820439
# 111 vertices, 0 vertices normals

f 88//88 67//67 11//11
f 52//52 35//35 28//28
f 61//61 71//71 106//106
f 100//100 36//36 77//77
f 85//85 1//1 72//72
f 2//2 74//74 39//39
f 108//108 14//14 60//60
f 50//50 75//75 15//15
f 73//73 83//83 80//80
f 84//84 48//48 82//82
f 87//87 75//75 51//51
f 108//108 63//63 59//59
f 53//53 64//64 50//50
f 9//9 76//76 85//85
f 82//82 103//103 69//69
f 17//17 54//54 10//10
f 72//72 78//78 55//55
f 2//2 39//39 41//41
f 91//91 58//58 51//51
f 86//86 99//99 12//12
f 6//6 61//61 106//106
f 49//49 25//25 48//48
f 65//65 20//20 24//24
f 52//52 8//8 103//103
f 50//50 18//18 53//53
f 53//53 18//18 23//23
f 85//85 55//55 9//9
f 69//69 56//56 30//30
f 102//102 15//15 75//75
f 48//48 25//25 73//73
f 93//93 26//26 57//57
f 35//35 57//57 26//26
f 13//13 29//29 65//65
f 60//60 31//31 21//21
f 14//14 102//102 32//32
f 31//31 14//14 32//32
f 62//62 52//52 7//7
f 62//62 7//7 107//107
f 60//60 13//13 63//63
f 22//22 93//93 64//64
f 13//13 110//110 63//63
f 3//3 106//106 66//66
f 11//11 67//67 74//74
f 109//109 88//88 71//71
f 71//71 88//88 11//11
f 66//66 74//74 2//2
f 68//68 19//19 37//37
f 97//97 5//5 105//105
f 5//5 110//110 105//105
f 66//66 11//11 74//74
f 99//99 27//27 10//10
f 8//8 52//52 28//28
f 52//52 57//57 35//35
f 106//106 71//71 66//66
f 56//56 8//8 28//28
f 56//56 69//69 8//8
f 10//10 27//27 44//44
f 59//59 72//72 108//108
f 55//55 85//85 72//72
f 59//59 5//5 78//78
f 74//74 38//38 39//39
f 18//18 76//76 23//23
f 67//67 77//77 33//33
f 104//104 61//61 7//7
f 97//97 12//12 5//5
f 66//66 2//2 3//3
f 103//103 82//82 104//104
f 6//6 81//81 58//58
f 103//103 104//104 7//7
f 20//20 65//65 29//29
f 23//23 22//22 53//53
f 50//50 15//15 18//18
f 19//19 41//41 94//94
f 80//80 83//83 98//98
f 84//84 69//69 30//30
f 10//10 44//44 17//17
f 69//69 84//84 82//82
f 82//82 48//48 4//4
f 43//43 83//83 73//73
f 58//58 87//87 51//51
f 51//51 75//75 50//50
f 15//15 1//1 18//18
f 52//52 62//62 57//57
f 57//57 62//62 93//93
f 48//48 84//84 49//49
f 50//50 64//64 51//51
f 9//9 16//16 76//76
f 85//85 76//76 18//18
f 4//4 48//48 73//73
f 73//73 80//80 79//79
f 79//79 88//88 109//109
f 106//106 3//3 81//81
f 105//105 89//89 97//97
f 69//69 103//103 8//8
f 86//86 70//70 99//99
f 70//70 86//86 34//34
f 17//17 55//55 54//54
f 10//10 54//54 99//99
f 89//89 47//47 97//97
f 60//60 90//90 13//13
f 90//90 60//60 21//21
f 90//90 29//29 13//13
f 62//62 91//91 93//93
f 62//62 107//107 91//91
f 72//72 59//59 78//78
f 55//55 78//78 54//54
f 102//102 46//46 32//32
f 87//87 68//68 92//92
f 46//46 92//92 42//42
f 68//68 37//37 92//92
f 42//42 92//92 37//37
f 16//16 9//9 17//17
f 17//17 9//9 55//55
f 93//93 91//91 64//64
f 64//64 91//91 51//51
f 93//93 22//22 26//26
f 81//81 68//68 87//87
f 19//19 2//2 41//41
f 19//19 94//94 37//37
f 74//74 33//33 38//38
f 86//86 101//101 34//34
f 95//95 34//34 101//101
f 96//96 17//17 44//44
f 16//16 17//17 96//96
f 45//45 16//16 96//96
f 78//78 5//5 12//12
f 75//75 87//87 92//92
f 23//23 76//76 40//40
f 101//101 97//97 47//47
f 101//101 86//86 12//12
f 97//97 101//101 12//12
f 5//5 59//59 110//110
f 59//59 63//63 110//110
f 58//58 107//107 6//6
f 6//6 107//107 61//61
f 81//81 6//6 106//106
f 87//87 58//58 81//81
f 46//46 102//102 75//75
f 11//11 66//66 71//71
f 105//105 24//24 89//89
f 65//65 24//24 105//105
f 16//16 45//45 40//40
f 19//19 3//3 2//2
f 60//60 14//14 31//31
f 19//19 68//68 3//3
f 68//68 81//81 3//3
f 36//36 80//80 98//98
f 100//100 80//80 36//36
f 79//79 100//100 88//88
f 75//75 92//92 46//46
f 22//22 64//64 53//53
f 49//49 84//84 30//30
f 73//73 25//25 43//43
f 101//101 47//47 95//95
f 54//54 78//78 12//12
f 111//111 15//15 102//102
f 99//99 54//54 12//12
f 104//104 4//4 109//109
f 102//102 14//14 111//111
f 52//52 103//103 7//7
f 27//27 99//99 70//70
f 61//61 104//104 109//109
f 61//61 107//107 7//7
f 4//4 104//104 82//82
f 71//71 61//61 109//109
f 65//65 105//105 110//110
f 91//91 107//107 58//58
f 108//108 60//60 63//63
f 109//109 4//4 79//79
f 1//1 111//111 72//72
f 76//76 16//16 40//40
f 110//110 13//13 65//65
f 67//67 33//33 74//74
f 100//100 77//77 67//67
f 1//1 85//85 18//18
f 100//100 67//67 88//88
f 80//80 100//100 79//79
f 15//15 111//111 1//1
f 111//111 108//108 72//72
f 14//14 108//108 111//111
f 73//73 79//79 4//4
# 181 faces, 0 coords texture

# End of File
