####
#
# OBJ File Generated by Meshlab
#
####
# Object 335.obj
#
# Vertices: 56
# Faces: 84
#
####
vn -1.999749 -0.025162 -2.428833
v 34.303050 45.117600 38.718000
vn -4.460892 0.030615 -4.424389
v 41.796620 43.468757 31.899363
vn -2.150697 0.016851 -2.289551
v 39.550900 50.000000 34.111900
vn -2.247420 0.008818 -2.195929
v 42.973100 49.165800 30.718000
vn -2.233540 0.008558 -2.208996
v 42.169925 50.000000 31.546675
vn -4.422104 -0.005229 -4.463301
v 41.879664 45.725518 31.826809
vn -2.017796 0.003519 -2.422902
v 34.335400 40.847750 38.718000
vn -2.001639 -0.013287 -2.423397
v 34.319550 43.226400 38.718000
vn -2.208822 0.011572 -2.199566
v 42.991751 44.929550 30.718000
vn -0.986602 0.011036 -1.211085
v 34.308400 38.000000 38.718000
vn -1.133463 0.005229 -1.091844
v 42.895500 38.000000 30.718000
vn -0.975971 -0.005469 -1.222030
v 34.242200 50.000000 38.718000
vn -1.995923 0.004608 -2.425694
v 35.107100 50.000000 38.027250
vn -1.989280 -0.026001 -2.428270
v 34.268300 47.334600 38.715550
vn -2.255676 0.007297 -2.186663
v 41.289900 38.000000 32.384150
vn -1.126020 0.002025 -1.093408
v 42.974600 50.000000 30.718000
vn -4.191089 0.006345 -4.680223
v 37.888530 48.617044 35.636767
vn -4.102726 -0.030237 -4.758529
v 36.540946 47.799084 36.804723
vn -2.089529 0.020590 -2.345871
v 37.353250 38.000000 36.113500
vn -4.025181 -0.060990 -4.823926
v 35.324602 46.646460 37.857853
vn -4.395445 -0.024064 -4.489679
v 40.651929 44.568931 33.032063
vn -4.133170 0.023395 -4.732160
v 36.498903 39.630327 36.883080
vn -4.329940 -0.029785 -4.552544
v 39.307210 45.728269 34.330048
vn -4.444769 0.019923 -4.440695
v 41.890623 47.927679 31.816778
vn -2.144227 -0.008552 -2.295052
v 39.203800 38.000000 34.459850
vn -4.225262 -0.007678 -4.649642
v 38.113159 42.428624 35.468261
vn -4.408123 -0.016264 -4.476622
v 40.401200 42.386994 33.300765
vn -2.188422 0.007376 -2.253768
v 40.427100 50.000000 33.272300
vn -4.304753 0.024220 -4.576578
v 39.326524 48.249637 34.304747
vn -4.211479 -0.036993 -4.662093
v 37.944364 46.732048 35.588426
vn -2.240872 -0.004164 -2.212019
v 42.971105 47.175126 30.718000
vn -4.050727 0.005338 -4.802926
v 35.415552 40.258200 37.814663
vn -4.027258 -0.037112 -4.822411
v 35.373222 44.596705 37.840986
vn -4.378681 0.009982 -4.506048
v 40.664915 46.734566 33.008318
vn -4.327987 -0.033935 -4.554353
v 39.252195 43.365232 34.401660
vn -2.266147 0.030003 -2.190684
v 42.925650 42.292850 30.718000
vn -4.501478 0.029989 -4.383099
v 41.652038 41.303992 32.035522
vn -2.034852 0.005087 -2.392817
v 35.646850 38.000000 37.627642
vn -1.998335 0.010284 -2.426917
v 34.321200 39.144300 38.718000
vn -1.977767 -0.005699 -2.438032
v 34.250000 48.965500 38.716400
vn -4.517454 0.029001 -4.366918
v 41.789719 39.478168 31.873010
vn -2.213759 -0.002110 -2.228544
v 40.340000 38.000000 33.360200
vn -4.431191 0.012292 -4.453597
v 40.473301 39.962353 33.228399
vn -4.118339 -0.019689 -4.744541
v 36.672343 43.678409 36.745514
vn -4.192861 0.035212 -4.679094
v 37.765209 40.261142 35.772488
vn -4.109747 -0.061454 -4.751409
v 36.568648 45.809819 36.820191
vn -4.305674 0.004889 -4.574921
v 39.128665 41.048351 34.532627
vn -2.268449 0.018052 -2.178940
v 42.905250 40.242700 30.718000
vn -2.089324 0.002857 -2.345728
v 37.775080 49.999998 35.739501
vn -2.044077 0.007669 -2.385502
v 36.348000 50.000000 36.979300
vn -4.039024 -0.012685 -4.812737
v 35.402878 42.467480 37.825852
vn -4.025558 -0.008893 -4.823959
v 35.342109 48.527137 37.826239
vn -4.382701 0.038705 -4.501375
v 40.722310 48.662574 32.981272
vn -4.279435 0.012046 -4.599439
v 39.048174 39.155868 34.600941
vn -4.124202 0.010993 -4.739578
v 36.724433 41.589189 36.701701
vn -4.230874 -0.037198 -4.644206
v 38.049483 44.616909 35.516984
# 56 vertices, 0 vertices normals

f 5//5 4//4 24//24
f 34//34 21//21 23//23
f 32//32 38//38 39//39
f 14//14 40//40 52//52
f 4//4 5//5 16//16
f 46//46 44//44 33//33
f 29//29 30//30 17//17
f 17//17 49//49 3//3
f 18//18 50//50 17//17
f 46//46 33//33 20//20
f 14//14 20//20 1//1
f 24//24 4//4 31//31
f 34//34 24//24 6//6
f 25//25 19//19 54//54
f 34//34 6//6 21//21
f 29//29 3//3 53//53
f 28//28 5//5 53//53
f 28//28 53//53 3//3
f 23//23 29//29 34//34
f 31//31 9//9 6//6
f 8//8 1//1 33//33
f 36//36 48//48 37//37
f 7//7 32//32 39//39
f 39//39 38//38 10//10
f 7//7 8//8 51//51
f 13//13 40//40 12//12
f 45//45 19//19 22//22
f 38//38 32//32 22//22
f 41//41 11//11 15//15
f 2//2 36//36 37//37
f 20//20 18//18 46//46
f 34//34 53//53 24//24
f 15//15 42//42 43//43
f 42//42 25//25 54//54
f 46//46 56//56 44//44
f 33//33 44//44 51//51
f 31//31 6//6 24//24
f 34//34 29//29 53//53
f 42//42 54//54 43//43
f 45//45 47//47 54//54
f 45//45 54//54 19//19
f 56//56 46//46 30//30
f 26//26 47//47 45//45
f 35//35 23//23 21//21
f 29//29 23//23 30//30
f 41//41 48//48 11//11
f 29//29 17//17 3//3
f 48//48 41//41 37//37
f 43//43 41//41 15//15
f 26//26 56//56 35//35
f 19//19 38//38 22//22
f 18//18 52//52 50//50
f 17//17 50//50 49//49
f 17//17 30//30 18//18
f 46//46 18//18 30//30
f 41//41 43//43 37//37
f 20//20 33//33 1//1
f 26//26 55//55 44//44
f 44//44 55//55 51//51
f 35//35 21//21 27//27
f 47//47 27//27 43//43
f 51//51 55//55 32//32
f 51//51 8//8 33//33
f 22//22 55//55 45//45
f 18//18 20//20 52//52
f 32//32 55//55 22//22
f 13//13 52//52 40//40
f 53//53 5//5 24//24
f 36//36 2//2 9//9
f 54//54 47//47 43//43
f 52//52 13//13 50//50
f 52//52 20//20 14//14
f 2//2 37//37 27//27
f 43//43 27//27 37//37
f 7//7 51//51 32//32
f 2//2 6//6 9//9
f 26//26 35//35 47//47
f 21//21 6//6 2//2
f 2//2 27//27 21//21
f 55//55 26//26 45//45
f 26//26 44//44 56//56
f 56//56 23//23 35//35
f 56//56 30//30 23//23
f 35//35 27//27 47//47
# 84 faces, 0 coords texture

# End of File
