####
#
# OBJ File Generated by Meshlab
#
####
# Object 340.obj
#
# Vertices: 41
# Faces: 59
#
####
vn -0.344460 -0.047015 -1.538706
v 9.315470 38.000000 54.852800
vn -0.936715 -0.023969 -3.004373
v 17.300950 40.862950 52.684050
vn -0.463446 -0.049584 -1.492531
v 17.337200 38.000000 52.746900
vn -0.692811 -0.035147 -3.063831
v 9.295389 44.249955 54.815546
vn -0.886986 -0.029657 -3.012150
v 17.303121 48.215718 52.688486
vn -0.913779 0.003352 -3.005199
v 17.308102 43.318775 52.696482
vn -0.618015 -0.063885 -3.074354
v 9.250060 48.598100 54.739550
vn -0.317191 -0.031163 -1.533216
v 9.239170 50.000000 54.720700
vn -0.709912 0.006291 -3.066900
v 9.310300 41.938500 54.843900
vn -0.719695 -0.038968 -3.057767
v 11.765700 50.000000 54.185800
vn -0.847211 -0.019771 -3.024922
v 14.907200 50.000000 53.380700
vn -0.449351 -0.019551 -1.508380
v 17.290300 50.000000 52.665700
vn -0.735609 -0.046302 -3.052955
v 12.035500 38.000000 54.245900
vn -1.693884 -0.047221 -6.049889
v 14.217343 42.944334 53.619439
vn -1.647288 -0.087703 -6.062052
v 13.724405 39.622804 53.787868
vn -0.684932 -0.046766 -3.071610
v 9.283870 46.430150 54.798050
vn -1.652281 -0.055716 -6.061486
v 13.935934 45.010861 53.675818
vn -0.669899 -0.065866 -3.068637
v 10.482700 38.000000 54.591500
vn -0.667245 -0.025984 -3.058608
v 9.294405 39.614124 54.808196
vn -1.582650 -0.045965 -6.080188
v 13.558090 48.735667 53.746440
vn -1.780439 -0.047361 -6.025151
v 14.925461 41.108050 53.424217
vn -0.848999 -0.064114 -3.022829
v 14.391889 38.000000 53.636433
vn -0.879823 -0.010833 -3.012969
v 17.312500 45.802100 52.704200
vn -1.758821 -0.026265 -6.031820
v 15.776448 44.572327 53.155632
vn -1.432196 -0.063358 -6.117281
v 10.812965 43.840734 54.477581
vn -1.530289 -0.056240 -6.093100
v 12.296726 43.187796 54.128615
vn -0.917944 -0.085638 -3.002811
v 16.106000 38.000000 53.129200
vn -0.776532 -0.024186 -3.044052
v 13.267200 50.000000 53.810600
vn -1.729943 -0.030846 -6.040203
v 15.717213 46.618469 53.161547
vn -1.586713 -0.048467 -6.078485
v 13.015412 41.397361 53.960340
vn -1.519929 -0.068524 -6.095974
v 12.137761 45.511678 54.138560
vn -1.424669 -0.066640 -6.118480
v 11.672105 39.718466 54.304277
vn -1.425234 -0.006561 -6.119114
v 10.884965 41.565685 54.474768
vn -1.489471 -0.064597 -6.103613
v 11.856919 47.457822 54.185097
vn -1.349938 -0.109720 -6.134793
v 10.475199 48.123027 54.503141
vn -1.819494 -0.003771 -6.013660
v 15.848321 42.430904 53.144588
vn -1.611480 -0.048849 -6.072370
v 13.652219 47.012205 53.737265
vn -0.936219 -0.080724 -3.000490
v 17.318600 39.143100 52.714700
vn -1.425780 -0.070373 -6.118730
v 10.531335 45.945900 54.519591
vn -1.825614 -0.129900 -6.010548
v 15.667908 39.470725 53.222628
vn -1.729625 -0.036226 -6.039823
v 15.468521 48.371963 53.229516
# 41 vertices, 0 vertices normals

f 4//4 16//16 39//39
f 34//34 10//10 20//20
f 31//31 17//17 26//26
f 30//30 32//32 33//33
f 34//34 31//31 39//39
f 34//34 35//35 10//10
f 17//17 29//29 24//24
f 30//30 14//14 21//21
f 2//2 40//40 21//21
f 1//1 19//19 18//18
f 19//19 9//9 33//33
f 6//6 2//2 36//36
f 12//12 41//41 11//11
f 12//12 5//5 41//41
f 22//22 13//13 15//15
f 13//13 18//18 32//32
f 29//29 23//23 24//24
f 23//23 6//6 24//24
f 14//14 26//26 17//17
f 4//4 39//39 25//25
f 35//35 16//16 7//7
f 8//8 35//35 7//7
f 8//8 10//10 35//35
f 20//20 10//10 28//28
f 20//20 28//28 11//11
f 5//5 23//23 29//29
f 25//25 9//9 4//4
f 25//25 31//31 26//26
f 13//13 32//32 15//15
f 30//30 15//15 32//32
f 35//35 34//34 39//39
f 39//39 31//31 25//25
f 36//36 24//24 6//6
f 31//31 34//34 37//37
f 37//37 34//34 20//20
f 11//11 41//41 20//20
f 29//29 17//17 37//37
f 31//31 37//37 17//17
f 22//22 15//15 40//40
f 21//21 36//36 2//2
f 14//14 17//17 24//24
f 14//14 24//24 36//36
f 15//15 30//30 21//21
f 21//21 14//14 36//36
f 26//26 14//14 30//30
f 2//2 38//38 40//40
f 38//38 3//3 27//27
f 9//9 25//25 33//33
f 35//35 39//39 16//16
f 40//40 38//38 27//27
f 40//40 27//27 22//22
f 15//15 21//21 40//40
f 18//18 19//19 32//32
f 5//5 29//29 41//41
f 41//41 37//37 20//20
f 37//37 41//41 29//29
f 19//19 33//33 32//32
f 26//26 30//30 33//33
f 25//25 26//26 33//33
# 59 faces, 0 coords texture

# End of File
