####
#
# OBJ File Generated by Meshlab
#
####
# Object 346S.obj
#
# Vertices: 65
# Faces: 105
#
####
vn 0.190986 -0.211019 -6.275395
v 0.113061 -26.658915 55.252742
vn 0.998156 -0.218232 -6.193321
v -4.027634 -33.463318 55.206280
vn 0.632156 -0.274007 -6.244281
v -2.627881 -28.216627 55.126849
vn -0.089210 -0.220805 -6.275482
v 1.372560 -28.540793 55.336517
vn 1.025856 -0.264582 -6.188498
v -4.445478 -28.026134 54.895376
vn 1.161777 -0.248686 -6.168540
v -4.030172 -36.486175 55.295278
vn -0.584540 -0.215367 -6.247749
v 3.252808 -28.415678 55.236758
vn -0.273683 -0.245991 -6.265195
v 2.022924 -26.604330 55.262829
vn -0.394676 -0.253350 -6.261572
v 2.047922 -34.079565 55.538954
vn -0.206022 -0.281143 -6.271323
v 1.424180 -32.222236 55.477354
vn 1.361944 -0.124936 -6.127725
v -5.475016 -34.961565 54.967724
vn 0.356990 -0.352183 -6.258246
v -1.050612 -35.383976 55.619155
vn -0.700342 -0.231907 -6.234941
v 3.557055 -32.442507 55.344438
vn 0.490336 -0.216587 -6.258811
v -1.656502 -26.691669 55.158755
vn 1.020933 -0.188784 -6.191509
v -3.356475 -37.878566 55.481359
vn 0.751765 -0.083052 -2.831043
v -7.679285 -33.813013 54.358818
vn 0.619365 -0.116112 -2.748209
v -6.675065 -25.925497 54.338631
vn 0.751759 -0.106336 -2.783873
v -8.173720 -29.849100 54.090600
vn -0.225311 -0.183475 -2.838402
v 2.755280 -37.664700 55.610900
vn -0.299982 -0.133132 -2.975789
v 3.383650 -36.965900 55.500800
vn 0.350776 -0.095599 -2.795756
v -3.110050 -23.549800 54.913600
vn 0.486574 -0.114632 -2.726147
v -4.927165 -24.279950 54.629850
vn 0.164840 -0.094451 -2.817410
v -0.875423 -23.425950 55.113700
vn 0.764896 -0.101373 -2.857801
v -8.132640 -31.589900 54.167900
vn 0.680653 -0.089877 -2.817841
v -6.896370 -35.628950 54.630550
vn -0.425747 -0.073223 -2.778300
v 5.486460 -31.541200 55.010100
vn 0.709643 -0.107501 -2.774236
v -7.729085 -27.894200 54.135600
vn -0.396809 -0.067650 -2.961231
v 5.342250 -29.971350 55.023400
vn -0.362151 -0.086798 -2.875728
v 4.281395 -35.609200 55.337150
vn 1.467191 -0.206426 -6.102729
v -6.125749 -32.826446 54.750016
vn 1.254106 -0.266448 -6.149035
v -5.319005 -29.776343 54.797065
vn 0.583866 -0.133105 -2.786078
v -5.541315 -37.417500 55.024350
vn -0.373258 -0.107286 -2.861971
v 4.883570 -28.156450 55.013850
vn 0.433320 -0.056508 -2.714658
v -3.543989 -38.858532 55.471827
vn 0.673194 -0.264423 -6.232070
v -2.180724 -36.950646 55.618754
vn 0.202175 -0.057805 -2.710477
v -1.475958 -39.336100 55.745950
vn -0.582812 -0.194114 -6.251640
v 2.619027 -35.701003 55.539579
vn 0.297724 -0.267446 -6.269380
v -0.629389 -28.422012 55.284306
vn 0.040586 -0.279825 -6.274076
v 0.451440 -30.365482 55.412095
vn 1.471792 -0.252545 -6.101714
v -6.285452 -31.164233 54.641252
vn 1.128483 -0.280743 -6.170815
v -4.620172 -31.558879 55.021371
vn 0.678833 -0.273887 -6.235536
v -2.744617 -31.887537 55.313372
vn -0.402249 -0.223930 -6.263424
v 2.512658 -30.468043 55.357503
vn -0.126884 -0.132350 -2.857997
v 2.218665 -24.639500 55.156750
vn -0.387067 -0.248949 -6.265301
v 1.607083 -37.125350 55.667180
vn -0.045784 -0.088017 -2.778854
v 0.724704 -38.907523 55.789754
vn 0.245854 -0.280927 -6.268236
v -0.653553 -32.014518 55.469583
vn 1.176000 -0.288740 -6.163150
v -5.128026 -26.379732 54.692196
vn 0.076445 -0.312782 -6.271260
v 0.161639 -33.821572 55.573516
vn -0.001909 -0.124310 -2.915652
v 0.763845 -23.868000 55.163200
vn -0.747307 -0.180104 -6.234742
v 3.569574 -34.340907 55.397433
vn 0.526621 -0.279723 -6.253732
v -1.868843 -33.609970 55.447555
vn -0.434592 -0.105881 -2.995703
v 5.021157 -33.537901 55.169830
vn 0.087569 -0.241596 -6.270558
v -0.249601 -37.235209 55.742559
vn -0.173785 -0.263691 -6.270884
v 0.841567 -35.627524 55.657070
vn -0.285621 -0.123588 -2.820418
v 3.797150 -26.161050 55.081150
vn 0.068034 -0.232954 -6.275322
v 0.554969 -24.993952 55.211342
vn 1.541656 -0.245722 -6.085285
v -6.972259 -29.758594 54.411586
vn -0.788602 -0.176930 -6.229660
v 4.273069 -30.330252 55.174871
vn 0.855214 -0.305951 -6.215381
v -3.595577 -29.955456 55.097901
vn 0.459169 -0.330140 -6.254832
v -1.671231 -30.208311 55.320419
vn 1.401213 -0.246395 -6.118964
v -6.083572 -28.008392 54.554399
vn 0.867165 -0.283388 -6.212968
v -3.143062 -35.176963 55.394167
vn 0.819882 -0.246415 -6.222561
v -3.360381 -26.041347 54.958707
vn 0.475277 -0.194249 -6.259958
v -1.519695 -25.104894 55.120378
# 65 vertices, 0 vertices normals

f 30//30 40//40 41//41
f 52//52 2//2 42//42
f 1//1 8//8 4//4
f 1//1 14//14 65//65
f 35//35 15//15 6//6
f 13//13 10//10 43//43
f 45//45 37//37 20//20
f 47//47 52//52 42//42
f 30//30 16//16 24//24
f 57//57 23//23 50//50
f 55//55 45//45 54//54
f 37//37 9//9 51//51
f 8//8 56//56 7//7
f 62//62 27//27 17//17
f 10//10 47//47 39//39
f 55//55 12//12 49//49
f 49//49 52//52 47//47
f 43//43 7//7 59//59
f 12//12 54//54 35//35
f 5//5 60//60 31//31
f 59//59 7//7 33//33
f 34//34 32//32 15//15
f 38//38 61//61 3//3
f 3//3 14//14 38//38
f 15//15 35//35 36//36
f 36//36 34//34 15//15
f 61//61 39//39 47//47
f 60//60 41//41 31//31
f 2//2 30//30 41//41
f 41//41 40//40 31//31
f 2//2 41//41 42//42
f 41//41 60//60 42//42
f 35//35 54//54 36//36
f 1//1 38//38 14//14
f 32//32 25//25 6//6
f 6//6 15//15 32//32
f 59//59 13//13 43//43
f 44//44 56//56 8//8
f 62//62 58//58 27//27
f 20//20 19//19 45//45
f 45//45 19//19 46//46
f 46//46 54//54 45//45
f 46//46 36//36 54//54
f 22//22 64//64 48//48
f 64//64 22//22 21//21
f 9//9 49//49 10//10
f 11//11 2//2 63//63
f 4//4 43//43 39//39
f 9//9 10//10 13//13
f 49//49 12//12 52//52
f 50//50 44//44 57//57
f 30//30 24//24 40//40
f 30//30 2//2 11//11
f 6//6 63//63 35//35
f 63//63 12//12 35//35
f 2//2 52//52 63//63
f 63//63 52//52 12//12
f 16//16 11//11 25//25
f 16//16 30//30 11//11
f 59//59 26//26 13//13
f 53//53 13//13 26//26
f 53//53 29//29 51//51
f 4//4 39//39 38//38
f 37//37 55//55 9//9
f 55//55 37//37 45//45
f 51//51 9//9 13//13
f 51//51 13//13 53//53
f 14//14 3//3 64//64
f 48//48 17//17 22//22
f 43//43 10//10 39//39
f 1//1 65//65 57//57
f 44//44 8//8 57//57
f 57//57 8//8 1//1
f 48//48 62//62 17//17
f 31//31 40//40 58//58
f 48//48 5//5 62//62
f 65//65 21//21 23//23
f 9//9 55//55 49//49
f 10//10 49//49 47//47
f 31//31 58//58 62//62
f 12//12 55//55 54//54
f 59//59 28//28 26//26
f 29//29 37//37 51//51
f 37//37 29//29 20//20
f 60//60 3//3 61//61
f 18//18 58//58 24//24
f 38//38 39//39 61//61
f 58//58 40//40 24//24
f 1//1 4//4 38//38
f 23//23 57//57 65//65
f 18//18 27//27 58//58
f 3//3 60//60 5//5
f 59//59 33//33 28//28
f 60//60 61//61 42//42
f 61//61 47//47 42//42
f 31//31 62//62 5//5
f 7//7 43//43 4//4
f 7//7 56//56 33//33
f 11//11 6//6 25//25
f 8//8 7//7 4//4
f 11//11 63//63 6//6
f 64//64 21//21 65//65
f 64//64 3//3 5//5
f 48//48 64//64 5//5
f 64//64 65//65 14//14
# 105 faces, 0 coords texture

# End of File
