####
#
# OBJ File Generated by Meshlab
#
####
# Object 368.obj
#
# Vertices: 58
# Faces: 88
#
####
vn 2.329076 0.014113 -2.123600
v -42.585700 44.615000 30.718000
vn 4.554355 0.033005 -4.327851
v -40.935259 44.020007 32.506775
vn 4.380181 0.023091 -4.504141
v -38.885451 46.473277 34.598152
vn 4.117652 -0.001115 -4.744357
v -36.307893 45.957222 36.986390
vn 1.993696 0.001582 -2.421079
v -34.222525 46.351675 38.718000
vn 2.255384 -0.018600 -2.186302
v -40.608763 50.000000 32.886362
vn 4.074873 0.032089 -4.782053
v -35.236723 41.702259 37.884093
vn 2.048649 0.006925 -2.380828
v -35.862200 50.000000 37.372800
vn 2.286083 0.036408 -2.140517
v -42.564700 39.435650 30.719000
vn 2.040404 0.020654 -2.414526
v -34.245900 41.199700 38.718000
vn 4.067122 0.009120 -4.788873
v -35.573953 43.856147 37.599447
vn 0.994392 0.016919 -1.193311
v -34.176200 38.000000 38.718000
vn 1.003838 0.003797 -1.211964
v -34.238100 50.000000 38.718000
vn 1.204342 -0.021815 -1.031029
v -42.562600 50.000000 30.718000
vn 2.323175 -0.003185 -2.089777
v -42.611400 47.856500 30.718000
vn 2.287356 0.041431 -2.153300
v -41.642700 38.000000 31.677800
vn 1.168357 0.032000 -1.075600
v -42.526300 38.000000 30.718000
vn 4.478567 0.043585 -4.405564
v -39.833926 42.330693 33.640064
vn 4.628937 0.033331 -4.248471
v -42.062194 44.492772 31.291347
vn 2.306476 0.003291 -2.127068
v -42.589900 42.874250 30.718000
vn 4.493286 0.039842 -4.391066
v -40.321534 46.266546 33.165661
vn 4.423287 -0.001285 -4.461239
v -39.604560 48.217383 33.903545
vn 4.245460 0.060862 -4.630961
v -37.479723 40.126880 35.883878
vn 4.228268 0.022764 -4.645716
v -37.279263 43.916876 36.117208
vn 2.316682 0.016523 -2.111064
v -42.608100 46.343200 30.718000
vn 4.609355 0.044117 -4.269128
v -41.676903 46.169336 31.738543
vn 4.567157 0.020703 -4.313453
v -41.155488 47.954065 32.317863
vn 4.295611 -0.020350 -4.584464
v -38.079654 48.287546 35.371944
vn 2.174325 -0.023029 -2.267347
v -38.724582 50.000000 34.747253
vn 4.013248 0.002295 -4.834432
v -35.132638 45.786859 37.969275
vn 2.015735 -0.008326 -2.411320
v -34.237500 42.913700 38.718000
vn 2.289469 0.022883 -2.142660
v -42.584400 41.104100 30.718700
vn 2.042851 0.023383 -2.386417
v -35.472400 38.000000 37.644400
vn 2.116396 -0.016280 -2.321673
v -37.073150 50.000000 36.283300
vn 4.165981 -0.007764 -4.702787
v -36.631316 48.182245 36.690169
vn 4.063033 0.066641 -4.792198
v -34.878996 39.786076 38.157681
vn 2.003003 0.007072 -2.420963
v -34.233500 48.784000 38.718000
vn 2.359443 -0.043483 -2.073709
v -42.028200 50.000000 31.347000
vn 4.669748 -0.058184 -4.200717
v -41.876301 49.132725 31.538015
vn 2.106382 0.031874 -2.330653
v -37.016350 38.000000 36.279500
vn 4.160657 0.049122 -4.707095
v -36.550995 41.935119 36.749934
vn 2.003432 -0.004288 -2.415615
v -34.226700 44.553400 38.718000
vn 4.280249 0.059627 -4.598824
v -37.754820 41.819086 35.654163
vn 4.135483 0.059137 -4.729731
v -36.049711 39.962203 37.157076
vn 4.368646 0.023105 -4.514943
v -38.630316 42.975037 34.836792
vn 4.269316 -0.001319 -4.609073
v -37.602669 46.281565 35.819151
vn 4.384184 0.061479 -4.499525
v -38.769973 40.900858 34.677440
vn 4.354782 0.013486 -4.529098
v -38.390829 44.827457 35.064162
vn 4.442511 0.019127 -4.442900
v -39.503853 44.496335 33.974148
vn 2.201101 0.036506 -2.240986
v -38.704600 38.000000 34.706150
vn 2.029154 0.044456 -2.399536
v -34.212100 39.589750 38.718000
vn 2.256075 0.036131 -2.186068
v -40.336200 38.000000 33.046900
vn 4.560963 0.057098 -4.320960
v -41.116893 41.628720 32.291050
vn 4.601722 0.021100 -4.278014
v -41.878896 42.842553 31.487700
vn 4.559803 0.066608 -4.322217
v -41.387900 39.737098 31.973367
vn 4.362423 0.074104 -4.518949
v -38.536093 38.740959 34.883728
vn 4.498260 0.076041 -4.385771
v -40.057388 40.262952 33.373434
vn 4.029803 0.008973 -4.820505
v -35.101832 47.681993 37.996872
# 58 vertices, 0 vertices normals

f 38//38 6//6 39//39
f 42//42 11//11 30//30
f 1//1 25//25 19//19
f 24//24 11//11 41//41
f 43//43 45//45 24//24
f 36//36 44//44 7//7
f 20//20 1//1 19//19
f 6//6 22//22 27//27
f 22//22 21//21 27//27
f 21//21 22//22 3//3
f 22//22 28//28 3//3
f 6//6 29//29 22//22
f 25//25 15//15 26//26
f 47//47 23//23 56//56
f 28//28 22//22 29//29
f 29//29 34//34 28//28
f 58//58 30//30 4//4
f 31//31 10//10 7//7
f 32//32 20//20 54//54
f 33//33 40//40 44//44
f 34//34 8//8 35//35
f 36//36 33//33 44//44
f 5//5 30//30 58//58
f 14//14 38//38 39//39
f 39//39 6//6 27//27
f 39//39 27//27 15//15
f 14//14 39//39 15//15
f 55//55 16//16 9//9
f 17//17 9//9 16//16
f 40//40 50//50 56//56
f 10//10 51//51 36//36
f 5//5 42//42 30//30
f 42//42 31//31 11//11
f 31//31 7//7 11//11
f 30//30 11//11 4//4
f 41//41 23//23 43//43
f 24//24 46//46 4//4
f 21//21 26//26 27//27
f 27//27 26//26 15//15
f 21//21 2//2 26//26
f 43//43 23//23 47//47
f 43//43 47//47 45//45
f 45//45 47//47 18//18
f 41//41 11//11 7//7
f 18//18 49//49 45//45
f 45//45 49//49 48//48
f 2//2 49//49 18//18
f 49//49 2//2 21//21
f 12//12 36//36 51//51
f 36//36 12//12 33//33
f 48//48 3//3 46//46
f 48//48 46//46 24//24
f 55//55 52//52 16//16
f 53//53 2//2 18//18
f 41//41 43//43 24//24
f 45//45 48//48 24//24
f 58//58 35//35 8//8
f 2//2 54//54 19//19
f 4//4 11//11 24//24
f 35//35 28//28 34//34
f 53//53 54//54 2//2
f 10//10 36//36 7//7
f 35//35 58//58 4//4
f 57//57 52//52 55//55
f 3//3 28//28 46//46
f 46//46 35//35 4//4
f 9//9 32//32 55//55
f 7//7 44//44 41//41
f 41//41 44//44 23//23
f 20//20 19//19 54//54
f 40//40 23//23 44//44
f 19//19 26//26 2//2
f 37//37 58//58 8//8
f 53//53 32//32 54//54
f 46//46 28//28 35//35
f 49//49 3//3 48//48
f 21//21 3//3 49//49
f 37//37 8//8 13//13
f 26//26 19//19 25//25
f 55//55 32//32 53//53
f 47//47 56//56 57//57
f 47//47 57//57 18//18
f 18//18 57//57 53//53
f 57//57 55//55 53//53
f 56//56 50//50 52//52
f 57//57 56//56 52//52
f 5//5 58//58 37//37
f 56//56 23//23 40//40
# 88 faces, 0 coords texture

# End of File
