####
#
# OBJ File Generated by Meshlab
#
####
# Object 392S.obj
#
# Vertices: 51
# Faces: 79
#
####
vn 2.859439 -0.297766 -5.585044
v -14.870883 -21.845826 52.903327
vn 2.435571 -0.127011 -5.788031
v -11.574430 -12.411173 54.103048
vn 2.790871 -0.190688 -5.622250
v -14.315661 -16.240207 52.970470
vn 2.631089 -0.198082 -5.701749
v -13.069438 -15.344807 53.518758
vn 3.221840 -0.218446 -5.388596
v -16.889264 -19.767204 51.677465
vn 2.814118 -0.083662 -5.616893
v -14.033434 -10.809822 52.919388
vn 2.689202 -0.279922 -5.671245
v -13.759266 -20.571904 53.368832
vn 3.080967 -0.199776 -5.470762
v -16.167900 -15.306903 51.938301
vn 2.487862 -0.159898 -5.765606
v -12.226380 -17.315430 53.958250
vn 1.494135 -0.077788 -2.347313
v -19.509550 -17.976650 49.962350
vn 0.859500 -0.074563 -2.672068
v -8.453725 -14.483800 55.254100
vn 0.935424 -0.066318 -2.625615
v -9.635345 -12.405650 54.832600
vn 1.000955 -0.128017 -2.788609
v -8.968980 -20.702000 55.335000
vn 1.422359 -0.048571 -2.366052
v -17.702350 -11.578000 50.941600
vn 1.713577 -0.055477 -3.316957
v -15.196500 -10.305000 52.312400
vn 0.880101 -0.103756 -2.690499
v -7.991776 -16.883855 55.482610
vn 0.971488 -0.100650 -2.535306
v -9.958020 -22.113650 55.039700
vn 0.902954 -0.117640 -2.632362
v -8.242460 -19.182900 55.510000
vn 1.464417 -0.111917 -2.385353
v -17.637200 -21.823600 51.308800
vn 1.540385 -0.101203 -2.442302
v -18.602568 -20.387245 50.626424
vn 1.059024 -0.014391 -2.048207
v -14.952600 -9.993740 52.438400
vn 1.059918 -0.084165 -2.568407
v -11.802553 -23.232858 54.352543
vn 1.164497 -0.097555 -2.442968
v -14.091603 -23.625874 53.379280
vn 1.151762 0.003951 -2.357308
v -13.278600 -9.970730 53.289600
vn 1.497743 -0.065579 -2.336911
v -19.617100 -15.842150 49.823100
vn 2.935869 -0.233918 -5.548724
v -15.368135 -19.820947 52.537338
vn 2.348357 -0.140461 -5.821458
v -11.299252 -15.635422 54.316730
vn 3.299936 -0.146365 -5.343666
v -17.892204 -14.759838 50.903739
vn 1.996007 -0.170609 -5.954773
v -9.560646 -15.761328 54.938405
vn 2.718358 -0.137376 -5.662659
v -13.348358 -12.263319 53.282791
vn 2.900051 -0.123411 -5.571963
v -15.072888 -11.898087 52.413131
vn 1.345996 -0.032745 -2.895734
v -12.437750 -10.485850 53.688750
vn 1.466980 -0.060329 -2.329189
v -18.998633 -13.461942 50.163565
vn 2.171968 -0.163163 -5.887680
v -10.504073 -14.187629 54.588746
vn 2.221731 -0.227473 -5.871372
v -10.412915 -19.057000 54.747458
vn 3.159990 -0.132507 -5.427115
v -17.072278 -12.949022 51.348514
vn 1.087866 -0.032134 -2.710293
v -10.969850 -11.266900 54.332150
vn 2.738571 -0.180263 -5.651194
v -14.051695 -18.400590 53.148764
vn 3.058740 -0.187537 -5.481450
v -15.934119 -17.594783 52.162412
vn 2.504434 -0.220150 -5.756710
v -12.309976 -19.531706 53.995984
vn 3.126235 -0.271273 -5.442168
v -16.225506 -21.358120 52.139293
vn 2.587143 -0.181018 -5.721766
v -12.438504 -13.990053 53.764434
vn 2.852146 -0.208856 -5.593015
v -14.559425 -13.961032 52.748390
vn 1.371456 -0.043554 -2.535910
v -16.194100 -10.597650 51.803300
vn 2.432755 -0.241039 -5.786487
v -12.047327 -21.462502 54.190344
vn 2.275210 -0.232460 -5.851183
v -10.753203 -20.581129 54.676338
vn 1.380806 -0.126704 -2.508459
v -15.940273 -23.040938 52.397079
vn 3.310965 -0.186975 -5.336468
v -17.685752 -18.456071 51.136101
vn 2.114999 -0.194443 -5.911560
v -9.919027 -17.302423 54.866436
vn 2.589997 -0.267469 -5.714817
v -13.393293 -22.263183 53.645479
vn 3.303953 -0.162812 -5.341129
v -17.829823 -16.715979 50.994384
# 51 vertices, 0 vertices normals

f 3//3 38//38 39//39
f 42//42 43//43 30//30
f 5//5 26//26 41//41
f 6//6 15//15 21//21
f 49//49 27//27 29//29
f 38//38 40//40 7//7
f 7//7 40//40 45//45
f 50//50 1//1 7//7
f 17//17 46//46 13//13
f 40//40 35//35 46//46
f 6//6 24//24 32//32
f 39//39 48//48 51//51
f 49//49 29//29 16//16
f 34//34 2//2 12//12
f 34//34 12//12 11//11
f 32//32 37//37 2//2
f 35//35 40//40 9//9
f 37//37 12//12 2//2
f 44//44 36//36 14//14
f 3//3 9//9 38//38
f 39//39 38//38 26//26
f 3//3 39//39 8//8
f 42//42 30//30 2//2
f 6//6 30//30 31//31
f 44//44 31//31 36//36
f 6//6 31//31 15//15
f 44//44 15//15 31//31
f 32//32 30//30 6//6
f 9//9 3//3 4//4
f 4//4 27//27 9//9
f 27//27 4//4 42//42
f 17//17 45//45 46//46
f 45//45 17//17 22//22
f 5//5 41//41 19//19
f 47//47 19//19 41//41
f 41//41 1//1 47//47
f 41//41 26//26 1//1
f 48//48 20//20 10//10
f 34//34 29//29 27//27
f 8//8 43//43 3//3
f 8//8 51//51 28//28
f 49//49 9//9 27//27
f 28//28 25//25 33//33
f 26//26 38//38 7//7
f 38//38 9//9 40//40
f 45//45 40//40 46//46
f 1//1 26//26 7//7
f 45//45 50//50 7//7
f 45//45 22//22 50//50
f 23//23 50//50 22//22
f 46//46 35//35 13//13
f 35//35 18//18 13//13
f 47//47 1//1 23//23
f 1//1 50//50 23//23
f 8//8 39//39 51//51
f 39//39 26//26 5//5
f 19//19 20//20 5//5
f 48//48 5//5 20//20
f 21//21 24//24 6//6
f 35//35 9//9 49//49
f 18//18 35//35 49//49
f 34//34 11//11 29//29
f 51//51 10//10 25//25
f 51//51 25//25 28//28
f 18//18 49//49 16//16
f 29//29 11//11 16//16
f 8//8 28//28 36//36
f 34//34 27//27 42//42
f 30//30 43//43 31//31
f 34//34 42//42 2//2
f 4//4 3//3 43//43
f 4//4 43//43 42//42
f 2//2 30//30 32//32
f 5//5 48//48 39//39
f 51//51 48//48 10//10
f 33//33 14//14 36//36
f 36//36 31//31 43//43
f 36//36 43//43 8//8
f 33//33 36//36 28//28
# 79 faces, 0 coords texture

# End of File
