####
#
# OBJ File Generated by Meshlab
#
####
# Object 399S.obj
#
# Vertices: 180
# Faces: 298
#
####
vn -4.188330 0.044373 -4.683340
v 35.532477 3.837605 38.840411
vn -4.202187 0.083915 -4.670123
v 40.011550 9.831501 34.902873
vn -4.189334 0.043999 -4.682462
v 38.368417 0.331176 36.284185
vn -4.175343 -0.073553 -4.694613
v 34.508492 -12.420211 39.727662
vn -4.194118 0.071977 -4.677840
v 35.075572 5.617169 39.267599
vn -4.203941 0.086942 -4.668779
v 38.629411 10.118174 36.162857
vn -4.182251 0.035523 -4.688899
v 35.981437 2.182787 38.423232
vn -4.183778 0.026790 -4.687571
v 36.884569 -0.506908 37.604540
vn -4.143754 0.037075 -4.722833
v 35.301547 -1.422152 39.003553
vn -4.209726 0.102239 -4.663237
v 39.322306 13.652406 35.607964
vn -4.156950 -0.042479 -4.711282
v 37.160707 -11.643686 37.363885
vn -4.207521 0.123358 -4.664708
v 36.473949 13.947483 38.201003
vn -4.182087 0.138576 -4.687077
v 35.164064 13.238760 39.351649
vn -4.187101 0.065742 -4.684228
v 39.844870 1.736806 34.978641
vn -4.164713 -0.053434 -4.704274
v 34.132823 -10.706418 40.035464
vn -4.196599 -0.116632 -4.674734
v 39.358587 -19.325685 35.543990
vn -4.263719 0.197628 -4.610621
v 38.763601 20.711532 36.322830
vn -4.183835 -0.025963 -4.687451
v 38.911723 -6.715037 35.788561
vn -4.173859 -0.010837 -4.696493
v 37.826238 -5.316609 36.742106
vn -4.196815 0.114011 -4.674576
v 36.124654 11.876531 38.462645
vn -4.181916 -0.038096 -4.689184
v 39.659913 -12.367464 35.161233
vn -4.189806 -0.109032 -4.681024
v 35.486515 -16.811994 38.944855
vn -4.273083 0.203405 -4.601738
v 36.765572 18.345328 38.072528
vn -4.212408 0.159901 -4.659143
v 35.418820 14.875774 39.174332
vn -4.165809 0.019668 -4.703582
v 36.372374 -4.364671 38.037965
vn -4.217717 -0.176904 -4.653728
v 38.481017 -22.964267 36.438344
vn -4.159682 -0.044765 -4.708839
v 41.297219 -9.373176 33.678969
vn -4.207530 -0.154096 -4.663832
v 37.334184 -21.746135 37.433332
vn -1.892018 0.097862 -2.023166
v 37.197146 21.943148 37.850799
vn -1.893549 -0.072567 -2.104664
v 36.220800 -22.063500 38.449400
vn -2.084714 -0.073810 -2.335777
v 35.385664 -19.868467 39.114422
vn -2.502270 0.049121 -2.813279
v 40.807400 9.644810 34.188600
vn -2.212559 0.051801 -2.459783
v 34.619033 7.103730 39.707279
vn -1.946072 -0.025072 -2.246463
v 44.235350 -16.436900 31.168550
vn -1.915033 0.084935 -2.096869
v 40.034250 22.119600 35.214300
vn -1.935869 0.104646 -2.117399
v 34.685850 19.159900 40.038700
vn -1.886760 0.070739 -2.130505
v 34.231300 12.747900 40.161400
vn -2.119794 -0.057081 -2.367901
v 34.107686 -16.008381 40.163335
vn -1.986631 0.023760 -2.283878
v 33.790704 -1.616806 40.312900
vn -1.910558 0.024239 -2.179434
v 33.045200 0.401403 40.990500
vn -1.913352 -0.013929 -2.177732
v 33.620309 -7.642362 40.464229
vn -2.139020 -0.013082 -2.425490
v 34.587600 -5.763730 39.607000
vn -2.068442 -0.021633 -2.379346
v 43.840150 -14.362300 31.488750
vn -2.029327 -0.015378 -2.314220
v 42.855200 -9.622460 32.312000
vn -2.573727 -0.005691 -2.868870
v 40.584400 -3.704250 34.273400
vn -2.529035 0.016833 -2.825923
v 40.575700 8.101790 34.381800
vn -2.154915 0.010639 -2.407151
v 41.186100 -2.053730 33.732300
vn -1.654835 -0.087642 -1.843687
v 37.264900 -24.338100 37.595200
vn -1.464764 -0.079297 -1.614919
v 38.101400 -25.162400 36.890600
vn -2.439614 -0.101497 -2.701268
v 37.001200 -23.140400 37.781900
vn -1.915452 0.024293 -2.188203
v 32.879500 1.420090 41.146600
vn -1.853546 0.037525 -2.096779
v 33.475861 5.282677 40.684629
vn -1.835150 -0.020821 -2.077462
v 33.042050 -9.718600 40.989850
vn -1.863044 0.041495 -2.143426
v 42.649500 12.314700 32.637950
vn -1.965524 0.043899 -2.259745
v 41.671850 10.706000 33.459300
vn -2.055010 -0.057707 -2.293432
v 34.845150 -18.393850 39.557000
vn -1.765279 -0.028226 -2.015716
v 44.135900 -21.054000 31.310500
vn -1.811530 -0.047749 -1.989574
v 41.869485 -24.198660 33.379548
vn -1.908450 0.095416 -2.052991
v 38.987850 22.361400 36.191050
vn -1.907903 0.099564 -2.058529
v 35.710200 20.750950 39.177700
vn -2.774488 0.073533 -3.080312
v 35.613400 9.368770 38.860700
vn -2.174457 0.013800 -2.456519
v 41.073700 6.750420 33.939700
vn -1.892167 0.022927 -2.150613
v 41.835600 5.246495 33.258200
vn -1.977000 -0.082036 -2.151503
v 40.048150 -24.770200 35.082450
vn -1.954315 -0.014912 -2.215481
v 41.722750 -6.580490 33.270550
vn -2.411093 -0.002339 -2.709628
v 40.925100 -5.416560 33.980000
vn -2.445294 -0.002139 -2.780922
v 34.806600 -5.237790 39.410300
vn -1.929416 0.096586 -2.123300
v 33.900700 16.276500 40.613050
vn -1.982590 0.104519 -2.179863
v 34.222200 17.883200 40.395000
vn -1.856806 0.061202 -2.076473
v 42.404050 19.936200 33.000850
vn -1.951395 0.088218 -2.162264
v 33.908350 14.545400 40.528250
vn -1.847681 0.030463 -2.113801
v 32.908250 3.274190 41.141000
vn -2.406252 0.016649 -2.767871
v 34.743300 -3.571530 39.467900
vn -1.914934 0.075664 -2.129210
v 41.452950 21.140150 33.894900
vn -4.188922 -0.041809 -4.682836
v 39.974598 -8.094359 34.837832
vn -4.207509 0.094824 -4.665402
v 36.046465 7.185828 38.418594
vn -4.159315 -0.051257 -4.708935
v 41.185114 -7.646845 33.753724
vn -1.940170 -0.025298 -2.217537
v 42.380750 -7.969165 32.714900
vn -4.171788 0.072255 -4.697566
v 37.763848 6.572092 36.863635
vn -4.164500 0.074092 -4.704020
v 41.390207 1.257947 33.584134
vn -4.164495 0.031027 -4.704671
v 35.618582 0.658114 38.736522
vn -4.178588 -0.041171 -4.692125
v 39.738793 -10.148654 35.072257
vn -4.183393 -0.084057 -4.687171
v 42.383806 -20.493621 32.844192
vn -4.162893 0.096697 -4.705206
v 41.915158 16.777525 33.358024
vn -4.258507 0.187322 -4.615675
v 38.032157 19.102431 36.928150
vn -4.184614 0.064495 -4.686410
v 38.920365 8.098708 35.870112
vn -4.193695 -0.122376 -4.677158
v 37.893065 -18.634291 36.834033
vn -4.143951 -0.057514 -4.722416
v 42.830244 -16.150856 32.383559
vn -4.197321 0.029280 -4.675412
v 38.299262 -1.555518 36.323598
vn -4.137829 0.050437 -4.728019
v 34.123815 0.353549 40.044421
vn -4.168506 -0.030070 -4.701112
v 38.489179 -8.719428 36.174435
vn -4.176554 -0.067371 -4.693541
v 36.025611 -12.952352 38.381470
vn -4.185348 -0.101062 -4.685187
v 34.993485 -14.593098 39.336391
vn -1.916041 -0.034671 -2.145992
v 43.242216 -22.701565 32.114294
vn -4.187892 -0.015005 -4.683976
v 39.527405 -4.848821 35.224022
vn -4.160276 -0.064697 -4.708010
v 37.293476 -13.519382 37.264831
vn -4.167509 0.041738 -4.701907
v 39.631203 6.037041 35.216852
vn -4.165609 0.048646 -4.703461
v 39.627391 3.865068 35.201979
vn -4.202772 -0.097928 -4.669628
v 40.860621 -19.909746 34.203076
vn -4.142138 -0.069446 -4.723786
v 43.268646 -19.354399 32.040254
vn -4.198309 0.040037 -4.674408
v 39.683640 -0.744700 35.085870
vn -1.947652 0.022433 -2.199548
v 41.720850 -0.886154 33.268150
vn -4.160546 -0.038405 -4.708145
v 38.360272 -10.853213 36.302091
vn -4.174300 -0.048277 -4.695783
v 40.961177 -13.640930 34.006171
vn -4.158103 0.037945 -4.710271
v 38.232211 4.522170 36.430896
vn -4.132228 0.075756 -4.732546
v 42.198387 14.664447 33.075723
vn -4.215725 0.161075 -4.656033
v 40.378301 19.935596 34.817851
vn -4.222453 0.118616 -4.651352
v 39.324061 16.149303 35.665615
vn -4.228364 0.147502 -4.645147
v 39.242637 18.499548 35.806327
vn -4.234826 0.138890 -4.639475
v 37.979581 17.213712 36.916185
vn -4.237763 0.159929 -4.636018
v 36.403010 16.249574 38.325679
vn -4.181304 -0.098605 -4.688831
v 36.554175 -15.270145 37.954846
vn -2.020859 -0.016504 -2.316598
v 43.431242 -12.089125 31.826233
vn -4.175537 -0.070568 -4.694495
v 41.182171 -15.878588 33.843657
vn -4.149670 0.054604 -4.717555
v 34.400612 2.282278 39.825530
vn -4.184420 0.028194 -4.687001
v 36.990210 3.254660 37.526233
vn -4.167474 0.038737 -4.702006
v 38.673985 2.457364 36.025578
vn -4.194942 0.050026 -4.677222
v 36.617652 5.266554 37.869853
vn -4.224961 0.116468 -4.649145
v 37.889385 14.941982 36.940555
vn -4.207578 0.096390 -4.665217
v 38.536978 11.787139 36.273272
vn -4.196268 0.099772 -4.675423
v 39.835956 11.644463 35.108341
vn -1.877853 0.029672 -2.166666
v 43.199500 14.127250 32.200700
vn -4.155108 0.098587 -4.711913
v 41.072857 11.267516 33.991212
vn -4.186437 -0.115267 -4.683888
v 36.644184 -17.644827 37.931032
vn -4.166329 -0.020458 -4.703136
v 35.971582 -8.255075 38.391311
vn -4.188412 -0.092958 -4.682598
v 40.379472 -17.868574 34.591864
vn -4.177562 -0.073947 -4.692597
v 42.055166 -18.218140 33.100250
vn -1.974313 -0.035391 -2.220434
v 33.072050 -11.751050 40.994250
vn -4.146591 -0.030169 -4.720481
v 42.122968 -10.941946 32.960781
vn -4.249799 0.219062 -4.622645
v 35.408171 17.954246 39.319486
vn -4.167284 -0.040857 -4.702172
v 35.635007 -10.628710 38.706472
vn -4.180646 0.022804 -4.690411
v 37.090342 1.324050 37.426217
vn -1.930141 -0.043721 -2.169111
v 33.381950 -13.898950 40.755400
vn -4.214801 -0.101524 -4.658688
v 41.392126 -22.058997 33.769922
vn -1.889882 0.028847 -2.147156
v 43.345250 16.082100 32.083650
vn -4.175584 -0.074687 -4.694368
v 38.136144 -14.954298 36.542745
vn -4.181767 -0.056321 -4.689109
v 39.686678 -14.459280 35.153023
vn -4.188305 0.008417 -4.683615
v 38.163785 -3.440989 36.439706
vn -4.163981 -0.045574 -4.705008
v 38.414238 -13.032591 36.275946
vn -4.268583 0.229904 -4.604752
v 35.911836 19.375278 38.924742
vn -4.194962 0.102775 -4.676494
v 37.277964 8.653913 37.341410
vn -4.169195 0.045616 -4.700381
v 40.666992 4.979363 34.282586
vn -4.236015 -0.149468 -4.638060
v 40.254097 -23.244402 34.835029
vn -4.214057 -0.122634 -4.658848
v 39.748446 -21.348808 35.239656
vn -1.898355 -0.026701 -2.195395
v 44.388363 -18.993148 31.067589
vn -4.182601 0.027677 -4.688578
v 36.772213 -2.355881 37.694934
vn -4.229557 0.207437 -4.641779
v 34.858537 16.335909 39.745378
vn -4.210296 0.108872 -4.662606
v 37.257558 10.720973 37.410686
vn -4.147459 -0.032844 -4.719691
v 42.104497 -12.544970 32.987473
vn -4.173914 -0.032986 -4.696329
v 40.965225 -11.550871 33.988254
vn -4.147199 -0.048308 -4.719713
v 42.351310 -14.270196 32.783685
vn -4.157619 0.067209 -4.710360
v 34.266587 4.150325 39.968882
vn -4.221374 0.116227 -4.652408
v 37.597292 12.741774 37.150948
vn -4.160817 0.089823 -4.706994
v 41.059901 13.163781 34.038794
vn -2.136494 0.055610 -2.405746
v 34.817700 11.467200 39.617350
vn -4.187043 -0.015565 -4.684635
v 40.416285 -6.477441 34.430892
vn -4.179251 0.099954 -4.690341
v 40.751380 15.345413 34.353968
vn -1.895897 0.046939 -2.137248
v 43.078500 18.098950 32.354350
vn -4.201112 0.127415 -4.670241
v 40.551780 17.625689 34.589937
vn -1.843247 0.034926 -2.093105
v 42.332950 3.191530 32.792600
vn -4.157008 -0.030394 -4.711314
v 37.090412 -9.485700 37.408391
vn -4.143832 0.030938 -4.722907
v 35.586503 -3.384844 38.735362
vn -2.330040 -0.110361 -2.538545
v 38.960450 -24.780500 36.079350
vn -4.202419 -0.138667 -4.668913
v 38.237288 -20.658738 36.585302
vn -1.865274 0.031610 -2.131254
v 42.264100 1.099337 32.816950
vn -4.131949 -0.059640 -4.732956
v 43.346957 -17.820207 31.953553
vn -4.188623 -0.101276 -4.682224
v 38.919616 -17.478229 35.888059
vn -4.192082 -0.146770 -4.677943
v 36.750448 -19.912104 37.899516
vn -4.170929 0.068419 -4.698593
v 40.999279 3.306248 33.970824
vn -4.186817 -0.096935 -4.683964
v 37.814425 -16.668218 36.862831
vn -4.158799 -0.019256 -4.709819
v 37.401282 -7.349838 37.125129
vn -4.184511 0.133030 -4.685088
v 41.645580 18.959745 33.650302
vn -4.158315 -0.029750 -4.710182
v 34.525726 -9.025527 39.678495
vn -4.161380 -0.004926 -4.707565
v 36.091304 -6.114795 38.280603
vn -4.182964 -0.125380 -4.686697
v 35.790143 -18.557202 38.714943
vn -4.158704 -0.019997 -4.709876
v 34.981524 -7.294375 39.267579
vn -4.182663 -0.079944 -4.687988
v 39.377826 -16.165535 35.454447
vn -4.193738 0.003219 -4.678771
v 39.615816 -2.799328 35.144062
vn -4.287537 0.228606 -4.587265
v 37.147385 20.184724 37.811800
vn -4.188421 0.057101 -4.683086
v 40.580789 0.000989 34.288861
# 180 vertices, 0 vertices normals

f 2//2 32//32 46//46
f 101//101 14//14 180//180
f 75//75 91//91 18//18
f 156//156 75//75 18//18
f 23//23 111//111 130//130
f 116//116 132//132 7//7
f 128//128 4//4 133//133
f 84//84 135//135 106//106
f 51//51 90//90 40//40
f 17//17 59//59 35//35
f 149//149 129//129 113//113
f 76//76 5//5 33//33
f 21//21 139//139 103//103
f 16//16 87//87 167//167
f 137//137 21//21 104//104
f 146//146 8//8 89//89
f 95//95 45//45 66//66
f 99//99 83//83 134//134
f 89//89 101//101 178//178
f 137//137 114//114 177//177
f 12//12 111//111 119//119
f 114//114 126//126 177//177
f 127//127 88//88 166//166
f 141//141 76//76 61//61
f 148//148 153//153 120//120
f 119//119 10//10 153//153
f 154//154 121//121 10//10
f 20//20 61//61 155//155
f 137//137 136//136 139//139
f 172//172 158//158 84//84
f 109//109 107//107 159//159
f 111//111 23//23 110//110
f 27//27 150//150 82//82
f 169//169 63//63 160//160
f 172//172 84//84 159//159
f 171//171 125//125 174//174
f 13//13 37//37 71//71
f 168//168 30//30 31//31
f 27//27 77//77 78//78
f 27//27 78//78 44//44
f 115//115 7//7 81//81
f 132//132 81//81 7//7
f 134//134 83//83 94//94
f 3//3 14//14 101//101
f 3//3 117//117 14//14
f 90//90 39//39 40//40
f 166//166 88//88 34//34
f 93//93 92//92 112//112
f 106//106 154//154 157//157
f 81//81 90//90 115//115
f 131//131 92//92 4//4
f 92//92 93//93 4//4
f 134//134 94//94 58//58
f 82//82 103//103 91//91
f 92//92 11//11 96//96
f 3//3 8//8 132//132
f 132//132 8//8 81//81
f 80//80 14//14 169//169
f 100//100 166//166 145//145
f 89//89 3//3 101//101
f 102//102 47//47 180//180
f 61//61 20//20 148//148
f 142//142 98//98 97//97
f 105//105 79//79 97//97
f 90//90 81//81 9//9
f 49//49 26//26 163//163
f 17//17 107//107 109//109
f 85//85 109//109 110//110
f 110//110 109//109 108//108
f 147//147 111//111 24//24
f 26//26 48//48 50//50
f 38//38 93//93 22//22
f 151//151 113//113 43//43
f 115//115 51//51 72//72
f 90//90 51//51 115//115
f 34//34 88//88 43//43
f 7//7 115//115 1//1
f 117//117 116//116 105//105
f 1//1 118//118 116//116
f 116//116 118//118 105//105
f 76//76 118//118 5//5
f 105//105 118//118 79//79
f 20//20 12//12 153//153
f 119//119 108//108 10//10
f 6//6 120//120 121//121
f 123//123 2//2 121//121
f 2//2 46//46 86//86
f 86//86 6//6 2//2
f 6//6 121//121 2//2
f 154//154 106//106 54//54
f 122//122 54//54 106//106
f 123//123 54//54 55//55
f 54//54 123//123 154//154
f 95//95 156//156 18//18
f 27//27 82//82 75//75
f 2//2 123//123 32//32
f 15//15 131//131 4//4
f 15//15 4//4 128//128
f 145//145 166//166 34//34
f 82//82 21//21 103//103
f 99//99 126//126 127//127
f 92//92 96//96 112//112
f 128//128 53//53 15//15
f 130//130 111//111 147//147
f 92//92 131//131 11//11
f 1//1 116//116 7//7
f 116//116 117//117 132//132
f 93//93 38//38 133//133
f 94//94 83//83 57//57
f 93//93 133//133 4//4
f 100//100 83//83 127//127
f 100//100 127//127 166//166
f 106//106 135//135 122//122
f 85//85 17//17 109//109
f 167//167 177//177 126//126
f 161//161 11//11 131//131
f 125//125 161//161 131//131
f 125//125 131//131 173//173
f 89//89 178//178 138//138
f 138//138 146//146 89//89
f 103//103 139//139 11//11
f 11//11 139//139 96//96
f 96//96 139//139 136//136
f 82//82 91//91 75//75
f 17//17 35//35 107//107
f 74//74 107//107 35//35
f 9//9 81//81 8//8
f 18//18 171//171 19//19
f 126//126 16//16 167//167
f 16//16 164//164 87//87
f 89//89 8//8 3//3
f 36//36 140//140 130//130
f 140//140 36//36 60//60
f 18//18 19//19 95//95
f 33//33 61//61 76//76
f 141//141 6//6 86//86
f 46//46 62//62 97//97
f 169//169 142//142 63//63
f 64//64 143//143 58//58
f 156//156 95//95 66//66
f 75//75 77//77 27//27
f 50//50 30//30 28//28
f 28//28 30//30 168//168
f 60//60 179//179 140//140
f 29//29 179//179 60//60
f 179//179 85//85 23//23
f 140//140 23//23 130//130
f 164//164 16//16 144//144
f 16//16 126//126 99//99
f 112//112 96//96 136//136
f 170//170 124//124 112//112
f 83//83 100//100 57//57
f 145//145 57//57 100//100
f 28//28 26//26 50//50
f 124//124 87//87 168//168
f 56//56 22//22 175//175
f 31//31 175//175 168//168
f 95//95 138//138 178//178
f 47//47 101//101 180//180
f 101//101 47//47 178//178
f 45//45 178//178 47//47
f 73//73 162//162 67//67
f 8//8 146//146 9//9
f 25//25 19//19 174//174
f 147//147 68//68 69//69
f 130//130 147//147 69//69
f 130//130 69//69 36//36
f 164//164 144//144 26//26
f 6//6 141//141 148//148
f 141//141 61//61 148//148
f 104//104 21//21 150//150
f 149//149 150//150 129//129
f 137//137 104//104 114//114
f 114//114 104//104 151//151
f 151//151 104//104 149//149
f 9//9 73//73 39//39
f 13//13 24//24 12//12
f 71//71 147//147 24//24
f 108//108 119//119 110//110
f 147//147 71//71 68//68
f 12//12 24//24 111//111
f 71//71 24//24 13//13
f 151//151 149//149 113//113
f 88//88 114//114 151//151
f 114//114 88//88 127//127
f 114//114 127//127 126//126
f 141//141 79//79 76//76
f 118//118 1//1 5//5
f 152//152 72//72 52//52
f 1//1 115//115 152//152
f 152//152 5//5 1//1
f 152//152 52//52 5//5
f 33//33 5//5 52//52
f 15//15 53//53 173//173
f 6//6 148//148 120//120
f 148//148 20//20 153//153
f 12//12 119//119 153//153
f 153//153 10//10 120//120
f 120//120 10//10 121//121
f 117//117 3//3 132//132
f 155//155 13//13 20//20
f 155//155 37//37 13//13
f 156//156 66//66 65//65
f 106//106 157//157 84//84
f 154//154 123//123 121//121
f 129//129 27//27 44//44
f 21//21 137//137 139//139
f 19//19 138//138 95//95
f 77//77 75//75 156//156
f 84//84 158//158 135//135
f 108//108 109//109 159//159
f 119//119 111//111 110//110
f 110//110 23//23 85//85
f 165//165 80//80 160//160
f 169//169 160//160 80//80
f 91//91 103//103 161//161
f 103//103 11//11 161//161
f 27//27 129//129 150//150
f 82//82 150//150 21//21
f 125//125 171//171 161//161
f 91//91 161//161 171//171
f 9//9 146//146 162//162
f 146//146 25//25 162//162
f 162//162 73//73 9//9
f 157//157 154//154 10//10
f 157//157 10//10 108//108
f 77//77 65//65 78//78
f 163//163 26//26 143//143
f 64//64 163//163 143//143
f 26//26 49//49 48//48
f 174//174 42//42 67//67
f 42//42 174//174 176//176
f 164//164 26//26 28//28
f 164//164 168//168 87//87
f 29//29 59//59 17//17
f 172//172 70//70 158//158
f 165//165 102//102 80//80
f 42//42 176//176 41//41
f 77//77 156//156 65//65
f 88//88 151//151 43//43
f 72//72 152//152 115//115
f 76//76 79//79 118//118
f 143//143 134//134 58//58
f 105//105 98//98 117//117
f 179//179 23//23 140//140
f 17//17 85//85 179//179
f 123//123 55//55 32//32
f 22//22 56//56 38//38
f 142//142 97//97 62//62
f 142//142 62//62 63//63
f 144//144 143//143 26//26
f 144//144 134//134 143//143
f 144//144 99//99 134//134
f 16//16 99//99 144//144
f 159//159 84//84 157//157
f 108//108 159//159 157//157
f 129//129 44//44 113//113
f 159//159 107//107 172//172
f 28//28 168//168 164//164
f 169//169 98//98 142//142
f 102//102 180//180 80//80
f 97//97 86//86 46//46
f 90//90 9//9 39//39
f 93//93 112//112 22//22
f 124//124 170//170 87//87
f 173//173 131//131 15//15
f 124//124 22//22 112//112
f 149//149 104//104 150//150
f 86//86 79//79 141//141
f 167//167 87//87 170//170
f 20//20 13//13 12//12
f 91//91 171//171 18//18
f 172//172 74//74 70//70
f 171//171 174//174 19//19
f 56//56 175//175 31//31
f 175//175 124//124 168//168
f 173//173 53//53 41//41
f 176//176 174//174 125//125
f 176//176 173//173 41//41
f 172//172 107//107 74//74
f 22//22 124//124 175//175
f 79//79 86//86 97//97
f 173//173 176//176 125//125
f 112//112 136//136 170//170
f 177//177 136//136 137//137
f 170//170 136//136 177//177
f 177//177 167//167 170//170
f 83//83 99//99 127//127
f 95//95 178//178 45//45
f 17//17 179//179 29//29
f 98//98 105//105 97//97
f 25//25 146//146 138//138
f 19//19 25//25 138//138
f 14//14 117//117 98//98
f 25//25 174//174 67//67
f 162//162 25//25 67//67
f 14//14 98//98 169//169
f 180//180 14//14 80//80
# 298 faces, 0 coords texture

# End of File
