####
#
# OBJ File Generated by Meshlab
#
####
# Object 409.obj
#
# Vertices: 54
# Faces: 80
#
####
vn 4.237010 0.026178 -4.638148
v -37.765108 43.204611 37.234389
vn 1.166857 0.021275 -1.067339
v -44.067500 38.000000 30.718000
vn 2.308436 0.040047 -2.130672
v -43.030050 38.000000 31.854150
vn 2.222737 -0.006265 -2.219599
v -40.511400 50.000000 34.622400
vn 2.050356 0.003161 -2.373319
v -36.076300 48.598875 38.718000
vn 2.361566 -0.008436 -2.061223
v -44.070700 47.258000 30.718000
vn 4.650361 0.001509 -4.224721
v -43.066886 44.059484 31.861187
vn 4.485490 0.010670 -4.398585
v -40.537030 42.533801 34.548658
vn 2.322072 0.012897 -2.114176
v -42.155150 50.000000 32.916300
vn 2.097177 -0.026430 -2.338983
v -37.168650 50.000000 37.764350
vn 4.550928 0.039630 -4.331512
v -41.451278 41.144073 33.583895
vn 2.068583 0.034194 -2.363062
v -36.058400 40.922800 38.718000
vn 4.290532 0.033526 -4.586006
v -38.313300 45.152393 36.758208
vn 2.307131 -0.017828 -2.119521
v -44.108200 42.052500 30.718000
vn 2.170059 0.014908 -2.271007
v -38.920100 38.000000 36.118500
vn 1.036500 0.000697 -1.187625
v -36.086600 50.000000 38.718000
vn 2.075478 0.036157 -2.362078
v -36.034100 39.321500 38.718000
vn 2.156749 -0.012671 -2.284088
v -38.965750 50.000000 36.116250
vn 1.203411 -0.015402 -1.022284
v -44.040000 50.000000 30.718000
vn 2.380956 -0.018165 -2.047225
v -44.049850 49.230400 30.718000
vn 1.026244 0.018352 -1.169981
v -36.008800 38.000000 38.718000
vn 2.271460 0.032828 -2.170137
v -41.421813 38.000000 33.574588
vn 4.159471 -0.006770 -4.708081
v -37.180489 46.722670 37.772782
vn 4.431559 0.050547 -4.453462
v -39.957799 45.918557 35.145717
vn 4.407961 0.020938 -4.477216
v -39.503639 43.823525 35.566239
vn 2.382635 -0.005978 -2.047584
v -43.291600 50.000000 31.599000
vn 4.453041 0.054616 -4.431862
v -40.013720 40.544427 35.055223
vn 2.302575 0.018878 -2.122937
v -44.109638 40.361611 30.722164
vn 4.196454 -0.025470 -4.675162
v -37.366066 48.821994 37.600654
vn 4.509233 0.043827 -4.374888
v -40.952088 44.565432 34.118322
vn 4.546183 0.021768 -4.335775
v -41.315062 48.573005 33.798684
vn 4.560705 0.053199 -4.319238
v -41.501346 46.613363 33.592836
vn 4.596153 0.050860 -4.283703
v -42.105011 44.868715 32.901605
vn 4.415825 0.021749 -4.468541
v -40.146538 48.111595 34.984678
vn 2.074242 0.005885 -2.368287
v -36.086100 44.574200 38.716550
vn 2.035307 -0.005911 -2.386097
v -36.074500 46.389400 38.717000
vn 2.231393 0.024857 -2.211363
v -39.728900 38.000000 35.313400
vn 4.164923 0.068655 -4.703831
v -36.938588 39.557067 37.926864
vn 2.096662 0.023264 -2.339469
v -37.617558 38.000000 37.309093
vn 4.619385 0.064355 -4.258497
v -43.301154 39.371010 31.583127
vn 4.579239 0.013527 -4.302029
v -41.869469 43.185920 33.148683
vn 4.614737 0.011864 -4.263923
v -43.038698 41.565698 31.886263
vn 2.332129 -0.012581 -2.104952
v -44.095400 43.228200 30.718000
vn 2.082231 0.014015 -2.366435
v -36.082550 42.404000 38.718000
vn 4.200005 0.055836 -4.671798
v -37.431263 41.313579 37.523147
vn 4.295706 0.043575 -4.583961
v -38.533396 39.690057 36.491564
vn 2.363697 -0.005459 -2.080249
v -44.070650 45.516293 30.718000
vn 4.508714 0.056796 -4.375520
v -40.777133 39.358126 34.260207
vn 4.581910 0.055741 -4.298605
v -42.212550 39.482537 32.760967
vn 4.430185 0.028584 -4.455025
v -39.614186 39.054782 35.438439
vn 4.359041 0.018778 -4.523227
v -39.054802 41.815870 36.022048
vn 4.697807 0.010274 -4.171677
v -42.744964 48.186951 32.233701
vn 4.314015 -0.009397 -4.567448
v -38.710157 47.438566 36.365008
vn 4.677497 0.022590 -4.194387
v -42.886953 46.086271 32.069635
# 54 vertices, 0 vertices normals

f 5//5 23//23 29//29
f 5//5 29//29 16//16
f 44//44 45//45 1//1
f 8//8 11//11 41//41
f 45//45 51//51 1//1
f 32//32 31//31 34//34
f 32//32 30//30 33//33
f 25//25 24//24 13//13
f 2//2 40//40 3//3
f 40//40 2//2 28//28
f 28//28 14//14 42//42
f 24//24 53//53 13//13
f 25//25 1//1 51//51
f 9//9 4//4 31//31
f 16//16 29//29 10//10
f 8//8 30//30 25//25
f 54//54 33//33 7//7
f 42//42 11//11 49//49
f 35//35 44//44 1//1
f 4//4 18//18 34//34
f 5//5 36//36 23//23
f 36//36 35//35 23//23
f 15//15 37//37 50//50
f 37//37 22//22 48//48
f 49//49 11//11 48//48
f 17//17 38//38 12//12
f 10//10 29//29 18//18
f 39//39 15//15 46//46
f 17//17 21//21 38//38
f 39//39 38//38 21//21
f 40//40 28//28 42//42
f 7//7 41//41 42//42
f 11//11 42//42 41//41
f 33//33 41//41 7//7
f 42//42 43//43 7//7
f 43//43 47//47 7//7
f 41//41 30//30 8//8
f 24//24 34//34 53//53
f 44//44 12//12 45//45
f 12//12 38//38 45//45
f 22//22 49//49 48//48
f 18//18 29//29 53//53
f 29//29 23//23 53//53
f 11//11 8//8 27//27
f 8//8 51//51 27//27
f 50//50 27//27 46//46
f 33//33 30//30 41//41
f 47//47 6//6 54//54
f 52//52 54//54 6//6
f 1//1 25//25 13//13
f 30//30 24//24 25//25
f 46//46 51//51 45//45
f 46//46 45//45 38//38
f 9//9 52//52 26//26
f 19//19 26//26 20//20
f 52//52 20//20 26//26
f 6//6 20//20 52//52
f 11//11 27//27 48//48
f 46//46 38//38 39//39
f 54//54 7//7 47//47
f 27//27 51//51 46//46
f 31//31 4//4 34//34
f 40//40 49//49 3//3
f 42//42 49//49 40//40
f 43//43 42//42 14//14
f 34//34 18//18 53//53
f 50//50 48//48 27//27
f 50//50 37//37 48//48
f 15//15 50//50 46//46
f 23//23 13//13 53//53
f 25//25 51//51 8//8
f 9//9 31//31 52//52
f 32//32 34//34 24//24
f 49//49 22//22 3//3
f 54//54 32//32 33//33
f 52//52 32//32 54//54
f 32//32 52//52 31//31
f 32//32 24//24 30//30
f 35//35 1//1 13//13
f 23//23 35//35 13//13
# 80 faces, 0 coords texture

# End of File
