####
#
# OBJ File Generated by Meshlab
#
####
# Object 421.obj
#
# Vertices: 55
# Faces: 83
#
####
vn 2.196059 0.013061 -2.245873
v -40.813550 -38.000000 34.516700
vn 4.248300 0.032859 -4.628017
v -38.713201 -44.303514 36.467075
vn 2.054404 0.034570 -2.366578
v -36.177800 -41.731150 38.718000
vn 4.592111 0.005522 -4.287597
v -43.044566 -39.748997 32.226479
vn 4.604345 0.114327 -4.272722
v -42.908078 -46.531267 32.241916
vn 4.630026 0.133124 -4.245321
v -42.883970 -48.611110 32.187340
vn 4.525602 0.090662 -4.356292
v -41.506772 -47.636164 33.701673
vn 2.326673 0.078538 -2.112073
v -44.247900 -47.739700 30.718000
vn 2.060970 0.011795 -2.370823
v -37.173400 -50.000000 37.798200
vn 2.065704 0.046829 -2.356745
v -36.233839 -39.122500 38.717988
vn 2.308302 0.055797 -2.107732
v -44.395576 -43.121099 30.718000
vn 2.262023 -0.003393 -2.179792
v -42.224450 -38.000000 33.089500
vn 2.144872 0.014454 -2.295144
v -39.303376 -38.000000 35.953551
vn 1.012385 0.006446 -1.194654
v -36.088000 -50.000000 38.718000
vn 2.089508 0.046403 -2.345253
v -36.764000 -38.000000 38.277800
vn 1.058998 0.033090 -1.191072
v -36.268900 -38.000000 38.718000
vn 2.034300 0.019172 -2.386652
v -36.112100 -46.628900 38.718000
vn 1.156029 0.013481 -1.051773
v -44.426000 -38.000000 30.718000
vn 2.057077 0.021901 -2.377943
v -36.150500 -44.094000 38.718000
vn 4.634847 0.026300 -4.241435
v -43.624359 -41.355229 31.593426
vn 4.400097 0.054354 -4.483824
v -40.839870 -41.500825 34.470363
vn 1.180518 0.031341 -1.067687
v -44.176000 -50.000000 30.718000
vn 4.237766 0.042932 -4.638706
v -38.207173 -39.527142 36.949465
vn 4.134502 0.041440 -4.730698
v -37.311128 -45.222184 37.706498
vn 4.162347 0.038206 -4.706324
v -37.541868 -42.792756 37.520460
vn 4.223281 0.033903 -4.651974
v -38.317995 -41.113861 36.834963
vn 2.190210 0.024211 -2.251686
v -39.754400 -50.000000 35.429800
vn 4.430662 0.070116 -4.453675
v -40.369048 -48.574370 34.836890
vn 4.279111 0.033290 -4.599758
v -39.186279 -42.349947 36.041547
vn 2.314258 0.064624 -2.119326
v -44.316800 -45.735500 30.718000
vn 4.469961 0.016963 -4.414857
v -41.729842 -39.668887 33.595068
vn 2.116914 0.023692 -2.321046
v -37.620900 -38.000000 37.501100
vn 2.316082 0.009981 -2.122359
v -43.729400 -38.000000 31.483650
vn 2.275290 0.053912 -2.165897
v -41.505903 -49.999933 33.643540
vn 2.038974 0.013483 -2.388455
v -36.098400 -48.366600 38.718000
vn 4.187835 0.067377 -4.683241
v -37.153761 -39.069254 37.913159
vn 4.167529 0.065190 -4.701252
v -37.204001 -40.612493 37.847104
vn 2.335967 0.009379 -2.113023
v -44.409850 -39.384950 30.718000
vn 4.357806 0.043219 -4.525113
v -39.773517 -45.402387 35.459600
vn 4.578009 0.122505 -4.301449
v -42.972911 -44.595491 32.206174
vn 2.333463 0.006686 -2.095058
v -44.411100 -41.091400 30.718000
vn 4.295886 0.024794 -4.584649
v -39.491082 -40.393600 35.765239
vn 4.111477 0.034355 -4.750717
v -37.104254 -46.985624 37.872396
vn 4.390423 0.054905 -4.493956
v -40.262422 -43.832569 34.993894
vn 2.326000 0.047992 -2.111334
v -43.120900 -50.000000 31.894750
vn 4.364496 0.027148 -4.519661
v -40.479074 -39.413894 34.826008
vn 4.235444 0.046669 -4.640058
v -38.484947 -46.483635 36.652524
vn 4.381488 0.055514 -4.502046
v -40.037794 -46.989030 35.185732
vn 4.298631 0.039999 -4.582086
v -39.077466 -48.378963 36.080637
vn 2.123798 0.017704 -2.314843
v -38.440100 -50.000000 36.662300
vn 4.490219 0.057889 -4.393921
v -41.404653 -45.603963 33.834748
vn 4.170512 0.031031 -4.698569
v -37.711704 -48.310551 37.333900
vn 4.574598 0.128430 -4.302624
v -43.097303 -43.001486 32.145353
vn 4.511817 0.059984 -4.371061
v -42.335885 -41.590368 32.965416
vn 4.479969 0.100706 -4.404126
v -41.716249 -43.449080 33.544448
# 55 vertices, 0 vertices normals

f 32//32 15//15 36//36
f 10//10 15//15 16//16
f 4//4 12//12 31//31
f 1//1 46//46 31//31
f 28//28 7//7 48//48
f 54//54 20//20 4//4
f 48//48 47//47 49//49
f 26//26 37//37 25//25
f 27//27 34//34 28//28
f 2//2 29//29 25//25
f 29//29 26//26 25//25
f 5//5 6//6 8//8
f 11//11 53//53 40//40
f 30//30 40//40 5//5
f 30//30 5//5 8//8
f 6//6 5//5 7//7
f 36//36 23//23 32//32
f 9//9 52//52 35//35
f 33//33 12//12 4//4
f 34//34 45//45 6//6
f 52//52 43//43 35//35
f 9//9 35//35 14//14
f 10//10 36//36 15//15
f 37//37 36//36 10//10
f 38//38 18//18 33//33
f 33//33 4//4 38//38
f 24//24 17//17 43//43
f 11//11 41//41 20//20
f 20//20 38//38 4//4
f 11//11 20//20 53//53
f 10//10 3//3 37//37
f 29//29 42//42 26//26
f 29//29 44//44 21//21
f 21//21 44//44 55//55
f 3//3 19//19 25//25
f 25//25 37//37 3//3
f 8//8 6//6 22//22
f 45//45 22//22 6//6
f 42//42 29//29 21//21
f 39//39 51//51 44//44
f 12//12 1//1 31//31
f 31//31 46//46 21//21
f 39//39 44//44 2//2
f 44//44 29//29 2//2
f 28//28 34//34 7//7
f 48//48 51//51 39//39
f 49//49 52//52 50//50
f 49//49 50//50 27//27
f 7//7 5//5 51//51
f 34//34 6//6 7//7
f 49//49 27//27 28//28
f 48//48 7//7 51//51
f 13//13 23//23 42//42
f 13//13 42//42 46//46
f 21//21 46//46 42//42
f 52//52 9//9 50//50
f 43//43 52//52 47//47
f 43//43 47//47 24//24
f 53//53 54//54 55//55
f 46//46 1//1 13//13
f 54//54 21//21 55//55
f 21//21 54//54 31//31
f 55//55 40//40 53//53
f 40//40 55//55 51//51
f 20//20 54//54 53//53
f 20//20 41//41 38//38
f 28//28 48//48 49//49
f 25//25 24//24 2//2
f 47//47 48//48 39//39
f 47//47 39//39 2//2
f 23//23 13//13 32//32
f 23//23 37//37 26//26
f 43//43 17//17 35//35
f 23//23 36//36 37//37
f 24//24 25//25 19//19
f 17//17 24//24 19//19
f 2//2 24//24 47//47
f 11//11 40//40 30//30
f 44//44 51//51 55//55
f 54//54 4//4 31//31
f 23//23 26//26 42//42
f 52//52 49//49 47//47
f 51//51 5//5 40//40
# 83 faces, 0 coords texture

# End of File
