####
#
# OBJ File Generated by Meshlab
#
####
# Object 433S.obj
#
# Vertices: 53
# Faces: 83
#
####
vn 2.467750 -0.178827 -5.774820
v -12.059114 -19.781228 55.942292
vn 2.811341 -0.201746 -5.613799
v -14.858731 -17.808131 54.590971
vn 2.625606 -0.148953 -5.706152
v -13.096997 -16.805671 55.393170
vn 2.635103 -0.240560 -5.698696
v -14.061861 -19.701509 55.038197
vn 1.467850 -0.058629 -2.371751
v -18.416442 -12.468308 52.386056
vn 0.893012 -0.061987 -2.689328
v -8.608570 -16.138500 57.141200
vn 1.356594 -0.053712 -2.580226
v -15.248000 -10.840500 54.204150
vn 1.373061 -0.055838 -2.373386
v -16.688200 -11.145300 53.409100
vn 1.145965 -0.065430 -2.601110
v -11.703086 -11.695498 55.893087
vn 1.419640 -0.096465 -2.380506
v -17.509100 -22.855800 53.316600
vn 1.047278 -0.065917 -2.613566
v -10.394000 -12.740950 56.467150
vn 1.518588 -0.091257 -2.372025
v -19.317672 -20.240359 52.058378
vn 0.978652 -0.128327 -2.740111
v -8.875390 -20.060600 57.187400
vn 1.227182 -0.122807 -2.572604
v -13.771100 -24.072100 55.388950
vn 1.081005 -0.148885 -2.632957
v -10.759461 -22.782742 56.626635
vn 1.087701 -0.116426 -2.500361
v -12.456400 -23.882200 55.961700
vn 1.005396 -0.132252 -2.632335
v -9.362370 -21.172950 57.077000
vn 3.396843 -0.184732 -5.282432
v -19.007655 -16.375530 52.117367
vn 1.534621 -0.077982 -2.341197
v -19.965900 -16.100800 51.480100
vn 3.121552 -0.202192 -5.446898
v -16.600229 -17.384007 53.644640
vn 2.642752 -0.153995 -5.696710
v -13.092802 -14.835160 55.357653
vn 3.163876 -0.229345 -5.421688
v -16.606682 -19.175138 53.713813
vn 2.141753 -0.153185 -5.903454
v -9.964816 -17.260807 56.721083
vn 2.464777 -0.141143 -5.776935
v -11.486481 -13.979580 56.046076
vn 3.248265 -0.150312 -5.374980
v -17.431080 -14.098789 53.041772
vn 2.634137 -0.146121 -5.702148
v -12.958475 -12.870268 55.355935
vn 3.121898 -0.126178 -5.449577
v -16.479503 -12.446574 53.560451
vn 1.539536 -0.087644 -2.377393
v -19.942124 -18.034821 51.570381
vn 1.363338 -0.082690 -2.533288
v -15.833446 -23.713270 54.314438
vn 3.171492 -0.199847 -5.419372
v -16.763616 -21.687177 53.713821
vn 2.826471 -0.205926 -5.602616
v -15.010370 -21.480885 54.686343
vn 2.978414 -0.158507 -5.528545
v -15.696284 -13.942022 54.030663
vn 2.812535 -0.189994 -5.612563
v -14.735006 -15.652939 54.595736
vn 1.230874 -0.048869 -2.572172
v -13.764000 -10.911700 54.945800
vn 2.618208 -0.166928 -5.708922
v -13.042488 -18.375579 55.466973
vn 2.438344 -0.139832 -5.787992
v -11.480866 -16.070921 56.096442
vn 2.467959 -0.296684 -5.770046
v -12.238419 -22.416927 55.987767
vn 3.302181 -0.207888 -5.340933
v -17.723167 -20.333894 53.078590
vn 1.584646 -0.114531 -2.566482
v -18.042000 -22.219700 52.958100
vn 0.960742 -0.084209 -2.744947
v -8.545391 -18.345656 57.243033
vn 2.413968 -0.145001 -5.795632
v -11.500065 -18.017904 56.152269
vn 0.915903 -0.051507 -2.726931
v -9.095035 -14.715650 56.964800
vn 1.510134 -0.063397 -2.370082
v -19.384239 -13.998207 51.801839
vn 2.664777 -0.247769 -5.682732
v -13.735343 -22.862251 55.348253
vn 2.370135 -0.290376 -5.811525
v -11.148425 -21.255918 56.375513
vn 2.166961 -0.117315 -5.892734
v -10.095881 -15.168400 56.637195
vn 3.337365 -0.198998 -5.319286
v -18.165763 -18.242730 52.725148
vn 3.286549 -0.181870 -5.351534
v -17.723514 -15.998355 52.915015
vn 2.224478 -0.188956 -5.872455
v -10.100408 -19.522102 56.724656
vn 2.540346 -0.283965 -5.739131
v -13.048614 -21.271874 55.577796
vn 2.852378 -0.109744 -5.596000
v -14.880327 -12.700197 54.429371
vn 3.061923 -0.177645 -5.482170
v -16.073584 -15.985032 53.892078
vn 2.954938 -0.245267 -5.530937
v -15.657609 -19.945049 54.298671
# 53 vertices, 0 vertices normals

f 20//20 2//2 22//22
f 39//39 30//30 10//10
f 13//13 49//49 40//40
f 33//33 3//3 2//2
f 35//35 3//3 41//41
f 44//44 29//29 31//31
f 44//44 37//37 16//16
f 19//19 43//43 18//18
f 5//5 27//27 25//25
f 27//27 5//5 8//8
f 24//24 21//21 26//26
f 53//53 38//38 22//22
f 18//18 28//28 19//19
f 30//30 29//29 10//10
f 30//30 31//31 29//29
f 25//25 27//27 32//32
f 21//21 51//51 26//26
f 32//32 21//21 33//33
f 30//30 38//38 53//53
f 51//51 7//7 34//34
f 26//26 34//34 9//9
f 6//6 23//23 46//46
f 3//3 35//35 2//2
f 27//27 8//8 7//7
f 27//27 7//7 51//51
f 3//3 21//21 36//36
f 11//11 24//24 9//9
f 24//24 26//26 9//9
f 38//38 12//12 47//47
f 38//38 47//47 22//22
f 47//47 12//12 28//28
f 39//39 38//38 30//30
f 39//39 12//12 38//38
f 2//2 35//35 4//4
f 35//35 1//1 4//4
f 2//2 4//4 53//53
f 33//33 21//21 3//3
f 33//33 2//2 52//52
f 23//23 41//41 36//36
f 42//42 6//6 46//46
f 50//50 31//31 4//4
f 51//51 21//21 32//32
f 32//32 52//52 25//25
f 41//41 3//3 36//36
f 43//43 5//5 25//25
f 44//44 14//14 29//29
f 44//44 50//50 37//37
f 15//15 37//37 45//45
f 37//37 15//15 16//16
f 31//31 50//50 44//44
f 14//14 44//44 16//16
f 17//17 45//45 49//49
f 45//45 17//17 15//15
f 11//11 42//42 46//46
f 46//46 24//24 11//11
f 49//49 1//1 41//41
f 50//50 45//45 37//37
f 40//40 49//49 23//23
f 49//49 41//41 23//23
f 23//23 6//6 40//40
f 4//4 1//1 50//50
f 47//47 18//18 48//48
f 23//23 36//36 46//46
f 24//24 46//46 36//36
f 1//1 35//35 41//41
f 49//49 45//45 1//1
f 17//17 49//49 13//13
f 47//47 28//28 18//18
f 36//36 21//21 24//24
f 50//50 1//1 45//45
f 48//48 20//20 47//47
f 51//51 34//34 26//26
f 33//33 52//52 32//32
f 52//52 20//20 48//48
f 52//52 48//48 25//25
f 22//22 47//47 20//20
f 20//20 52//52 2//2
f 4//4 31//31 53//53
f 30//30 53//53 31//31
f 27//27 51//51 32//32
f 2//2 53//53 22//22
f 43//43 25//25 48//48
f 43//43 48//48 18//18
# 83 faces, 0 coords texture

# End of File
