####
#
# OBJ File Generated by Meshlab
#
####
# Object 451.obj
#
# Vertices: 52
# Faces: 78
#
####
vn 2.223274 -0.001844 -2.219000
v -40.936150 50.000000 35.820350
vn 4.557716 0.055825 -4.323930
v -42.111474 45.736853 34.580787
vn 2.118110 0.043738 -2.319879
v -38.504400 38.000000 38.079200
vn 2.294674 0.006372 -2.145612
v -42.914200 38.000000 33.669500
vn 2.143856 0.017956 -2.318667
v -37.887800 42.982200 38.717800
vn 2.382370 -0.030438 -2.043296
v -45.536939 46.379200 30.718012
vn 1.176407 0.007711 -1.044452
v -45.596800 38.000000 30.718000
vn 2.356013 0.005048 -2.067474
v -45.604800 40.243000 30.718000
vn 4.670374 -0.010231 -4.200715
v -44.455928 41.284443 32.035097
vn 2.140574 -0.016857 -2.305838
v -37.880750 48.286400 38.717900
vn 4.542409 0.031791 -4.340511
v -41.906592 43.636460 34.772147
vn 1.063211 -0.008280 -1.147365
v -37.865600 50.000000 38.718000
vn 2.099428 0.037739 -2.337299
v -37.814025 39.406450 38.718000
vn 1.031813 0.021807 -1.163132
v -37.784300 38.000000 38.718000
vn 1.217794 -0.019667 -1.008190
v -45.473500 50.000000 30.718000
vn 2.325782 -0.003678 -2.110810
v -42.756914 50.000000 33.920037
vn 4.486649 0.044466 -4.397042
v -41.370477 47.169905 35.373667
vn 4.310104 0.010553 -4.571109
v -39.393545 48.635383 37.311971
vn 4.571843 0.000741 -4.307916
v -42.168840 48.774875 34.555465
vn 4.582002 0.024841 -4.299138
v -43.089685 40.580252 33.493244
vn 4.680190 -0.033703 -4.191471
v -44.236635 43.277750 32.250324
vn 2.122175 0.007553 -2.314878
v -37.885100 44.772200 38.717950
vn 2.225533 -0.032892 -2.215782
v -41.114888 38.000113 35.572795
vn 4.507358 0.008364 -4.376808
v -41.599606 39.566218 35.062186
vn 2.368166 -0.025385 -2.060641
v -45.594050 41.757700 30.718000
vn 4.346968 0.023633 -4.535396
v -39.192164 44.045226 37.510669
vn 4.312101 0.061207 -4.567330
v -38.975094 39.883454 37.679396
vn 2.192674 0.014735 -2.249579
v -39.771800 38.000000 36.883100
vn 2.109475 -0.002958 -2.330432
v -37.885000 46.542000 38.717900
vn 4.625312 0.030651 -4.252332
v -42.975251 44.390822 33.634692
vn 2.406212 -0.030594 -2.021981
v -45.498550 48.448850 30.718000
vn 2.119949 0.036733 -2.318019
v -37.862100 41.742200 38.717900
vn 4.650816 0.022016 -4.222906
v -42.920865 47.329065 33.733767
vn 2.366319 -0.024984 -2.062707
v -45.569100 44.109650 30.718000
vn 4.715212 -0.019189 -4.152325
v -44.293866 45.000971 32.173864
vn 4.385028 0.003975 -4.499565
v -39.984181 47.187802 36.742129
vn 4.759336 -0.024530 -4.101624
v -44.313909 46.948174 32.142849
vn 4.671852 0.035644 -4.200729
v -43.335886 45.911024 33.255370
vn 2.163182 -0.003995 -2.277969
v -39.655800 50.000000 37.061600
vn 2.320996 0.017987 -2.117072
v -44.231874 38.000000 32.248062
vn 4.580337 0.016191 -4.300910
v -42.803550 38.858771 33.790387
vn 2.399436 -0.025544 -2.027777
v -44.355706 50.000000 32.068186
vn 4.749520 -0.024617 -4.112386
v -43.802569 48.668476 32.732800
vn 4.652896 0.036057 -4.221583
v -44.385526 39.488356 32.093294
vn 4.453822 0.037941 -4.430933
v -40.501564 42.723256 36.212376
vn 4.520696 0.040852 -4.362898
v -41.642694 41.397446 35.031004
vn 4.458667 0.033977 -4.426784
v -40.703784 45.047154 36.009381
vn 4.420106 0.012854 -4.464857
v -40.722189 48.654778 36.028472
vn 4.336640 0.052824 -4.544892
v -39.088225 41.932084 37.594995
vn 4.328770 -0.020719 -4.550520
v -39.103334 46.232429 37.615474
vn 4.594448 0.015994 -4.285821
v -42.955758 42.392432 33.644406
vn 4.438030 0.049295 -4.447410
v -40.251965 40.372226 36.418959
# 52 vertices, 0 vertices normals

f 10//10 29//29 50//50
f 3//3 13//13 14//14
f 45//45 26//26 49//49
f 45//45 46//46 11//11
f 48//48 36//36 17//17
f 44//44 9//9 20//20
f 41//41 4//4 40//40
f 5//5 49//49 26//26
f 8//8 44//44 7//7
f 8//8 25//25 9//9
f 8//8 9//9 44//44
f 16//16 1//1 19//19
f 22//22 5//5 26//26
f 19//19 43//43 16//16
f 23//23 4//4 41//41
f 9//9 25//25 21//21
f 25//25 34//34 21//21
f 28//28 24//24 52//52
f 28//28 27//27 3//3
f 3//3 27//27 13//13
f 29//29 22//22 50//50
f 37//37 6//6 31//31
f 15//15 42//42 31//31
f 5//5 32//32 49//49
f 32//32 13//13 27//27
f 2//2 33//33 17//17
f 34//34 6//6 35//35
f 21//21 34//34 35//35
f 35//35 6//6 37//37
f 38//38 37//37 33//33
f 30//30 35//35 38//38
f 30//30 38//38 2//2
f 33//33 19//19 17//17
f 39//39 48//48 1//1
f 50//50 22//22 26//26
f 21//21 51//51 9//9
f 20//20 9//9 51//51
f 20//20 24//24 41//41
f 44//44 20//20 41//41
f 42//42 16//16 43//43
f 40//40 44//44 41//41
f 43//43 19//19 33//33
f 19//19 48//48 17//17
f 7//7 44//44 40//40
f 36//36 47//47 17//17
f 47//47 26//26 45//45
f 33//33 37//37 43//43
f 46//46 24//24 20//20
f 35//35 37//37 38//38
f 2//2 38//38 33//33
f 12//12 10//10 18//18
f 36//36 18//18 10//10
f 47//47 50//50 26//26
f 43//43 37//37 31//31
f 42//42 43//43 31//31
f 17//17 47//47 2//2
f 46//46 20//20 51//51
f 30//30 11//11 51//51
f 2//2 11//11 30//30
f 52//52 27//27 28//28
f 1//1 48//48 19//19
f 46//46 45//45 52//52
f 11//11 46//46 51//51
f 52//52 24//24 46//46
f 48//48 39//39 18//18
f 47//47 45//45 11//11
f 27//27 49//49 32//32
f 2//2 47//47 11//11
f 36//36 50//50 47//47
f 41//41 24//24 23//23
f 12//12 18//18 39//39
f 23//23 24//24 28//28
f 21//21 35//35 30//30
f 21//21 30//30 51//51
f 50//50 36//36 10//10
f 49//49 52//52 45//45
f 27//27 52//52 49//49
f 48//48 18//18 36//36
# 78 faces, 0 coords texture

# End of File
