####
#
# OBJ File Generated by Meshlab
#
####
# Object 466.obj
#
# Vertices: 40
# Faces: 57
#
####
vn -1.269070 0.070313 -2.872158
v 19.120900 -39.658850 55.836300
vn -1.257078 0.028755 -2.879555
v 19.042200 -46.717050 55.700000
vn -1.233929 0.018866 -2.888759
v 17.103950 -50.000000 56.540250
vn -2.388308 0.163317 -5.807507
v 12.773658 -45.960357 58.436476
vn -1.207800 0.051222 -2.898698
v 16.191750 -38.000000 57.155500
vn -1.114089 0.024587 -2.936665
v 13.960550 -38.000000 58.036650
vn -1.115590 -0.014768 -2.936280
v 12.377100 -38.000000 58.605000
vn -1.192763 0.013434 -2.909517
v 11.666981 -41.281929 58.925843
vn -1.147799 -0.032343 -2.923334
v 11.651150 -38.886900 58.898300
vn -0.640675 0.008964 -1.434881
v 19.030600 -50.000000 55.680000
vn -0.639919 0.028781 -1.432166
v 19.136200 -38.000000 55.862800
vn -0.575657 -0.011724 -1.460267
v 11.647800 -38.000000 58.892500
vn -0.577782 0.055128 -1.453507
v 11.561200 -50.000000 58.742600
vn -2.346773 0.232713 -5.823756
v 13.076921 -48.087907 58.212609
vn -1.196291 0.012079 -2.902935
v 11.653000 -43.947400 58.901600
vn -1.161284 0.095942 -2.917582
v 13.401262 -50.000000 58.017155
vn -2.444321 0.155445 -5.785491
v 14.489520 -46.406054 57.702504
vn -2.541852 0.144271 -5.744261
v 18.116668 -40.181738 56.265267
vn -2.529104 0.139176 -5.749819
v 16.118176 -44.794731 57.026490
vn -2.550126 0.107785 -5.740733
v 17.512894 -45.480001 56.379175
vn -2.408682 0.070544 -5.802402
v 14.116380 -44.102975 57.897593
vn -1.272453 0.082585 -2.870822
v 19.091800 -42.014150 55.786400
vn -1.167145 0.133528 -2.912358
v 11.607800 -47.586650 58.823300
vn -1.173199 0.064911 -2.913641
v 15.559900 -50.000000 57.159300
vn -2.372735 0.053925 -5.817384
v 13.059908 -42.320199 58.332254
vn -2.531204 0.034794 -5.750617
v 17.562422 -47.837436 56.339148
vn -2.353526 0.112434 -5.823894
v 15.218837 -39.698238 57.522850
vn -1.270396 0.015783 -2.873431
v 19.035050 -48.473400 55.687550
vn -1.266984 0.061468 -2.873847
v 17.947800 -38.000000 56.393800
vn -2.508151 0.099919 -5.759662
v 16.090190 -46.900209 57.001858
vn -1.267385 0.074500 -2.875391
v 19.057300 -44.384150 55.726250
vn -2.557021 0.175259 -5.736658
v 17.660380 -43.370011 56.378988
vn -1.201335 0.053852 -2.908402
v 11.655300 -45.572650 58.905600
vn -2.292175 0.032168 -5.849715
v 13.201619 -40.040169 58.304076
vn -2.361687 0.089413 -5.821634
v 14.711818 -41.786866 57.678160
vn -2.373948 0.164125 -5.815019
v 14.838445 -48.397226 57.490479
vn -2.492914 0.132737 -5.765628
v 16.952978 -39.533666 56.797366
vn -2.493755 0.138926 -5.764989
v 16.844870 -41.369854 56.800848
vn -2.433769 0.073166 -5.791763
v 16.336284 -48.644171 56.870582
vn -2.480750 0.131512 -5.770157
v 16.032435 -43.110112 57.116145
# 40 vertices, 0 vertices normals

f 29//29 1//1 18//18
f 9//9 12//12 7//7
f 28//28 10//10 3//3
f 1//1 22//22 18//18
f 36//36 17//17 30//30
f 17//17 14//14 4//4
f 6//6 34//34 7//7
f 14//14 13//13 23//23
f 21//21 17//17 4//4
f 25//25 15//15 8//8
f 22//22 31//31 32//32
f 23//23 33//33 4//4
f 3//3 24//24 39//39
f 24//24 16//16 36//36
f 28//28 26//26 2//2
f 7//7 34//34 9//9
f 26//26 28//28 3//3
f 1//1 29//29 11//11
f 13//13 14//14 16//16
f 31//31 2//2 20//20
f 14//14 36//36 16//16
f 36//36 14//14 17//17
f 39//39 26//26 3//3
f 17//17 19//19 30//30
f 27//27 38//38 35//35
f 25//25 8//8 34//34
f 21//21 40//40 19//19
f 20//20 32//32 31//31
f 27//27 6//6 5//5
f 27//27 5//5 37//37
f 19//19 20//20 30//30
f 27//27 34//34 6//6
f 34//34 35//35 25//25
f 35//35 34//34 27//27
f 18//18 37//37 29//29
f 40//40 38//38 32//32
f 4//4 15//15 21//21
f 37//37 38//38 27//27
f 34//34 8//8 9//9
f 20//20 2//2 26//26
f 25//25 21//21 15//15
f 38//38 40//40 35//35
f 26//26 39//39 30//30
f 39//39 36//36 30//30
f 39//39 24//24 36//36
f 21//21 25//25 35//35
f 4//4 33//33 15//15
f 38//38 22//22 32//32
f 37//37 5//5 29//29
f 38//38 37//37 18//18
f 19//19 17//17 21//21
f 40//40 21//21 35//35
f 23//23 4//4 14//14
f 30//30 20//20 26//26
f 19//19 40//40 32//32
f 20//20 19//19 32//32
f 38//38 18//18 22//22
# 57 faces, 0 coords texture

# End of File
