####
#
# OBJ File Generated by Meshlab
#
####
# Object 474S.obj
#
# Vertices: 210
# Faces: 344
#
####
vn -2.786377 0.306409 -5.620742
v 15.882255 22.620351 57.075486
vn -1.792003 0.316359 -6.012883
v 8.896587 27.662332 60.068829
vn 0.527313 0.234905 -6.253970
v -1.675914 38.783522 61.864772
vn -1.504132 0.285699 -6.090484
v 7.432274 28.983526 60.541946
vn -1.827995 0.324165 -6.002026
v 9.491888 29.456182 59.977635
vn -1.993773 0.292342 -5.946603
v 10.445522 31.273653 59.792129
vn 0.003941 0.247995 -6.274043
v 0.496089 38.471040 61.954002
vn -3.111819 0.322027 -5.447531
v 18.266409 24.445931 55.903565
vn 1.244004 0.389937 -6.141490
v -4.780560 32.577272 61.067078
vn -2.509136 0.293669 -5.752793
v 13.856711 19.292296 57.816483
vn -2.532875 0.119062 -5.748458
v 13.700610 5.952230 57.397084
vn -3.073360 0.271323 -5.472249
v 17.919244 16.384045 55.655925
vn -2.901385 0.279904 -5.565072
v 16.441615 15.237123 56.394041
vn -1.095378 0.306979 -6.177637
v 5.529752 28.349120 60.905263
vn 0.716773 0.237280 -6.231611
v -2.514002 40.707100 61.875007
vn -1.364769 0.290083 -6.123021
v 6.105377 36.478191 61.215566
vn -1.342221 0.301720 -6.128188
v 6.190335 34.354154 61.091864
vn -2.902632 0.219608 -5.566967
v 16.352941 13.256362 56.351807
vn -2.746750 0.286434 -5.641522
v 15.494102 18.955344 57.064254
vn 0.834979 0.428281 -6.207855
v -2.943578 33.954404 61.464803
vn -2.443016 0.286629 -5.780853
v 13.531504 21.093098 58.060372
vn -2.296665 0.265564 -5.842117
v 12.429303 31.357603 59.043415
vn -0.600649 0.398016 -6.240865
v 2.979746 31.795127 61.433327
vn -0.029901 0.246976 -6.274617
v 0.669440 41.578027 62.078475
vn -3.408397 0.297021 -5.267945
v 20.607487 22.463927 54.369159
vn -3.532345 0.287524 -5.186961
v 21.683019 19.601409 53.474100
vn 0.322947 0.449429 -6.255505
v -0.735756 34.927588 61.736700
vn -3.106615 0.316571 -5.452029
v 18.085068 20.486705 55.754537
vn -2.922641 0.316963 -5.550908
v 16.508278 20.617274 56.643405
vn -2.544321 0.027291 -5.743894
v 13.812859 2.543909 57.314064
vn -1.470098 0.085673 -2.420382
v 20.166509 8.224111 54.014471
vn -0.896236 -0.003962 -2.643107
v 10.802650 38.245500 59.849700
vn -1.124376 0.136594 -2.584596
v 13.589300 15.600900 57.738000
vn -0.249672 0.190593 -3.588369
v 2.533355 28.466800 61.296250
vn 0.060774 0.232787 -3.382382
v 0.333555 28.503350 61.327000
vn 0.421030 0.172751 -2.750091
v -3.661135 28.209000 60.997500
vn -1.749827 0.089275 -3.172039
v 18.430600 10.460300 55.132400
vn -1.930469 0.190399 -3.991967
v 14.929800 14.092400 57.100900
vn -0.892986 0.097807 -3.229514
v 7.272080 38.379200 60.998950
vn -1.159861 0.111716 -2.667627
v 15.123800 32.646100 57.978200
vn -1.600667 0.100008 -3.528415
v 13.710400 11.312600 57.552600
vn -0.818921 0.149837 -2.755812
v 8.919552 24.297054 59.869456
vn 0.579147 0.158974 -2.760496
v -5.427430 29.044900 60.704950
vn -0.156376 0.106049 -2.898368
v 2.415065 41.861350 62.013100
vn -2.510633 0.155538 -4.559003
v 17.645400 12.537100 55.620200
vn -1.305045 0.079070 -2.261299
v 18.403100 12.470700 55.191100
vn -0.666702 0.147449 -2.695630
v 6.992290 24.889200 60.451500
vn -1.176173 0.131125 -2.725039
v 14.679000 34.052350 58.229250
vn 0.804775 0.139968 -2.839080
v -8.324055 33.910250 60.207650
vn 0.830054 0.152210 -2.781125
v -8.419750 36.025950 60.261200
vn -0.957533 0.019953 -2.684487
v 10.681400 1.326213 58.541800
vn -0.485258 0.152801 -3.436549
v 3.907740 27.755500 61.139300
vn -0.978409 0.067810 -2.710757
v 12.241800 37.409100 59.347500
vn -0.914962 0.054077 -2.664523
v 9.427425 5.525360 59.019900
vn -1.720590 0.203817 -3.565909
v 15.830800 26.524200 57.298000
vn -1.186161 0.140755 -2.817907
v 12.398859 19.970967 58.475431
vn -1.513471 0.210633 -3.942723
v 12.025200 23.730100 58.773600
vn -1.606991 0.127881 -2.253700
v 22.926600 21.528200 52.689900
vn -1.546020 0.083562 -2.352827
v 21.880700 14.870250 53.108300
vn -1.519648 0.099106 -2.253802
v 22.823250 16.504550 52.539850
vn 0.217165 0.193316 -2.819184
v -1.628645 28.044150 61.220750
vn -1.024913 -0.004399 -2.626309
v 11.958550 0.032608 58.085550
vn -1.193659 0.134700 -2.768266
v 15.284050 30.883700 57.831950
vn -1.482239 0.041001 -2.343213
v 20.853742 4.249777 53.454101
vn -1.498757 0.073550 -2.353030
v 20.814700 6.251015 53.530950
vn -1.485869 0.133850 -2.542827
v 18.661050 26.046300 55.763300
vn -1.463211 0.009409 -2.389549
v 19.824300 1.290700 54.101100
vn -1.307023 0.040346 -2.454935
v 16.822050 -0.946742 55.817350
vn -1.450125 0.136478 -2.707929
v 17.370400 26.319750 56.502800
vn -1.599871 0.118021 -2.635049
v 19.768150 13.237200 54.411350
vn 0.214183 0.074367 -2.592374
v -1.688580 44.027400 62.046800
vn 0.378612 0.146569 -2.825893
v -3.502520 43.606900 61.844800
vn -0.868001 0.035620 -2.587906
v 9.645460 3.258455 58.912850
vn -0.518319 0.248861 -3.685913
v 4.401530 38.997000 61.696700
vn 0.662085 0.145180 -2.814852
v -6.404417 41.259048 61.156100
vn 0.736281 0.194180 -2.836975
v -7.475642 39.445008 60.769537
vn 0.766203 0.153700 -2.733817
v -7.902800 32.112400 60.224400
vn 0.745448 0.166443 -2.746534
v -7.034970 30.586950 60.385650
vn -0.694623 0.200882 -3.362404
v 5.423040 38.559900 61.469750
vn -1.561234 0.229002 -3.536222
v 15.063200 27.745700 57.755700
vn -1.192734 0.150841 -2.797088
v 15.243000 29.251900 57.770500
vn -1.109829 0.173197 -3.239725
v 10.476800 24.260000 59.388200
vn -1.568043 0.127855 -2.313817
v 21.890043 23.798517 53.575784
vn -3.163662 0.127627 -5.426579
v 18.460401 6.817076 54.992064
vn -1.449802 0.043839 -2.477070
v 18.598400 0.039498 54.819050
vn -2.178407 0.222333 -5.887766
v 11.445090 33.196217 59.508286
vn -2.652400 0.293535 -5.687575
v 15.051290 15.951715 57.112351
vn 0.807301 0.386259 -6.215699
v -2.824499 29.677314 61.206170
vn -2.720187 0.174504 -5.659323
v 15.029210 9.558521 56.901128
vn -2.965050 0.175696 -5.536620
v 16.912534 11.581524 55.990596
vn -3.114668 0.183101 -5.452082
v 18.330946 8.864905 55.144026
vn -1.297087 0.107903 -2.706215
v 14.369700 13.053750 57.310400
vn -2.434027 0.272679 -5.785363
v 14.039579 31.525833 58.402695
vn -2.777547 0.171407 -5.631700
v 15.469657 11.530296 56.743767
vn -1.171958 0.327740 -6.160239
v 5.874194 30.379777 60.953596
vn -2.565475 0.300909 -5.725578
v 14.423884 17.432917 57.490940
vn -1.590145 0.265578 -6.071647
v 7.966409 33.371116 60.611515
vn -2.611304 0.297032 -5.705413
v 14.992031 24.441255 57.591920
vn -1.604671 0.308303 -6.064467
v 8.103796 31.141719 60.475642
vn -0.239406 0.250975 -6.269874
v 1.597771 40.147650 62.002974
vn -1.442065 0.316832 -6.098512
v 7.192846 26.918146 60.516474
vn -3.177169 0.255718 -5.413602
v 18.716739 18.444129 55.287073
vn 0.714285 0.397527 -6.223383
v -2.529080 31.623900 61.368535
vn -1.824018 0.337844 -6.002530
v 9.074869 25.849211 59.907695
vn -0.519484 0.162042 -2.934621
v 5.536458 26.017760 60.767311
vn -2.638501 0.175064 -5.699281
v 14.403138 7.777018 57.127659
vn -0.129252 0.432137 -6.260401
v 1.180316 32.273048 61.595864
vn -3.192750 0.332008 -5.400213
v 19.098563 22.464749 55.297624
vn -1.994668 0.108624 -5.953794
v 10.187628 36.458489 60.060768
vn -2.902346 0.140659 -5.568644
v 16.535208 7.769042 56.098059
vn -0.753660 0.312574 -6.228430
v 3.773005 29.765820 61.231918
vn 1.160897 0.255060 -6.164713
v -4.402877 41.083469 61.599193
vn 0.510161 0.119590 -2.829921
v -4.781005 42.881650 61.590350
vn -3.028248 0.333973 -5.494843
v 17.507954 22.579655 56.204239
vn -2.272408 0.336155 -5.847068
v 12.217170 27.883765 58.955458
vn -2.402898 0.302485 -5.797209
v 13.589434 29.689461 58.496956
vn -2.380721 0.321266 -5.805475
v 13.248581 24.226867 58.322162
vn -0.516637 0.319190 -6.248979
v 2.624710 38.292351 61.860599
vn -1.200718 0.130141 -2.988138
v 12.210700 22.517400 58.656200
vn -1.286809 0.320787 -6.138746
v 6.166393 32.267433 60.992588
vn -3.449427 0.236511 -5.246192
v 21.073555 16.154415 53.684275
vn -1.631873 0.101172 -2.514968
v 20.877300 13.966700 53.731000
vn -0.880511 0.072892 -2.677213
v 9.835825 7.403529 58.928852
vn -1.482248 0.086808 -2.531987
v 18.927600 10.001300 54.833700
vn -0.112726 0.398635 -6.262893
v 1.058980 34.382359 61.743642
vn -1.841473 0.263283 -5.998834
v 9.535285 32.659138 60.142618
vn -1.934172 0.208594 -5.969808
v 9.853595 34.427774 60.118951
vn 1.408923 0.281970 -6.115685
v -5.055485 36.990482 61.231465
vn 1.629527 0.334360 -6.058331
v -6.636073 33.396334 60.653928
vn -1.114810 0.080955 -2.689438
v 12.455000 10.649950 58.075550
vn -0.997452 0.081389 -2.604504
v 10.980350 9.376115 58.618350
vn 0.888455 0.269841 -6.204726
v -2.845757 37.249176 61.696130
vn -2.424385 0.069051 -5.795566
v 12.872481 4.026049 57.727763
vn -2.514801 -0.023202 -5.755188
v 13.465330 1.071450 57.475281
vn -1.182779 -0.014781 -2.597540
v 13.687350 -0.843901 57.392900
vn -1.900973 0.051880 -5.987468
v 8.991267 37.574515 60.450516
vn -2.514807 0.338651 -5.747053
v 14.208858 26.142691 58.032491
vn -2.680196 0.068694 -5.680347
v 15.019271 4.180665 56.787663
vn -2.166002 0.309058 -5.885963
v 11.534655 29.656396 59.324680
vn -0.930839 0.379031 -6.198100
v 4.412834 33.177083 61.363421
vn -2.968384 0.068450 -5.534501
v 17.007354 3.358539 55.780627
vn -0.570409 0.327603 -6.244022
v 2.623888 36.028381 61.746872
vn -3.325660 0.130143 -5.329048
v 19.849188 5.743129 54.130055
vn -0.885767 -0.010822 -2.730650
v 8.782165 38.569750 60.514400
vn -3.213676 0.074387 -5.396352
v 18.543562 4.654618 54.924501
vn -0.904648 0.375216 -6.204614
v 4.554219 31.493727 61.230364
vn -2.787933 0.028112 -5.630240
v 15.430430 0.164393 56.540492
vn -1.297863 0.016098 -2.589053
v 15.221400 -1.110435 56.637350
vn -2.746766 0.059373 -5.650335
v 15.439760 2.024690 56.546267
vn -2.888959 0.307326 -5.569212
v 16.722022 24.565929 56.755320
vn 0.333350 0.441804 -6.256059
v -0.630952 32.952088 61.600248
vn 1.136491 0.368430 -6.167762
v -4.317237 30.432711 61.000146
vn -0.562260 0.404405 -6.241803
v 2.680905 33.903535 61.613561
vn -0.966226 0.318714 -6.195645
v 4.339231 35.295601 61.496822
vn -3.009798 0.267667 -5.508629
v 17.140491 18.555317 56.173981
vn -3.306421 0.238959 -5.334279
v 19.488969 16.797069 54.760786
vn -3.283631 0.262745 -5.347921
v 19.529817 15.020744 54.646155
vn -3.394968 0.274059 -5.279647
v 20.444804 18.147469 54.197973
vn 1.699149 0.292551 -6.041783
v -7.079032 35.613598 60.638783
vn -0.265220 0.137441 -3.065678
v 3.583115 40.271500 61.864100
vn -1.571515 -0.002173 -2.512927
v 20.257100 2.211880 53.823100
vn -3.237524 0.053891 -5.383737
v 18.799820 2.396899 54.732784
vn -3.511129 0.261919 -5.203060
v 21.892739 17.833398 53.237244
vn -1.614519 0.106273 -2.290210
v 23.217246 18.995243 52.357393
vn -1.520844 0.135725 -2.373321
v 20.540450 25.172900 54.553550
vn 1.416127 0.340717 -6.106337
v -5.256949 34.712109 61.093972
vn 0.307958 0.305885 -6.260080
v -0.806483 36.847181 61.868168
vn -0.126885 0.329077 -6.268986
v 0.927536 36.427741 61.860277
vn -1.120310 0.134044 -2.629342
v 12.757117 17.527663 58.203933
vn 0.790939 0.212054 -6.228223
v -2.942038 42.461571 61.860489
vn 1.444443 0.363425 -6.102641
v -5.702991 39.463685 61.224557
vn 1.604712 0.361880 -6.063709
v -6.543881 37.598032 60.880351
vn 1.509739 0.367328 -6.085229
v -6.101500 31.335193 60.684351
vn -2.411855 0.177325 -5.797214
v 12.579842 7.630478 57.939066
vn -0.966357 0.352035 -6.197096
v 4.367698 37.287058 61.576489
vn 0.244751 0.262194 -6.269831
v -0.469677 40.251997 62.003556
vn -2.492646 0.281496 -5.759418
v 14.155284 22.600479 57.868445
vn -2.632246 0.311753 -5.695234
v 14.911993 20.825022 57.439623
vn -2.270548 0.141515 -5.855110
v 11.827088 5.801003 58.184451
vn -2.431280 0.330303 -5.784157
v 13.854948 27.763794 58.275535
vn -2.112476 0.191637 -5.912364
v 10.951737 7.235228 58.557257
vn -2.348121 0.251066 -5.821353
v 13.211524 33.551453 58.836737
vn -1.026730 0.116844 -2.649934
v 13.793400 35.818700 58.714950
vn 0.026505 0.091247 -2.745631
v 0.782525 43.234900 62.146150
vn 0.401290 0.382128 -6.255821
v -1.435226 29.711360 61.341306
vn 1.155373 0.344071 -6.161385
v -3.908561 35.746698 61.433211
vn 0.800451 0.180184 -2.869118
v -8.189310 37.342300 60.418900
vn 0.399535 0.187709 -6.263770
v -1.037058 42.113162 62.046412
vn -2.948948 0.074638 -5.545731
v 16.836098 5.504964 55.893238
vn -3.353109 0.073593 -5.312878
v 19.751283 3.913903 54.145926
vn -2.942053 0.146476 -5.549547
v 16.824177 9.930299 55.990781
vn -2.997220 0.072944 -5.517885
v 17.117010 1.208356 55.699916
vn -2.711194 0.095369 -5.666820
v 15.272557 6.212475 56.683284
vn -2.308554 0.349124 -5.831828
v 12.548380 25.944229 58.716721
vn -0.228241 0.396721 -6.258303
v 1.684905 30.148266 61.445704
vn 0.230075 0.412768 -6.264649
v -0.269947 30.780200 61.453114
vn -3.087309 0.253204 -5.466179
v 17.992714 14.061855 55.483580
vn -3.539224 0.320754 -5.180200
v 21.415988 21.314507 53.757448
vn 1.077023 0.303385 -6.178322
v -3.794221 39.150714 61.614642
vn -3.310548 0.329510 -5.328587
v 19.930316 20.393533 54.666172
vn -2.177080 0.197899 -5.890572
v 11.745059 35.286809 59.453541
vn -3.325901 0.287722 -5.321751
v 19.851751 24.186014 54.938436
vn -2.852054 0.279094 -5.588513
v 16.126239 17.108000 56.663819
vn -2.289911 0.032544 -5.850118
v 11.977512 2.392670 58.076899
vn -2.484923 0.174823 -5.766632
v 13.188699 9.380805 57.733218
vn 0.680244 0.429846 -6.225844
v -2.256840 35.660532 61.676944
vn -1.684580 0.214042 -6.047214
v 8.107306 35.868008 60.678931
vn -2.089282 0.339319 -5.914629
v 11.141715 25.967090 59.243574
vn -1.997517 0.340669 -5.945942
v 10.567970 27.827334 59.551625
vn -2.142792 0.071200 -5.904053
v 11.035898 3.542409 58.450396
# 210 vertices, 0 vertices normals

f 93//93 40//40 63//63
f 18//18 197//197 45//45
f 159//159 49//49 50//50
f 182//182 201//201 183//183
f 177//177 21//21 119//119
f 203//203 87//87 96//96
f 26//26 58//58 164//164
f 107//107 195//195 196//196
f 99//99 97//97 126//126
f 7//7 168//168 167//167
f 6//6 126//126 86//86
f 140//140 146//146 23//23
f 162//162 67//67 85//85
f 147//147 148//148 135//135
f 153//153 107//107 125//125
f 28//28 29//29 114//114
f 152//152 173//173 9//9
f 170//170 72//72 71//71
f 111//111 146//146 95//95
f 1//1 150//150 114//114
f 190//190 161//161 162//162
f 154//154 140//140 153//153
f 127//127 126//126 97//97
f 173//173 78//78 77//77
f 21//21 10//10 56//56
f 178//178 1//1 29//29
f 194//194 115//115 180//180
f 155//155 28//28 102//102
f 8//8 69//69 66//66
f 179//179 181//181 174//174
f 145//145 162//162 141//141
f 186//186 20//20 166//166
f 110//110 91//91 84//84
f 11//11 133//133 179//179
f 31//31 84//84 91//91
f 84//84 31//31 143//143
f 65//65 143//143 31//31
f 192//192 85//85 68//68
f 38//38 33//33 87//87
f 34//34 195//195 111//111
f 196//196 195//195 35//35
f 124//124 91//91 37//37
f 152//152 88//88 36//36
f 152//152 36//36 43//43
f 92//92 38//38 18//18
f 4//4 14//14 95//95
f 41//41 92//92 94//94
f 6//6 5//5 99//99
f 24//24 44//44 100//100
f 160//160 100//100 44//44
f 41//41 94//94 89//89
f 4//4 2//2 101//101
f 197//197 46//46 45//45
f 104//104 42//42 47//47
f 78//78 173//173 43//43
f 191//191 89//89 94//94
f 105//105 14//14 101//101
f 110//110 106//106 89//89
f 40//40 93//93 48//48
f 89//89 191//191 110//110
f 111//111 52//52 34//34
f 170//170 113//113 72//72
f 119//119 57//57 117//117
f 203//203 13//13 87//87
f 108//108 202//202 25//25
f 121//121 59//59 122//122
f 157//157 121//121 122//122
f 122//122 70//70 157//157
f 123//123 131//131 181//181
f 124//124 31//31 91//91
f 96//96 19//19 203//203
f 107//107 151//151 125//125
f 151//151 27//27 125//125
f 94//94 92//92 18//18
f 38//38 13//13 18//18
f 61//61 88//88 185//185
f 88//88 61//61 36//36
f 35//35 185//185 196//196
f 185//185 35//35 61//61
f 6//6 99//99 126//126
f 109//109 127//127 207//207
f 51//51 204//204 62//62
f 128//128 172//172 171//171
f 130//130 41//41 205//205
f 131//131 130//130 205//205
f 24//24 100//100 176//176
f 167//167 132//132 3//3
f 176//176 7//7 3//3
f 3//3 7//7 167//167
f 19//19 10//10 178//178
f 177//177 178//178 21//21
f 53//53 201//201 109//109
f 204//204 30//30 134//134
f 135//135 62//62 134//134
f 149//149 134//134 30//30
f 32//32 109//109 136//136
f 109//109 207//207 136//136
f 144//144 136//136 39//39
f 93//93 63//63 116//116
f 6//6 22//22 139//139
f 22//22 86//86 182//182
f 209//209 2//2 5//5
f 128//128 132//132 186//186
f 162//162 145//145 190//190
f 22//22 6//6 86//86
f 86//86 126//126 127//127
f 143//143 65//65 64//64
f 144//144 32//32 136//136
f 107//107 23//23 195//195
f 118//118 7//7 100//100
f 199//199 128//128 171//171
f 190//190 143//143 64//64
f 84//84 143//143 145//145
f 143//143 190//190 145//145
f 95//95 146//146 120//120
f 120//120 146//146 140//140
f 108//108 8//8 202//202
f 129//129 159//159 166//166
f 96//96 169//169 10//10
f 25//25 200//200 108//108
f 149//149 147//147 134//134
f 134//134 147//147 135//135
f 68//68 148//148 147//147
f 98//98 55//55 150//150
f 55//55 98//98 137//137
f 69//69 150//150 55//55
f 101//101 2//2 104//104
f 152//152 9//9 103//103
f 152//152 103//103 88//88
f 153//153 23//23 107//107
f 154//154 153//153 142//142
f 8//8 150//150 69//69
f 96//96 33//33 169//169
f 33//33 96//96 87//87
f 102//102 12//12 155//155
f 156//156 12//12 102//102
f 157//157 70//70 197//197
f 46//46 197//197 70//70
f 12//12 197//197 13//13
f 38//38 87//87 13//13
f 108//108 200//200 28//28
f 114//114 29//29 1//1
f 4//4 5//5 2//2
f 6//6 139//139 5//5
f 4//4 101//101 14//14
f 99//99 4//4 95//95
f 99//99 95//95 120//120
f 27//27 151//151 20//20
f 20//20 151//151 103//103
f 170//170 188//188 15//15
f 93//93 182//182 48//48
f 205//205 174//174 131//131
f 14//14 111//111 95//95
f 111//111 23//23 146//146
f 23//23 111//111 195//195
f 114//114 150//150 8//8
f 158//158 156//156 102//102
f 172//172 128//128 166//166
f 172//172 166//166 159//159
f 97//97 120//120 17//17
f 118//118 160//160 74//74
f 115//115 139//139 116//116
f 51//51 210//210 204//204
f 54//54 210//210 73//73
f 190//190 64//64 161//161
f 162//162 161//161 67//67
f 139//139 22//22 116//116
f 93//93 116//116 22//22
f 153//153 140//140 23//23
f 199//199 15//15 3//3
f 163//163 26//26 164//164
f 142//142 118//118 175//175
f 175//175 118//118 74//74
f 164//164 60//60 163//163
f 200//200 25//25 198//198
f 198//198 25//25 83//83
f 26//26 163//163 158//158
f 156//156 158//158 121//121
f 19//19 155//155 203//203
f 155//155 19//19 29//29
f 155//155 29//29 28//28
f 10//10 19//19 96//96
f 129//129 166//166 9//9
f 167//167 27//27 206//206
f 27//27 167//167 168//168
f 125//125 168//168 142//142
f 125//125 142//142 153//153
f 10//10 169//169 56//56
f 197//197 12//12 157//157
f 170//170 112//112 113//113
f 127//127 201//201 86//86
f 86//86 201//201 182//182
f 171//171 76//76 75//75
f 49//49 129//129 77//77
f 159//159 129//129 49//49
f 129//129 9//9 173//173
f 129//129 173//173 77//77
f 11//11 174//174 106//106
f 106//106 174//174 205//205
f 174//174 11//11 179//179
f 16//16 79//79 39//39
f 100//100 7//7 176//176
f 176//176 15//15 188//188
f 176//176 188//188 24//24
f 132//132 128//128 199//199
f 171//171 112//112 199//199
f 75//75 112//112 171//171
f 113//113 112//112 75//75
f 176//176 3//3 15//15
f 1//1 177//177 98//98
f 10//10 21//21 178//178
f 178//178 29//29 19//19
f 178//178 177//177 1//1
f 117//117 177//177 119//119
f 54//54 179//179 210//210
f 117//117 137//137 98//98
f 137//137 194//194 180//180
f 55//55 137//137 80//80
f 80//80 137//137 180//180
f 180//180 116//116 81//81
f 192//192 149//149 141//141
f 180//180 81//81 80//80
f 22//22 182//182 93//93
f 45//45 90//90 18//18
f 82//82 42//42 104//104
f 117//117 98//98 177//177
f 20//20 103//103 9//9
f 116//116 63//63 81//81
f 118//118 100//100 160//160
f 90//90 45//45 37//37
f 123//123 181//181 54//54
f 15//15 112//112 170//170
f 79//79 175//175 74//74
f 58//58 198//198 83//83
f 102//102 28//28 200//200
f 138//138 193//193 189//189
f 5//5 4//4 99//99
f 174//174 181//181 131//131
f 141//141 162//162 192//192
f 183//183 48//48 182//182
f 59//59 121//121 60//60
f 184//184 44//44 24//24
f 88//88 103//103 185//185
f 103//103 196//196 185//185
f 186//186 132//132 206//206
f 172//172 159//159 187//187
f 50//50 187//187 159//159
f 187//187 76//76 172//172
f 184//184 24//24 188//188
f 71//71 188//188 170//170
f 71//71 184//184 188//188
f 128//128 186//186 166//166
f 186//186 206//206 20//20
f 166//166 20//20 9//9
f 138//138 189//189 141//141
f 141//141 189//189 145//145
f 110//110 191//191 91//91
f 142//142 168//168 118//118
f 118//118 168//168 7//7
f 138//138 141//141 149//149
f 30//30 138//138 149//149
f 11//11 193//193 138//138
f 179//179 133//133 210//210
f 208//208 57//57 82//82
f 189//189 110//110 84//84
f 189//189 84//84 145//145
f 204//204 210//210 133//133
f 101//101 47//47 105//105
f 192//192 162//162 85//85
f 147//147 149//149 192//192
f 114//114 8//8 108//108
f 56//56 119//119 21//21
f 191//191 94//94 90//90
f 83//83 25//25 202//202
f 193//193 110//110 189//189
f 11//11 106//106 193//193
f 37//37 191//191 90//90
f 14//14 105//105 52//52
f 94//94 18//18 90//90
f 16//16 175//175 79//79
f 91//91 191//191 37//37
f 115//115 116//116 180//180
f 57//57 194//194 117//117
f 111//111 14//14 52//52
f 138//138 133//133 11//11
f 133//133 138//138 30//30
f 193//193 106//106 110//110
f 150//150 1//1 98//98
f 208//208 194//194 57//57
f 194//194 137//137 117//117
f 173//173 152//152 43//43
f 209//209 115//115 208//208
f 181//181 179//179 54//54
f 104//104 47//47 101//101
f 58//58 26//26 198//198
f 208//208 82//82 104//104
f 83//83 202//202 165//165
f 147//147 192//192 68//68
f 140//140 17//17 120//120
f 140//140 154//154 17//17
f 201//201 53//53 183//183
f 156//156 121//121 157//157
f 195//195 34//34 35//35
f 120//120 97//97 99//99
f 109//109 32//32 53//53
f 197//197 18//18 13//13
f 108//108 28//28 114//114
f 12//12 156//156 157//157
f 132//132 199//199 3//3
f 112//112 15//15 199//199
f 172//172 76//76 171//171
f 104//104 2//2 209//209
f 151//151 107//107 196//196
f 200//200 198//198 26//26
f 109//109 201//201 127//127
f 202//202 66//66 165//165
f 103//103 151//151 196//196
f 13//13 203//203 12//12
f 158//158 102//102 200//200
f 203//203 155//155 12//12
f 204//204 133//133 30//30
f 202//202 8//8 66//66
f 158//158 200//200 26//26
f 154//154 142//142 175//175
f 27//27 168//168 125//125
f 16//16 17//17 154//154
f 175//175 16//16 154//154
f 121//121 163//163 60//60
f 106//106 205//205 89//89
f 205//205 41//41 89//89
f 207//207 16//16 39//39
f 136//136 207//207 39//39
f 158//158 163//163 121//121
f 167//167 206//206 132//132
f 20//20 206//206 27//27
f 97//97 17//17 207//207
f 207//207 17//17 16//16
f 97//97 207//207 127//127
f 194//194 208//208 115//115
f 104//104 209//209 208//208
f 209//209 139//139 115//115
f 204//204 134//134 62//62
f 210//210 51//51 73//73
f 209//209 5//5 139//139
# 344 faces, 0 coords texture

# End of File
