####
#
# OBJ File Generated by Meshlab
#
####
# Object 477S.obj
#
# Vertices: 138
# Faces: 227
#
####
vn 2.463979 0.363077 -5.767576
v -12.487254 25.818399 58.237836
vn 2.881047 0.000999 -5.582671
v -14.658155 -3.827824 56.331100
vn 2.808730 0.323689 -5.605787
v -15.149163 24.500663 56.957401
vn 2.275093 0.261122 -5.849292
v -10.988067 21.847277 58.631918
vn 3.097042 0.004257 -5.466061
v -16.331894 -3.396765 55.422960
vn 2.715733 0.260763 -5.658946
v -14.398293 19.428962 56.998683
vn 2.900332 0.192780 -5.567497
v -15.032681 6.346157 56.236146
vn 2.429031 0.053111 -5.787456
v -12.203854 1.570492 57.545647
vn 2.839417 -0.026094 -5.602731
v -14.516728 -5.804469 56.413420
vn 2.959071 0.054704 -5.542231
v -15.217497 -2.110377 56.038566
vn 3.189869 0.237827 -5.407288
v -17.843218 14.247913 54.916663
vn 3.121513 0.044530 -5.451755
v -16.309419 -1.103593 55.452350
vn 2.834808 0.041432 -5.605300
v -14.417651 1.685970 56.496342
vn 2.346958 0.354752 -5.816023
v -11.560941 27.158152 58.711469
vn 2.805597 0.197804 -5.617709
v -14.881334 15.378196 56.565669
vn 2.490451 0.272702 -5.759757
v -11.994835 20.034698 58.139580
vn 2.736216 0.274853 -5.648903
v -14.276755 17.384626 56.946943
vn 2.608013 0.043668 -5.713779
v -13.031902 3.379193 57.180274
vn 2.896776 0.053940 -5.572909
v -14.870492 -0.407701 56.255155
vn 3.131769 0.176047 -5.443964
v -17.211388 11.992480 55.180652
vn 2.359895 0.329059 -5.811830
v -11.728264 23.934152 58.445733
vn 2.724913 0.382871 -5.646012
v -14.695435 22.608575 57.051425
vn 3.280231 0.010443 -5.357916
v -17.702524 -2.058900 54.623243
vn 3.253157 0.188167 -5.369495
v -18.155773 5.988548 54.472703
vn 1.645502 0.079481 -2.341980
v -21.656805 12.007513 52.355309
vn 1.193392 0.037685 -3.029522
v -10.948200 2.681090 58.035000
vn 1.259791 0.213754 -2.481506
v -16.330800 29.671500 56.723950
vn 1.554250 0.185568 -2.531869
v -19.517549 25.383025 54.468648
vn 1.085439 -0.029251 -2.561683
v -11.023200 -5.033035 58.020350
vn 1.480746 -0.017504 -2.402907
v -18.452100 -6.380990 54.181700
vn 0.934262 0.129085 -2.661398
v -8.671232 23.395523 59.521886
vn 1.060210 0.066050 -2.595156
v -11.267750 10.803050 58.055100
vn 1.553341 0.142665 -2.461620
v -19.855300 23.756200 54.133100
vn 1.539806 0.116399 -2.441156
v -19.891000 22.132050 54.035550
vn 1.047135 0.102050 -2.731135
v -9.947700 19.449943 58.927997
vn 1.145154 0.061676 -2.648245
v -12.152815 13.072234 57.763134
vn 1.590107 0.077751 -2.381901
v -20.742300 13.707550 53.049550
vn 1.302430 0.126281 -2.862257
v -12.591105 16.862150 57.704831
vn 0.957960 0.158441 -2.537309
v -10.089961 28.040776 59.330741
vn 1.581614 0.071940 -2.228631
v -22.236550 9.670570 51.853600
vn 1.784070 0.146205 -3.790700
v -13.325100 16.261000 57.353700
vn 1.136919 0.141873 -2.546898
v -13.905800 30.160400 57.865350
vn 1.797082 0.050791 -2.747586
v -20.649400 1.277575 52.769500
vn 1.566540 0.039389 -2.367619
v -20.962950 -0.792941 52.506300
vn 1.324779 0.044594 -3.121895
v -11.643200 7.064125 57.797050
vn 1.488930 0.126515 -2.420326
v -19.561700 20.451000 54.160900
vn 1.135976 0.118419 -2.690619
v -10.982700 18.165600 58.480500
vn 0.921052 -0.012266 -2.585267
v -9.759349 -1.352802 58.405646
vn 2.143884 0.163296 -3.606535
v -18.103600 16.652800 54.859100
vn 0.908534 0.167820 -2.617231
v -8.921320 25.682737 59.562519
vn 1.092252 0.076544 -2.581692
v -11.163600 8.908820 58.057400
vn 1.007789 -0.046965 -2.656888
v -10.275700 -3.673515 58.268500
vn 1.708633 0.118869 -2.740696
v -19.293804 15.204987 54.074054
vn 1.582971 -0.027192 -2.450817
v -19.326700 -5.566085 53.606100
vn 1.894425 0.045166 -2.939458
v -20.577912 3.248815 52.847079
vn 1.537676 0.085693 -3.328876
v -13.097500 14.435000 57.371700
vn 3.459329 0.180076 -5.241104
v -20.048210 6.641571 53.285172
vn 1.814756 0.068655 -2.729091
v -21.155029 5.387832 52.503792
vn 3.477686 0.144607 -5.229119
v -20.214333 12.132651 53.366215
vn 1.412116 0.245980 -2.486945
v -17.825648 28.423257 55.763336
vn 3.052761 0.333068 -5.480879
v -16.438719 25.577500 56.308545
vn 2.720351 0.037512 -5.661658
v -13.659566 -2.057965 56.843680
vn 3.163291 -0.019557 -5.427320
v -16.952647 -5.311690 55.079581
vn 2.753160 0.130140 -5.645003
v -14.481275 13.504818 56.715745
vn 2.674581 0.378574 -5.671249
v -14.854454 28.624307 57.352332
vn 2.887623 0.308264 -5.570217
v -15.772927 18.785181 56.283895
vn 1.169922 -0.004126 -2.530429
v -12.621400 -6.473080 57.310600
vn 3.238541 0.321529 -5.373849
v -18.119945 24.306568 55.262213
vn 2.610738 0.290964 -5.707336
v -12.956215 18.592587 57.628558
vn 1.401500 -0.001458 -2.475322
v -16.490290 -7.194816 55.338437
vn 2.542689 0.323002 -5.735979
v -12.828164 22.165886 57.872193
vn 2.617514 0.046387 -5.710365
v -13.133525 0.014533 57.100411
vn 2.740715 0.168281 -5.649536
v -14.172156 10.320183 56.779103
vn 2.910955 0.174774 -5.563017
v -15.196032 11.962193 56.315946
vn 2.107931 0.231009 -5.914481
v -9.728159 21.889217 59.087170
vn 2.470541 -0.001767 -5.775437
v -12.011720 -3.289932 57.585608
vn 3.171431 0.102796 -5.422240
v -17.092070 4.575691 55.051123
vn 1.418615 0.039077 -3.236542
v -11.718883 4.854954 57.772703
vn 3.520154 0.173322 -5.199794
v -20.393371 10.527782 53.194819
vn 3.322457 0.178511 -5.328646
v -19.008395 9.561876 54.059434
vn 3.171110 0.326126 -5.414231
v -17.535437 22.407234 55.492051
vn 3.046570 0.339574 -5.482159
v -16.365731 23.410049 56.238709
vn 3.296915 0.279332 -5.340951
v -18.856763 22.383053 54.699884
vn 0.970915 0.033803 -2.667962
v -10.162950 1.072671 58.287650
vn 3.266663 0.041835 -5.366809
v -17.582517 0.334426 54.699185
vn 1.576077 0.000746 -2.366469
v -20.795500 -2.576380 52.604800
vn 2.713533 0.359109 -5.653059
v -14.559149 26.391326 57.348472
vn 2.914328 0.279806 -5.559157
v -16.066348 16.923007 56.016349
vn 3.154146 0.148244 -5.431396
v -17.494709 9.684620 54.968764
vn 3.166601 0.439974 -5.408498
v -17.874535 26.422853 55.536291
vn 1.468917 0.235006 -2.483944
v -19.112700 26.487500 54.810200
vn 2.185762 0.383319 -5.876935
v -10.679791 25.722310 58.957174
vn 2.114620 0.312345 -5.908222
v -10.044540 23.757175 59.059395
vn 1.280245 -0.039545 -2.441753
v -14.740250 -7.287990 56.320250
vn 3.415398 0.039090 -5.273384
v -19.210410 -1.177453 53.661735
vn 3.514118 0.186268 -5.203151
v -20.385901 8.578994 53.135082
vn 3.385439 0.085199 -5.291297
v -19.392463 0.838164 53.586861
vn 1.249390 0.155848 -2.707577
v -15.360500 29.972100 57.196400
vn 2.423541 0.340647 -5.786141
v -12.138391 28.561987 58.551586
vn 3.089194 0.020868 -5.469242
v -15.958079 0.613888 55.670462
vn 1.046892 0.154588 -2.466445
v -11.976700 29.667400 58.689500
vn 0.948496 0.094479 -2.694765
v -9.146240 21.019500 59.261500
vn 2.939869 0.315667 -5.542028
v -16.038953 20.990495 56.256867
vn 3.290585 -0.032734 -5.352174
v -17.986540 -4.282659 54.443196
vn 2.347906 -0.010012 -5.823444
v -11.753617 -1.660444 57.700385
vn 2.904195 0.157817 -5.567732
v -15.341620 8.774605 56.144127
vn 3.129218 0.057600 -5.447333
v -16.368392 2.279258 55.438823
vn 3.105748 0.280565 -5.453363
v -17.199299 17.752374 55.449362
vn 3.049158 0.133866 -5.491601
v -16.296253 5.656697 55.514941
vn 2.939707 0.037695 -5.549556
v -15.127327 3.837467 56.156793
vn 2.598095 0.096602 -5.718374
v -13.145462 6.791062 57.160578
vn 3.422875 -0.017351 -5.268342
v -19.135729 -3.245165 53.717597
vn 1.594036 -0.013985 -2.377535
v -20.181300 -4.301560 53.022800
vn 1.599898 0.067142 -2.289581
v -22.060600 7.666595 51.926250
vn 1.729282 0.146883 -2.879083
v -18.589768 18.464696 54.654319
vn 3.093311 0.176347 -5.465196
v -16.713713 7.450279 55.352321
vn 2.559849 0.346372 -5.727561
v -13.574572 24.215869 57.652373
vn 3.281950 0.147410 -5.354213
v -18.913118 11.264036 54.171323
vn 2.995914 0.194558 -5.517816
v -16.085175 13.712281 55.895834
vn 2.621790 0.146644 -5.706369
v -13.458494 12.324915 57.175128
vn 3.056808 0.230630 -5.483274
v -17.008753 15.890742 55.468347
vn 3.367670 0.143282 -5.302190
v -19.260245 4.575768 53.716842
vn 3.381549 0.069954 -5.295077
v -19.587402 2.607746 53.474269
vn 2.964744 0.479615 -5.517681
v -16.334615 27.725517 56.531558
vn 2.476364 0.168574 -5.771307
v -12.439203 10.688776 57.573613
vn 3.293246 0.171971 -5.347324
v -18.593788 7.762334 54.251376
vn 3.010373 -0.004697 -5.514679
v -15.716449 -5.179121 55.769432
vn 3.103275 0.276531 -5.454646
v -17.071726 19.413986 55.612345
vn 2.760139 0.064506 -5.642585
v -13.962556 5.238992 56.750527
vn 2.248215 0.043534 -5.865269
v -11.408471 -0.015167 57.828574
vn 3.014340 0.143275 -5.510259
v -15.984430 10.391448 55.837684
vn 2.528655 0.342096 -5.741315
v -13.193157 27.745649 58.048651
vn 3.312378 0.188090 -5.334893
v -19.018968 13.045819 54.152458
vn 2.679797 0.316114 -5.673809
v -13.930129 20.730807 57.270740
vn 3.193973 0.276024 -5.403094
v -17.922916 20.736803 55.177169
vn 2.655214 0.014265 -5.693952
v -13.094678 -4.237977 57.093614
vn 2.622443 0.172925 -5.704808
v -13.423130 8.485546 57.079126
vn 3.288591 0.068288 -5.353145
v -18.245501 2.567821 54.318486
# 138 vertices, 0 vertices normals

f 79//79 25//25 59//59
f 83//83 34//34 33//33
f 81//81 68//68 82//82
f 69//69 38//38 17//17
f 64//64 119//119 15//15
f 75//75 31//31 102//102
f 8//8 13//13 18//18
f 107//107 13//13 100//100
f 59//59 37//37 133//133
f 23//23 112//112 95//95
f 29//29 76//76 52//52
f 19//19 12//12 100//100
f 116//116 7//7 109//109
f 111//111 106//106 137//137
f 112//112 54//54 113//113
f 117//117 21//21 71//71
f 108//108 121//121 49//49
f 5//5 23//23 12//12
f 122//122 123//123 55//55
f 20//20 74//74 131//131
f 58//58 57//57 122//122
f 57//57 58//58 114//114
f 8//8 26//26 84//84
f 60//60 124//124 90//90
f 60//60 27//27 124//124
f 65//65 132//132 87//87
f 70//70 63//63 127//127
f 63//63 5//5 127//127
f 5//5 104//104 23//23
f 87//87 61//61 124//124
f 65//65 124//124 27//27
f 19//19 13//13 72//72
f 67//67 9//9 136//136
f 67//67 94//94 9//9
f 62//62 2//2 10//10
f 134//134 16//16 69//69
f 29//29 136//136 76//76
f 136//136 29//29 67//67
f 63//63 70//70 30//30
f 3//3 87//87 117//117
f 14//14 99//99 39//39
f 10//10 19//19 62//62
f 19//19 72//72 62//62
f 32//32 51//51 125//125
f 137//137 125//125 51//51
f 8//8 18//18 26//26
f 78//78 26//26 18//18
f 79//79 80//80 96//96
f 81//81 82//82 103//103
f 33//33 68//68 83//83
f 28//28 68//68 33//33
f 35//35 16//16 4//4
f 61//61 68//68 90//90
f 3//3 82//82 61//61
f 125//125 36//36 32//32
f 103//103 82//82 22//22
f 48//48 105//105 130//130
f 86//86 44//44 95//95
f 133//133 37//37 53//53
f 4//4 93//93 75//75
f 75//75 93//93 31//31
f 133//133 118//118 59//59
f 66//66 6//6 17//17
f 90//90 124//124 61//61
f 81//81 83//83 68//68
f 82//82 68//68 61//61
f 77//77 109//109 110//110
f 123//123 122//122 138//138
f 88//88 66//66 17//17
f 9//9 2//2 136//136
f 90//90 91//91 60//60
f 14//14 1//1 132//132
f 92//92 14//14 39//39
f 92//92 39//39 50//50
f 92//92 21//21 1//1
f 92//92 1//1 14//14
f 92//92 93//93 21//21
f 94//94 70//70 9//9
f 122//122 77//77 138//138
f 25//25 79//79 40//40
f 132//132 99//99 14//14
f 87//87 3//3 61//61
f 72//72 8//8 130//130
f 27//27 98//98 65//65
f 98//98 42//42 65//65
f 71//71 16//16 134//134
f 95//95 44//44 97//97
f 43//43 97//97 44//44
f 132//132 42//42 99//99
f 101//101 99//99 42//42
f 1//1 87//87 132//132
f 78//78 111//111 45//45
f 71//71 4//4 16//16
f 12//12 85//85 100//100
f 13//13 8//8 72//72
f 99//99 101//101 39//39
f 41//41 17//17 38//38
f 4//4 75//75 35//35
f 102//102 35//35 75//75
f 81//81 103//103 135//135
f 69//69 47//47 38//38
f 52//52 105//105 48//48
f 135//135 46//46 83//83
f 115//115 135//135 128//128
f 89//89 131//131 116//116
f 100//100 13//13 19//19
f 23//23 85//85 12//12
f 85//85 107//107 100//100
f 95//95 112//112 86//86
f 121//121 108//108 88//88
f 108//108 49//49 115//115
f 66//66 108//108 128//128
f 108//108 66//66 88//88
f 59//59 25//25 37//37
f 13//13 107//107 110//110
f 107//107 77//77 110//110
f 110//110 18//18 13//13
f 7//7 111//111 129//129
f 91//91 90//90 28//28
f 28//28 90//90 68//68
f 104//104 5//5 63//63
f 104//104 63//63 30//30
f 104//104 30//30 54//54
f 50//50 93//93 92//92
f 93//93 50//50 31//31
f 4//4 21//21 93//93
f 21//21 4//4 71//71
f 45//45 111//111 137//137
f 96//96 80//80 126//126
f 113//113 86//86 112//112
f 96//96 57//57 114//114
f 62//62 72//72 105//105
f 19//19 10//10 12//12
f 120//120 36//36 125//125
f 120//120 125//125 73//73
f 40//40 96//96 114//114
f 96//96 40//40 79//79
f 34//34 83//83 46//46
f 115//115 46//46 135//135
f 7//7 116//116 106//106
f 111//111 7//7 106//106
f 74//74 119//119 64//64
f 64//64 120//120 74//74
f 74//74 120//120 73//73
f 117//117 1//1 21//21
f 82//82 3//3 22//22
f 117//117 22//22 3//3
f 89//89 126//126 80//80
f 83//83 81//81 135//135
f 79//79 59//59 118//118
f 89//89 118//118 20//20
f 117//117 87//87 1//1
f 89//89 116//116 126//126
f 11//11 121//121 119//119
f 89//89 20//20 131//131
f 22//22 117//117 71//71
f 69//69 16//16 47//47
f 53//53 11//11 133//133
f 49//49 121//121 11//11
f 126//126 57//57 96//96
f 122//122 55//55 58//58
f 2//2 5//5 10//10
f 23//23 104//104 112//112
f 10//10 5//5 12//12
f 119//119 20//20 11//11
f 64//64 56//56 120//120
f 56//56 64//64 15//15
f 36//36 120//120 56//56
f 123//123 97//97 43//43
f 55//55 123//123 43//43
f 20//20 119//119 74//74
f 116//116 131//131 106//106
f 73//73 131//131 74//74
f 125//125 137//137 73//73
f 87//87 124//124 65//65
f 112//112 104//104 54//54
f 76//76 105//105 52//52
f 111//111 78//78 129//129
f 15//15 41//41 56//56
f 16//16 35//35 47//47
f 15//15 17//17 41//41
f 15//15 88//88 17//17
f 126//126 116//116 24//24
f 107//107 138//138 77//77
f 9//9 127//127 2//2
f 6//6 66//66 103//103
f 70//70 127//127 9//9
f 127//127 5//5 2//2
f 105//105 76//76 62//62
f 95//95 97//97 85//85
f 95//95 85//85 23//23
f 121//121 88//88 15//15
f 128//128 108//108 115//115
f 109//109 7//7 129//129
f 129//129 18//18 110//110
f 80//80 118//118 89//89
f 118//118 80//80 79//79
f 121//121 15//15 119//119
f 129//129 78//78 18//18
f 48//48 130//130 84//84
f 130//130 8//8 84//84
f 106//106 131//131 73//73
f 11//11 53//53 49//49
f 130//130 105//105 72//72
f 66//66 128//128 103//103
f 6//6 69//69 17//17
f 132//132 65//65 42//42
f 133//133 20//20 118//118
f 133//133 11//11 20//20
f 134//134 103//103 22//22
f 6//6 134//134 69//69
f 135//135 103//103 128//128
f 22//22 71//71 134//134
f 134//134 6//6 103//103
f 136//136 62//62 76//76
f 136//136 2//2 62//62
f 24//24 122//122 57//57
f 126//126 24//24 57//57
f 109//109 77//77 24//24
f 77//77 122//122 24//24
f 45//45 137//137 51//51
f 109//109 24//24 116//116
f 138//138 107//107 85//85
f 137//137 106//106 73//73
f 85//85 97//97 138//138
f 138//138 97//97 123//123
f 109//109 129//129 110//110
# 227 faces, 0 coords texture

# End of File
