####
#
# OBJ File Generated by Meshlab
#
####
# Object 483S.obj
#
# Vertices: 210
# Faces: 338
#
####
vn 4.403897 0.053967 -4.481103
v -35.290963 41.329005 42.933932
vn 2.287444 0.011573 -2.152859
v -42.616650 50.000000 35.740400
vn 4.385549 0.072428 -4.498313
v -34.136426 40.405021 44.070767
vn 2.389095 0.012687 -2.039996
v -44.605400 50.000000 33.494600
vn 4.232154 0.108056 -4.642701
v -28.342647 43.455289 49.577841
vn 4.259936 0.138679 -4.616100
v -29.659966 40.334403 48.295960
vn 4.157885 0.200182 -4.706403
v -26.136071 40.032936 51.431959
vn 2.258118 0.095946 -2.180648
v -41.987200 38.000000 36.322300
vn 4.762130 0.044272 -4.098535
v -44.449867 51.512598 33.681312
vn 2.355990 0.020893 -2.060680
v -43.976400 53.000000 34.251200
vn 3.408259 0.093172 -3.233185
v -46.948400 50.000000 30.718000
vn 2.311908 0.083647 -2.094546
v -46.825950 52.894700 30.986850
vn 2.236279 0.041663 -2.209472
v -48.153200 52.774450 29.564700
vn 3.434753 -0.115144 -3.204216
v -47.047000 38.000000 30.718000
vn 3.283907 0.056706 -3.386895
v -39.563400 38.000000 38.718000
vn 2.262780 0.011094 -2.195082
v -39.582450 42.526400 38.718000
vn 4.432291 0.042878 -4.451976
v -38.375811 43.808415 39.972798
vn 4.400997 0.161495 -4.480737
v -39.518541 35.151925 38.697082
vn 2.207713 0.059683 -2.233612
v -40.619950 38.000000 37.695900
vn 2.245586 -0.020961 -2.189139
v -46.992300 45.411750 30.718000
vn 2.095549 0.042248 -2.342756
v -51.359050 52.518100 26.537350
vn 2.166504 0.007743 -2.277512
v -49.609450 52.653450 28.136050
vn 2.290861 -0.014657 -2.161830
v -47.055300 41.440050 30.718000
vn 4.503577 -0.047614 -4.379393
v -48.154440 39.982758 29.551357
vn 4.035375 -0.010393 -4.813712
v -51.596243 42.687779 26.302077
vn 4.165265 0.210203 -4.699388
v -25.751732 41.396514 51.829031
vn 2.268823 -0.029980 -2.175175
v -47.021850 43.694150 30.718000
vn 2.213557 0.022947 -2.219129
v -39.585700 40.818050 38.718000
vn 4.376681 -0.063033 -4.504842
v -49.348235 40.709176 28.340761
vn 3.931063 -0.061701 -4.900512
v -53.581334 47.877996 24.649497
vn 2.009738 0.023578 -2.416764
v -53.094400 52.391450 25.040350
vn 4.224705 0.218236 -4.645683
v -30.402518 34.719106 47.392644
vn 3.989150 -0.115943 -4.851080
v -51.788647 40.607639 26.169963
vn 4.185854 0.208974 -4.680895
v -29.345602 35.912536 48.409666
vn 4.214521 0.016088 -4.659121
v -50.393713 43.407530 27.362134
vn 4.344702 -0.261688 -4.530488
v -49.173838 33.823134 28.810894
vn 4.286277 0.102867 -4.592999
v -30.178231 43.789901 47.885687
vn 4.483611 0.199141 -4.396736
v -40.948740 35.037503 37.260485
vn 3.962341 -0.222631 -4.869920
v -51.862557 38.449573 26.191225
vn 3.958907 -0.235400 -4.873005
v -52.080235 35.899821 26.142769
vn 4.367926 0.101798 -4.515437
v -38.085152 37.295124 40.132796
vn 4.437540 -0.193064 -4.443951
v -48.049458 34.412548 29.893990
vn 4.383640 -0.233075 -4.494555
v -48.998466 36.098890 28.860097
vn 4.281113 0.125507 -4.597134
v -31.038304 39.378219 46.984740
vn 4.370418 0.130059 -4.511999
v -34.158381 38.410787 44.000943
vn 4.229353 0.253223 -4.639529
v -30.131254 30.728261 47.458673
vn 4.310147 0.045708 -4.570765
v -49.730336 51.608694 28.017505
vn 4.314574 0.094900 -4.566458
v -32.030948 41.521903 46.105814
vn 1.922097 0.045779 -2.078032
v -29.312100 45.353550 48.729350
vn 2.097378 -0.000779 -2.138604
v -37.124887 46.912528 41.198617
vn 2.123608 0.002021 -2.029223
v -42.114350 51.242300 36.263300
vn 1.668070 0.002193 -1.523679
v -43.112700 53.000000 35.216200
vn 2.314347 0.029874 -2.359816
v -34.274350 45.449850 43.990700
vn 1.660790 -0.079833 -2.138883
v -54.507000 37.290800 24.177700
vn 2.477828 0.040987 -2.562732
v -32.864900 44.867100 45.369900
vn 1.883632 -0.107038 -2.431085
v -54.591200 39.456700 24.006900
vn 1.630915 -0.095494 -2.043081
v -53.197600 33.812400 25.367300
vn 1.104207 -0.024526 -1.083982
v -39.599300 47.283400 38.718400
vn 2.151149 -0.029364 -2.146911
v -38.766600 47.238600 39.567650
vn 2.108496 0.119073 -2.193351
v -33.383900 31.509050 44.445750
vn 2.241806 0.106586 -2.330348
v -34.167100 32.755000 43.765300
vn 2.103544 0.050401 -2.235478
v -31.177046 45.187606 46.986335
vn 1.721328 0.050733 -1.947046
v -25.699600 43.391500 51.956100
vn 1.835856 -0.074277 -1.977639
v -49.255700 30.911800 28.883500
vn 1.953319 0.045662 -2.147434
v -27.741300 44.822450 50.153900
vn 1.314032 0.005315 -1.628119
v -54.061300 52.324700 24.252300
vn 1.835445 0.097830 -2.078628
v -24.426776 39.936236 52.944255
vn 2.089423 0.026291 -2.119714
v -35.363500 46.185200 42.933500
vn 2.780778 0.125250 -2.871340
v -35.098100 34.012300 42.912700
vn 1.980919 0.113855 -2.083286
v -32.748200 30.665800 45.013600
vn 2.263029 -0.038238 -2.260689
v -46.468100 31.618400 31.549600
vn 1.888803 -0.056973 -1.946250
v -47.435000 30.966500 30.612500
vn 2.012126 -0.108196 -2.516762
v -53.782681 35.611442 24.781091
vn 2.362886 0.117895 -2.314121
v -41.015900 34.019550 37.140050
vn 2.669358 0.100163 -2.557658
v -42.326500 34.274800 35.794300
vn 1.964012 0.095601 -1.964171
v -39.935200 33.546500 38.204200
vn 1.653831 -0.047758 -2.218842
v -55.342700 45.068100 23.375500
vn 2.046344 -0.047182 -2.626114
v -54.579337 41.574948 23.941244
vn 1.974382 0.013227 -2.598885
v -54.861200 43.305900 23.723700
vn 1.836977 0.113786 -1.977068
v -31.343100 29.595300 46.278200
vn 1.970103 0.096251 -2.223298
v -25.151350 42.226300 52.401700
vn 1.942485 0.121090 -2.197299
v -28.902250 29.770250 48.514750
vn 2.279820 0.032081 -2.207726
v -43.506055 33.507620 34.555046
vn 0.778221 0.004398 -0.758011
v -41.654600 50.000000 36.728100
vn 2.176357 0.089061 -2.258547
v -36.981900 33.818300 41.086300
vn 1.918085 0.122225 -2.105679
v -29.959300 29.455000 47.541400
vn 4.372852 0.052718 -4.511509
v -37.080063 43.353044 41.218442
vn 2.361883 0.017709 -2.071362
v -43.810100 50.000000 34.415800
vn 4.425808 0.001377 -4.459428
v -48.113563 48.527748 29.555439
vn 2.348352 0.054683 -2.042040
v -45.547678 52.972913 32.434009
vn 2.391657 0.044215 -2.036406
v -45.730557 50.000010 32.154110
vn 4.282962 0.202584 -4.592182
v -31.543926 35.720618 46.400871
vn 4.401797 0.061185 -4.483172
v -34.336576 44.069924 43.911914
vn 4.312590 0.091046 -4.568493
v -31.597632 43.480131 46.550961
vn 4.132517 0.262242 -4.725522
v -26.193073 37.041786 51.243562
vn 4.402570 0.056276 -4.482463
v -34.235124 42.314304 43.987563
vn 4.381353 0.131139 -4.501604
v -36.671017 36.452005 41.485718
vn 4.388651 0.074694 -4.495732
v -38.636222 39.033558 39.635555
vn 4.264968 0.102566 -4.612765
v -29.299984 42.428162 48.673753
vn 2.286602 -0.004190 -2.167818
v -47.061100 39.301200 30.718000
vn 2.286133 0.097435 -2.152220
v -43.189450 38.000000 35.052450
vn 1.928146 -0.092587 -2.314949
v -52.099350 32.812000 26.251750
vn 4.100318 0.247885 -4.754154
v -27.607291 32.951751 49.797832
vn 4.074196 -0.035780 -4.781333
v -51.832140 47.178816 26.090060
vn 4.435192 0.085374 -4.448943
v -48.002873 50.732265 29.684460
vn 2.214154 -0.009150 -2.197476
v -39.626550 46.010150 38.719450
vn 2.200597 0.017406 -2.242500
v -39.572900 39.242300 38.718000
vn 4.329686 0.220939 -4.547714
v -32.816754 32.877172 45.065227
vn 4.391548 0.086815 -4.492583
v -37.985208 40.335832 40.298487
vn 2.236407 -0.018221 -2.206571
v -46.970600 47.712600 30.718000
vn 4.346504 0.043342 -4.536168
v -49.232081 49.699025 28.467847
vn 4.378068 -0.008121 -4.505985
v -49.368603 42.788677 28.325521
vn 1.895712 0.149185 -2.270921
v -25.330350 33.481300 51.754800
vn 4.368789 0.073015 -4.514837
v -33.072636 43.178673 45.143023
vn 4.358103 0.076818 -4.525295
v -33.184306 41.435032 45.003070
vn 4.382454 0.072827 -4.501888
v -36.678566 41.080126 41.577760
vn 2.324670 0.091595 -2.109656
v -44.806750 38.000000 33.317450
vn 4.170625 -0.157241 -4.692217
v -50.507876 39.417456 27.286879
vn 4.370255 0.105592 -4.512999
v -39.236982 36.694578 39.009601
vn 4.154617 0.218210 -4.708476
v -27.069058 38.583673 50.547509
vn 3.834315 -0.090723 -4.976197
v -54.108483 45.687285 24.275029
vn 4.122885 0.048702 -4.738661
v -51.875000 51.100970 26.052238
vn 4.143838 0.236097 -4.716961
v -25.602034 38.480951 51.838623
vn 4.373046 0.182483 -4.507910
v -35.322757 35.581440 42.765607
vn 4.164076 0.222215 -4.699890
v -27.998245 37.116987 49.656033
vn 4.393332 0.132116 -4.489782
v -35.461761 37.490082 42.700728
vn 2.103312 0.061702 -2.331983
v -26.667200 44.067000 51.110600
vn 4.242021 0.171201 -4.630987
v -30.675301 36.885297 47.254463
vn 4.335441 0.193962 -4.543422
v -32.773057 35.317278 45.219222
vn 3.909855 -0.072177 -4.917799
v -53.050010 41.808678 25.144648
vn 4.276743 0.211758 -4.598021
v -31.534083 33.762909 46.312946
vn 4.387503 0.098472 -4.496423
v -36.989465 38.604213 41.221601
vn 4.365060 0.174334 -4.515900
v -34.160321 36.469398 43.930099
vn 4.288040 0.098105 -4.591443
v -30.597837 41.859358 47.454364
vn 4.536791 0.197811 -4.342332
v -42.174413 36.167521 36.038203
vn 4.141917 0.227840 -4.719199
v -28.066894 35.008216 49.494608
vn 4.509843 -0.096786 -4.372799
v -46.706107 34.449541 31.244297
vn 4.523081 -0.231354 -4.354188
v -47.533373 36.156692 30.337442
vn 4.308693 0.141588 -4.570800
v -31.888040 37.493375 46.138435
vn 4.197047 0.201203 -4.670954
v -28.516823 39.141816 49.294868
vn 4.172296 -0.214580 -4.688811
v -50.409658 37.239875 27.467397
vn 4.071867 0.311763 -4.774880
v -25.473656 35.588195 51.775928
vn 1.886791 0.164592 -2.239585
v -24.692200 35.268650 52.410800
vn 3.996911 -0.235248 -4.841344
v -51.650402 34.194128 26.576615
vn 4.182989 0.165294 -4.685272
v -26.912191 41.929156 50.827440
vn 1.885233 0.122652 -2.213168
v -27.494408 30.617317 49.763536
vn 2.355750 -0.011646 -2.077861
v -45.893600 38.000000 32.088600
vn 1.877111 0.133816 -2.166604
v -24.339350 37.389850 52.877250
vn 4.409392 0.064501 -4.475212
v -38.158516 42.114891 40.160159
vn 4.085845 0.001797 -4.771231
v -52.000541 49.312865 25.937480
vn 4.367768 0.177354 -4.513215
v -36.453517 34.982067 41.646750
vn 4.404639 0.060477 -4.480358
v -35.223765 44.785188 43.053217
vn 4.172163 -0.260285 -4.683981
v -50.392803 35.065831 27.577144
vn 1.853661 0.135832 -2.195387
v -26.140600 32.017350 50.986250
vn 4.282494 0.237040 -4.591178
v -31.479035 31.621756 46.267022
vn 4.458101 -0.166197 -4.419716
v -48.002299 37.921429 29.732882
vn 4.349601 -0.163363 -4.530510
v -49.207295 38.455906 28.548246
vn 4.363628 0.196648 -4.516460
v -34.027948 34.455547 43.970128
vn 3.956212 -0.059853 -4.880553
v -52.940661 45.865306 25.196204
vn 2.049085 -0.149697 -2.285866
v -50.651014 31.762585 27.591501
vn 4.198500 -0.032280 -4.670575
v -50.476081 41.567725 27.272732
vn 1.882477 -0.067299 -2.436333
v -55.237350 46.812550 23.374750
vn 1.825122 -0.003160 -2.294643
v -54.666150 50.795600 23.771150
vn 4.247008 0.002509 -4.629009
v -50.264950 46.556858 27.481250
vn 1.857914 -0.025720 -2.345372
v -55.012507 49.131024 23.499886
vn 4.645383 0.161762 -4.224831
v -46.827939 51.366185 30.919892
vn 4.226732 0.208505 -4.644039
v -30.257894 32.592871 47.437612
vn 4.170435 0.206510 -4.694888
v -29.028473 33.665531 48.585850
vn 4.242991 0.048607 -4.633663
v -50.548475 50.740242 27.252155
vn 4.485899 0.049171 -4.399104
v -39.085782 42.752015 39.231126
vn 2.237986 0.021385 -2.201193
v -39.607900 44.285200 38.718900
vn 2.180432 0.082626 -2.246535
v -38.686410 33.652435 39.452810
vn 4.233455 0.023195 -4.641690
v -50.538179 48.528187 27.234888
vn 4.147058 0.234545 -4.713363
v -28.896401 31.569359 48.617822
vn 4.485982 -0.072702 -4.398598
v -46.104569 32.978102 31.898927
vn 2.202715 -0.011814 -2.154678
v -44.825598 32.588338 33.209891
vn 4.656590 0.026629 -4.216371
v -43.279640 51.421903 35.031168
vn 4.756523 0.094211 -4.103525
v -45.658465 51.488752 32.261755
vn 4.411410 0.004307 -4.473333
v -38.031990 45.300703 40.319195
vn 4.395968 0.045971 -4.488966
v -36.319711 44.953621 41.972288
vn 4.527481 0.020430 -4.356375
v -45.071293 34.494728 32.952955
vn 4.406416 0.083699 -4.478216
v -35.475129 39.511214 42.733210
vn 3.847867 -0.029766 -4.966424
v -53.954227 43.273601 24.412566
vn 4.072866 0.282369 -4.775409
v -26.499259 33.811147 50.801845
vn 4.183393 -0.322057 -4.675801
v -50.466858 33.172757 27.653745
vn 4.160317 0.193186 -4.704521
v -27.378777 40.123794 50.341614
vn 4.408441 -0.146710 -4.474375
v -47.611951 32.717906 30.393048
vn 4.326829 0.116174 -4.554317
v -32.700853 39.334244 45.422211
vn 4.298473 -0.221754 -4.576873
v -49.091522 32.093213 28.991535
vn 4.395191 0.060696 -4.489644
v -35.704502 42.997056 42.554217
vn 4.094873 -0.006476 -4.764781
v -51.366197 44.912922 26.514147
vn 3.879168 -0.181248 -4.938454
v -53.295473 39.914986 24.989038
vn 4.359977 0.139685 -4.522080
v -37.881003 35.408049 40.280541
vn 4.211376 0.140184 -4.660353
v -28.356992 41.125938 49.510214
vn 4.171491 0.164553 -4.695204
v -26.016944 42.696975 51.657449
vn 4.301939 0.008070 -4.576574
v -49.717144 44.807645 27.977668
vn 4.468930 -0.025871 -4.415887
v -48.362021 44.309459 29.316900
vn 4.126369 0.247830 -4.731741
v -26.904199 35.575133 50.542039
vn 3.962130 -0.004048 -4.875903
v -53.481054 50.394872 24.714308
vn 4.347847 0.004209 -4.535523
v -49.280082 47.937259 28.416310
vn 4.505715 -0.025252 -4.378557
v -48.229936 42.256820 29.468912
vn 4.219063 0.175743 -4.652522
v -29.607970 38.145614 48.257138
vn 4.446308 0.155835 -4.435973
v -40.674232 36.543860 37.600208
vn 4.424768 -0.005385 -4.460227
v -48.480751 46.452222 29.193963
vn 4.622977 -0.068569 -4.252689
v -46.110228 36.400759 31.871870
vn 3.874889 -0.214721 -4.941252
v -53.333322 37.743662 25.072129
vn 3.941121 -0.025307 -4.892949
v -52.987333 44.076394 25.171003
vn 4.597417 0.112795 -4.280841
v -44.752865 36.783391 33.324005
vn 4.335860 0.156515 -4.544629
v -32.730908 37.032335 45.322290
vn 4.547935 0.135768 -4.332798
v -43.785842 35.556801 34.308461
# 210 vertices, 0 vertices normals

f 177//177 88//88 9//9
f 2//2 177//177 51//51
f 11//11 89//89 105//105
f 13//13 105//105 47//47
f 96//96 3//3 1//1
f 117//117 101//101 208//208
f 123//123 67//67 148//148
f 120//120 123//123 95//95
f 152//152 53//53 93//93
f 128//128 44//44 202//202
f 187//187 71//71 72//72
f 206//206 73//73 54//54
f 182//182 126//126 132//132
f 135//135 38//38 75//75
f 136//136 198//198 184//184
f 187//187 36//36 42//42
f 157//157 29//29 24//24
f 133//133 158//158 124//124
f 97//97 126//126 124//124
f 185//185 160//160 102//102
f 161//161 112//112 29//29
f 161//161 33//33 25//25
f 108//108 70//70 60//60
f 18//18 38//38 203//203
f 118//118 39//39 33//33
f 141//141 39//39 118//118
f 132//132 109//109 116//116
f 126//126 45//45 133//133
f 2//2 51//51 84//84
f 166//166 105//105 13//13
f 179//179 180//180 87//87
f 209//209 129//129 133//133
f 45//45 188//188 209//209
f 17//17 170//170 171//171
f 149//149 17//17 87//87
f 155//155 131//131 167//167
f 175//175 187//187 137//137
f 88//88 4//4 9//9
f 93//93 190//190 152//152
f 90//90 10//10 9//9
f 52//52 177//177 10//10
f 90//90 9//9 178//178
f 166//166 91//91 11//11
f 90//90 178//178 12//12
f 55//55 93//93 53//53
f 114//114 93//93 55//55
f 37//37 94//94 62//62
f 55//55 94//94 114//114
f 62//62 94//94 55//55
f 125//125 34//34 202//202
f 130//130 192//192 78//78
f 96//96 190//190 93//93
f 23//23 24//24 201//201
f 25//25 207//207 191//191
f 100//100 14//14 156//156
f 101//101 8//8 135//135
f 40//40 144//144 57//57
f 106//106 58//58 59//59
f 179//179 106//106 59//59
f 11//11 110//110 89//89
f 15//15 107//107 98//98
f 107//107 28//28 98//98
f 108//108 60//60 61//61
f 70//70 108//108 155//155
f 61//61 158//158 108//108
f 170//170 28//28 16//16
f 100//100 24//24 23//23
f 159//159 104//104 191//191
f 110//110 20//20 204//204
f 22//22 13//13 47//47
f 114//114 94//94 48//48
f 96//96 114//114 115//115
f 115//115 114//114 48//48
f 35//35 25//25 191//191
f 185//185 36//36 189//189
f 121//121 159//159 207//207
f 31//31 199//199 66//66
f 31//31 21//21 122//122
f 68//68 53//53 152//152
f 49//49 65//65 5//5
f 158//158 129//129 108//108
f 27//27 23//23 201//201
f 80//80 70//70 155//155
f 119//119 19//19 15//15
f 164//164 196//196 191//191
f 151//151 97//97 124//124
f 65//65 127//127 5//5
f 127//127 63//63 195//195
f 125//125 202//202 140//140
f 6//6 202//202 44//44
f 34//34 128//128 202//202
f 128//128 139//139 44//44
f 34//34 32//32 128//128
f 128//128 92//92 139//139
f 32//32 92//92 128//128
f 20//20 27//27 197//197
f 25//25 33//33 130//130
f 131//131 129//129 92//92
f 131//131 92//92 32//32
f 115//115 188//188 3//3
f 48//48 94//94 134//134
f 94//94 37//37 134//134
f 6//6 134//134 99//99
f 134//134 37//37 99//99
f 210//210 75//75 83//83
f 180//180 179//179 50//50
f 34//34 125//125 136//136
f 103//103 136//136 184//184
f 138//138 137//137 42//42
f 142//142 143//143 113//113
f 18//18 76//76 38//38
f 74//74 38//38 76//76
f 146//146 82//82 174//174
f 147//147 117//117 208//208
f 28//28 149//149 109//109
f 109//109 149//149 116//116
f 150//150 104//104 30//30
f 130//130 33//33 192//192
f 56//56 206//206 54//54
f 69//69 151//151 124//124
f 151//151 69//69 85//85
f 190//190 180//180 152//152
f 138//138 205//205 137//137
f 187//187 42//42 137//137
f 186//186 26//26 7//7
f 185//185 153//153 36//36
f 153//153 185//185 144//144
f 165//165 199//199 30//30
f 121//121 77//77 162//162
f 130//130 207//207 25//25
f 129//129 131//131 108//108
f 103//103 184//184 154//154
f 154//154 146//146 103//103
f 174//174 103//103 146//146
f 67//67 7//7 26//26
f 29//29 118//118 161//161
f 141//141 118//118 157//157
f 118//118 29//29 157//157
f 191//191 207//207 159//159
f 27//27 201//201 197//197
f 43//43 36//36 153//153
f 133//133 129//129 158//158
f 124//124 158//158 69//69
f 97//97 132//132 126//126
f 124//124 126//126 133//133
f 159//159 30//30 104//104
f 68//68 152//152 180//180
f 144//144 185//185 102//102
f 97//97 151//151 193//193
f 137//137 205//205 181//181
f 176//176 181//181 83//83
f 161//161 35//35 112//112
f 35//35 161//161 25//25
f 30//30 159//159 121//121
f 162//162 165//165 30//30
f 199//199 163//163 66//66
f 57//57 144//144 102//102
f 40//40 57//57 73//73
f 75//75 38//38 74//74
f 67//67 123//123 7//7
f 123//123 148//148 95//95
f 184//184 198//198 142//142
f 184//184 142//142 113//113
f 7//7 123//123 120//120
f 69//69 158//158 61//61
f 120//120 95//95 125//125
f 125//125 198//198 136//136
f 164//164 173//173 200//200
f 18//18 193//193 172//172
f 161//161 118//118 33//33
f 153//153 40//40 141//141
f 40//40 206//206 39//39
f 141//141 40//40 39//39
f 97//97 41//41 132//132
f 37//37 49//49 99//99
f 42//42 36//36 43//43
f 138//138 42//42 43//43
f 14//14 138//138 156//156
f 141//141 43//43 153//153
f 1//1 182//182 116//116
f 178//178 4//4 91//91
f 4//4 178//178 9//9
f 12//12 166//166 13//13
f 11//11 105//105 166//166
f 6//6 194//194 140//140
f 62//62 49//49 37//37
f 5//5 99//99 49//49
f 96//96 115//115 3//3
f 87//87 180//180 190//190
f 98//98 109//109 132//132
f 98//98 132//132 41//41
f 45//45 209//209 133//133
f 168//168 167//167 32//32
f 198//198 95//95 142//142
f 122//122 169//169 150//150
f 173//173 150//150 169//169
f 21//21 169//169 122//122
f 77//77 121//121 183//183
f 3//3 45//45 182//182
f 182//182 45//45 126//126
f 45//45 3//3 188//188
f 106//106 179//179 171//171
f 171//171 170//170 16//16
f 17//17 179//179 87//87
f 32//32 34//34 168//168
f 103//103 168//168 136//136
f 136//136 168//168 34//34
f 172//172 76//76 18//18
f 166//166 12//12 178//178
f 28//28 170//170 149//149
f 149//149 170//170 17//17
f 116//116 149//149 87//87
f 75//75 210//210 135//135
f 179//179 59//59 50//50
f 150//150 173//173 104//104
f 156//156 138//138 43//43
f 156//156 43//43 157//157
f 151//151 85//85 193//193
f 172//172 193//193 85//85
f 104//104 173//173 164//164
f 155//155 108//108 131//131
f 167//167 131//131 32//32
f 80//80 46//46 86//86
f 111//111 105//105 89//89
f 169//169 47//47 111//111
f 173//173 111//111 200//200
f 111//111 47//47 105//105
f 168//168 174//174 167//167
f 174//174 46//46 167//167
f 174//174 82//82 46//46
f 86//86 46//46 82//82
f 181//181 175//175 137//137
f 176//176 175//175 181//181
f 187//187 175//175 71//71
f 176//176 71//71 175//175
f 9//9 10//10 177//177
f 178//178 91//91 166//166
f 180//180 50//50 68//68
f 127//127 195//195 145//145
f 179//179 17//17 171//171
f 103//103 174//174 168//168
f 206//206 40//40 73//73
f 31//31 122//122 199//199
f 204//204 200//200 89//89
f 83//83 181//181 210//210
f 183//183 130//130 78//78
f 182//182 1//1 3//3
f 96//96 93//93 114//114
f 19//19 203//203 8//8
f 183//183 207//207 130//130
f 190//190 96//96 1//1
f 185//185 189//189 160//160
f 2//2 88//88 177//177
f 8//8 203//203 135//135
f 186//186 194//194 145//145
f 184//184 113//113 154//154
f 177//177 52//52 51//51
f 41//41 15//15 98//98
f 189//189 64//64 160//160
f 119//119 15//15 41//41
f 99//99 194//194 6//6
f 187//187 189//189 36//36
f 79//79 183//183 78//78
f 41//41 193//193 119//119
f 119//119 193//193 18//18
f 188//188 48//48 44//44
f 115//115 48//48 188//188
f 79//79 77//77 183//183
f 189//189 72//72 64//64
f 132//132 116//116 182//182
f 155//155 167//167 46//46
f 39//39 192//192 33//33
f 186//186 7//7 120//120
f 100//100 156//156 24//24
f 26//26 81//81 67//67
f 97//97 193//193 41//41
f 189//189 187//187 72//72
f 116//116 87//87 190//190
f 109//109 98//98 28//28
f 164//164 191//191 104//104
f 80//80 155//155 46//46
f 199//199 122//122 150//150
f 194//194 5//5 145//145
f 194//194 186//186 140//140
f 5//5 194//194 99//99
f 169//169 111//111 173//173
f 26//26 195//195 81//81
f 112//112 35//35 196//196
f 196//196 197//197 112//112
f 95//95 198//198 125//125
f 196//196 204//204 197//197
f 196//196 35//35 191//191
f 195//195 63//63 81//81
f 199//199 150//150 30//30
f 120//120 125//125 140//140
f 145//145 5//5 127//127
f 164//164 200//200 204//204
f 199//199 165//165 163//163
f 157//157 43//43 141//141
f 200//200 111//111 89//89
f 26//26 145//145 195//195
f 24//24 156//156 157//157
f 120//120 140//140 186//186
f 201//201 24//24 29//29
f 164//164 204//204 196//196
f 40//40 153//153 144//144
f 202//202 6//6 140//140
f 145//145 26//26 186//186
f 201//201 29//29 112//112
f 188//188 44//44 139//139
f 203//203 38//38 135//135
f 119//119 203//203 19//19
f 192//192 56//56 78//78
f 201//201 112//112 197//197
f 119//119 18//18 203//203
f 44//44 48//48 134//134
f 44//44 134//134 6//6
f 204//204 20//20 197//197
f 205//205 147//147 208//208
f 205//205 208//208 181//181
f 188//188 139//139 209//209
f 138//138 14//14 205//205
f 56//56 192//192 206//206
f 39//39 206//206 192//192
f 205//205 14//14 147//147
f 142//142 148//148 143//143
f 142//142 95//95 148//148
f 116//116 190//190 1//1
f 101//101 135//135 210//210
f 121//121 207//207 183//183
f 30//30 121//121 162//162
f 204//204 89//89 110//110
f 210//210 208//208 101//101
f 47//47 169//169 21//21
f 22//22 47//47 21//21
f 209//209 92//92 129//129
f 209//209 139//139 92//92
f 210//210 181//181 208//208
# 338 faces, 0 coords texture

# End of File
