####
#
# OBJ File Generated by Meshlab
#
####
# Object 497.obj
#
# Vertices: 53
# Faces: 80
#
####
vn -2.394897 0.039528 -2.032040
v 47.745500 -38.000000 31.276900
vn -4.288727 0.129250 -4.589290
v 41.929501 -48.573382 37.071391
vn -2.091886 0.049340 -2.331839
v 40.095600 -48.816200 38.718000
vn -4.661922 0.110650 -4.210328
v 46.257691 -42.401784 32.888040
vn -4.213308 0.134750 -4.657673
v 41.962873 -41.537998 37.229961
vn -4.690686 0.054714 -4.179950
v 47.110409 -44.876661 31.871812
vn -2.382098 0.038156 -2.051032
v 48.147150 -42.317150 30.718000
vn -1.200417 0.020211 -0.996159
v 48.209300 -38.000000 30.718000
vn -1.043791 0.015607 -1.158829
v 40.077900 -50.000000 38.718000
vn -2.399952 0.040844 -2.030984
v 48.179500 -39.769950 30.718000
vn -1.168805 0.030840 -1.067136
v 48.088600 -50.000000 30.718000
vn -2.056253 0.056456 -2.366256
v 40.283650 -40.422750 38.718000
vn -2.193657 0.067753 -2.248261
v 43.308400 -50.000000 35.707900
vn -2.336423 0.014113 -2.091593
v 48.130975 -46.325325 30.718000
vn -2.138684 0.069825 -2.297507
v 42.606450 -38.000050 36.742000
vn -2.062995 0.069171 -2.367551
v 41.231600 -38.000000 37.966000
vn -1.039536 0.033932 -1.206660
v 40.354700 -38.000000 38.718000
vn -2.245302 0.045673 -2.195352
v 44.379150 -38.000000 34.994800
vn -4.462573 0.114889 -4.421174
v 44.460972 -47.039801 34.649978
vn -4.306646 0.112607 -4.573331
v 42.554867 -45.497304 36.549319
vn -4.544295 0.108761 -4.336847
v 45.629900 -48.050442 33.426525
vn -4.223865 0.069271 -4.650964
v 41.336321 -45.600409 37.671621
vn -4.404334 0.140624 -4.476553
v 43.712918 -41.742552 35.579993
vn -4.446350 0.125079 -4.437442
v 44.316502 -48.490142 34.752567
vn -2.366974 0.016855 -2.075684
v 48.129700 -44.152200 30.718000
vn -2.243870 0.067588 -2.198217
v 44.858250 -50.000000 34.165850
vn -2.127908 0.047984 -2.310850
v 41.492000 -50.000000 37.444279
vn -4.729729 0.073387 -4.134663
v 46.949589 -39.453789 32.174785
vn -2.346524 0.028000 -2.088324
v 46.599950 -38.000000 32.588650
vn -4.632933 0.084382 -4.242470
v 47.178111 -48.285929 31.764770
vn -2.332786 0.032134 -2.093950
v 48.112300 -48.678700 30.718000
vn -2.291914 0.072746 -2.147821
v 46.393886 -50.000000 32.552299
vn -2.082499 0.057376 -2.349738
v 40.240450 -42.471050 38.718000
vn -2.089442 0.045494 -2.348312
v 40.138400 -47.195400 38.718000
vn -4.242818 0.094698 -4.631275
v 41.553418 -47.131608 37.465435
vn -4.525805 0.113001 -4.356652
v 45.198510 -45.848923 33.919752
vn -2.304839 0.037954 -2.133804
v 45.517700 -38.000000 33.787200
vn -4.622784 0.073114 -4.254175
v 45.684676 -39.042540 33.588296
vn -4.373375 0.120034 -4.509323
v 43.111704 -47.571196 35.969407
vn -4.544563 0.132791 -4.336020
v 45.056741 -42.198900 34.187030
vn -4.641990 0.093699 -4.232319
v 46.014262 -40.751915 33.200088
vn -4.519545 0.099106 -4.362686
v 44.673000 -40.180343 34.643109
vn -4.216530 0.133526 -4.656195
v 41.678332 -43.830554 37.395000
vn -4.465762 0.154185 -4.416903
v 44.283926 -43.924729 34.915803
vn -2.106923 0.044500 -2.334213
v 40.196028 -44.740616 38.717479
vn -4.748044 0.089544 -4.113587
v 47.200513 -41.305640 31.847653
vn -4.347222 0.114380 -4.533241
v 43.177334 -39.571045 36.154204
vn -4.318444 0.162863 -4.559746
v 42.955947 -43.520060 36.241998
vn -4.628886 0.070258 -4.247803
v 46.611103 -46.300163 32.405742
vn -4.159083 0.129895 -4.707321
v 41.440459 -39.267096 37.746989
vn -4.420969 0.128578 -4.462313
v 43.854522 -45.636652 35.293930
vn -4.593759 0.120247 -4.283598
v 45.820089 -44.376401 33.316377
vn -4.712990 0.094906 -4.154017
v 46.912329 -43.305765 32.123355
# 53 vertices, 0 vertices normals

f 7//7 25//25 53//53
f 8//8 10//10 1//1
f 51//51 44//44 36//36
f 42//42 41//41 40//40
f 22//22 35//35 34//34
f 5//5 23//23 48//48
f 26//26 24//24 21//21
f 25//25 6//6 53//53
f 49//49 6//6 14//14
f 24//24 26//26 13//13
f 27//27 9//9 3//3
f 28//28 29//29 1//1
f 11//11 30//30 31//31
f 30//30 11//11 32//32
f 14//14 31//31 30//30
f 30//30 49//49 14//14
f 32//32 26//26 21//21
f 13//13 27//27 2//2
f 10//10 7//7 46//46
f 52//52 40//40 4//4
f 47//47 23//23 5//5
f 15//15 50//50 16//16
f 33//33 12//12 5//5
f 15//15 18//18 47//47
f 18//18 42//42 47//47
f 3//3 34//34 35//35
f 34//34 45//45 22//22
f 23//23 47//47 42//42
f 49//49 21//21 36//36
f 18//18 37//37 38//38
f 37//37 29//29 38//38
f 46//46 4//4 41//41
f 52//52 53//53 6//6
f 13//13 39//39 24//24
f 28//28 46//46 41//41
f 40//40 52//52 44//44
f 19//19 51//51 36//36
f 49//49 52//52 6//6
f 42//42 40//40 23//23
f 40//40 41//41 4//4
f 38//38 41//41 42//42
f 3//3 2//2 27//27
f 19//19 24//24 39//39
f 48//48 23//23 44//44
f 23//23 40//40 44//44
f 33//33 43//43 45//45
f 46//46 28//28 10//10
f 30//30 32//32 21//21
f 46//46 53//53 4//4
f 53//53 46//46 7//7
f 17//17 16//16 50//50
f 43//43 22//22 45//45
f 42//42 18//18 38//38
f 28//28 41//41 38//38
f 28//28 38//38 29//29
f 10//10 28//28 1//1
f 21//21 49//49 30//30
f 13//13 2//2 39//39
f 19//19 39//39 51//51
f 48//48 20//20 43//43
f 2//2 3//3 35//35
f 20//20 39//39 35//35
f 35//35 22//22 20//20
f 39//39 2//2 35//35
f 21//21 24//24 19//19
f 17//17 50//50 12//12
f 12//12 50//50 5//5
f 21//21 19//19 36//36
f 36//36 44//44 52//52
f 51//51 39//39 20//20
f 43//43 20//20 22//22
f 50//50 47//47 5//5
f 47//47 50//50 15//15
f 33//33 5//5 43//43
f 48//48 44//44 51//51
f 48//48 51//51 20//20
f 48//48 43//43 5//5
f 6//6 25//25 14//14
f 52//52 49//49 36//36
f 4//4 53//53 52//52
# 80 faces, 0 coords texture

# End of File
