####
#
# OBJ File Generated by Meshlab
#
####
# Object 575S.obj
#
# Vertices: 119
# Faces: 195
#
####
vn 1.969776 0.399315 -5.949944
v -7.480105 36.037555 65.784323
vn -2.071806 -0.099450 -4.224388
v 14.111600 38.000000 63.160000
vn -2.106498 0.219832 -5.914016
v 9.834753 30.089657 64.857243
vn -1.902517 0.268946 -5.978102
v 8.817514 28.767160 65.156953
vn 0.137925 0.205249 -6.272612
v -0.423995 42.487150 67.401025
vn 0.205046 0.187069 -6.264192
v -0.478173 44.734094 67.492461
vn -0.124919 0.411126 -6.258810
v 0.691003 33.871363 66.947708
vn -0.199102 0.428727 -6.263333
v 0.901206 35.841650 67.039656
vn -2.648925 0.111170 -5.695100
v 13.533673 34.617096 63.497017
vn 2.131189 0.240782 -5.894434
v -7.785006 39.518005 65.875698
vn -2.299837 0.256622 -5.835918
v 10.979855 32.797602 64.566340
vn -2.535708 0.184698 -5.745667
v 12.643913 32.720262 63.835651
vn -2.526762 0.234923 -5.743369
v 12.973335 29.045203 63.594183
vn 0.815712 0.391751 -6.208303
v -2.666821 38.095707 67.039791
vn -2.698620 0.139975 -5.671341
v 14.583034 33.117595 62.970989
vn -2.288113 0.190327 -5.844964
v 10.333834 36.066859 64.940358
vn -2.444763 0.191295 -5.783576
v 11.545442 34.378684 64.376341
vn -1.784901 0.336280 -6.012040
v 7.300866 34.831361 65.924053
vn -0.875885 0.190400 -6.215379
v 3.001480 42.222773 67.176788
vn -0.677279 0.147805 -3.020663
v 5.062690 30.468900 66.211750
vn 0.399031 0.058823 -2.726179
v -2.661450 47.993300 67.343500
vn 0.619762 0.051066 -2.876847
v -4.684380 47.094550 66.930850
vn -0.732813 0.124948 -2.784258
v 6.326285 28.808400 65.846700
vn -1.030668 0.086755 -2.126387
v 15.100800 28.921800 62.561200
vn -0.777049 0.114316 -2.688589
v 7.736440 27.711100 65.424500
vn 1.048298 0.079765 -2.933676
v -8.512258 42.376594 65.689275
vn 0.028497 0.078831 -2.682119
v 0.190959 47.983200 67.604000
vn 0.040870 0.248303 -2.868543
v 0.519526 31.815950 66.778900
vn -0.666946 0.236333 -3.925019
v 3.718650 32.400100 66.607000
vn -0.486293 0.090373 -2.648018
v 4.431670 44.664600 66.992200
vn -0.238130 0.088752 -3.010385
v 1.557035 47.281000 67.490100
vn -0.804233 -0.018299 -1.922212
v 14.435700 38.000000 63.024400
vn -1.255482 0.057892 -2.544403
v 15.923650 33.430050 62.316600
vn -1.263931 0.024055 -2.632278
v 15.612800 35.384600 62.507900
vn -1.021783 0.111471 -2.517303
v 12.065150 27.086350 63.887050
vn -0.938943 0.115267 -2.633618
v 9.973903 26.984788 64.684416
vn 0.980710 0.118990 -2.645239
v -8.941950 36.738600 65.293500
vn -1.276359 -0.036758 -2.752005
v 15.076650 36.774500 62.767900
vn -1.218063 -0.023758 -2.651050
v 11.442155 40.496782 64.477826
vn -1.019232 0.028716 -2.493311
v 9.354650 41.010950 65.409250
vn 0.856722 0.033853 -2.618587
v -7.884810 44.169100 65.933800
vn -0.689144 -0.024739 -1.286027
v 14.095200 39.933200 63.131600
vn -1.661500 -0.031525 -3.303995
v 12.816800 39.769800 63.819800
vn -0.333367 0.113524 -2.865609
v 3.009830 46.295850 67.322050
vn -0.256884 0.244211 -3.714310
v 1.958150 32.576200 66.790900
vn 1.047823 0.094928 -2.598223
v -9.106780 40.450300 65.359500
vn 0.699516 0.213301 -2.739324
v -5.972224 32.318049 65.952209
vn -0.580985 0.075091 -3.148408
v 5.053195 42.439000 66.815600
vn -1.041132 0.125570 -4.248449
v 5.693730 40.578800 66.634000
vn 0.819669 0.055389 -2.802290
v -6.433385 45.835550 66.440600
vn -1.085326 0.083571 -3.169436
v 7.686179 40.601879 66.045696
vn 1.926425 0.304629 -5.964476
v -7.170793 37.749115 65.996317
vn 1.071451 0.497884 -6.162422
v -3.900139 32.601407 66.459955
vn -0.233894 0.364106 -6.258444
v 1.140861 37.569711 67.174756
vn 1.769214 0.445499 -6.010971
v -6.660619 34.508008 65.924307
vn 1.777998 0.122146 -6.018730
v -6.571724 42.813334 66.358831
vn 1.284346 0.268230 -6.139859
v -4.174158 39.600383 66.854282
vn 0.523708 0.225669 -2.759424
v -4.295830 31.553400 66.299150
vn 1.539070 0.196226 -6.087488
v -5.421224 41.189117 66.606954
vn -2.623019 0.075390 -5.705649
v 12.294080 36.177858 64.104801
vn 0.159805 0.351301 -6.268829
v -0.466106 38.661322 67.216992
vn -1.795759 0.271605 -6.012234
v 8.055280 30.581793 65.464702
vn 0.701922 0.158116 -6.231698
v -2.151024 41.702985 67.276502
vn 1.296953 0.153657 -6.142100
v -4.244966 42.967915 66.941823
vn 0.056410 0.283126 -6.265145
v -0.273299 40.526496 67.350752
vn 1.969413 0.188858 -5.956234
v -7.369823 41.042380 66.063513
vn -2.618960 0.184144 -5.706079
v 13.725236 30.928114 63.314214
vn -1.327000 0.093899 -2.718426
v 15.690721 31.467567 62.378976
vn 0.404346 0.440874 -6.242661
v -1.120609 35.001688 66.990662
vn 0.987109 0.428237 -6.186528
v -3.333629 35.924359 66.779570
vn 0.791261 0.476351 -6.212355
v -2.646784 33.712329 66.716999
vn 0.380438 0.535064 -6.246416
v -0.874606 33.129101 66.835756
vn -2.335091 0.223720 -5.827490
v 11.560329 30.875584 64.234540
vn -2.061247 0.293008 -5.927852
v 9.624869 31.835174 64.990578
vn 0.664619 0.331433 -6.225351
v -2.149131 39.839643 67.212759
vn -2.721328 -0.076289 -5.662171
v 13.986632 36.441497 63.281372
vn -2.046643 0.207558 -5.933835
v 8.055888 38.402151 65.846344
vn -1.796642 0.345790 -6.008378
v 7.731442 32.723713 65.670442
vn -2.550979 0.019680 -5.735191
v 11.255451 37.934306 64.601654
vn -2.089673 0.282139 -5.916208
v 9.445557 34.107348 65.186955
vn -1.303000 0.126736 -2.758284
v 13.889305 28.089128 63.117554
vn -0.442745 0.229445 -6.259422
v 1.457308 41.352982 67.309078
vn 1.544398 0.400637 -6.071199
v -5.768925 36.042107 66.295155
vn -0.374936 0.200131 -6.264329
v 1.150332 45.683623 67.475178
vn 1.381172 0.343768 -6.113800
v -4.917962 37.811450 66.606931
vn 0.306741 0.030793 -3.070535
v -1.502230 48.027250 67.469350
vn 1.137778 0.129705 -2.851344
v -9.075140 38.506213 65.290029
vn -1.484966 0.338770 -6.094881
v 6.078313 31.387536 66.028982
vn -1.255614 0.217434 -6.148334
v 4.873277 39.887976 66.798640
vn -0.435826 0.213545 -6.255968
v 1.390440 43.236251 67.394840
vn -0.404335 0.262200 -6.259259
v 1.551407 39.542708 67.236709
vn -0.618390 0.387196 -6.238709
v 2.707495 34.461286 66.830996
vn -2.230807 0.232241 -5.868632
v 10.910862 28.761947 64.403051
vn 0.348433 0.388362 -6.250273
v -1.052362 36.828274 67.115182
vn 0.834363 0.198272 -2.748994
v -7.277590 33.509100 65.665000
vn 1.318202 0.438419 -6.120290
v -4.755376 34.172537 66.408235
vn 0.260987 0.248782 -2.809960
v -1.723529 31.312978 66.622839
vn 0.946625 0.192320 -2.793353
v -8.254910 35.038782 65.446463
vn -2.021254 0.247453 -5.943095
v 8.522738 36.231119 65.592657
vn -2.220879 0.143230 -5.874991
v 9.507853 37.736802 65.290330
vn 1.181123 0.191660 -6.163622
v -3.613472 41.027191 67.021387
vn 1.214317 0.126177 -6.160805
v -3.850752 45.131624 67.069787
vn -0.921828 0.194576 -6.209146
v 3.127796 43.975114 67.208118
vn -1.305546 0.295133 -6.134035
v 5.014392 37.785412 66.679738
vn -0.907650 0.173928 -6.210766
v 3.454069 40.715618 67.070187
vn 0.381185 0.157101 -6.259829
v -0.776590 46.822597 67.531394
vn -1.473867 0.416157 -6.091697
v 5.821181 33.534206 66.235758
vn -1.693035 0.236699 -6.042145
v 6.419091 39.022195 66.386357
vn 0.789791 0.163665 -6.225159
v -2.281239 43.834152 67.303363
vn 1.650311 0.230968 -6.056589
v -6.185677 39.523123 66.350654
vn -2.809453 -0.073985 -5.619370
v 12.819640 37.872150 63.829860
vn 1.622519 0.119166 -6.064882
v -5.629159 44.810685 66.655579
vn -1.114815 0.402167 -6.166558
v 4.531009 34.812554 66.607258
vn -1.744567 0.289958 -6.026516
v 6.755778 36.873031 66.189752
vn -0.822217 0.260530 -6.217052
v 3.127454 38.630946 67.051081
vn 0.883312 0.133960 -6.214389
v -2.453797 46.067782 67.332347
vn -2.372171 0.050374 -5.815675
v 9.831417 39.388314 65.195666
vn -0.741010 0.399029 -6.215130
v 3.000010 36.514036 66.966266
vn -1.384067 0.341375 -6.112891
v 5.358205 35.968404 66.515241
# 119 vertices, 0 vertices normals

f 86//86 106//106 116//116
f 41//41 56//56 26//26
f 57//57 110//110 59//59
f 2//2 32//32 38//38
f 4//4 36//36 25//25
f 64//64 56//56 112//112
f 83//83 1//1 52//52
f 12//12 17//17 9//9
f 84//84 27//27 31//31
f 2//2 43//43 42//42
f 89//89 104//104 115//115
f 111//111 79//79 39//39
f 82//82 105//105 91//91
f 91//91 54//54 61//61
f 114//114 108//108 77//77
f 108//108 89//89 49//49
f 53//53 96//96 71//71
f 16//16 60//60 17//17
f 90//90 6//6 84//84
f 74//74 62//62 78//78
f 85//85 14//14 70//70
f 18//18 80//80 78//78
f 80//80 99//99 16//16
f 101//101 59//59 64//64
f 18//18 114//114 99//99
f 108//108 49//49 51//51
f 69//69 7//7 72//72
f 23//23 4//4 25//25
f 88//88 23//23 20//20
f 41//41 50//50 112//112
f 74//74 3//3 62//62
f 11//11 12//12 73//73
f 96//96 55//55 83//83
f 44//44 84//84 31//31
f 53//53 58//58 47//47
f 110//110 52//52 10//10
f 15//15 33//33 68//68
f 111//111 60//60 79//79
f 94//94 61//61 54//54
f 56//56 41//41 112//112
f 65//65 63//63 5//5
f 56//56 66//66 26//26
f 102//102 64//64 112//112
f 64//64 59//59 56//56
f 59//59 66//66 56//56
f 71//71 69//69 72//72
f 71//71 70//70 69//69
f 97//97 72//72 28//28
f 13//13 73//73 67//67
f 74//74 73//73 3//3
f 3//3 73//73 93//93
f 11//11 73//73 74//74
f 73//73 12//12 67//67
f 76//76 60//60 111//111
f 38//38 76//76 2//2
f 10//10 52//52 87//87
f 12//12 11//11 17//17
f 81//81 35//35 13//13
f 4//4 93//93 36//36
f 82//82 65//65 5//5
f 93//93 4//4 3//3
f 105//105 115//115 91//91
f 27//27 84//84 106//106
f 2//2 111//111 43//43
f 14//14 85//85 57//57
f 57//57 85//85 110//110
f 83//83 85//85 70//70
f 44//44 103//103 84//84
f 103//103 44//44 30//30
f 75//75 57//57 101//101
f 92//92 29//29 45//45
f 7//7 92//92 45//45
f 86//86 27//27 106//106
f 62//62 3//3 4//4
f 87//87 46//46 10//10
f 10//10 46//46 66//66
f 26//26 66//66 46//46
f 107//107 88//88 29//29
f 29//29 88//88 20//20
f 105//105 89//89 115//115
f 89//89 108//108 104//104
f 82//82 5//5 90//90
f 82//82 90//90 19//19
f 65//65 82//82 91//91
f 82//82 19//19 105//105
f 104//104 118//118 115//115
f 35//35 93//93 13//13
f 93//93 35//35 36//36
f 61//61 94//94 14//14
f 65//65 61//61 75//75
f 63//63 65//65 75//75
f 65//65 91//91 61//61
f 47//47 95//95 55//55
f 95//95 98//98 55//55
f 77//77 108//108 51//51
f 89//89 105//105 48//48
f 83//83 70//70 96//96
f 8//8 92//92 7//7
f 1//1 37//37 52//52
f 87//87 52//52 37//37
f 53//53 97//97 58//58
f 97//97 53//53 71//71
f 71//71 96//96 70//70
f 97//97 71//71 72//72
f 14//14 75//75 61//61
f 14//14 57//57 75//75
f 101//101 63//63 75//75
f 77//77 117//117 100//100
f 80//80 16//16 17//17
f 17//17 11//11 80//80
f 50//50 22//22 112//112
f 98//98 1//1 55//55
f 98//98 37//37 1//1
f 90//90 5//5 6//6
f 84//84 103//103 90//90
f 80//80 74//74 78//78
f 78//78 62//62 88//88
f 63//63 109//109 5//5
f 88//88 107//107 78//78
f 88//88 62//62 23//23
f 107//107 18//18 78//78
f 16//16 99//99 100//100
f 77//77 99//99 114//114
f 11//11 74//74 80//80
f 80//80 18//18 99//99
f 72//72 7//7 28//28
f 94//94 8//8 69//69
f 77//77 100//100 99//99
f 64//64 63//63 101//101
f 109//109 63//63 64//64
f 101//101 57//57 59//59
f 18//18 107//107 119//119
f 109//109 64//64 102//102
f 106//106 84//84 6//6
f 109//109 6//6 5//5
f 105//105 19//19 48//48
f 103//103 19//19 90//90
f 9//9 17//17 60//60
f 9//9 60//60 76//76
f 102//102 22//22 116//116
f 40//40 117//117 51//51
f 103//103 48//48 19//19
f 48//48 103//103 30//30
f 69//69 8//8 7//7
f 86//86 116//116 21//21
f 23//23 62//62 4//4
f 55//55 1//1 83//83
f 34//34 76//76 38//38
f 76//76 34//34 9//9
f 15//15 12//12 9//9
f 89//89 48//48 49//49
f 116//116 106//106 6//6
f 24//24 67//67 68//68
f 107//107 113//113 119//119
f 52//52 110//110 85//85
f 96//96 53//53 47//47
f 93//93 73//73 13//13
f 83//83 52//52 85//85
f 55//55 96//96 47//47
f 28//28 7//7 45//45
f 92//92 118//118 113//113
f 104//104 108//108 114//114
f 110//110 66//66 59//59
f 94//94 69//69 70//70
f 110//110 10//10 66//66
f 67//67 12//12 15//15
f 76//76 111//111 2//2
f 102//102 112//112 22//22
f 14//14 94//94 70//70
f 81//81 13//13 24//24
f 102//102 116//116 109//109
f 13//13 67//67 24//24
f 54//54 8//8 94//94
f 15//15 9//9 34//34
f 15//15 34//34 33//33
f 116//116 22//22 21//21
f 115//115 54//54 91//91
f 39//39 117//117 40//40
f 68//68 67//67 15//15
f 116//116 6//6 109//109
f 118//118 54//54 115//115
f 117//117 77//77 51//51
f 113//113 118//118 119//119
f 118//118 92//92 8//8
f 54//54 118//118 8//8
f 111//111 39//39 43//43
f 79//79 60//60 16//16
f 100//100 79//79 16//16
f 18//18 119//119 114//114
f 39//39 79//79 117//117
f 119//119 118//118 104//104
f 114//114 119//119 104//104
f 29//29 92//92 113//113
f 29//29 113//113 107//107
f 117//117 79//79 100//100
# 195 faces, 0 coords texture

# End of File
