####
#
# OBJ File Generated by Meshlab
#
####
# Object 578S.obj
#
# Vertices: 199
# Faces: 332
#
####
vn 4.406623 0.103668 -4.477630
v -41.682093 18.495372 39.522305
vn 4.414763 0.109174 -4.469492
v -40.177503 18.510291 41.009448
vn 4.330294 0.040124 -4.552485
v -41.517079 -2.074411 39.359324
vn 4.402436 0.082230 -4.482187
v -43.501977 20.563983 37.781213
vn 4.351614 0.028864 -4.532187
v -45.551394 19.071128 35.766942
vn 4.381039 0.042089 -4.503558
v -45.127606 20.736048 36.187617
vn 4.321344 0.037862 -4.560824
v -42.919944 3.149020 38.075631
vn 4.371896 -0.021847 -4.512671
v -40.562188 -10.736607 40.243844
vn 4.389078 0.137009 -4.493911
v -39.283826 15.064085 41.799697
vn 4.349136 -0.042709 -4.534479
v -37.639243 -8.569560 43.049889
vn 4.313592 0.079563 -4.567591
v -44.992392 13.434011 36.227023
vn 4.336402 -0.015317 -4.546817
v -43.350973 -16.997927 37.603299
vn 4.406466 0.103691 -4.477778
v -41.170968 16.764152 39.984578
vn 4.325045 0.034054 -4.557477
v -38.556809 -3.748670 42.179186
vn 4.345240 0.036858 -4.538265
v -41.137140 -4.140721 39.706828
vn 4.340559 0.037623 -4.542726
v -42.046248 7.034764 38.947020
vn 4.427542 0.120691 -4.456532
v -41.148872 22.198991 40.146015
vn 4.354822 -0.018322 -4.529013
v -42.961433 -19.168324 37.973152
vn 4.357501 -0.028059 -4.526515
v -42.050343 -17.521040 38.845989
vn 4.333927 0.053754 -4.548879
v -37.288685 -1.847579 43.395045
vn 4.442170 0.094798 -4.442522
v -42.799440 23.929746 38.548946
vn 4.364500 0.051429 -4.519588
v -40.275262 6.831394 40.647859
vn 4.343452 -0.026386 -4.540039
v -42.366155 -15.405458 38.530993
vn 4.345920 0.041815 -4.537573
v -41.112062 5.257768 39.827152
vn 4.362667 0.077899 -4.520994
v -38.594081 6.033868 42.262054
vn 4.332127 0.032961 -4.550616
v -36.902164 -3.772663 43.737737
vn 4.327020 0.049456 -4.555443
v -41.753970 -0.034928 39.151746
vn 4.424630 0.065500 -4.460538
v -43.922884 22.241002 37.393246
vn 4.363627 0.093512 -4.519765
v -42.490024 12.813474 38.620202
vn 4.303765 0.040345 -4.577570
v -43.028821 1.085338 37.961417
vn 4.386346 0.091657 -4.497712
v -39.274067 10.260629 41.667915
vn 4.391286 -0.052569 -4.493544
v -41.260310 -19.532157 39.631172
vn 4.338039 0.045875 -4.545073
v -39.255638 -0.026949 41.540801
vn 4.350782 0.068552 -4.532570
v -43.936830 16.754117 37.298778
vn 4.362679 0.016385 -4.521627
v -44.558558 -22.783365 36.445620
vn 4.351394 0.085908 -4.531653
v -43.498448 14.515749 37.675837
vn 4.312374 0.055783 -4.569312
v -43.209138 -1.302938 37.767823
vn 4.342722 0.035808 -4.540677
v -45.289092 17.301711 36.008129
vn 2.774876 -0.001373 -2.945077
v -42.845800 -11.032800 38.064300
vn 2.105172 0.033693 -2.202919
v -35.787900 -1.880500 44.827750
vn 1.956148 0.039708 -1.965913
v -44.458239 25.026908 36.901312
vn 2.042478 0.010735 -2.191060
v -44.452900 -7.111130 36.563400
vn 1.990575 -0.016766 -2.076194
v -36.908739 -9.265458 43.755888
vn 2.068846 0.007771 -2.146702
v -46.826279 21.796800 34.551623
vn 1.959688 0.015173 -2.025360
v -46.353224 -20.325408 34.715942
vn 2.473907 0.002621 -2.621763
v -43.469600 -12.592500 37.480600
vn 2.050443 0.041779 -2.121721
v -36.574300 3.797575 44.169750
vn 2.280691 -0.003025 -2.418116
v -43.001066 -10.532915 37.917698
vn 2.341842 -0.022314 -2.432369
v -38.152650 -10.606650 42.573700
vn 1.966174 -0.017597 -1.990631
v -39.306250 -24.026900 41.607950
vn 2.084875 0.068131 -2.122189
v -37.244554 17.793437 43.887877
vn 2.635857 0.030619 -2.789007
v -44.367800 9.639380 36.768700
vn 2.541767 0.028870 -2.712684
v -44.216900 7.471810 36.899500
vn 2.061602 0.062029 -2.068578
v -39.409700 23.330200 41.910500
vn 2.055519 0.001584 -2.203793
v -44.742000 -5.748345 36.297750
vn 1.824544 -0.029288 -1.879265
v -39.243400 -12.487500 41.547400
vn 1.977351 -0.029022 -2.021398
v -38.341400 -22.516350 42.539050
vn 2.061645 0.027849 -2.194692
v -45.612200 11.324400 35.620150
vn 2.038488 0.006572 -2.176594
v -43.993150 -8.479090 36.982200
vn 1.951011 -0.012414 -1.974402
v -40.680972 -25.085277 40.251445
vn 1.976248 0.047418 -1.981623
v -41.643200 25.211750 39.730450
vn 2.105826 0.034850 -2.240056
v -45.274652 0.172248 35.846948
vn 1.945023 0.009680 -2.035974
v -46.474200 -18.215900 34.628600
vn 2.156226 0.032220 -2.247101
v -36.016350 -0.261866 44.638800
vn 2.216853 0.035588 -2.304460
v -36.308650 1.586215 44.380650
vn 1.974033 -0.021139 -2.031218
v -37.789500 -16.521200 42.989050
vn 1.894112 0.019495 -1.937979
v -45.937800 23.710100 35.424300
vn 2.637360 0.045547 -2.715096
v -38.370400 9.181510 42.531000
vn 1.967983 0.028412 -2.103539
v -46.383400 12.675000 34.917800
vn 2.061079 0.069832 -2.078243
v -38.421100 21.759300 42.841000
vn 2.197813 -0.016224 -2.253635
v -38.479550 -14.654650 42.297350
vn 1.938888 -0.002799 -1.958353
v -42.373600 -25.409550 38.580050
vn 2.212715 0.037021 -2.348692
v -45.096400 -1.326790 35.983700
vn 2.003604 0.041728 -1.995075
v -42.983650 25.439300 38.394850
vn 1.969025 0.009995 -2.099100
v -45.390250 3.662205 35.761150
vn 2.084381 0.012039 -2.218544
v -45.405700 2.220900 35.743200
vn 1.981130 0.007365 -2.058495
v -44.954200 -23.802900 36.061200
vn 1.823922 0.060013 -1.879831
v -36.894900 14.399200 44.093800
vn 2.063049 0.060104 -2.082724
v -37.779750 20.171250 43.422650
vn 2.168088 0.063691 -2.232964
v -37.337000 12.958900 43.621800
vn 2.094136 0.056569 -2.099375
v -40.374679 24.326722 40.974460
vn 2.287825 0.056667 -2.348629
v -37.922298 11.205663 43.008289
vn 2.006274 0.021269 -2.145223
v -45.073000 5.209030 36.072700
vn 3.364308 -0.034215 -3.440065
v -39.271100 -12.502700 41.520700
vn 1.944189 0.005790 -2.044371
v -47.335800 20.212700 34.069700
vn 1.945215 0.005689 -1.989119
v -43.835200 -24.883000 37.129050
vn 1.904623 0.009518 -2.009064
v -47.473950 16.513550 33.930000
vn 4.384244 0.085518 -4.499888
v -43.031438 18.523083 38.200191
vn 4.418729 0.129485 -4.464954
v -39.220762 20.210076 41.994763
vn 4.361237 -0.023629 -4.522964
v -39.266695 -9.350574 41.491247
vn 4.408958 0.116141 -4.475033
v -39.725258 16.733913 41.412199
vn 4.286661 0.014773 -4.593762
v -43.661459 -6.735147 37.303013
vn 4.422665 0.105206 -4.461761
v -42.538704 22.296048 38.769207
vn 4.410529 0.108427 -4.473651
v -42.112850 20.429553 39.142447
vn 4.335803 0.055375 -4.547026
v -39.419014 1.650219 41.398294
vn 4.329244 -0.012731 -4.553621
v -41.856416 -9.811100 38.997854
vn 4.337370 0.038671 -4.545776
v -38.816502 -1.567369 41.944169
vn 4.354331 -0.002074 -4.529685
v -44.032180 -20.846915 36.956382
vn 4.336847 0.053836 -4.546107
v -41.769497 2.016854 39.163581
vn 4.337993 0.054928 -4.545009
v -40.580001 0.959449 40.288419
vn 4.333462 -0.017930 -4.549583
v -38.480879 -7.329451 42.232182
vn 4.398072 0.043949 -4.486940
v -45.127556 22.432438 36.204318
vn 4.388103 -0.025106 -4.496922
v -39.896460 -14.566017 40.916622
vn 4.384044 -0.053460 -4.500618
v -38.633181 -17.756086 42.181973
vn 4.426052 0.137582 -4.457511
v -39.796763 22.034229 41.485881
vn 4.334556 0.039052 -4.548439
v -42.750912 5.054134 38.257607
vn 4.358084 -0.023635 -4.525739
v -37.004898 -6.861205 43.635548
vn 2.014424 -0.007444 -2.076112
v -35.784687 -6.286540 44.822965
vn 1.963818 -0.017570 -2.032700
v -36.190600 -7.945270 44.433500
vn 4.417988 0.121160 -4.465978
v -40.663746 20.338338 40.573532
vn 4.363410 0.007418 -4.520783
v -39.978685 -7.547837 40.807426
vn 4.358497 0.106742 -4.524427
v -41.474329 11.000619 39.555197
vn 4.338962 0.076214 -4.543641
v -42.988918 10.410153 38.084743
vn 4.414644 0.116919 -4.469409
v -38.690543 18.308157 42.473002
vn 4.372783 -0.029381 -4.511733
v -41.003572 -16.087537 39.845165
vn 4.387228 0.000833 -4.497756
v -43.276045 -22.857139 37.684113
vn 4.346617 0.064501 -4.536608
v -38.109800 1.665623 42.651380
vn 4.378074 0.112745 -4.505321
v -41.096832 13.184935 39.975773
vn 4.413676 -0.029232 -4.471763
v -40.934051 -23.382379 39.988346
vn 4.301074 0.000323 -4.580265
v -42.756416 -8.185491 38.142969
vn 4.381410 0.134584 -4.501476
v -39.702346 13.472460 41.344099
vn 1.998036 -0.034428 -2.066579
v -37.741450 -20.661350 43.085850
vn 4.329059 0.075504 -4.553177
v -44.965945 15.378534 36.297298
vn 4.336157 -0.000424 -4.547097
v -44.282214 -18.416753 36.716278
vn 4.328646 0.014808 -4.554005
v -37.791973 -5.577361 42.881438
vn 4.360941 0.032053 -4.523188
v -40.724604 -5.971664 40.086250
vn 4.368388 -0.013405 -4.515982
v -40.622714 -8.999769 40.173667
vn 4.346328 0.005726 -4.536794
v -41.391984 -7.737599 39.425543
vn 4.344362 0.046869 -4.538966
v -41.801168 3.848357 39.158917
vn 4.412412 -0.043613 -4.472887
v -39.941038 -22.577416 40.968238
vn 4.309502 0.047196 -4.571996
v -43.592421 6.319039 37.468031
vn 4.365718 -0.030159 -4.518553
v -41.256267 -14.030131 39.587735
vn 4.322962 0.041323 -4.559435
v -46.242551 15.981134 35.092274
vn 2.119571 0.027059 -2.248503
v -46.859459 14.203771 34.489204
vn 4.435518 0.072175 -4.449334
v -44.174162 23.907543 37.161368
vn 1.963306 -0.025799 -2.028432
v -37.523050 -18.725650 43.267900
vn 4.343631 0.069328 -4.539431
v -38.954125 3.123616 41.866922
vn 4.379798 -0.068172 -4.504550
v -38.540355 -19.950616 42.301602
vn 4.399883 -0.063257 -4.485015
v -39.790815 -20.886215 41.093748
vn 4.349977 0.062690 -4.533436
v -39.516570 4.720997 41.351029
vn 4.388362 0.151185 -4.494081
v -38.297497 16.215081 42.801391
vn 4.377081 0.066010 -4.507187
v -39.187934 8.160172 41.723327
vn 4.337874 0.057114 -4.545094
v -40.448645 3.087519 40.440792
vn 4.372363 0.053556 -4.511937
v -44.358914 18.806747 36.916178
vn 2.041192 0.040105 -2.111874
v -37.031450 5.516735 43.761550
vn 4.395354 -0.041874 -4.489696
v -39.585618 -16.322021 41.232067
vn 2.033041 -0.000465 -2.138964
v -44.708563 -13.779975 36.299816
vn 4.348099 0.026685 -4.535552
v -39.940193 -4.497821 40.855201
vn 4.333740 0.020174 -4.549312
v -39.299509 -5.811034 41.458639
vn 4.400602 0.111805 -4.483360
v -40.532797 15.066742 40.574810
vn 4.324748 0.046304 -4.557701
v -42.591163 -3.648337 38.324065
vn 4.318279 0.031522 -4.563719
v -42.257768 -5.929128 38.614494
vn 2.329959 0.039700 -2.415859
v -37.970701 7.625191 42.888101
vn 4.431494 0.111885 -4.452828
v -41.678426 23.697471 39.656779
vn 4.412791 -0.016921 -4.472699
v -42.230085 -24.058249 38.720208
vn 4.307079 0.072512 -4.574056
v -45.883496 14.428095 35.410154
vn 4.334221 0.014782 -4.548917
v -46.487726 17.973900 34.867798
vn 4.295650 0.022247 -4.585310
v -44.201116 2.439808 36.875036
vn 4.374121 0.073065 -4.509768
v -40.440092 9.196738 40.510080
vn 4.404013 -0.027958 -4.481328
v -42.101941 -22.612582 38.836323
vn 4.384304 -0.029341 -4.500551
v -42.522943 -21.117198 38.413361
vn 4.306321 0.032452 -4.575068
v -44.046189 -3.458743 36.946021
vn 2.085157 0.008669 -2.228069
v -44.982318 -3.591867 36.069419
vn 2.167829 0.084106 -2.239557
v -36.998200 15.563000 44.032300
vn 4.378081 0.126864 -4.504955
v -38.752894 12.210520 42.226069
vn 4.383475 0.090634 -4.500531
v -41.908491 14.863615 39.219703
vn 4.333651 0.074252 -4.548751
v -44.011240 12.035912 37.137506
vn 4.406471 -0.042271 -4.478775
v -41.138605 -21.637896 39.777910
vn 4.351462 0.020435 -4.532382
v -45.327387 -19.460561 35.714699
vn 4.333203 -0.007242 -4.549869
v -45.436635 -17.256463 35.617864
vn 4.302062 0.031618 -4.579216
v -44.040364 4.268723 37.030228
vn 1.980384 -0.006855 -2.075860
v -45.497300 -14.895400 35.548200
vn 4.376915 0.090628 -4.506882
v -42.562293 16.568793 38.617182
vn 4.379267 -0.047548 -4.505324
v -39.504101 -11.453916 41.278183
vn 4.367061 0.015602 -4.517375
v -45.238959 -21.278656 35.794745
vn 1.988936 0.008068 -2.052621
v -45.696300 -22.519050 35.345500
vn 4.360086 -0.009276 -4.524129
v -36.563002 -5.301582 44.065995
vn 2.059327 0.006346 -2.149796
v -35.644650 -3.968025 44.939400
vn 4.342935 0.016457 -4.540586
v -46.532623 19.891455 34.832608
vn 2.120978 0.007318 -2.223795
v -47.425754 18.861456 33.974591
vn 2.000190 -0.008570 -2.094826
v -46.156605 -16.548701 34.927523
vn 4.330862 -0.017946 -4.552109
v -44.527423 -16.076203 36.476921
vn 4.347484 0.057656 -4.535689
v -41.601961 8.701873 39.382804
vn 4.322801 -0.014474 -4.559726
v -42.531691 -13.191329 38.363225
vn 4.295606 0.015691 -4.585349
v -43.485575 -5.092340 37.468270
vn 4.344470 0.053680 -4.538818
v -37.623256 0.093289 43.097751
vn 4.300841 0.054857 -4.580110
v -44.377321 0.522874 36.695963
vn 4.343150 0.027808 -4.540318
v -39.996412 -2.820917 40.805314
vn 4.327917 -0.012585 -4.554870
v -43.527542 -14.745739 37.419441
vn 4.372164 0.146105 -4.510103
v -38.100173 14.126651 42.915672
vn 4.346793 -0.015426 -4.536471
v -41.603291 -11.950357 39.235027
vn 4.391233 -0.030246 -4.493825
v -40.380256 -12.674710 40.432162
vn 4.373926 0.120115 -4.509109
v -40.205252 11.410649 40.789040
vn 4.341062 0.047846 -4.542163
v -40.464664 -0.888973 40.375179
vn 4.356662 0.079829 -4.526701
v -38.303366 4.424243 42.509205
vn 4.319093 0.043869 -4.563085
v -43.182355 8.221019 37.877990
vn 4.400323 -0.064644 -4.484557
v -39.683919 -18.458941 41.163870
vn 4.393770 -0.050853 -4.490956
v -40.417710 -17.481208 40.424263
vn 4.358197 0.080999 -4.525251
v -37.421207 3.020008 43.336526
# 199 vertices, 0 vertices normals

f 158//158 30//30 187//187
f 94//94 88//88 4//4
f 94//94 93//93 17//17
f 97//97 186//186 20//20
f 107//107 109//109 10//10
f 96//96 8//8 191//191
f 2//2 1//1 110//110
f 106//106 131//131 16//16
f 149//149 101//101 111//111
f 152//152 126//126 128//128
f 102//102 67//67 135//135
f 91//91 114//114 141//141
f 25//25 145//145 195//195
f 24//24 22//22 140//140
f 7//7 129//129 99//99
f 104//104 66//66 136//136
f 15//15 148//148 126//126
f 38//38 144//144 34//34
f 30//30 158//158 7//7
f 188//188 14//14 148//148
f 123//123 156//156 133//133
f 121//121 118//118 150//150
f 121//121 190//190 165//165
f 31//31 165//165 82//82
f 125//125 177//177 107//107
f 32//32 161//161 18//18
f 120//120 128//128 96//96
f 170//170 169//169 63//63
f 197//197 32//32 198//198
f 13//13 91//91 150//150
f 104//104 146//146 71//71
f 131//131 171//171 83//83
f 110//110 105//105 89//89
f 34//34 88//88 173//173
f 35//35 77//77 176//176
f 192//192 174//174 84//84
f 123//123 11//11 156//156
f 35//35 175//175 98//98
f 28//28 135//135 21//21
f 151//151 152//152 185//185
f 144//144 5//5 6//6
f 27//27 100//100 194//194
f 21//21 154//154 93//93
f 157//157 180//180 179//179
f 48//48 96//96 39//39
f 111//111 90//90 127//127
f 39//39 184//184 46//46
f 2//2 13//13 1//1
f 110//110 94//94 17//17
f 117//117 65//65 186//186
f 187//187 37//37 73//73
f 96//96 191//191 39//39
f 94//94 1//1 88//88
f 10//10 101//101 107//107
f 94//94 4//4 93//93
f 19//19 12//12 23//23
f 52//52 167//167 113//113
f 167//167 52//52 58//58
f 153//153 25//25 142//142
f 105//105 54//54 70//70
f 162//162 55//55 163//163
f 4//4 6//6 28//28
f 12//12 19//19 18//18
f 107//107 108//108 109//109
f 10//10 109//109 43//43
f 90//90 49//49 174//174
f 56//56 174//174 49//49
f 127//127 90//90 8//8
f 96//96 127//127 8//8
f 89//89 2//2 110//110
f 110//110 1//1 94//94
f 16//16 22//22 24//24
f 187//187 30//30 37//37
f 114//114 2//2 89//89
f 192//192 191//191 8//8
f 130//130 57//57 50//50
f 116//116 35//35 98//98
f 199//199 117//117 137//137
f 137//137 117//117 95//95
f 27//27 99//99 100//100
f 120//120 48//48 59//59
f 48//48 120//120 96//96
f 9//9 141//141 190//190
f 118//118 121//121 193//193
f 11//11 167//167 58//58
f 150//150 118//118 166//166
f 76//76 187//187 62//62
f 122//122 57//57 138//138
f 11//11 123//123 36//36
f 36//36 123//123 34//34
f 120//120 59//59 92//92
f 42//42 92//92 59//59
f 124//124 12//12 18//18
f 124//124 98//98 169//169
f 49//49 10//10 43//43
f 49//49 90//90 10//10
f 90//90 111//111 101//101
f 90//90 101//101 10//10
f 60//60 155//155 119//119
f 155//155 60//60 72//72
f 154//154 61//61 81//81
f 101//101 125//125 107//107
f 149//149 125//125 101//101
f 111//111 126//126 149//149
f 111//111 127//127 128//128
f 111//111 128//128 126//126
f 186//186 65//65 64//64
f 28//28 102//102 135//135
f 84//84 71//71 103//103
f 40//40 26//26 20//20
f 26//26 40//40 178//178
f 191//191 184//184 39//39
f 129//129 7//7 106//106
f 129//129 106//106 24//24
f 131//131 196//196 16//16
f 184//184 132//132 23//23
f 132//132 115//115 23//23
f 38//38 133//133 157//157
f 134//134 87//87 133//133
f 135//135 41//41 74//74
f 102//102 44//44 67//67
f 135//135 67//67 41//41
f 136//136 138//138 104//104
f 136//136 122//122 138//138
f 159//159 142//142 22//22
f 160//160 116//116 161//161
f 6//6 44//44 102//102
f 9//9 91//91 141//141
f 91//91 2//2 114//114
f 164//164 141//141 51//51
f 142//142 68//68 153//153
f 129//129 24//24 143//143
f 24//24 140//140 143//143
f 140//140 137//137 143//143
f 88//88 144//144 4//4
f 11//11 58//58 69//69
f 199//199 195//195 47//47
f 72//72 86//86 155//155
f 116//116 155//155 86//86
f 12//12 189//189 23//23
f 115//115 19//19 23//23
f 147//147 189//189 182//182
f 147//147 46//46 189//189
f 140//140 22//22 25//25
f 99//99 129//129 143//143
f 143//143 137//137 95//95
f 14//14 26//26 125//125
f 50//50 119//119 130//130
f 119//119 50//50 60//60
f 149//149 148//148 14//14
f 3//3 151//151 37//37
f 126//126 152//152 15//15
f 15//15 152//152 151//151
f 187//187 73//73 62//62
f 37//37 162//162 73//73
f 126//126 148//148 149//149
f 30//30 99//99 27//27
f 3//3 15//15 151//151
f 93//93 4//4 28//28
f 153//153 145//145 25//25
f 74//74 61//61 21//21
f 154//154 21//21 61//61
f 160//160 119//119 155//155
f 169//169 175//175 45//45
f 38//38 5//5 144//144
f 34//34 144//144 88//88
f 99//99 30//30 7//7
f 171//171 158//158 75//75
f 29//29 118//118 112//112
f 112//112 118//118 193//193
f 119//119 160//160 168//168
f 161//161 168//168 160//160
f 12//12 124//124 182//182
f 15//15 188//188 148//148
f 57//57 130//130 139//139
f 34//34 123//123 38//38
f 38//38 123//123 133//133
f 133//133 156//156 134//134
f 163//163 73//73 162//162
f 161//161 98//98 18//18
f 141//141 164//164 190//190
f 114//114 79//79 51//51
f 9//9 121//121 150//150
f 193//193 121//121 165//165
f 121//121 9//9 190//190
f 80//80 190//190 78//78
f 190//190 80//80 165//165
f 82//82 165//165 80//80
f 125//125 26//26 177//177
f 107//107 177//177 108//108
f 19//19 32//32 18//18
f 32//32 168//168 161//161
f 120//120 152//152 128//128
f 96//96 128//128 127//127
f 81//81 17//17 154//154
f 105//105 81//81 54//54
f 81//81 105//105 17//17
f 31//31 142//142 159//159
f 31//31 159//159 193//193
f 139//139 168//168 32//32
f 197//197 138//138 139//139
f 138//138 57//57 139//139
f 32//32 197//197 139//139
f 31//31 193//193 165//165
f 20//20 26//26 14//14
f 150//150 91//91 9//9
f 11//11 69//69 156//156
f 134//134 156//156 69//69
f 89//89 70//70 79//79
f 70//70 89//89 105//105
f 103//103 71//71 146//146
f 53//53 131//131 83//83
f 171//171 131//131 106//106
f 158//158 76//76 75//75
f 83//83 171//171 75//75
f 97//97 188//188 194//194
f 172//172 147//147 182//182
f 125//125 149//149 14//14
f 105//105 110//110 17//17
f 36//36 34//34 173//173
f 173//173 88//88 1//1
f 192//192 8//8 174//174
f 103//103 132//132 192//192
f 20//20 186//186 64//64
f 20//20 64//64 40//40
f 176//176 175//175 35//35
f 175//175 176//176 45//45
f 98//98 175//175 169//169
f 8//8 90//90 174//174
f 84//84 174//174 56//56
f 139//139 130//130 168//168
f 168//168 130//130 119//119
f 36//36 29//29 167//167
f 166//166 36//36 173//173
f 166//166 173//173 13//13
f 31//31 82//82 68//68
f 116//116 98//98 161//161
f 178//178 177//177 26//26
f 178//178 108//108 177//177
f 103//103 115//115 132//132
f 4//4 144//144 6//6
f 44//44 6//6 179//179
f 6//6 5//5 179//179
f 179//179 85//85 44//44
f 155//155 116//116 160//160
f 35//35 116//116 86//86
f 86//86 77//77 35//35
f 13//13 2//2 91//91
f 104//104 138//138 197//197
f 142//142 25//25 22//22
f 68//68 142//142 31//31
f 93//93 154//154 17//17
f 150//150 166//166 13//13
f 37//37 30//30 27//27
f 133//133 87//87 157//157
f 170//170 124//124 169//169
f 63//63 169//169 45//45
f 5//5 157//157 179//179
f 179//179 180//180 85//85
f 162//162 37//37 151//151
f 38//38 157//157 5//5
f 36//36 167//167 11//11
f 185//185 162//162 151//151
f 170//170 63//63 181//181
f 181//181 172//172 170//170
f 124//124 170//170 182//182
f 152//152 120//120 92//92
f 79//79 114//114 89//89
f 141//141 114//114 51//51
f 52//52 113//113 196//196
f 55//55 92//92 42//42
f 172//172 182//182 170//170
f 21//21 135//135 74//74
f 113//113 112//112 183//183
f 185//185 92//92 55//55
f 162//162 185//185 55//55
f 100//100 99//99 143//143
f 189//189 46//46 184//184
f 159//159 183//183 112//112
f 184//184 23//23 189//189
f 93//93 28//28 21//21
f 185//185 152//152 92//92
f 180//180 157//157 87//87
f 7//7 158//158 171//171
f 171//171 106//106 7//7
f 3//3 37//37 27//27
f 106//106 16//16 24//24
f 158//158 187//187 76//76
f 115//115 198//198 19//19
f 18//18 98//98 124//124
f 188//188 15//15 3//3
f 3//3 194//194 188//188
f 1//1 13//13 173//173
f 182//182 189//189 12//12
f 95//95 33//33 100//100
f 190//190 164//164 78//78
f 198//198 32//32 19//19
f 191//191 132//132 184//184
f 191//191 192//192 132//132
f 103//103 192//192 84//84
f 29//29 112//112 113//113
f 97//97 20//20 14//14
f 167//167 29//29 113//113
f 188//188 97//97 14//14
f 193//193 159//159 112//112
f 199//199 137//137 195//195
f 16//16 196//196 183//183
f 29//29 36//36 166//166
f 186//186 97//97 33//33
f 118//118 29//29 166//166
f 194//194 100//100 33//33
f 28//28 6//6 102//102
f 143//143 95//95 100//100
f 3//3 27//27 194//194
f 194//194 33//33 97//97
f 186//186 33//33 117//117
f 183//183 159//159 22//22
f 16//16 183//183 22//22
f 117//117 33//33 95//95
f 104//104 71//71 66//66
f 196//196 113//113 183//183
f 195//195 145//145 47//47
f 146//146 197//197 198//198
f 197//197 146//146 104//104
f 117//117 199//199 65//65
f 196//196 131//131 53//53
f 52//52 196//196 53//53
f 198//198 115//115 146//146
f 146//146 115//115 103//103
f 25//25 195//195 140//140
f 195//195 137//137 140//140
f 199//199 47//47 65//65
# 332 faces, 0 coords texture

# End of File
