####
#
# OBJ File Generated by Meshlab
#
####
# Object 592.obj
#
# Vertices: 42
# Faces: 60
#
####
vn -1.539369 0.072903 -2.737525
v 20.432025 -38.000000 60.265225
vn -0.778615 0.023029 -1.363968
v 21.369100 -38.000000 59.730300
vn -1.417405 0.075949 -2.799425
v 14.245600 -45.205000 63.392000
vn -1.509847 0.024578 -2.755233
v 21.355364 -39.873675 59.706506
vn -0.730866 0.024071 -1.390761
v 14.380100 -38.000000 63.625000
vn -1.502069 0.109168 -2.757495
v 14.348700 -40.893150 63.570600
vn -1.477471 0.143124 -2.768949
v 14.291050 -43.431650 63.470800
vn -1.438726 0.025445 -2.792486
v 14.832000 -50.000000 63.061400
vn -2.955421 0.062729 -5.543698
v 18.717807 -46.509230 61.044378
vn -1.434942 0.026961 -2.794503
v 21.339125 -48.505300 59.678450
vn -1.477430 -0.009446 -2.772498
v 19.836330 -50.000000 60.454084
vn -0.727052 0.010610 -1.392887
v 21.330400 -50.000000 59.663400
vn -1.458100 -0.010906 -2.781431
v 21.371500 -42.054550 59.734400
vn -2.935841 0.013829 -5.554929
v 17.330718 -48.021504 61.791639
vn -1.442570 0.047889 -2.790125
v 21.362200 -44.388850 59.718350
vn -0.730565 0.005855 -1.390264
v 14.235600 -50.000000 63.374800
vn -1.556559 0.090601 -2.727317
v 18.281200 -38.000000 61.485100
vn -3.104259 0.176703 -5.459849
v 17.921144 -39.201056 61.653175
vn -3.076743 0.135273 -5.475942
v 19.402230 -39.524987 60.791908
vn -1.433012 0.018602 -2.795994
v 14.237450 -49.056800 63.377800
vn -2.994744 0.225081 -5.518882
v 15.947674 -41.947733 62.651539
vn -2.873021 0.061110 -5.587060
v 15.660912 -45.872090 62.678127
vn -1.405855 0.018105 -2.808739
v 14.237300 -46.959700 63.377600
vn -1.437881 0.018995 -2.793182
v 16.514750 -50.000000 62.205350
vn -2.927130 -0.002550 -5.559505
v 19.938244 -49.119777 60.396776
vn -2.905052 0.080408 -5.570223
v 19.971399 -43.541825 60.460360
vn -1.468816 -0.002276 -2.776967
v 18.011300 -50.000000 61.432300
vn -2.877938 0.103400 -5.583927
v 19.999786 -45.477554 60.391655
vn -2.930593 0.099533 -5.555060
v 16.896795 -44.873649 62.022584
vn -1.420483 0.033058 -2.802049
v 21.351000 -46.201600 59.699000
vn -1.484961 0.078200 -2.767678
v 14.371500 -39.122000 63.610100
vn -3.048123 0.146333 -5.492232
v 17.868082 -41.012811 61.629173
vn -1.513069 0.098316 -2.750081
v 16.267497 -38.000237 62.633140
vn -3.029105 0.204827 -5.500915
v 16.189442 -39.913004 62.597090
vn -2.921016 0.124301 -5.561421
v 18.542893 -44.379522 61.181161
vn -2.969676 0.180469 -5.533971
v 17.407402 -43.094878 61.823644
vn -2.936060 0.212544 -5.550671
v 15.707070 -43.946127 62.692629
vn -2.986143 0.027288 -5.527544
v 19.758688 -41.383801 60.572075
vn -2.943183 0.033448 -5.550899
v 17.402413 -46.289186 61.761471
vn -2.912173 0.020127 -5.566827
v 19.534991 -47.705405 60.605304
vn -2.971368 0.096213 -5.535059
v 18.684046 -42.739169 61.139445
vn -2.866125 0.036067 -5.591097
v 15.775353 -47.970090 62.602340
# 42 vertices, 0 vertices normals

f 4//4 1//1 2//2
f 1//1 4//4 19//19
f 40//40 10//10 25//25
f 11//11 25//25 12//12
f 13//13 26//26 38//38
f 30//30 40//40 28//28
f 20//20 8//8 16//16
f 34//34 33//33 18//18
f 38//38 41//41 32//32
f 17//17 1//1 19//19
f 20//20 23//23 42//42
f 7//7 6//6 21//21
f 23//23 3//3 22//22
f 25//25 10//10 12//12
f 4//4 13//13 38//38
f 25//25 11//11 27//27
f 40//40 27//27 14//14
f 27//27 24//24 14//14
f 15//15 28//28 26//26
f 15//15 30//30 28//28
f 30//30 10//10 40//40
f 28//28 40//40 9//9
f 31//31 33//33 34//34
f 31//31 34//34 6//6
f 19//19 38//38 32//32
f 34//34 18//18 32//32
f 18//18 19//19 32//32
f 18//18 33//33 17//17
f 26//26 13//13 15//15
f 36//36 35//35 29//29
f 21//21 6//6 34//34
f 26//26 28//28 35//35
f 28//28 9//9 35//35
f 37//37 7//7 21//21
f 37//37 29//29 22//22
f 7//7 37//37 3//3
f 36//36 21//21 32//32
f 37//37 21//21 36//36
f 32//32 21//21 34//34
f 29//29 37//37 36//36
f 37//37 22//22 3//3
f 5//5 33//33 31//31
f 9//9 39//39 35//35
f 29//29 39//39 22//22
f 14//14 39//39 9//9
f 17//17 19//19 18//18
f 8//8 20//20 42//42
f 38//38 19//19 4//4
f 14//14 24//24 42//42
f 35//35 36//36 41//41
f 39//39 29//29 35//35
f 9//9 40//40 14//14
f 41//41 36//36 32//32
f 40//40 25//25 27//27
f 26//26 41//41 38//38
f 8//8 42//42 24//24
f 35//35 41//41 26//26
f 42//42 22//22 39//39
f 39//39 14//14 42//42
f 42//42 23//23 22//22
# 60 faces, 0 coords texture

# End of File
