####
#
# OBJ File Generated by Meshlab
#
####
# Object 593.obj
#
# Vertices: 43
# Faces: 63
#
####
vn -1.291068 -0.087285 -2.864294
v 14.504700 40.477900 63.840900
vn -2.601456 -0.096288 -5.718512
v 20.547232 43.950438 61.008558
vn -1.270264 -0.025209 -2.873262
v 15.624150 50.000000 63.158700
vn -2.540986 -0.107197 -5.745269
v 17.754809 45.183359 62.228962
vn -1.281034 0.004356 -2.869927
v 14.429850 46.334650 63.711250
vn -0.666713 -0.019006 -1.421081
v 21.810400 38.000000 60.494800
vn -1.253631 -0.025600 -2.880455
v 14.419900 48.813700 63.693900
vn -0.664195 -0.025067 -1.424766
v 21.739900 50.000000 60.372600
vn -1.299402 -0.011490 -2.860257
v 18.201500 50.000000 62.000100
vn -0.643012 -0.033363 -1.435080
v 14.530000 38.000000 63.884700
vn -0.628318 -0.011252 -1.438714
v 14.415600 50.000000 63.686500
vn -1.261250 -0.066631 -2.869217
v 14.424650 44.236200 63.702200
vn -2.584535 -0.017135 -5.726708
v 16.627502 46.692123 62.714164
vn -2.577746 -0.218497 -5.725758
v 15.815631 41.464015 63.214904
vn -1.306333 -0.036736 -2.856712
v 21.764300 46.804750 60.415000
vn -2.577985 -0.075468 -5.729430
v 20.671137 46.177602 60.919983
vn -2.556195 -0.093832 -5.738911
v 19.328372 45.727105 61.525589
vn -2.573592 0.001708 -5.731874
v 15.357024 46.000447 63.292693
vn -1.331003 -0.028590 -2.846137
v 21.800700 39.657700 60.477950
vn -1.304527 -0.029723 -2.857830
v 20.189909 50.000000 61.095172
vn -2.593104 -0.071194 -5.722376
v 20.777142 47.949074 60.854362
vn -1.323957 -0.046645 -2.848479
v 21.750500 48.673300 60.391000
vn -1.289286 -0.023577 -2.864773
v 17.114300 50.000000 62.491500
vn -1.297008 -0.067188 -2.860214
v 15.887100 38.000000 63.278200
vn -2.559385 -0.018207 -5.737786
v 15.532113 47.789388 63.219952
vn -2.627085 -0.115647 -5.706218
v 18.818940 41.293858 61.854499
vn -2.575814 -0.032148 -5.730679
v 18.102249 47.441649 62.048859
vn -2.562747 -0.048944 -5.736460
v 19.533767 47.942937 61.403501
vn -1.288451 -0.131567 -2.863516
v 14.474800 42.154400 63.789100
vn -2.538531 -0.232710 -5.742483
v 15.606053 43.161864 63.228766
vn -2.637721 -0.075439 -5.702108
v 20.448964 41.673059 61.094274
vn -2.555249 -0.182300 -5.737135
v 17.220243 42.862466 62.527861
vn -2.577643 -0.128617 -5.728505
v 19.055146 43.441361 61.699810
vn -2.667901 -0.067756 -5.688224
v 20.204030 39.669848 61.226110
vn -1.299159 -0.040653 -2.860032
v 21.779050 44.535650 60.440550
vn -2.593599 -0.017011 -5.722712
v 16.951369 48.680086 62.575690
vn -1.314234 -0.033109 -2.852540
v 21.795050 42.006300 60.468400
vn -1.340867 -0.043616 -2.840823
v 19.854575 38.000000 61.413412
vn -1.333943 -0.064833 -2.843219
v 17.835600 38.000000 62.378350
vn -2.528760 -0.098764 -5.750759
v 16.104575 44.742736 62.967263
vn -2.611789 -0.158872 -5.712055
v 17.176844 40.820961 62.622608
vn -2.665818 -0.106664 -5.688584
v 18.248940 39.472299 62.149816
vn -2.603692 -0.139874 -5.716458
v 16.114931 39.411210 63.141736
# 43 vertices, 0 vertices normals

f 3//3 23//23 36//36
f 29//29 12//12 30//30
f 16//16 2//2 17//17
f 4//4 17//17 33//33
f 32//32 30//30 40//40
f 17//17 27//27 28//28
f 28//28 20//20 21//21
f 41//41 42//42 43//43
f 13//13 4//4 40//40
f 15//15 35//35 16//16
f 5//5 7//7 25//25
f 38//38 34//34 6//6
f 34//34 19//19 6//6
f 20//20 8//8 22//22
f 20//20 22//22 21//21
f 22//22 15//15 21//21
f 23//23 9//9 36//36
f 28//28 27//27 9//9
f 24//24 10//10 43//43
f 25//25 7//7 3//3
f 11//11 3//3 7//7
f 28//28 9//9 20//20
f 32//32 41//41 14//14
f 12//12 5//5 18//18
f 16//16 28//28 21//21
f 30//30 14//14 29//29
f 16//16 35//35 2//2
f 37//37 31//31 2//2
f 32//32 33//33 26//26
f 32//32 26//26 41//41
f 14//14 43//43 1//1
f 33//33 17//17 2//2
f 28//28 16//16 17//17
f 19//19 34//34 31//31
f 31//31 34//34 26//26
f 42//42 26//26 34//34
f 34//34 38//38 42//42
f 2//2 35//35 37//37
f 32//32 14//14 30//30
f 29//29 14//14 1//1
f 33//33 32//32 4//4
f 2//2 31//31 33//33
f 31//31 26//26 33//33
f 31//31 37//37 19//19
f 38//38 39//39 42//42
f 17//17 4//4 27//27
f 13//13 36//36 27//27
f 13//13 27//27 4//4
f 36//36 13//13 25//25
f 41//41 26//26 42//42
f 27//27 36//36 9//9
f 4//4 32//32 40//40
f 18//18 40//40 12//12
f 25//25 3//3 36//36
f 21//21 15//15 16//16
f 25//25 13//13 18//18
f 40//40 18//18 13//13
f 30//30 12//12 40//40
f 5//5 25//25 18//18
f 43//43 39//39 24//24
f 14//14 41//41 43//43
f 42//42 39//39 43//43
f 43//43 10//10 1//1
# 63 faces, 0 coords texture

# End of File
