####
#
# OBJ File Generated by Meshlab
#
####
# Object 644.obj
#
# Vertices: 40
# Faces: 58
#
####
vn 0.701702 -0.042756 -1.402956
v -15.156500 50.000000 64.969700
vn 1.404569 -0.068143 -2.809219
v -16.566240 50.000000 64.264605
vn 2.908239 0.046149 -5.569267
v -20.227905 40.444554 62.552540
vn 1.437851 -0.005544 -2.793228
v -22.360900 41.387450 61.448250
vn 1.433956 0.043695 -2.794619
v -19.613050 38.000000 62.831400
vn 2.827279 -0.157609 -5.608743
v -16.613427 48.189601 64.282878
vn 0.724071 0.003116 -1.394192
v -15.239000 38.000000 65.112800
vn 1.413220 -0.051938 -2.806323
v -22.321400 47.723900 61.379900
vn 0.707297 -0.004531 -1.402418
v -22.363800 38.000000 61.453200
vn 0.697671 -0.015552 -1.407786
v -22.313000 50.000000 61.365200
vn 1.419292 -0.036929 -2.801456
v -22.357750 44.037250 61.442700
vn 2.834982 -0.111827 -5.606103
v -20.893073 46.991716 62.119415
vn 2.904542 -0.005159 -5.569688
v -18.983870 41.782473 63.227811
vn 2.913502 -0.146376 -5.564854
v -19.330362 43.888861 62.996699
vn 1.410170 -0.090130 -2.805933
v -15.193000 47.241150 65.032900
vn 2.854291 -0.140153 -5.594816
v -16.598345 46.172845 64.366588
vn 2.893991 -0.122062 -5.575512
v -18.013529 47.215472 63.601278
vn 2.815618 -0.094375 -5.613470
v -17.699102 43.032836 63.879547
vn 1.439452 0.051310 -2.791694
v -17.525400 38.000000 63.905950
vn 2.865621 0.093325 -5.590482
v -18.266971 39.677696 63.566450
vn 1.413423 -0.063610 -2.804499
v -22.338350 46.261850 61.409050
vn 1.414304 -0.077617 -2.804113
v -15.168150 49.142700 64.990000
vn 2.850103 0.023917 -5.599387
v -16.390186 39.861837 64.519095
vn 1.411764 0.002696 -2.806504
v -21.246500 38.000000 62.016700
vn 1.424762 -0.001936 -2.799929
v -22.362200 39.147400 61.450300
vn 2.829568 -0.103982 -5.608811
v -17.912216 48.855719 63.622342
vn 2.895673 -0.139702 -5.574198
v -17.934304 45.062863 63.692099
vn 1.418075 -0.012553 -2.803163
v -15.233750 39.966250 65.103650
vn 2.898468 -0.056051 -5.574255
v -20.780689 42.794588 62.255534
vn 1.441899 -0.036682 -2.790994
v -18.931950 50.000000 63.089750
vn 2.888037 -0.082528 -5.579446
v -19.511250 48.325088 62.803127
vn 2.817134 -0.083443 -5.615118
v -16.495841 43.766679 64.441894
vn 1.428386 -0.035759 -2.798983
v -15.225800 44.689000 65.089750
vn 1.410080 -0.017845 -2.807313
v -15.230500 42.302150 65.098050
vn 2.840090 -0.122147 -5.603274
v -20.862535 45.004608 62.178657
vn 2.883933 -0.125779 -5.579804
v -19.403007 46.084408 62.884814
vn 2.830951 -0.094573 -5.608319
v -21.066731 48.660046 61.997629
vn 1.430478 -0.046709 -2.795742
v -20.444350 50.000000 62.285450
vn 2.856114 0.024969 -5.596410
v -21.246899 39.417297 62.019697
vn 2.790729 -0.007602 -5.629134
v -16.850536 41.939003 64.295985
# 40 vertices, 0 vertices normals

f 1//1 22//22 2//2
f 4//4 11//11 29//29
f 3//3 5//5 39//39
f 30//30 26//26 31//31
f 36//36 27//27 14//14
f 11//11 21//21 35//35
f 34//34 28//28 23//23
f 38//38 31//31 37//37
f 15//15 33//33 16//16
f 19//19 5//5 20//20
f 21//21 8//8 12//12
f 6//6 2//2 22//22
f 22//22 15//15 6//6
f 7//7 19//19 23//23
f 12//12 8//8 37//37
f 10//10 37//37 8//8
f 39//39 5//5 24//24
f 10//10 38//38 37//37
f 28//28 7//7 23//23
f 26//26 2//2 6//6
f 26//26 6//6 17//17
f 30//30 2//2 26//26
f 31//31 26//26 17//17
f 23//23 19//19 20//20
f 13//13 14//14 18//18
f 14//14 27//27 18//18
f 16//16 27//27 17//17
f 17//17 27//27 36//36
f 31//31 17//17 36//36
f 33//33 32//32 16//16
f 33//33 34//34 32//32
f 11//11 35//35 29//29
f 32//32 34//34 40//40
f 5//5 3//3 20//20
f 20//20 13//13 40//40
f 3//3 13//13 20//20
f 18//18 27//27 32//32
f 40//40 23//23 20//20
f 21//21 12//12 35//35
f 13//13 29//29 14//14
f 29//29 35//35 14//14
f 12//12 36//36 35//35
f 35//35 36//36 14//14
f 13//13 3//3 29//29
f 6//6 15//15 16//16
f 16//16 17//17 6//6
f 12//12 31//31 36//36
f 12//12 37//37 31//31
f 38//38 30//30 31//31
f 32//32 27//27 16//16
f 25//25 24//24 9//9
f 39//39 24//24 25//25
f 39//39 25//25 4//4
f 3//3 39//39 4//4
f 3//3 4//4 29//29
f 40//40 34//34 23//23
f 40//40 13//13 18//18
f 32//32 40//40 18//18
# 58 faces, 0 coords texture

# End of File
