####
#
# OBJ File Generated by Meshlab
#
####
# Object 667S.obj
#
# Vertices: 220
# Faces: 357
#
####
vn 4.564180 0.032413 -4.318017
v -37.791073 42.948081 47.772886
vn 4.474435 0.054647 -4.410619
v -34.474730 44.821935 51.244336
vn 4.632275 0.031285 -4.244788
v -42.387493 39.495566 42.772546
vn 2.323170 0.091070 -2.092664
v -53.112549 52.863950 30.669126
vn 3.439273 0.192433 -3.212782
v -52.893500 50.000000 30.718000
vn 2.381288 0.061111 -1.991272
v -51.408750 52.983950 32.683100
vn 2.412273 0.035175 -2.012380
v -50.207900 50.000000 34.074200
vn 4.197592 -0.262988 -4.662188
v -53.741603 38.147477 29.801621
vn 4.304993 0.166983 -4.573358
v -29.847807 36.322610 55.552576
vn 2.326523 -0.000737 -2.101183
v -46.141289 44.113950 38.718012
vn 2.343505 -0.014126 -2.093294
v -46.124450 46.301650 38.718000
vn 3.496651 -0.021795 -3.170728
v -46.079500 38.000000 38.718000
vn 4.632114 0.036867 -4.245010
v -42.888667 43.230365 42.260196
vn 2.350850 -0.005575 -2.092068
v -46.115900 47.593800 38.718000
vn 4.267391 -0.006858 -4.611354
v -54.981995 43.787301 28.623352
vn 4.629075 0.032850 -4.248375
v -42.163117 37.544003 43.007430
vn 4.413301 0.085156 -4.471266
v -33.197689 44.626632 52.520638
vn 3.338741 -0.336374 -3.252642
v -52.742500 38.000000 30.718000
vn 4.272762 0.088189 -4.605534
v -27.471089 42.171306 57.958208
vn 4.496889 0.068247 -4.387414
v -35.330132 43.246111 50.354756
vn 2.326092 0.036238 -2.117574
v -46.105100 40.128100 38.718000
vn 4.598372 0.050036 -4.281405
v -42.135895 34.629690 43.006731
vn 4.633020 0.032624 -4.243993
v -43.306579 41.371525 41.784709
vn 4.174263 -0.065843 -4.694042
v -55.201795 41.440903 28.427896
vn 4.739773 -0.677957 -4.060779
v -52.494982 36.647168 31.256993
vn 4.610417 0.050973 -4.268348
v -39.826213 40.984315 45.589729
vn 4.297516 0.146857 -4.581133
v -28.342373 39.141147 57.058110
vn 4.376956 0.080198 -4.507122
v -31.383901 46.275411 54.314952
vn 2.307669 0.024801 -2.115488
v -46.136150 41.823700 38.718000
vn 4.328512 0.120351 -4.552770
v -29.806401 39.953346 55.690582
vn 4.779043 -0.478810 -4.049106
v -51.596867 35.914953 32.476217
vn 4.631342 0.044394 -4.245823
v -41.055920 40.407389 44.242957
vn 4.619487 -0.014956 -4.258858
v -45.053175 35.123463 39.866841
vn 4.579966 0.083862 -4.300533
v -39.842583 37.262991 45.515751
vn 4.260895 0.209302 -4.612840
v -28.576484 35.336018 56.695362
vn 4.573375 0.073182 -4.307806
v -38.839752 39.510447 46.619766
vn 4.813702 -0.334961 -4.023681
v -50.473637 36.496710 33.726823
vn 4.505754 0.077651 -4.378321
v -36.213955 39.939809 49.383478
vn 4.500226 0.197991 -4.377170
v -53.781613 51.077291 29.874865
vn 2.388413 0.026303 -2.060760
v -48.720700 52.410900 35.847200
vn 1.716359 0.017306 -1.469883
v -49.040400 53.000000 35.482100
vn 2.368901 0.062891 -2.263929
v -38.715268 33.884728 46.623910
vn 1.945901 0.075940 -2.030099
v -31.727900 31.884700 53.599850
vn 1.933320 0.012914 -2.313439
v -57.661600 45.753000 26.301600
vn 1.784243 0.027898 -1.929024
v -27.586000 45.794000 57.897300
vn 1.127204 0.001641 -1.003831
v -46.117300 48.555600 38.718000
vn 1.822947 -0.121037 -2.119809
v -56.304643 37.526808 27.622430
vn 1.933642 0.028420 -2.105310
v -26.519900 43.617250 58.850500
vn 1.556252 0.036914 -1.702176
v -56.182700 52.609000 27.615900
vn 2.186087 0.049452 -2.068845
v -40.152750 33.379400 45.100500
vn 2.087266 -0.055531 -2.450406
v -56.921543 41.780918 26.941940
vn 2.846925 -0.068098 -2.536650
v -48.413200 35.139600 36.184500
vn 2.270958 -0.024432 -2.098227
v -46.387800 34.341300 38.436500
vn 2.816764 0.023610 -2.742650
v -34.856300 46.972600 50.869100
vn 1.941438 -0.011855 -2.327662
v -57.400250 43.917050 26.513900
vn 1.991613 -0.147166 -1.788406
v -50.915000 33.047300 33.495900
vn 1.888937 0.027392 -1.881206
v -33.689700 47.708700 52.085100
vn 2.343623 -0.115206 -2.057475
v -49.815100 33.936500 34.665000
vn 2.215849 -0.204896 -2.007598
v -52.350250 32.952000 31.937700
vn 1.957030 0.048153 -2.141414
v -26.021150 41.492900 59.273200
vn 2.001708 0.074829 -2.191726
v -25.911750 39.595700 59.317250
vn 1.736714 -0.004249 -2.070572
v -57.776500 48.415500 26.211650
vn 2.257906 0.014844 -2.051745
v -42.390350 49.202800 42.859700
vn 2.665236 0.090427 -2.564764
v -37.413600 34.075150 47.975700
vn 0.717502 0.010286 -0.640742
v -47.462300 50.000000 37.233100
vn 1.829338 -0.261533 -1.882742
v -54.647400 33.922100 29.479300
vn 2.131825 0.030105 -1.996973
v -41.516750 33.169050 43.652600
vn 2.058819 -0.224388 -1.959741
v -53.237300 33.084200 30.938800
vn 2.592587 0.002915 -2.329889
v -45.085150 48.461700 39.876850
vn 2.057177 -0.085018 -2.381493
v -56.589700 39.602700 27.283000
vn 1.809261 0.075308 -1.973572
v -26.023900 37.910300 59.153200
vn 1.936555 0.034958 -2.022412
v -30.189198 47.414037 55.496793
vn 2.052415 0.099701 -2.188268
v -30.420100 32.436050 54.844300
vn 2.181596 0.019200 -1.977378
v -43.804600 49.020200 41.301650
vn 2.056572 0.081778 -2.093153
v -33.229700 31.952750 52.131550
vn 2.228915 0.011087 -2.046879
v -40.832700 49.193300 44.566400
vn 2.186770 0.000077 -2.029519
v -44.393400 33.538500 40.586400
vn 2.273591 0.008706 -2.144899
v -37.224000 48.218400 48.403600
vn 2.089393 0.037103 -2.240264
v -28.609100 46.507700 56.963700
vn 2.236958 -0.013462 -2.080264
v -45.245500 33.814600 39.668500
vn 2.059252 0.018797 -2.424870
v -57.330000 49.845500 26.579400
vn 4.439850 0.075667 -4.445098
v -34.029891 42.902073 51.663308
vn 2.333702 0.019584 -2.186185
v -42.988740 33.417488 42.085511
vn 2.443042 0.112899 -1.972100
v -51.973900 50.000000 31.875600
vn 4.850183 0.118998 -3.992138
v -51.184353 51.345493 32.911624
vn 4.786354 0.231503 -4.062596
v -52.448760 51.436032 31.380201
vn 2.447995 0.074162 -1.967666
v -50.937600 50.000000 33.167900
vn 2.365224 0.030029 -2.067528
v -48.501000 50.000000 36.069964
vn 2.395975 0.035877 -2.018214
v -50.200750 53.000000 34.123700
vn 4.521406 0.033525 -4.362604
v -35.820514 45.427544 49.871844
vn 4.565067 0.097014 -4.316065
v -39.830004 35.248207 45.487833
vn 2.336865 -0.045844 -2.099392
v -47.169700 38.000000 37.519750
vn 4.543536 0.093338 -4.338486
v -37.374372 38.810488 48.164392
vn 2.156648 0.022926 -2.273975
v -52.756700 42.938350 30.718000
vn 4.093617 0.015402 -4.766261
v -56.378951 47.101416 27.387025
vn 4.627561 0.022421 -4.250069
v -40.731575 42.448242 44.618185
vn 2.181326 0.029346 -2.263614
v -52.851500 47.698150 30.716850
vn 4.546246 0.052775 -4.336335
v -36.475039 43.733743 49.176703
vn 4.606289 0.030392 -4.273045
v -42.790302 36.200214 42.315452
vn 4.616105 0.019657 -4.262549
v -43.360579 37.860509 41.714470
vn 4.358475 0.116001 -4.524180
v -31.349042 40.514918 54.233964
vn 4.613980 0.027367 -4.264741
v -40.173470 44.386718 45.225525
vn 4.404623 0.063971 -4.480236
v -53.967512 48.984829 29.643327
vn 4.412349 0.095403 -4.471844
v -33.405778 41.263887 52.255215
vn 2.152443 -0.019927 -2.292805
v -52.744000 39.237250 30.718000
vn 4.642074 0.035273 -4.234001
v -42.647021 46.489444 42.544856
vn 2.165975 0.047804 -2.273855
v -52.802700 45.452350 30.714600
vn 4.340123 0.056787 -4.542776
v -53.892236 44.588409 29.656704
vn 4.295533 0.028084 -4.585308
v -53.897236 42.335060 29.634776
vn 4.501628 0.130745 -4.381114
v -36.321849 35.069076 49.149459
vn 2.122615 0.064597 -2.094359
v -35.765300 32.916700 49.657250
vn 2.190366 0.081588 -2.253448
v -54.898400 52.710900 28.819750
vn 1.839131 0.031814 -2.122185
v -56.925050 51.367400 26.946200
vn 4.647025 0.043749 -4.228615
v -45.237525 39.876104 39.666692
vn 4.626670 0.042123 -4.250758
v -41.139281 38.417150 44.139526
vn 2.156551 0.011355 -2.271805
v -52.738250 40.948550 30.718000
vn 4.651762 0.007236 -4.223637
v -44.640388 38.179569 40.317867
vn 2.229311 0.008565 -2.139188
v -35.917362 47.574961 49.785329
vn 4.464377 0.066463 -4.420423
v -33.840891 46.098610 51.905906
vn 4.631179 0.052891 -4.245826
v -41.133092 45.876595 44.208137
vn 4.388822 0.139418 -4.493925
v -32.363003 36.994854 53.161225
vn 4.346218 0.146932 -4.534753
v -30.909325 37.195065 54.576273
vn 4.390124 0.119566 -4.493339
v -32.600530 39.144694 52.987620
vn 4.584196 0.021566 -4.296839
v -38.650092 44.648710 46.866631
vn 4.370543 0.095552 -4.512797
v -31.489132 42.345193 54.148665
vn 4.342016 0.093726 -4.540455
v -30.244273 43.663785 55.369750
vn 4.398035 0.077811 -4.486592
v -32.770540 42.892538 52.901570
vn 4.641549 0.039235 -4.234575
v -41.985156 41.688886 43.246470
vn 4.117032 0.013825 -4.743900
v -56.182648 45.042476 27.527350
vn 4.384325 0.063931 -4.498942
v -53.965332 46.777751 29.641610
vn 4.599013 0.021030 -4.280918
v -43.596587 34.862239 41.448849
vn 4.607651 0.063847 -4.271103
v -41.244911 36.224510 43.997698
vn 2.371309 -0.082286 -2.059715
v -48.359000 38.000000 36.166900
vn 4.517101 0.124433 -4.365449
v -36.851018 36.999384 48.658643
vn 4.294827 0.036013 -4.582855
v -55.029589 45.939592 28.568332
vn 2.029214 -0.245253 -2.224402
v -55.353748 35.304838 28.612039
vn 4.629618 0.017505 -4.247800
v -43.878913 39.708894 41.161956
vn 4.647754 -0.024754 -4.227975
v -45.291295 36.793766 39.602260
vn 4.651830 0.008168 -4.223283
v -45.136007 44.667668 39.832975
vn 4.598730 0.011509 -4.280988
v -39.353641 42.927028 46.118589
vn 4.396550 0.073993 -4.487949
v -32.708396 46.258907 53.031846
vn 4.144354 -0.361892 -4.707048
v -54.859419 37.172855 28.891676
vn 4.477931 0.091796 -4.406286
v -34.941567 41.068060 50.712400
vn 4.426452 0.135091 -4.457170
v -33.819294 35.696844 51.681894
vn 4.442255 0.131038 -4.441447
v -34.917910 34.376357 50.550511
vn 2.168461 0.076262 -2.189055
v -34.618550 32.423200 50.783150
vn 4.429312 0.134645 -4.454324
v -33.829422 37.759396 51.734590
vn 4.389795 0.150043 -4.492648
v -32.693460 34.921774 52.770496
vn 4.116208 0.032191 -4.745118
v -56.371684 49.040325 27.383979
vn 4.352486 0.109997 -4.530016
v -31.123244 38.761861 54.410722
vn 4.632318 0.036621 -4.244737
v -45.345471 42.993278 39.590499
vn 4.623277 0.051671 -4.254531
v -44.220995 43.101364 40.810679
vn 4.626179 0.042221 -4.251438
v -44.680664 41.464188 40.291152
vn 2.194628 0.037164 -2.256224
v -31.881700 47.548500 53.856200
vn 4.184515 0.093415 -4.684878
v -56.107159 50.913706 27.648201
vn 4.257189 0.177019 -4.617669
v -27.041873 38.318601 58.235559
vn 2.484067 -0.041460 -2.246904
v -47.465550 34.931050 37.255100
vn 4.548951 0.055687 -4.333619
v -37.618299 40.766830 47.939395
vn 2.276939 0.014899 -2.128061
v -39.688500 48.991150 45.802150
vn 4.312922 0.128378 -4.567201
v -29.709150 38.205244 55.743296
vn 4.333661 0.119278 -4.547819
v -30.015350 41.675137 55.544402
vn 4.430211 0.123402 -4.453637
v -33.843293 39.756012 51.782323
vn 2.279796 0.025993 -2.022968
v -47.995450 51.128750 36.654200
vn 4.584486 0.084160 -4.295731
v -40.934415 34.549766 44.298691
vn 4.274371 0.064329 -4.604719
v -27.857041 43.771468 57.621099
vn 4.295631 0.078113 -4.584655
v -28.867693 44.652066 56.692530
vn 4.570586 0.040178 -4.311186
v -38.749495 47.565590 46.788095
vn 4.560012 0.101919 -4.321348
v -38.375894 37.549405 47.073005
vn 2.434136 -0.233805 -1.973916
v -51.217900 38.000000 32.680200
vn 4.461808 0.120326 -4.422147
v -35.008289 38.837752 50.587007
vn 4.536495 0.128194 -4.345280
v -37.704227 35.639934 47.730101
vn 4.578552 0.050312 -4.302465
v -38.775537 41.477450 46.723431
vn 4.489805 0.113619 -4.393695
v -36.147068 38.258510 49.419671
vn 2.051193 0.115126 -2.224195
v -29.237208 33.199951 55.978817
vn 2.082630 0.096656 -2.258804
v -26.842035 36.132902 58.331284
vn 4.640545 0.004688 -4.235889
v -43.945537 46.925635 41.126471
vn 4.649506 0.045675 -4.225918
v -43.266330 47.954274 41.882734
vn 4.119252 -0.176303 -4.740256
v -54.958860 39.078993 28.701705
vn 4.460178 0.128153 -4.423619
v -35.264972 36.690053 50.264361
vn 4.276460 0.174320 -4.599938
v -28.370184 37.213631 56.962273
vn 1.870398 0.105418 -2.035406
v -27.701600 34.506350 57.456350
vn 2.161434 0.018822 -2.044973
v -38.214600 48.679000 47.363700
vn 4.684079 -0.428236 -4.165461
v -51.902272 34.218861 32.302851
vn 2.424107 -0.142964 -1.994342
v -49.827700 38.000000 34.408400
vn 4.529280 0.069014 -4.354188
v -36.399310 41.945803 49.219620
vn 4.344616 -0.602539 -4.493175
v -53.902334 36.117957 29.866657
vn 4.384723 0.164425 -4.497168
v -32.467035 33.368916 52.936292
vn 4.263322 0.139412 -4.612944
v -27.132164 40.303222 58.227411
vn 4.122414 -0.050074 -4.739361
v -56.112102 43.202893 27.598350
vn 4.662510 -0.017625 -4.211572
v -45.015326 46.481157 39.960558
vn 4.094559 -0.154751 -4.763177
v -56.000252 39.867546 27.782721
vn 4.256854 -0.041611 -4.619047
v -53.826556 40.179019 29.680458
vn 4.412710 0.156940 -4.470061
v -33.653236 33.719355 51.782455
vn 4.312119 0.122883 -4.568202
v -28.517735 41.038769 56.946312
vn 4.351087 0.161989 -4.529909
v -31.315010 35.403534 54.114989
vn 4.591245 0.052502 -4.288981
v -39.509946 46.083503 45.964821
vn 4.790729 0.056701 -4.064787
v -49.694497 51.595438 34.701783
vn 4.569842 0.023105 -4.311895
v -36.882718 46.492837 48.766361
vn 4.288976 0.030509 -4.587009
v -55.160472 48.029356 28.454367
vn 4.755625 -0.202040 -4.099140
v -49.308538 36.195332 35.154448
vn 4.624625 0.007196 -4.253156
v -44.154319 36.520670 40.854426
vn 4.310647 0.093753 -4.570241
v -28.840509 42.780651 56.684256
vn 4.631044 0.031945 -4.246179
v -42.401392 44.893840 42.803281
vn 4.553593 0.104027 -4.328082
v -38.794791 35.955289 46.593075
vn 4.585461 -0.586879 -4.250531
v -52.932107 34.978419 31.032204
vn 4.607951 0.042452 -4.270998
v -40.249061 47.544970 45.190981
vn 4.624654 0.016977 -4.253035
v -43.707837 45.139637 41.396510
vn 4.297396 0.200010 -4.578790
v -30.015700 34.424100 55.323658
vn 4.634140 0.024151 -4.242922
v -41.590331 43.714945 43.684378
vn 4.577689 0.030796 -4.303713
v -38.065161 46.282479 47.499117
vn 4.341997 0.085694 -4.540288
v -30.214654 45.491269 55.440438
vn 4.379439 0.083503 -4.504650
v -31.781611 44.570564 53.899162
vn 4.646701 0.042446 -4.228926
v -41.792874 47.753972 43.508095
vn 4.633211 -0.062449 -4.243495
v -46.355688 36.111366 38.448110
vn 4.320492 0.103633 -4.558414
v -55.053297 50.237148 28.595790
vn 4.574599 0.028684 -4.307021
v -37.197704 44.966039 48.417065
vn 4.740357 -0.304201 -4.112090
v -50.503780 34.997389 33.807336
vn 4.340632 0.165262 -4.539680
v -31.517820 33.802964 53.867565
vn 4.689091 -0.098637 -4.180632
v -47.662605 36.485421 37.003776
vn 4.589153 0.065136 -4.290840
v -39.714049 38.891962 45.685660
# 220 vertices, 0 vertices normals

f 193//193 187//187 75//75
f 105//105 8//8 192//192
f 14//14 46//46 69//69
f 112//112 155//155 49//49
f 127//127 82//82 17//17
f 100//100 201//201 117//117
f 171//171 110//110 64//64
f 23//23 128//128 3//3
f 15//15 109//109 24//24
f 199//199 130//130 135//135
f 12//12 117//117 138//138
f 203//203 207//207 106//106
f 137//137 3//3 100//100
f 145//145 179//179 144//144
f 122//122 121//121 150//150
f 114//114 153//153 137//137
f 29//29 151//151 153//153
f 19//19 60//60 188//188
f 109//109 192//192 24//24
f 119//119 141//141 17//17
f 150//150 30//30 160//160
f 205//205 68//68 66//66
f 200//200 52//52 58//58
f 34//34 132//132 115//115
f 169//169 37//37 31//31
f 33//33 138//138 201//201
f 140//140 172//172 26//26
f 168//168 34//34 220//220
f 180//180 160//160 27//27
f 180//180 156//156 175//175
f 1//1 185//185 158//158
f 26//26 32//32 96//96
f 167//167 182//182 78//78
f 104//104 101//101 123//123
f 200//200 37//37 184//184
f 37//37 200//200 217//217
f 101//101 161//161 30//30
f 31//31 217//217 183//183
f 173//173 170//170 179//179
f 121//121 148//148 144//144
f 38//38 185//185 143//143
f 131//131 83//83 77//77
f 84//84 5//5 86//86
f 84//84 85//85 87//87
f 89//89 41//41 197//197
f 40//40 197//197 41//41
f 92//92 12//12 214//214
f 92//92 214//214 219//219
f 187//187 43//43 75//75
f 94//94 116//116 109//109
f 97//97 107//107 130//130
f 97//97 130//130 103//103
f 103//103 199//199 215//215
f 99//99 100//100 16//16
f 5//5 97//97 103//103
f 105//105 18//18 8//8
f 107//107 94//94 108//108
f 207//207 203//203 13//13
f 110//110 111//111 64//64
f 112//112 4//4 39//39
f 155//155 113//113 49//49
f 50//50 91//91 42//42
f 12//12 21//21 114//114
f 115//115 3//3 32//32
f 116//116 105//105 192//192
f 17//17 82//82 2//2
f 18//18 169//169 25//25
f 62//62 95//95 44//44
f 32//32 26//26 220//220
f 2//2 90//90 54//54
f 119//119 2//2 54//54
f 115//115 16//16 3//3
f 93//93 36//36 158//158
f 9//9 195//195 122//122
f 195//195 121//121 122//122
f 212//212 28//28 211//211
f 211//211 28//28 72//72
f 202//202 161//161 126//126
f 126//126 125//125 212//212
f 106//106 213//213 120//120
f 23//23 13//13 128//128
f 3//3 128//128 32//32
f 107//107 108//108 130//130
f 131//131 22//22 83//83
f 90//90 98//98 216//216
f 133//133 92//92 219//219
f 189//189 51//51 55//55
f 191//191 51//51 24//24
f 129//129 135//135 15//15
f 24//24 51//51 189//189
f 189//189 15//15 24//24
f 95//95 149//149 199//199
f 199//199 103//103 130//130
f 136//136 47//47 142//142
f 142//142 47//47 178//178
f 3//3 137//137 23//23
f 12//12 114//114 117//117
f 138//138 117//117 201//201
f 214//214 12//12 138//138
f 18//18 25//25 186//186
f 8//8 18//18 186//186
f 106//106 176//176 177//177
f 14//14 69//69 190//190
f 207//207 139//139 190//190
f 183//183 217//217 56//56
f 183//183 56//56 59//59
f 54//54 57//57 119//119
f 2//2 20//20 90//90
f 96//96 209//209 102//102
f 102//102 140//140 96//96
f 57//57 154//154 141//141
f 28//28 141//141 154//154
f 117//117 137//137 100//100
f 100//100 3//3 16//16
f 142//142 8//8 186//186
f 205//205 186//186 25//25
f 143//143 20//20 82//82
f 104//104 82//82 127//127
f 217//217 58//58 56//56
f 110//110 145//145 111//111
f 145//145 110//110 179//179
f 145//145 146//146 111//111
f 109//109 116//116 192//192
f 101//101 150//150 123//123
f 150//150 121//121 123//123
f 29//29 10//10 151//151
f 207//207 13//13 152//152
f 117//117 114//114 137//137
f 137//137 153//153 23//23
f 23//23 153//153 152//152
f 21//21 29//29 114//114
f 151//151 152//152 153//153
f 29//29 153//153 114//114
f 139//139 207//207 152//152
f 28//28 154//154 72//72
f 61//61 188//188 60//60
f 156//156 188//188 61//61
f 157//157 214//214 53//53
f 93//93 158//158 38//38
f 167//167 159//159 182//182
f 202//202 194//194 161//161
f 161//161 194//194 30//30
f 122//122 160//160 9//9
f 9//9 160//160 180//180
f 125//125 126//126 161//161
f 122//122 150//150 160//160
f 164//164 50//50 67//67
f 22//22 164//164 67//67
f 60//60 19//19 48//48
f 42//42 171//171 64//64
f 115//115 32//32 220//220
f 123//123 147//147 162//162
f 147//147 170//170 162//162
f 163//163 88//88 40//40
f 88//88 163//163 65//65
f 195//195 9//9 208//208
f 5//5 103//103 39//39
f 215//215 149//149 155//155
f 34//34 91//91 132//132
f 50//50 164//164 91//91
f 164//164 132//132 91//91
f 100//100 99//99 201//201
f 131//131 33//33 201//201
f 83//83 22//22 67//67
f 165//165 166//166 45//45
f 165//165 48//48 19//19
f 48//48 165//165 45//45
f 167//167 206//206 159//159
f 195//195 148//148 121//121
f 168//168 36//36 93//93
f 220//220 34//34 115//115
f 115//115 132//132 16//16
f 169//169 184//184 37//37
f 23//23 152//152 13//13
f 206//206 167//167 196//196
f 33//33 53//53 214//214
f 96//96 140//140 26//26
f 158//158 36//36 172//172
f 36//36 220//220 26//26
f 173//173 93//93 38//38
f 9//9 35//35 208//208
f 208//208 174//174 73//73
f 99//99 16//16 132//132
f 22//22 132//132 164//164
f 91//91 34//34 204//204
f 168//168 204//204 34//34
f 35//35 175//175 181//181
f 95//95 199//199 135//135
f 95//95 135//135 129//129
f 175//175 156//156 71//71
f 177//177 74//74 63//63
f 176//176 190//190 69//69
f 178//178 8//8 142//142
f 180//180 35//35 9//9
f 59//59 68//68 183//183
f 68//68 205//205 183//183
f 171//171 134//134 110//110
f 144//144 179//179 147//147
f 180//180 27//27 156//156
f 35//35 180//180 175//175
f 158//158 185//185 38//38
f 213//213 76//76 206//206
f 76//76 213//213 63//63
f 30//30 194//194 27//27
f 160//160 30//30 27//27
f 19//19 188//188 194//194
f 188//188 27//27 194//194
f 89//89 85//85 6//6
f 96//96 32//32 128//128
f 96//96 128//128 209//209
f 129//129 189//189 55//55
f 129//129 44//44 95//95
f 44//44 129//129 55//55
f 108//108 94//94 109//109
f 108//108 109//109 15//15
f 25//25 31//31 205//205
f 131//131 77//77 33//33
f 181//181 174//174 35//35
f 118//118 198//198 78//78
f 198//198 210//210 78//78
f 108//108 135//135 130//130
f 178//178 192//192 8//8
f 159//159 206//206 76//76
f 15//15 135//135 108//108
f 162//162 104//104 123//123
f 133//133 200//200 184//184
f 70//70 191//191 47//47
f 151//151 139//139 152//152
f 150//150 101//101 30//30
f 101//101 125//125 161//161
f 31//31 37//37 217//217
f 110//110 134//134 179//179
f 173//173 38//38 170//170
f 179//179 170//170 147//147
f 143//143 82//82 104//104
f 93//93 173//173 134//134
f 123//123 121//121 147//147
f 147//147 121//121 144//144
f 38//38 143//143 170//170
f 170//170 143//143 162//162
f 5//5 39//39 86//86
f 86//86 39//39 4//4
f 79//79 166//166 211//211
f 142//142 186//186 136//136
f 39//39 103//103 215//215
f 45//45 166//166 79//79
f 33//33 77//77 80//80
f 185//185 98//98 20//20
f 149//149 81//81 155//155
f 113//113 155//155 81//81
f 53//53 33//33 80//80
f 149//149 62//62 81//81
f 125//125 101//101 104//104
f 127//127 125//125 104//104
f 156//156 61//61 71//71
f 87//87 85//85 7//7
f 85//85 89//89 197//197
f 216//216 1//1 124//124
f 216//216 210//210 198//198
f 216//216 98//98 1//1
f 156//156 27//27 188//188
f 1//1 158//158 172//172
f 1//1 172//172 140//140
f 193//193 75//75 146//146
f 219//219 157//157 52//52
f 1//1 98//98 185//185
f 139//139 10//10 11//11
f 124//124 140//140 102//102
f 189//189 129//129 15//15
f 120//120 196//196 102//102
f 144//144 193//193 145//145
f 19//19 194//194 202//202
f 196//196 167//167 210//210
f 190//190 176//176 207//207
f 74//74 176//176 69//69
f 177//177 176//176 74//74
f 191//191 178//178 47//47
f 141//141 212//212 17//17
f 88//88 197//197 40//40
f 192//192 178//178 24//24
f 193//193 146//146 145//145
f 19//19 202//202 165//165
f 165//165 202//202 166//166
f 2//2 119//119 17//17
f 11//11 190//190 139//139
f 190//190 11//11 14//14
f 126//126 211//211 166//166
f 202//202 126//126 166//166
f 191//191 24//24 178//178
f 20//20 2//2 82//82
f 131//131 99//99 22//22
f 187//187 148//148 218//218
f 124//124 102//102 196//196
f 218//218 43//43 187//187
f 218//218 73//73 43//43
f 149//149 95//95 62//62
f 141//141 119//119 57//57
f 186//186 205//205 66//66
f 99//99 132//132 22//22
f 20//20 143//143 185//185
f 196//196 120//120 206//206
f 218//218 208//208 73//73
f 186//186 66//66 136//136
f 191//191 70//70 51//51
f 86//86 6//6 85//85
f 197//197 88//88 7//7
f 25//25 169//169 31//31
f 212//212 125//125 127//127
f 199//199 149//149 215//215
f 90//90 20//20 98//98
f 148//148 187//187 193//193
f 151//151 10//10 139//139
f 195//195 208//208 218//218
f 131//131 201//201 99//99
f 17//17 212//212 127//127
f 86//86 4//4 6//6
f 52//52 133//133 219//219
f 148//148 193//193 144//144
f 168//168 93//93 134//134
f 203//203 209//209 13//13
f 90//90 118//118 54//54
f 106//106 120//120 203//203
f 209//209 203//203 120//120
f 126//126 212//212 211//211
f 91//91 204//204 42//42
f 102//102 209//209 120//120
f 204//204 171//171 42//42
f 106//106 177//177 213//213
f 204//204 168//168 171//171
f 205//205 31//31 183//183
f 134//134 173//173 179//179
f 79//79 211//211 72//72
f 85//85 197//197 7//7
f 124//124 1//1 140//140
f 90//90 198//198 118//118
f 207//207 176//176 106//106
f 36//36 168//168 220//220
f 174//174 208//208 35//35
f 210//210 167//167 78//78
f 216//216 124//124 210//210
f 196//196 210//210 124//124
f 206//206 120//120 213//213
f 209//209 128//128 13//13
f 171//171 168//168 134//134
f 112//112 39//39 215//215
f 112//112 215//215 155//155
f 28//28 212//212 141//141
f 213//213 177//177 63//63
f 33//33 214//214 138//138
f 36//36 26//26 172//172
f 90//90 216//216 198//198
f 86//86 85//85 84//84
f 217//217 200//200 58//58
f 195//195 218//218 148//148
f 200//200 133//133 52//52
f 219//219 214//214 157//157
f 143//143 104//104 162//162
# 357 faces, 0 coords texture

# End of File
