####
#
# OBJ File Generated by Meshlab
#
####
# Object 67.obj
#
# Vertices: 73
# Faces: 116
#
####
vn -2.893579 0.064188 -5.576860
v 16.960862 -41.095230 37.038509
vn -3.455890 0.144561 -5.244731
v 25.844791 -41.214696 31.924404
vn -1.758717 0.064068 -2.604445
v 27.631350 -41.126200 30.718000
vn -3.438687 0.022392 -5.256454
v 24.780049 -47.036738 32.538979
vn -1.455008 0.022269 -2.784185
v 17.582300 -38.000000 36.749600
vn -1.778315 0.054599 -2.573745
v 27.686200 -39.340000 30.718000
vn -1.358395 0.044294 -2.667538
v 13.535100 -39.703800 38.814300
vn -1.727232 0.057891 -2.616543
v 27.562800 -43.520150 30.718000
vn -2.939582 0.067328 -5.552677
v 18.853680 -40.467095 36.056538
vn -0.786310 0.029776 -1.523243
v 13.771000 -38.000000 38.733500
vn -1.551949 0.053477 -2.728526
v 21.776500 -38.000000 34.531800
vn -3.368022 0.019441 -5.303571
v 23.877383 -48.741074 33.099408
vn -2.915213 0.058368 -5.565490
v 17.872399 -39.397720 36.588013
vn -0.901750 0.013728 -1.270910
v 27.706600 -38.000000 30.718000
vn -3.235077 0.091914 -5.385263
v 22.891317 -43.985591 33.720662
vn -2.855661 0.164907 -5.594238
v 14.459466 -48.049889 38.271326
vn -3.478525 0.102462 -5.231237
v 26.617300 -44.780156 31.310119
vn -3.396968 0.134090 -5.283864
v 24.894069 -42.066522 32.514380
vn -0.673041 0.049514 -1.317052
v 13.132900 -50.000000 38.878200
vn -1.800948 0.038947 -2.573908
v 26.174550 -50.000000 31.557100
vn -0.942701 0.035746 -1.294066
v 27.326400 -50.000000 30.718000
vn -2.863192 0.130000 -5.591016
v 16.008342 -48.298361 37.479079
vn -3.017764 0.091721 -5.509897
v 20.101254 -41.879129 35.370588
vn -3.141523 0.091642 -5.440210
v 21.438250 -43.722092 34.570295
vn -3.094539 0.014012 -5.467921
v 20.427650 -45.497670 35.148471
vn -3.323553 0.017082 -5.331708
v 23.848638 -45.585265 33.122572
vn -2.886119 0.074467 -5.580570
v 17.881567 -48.363374 36.505242
vn -2.872511 -0.008152 -5.587348
v 15.080304 -44.640685 38.011568
vn -2.918275 0.050429 -5.564075
v 17.284362 -46.542528 36.838309
vn -3.474554 0.130211 -5.232854
v 26.179619 -39.642471 31.741941
vn -1.648471 0.052181 -2.673506
v 23.247650 -38.000000 33.640300
vn -3.468381 0.128136 -5.237541
v 26.102131 -43.070624 31.693102
vn -2.871749 0.061645 -5.588169
v 15.246723 -41.320211 37.920229
vn -3.194826 0.003898 -5.410206
v 22.114365 -45.758292 34.167498
vn -1.447646 0.092802 -2.830325
v 13.296600 -48.302850 38.858350
vn -2.976076 0.003987 -5.532742
v 19.150866 -46.861840 35.860379
vn -3.055490 0.053855 -5.488735
v 19.975939 -43.767885 35.421939
vn -1.760791 0.056952 -2.599641
v 26.591850 -38.000000 31.508950
vn -1.424489 0.065596 -2.799438
v 16.671050 -50.000000 37.096300
vn -1.425344 0.027051 -2.779810
v 13.533500 -41.515150 38.795750
vn -2.869902 0.082948 -5.588819
v 14.633046 -39.706623 38.255144
vn -1.539318 0.014941 -2.738150
v 20.649144 -50.000000 35.034164
vn -1.470941 0.025677 -2.775826
v 19.613831 -38.000000 35.676975
vn -3.015795 0.097032 -5.510477
v 20.768250 -39.872802 35.045936
vn -1.446775 0.037569 -2.788500
v 18.892900 -50.000000 35.966400
vn -2.863192 0.000185 -5.592623
v 14.699847 -42.962827 38.184715
vn -1.463189 -0.011266 -2.892657
v 13.573800 -43.923550 38.761250
vn -3.302739 0.128194 -5.343333
v 23.410568 -41.979603 33.453355
vn -3.223752 0.121496 -5.390622
v 22.589994 -39.870397 34.008068
vn -1.788839 0.042352 -2.579986
v 27.415000 -47.663400 30.718000
vn -1.689713 0.060090 -2.647206
v 24.987450 -38.000000 32.554200
vn -1.419980 0.098800 -2.800259
v 14.444000 -50.000000 38.208200
vn -1.744387 0.050814 -2.612193
v 27.486550 -45.660450 30.718000
vn -3.533780 0.061193 -5.194801
v 26.301550 -46.501860 31.499287
vn -3.471501 0.056496 -5.236595
v 25.447222 -45.120167 32.088273
vn -1.643224 -0.009382 -2.676790
v 22.947341 -49.999990 33.688198
vn -1.733605 0.012108 -2.619782
v 24.796200 -50.000000 32.497600
vn -1.416409 0.039480 -2.773658
v 13.413450 -46.266150 38.853750
vn -3.381870 0.098351 -5.294009
v 24.488048 -43.696845 32.741270
vn -2.931664 0.041748 -5.557092
v 18.182483 -42.805847 36.385860
vn -2.965262 0.025558 -5.539329
v 18.630279 -44.975705 36.132157
vn -3.191346 -0.010481 -5.411741
v 21.862592 -48.730911 34.332367
vn -3.257984 -0.004762 -5.371978
v 22.936047 -47.347753 33.685831
vn -3.358245 0.122019 -5.308808
v 24.450284 -40.092713 32.846160
vn -3.134447 -0.023110 -5.445203
v 21.036450 -47.211937 34.804333
vn -2.895403 0.080395 -5.575494
v 15.561013 -46.373508 37.744705
vn -2.926825 0.017542 -5.559713
v 16.855661 -44.598474 37.078740
vn -2.883276 0.066141 -5.582168
v 16.264131 -39.546735 37.418594
vn -2.888529 0.008612 -5.579705
v 16.138423 -42.915143 37.446221
vn -1.446012 0.037103 -2.788777
v 15.832900 -38.000000 37.659900
vn -3.005290 0.018749 -5.515914
v 19.880101 -48.546954 35.468303
vn -3.527341 0.047853 -5.199134
v 25.567134 -48.651831 31.986769
vn -3.150849 0.143124 -5.432870
v 21.990641 -42.013192 34.312653
# 73 vertices, 0 vertices normals

f 45//45 27//27 71//71
f 20//20 57//57 72//72
f 43//43 9//9 13//13
f 18//18 59//59 48//48
f 32//32 55//55 59//59
f 25//25 37//37 24//24
f 58//58 66//66 16//16
f 60//60 69//69 1//1
f 41//41 70//70 68//68
f 13//13 9//9 1//1
f 30//30 38//38 6//6
f 10//10 41//41 7//7
f 31//31 51//51 64//64
f 3//3 8//8 32//32
f 33//33 69//69 46//46
f 51//51 30//30 64//64
f 25//25 34//34 65//65
f 16//16 35//35 58//58
f 29//29 36//36 27//27
f 11//11 49//49 44//44
f 49//49 73//73 44//44
f 48//48 73//73 49//49
f 38//38 14//14 6//6
f 52//52 22//22 39//39
f 39//39 22//22 27//27
f 6//6 3//3 30//30
f 32//32 8//8 17//17
f 40//40 7//7 41//41
f 42//42 45//45 71//71
f 62//62 42//42 71//71
f 43//43 11//11 44//44
f 45//45 39//39 27//27
f 40//40 46//46 47//47
f 3//3 2//2 30//30
f 11//11 31//31 49//49
f 3//3 32//32 2//2
f 30//30 51//51 38//38
f 19//19 35//35 52//52
f 16//16 52//52 35//35
f 53//53 50//50 54//54
f 54//54 55//55 17//17
f 62//62 56//56 42//42
f 63//63 12//12 62//62
f 12//12 56//56 62//62
f 50//50 72//72 54//54
f 43//43 44//44 9//9
f 9//9 44//44 23//23
f 57//57 12//12 72//72
f 12//12 57//57 56//56
f 55//55 54//54 4//4
f 55//55 4//4 26//26
f 58//58 47//47 28//28
f 5//5 43//43 13//13
f 27//27 22//22 29//29
f 16//16 66//66 22//22
f 66//66 29//29 22//22
f 72//72 4//4 54//54
f 26//26 63//63 34//34
f 34//34 63//63 65//65
f 36//36 29//29 61//61
f 61//61 60//60 37//37
f 64//64 49//49 31//31
f 15//15 24//24 73//73
f 48//48 15//15 73//73
f 24//24 37//37 23//23
f 73//73 24//24 23//23
f 63//63 62//62 65//65
f 63//63 26//26 4//4
f 48//48 64//64 18//18
f 18//18 64//64 2//2
f 48//48 49//49 64//64
f 67//67 60//60 61//61
f 26//26 15//15 59//59
f 26//26 34//34 15//15
f 34//34 25//25 24//24
f 71//71 65//65 62//62
f 22//22 52//52 16//16
f 48//48 59//59 15//15
f 36//36 25//25 65//65
f 65//65 71//71 36//36
f 18//18 32//32 59//59
f 32//32 17//17 55//55
f 59//59 55//55 26//26
f 60//60 23//23 37//37
f 64//64 30//30 2//2
f 12//12 63//63 4//4
f 18//18 2//2 32//32
f 60//60 9//9 23//23
f 58//58 28//28 66//66
f 28//28 47//47 46//46
f 67//67 29//29 66//66
f 29//29 67//67 61//61
f 68//68 33//33 41//41
f 13//13 1//1 68//68
f 68//68 1//1 33//33
f 13//13 68//68 5//5
f 36//36 71//71 27//27
f 28//28 46//46 69//69
f 28//28 69//69 67//67
f 61//61 37//37 25//25
f 61//61 25//25 36//36
f 9//9 60//60 1//1
f 60//60 67//67 69//69
f 41//41 10//10 70//70
f 68//68 70//70 5//5
f 33//33 40//40 41//41
f 46//46 40//40 33//33
f 34//34 24//24 15//15
f 17//17 8//8 53//53
f 54//54 17//17 53//53
f 33//33 1//1 69//69
f 44//44 73//73 23//23
f 66//66 28//28 67//67
f 20//20 72//72 50//50
f 20//20 50//50 21//21
f 72//72 12//12 4//4
# 116 faces, 0 coords texture

# End of File
