####
#
# OBJ File Generated by Meshlab
#
####
# Object 675S.obj
#
# Vertices: 48
# Faces: 74
#
####
vn -4.449767 0.045980 -4.435740
v 43.967181 14.587182 42.012963
vn -4.460861 0.040363 -4.424577
v 45.409040 19.942611 40.618721
vn -4.488331 0.049558 -4.396648
v 45.118055 22.278704 40.929635
vn -4.446506 0.062129 -4.438820
v 43.985343 12.774168 41.971643
vn -4.453293 0.068475 -4.431692
v 41.521344 14.950295 44.457773
vn -4.437474 0.059890 -4.447831
v 42.791903 13.764605 43.182042
vn -1.961414 0.033327 -1.928050
v 41.255250 22.277600 44.893100
vn -1.951198 0.029872 -1.953055
v 42.914700 11.898650 43.030950
vn -1.970738 0.003897 -1.963653
v 48.101900 21.151050 37.909700
vn -2.015179 0.011531 -2.023436
v 47.176500 13.333950 38.784450
vn -1.851048 0.025806 -1.849353
v 44.791300 11.485600 41.147100
vn -1.969880 0.015774 -1.966476
v 48.157674 15.189175 37.807367
vn -1.977299 0.046284 -1.955936
v 40.362920 20.085726 45.745471
vn -2.049115 0.037586 -2.006070
v 40.215200 16.297650 45.814400
vn -1.992789 0.033062 -1.963594
v 40.716000 14.541000 45.268200
vn -2.026572 0.027878 -2.033878
v 41.741450 12.937950 44.212750
vn -1.979020 0.027927 -1.928572
v 45.128382 24.271475 40.947382
vn -2.011628 0.024649 -1.960573
v 42.493550 23.664000 43.642900
vn -2.175403 0.033865 -2.176443
v 44.109600 11.595100 41.829100
vn -2.058373 0.019726 -2.056325
v 46.308650 12.420100 39.638750
vn -4.469259 0.074854 -4.415607
v 42.611651 17.578864 43.417579
vn -4.450814 0.035131 -4.434740
v 46.375180 14.496684 39.588023
vn -4.445947 0.038421 -4.439623
v 47.440000 15.723076 38.530566
vn -4.457535 0.038748 -4.427957
v 43.945276 16.544665 42.049210
vn -4.470017 0.016443 -4.415446
v 46.480295 21.709714 39.536717
vn -4.470993 0.058371 -4.413777
v 43.947757 18.659216 42.061280
vn -4.455037 0.044697 -4.430462
v 46.544124 18.327797 39.456688
vn -4.450157 0.041000 -4.435387
v 45.256361 17.547155 40.746221
vn -4.455680 0.041129 -4.429825
v 45.230910 15.531676 40.754880
vn -4.474529 0.103872 -4.409686
v 41.631974 20.302502 44.470884
vn -4.502801 0.067215 -4.381624
v 43.819463 22.877595 42.269790
vn -4.490725 0.073671 -4.393770
v 43.928491 20.826830 42.121385
vn -2.041582 0.010568 -2.035985
v 48.537500 19.237100 37.466400
vn -4.466066 0.089497 -4.418439
v 41.326818 16.725110 44.685523
vn -4.468777 0.107022 -4.415518
v 41.358207 18.541158 44.699593
vn -4.445903 0.062463 -4.439386
v 42.648444 15.649611 43.347923
vn -2.010318 0.007537 -1.987002
v 47.147282 22.844500 38.866209
vn -2.034119 0.030551 -1.981494
v 43.567200 24.197300 42.549100
vn -1.981166 0.019619 -1.982558
v 48.606550 17.310400 37.383600
vn -2.075663 0.021268 -2.031295
v 46.249200 23.692200 39.788700
vn -4.452573 0.050596 -4.432866
v 45.130433 13.567432 40.834887
vn -2.043420 0.045010 -2.005992
v 40.094800 17.834400 45.967300
vn -4.447578 0.031538 -4.438053
v 47.707978 18.931987 38.296619
vn -4.501313 0.074449 -4.382910
v 42.651857 21.623571 43.456878
vn -4.493220 0.091637 -4.390961
v 42.640568 19.514916 43.423225
vn -4.456800 0.044104 -4.428690
v 46.481293 16.549484 39.501265
vn -4.455950 0.019669 -4.429716
v 46.864638 19.995326 39.148963
vn -4.444000 0.046849 -4.441512
v 47.432976 17.441561 38.556040
# 48 vertices, 0 vertices normals

f 24//24 26//26 28//28
f 28//28 27//27 46//46
f 36//36 34//34 21//21
f 5//5 16//16 15//15
f 1//1 36//36 24//24
f 22//22 10//10 20//20
f 2//2 25//25 47//47
f 44//44 7//7 18//18
f 3//3 40//40 25//25
f 41//41 1//1 29//29
f 16//16 6//6 8//8
f 4//4 41//41 11//11
f 20//20 11//11 41//41
f 28//28 26//26 2//2
f 24//24 21//21 26//26
f 18//18 31//31 44//44
f 28//28 2//2 27//27
f 24//24 28//28 29//29
f 4//4 6//6 1//1
f 7//7 44//44 30//30
f 30//30 13//13 7//7
f 26//26 21//21 45//45
f 32//32 2//2 26//26
f 32//32 26//26 45//45
f 32//32 31//31 3//3
f 29//29 28//28 46//46
f 33//33 39//39 43//43
f 42//42 34//34 14//14
f 21//21 34//34 35//35
f 22//22 20//20 41//41
f 1//1 6//6 36//36
f 24//24 36//36 21//21
f 33//33 43//43 9//9
f 25//25 37//37 9//9
f 12//12 10//10 23//23
f 10//10 22//22 23//23
f 3//3 31//31 17//17
f 17//17 31//31 38//38
f 38//38 31//31 18//18
f 39//39 12//12 23//23
f 3//3 25//25 2//2
f 11//11 19//19 4//4
f 3//3 17//17 40//40
f 23//23 22//22 46//46
f 2//2 47//47 27//27
f 29//29 1//1 24//24
f 22//22 41//41 29//29
f 30//30 44//44 45//45
f 4//4 1//1 41//41
f 35//35 34//34 42//42
f 35//35 42//42 13//13
f 22//22 29//29 46//46
f 43//43 39//39 48//48
f 43//43 27//27 47//47
f 14//14 34//34 5//5
f 6//6 4//4 8//8
f 30//30 35//35 13//13
f 4//4 19//19 8//8
f 36//36 6//6 5//5
f 5//5 6//6 16//16
f 36//36 5//5 34//34
f 5//5 15//15 14//14
f 25//25 40//40 37//37
f 44//44 31//31 32//32
f 3//3 2//2 32//32
f 45//45 44//44 32//32
f 27//27 48//48 46//46
f 45//45 35//35 30//30
f 45//45 21//21 35//35
f 43//43 47//47 9//9
f 47//47 25//25 9//9
f 43//43 48//48 27//27
f 39//39 23//23 48//48
f 46//46 48//48 23//23
# 74 faces, 0 coords texture

# End of File
