####
#
# OBJ File Generated by Meshlab
#
####
# Object 693.obj
#
# Vertices: 42
# Faces: 59
#
####
vn 1.614796 0.011390 -2.694800
v -21.517764 -38.000000 62.626382
vn 3.178132 0.010804 -5.420049
v -18.768040 -40.097749 64.258889
vn 3.283250 -0.028096 -5.357014
v -17.202498 -48.310816 65.160454
vn 1.634596 -0.020927 -2.682728
v -15.770700 -47.680100 66.033600
vn 0.825180 -0.009698 -1.336225
v -15.780600 -50.000000 66.050800
vn 0.777225 0.008992 -1.365044
v -15.752700 -38.000000 66.002400
vn 1.560528 0.016599 -2.726505
v -16.477000 -38.000000 65.590000
vn 1.572160 0.015568 -2.719753
v -22.661000 -44.306600 61.967900
vn 1.612589 0.005350 -2.695972
v -22.649400 -38.804600 61.947900
vn 1.563297 -0.013672 -2.724995
v -22.663703 -42.369245 61.972838
vn 1.580969 -0.012609 -2.714378
v -22.097800 -50.000000 62.293000
vn 0.800020 0.014699 -1.351780
v -22.653200 -38.000000 61.954400
vn 0.811882 0.004665 -1.344604
v -22.654600 -50.000000 61.956800
vn 1.639362 -0.015932 -2.679890
v -17.359950 -50.000000 65.070300
vn 3.177977 0.043229 -5.419899
v -20.232905 -43.944453 63.373462
vn 3.129434 -0.012403 -5.448223
v -21.382088 -48.080043 62.684150
vn 1.570972 0.010662 -2.720593
v -22.653115 -46.615173 61.954375
vn 1.604135 0.002256 -2.701244
v -15.762050 -45.961000 66.018600
vn 1.571212 -0.010915 -2.720360
v -15.764500 -43.617550 66.022900
vn 3.198800 0.039345 -5.407110
v -16.971717 -44.511007 65.324264
vn 3.231954 0.057961 -5.387696
v -18.481957 -43.931793 64.420774
vn 3.132655 0.035440 -5.446385
v -20.868737 -46.042175 62.993714
vn 1.600378 -0.006561 -2.703145
v -22.650600 -39.974300 61.949900
vn 1.568532 -0.026028 -2.721940
v -21.005950 -50.000000 62.914950
vn 1.567814 -0.015166 -2.722357
v -22.656550 -48.666300 61.960250
vn 3.258719 0.041581 -5.371710
v -17.354861 -46.209732 65.063846
vn 1.561286 -0.019076 -2.726018
v -15.751600 -41.139300 66.000550
vn 1.599683 -0.042918 -2.703579
v -18.954500 -50.000000 64.117000
vn 1.600109 0.027792 -2.703016
v -19.750600 -38.000000 63.699000
vn 3.211236 0.044280 -5.400188
v -19.827839 -38.818817 63.644858
vn 3.219318 0.019164 -5.395717
v -20.597919 -40.084154 63.171958
vn 1.559116 0.011714 -2.727348
v -15.750450 -38.786550 65.998500
vn 3.211133 0.016531 -5.400607
v -19.483654 -41.982519 63.832314
vn 1.574379 0.014886 -2.718571
v -18.456150 -38.000000 64.448700
vn 3.153626 -0.012286 -5.434112
v -19.827043 -47.755693 63.578937
vn 3.132994 -0.002163 -5.446293
v -17.047670 -39.720759 65.252631
vn 3.143294 0.020262 -5.440346
v -21.764980 -44.212034 62.486388
vn 3.166889 -0.021194 -5.426402
v -17.431877 -42.104613 65.048711
vn 3.210451 -0.059296 -5.400410
v -18.901941 -48.970820 64.131761
vn 3.172755 -0.005337 -5.423088
v -21.285850 -42.036845 62.759853
vn 3.190359 0.065669 -5.411353
v -19.279706 -45.658768 63.900485
vn 3.242384 -0.006059 -5.381204
v -18.493167 -47.266839 64.361496
# 42 vertices, 0 vertices normals

f 7//7 6//6 32//32
f 8//8 10//10 37//37
f 23//23 31//31 40//40
f 9//9 12//12 1//1
f 11//11 13//13 25//25
f 2//2 33//33 31//31
f 26//26 41//41 21//21
f 17//17 8//8 37//37
f 18//18 4//4 26//26
f 19//19 18//18 20//20
f 41//41 15//15 21//21
f 10//10 23//23 40//40
f 1//1 23//23 9//9
f 16//16 24//24 11//11
f 25//25 16//16 11//11
f 25//25 17//17 16//16
f 27//27 19//19 38//38
f 28//28 24//24 39//39
f 1//1 29//29 30//30
f 29//29 34//34 30//30
f 32//32 27//27 36//36
f 20//20 38//38 19//19
f 5//5 3//3 4//4
f 3//3 5//5 14//14
f 31//31 23//23 1//1
f 31//31 30//30 2//2
f 30//30 34//34 2//2
f 34//34 36//36 2//2
f 32//32 36//36 7//7
f 34//34 7//7 36//36
f 33//33 15//15 40//40
f 40//40 31//31 33//33
f 26//26 4//4 3//3
f 20//20 18//18 26//26
f 16//16 22//22 35//35
f 20//20 26//26 21//21
f 33//33 2//2 38//38
f 35//35 41//41 42//42
f 3//3 39//39 42//42
f 17//17 37//37 22//22
f 39//39 14//14 28//28
f 39//39 3//3 14//14
f 42//42 26//26 3//3
f 21//21 38//38 20//20
f 15//15 33//33 21//21
f 36//36 27//27 38//38
f 36//36 38//38 2//2
f 33//33 38//38 21//21
f 15//15 37//37 40//40
f 10//10 40//40 37//37
f 22//22 41//41 35//35
f 31//31 1//1 30//30
f 16//16 35//35 24//24
f 22//22 37//37 15//15
f 22//22 15//15 41//41
f 16//16 17//17 22//22
f 35//35 39//39 24//24
f 42//42 41//41 26//26
f 35//35 42//42 39//39
# 59 faces, 0 coords texture

# End of File
