####
#
# OBJ File Generated by Meshlab
#
####
# Object 71.obj
#
# Vertices: 48
# Faces: 72
#
####
vn -0.139830 0.010422 -3.063462
v 1.415468 -46.264259 41.430673
vn -0.676039 0.013090 -3.067378
v 8.459660 -50.000000 40.582700
vn -0.436748 0.031237 -1.638189
v 10.916900 -38.000000 40.096500
vn -0.679341 0.043110 -3.062159
v 8.781470 -37.996750 40.656600
vn -0.121835 -0.018517 -3.207256
v 1.499200 -48.035500 41.422100
vn -0.317505 -0.027584 -3.121051
v 4.325360 -50.000000 41.305200
vn -0.831376 0.035860 -3.076188
v 11.054879 -42.524922 40.017598
vn -0.624432 -0.000242 -2.185897
v 10.856900 -50.000000 39.984800
vn -0.063852 -0.018814 -1.548541
v 1.459540 -50.000000 41.452000
vn -0.065826 -0.031778 -1.655843
v 1.436120 -38.000000 41.409200
vn -0.784952 -0.003621 -2.249067
v 11.337500 -49.400700 39.816100
vn -0.177219 0.002955 -3.113643
v 1.371855 -42.187850 41.469500
vn -0.800748 0.057881 -3.198953
v 10.966000 -44.962200 40.022200
vn -0.380866 0.021790 -6.271280
v 2.684311 -44.528981 41.373364
vn -0.912773 0.023774 -6.214091
v 6.463577 -41.404599 41.038001
vn -1.365928 0.097635 -6.131959
v 8.882684 -45.119381 40.507795
vn -0.451144 0.011363 -6.266808
v 3.952346 -44.090411 41.294406
vn -1.484057 0.027337 -6.101744
v 9.311543 -48.333036 40.399834
vn -0.799510 -0.011564 -6.227191
v 5.050662 -48.409298 41.205781
vn -0.564875 -0.001033 -3.089798
v 6.936084 -49.999914 40.892236
vn -0.864718 0.021370 -2.969080
v 11.260700 -47.938400 39.840550
vn -0.803987 0.049613 -6.225556
v 5.491764 -44.986136 41.166077
vn -0.349704 -0.052723 -6.272371
v 3.025011 -48.784040 41.372677
vn -0.155578 -0.024333 -3.137462
v 2.754930 -50.000000 41.395500
vn -1.618020 -0.000212 -6.065463
v 10.071898 -41.166327 40.310917
vn -0.121213 -0.047281 -3.014014
v 1.278430 -39.879400 41.453950
vn -0.822377 -0.005620 -2.818611
v 11.206450 -40.536550 39.959850
vn -0.214395 0.027923 -3.224285
v 1.481180 -43.927700 41.462700
vn -0.241606 -0.029328 -3.128617
v 4.032835 -37.994500 41.308700
vn -0.423897 0.026269 -6.268733
v 3.042425 -42.591441 41.365432
vn -0.332129 -0.027585 -6.272996
v 2.496226 -40.364977 41.412592
vn -0.852098 0.102654 -3.002547
v 11.100500 -46.206600 39.935500
vn -1.535012 0.089263 -6.089385
v 9.873835 -46.513800 40.273115
vn -1.273283 0.034275 -6.152463
v 8.256175 -46.862894 40.626500
vn -1.456290 0.117803 -6.110201
v 9.512529 -43.062230 40.409207
vn -1.174699 -0.003626 -6.171800
v 7.173377 -48.235929 40.841588
vn -1.540331 0.060123 -6.090210
v 9.633190 -39.662143 40.407049
vn -1.159762 0.089883 -6.171030
v 7.354789 -43.628069 40.875648
vn -1.298638 0.061268 -6.144922
v 8.502062 -41.440408 40.671908
vn -0.678648 0.010985 -6.241512
v 5.152090 -42.902953 41.214166
vn -0.434193 -0.007724 -3.110087
v 6.573340 -37.995250 41.029650
vn -1.114073 0.042696 -6.178728
v 7.604205 -39.689884 40.870747
vn -0.933022 0.036467 -6.209591
v 5.728050 -46.834366 41.110229
vn -0.416668 -0.031147 -6.266139
v 3.573917 -39.283101 41.350377
vn -0.720633 0.003214 -6.240413
v 5.470432 -39.504317 41.167248
vn -0.565680 0.012266 -6.256878
v 4.406179 -40.921237 41.269735
vn -1.186610 0.110804 -6.168597
v 7.135047 -45.969442 40.862611
vn -0.432914 -0.006382 -6.265358
v 3.520451 -46.416208 41.345274
# 48 vertices, 0 vertices normals

f 20//20 19//19 36//36
f 5//5 1//1 48//48
f 17//17 14//14 30//30
f 15//15 40//40 46//46
f 37//37 25//25 39//39
f 43//43 48//48 22//22
f 15//15 45//45 42//42
f 18//18 8//8 2//2
f 3//3 37//37 4//4
f 48//48 19//19 23//23
f 20//20 6//6 19//19
f 11//11 8//8 21//21
f 6//6 24//24 23//23
f 23//23 19//19 6//6
f 47//47 22//22 38//38
f 38//38 22//22 40//40
f 9//9 5//5 23//23
f 9//9 23//23 24//24
f 25//25 37//37 27//27
f 26//26 10//10 31//31
f 21//21 8//8 18//18
f 27//27 7//7 25//25
f 1//1 28//28 14//14
f 28//28 12//12 30//30
f 29//29 41//41 45//45
f 30//30 12//12 31//31
f 26//26 31//31 12//12
f 44//44 46//46 31//31
f 32//32 21//21 33//33
f 13//13 32//32 33//33
f 33//33 21//21 18//18
f 23//23 5//5 48//48
f 14//14 17//17 48//48
f 20//20 36//36 2//2
f 7//7 13//13 35//35
f 16//16 35//35 13//13
f 34//34 18//18 36//36
f 35//35 38//38 39//39
f 39//39 38//38 15//15
f 33//33 16//16 13//13
f 40//40 30//30 46//46
f 38//38 40//40 15//15
f 39//39 25//25 35//35
f 42//42 37//37 39//39
f 35//35 25//25 7//7
f 41//41 4//4 42//42
f 16//16 38//38 35//35
f 18//18 34//34 33//33
f 47//47 16//16 34//34
f 19//19 48//48 43//43
f 43//43 22//22 47//47
f 42//42 39//39 15//15
f 42//42 4//4 37//37
f 40//40 17//17 30//30
f 16//16 33//33 34//34
f 16//16 47//47 38//38
f 43//43 36//36 19//19
f 45//45 15//15 46//46
f 31//31 46//46 30//30
f 45//45 41//41 42//42
f 44//44 29//29 45//45
f 22//22 48//48 17//17
f 45//45 46//46 44//44
f 22//22 17//17 40//40
f 44//44 31//31 10//10
f 44//44 10//10 29//29
f 30//30 14//14 28//28
f 43//43 47//47 34//34
f 18//18 2//2 36//36
f 43//43 34//34 36//36
f 1//1 14//14 48//48
f 37//37 3//3 27//27
# 72 faces, 0 coords texture

# End of File
