####
#
# OBJ File Generated by Meshlab
#
####
# Object 786.obj
#
# Vertices: 44
# Faces: 63
#
####
vn -1.722844 -0.010822 -2.627445
v 24.335950 -43.923550 64.869100
vn -3.504840 -0.013862 -5.214775
v 22.142492 -48.713863 66.350220
vn -0.884979 -0.003451 -1.297542
v 24.325300 -38.000000 64.850600
vn -1.749531 0.007492 -2.609248
v 23.477689 -38.000000 65.428708
vn -3.473060 -0.032456 -5.235875
v 23.055247 -45.357330 65.712507
vn -1.759710 -0.002073 -2.602490
v 22.523900 -50.000000 66.093350
vn -1.741838 -0.012189 -2.614267
v 24.335550 -46.308700 64.868350
vn -1.837722 -0.005034 -2.550018
v 17.695000 -42.855100 69.366500
vn -3.638238 -0.020315 -5.121783
v 18.745923 -42.857821 68.609137
vn -0.888233 0.005391 -1.295734
v 17.700800 -50.000000 69.376600
vn -1.766016 -0.006268 -2.598205
v 20.564731 -49.999990 67.412437
vn -1.778290 0.018978 -2.589717
v 23.800500 -50.000000 65.227800
vn -0.906722 0.021714 -1.280979
v 24.327600 -50.000000 64.854700
vn -1.762916 0.008913 -2.601557
v 24.337769 -48.544225 64.872179
vn -0.910287 0.003193 -1.279890
v 17.712300 -38.000000 69.396600
vn -3.649064 0.053749 -5.114465
v 18.814385 -40.561706 68.579170
vn -3.560852 -0.064559 -5.176184
v 20.424105 -46.056040 67.492962
vn -1.760834 0.024086 -2.601622
v 21.296050 -38.000000 66.877900
vn -3.575546 -0.006815 -5.166200
v 19.078419 -47.419948 68.445293
vn -3.481480 -0.011252 -5.230052
v 21.401279 -42.435064 66.784909
vn -1.809744 0.040048 -2.567738
v 19.336400 -38.000000 68.244650
vn -1.838248 0.025223 -2.547887
v 17.700100 -41.320750 69.375500
vn -1.778959 -0.006273 -2.589055
v 17.705150 -47.016700 69.383850
vn -3.605386 -0.071460 -5.145160
v 18.949893 -45.300415 68.513417
vn -1.778653 0.004912 -2.589584
v 18.728800 -50.000000 68.671900
vn -3.565557 0.015359 -5.173460
v 19.130285 -49.015616 68.397138
vn -1.836059 0.024741 -2.548055
v 17.711050 -39.238200 69.394400
vn -1.824892 0.019421 -2.557151
v 18.267400 -38.000000 69.001800
vn -3.452961 -0.024769 -5.249244
v 22.865935 -43.118833 65.826689
vn -3.499713 0.027817 -5.217938
v 21.346005 -40.236303 66.829130
vn -3.557468 -0.065695 -5.177292
v 20.170351 -43.828626 67.617437
vn -1.729607 -0.009139 -2.622361
v 24.329850 -41.912050 64.858600
vn -1.813075 -0.030843 -2.564362
v 17.703200 -44.498650 69.380700
vn -3.652440 0.064200 -5.112087
v 18.787935 -39.052755 68.618908
vn -3.591218 0.059897 -5.155021
v 19.934980 -39.526780 67.798427
vn -3.462488 0.003355 -5.243037
v 22.827358 -40.990594 65.850725
vn -3.567801 0.025249 -5.171550
v 20.056671 -41.548245 67.697896
vn -3.487747 -0.061356 -5.225866
v 21.597380 -44.592635 66.677812
vn -3.475069 0.023185 -5.234664
v 22.745457 -39.264304 65.908845
vn -1.776851 0.011016 -2.590821
v 17.702900 -48.836700 69.380000
vn -1.744825 0.001936 -2.612491
v 24.327050 -39.614450 64.853700
vn -3.545487 -0.016399 -5.186987
v 20.583912 -48.051569 67.391764
vn -3.501392 -0.018802 -5.217000
v 23.302928 -47.704378 65.569880
vn -3.502184 -0.044206 -5.216413
v 21.960354 -46.731149 66.458047
# 44 vertices, 0 vertices normals

f 4//4 3//3 41//41
f 6//6 11//11 2//2
f 23//23 24//24 19//19
f 13//13 12//12 14//14
f 27//27 28//28 34//34
f 33//33 9//9 24//24
f 9//9 16//16 37//37
f 38//38 31//31 20//20
f 26//26 40//40 19//19
f 37//37 35//35 30//30
f 31//31 17//17 24//24
f 30//30 36//36 20//20
f 37//37 20//20 31//31
f 18//18 4//4 39//39
f 11//11 42//42 2//2
f 1//1 7//7 5//5
f 21//21 18//18 35//35
f 22//22 27//27 16//16
f 12//12 2//2 43//43
f 23//23 33//33 24//24
f 11//11 25//25 26//26
f 25//25 10//10 40//40
f 7//7 14//14 43//43
f 27//27 15//15 28//28
f 34//34 28//28 21//21
f 5//5 38//38 29//29
f 29//29 20//20 36//36
f 18//18 30//30 35//35
f 32//32 1//1 29//29
f 33//33 8//8 9//9
f 16//16 27//27 34//34
f 30//30 39//39 36//36
f 29//29 36//36 32//32
f 9//9 22//22 16//16
f 29//29 38//38 20//20
f 38//38 17//17 31//31
f 44//44 17//17 38//38
f 44//44 38//38 5//5
f 18//18 39//39 30//30
f 11//11 26//26 42//42
f 26//26 19//19 42//42
f 19//19 40//40 23//23
f 43//43 2//2 44//44
f 36//36 41//41 32//32
f 29//29 1//1 5//5
f 8//8 22//22 9//9
f 44//44 2//2 42//42
f 44//44 42//42 17//17
f 42//42 19//19 17//17
f 37//37 16//16 35//35
f 9//9 31//31 24//24
f 24//24 17//17 19//19
f 4//4 41//41 39//39
f 36//36 39//39 41//41
f 37//37 30//30 20//20
f 9//9 37//37 31//31
f 34//34 21//21 35//35
f 26//26 25//25 40//40
f 16//16 34//34 35//35
f 5//5 7//7 43//43
f 12//12 6//6 2//2
f 12//12 43//43 14//14
f 43//43 44//44 5//5
# 63 faces, 0 coords texture

# End of File
