####
#
# OBJ File Generated by Meshlab
#
####
# Object 789.obj
#
# Vertices: 51
# Faces: 77
#
####
vn -5.124023 -0.043376 -3.635403
v 56.732806 39.601216 31.922857
vn -2.383572 -0.025771 -2.037844
v 51.380200 40.730100 38.718000
vn -4.805794 0.018410 -4.047410
v 52.532441 47.483470 37.341382
vn -2.483761 0.018826 -1.921465
v 54.251213 50.000000 35.268890
vn -2.541866 -0.023873 -1.844980
v 56.137150 38.000000 32.779600
vn -1.207963 -0.011478 -1.013567
v 51.418000 38.000000 38.718000
vn -1.202175 0.013859 -1.024320
v 51.385500 50.000000 38.718000
vn -2.410605 0.021259 -2.014081
v 52.622800 50.000000 37.261650
vn -2.591882 -0.006399 -1.794013
v 57.468600 47.711400 30.719000
vn -2.549974 0.012229 -1.834570
v 55.345600 50.000000 33.777200
vn -1.290353 0.007380 -0.890355
v 57.479500 50.000000 30.718000
vn -1.287168 -0.003084 -0.896912
v 57.576200 38.000000 30.718000
vn -5.030476 0.044449 -3.763665
v 54.745504 47.876210 34.578882
vn -2.568193 -0.037627 -1.812863
v 57.546250 42.005300 30.718000
vn -2.385032 -0.012593 -2.039022
v 51.365500 42.726050 38.718000
vn -2.559893 -0.035241 -1.815449
v 57.526900 43.697100 30.718000
vn -4.858652 0.008583 -3.983129
v 53.071228 45.686956 36.697199
vn -4.904754 -0.036034 -3.926604
v 53.563020 40.497209 36.110054
vn -2.440165 -0.012976 -1.978258
v 53.397813 38.000000 36.333590
vn -4.948682 -0.041225 -3.870940
v 54.116379 41.905063 35.396708
vn -4.826171 -0.030029 -4.022448
v 52.497665 39.865305 37.423007
vn -4.809367 -0.016235 -4.043056
v 52.359568 43.993721 37.548561
vn -5.025630 -0.032991 -3.770272
v 54.989950 43.859154 34.240299
vn -5.145283 -0.019948 -3.606012
v 56.554351 46.634313 32.048164
vn -5.113869 -0.048199 -3.650119
v 56.318042 44.875823 32.401621
vn -5.098598 -0.071192 -3.670896
v 56.239367 42.969363 32.547481
vn -2.392775 -0.002127 -2.035862
v 51.361800 45.705650 38.718000
vn -4.792031 -0.003483 -4.063828
v 52.022269 45.856891 37.941584
vn -4.896461 -0.024064 -3.936844
v 53.533374 39.036639 36.159577
vn -2.577867 0.018913 -1.795312
v 56.568600 50.000000 32.041200
vn -2.412758 -0.011403 -2.011876
v 52.144300 38.000000 37.852400
vn -2.382070 0.016541 -2.033837
v 51.359550 48.057500 38.718000
vn -4.788711 0.051021 -4.067390
v 52.136520 48.928090 37.822075
vn -2.566331 -0.028738 -1.799935
v 57.567200 40.634200 30.718000
vn -5.078851 0.008837 -3.698673
v 55.440560 46.144096 33.618680
vn -4.902932 0.034897 -3.927968
v 53.638404 47.624812 36.010505
vn -4.974225 0.018140 -3.838082
v 54.194396 45.791007 35.281727
vn -5.105898 -0.069545 -3.660572
v 56.506598 41.186993 32.213083
vn -2.391364 -0.003287 -2.036601
v 51.363000 44.264500 38.718000
vn -5.048797 -0.056031 -3.739376
v 55.690266 39.739065 33.353475
vn -2.402391 -0.023619 -2.030580
v 51.409800 38.863000 38.718000
vn -2.571598 -0.031651 -1.807713
v 57.496927 45.483256 30.718000
vn -5.127734 -0.071191 -3.630375
v 57.000341 43.874848 31.457030
vn -4.912209 -0.014150 -3.916996
v 53.549998 43.777733 36.103034
vn -4.835817 -0.034308 -4.010343
v 52.705785 41.900017 37.158991
vn -5.033909 -0.053155 -3.759042
v 55.337151 41.591928 33.807414
vn -2.491548 -0.021637 -1.912721
v 54.830700 38.000000 34.524150
vn -4.838951 0.032423 -4.007510
v 52.989017 48.864890 36.808384
vn -5.119173 0.016490 -3.642460
v 55.765920 47.870027 33.179367
vn -4.972116 -0.043511 -3.840611
v 54.546093 40.043237 34.867513
vn -5.160815 0.014194 -3.583840
v 56.564000 48.659451 32.033682
# 51 vertices, 0 vertices normals

f 30//30 11//11 51//51
f 32//32 33//33 3//3
f 39//39 28//28 22//22
f 41//41 21//21 31//31
f 36//36 17//17 3//3
f 25//25 43//43 26//26
f 18//18 20//20 50//50
f 18//18 50//50 29//29
f 37//37 44//44 17//17
f 23//23 26//26 46//46
f 18//18 21//21 45//45
f 32//32 3//3 28//28
f 27//27 32//32 28//28
f 31//31 6//6 41//41
f 32//32 7//7 33//33
f 3//3 33//33 48//48
f 7//7 8//8 33//33
f 33//33 8//8 48//48
f 11//11 9//9 51//51
f 5//5 1//1 12//12
f 4//4 13//13 36//36
f 38//38 34//34 1//1
f 34//34 12//12 1//1
f 35//35 25//25 23//23
f 48//48 8//8 4//4
f 17//17 36//36 37//37
f 37//37 36//36 13//13
f 2//2 15//15 45//45
f 43//43 16//16 14//14
f 4//4 36//36 48//48
f 4//4 10//10 13//13
f 15//15 39//39 22//22
f 39//39 27//27 28//28
f 1//1 40//40 38//38
f 35//35 23//23 37//37
f 42//42 24//24 9//9
f 2//2 45//45 21//21
f 47//47 50//50 40//40
f 41//41 2//2 21//21
f 3//3 48//48 36//36
f 42//42 16//16 43//43
f 23//23 20//20 44//44
f 21//21 18//18 29//29
f 24//24 25//25 35//35
f 20//20 45//45 44//44
f 44//44 45//45 22//22
f 49//49 35//35 13//13
f 1//1 5//5 40//40
f 38//38 40//40 46//46
f 40//40 50//50 46//46
f 29//29 47//47 19//19
f 37//37 23//23 44//44
f 17//17 44//44 22//22
f 20//20 23//23 46//46
f 46//46 26//26 38//38
f 5//5 47//47 40//40
f 50//50 20//20 46//46
f 24//24 49//49 51//51
f 22//22 28//28 17//17
f 28//28 3//3 17//17
f 20//20 18//18 45//45
f 34//34 38//38 14//14
f 19//19 31//31 29//29
f 29//29 31//31 21//21
f 23//23 25//25 26//26
f 22//22 45//45 15//15
f 50//50 47//47 29//29
f 30//30 51//51 10//10
f 49//49 10//10 51//51
f 9//9 24//24 51//51
f 13//13 10//10 49//49
f 35//35 49//49 24//24
f 14//14 38//38 26//26
f 14//14 26//26 43//43
f 13//13 35//35 37//37
f 42//42 43//43 25//25
f 25//25 24//24 42//42
# 77 faces, 0 coords texture

# End of File
