####
#
# OBJ File Generated by Meshlab
#
####
# Object 790.obj
#
# Vertices: 42
# Faces: 60
#
####
vn -3.022323 0.013126 -5.508505
v 19.083689 42.778484 68.723017
vn -3.051281 -0.028804 -5.492417
v 21.782644 41.471969 67.236371
vn -1.547308 0.008845 -2.733695
v 24.749600 47.615100 65.585600
vn -1.510832 -0.011476 -2.754735
v 17.748759 44.189443 69.459709
vn -0.787999 -0.014378 -1.358699
v 24.735700 50.000000 65.561500
vn -1.507820 -0.041119 -2.755021
v 17.745900 39.651600 69.454700
vn -1.489743 -0.015369 -2.765242
v 17.731900 46.837350 69.430600
vn -0.757988 -0.035585 -1.375818
v 17.766100 38.000000 69.489800
vn -0.752313 0.009889 -1.379109
v 17.739200 50.000000 69.443100
vn -0.770560 -0.019852 -1.368479
v 24.764900 38.000000 65.612100
vn -1.536552 -0.048185 -2.739725
v 24.759650 38.827650 65.603050
vn -1.542402 -0.036797 -2.736770
v 24.746000 40.436400 65.579400
vn -1.534860 -0.046052 -2.740663
v 23.856500 38.000000 66.123600
vn -1.509346 0.005870 -2.755130
v 17.744100 41.836950 69.451550
vn -1.495159 0.006470 -2.762872
v 21.255000 50.000000 67.538700
vn -2.982042 -0.020275 -5.530375
v 19.779241 47.146497 68.334909
vn -2.974711 -0.001317 -5.534374
v 20.644664 48.741097 67.862212
vn -3.035883 0.002129 -5.500898
v 20.916165 45.498773 67.721603
vn -1.539049 0.004277 -2.738428
v 22.801809 49.999996 66.690454
vn -1.517013 -0.063486 -2.750395
v 18.902150 38.000000 68.860900
vn -1.499977 0.016586 -2.760160
v 17.734100 48.733700 69.434300
vn -2.989591 0.005431 -5.526271
v 18.890930 48.639170 68.805066
vn -3.014784 -0.018034 -5.512527
v 19.059970 40.891421 68.729264
vn -1.510222 -0.045382 -2.754351
v 20.840600 38.000000 67.796950
vn -3.012061 -0.059434 -5.513785
v 20.476412 40.044477 67.962923
vn -1.535556 0.024947 -2.740703
v 24.743300 46.422100 65.574700
vn -3.031956 0.013341 -5.503091
v 21.580323 47.451836 67.355589
vn -3.004931 -0.025947 -5.517927
v 19.195026 45.052740 68.659509
vn -1.538956 -0.000175 -2.738942
v 24.739642 44.044818 65.568443
vn -1.546490 -0.018498 -2.734481
v 24.741100 41.509700 65.570800
vn -3.045849 -0.075075 -5.494988
v 21.982683 39.330567 67.148733
vn -3.021240 0.001623 -5.509080
v 20.233889 41.739562 68.086550
vn -3.080881 0.029598 -5.475778
v 23.712784 45.812153 66.146524
vn -1.525455 -0.037164 -2.746079
v 22.457100 38.000000 66.903200
vn -1.489594 0.002088 -2.765946
v 19.907750 50.000000 68.255300
vn -3.015046 -0.099023 -5.511501
v 19.118158 39.130034 68.715674
vn -3.082691 -0.027085 -5.474888
v 23.587843 41.893936 66.220427
vn -3.035809 0.007059 -5.501043
v 20.578459 43.425323 67.904091
vn -3.075866 -0.078983 -5.478198
v 23.402549 39.872030 66.343294
vn -3.076304 -0.000961 -5.478566
v 22.364903 43.533128 66.905404
vn -3.090812 0.001011 -5.469851
v 23.162777 48.860145 66.485803
vn -3.077257 0.037174 -5.477884
v 22.964412 46.527894 66.574748
# 42 vertices, 0 vertices normals

f 37//37 12//12 39//39
f 7//7 16//16 28//28
f 18//18 16//16 27//27
f 1//1 38//38 32//32
f 42//42 40//40 18//18
f 6//6 36//36 8//8
f 20//20 8//8 36//36
f 7//7 21//21 22//22
f 21//21 9//9 22//22
f 10//10 13//13 11//11
f 13//13 39//39 11//11
f 6//6 14//14 23//23
f 14//14 1//1 23//23
f 24//24 20//20 36//36
f 4//4 28//28 1//1
f 33//33 3//3 26//26
f 26//26 29//29 33//33
f 22//22 17//17 16//16
f 14//14 4//4 1//1
f 29//29 30//30 37//37
f 36//36 6//6 23//23
f 12//12 37//37 30//30
f 1//1 32//32 23//23
f 23//23 32//32 25//25
f 22//22 9//9 35//35
f 7//7 22//22 16//16
f 39//39 13//13 31//31
f 31//31 34//34 24//24
f 35//35 15//15 17//17
f 15//15 19//19 41//41
f 5//5 41//41 19//19
f 17//17 22//22 35//35
f 27//27 16//16 17//17
f 16//16 18//18 28//28
f 42//42 18//18 27//27
f 24//24 36//36 25//25
f 36//36 23//23 25//25
f 31//31 25//25 2//2
f 31//31 13//13 34//34
f 25//25 31//31 24//24
f 28//28 18//18 38//38
f 1//1 28//28 38//38
f 32//32 38//38 2//2
f 40//40 29//29 37//37
f 42//42 33//33 40//40
f 39//39 12//12 11//11
f 29//29 40//40 33//33
f 7//7 28//28 4//4
f 31//31 2//2 39//39
f 42//42 27//27 41//41
f 2//2 37//37 39//39
f 2//2 25//25 32//32
f 3//3 42//42 41//41
f 18//18 40//40 38//38
f 15//15 27//27 17//17
f 15//15 41//41 27//27
f 40//40 37//37 2//2
f 33//33 42//42 3//3
f 38//38 40//40 2//2
f 41//41 5//5 3//3
# 60 faces, 0 coords texture

# End of File
