####
#
# OBJ File Generated by Meshlab
#
####
# Object 805S.obj
#
# Vertices: 85
# Faces: 138
#
####
vn -4.535866 0.023185 -4.347698
v 48.758606 -21.708917 41.298849
vn -4.529191 0.059145 -4.354423
v 50.106632 -22.556530 39.897533
vn -4.528546 0.026142 -4.355432
v 46.113450 -16.098967 44.092532
vn -4.518951 0.031131 -4.365252
v 47.378258 -13.502149 42.791972
vn -4.534729 0.039007 -4.348843
v 48.474045 -18.322735 41.617352
vn -4.531533 0.027207 -4.352281
v 47.680244 -16.626646 42.467423
vn -4.530889 0.028123 -4.352954
v 45.057800 -11.717292 45.232403
vn -4.511526 0.020864 -4.373112
v 42.851170 -12.833926 47.505117
vn -4.532979 0.037537 -4.350741
v 44.760035 -14.955381 45.510701
vn -4.526991 0.031159 -4.357019
v 44.288908 -16.553618 45.992336
vn -4.536899 0.036527 -4.346658
v 45.882196 -13.830456 44.355587
vn -4.527951 0.017915 -4.356039
v 46.416491 -19.817744 43.767309
vn -4.507298 0.027383 -4.377430
v 42.685170 -11.061653 47.686708
vn -4.516809 0.035071 -4.367546
v 44.012822 -10.258871 46.324714
vn -4.509213 0.024909 -4.375323
v 47.703646 -11.633694 42.467051
vn -2.495143 0.005641 -2.403351
v 43.982633 -20.319252 46.284941
vn -2.132368 0.004946 -2.060813
v 43.905300 -6.318865 46.454600
vn -2.053322 -0.000089 -1.961813
v 44.190000 -24.235900 46.074900
vn -2.045538 0.013487 -1.969578
v 48.167550 -7.034235 42.024250
vn -1.980400 0.008888 -1.921006
v 49.305131 -9.102652 40.834382
vn -2.084623 0.039278 -1.979832
v 51.835300 -23.328800 38.071200
vn -2.060608 0.036566 -1.956756
v 51.553550 -24.618700 38.342850
vn -2.054870 0.013605 -1.987365
v 49.739600 -11.205850 40.382550
vn -2.271677 0.011113 -2.210447
v 50.619850 -17.439400 39.412550
vn -2.040006 0.001880 -1.949829
v 44.790000 -25.746175 45.446150
vn -1.821120 0.011722 -1.753762
v 45.260700 -5.399780 45.053900
vn -2.014254 0.018108 -1.949264
v 51.459950 -19.220650 38.538850
vn -2.003862 0.007013 -1.953934
v 42.691900 -7.551555 47.699800
vn -1.955433 0.017684 -1.887144
v 46.934050 -5.820355 43.317500
vn -2.453877 0.027349 -2.348072
v 49.774365 -14.835950 40.295730
vn -2.094684 0.006839 -2.048926
v 41.922848 -9.112557 48.477927
vn -2.021333 0.008647 -1.970387
v 41.600200 -10.200300 48.805400
vn -2.003764 0.008953 -1.945091
v 41.462218 -12.557911 48.938441
vn -2.018036 0.004503 -1.906418
v 48.153763 -28.126690 41.896443
vn -2.017196 0.006212 -1.914740
v 46.063900 -27.398450 44.104550
vn -4.554517 0.065939 -4.327852
v 50.341089 -24.528505 39.621312
vn -2.463842 0.014709 -2.377445
v 43.438950 -17.849000 46.864100
vn -4.526745 0.041723 -4.357172
v 48.520529 -15.208022 41.601563
vn -4.550972 0.035716 -4.331899
v 47.901559 -23.242462 42.196823
vn -4.534516 0.017912 -4.349276
v 45.095701 -7.415650 45.215013
vn -4.562480 0.016633 -4.319919
v 46.964588 -26.137038 43.156141
vn -4.527904 0.018280 -4.356140
v 45.915216 -21.774710 44.273984
vn -4.528368 0.028182 -4.355628
v 44.497914 -18.440328 45.760216
vn -4.512580 0.044837 -4.371538
v 48.678124 -13.231897 41.467354
vn -4.512756 0.028581 -4.371790
v 43.777075 -11.788567 46.554253
vn -4.521063 0.036657 -4.363145
v 47.663678 -8.154870 42.539881
vn -4.549270 0.035703 -4.333702
v 48.014308 -25.083987 42.056305
vn -4.523242 0.014003 -4.360993
v 45.124533 -20.059596 45.099899
vn -4.534614 0.025145 -4.349080
v 47.018780 -18.132584 43.147386
vn -4.524641 0.021016 -4.359520
v 45.560265 -18.064697 44.657047
vn -4.542849 0.018146 -4.340419
v 47.239044 -21.600559 42.904193
vn -4.543351 0.024168 -4.339993
v 46.736699 -23.845297 43.409913
vn -4.508675 0.028128 -4.375920
v 48.154427 -9.963579 42.013436
vn -4.548775 0.080965 -4.333637
v 51.156715 -23.025488 38.791719
vn -4.532334 0.001938 -4.351564
v 44.732639 -22.137138 45.508772
vn -4.528215 0.023406 -4.355762
v 47.061592 -15.031523 43.111577
vn -4.503594 0.019106 -4.381157
v 48.910397 -11.294461 41.239312
vn -2.286187 0.024770 -2.194393
v 49.738000 -12.579800 40.368000
vn -4.505709 0.036423 -4.378913
v 50.083270 -20.557936 39.947049
vn -4.541749 0.003171 -4.341735
v 45.377604 -23.784962 44.828735
vn -4.514199 0.027094 -4.370112
v 49.046063 -19.856811 41.009174
vn -4.524824 0.033763 -4.359211
v 49.172052 -16.997547 40.903984
vn -4.528643 0.032128 -4.355277
v 46.257723 -7.585406 44.000306
vn -4.540912 0.028369 -4.342543
v 46.384051 -11.711898 43.842866
vn -4.537882 0.025686 -4.345723
v 45.485362 -9.533084 44.798131
vn -4.557294 0.046559 -4.325134
v 49.337594 -25.833110 40.665812
vn -2.082650 0.001869 -1.972136
v 47.100000 -27.980000 43.012400
vn -2.463565 0.010663 -2.374860
v 50.035900 -16.131300 40.012700
vn -2.067172 0.035541 -1.968249
v 51.884600 -21.651750 38.053400
vn -4.544114 0.039538 -4.339097
v 49.076268 -23.911311 40.955903
vn -4.550607 0.019567 -4.332395
v 47.832170 -19.883339 42.278892
vn -2.272325 0.023352 -2.204648
v 42.552950 -15.950500 47.788600
vn -4.531272 0.032827 -4.352554
v 46.938640 -9.753919 43.276758
vn -2.093326 -0.003120 -2.020607
v 43.963500 -22.790100 46.306600
vn -1.999054 0.019698 -1.888456
v 49.704350 -27.501700 40.256800
vn -2.054866 0.028876 -1.940484
v 50.743600 -26.328450 39.166200
vn -2.003491 0.012812 -1.943901
v 41.820400 -14.452900 48.561100
vn -4.550453 0.010262 -4.332525
v 45.958493 -25.370961 44.225901
vn -4.517293 0.036609 -4.366970
v 43.417838 -14.716424 46.913012
vn -4.534780 0.067777 -4.348442
v 50.975101 -21.310452 39.013943
vn -4.502698 0.029862 -4.382137
v 49.845487 -18.646346 40.199056
vn -4.559418 0.020440 -4.323133
v 48.155895 -26.856752 41.897187
vn -4.522709 0.030994 -4.361443
v 44.328732 -13.189448 45.978827
vn -4.499632 0.026226 -4.385304
v 42.849315 -9.378477 47.529882
vn -4.519496 0.021659 -4.364725
v 44.090320 -8.448245 46.261021
# 85 vertices, 0 vertices normals

f 3//3 56//56 6//6
f 54//54 21//21 22//22
f 57//57 58//58 44//44
f 6//6 5//5 49//49
f 55//55 42//42 60//60
f 24//24 81//81 62//62
f 12//12 71//71 51//51
f 3//3 49//49 50//50
f 11//11 83//83 7//7
f 80//80 69//69 54//54
f 66//66 70//70 36//36
f 70//70 39//39 1//1
f 73//73 46//46 53//53
f 64//64 15//15 4//4
f 32//32 13//13 33//33
f 43//43 16//16 37//37
f 37//37 72//72 10//10
f 39//39 47//47 52//52
f 78//78 52//52 41//41
f 38//38 62//62 6//6
f 6//6 56//56 38//38
f 9//9 50//50 10//10
f 42//42 55//55 48//48
f 83//83 8//8 45//45
f 16//16 43//43 48//48
f 48//48 12//12 42//42
f 43//43 10//10 50//50
f 22//22 36//36 54//54
f 36//36 22//22 76//76
f 38//38 56//56 4//4
f 57//57 23//23 58//58
f 44//44 58//58 30//30
f 44//44 4//4 15//15
f 52//52 47//47 41//41
f 47//47 82//82 41//41
f 71//71 5//5 61//61
f 60//60 78//78 25//25
f 6//6 62//62 5//5
f 59//59 1//1 61//61
f 2//2 59//59 80//80
f 80//80 27//27 69//69
f 42//42 12//12 51//51
f 32//32 84//84 13//13
f 40//40 17//17 26//26
f 55//55 16//16 48//48
f 3//3 9//9 11//11
f 56//56 11//11 4//4
f 9//9 3//3 50//50
f 38//38 44//44 30//30
f 68//68 38//38 30//30
f 68//68 62//62 38//38
f 39//39 51//51 1//1
f 48//48 50//50 12//12
f 3//3 6//6 49//49
f 50//50 49//49 12//12
f 12//12 49//49 71//71
f 49//49 5//5 71//71
f 10//10 72//72 79//79
f 9//9 79//79 83//83
f 14//14 65//65 7//7
f 82//82 47//47 66//66
f 28//28 85//85 84//84
f 44//44 38//38 4//4
f 57//57 44//44 15//15
f 63//63 73//73 65//65
f 82//82 34//34 67//67
f 67//67 35//35 41//41
f 68//68 24//24 62//62
f 2//2 80//80 54//54
f 54//54 69//69 21//21
f 66//66 47//47 70//70
f 36//36 70//70 2//2
f 2//2 70//70 1//1
f 70//70 47//47 39//39
f 51//51 71//71 1//1
f 71//71 61//61 1//1
f 77//77 8//8 79//79
f 79//79 72//72 77//77
f 64//64 65//65 73//73
f 50//50 48//48 43//43
f 66//66 36//36 76//76
f 55//55 18//18 74//74
f 18//18 55//55 60//60
f 74//74 16//16 55//55
f 51//51 39//39 52//52
f 42//42 52//52 60//60
f 82//82 66//66 75//75
f 75//75 34//34 82//82
f 14//14 7//7 45//45
f 14//14 45//45 13//13
f 81//81 59//59 61//61
f 81//81 61//61 5//5
f 36//36 2//2 54//54
f 66//66 76//76 75//75
f 31//31 84//84 32//32
f 57//57 15//15 53//53
f 46//46 73//73 63//63
f 15//15 73//73 53//53
f 15//15 64//64 73//73
f 65//65 64//64 7//7
f 11//11 64//64 4//4
f 77//77 33//33 8//8
f 82//82 67//67 41//41
f 60//60 25//25 18//18
f 57//57 53//53 20//20
f 57//57 20//20 23//23
f 41//41 35//35 78//78
f 25//25 78//78 35//35
f 81//81 24//24 27//27
f 85//85 28//28 17//17
f 51//51 52//52 42//42
f 27//27 80//80 59//59
f 46//46 63//63 29//29
f 1//1 59//59 2//2
f 81//81 27//27 59//59
f 46//46 29//29 19//19
f 40//40 85//85 17//17
f 60//60 52//52 78//78
f 46//46 19//19 20//20
f 53//53 46//46 20//20
f 81//81 5//5 62//62
f 13//13 8//8 33//33
f 40//40 26//26 63//63
f 40//40 63//63 65//65
f 40//40 65//65 85//85
f 45//45 8//8 13//13
f 9//9 83//83 11//11
f 37//37 10//10 43//43
f 84//84 14//14 13//13
f 83//83 79//79 8//8
f 83//83 45//45 7//7
f 84//84 85//85 14//14
f 28//28 84//84 31//31
f 63//63 26//26 29//29
f 14//14 85//85 65//65
f 11//11 7//7 64//64
f 3//3 11//11 56//56
f 10//10 79//79 9//9
# 138 faces, 0 coords texture

# End of File
