####
#
# OBJ File Generated by Meshlab
#
####
# Object 816S.obj
#
# Vertices: 43
# Faces: 66
#
####
vn -4.573505 0.046379 -4.308048
v 45.548017 15.542292 45.876889
vn -4.589035 0.035579 -4.291575
v 47.119476 18.121027 44.230507
vn -4.567595 0.039739 -4.314379
v 46.704511 14.276514 44.636315
vn -4.578795 0.037704 -4.302510
v 46.820007 16.281780 44.530927
vn -4.572883 0.010253 -4.308937
v 49.419567 18.763181 41.774797
vn -2.019309 0.028475 -1.899727
v 43.077413 19.632249 48.553032
vn -2.027206 0.022637 -1.912847
v 45.409550 13.516950 45.998750
vn -1.999625 0.009626 -1.859341
v 47.322450 25.386400 44.039050
vn -2.033747 0.019720 -1.926763
v 46.671500 12.971200 44.657800
vn -2.096405 0.018399 -1.929727
v 45.943062 25.041413 45.526552
vn -2.022205 0.021501 -1.906097
v 44.219782 14.824048 47.277772
vn -2.065331 -0.000844 -1.935719
v 50.644400 22.139850 40.473050
vn -1.945371 0.022549 -1.789868
v 44.547250 24.018550 47.043100
vn -2.031376 0.011714 -1.922150
v 47.996450 13.071000 43.263350
vn -2.062310 0.004379 -1.931105
v 49.778800 23.791400 41.402700
vn -2.036589 0.004538 -1.900112
v 48.674650 24.894650 42.583350
vn -2.008804 -0.002467 -1.915803
v 50.923900 16.946550 40.191100
vn -2.023418 0.005969 -1.916787
v 49.191600 13.798800 42.002900
vn -4.582052 0.055307 -4.298826
v 44.334420 18.863845 47.206394
vn -4.579223 0.041255 -4.302021
v 45.756658 18.001715 45.680315
vn -4.590543 0.019080 -4.289984
v 46.820173 19.945541 44.565272
vn -1.956753 0.024636 -1.844104
v 43.258300 17.058600 48.321700
vn -2.036764 0.024682 -1.899470
v 43.490648 21.841522 48.148314
vn -2.085052 -0.004261 -1.976645
v 51.160200 19.155450 39.936250
vn -4.593550 0.034487 -4.286727
v 45.469794 20.433932 46.002915
vn -4.597678 0.013350 -4.282467
v 46.558944 22.010120 44.846617
vn -4.595429 0.011648 -4.284874
v 47.924229 21.361865 43.377610
vn -4.554502 -0.000201 -4.328377
v 50.170993 17.645697 40.979656
vn -4.613979 0.026758 -4.264716
v 46.105421 23.756015 45.337914
vn -4.563660 0.010590 -4.318671
v 49.165526 16.386081 42.035923
vn -2.057861 0.002047 -1.962636
v 50.232300 15.204300 40.915550
vn -4.570160 -0.001825 -4.311842
v 50.243532 19.973890 40.902767
vn -4.573261 0.051273 -4.308251
v 44.594189 16.914765 46.902936
vn -4.588793 0.011114 -4.291999
v 48.913154 22.626538 42.324306
vn -4.582870 0.002330 -4.298326
v 50.028310 21.626701 41.130615
vn -4.592745 0.017053 -4.287731
v 48.151633 19.375677 43.128006
vn -4.582733 0.008774 -4.298472
v 49.207634 20.622980 42.004647
vn -2.116813 -0.005544 -1.995841
v 51.054100 20.484500 40.042500
vn -4.596455 0.014125 -4.283784
v 47.540926 23.429939 43.796892
vn -4.595996 0.050762 -4.283903
v 44.301476 20.779822 47.268206
vn -4.571403 0.020803 -4.310478
v 47.943683 14.989110 43.328620
vn -4.582722 0.022843 -4.298423
v 48.236625 17.200931 43.026824
vn -4.611897 0.041490 -4.266957
v 45.132372 22.323904 46.384944
# 43 vertices, 0 vertices normals

f 26//26 27//27 21//21
f 1//1 3//3 7//7
f 33//33 1//1 11//11
f 4//4 2//2 42//42
f 20//20 19//19 25//25
f 21//21 36//36 2//2
f 4//4 1//1 20//20
f 35//35 15//15 12//12
f 29//29 13//13 10//10
f 35//35 32//32 37//37
f 24//24 32//32 38//38
f 21//21 20//20 25//25
f 7//7 11//11 1//1
f 22//22 6//6 19//19
f 23//23 43//43 40//40
f 23//23 13//13 43//43
f 25//25 26//26 21//21
f 39//39 8//8 16//16
f 26//26 39//39 27//27
f 33//33 11//11 22//22
f 13//13 29//29 43//43
f 3//3 9//9 7//7
f 31//31 18//18 30//30
f 20//20 1//1 33//33
f 33//33 19//19 20//20
f 40//40 43//43 25//25
f 23//23 40//40 6//6
f 40//40 19//19 6//6
f 3//3 4//4 41//41
f 41//41 4//4 42//42
f 4//4 3//3 1//1
f 34//34 16//16 15//15
f 16//16 34//34 39//39
f 30//30 41//41 42//42
f 15//15 35//35 34//34
f 37//37 27//27 34//34
f 34//34 35//35 37//37
f 35//35 12//12 38//38
f 38//38 32//32 35//35
f 29//29 26//26 43//43
f 19//19 40//40 25//25
f 27//27 39//39 34//34
f 18//18 41//41 30//30
f 41//41 18//18 14//14
f 31//31 28//28 17//17
f 39//39 26//26 29//29
f 5//5 28//28 30//30
f 10//10 8//8 29//29
f 39//39 29//29 8//8
f 4//4 20//20 2//2
f 2//2 20//20 21//21
f 2//2 36//36 42//42
f 42//42 36//36 5//5
f 30//30 28//28 31//31
f 22//22 19//19 33//33
f 28//28 32//32 24//24
f 37//37 5//5 36//36
f 5//5 37//37 32//32
f 36//36 21//21 27//27
f 36//36 27//27 37//37
f 43//43 26//26 25//25
f 3//3 41//41 14//14
f 3//3 14//14 9//9
f 28//28 5//5 32//32
f 28//28 24//24 17//17
f 5//5 30//30 42//42
# 66 faces, 0 coords texture

# End of File
