####
#
# OBJ File Generated by Meshlab
#
####
# Object 819S.obj
#
# Vertices: 179
# Faces: 301
#
####
vn -0.517135 -0.287012 -6.222431
v 1.809165 -49.659385 81.847339
vn 2.580096 -0.470206 -5.703325
v -5.613989 -46.435448 80.171678
vn 2.850804 -0.443674 -5.573539
v -7.151949 -42.802005 79.180846
vn 3.863200 -0.387773 -4.938140
v -11.972387 -38.757628 75.587025
vn 0.435552 -0.686197 -6.209274
v -0.221129 -43.190732 81.301781
vn -2.835961 -0.445042 -5.575891
v 7.327061 -44.733350 79.799517
vn -3.867746 -0.300711 -4.934539
v 11.908333 -41.288905 76.567161
vn -0.067586 -0.866274 -6.202993
v 1.108648 -41.042143 81.062811
vn 0.189547 -0.944394 -6.191501
v 0.389721 -39.553774 80.834811
vn 1.729477 -0.717762 -5.986912
v -3.617159 -42.413127 80.579080
vn 3.295062 -0.311253 -5.325532
v -8.509391 -49.827646 78.911134
vn -0.068877 -1.114377 -6.159614
v 0.992296 -37.488370 80.506584
vn -3.980967 -0.306231 -4.848934
v 12.172078 -43.400650 76.453447
vn 2.950386 -0.658968 -5.497543
v -7.617376 -40.645560 78.723676
vn -2.240083 -0.702820 -5.822458
v 5.955995 -40.691261 79.993927
vn 1.487945 -0.273846 -6.073166
v -2.781302 -51.131649 81.520957
vn 2.094267 -0.922884 -5.833693
v -5.596591 -34.083885 78.660875
vn -2.180039 -0.890316 -5.820053
v 6.266623 -36.891639 79.346625
vn 3.718312 -0.393029 -5.046008
v -12.163753 -35.242464 75.181184
vn -2.844790 -0.405287 -5.582235
v 7.306685 -46.863722 79.951695
vn -3.693074 -0.195476 -5.070418
v 10.190865 -48.814113 78.327675
vn 3.177206 -0.303015 -5.397904
v -8.231887 -44.445271 78.713638
vn -2.467072 -0.257636 -5.760193
v 6.008501 -51.100707 80.837717
vn -2.797902 -0.573610 -5.585927
v 7.599749 -41.032424 79.319611
vn 1.109044 -0.387376 -6.159097
v -1.814973 -49.477715 81.614865
vn 1.318266 -0.495559 -6.108043
v -2.445142 -45.706246 81.196976
vn 2.290002 -0.324069 -5.835688
v -4.564949 -51.515291 80.934925
vn 2.953237 -0.386315 -5.527725
v -7.482872 -48.885699 79.412522
vn 2.141255 -0.947081 -5.812042
v -5.668326 -35.695268 78.899931
vn -1.488721 -0.094382 -2.765198
v 7.592740 -52.262900 80.088500
vn -0.578780 -0.047351 -3.155422
v 3.569215 -52.786800 81.638400
vn -2.125595 -0.102949 -2.996993
v 9.792090 -51.019500 78.652400
vn -1.523832 -0.050305 -2.048448
v 10.577500 -50.709300 78.086600
vn -1.335718 -0.084185 -2.110525
v 9.200870 -51.868100 79.122900
vn -1.221140 -0.251409 -2.214057
v 9.486610 -36.167900 77.716800
vn -1.895296 -0.302432 -3.122382
v 9.746200 -36.556000 77.605900
vn 2.224082 -0.180503 -3.056365
v -10.539600 -47.485500 77.316100
vn 1.288851 -0.040609 -1.642507
v -10.545400 -49.019600 77.289100
vn -0.950507 -0.120923 -2.719545
v 5.272550 -52.822000 81.244400
vn -1.976101 -0.321547 -3.015037
v 11.279600 -38.134900 76.778500
vn -1.376359 -0.224199 -2.156403
v 10.622800 -37.017100 77.087900
vn -0.472138 -0.707440 -3.631424
v 3.426690 -33.831000 79.554200
vn -0.475112 -0.447004 -2.312574
v 4.155710 -33.663200 79.423700
vn 1.804295 -0.107734 -2.379069
v -13.185250 -34.481850 74.368250
vn -0.252661 -0.481594 -2.614970
v 2.448560 -33.463800 79.633200
vn 1.785948 -0.024013 -2.005411
v -12.298300 -44.572200 75.603400
vn 2.313201 -0.018532 -2.590725
v -12.455700 -43.855300 75.474300
vn 0.940945 -0.100061 -1.845088
v -6.662000 -52.209300 79.992300
vn 1.657777 -0.219848 -3.542312
v -5.797780 -52.209300 80.433700
vn 1.896117 -0.158905 -3.775432
v -7.012910 -51.460800 79.773400
vn -1.321145 -0.406912 -2.959835
v 7.775400 -35.492900 78.541600
vn -0.821177 -0.398778 -2.414572
v 5.862720 -34.519800 79.106600
vn -2.085954 -0.128265 -2.431737
v 12.985900 -41.572400 75.665500
vn 1.937325 -0.084759 -2.088865
v -13.506250 -41.734700 74.430900
vn -1.470239 -0.181886 -2.128384
v 11.550100 -38.314900 76.620100
vn -2.251828 -0.203759 -2.903873
v 12.163800 -39.641300 76.239600
vn 1.417160 -0.199290 -2.231225
v -11.839300 -32.619600 75.201100
vn 0.150393 -0.595776 -3.234836
v 0.029398 -33.757950 79.773000
vn 0.589923 -0.626311 -3.187897
v -2.110195 -33.741600 79.483750
vn -1.606974 -0.130469 -1.920387
v 12.358100 -39.787600 76.088800
vn 1.519776 -0.318573 -2.604505
v -10.406039 -31.982352 75.981032
vn 1.299340 -0.322803 -2.418402
v -9.132140 -31.597500 76.651900
vn 1.746352 -0.113784 -2.105545
v -13.810150 -35.770800 73.888100
vn 1.043054 -0.471445 -2.933206
v -5.438176 -32.698471 78.491927
vn 0.802199 -0.525921 -3.240668
v -3.510140 -33.518050 79.137900
vn 1.916178 -0.103251 -2.168378
v -14.059312 -37.654847 73.757593
vn -1.657162 -0.097247 -1.911337
v 13.452100 -42.743300 75.310200
vn 1.024953 -0.034026 -1.512456
v -9.104590 -50.686300 78.527100
vn 2.116163 -0.129784 -3.589542
v -8.300930 -50.635000 79.063400
vn 2.260536 -0.161672 -3.129118
v -9.275200 -50.007000 78.391200
vn -1.043111 -0.628000 -3.585443
v 5.662640 -34.542600 79.171700
vn -1.412795 -0.043189 -1.643561
v 12.360100 -48.705900 76.564900
vn -2.423757 -0.085532 -3.003606
v 11.699700 -48.859600 77.119300
vn 1.198797 -0.411542 -2.595298
v -7.415380 -31.828300 77.536000
vn 0.929264 -0.126538 -2.170762
v -5.370590 -52.684500 80.658200
vn -1.925550 -0.094440 -2.169250
v 13.108700 -46.320100 75.795800
vn 0.993481 -0.068860 -1.896286
v -7.822360 -51.477200 79.366500
vn 0.200052 -0.074580 -3.060541
v -0.341592 -52.900500 81.929000
vn 2.244149 -0.447692 -5.846754
v -4.570358 -45.202816 80.489697
vn -3.567190 -0.383508 -5.155069
v 10.422288 -42.611180 77.723017
vn -3.319618 -0.221918 -5.321870
v 8.841472 -49.925405 79.280738
vn -2.943905 -0.226595 -5.540665
v 7.379225 -50.718185 80.149766
vn -1.677335 -0.906169 -5.970870
v 4.756836 -38.689532 80.139892
vn -0.685321 -0.095095 -6.237129
v 2.106923 -51.442790 81.832658
vn -0.966424 -0.775324 -6.132991
v 2.896931 -41.687519 81.011165
vn 1.117964 -0.639510 -6.140567
v -2.018968 -43.644409 81.099695
vn 1.803597 -0.524248 -5.968018
v -3.569063 -43.974397 80.788821
vn 2.602970 -0.352818 -5.703920
v -5.689830 -48.146992 80.249903
vn 3.590043 -0.210557 -5.150039
v -9.793727 -45.622611 77.713359
vn 2.467950 -0.849124 -5.709221
v -6.299680 -38.975612 79.122123
vn -2.263941 -0.464041 -5.823760
v 5.745645 -47.819935 80.757835
vn 0.954053 -0.808808 -6.144067
v -1.614764 -41.673657 80.936406
vn -1.509415 -0.615666 -6.064792
v 3.931073 -47.121000 81.227295
vn -0.196991 -0.033691 -3.078387
v 1.432292 -52.898200 81.915450
vn 2.412729 -0.440077 -5.775798
v -5.391007 -43.312624 80.037061
vn 1.195806 -0.480276 -6.135389
v -2.109822 -47.774993 81.437734
vn -0.541355 -0.567253 -6.195529
v 1.814080 -47.183251 81.668399
vn 2.017058 -0.372631 -5.921355
v -3.874309 -49.432354 81.087699
vn -2.743228 -0.735187 -5.599511
v 7.931217 -37.204068 78.674054
vn -2.552101 -0.568861 -5.706359
v 6.656934 -42.750497 79.928854
vn -0.939825 -1.048617 -6.110888
v 3.053166 -37.175729 80.258711
vn 1.581204 -0.881898 -6.002493
v -3.298229 -40.457658 80.422709
vn -2.085389 -0.453844 -5.887430
v 5.498188 -46.023596 80.709435
vn -3.220791 -0.332298 -5.380420
v 8.814775 -47.738498 79.172721
vn 1.485544 -1.010625 -6.015230
v -3.009366 -38.289391 80.117976
vn -1.665539 -0.975557 -5.972108
v 4.866118 -36.495040 79.746780
vn -2.006922 -0.481069 -5.909849
v 5.227849 -44.258761 80.674266
vn -1.873687 -0.660416 -5.946986
v 4.781406 -42.404478 80.626122
vn 2.805235 -0.819427 -5.559192
v -7.534370 -35.070522 77.920365
vn -1.289600 -0.440553 -6.129708
v 3.423772 -45.460266 81.191792
vn 3.642883 -0.243605 -5.104564
v -9.904958 -44.079309 77.593389
vn 3.303727 -0.465177 -5.317759
v -8.817859 -42.387565 78.197103
vn 4.113688 -0.250233 -4.741424
v -13.166340 -38.793002 74.604205
vn 1.967287 -0.099866 -2.164561
v -13.940350 -39.777050 73.951650
vn 0.476841 -1.173192 -6.145587
v -0.478303 -35.545263 80.054280
vn 3.299081 -0.708494 -5.297738
v -9.564013 -37.688226 77.166329
vn 3.416177 -0.606531 -5.231555
v -9.487791 -40.107609 77.536768
vn 3.038052 -0.761345 -5.439188
v -8.049567 -38.427489 78.191544
vn 3.066029 -0.380158 -5.460279
v -7.580721 -46.688585 79.212873
vn 2.701034 -0.390288 -5.658639
v -6.481185 -44.864271 79.616008
vn 3.947466 -0.322024 -4.870040
v -12.797490 -37.081751 74.839248
vn -3.161951 -0.440703 -5.410803
v 8.580556 -45.971598 79.170790
vn -3.324213 -0.443630 -5.312388
v 9.235937 -44.485873 78.642830
vn -1.467085 -0.500756 -6.065192
v 3.779261 -48.602956 81.446837
vn 2.002868 -0.473165 -5.916215
v -3.979908 -47.141739 80.904572
vn 2.017832 -0.166719 -2.520003
v -11.117100 -46.403400 76.752200
vn -3.749624 -0.405133 -5.012299
v 10.971832 -44.912587 77.547575
vn 2.655686 -0.322926 -5.682760
v -5.964537 -50.525298 80.256662
vn 3.710180 -0.382498 -5.045471
v -10.492674 -42.172239 77.056029
vn -2.907190 -0.343288 -5.554268
v 7.403763 -48.838879 80.039492
vn -0.325136 -0.670762 -6.232687
v 1.510111 -42.907573 81.259998
vn 1.996954 -0.981960 -5.870528
v -4.683328 -39.338316 79.806838
vn 3.611455 -0.545431 -5.110928
v -10.664564 -38.848388 76.568950
vn -3.366730 -0.532340 -5.276527
v 10.202998 -38.857923 77.561230
vn -0.225745 -0.526852 -6.228972
v 1.176873 -44.981085 81.499927
vn 0.761541 -1.064761 -6.136879
v -1.015678 -37.706924 80.399566
vn 0.541735 -0.537353 -6.230859
v -0.465097 -46.526089 81.538004
vn 1.048352 -0.107717 -2.991488
v -4.255645 -52.691050 81.105500
vn 0.608028 -0.079936 -3.088916
v -2.282570 -52.778250 81.675350
vn -3.580186 -0.401003 -5.144551
v 10.927093 -40.336186 77.213605
vn -4.090397 -0.273029 -4.760781
v 12.254644 -45.551261 76.516445
vn -2.033621 -0.126955 -2.344969
v 13.269450 -44.979050 75.604800
vn 3.527969 -0.489715 -5.169825
v -11.096150 -36.749502 76.075282
vn -1.618212 -0.843996 -5.997911
v 4.328774 -40.631254 80.541203
vn 0.922964 -0.957650 -6.125745
v -1.486222 -39.732372 80.688499
vn 2.896486 -0.268860 -5.566018
v -7.543784 -50.429477 79.474402
vn 1.920464 -0.948423 -5.903846
v -4.682472 -37.121817 79.429782
vn -3.148967 -0.441488 -5.409980
v 8.454916 -42.863721 79.021993
vn -3.301265 -0.471912 -5.321289
v 9.308662 -40.931506 78.328828
vn 4.080624 -0.239835 -4.760593
v -11.955458 -42.227164 75.896405
vn 3.483679 -0.484060 -5.201864
v -11.623369 -33.655170 75.430744
vn 2.627000 -0.874349 -5.614342
v -6.892000 -36.960105 78.603040
vn 0.674098 -0.481189 -6.223417
v -0.818889 -44.750225 81.360761
vn -3.001449 -0.637551 -5.473966
v 8.424066 -39.133162 78.677165
vn 1.645463 -1.079366 -5.966115
v -3.958901 -34.920371 79.259920
vn 0.691806 -0.249793 -6.235499
v -0.856140 -50.737355 81.798799
vn 1.286231 -1.112223 -6.021311
v -2.533038 -36.017266 79.886374
vn -2.408625 -0.772403 -5.739310
v 6.763439 -38.887411 79.456333
vn 3.542416 -0.448774 -5.152925
v -9.145900 -48.186182 78.366661
vn -3.167508 -0.605964 -5.390033
v 9.384309 -37.495762 77.916594
vn -1.463623 -0.250942 -6.085095
v 3.922390 -50.699080 81.523404
vn 2.328993 -0.706223 -5.769707
v -5.535640 -41.192257 79.797614
vn -0.378215 -1.190702 -6.148819
v 1.897684 -35.222822 80.010382
vn -0.799274 -0.985035 -6.137923
v 2.596611 -39.439397 80.703036
vn 3.083238 -0.849589 -5.407997
v -8.385509 -36.626805 77.692138
vn 2.987167 -0.659096 -5.486519
v -9.143592 -33.628114 76.904568
vn -3.540395 -0.334714 -5.160329
v 10.084462 -46.533845 78.317516
vn 2.632510 -0.796290 -5.640906
v -7.411821 -33.103579 77.739868
vn 3.098943 -0.642060 -5.426732
v -9.437617 -35.579495 76.954923
vn 3.284886 -0.554698 -5.319278
v -10.667253 -34.433384 76.136402
vn 0.419473 -0.459007 -6.235475
v -0.148837 -48.687288 81.773467
vn 4.122354 -0.305516 -4.727985
v -12.707591 -40.369568 75.108093
vn 3.809036 -0.485041 -4.969430
v -11.210319 -40.483145 76.345020
vn -1.152892 -1.117330 -6.054529
v 3.846793 -35.272756 79.798281
vn 4.019612 -0.163959 -4.823606
v -11.256992 -44.040129 76.524380
vn -1.117061 -0.468470 -6.136476
v 3.128029 -43.749239 81.188124
vn 0.082863 -0.188053 -6.269011
v 0.492240 -51.062176 81.908401
vn -2.305458 -0.318625 -5.813509
v 5.749849 -49.627945 80.889890
vn -4.016257 -0.187709 -4.821451
v 11.825933 -47.167792 76.983648
# 179 vertices, 0 vertices normals

f 87//87 10//10 86//86
f 41//41 160//160 36//36
f 128//128 48//48 50//50
f 163//163 45//45 42//42
f 140//140 134//134 55//55
f 151//151 57//57 61//61
f 53//53 7//7 60//60
f 99//99 35//35 160//160
f 65//65 155//155 17//17
f 120//120 22//22 3//3
f 176//176 131//131 85//85
f 104//104 21//21 81//81
f 101//101 83//83 164//164
f 2//2 125//125 88//88
f 33//33 21//21 73//73
f 98//98 96//96 25//25
f 92//92 10//10 102//102
f 11//11 69//69 68//68
f 124//124 1//1 97//97
f 93//93 103//103 91//91
f 179//179 72//72 73//73
f 11//11 68//68 70//70
f 17//17 168//168 64//64
f 137//137 171//171 96//96
f 48//48 128//128 49//49
f 102//102 162//162 132//132
f 15//15 108//108 144//144
f 143//143 116//116 133//133
f 28//28 119//119 88//88
f 132//132 147//147 105//105
f 157//157 136//136 105//105
f 11//11 146//146 69//69
f 121//121 4//4 113//113
f 172//172 150//150 54//54
f 109//109 165//165 169//169
f 81//81 32//32 34//34
f 157//157 147//147 155//155
f 134//134 140//140 149//149
f 155//155 65//65 59//59
f 6//6 107//107 100//100
f 154//154 160//160 134//134
f 56//56 60//60 7//7
f 81//81 21//21 32//32
f 34//34 82//82 81//81
f 82//82 34//34 30//30
f 8//8 85//85 131//131
f 5//5 153//153 86//86
f 35//35 36//36 160//160
f 80//80 7//7 13//13
f 159//159 38//38 37//37
f 91//91 103//103 20//20
f 134//134 41//41 40//40
f 43//43 174//174 42//42
f 121//121 63//63 19//19
f 94//94 84//84 31//31
f 1//1 84//84 177//177
f 26//26 96//96 125//125
f 138//138 16//16 139//139
f 10//10 95//95 162//162
f 134//134 160//160 41//41
f 55//55 134//134 40//40
f 101//101 163//163 174//174
f 6//6 103//103 107//107
f 175//175 47//47 150//150
f 176//176 108//108 107//107
f 15//15 83//83 158//158
f 110//110 176//176 107//107
f 7//7 140//140 56//56
f 55//55 56//56 140//140
f 100//100 15//15 24//24
f 112//112 22//22 111//111
f 112//112 111//111 129//129
f 114//114 66//66 113//113
f 115//115 59//59 58//58
f 148//148 80//80 123//123
f 83//83 15//15 144//144
f 166//166 170//170 61//61
f 61//61 170//170 151//151
f 89//89 119//119 37//37
f 117//117 116//116 118//118
f 90//90 14//14 118//118
f 14//14 117//117 118//118
f 99//99 51//51 35//35
f 119//119 2//2 88//88
f 122//122 20//20 6//6
f 20//20 122//122 104//104
f 104//104 122//122 167//167
f 108//108 176//176 85//85
f 2//2 120//120 79//79
f 79//79 120//120 95//95
f 9//9 136//136 12//12
f 101//101 106//106 83//83
f 2//2 79//79 125//125
f 175//175 126//126 46//46
f 127//127 141//141 179//179
f 128//128 88//88 98//98
f 125//125 98//98 88//88
f 98//98 125//125 96//96
f 53//53 13//13 7//7
f 141//141 127//127 13//13
f 91//91 20//20 130//130
f 23//23 178//178 82//82
f 91//91 178//178 124//124
f 92//92 8//8 5//5
f 131//131 5//5 8//8
f 174//174 43//43 71//71
f 22//22 120//120 119//119
f 120//120 2//2 119//119
f 90//90 132//132 162//162
f 73//73 21//21 167//167
f 92//92 5//5 86//86
f 92//92 86//86 10//10
f 1//1 124//124 161//161
f 133//133 116//116 117//117
f 93//93 97//97 110//110
f 124//124 93//93 91//91
f 93//93 110//110 103//103
f 115//115 12//12 136//136
f 12//12 115//115 163//163
f 168//168 74//74 64//64
f 95//95 3//3 162//162
f 8//8 92//92 9//9
f 9//9 92//92 145//145
f 92//92 102//102 145//145
f 87//87 26//26 79//79
f 125//125 79//79 26//26
f 137//137 97//97 171//171
f 97//97 1//1 171//171
f 26//26 137//137 96//96
f 96//96 171//171 25//25
f 98//98 27//27 128//128
f 27//27 138//138 75//75
f 27//27 16//16 138//138
f 16//16 27//27 98//98
f 49//49 27//27 75//75
f 128//128 27//27 49//49
f 159//159 70//70 38//38
f 118//118 152//152 90//90
f 140//140 7//7 80//80
f 141//141 142//142 76//76
f 105//105 102//102 132//132
f 102//102 10//10 162//162
f 103//103 110//110 107//107
f 15//15 100//100 108//108
f 121//121 143//143 4//4
f 143//143 121//121 19//19
f 4//4 143//143 133//133
f 128//128 28//28 88//88
f 83//83 144//144 164//164
f 85//85 164//164 144//144
f 20//20 103//103 6//6
f 104//104 130//130 20//20
f 108//108 85//85 144//144
f 112//112 129//129 117//117
f 102//102 105//105 145//145
f 132//132 90//90 147//147
f 157//157 115//115 136//136
f 107//107 108//108 100//100
f 128//128 50//50 146//146
f 77//77 146//146 50//50
f 11//11 28//28 146//146
f 28//28 128//128 146//146
f 146//146 77//77 69//69
f 129//129 150//150 173//173
f 66//66 121//121 113//113
f 147//147 90//90 152//152
f 147//147 152//152 29//29
f 105//105 147//147 157//157
f 122//122 6//6 123//123
f 4//4 172//172 113//113
f 152//152 165//165 109//109
f 17//17 29//29 109//109
f 24//24 148//148 100//100
f 80//80 148//148 149//149
f 149//149 148//148 24//24
f 52//52 18//18 106//106
f 150//150 47//47 54//54
f 116//116 169//169 165//165
f 29//29 152//152 109//109
f 17//17 64//64 65//65
f 168//168 166//166 62//62
f 168//168 62//62 74//74
f 81//81 130//130 104//104
f 31//31 84//84 161//161
f 156//156 16//16 25//25
f 25//25 16//16 98//98
f 13//13 67//67 142//142
f 153//153 137//137 26//26
f 113//113 172//172 114//114
f 59//59 157//157 155//155
f 129//129 173//173 117//117
f 97//97 137//137 135//135
f 137//137 153//153 135//135
f 87//87 86//86 26//26
f 154//154 149//149 24//24
f 9//9 145//145 136//136
f 136//136 145//145 105//105
f 17//17 155//155 29//29
f 155//155 147//147 29//29
f 151//151 170//170 19//19
f 143//143 169//169 116//116
f 154//154 134//134 149//149
f 149//149 140//140 80//80
f 57//57 151//151 44//44
f 44//44 151//151 19//19
f 141//141 13//13 142//142
f 115//115 157//157 59//59
f 163//163 115//115 58//58
f 45//45 163//163 58//58
f 154//154 99//99 160//160
f 167//167 122//122 123//123
f 121//121 66//66 63//63
f 16//16 156//156 139//139
f 78//78 156//156 177//177
f 80//80 127//127 123//123
f 11//11 159//159 28//28
f 18//18 51//51 99//99
f 18//18 52//52 51//51
f 19//19 63//63 44//44
f 99//99 154//154 158//158
f 11//11 70//70 159//159
f 106//106 18//18 83//83
f 126//126 89//89 37//37
f 159//159 119//119 28//28
f 166//166 61//61 62//62
f 67//67 13//13 53//53
f 127//127 167//167 123//123
f 13//13 127//127 80//80
f 162//162 14//14 90//90
f 161//161 39//39 31//31
f 3//3 112//112 14//14
f 161//161 23//23 39//39
f 162//162 3//3 14//14
f 112//112 3//3 22//22
f 32//32 21//21 33//33
f 3//3 95//95 120//120
f 127//127 179//179 167//167
f 163//163 101//101 12//12
f 101//101 164//164 12//12
f 164//164 9//9 12//12
f 118//118 165//165 152//152
f 109//109 166//166 168//168
f 101//101 174//174 106//106
f 167//167 21//21 104//104
f 164//164 85//85 8//8
f 109//109 168//168 17//17
f 135//135 153//153 5//5
f 71//71 106//106 174//174
f 116//116 165//165 118//118
f 166//166 169//169 170//170
f 135//135 5//5 131//131
f 112//112 117//117 14//14
f 148//148 123//123 6//6
f 109//109 169//169 166//166
f 173//173 172//172 4//4
f 170//170 143//143 19//19
f 124//124 97//97 93//93
f 111//111 22//22 89//89
f 97//97 135//135 110//110
f 173//173 150//150 172//172
f 100//100 148//148 6//6
f 172//172 54//54 114//114
f 133//133 173//173 4//4
f 173//173 133//133 117//117
f 170//170 169//169 143//143
f 52//52 106//106 71//71
f 47//47 175//175 46//46
f 174//174 163//163 42//42
f 111//111 175//175 129//129
f 150//150 129//129 175//175
f 131//131 176//176 135//135
f 176//176 110//110 135//135
f 156//156 78//78 139//139
f 91//91 130//130 178//178
f 178//178 130//130 82//82
f 124//124 178//178 161//161
f 1//1 177//177 171//171
f 23//23 30//30 39//39
f 81//81 82//82 130//130
f 87//87 79//79 95//95
f 23//23 82//82 30//30
f 84//84 1//1 161//161
f 87//87 95//95 10//10
f 158//158 154//154 24//24
f 15//15 158//158 24//24
f 86//86 153//153 26//26
f 78//78 177//177 94//94
f 18//18 99//99 158//158
f 18//18 158//158 83//83
f 177//177 84//84 94//94
f 72//72 179//179 76//76
f 178//178 23//23 161//161
f 156//156 25//25 171//171
f 179//179 73//73 167//167
f 177//177 156//156 171//171
f 126//126 111//111 89//89
f 164//164 8//8 9//9
f 179//179 141//141 76//76
f 89//89 22//22 119//119
f 159//159 37//37 119//119
f 175//175 111//111 126//126
# 301 faces, 0 coords texture

# End of File
