####
#
# OBJ File Generated by Meshlab
#
####
# Object 821S.obj
#
# Vertices: 188
# Faces: 315
#
####
vn 2.442385 -0.118877 -1.972886
v -52.449500 38.000000 36.623650
vn 4.445888 0.125402 -4.437468
v -33.537846 35.148999 57.739403
vn 4.630093 0.090558 -4.246217
v -39.637587 37.600599 51.392287
vn 4.754267 0.022920 -4.107880
v -46.627358 48.053536 43.532255
vn 4.741177 0.025057 -4.122972
v -45.260083 45.179541 45.100509
vn 4.493471 0.084293 -4.390852
v -34.608528 40.193471 56.772617
vn 4.772822 0.060190 -4.085537
v -49.798813 42.365940 39.858978
vn 4.315179 0.137189 -4.564536
v -29.764669 36.607492 61.469851
vn 0.413064 -0.043674 -0.301036
v -55.770050 38.000000 32.242000
vn 4.688525 0.032431 -4.182700
v -41.365324 43.988849 49.540512
vn 4.437209 0.053565 -4.447775
v -32.654397 44.602476 58.830804
vn 4.447776 0.077602 -4.437125
v -32.791799 42.711695 58.660602
vn 4.749518 0.010351 -4.113426
v -45.876516 43.160276 44.379699
vn 4.438642 0.126548 -4.444828
v -33.153182 37.475903 58.192331
vn 4.623708 0.060123 -4.253784
v -38.454179 41.832949 52.754561
vn 3.604903 -0.088517 -3.033464
v -50.728500 38.000000 38.718000
vn 4.722666 0.033576 -4.144067
v -44.240762 40.406260 46.251119
vn 2.369006 0.031916 -2.065592
v -50.825400 47.887950 38.718000
vn 2.523705 -0.271137 -1.852327
v -54.879400 38.000000 33.464100
vn 4.368285 0.163031 -4.512498
v -31.224117 34.795422 60.008683
vn 2.407437 0.024799 -2.034978
v -50.728900 40.589000 38.718000
vn 4.315159 0.079525 -4.566072
v -30.116102 41.354984 61.235467
vn 4.546693 0.060213 -4.335736
v -36.171953 43.874544 55.229642
vn 4.401223 0.117582 -4.482482
v -31.758087 37.845644 59.577365
vn 4.236898 0.041024 -4.638755
v -28.718680 44.903683 62.591947
vn 4.334590 0.094528 -4.547358
v -30.407556 38.078614 60.893585
vn 4.692343 0.043442 -4.178265
v -41.396891 45.689608 49.523980
vn 4.660479 0.031338 -4.213819
v -39.426848 42.849752 51.698402
vn 4.663110 0.049158 -4.210732
v -39.764899 41.195808 51.307252
vn 4.682302 0.068025 -4.189243
v -41.734263 36.933849 49.048974
vn 4.780328 -0.103134 -4.076194
v -49.715796 37.073344 39.949881
vn 4.683137 0.034161 -4.188689
v -40.647952 42.608818 50.335613
vn 4.475016 0.055630 -4.410098
v -33.789716 45.620601 57.694263
vn 4.381059 0.085908 -4.502810
v -31.618680 41.620614 59.798499
vn 2.168563 0.018517 -2.107359
v -34.611200 49.042800 56.896050
vn 1.770167 0.072356 -1.860667
v -29.249000 35.313000 61.910100
vn 2.532500 0.123471 -2.653342
v -30.001900 34.941500 61.169600
vn 2.300901 0.013668 -2.040073
v -44.102471 33.674773 46.367651
vn 2.755351 -0.150797 -2.221611
v -53.371000 36.662800 35.561700
vn 2.144647 0.030316 -1.877398
v -50.369800 49.468100 39.268900
vn 2.386972 0.043762 -2.247041
v -37.579150 33.867550 53.520550
vn 2.124116 0.025335 -2.351702
v -27.266550 43.195550 63.879350
vn 2.097697 -0.207858 -1.602569
v -54.502100 36.706650 34.169450
vn 1.714459 0.015721 -1.823600
v -30.267700 48.271500 61.167700
vn 2.797373 0.020402 -2.432792
v -47.874100 48.998600 42.100100
vn 1.281461 0.019234 -1.114952
v -50.847600 49.367000 38.718000
vn 2.640272 0.016274 -2.491547
v -36.183800 48.855400 55.248800
vn 1.791590 0.008798 -1.673641
v -37.128400 49.451100 54.238700
vn 2.742821 0.023642 -2.528198
v -38.297600 48.952900 52.987800
vn 1.687780 0.020049 -1.876663
v -27.402400 44.511300 63.763600
vn 2.335984 -0.064883 -2.001181
v -50.396900 35.181900 39.219200
vn 2.364876 0.030119 -2.130048
v -42.410157 33.778792 48.252070
vn 2.040324 0.063860 -2.072346
v -32.626743 33.240518 58.575962
vn 1.986764 0.031478 -2.213708
v -27.022700 41.325750 64.066100
vn 2.323284 0.070199 -2.356616
v -32.041700 33.542800 59.158900
vn 1.772770 0.064221 -1.830588
v -31.187800 33.764900 60.007700
vn 2.460193 0.094635 -2.624711
v -30.796000 34.302700 60.392200
vn 1.781053 0.084893 -1.882020
v -30.225400 34.562700 60.937800
vn 2.058761 0.054828 -2.023818
v -34.372500 32.947950 56.834550
vn 2.025273 0.016324 -2.019965
v -32.900100 48.956600 58.627300
vn 2.266356 0.016216 -1.956619
v -45.956200 50.051750 44.326000
vn 2.511850 0.020375 -2.190721
v -43.465700 49.630050 47.196950
vn 2.132277 0.014368 -1.843359
v -46.816900 49.842400 43.326700
vn 2.230842 -0.011156 -1.969177
v -47.687300 34.311850 42.330150
vn 2.077068 0.049621 -2.214024
v -28.507300 36.663700 62.651100
vn 1.688290 0.023036 -1.887570
v -27.017900 39.718300 64.049700
vn 2.371205 -0.000574 -2.116636
v -46.439400 33.988150 43.735350
vn 2.211434 0.004787 -1.966811
v -45.631300 33.733600 44.634900
vn 2.370028 -0.092707 -1.939759
v -52.448050 35.986100 36.737150
vn 4.854664 -0.193733 -3.983769
v -52.055529 36.794132 37.178120
vn 4.444032 0.088435 -4.440506
v -32.968271 40.779279 58.451701
vn 2.089278 0.011739 -2.245956
v -29.167088 46.960526 62.183398
vn 4.740890 0.030962 -4.123239
v -43.874971 44.862003 46.684569
vn 4.577177 0.104493 -4.302932
v -37.020639 37.011454 54.189413
vn 4.548825 0.115624 -4.332622
v -36.514420 35.172849 54.675816
vn 4.299649 0.089249 -4.580743
v -29.585457 39.560925 61.695905
vn 4.581863 0.092016 -4.298288
v -37.234714 40.652335 54.045107
vn 4.722092 0.032014 -4.144779
v -43.733004 38.659130 46.811634
vn 2.467418 -0.176860 -1.938983
v -53.708931 38.000000 35.043669
vn 4.733670 0.026910 -4.131572
v -43.004286 47.985841 47.708758
vn 4.736286 0.011755 -4.128545
v -44.855767 41.645687 45.556650
vn 4.747402 0.000240 -4.115874
v -46.356637 41.298309 43.822476
vn 2.419774 -0.096527 -2.001814
v -51.415700 38.000000 37.895900
vn 4.807468 -0.163592 -4.042042
v -50.946304 36.757277 38.514510
vn 4.726779 0.021828 -4.139478
v -45.326927 39.269391 44.996984
vn 2.496976 0.043023 -2.314811
v -39.120637 34.130927 51.876873
vn 4.944369 -0.426314 -3.849988
v -54.071293 37.351840 34.645705
vn 2.357414 0.028326 -2.417910
v -31.778482 48.439261 59.739935
vn 4.549429 0.025851 -4.333076
v -36.016869 45.865981 55.414798
vn 4.480192 0.074524 -4.404614
v -33.835337 41.218774 57.578441
vn 4.729531 0.026549 -4.136282
v -48.741324 46.881574 41.088011
vn 4.463395 0.047053 -4.421802
v -33.428034 47.569926 58.086772
vn 4.517126 0.035158 -4.367085
v -35.123923 47.087326 56.346193
vn 4.735367 0.010140 -4.129689
v -44.697131 43.412897 45.733903
vn 4.413509 0.053175 -4.471524
v -32.355458 46.382857 59.143505
vn 4.647435 0.038726 -4.228258
v -39.148236 47.867753 52.042236
vn 2.130303 0.017041 -1.933471
v -39.321200 49.432250 51.866250
vn 4.729920 0.022347 -4.135893
v -43.552931 42.441755 47.044294
vn 4.742651 0.007490 -4.121234
v -47.276786 42.942619 42.755240
vn 4.488493 0.129627 -4.394783
v -34.310168 36.376554 56.976654
vn 4.772104 -0.003430 -4.087176
v -48.471740 39.694960 41.373227
vn 4.612634 0.027920 -4.266202
v -37.906095 47.401599 53.395727
vn 2.410906 0.020285 -2.118572
v -48.958265 49.139458 40.860658
vn 4.609715 0.087312 -4.268406
v -38.695120 39.354258 52.451800
vn 4.589803 0.090722 -4.289918
v -38.002640 35.409287 53.092270
vn 4.742026 0.030884 -4.121968
v -44.128580 46.553021 46.409130
vn 2.081681 0.015143 -2.318716
v -28.025200 45.396050 63.217750
vn 4.542374 0.098532 -4.339787
v -36.018601 39.008084 55.293191
vn 4.793057 -0.008566 -4.062402
v -49.665005 39.329987 39.969907
vn 2.174716 0.015592 -1.884268
v -44.585800 50.072700 45.911950
vn 4.671707 0.034273 -4.201456
v -40.057493 44.590292 51.003578
vn 4.595257 0.105810 -4.283786
v -38.403739 37.097995 52.704987
vn 4.532500 0.082194 -4.350254
v -35.968732 41.584456 55.403831
vn 4.742598 -0.013468 -4.121264
v -47.051475 39.072633 43.031495
vn 2.380258 0.017326 -2.052919
v -50.796250 45.559100 38.718000
vn 4.719639 0.016464 -4.147611
v -44.585467 37.097545 45.826697
vn 4.374527 0.148937 -4.506485
v -30.999190 36.359280 60.288398
vn 4.491592 0.072386 -4.393018
v -34.965130 42.586470 56.449205
vn 4.754804 0.018284 -4.107140
v -49.795771 44.489971 39.877533
vn 4.734840 0.017853 -4.130178
v -48.468355 43.113613 41.399461
vn 2.389867 0.026063 -2.031859
v -50.774632 43.157735 38.719798
vn 4.244012 0.070750 -4.632387
v -28.529310 41.251637 62.711297
vn 4.701811 0.029169 -4.167560
v -43.668725 35.474777 46.871689
vn 4.593865 0.061037 -4.285970
v -37.302848 42.821489 54.011369
vn 4.713634 0.035360 -4.154362
v -42.869613 40.379677 47.805488
vn 4.700419 0.039780 -4.169155
v -42.295293 38.634661 48.446923
vn 4.605653 0.031601 -4.273634
v -37.384829 45.160596 53.948085
vn 4.722432 0.032588 -4.144290
v -42.513453 44.397415 48.250479
vn 2.177882 0.054005 -2.098366
v -35.939880 33.256202 55.222553
vn 4.748032 0.021956 -4.115104
v -45.381874 47.064865 44.968658
vn 4.412095 0.102006 -4.472226
v -32.278256 39.438501 59.103129
vn 4.357423 0.095532 -4.525426
v -30.954720 39.667330 60.403499
vn 4.659759 0.059557 -4.214116
v -39.941445 39.385309 51.092629
vn 4.699516 -0.003543 -4.170423
v -46.443405 35.474111 43.731773
vn 4.665583 0.087157 -4.207310
v -40.583263 36.739319 50.334222
vn 2.232489 -0.070409 -1.868260
v -51.359900 35.360650 38.073250
vn 4.478006 0.071260 -4.406904
v -33.916132 43.687371 57.534302
vn 4.719537 -0.022433 -4.147693
v -47.673293 35.336013 42.340216
vn 4.360116 0.046502 -4.523781
v -31.358827 45.010234 60.099090
vn 4.328896 0.065678 -4.553484
v -30.644006 43.297596 60.760880
vn 4.754133 0.031816 -4.107994
v -45.541108 48.850632 44.796847
vn 4.769838 -0.055759 -4.089437
v -48.508679 38.039810 41.341579
vn 4.673771 0.056271 -4.198923
v -42.385397 35.527327 48.303843
vn 4.669043 0.043278 -4.204294
v -40.173056 46.812641 50.902710
vn 4.704295 0.035058 -4.164822
v -41.453435 47.773095 49.480867
vn 4.708668 -0.000161 -4.160136
v -46.049863 37.190549 44.170209
vn 4.297552 0.086838 -4.582783
v -29.059066 37.989698 62.157131
vn 2.174912 0.038240 -2.348276
v -27.944100 37.935600 63.201750
vn 4.495606 0.061487 -4.388971
v -35.052579 44.631454 56.395438
vn 4.663535 0.080690 -4.209889
v -41.088887 35.309318 49.737169
vn 2.217351 0.038442 -2.011936
v -40.721500 33.778300 50.115800
vn 4.680741 0.060283 -4.191055
v -40.914854 38.350052 49.990283
vn 4.243323 0.067182 -4.632784
v -28.234490 39.514200 62.959061
vn 4.708302 0.041003 -4.160180
v -42.130033 42.390984 48.672086
vn 4.259493 0.063858 -4.618101
v -28.958773 43.189813 62.347655
vn 4.754336 -0.063898 -4.107162
v -48.580574 36.405191 41.292013
vn 2.586085 -0.038267 -2.243249
v -49.123404 35.076379 40.682227
vn 4.755311 0.020474 -4.106636
v -46.535546 46.028012 43.635641
vn 2.418389 0.017263 -2.120581
v -42.048350 49.495150 48.816150
vn 4.747348 0.026613 -4.115793
v -47.714379 47.361605 42.269239
vn 4.744288 0.013662 -4.119342
v -47.689718 45.096371 42.286452
vn 2.301933 0.019040 -2.058256
v -40.743050 49.519450 50.296850
vn 4.665059 0.041156 -4.208748
v -40.175104 48.380063 50.915358
vn 4.742578 0.034783 -4.121291
v -44.281413 48.236467 46.247559
vn 4.731478 -0.031758 -4.133920
v -47.471386 36.908652 42.561091
vn 4.737103 0.030780 -4.127588
v -49.802650 46.375214 39.872149
vn 4.309292 0.047129 -4.572150
v -29.974681 44.948133 61.418484
vn 4.380854 0.065578 -4.502933
v -31.778006 43.584851 59.683287
vn 4.751774 0.003636 -4.110802
v -47.836699 41.137594 42.111720
vn 4.584405 0.102820 -4.295457
v -37.570957 38.695416 53.634432
vn 4.731398 0.027531 -4.134027
v -42.749334 46.288756 47.998348
vn 4.774070 0.052702 -4.084472
v -49.413761 41.248269 40.287297
vn 4.503152 0.112782 -4.380311
v -34.910511 34.888342 56.325349
vn 4.412392 0.143841 -4.470667
v -32.277142 35.601033 58.985176
vn 4.704773 0.034016 -4.164295
v -43.143204 37.033629 47.473938
vn 4.721119 0.049935 -4.145694
v -49.673993 48.008120 40.038408
vn 4.623983 0.094116 -4.252859
v -39.622802 35.565274 51.361571
vn 4.708714 0.009185 -4.160046
v -45.072474 35.471961 45.270685
vn 4.692653 0.044393 -4.177963
v -41.253494 40.487284 49.632054
vn 4.461100 0.091741 -4.423557
v -33.593721 39.146192 57.784689
vn 4.331476 0.046508 -4.551070
v -30.871718 46.709592 60.586367
vn 4.518630 0.123331 -4.363801
v -35.600699 36.729946 55.674140
vn 4.639275 0.033790 -4.237133
v -38.569200 43.825484 52.649315
vn 4.646378 0.033886 -4.229406
v -38.821642 45.903337 52.386680
vn 4.489993 0.115335 -4.393416
v -34.478979 38.007663 56.864000
vn 4.730733 0.002181 -4.135041
v -48.901944 45.162836 40.901410
vn 4.756416 0.025137 -4.105393
v -46.562800 44.477361 43.591205
vn 4.576540 0.016047 -4.304973
v -36.487982 47.308657 54.915081
# 188 vertices, 0 vertices normals

f 93//93 47//47 35//35
f 68//68 178//178 38//38
f 18//18 46//46 40//40
f 84//84 51//51 136//136
f 78//78 85//85 17//17
f 117//117 26//26 8//8
f 20//20 57//57 56//56
f 154//154 128//128 10//10
f 22//22 155//155 122//122
f 61//61 141//141 63//63
f 102//102 49//49 48//48
f 158//158 130//130 5//5
f 184//184 96//96 102//102
f 155//155 50//50 42//42
f 141//141 61//61 110//110
f 111//111 144//144 184//184
f 126//126 30//30 175//175
f 122//122 54//54 153//153
f 132//132 131//131 34//34
f 75//75 182//182 173//173
f 23//23 113//113 124//124
f 89//89 23//23 127//127
f 8//8 147//147 65//65
f 29//29 104//104 133//133
f 118//118 90//90 6//6
f 70//70 69//69 39//39
f 1//1 70//70 39//39
f 9//9 19//19 43//43
f 108//108 77//77 113//113
f 164//164 130//130 141//141
f 160//160 158//158 161//161
f 91//91 161//161 186//186
f 145//145 162//162 163//163
f 144//144 163//163 96//96
f 122//122 153//153 76//76
f 167//167 155//155 140//140
f 72//72 107//107 25//25
f 12//12 11//11 168//168
f 8//8 36//36 37//37
f 15//15 77//77 104//104
f 79//79 1//1 39//39
f 70//70 83//83 84//84
f 83//83 16//16 84//84
f 105//105 41//41 86//86
f 90//90 12//12 71//71
f 116//116 85//85 78//78
f 88//88 44//44 181//181
f 12//12 90//90 137//137
f 17//17 85//85 81//81
f 85//85 114//114 82//82
f 96//96 97//97 49//49
f 158//158 187//187 161//161
f 188//188 48//48 47//47
f 140//140 22//22 34//34
f 80//80 145//145 171//171
f 19//19 87//87 43//43
f 87//87 19//19 79//79
f 103//103 45//45 160//160
f 74//74 75//75 105//105
f 139//139 181//181 167//167
f 107//107 50//50 25//25
f 6//6 180//180 185//185
f 16//16 31//31 84//84
f 21//21 121//121 7//7
f 110//110 62//62 164//164
f 125//125 78//78 17//17
f 106//106 80//80 171//171
f 112//112 3//3 104//104
f 170//170 108//108 74//74
f 74//74 108//108 182//182
f 166//166 91//91 186//186
f 118//118 23//23 149//149
f 115//115 18//18 166//166
f 146//146 85//85 116//116
f 11//11 137//137 33//33
f 59//59 2//2 53//53
f 90//90 118//118 137//137
f 115//115 166//166 119//119
f 186//186 120//120 119//119
f 150//150 30//30 135//135
f 18//18 176//176 166//166
f 121//121 115//115 119//119
f 42//42 54//54 122//122
f 72//72 167//167 181//181
f 117//117 24//24 26//26
f 42//42 122//122 155//155
f 78//78 125//125 126//126
f 126//126 125//125 179//179
f 98//98 94//94 73//73
f 32//32 111//111 28//28
f 117//117 8//8 37//37
f 58//58 117//117 37//37
f 58//58 20//20 117//117
f 58//58 57//57 20//20
f 98//98 73//73 128//128
f 111//111 10//10 27//27
f 154//154 98//98 128//128
f 45//45 4//4 160//160
f 129//129 41//41 75//75
f 76//76 22//22 122//122
f 22//22 140//140 155//155
f 13//13 82//82 99//99
f 82//82 114//114 169//169
f 82//82 169//169 99//99
f 172//172 120//120 169//169
f 101//101 169//169 114//114
f 71//71 131//131 180//180
f 7//7 120//120 172//172
f 120//120 99//99 169//169
f 4//4 63//63 141//141
f 124//124 15//15 183//183
f 76//76 147//147 26//26
f 22//22 76//76 132//132
f 132//132 76//76 26//26
f 104//104 3//3 133//133
f 188//188 102//102 48//48
f 62//62 80//80 164//164
f 159//159 80//80 62//62
f 130//130 164//164 106//106
f 116//116 178//178 146//146
f 3//3 135//135 152//152
f 133//133 3//3 152//152
f 136//136 69//69 70//70
f 145//145 27//27 171//171
f 171//171 27//27 128//128
f 171//171 128//128 73//73
f 52//52 123//123 143//143
f 123//123 52//52 38//38
f 38//38 178//178 123//123
f 11//11 12//12 137//137
f 157//157 138//138 64//64
f 93//93 89//89 188//188
f 34//34 168//168 140//140
f 168//168 11//11 139//139
f 28//28 29//29 32//32
f 99//99 120//120 161//161
f 4//4 141//141 130//130
f 127//127 188//188 89//89
f 102//102 96//96 49//49
f 16//16 109//109 31//31
f 101//101 142//142 109//109
f 13//13 187//187 5//5
f 135//135 3//3 177//177
f 170//170 112//112 104//104
f 155//155 25//25 50//50
f 52//52 143//143 150//150
f 145//145 80//80 159//159
f 145//145 144//144 27//27
f 111//111 27//27 144//144
f 184//184 144//144 96//96
f 8//8 26//26 147//147
f 8//8 65//65 36//36
f 147//147 148//148 65//65
f 14//14 131//131 24//24
f 93//93 149//149 89//89
f 89//89 149//149 23//23
f 137//137 118//118 149//149
f 118//118 113//113 23//23
f 150//150 143//143 30//30
f 78//78 126//126 175//175
f 175//175 30//30 143//143
f 53//53 2//2 174//174
f 150//150 151//151 52//52
f 66//66 153//153 54//54
f 153//153 66//66 148//148
f 24//24 132//132 26//26
f 22//22 132//132 34//34
f 132//132 24//24 131//131
f 34//34 131//131 71//71
f 179//179 152//152 126//126
f 152//152 30//30 126//126
f 15//15 124//124 77//77
f 133//133 152//152 179//179
f 184//184 183//183 111//111
f 111//111 183//183 28//28
f 127//127 184//184 102//102
f 129//129 75//75 173//173
f 136//136 70//70 84//84
f 83//83 70//70 1//1
f 28//28 15//15 29//29
f 24//24 174//174 14//14
f 165//165 138//138 156//156
f 156//156 138//138 157//157
f 30//30 152//152 135//135
f 31//31 156//156 157//157
f 31//31 157//157 51//51
f 130//130 158//158 4//4
f 177//177 3//3 112//112
f 86//86 177//177 105//105
f 67//67 138//138 134//134
f 138//138 67//67 64//64
f 29//29 15//15 104//104
f 154//154 125//125 98//98
f 113//113 118//118 6//6
f 13//13 5//5 94//94
f 82//82 13//13 81//81
f 134//134 68//68 67//67
f 43//43 87//87 39//39
f 146//146 134//134 165//165
f 114//114 165//165 142//142
f 32//32 154//154 10//10
f 32//32 10//10 111//111
f 79//79 39//39 87//87
f 32//32 29//29 179//179
f 32//32 179//179 154//154
f 72//72 181//181 44//44
f 156//156 142//142 165//165
f 6//6 108//108 113//113
f 108//108 170//170 77//77
f 31//31 142//142 156//156
f 33//33 92//92 95//95
f 91//91 160//160 161//161
f 160//160 4//4 158//158
f 143//143 123//123 175//175
f 88//88 95//95 92//92
f 163//163 162//162 97//97
f 144//144 145//145 163//163
f 96//96 163//163 97//97
f 45//45 63//63 4//4
f 12//12 34//34 71//71
f 147//147 153//153 148//148
f 76//76 153//153 147//147
f 167//167 25//25 155//155
f 92//92 60//60 88//88
f 146//146 165//165 114//114
f 110//110 164//164 141//141
f 176//176 103//103 91//91
f 114//114 142//142 101//101
f 139//139 95//95 181//181
f 145//145 159//159 162//162
f 139//139 11//11 95//95
f 172//172 109//109 21//21
f 25//25 167//167 72//72
f 101//101 109//109 172//172
f 91//91 166//166 176//176
f 103//103 176//176 40//40
f 168//168 34//34 12//12
f 109//109 16//16 21//21
f 92//92 35//35 60//60
f 140//140 168//168 139//139
f 93//93 92//92 33//33
f 129//129 173//173 59//59
f 35//35 92//92 93//93
f 140//140 139//139 167//167
f 20//20 56//56 55//55
f 165//165 134//134 138//138
f 174//174 117//117 20//20
f 41//41 105//105 75//75
f 17//17 98//98 125//125
f 33//33 137//137 149//149
f 85//85 146//146 114//114
f 106//106 171//171 73//73
f 80//80 106//106 164//164
f 2//2 59//59 173//173
f 117//117 174//174 24//24
f 175//175 116//116 78//78
f 5//5 130//130 106//106
f 172//172 169//169 101//101
f 104//104 77//77 170//170
f 178//178 134//134 146//146
f 27//27 10//10 128//128
f 33//33 149//149 93//93
f 14//14 174//174 2//2
f 177//177 112//112 105//105
f 125//125 154//154 179//179
f 68//68 134//134 178//178
f 175//175 123//123 116//116
f 7//7 121//121 119//119
f 174//174 20//20 55//55
f 94//94 98//98 81//81
f 177//177 86//86 151//151
f 73//73 94//94 5//5
f 53//53 174//174 55//55
f 180//180 131//131 14//14
f 150//150 135//135 177//177
f 95//95 11//11 33//33
f 74//74 105//105 112//112
f 124//124 113//113 77//77
f 179//179 29//29 133//133
f 150//150 177//177 151//151
f 176//176 18//18 40//40
f 178//178 116//116 123//123
f 73//73 5//5 106//106
f 170//170 74//74 112//112
f 182//182 185//185 100//100
f 181//181 95//95 88//88
f 84//84 31//31 51//51
f 182//182 108//108 185//185
f 75//75 74//74 182//182
f 127//127 23//23 124//124
f 183//183 127//127 124//124
f 183//183 15//15 28//28
f 91//91 103//103 160//160
f 180//180 14//14 185//185
f 183//183 184//184 127//127
f 186//186 161//161 120//120
f 6//6 185//185 108//108
f 166//166 186//186 119//119
f 100//100 173//173 182//182
f 102//102 188//188 127//127
f 31//31 109//109 142//142
f 7//7 119//119 120//120
f 14//14 2//2 100//100
f 2//2 173//173 100//100
f 185//185 14//14 100//100
f 13//13 94//94 81//81
f 81//81 85//85 82//82
f 187//187 99//99 161//161
f 187//187 158//158 5//5
f 99//99 187//187 13//13
f 90//90 71//71 180//180
f 93//93 188//188 47//47
f 7//7 172//172 21//21
f 81//81 98//98 17//17
f 90//90 180//180 6//6
# 315 faces, 0 coords texture

# End of File
