####
#
# OBJ File Generated by Meshlab
#
####
# Object 846S.obj
#
# Vertices: 44
# Faces: 68
#
####
vn -4.611588 0.009521 -4.267467
v 48.183858 21.794117 44.001335
vn -4.604500 0.026473 -4.274693
v 45.919864 19.778291 46.429907
vn -4.574885 0.017392 -4.306796
v 49.403601 15.579027 42.676844
vn -4.590161 0.023853 -4.290417
v 48.327823 15.012678 43.817539
vn -2.036059 0.024559 -1.911795
v 45.906719 13.692978 46.395388
vn -2.019583 0.023721 -1.847604
v 44.490585 23.328243 48.039011
vn -2.064917 0.002076 -1.903011
v 48.439450 25.338050 43.735800
vn -2.008634 0.025443 -1.857868
v 43.683900 21.264150 48.875850
vn -1.967799 0.026555 -1.846876
v 44.487500 15.280900 47.925750
vn -2.034925 0.002501 -1.919633
v 50.706200 15.449200 41.297250
vn -1.995197 0.019519 -1.874801
v 47.189700 13.108100 45.023400
vn -2.043370 -0.006201 -1.917292
v 51.405400 17.323650 40.552650
vn -2.049658 -0.006233 -1.919517
v 51.494950 20.572100 40.443400
vn -2.029138 0.003974 -1.876292
v 49.915961 24.306726 42.141244
vn -2.075723 0.027371 -1.926165
v 43.522650 19.239900 49.023950
vn -2.012844 0.010721 -1.850783
v 47.217250 25.536900 45.067000
vn -2.144805 -0.009779 -1.995678
v 51.559300 18.784600 40.375000
vn -4.607029 0.006814 -4.272340
v 48.441963 19.966289 43.717497
vn -4.595446 0.008299 -4.284878
v 49.180610 18.748049 42.925830
vn -4.615432 0.023773 -4.263224
v 46.600100 21.584646 45.721653
vn -4.583454 0.053939 -4.297373
v 45.229003 16.965185 47.159696
vn -4.596200 0.025341 -4.283798
v 46.496174 17.895360 45.820403
vn -4.604243 0.039486 -4.275248
v 47.429459 16.353653 44.796743
vn -2.037943 0.001273 -1.887447
v 50.876900 22.780250 41.093800
vn -4.594064 0.024024 -4.286281
v 48.682904 16.807874 43.450005
vn -4.635718 0.027770 -4.241168
v 45.891333 23.079274 46.496866
vn -2.056112 0.013530 -1.878853
v 45.918544 24.948253 46.480294
vn -4.604018 0.000652 -4.275644
v 49.495327 20.671374 42.591268
vn -4.602875 -0.010728 -4.276747
v 50.478243 21.231651 41.523854
vn -4.612790 0.008066 -4.266195
v 49.626364 22.542795 42.450374
vn -2.007662 0.008514 -1.890656
v 49.633000 14.062100 42.425300
vn -2.116244 0.010202 -1.981990
v 48.055837 13.237225 44.103263
vn -4.618210 0.049867 -4.260016
v 44.686764 20.013934 47.778472
vn -2.096384 0.029172 -1.954312
v 43.769776 17.357454 48.726445
vn -4.593925 -0.009401 -4.286499
v 50.541002 19.212638 41.467293
vn -4.611100 0.019689 -4.267984
v 47.920485 18.276860 44.280547
vn -4.609552 0.012315 -4.269608
v 47.329086 19.904223 44.928159
vn -4.590279 0.041200 -4.290210
v 47.099846 14.585596 45.134407
vn -4.601397 0.040748 -4.278258
v 44.987065 18.472503 47.434879
vn -4.580547 0.003761 -4.300798
v 49.954516 17.167416 42.093734
vn -4.611667 0.013543 -4.267401
v 48.448811 23.889108 43.724062
vn -4.585603 0.053500 -4.295062
v 46.102558 15.795365 46.215793
vn -4.624113 0.053074 -4.253592
v 45.213983 21.477879 47.222261
vn -4.623061 0.019614 -4.254974
v 47.118874 23.478795 45.159142
# 44 vertices, 0 vertices normals

f 4//4 23//23 25//25
f 3//3 31//31 4//4
f 4//4 32//32 38//38
f 39//39 34//34 15//15
f 18//18 36//36 37//37
f 18//18 28//28 19//19
f 20//20 1//1 37//37
f 6//6 26//26 43//43
f 26//26 6//6 27//27
f 41//41 1//1 44//44
f 1//1 28//28 18//18
f 1//1 18//18 37//37
f 42//42 38//38 5//5
f 3//3 4//4 25//25
f 4//4 38//38 23//23
f 22//22 42//42 21//21
f 21//21 42//42 9//9
f 10//10 3//3 40//40
f 3//3 10//10 31//31
f 20//20 26//26 44//44
f 27//27 16//16 44//44
f 5//5 38//38 11//11
f 29//29 13//13 35//35
f 21//21 9//9 34//34
f 29//29 28//28 30//30
f 28//28 1//1 30//30
f 14//14 30//30 41//41
f 30//30 14//14 24//24
f 1//1 41//41 30//30
f 8//8 43//43 33//33
f 43//43 8//8 6//6
f 33//33 15//15 8//8
f 43//43 26//26 20//20
f 3//3 25//25 40//40
f 31//31 32//32 4//4
f 42//42 5//5 9//9
f 41//41 16//16 7//7
f 38//38 32//32 11//11
f 2//2 39//39 33//33
f 39//39 21//21 34//34
f 33//33 39//39 15//15
f 35//35 17//17 12//12
f 41//41 7//7 14//14
f 12//12 40//40 35//35
f 40//40 12//12 10//10
f 28//28 29//29 35//35
f 35//35 19//19 28//28
f 17//17 35//35 13//13
f 23//23 36//36 25//25
f 25//25 36//36 19//19
f 22//22 2//2 37//37
f 2//2 20//20 37//37
f 18//18 19//19 36//36
f 37//37 36//36 22//22
f 22//22 36//36 23//23
f 25//25 19//19 40//40
f 29//29 30//30 24//24
f 29//29 24//24 13//13
f 35//35 40//40 19//19
f 41//41 44//44 16//16
f 22//22 23//23 42//42
f 38//38 42//42 23//23
f 22//22 39//39 2//2
f 39//39 22//22 21//21
f 33//33 43//43 2//2
f 43//43 20//20 2//2
f 27//27 44//44 26//26
f 44//44 1//1 20//20
# 68 faces, 0 coords texture

# End of File
