####
#
# OBJ File Generated by Meshlab
#
####
# Object 849S.obj
#
# Vertices: 153
# Faces: 256
#
####
vn 4.565877 0.025973 -4.316300
v -50.203612 15.796736 40.492502
vn 4.578735 0.034436 -4.302579
v -49.249637 14.630850 41.492999
vn 4.591576 0.060539 -4.288608
v -46.296679 9.150124 44.575031
vn 4.543283 0.051220 -4.339635
v -48.231928 0.660730 42.431932
vn 4.538603 0.015314 -4.344984
v -48.658017 8.566786 42.064771
vn 4.629598 -0.006159 -4.247943
v -49.512748 25.568684 41.224275
vn 4.560647 0.052692 -4.321505
v -49.168606 12.636729 41.565044
vn 4.576085 0.063473 -4.304554
v -48.023058 11.906864 42.750952
vn 4.548895 0.034572 -4.334023
v -48.900319 10.661906 41.816624
vn 4.580823 0.053407 -4.300156
v -46.133863 6.864619 44.716976
vn 4.609816 0.018282 -4.269373
v -48.338606 20.263342 42.505599
vn 4.601718 0.065681 -4.277637
v -45.561285 16.630787 45.466548
vn 4.557398 0.046131 -4.325064
v -42.647677 -4.401116 48.267223
vn 4.627959 0.057798 -4.249343
v -44.417514 20.228151 46.760088
vn 4.562566 0.063996 -4.319404
v -43.966649 3.022893 46.972014
vn 4.582347 0.026745 -4.298789
v -49.283737 16.724478 41.472586
vn 4.632479 0.052656 -4.244467
v -45.752869 22.698765 45.330256
vn 4.555810 0.027100 -4.326919
v -44.413307 -7.124212 46.391490
vn 4.592156 0.010778 -4.288388
v -49.453004 18.781828 41.302495
vn 4.647843 0.053246 -4.227633
v -45.825448 24.715475 45.281317
vn 4.644655 0.025424 -4.231382
v -46.977269 23.699774 44.004551
vn 4.591942 0.065416 -4.288107
v -43.198379 15.669620 47.993754
vn 4.601999 0.053098 -4.277510
v -46.868343 11.133282 43.990287
vn 4.567791 0.044237 -4.314108
v -44.236392 -2.200730 46.615846
vn 4.594609 0.058680 -4.285370
v -46.589211 13.012281 44.315540
vn 2.260009 0.029229 -2.173787
v -49.290250 0.727114 41.334750
vn 2.274304 0.013330 -2.157037
v -50.709600 15.358800 39.956300
vn 2.338705 0.030184 -2.139053
v -43.926400 21.812350 47.316500
vn 2.058848 0.022279 -1.946482
v -49.156950 -5.237965 41.406850
vn 2.361888 0.029383 -2.245936
v -41.803905 -2.517391 49.180740
vn 2.013602 0.020662 -1.929072
v -49.920246 3.025672 40.707742
vn 2.352072 0.007311 -2.217994
v -51.083500 17.012850 39.565350
vn 2.443898 0.024262 -2.324334
v -48.820750 -3.206805 41.790900
vn 2.062940 0.020996 -1.986956
v -49.960169 5.416593 40.693362
vn 1.995116 -0.014172 -1.863619
v -51.824750 23.227350 38.745900
vn 2.220616 0.021214 -2.095299
v -47.510300 -10.677000 43.090200
vn 1.950801 0.015475 -1.843258
v -46.745300 -11.617300 43.893500
vn 2.004079 0.014844 -1.907550
v -41.027455 -5.679628 49.962854
vn 2.058173 0.020713 -1.952880
v -41.258300 -3.974980 49.737700
vn 2.484061 0.026426 -2.360190
v -42.447100 1.101050 48.547300
vn 2.145426 0.027212 -2.048288
v -42.207250 2.502665 48.812500
vn 2.558546 0.014710 -2.433272
v -48.805250 -1.018971 41.820750
vn 2.423705 0.046544 -2.296197
v -42.367668 9.913779 48.769316
vn 2.400870 0.044838 -2.268334
v -42.075600 11.496700 49.112300
vn 2.072476 0.034729 -1.954755
v -42.102100 16.210800 49.168400
vn 2.523078 0.026783 -2.396024
v -42.404150 -0.344421 48.576950
vn 2.041896 -0.015430 -1.922987
v -51.983050 20.755650 38.596250
vn 2.081745 0.007560 -1.870908
v -47.277550 27.491450 43.691250
vn 2.166567 -0.015338 -2.050476
v -51.704300 19.103400 38.910700
vn 2.289551 0.032807 -2.178471
v -42.304500 6.264300 48.779200
vn 2.434896 0.033384 -2.312021
v -42.462200 7.834100 48.630800
vn 2.017486 0.022336 -1.905418
v -49.056800 -7.332700 41.491650
vn 2.082724 0.014024 -1.961001
v -42.775450 -10.952500 48.094100
vn 2.454817 0.006939 -2.367302
v -49.519900 7.845100 41.171300
vn 1.974079 0.008774 -1.866404
v -42.008800 -10.072300 48.912000
vn 1.935435 0.035402 -1.831424
v -41.780300 12.442000 49.443300
vn 2.056357 0.018690 -1.853792
v -46.059000 26.798600 45.049400
vn 2.275032 0.016035 -2.147930
v -50.285600 13.555400 40.386450
vn 4.558876 0.034355 -4.323604
v -44.924943 -3.914962 45.878981
vn 2.031218 -0.013741 -1.874907
v -51.003606 25.402021 39.601407
vn 4.593860 0.062991 -4.285784
v -43.674074 13.608771 47.463488
vn 4.551220 0.046484 -4.331534
v -47.039896 0.170781 43.682420
vn 4.561390 0.061215 -4.320686
v -46.229550 1.709659 44.559607
vn 4.571473 0.055094 -4.310092
v -44.525427 -0.405402 46.330231
vn 4.623117 0.047262 -4.254748
v -45.661711 20.396854 45.404585
vn 4.536646 0.047870 -4.346767
v -48.823367 2.696687 41.851453
vn 4.562438 0.071886 -4.319351
v -42.532761 14.045003 48.680090
vn 4.561446 0.056616 -4.320649
v -43.055709 -2.364503 47.868111
vn 4.573627 0.047747 -4.307843
v -45.700787 4.994595 45.152889
vn 4.610633 0.037676 -4.268369
v -47.041188 19.281449 43.898926
vn 4.576495 0.037180 -4.304900
v -47.785887 9.809611 42.990696
vn 4.583058 0.061091 -4.297643
v -48.081138 13.892240 42.734868
vn 4.630543 0.003011 -4.246917
v -48.135705 22.661506 42.733552
vn 4.623785 -0.016287 -4.254262
v -49.278658 23.816586 41.485645
vn 4.606417 -0.020634 -4.273019
v -50.304414 22.596858 40.378643
vn 4.607361 0.057958 -4.271561
v -44.515981 15.069282 46.560905
vn 4.562475 0.034629 -4.319636
v -47.471949 7.600701 43.298779
vn 4.555924 0.045012 -4.326652
v -44.787477 -10.412956 45.968490
vn 2.438735 0.038616 -2.253656
v -43.496617 19.929757 47.755627
vn 4.617790 0.063882 -4.260311
v -44.863874 18.573674 46.249793
vn 4.552271 0.031640 -4.330582
v -46.403251 -4.066280 44.313639
vn 4.576836 0.061288 -4.304317
v -44.367127 4.719617 46.571564
vn 4.585651 0.066348 -4.294859
v -44.800343 6.489191 46.135766
vn 4.543086 0.039608 -4.340080
v -48.142836 4.170836 42.567708
vn 4.598456 0.028021 -4.281566
v -48.224958 17.946164 42.615376
vn 4.600598 0.041502 -4.279153
v -46.987344 17.199299 43.939714
vn 4.589900 0.052585 -4.290503
v -46.875050 15.251170 44.038762
vn 4.592483 0.037823 -4.287897
v -48.116846 15.876409 42.716101
vn 2.100417 0.025858 -1.914960
v -45.028000 25.423100 46.165550
vn 4.553039 0.034565 -4.329784
v -44.025649 -5.384749 46.809722
vn 4.602821 0.049818 -4.276655
v -45.016441 13.120581 46.001914
vn 4.567959 0.079638 -4.313437
v -43.244536 10.112258 47.847778
vn 4.621989 0.033002 -4.256102
v -46.972641 21.492996 43.995265
vn 4.604198 -0.006246 -4.275469
v -49.756349 20.674499 40.978887
vn 4.543784 0.038331 -4.339448
v -46.654807 -1.890986 44.068490
vn 4.546596 0.030223 -4.336483
v -47.811238 -1.402791 42.868482
vn 4.561143 0.054600 -4.320978
v -45.776825 -0.197910 45.006424
vn 4.569849 0.051026 -4.311857
v -45.316317 3.205263 45.547107
vn 4.573892 0.005937 -4.307863
v -50.434816 17.760919 40.256155
vn 4.566465 0.065314 -4.315268
v -44.854988 1.465037 46.009750
vn 2.433006 0.007198 -2.328579
v -49.526151 9.801851 41.157293
vn 4.612669 -0.030866 -4.266191
v -50.441226 24.174273 40.221233
vn 4.573506 0.064822 -4.307775
v -44.019441 8.081008 46.994780
vn 4.591203 0.057102 -4.289023
v -45.768986 14.553430 45.209852
vn 4.558427 0.030371 -4.324142
v -41.891616 -5.973559 49.052675
vn 2.030883 0.017610 -1.927774
v -45.770900 -11.971900 44.920150
vn 4.527811 0.043132 -4.356071
v -49.215107 4.459071 41.455158
vn 4.588902 0.065114 -4.291396
v -45.242850 8.043450 45.688713
vn 4.556516 0.024878 -4.326166
v -42.853778 -6.750605 48.031038
vn 4.561062 0.039611 -4.321288
v -46.118545 -9.963601 44.570707
vn 4.567081 0.038606 -4.314927
v -43.542189 -10.066107 47.286108
vn 2.096904 0.005770 -1.903268
v -48.476900 27.527700 42.360250
vn 4.534046 0.034864 -4.349650
v -48.615716 6.203184 42.097990
vn 2.070584 0.022342 -1.962227
v -44.101008 -11.738809 46.674729
vn 4.636664 0.056057 -4.239858
v -44.773317 21.851133 46.389074
vn 2.136626 0.030516 -1.950225
v -44.309650 23.661550 46.926400
vn 4.604479 0.079771 -4.274430
v -44.017450 17.414004 47.144604
vn 4.556592 0.033743 -4.326052
v -45.849123 -7.722339 44.873860
vn 2.067507 0.007669 -1.960523
v -41.358624 -8.251275 49.602853
vn 4.556428 0.031091 -4.326235
v -45.454761 -5.797805 45.300929
vn 2.351474 0.023277 -2.234469
v -49.873350 11.855950 40.813100
vn 4.550184 0.064900 -4.332427
v -42.891843 2.776258 48.099075
vn 2.018946 0.000236 -1.847487
v -49.724158 26.976551 40.993424
vn 4.562527 0.056031 -4.319556
v -43.635618 1.237432 47.296403
vn 4.567445 0.050123 -4.314411
v -43.408453 -0.601796 47.515685
vn 4.561474 0.042782 -4.320818
v -46.753664 3.618633 44.027138
vn 2.286325 0.041880 -2.137067
v -42.641200 17.667600 48.626500
vn 4.558532 0.039748 -4.323943
v -47.145968 5.490414 43.633824
vn 2.105082 0.037554 -2.010734
v -42.114416 4.659715 48.946278
vn 4.564047 0.045407 -4.318066
v -47.200690 -8.457236 43.443405
vn 4.561497 0.035294 -4.320841
v -45.444153 -2.131030 45.338999
vn 2.030665 0.023249 -1.914546
v -48.405100 -9.366230 42.154400
vn 4.553302 0.033285 -4.329508
v -46.884109 -6.286602 43.797107
vn 4.553568 0.040768 -4.329156
v -47.874627 -4.837119 42.767317
vn 2.163155 0.034388 -2.062807
v -41.848669 14.421858 49.403743
vn 4.595100 0.060444 -4.284823
v -45.556699 11.216160 45.400662
vn 4.587627 0.074738 -4.292563
v -44.171091 11.647187 46.892205
vn 4.586074 0.067565 -4.294382
v -44.758802 9.659656 46.229793
vn 4.569122 0.087671 -4.312057
v -42.879541 12.202690 48.274533
vn 4.612606 0.048584 -4.266131
v -45.996157 18.389188 45.020375
vn 4.579730 -0.021007 -4.301553
v -50.749897 19.634398 39.912855
vn 4.556902 0.045824 -4.325589
v -43.799716 -3.686739 47.061693
vn 4.590685 -0.022465 -4.289902
v -50.919730 21.309427 39.723761
vn 4.541092 0.041468 -4.342253
v -47.498279 -3.155860 43.175854
vn 4.567895 0.064011 -4.313683
v -43.507752 6.317406 47.513484
vn 4.551009 0.053692 -4.331693
v -47.565901 2.217169 43.159982
vn 4.556641 0.076464 -4.325417
v -43.147338 4.590863 47.863969
vn 4.564944 0.046619 -4.317108
v -48.181526 -6.979983 42.422538
vn 4.646604 0.003823 -4.229193
v -48.205892 24.943763 42.649037
vn 4.617186 -0.005131 -4.261444
v -49.119659 21.997090 41.663872
vn 4.558349 0.037050 -4.324174
v -44.675176 -8.823754 46.102739
vn 4.668994 0.026801 -4.204534
v -47.159711 25.901189 43.815943
vn 4.559057 0.022691 -4.323522
v -43.115595 -8.345973 47.749886
# 153 vertices, 0 vertices normals

f 9//9 5//5 101//101
f 107//107 31//31 34//34
f 73//73 93//93 11//11
f 95//95 96//96 62//62
f 100//100 98//98 15//15
f 85//85 88//88 16//16
f 66//66 26//26 31//31
f 37//37 110//110 106//106
f 74//74 75//75 102//102
f 120//120 90//90 18//18
f 86//86 85//85 70//70
f 94//94 11//11 19//19
f 40//40 122//122 41//41
f 125//125 68//68 24//24
f 87//87 12//12 104//104
f 23//23 136//136 3//3
f 29//29 148//148 52//52
f 104//104 12//12 76//76
f 115//115 65//65 17//17
f 130//130 132//132 148//148
f 19//19 99//99 141//141
f 130//130 133//133 118//118
f 97//97 64//64 131//131
f 133//133 81//81 120//120
f 131//131 81//81 95//95
f 134//134 144//144 81//81
f 80//80 117//117 12//12
f 148//148 134//134 133//133
f 10//10 69//69 128//128
f 103//103 83//83 108//108
f 138//138 136//136 137//137
f 113//113 84//84 107//107
f 113//113 128//128 84//84
f 1//1 2//2 58//58
f 58//58 27//27 1//1
f 60//60 123//123 6//6
f 62//62 63//63 97//97
f 100//100 64//64 97//97
f 1//1 16//16 2//2
f 14//14 28//28 79//79
f 26//26 66//66 4//4
f 139//139 61//61 67//67
f 7//7 8//8 9//9
f 8//8 23//23 71//71
f 8//8 7//7 72//72
f 88//88 2//2 16//16
f 134//134 29//29 33//33
f 149//149 73//73 74//74
f 99//99 1//1 32//32
f 27//27 32//32 1//1
f 71//71 23//23 3//3
f 77//77 113//113 5//5
f 127//127 117//117 79//79
f 80//80 79//79 117//117
f 36//36 110//110 37//37
f 11//11 93//93 70//70
f 89//89 116//116 20//20
f 39//39 13//13 30//30
f 13//13 90//90 142//142
f 72//72 7//7 2//2
f 100//100 124//124 64//64
f 104//104 91//91 25//25
f 4//4 96//96 42//42
f 4//4 62//62 96//96
f 63//63 146//146 126//126
f 139//139 44//44 92//92
f 43//43 92//92 44//44
f 8//8 71//71 9//9
f 70//70 93//93 65//65
f 65//65 93//93 17//17
f 40//40 125//125 124//124
f 125//125 64//64 124//124
f 125//125 46//46 68//68
f 30//30 68//68 46//46
f 11//11 94//94 150//150
f 33//33 96//96 144//144
f 42//42 96//96 33//33
f 15//15 98//98 82//82
f 82//82 98//98 69//69
f 97//97 95//95 62//62
f 99//99 16//16 1//1
f 26//26 4//4 42//42
f 51//51 92//92 43//43
f 129//129 147//147 50//50
f 102//102 6//6 74//74
f 105//105 39//39 38//38
f 62//62 146//146 63//63
f 121//121 7//7 9//9
f 9//9 101//101 121//121
f 85//85 86//86 88//88
f 147//147 145//145 50//50
f 51//51 145//145 103//103
f 69//69 83//83 82//82
f 91//91 104//104 76//76
f 25//25 8//8 72//72
f 25//25 72//72 87//87
f 72//72 2//2 88//88
f 72//72 88//88 87//87
f 31//31 107//107 66//66
f 10//10 108//108 83//83
f 151//151 153//153 111//111
f 61//61 22//22 67//67
f 135//135 67//67 45//45
f 112//112 48//48 152//152
f 74//74 73//73 150//150
f 10//10 77//77 3//3
f 77//77 71//71 3//3
f 113//113 54//54 5//5
f 54//54 113//113 34//34
f 152//152 48//48 57//57
f 112//112 152//152 149//149
f 78//78 114//114 106//106
f 14//14 115//115 28//28
f 116//116 28//28 115//115
f 22//22 61//61 76//76
f 22//22 76//76 117//117
f 83//83 145//145 82//82
f 18//18 118//118 120//120
f 18//18 90//90 109//109
f 90//90 13//13 109//109
f 105//105 13//13 39//39
f 111//111 153//153 55//55
f 119//119 55//55 153//153
f 120//120 59//59 90//90
f 59//59 120//120 81//81
f 16//16 19//19 85//85
f 85//85 19//19 11//11
f 70//70 85//85 11//11
f 99//99 32//32 49//49
f 49//49 141//141 99//99
f 68//68 30//30 13//13
f 2//2 7//7 58//58
f 121//121 58//58 7//7
f 136//136 25//25 91//91
f 87//87 104//104 25//25
f 97//97 63//63 100//100
f 63//63 98//98 100//100
f 5//5 54//54 101//101
f 21//21 17//17 93//93
f 123//123 112//112 6//6
f 6//6 112//112 149//149
f 100//100 15//15 124//124
f 40//40 124//124 122//122
f 125//125 40//40 46//46
f 64//64 125//125 24//24
f 19//19 141//141 94//94
f 94//94 143//143 75//75
f 24//24 68//68 142//142
f 126//126 98//98 63//63
f 98//98 126//126 69//69
f 71//71 77//77 5//5
f 71//71 5//5 9//9
f 108//108 10//10 3//3
f 15//15 82//82 147//147
f 53//53 111//111 55//55
f 78//78 111//111 114//114
f 21//21 149//149 152//152
f 22//22 117//117 127//127
f 127//127 45//45 22//22
f 136//136 23//23 25//25
f 23//23 8//8 25//25
f 80//80 65//65 14//14
f 15//15 147//147 122//122
f 122//122 129//129 41//41
f 69//69 126//126 128//128
f 79//79 80//80 14//14
f 131//131 24//24 59//59
f 76//76 12//12 117//117
f 116//116 115//115 17//17
f 115//115 14//14 65//65
f 130//130 110//110 36//36
f 19//19 16//16 99//99
f 118//118 133//133 120//120
f 76//76 61//61 91//91
f 61//61 137//137 91//91
f 130//130 118//118 110//110
f 118//118 18//18 151//151
f 95//95 97//97 131//131
f 131//131 64//64 24//24
f 81//81 133//133 134//134
f 132//132 130//130 36//36
f 131//131 59//59 81//81
f 139//139 67//67 56//56
f 135//135 56//56 67//67
f 3//3 136//136 138//138
f 65//65 80//80 140//140
f 130//130 148//148 133//133
f 139//139 56//56 44//44
f 10//10 83//83 69//69
f 138//138 103//103 108//108
f 136//136 91//91 137//137
f 45//45 67//67 22//22
f 17//17 20//20 116//116
f 152//152 57//57 20//20
f 20//20 57//57 89//89
f 10//10 128//128 77//77
f 128//128 113//113 77//77
f 92//92 138//138 137//137
f 3//3 138//138 108//108
f 4//4 66//66 146//146
f 34//34 113//113 107//107
f 107//107 84//84 66//66
f 84//84 128//128 126//126
f 139//139 137//137 61//61
f 137//137 139//139 92//92
f 51//51 103//103 92//92
f 29//29 134//134 148//148
f 102//102 35//35 60//60
f 75//75 143//143 35//35
f 106//106 110//110 78//78
f 102//102 75//75 35//35
f 70//70 65//65 140//140
f 140//140 86//86 70//70
f 140//140 12//12 86//86
f 92//92 103//103 138//138
f 87//87 86//86 12//12
f 47//47 141//141 49//49
f 143//143 141//141 47//47
f 6//6 102//102 60//60
f 87//87 88//88 86//86
f 143//143 47//47 35//35
f 24//24 142//142 59//59
f 141//141 143//143 94//94
f 21//21 152//152 20//20
f 144//144 95//95 81//81
f 142//142 90//90 59//59
f 33//33 144//144 134//134
f 144//144 96//96 95//95
f 4//4 146//146 62//62
f 145//145 51//51 50//50
f 145//145 83//83 103//103
f 145//145 147//147 82//82
f 17//17 21//21 20//20
f 124//124 15//15 122//122
f 142//142 68//68 13//13
f 147//147 129//129 122//122
f 66//66 84//84 146//146
f 80//80 12//12 140//140
f 73//73 149//149 21//21
f 6//6 149//149 74//74
f 73//73 21//21 93//93
f 105//105 38//38 119//119
f 126//126 146//146 84//84
f 148//148 132//132 52//52
f 11//11 150//150 73//73
f 75//75 150//150 94//94
f 74//74 150//150 75//75
f 151//151 78//78 110//110
f 109//109 13//13 105//105
f 151//151 111//111 78//78
f 118//118 151//151 110//110
f 18//18 153//153 151//151
f 111//111 53//53 114//114
f 109//109 153//153 18//18
f 109//109 105//105 119//119
f 153//153 109//109 119//119
# 256 faces, 0 coords texture

# End of File
