####
#
# OBJ File Generated by Meshlab
#
####
# Object 853S.obj
#
# Vertices: 193
# Faces: 324
#
####
vn 2.474169 -0.189569 -1.929077
v -54.016917 38.000000 35.569666
vn 4.449685 0.069186 -4.435149
v -33.355896 45.401313 59.107349
vn 4.728188 0.026337 -4.137718
v -42.086913 48.149350 49.715688
vn 4.697715 0.040751 -4.172280
v -41.240349 46.940530 50.661456
vn 4.757011 0.029916 -4.104662
v -45.188202 45.391898 46.121520
vn 4.385544 0.086064 -4.498540
v -31.814945 41.267188 60.565665
vn 4.413889 0.114986 -4.470112
v -32.322185 37.392666 59.981321
vn 1.948236 0.179672 -1.078953
v -41.206300 49.596300 50.731700
vn 4.398033 0.059791 -4.486126
v -32.156654 43.559147 60.279060
vn 4.519338 0.112236 -4.363611
v -35.428973 36.398334 56.811806
vn 3.604854 -0.091593 -3.027410
v -51.503200 38.000000 38.718000
vn 4.556097 0.100002 -4.325418
v -36.733260 35.804008 55.439342
vn 4.595269 0.024140 -4.284932
v -37.057199 48.105858 55.274623
vn 4.600838 0.025967 -4.278902
v -37.126987 45.200794 55.188253
vn 4.709739 0.020526 -4.158856
v -43.782067 35.129805 47.670566
vn 4.782372 -0.125923 -4.073179
v -50.821028 36.645403 39.569803
vn 4.513857 0.039277 -4.370253
v -34.912403 46.018160 57.529146
vn 4.745768 0.018380 -4.117605
v -45.126415 41.193118 46.175904
vn 4.781361 0.024456 -4.076305
v -47.196355 45.441365 43.779412
vn 2.438698 0.009837 -2.006900
v -51.481300 41.464000 38.718000
vn 4.516641 0.079617 -4.367018
v -35.378755 41.048168 56.970253
vn 4.728591 0.037325 -4.137201
v -43.371830 38.664405 48.172801
vn 4.572738 0.010912 -4.309005
v -36.387916 46.451966 55.981826
vn 4.713919 0.039625 -4.153938
v -42.319245 39.985126 49.382629
vn 4.735586 0.003950 -4.129457
v -46.491387 38.018871 44.587230
vn 4.712021 0.044519 -4.156107
v -42.887339 36.720267 48.698296
vn 4.512661 0.095657 -4.370739
v -35.092105 38.707902 57.222765
vn 4.723333 0.030742 -4.143272
v -42.565550 41.935120 49.119440
vn 4.751628 0.010666 -4.110964
v -46.317561 40.025518 44.791939
vn 4.600816 0.086058 -4.278218
v -37.921023 37.228711 54.200904
vn 4.465769 0.062041 -4.419385
v -33.439364 43.744025 58.992406
vn 1.922468 0.010867 -2.071453
v -29.378200 47.482800 62.948500
vn 1.807460 0.082655 -1.885155
v -30.903700 34.255200 61.257400
vn 2.938808 0.011877 -2.727035
v -38.258100 49.282400 53.980000
vn 1.266614 0.009149 -1.156427
v -38.739600 50.227800 53.467800
vn 2.745230 0.003350 -2.463156
v -43.765800 34.030200 47.687200
vn 2.136328 0.017803 -1.909879
v -43.428300 33.903200 48.058800
vn 2.492259 0.021732 -2.130736
v -47.145450 49.612500 43.861850
vn 1.080012 0.016588 -0.931624
v -51.614600 49.642800 38.718000
vn 2.432989 0.031998 -2.109818
v -50.545166 49.421893 39.953840
vn 2.334449 -0.049187 -2.008141
v -50.324197 35.044071 40.194739
vn 2.503725 0.005663 -2.178886
v -42.947100 49.557600 48.726100
vn 3.231104 0.749528 -0.065437
v -41.206300 49.596200 50.731800
vn 2.112330 0.008041 -2.059626
v -34.249209 49.226637 58.229614
vn 1.805745 0.057984 -1.944247
v -28.645600 36.652400 63.478800
vn 2.003205 -0.001949 -1.761629
v -44.536900 33.671900 46.817100
vn 2.064466 0.005400 -2.073217
v -32.916000 49.053150 59.573550
vn 2.407235 0.014901 -2.484301
v -31.735200 48.528800 60.730900
vn 1.937910 0.011652 -2.217103
v -27.360756 42.237433 64.739392
vn 1.799859 0.050920 -1.828208
v -32.771600 33.105700 59.411400
vn 1.976328 0.012050 -2.180186
v -28.209050 45.595450 64.006600
vn 2.419339 0.080979 -2.482509
v -31.663200 34.034000 60.529800
vn 2.085804 0.042313 -2.248130
v -28.052109 38.219848 64.078570
vn 1.768498 0.015627 -1.866543
v -30.623900 48.545300 61.796000
vn 2.428565 -0.112086 -1.964336
v -53.125450 36.065200 36.832700
vn 2.634854 -0.028087 -2.278505
v -48.921450 34.963900 41.804050
vn 1.933334 -0.013401 -1.683377
v -48.051800 34.431600 42.816900
vn 2.649948 0.042739 -2.434450
v -38.533700 34.259800 53.485000
vn 2.258335 0.016539 -2.107226
v -36.798200 49.144850 55.560350
vn 2.434830 0.024799 -2.312127
v -35.889800 48.989700 56.525200
vn 2.195918 0.053963 -2.065225
v -37.819450 33.941350 54.243100
vn 2.281001 0.057821 -2.172119
v -36.600450 33.638100 55.521700
vn 2.760504 0.018911 -2.494826
v -39.697300 49.455400 52.404400
vn 2.683302 -0.011569 -2.359800
v -47.493900 34.601400 43.450100
vn 2.514076 0.043474 -2.283710
v -40.778600 34.171400 51.019700
vn 2.150326 0.048953 -2.097680
v -35.078418 33.241920 57.102211
vn 1.921519 0.012621 -1.669699
v -44.312200 49.898100 47.167800
vn 2.901088 0.017181 -2.504913
v -44.532100 49.742100 46.911800
vn 2.175174 -0.058551 -1.827131
v -51.980600 35.298550 38.245950
vn 0.445119 -0.063404 -0.329681
v -55.437400 38.000000 33.651800
vn 2.425025 -0.181359 -1.887481
v -54.392100 36.976950 35.188850
vn 2.508190 0.028955 -2.187874
v -48.808103 49.275945 41.935342
vn 1.984082 0.015720 -1.702338
v -45.718200 50.220400 45.544200
vn 4.323030 0.036246 -4.559290
v -30.718684 46.844286 61.691954
vn 4.386643 0.151609 -4.495580
v -31.346969 35.548139 60.889089
vn 2.272128 0.078498 -2.374513
v -30.084149 35.321557 62.105987
vn 4.736718 0.024077 -4.127983
v -49.256272 45.828006 41.383038
vn 4.792016 0.006707 -4.063789
v -50.542193 40.066614 39.837896
vn 4.265342 0.078308 -4.612832
v -28.708279 40.455932 63.503260
vn 4.629764 0.021642 -4.247645
v -38.522045 48.507103 53.692471
vn 4.752151 0.034752 -4.110251
v -44.726085 48.911831 46.681440
vn 4.794727 0.061759 -4.059973
v -50.619328 43.604447 39.797778
vn 4.478753 0.083976 -4.405843
v -34.077687 40.409917 58.291134
vn 4.450587 0.081205 -4.433915
v -33.126441 41.886522 59.287989
vn 4.703064 0.038245 -4.166276
v -41.439923 44.876238 50.417111
vn 4.489849 0.069336 -4.394864
v -34.371721 42.358471 58.022451
vn 4.751968 0.019038 -4.110540
v -45.305921 43.302462 45.966340
vn 4.564042 0.097169 -4.316982
v -36.619631 37.886746 55.608667
vn 2.407590 -0.002741 -2.018754
v -51.486800 40.531200 38.718000
vn 2.381129 0.035190 -2.048577
v -51.588400 47.937000 38.718000
vn 4.744140 0.022433 -4.119582
v -43.974761 42.527172 47.500695
vn 4.737421 0.027851 -4.127281
v -43.721638 40.559972 47.780925
vn 4.780831 0.049441 -4.076639
v -49.741022 41.757270 40.800997
vn 4.818181 0.060011 -4.032269
v -50.913845 41.840858 39.409394
vn 4.307186 0.090805 -4.573572
v -29.620477 38.811741 62.622443
vn 4.635922 0.096184 -4.239732
v -39.394155 37.492965 52.615612
vn 4.655634 0.030219 -4.219193
v -39.017897 45.041805 53.128049
vn 4.682259 0.034982 -4.189696
v -40.198576 45.984654 51.819755
vn 4.747882 0.021536 -4.115023
v -49.451494 43.859791 41.163738
vn 4.553932 0.086013 -4.328007
v -36.234676 39.696587 56.051490
vn 4.761477 0.025925 -4.099297
v -50.251661 45.116294 40.243860
vn 4.568216 0.080100 -4.313060
v -36.706645 41.467729 55.587223
vn 4.760001 0.027845 -4.101164
v -48.168037 46.571068 42.646793
vn 2.394098 0.026576 -2.035822
v -51.553150 45.710000 38.718000
vn 4.354258 0.106915 -4.528056
v -30.642757 37.250965 61.623466
vn 4.384136 0.047946 -4.500245
v -32.028712 45.943051 60.428540
vn 4.722661 -0.001899 -4.144252
v -46.485782 36.022760 44.591452
vn 4.547935 0.043257 -4.334441
v -35.983507 44.737332 56.407102
vn 4.619660 0.021627 -4.258626
v -37.914397 46.513511 54.343867
vn 2.405671 0.039881 -2.013402
v -51.519650 43.317850 38.718000
vn 4.210897 0.041557 -4.661736
v -28.275091 42.432506 63.941221
vn 4.374882 0.095688 -4.508597
v -31.208256 39.180439 61.116967
vn 4.326775 0.075906 -4.554915
v -30.244664 40.724831 62.075444
vn 4.300053 0.068035 -4.580703
v -29.369297 42.160030 62.915427
vn 4.339056 0.061382 -4.543883
v -30.676365 42.683005 61.683780
vn 4.466689 0.126732 -4.416464
v -33.957680 36.691675 58.339624
vn 2.220286 0.054093 -2.224205
v -33.434000 33.145400 58.760900
vn 4.696863 0.053199 -4.173114
v -41.120294 39.341853 50.727667
vn 4.589214 0.055431 -4.291097
v -36.997896 43.506057 55.309624
vn 4.458387 0.091572 -4.426195
v -33.784091 38.487426 58.552452
vn 2.451151 -0.129334 -1.961567
v -52.956300 38.000000 36.918800
vn 1.873948 0.006341 -2.100900
v -27.610600 44.132200 64.528500
vn 4.270267 0.035351 -4.608060
v -29.228130 43.931678 63.076188
vn 4.747981 0.030073 -4.115090
v -43.785269 45.802671 47.747887
vn 4.751142 0.036202 -4.111417
v -44.313115 44.269766 47.123100
vn 4.634062 0.068000 -4.242318
v -38.854344 40.676932 53.264799
vn 4.653141 0.041244 -4.221790
v -38.948823 42.818118 53.187397
vn 4.912690 -0.289001 -3.906393
v -53.627607 37.259682 36.121457
vn 4.755002 0.026903 -4.107014
v -44.808225 47.291317 46.573911
vn 4.765526 -0.081072 -4.094018
v -49.380766 36.559746 41.251268
vn 4.678405 0.067272 -4.193389
v -41.531432 35.993647 50.222810
vn 4.675205 0.076786 -4.196944
v -40.693683 37.759873 51.181998
vn 2.120112 0.035920 -1.933424
v -39.666750 33.986800 52.232450
vn 4.646756 0.090452 -4.228207
v -40.175061 35.822157 51.711380
vn 4.541845 0.024520 -4.341532
v -35.427774 47.780502 56.997482
vn 4.589734 0.090867 -4.289745
v -37.768777 35.028507 54.325386
vn 4.658059 0.028304 -4.216566
v -39.268372 47.279793 52.866088
vn 4.681272 0.036108 -4.190761
v -40.111629 41.829876 51.883189
vn 2.317408 0.000172 -2.033918
v -45.999500 34.064900 45.143550
vn 4.785340 -0.067420 -4.070806
v -49.993961 38.263035 40.487521
vn 4.334690 0.050777 -4.548172
v -30.792612 44.741126 61.599978
vn 4.702340 0.053007 -4.166949
v -41.974480 38.176564 49.749859
vn 4.786287 0.004716 -4.070353
v -49.473511 39.819583 41.089795
vn 4.481440 0.026567 -4.403528
v -33.908950 47.562868 58.571915
vn 4.731591 0.026832 -4.133952
v -44.290805 37.089390 47.103707
vn 4.749182 -0.031331 -4.113607
v -47.848385 36.514503 43.033938
vn 4.787567 -0.047364 -4.068798
v -48.723940 38.377627 41.988621
vn 4.490587 0.070121 -4.394088
v -34.667830 44.159681 57.749129
vn 4.696512 0.058893 -4.173372
v -42.622878 35.047982 48.981423
vn 2.252784 0.040714 -2.020508
v -41.678700 33.977000 50.017400
vn 1.843686 0.027140 -2.038846
v -27.393600 40.251100 64.698300
vn 4.698257 0.035425 -4.171742
v -41.230679 40.946667 50.619529
vn 4.731163 0.034549 -4.134345
v -42.882568 44.048165 48.771697
vn 4.519165 0.103313 -4.363887
v -35.606395 34.746892 56.591104
vn 4.426894 0.098727 -4.457633
v -32.747260 39.741491 59.614225
vn 4.842666 -0.181672 -3.998305
v -52.104527 36.791806 38.046727
vn 2.439730 -0.315140 -1.816582
v -55.086400 37.596000 34.203400
vn 4.726424 0.004689 -4.139958
v -45.147540 35.571175 46.117399
vn 4.739190 0.028017 -4.125222
v -44.985008 38.981977 46.314709
vn 4.685630 0.050343 -4.185732
v -41.019900 48.809900 50.929300
vn 2.298052 0.020299 -2.069418
v -40.529900 49.560500 51.481700
vn 4.675832 0.037432 -4.196852
v -40.306679 48.069722 51.716140
vn 4.774299 0.033936 -4.084488
v -46.009090 48.614826 45.189113
vn 4.777496 0.023684 -4.080792
v -47.259341 47.563997 43.710405
vn 4.753731 0.013257 -4.108272
v -48.294728 44.528539 42.482680
vn 4.760028 0.012141 -4.101215
v -48.440588 42.432288 42.318314
vn 4.280781 0.023905 -4.598895
v -29.633281 45.644768 62.706034
vn 4.773580 -0.005045 -4.085456
v -47.367183 41.160402 43.572333
vn 4.701806 0.033220 -4.167759
v -41.426368 42.884876 50.414072
vn 4.767176 0.002820 -4.092944
v -46.284392 42.348699 44.832347
vn 4.773502 0.021818 -4.085510
v -46.155081 46.748989 45.005250
vn 4.777208 0.006527 -4.081061
v -47.221532 43.357088 43.730493
vn 4.730054 0.011647 -4.135768
v -45.515791 37.228756 45.697692
vn 4.769774 -0.017140 -4.089834
v -47.536075 39.016180 43.379820
vn 4.733312 0.046292 -4.131823
v -49.226923 47.906828 41.441213
vn 4.425191 0.130502 -4.458560
v -32.770718 35.022678 59.465661
vn 4.664702 0.061041 -4.208536
v -39.967962 39.587756 52.026833
vn 4.612772 0.086473 -4.265328
v -38.630150 38.800975 53.468385
vn 4.751754 0.051870 -4.110469
v -50.386950 47.021772 40.100311
vn 4.742547 0.021067 -4.121427
v -43.581063 48.184838 47.993964
vn 4.632094 0.087082 -4.244317
v -38.887618 35.671863 53.118878
vn 4.420659 0.030536 -4.464665
v -32.736540 47.345047 59.745175
vn 4.594406 0.091355 -4.284982
v -37.555856 39.660518 54.644546
vn 4.293479 0.114114 -4.585895
v -29.416390 37.285596 62.781803
vn 4.528694 0.073620 -4.354397
v -35.736165 42.927266 56.636681
vn 4.784541 0.004185 -4.072513
v -48.545999 40.409745 42.182161
vn 4.474930 0.118834 -4.408924
v -34.360340 34.944395 57.868569
vn 4.684893 0.034627 -4.186745
v -40.155259 43.860670 51.851106
vn 4.623395 0.035695 -4.254522
v -37.998449 44.207343 54.236380
vn 4.607663 0.063932 -4.271043
v -37.868659 41.961311 54.356054
vn 4.771207 0.026847 -4.088112
v -46.256461 44.574628 44.876692
vn 4.729855 0.031108 -4.135837
v -42.628236 46.519151 49.084512
vn 4.749031 0.041108 -4.113613
v -48.213829 48.182283 42.602742
# 193 vertices, 0 vertices normals

f 15//15 149//149 37//37
f 19//19 191//191 172//172
f 20//20 110//110 94//94
f 93//93 78//78 94//94
f 93//93 82//82 99//99
f 77//77 99//99 101//101
f 110//110 104//104 82//82
f 151//151 79//79 111//111
f 116//116 176//176 187//187
f 14//14 119//119 189//189
f 172//172 168//168 166//166
f 74//74 48//48 54//54
f 113//113 95//95 112//112
f 1//1 128//128 71//71
f 45//45 184//184 53//53
f 146//146 57//57 56//56
f 131//131 132//132 134//134
f 181//181 133//133 134//134
f 130//130 41//41 16//16
f 136//136 12//12 62//62
f 146//146 107//107 64//64
f 158//158 139//139 107//107
f 13//13 23//23 109//109
f 141//141 123//123 115//115
f 23//23 17//17 108//108
f 36//36 15//15 37//37
f 177//177 132//132 118//118
f 113//113 115//115 114//114
f 15//15 26//26 149//149
f 26//26 22//22 142//142
f 169//169 153//153 85//85
f 146//146 64//64 57//57
f 165//165 103//103 19//19
f 81//81 68//68 67//67
f 70//70 1//1 157//157
f 147//147 130//130 140//140
f 7//7 105//105 75//75
f 116//116 7//7 176//176
f 118//118 142//142 24//24
f 136//136 61//61 58//58
f 143//143 186//186 147//147
f 160//160 161//161 162//162
f 88//88 12//12 30//30
f 192//192 3//3 4//4
f 180//180 129//129 81//81
f 31//31 9//9 84//84
f 87//87 125//125 91//91
f 3//3 8//8 160//160
f 3//3 160//160 4//4
f 48//48 74//74 106//106
f 74//74 54//54 32//32
f 167//167 32//32 51//51
f 96//96 177//177 178//178
f 80//80 34//34 13//13
f 80//80 35//35 34//34
f 81//81 67//67 180//180
f 146//146 56//56 130//130
f 120//120 83//83 155//155
f 11//11 89//89 78//78
f 89//89 20//20 94//94
f 40//40 90//90 39//39
f 92//92 22//22 159//159
f 13//13 34//34 59//59
f 84//84 86//86 31//31
f 172//172 191//191 170//170
f 94//94 110//110 82//82
f 82//82 93//93 94//94
f 93//93 143//143 78//78
f 94//94 78//78 89//89
f 8//8 3//3 42//42
f 79//79 53//53 95//95
f 98//98 137//137 97//97
f 166//166 99//99 165//165
f 76//76 184//184 45//45
f 165//165 77//77 103//103
f 90//90 179//179 104//104
f 166//166 93//93 99//99
f 99//99 82//82 101//101
f 106//106 141//141 9//9
f 185//185 108//108 148//148
f 14//14 23//23 108//108
f 119//119 14//14 108//108
f 137//137 80//80 109//109
f 80//80 13//13 109//109
f 77//77 165//165 99//99
f 15//15 46//46 158//158
f 46//46 15//15 36//36
f 83//83 120//120 27//27
f 123//123 122//122 111//111
f 111//111 79//79 114//114
f 176//176 50//50 117//117
f 118//118 152//152 177//177
f 137//137 109//109 97//97
f 109//109 14//14 189//189
f 116//116 120//120 7//7
f 92//92 28//28 24//24
f 156//156 55//55 121//121
f 156//156 121//121 11//11
f 111//111 122//122 49//49
f 115//115 123//123 114//114
f 32//32 167//167 74//74
f 181//181 134//134 96//96
f 113//113 79//79 95//95
f 158//158 46//46 139//139
f 55//55 128//128 121//121
f 128//128 55//55 71//71
f 184//184 95//95 53//53
f 134//134 132//132 96//96
f 155//155 83//83 84//84
f 155//155 7//7 120//120
f 134//134 133//133 65//65
f 130//130 56//56 41//41
f 58//58 181//181 136//136
f 183//183 102//102 100//100
f 23//23 13//13 135//135
f 60//60 13//13 59//59
f 60//60 135//135 13//13
f 62//62 61//61 136//136
f 74//74 141//141 106//106
f 141//141 74//74 167//167
f 80//80 137//137 63//63
f 28//28 169//169 152//152
f 92//92 24//24 22//22
f 107//107 139//139 64//64
f 109//109 23//23 14//14
f 11//11 78//78 140//140
f 11//11 140//140 16//16
f 141//141 167//167 123//123
f 26//26 142//142 131//131
f 131//131 142//142 132//132
f 140//140 78//78 143//143
f 17//17 144//144 2//2
f 144//144 17//17 135//135
f 144//144 135//135 44//44
f 23//23 135//135 17//17
f 108//108 17//17 148//148
f 100//100 88//88 183//183
f 150//150 131//131 65//65
f 131//131 134//134 65//65
f 149//149 131//131 150//150
f 149//149 150//150 37//37
f 111//111 49//49 151//151
f 151//151 53//53 79//79
f 79//79 113//113 114//114
f 158//158 145//145 15//15
f 15//15 145//145 26//26
f 149//149 26//26 131//131
f 142//142 22//22 24//24
f 152//152 24//24 28//28
f 126//126 138//138 127//127
f 119//119 190//190 189//189
f 127//127 188//188 97//97
f 51//51 123//123 167//167
f 122//122 123//123 51//51
f 192//192 153//153 124//124
f 124//124 153//153 125//125
f 188//188 169//169 85//85
f 62//62 154//154 66//66
f 180//180 192//192 124//124
f 172//172 165//165 19//19
f 7//7 155//155 112//112
f 112//112 95//95 105//105
f 156//156 69//69 55//55
f 157//157 1//1 71//71
f 147//147 146//146 130//130
f 140//140 130//130 16//16
f 16//16 69//69 156//156
f 69//69 16//16 41//41
f 10//10 88//88 27//27
f 118//118 132//132 142//142
f 152//152 118//118 24//24
f 112//112 105//105 7//7
f 12//12 10//10 154//154
f 10//10 187//187 154//154
f 128//128 1//1 121//121
f 112//112 155//155 6//6
f 113//113 112//112 6//6
f 91//91 125//125 153//153
f 91//91 153//153 28//28
f 40//40 179//179 90//90
f 91//91 28//28 92//92
f 93//93 186//186 143//143
f 140//140 143//143 147//147
f 43//43 160//160 8//8
f 160//160 43//43 161//161
f 162//162 161//161 63//63
f 18//18 92//92 159//159
f 137//137 162//162 63//63
f 29//29 18//18 159//159
f 135//135 60//60 44//44
f 145//145 159//159 22//22
f 96//96 30//30 181//181
f 2//2 144//144 182//182
f 26//26 145//145 22//22
f 30//30 96//96 178//178
f 145//145 173//173 159//159
f 31//31 86//86 148//148
f 144//144 44//44 47//47
f 17//17 2//2 148//148
f 18//18 87//87 91//91
f 50//50 176//176 52//52
f 18//18 91//91 92//92
f 73//73 68//68 81//81
f 80//80 63//63 35//35
f 171//171 164//164 163//163
f 164//164 38//38 163//163
f 107//107 25//25 173//173
f 85//85 192//192 4//4
f 172//172 166//166 165//165
f 171//171 19//19 164//164
f 164//164 193//193 38//38
f 105//105 184//184 76//76
f 166//166 168//168 186//186
f 133//133 181//181 58//58
f 169//169 188//188 138//138
f 169//169 28//28 153//153
f 147//147 186//186 174//174
f 115//115 113//113 6//6
f 29//29 168//168 170//170
f 170//170 87//87 18//18
f 75//75 76//76 33//33
f 182//182 48//48 106//106
f 182//182 47//47 48//48
f 152//152 169//169 138//138
f 125//125 87//87 5//5
f 170//170 18//18 29//29
f 9//9 6//6 84//84
f 192//192 85//85 153//153
f 171//171 5//5 191//191
f 105//105 76//76 75//75
f 52//52 75//75 33//33
f 159//159 25//25 29//29
f 176//176 75//75 52//52
f 173//173 25//25 159//159
f 146//146 174//174 25//25
f 141//141 115//115 9//9
f 158//158 173//173 145//145
f 173//173 158//158 107//107
f 6//6 9//9 115//115
f 170//170 168//168 172//172
f 174//174 146//146 147//147
f 29//29 174//174 168//168
f 102//102 183//183 190//190
f 4//4 160//160 162//162
f 25//25 174//174 29//29
f 174//174 186//186 168//168
f 103//103 77//77 175//175
f 179//179 175//175 77//77
f 179//179 77//77 101//101
f 86//86 84//84 83//83
f 6//6 155//155 84//84
f 104//104 179//179 101//101
f 82//82 104//104 101//101
f 27//27 100//100 21//21
f 126//126 177//177 138//138
f 176//176 7//7 75//75
f 98//98 4//4 162//162
f 177//177 126//126 178//178
f 183//183 178//178 126//126
f 3//3 180//180 42//42
f 154//154 187//187 66//66
f 177//177 152//152 138//138
f 66//66 187//187 117//117
f 83//83 27//27 21//21
f 132//132 177//177 96//96
f 98//98 97//97 188//188
f 95//95 184//184 105//105
f 16//16 156//156 11//11
f 182//182 144//144 47//47
f 88//88 30//30 178//178
f 12//12 88//88 10//10
f 2//2 182//182 106//106
f 85//85 98//98 188//188
f 137//137 98//98 162//162
f 187//187 176//176 117//117
f 27//27 120//120 116//116
f 21//21 86//86 83//83
f 185//185 148//148 86//86
f 21//21 185//185 86//86
f 10//10 27//27 116//116
f 154//154 62//62 12//12
f 27//27 88//88 100//100
f 186//186 93//93 166//166
f 107//107 146//146 25//25
f 4//4 98//98 85//85
f 119//119 108//108 185//185
f 187//187 10//10 116//116
f 102//102 185//185 21//21
f 30//30 12//12 136//136
f 163//163 38//38 73//73
f 102//102 119//119 185//185
f 102//102 21//21 100//100
f 188//188 127//127 138//138
f 181//181 30//30 136//136
f 175//175 72//72 193//193
f 109//109 189//189 97//97
f 175//175 40//40 72//72
f 190//190 119//119 102//102
f 190//190 127//127 189//189
f 97//97 189//189 127//127
f 5//5 124//124 125//125
f 190//190 183//183 126//126
f 175//175 179//179 40//40
f 106//106 31//31 2//2
f 127//127 190//190 126//126
f 191//191 87//87 170//170
f 87//87 191//191 5//5
f 123//123 111//111 114//114
f 2//2 31//31 148//148
f 129//129 180//180 124//124
f 171//171 191//191 19//19
f 129//129 124//124 5//5
f 88//88 178//178 183//183
f 81//81 129//129 163//163
f 171//171 163//163 129//129
f 171//171 129//129 5//5
f 81//81 163//163 73//73
f 9//9 31//31 106//106
f 180//180 67//67 42//42
f 164//164 19//19 103//103
f 3//3 192//192 180//180
f 193//193 72//72 38//38
f 103//103 193//193 164//164
f 175//175 193//193 103//103
# 324 faces, 0 coords texture

# End of File
