####
#
# OBJ File Generated by Meshlab
#
####
# Object 874S.obj
#
# Vertices: 46
# Faces: 70
#
####
vn 4.595169 0.063678 -4.284669
v -48.672478 -18.473783 42.653367
vn 4.596418 0.079178 -4.283095
v -49.940957 -18.307188 41.289870
vn 4.619847 0.027428 -4.258414
v -45.260251 -24.840814 46.281681
vn 4.626351 0.025328 -4.251354
v -47.226940 -22.130000 44.184017
vn 4.597983 0.070751 -4.281537
v -49.635794 -19.735698 41.591355
vn 2.004375 0.032607 -1.869527
v -51.284700 -19.321550 39.836450
vn 2.124898 0.004932 -1.954401
v -44.741800 -25.994100 46.842450
vn 2.061814 0.021120 -1.889694
v -48.123955 -27.413706 43.147591
vn 2.068174 0.035108 -1.904164
v -51.451055 -21.775576 39.603026
vn 2.022724 0.026116 -1.885701
v -50.508343 -17.272664 40.700805
vn 1.963811 0.003025 -1.830760
v -49.144100 -15.656100 42.167700
vn 2.073613 0.003054 -1.906185
v -43.600920 -23.150974 48.096950
vn 1.978487 0.014407 -1.828069
v -45.679000 -15.676450 45.905750
vn 2.619899 0.019145 -2.429136
v -47.381000 -15.070800 44.065700
vn 2.052435 0.013462 -1.909005
v -44.400225 -17.292599 47.270681
vn 2.044992 0.015365 -1.875289
v -46.949500 -27.518300 44.426500
vn 2.645954 0.020955 -2.443730
v -47.133100 -15.095700 44.333700
vn 1.294880 0.013631 -1.196497
v -47.259100 -14.932400 44.199200
vn 4.612338 0.052189 -4.266370
v -46.466049 -23.987494 44.990107
vn 4.603845 0.070960 -4.275222
v -50.493938 -21.416111 40.649209
vn 2.091320 0.024029 -1.929790
v -50.428650 -25.363100 40.656250
vn 4.617427 0.034272 -4.261053
v -45.974917 -18.851765 45.559219
vn 2.064684 0.016482 -1.894673
v -49.602900 -26.478300 41.542400
vn 2.065420 0.012627 -1.921329
v -43.425700 -20.835800 48.285800
vn 2.092635 0.005104 -1.917836
v -45.606900 -26.886300 45.902900
vn 4.619128 0.023186 -4.259282
v -46.568612 -20.514971 44.903528
vn 4.632278 0.039691 -4.244814
v -48.540609 -22.521875 42.740433
vn 4.632116 0.047021 -4.244941
v -47.963172 -25.872842 43.340241
vn 4.631540 0.046186 -4.245406
v -47.560326 -23.908610 43.808412
vn 2.115553 0.008053 -1.940737
v -44.190600 -25.035200 47.447300
vn 4.612023 0.061156 -4.266599
v -49.838029 -23.244439 41.326373
vn 4.604178 0.054351 -4.275100
v -49.424694 -21.404642 41.793409
vn 2.076144 0.030683 -1.916337
v -51.181550 -23.506700 39.868150
vn 4.611181 0.033562 -4.267807
v -45.470332 -17.510194 46.117094
vn 4.613220 0.038539 -4.265564
v -46.983337 -16.962186 44.481042
vn 4.610102 0.041884 -4.268831
v -47.358168 -18.560242 44.058036
vn 4.617198 0.044283 -4.261132
v -48.161943 -20.424141 43.170933
vn 2.069710 0.015914 -1.932673
v -43.684100 -19.109400 48.024000
vn 4.595152 0.031764 -4.285077
v -47.965336 -16.472881 43.428935
vn 4.632626 0.046582 -4.244293
v -48.973682 -24.589632 42.242681
vn 4.604243 0.031460 -4.275307
v -45.075375 -20.714837 46.517583
vn 4.600994 0.034759 -4.278765
v -44.620230 -19.004490 47.022357
vn 4.608007 0.034792 -4.271188
v -45.786890 -22.551392 45.739898
vn 4.611702 0.023615 -4.267278
v -44.488465 -22.853979 47.131924
vn 4.595683 0.039821 -4.284196
v -49.344356 -17.256097 41.952849
vn 4.622993 0.041260 -4.254875
v -46.553832 -25.572501 44.871656
# 46 vertices, 0 vertices normals

f 39//39 11//11 14//14
f 21//21 40//40 23//23
f 35//35 14//14 17//17
f 17//17 14//14 18//18
f 27//27 31//31 32//32
f 35//35 22//22 36//36
f 1//1 36//36 37//37
f 29//29 28//28 40//40
f 2//2 10//10 45//45
f 31//31 21//21 33//33
f 34//34 22//22 35//35
f 35//35 13//13 34//34
f 24//24 12//12 44//44
f 1//1 5//5 2//2
f 1//1 37//37 5//5
f 5//5 37//37 32//32
f 20//20 9//9 6//6
f 20//20 5//5 32//32
f 41//41 22//22 42//42
f 15//15 38//38 42//42
f 3//3 19//19 43//43
f 43//43 41//41 44//44
f 6//6 5//5 20//20
f 25//25 3//3 7//7
f 3//3 25//25 46//46
f 43//43 26//26 41//41
f 43//43 4//4 26//26
f 4//4 27//27 37//37
f 37//37 27//27 32//32
f 8//8 28//28 16//16
f 30//30 7//7 3//3
f 12//12 30//30 44//44
f 22//22 34//34 42//42
f 4//4 29//29 27//27
f 27//27 29//29 40//40
f 27//27 40//40 31//31
f 32//32 31//31 20//20
f 20//20 33//33 9//9
f 20//20 31//31 33//33
f 15//15 34//34 13//13
f 14//14 35//35 39//39
f 35//35 17//17 13//13
f 22//22 26//26 36//36
f 1//1 39//39 36//36
f 37//37 36//36 26//26
f 37//37 26//26 4//4
f 41//41 26//26 22//22
f 42//42 38//38 24//24
f 28//28 29//29 46//46
f 40//40 28//28 23//23
f 44//44 41//41 24//24
f 15//15 42//42 34//34
f 41//41 42//42 24//24
f 31//31 40//40 21//21
f 3//3 43//43 44//44
f 2//2 45//45 1//1
f 28//28 8//8 23//23
f 2//2 5//5 6//6
f 2//2 6//6 10//10
f 44//44 30//30 3//3
f 45//45 10//10 11//11
f 19//19 29//29 4//4
f 19//19 4//4 43//43
f 39//39 45//45 11//11
f 45//45 39//39 1//1
f 19//19 46//46 29//29
f 46//46 25//25 16//16
f 3//3 46//46 19//19
f 28//28 46//46 16//16
f 39//39 35//35 36//36
# 70 faces, 0 coords texture

# End of File
