####
#
# OBJ File Generated by Meshlab
#
####
# Object 908S.obj
#
# Vertices: 60
# Faces: 95
#
####
vn -3.035332 0.005695 -5.500002
v 15.465158 3.831867 75.334622
vn -3.613905 0.093915 -5.138359
v 20.715966 7.382345 72.062819
vn -3.637700 0.092143 -5.121760
v 20.626028 12.571355 72.221252
vn -3.631891 0.086581 -5.125040
v 20.641679 10.797753 72.188807
vn -3.264208 0.073650 -5.367294
v 17.504653 10.528989 74.241946
vn -3.050375 0.046053 -5.492360
v 15.778825 5.760044 75.159788
vn -3.670337 0.029086 -5.099175
v 21.532411 5.954283 71.461506
vn -3.486392 0.106452 -5.225929
v 19.182244 7.885872 73.116674
vn -3.062360 0.094099 -5.483844
v 16.058181 9.238976 75.072995
vn -1.746928 -0.003088 -2.321255
v 22.080500 0.680736 71.042650
vn -1.694166 0.009252 -2.187086
v 23.443000 1.858975 69.979200
vn -1.784306 0.028615 -2.136015
v 25.074700 6.239955 68.732750
vn -1.273984 -0.005433 -2.417479
v 14.145800 3.390890 76.030900
vn -1.741600 0.023699 -2.206617
v 24.929750 8.367240 68.891500
vn -1.334994 0.079042 -2.270624
v 15.628100 13.147300 75.418200
vn -1.473895 0.118746 -2.704343
v 14.432000 11.005400 76.003400
vn -1.512961 0.070636 -2.460011
v 17.188800 14.155750 74.516300
vn -1.774510 0.052372 -2.397582
v 22.105500 13.280000 71.157800
vn -1.194812 0.020662 -2.406791
v 13.311500 7.391250 76.463800
vn -1.596711 0.043180 -2.267876
v 20.611246 14.349687 72.270710
vn -1.664845 -0.006376 -3.371270
v 13.752100 9.308970 76.269000
vn -1.002449 0.019522 -2.035228
v 13.676200 9.520040 76.301800
vn -1.731840 0.036783 -2.203288
v 24.613254 4.010402 69.099615
vn -2.906301 0.073578 -5.568931
v 14.538028 7.123947 75.852615
vn -3.619672 0.012478 -5.132658
v 21.026867 2.252250 71.824572
vn -3.294802 0.087068 -5.346332
v 17.693733 6.389862 74.068587
vn -3.092839 0.109677 -5.467945
v 16.323682 7.425072 74.875912
vn -1.723563 0.039335 -2.259320
v 23.257497 12.097868 70.252568
vn -3.532210 0.026314 -5.195465
v 20.257692 4.250425 72.353300
vn -3.476778 -0.083520 -5.232661
v 19.655770 0.977752 72.741970
vn -1.705380 -0.004616 -2.414840
v 21.170900 0.252719 71.712700
vn -3.515090 0.061202 -5.207218
v 19.613351 6.079191 72.799456
vn -1.493761 0.032524 -2.282387
v 18.867450 14.678750 73.467600
vn -3.447220 0.101876 -5.250370
v 19.099511 11.569585 73.258027
vn -3.799099 0.032534 -5.004068
v 23.157487 7.205925 70.267823
vn -3.749230 0.084400 -5.041076
v 21.843870 11.778843 71.319813
vn -3.620956 0.110573 -5.132329
v 20.644412 8.995954 72.151271
vn -3.116484 0.146297 -5.453319
v 15.936615 11.212805 75.169819
vn -1.615487 -0.070331 -2.405170
v 19.742950 -0.059673 72.713750
vn -3.261306 0.004293 -5.368322
v 17.186409 2.389171 74.337733
vn -1.418641 -0.000627 -2.440483
v 16.516900 0.698611 74.727350
vn -3.204864 0.036319 -5.403604
v 16.920080 4.441591 74.497578
vn -1.426851 0.002937 -2.562432
v 15.033080 2.120521 75.567413
vn -1.513842 -0.025495 -2.390020
v 17.848000 0.087071 73.939000
vn -3.461562 0.106988 -5.241742
v 19.116625 9.696369 73.205272
vn -1.435627 0.013231 -2.738191
v 13.731101 5.159402 76.246638
vn -2.901015 0.146260 -5.570815
v 14.702805 9.708475 75.797954
vn -3.289369 0.090692 -5.349724
v 17.646110 8.558473 74.136793
vn -3.443287 -0.002705 -5.255262
v 18.983710 2.151538 73.167037
vn -3.917792 0.043572 -4.910187
v 24.201389 6.192395 69.461627
vn -3.407748 0.066500 -5.277779
v 18.495948 4.426794 73.521003
vn -3.828603 0.074484 -4.981316
v 23.327313 9.722339 70.163209
vn -1.826012 0.042371 -2.353303
v 24.347900 10.019525 69.376650
vn -3.272205 0.132219 -5.361987
v 17.449566 12.458336 74.303332
vn -3.825538 0.057547 -4.983795
v 22.704304 2.981066 70.556158
vn -3.762350 0.084248 -5.031166
v 22.055648 10.251792 71.139600
vn -3.718205 0.035980 -5.062993
v 21.783297 4.096065 71.282732
vn -3.803802 0.059186 -4.999656
v 23.056810 5.111744 70.334664
vn -3.454416 0.103665 -5.245033
v 19.066003 13.337161 73.318534
vn -3.739580 0.070383 -5.048551
v 22.142394 8.004949 71.033827
# 60 vertices, 0 vertices normals

f 9//9 48//48 27//27
f 2//2 8//8 37//37
f 34//34 5//5 54//54
f 1//1 42//42 40//40
f 5//5 45//45 48//48
f 40//40 42//42 51//51
f 47//47 21//21 22//22
f 55//55 11//11 10//10
f 5//5 9//9 38//38
f 54//54 38//38 15//15
f 9//9 24//24 47//47
f 10//10 25//25 55//55
f 50//50 12//12 23//23
f 58//58 50//50 23//23
f 28//28 53//53 52//52
f 31//31 25//25 10//10
f 31//31 39//39 30//30
f 32//32 2//2 7//7
f 59//59 33//33 20//20
f 8//8 32//32 26//26
f 9//9 5//5 48//48
f 27//27 48//48 26//26
f 31//31 30//30 25//25
f 2//2 32//32 8//8
f 38//38 16//16 15//15
f 41//41 43//43 40//40
f 24//24 9//9 27//27
f 24//24 27//27 6//6
f 4//4 34//34 3//3
f 13//13 1//1 43//43
f 43//43 1//1 40//40
f 41//41 40//40 44//44
f 34//34 4//4 45//45
f 7//7 2//2 60//60
f 7//7 35//35 58//58
f 36//36 28//28 56//56
f 46//46 19//19 24//24
f 33//33 59//59 17//17
f 4//4 3//3 36//36
f 28//28 36//36 18//18
f 54//54 59//59 34//34
f 34//34 59//59 3//3
f 35//35 14//14 50//50
f 26//26 48//48 8//8
f 51//51 49//49 40//40
f 56//56 4//4 36//36
f 59//59 20//20 3//3
f 4//4 56//56 37//37
f 50//50 14//14 12//12
f 5//5 34//34 45//45
f 48//48 45//45 8//8
f 56//56 52//52 60//60
f 25//25 29//29 57//57
f 46//46 1//1 13//13
f 6//6 1//1 46//46
f 19//19 21//21 24//24
f 47//47 24//24 21//21
f 42//42 1//1 6//6
f 37//37 8//8 45//45
f 37//37 45//45 4//4
f 38//38 9//9 47//47
f 38//38 47//47 16//16
f 15//15 17//17 54//54
f 16//16 47//47 22//22
f 2//2 37//37 60//60
f 37//37 56//56 60//60
f 32//32 7//7 29//29
f 49//49 25//25 30//30
f 53//53 14//14 52//52
f 58//58 23//23 55//55
f 11//11 55//55 23//23
f 58//58 55//55 57//57
f 54//54 5//5 38//38
f 26//26 42//42 6//6
f 27//27 26//26 6//6
f 51//51 26//26 32//32
f 36//36 3//3 18//18
f 51//51 42//42 26//26
f 25//25 49//49 29//29
f 7//7 57//57 29//29
f 58//58 35//35 50//50
f 29//29 49//49 51//51
f 3//3 20//20 18//18
f 25//25 57//57 55//55
f 32//32 29//29 51//51
f 58//58 57//57 7//7
f 59//59 54//54 17//17
f 30//30 39//39 44//44
f 52//52 56//56 28//28
f 52//52 35//35 60//60
f 7//7 60//60 35//35
f 49//49 30//30 44//44
f 40//40 49//49 44//44
f 14//14 35//35 52//52
f 24//24 6//6 46//46
# 95 faces, 0 coords texture

# End of File
