####
#
# OBJ File Generated by Meshlab
#
####
# Object 92.obj
#
# Vertices: 44
# Faces: 66
#
####
vn 0.662593 -0.057791 -3.065720
v -8.815750 -50.000000 41.943000
vn 1.523672 0.068844 -6.095212
v -9.617206 -42.007198 41.774920
vn 0.578869 -0.015776 -6.256140
v -3.649875 -40.023931 42.782085
vn 1.249367 0.110588 -6.148300
v -7.644526 -47.118755 42.208120
vn 0.249973 0.028532 -3.127514
v -2.340240 -47.879400 42.824600
vn 0.424629 0.055614 -3.110197
v -5.390840 -37.999000 42.613300
vn 0.379242 -0.031802 -1.494354
v -10.918300 -50.000000 41.404200
vn 0.279147 0.005140 -3.124848
v -3.467730 -37.996850 42.801350
vn 0.363243 0.016686 -1.506393
v -10.957700 -38.000000 41.491100
vn 0.134204 0.035144 -1.571393
v -2.351350 -50.000000 42.790600
vn 0.113165 -0.009877 -1.557909
v -2.375620 -38.000000 42.880700
vn 1.530642 0.100068 -6.092980
v -9.565938 -44.158385 41.751940
vn 0.632139 0.074927 -6.247245
v -4.338082 -44.612556 42.711638
vn 0.738756 -0.013507 -6.238215
v -5.034992 -41.121384 42.648781
vn 1.479979 0.039685 -6.106036
v -9.615173 -39.907467 41.793701
vn 1.293005 -0.046782 -6.147799
v -8.240419 -39.475194 42.110577
vn 1.565417 0.059746 -6.084709
v -9.398645 -46.326797 41.771593
vn 0.716043 0.052733 -6.240794
v -4.816210 -42.865750 42.664634
vn 0.224578 0.048178 -3.135534
v -2.334520 -45.449191 42.831731
vn 0.249280 -0.002171 -3.156037
v -2.387535 -38.988250 42.886100
vn 0.484251 0.093249 -3.102723
v -7.060755 -50.000000 42.219400
vn 1.063477 0.143342 -6.189377
v -7.119857 -48.932574 42.242256
vn 0.781371 0.044236 -3.031229
v -10.874800 -45.530550 41.395100
vn 1.014335 0.049772 -6.195577
v -6.686784 -42.077718 42.429784
vn 1.367403 0.094411 -6.129181
v -8.221839 -43.066753 42.110667
vn 0.593985 0.103689 -6.253036
v -3.799389 -48.580516 42.698677
vn 0.250253 0.032726 -3.107729
v -2.326275 -43.016800 42.888200
vn 0.382978 0.076566 -3.117407
v -4.872935 -50.000000 42.557950
vn 0.767792 0.031814 -3.070835
v -10.893100 -40.638950 41.464800
vn 0.797256 -0.002049 -3.081907
v -10.841511 -47.632300 41.378834
vn 1.335974 0.047001 -6.136095
v -8.008228 -45.083638 42.134252
vn 0.745590 0.045719 -3.045831
v -10.896200 -42.933150 41.452200
vn 0.911499 0.065147 -6.213154
v -6.111978 -45.926437 42.474834
vn 0.244136 -0.004288 -3.137659
v -2.359455 -41.207300 42.888600
vn 0.556148 0.022837 -6.257495
v -3.561396 -41.739252 42.798010
vn 0.998880 0.068592 -6.201575
v -6.481954 -43.980608 42.422556
vn 0.562145 -0.015354 -3.090052
v -7.234180 -37.998891 42.300038
vn 0.836054 0.127129 -6.224333
v -5.608026 -47.955039 42.504177
vn 1.349146 0.004607 -6.132314
v -8.252057 -41.119403 42.130484
vn 0.695454 0.008113 -3.063152
v -9.660430 -37.999500 41.798100
vn 1.468516 -0.026034 -6.107971
v -9.138025 -48.393668 41.821820
vn 0.789072 0.004007 -6.232279
v -5.235616 -39.228413 42.612509
vn 1.018659 -0.056583 -6.197903
v -6.731075 -40.205336 42.407187
vn 0.594238 0.082250 -6.253653
v -4.107159 -46.750612 42.688505
# 44 vertices, 0 vertices normals

f 1//1 41//41 22//22
f 23//23 12//12 17//17
f 2//2 29//29 15//15
f 10//10 26//26 5//5
f 32//32 2//2 12//12
f 20//20 8//8 11//11
f 8//8 3//3 42//42
f 25//25 31//31 12//12
f 39//39 25//25 2//2
f 14//14 3//3 35//35
f 36//36 33//33 31//31
f 18//18 13//13 36//36
f 15//15 9//9 40//40
f 44//44 19//19 5//5
f 30//30 41//41 7//7
f 20//20 3//3 8//8
f 20//20 34//34 3//3
f 21//21 1//1 22//22
f 41//41 30//30 17//17
f 23//23 32//32 12//12
f 18//18 27//27 13//13
f 24//24 36//36 25//25
f 28//28 26//26 10//10
f 44//44 5//5 26//26
f 27//27 19//19 13//13
f 1//1 7//7 41//41
f 15//15 29//29 9//9
f 30//30 23//23 17//17
f 12//12 31//31 17//17
f 17//17 31//31 4//4
f 32//32 29//29 2//2
f 6//6 8//8 42//42
f 24//24 18//18 36//36
f 17//17 4//4 41//41
f 4//4 22//22 41//41
f 2//2 25//25 12//12
f 25//25 36//36 31//31
f 34//34 27//27 35//35
f 15//15 39//39 2//2
f 39//39 24//24 25//25
f 35//35 3//3 34//34
f 31//31 33//33 4//4
f 37//37 6//6 42//42
f 13//13 19//19 44//44
f 38//38 22//22 4//4
f 38//38 4//4 33//33
f 44//44 26//26 38//38
f 36//36 13//13 33//33
f 18//18 24//24 14//14
f 15//15 16//16 39//39
f 40//40 16//16 15//15
f 39//39 43//43 24//24
f 16//16 43//43 39//39
f 14//14 43//43 42//42
f 42//42 3//3 14//14
f 16//16 37//37 43//43
f 26//26 28//28 38//38
f 16//16 40//40 37//37
f 18//18 14//14 35//35
f 18//18 35//35 27//27
f 43//43 14//14 24//24
f 44//44 33//33 13//13
f 22//22 38//38 28//28
f 22//22 28//28 21//21
f 44//44 38//38 33//33
f 43//43 37//37 42//42
# 66 faces, 0 coords texture

# End of File
