####
#
# OBJ File Generated by Meshlab
#
####
# Object 997S.obj
#
# Vertices: 145
# Faces: 234
#
####
vn -4.687920 0.022496 -4.183410
v 49.501010 8.874555 48.936799
vn -4.675895 0.042076 -4.196695
v 50.882293 -0.255401 47.312131
vn -4.674597 0.012187 -4.198315
v 52.809847 -0.746221 45.172597
vn -4.696888 0.073996 -4.172748
v 52.220905 -18.277712 45.611376
vn -4.683279 0.065329 -4.188186
v 50.726503 -17.755254 47.293063
vn -4.680285 0.056761 -4.191613
v 51.352540 -13.505537 46.641737
vn -4.684815 0.037048 -4.186800
v 47.345776 -10.777048 51.152212
vn -4.671043 0.042007 -4.202107
v 49.376317 -2.783737 48.960960
vn -4.693698 0.032944 -4.176593
v 47.408636 -16.032277 51.029681
vn -4.716919 0.070870 -4.150152
v 51.920440 -24.926990 45.819244
vn -4.665519 0.034701 -4.208317
v 50.669538 -2.272536 47.531850
vn -4.666004 0.045315 -4.207637
v 46.155953 3.129429 52.618725
vn -4.703444 0.013253 -4.165997
v 52.902339 1.575249 45.072305
vn -4.672428 0.064831 -4.200261
v 51.102698 -11.480696 46.957500
vn -4.690124 0.044764 -4.180786
v 50.578088 4.188868 47.706874
vn -4.689151 0.035389 -4.181791
v 49.371595 5.340649 49.079332
vn -4.714598 0.086347 -4.152514
v 51.778365 -23.208279 46.010156
vn -4.697575 0.075204 -4.171957
v 50.645194 -24.160330 47.269471
vn -4.682407 0.062663 -4.189169
v 47.973914 1.995577 50.582389
vn -4.676685 0.048944 -4.195776
v 48.792906 -10.106182 49.538595
vn -4.718455 0.095257 -4.147953
v 51.264256 -27.937353 46.501083
vn -4.709499 0.024620 -4.159100
v 52.815180 5.834063 45.198711
vn -4.678063 0.050315 -4.194234
v 50.413399 1.616847 47.858876
vn -4.690175 0.006562 -4.180984
v 49.245996 7.381935 49.221085
vn -4.670332 0.053011 -4.202793
v 46.618016 1.477083 52.091256
vn -4.668601 0.060606 -4.204528
v 47.227827 3.034571 51.437050
vn -4.666480 0.049554 -4.207116
v 49.352709 -8.243943 48.937231
vn -2.804419 0.028312 -2.518514
v 47.935200 -4.948080 50.544200
vn -2.471444 0.021270 -2.191236
v 47.777350 -18.221100 50.590150
vn -2.135760 0.025844 -1.923794
v 45.825400 6.763635 53.048050
vn -2.039021 0.009925 -1.816240
v 47.577900 9.919710 51.103150
vn -2.811269 0.020495 -2.548874
v 51.263300 -6.225810 46.846200
vn -3.558137 0.027384 -3.224136
v 51.216400 -6.020590 46.899700
vn -2.036011 0.024377 -1.853345
v 45.762395 -13.111700 52.880318
vn -2.247999 0.028795 -2.010505
v 53.394100 -14.218000 44.343100
vn -2.156878 0.038498 -1.904911
v 54.524300 -19.603950 42.976000
vn -2.018634 0.014977 -1.801413
v 48.852350 10.629250 49.678300
vn -2.720467 0.040094 -2.397755
v 53.681600 -18.526600 43.951600
vn -2.120576 0.027861 -1.882217
v 52.763950 -9.389260 45.121000
vn -2.044827 0.052940 -1.833092
v 55.689500 -23.335900 41.587550
vn -2.078435 0.040806 -1.829549
v 50.566050 -29.406100 47.264300
vn -2.780191 0.032792 -2.464049
v 53.116100 -16.372700 44.632300
vn -2.243432 0.015605 -1.971010
v 53.902650 4.263645 43.947900
vn -1.844818 0.015413 -1.666709
v 51.344800 -5.973000 46.758500
vn -2.077042 0.011011 -1.841025
v 51.735950 9.717950 46.430200
vn -2.390452 0.029215 -2.138644
v 52.130600 -4.500640 45.892900
vn -2.162973 0.004953 -1.950509
v 53.472000 -1.737470 44.435800
vn -2.086435 0.052934 -1.840158
v 55.441032 -25.719866 41.781049
vn -2.784110 0.025862 -2.486389
v 48.402250 -19.445600 49.874200
vn -2.083059 0.047816 -1.865078
v 55.372800 -21.463700 41.987800
vn -3.118328 0.029154 -2.805074
v 48.264500 -6.888840 50.165700
vn -2.197650 0.030568 -1.982122
v 45.395200 4.767080 53.483050
vn -2.168115 0.018765 -1.940813
v 45.260700 3.116300 53.618700
vn -2.242291 0.022878 -2.013759
v 45.347700 1.922940 53.509000
vn -2.165822 0.027981 -1.952868
v 45.729126 -0.473503 53.048734
vn -2.600108 0.045869 -2.315044
v 48.503700 -22.056300 49.724000
vn -2.112069 0.041588 -1.882877
v 49.608400 -28.445650 48.364650
vn -2.119703 0.022173 -1.907736
v 47.010150 -3.795115 51.591050
vn -2.021736 0.042795 -1.773681
v 51.787750 -29.802450 45.861250
vn -2.118933 0.021916 -1.879179
v 53.248800 -10.922600 44.555100
vn -2.196681 0.034995 -1.954093
v 53.446050 -13.133925 44.304525
vn -2.074676 0.015378 -1.869525
v 46.492100 -16.415757 52.043638
vn -2.228523 0.004758 -1.958835
v 54.009300 2.512500 43.813700
vn -1.943013 0.016213 -1.757924
v 51.377700 -6.338660 46.719400
vn -2.051261 0.047589 -1.783101
v 54.719769 -27.699778 42.546968
vn -2.147692 0.005994 -1.900600
v 52.789750 8.250480 45.234200
vn -2.558714 0.033049 -2.290418
v 51.952100 -8.079360 46.059700
vn -2.129050 0.037663 -1.892333
v 48.311300 -23.037200 49.918200
vn -2.106489 0.033549 -1.869557
v 48.320350 -24.642400 49.880100
vn -2.131185 0.011133 -1.879036
v 53.551300 6.380855 44.367050
vn -2.098230 0.031231 -1.870845
v 48.876831 -27.053746 49.210139
vn -2.171997 0.015709 -1.959225
v 52.858150 -3.317280 45.102250
vn -2.079791 0.016654 -1.870735
v 46.060800 -10.817700 52.585900
vn -2.242178 0.023118 -2.023015
v 46.316200 -2.235545 52.374500
vn -4.691385 0.028887 -4.179447
v 48.546955 -17.540220 49.725646
vn -4.671392 0.048457 -4.201633
v 49.743859 -0.704599 48.582121
vn -2.148985 0.012293 -1.926204
v 46.678850 -9.228695 51.905050
vn -4.662272 0.036536 -4.211914
v 49.995622 -6.319788 48.245037
vn -4.692090 0.056700 -4.178311
v 52.553260 -14.208667 45.283400
vn -4.725253 0.079669 -4.140523
v 53.007329 -23.676068 44.598926
vn -4.687342 0.049449 -4.183815
v 49.678068 -18.791195 48.455887
vn -4.724366 0.098658 -4.141122
v 52.397740 -28.279880 45.204183
vn -4.673916 0.055220 -4.198603
v 46.764185 -12.697320 51.785243
vn -4.690274 0.053614 -4.180520
v 48.183708 -12.028598 50.194855
vn -4.712154 0.095427 -4.154954
v 53.190293 -20.152167 44.483379
vn -4.737066 0.096063 -4.126649
v 53.389017 -27.327234 44.091779
vn -4.689994 0.015636 -4.181162
v 47.636668 7.858084 51.028110
vn -2.163079 0.008150 -1.933271
v 46.516031 8.389635 52.285938
vn -4.678298 0.048765 -4.193853
v 48.424402 -1.243955 50.033601
vn -4.686289 0.047279 -4.184869
v 51.469656 -15.867199 46.496626
vn -4.704946 0.088159 -4.163355
v 52.088260 -20.885430 45.711231
vn -4.696172 0.081485 -4.173341
v 50.080670 -27.426153 47.857411
vn -4.699433 0.081488 -4.169694
v 50.742513 -22.036149 47.210215
vn -4.734748 0.097762 -4.129264
v 54.241862 -26.191649 43.138779
vn -2.053172 0.042501 -1.789541
v 53.450667 -29.182914 43.978401
vn -4.689804 0.042188 -4.181174
v 50.287550 9.656229 48.065154
vn -2.125057 0.024904 -1.890086
v 50.566800 10.421494 47.761271
vn -4.667346 0.041114 -4.206243
v 49.807027 -16.471589 48.333139
vn -4.695764 0.110403 -4.173058
v 54.255016 -22.592983 43.202348
vn -4.674861 0.042041 -4.197868
v 48.032307 -8.710107 50.398835
vn -2.321091 0.023814 -2.087684
v 47.605400 -7.835300 50.883450
vn -4.675101 0.049314 -4.197350
v 46.719410 6.378999 52.050370
vn -4.663684 0.060410 -4.210067
v 46.988731 4.593820 51.718310
vn -4.658267 0.034640 -4.216365
v 50.419598 -4.548170 47.791430
vn -4.663657 0.027159 -4.210457
v 51.806265 -1.618537 46.277565
vn -4.694093 0.051514 -4.176265
v 52.299037 -10.759935 45.626313
vn -4.690379 0.065473 -4.180092
v 52.414582 -12.259251 45.482148
vn -4.666600 0.042990 -4.207045
v 50.005854 -14.603744 48.133400
vn -4.700437 0.025482 -4.169352
v 51.741172 5.160616 46.407580
vn -4.679281 0.057505 -4.192695
v 47.443259 0.068835 51.157362
vn -4.664344 0.057424 -4.209394
v 50.144979 -9.849231 48.040477
vn -4.679918 0.060389 -4.191998
v 48.885318 -13.493880 49.389141
vn -4.671631 0.037821 -4.201494
v 48.953552 -4.759776 49.412261
vn -4.671255 0.055013 -4.201732
v 50.164449 -13.019886 47.971335
vn -4.676375 0.052860 -4.196065
v 48.867963 0.750974 49.568645
vn -4.693113 0.067483 -4.177120
v 49.596844 -25.361042 48.428020
vn -4.693294 0.066546 -4.176894
v 49.652213 -20.853825 48.457161
vn -4.730865 0.079878 -4.134077
v 53.180481 -25.542614 44.370934
vn -4.665755 0.035428 -4.207990
v 51.554442 -3.739406 46.547295
vn -4.680329 0.033827 -4.191816
v 47.997161 5.935222 50.616550
vn -4.681736 0.065394 -4.189917
v 49.341140 2.968083 49.072729
vn -4.676813 0.062968 -4.195394
v 48.208084 4.007828 50.360009
vn -2.135610 0.019252 -1.927448
v 46.024400 -15.039500 52.569200
vn -2.189507 -0.003599 -1.942412
v 53.909847 0.476187 43.935639
vn -4.694321 0.036125 -4.176104
v 51.775169 2.938472 46.354725
vn -4.697395 0.016372 -4.172826
v 50.608272 6.431623 47.690185
vn -4.692697 0.019551 -4.178096
v 48.449146 8.978787 50.118538
vn -4.703648 0.071627 -4.165036
v 50.834878 -26.074046 47.033300
vn -4.679078 0.041007 -4.193144
v 48.038547 -3.090920 50.455709
vn -4.671753 0.060268 -4.201110
v 49.546586 -11.678441 48.676726
vn -4.694490 0.017878 -4.176097
v 50.597306 8.357777 47.706743
vn -4.711852 0.098532 -4.155164
v 54.321375 -24.506061 43.080112
vn -4.695114 0.085780 -4.174550
v 49.380995 -23.135065 48.712746
vn -4.715690 0.027339 -4.152094
v 52.904621 3.715732 45.080056
vn -4.701372 0.013545 -4.168371
v 51.706286 7.339806 46.455113
vn -4.705806 0.113095 -4.161814
v 53.992377 -21.026121 43.545661
vn -4.681200 0.062205 -4.190506
v 51.503798 -9.619041 46.537759
vn -4.722799 0.090514 -4.143100
v 52.117092 -26.697580 45.560169
vn -4.662633 0.048519 -4.211366
v 50.769134 -7.801673 47.378547
vn -4.677360 0.035166 -4.195153
v 51.819931 0.682479 46.280071
vn -4.673013 0.050148 -4.199843
v 47.129005 -1.622779 51.480642
vn -4.693534 0.042102 -4.176391
v 48.471337 -15.321948 49.817730
vn -4.693868 0.054596 -4.176442
v 47.534321 -13.920431 50.902872
vn -4.718353 0.106314 -4.147738
v 53.099271 -22.039649 44.528637
vn -4.695197 0.064906 -4.174798
v 50.913721 -19.920823 47.044133
# 145 vertices, 0 vertices normals

f 90//90 4//4 5//5
f 3//3 47//47 72//72
f 117//117 56//56 49//49
f 104//104 8//8 11//11
f 107//107 61//61 79//79
f 86//86 94//94 65//65
f 93//93 18//18 133//133
f 20//20 7//7 100//100
f 138//138 82//82 21//21
f 130//130 111//111 14//14
f 118//118 80//80 132//132
f 92//92 116//116 128//128
f 119//119 72//72 46//46
f 9//9 123//123 143//143
f 129//129 113//113 28//28
f 11//11 105//105 119//119
f 75//75 98//98 81//81
f 126//126 135//135 109//109
f 109//109 15//15 126//126
f 112//112 130//130 114//114
f 138//138 118//118 86//86
f 125//125 15//15 109//109
f 26//26 25//25 12//12
f 120//120 24//24 16//16
f 120//120 122//122 103//103
f 122//122 16//16 121//121
f 135//135 126//126 131//131
f 89//89 115//115 76//76
f 100//100 77//77 101//101
f 127//127 31//31 37//37
f 98//98 90//90 5//5
f 32//32 78//78 33//33
f 83//83 34//34 73//73
f 27//27 78//78 139//139
f 99//99 136//136 50//50
f 113//113 78//78 51//51
f 83//83 7//7 84//84
f 1//1 37//37 96//96
f 97//97 96//96 37//37
f 38//38 36//36 85//85
f 87//87 31//31 127//127
f 76//76 8//8 89//89
f 115//115 89//89 110//110
f 57//57 92//92 41//41
f 88//88 102//102 30//30
f 87//87 102//102 88//88
f 13//13 3//3 140//140
f 90//90 6//6 79//79
f 17//17 93//93 91//91
f 104//104 119//119 44//44
f 33//33 104//104 44//44
f 33//33 78//78 104//104
f 44//44 119//119 46//46
f 40//40 132//132 99//99
f 132//132 40//40 48//48
f 95//95 59//59 82//82
f 94//94 132//132 48//48
f 65//65 94//94 48//48
f 97//97 45//45 96//96
f 135//135 45//45 66//66
f 49//49 75//75 81//81
f 29//29 75//75 49//49
f 75//75 142//142 98//98
f 99//99 50//50 40//40
f 101//101 51//51 100//100
f 51//51 27//27 100//100
f 27//27 20//20 100//100
f 102//102 52//52 30//30
f 25//25 55//55 54//54
f 12//12 25//25 54//54
f 102//102 103//103 52//52
f 89//89 8//8 129//129
f 19//19 115//115 110//110
f 71//71 116//116 92//92
f 71//71 92//92 57//57
f 128//128 21//21 92//92
f 25//25 110//110 55//55
f 119//119 104//104 11//11
f 2//2 105//105 11//11
f 108//108 6//6 90//90
f 124//124 13//13 63//63
f 51//51 28//28 113//113
f 13//13 134//134 63//63
f 36//36 136//136 85//85
f 23//23 2//2 76//76
f 64//64 139//139 32//32
f 80//80 118//118 10//10
f 144//144 17//17 91//91
f 90//90 98//98 108//108
f 25//25 19//19 110//110
f 35//35 79//79 61//61
f 121//121 16//16 15//15
f 87//87 120//120 102//102
f 102//102 120//120 103//103
f 111//111 20//20 27//27
f 10//10 18//18 17//17
f 78//78 113//113 104//104
f 104//104 113//113 8//8
f 108//108 114//114 6//6
f 76//76 115//115 23//23
f 93//93 17//17 18//18
f 82//82 86//86 95//95
f 95//95 86//86 65//65
f 6//6 114//114 14//14
f 137//137 67//67 39//39
f 67//67 137//137 139//139
f 100//100 7//7 77//77
f 21//21 128//128 138//138
f 138//138 86//86 82//82
f 27//27 139//139 111//111
f 114//114 130//130 14//14
f 130//130 20//20 111//111
f 99//99 80//80 144//144
f 94//94 118//118 132//132
f 132//132 80//80 99//99
f 119//119 105//105 72//72
f 14//14 137//137 106//106
f 8//8 76//76 11//11
f 11//11 76//76 2//2
f 121//121 23//23 115//115
f 121//121 115//115 19//19
f 26//26 122//122 19//19
f 84//84 7//7 20//20
f 137//137 39//39 106//106
f 60//60 106//106 39//39
f 9//9 62//62 123//123
f 83//83 73//73 7//7
f 77//77 7//7 73//73
f 124//124 3//3 13//13
f 124//124 47//47 3//3
f 134//134 109//109 22//22
f 2//2 23//23 140//140
f 24//24 126//126 16//16
f 24//24 120//120 87//87
f 127//127 24//24 87//87
f 127//127 1//1 24//24
f 129//129 58//58 141//141
f 134//134 125//125 109//109
f 64//64 67//67 139//139
f 70//70 22//22 66//66
f 18//18 128//128 116//116
f 128//128 18//18 10//10
f 129//129 8//8 113//113
f 55//55 110//110 141//141
f 110//110 89//89 141//141
f 55//55 141//141 74//74
f 58//58 129//129 28//28
f 21//21 59//59 41//41
f 59//59 21//21 82//82
f 92//92 21//21 41//41
f 117//117 49//49 81//81
f 81//81 98//98 5//5
f 135//135 66//66 22//22
f 84//84 20//20 130//130
f 126//126 15//15 16//16
f 108//108 112//112 114//114
f 138//138 10//10 118//118
f 86//86 118//118 94//94
f 125//125 23//23 15//15
f 52//52 103//103 12//12
f 103//103 26//26 12//12
f 26//26 19//19 25//25
f 143//143 112//112 142//142
f 38//38 4//4 42//42
f 122//122 120//120 16//16
f 103//103 122//122 26//26
f 19//19 122//122 121//121
f 45//45 135//135 131//131
f 131//131 126//126 24//24
f 131//131 24//24 1//1
f 1//1 127//127 37//37
f 45//45 131//131 96//96
f 131//131 1//1 96//96
f 116//116 71//71 69//69
f 133//133 116//116 69//69
f 116//116 133//133 18//18
f 133//133 68//68 56//56
f 117//117 133//133 56//56
f 133//133 117//117 93//93
f 27//27 51//51 78//78
f 3//3 105//105 140//140
f 105//105 2//2 140//140
f 105//105 3//3 72//72
f 12//12 54//54 53//53
f 141//141 58//58 74//74
f 12//12 53//53 52//52
f 133//133 69//69 68//68
f 79//79 35//35 42//42
f 38//38 85//85 4//4
f 61//61 107//107 60//60
f 4//4 91//91 145//145
f 43//43 22//22 70//70
f 14//14 107//107 6//6
f 107//107 14//14 106//106
f 107//107 79//79 6//6
f 90//90 42//42 4//4
f 42//42 90//90 79//79
f 43//43 134//134 22//22
f 143//143 83//83 84//84
f 31//31 87//87 88//88
f 84//84 112//112 143//143
f 84//84 130//130 112//112
f 107//107 106//106 60//60
f 135//135 22//22 109//109
f 91//91 93//93 145//145
f 91//91 85//85 144//144
f 139//139 137//137 111//111
f 137//137 14//14 111//111
f 23//23 121//121 15//15
f 13//13 140//140 125//125
f 138//138 128//128 10//10
f 139//139 78//78 32//32
f 134//134 13//13 125//125
f 142//142 108//108 98//98
f 134//134 43//43 63//63
f 80//80 10//10 17//17
f 108//108 142//142 112//112
f 140//140 23//23 125//125
f 141//141 89//89 129//129
f 9//9 142//142 75//75
f 9//9 29//29 62//62
f 29//29 9//9 75//75
f 143//143 142//142 9//9
f 136//136 36//36 50//50
f 83//83 143//143 123//123
f 4//4 145//145 5//5
f 83//83 123//123 34//34
f 144//144 80//80 17//17
f 136//136 144//144 85//85
f 144//144 136//136 99//99
f 85//85 91//91 4//4
f 145//145 81//81 5//5
f 145//145 93//93 117//117
f 117//117 81//81 145//145
# 234 faces, 0 coords texture

# End of File
